%TF.GenerationSoftware,KiCad,Pcbnew,7.0.1*%
%TF.CreationDate,2023-07-17T00:52:35+01:00*%
%TF.ProjectId,Motor Driver Board,4d6f746f-7220-4447-9269-76657220426f,rev?*%
%TF.SameCoordinates,Original*%
%TF.FileFunction,Copper,L1,Top*%
%TF.FilePolarity,Positive*%
%FSLAX46Y46*%
G04 Gerber Fmt 4.6, Leading zero omitted, Abs format (unit mm)*
G04 Created by KiCad (PCBNEW 7.0.1) date 2023-07-17 00:52:35*
%MOMM*%
%LPD*%
G01*
G04 APERTURE LIST*
G04 Aperture macros list*
%AMRoundRect*
0 Rectangle with rounded corners*
0 $1 Rounding radius*
0 $2 $3 $4 $5 $6 $7 $8 $9 X,Y pos of 4 corners*
0 Add a 4 corners polygon primitive as box body*
4,1,4,$2,$3,$4,$5,$6,$7,$8,$9,$2,$3,0*
0 Add four circle primitives for the rounded corners*
1,1,$1+$1,$2,$3*
1,1,$1+$1,$4,$5*
1,1,$1+$1,$6,$7*
1,1,$1+$1,$8,$9*
0 Add four rect primitives between the rounded corners*
20,1,$1+$1,$2,$3,$4,$5,0*
20,1,$1+$1,$4,$5,$6,$7,0*
20,1,$1+$1,$6,$7,$8,$9,0*
20,1,$1+$1,$8,$9,$2,$3,0*%
%AMFreePoly0*
4,1,37,0.051036,2.778536,0.052500,2.775000,0.052500,2.285000,3.247500,2.285000,3.251036,2.283536,3.252500,2.280000,3.252500,1.530000,3.251036,1.526464,3.247500,1.525000,2.777500,1.525000,2.777500,-1.525000,3.247500,-1.525000,3.251036,-1.526464,3.252500,-1.530000,3.252500,-2.280000,3.251036,-2.283536,3.247500,-2.285000,0.052500,-2.285000,0.052500,-2.775000,0.051036,-2.778536,
0.047500,-2.780000,-0.857500,-2.780000,-0.861036,-2.778536,-0.862500,-2.775000,-0.862500,-2.285000,-1.282500,-2.285000,-1.286036,-2.283536,-1.287500,-2.280000,-1.287500,2.280000,-1.286036,2.283536,-1.282500,2.285000,-0.862500,2.285000,-0.862500,2.775000,-0.861036,2.778536,-0.857500,2.780000,0.047500,2.780000,0.051036,2.778536,0.051036,2.778536,$1*%
G04 Aperture macros list end*
%TA.AperFunction,SMDPad,CuDef*%
%ADD10RoundRect,0.140000X-0.170000X0.140000X-0.170000X-0.140000X0.170000X-0.140000X0.170000X0.140000X0*%
%TD*%
%TA.AperFunction,SMDPad,CuDef*%
%ADD11RoundRect,0.140000X0.170000X-0.140000X0.170000X0.140000X-0.170000X0.140000X-0.170000X-0.140000X0*%
%TD*%
%TA.AperFunction,SMDPad,CuDef*%
%ADD12RoundRect,0.135000X-0.185000X0.135000X-0.185000X-0.135000X0.185000X-0.135000X0.185000X0.135000X0*%
%TD*%
%TA.AperFunction,SMDPad,CuDef*%
%ADD13RoundRect,0.140000X0.140000X0.170000X-0.140000X0.170000X-0.140000X-0.170000X0.140000X-0.170000X0*%
%TD*%
%TA.AperFunction,SMDPad,CuDef*%
%ADD14R,6.200000X2.700000*%
%TD*%
%TA.AperFunction,SMDPad,CuDef*%
%ADD15RoundRect,0.250000X0.550000X-1.500000X0.550000X1.500000X-0.550000X1.500000X-0.550000X-1.500000X0*%
%TD*%
%TA.AperFunction,ComponentPad*%
%ADD16RoundRect,0.250000X-0.600000X-0.750000X0.600000X-0.750000X0.600000X0.750000X-0.600000X0.750000X0*%
%TD*%
%TA.AperFunction,ComponentPad*%
%ADD17O,1.700000X2.000000*%
%TD*%
%TA.AperFunction,ComponentPad*%
%ADD18RoundRect,0.250000X-0.600000X-0.725000X0.600000X-0.725000X0.600000X0.725000X-0.600000X0.725000X0*%
%TD*%
%TA.AperFunction,ComponentPad*%
%ADD19O,1.700000X1.950000*%
%TD*%
%TA.AperFunction,ComponentPad*%
%ADD20C,5.600000*%
%TD*%
%TA.AperFunction,SMDPad,CuDef*%
%ADD21RoundRect,0.135000X-0.135000X-0.185000X0.135000X-0.185000X0.135000X0.185000X-0.135000X0.185000X0*%
%TD*%
%TA.AperFunction,SMDPad,CuDef*%
%ADD22RoundRect,0.218750X0.218750X0.256250X-0.218750X0.256250X-0.218750X-0.256250X0.218750X-0.256250X0*%
%TD*%
%TA.AperFunction,SMDPad,CuDef*%
%ADD23RoundRect,0.135000X0.135000X0.185000X-0.135000X0.185000X-0.135000X-0.185000X0.135000X-0.185000X0*%
%TD*%
%TA.AperFunction,SMDPad,CuDef*%
%ADD24R,1.050000X0.650000*%
%TD*%
%TA.AperFunction,SMDPad,CuDef*%
%ADD25R,1.000000X0.750000*%
%TD*%
%TA.AperFunction,SMDPad,CuDef*%
%ADD26FreePoly0,0.000000*%
%TD*%
%TA.AperFunction,SMDPad,CuDef*%
%ADD27R,2.500000X1.500000*%
%TD*%
%TA.AperFunction,SMDPad,CuDef*%
%ADD28RoundRect,0.135000X0.185000X-0.135000X0.185000X0.135000X-0.185000X0.135000X-0.185000X-0.135000X0*%
%TD*%
%TA.AperFunction,ComponentPad*%
%ADD29R,3.000000X3.000000*%
%TD*%
%TA.AperFunction,ComponentPad*%
%ADD30C,3.000000*%
%TD*%
%TA.AperFunction,SMDPad,CuDef*%
%ADD31R,0.750000X1.000000*%
%TD*%
%TA.AperFunction,SMDPad,CuDef*%
%ADD32FreePoly0,90.000000*%
%TD*%
%TA.AperFunction,SMDPad,CuDef*%
%ADD33RoundRect,0.140000X-0.140000X-0.170000X0.140000X-0.170000X0.140000X0.170000X-0.140000X0.170000X0*%
%TD*%
%TA.AperFunction,ComponentPad*%
%ADD34RoundRect,1.025000X1.025000X1.025000X-1.025000X1.025000X-1.025000X-1.025000X1.025000X-1.025000X0*%
%TD*%
%TA.AperFunction,ComponentPad*%
%ADD35C,4.100000*%
%TD*%
%TA.AperFunction,ComponentPad*%
%ADD36R,0.900000X2.000000*%
%TD*%
%TA.AperFunction,SMDPad,CuDef*%
%ADD37R,0.600000X1.140000*%
%TD*%
%TA.AperFunction,SMDPad,CuDef*%
%ADD38R,0.300000X1.140000*%
%TD*%
%TA.AperFunction,ComponentPad*%
%ADD39O,0.900000X2.000000*%
%TD*%
%TA.AperFunction,ComponentPad*%
%ADD40O,0.900000X1.700000*%
%TD*%
%TA.AperFunction,SMDPad,CuDef*%
%ADD41R,0.800000X0.300000*%
%TD*%
%TA.AperFunction,SMDPad,CuDef*%
%ADD42R,0.300000X0.800000*%
%TD*%
%TA.AperFunction,SMDPad,CuDef*%
%ADD43R,2.800000X2.800000*%
%TD*%
%TA.AperFunction,SMDPad,CuDef*%
%ADD44RoundRect,0.112500X-0.112500X0.187500X-0.112500X-0.187500X0.112500X-0.187500X0.112500X0.187500X0*%
%TD*%
%TA.AperFunction,SMDPad,CuDef*%
%ADD45FreePoly0,180.000000*%
%TD*%
%TA.AperFunction,SMDPad,CuDef*%
%ADD46RoundRect,0.087500X0.087500X-0.225000X0.087500X0.225000X-0.087500X0.225000X-0.087500X-0.225000X0*%
%TD*%
%TA.AperFunction,SMDPad,CuDef*%
%ADD47RoundRect,0.087500X0.225000X-0.087500X0.225000X0.087500X-0.225000X0.087500X-0.225000X-0.087500X0*%
%TD*%
%TA.AperFunction,SMDPad,CuDef*%
%ADD48RoundRect,0.225000X0.250000X-0.225000X0.250000X0.225000X-0.250000X0.225000X-0.250000X-0.225000X0*%
%TD*%
%TA.AperFunction,SMDPad,CuDef*%
%ADD49RoundRect,0.218750X-0.218750X-0.256250X0.218750X-0.256250X0.218750X0.256250X-0.218750X0.256250X0*%
%TD*%
%TA.AperFunction,SMDPad,CuDef*%
%ADD50R,0.475000X0.300000*%
%TD*%
%TA.AperFunction,ComponentPad*%
%ADD51RoundRect,1.025000X1.025000X-1.025000X1.025000X1.025000X-1.025000X1.025000X-1.025000X-1.025000X0*%
%TD*%
%TA.AperFunction,ComponentPad*%
%ADD52R,2.000000X0.900000*%
%TD*%
%TA.AperFunction,SMDPad,CuDef*%
%ADD53RoundRect,0.225000X-0.225000X-0.250000X0.225000X-0.250000X0.225000X0.250000X-0.225000X0.250000X0*%
%TD*%
%TA.AperFunction,ComponentPad*%
%ADD54RoundRect,1.500000X1.500000X-1.500000X1.500000X1.500000X-1.500000X1.500000X-1.500000X-1.500000X0*%
%TD*%
%TA.AperFunction,ComponentPad*%
%ADD55C,6.000000*%
%TD*%
%TA.AperFunction,SMDPad,CuDef*%
%ADD56RoundRect,0.150000X0.150000X-0.512500X0.150000X0.512500X-0.150000X0.512500X-0.150000X-0.512500X0*%
%TD*%
%TA.AperFunction,SMDPad,CuDef*%
%ADD57R,1.650000X1.950000*%
%TD*%
%TA.AperFunction,SMDPad,CuDef*%
%ADD58R,0.350000X0.400000*%
%TD*%
%TA.AperFunction,SMDPad,CuDef*%
%ADD59R,0.500000X0.400000*%
%TD*%
%TA.AperFunction,SMDPad,CuDef*%
%ADD60R,0.920000X0.285000*%
%TD*%
%TA.AperFunction,SMDPad,CuDef*%
%ADD61R,1.600000X1.050000*%
%TD*%
%TA.AperFunction,SMDPad,CuDef*%
%ADD62R,1.600000X3.100000*%
%TD*%
%TA.AperFunction,ConnectorPad*%
%ADD63C,0.787400*%
%TD*%
%TA.AperFunction,SMDPad,CuDef*%
%ADD64RoundRect,0.250000X-0.400000X-0.600000X0.400000X-0.600000X0.400000X0.600000X-0.400000X0.600000X0*%
%TD*%
%TA.AperFunction,SMDPad,CuDef*%
%ADD65R,1.500000X0.650000*%
%TD*%
%TA.AperFunction,SMDPad,CuDef*%
%ADD66R,1.475000X0.300000*%
%TD*%
%TA.AperFunction,SMDPad,CuDef*%
%ADD67R,0.300000X1.475000*%
%TD*%
%TA.AperFunction,ViaPad*%
%ADD68C,0.450000*%
%TD*%
%TA.AperFunction,Conductor*%
%ADD69C,0.300000*%
%TD*%
%TA.AperFunction,Conductor*%
%ADD70C,0.250000*%
%TD*%
%TA.AperFunction,Conductor*%
%ADD71C,0.200000*%
%TD*%
%TA.AperFunction,Conductor*%
%ADD72C,0.500000*%
%TD*%
G04 APERTURE END LIST*
D10*
%TO.P,C315,1*%
%TO.N,+3.3V*%
X154500000Y-71520000D03*
%TO.P,C315,2*%
%TO.N,GND*%
X154500000Y-72480000D03*
%TD*%
D11*
%TO.P,C307,1*%
%TO.N,/Microcontroller/VREF+*%
X127659000Y-80990000D03*
%TO.P,C307,2*%
%TO.N,GND*%
X127659000Y-80030000D03*
%TD*%
D12*
%TO.P,R403,1*%
%TO.N,+3.3V*%
X177500000Y-92990000D03*
%TO.P,R403,2*%
%TO.N,M3_NFAULT*%
X177500000Y-94010000D03*
%TD*%
D13*
%TO.P,C313,1*%
%TO.N,+3.3V*%
X133980000Y-86500000D03*
%TO.P,C313,2*%
%TO.N,GND*%
X133020000Y-86500000D03*
%TD*%
D14*
%TO.P,R412,1,1*%
%TO.N,GND*%
X151000000Y-112750000D03*
%TO.P,R412,2,2*%
%TO.N,/Motor Drivers/M2_SP*%
X151000000Y-121050000D03*
%TD*%
D15*
%TO.P,C417,1*%
%TO.N,VMOT*%
X163000000Y-105700000D03*
%TO.P,C417,2*%
%TO.N,GND*%
X163000000Y-100300000D03*
%TD*%
D16*
%TO.P,J201,1,Pin_1*%
%TO.N,+5V*%
X182500000Y-92975000D03*
D17*
%TO.P,J201,2,Pin_2*%
%TO.N,GND*%
X185000000Y-92975000D03*
%TD*%
D18*
%TO.P,J406,1,Pin_1*%
%TO.N,unconnected-(J406-Pin_1-Pad1)*%
X142500000Y-93500000D03*
D19*
%TO.P,J406,2,Pin_2*%
%TO.N,SDA2*%
X145000000Y-93500000D03*
%TO.P,J406,3,Pin_3*%
%TO.N,SCL2*%
X147500000Y-93500000D03*
%TO.P,J406,4,Pin_4*%
%TO.N,GND*%
X150000000Y-93500000D03*
%TO.P,J406,5,Pin_5*%
%TO.N,+3.3V*%
X152500000Y-93500000D03*
%TD*%
D10*
%TO.P,C415,1*%
%TO.N,/Motor Drivers/M2_CPL*%
X155000000Y-103640000D03*
%TO.P,C415,2*%
%TO.N,/Motor Drivers/M2_CPH*%
X155000000Y-104600000D03*
%TD*%
%TO.P,C310,1*%
%TO.N,+3.3V*%
X154500000Y-64620000D03*
%TO.P,C310,2*%
%TO.N,GND*%
X154500000Y-65580000D03*
%TD*%
D11*
%TO.P,C412,1*%
%TO.N,VMOT*%
X188100000Y-106300000D03*
%TO.P,C412,2*%
%TO.N,GND*%
X188100000Y-105340000D03*
%TD*%
%TO.P,C317,1*%
%TO.N,+3.3V*%
X129500000Y-67750000D03*
%TO.P,C317,2*%
%TO.N,GND*%
X129500000Y-66790000D03*
%TD*%
D20*
%TO.P,H106,1,1*%
%TO.N,unconnected-(H106-Pad1)*%
X167000000Y-132000000D03*
%TD*%
D13*
%TO.P,C323,1*%
%TO.N,+3.3V*%
X145980000Y-86500000D03*
%TO.P,C323,2*%
%TO.N,GND*%
X145020000Y-86500000D03*
%TD*%
D21*
%TO.P,R308,1*%
%TO.N,BOOT0*%
X136250000Y-61500000D03*
%TO.P,R308,2*%
%TO.N,GND*%
X137270000Y-61500000D03*
%TD*%
D22*
%TO.P,D401,1,K*%
%TO.N,/Motor Drivers/M3_NFAULT_K*%
X186250000Y-99250000D03*
%TO.P,D401,2,A*%
%TO.N,/Motor Drivers/M3_DVDD*%
X184675000Y-99250000D03*
%TD*%
D12*
%TO.P,R309,1*%
%TO.N,/Microcontroller/CC1*%
X162100000Y-70290000D03*
%TO.P,R309,2*%
%TO.N,GND*%
X162100000Y-71310000D03*
%TD*%
D23*
%TO.P,R205,1*%
%TO.N,/Power/3V3_FB*%
X176180000Y-65350000D03*
%TO.P,R205,2*%
%TO.N,GND*%
X175160000Y-65350000D03*
%TD*%
D24*
%TO.P,S304,1,NO_1*%
%TO.N,unconnected-(S304-NO_1-Pad1)*%
X111725000Y-65225000D03*
%TO.P,S304,2,NO_2*%
%TO.N,NRST*%
X115875000Y-65225000D03*
%TO.P,S304,3,COM_1*%
%TO.N,GND*%
X111725000Y-67375000D03*
%TO.P,S304,4,COM_2*%
%TO.N,unconnected-(S304-COM_2-Pad4)*%
X115875000Y-67375000D03*
%TD*%
D12*
%TO.P,R316,1*%
%TO.N,+3.3V*%
X153600000Y-86890000D03*
%TO.P,R316,2*%
%TO.N,SDA2*%
X153600000Y-87910000D03*
%TD*%
D23*
%TO.P,R406,1*%
%TO.N,+3.3V*%
X136510000Y-86500000D03*
%TO.P,R406,2*%
%TO.N,M1_SNSOUT*%
X135490000Y-86500000D03*
%TD*%
D15*
%TO.P,C421,1*%
%TO.N,VMOT*%
X139000000Y-105700000D03*
%TO.P,C421,2*%
%TO.N,GND*%
X139000000Y-100300000D03*
%TD*%
D23*
%TO.P,R411,1*%
%TO.N,+3.3V*%
X150258722Y-99257504D03*
%TO.P,R411,2*%
%TO.N,M2_SNSOUT*%
X149238722Y-99257504D03*
%TD*%
D25*
%TO.P,T402,1,S*%
%TO.N,/Motor Drivers/M3_SP*%
X188000000Y-118730000D03*
%TO.P,T402,2,S*%
X188000000Y-120000000D03*
%TO.P,T402,3,S*%
X188000000Y-121270000D03*
%TO.P,T402,4,G*%
%TO.N,/Motor Drivers/M3_GL2*%
X188000000Y-122540000D03*
D26*
%TO.P,T402,5_6,D*%
%TO.N,/Motor Drivers/M3_OUT_A*%
X190747500Y-120635000D03*
%TD*%
D27*
%TO.P,L201,1*%
%TO.N,/Power/5V_SW*%
X179900000Y-67250000D03*
%TO.P,L201,2*%
%TO.N,+5V*%
X179900000Y-70950000D03*
%TD*%
D28*
%TO.P,R207,1*%
%TO.N,+3.3V*%
X166100000Y-70960000D03*
%TO.P,R207,2*%
%TO.N,/Power/3V3_LED_A*%
X166100000Y-69940000D03*
%TD*%
D10*
%TO.P,C316,1*%
%TO.N,+3.3V*%
X155500000Y-77020000D03*
%TO.P,C316,2*%
%TO.N,GND*%
X155500000Y-77980000D03*
%TD*%
D13*
%TO.P,C318,1*%
%TO.N,+3.3V*%
X140980000Y-86500000D03*
%TO.P,C318,2*%
%TO.N,GND*%
X140020000Y-86500000D03*
%TD*%
D29*
%TO.P,J302,1,Pin_1*%
%TO.N,/Microcontroller/CANH*%
X195000000Y-93080000D03*
D30*
%TO.P,J302,2,Pin_2*%
%TO.N,GND*%
X195000000Y-88000000D03*
%TO.P,J302,3,Pin_3*%
%TO.N,/Microcontroller/CANL*%
X195000000Y-82920000D03*
%TD*%
D31*
%TO.P,T401,1,S*%
%TO.N,/Motor Drivers/M3_OUT_A*%
X189580000Y-116112500D03*
%TO.P,T401,2,S*%
X190850000Y-116112500D03*
%TO.P,T401,3,S*%
X192120000Y-116112500D03*
%TO.P,T401,4,G*%
%TO.N,/Motor Drivers/M3_GH2*%
X193390000Y-116112500D03*
D32*
%TO.P,T401,5_6,D*%
%TO.N,VMOT*%
X191485000Y-113365000D03*
%TD*%
D23*
%TO.P,R303,1*%
%TO.N,GND*%
X108510000Y-77100000D03*
%TO.P,R303,2*%
%TO.N,/Microcontroller/LEDB_K*%
X107490000Y-77100000D03*
%TD*%
D10*
%TO.P,C328,1*%
%TO.N,NRST*%
X118050000Y-66820000D03*
%TO.P,C328,2*%
%TO.N,GND*%
X118050000Y-67780000D03*
%TD*%
D31*
%TO.P,T404,1,S*%
%TO.N,/Motor Drivers/M3_OUT_B*%
X172610000Y-116000000D03*
%TO.P,T404,2,S*%
X173880000Y-116000000D03*
%TO.P,T404,3,S*%
X175150000Y-116000000D03*
%TO.P,T404,4,G*%
%TO.N,/Motor Drivers/M3_GH1*%
X176420000Y-116000000D03*
D32*
%TO.P,T404,5_6,D*%
%TO.N,VMOT*%
X174515000Y-113252500D03*
%TD*%
D28*
%TO.P,FB301,1*%
%TO.N,/Microcontroller/VDDA*%
X127659000Y-79100000D03*
%TO.P,FB301,2*%
%TO.N,+3.3V*%
X127659000Y-78080000D03*
%TD*%
D12*
%TO.P,R307,1*%
%TO.N,/Microcontroller/CANL*%
X174600000Y-79490000D03*
%TO.P,R307,2*%
%TO.N,/Microcontroller/CAN_SW*%
X174600000Y-80510000D03*
%TD*%
D22*
%TO.P,D402,1,K*%
%TO.N,/Motor Drivers/M1_NFAULT_K*%
X122287500Y-99500000D03*
%TO.P,D402,2,A*%
%TO.N,/Motor Drivers/M1_DVDD*%
X120712500Y-99500000D03*
%TD*%
D11*
%TO.P,C416,1*%
%TO.N,VMOT*%
X155000000Y-106400000D03*
%TO.P,C416,2*%
%TO.N,/Motor Drivers/M2_VCP*%
X155000000Y-105440000D03*
%TD*%
%TO.P,C411,1*%
%TO.N,VMOT*%
X124100000Y-106400000D03*
%TO.P,C411,2*%
%TO.N,GND*%
X124100000Y-105440000D03*
%TD*%
D25*
%TO.P,T406,1,S*%
%TO.N,/Motor Drivers/M1_SP*%
X124000000Y-118460000D03*
%TO.P,T406,2,S*%
X124000000Y-119730000D03*
%TO.P,T406,3,S*%
X124000000Y-121000000D03*
%TO.P,T406,4,G*%
%TO.N,/Motor Drivers/M1_GL2*%
X124000000Y-122270000D03*
D26*
%TO.P,T406,5_6,D*%
%TO.N,/Motor Drivers/M1_OUT_A*%
X126747500Y-120365000D03*
%TD*%
D13*
%TO.P,C314,1*%
%TO.N,+3.3V*%
X133260000Y-61500000D03*
%TO.P,C314,2*%
%TO.N,GND*%
X132300000Y-61500000D03*
%TD*%
D33*
%TO.P,C204,1*%
%TO.N,VIN*%
X183670000Y-65350000D03*
%TO.P,C204,2*%
%TO.N,GND*%
X184630000Y-65350000D03*
%TD*%
D34*
%TO.P,J404,1,-*%
%TO.N,/Motor Drivers/M2_OUT_B*%
X147400000Y-127350000D03*
D35*
%TO.P,J404,2,+*%
%TO.N,/Motor Drivers/M2_OUT_A*%
X154600000Y-127350000D03*
D36*
%TO.P,J404,SH1,SH1*%
%TO.N,unconnected-(J404-PadSH1)*%
X144250000Y-133350000D03*
%TO.P,J404,SH2,SH2*%
%TO.N,unconnected-(J404-PadSH2)*%
X157750000Y-133350000D03*
%TD*%
D37*
%TO.P,J303,A1_B12,GND*%
%TO.N,GND*%
X163850000Y-66850000D03*
%TO.P,J303,A4_B9,VBUS*%
%TO.N,VBUS*%
X163050000Y-66850000D03*
D38*
%TO.P,J303,A5,CC1*%
%TO.N,/Microcontroller/CC1*%
X161900000Y-66850000D03*
%TO.P,J303,A6,DP1*%
%TO.N,USB_DP*%
X160900000Y-66850000D03*
%TO.P,J303,A7,DN1*%
%TO.N,USB_DN*%
X160400000Y-66850000D03*
%TO.P,J303,A8,SBU1*%
%TO.N,unconnected-(J303-SBU1-PadA8)*%
X159400000Y-66850000D03*
D37*
%TO.P,J303,B1_A12,GND*%
%TO.N,GND*%
X157450000Y-66850000D03*
%TO.P,J303,B4_A9,VBUS*%
%TO.N,VBUS*%
X158250000Y-66850000D03*
D38*
%TO.P,J303,B5,CC2*%
%TO.N,/Microcontroller/CC2*%
X158900000Y-66850000D03*
%TO.P,J303,B6,DP2*%
%TO.N,USB_DP*%
X159900000Y-66850000D03*
%TO.P,J303,B7,DN2*%
%TO.N,USB_DN*%
X161400000Y-66850000D03*
%TO.P,J303,B8,SBU2*%
%TO.N,unconnected-(J303-SBU2-PadB8)*%
X162400000Y-66850000D03*
D39*
%TO.P,J303,S1,SHIELD*%
%TO.N,unconnected-(J303-SHIELD-PadS1)*%
X164975000Y-66270000D03*
%TO.P,J303,S2,SHIELD*%
%TO.N,unconnected-(J303-SHIELD-PadS2)*%
X156325000Y-66270000D03*
D40*
%TO.P,J303,S3,SHIELD*%
%TO.N,unconnected-(J303-SHIELD-PadS3)*%
X164975000Y-62100000D03*
%TO.P,J303,S4,SHIELD*%
%TO.N,unconnected-(J303-SHIELD-PadS4)*%
X156325000Y-62100000D03*
%TD*%
D21*
%TO.P,R409,1*%
%TO.N,M2_NFAULT*%
X153010000Y-98250000D03*
%TO.P,R409,2*%
%TO.N,/Motor Drivers/M2_NFAULT_K*%
X154030000Y-98250000D03*
%TD*%
D33*
%TO.P,C205,1*%
%TO.N,/Power/5V_BST*%
X185670000Y-67850000D03*
%TO.P,C205,2*%
%TO.N,/Power/5V_SW*%
X186630000Y-67850000D03*
%TD*%
D41*
%TO.P,U402,1,VM*%
%TO.N,VMOT*%
X121000000Y-106250000D03*
%TO.P,U402,2,VCP*%
%TO.N,/Motor Drivers/M1_VCP*%
X121000000Y-105750000D03*
%TO.P,U402,3,CPH*%
%TO.N,/Motor Drivers/M1_CPH*%
X121000000Y-105250000D03*
%TO.P,U402,4,CPL*%
%TO.N,/Motor Drivers/M1_CPL*%
X121000000Y-104750000D03*
%TO.P,U402,5,GND_1*%
%TO.N,GND*%
X121000000Y-104250000D03*
%TO.P,U402,6,VREF*%
%TO.N,VREF*%
X121000000Y-103750000D03*
D42*
%TO.P,U402,7,AVDD*%
%TO.N,/Motor Drivers/M1_AVDD*%
X120250000Y-103000000D03*
%TO.P,U402,8,DVDD*%
%TO.N,/Motor Drivers/M1_DVDD*%
X119750000Y-103000000D03*
%TO.P,U402,9,NFAULT*%
%TO.N,M1_NFAULT*%
X119250000Y-103000000D03*
%TO.P,U402,10,SNSOUT*%
%TO.N,M1_SNSOUT*%
X118750000Y-103000000D03*
%TO.P,U402,11,SO*%
%TO.N,M1_SO*%
X118250000Y-103000000D03*
%TO.P,U402,12,IDRIVE*%
%TO.N,unconnected-(U402-IDRIVE-Pad12)*%
X117750000Y-103000000D03*
D41*
%TO.P,U402,13,NSLEEP*%
%TO.N,M1_NSLEEP*%
X117000000Y-103750000D03*
%TO.P,U402,14,EN*%
%TO.N,M1_EN*%
X117000000Y-104250000D03*
%TO.P,U402,15,PH*%
%TO.N,M1_PH*%
X117000000Y-104750000D03*
%TO.P,U402,16,GND_2*%
%TO.N,GND*%
X117000000Y-105250000D03*
%TO.P,U402,17,GH1*%
%TO.N,/Motor Drivers/M1_GH1*%
X117000000Y-105750000D03*
%TO.P,U402,18,SH1*%
%TO.N,/Motor Drivers/M1_OUT_B*%
X117000000Y-106250000D03*
D42*
%TO.P,U402,19,GL1*%
%TO.N,/Motor Drivers/M1_GL1*%
X117750000Y-107000000D03*
%TO.P,U402,20,SN*%
%TO.N,GND*%
X118250000Y-107000000D03*
%TO.P,U402,21,SP*%
%TO.N,/Motor Drivers/M1_SP*%
X118750000Y-107000000D03*
%TO.P,U402,22,GL2*%
%TO.N,/Motor Drivers/M1_GL2*%
X119250000Y-107000000D03*
%TO.P,U402,23,SH2*%
%TO.N,/Motor Drivers/M1_OUT_A*%
X119750000Y-107000000D03*
%TO.P,U402,24,GH2*%
%TO.N,/Motor Drivers/M1_GH2*%
X120250000Y-107000000D03*
D43*
%TO.P,U402,25,GND_3*%
%TO.N,GND*%
X119000000Y-105000000D03*
%TD*%
D21*
%TO.P,R401,1*%
%TO.N,M3_NFAULT*%
X184952500Y-98060000D03*
%TO.P,R401,2*%
%TO.N,/Motor Drivers/M3_NFAULT_K*%
X185972500Y-98060000D03*
%TD*%
D44*
%TO.P,D304,1,K*%
%TO.N,VIN*%
X164400000Y-69250000D03*
%TO.P,D304,2,A*%
%TO.N,VBUS*%
X164400000Y-71350000D03*
%TD*%
D25*
%TO.P,T403,1,S*%
%TO.N,/Motor Drivers/M3_SP*%
X178000000Y-122540000D03*
%TO.P,T403,2,S*%
X178000000Y-121270000D03*
%TO.P,T403,3,S*%
X178000000Y-120000000D03*
%TO.P,T403,4,G*%
%TO.N,/Motor Drivers/M3_GL1*%
X178000000Y-118730000D03*
D45*
%TO.P,T403,5_6,D*%
%TO.N,/Motor Drivers/M3_OUT_B*%
X175252500Y-120635000D03*
%TD*%
D25*
%TO.P,T411,1,S*%
%TO.N,/Motor Drivers/M2_SP*%
X146000000Y-122270000D03*
%TO.P,T411,2,S*%
X146000000Y-121000000D03*
%TO.P,T411,3,S*%
X146000000Y-119730000D03*
%TO.P,T411,4,G*%
%TO.N,/Motor Drivers/M2_GL1*%
X146000000Y-118460000D03*
D45*
%TO.P,T411,5_6,D*%
%TO.N,/Motor Drivers/M2_OUT_B*%
X143252500Y-120365000D03*
%TD*%
D15*
%TO.P,C410,1*%
%TO.N,VMOT*%
X195000000Y-105700000D03*
%TO.P,C410,2*%
%TO.N,GND*%
X195000000Y-100300000D03*
%TD*%
D10*
%TO.P,C405,1*%
%TO.N,/Motor Drivers/M3_CPL*%
X187100000Y-103540000D03*
%TO.P,C405,2*%
%TO.N,/Motor Drivers/M3_CPH*%
X187100000Y-104500000D03*
%TD*%
D46*
%TO.P,U302,1,SDO/SA0*%
%TO.N,MISO*%
X158750000Y-87162500D03*
%TO.P,U302,2,SDX*%
%TO.N,GND*%
X159250000Y-87162500D03*
%TO.P,U302,3,SCX*%
X159750000Y-87162500D03*
%TO.P,U302,4,INT1*%
%TO.N,IMU_INT1*%
X160250000Y-87162500D03*
D47*
%TO.P,U302,5,VDDIO*%
%TO.N,+3.3V*%
X160412500Y-86500000D03*
%TO.P,U302,6,GND*%
%TO.N,GND*%
X160412500Y-86000000D03*
%TO.P,U302,7,GND*%
X160412500Y-85500000D03*
D46*
%TO.P,U302,8,VDD*%
%TO.N,+3.3V*%
X160250000Y-84837500D03*
%TO.P,U302,9,INT2*%
%TO.N,IMU_INT2*%
X159750000Y-84837500D03*
%TO.P,U302,10,NC*%
%TO.N,unconnected-(U302-NC-Pad10)*%
X159250000Y-84837500D03*
%TO.P,U302,11,NC*%
%TO.N,unconnected-(U302-NC-Pad11)*%
X158750000Y-84837500D03*
D47*
%TO.P,U302,12,CS*%
%TO.N,CS*%
X158587500Y-85500000D03*
%TO.P,U302,13,SCL*%
%TO.N,SCK*%
X158587500Y-86000000D03*
%TO.P,U302,14,SDA*%
%TO.N,MOSI*%
X158587500Y-86500000D03*
%TD*%
D11*
%TO.P,C302,1*%
%TO.N,GND*%
X120325000Y-83280000D03*
%TO.P,C302,2*%
%TO.N,+3.3V*%
X120325000Y-82320000D03*
%TD*%
D23*
%TO.P,R203,1*%
%TO.N,/Power/5V_FB*%
X186680000Y-65350000D03*
%TO.P,R203,2*%
%TO.N,GND*%
X185660000Y-65350000D03*
%TD*%
D10*
%TO.P,C303,1*%
%TO.N,BTN*%
X118050000Y-74300000D03*
%TO.P,C303,2*%
%TO.N,GND*%
X118050000Y-75260000D03*
%TD*%
D21*
%TO.P,R402,1*%
%TO.N,M1_NFAULT*%
X120990000Y-98250000D03*
%TO.P,R402,2*%
%TO.N,/Motor Drivers/M1_NFAULT_K*%
X122010000Y-98250000D03*
%TD*%
D16*
%TO.P,J204,1,Pin_1*%
%TO.N,+5V*%
X182475000Y-77775000D03*
D17*
%TO.P,J204,2,Pin_2*%
%TO.N,GND*%
X184975000Y-77775000D03*
%TD*%
D33*
%TO.P,C319,1*%
%TO.N,+3.3V*%
X144520000Y-61500000D03*
%TO.P,C319,2*%
%TO.N,GND*%
X145480000Y-61500000D03*
%TD*%
%TO.P,C308,1*%
%TO.N,+3.3V*%
X139520000Y-61500000D03*
%TO.P,C308,2*%
%TO.N,GND*%
X140480000Y-61500000D03*
%TD*%
D10*
%TO.P,C327,1*%
%TO.N,+3.3V*%
X162000000Y-84520000D03*
%TO.P,C327,2*%
%TO.N,GND*%
X162000000Y-85480000D03*
%TD*%
D48*
%TO.P,C208,1*%
%TO.N,+3.3V*%
X174150000Y-70625000D03*
%TO.P,C208,2*%
%TO.N,GND*%
X174150000Y-69075000D03*
%TD*%
D11*
%TO.P,C407,1*%
%TO.N,VMOT*%
X187100000Y-106300000D03*
%TO.P,C407,2*%
%TO.N,/Motor Drivers/M3_VCP*%
X187100000Y-105340000D03*
%TD*%
D49*
%TO.P,D303,1,K*%
%TO.N,/Microcontroller/LEDB_K*%
X107212500Y-75850000D03*
%TO.P,D303,2,A*%
%TO.N,LEDB*%
X108787500Y-75850000D03*
%TD*%
D11*
%TO.P,C312,1*%
%TO.N,+3.3V*%
X129500000Y-73480000D03*
%TO.P,C312,2*%
%TO.N,GND*%
X129500000Y-72520000D03*
%TD*%
D33*
%TO.P,C203,1*%
%TO.N,VIN*%
X173170000Y-65350000D03*
%TO.P,C203,2*%
%TO.N,GND*%
X174130000Y-65350000D03*
%TD*%
D18*
%TO.P,J409,1,Pin_1*%
%TO.N,unconnected-(J409-Pin_1-Pad1)*%
X123000000Y-93500000D03*
D19*
%TO.P,J409,2,Pin_2*%
%TO.N,SDA4*%
X125500000Y-93500000D03*
%TO.P,J409,3,Pin_3*%
%TO.N,SCL4*%
X128000000Y-93500000D03*
%TO.P,J409,4,Pin_4*%
%TO.N,GND*%
X130500000Y-93500000D03*
%TO.P,J409,5,Pin_5*%
%TO.N,+3.3V*%
X133000000Y-93500000D03*
%TD*%
D16*
%TO.P,J203,1,Pin_1*%
%TO.N,+5V*%
X182500000Y-85400000D03*
D17*
%TO.P,J203,2,Pin_2*%
%TO.N,GND*%
X185000000Y-85400000D03*
%TD*%
D28*
%TO.P,R304,1*%
%TO.N,BTN*%
X118050000Y-73280000D03*
%TO.P,R304,2*%
%TO.N,+3.3V*%
X118050000Y-72260000D03*
%TD*%
D23*
%TO.P,R404,1*%
%TO.N,+3.3V*%
X132010000Y-86500000D03*
%TO.P,R404,2*%
%TO.N,M1_NFAULT*%
X130990000Y-86500000D03*
%TD*%
D33*
%TO.P,C413,1*%
%TO.N,/Motor Drivers/M2_AVDD*%
X153040000Y-101750000D03*
%TO.P,C413,2*%
%TO.N,GND*%
X154000000Y-101750000D03*
%TD*%
D49*
%TO.P,D301,1,K*%
%TO.N,/Microcontroller/LEDR_K*%
X107212500Y-72850000D03*
%TO.P,D301,2,A*%
%TO.N,LEDR*%
X108787500Y-72850000D03*
%TD*%
D33*
%TO.P,C404,1*%
%TO.N,/Motor Drivers/M1_DVDD*%
X121020000Y-100750000D03*
%TO.P,C404,2*%
%TO.N,GND*%
X121980000Y-100750000D03*
%TD*%
D49*
%TO.P,D302,1,K*%
%TO.N,/Microcontroller/LEDG_K*%
X107212500Y-69850000D03*
%TO.P,D302,2,A*%
%TO.N,LEDG*%
X108787500Y-69850000D03*
%TD*%
D33*
%TO.P,C206,1*%
%TO.N,/Power/3V3_BST*%
X175170000Y-67850000D03*
%TO.P,C206,2*%
%TO.N,/Power/3V3_SW*%
X176130000Y-67850000D03*
%TD*%
D18*
%TO.P,J407,1,Pin_1*%
%TO.N,unconnected-(J407-Pin_1-Pad1)*%
X162000000Y-93500000D03*
D19*
%TO.P,J407,2,Pin_2*%
%TO.N,SDA3*%
X164500000Y-93500000D03*
%TO.P,J407,3,Pin_3*%
%TO.N,SCL3*%
X167000000Y-93500000D03*
%TO.P,J407,4,Pin_4*%
%TO.N,GND*%
X169500000Y-93500000D03*
%TO.P,J407,5,Pin_5*%
%TO.N,+3.3V*%
X172000000Y-93500000D03*
%TD*%
D48*
%TO.P,C210,1*%
%TO.N,+3.3V*%
X172650000Y-70625000D03*
%TO.P,C210,2*%
%TO.N,GND*%
X172650000Y-69075000D03*
%TD*%
D31*
%TO.P,T408,1,S*%
%TO.N,/Motor Drivers/M1_OUT_B*%
X108610000Y-116000000D03*
%TO.P,T408,2,S*%
X109880000Y-116000000D03*
%TO.P,T408,3,S*%
X111150000Y-116000000D03*
%TO.P,T408,4,G*%
%TO.N,/Motor Drivers/M1_GH1*%
X112420000Y-116000000D03*
D32*
%TO.P,T408,5_6,D*%
%TO.N,VMOT*%
X110515000Y-113252500D03*
%TD*%
D10*
%TO.P,C320,1*%
%TO.N,+3.3V*%
X154500000Y-77020000D03*
%TO.P,C320,2*%
%TO.N,GND*%
X154500000Y-77980000D03*
%TD*%
D33*
%TO.P,C402,1*%
%TO.N,/Motor Drivers/M1_AVDD*%
X121020000Y-101750000D03*
%TO.P,C402,2*%
%TO.N,GND*%
X121980000Y-101750000D03*
%TD*%
D14*
%TO.P,R408,1,1*%
%TO.N,GND*%
X119000000Y-112750000D03*
%TO.P,R408,2,2*%
%TO.N,/Motor Drivers/M1_SP*%
X119000000Y-121050000D03*
%TD*%
D10*
%TO.P,C406,1*%
%TO.N,/Motor Drivers/M1_CPL*%
X123100000Y-103640000D03*
%TO.P,C406,2*%
%TO.N,/Motor Drivers/M1_CPH*%
X123100000Y-104600000D03*
%TD*%
D23*
%TO.P,R301,1*%
%TO.N,GND*%
X108510000Y-74100000D03*
%TO.P,R301,2*%
%TO.N,/Microcontroller/LEDR_K*%
X107490000Y-74100000D03*
%TD*%
D50*
%TO.P,IC201,1,VIN*%
%TO.N,VIN*%
X182812000Y-66600000D03*
%TO.P,IC201,2,SW*%
%TO.N,/Power/5V_SW*%
X182812000Y-67100000D03*
%TO.P,IC201,3,GND*%
%TO.N,GND*%
X182812000Y-67600000D03*
%TO.P,IC201,4,BST*%
%TO.N,/Power/5V_BST*%
X184488000Y-67600000D03*
%TO.P,IC201,5,EN*%
%TO.N,VIN*%
X184488000Y-67100000D03*
%TO.P,IC201,6,FB*%
%TO.N,/Power/5V_FB*%
X184488000Y-66600000D03*
%TD*%
D31*
%TO.P,T412,1,S*%
%TO.N,/Motor Drivers/M2_OUT_B*%
X140620000Y-116000000D03*
%TO.P,T412,2,S*%
X141890000Y-116000000D03*
%TO.P,T412,3,S*%
X143160000Y-116000000D03*
%TO.P,T412,4,G*%
%TO.N,/Motor Drivers/M2_GH1*%
X144430000Y-116000000D03*
D32*
%TO.P,T412,5_6,D*%
%TO.N,VMOT*%
X142525000Y-113252500D03*
%TD*%
D28*
%TO.P,R315,1*%
%TO.N,+3.3V*%
X153600000Y-89910000D03*
%TO.P,R315,2*%
%TO.N,SCL2*%
X153600000Y-88890000D03*
%TD*%
D51*
%TO.P,J403,1,-*%
%TO.N,GND*%
X113000000Y-91700000D03*
D35*
%TO.P,J403,2,+*%
%TO.N,VMOT*%
X113000000Y-84500000D03*
D52*
%TO.P,J403,SH1,SH1*%
%TO.N,GND*%
X107000000Y-94850000D03*
%TO.P,J403,SH2,SH2*%
%TO.N,VMOT*%
X107000000Y-81350000D03*
%TD*%
D25*
%TO.P,T407,1,S*%
%TO.N,/Motor Drivers/M1_SP*%
X114000000Y-122270000D03*
%TO.P,T407,2,S*%
X114000000Y-121000000D03*
%TO.P,T407,3,S*%
X114000000Y-119730000D03*
%TO.P,T407,4,G*%
%TO.N,/Motor Drivers/M1_GL1*%
X114000000Y-118460000D03*
D45*
%TO.P,T407,5_6,D*%
%TO.N,/Motor Drivers/M1_OUT_B*%
X111252500Y-120365000D03*
%TD*%
D53*
%TO.P,C201,1*%
%TO.N,VIN*%
X173625000Y-63850000D03*
%TO.P,C201,2*%
%TO.N,GND*%
X175175000Y-63850000D03*
%TD*%
D12*
%TO.P,R310,1*%
%TO.N,/Microcontroller/CC2*%
X157400000Y-70190000D03*
%TO.P,R310,2*%
%TO.N,GND*%
X157400000Y-71210000D03*
%TD*%
D15*
%TO.P,C420,1*%
%TO.N,VMOT*%
X107000000Y-105700000D03*
%TO.P,C420,2*%
%TO.N,GND*%
X107000000Y-100300000D03*
%TD*%
D11*
%TO.P,C306,1*%
%TO.N,/Microcontroller/VREF+*%
X128659000Y-80990000D03*
%TO.P,C306,2*%
%TO.N,GND*%
X128659000Y-80030000D03*
%TD*%
D25*
%TO.P,T410,1,S*%
%TO.N,/Motor Drivers/M2_SP*%
X156000000Y-118460000D03*
%TO.P,T410,2,S*%
X156000000Y-119730000D03*
%TO.P,T410,3,S*%
X156000000Y-121000000D03*
%TO.P,T410,4,G*%
%TO.N,/Motor Drivers/M2_GL2*%
X156000000Y-122270000D03*
D26*
%TO.P,T410,5_6,D*%
%TO.N,/Motor Drivers/M2_OUT_A*%
X158747500Y-120365000D03*
%TD*%
D41*
%TO.P,U401,1,VM*%
%TO.N,VMOT*%
X185000000Y-106250000D03*
%TO.P,U401,2,VCP*%
%TO.N,/Motor Drivers/M3_VCP*%
X185000000Y-105750000D03*
%TO.P,U401,3,CPH*%
%TO.N,/Motor Drivers/M3_CPH*%
X185000000Y-105250000D03*
%TO.P,U401,4,CPL*%
%TO.N,/Motor Drivers/M3_CPL*%
X185000000Y-104750000D03*
%TO.P,U401,5,GND_1*%
%TO.N,GND*%
X185000000Y-104250000D03*
%TO.P,U401,6,VREF*%
%TO.N,VREF*%
X185000000Y-103750000D03*
D42*
%TO.P,U401,7,AVDD*%
%TO.N,/Motor Drivers/M3_AVDD*%
X184250000Y-103000000D03*
%TO.P,U401,8,DVDD*%
%TO.N,/Motor Drivers/M3_DVDD*%
X183750000Y-103000000D03*
%TO.P,U401,9,NFAULT*%
%TO.N,M3_NFAULT*%
X183250000Y-103000000D03*
%TO.P,U401,10,SNSOUT*%
%TO.N,M3_SNSOUT*%
X182750000Y-103000000D03*
%TO.P,U401,11,SO*%
%TO.N,M3_SO*%
X182250000Y-103000000D03*
%TO.P,U401,12,IDRIVE*%
%TO.N,unconnected-(U401-IDRIVE-Pad12)*%
X181750000Y-103000000D03*
D41*
%TO.P,U401,13,NSLEEP*%
%TO.N,M3_NSLEEP*%
X181000000Y-103750000D03*
%TO.P,U401,14,EN*%
%TO.N,M3_EN*%
X181000000Y-104250000D03*
%TO.P,U401,15,PH*%
%TO.N,M3_PH*%
X181000000Y-104750000D03*
%TO.P,U401,16,GND_2*%
%TO.N,GND*%
X181000000Y-105250000D03*
%TO.P,U401,17,GH1*%
%TO.N,/Motor Drivers/M3_GH1*%
X181000000Y-105750000D03*
%TO.P,U401,18,SH1*%
%TO.N,/Motor Drivers/M3_OUT_B*%
X181000000Y-106250000D03*
D42*
%TO.P,U401,19,GL1*%
%TO.N,/Motor Drivers/M3_GL1*%
X181750000Y-107000000D03*
%TO.P,U401,20,SN*%
%TO.N,GND*%
X182250000Y-107000000D03*
%TO.P,U401,21,SP*%
%TO.N,/Motor Drivers/M3_SP*%
X182750000Y-107000000D03*
%TO.P,U401,22,GL2*%
%TO.N,/Motor Drivers/M3_GL2*%
X183250000Y-107000000D03*
%TO.P,U401,23,SH2*%
%TO.N,/Motor Drivers/M3_OUT_A*%
X183750000Y-107000000D03*
%TO.P,U401,24,GH2*%
%TO.N,/Motor Drivers/M3_GH2*%
X184250000Y-107000000D03*
D43*
%TO.P,U401,25,GND_3*%
%TO.N,GND*%
X183000000Y-105000000D03*
%TD*%
D54*
%TO.P,J405,1,-*%
%TO.N,GND*%
X107000000Y-91700000D03*
D55*
%TO.P,J405,2,+*%
%TO.N,VMOT*%
X107000000Y-84500000D03*
%TD*%
D31*
%TO.P,T409,1,S*%
%TO.N,/Motor Drivers/M2_OUT_A*%
X157580000Y-116000000D03*
%TO.P,T409,2,S*%
X158850000Y-116000000D03*
%TO.P,T409,3,S*%
X160120000Y-116000000D03*
%TO.P,T409,4,G*%
%TO.N,/Motor Drivers/M2_GH2*%
X161390000Y-116000000D03*
D32*
%TO.P,T409,5_6,D*%
%TO.N,VMOT*%
X159485000Y-113252500D03*
%TD*%
D34*
%TO.P,J402,1,-*%
%TO.N,/Motor Drivers/M1_OUT_B*%
X115400000Y-127350000D03*
D35*
%TO.P,J402,2,+*%
%TO.N,/Motor Drivers/M1_OUT_A*%
X122600000Y-127350000D03*
D36*
%TO.P,J402,SH1,SH1*%
%TO.N,unconnected-(J402-PadSH1)*%
X112250000Y-133350000D03*
%TO.P,J402,SH2,SH2*%
%TO.N,unconnected-(J402-PadSH2)*%
X125750000Y-133350000D03*
%TD*%
D23*
%TO.P,R311,1*%
%TO.N,+3.3V*%
X162710000Y-81300000D03*
%TO.P,R311,2*%
%TO.N,SCL3*%
X161690000Y-81300000D03*
%TD*%
D20*
%TO.P,H105,1,1*%
%TO.N,unconnected-(H105-Pad1)*%
X135000000Y-132000000D03*
%TD*%
%TO.P,H101,1,1*%
%TO.N,unconnected-(H101-Pad1)*%
X103000000Y-63000000D03*
%TD*%
D56*
%TO.P,U303,1,IO1*%
%TO.N,/Microcontroller/CC2*%
X158800000Y-71937500D03*
%TO.P,U303,2,GND*%
%TO.N,GND*%
X159750000Y-71937500D03*
%TO.P,U303,3,IO2*%
%TO.N,/Microcontroller/CC1*%
X160700000Y-71937500D03*
%TO.P,U303,4,IO3*%
%TO.N,USB_DN*%
X160700000Y-69662500D03*
%TO.P,U303,5,VBUS*%
%TO.N,VBUS*%
X159750000Y-69662500D03*
%TO.P,U303,6,IO4*%
%TO.N,USB_DP*%
X158800000Y-69662500D03*
%TD*%
D21*
%TO.P,R410,1*%
%TO.N,+3.3V*%
X150238722Y-98257504D03*
%TO.P,R410,2*%
%TO.N,M2_NFAULT*%
X151258722Y-98257504D03*
%TD*%
D20*
%TO.P,H103,1,1*%
%TO.N,unconnected-(H103-Pad1)*%
X199000000Y-63000000D03*
%TD*%
D10*
%TO.P,C301,1*%
%TO.N,+3.3V*%
X120300000Y-76220000D03*
%TO.P,C301,2*%
%TO.N,GND*%
X120300000Y-77180000D03*
%TD*%
D15*
%TO.P,C419,1*%
%TO.N,VMOT*%
X171000000Y-105700000D03*
%TO.P,C419,2*%
%TO.N,GND*%
X171000000Y-100300000D03*
%TD*%
D57*
%TO.P,X302,1,OE*%
%TO.N,unconnected-(X302-OE-Pad1)*%
X122125000Y-74925000D03*
%TO.P,X302,2,GND*%
%TO.N,GND*%
X122125000Y-77675000D03*
%TO.P,X302,3,OUT*%
%TO.N,OSC32K*%
X124325000Y-77675000D03*
%TO.P,X302,4,VDD*%
%TO.N,+3.3V*%
X124325000Y-74925000D03*
%TD*%
D22*
%TO.P,D403,1,K*%
%TO.N,/Motor Drivers/M2_NFAULT_K*%
X154307500Y-99500000D03*
%TO.P,D403,2,A*%
%TO.N,/Motor Drivers/M2_DVDD*%
X152732500Y-99500000D03*
%TD*%
D11*
%TO.P,C326,1*%
%TO.N,+3.3V*%
X162000000Y-87480000D03*
%TO.P,C326,2*%
%TO.N,GND*%
X162000000Y-86520000D03*
%TD*%
D58*
%TO.P,Q201,1,D_1*%
%TO.N,VIN_RAW*%
X190325000Y-68800000D03*
%TO.P,Q201,2,D_2*%
X190325000Y-68150000D03*
D59*
%TO.P,Q201,3,G*%
%TO.N,/Power/RP_PMOS_G*%
X190250000Y-67500000D03*
%TO.P,Q201,4,S_1*%
%TO.N,VIN*%
X188450000Y-67500000D03*
D58*
%TO.P,Q201,5,D_3*%
%TO.N,VIN_RAW*%
X188375000Y-68150000D03*
%TO.P,Q201,6,D_4*%
X188375000Y-68800000D03*
D60*
%TO.P,Q201,7,S_2*%
%TO.N,VIN*%
X189350000Y-67500000D03*
D61*
%TO.P,Q201,8,D_5*%
%TO.N,VIN_RAW*%
X189350000Y-68475000D03*
%TD*%
D48*
%TO.P,C209,1*%
%TO.N,+5V*%
X183150000Y-70625000D03*
%TO.P,C209,2*%
%TO.N,GND*%
X183150000Y-69075000D03*
%TD*%
D62*
%TO.P,SW301,1*%
%TO.N,+3.3V*%
X169330000Y-84445000D03*
%TO.P,SW301,2*%
%TO.N,/Microcontroller/CAN_SW*%
X171870000Y-84445000D03*
%TO.P,SW301,3*%
%TO.N,/Microcontroller/CANH*%
X171870000Y-75555000D03*
%TO.P,SW301,4*%
%TO.N,BOOT0*%
X169330000Y-75555000D03*
%TD*%
D28*
%TO.P,R317,1*%
%TO.N,NRST*%
X118050000Y-65810000D03*
%TO.P,R317,2*%
%TO.N,+3.3V*%
X118050000Y-64790000D03*
%TD*%
D12*
%TO.P,R405,1*%
%TO.N,+3.3V*%
X176500000Y-92990000D03*
%TO.P,R405,2*%
%TO.N,M3_SNSOUT*%
X176500000Y-94010000D03*
%TD*%
D33*
%TO.P,C414,1*%
%TO.N,/Motor Drivers/M2_DVDD*%
X153040000Y-100750000D03*
%TO.P,C414,2*%
%TO.N,GND*%
X154000000Y-100750000D03*
%TD*%
D10*
%TO.P,C321,1*%
%TO.N,/Microcontroller/VCAP1*%
X150250000Y-86500000D03*
%TO.P,C321,2*%
%TO.N,GND*%
X150250000Y-87460000D03*
%TD*%
D21*
%TO.P,R313,1*%
%TO.N,+3.3V*%
X159690000Y-81300000D03*
%TO.P,R313,2*%
%TO.N,SDA3*%
X160710000Y-81300000D03*
%TD*%
D23*
%TO.P,R302,1*%
%TO.N,GND*%
X108510000Y-71100000D03*
%TO.P,R302,2*%
%TO.N,/Microcontroller/LEDG_K*%
X107490000Y-71100000D03*
%TD*%
D28*
%TO.P,R206,1*%
%TO.N,+5V*%
X176600000Y-70960000D03*
%TO.P,R206,2*%
%TO.N,/Power/5V_LED_A*%
X176600000Y-69940000D03*
%TD*%
D41*
%TO.P,U403,1,VM*%
%TO.N,VMOT*%
X153000000Y-106250000D03*
%TO.P,U403,2,VCP*%
%TO.N,/Motor Drivers/M2_VCP*%
X153000000Y-105750000D03*
%TO.P,U403,3,CPH*%
%TO.N,/Motor Drivers/M2_CPH*%
X153000000Y-105250000D03*
%TO.P,U403,4,CPL*%
%TO.N,/Motor Drivers/M2_CPL*%
X153000000Y-104750000D03*
%TO.P,U403,5,GND_1*%
%TO.N,GND*%
X153000000Y-104250000D03*
%TO.P,U403,6,VREF*%
%TO.N,VREF*%
X153000000Y-103750000D03*
D42*
%TO.P,U403,7,AVDD*%
%TO.N,/Motor Drivers/M2_AVDD*%
X152250000Y-103000000D03*
%TO.P,U403,8,DVDD*%
%TO.N,/Motor Drivers/M2_DVDD*%
X151750000Y-103000000D03*
%TO.P,U403,9,NFAULT*%
%TO.N,M2_NFAULT*%
X151250000Y-103000000D03*
%TO.P,U403,10,SNSOUT*%
%TO.N,M2_SNSOUT*%
X150750000Y-103000000D03*
%TO.P,U403,11,SO*%
%TO.N,M2_SO*%
X150250000Y-103000000D03*
%TO.P,U403,12,IDRIVE*%
%TO.N,unconnected-(U403-IDRIVE-Pad12)*%
X149750000Y-103000000D03*
D41*
%TO.P,U403,13,NSLEEP*%
%TO.N,M2_NSLEEP*%
X149000000Y-103750000D03*
%TO.P,U403,14,EN*%
%TO.N,M2_EN*%
X149000000Y-104250000D03*
%TO.P,U403,15,PH*%
%TO.N,M2_PH*%
X149000000Y-104750000D03*
%TO.P,U403,16,GND_2*%
%TO.N,GND*%
X149000000Y-105250000D03*
%TO.P,U403,17,GH1*%
%TO.N,/Motor Drivers/M2_GH1*%
X149000000Y-105750000D03*
%TO.P,U403,18,SH1*%
%TO.N,/Motor Drivers/M2_OUT_B*%
X149000000Y-106250000D03*
D42*
%TO.P,U403,19,GL1*%
%TO.N,/Motor Drivers/M2_GL1*%
X149750000Y-107000000D03*
%TO.P,U403,20,SN*%
%TO.N,GND*%
X150250000Y-107000000D03*
%TO.P,U403,21,SP*%
%TO.N,/Motor Drivers/M2_SP*%
X150750000Y-107000000D03*
%TO.P,U403,22,GL2*%
%TO.N,/Motor Drivers/M2_GL2*%
X151250000Y-107000000D03*
%TO.P,U403,23,SH2*%
%TO.N,/Motor Drivers/M2_OUT_A*%
X151750000Y-107000000D03*
%TO.P,U403,24,GH2*%
%TO.N,/Motor Drivers/M2_GH2*%
X152250000Y-107000000D03*
D43*
%TO.P,U403,25,GND_3*%
%TO.N,GND*%
X151000000Y-105000000D03*
%TD*%
D14*
%TO.P,R407,1,1*%
%TO.N,GND*%
X183000000Y-112750000D03*
%TO.P,R407,2,2*%
%TO.N,/Motor Drivers/M3_SP*%
X183000000Y-121050000D03*
%TD*%
D11*
%TO.P,C408,1*%
%TO.N,VMOT*%
X123100000Y-106400000D03*
%TO.P,C408,2*%
%TO.N,/Motor Drivers/M1_VCP*%
X123100000Y-105440000D03*
%TD*%
D31*
%TO.P,T405,1,S*%
%TO.N,/Motor Drivers/M1_OUT_A*%
X125580000Y-116000000D03*
%TO.P,T405,2,S*%
X126850000Y-116000000D03*
%TO.P,T405,3,S*%
X128120000Y-116000000D03*
%TO.P,T405,4,G*%
%TO.N,/Motor Drivers/M1_GH2*%
X129390000Y-116000000D03*
D32*
%TO.P,T405,5_6,D*%
%TO.N,VMOT*%
X127485000Y-113252500D03*
%TD*%
D10*
%TO.P,C309,1*%
%TO.N,/Microcontroller/VDDA*%
X128659000Y-81930000D03*
%TO.P,C309,2*%
%TO.N,GND*%
X128659000Y-82890000D03*
%TD*%
D50*
%TO.P,IC202,1,VIN*%
%TO.N,VIN*%
X172312000Y-66600000D03*
%TO.P,IC202,2,SW*%
%TO.N,/Power/3V3_SW*%
X172312000Y-67100000D03*
%TO.P,IC202,3,GND*%
%TO.N,GND*%
X172312000Y-67600000D03*
%TO.P,IC202,4,BST*%
%TO.N,/Power/3V3_BST*%
X173988000Y-67600000D03*
%TO.P,IC202,5,EN*%
%TO.N,VIN*%
X173988000Y-67100000D03*
%TO.P,IC202,6,FB*%
%TO.N,/Power/3V3_FB*%
X173988000Y-66600000D03*
%TD*%
D20*
%TO.P,H102,1,1*%
%TO.N,unconnected-(H102-Pad1)*%
X103000000Y-132000000D03*
%TD*%
D10*
%TO.P,C311,1*%
%TO.N,/Microcontroller/VDDA*%
X127659000Y-81930000D03*
%TO.P,C311,2*%
%TO.N,GND*%
X127659000Y-82890000D03*
%TD*%
D15*
%TO.P,C409,1*%
%TO.N,VMOT*%
X131000000Y-105700000D03*
%TO.P,C409,2*%
%TO.N,GND*%
X131000000Y-100300000D03*
%TD*%
D24*
%TO.P,S301,1,NO_1*%
%TO.N,unconnected-(S301-NO_1-Pad1)*%
X111725000Y-72705000D03*
%TO.P,S301,2,NO_2*%
%TO.N,BTN*%
X115875000Y-72705000D03*
%TO.P,S301,3,COM_1*%
%TO.N,GND*%
X111725000Y-74855000D03*
%TO.P,S301,4,COM_2*%
%TO.N,unconnected-(S301-COM_2-Pad4)*%
X115875000Y-74855000D03*
%TD*%
D20*
%TO.P,H104,1,1*%
%TO.N,unconnected-(H104-Pad1)*%
X199000000Y-132000000D03*
%TD*%
D12*
%TO.P,R312,1*%
%TO.N,+3.3V*%
X135750000Y-87990000D03*
%TO.P,R312,2*%
%TO.N,SCL4*%
X135750000Y-89010000D03*
%TD*%
D27*
%TO.P,L202,1*%
%TO.N,/Power/3V3_SW*%
X169400000Y-67250000D03*
%TO.P,L202,2*%
%TO.N,+3.3V*%
X169400000Y-70950000D03*
%TD*%
D28*
%TO.P,R314,1*%
%TO.N,+3.3V*%
X136700000Y-90710000D03*
%TO.P,R314,2*%
%TO.N,SDA4*%
X136700000Y-89690000D03*
%TD*%
D48*
%TO.P,C207,1*%
%TO.N,+5V*%
X184650000Y-70625000D03*
%TO.P,C207,2*%
%TO.N,GND*%
X184650000Y-69075000D03*
%TD*%
D13*
%TO.P,C324,1*%
%TO.N,+3.3V*%
X140980000Y-87500000D03*
%TO.P,C324,2*%
%TO.N,GND*%
X140020000Y-87500000D03*
%TD*%
D33*
%TO.P,C403,1*%
%TO.N,/Motor Drivers/M3_DVDD*%
X185020000Y-100500000D03*
%TO.P,C403,2*%
%TO.N,GND*%
X185980000Y-100500000D03*
%TD*%
D10*
%TO.P,C325,1*%
%TO.N,/Microcontroller/VCAP2*%
X154500000Y-66520000D03*
%TO.P,C325,2*%
%TO.N,GND*%
X154500000Y-67480000D03*
%TD*%
D33*
%TO.P,C322,1*%
%TO.N,+3.3V*%
X151150000Y-86520000D03*
%TO.P,C322,2*%
%TO.N,GND*%
X152110000Y-86520000D03*
%TD*%
D11*
%TO.P,C304,1*%
%TO.N,+3.3V*%
X128659000Y-79070000D03*
%TO.P,C304,2*%
%TO.N,GND*%
X128659000Y-78110000D03*
%TD*%
D22*
%TO.P,D202,1,K*%
%TO.N,GND*%
X180687500Y-65100000D03*
%TO.P,D202,2,A*%
%TO.N,/Power/5V_LED_A*%
X179112500Y-65100000D03*
%TD*%
D23*
%TO.P,R204,1*%
%TO.N,+3.3V*%
X176160000Y-66600000D03*
%TO.P,R204,2*%
%TO.N,/Power/3V3_FB*%
X175140000Y-66600000D03*
%TD*%
D63*
%TO.P,J301,1,VCC*%
%TO.N,+3.3V*%
X123665000Y-64730000D03*
%TO.P,J301,2,SWDIO*%
%TO.N,SWDIO*%
X124935000Y-64730000D03*
%TO.P,J301,3,~{RESET}*%
%TO.N,NRST*%
X123665000Y-66000000D03*
%TO.P,J301,4,SWCLK*%
%TO.N,SWCLK*%
X124935000Y-66000000D03*
%TO.P,J301,5,GND*%
%TO.N,GND*%
X123665000Y-67270000D03*
%TO.P,J301,6,SWO*%
%TO.N,SWO*%
X124935000Y-67270000D03*
%TD*%
D64*
%TO.P,D201,1,K*%
%TO.N,VIN*%
X189600000Y-64000000D03*
%TO.P,D201,2,A*%
%TO.N,/Power/RP_PMOS_G*%
X193100000Y-64000000D03*
%TD*%
D11*
%TO.P,C418,1*%
%TO.N,VMOT*%
X156000000Y-106400000D03*
%TO.P,C418,2*%
%TO.N,GND*%
X156000000Y-105440000D03*
%TD*%
D29*
%TO.P,J202,1,Pin_1*%
%TO.N,VIN_RAW*%
X195000000Y-75640000D03*
D30*
%TO.P,J202,2,Pin_2*%
%TO.N,GND*%
X195000000Y-70560000D03*
%TD*%
D21*
%TO.P,R201,1*%
%TO.N,/Power/RP_PMOS_G*%
X191780000Y-66690000D03*
%TO.P,R201,2*%
%TO.N,GND*%
X192800000Y-66690000D03*
%TD*%
D22*
%TO.P,D203,1,K*%
%TO.N,GND*%
X170187500Y-65100000D03*
%TO.P,D203,2,A*%
%TO.N,/Power/3V3_LED_A*%
X168612500Y-65100000D03*
%TD*%
D57*
%TO.P,X301,1,OE*%
%TO.N,unconnected-(X301-OE-Pad1)*%
X122200000Y-80975000D03*
%TO.P,X301,2,GND*%
%TO.N,GND*%
X122200000Y-83725000D03*
%TO.P,X301,3,OUT*%
%TO.N,OSC25M*%
X124400000Y-83725000D03*
%TO.P,X301,4,VDD*%
%TO.N,+3.3V*%
X124400000Y-80975000D03*
%TD*%
D53*
%TO.P,C202,1*%
%TO.N,VIN*%
X184125000Y-63850000D03*
%TO.P,C202,2*%
%TO.N,GND*%
X185675000Y-63850000D03*
%TD*%
D23*
%TO.P,R202,1*%
%TO.N,+5V*%
X186660000Y-66600000D03*
%TO.P,R202,2*%
%TO.N,/Power/5V_FB*%
X185640000Y-66600000D03*
%TD*%
D65*
%TO.P,IC301,1,TXD*%
%TO.N,CAN_TX*%
X158300000Y-76095000D03*
%TO.P,IC301,2,GND*%
%TO.N,GND*%
X158300000Y-77365000D03*
%TO.P,IC301,3,VCC*%
%TO.N,+5V*%
X158300000Y-78635000D03*
%TO.P,IC301,4,RXD*%
%TO.N,CAN_RX*%
X158300000Y-79905000D03*
%TO.P,IC301,5,VIO*%
%TO.N,+3.3V*%
X163700000Y-79905000D03*
%TO.P,IC301,6,CANL*%
%TO.N,/Microcontroller/CANL*%
X163700000Y-78635000D03*
%TO.P,IC301,7,CANH*%
%TO.N,/Microcontroller/CANH*%
X163700000Y-77365000D03*
%TO.P,IC301,8,S*%
%TO.N,SILENT*%
X163700000Y-76095000D03*
%TD*%
D66*
%TO.P,IC302,1,PE2*%
%TO.N,unconnected-(IC302-PE2-Pad1)*%
X131262000Y-65250000D03*
%TO.P,IC302,2,PE3*%
%TO.N,unconnected-(IC302-PE3-Pad2)*%
X131262000Y-65750000D03*
%TO.P,IC302,3,PE4*%
%TO.N,CS*%
X131262000Y-66250000D03*
%TO.P,IC302,4,PE5*%
%TO.N,unconnected-(IC302-PE5-Pad4)*%
X131262000Y-66750000D03*
%TO.P,IC302,5,PE6*%
%TO.N,unconnected-(IC302-PE6-Pad5)*%
X131262000Y-67250000D03*
%TO.P,IC302,6,VBAT*%
%TO.N,+3.3V*%
X131262000Y-67750000D03*
%TO.P,IC302,7,PC13*%
%TO.N,unconnected-(IC302-PC13-Pad7)*%
X131262000Y-68250000D03*
%TO.P,IC302,8,PC14-OSC32_IN*%
%TO.N,OSC32K*%
X131262000Y-68750000D03*
%TO.P,IC302,9,PC15-OSC32_OUT*%
%TO.N,unconnected-(IC302-PC15-OSC32_OUT-Pad9)*%
X131262000Y-69250000D03*
%TO.P,IC302,10,PF0*%
%TO.N,unconnected-(IC302-PF0-Pad10)*%
X131262000Y-69750000D03*
%TO.P,IC302,11,PF1*%
%TO.N,unconnected-(IC302-PF1-Pad11)*%
X131262000Y-70250000D03*
%TO.P,IC302,12,PF2*%
%TO.N,LEDG*%
X131262000Y-70750000D03*
%TO.P,IC302,13,PF3*%
%TO.N,LEDR*%
X131262000Y-71250000D03*
%TO.P,IC302,14,PF4*%
%TO.N,LEDB*%
X131262000Y-71750000D03*
%TO.P,IC302,15,PF5*%
%TO.N,unconnected-(IC302-PF5-Pad15)*%
X131262000Y-72250000D03*
%TO.P,IC302,16,VSS_1*%
%TO.N,GND*%
X131262000Y-72750000D03*
%TO.P,IC302,17,VDD_1*%
%TO.N,+3.3V*%
X131262000Y-73250000D03*
%TO.P,IC302,18,PF6*%
%TO.N,unconnected-(IC302-PF6-Pad18)*%
X131262000Y-73750000D03*
%TO.P,IC302,19,PF7*%
%TO.N,BTN*%
X131262000Y-74250000D03*
%TO.P,IC302,20,PF8*%
%TO.N,unconnected-(IC302-PF8-Pad20)*%
X131262000Y-74750000D03*
%TO.P,IC302,21,PF9*%
%TO.N,unconnected-(IC302-PF9-Pad21)*%
X131262000Y-75250000D03*
%TO.P,IC302,22,PF10*%
%TO.N,unconnected-(IC302-PF10-Pad22)*%
X131262000Y-75750000D03*
%TO.P,IC302,23,PH0-OSC_IN*%
%TO.N,OSC25M*%
X131262000Y-76250000D03*
%TO.P,IC302,24,PH1-OSC_OUT*%
%TO.N,unconnected-(IC302-PH1-OSC_OUT-Pad24)*%
X131262000Y-76750000D03*
%TO.P,IC302,25,NRST*%
%TO.N,NRST*%
X131262000Y-77250000D03*
%TO.P,IC302,26,PC0*%
%TO.N,unconnected-(IC302-PC0-Pad26)*%
X131262000Y-77750000D03*
%TO.P,IC302,27,PC1*%
%TO.N,unconnected-(IC302-PC1-Pad27)*%
X131262000Y-78250000D03*
%TO.P,IC302,28,PC2_C*%
%TO.N,unconnected-(IC302-PC2_C-Pad28)*%
X131262000Y-78750000D03*
%TO.P,IC302,29,PC3_C*%
%TO.N,GND*%
X131262000Y-79250000D03*
%TO.P,IC302,30,VDD_2*%
%TO.N,+3.3V*%
X131262000Y-79750000D03*
%TO.P,IC302,31,VSSA*%
%TO.N,GND*%
X131262000Y-80250000D03*
%TO.P,IC302,32,VREF+*%
%TO.N,/Microcontroller/VREF+*%
X131262000Y-80750000D03*
%TO.P,IC302,33,VDDA*%
%TO.N,/Microcontroller/VDDA*%
X131262000Y-81250000D03*
%TO.P,IC302,34,PA0*%
%TO.N,M1_PH*%
X131262000Y-81750000D03*
%TO.P,IC302,35,PA1*%
%TO.N,M1_EN*%
X131262000Y-82250000D03*
%TO.P,IC302,36,PA2*%
%TO.N,M1_NSLEEP*%
X131262000Y-82750000D03*
D67*
%TO.P,IC302,37,PA3*%
%TO.N,M1_NFAULT*%
X133250000Y-84738000D03*
%TO.P,IC302,38,VSS_2*%
%TO.N,GND*%
X133750000Y-84738000D03*
%TO.P,IC302,39,VDD_3*%
%TO.N,+3.3V*%
X134250000Y-84738000D03*
%TO.P,IC302,40,PA4*%
%TO.N,VREF*%
X134750000Y-84738000D03*
%TO.P,IC302,41,PA5*%
%TO.N,M1_SNSOUT*%
X135250000Y-84738000D03*
%TO.P,IC302,42,PA6*%
%TO.N,M1_SO*%
X135750000Y-84738000D03*
%TO.P,IC302,43,PA7*%
%TO.N,unconnected-(IC302-PA7-Pad43)*%
X136250000Y-84738000D03*
%TO.P,IC302,44,PC4*%
%TO.N,unconnected-(IC302-PC4-Pad44)*%
X136750000Y-84738000D03*
%TO.P,IC302,45,PC5*%
%TO.N,unconnected-(IC302-PC5-Pad45)*%
X137250000Y-84738000D03*
%TO.P,IC302,46,PB0*%
%TO.N,M2_SO*%
X137750000Y-84738000D03*
%TO.P,IC302,47,PB1*%
%TO.N,unconnected-(IC302-PB1-Pad47)*%
X138250000Y-84738000D03*
%TO.P,IC302,48,PB2*%
%TO.N,unconnected-(IC302-PB2-Pad48)*%
X138750000Y-84738000D03*
%TO.P,IC302,49,PF11*%
%TO.N,M3_SO*%
X139250000Y-84738000D03*
%TO.P,IC302,50,PF12*%
%TO.N,unconnected-(IC302-PF12-Pad50)*%
X139750000Y-84738000D03*
%TO.P,IC302,51,VSS_3*%
%TO.N,GND*%
X140250000Y-84738000D03*
%TO.P,IC302,52,VDD_4*%
%TO.N,+3.3V*%
X140750000Y-84738000D03*
%TO.P,IC302,53,PF13*%
%TO.N,unconnected-(IC302-PF13-Pad53)*%
X141250000Y-84738000D03*
%TO.P,IC302,54,PF14*%
%TO.N,SCL4*%
X141750000Y-84738000D03*
%TO.P,IC302,55,PF15*%
%TO.N,SDA4*%
X142250000Y-84738000D03*
%TO.P,IC302,56,PG0*%
%TO.N,unconnected-(IC302-PG0-Pad56)*%
X142750000Y-84738000D03*
%TO.P,IC302,57,PG1*%
%TO.N,unconnected-(IC302-PG1-Pad57)*%
X143250000Y-84738000D03*
%TO.P,IC302,58,PE7*%
%TO.N,unconnected-(IC302-PE7-Pad58)*%
X143750000Y-84738000D03*
%TO.P,IC302,59,PE8*%
%TO.N,IMU_INT1*%
X144250000Y-84738000D03*
%TO.P,IC302,60,PE9*%
%TO.N,M2_PH*%
X144750000Y-84738000D03*
%TO.P,IC302,61,VSS_4*%
%TO.N,GND*%
X145250000Y-84738000D03*
%TO.P,IC302,62,VDD_5*%
%TO.N,+3.3V*%
X145750000Y-84738000D03*
%TO.P,IC302,63,PE10*%
%TO.N,unconnected-(IC302-PE10-Pad63)*%
X146250000Y-84738000D03*
%TO.P,IC302,64,PE11*%
%TO.N,M2_EN*%
X146750000Y-84738000D03*
%TO.P,IC302,65,PE12*%
%TO.N,SCK*%
X147250000Y-84738000D03*
%TO.P,IC302,66,PE13*%
%TO.N,MISO*%
X147750000Y-84738000D03*
%TO.P,IC302,67,PE14*%
%TO.N,MOSI*%
X148250000Y-84738000D03*
%TO.P,IC302,68,PE15*%
%TO.N,M2_NSLEEP*%
X148750000Y-84738000D03*
%TO.P,IC302,69,PB10*%
%TO.N,SCL2*%
X149250000Y-84738000D03*
%TO.P,IC302,70,PB11*%
%TO.N,SDA2*%
X149750000Y-84738000D03*
%TO.P,IC302,71,VCAP_1*%
%TO.N,/Microcontroller/VCAP1*%
X150250000Y-84738000D03*
%TO.P,IC302,72,VDD_6*%
%TO.N,+3.3V*%
X150750000Y-84738000D03*
D66*
%TO.P,IC302,73,PB12*%
%TO.N,M2_SNSOUT*%
X152738000Y-82750000D03*
%TO.P,IC302,74,PB13*%
%TO.N,M2_NFAULT*%
X152738000Y-82250000D03*
%TO.P,IC302,75,PB14*%
%TO.N,M3_PH*%
X152738000Y-81750000D03*
%TO.P,IC302,76,PB15*%
%TO.N,M3_EN*%
X152738000Y-81250000D03*
%TO.P,IC302,77,PD8*%
%TO.N,M3_NSLEEP*%
X152738000Y-80750000D03*
%TO.P,IC302,78,PD9*%
%TO.N,M3_SNSOUT*%
X152738000Y-80250000D03*
%TO.P,IC302,79,PD10*%
%TO.N,M3_NFAULT*%
X152738000Y-79750000D03*
%TO.P,IC302,80,PD11*%
%TO.N,IMU_INT2*%
X152738000Y-79250000D03*
%TO.P,IC302,81,PD12*%
%TO.N,unconnected-(IC302-PD12-Pad81)*%
X152738000Y-78750000D03*
%TO.P,IC302,82,PD13*%
%TO.N,unconnected-(IC302-PD13-Pad82)*%
X152738000Y-78250000D03*
%TO.P,IC302,83,VSS_5*%
%TO.N,GND*%
X152738000Y-77750000D03*
%TO.P,IC302,84,VDD_7*%
%TO.N,+3.3V*%
X152738000Y-77250000D03*
%TO.P,IC302,85,PD14*%
%TO.N,unconnected-(IC302-PD14-Pad85)*%
X152738000Y-76750000D03*
%TO.P,IC302,86,PD15*%
%TO.N,unconnected-(IC302-PD15-Pad86)*%
X152738000Y-76250000D03*
%TO.P,IC302,87,PG2*%
%TO.N,unconnected-(IC302-PG2-Pad87)*%
X152738000Y-75750000D03*
%TO.P,IC302,88,PG3*%
%TO.N,unconnected-(IC302-PG3-Pad88)*%
X152738000Y-75250000D03*
%TO.P,IC302,89,PG4*%
%TO.N,unconnected-(IC302-PG4-Pad89)*%
X152738000Y-74750000D03*
%TO.P,IC302,90,PG5*%
%TO.N,unconnected-(IC302-PG5-Pad90)*%
X152738000Y-74250000D03*
%TO.P,IC302,91,PG6*%
%TO.N,unconnected-(IC302-PG6-Pad91)*%
X152738000Y-73750000D03*
%TO.P,IC302,92,PG7*%
%TO.N,unconnected-(IC302-PG7-Pad92)*%
X152738000Y-73250000D03*
%TO.P,IC302,93,PG8*%
%TO.N,unconnected-(IC302-PG8-Pad93)*%
X152738000Y-72750000D03*
%TO.P,IC302,94,VSS_6*%
%TO.N,GND*%
X152738000Y-72250000D03*
%TO.P,IC302,95,VDD33USB*%
%TO.N,+3.3V*%
X152738000Y-71750000D03*
%TO.P,IC302,96,PC6*%
%TO.N,unconnected-(IC302-PC6-Pad96)*%
X152738000Y-71250000D03*
%TO.P,IC302,97,PC7*%
%TO.N,unconnected-(IC302-PC7-Pad97)*%
X152738000Y-70750000D03*
%TO.P,IC302,98,PC8*%
%TO.N,unconnected-(IC302-PC8-Pad98)*%
X152738000Y-70250000D03*
%TO.P,IC302,99,PC9*%
%TO.N,SDA3*%
X152738000Y-69750000D03*
%TO.P,IC302,100,PA8*%
%TO.N,SCL3*%
X152738000Y-69250000D03*
%TO.P,IC302,101,PA9*%
%TO.N,SILENT*%
X152738000Y-68750000D03*
%TO.P,IC302,102,PA10*%
%TO.N,unconnected-(IC302-PA10-Pad102)*%
X152738000Y-68250000D03*
%TO.P,IC302,103,PA11*%
%TO.N,USB_DN*%
X152738000Y-67750000D03*
%TO.P,IC302,104,PA12*%
%TO.N,USB_DP*%
X152738000Y-67250000D03*
%TO.P,IC302,105,PA13*%
%TO.N,SWDIO*%
X152738000Y-66750000D03*
%TO.P,IC302,106,VCAP_2*%
%TO.N,/Microcontroller/VCAP2*%
X152738000Y-66250000D03*
%TO.P,IC302,107,VSS_7*%
%TO.N,GND*%
X152738000Y-65750000D03*
%TO.P,IC302,108,VDD_8*%
%TO.N,+3.3V*%
X152738000Y-65250000D03*
D67*
%TO.P,IC302,109,PA14*%
%TO.N,SWCLK*%
X150750000Y-63262000D03*
%TO.P,IC302,110,PA15*%
%TO.N,unconnected-(IC302-PA15-Pad110)*%
X150250000Y-63262000D03*
%TO.P,IC302,111,PC10*%
%TO.N,unconnected-(IC302-PC10-Pad111)*%
X149750000Y-63262000D03*
%TO.P,IC302,112,PC11*%
%TO.N,unconnected-(IC302-PC11-Pad112)*%
X149250000Y-63262000D03*
%TO.P,IC302,113,PC12*%
%TO.N,unconnected-(IC302-PC12-Pad113)*%
X148750000Y-63262000D03*
%TO.P,IC302,114,PD0*%
%TO.N,CAN_RX*%
X148250000Y-63262000D03*
%TO.P,IC302,115,PD1*%
%TO.N,CAN_TX*%
X147750000Y-63262000D03*
%TO.P,IC302,116,PD2*%
%TO.N,unconnected-(IC302-PD2-Pad116)*%
X147250000Y-63262000D03*
%TO.P,IC302,117,PD3*%
%TO.N,unconnected-(IC302-PD3-Pad117)*%
X146750000Y-63262000D03*
%TO.P,IC302,118,PD4*%
%TO.N,unconnected-(IC302-PD4-Pad118)*%
X146250000Y-63262000D03*
%TO.P,IC302,119,PD5*%
%TO.N,unconnected-(IC302-PD5-Pad119)*%
X145750000Y-63262000D03*
%TO.P,IC302,120,VSS_8*%
%TO.N,GND*%
X145250000Y-63262000D03*
%TO.P,IC302,121,VDD_9*%
%TO.N,+3.3V*%
X144750000Y-63262000D03*
%TO.P,IC302,122,PD6*%
%TO.N,unconnected-(IC302-PD6-Pad122)*%
X144250000Y-63262000D03*
%TO.P,IC302,123,PD7*%
%TO.N,unconnected-(IC302-PD7-Pad123)*%
X143750000Y-63262000D03*
%TO.P,IC302,124,PG9*%
%TO.N,unconnected-(IC302-PG9-Pad124)*%
X143250000Y-63262000D03*
%TO.P,IC302,125,PG10*%
%TO.N,unconnected-(IC302-PG10-Pad125)*%
X142750000Y-63262000D03*
%TO.P,IC302,126,PG11*%
%TO.N,unconnected-(IC302-PG11-Pad126)*%
X142250000Y-63262000D03*
%TO.P,IC302,127,PG12*%
%TO.N,unconnected-(IC302-PG12-Pad127)*%
X141750000Y-63262000D03*
%TO.P,IC302,128,PG13*%
%TO.N,unconnected-(IC302-PG13-Pad128)*%
X141250000Y-63262000D03*
%TO.P,IC302,129,PG14*%
%TO.N,unconnected-(IC302-PG14-Pad129)*%
X140750000Y-63262000D03*
%TO.P,IC302,130,VSS_9*%
%TO.N,GND*%
X140250000Y-63262000D03*
%TO.P,IC302,131,VDD_10*%
%TO.N,+3.3V*%
X139750000Y-63262000D03*
%TO.P,IC302,132,PG15*%
%TO.N,unconnected-(IC302-PG15-Pad132)*%
X139250000Y-63262000D03*
%TO.P,IC302,133,PB3*%
%TO.N,SWO*%
X138750000Y-63262000D03*
%TO.P,IC302,134,PB4*%
%TO.N,unconnected-(IC302-PB4-Pad134)*%
X138250000Y-63262000D03*
%TO.P,IC302,135,PB5*%
%TO.N,unconnected-(IC302-PB5-Pad135)*%
X137750000Y-63262000D03*
%TO.P,IC302,136,PB6*%
%TO.N,unconnected-(IC302-PB6-Pad136)*%
X137250000Y-63262000D03*
%TO.P,IC302,137,PB7*%
%TO.N,unconnected-(IC302-PB7-Pad137)*%
X136750000Y-63262000D03*
%TO.P,IC302,138,BOOT0*%
%TO.N,BOOT0*%
X136250000Y-63262000D03*
%TO.P,IC302,139,PB8*%
%TO.N,unconnected-(IC302-PB8-Pad139)*%
X135750000Y-63262000D03*
%TO.P,IC302,140,PB9*%
%TO.N,unconnected-(IC302-PB9-Pad140)*%
X135250000Y-63262000D03*
%TO.P,IC302,141,PE0*%
%TO.N,unconnected-(IC302-PE0-Pad141)*%
X134750000Y-63262000D03*
%TO.P,IC302,142,PE1*%
%TO.N,unconnected-(IC302-PE1-Pad142)*%
X134250000Y-63262000D03*
%TO.P,IC302,143,PDR_ON*%
%TO.N,+3.3V*%
X133750000Y-63262000D03*
%TO.P,IC302,144,VDD_11*%
X133250000Y-63262000D03*
%TD*%
D34*
%TO.P,J401,1,-*%
%TO.N,/Motor Drivers/M3_OUT_B*%
X179400000Y-127350000D03*
D35*
%TO.P,J401,2,+*%
%TO.N,/Motor Drivers/M3_OUT_A*%
X186600000Y-127350000D03*
D36*
%TO.P,J401,SH1,SH1*%
%TO.N,unconnected-(J401-PadSH1)*%
X176250000Y-133350000D03*
%TO.P,J401,SH2,SH2*%
%TO.N,unconnected-(J401-PadSH2)*%
X189750000Y-133350000D03*
%TD*%
D33*
%TO.P,C401,1*%
%TO.N,/Motor Drivers/M3_AVDD*%
X185020000Y-101500000D03*
%TO.P,C401,2*%
%TO.N,GND*%
X185980000Y-101500000D03*
%TD*%
D68*
%TO.N,GND*%
X184000000Y-105000000D03*
X151000000Y-115500000D03*
X183000000Y-104000000D03*
X148500000Y-110500000D03*
X119000000Y-104000000D03*
X119550000Y-77180000D03*
X152500000Y-110500000D03*
X153500000Y-110500000D03*
X150000000Y-110000000D03*
X197750000Y-99000000D03*
X105500000Y-99000000D03*
X117500000Y-110500000D03*
X120000000Y-111000000D03*
X133750000Y-100250000D03*
X126909000Y-82890000D03*
X193509265Y-66694517D03*
X154750000Y-101750000D03*
X127649000Y-83610000D03*
X157445000Y-67868000D03*
X172805319Y-68115708D03*
X119500000Y-110500000D03*
X136250000Y-100250000D03*
X183500000Y-110500000D03*
X121500000Y-110500000D03*
X183000000Y-111000000D03*
X151000000Y-106000000D03*
X137500000Y-100250000D03*
X136250000Y-101500000D03*
X196500000Y-100250000D03*
X104250000Y-99000000D03*
X133000000Y-87250000D03*
X183000000Y-114500000D03*
X105500000Y-100250000D03*
X155500000Y-78700000D03*
X109218376Y-74099387D03*
X174500000Y-66000000D03*
X120000000Y-106000000D03*
X184000000Y-104000000D03*
X197750000Y-100250000D03*
X185500000Y-115000000D03*
X162750000Y-85500000D03*
X160014651Y-68294500D03*
X109750000Y-100250000D03*
X181000000Y-110000000D03*
X153000000Y-114500000D03*
X116500000Y-110500000D03*
X181000000Y-114500000D03*
X183000000Y-110000000D03*
X155250000Y-65580000D03*
X135000000Y-101500000D03*
X120326046Y-83995933D03*
X181000000Y-111000000D03*
X184904000Y-64546000D03*
X120000000Y-115500000D03*
X180500000Y-115000000D03*
X185000000Y-111000000D03*
X169500000Y-101500000D03*
X118000000Y-105000000D03*
X167000000Y-99000000D03*
X167000000Y-101500000D03*
X109750000Y-99000000D03*
X109227411Y-77099085D03*
X182000000Y-104000000D03*
X121000000Y-115500000D03*
X152000000Y-111000000D03*
X151500000Y-115000000D03*
X118000000Y-111000000D03*
X159500000Y-85680000D03*
X193500000Y-101500000D03*
X152000000Y-115500000D03*
X193500000Y-100250000D03*
X108500000Y-101500000D03*
X151000000Y-105000000D03*
X117000000Y-115500000D03*
X151000000Y-110000000D03*
X180500000Y-110500000D03*
X151000000Y-114500000D03*
X182000000Y-115500000D03*
X117500000Y-115000000D03*
X165750000Y-99000000D03*
X186552364Y-68989020D03*
X182500000Y-110500000D03*
X122750000Y-100750000D03*
X165750000Y-101500000D03*
X185000000Y-114500000D03*
X120500000Y-110500000D03*
X150532000Y-68205000D03*
X167000000Y-100250000D03*
X118000000Y-110000000D03*
X154750000Y-100750000D03*
X117000000Y-114500000D03*
X183000000Y-115500000D03*
X184000000Y-106000000D03*
X119000000Y-115500000D03*
X193500000Y-99000000D03*
X150000000Y-104000000D03*
X192250000Y-99000000D03*
X150000000Y-111000000D03*
X181500000Y-110500000D03*
X152000000Y-104000000D03*
X155250000Y-67490000D03*
X118000000Y-114500000D03*
X164500000Y-100250000D03*
X110771157Y-74855411D03*
X192250000Y-100250000D03*
X141190000Y-61490000D03*
X120500000Y-115000000D03*
X108500000Y-99000000D03*
X185750000Y-69250000D03*
X124110000Y-104710000D03*
X150253036Y-88174681D03*
X153000000Y-110000000D03*
X128659000Y-77400000D03*
X185500000Y-110500000D03*
X157400000Y-71950000D03*
X151500000Y-110500000D03*
X150500000Y-115000000D03*
X146190000Y-61490000D03*
X118500000Y-110500000D03*
X183000000Y-105000000D03*
X149000000Y-115500000D03*
X181880473Y-69104307D03*
X121000000Y-110000000D03*
X136250000Y-99000000D03*
X196500000Y-101500000D03*
X184000000Y-110000000D03*
X181500000Y-115000000D03*
X183500000Y-115000000D03*
X109222894Y-71095171D03*
X140010000Y-88250000D03*
X120000000Y-104000000D03*
X181000000Y-115500000D03*
X150500000Y-110500000D03*
X137980000Y-61500000D03*
X117000000Y-110000000D03*
X183357251Y-68132598D03*
X180690000Y-64190000D03*
X151000000Y-104000000D03*
X182000000Y-106000000D03*
X118000000Y-115500000D03*
X105500000Y-101500000D03*
X159750000Y-73000000D03*
X149500000Y-110500000D03*
X145020000Y-87250000D03*
X184000000Y-114500000D03*
X104250000Y-100250000D03*
X182000000Y-111000000D03*
X152110000Y-87260000D03*
X152500000Y-115000000D03*
X121000000Y-111000000D03*
X149000000Y-111000000D03*
X133750000Y-101500000D03*
X110770000Y-67380000D03*
X119000000Y-114500000D03*
X119000000Y-106000000D03*
X152000000Y-114500000D03*
X132500000Y-100250000D03*
X152000000Y-105000000D03*
X155240000Y-72490000D03*
X153000000Y-115500000D03*
X150000000Y-114500000D03*
X183000000Y-106000000D03*
X169500000Y-100250000D03*
X163849000Y-67862000D03*
X196500000Y-99000000D03*
X109750000Y-101500000D03*
X128760000Y-66800000D03*
X185000000Y-66000000D03*
X132500000Y-99000000D03*
X131590000Y-61490000D03*
X188100000Y-104610000D03*
X168250000Y-99000000D03*
X127029000Y-80510000D03*
X182000000Y-110000000D03*
X120000000Y-114500000D03*
X118050000Y-75970000D03*
X182000000Y-114500000D03*
X137500000Y-99000000D03*
X164500000Y-99000000D03*
X148500000Y-115000000D03*
X182500000Y-115000000D03*
X162750000Y-86500000D03*
X175126687Y-69128801D03*
X135000000Y-99000000D03*
X151000000Y-111000000D03*
X192250000Y-101500000D03*
X133750000Y-99000000D03*
X186750000Y-100500000D03*
X120000000Y-105000000D03*
X156000000Y-104700000D03*
X124320000Y-69370000D03*
X157120000Y-77360000D03*
X108500000Y-100250000D03*
X118060000Y-68490000D03*
X122750000Y-101750000D03*
X152000000Y-110000000D03*
X149500000Y-115000000D03*
X162100000Y-72030000D03*
X119000000Y-111000000D03*
X152000000Y-106000000D03*
X174404000Y-64546000D03*
X135000000Y-100250000D03*
X137500000Y-101500000D03*
X184500000Y-115000000D03*
X118000000Y-106000000D03*
X184000000Y-111000000D03*
X184000000Y-115500000D03*
X150000000Y-115500000D03*
X119500000Y-115000000D03*
X168250000Y-100250000D03*
X117000000Y-111000000D03*
X150000000Y-105000000D03*
X197750000Y-101500000D03*
X184500000Y-110500000D03*
X165750000Y-100250000D03*
X119000000Y-110000000D03*
X169500000Y-99000000D03*
X185000000Y-115500000D03*
X168250000Y-101500000D03*
X182000000Y-105000000D03*
X164500000Y-101500000D03*
X153500000Y-115000000D03*
X153000000Y-111000000D03*
X118000000Y-104000000D03*
X185000000Y-110000000D03*
X121500000Y-115000000D03*
X128760000Y-72520000D03*
X149000000Y-114500000D03*
X171377949Y-69103887D03*
X149000000Y-110000000D03*
X132500000Y-101500000D03*
X150000000Y-106000000D03*
X170184121Y-64196321D03*
X120000000Y-110000000D03*
X159500000Y-86300000D03*
X119000000Y-105000000D03*
X121000000Y-114500000D03*
X118500000Y-115000000D03*
X186750000Y-101500000D03*
X116500000Y-115000000D03*
X104250000Y-101500000D03*
%TO.N,+3.3V*%
X171400000Y-72500000D03*
X153600000Y-86200000D03*
X167500000Y-71600000D03*
X162750000Y-87500000D03*
X159000000Y-81300000D03*
X126899000Y-78080000D03*
X162750000Y-84500000D03*
X127659000Y-77380000D03*
X155240000Y-71520000D03*
X166800000Y-72500000D03*
X155500000Y-76300000D03*
X136500000Y-87250000D03*
X174100000Y-71800000D03*
X132000000Y-87250000D03*
X143810000Y-61500000D03*
X128760000Y-73480000D03*
X118050000Y-64090000D03*
X119560000Y-76220000D03*
X140980000Y-88250000D03*
X173200000Y-72500000D03*
X133970000Y-61510000D03*
X169335834Y-86448775D03*
X155250000Y-64620000D03*
X128760000Y-67760000D03*
X133970000Y-87260000D03*
X123410000Y-62060000D03*
X172300000Y-71800000D03*
X145990000Y-87250000D03*
X168200000Y-72500000D03*
X118050000Y-71550000D03*
X152851420Y-89904407D03*
X138810000Y-61500000D03*
X169700000Y-72500000D03*
X124399081Y-79558729D03*
X151160000Y-87270000D03*
X171400000Y-71000000D03*
X164890000Y-79910000D03*
%TO.N,+5V*%
X177974113Y-71599408D03*
X181874113Y-72499408D03*
X180174113Y-72499408D03*
X178674113Y-72499408D03*
X159480000Y-78640000D03*
X184574113Y-71799408D03*
X181874113Y-70999408D03*
X182774113Y-71799408D03*
X177274113Y-72499408D03*
X183674113Y-72499408D03*
%TO.N,VBUS*%
X163048000Y-67860000D03*
X158175000Y-67877000D03*
X159750000Y-70750000D03*
%TO.N,OSC32K*%
X127000000Y-75000000D03*
X132500000Y-68750000D03*
%TO.N,SDA2*%
X152841270Y-88210260D03*
%TO.N,SCL2*%
X152842776Y-88890964D03*
%TO.N,NRST*%
X132500000Y-77250000D03*
X120115000Y-68885000D03*
%TO.N,VREF*%
X185000000Y-103000000D03*
X153000000Y-103000000D03*
X177000000Y-103000000D03*
X146500000Y-103000000D03*
%TO.N,USB_DN*%
X151229810Y-67979810D03*
X161007030Y-68278403D03*
%TO.N,USB_DP*%
X150770190Y-67520190D03*
X159250000Y-68250000D03*
%TO.N,SWCLK*%
X128350000Y-65050000D03*
X150750000Y-64440000D03*
%TO.N,MOSI*%
X148500000Y-83500000D03*
X157500000Y-87000000D03*
%TO.N,MISO*%
X158408041Y-88146671D03*
X147747013Y-83466870D03*
%TO.N,CS*%
X151000000Y-82398048D03*
X157500000Y-85000000D03*
%TO.N,SCK*%
X157500000Y-86000000D03*
X147000000Y-83500000D03*
%TO.N,SWO*%
X138750000Y-65800000D03*
X128360000Y-68440000D03*
%TO.N,BOOT0*%
X157750000Y-73725500D03*
X151250000Y-75250000D03*
X136250000Y-66750000D03*
X137500000Y-68000000D03*
%TO.N,CAN_TX*%
X155250000Y-73500000D03*
X147500000Y-65750000D03*
%TO.N,CAN_RX*%
X154500000Y-73500000D03*
X148250000Y-66225500D03*
%TO.N,VMOT*%
X111000000Y-112000000D03*
X159000000Y-111050000D03*
X144005000Y-114050000D03*
X158000000Y-114050000D03*
X112000000Y-112000000D03*
X128000000Y-114000000D03*
X127000000Y-111000000D03*
X160000000Y-112050000D03*
X189987500Y-114100000D03*
X176100000Y-112100000D03*
X190987500Y-111100000D03*
X173100000Y-111100000D03*
X158000000Y-111050000D03*
X143005000Y-111050000D03*
X191987500Y-114100000D03*
X174100000Y-113100000D03*
X144005000Y-113050000D03*
X129000000Y-111000000D03*
X109000000Y-112000000D03*
X159000000Y-113050000D03*
X192987500Y-114100000D03*
X129000000Y-112000000D03*
X127000000Y-112000000D03*
X141005000Y-111050000D03*
X160000000Y-114050000D03*
X126000000Y-111000000D03*
X173100000Y-114100000D03*
X143005000Y-113050000D03*
X126000000Y-113000000D03*
X175100000Y-112100000D03*
X189987500Y-111100000D03*
X158000000Y-113050000D03*
X143005000Y-114050000D03*
X112000000Y-114000000D03*
X144005000Y-112050000D03*
X112000000Y-111000000D03*
X142005000Y-114050000D03*
X142005000Y-111050000D03*
X189987500Y-113100000D03*
X110000000Y-114000000D03*
X112000000Y-113000000D03*
X161000000Y-112050000D03*
X128000000Y-113000000D03*
X109000000Y-113000000D03*
X176100000Y-114100000D03*
X174100000Y-111100000D03*
X142005000Y-112050000D03*
X109000000Y-111000000D03*
X191987500Y-113100000D03*
X110000000Y-112000000D03*
X141005000Y-114050000D03*
X129000000Y-113000000D03*
X176100000Y-111100000D03*
X159000000Y-112050000D03*
X144005000Y-111050000D03*
X190987500Y-112100000D03*
X191987500Y-111100000D03*
X161000000Y-113050000D03*
X142005000Y-113050000D03*
X127000000Y-113000000D03*
X126000000Y-112000000D03*
X129000000Y-114000000D03*
X109000000Y-114000000D03*
X159000000Y-114050000D03*
X175100000Y-113100000D03*
X143005000Y-112050000D03*
X111000000Y-111000000D03*
X191987500Y-112100000D03*
X173100000Y-112100000D03*
X158000000Y-112050000D03*
X127000000Y-114000000D03*
X160000000Y-113050000D03*
X111000000Y-114000000D03*
X161000000Y-111050000D03*
X128000000Y-111000000D03*
X160000000Y-111050000D03*
X126000000Y-114000000D03*
X128000000Y-112000000D03*
X175100000Y-111100000D03*
X190987500Y-114100000D03*
X161000000Y-114050000D03*
X141005000Y-112050000D03*
X110000000Y-113000000D03*
X175100000Y-114100000D03*
X141005000Y-113050000D03*
X173100000Y-113100000D03*
X174100000Y-112100000D03*
X110000000Y-111000000D03*
X174100000Y-114100000D03*
X190987500Y-113100000D03*
X192987500Y-111100000D03*
X192987500Y-112100000D03*
X192987500Y-113100000D03*
X176100000Y-113100000D03*
X189987500Y-112100000D03*
X111000000Y-113000000D03*
%TO.N,/Motor Drivers/M3_OUT_B*%
X174000000Y-121100000D03*
X175000000Y-122100000D03*
X173000000Y-121100000D03*
X173000000Y-122100000D03*
X176000000Y-119100000D03*
X175000000Y-120100000D03*
X174000000Y-119100000D03*
X176000000Y-122100000D03*
X175000000Y-119100000D03*
X173000000Y-119100000D03*
X175000000Y-121100000D03*
X174000000Y-120100000D03*
X174000000Y-122100000D03*
X176000000Y-120100000D03*
X176000000Y-121100000D03*
X173000000Y-120100000D03*
%TO.N,/Motor Drivers/M3_OUT_A*%
X190000000Y-120100000D03*
X193000000Y-119100000D03*
X191000000Y-120100000D03*
X190000000Y-121100000D03*
X193000000Y-121100000D03*
X192000000Y-122100000D03*
X190000000Y-122100000D03*
X193000000Y-120100000D03*
X193000000Y-122100000D03*
X191000000Y-119100000D03*
X191000000Y-122100000D03*
X192000000Y-121100000D03*
X190000000Y-119100000D03*
X192000000Y-119100000D03*
X192000000Y-120100000D03*
X191000000Y-121100000D03*
%TO.N,/Motor Drivers/M1_OUT_B*%
X112000000Y-120850000D03*
X109000000Y-119850000D03*
X111000000Y-119850000D03*
X110000000Y-119850000D03*
X111000000Y-120850000D03*
X110000000Y-118850000D03*
X109000000Y-121850000D03*
X109000000Y-118850000D03*
X111000000Y-121850000D03*
X112000000Y-119850000D03*
X111000000Y-118850000D03*
X109000000Y-120850000D03*
X110000000Y-121850000D03*
X110000000Y-120850000D03*
X112000000Y-118850000D03*
X112000000Y-121850000D03*
%TO.N,/Motor Drivers/M1_OUT_A*%
X129000000Y-120850000D03*
X129000000Y-119850000D03*
X127000000Y-118850000D03*
X128000000Y-120850000D03*
X129000000Y-118850000D03*
X128000000Y-119850000D03*
X129000000Y-121850000D03*
X127000000Y-120850000D03*
X126000000Y-118850000D03*
X126000000Y-121850000D03*
X126000000Y-119850000D03*
X128000000Y-121850000D03*
X128000000Y-118850000D03*
X126000000Y-120850000D03*
X127000000Y-119850000D03*
X127000000Y-121850000D03*
%TO.N,/Motor Drivers/M2_OUT_B*%
X143000000Y-121850000D03*
X144000000Y-120850000D03*
X143000000Y-119850000D03*
X142000000Y-121850000D03*
X142000000Y-120850000D03*
X141000000Y-120850000D03*
X143000000Y-120850000D03*
X141000000Y-119850000D03*
X141000000Y-118850000D03*
X144000000Y-119850000D03*
X143000000Y-118850000D03*
X142000000Y-119850000D03*
X144000000Y-121850000D03*
X141000000Y-121850000D03*
X144000000Y-118850000D03*
X142000000Y-118850000D03*
%TO.N,/Motor Drivers/M2_OUT_A*%
X159000000Y-118850000D03*
X158000000Y-121850000D03*
X159000000Y-121850000D03*
X158000000Y-120850000D03*
X158000000Y-119850000D03*
X161000000Y-120850000D03*
X158000000Y-118850000D03*
X160000000Y-118850000D03*
X159000000Y-119850000D03*
X160000000Y-119850000D03*
X159000000Y-120850000D03*
X161000000Y-121850000D03*
X161000000Y-119850000D03*
X160000000Y-120850000D03*
X161000000Y-118850000D03*
X160000000Y-121850000D03*
%TO.N,IMU_INT1*%
X160254383Y-88169911D03*
X144250000Y-83500000D03*
%TO.N,IMU_INT2*%
X157500000Y-84000000D03*
X151500000Y-79250000D03*
%TO.N,M2_SO*%
X137750000Y-88200000D03*
X144750000Y-95900000D03*
%TO.N,M3_NFAULT*%
X166800000Y-91700000D03*
X164700000Y-91700000D03*
%TO.N,M3_SO*%
X158100000Y-94000000D03*
X139250000Y-88200000D03*
%TD*%
D69*
%TO.N,GND*%
X154500000Y-72480000D02*
X155230000Y-72480000D01*
X129849000Y-79250000D02*
X128709000Y-78110000D01*
X140020000Y-86500000D02*
X140020000Y-87500000D01*
X127659000Y-80030000D02*
X127509000Y-80030000D01*
X110775000Y-67375000D02*
X110770000Y-67380000D01*
X120300000Y-77180000D02*
X121630000Y-77180000D01*
X185980000Y-101500000D02*
X186750000Y-101500000D01*
X150750000Y-105250000D02*
X151000000Y-105000000D01*
D70*
X185660000Y-65350000D02*
X185021342Y-65988658D01*
D69*
X132300000Y-61500000D02*
X131600000Y-61500000D01*
X118050000Y-67780000D02*
X118050000Y-68480000D01*
X140250000Y-86270000D02*
X140020000Y-86500000D01*
X152738000Y-77750000D02*
X154270000Y-77750000D01*
X127659000Y-82890000D02*
X127659000Y-83600000D01*
D71*
X162730000Y-86520000D02*
X162750000Y-86500000D01*
D69*
X128659000Y-82890000D02*
X127659000Y-82890000D01*
X124110000Y-105450000D02*
X124110000Y-104710000D01*
D72*
X175160000Y-64564000D02*
X175160000Y-63865000D01*
D69*
X109217763Y-74100000D02*
X109218376Y-74099387D01*
X127659000Y-82890000D02*
X126909000Y-82890000D01*
X133750000Y-85750000D02*
X133674500Y-85825500D01*
X170187500Y-64199700D02*
X170184121Y-64196321D01*
X128659000Y-78110000D02*
X128659000Y-77400000D01*
X150250000Y-107000000D02*
X150250000Y-105750000D01*
X133750000Y-84738000D02*
X133750000Y-85750000D01*
X185980000Y-100500000D02*
X186750000Y-100500000D01*
X109226496Y-77100000D02*
X109227411Y-77099085D01*
X140250000Y-84738000D02*
X140250000Y-86270000D01*
X185000000Y-104250000D02*
X183750000Y-104250000D01*
X118240000Y-107000000D02*
X118240000Y-105750000D01*
X121980000Y-100750000D02*
X122750000Y-100750000D01*
D71*
X160412500Y-85500000D02*
X161980000Y-85500000D01*
D69*
X121755000Y-83280000D02*
X122200000Y-83725000D01*
X141180000Y-61500000D02*
X141190000Y-61490000D01*
D71*
X161980000Y-85500000D02*
X162000000Y-85480000D01*
X150250000Y-105750000D02*
X151000000Y-105000000D01*
D69*
X140020000Y-87500000D02*
X140020000Y-88240000D01*
X188100000Y-105350000D02*
X188100000Y-104610000D01*
X117000000Y-105250000D02*
X118750000Y-105250000D01*
X118750000Y-105250000D02*
X119000000Y-105000000D01*
X155230000Y-72480000D02*
X155240000Y-72490000D01*
X133000000Y-86500000D02*
X133000000Y-87250000D01*
D71*
X162100000Y-71310000D02*
X162100000Y-72030000D01*
D69*
X172312000Y-67938000D02*
X171377949Y-68872051D01*
X172312000Y-67600000D02*
X172750000Y-67600000D01*
X121000000Y-104250000D02*
X119750000Y-104250000D01*
X129730000Y-72750000D02*
X129500000Y-72520000D01*
X153000000Y-104250000D02*
X151750000Y-104250000D01*
X151750000Y-104250000D02*
X151000000Y-105000000D01*
X118050000Y-75260000D02*
X118050000Y-75970000D01*
X145250000Y-63262000D02*
X145250000Y-61730000D01*
X121980000Y-101750000D02*
X122750000Y-101750000D01*
D71*
X117990000Y-106000000D02*
X118240000Y-105750000D01*
D69*
X129500000Y-66790000D02*
X128770000Y-66790000D01*
X192800000Y-66690000D02*
X193504748Y-66690000D01*
D72*
X175160000Y-65350000D02*
X175160000Y-64564000D01*
D69*
X128770000Y-66790000D02*
X128760000Y-66800000D01*
D72*
X174404000Y-64546000D02*
X175142000Y-64546000D01*
D69*
X118050000Y-68480000D02*
X118060000Y-68490000D01*
D71*
X162730000Y-85480000D02*
X162750000Y-85500000D01*
D69*
X154500000Y-67480000D02*
X155240000Y-67480000D01*
X145480000Y-61500000D02*
X146180000Y-61500000D01*
X170187500Y-65100000D02*
X170187500Y-64199700D01*
X120300000Y-77180000D02*
X119550000Y-77180000D01*
D71*
X150000000Y-106000000D02*
X150250000Y-105750000D01*
D69*
X149000000Y-105250000D02*
X150750000Y-105250000D01*
X145250000Y-86270000D02*
X145020000Y-86500000D01*
X172750000Y-68060389D02*
X172805319Y-68115708D01*
X130901000Y-80250000D02*
X128879000Y-80250000D01*
X133651535Y-85825500D02*
X133020000Y-86457035D01*
X155240000Y-67480000D02*
X155250000Y-67490000D01*
D71*
X160412500Y-86000000D02*
X161480000Y-86000000D01*
D69*
X154270000Y-77750000D02*
X154500000Y-77980000D01*
X111725000Y-67375000D02*
X110775000Y-67375000D01*
X152738000Y-65750000D02*
X154330000Y-65750000D01*
D72*
X184904000Y-64546000D02*
X185642000Y-64546000D01*
D69*
X120325000Y-83994887D02*
X120326046Y-83995933D01*
X131600000Y-61500000D02*
X131590000Y-61490000D01*
X154000000Y-100750000D02*
X154750000Y-100750000D01*
X183750000Y-104250000D02*
X183000000Y-105000000D01*
D71*
X162000000Y-86520000D02*
X162730000Y-86520000D01*
D69*
X154270000Y-72250000D02*
X154500000Y-72480000D01*
X140250000Y-63262000D02*
X140250000Y-61730000D01*
X155500000Y-77980000D02*
X155500000Y-78700000D01*
X172312000Y-67600000D02*
X172312000Y-67938000D01*
D70*
X175160000Y-65432685D02*
X174592685Y-66000000D01*
D69*
X182750000Y-105250000D02*
X183000000Y-105000000D01*
X159750000Y-71937500D02*
X159750000Y-73000000D01*
X182250000Y-107000000D02*
X182250000Y-105750000D01*
X154000000Y-101750000D02*
X154750000Y-101750000D01*
X119750000Y-104250000D02*
X119000000Y-105000000D01*
X180687500Y-64192500D02*
X180690000Y-64190000D01*
D71*
X161480000Y-86000000D02*
X162000000Y-86520000D01*
D69*
X154500000Y-77980000D02*
X155500000Y-77980000D01*
X124320000Y-67925000D02*
X124320000Y-69370000D01*
X182250000Y-107010000D02*
X182250000Y-105760000D01*
D72*
X163850000Y-66850000D02*
X163850000Y-67861000D01*
X185660000Y-65350000D02*
X185660000Y-64564000D01*
D70*
X185021342Y-65988658D02*
X185011342Y-65988658D01*
D69*
X108510000Y-77100000D02*
X109226496Y-77100000D01*
X108510000Y-71100000D02*
X109218065Y-71100000D01*
X140020000Y-88240000D02*
X140010000Y-88250000D01*
X130901000Y-79250000D02*
X129849000Y-79250000D01*
X108510000Y-74100000D02*
X109217763Y-74100000D01*
X110771568Y-74855000D02*
X110771157Y-74855411D01*
D71*
X182000000Y-106010000D02*
X182250000Y-105760000D01*
X157400000Y-71210000D02*
X157400000Y-71950000D01*
D69*
X171377949Y-68872051D02*
X171377949Y-69103887D01*
X120325000Y-83280000D02*
X121755000Y-83280000D01*
X193504748Y-66690000D02*
X193509265Y-66694517D01*
X145020000Y-86500000D02*
X145020000Y-87250000D01*
D72*
X157450000Y-67863000D02*
X157445000Y-67868000D01*
D69*
X145250000Y-61730000D02*
X145480000Y-61500000D01*
X133674500Y-85825500D02*
X133651535Y-85825500D01*
D72*
X185660000Y-63865000D02*
X185675000Y-63850000D01*
D69*
X127509000Y-80030000D02*
X127029000Y-80510000D01*
X181000000Y-105250000D02*
X182750000Y-105250000D01*
X154330000Y-65750000D02*
X154500000Y-65580000D01*
D72*
X185642000Y-64546000D02*
X185660000Y-64564000D01*
D69*
X120325000Y-83280000D02*
X120325000Y-83994887D01*
X127659000Y-83600000D02*
X127649000Y-83610000D01*
X145250000Y-84738000D02*
X145250000Y-86270000D01*
X146180000Y-61500000D02*
X146190000Y-61490000D01*
X154500000Y-65580000D02*
X155250000Y-65580000D01*
X172750000Y-67600000D02*
X172750000Y-68060389D01*
X128709000Y-78110000D02*
X128659000Y-78110000D01*
X137270000Y-61500000D02*
X137980000Y-61500000D01*
X150250000Y-87460000D02*
X150250000Y-88171645D01*
X158300000Y-77365000D02*
X157125000Y-77365000D01*
X140250000Y-61730000D02*
X140480000Y-61500000D01*
X152738000Y-72250000D02*
X154270000Y-72250000D01*
X157125000Y-77365000D02*
X157120000Y-77360000D01*
D72*
X185660000Y-64564000D02*
X185660000Y-63865000D01*
D69*
X182250000Y-105750000D02*
X183000000Y-105000000D01*
X123665000Y-67270000D02*
X124320000Y-67925000D01*
D71*
X150250000Y-88171645D02*
X150253036Y-88174681D01*
D69*
X109218065Y-71100000D02*
X109222894Y-71095171D01*
X127659000Y-80030000D02*
X128659000Y-80030000D01*
X129500000Y-72520000D02*
X128760000Y-72520000D01*
X121630000Y-77180000D02*
X122125000Y-77675000D01*
D72*
X175160000Y-63865000D02*
X175175000Y-63850000D01*
D71*
X162000000Y-85480000D02*
X162730000Y-85480000D01*
D72*
X157450000Y-66850000D02*
X157450000Y-67863000D01*
D69*
X111725000Y-74855000D02*
X110771568Y-74855000D01*
X131262000Y-72750000D02*
X129730000Y-72750000D01*
X140480000Y-61500000D02*
X141180000Y-61500000D01*
X180687500Y-65100000D02*
X180687500Y-64192500D01*
D70*
X174592685Y-66000000D02*
X174500000Y-66000000D01*
D72*
X163850000Y-67861000D02*
X163849000Y-67862000D01*
D69*
X156000000Y-105440000D02*
X156000000Y-104700000D01*
X152110000Y-86520000D02*
X152110000Y-87260000D01*
D72*
X175142000Y-64546000D02*
X175160000Y-64564000D01*
D69*
X128879000Y-80250000D02*
X128659000Y-80030000D01*
D72*
X175160000Y-65350000D02*
X175160000Y-65432685D01*
D69*
X133020000Y-86457035D02*
X133020000Y-86500000D01*
%TO.N,/Power/5V_BST*%
X184488000Y-67600000D02*
X185420000Y-67600000D01*
X185420000Y-67600000D02*
X185670000Y-67850000D01*
D71*
%TO.N,/Power/5V_SW*%
X186020000Y-68460000D02*
X185252462Y-68460000D01*
X183140000Y-67100000D02*
X182812000Y-67100000D01*
X184090000Y-68050000D02*
X183140000Y-67100000D01*
X186630000Y-67850000D02*
X186020000Y-68460000D01*
X185252462Y-68460000D02*
X184842462Y-68050000D01*
X184842462Y-68050000D02*
X184090000Y-68050000D01*
D69*
X180050000Y-67100000D02*
X182812000Y-67100000D01*
X179900000Y-67250000D02*
X180050000Y-67100000D01*
%TO.N,/Power/3V3_BST*%
X173988000Y-67600000D02*
X174920000Y-67600000D01*
X174920000Y-67600000D02*
X175170000Y-67850000D01*
D71*
%TO.N,/Power/3V3_SW*%
X174342462Y-68050000D02*
X173550000Y-68050000D01*
X176130000Y-67850000D02*
X175480000Y-68500000D01*
X174792462Y-68500000D02*
X174342462Y-68050000D01*
D69*
X169400000Y-67250000D02*
X169550000Y-67100000D01*
D71*
X172963604Y-67100000D02*
X172312000Y-67100000D01*
X173550000Y-68050000D02*
X173250000Y-67750000D01*
X175480000Y-68500000D02*
X174792462Y-68500000D01*
D69*
X169550000Y-67100000D02*
X172312000Y-67100000D01*
D71*
X173250000Y-67750000D02*
X173250000Y-67386396D01*
X173250000Y-67386396D02*
X172963604Y-67100000D01*
D69*
%TO.N,+3.3V*%
X133970000Y-86510000D02*
X133970000Y-87260000D01*
X133990000Y-90710000D02*
X136700000Y-90710000D01*
X144750000Y-61730000D02*
X144520000Y-61500000D01*
D70*
X128649000Y-79070000D02*
X128659000Y-79070000D01*
D69*
X128770000Y-67750000D02*
X128760000Y-67760000D01*
X145750000Y-86270000D02*
X145980000Y-86500000D01*
D71*
X176710000Y-67150000D02*
X176710000Y-68540000D01*
D69*
X169330000Y-86442941D02*
X169335834Y-86448775D01*
X124400000Y-81275000D02*
X123355000Y-82320000D01*
X139750000Y-61730000D02*
X139520000Y-61500000D01*
D71*
X132010000Y-86500000D02*
X132010000Y-87240000D01*
D69*
X154500000Y-71520000D02*
X155240000Y-71520000D01*
X134250000Y-84738000D02*
X134250000Y-86230000D01*
X120330000Y-76250000D02*
X123300000Y-76250000D01*
X151150000Y-86520000D02*
X151150000Y-87260000D01*
X150750000Y-85520000D02*
X151150000Y-85920000D01*
D70*
X127659000Y-78080000D02*
X128649000Y-79070000D01*
D71*
X162730000Y-84520000D02*
X162750000Y-84500000D01*
D69*
X140980000Y-86500000D02*
X140750000Y-86270000D01*
X154500000Y-77020000D02*
X154270000Y-77250000D01*
X169330000Y-84445000D02*
X169330000Y-86442941D01*
X124325000Y-75225000D02*
X124325000Y-74925000D01*
X131262000Y-67750000D02*
X129500000Y-67750000D01*
X154500000Y-77020000D02*
X155500000Y-77020000D01*
X123404700Y-64469700D02*
X123404700Y-62065300D01*
X162710000Y-81300000D02*
X163300000Y-81300000D01*
X123404700Y-62065300D02*
X123410000Y-62060000D01*
X129730000Y-73250000D02*
X129500000Y-73480000D01*
X153840000Y-65237035D02*
X154457035Y-64620000D01*
D71*
X150238722Y-98257504D02*
X150238722Y-96761278D01*
X161682500Y-84837500D02*
X162000000Y-84520000D01*
D69*
X124400000Y-80975000D02*
X124400000Y-79559648D01*
D71*
X135750000Y-87990000D02*
X135760000Y-87990000D01*
D69*
X124400000Y-79559648D02*
X124399081Y-79558729D01*
X133960000Y-86500000D02*
X133970000Y-86510000D01*
X129500000Y-73480000D02*
X128760000Y-73480000D01*
D71*
X160250000Y-84837500D02*
X161682500Y-84837500D01*
X162000000Y-87480000D02*
X162730000Y-87480000D01*
D69*
X154500000Y-64620000D02*
X155250000Y-64620000D01*
X118050000Y-72260000D02*
X118050000Y-71550000D01*
X120300000Y-76220000D02*
X119560000Y-76220000D01*
X129381965Y-79750000D02*
X128701965Y-79070000D01*
X131262000Y-73250000D02*
X129730000Y-73250000D01*
X152738000Y-71750000D02*
X154270000Y-71750000D01*
X145750000Y-84738000D02*
X145750000Y-86270000D01*
D71*
X177500000Y-92990000D02*
X176500000Y-92990000D01*
X161020000Y-86500000D02*
X160412500Y-86500000D01*
X172510000Y-92990000D02*
X172000000Y-93500000D01*
D69*
X163700000Y-79905000D02*
X164885000Y-79905000D01*
X130901000Y-79750000D02*
X129381965Y-79750000D01*
X163700000Y-80900000D02*
X163700000Y-79905000D01*
D71*
X152500000Y-94500000D02*
X152500000Y-93500000D01*
D69*
X153840000Y-65250000D02*
X153840000Y-65237035D01*
X133980000Y-87270000D02*
X133970000Y-87260000D01*
D71*
X150238722Y-99237504D02*
X150258722Y-99257504D01*
X174625000Y-70625000D02*
X174150000Y-70625000D01*
D69*
X152738000Y-65250000D02*
X153840000Y-65250000D01*
X155500000Y-77020000D02*
X155500000Y-76300000D01*
X154457035Y-64620000D02*
X154500000Y-64620000D01*
X154270000Y-71750000D02*
X154500000Y-71520000D01*
X123300000Y-76250000D02*
X124325000Y-75225000D01*
X133750000Y-63262000D02*
X133250000Y-63262000D01*
D71*
X176500000Y-92990000D02*
X172510000Y-92990000D01*
X152857013Y-89910000D02*
X152851420Y-89904407D01*
D69*
X144750000Y-63262000D02*
X144750000Y-61730000D01*
X134250000Y-86230000D02*
X133980000Y-86500000D01*
X133000000Y-91700000D02*
X133990000Y-90710000D01*
X120300000Y-76220000D02*
X120330000Y-76250000D01*
X133000000Y-93500000D02*
X133000000Y-91700000D01*
X144520000Y-61500000D02*
X143810000Y-61500000D01*
D71*
X150238722Y-98257504D02*
X150238722Y-99237504D01*
D69*
X129500000Y-67750000D02*
X128770000Y-67750000D01*
X140750000Y-86270000D02*
X140750000Y-84738000D01*
D70*
X127659000Y-78080000D02*
X126899000Y-78080000D01*
D71*
X136510000Y-86500000D02*
X136510000Y-87240000D01*
D69*
X124400000Y-80975000D02*
X124400000Y-81275000D01*
X118050000Y-64790000D02*
X118050000Y-64090000D01*
D71*
X153600000Y-86890000D02*
X153600000Y-86200000D01*
D69*
X133250000Y-63262000D02*
X133250000Y-61510000D01*
X150750000Y-84738000D02*
X150750000Y-85520000D01*
X133250000Y-61510000D02*
X133260000Y-61500000D01*
X128701965Y-79070000D02*
X128659000Y-79070000D01*
X145980000Y-86500000D02*
X145980000Y-87240000D01*
X123355000Y-82320000D02*
X120325000Y-82320000D01*
X133260000Y-61500000D02*
X133960000Y-61500000D01*
D71*
X150238722Y-96761278D02*
X152500000Y-94500000D01*
X162000000Y-84520000D02*
X162730000Y-84520000D01*
D69*
X163300000Y-81300000D02*
X163700000Y-80900000D01*
D71*
X176710000Y-68540000D02*
X174625000Y-70625000D01*
D69*
X139750000Y-63262000D02*
X139750000Y-61730000D01*
D71*
X135760000Y-87990000D02*
X136500000Y-87250000D01*
D70*
X127659000Y-78080000D02*
X127659000Y-77380000D01*
D69*
X154270000Y-77250000D02*
X152738000Y-77250000D01*
X140980000Y-87500000D02*
X140980000Y-88250000D01*
X145980000Y-87240000D02*
X145990000Y-87250000D01*
D71*
X132010000Y-87240000D02*
X132000000Y-87250000D01*
X162000000Y-87480000D02*
X161020000Y-86500000D01*
X162730000Y-87480000D02*
X162750000Y-87500000D01*
X176160000Y-66600000D02*
X176710000Y-67150000D01*
D69*
X159690000Y-81300000D02*
X159000000Y-81300000D01*
X164885000Y-79905000D02*
X164890000Y-79910000D01*
D71*
X136510000Y-87240000D02*
X136500000Y-87250000D01*
D69*
X133960000Y-61500000D02*
X133970000Y-61510000D01*
X151150000Y-85920000D02*
X151150000Y-86520000D01*
X123665000Y-64730000D02*
X123404700Y-64469700D01*
X140980000Y-86500000D02*
X140980000Y-87500000D01*
D71*
X153600000Y-89910000D02*
X152857013Y-89910000D01*
D69*
X139520000Y-61500000D02*
X138810000Y-61500000D01*
%TO.N,/Motor Drivers/M3_AVDD*%
X184250000Y-102270000D02*
X185020000Y-101500000D01*
X184250000Y-103000000D02*
X184250000Y-102270000D01*
D71*
%TO.N,+5V*%
X186045000Y-70625000D02*
X184650000Y-70625000D01*
X187330000Y-67270000D02*
X187330000Y-69340000D01*
D69*
X158300000Y-78635000D02*
X159475000Y-78635000D01*
D71*
X187330000Y-69340000D02*
X186045000Y-70625000D01*
X186660000Y-66600000D02*
X187330000Y-67270000D01*
D69*
X159475000Y-78635000D02*
X159480000Y-78640000D01*
%TO.N,/Microcontroller/VCAP2*%
X152738000Y-66250000D02*
X154230000Y-66250000D01*
X154230000Y-66250000D02*
X154500000Y-66520000D01*
%TO.N,/Microcontroller/VCAP1*%
X150250000Y-84738000D02*
X150250000Y-86500000D01*
%TO.N,/Microcontroller/VREF+*%
X128899000Y-80750000D02*
X128659000Y-80990000D01*
X128659000Y-80990000D02*
X127659000Y-80990000D01*
X130901000Y-80750000D02*
X128899000Y-80750000D01*
D72*
%TO.N,VBUS*%
X163050000Y-67858000D02*
X163048000Y-67860000D01*
X158250000Y-66850000D02*
X158250000Y-67729719D01*
X163050000Y-66850000D02*
X163050000Y-67858000D01*
D69*
X159750000Y-69662500D02*
X159750000Y-70750000D01*
D72*
X164400000Y-71350000D02*
X164400000Y-70560000D01*
X164400000Y-70560000D02*
X163048000Y-69208000D01*
X158250000Y-67729719D02*
X158175000Y-67804719D01*
X163048000Y-69208000D02*
X163048000Y-67860000D01*
X158175000Y-67804719D02*
X158175000Y-67877000D01*
D69*
%TO.N,/Motor Drivers/M1_AVDD*%
X120250000Y-102520000D02*
X121020000Y-101750000D01*
X120250000Y-103000000D02*
X120250000Y-102520000D01*
%TO.N,/Motor Drivers/M3_DVDD*%
X183750000Y-101767035D02*
X185017035Y-100500000D01*
X183750000Y-103000000D02*
X183750000Y-101767035D01*
X185017035Y-100500000D02*
X185020000Y-100500000D01*
X184675000Y-100155000D02*
X185020000Y-100500000D01*
X184675000Y-99250000D02*
X184675000Y-100155000D01*
%TO.N,/Motor Drivers/M1_DVDD*%
X120712500Y-100442500D02*
X120712500Y-99500000D01*
X119750000Y-102017035D02*
X121017035Y-100750000D01*
X121020000Y-100750000D02*
X120712500Y-100442500D01*
X121017035Y-100750000D02*
X121020000Y-100750000D01*
X119750000Y-103000000D02*
X119750000Y-102017035D01*
%TO.N,/Motor Drivers/M3_CPL*%
X186970000Y-103540000D02*
X185760000Y-104750000D01*
X187100000Y-103540000D02*
X186970000Y-103540000D01*
X185760000Y-104750000D02*
X185000000Y-104750000D01*
%TO.N,/Motor Drivers/M3_CPH*%
X186187035Y-105250000D02*
X185000000Y-105250000D01*
X186937035Y-104500000D02*
X186187035Y-105250000D01*
X187100000Y-104500000D02*
X186937035Y-104500000D01*
%TO.N,/Motor Drivers/M1_CPL*%
X122850000Y-103640000D02*
X121740000Y-104750000D01*
X121740000Y-104750000D02*
X120990000Y-104750000D01*
X122990000Y-103640000D02*
X122850000Y-103640000D01*
%TO.N,/Motor Drivers/M1_CPH*%
X122990000Y-104600000D02*
X122827035Y-104600000D01*
X122827035Y-104600000D02*
X122177035Y-105250000D01*
X122177035Y-105250000D02*
X120990000Y-105250000D01*
%TO.N,/Motor Drivers/M3_VCP*%
X187100000Y-105340000D02*
X187057035Y-105340000D01*
X187000000Y-105450000D02*
X187100000Y-105350000D01*
X186647035Y-105750000D02*
X185000000Y-105750000D01*
X187100000Y-105350000D02*
X187100000Y-105340000D01*
X187057035Y-105340000D02*
X186647035Y-105750000D01*
D71*
%TO.N,OSC32K*%
X124325000Y-77675000D02*
X127000000Y-75000000D01*
X132500000Y-68750000D02*
X131262000Y-68750000D01*
D69*
%TO.N,/Motor Drivers/M1_VCP*%
X122990000Y-105440000D02*
X122680000Y-105750000D01*
X122680000Y-105750000D02*
X120990000Y-105750000D01*
D71*
%TO.N,SDA2*%
X149500000Y-86317746D02*
X149500000Y-91500000D01*
X153141530Y-87910000D02*
X152841270Y-88210260D01*
X148750000Y-92250000D02*
X148750000Y-94130000D01*
X148750000Y-94130000D02*
X148010000Y-94870000D01*
X149500000Y-91500000D02*
X148750000Y-92250000D01*
X149750000Y-84738000D02*
X149750000Y-86067746D01*
X148010000Y-94870000D02*
X146370000Y-94870000D01*
X149750000Y-86067746D02*
X149500000Y-86317746D01*
X153600000Y-87910000D02*
X153141530Y-87910000D01*
X146370000Y-94870000D02*
X145000000Y-93500000D01*
%TO.N,SCL2*%
X149250000Y-84738000D02*
X149250000Y-85791186D01*
X149000000Y-86041186D02*
X149000000Y-90467157D01*
X152843740Y-88890000D02*
X152842776Y-88890964D01*
X149000000Y-90467157D02*
X147500000Y-91967157D01*
X149250000Y-85791186D02*
X149000000Y-86041186D01*
X153600000Y-88890000D02*
X152843740Y-88890000D01*
X147500000Y-91967157D02*
X147500000Y-93500000D01*
D69*
%TO.N,/Motor Drivers/M2_AVDD*%
X152250000Y-103000000D02*
X152250000Y-102540000D01*
X152250000Y-102540000D02*
X153040000Y-101750000D01*
%TO.N,/Motor Drivers/M2_DVDD*%
X153037035Y-100750000D02*
X153040000Y-100750000D01*
X151750000Y-103000000D02*
X151750000Y-102037035D01*
X152732500Y-99500000D02*
X152732500Y-100442500D01*
X152732500Y-100442500D02*
X153040000Y-100750000D01*
X151750000Y-102037035D02*
X153037035Y-100750000D01*
%TO.N,/Motor Drivers/M2_CPL*%
X155000000Y-103640000D02*
X154860000Y-103640000D01*
X153750000Y-104750000D02*
X153000000Y-104750000D01*
X154860000Y-103640000D02*
X153750000Y-104750000D01*
%TO.N,/Motor Drivers/M2_CPH*%
X154187035Y-105250000D02*
X153000000Y-105250000D01*
X154837035Y-104600000D02*
X154187035Y-105250000D01*
X155000000Y-104600000D02*
X154837035Y-104600000D01*
%TO.N,/Motor Drivers/M2_VCP*%
X155000000Y-105440000D02*
X154690000Y-105750000D01*
X154690000Y-105750000D02*
X153000000Y-105750000D01*
%TO.N,/Power/RP_PMOS_G*%
X193100000Y-64000000D02*
X193100000Y-65370000D01*
X190970000Y-67500000D02*
X191780000Y-66690000D01*
X193100000Y-65370000D02*
X191780000Y-66690000D01*
X190250000Y-67500000D02*
X190970000Y-67500000D01*
%TO.N,/Power/5V_LED_A*%
X177950000Y-68590000D02*
X176600000Y-69940000D01*
X177950000Y-66262500D02*
X177950000Y-68590000D01*
X179112500Y-65100000D02*
X177950000Y-66262500D01*
%TO.N,/Power/3V3_LED_A*%
X168612500Y-65100000D02*
X167500000Y-66212500D01*
X167500000Y-68540000D02*
X166100000Y-69940000D01*
X167500000Y-66212500D02*
X167500000Y-68540000D01*
%TO.N,/Motor Drivers/M3_NFAULT_K*%
X186250000Y-99250000D02*
X186250000Y-98337500D01*
X186250000Y-98337500D02*
X185972500Y-98060000D01*
D71*
%TO.N,OSC25M*%
X124400000Y-83725000D02*
X125750000Y-82375000D01*
X125750000Y-82375000D02*
X125750000Y-77950000D01*
X125750000Y-77950000D02*
X127450000Y-76250000D01*
X127450000Y-76250000D02*
X131262000Y-76250000D01*
D69*
%TO.N,/Motor Drivers/M1_NFAULT_K*%
X122287500Y-99500000D02*
X122287500Y-98527500D01*
X122287500Y-98527500D02*
X122010000Y-98250000D01*
D71*
%TO.N,NRST*%
X120115000Y-68885000D02*
X118050000Y-66820000D01*
X118050000Y-65810000D02*
X116460000Y-65810000D01*
X123665000Y-66000000D02*
X122712550Y-65047550D01*
X118812450Y-65047550D02*
X118050000Y-65810000D01*
X118050000Y-66820000D02*
X118050000Y-65810000D01*
X116460000Y-65810000D02*
X115875000Y-65225000D01*
X122712550Y-65047550D02*
X118812450Y-65047550D01*
X132500000Y-77250000D02*
X131262000Y-77250000D01*
D69*
%TO.N,/Motor Drivers/M2_NFAULT_K*%
X154307500Y-98527500D02*
X154030000Y-98250000D01*
X154307500Y-99500000D02*
X154307500Y-98527500D01*
%TO.N,/Power/5V_FB*%
X185640000Y-66600000D02*
X184488000Y-66600000D01*
X186680000Y-65560000D02*
X185640000Y-66600000D01*
X186680000Y-65350000D02*
X186680000Y-65560000D01*
%TO.N,/Power/3V3_FB*%
X176180000Y-65560000D02*
X175140000Y-66600000D01*
X175140000Y-66600000D02*
X173988000Y-66600000D01*
X176180000Y-65350000D02*
X176180000Y-65560000D01*
D71*
%TO.N,VREF*%
X127748654Y-89500000D02*
X130000000Y-89500000D01*
X126350000Y-103000000D02*
X124350000Y-101000000D01*
X124350000Y-101000000D02*
X124350000Y-92898654D01*
X153750000Y-103000000D02*
X153000000Y-103000000D01*
X177000000Y-103000000D02*
X153750000Y-103000000D01*
X130000000Y-89500000D02*
X131250000Y-88250000D01*
X153000000Y-103750000D02*
X153000000Y-103000000D01*
X124350000Y-92898654D02*
X127748654Y-89500000D01*
X134750000Y-84738000D02*
X134750000Y-87222463D01*
X133722463Y-88250000D02*
X131250000Y-88250000D01*
X121600000Y-103750000D02*
X124350000Y-101000000D01*
X134750000Y-87222463D02*
X133722463Y-88250000D01*
X146500000Y-103000000D02*
X126350000Y-103000000D01*
X185000000Y-103750000D02*
X185000000Y-103000000D01*
X121000000Y-103750000D02*
X121600000Y-103750000D01*
%TO.N,SDA3*%
X152738000Y-69750000D02*
X154950000Y-69750000D01*
X155815000Y-70615000D02*
X155815000Y-74065000D01*
X160800000Y-76900000D02*
X160800000Y-82600000D01*
X154950000Y-69750000D02*
X155815000Y-70615000D01*
X155815000Y-74065000D02*
X157000000Y-75250000D01*
X160800000Y-82600000D02*
X161700000Y-83500000D01*
X161700000Y-83500000D02*
X162800000Y-83500000D01*
X162800000Y-83500000D02*
X165400000Y-86100000D01*
X157000000Y-75250000D02*
X159150000Y-75250000D01*
X165400000Y-92600000D02*
X164500000Y-93500000D01*
X165400000Y-86100000D02*
X165400000Y-92600000D01*
X159150000Y-75250000D02*
X160800000Y-76900000D01*
%TO.N,SCL3*%
X167000000Y-93500000D02*
X166100000Y-92600000D01*
X162100000Y-82900000D02*
X161500000Y-82300000D01*
X161500000Y-82300000D02*
X161500000Y-76600000D01*
X166100000Y-85800000D02*
X163200000Y-82900000D01*
X166100000Y-92600000D02*
X166100000Y-85800000D01*
X156250000Y-70200000D02*
X155300000Y-69250000D01*
X156250000Y-73750000D02*
X156250000Y-70200000D01*
X161500000Y-76600000D02*
X159650000Y-74750000D01*
X159650000Y-74750000D02*
X157250000Y-74750000D01*
X155300000Y-69250000D02*
X152738000Y-69250000D01*
X163200000Y-82900000D02*
X162100000Y-82900000D01*
X157250000Y-74750000D02*
X156250000Y-73750000D01*
D70*
%TO.N,USB_DN*%
X161400000Y-66850000D02*
X161400000Y-67885433D01*
X151631749Y-67750000D02*
X151606749Y-67725000D01*
X160700000Y-68585433D02*
X160700000Y-69662500D01*
X161400000Y-65980000D02*
X161400000Y-66850000D01*
X160400000Y-65980000D02*
X160425000Y-66005000D01*
X161400000Y-67885433D02*
X161007030Y-68278403D01*
X151606749Y-67725000D02*
X151343199Y-67725000D01*
X151229810Y-67838389D02*
X151229810Y-67979810D01*
X151343199Y-67725000D02*
X151229810Y-67838389D01*
X160400000Y-66850000D02*
X160400000Y-65980000D01*
X160425000Y-65955000D02*
X161375000Y-65955000D01*
X161375000Y-65955000D02*
X161400000Y-65980000D01*
X152738000Y-67750000D02*
X151631749Y-67750000D01*
X161007030Y-68278403D02*
X160700000Y-68585433D01*
X160425000Y-66005000D02*
X160425000Y-65955000D01*
%TO.N,USB_DP*%
X159900000Y-67650000D02*
X159900000Y-66850000D01*
X160875500Y-67744500D02*
X159994500Y-67744500D01*
X151606749Y-67275000D02*
X151156801Y-67275000D01*
X159900000Y-67744500D02*
X159755500Y-67744500D01*
X160900000Y-67720000D02*
X160875500Y-67744500D01*
X151156801Y-67275000D02*
X150911611Y-67520190D01*
X151631749Y-67250000D02*
X151606749Y-67275000D01*
X159900000Y-67600000D02*
X159900000Y-67744500D01*
X159755500Y-67744500D02*
X159250000Y-68250000D01*
X159250000Y-68250000D02*
X158800000Y-68700000D01*
X158800000Y-68700000D02*
X158800000Y-69662500D01*
X160900000Y-66850000D02*
X160900000Y-67720000D01*
X150911611Y-67520190D02*
X150770190Y-67520190D01*
X159994500Y-67744500D02*
X159900000Y-67650000D01*
X152738000Y-67250000D02*
X151631749Y-67250000D01*
D71*
%TO.N,SWDIO*%
X124935000Y-64730000D02*
X125195300Y-64469700D01*
X125195300Y-62859707D02*
X126235007Y-61820000D01*
X125195300Y-64469700D02*
X125195300Y-62859707D01*
X126235007Y-61820000D02*
X130140000Y-61820000D01*
X136750000Y-67500000D02*
X137500000Y-66750000D01*
X135820000Y-67500000D02*
X136750000Y-67500000D01*
X137500000Y-66750000D02*
X152738000Y-66750000D01*
X130140000Y-61820000D02*
X135820000Y-67500000D01*
D69*
%TO.N,SWCLK*%
X150750000Y-63262000D02*
X150750000Y-64440000D01*
D71*
X124935000Y-66000000D02*
X125887450Y-65047550D01*
X128347550Y-65047550D02*
X128350000Y-65050000D01*
X125887450Y-65047550D02*
X128347550Y-65047550D01*
%TO.N,MOSI*%
X158587500Y-86500000D02*
X158000000Y-86500000D01*
X148250000Y-84738000D02*
X148250000Y-83750000D01*
X158000000Y-86500000D02*
X157500000Y-87000000D01*
X148250000Y-83750000D02*
X148500000Y-83500000D01*
%TO.N,MISO*%
X147750000Y-84738000D02*
X147750000Y-83469857D01*
X158750000Y-87804712D02*
X158408041Y-88146671D01*
X158750000Y-87162500D02*
X158750000Y-87804712D01*
X147750000Y-83469857D02*
X147747013Y-83466870D01*
%TO.N,CS*%
X158000000Y-85500000D02*
X157500000Y-85000000D01*
X149398048Y-82398048D02*
X133250000Y-66250000D01*
X151000000Y-82398048D02*
X149398048Y-82398048D01*
X133250000Y-66250000D02*
X131262000Y-66250000D01*
X158587500Y-85500000D02*
X158000000Y-85500000D01*
%TO.N,SCK*%
X147250000Y-84738000D02*
X147250000Y-83750000D01*
X147250000Y-83750000D02*
X147000000Y-83500000D01*
X158587500Y-86000000D02*
X157500000Y-86000000D01*
%TO.N,SWO*%
X138750000Y-63262000D02*
X138750000Y-65800000D01*
X125300717Y-67270000D02*
X126470717Y-68440000D01*
X126470717Y-68440000D02*
X128360000Y-68440000D01*
X124935000Y-67270000D02*
X125300717Y-67270000D01*
%TO.N,BOOT0*%
X167500500Y-73725500D02*
X157750000Y-73725500D01*
X144750000Y-75250000D02*
X137500000Y-68000000D01*
X169330000Y-75555000D02*
X167500500Y-73725500D01*
D69*
X136250000Y-63262000D02*
X136250000Y-61500000D01*
D71*
X136250000Y-63262000D02*
X136250000Y-66750000D01*
X151250000Y-75250000D02*
X144750000Y-75250000D01*
%TO.N,CAN_TX*%
X158300000Y-76095000D02*
X157095000Y-76095000D01*
X157095000Y-76095000D02*
X155250000Y-74250000D01*
X155250000Y-74250000D02*
X155250000Y-73500000D01*
X147750000Y-63262000D02*
X147750000Y-65500000D01*
X147750000Y-65500000D02*
X147500000Y-65750000D01*
%TO.N,CAN_RX*%
X158300000Y-79905000D02*
X157875000Y-79905000D01*
X156500000Y-76250000D02*
X154500000Y-74250000D01*
X154500000Y-74250000D02*
X154500000Y-73500000D01*
X148250000Y-63262000D02*
X148250000Y-66225500D01*
X156500000Y-78530000D02*
X156500000Y-76250000D01*
X157875000Y-79905000D02*
X156500000Y-78530000D01*
D69*
%TO.N,/Microcontroller/CANL*%
X191570000Y-79490000D02*
X174600000Y-79490000D01*
X163700000Y-78635000D02*
X173745000Y-78635000D01*
X195000000Y-82920000D02*
X191570000Y-79490000D01*
X173745000Y-78635000D02*
X174600000Y-79490000D01*
%TO.N,/Microcontroller/CANH*%
X188500000Y-78500000D02*
X193500000Y-78500000D01*
X198000000Y-83000000D02*
X198000000Y-90080000D01*
X163790000Y-77455000D02*
X171545000Y-77455000D01*
X198000000Y-90080000D02*
X195000000Y-93080000D01*
X171870000Y-75555000D02*
X185555000Y-75555000D01*
X171870000Y-77130000D02*
X171870000Y-75555000D01*
X185555000Y-75555000D02*
X188500000Y-78500000D01*
X163700000Y-77365000D02*
X163790000Y-77455000D01*
X193500000Y-78500000D02*
X198000000Y-83000000D01*
X171545000Y-77455000D02*
X171870000Y-77130000D01*
D71*
%TO.N,SILENT*%
X152738000Y-68750000D02*
X155500000Y-68750000D01*
X157500000Y-74250000D02*
X160250000Y-74250000D01*
X160250000Y-74250000D02*
X162095000Y-76095000D01*
X156650000Y-69900000D02*
X156650000Y-73400000D01*
X156650000Y-73400000D02*
X157500000Y-74250000D01*
X162095000Y-76095000D02*
X163700000Y-76095000D01*
X155500000Y-68750000D02*
X156650000Y-69900000D01*
%TO.N,/Microcontroller/CC1*%
X162100000Y-70290000D02*
X160700000Y-71690000D01*
X160700000Y-71690000D02*
X160700000Y-71937500D01*
X161900000Y-68750000D02*
X161900000Y-66850000D01*
X162100000Y-70290000D02*
X162100000Y-68950000D01*
X162100000Y-68950000D02*
X161900000Y-68750000D01*
%TO.N,/Microcontroller/CC2*%
X158725000Y-68167000D02*
X158725000Y-68032537D01*
X158900000Y-67857537D02*
X158900000Y-66850000D01*
X158800000Y-71590000D02*
X158800000Y-71937500D01*
X158725000Y-68032537D02*
X158900000Y-67857537D01*
X157400000Y-70190000D02*
X157400000Y-69492000D01*
X157400000Y-70190000D02*
X158800000Y-71590000D01*
X157400000Y-69492000D02*
X158725000Y-68167000D01*
D69*
%TO.N,/Microcontroller/CAN_SW*%
X171870000Y-84445000D02*
X171870000Y-83240000D01*
X171870000Y-83240000D02*
X174600000Y-80510000D01*
%TO.N,VMOT*%
X123100000Y-106400000D02*
X124100000Y-106400000D01*
X123990000Y-106400000D02*
X130290000Y-106400000D01*
X154850000Y-106250000D02*
X153000000Y-106250000D01*
X194990000Y-105700000D02*
X195000000Y-105710000D01*
X188100000Y-106300000D02*
X187100000Y-106300000D01*
X194390000Y-106300000D02*
X194990000Y-105700000D01*
X122990000Y-106400000D02*
X122840000Y-106250000D01*
X188110000Y-106300000D02*
X194390000Y-106300000D01*
X156000000Y-106400000D02*
X162300000Y-106400000D01*
X187050000Y-106250000D02*
X185000000Y-106250000D01*
X130290000Y-106400000D02*
X130990000Y-105700000D01*
X155000000Y-106400000D02*
X154850000Y-106250000D01*
X162300000Y-106400000D02*
X163000000Y-105700000D01*
X122840000Y-106250000D02*
X120990000Y-106250000D01*
X187100000Y-106300000D02*
X187050000Y-106250000D01*
X156000000Y-106400000D02*
X155000000Y-106400000D01*
D71*
%TO.N,/Motor Drivers/M3_OUT_B*%
X181000000Y-106260000D02*
X181000000Y-106810000D01*
X178495000Y-116515000D02*
X177900000Y-117110000D01*
X177900000Y-117110000D02*
X176055000Y-117110000D01*
X181000000Y-106810000D02*
X178495000Y-109315000D01*
X176055000Y-117110000D02*
X175135000Y-116190000D01*
X175135000Y-116190000D02*
X175135000Y-116010000D01*
X178495000Y-109315000D02*
X178495000Y-116515000D01*
%TO.N,/Motor Drivers/M3_OUT_A*%
X188200000Y-116010000D02*
X189580000Y-116010000D01*
X183750000Y-107860000D02*
X184300000Y-108410000D01*
X187300000Y-115110000D02*
X188200000Y-116010000D01*
X183750000Y-107010000D02*
X183750000Y-107860000D01*
X184300000Y-108410000D02*
X185700000Y-108410000D01*
X185700000Y-108410000D02*
X187300000Y-110010000D01*
X187300000Y-110010000D02*
X187300000Y-115110000D01*
%TO.N,/Motor Drivers/M1_OUT_B*%
X114485000Y-109305000D02*
X114485000Y-116505000D01*
X116990000Y-106250000D02*
X116990000Y-106800000D01*
X111125000Y-116205000D02*
X111125000Y-116000000D01*
X116990000Y-106800000D02*
X114485000Y-109305000D01*
X113890000Y-117100000D02*
X112020000Y-117100000D01*
X112020000Y-117100000D02*
X111125000Y-116205000D01*
X114485000Y-116505000D02*
X113890000Y-117100000D01*
%TO.N,/Motor Drivers/M1_OUT_A*%
X119740000Y-107000000D02*
X119740000Y-107850000D01*
X124190000Y-116000000D02*
X125570000Y-116000000D01*
X123290000Y-110000000D02*
X123290000Y-115100000D01*
X120290000Y-108400000D02*
X121690000Y-108400000D01*
X119740000Y-107850000D02*
X120290000Y-108400000D01*
X121690000Y-108400000D02*
X123290000Y-110000000D01*
X123290000Y-115100000D02*
X124190000Y-116000000D01*
%TO.N,/Motor Drivers/M2_OUT_B*%
X145900000Y-117100000D02*
X144030000Y-117100000D01*
X149000000Y-106800000D02*
X146495000Y-109305000D01*
X144030000Y-117100000D02*
X143135000Y-116205000D01*
X146495000Y-116505000D02*
X145900000Y-117100000D01*
X143135000Y-116205000D02*
X143135000Y-116000000D01*
X149000000Y-106250000D02*
X149000000Y-106800000D01*
X146495000Y-109305000D02*
X146495000Y-116505000D01*
%TO.N,/Motor Drivers/M2_OUT_A*%
X151750000Y-107000000D02*
X151750000Y-107850000D01*
X152300000Y-108400000D02*
X153700000Y-108400000D01*
X151750000Y-107850000D02*
X152300000Y-108400000D01*
X153700000Y-108400000D02*
X155300000Y-110000000D01*
X156200000Y-116000000D02*
X157580000Y-116000000D01*
X155300000Y-110000000D02*
X155300000Y-115100000D01*
X155300000Y-115100000D02*
X156200000Y-116000000D01*
%TO.N,/Motor Drivers/M3_SP*%
X182750000Y-107660000D02*
X182500000Y-107910000D01*
X182750000Y-107010000D02*
X182750000Y-107660000D01*
X181237500Y-121060000D02*
X183000000Y-121060000D01*
X179500000Y-110110000D02*
X179500000Y-119322500D01*
X181700000Y-107910000D02*
X179500000Y-110110000D01*
X182500000Y-107910000D02*
X181700000Y-107910000D01*
X179500000Y-119322500D02*
X181237500Y-121060000D01*
%TO.N,/Motor Drivers/M1_SP*%
X115490000Y-119312500D02*
X117227500Y-121050000D01*
X118740000Y-107000000D02*
X118740000Y-107650000D01*
X117227500Y-121050000D02*
X118990000Y-121050000D01*
X115490000Y-110100000D02*
X115490000Y-119312500D01*
X117690000Y-107900000D02*
X115490000Y-110100000D01*
X118490000Y-107900000D02*
X117690000Y-107900000D01*
X118740000Y-107650000D02*
X118490000Y-107900000D01*
%TO.N,/Motor Drivers/M2_SP*%
X147500000Y-119312500D02*
X149237500Y-121050000D01*
X150750000Y-107000000D02*
X150750000Y-107650000D01*
X149237500Y-121050000D02*
X151000000Y-121050000D01*
X150500000Y-107900000D02*
X149700000Y-107900000D01*
X150750000Y-107650000D02*
X150500000Y-107900000D01*
X149700000Y-107900000D02*
X147500000Y-110100000D01*
X147500000Y-110100000D02*
X147500000Y-119312500D01*
%TO.N,IMU_INT1*%
X160250000Y-88165528D02*
X160254383Y-88169911D01*
X160250000Y-87162500D02*
X160250000Y-88165528D01*
X144250000Y-84738000D02*
X144250000Y-83500000D01*
%TO.N,IMU_INT2*%
X151500000Y-79250000D02*
X152738000Y-79250000D01*
X159400000Y-84000000D02*
X157500000Y-84000000D01*
X159750000Y-84350000D02*
X159400000Y-84000000D01*
X159750000Y-84837500D02*
X159750000Y-84350000D01*
%TO.N,M1_NFAULT*%
X119250000Y-103000000D02*
X119250000Y-101500000D01*
X128590000Y-88900000D02*
X132752000Y-84738000D01*
X132752000Y-84738000D02*
X133250000Y-84738000D01*
X120000000Y-98250000D02*
X119600000Y-98650000D01*
X119600000Y-98750000D02*
X119600000Y-93200000D01*
X119250000Y-101500000D02*
X119600000Y-101150000D01*
X123900000Y-88900000D02*
X128590000Y-88900000D01*
X119600000Y-93200000D02*
X123900000Y-88900000D01*
X119600000Y-101150000D02*
X119600000Y-98750000D01*
X119600000Y-98650000D02*
X119600000Y-98750000D01*
X120990000Y-98250000D02*
X120000000Y-98250000D01*
%TO.N,M1_SNSOUT*%
X118750000Y-103000000D02*
X118750000Y-101000000D01*
X118900000Y-93000000D02*
X123600000Y-88300000D01*
X135250000Y-86260000D02*
X135490000Y-86500000D01*
X135250000Y-84738000D02*
X135250000Y-86260000D01*
X128250000Y-88300000D02*
X133250000Y-83300000D01*
X133250000Y-83300000D02*
X134899500Y-83300000D01*
X135250000Y-83650500D02*
X135250000Y-84738000D01*
X123600000Y-88300000D02*
X128250000Y-88300000D01*
X134899500Y-83300000D02*
X135250000Y-83650500D01*
X118900000Y-100850000D02*
X118900000Y-93000000D01*
X118750000Y-101000000D02*
X118900000Y-100850000D01*
%TO.N,M1_SO*%
X118250000Y-103000000D02*
X118250000Y-92650000D01*
X135200000Y-82600000D02*
X135750000Y-83150000D01*
X127900000Y-87700000D02*
X133000000Y-82600000D01*
X133000000Y-82600000D02*
X135200000Y-82600000D01*
X118250000Y-92650000D02*
X123200000Y-87700000D01*
X135750000Y-83150000D02*
X135750000Y-84738000D01*
X123200000Y-87700000D02*
X127900000Y-87700000D01*
%TO.N,M1_NSLEEP*%
X117600000Y-101600000D02*
X117600000Y-92250000D01*
X127650000Y-87000000D02*
X131262000Y-83388000D01*
X122850000Y-87000000D02*
X127650000Y-87000000D01*
X131262000Y-83388000D02*
X131262000Y-82750000D01*
X117000000Y-102200000D02*
X117600000Y-101600000D01*
X117600000Y-92250000D02*
X122850000Y-87000000D01*
X117000000Y-103750000D02*
X117000000Y-102200000D01*
%TO.N,M1_EN*%
X116250000Y-104250000D02*
X117000000Y-104250000D01*
X127350000Y-86300000D02*
X122600000Y-86300000D01*
X130100000Y-83550000D02*
X127350000Y-86300000D01*
X116900000Y-92000000D02*
X116900000Y-101200000D01*
X122600000Y-86300000D02*
X116900000Y-92000000D01*
X116900000Y-101200000D02*
X116100000Y-102000000D01*
X131262000Y-82250000D02*
X130350000Y-82250000D01*
X116100000Y-104100000D02*
X116250000Y-104250000D01*
X116100000Y-102000000D02*
X116100000Y-104100000D01*
X130100000Y-82500000D02*
X130100000Y-83550000D01*
X130350000Y-82250000D02*
X130100000Y-82500000D01*
%TO.N,M1_PH*%
X122300000Y-85600000D02*
X127100000Y-85600000D01*
X127100000Y-85600000D02*
X129500000Y-83200000D01*
X129500000Y-82300000D02*
X130050000Y-81750000D01*
X116042894Y-104750000D02*
X115300000Y-104007106D01*
X117000000Y-104750000D02*
X116042894Y-104750000D01*
X115300000Y-101800000D02*
X116200000Y-100900000D01*
X116200000Y-100900000D02*
X116200000Y-91700000D01*
X130050000Y-81750000D02*
X130901000Y-81750000D01*
X116200000Y-91700000D02*
X122300000Y-85600000D01*
X129500000Y-83200000D02*
X129500000Y-82300000D01*
X115300000Y-104007106D02*
X115300000Y-101800000D01*
%TO.N,/Motor Drivers/M3_GH2*%
X193390000Y-115907500D02*
X193390000Y-116010000D01*
X188300000Y-115110000D02*
X192592500Y-115110000D01*
X186000000Y-107810000D02*
X187900000Y-109710000D01*
X184250000Y-107460000D02*
X184600000Y-107810000D01*
X187900000Y-109710000D02*
X187900000Y-114710000D01*
X184250000Y-107010000D02*
X184250000Y-107460000D01*
X184600000Y-107810000D02*
X186000000Y-107810000D01*
X192592500Y-115110000D02*
X193390000Y-115907500D01*
X187900000Y-114710000D02*
X188300000Y-115110000D01*
%TO.N,/Motor Drivers/M3_GL2*%
X188850000Y-122150000D02*
X188850000Y-117745000D01*
X188850000Y-117745000D02*
X186700000Y-115595000D01*
X183250000Y-108360000D02*
X183250000Y-107000000D01*
X188460000Y-122540000D02*
X188850000Y-122150000D01*
X186700000Y-110310000D02*
X185400000Y-109010000D01*
X188000000Y-122540000D02*
X188460000Y-122540000D01*
X183900000Y-109010000D02*
X183250000Y-108360000D01*
X186700000Y-115595000D02*
X186700000Y-110310000D01*
X185400000Y-109010000D02*
X183900000Y-109010000D01*
%TO.N,/Motor Drivers/M3_GL1*%
X178000000Y-118470000D02*
X178000000Y-117980000D01*
X179000000Y-109710000D02*
X181710000Y-107000000D01*
X178000000Y-117980000D02*
X179000000Y-116980000D01*
X179000000Y-116980000D02*
X179000000Y-109710000D01*
%TO.N,/Motor Drivers/M3_GH1*%
X176420000Y-116000000D02*
X178000000Y-114420000D01*
X180200000Y-105910000D02*
X180360000Y-105750000D01*
X180200000Y-106810000D02*
X180200000Y-105910000D01*
X180990000Y-105750000D02*
X181000000Y-105760000D01*
X178000000Y-114420000D02*
X178000000Y-109010000D01*
X180360000Y-105750000D02*
X180990000Y-105750000D01*
X178000000Y-109010000D02*
X180200000Y-106810000D01*
%TO.N,/Motor Drivers/M1_GH2*%
X123890000Y-109700000D02*
X123890000Y-114700000D01*
X124290000Y-115100000D02*
X128605000Y-115100000D01*
X121990000Y-107800000D02*
X123890000Y-109700000D01*
X120240000Y-107450000D02*
X120590000Y-107800000D01*
X120240000Y-107000000D02*
X120240000Y-107450000D01*
X129380000Y-115875000D02*
X129380000Y-116000000D01*
X123890000Y-114700000D02*
X124290000Y-115100000D01*
X120590000Y-107800000D02*
X121990000Y-107800000D01*
X128605000Y-115100000D02*
X129380000Y-115875000D01*
%TO.N,M2_NFAULT*%
X151258722Y-101491278D02*
X151258722Y-98257504D01*
X151250000Y-103000000D02*
X151250000Y-101500000D01*
X154500000Y-93750000D02*
X151258722Y-96991278D01*
X153010000Y-98250000D02*
X151408530Y-98250000D01*
X151258722Y-96991278D02*
X151258722Y-98257504D01*
X153750000Y-82250000D02*
X154500000Y-83000000D01*
X151250000Y-101500000D02*
X151258722Y-101491278D01*
X152738000Y-82250000D02*
X153750000Y-82250000D01*
X151408530Y-98250000D02*
X151407803Y-98250727D01*
X154500000Y-83000000D02*
X154500000Y-93750000D01*
%TO.N,M2_SNSOUT*%
X152738000Y-82750000D02*
X152740000Y-82752000D01*
X149238722Y-99988722D02*
X150750000Y-101500000D01*
X149238722Y-96511278D02*
X149238722Y-99988722D01*
X152740000Y-87510000D02*
X151200000Y-89050000D01*
X150750000Y-101500000D02*
X150750000Y-103000000D01*
X151200000Y-94550000D02*
X149238722Y-96511278D01*
X152740000Y-82752000D02*
X152740000Y-87510000D01*
X151200000Y-89050000D02*
X151200000Y-94550000D01*
%TO.N,M2_SO*%
X150250000Y-102000000D02*
X150250000Y-103000000D01*
X144750000Y-95900000D02*
X144750000Y-96500000D01*
X137750000Y-84738000D02*
X137750000Y-88200000D01*
X144750000Y-96500000D02*
X150250000Y-102000000D01*
%TO.N,/Motor Drivers/M1_GL2*%
X124840000Y-117735000D02*
X122690000Y-115585000D01*
X119890000Y-109000000D02*
X119240000Y-108350000D01*
X124295000Y-122270000D02*
X124840000Y-121725000D01*
X122690000Y-110300000D02*
X121390000Y-109000000D01*
X121390000Y-109000000D02*
X119890000Y-109000000D01*
X123990000Y-122270000D02*
X124295000Y-122270000D01*
X119240000Y-108350000D02*
X119240000Y-107000000D01*
X124840000Y-121725000D02*
X124840000Y-117735000D01*
X122690000Y-115585000D02*
X122690000Y-110300000D01*
%TO.N,M2_NSLEEP*%
X148500000Y-85975500D02*
X148800000Y-85675500D01*
X148700000Y-103450000D02*
X148700000Y-101450000D01*
X148800000Y-84788000D02*
X148750000Y-84738000D01*
X148500000Y-86690000D02*
X148500000Y-85975500D01*
X148800000Y-85675500D02*
X148800000Y-84788000D01*
X143750000Y-96500000D02*
X143750000Y-91440000D01*
X149000000Y-103750000D02*
X148700000Y-103450000D01*
X148700000Y-101450000D02*
X143750000Y-96500000D01*
X143750000Y-91440000D02*
X148500000Y-86690000D01*
%TO.N,M2_EN*%
X146750000Y-87750000D02*
X146750000Y-84738000D01*
X149000000Y-104250000D02*
X148250000Y-104250000D01*
X148250000Y-104250000D02*
X148000000Y-104000000D01*
X148000000Y-104000000D02*
X148000000Y-101780000D01*
X141600000Y-91860000D02*
X142640000Y-91860000D01*
X142640000Y-91860000D02*
X146750000Y-87750000D01*
X141050000Y-94830000D02*
X141050000Y-92410000D01*
X141050000Y-92410000D02*
X141600000Y-91860000D01*
X148000000Y-101780000D02*
X141050000Y-94830000D01*
%TO.N,M2_PH*%
X144750000Y-84738000D02*
X144750000Y-85720000D01*
X141210000Y-91190000D02*
X140390000Y-92010000D01*
X144750000Y-85720000D02*
X144240000Y-86230000D01*
X140390000Y-95125000D02*
X147300000Y-102035000D01*
X147300000Y-102035000D02*
X147300000Y-104300000D01*
X142555000Y-91190000D02*
X141210000Y-91190000D01*
X147750000Y-104750000D02*
X149000000Y-104750000D01*
X140390000Y-92010000D02*
X140390000Y-95125000D01*
X147300000Y-104300000D02*
X147750000Y-104750000D01*
X144240000Y-89505000D02*
X142555000Y-91190000D01*
X144240000Y-86230000D02*
X144240000Y-89505000D01*
%TO.N,/Motor Drivers/M1_GL1*%
X117690000Y-107000000D02*
X117740000Y-107000000D01*
X113990000Y-118460000D02*
X114990000Y-117460000D01*
X114990000Y-117460000D02*
X114990000Y-109700000D01*
X114990000Y-109700000D02*
X117690000Y-107000000D01*
%TO.N,/Motor Drivers/M1_GH1*%
X116340000Y-105750000D02*
X116990000Y-105750000D01*
X116190000Y-106800000D02*
X116190000Y-105900000D01*
X112395000Y-116000000D02*
X113990000Y-114405000D01*
X113990000Y-114405000D02*
X113990000Y-109000000D01*
X116190000Y-105900000D02*
X116340000Y-105750000D01*
X113990000Y-109000000D02*
X116190000Y-106800000D01*
%TO.N,/Motor Drivers/M2_GH2*%
X152250000Y-107450000D02*
X152600000Y-107800000D01*
X152250000Y-107000000D02*
X152250000Y-107450000D01*
X155900000Y-114700000D02*
X156300000Y-115100000D01*
X154000000Y-107800000D02*
X155900000Y-109700000D01*
X160615000Y-115100000D02*
X161390000Y-115875000D01*
X155900000Y-109700000D02*
X155900000Y-114700000D01*
X152600000Y-107800000D02*
X154000000Y-107800000D01*
X161390000Y-115875000D02*
X161390000Y-116000000D01*
X156300000Y-115100000D02*
X160615000Y-115100000D01*
%TO.N,/Motor Drivers/M2_GL2*%
X156305000Y-122270000D02*
X156850000Y-121725000D01*
X156850000Y-117735000D02*
X154700000Y-115585000D01*
X156000000Y-122270000D02*
X156305000Y-122270000D01*
X154700000Y-115585000D02*
X154700000Y-110300000D01*
X151250000Y-108350000D02*
X151250000Y-107000000D01*
X153400000Y-109000000D02*
X151900000Y-109000000D01*
X154700000Y-110300000D02*
X153400000Y-109000000D01*
X156850000Y-121725000D02*
X156850000Y-117735000D01*
X151900000Y-109000000D02*
X151250000Y-108350000D01*
%TO.N,/Motor Drivers/M2_GL1*%
X147000000Y-117460000D02*
X147000000Y-109700000D01*
X146000000Y-118460000D02*
X147000000Y-117460000D01*
X147000000Y-109700000D02*
X149700000Y-107000000D01*
X149700000Y-107000000D02*
X149750000Y-107000000D01*
%TO.N,M3_NFAULT*%
X183250000Y-101450000D02*
X183250000Y-103000000D01*
X164700000Y-91700000D02*
X158800000Y-91700000D01*
X181550000Y-99750000D02*
X181400000Y-99600000D01*
X178200000Y-91700000D02*
X179250000Y-92750000D01*
X166800000Y-91700000D02*
X178200000Y-91700000D01*
X179250000Y-97450000D02*
X181400000Y-99600000D01*
X156975000Y-89875000D02*
X156975000Y-81000000D01*
X156975000Y-81000000D02*
X155725000Y-79750000D01*
X184952500Y-98060000D02*
X183940000Y-98060000D01*
X183940000Y-98060000D02*
X182250000Y-99750000D01*
X179250000Y-92750000D02*
X179250000Y-94500000D01*
X177500000Y-94010000D02*
X178760000Y-94010000D01*
X178760000Y-94010000D02*
X179250000Y-94500000D01*
X155725000Y-79750000D02*
X152738000Y-79750000D01*
X158800000Y-91700000D02*
X156975000Y-89875000D01*
X181400000Y-99600000D02*
X183250000Y-101450000D01*
X182250000Y-99750000D02*
X181550000Y-99750000D01*
X179250000Y-94500000D02*
X179250000Y-97450000D01*
%TO.N,M3_SNSOUT*%
X156500000Y-91400000D02*
X160200000Y-95100000D01*
X160200000Y-95100000D02*
X176000000Y-95100000D01*
X152738000Y-80250000D02*
X155226776Y-80250000D01*
X155226776Y-80250000D02*
X156500000Y-81523224D01*
X156500000Y-81523224D02*
X156500000Y-91400000D01*
X176500000Y-94010000D02*
X176500000Y-94600000D01*
X176500000Y-94600000D02*
X176000000Y-95100000D01*
X182750000Y-101850000D02*
X182750000Y-103000000D01*
X176000000Y-95100000D02*
X182750000Y-101850000D01*
%TO.N,M3_SO*%
X175650000Y-95700000D02*
X167800000Y-95700000D01*
X159800000Y-95700000D02*
X158100000Y-94000000D01*
X182250000Y-102300000D02*
X175650000Y-95700000D01*
X139250000Y-88200000D02*
X139250000Y-84738000D01*
X182250000Y-103000000D02*
X182250000Y-102300000D01*
X167800000Y-95700000D02*
X159800000Y-95700000D01*
%TO.N,/Motor Drivers/M2_GH1*%
X148200000Y-106800000D02*
X148200000Y-105900000D01*
X144405000Y-116000000D02*
X146000000Y-114405000D01*
X146000000Y-114405000D02*
X146000000Y-109000000D01*
X148200000Y-105900000D02*
X148350000Y-105750000D01*
X146000000Y-109000000D02*
X148200000Y-106800000D01*
X148350000Y-105750000D02*
X149000000Y-105750000D01*
%TO.N,M3_NSLEEP*%
X180550000Y-103750000D02*
X173100000Y-96300000D01*
X154750000Y-80750000D02*
X152738000Y-80750000D01*
X181000000Y-103750000D02*
X180550000Y-103750000D01*
X156000000Y-92900000D02*
X156000000Y-82000000D01*
X156000000Y-82000000D02*
X154750000Y-80750000D01*
X173100000Y-96300000D02*
X159400000Y-96300000D01*
X159400000Y-96300000D02*
X156000000Y-92900000D01*
%TO.N,M3_EN*%
X155500000Y-93300000D02*
X155500000Y-82400000D01*
X155500000Y-82400000D02*
X154350000Y-81250000D01*
X181000000Y-104250000D02*
X180050000Y-104250000D01*
X159100000Y-96900000D02*
X155500000Y-93300000D01*
X154350000Y-81250000D02*
X152738000Y-81250000D01*
X172700000Y-96900000D02*
X159100000Y-96900000D01*
X180050000Y-104250000D02*
X172700000Y-96900000D01*
%TO.N,M3_PH*%
X158800000Y-97500000D02*
X155000000Y-93700000D01*
X155000000Y-82750000D02*
X154000000Y-81750000D01*
X179550000Y-104750000D02*
X172300000Y-97500000D01*
X172300000Y-97500000D02*
X158800000Y-97500000D01*
X154000000Y-81750000D02*
X152738000Y-81750000D01*
X155000000Y-93700000D02*
X155000000Y-82750000D01*
X181000000Y-104750000D02*
X179550000Y-104750000D01*
D69*
%TO.N,VIN*%
X173600000Y-67100000D02*
X173170000Y-66670000D01*
X173988000Y-67100000D02*
X173600000Y-67100000D01*
X183670000Y-66580000D02*
X183670000Y-65350000D01*
X173170000Y-66670000D02*
X173170000Y-65350000D01*
X172312000Y-66600000D02*
X173100000Y-66600000D01*
X173100000Y-66600000D02*
X173170000Y-66670000D01*
X183670000Y-66869500D02*
X183670000Y-66580000D01*
X182812000Y-66600000D02*
X182170000Y-66600000D01*
X182812000Y-66600000D02*
X183650000Y-66600000D01*
X183650000Y-66600000D02*
X183670000Y-66580000D01*
X184488000Y-67100000D02*
X183900500Y-67100000D01*
X172312000Y-66600000D02*
X171850000Y-66600000D01*
X183900500Y-67100000D02*
X183670000Y-66869500D01*
X171850000Y-66600000D02*
X171750000Y-66500000D01*
%TO.N,/Microcontroller/LEDR_K*%
X107212500Y-73822500D02*
X107490000Y-74100000D01*
X107212500Y-72850000D02*
X107212500Y-73822500D01*
D71*
%TO.N,LEDR*%
X120500000Y-71250000D02*
X131262000Y-71250000D01*
X111387500Y-70250000D02*
X119500000Y-70250000D01*
X119500000Y-70250000D02*
X120500000Y-71250000D01*
X108787500Y-72850000D02*
X111387500Y-70250000D01*
D69*
%TO.N,/Microcontroller/LEDG_K*%
X107212500Y-70822500D02*
X107490000Y-71100000D01*
X107212500Y-69850000D02*
X107212500Y-70822500D01*
D71*
%TO.N,LEDG*%
X120750000Y-70750000D02*
X131262000Y-70750000D01*
X108787500Y-69850000D02*
X108887500Y-69750000D01*
X108887500Y-69750000D02*
X119750000Y-69750000D01*
X119750000Y-69750000D02*
X120750000Y-70750000D01*
D69*
%TO.N,/Microcontroller/LEDB_K*%
X107212500Y-76822500D02*
X107490000Y-77100000D01*
X107212500Y-75850000D02*
X107212500Y-76822500D01*
D71*
%TO.N,LEDB*%
X131262000Y-71750000D02*
X120250000Y-71750000D01*
X114000000Y-74750000D02*
X112900000Y-75850000D01*
X119250000Y-70750000D02*
X115250000Y-70750000D01*
X115250000Y-70750000D02*
X114000000Y-72000000D01*
X114000000Y-72000000D02*
X114000000Y-74750000D01*
X112900000Y-75850000D02*
X108787500Y-75850000D01*
X120250000Y-71750000D02*
X119250000Y-70750000D01*
%TO.N,BTN*%
X116450000Y-73280000D02*
X115875000Y-72705000D01*
D69*
X118050000Y-73280000D02*
X118050000Y-74300000D01*
D71*
X118050000Y-73280000D02*
X116450000Y-73280000D01*
X126022463Y-73280000D02*
X126992463Y-74250000D01*
X118050000Y-73280000D02*
X126022463Y-73280000D01*
X126992463Y-74250000D02*
X131262000Y-74250000D01*
D69*
%TO.N,/Microcontroller/VDDA*%
X126454000Y-80232035D02*
X126454000Y-80885000D01*
X127499000Y-81930000D02*
X127659000Y-81930000D01*
X127586035Y-79100000D02*
X126454000Y-80232035D01*
X130901000Y-81250000D02*
X129401965Y-81250000D01*
X127659000Y-81930000D02*
X128659000Y-81930000D01*
X128721965Y-81930000D02*
X128659000Y-81930000D01*
X127659000Y-79100000D02*
X127586035Y-79100000D01*
X126454000Y-80885000D02*
X127499000Y-81930000D01*
X129401965Y-81250000D02*
X128721965Y-81930000D01*
D71*
%TO.N,SCL4*%
X132100000Y-89000000D02*
X128000000Y-93100000D01*
X141750000Y-88293173D02*
X141043173Y-89000000D01*
X128000000Y-93100000D02*
X128000000Y-93500000D01*
X141043173Y-89000000D02*
X132100000Y-89000000D01*
X141750000Y-84738000D02*
X141750000Y-88293173D01*
%TO.N,SDA4*%
X132400000Y-89700000D02*
X129300000Y-92800000D01*
X142250000Y-88750000D02*
X141300000Y-89700000D01*
X129300000Y-92800000D02*
X129300000Y-94200000D01*
X141300000Y-89700000D02*
X132400000Y-89700000D01*
X129300000Y-94200000D02*
X128600000Y-94900000D01*
X126900000Y-94900000D02*
X125500000Y-93500000D01*
X142250000Y-84738000D02*
X142250000Y-88750000D01*
X128600000Y-94900000D02*
X126900000Y-94900000D01*
%TD*%
%TA.AperFunction,Conductor*%
%TO.N,VMOT*%
G36*
X197996091Y-103509439D02*
G01*
X198036319Y-103536319D01*
X198463681Y-103963681D01*
X198490561Y-104003909D01*
X198500000Y-104051362D01*
X198500000Y-114448638D01*
X198490561Y-114496091D01*
X198463681Y-114536319D01*
X198036319Y-114963681D01*
X197996091Y-114990561D01*
X197948638Y-115000000D01*
X193100255Y-115000000D01*
X193052802Y-114990561D01*
X193012575Y-114963682D01*
X192853409Y-114804516D01*
X192853408Y-114804515D01*
X192847183Y-114798290D01*
X192847175Y-114798283D01*
X192830842Y-114781950D01*
X192830841Y-114781949D01*
X192830839Y-114781947D01*
X192811099Y-114771889D01*
X192794514Y-114761726D01*
X192776590Y-114748704D01*
X192755520Y-114741858D01*
X192737544Y-114734412D01*
X192717802Y-114724353D01*
X192695918Y-114720886D01*
X192677007Y-114716346D01*
X192655935Y-114709500D01*
X192655933Y-114709500D01*
X192624019Y-114709500D01*
X188760862Y-114709500D01*
X188713409Y-114700061D01*
X188673181Y-114673181D01*
X188536319Y-114536319D01*
X188509439Y-114496091D01*
X188500000Y-114448638D01*
X188500000Y-109051362D01*
X188509439Y-109003909D01*
X188536319Y-108963681D01*
X188536318Y-108963681D01*
X189500000Y-108000000D01*
X189500000Y-104051362D01*
X189509439Y-104003909D01*
X189536319Y-103963681D01*
X189963681Y-103536319D01*
X190003909Y-103509439D01*
X190051362Y-103500000D01*
X197948638Y-103500000D01*
X197996091Y-103509439D01*
G37*
%TD.AperFunction*%
%TD*%
%TA.AperFunction,Conductor*%
%TO.N,/Motor Drivers/M1_OUT_B*%
G36*
X111682500Y-115516613D02*
G01*
X111727887Y-115562000D01*
X111744500Y-115624000D01*
X111744500Y-116544867D01*
X111747414Y-116569988D01*
X111792795Y-116672767D01*
X111872232Y-116752204D01*
X111872233Y-116752204D01*
X111872235Y-116752206D01*
X111975009Y-116797585D01*
X112000135Y-116800500D01*
X112839864Y-116800499D01*
X112839867Y-116800499D01*
X112852427Y-116799041D01*
X112864991Y-116797585D01*
X112967765Y-116752206D01*
X113047206Y-116672765D01*
X113092585Y-116569991D01*
X113095500Y-116544865D01*
X113095499Y-115917253D01*
X113104938Y-115869801D01*
X113131813Y-115829578D01*
X113288321Y-115673070D01*
X113337682Y-115642823D01*
X113395398Y-115638281D01*
X113448885Y-115660436D01*
X113486485Y-115704459D01*
X113500000Y-115760754D01*
X113500000Y-117675713D01*
X113490923Y-117722282D01*
X113465021Y-117762034D01*
X113426086Y-117789146D01*
X113395768Y-117802533D01*
X113327233Y-117832794D01*
X113247795Y-117912232D01*
X113209042Y-118000000D01*
X104000000Y-118000000D01*
X103500000Y-118500000D01*
X103500000Y-116051362D01*
X103509439Y-116003909D01*
X103536319Y-115963681D01*
X103963681Y-115536319D01*
X104003909Y-115509439D01*
X104051362Y-115500000D01*
X111620500Y-115500000D01*
X111682500Y-115516613D01*
G37*
%TD.AperFunction*%
%TD*%
%TA.AperFunction,Conductor*%
%TO.N,VIN*%
G36*
X189996591Y-60009939D02*
G01*
X190036819Y-60036819D01*
X190963681Y-60963681D01*
X190990561Y-61003909D01*
X191000000Y-61051362D01*
X191000000Y-66852245D01*
X190990561Y-66899698D01*
X190963681Y-66939926D01*
X190840426Y-67063181D01*
X190800198Y-67090061D01*
X190752745Y-67099500D01*
X190688434Y-67099500D01*
X190652440Y-67094161D01*
X190619545Y-67078603D01*
X190597740Y-67064034D01*
X190524675Y-67049500D01*
X190524674Y-67049500D01*
X189975326Y-67049500D01*
X189975324Y-67049500D01*
X189902260Y-67064033D01*
X189868481Y-67086603D01*
X189835586Y-67102161D01*
X189799592Y-67107500D01*
X189492500Y-67107500D01*
X189492500Y-67518500D01*
X189475887Y-67580500D01*
X189430500Y-67625887D01*
X189368500Y-67642500D01*
X188990000Y-67642500D01*
X188969319Y-67663181D01*
X188929091Y-67690061D01*
X188881638Y-67699500D01*
X188165678Y-67699500D01*
X188160601Y-67700000D01*
X187950000Y-67700000D01*
X187941819Y-67708181D01*
X187901591Y-67735061D01*
X187854138Y-67744500D01*
X187804500Y-67744500D01*
X187742500Y-67727887D01*
X187697113Y-67682500D01*
X187680500Y-67620500D01*
X187680500Y-67319207D01*
X187682492Y-67300000D01*
X187950000Y-67300000D01*
X188250000Y-67300000D01*
X188250000Y-67050000D01*
X188650000Y-67050000D01*
X188650000Y-67300000D01*
X188881138Y-67300000D01*
X188928591Y-67309439D01*
X188968819Y-67336319D01*
X188990000Y-67357500D01*
X189207500Y-67357500D01*
X189207500Y-67107500D01*
X188899506Y-67107500D01*
X188863510Y-67102161D01*
X188830615Y-67086602D01*
X188797544Y-67064504D01*
X188724625Y-67050000D01*
X188650000Y-67050000D01*
X188250000Y-67050000D01*
X188175375Y-67050000D01*
X188102456Y-67064504D01*
X188019760Y-67119760D01*
X187964504Y-67202456D01*
X187950000Y-67275375D01*
X187950000Y-67300000D01*
X187682492Y-67300000D01*
X187683139Y-67293761D01*
X187684032Y-67289500D01*
X187685042Y-67284685D01*
X187681452Y-67255884D01*
X187680540Y-67241205D01*
X187680500Y-67240965D01*
X187680500Y-67240960D01*
X187677331Y-67221972D01*
X187676594Y-67216915D01*
X187676235Y-67214034D01*
X187670573Y-67168607D01*
X187670572Y-67168605D01*
X187669648Y-67161191D01*
X187666092Y-67154620D01*
X187666092Y-67154619D01*
X187642925Y-67111811D01*
X187640581Y-67107256D01*
X187615918Y-67056805D01*
X187608526Y-67050000D01*
X187574587Y-67018757D01*
X187570914Y-67015232D01*
X187216819Y-66661137D01*
X187189939Y-66620909D01*
X187180500Y-66573456D01*
X187180500Y-66378415D01*
X187169582Y-66303481D01*
X187113077Y-66187898D01*
X187036319Y-66111140D01*
X187009439Y-66070912D01*
X187000000Y-66023459D01*
X187000000Y-65946540D01*
X187009439Y-65899087D01*
X187036319Y-65858858D01*
X187042100Y-65853076D01*
X187042102Y-65853076D01*
X187133076Y-65762102D01*
X187133076Y-65762100D01*
X187133078Y-65762099D01*
X187189582Y-65646518D01*
X187200500Y-65571585D01*
X187200500Y-65128415D01*
X187189582Y-65053481D01*
X187133078Y-64937900D01*
X187088949Y-64893771D01*
X187042102Y-64846924D01*
X187042100Y-64846923D01*
X187036319Y-64841142D01*
X187009439Y-64800913D01*
X187000000Y-64753460D01*
X187000000Y-64750000D01*
X186285619Y-64750000D01*
X186232102Y-64737857D01*
X186189067Y-64703806D01*
X186164942Y-64654516D01*
X186164470Y-64601637D01*
X186164358Y-64600075D01*
X186164359Y-64600073D01*
X186162129Y-64568898D01*
X186173019Y-64508540D01*
X186211504Y-64460784D01*
X186239688Y-64439686D01*
X186259176Y-64413653D01*
X186321628Y-64330226D01*
X186351551Y-64250000D01*
X188700000Y-64250000D01*
X188700000Y-64647824D01*
X188706402Y-64707375D01*
X188756647Y-64842089D01*
X188842811Y-64957188D01*
X188957910Y-65043352D01*
X189092624Y-65093597D01*
X189152176Y-65100000D01*
X189350000Y-65100000D01*
X189350000Y-64250000D01*
X189850000Y-64250000D01*
X189850000Y-65100000D01*
X190047824Y-65100000D01*
X190107375Y-65093597D01*
X190242089Y-65043352D01*
X190357188Y-64957188D01*
X190443352Y-64842089D01*
X190493597Y-64707375D01*
X190500000Y-64647824D01*
X190500000Y-64250000D01*
X189850000Y-64250000D01*
X189350000Y-64250000D01*
X188700000Y-64250000D01*
X186351551Y-64250000D01*
X186369412Y-64202114D01*
X186375500Y-64145485D01*
X186375499Y-63750000D01*
X188700000Y-63750000D01*
X189350000Y-63750000D01*
X189350000Y-62900000D01*
X189850000Y-62900000D01*
X189850000Y-63750000D01*
X190500000Y-63750000D01*
X190500000Y-63352176D01*
X190493597Y-63292624D01*
X190443352Y-63157910D01*
X190357188Y-63042811D01*
X190242089Y-62956647D01*
X190107375Y-62906402D01*
X190047824Y-62900000D01*
X189850000Y-62900000D01*
X189350000Y-62900000D01*
X189152176Y-62900000D01*
X189092624Y-62906402D01*
X188957910Y-62956647D01*
X188842811Y-63042811D01*
X188756647Y-63157910D01*
X188706402Y-63292624D01*
X188700000Y-63352176D01*
X188700000Y-63750000D01*
X186375499Y-63750000D01*
X186375499Y-63554516D01*
X186369412Y-63497886D01*
X186362816Y-63480202D01*
X186321628Y-63369774D01*
X186239687Y-63260312D01*
X186130226Y-63178372D01*
X186002116Y-63130588D01*
X185983237Y-63128558D01*
X185945485Y-63124500D01*
X185945481Y-63124500D01*
X185404517Y-63124500D01*
X185347882Y-63130588D01*
X185219774Y-63178371D01*
X185157129Y-63225267D01*
X185121978Y-63243654D01*
X185082819Y-63250000D01*
X184725335Y-63250000D01*
X184725335Y-63248568D01*
X184704085Y-63251428D01*
X184645238Y-63227663D01*
X184579986Y-63178816D01*
X184452007Y-63131082D01*
X184395433Y-63125000D01*
X184375000Y-63125000D01*
X184375000Y-63625000D01*
X184000000Y-64000000D01*
X184000000Y-64100000D01*
X183425001Y-64100000D01*
X183425001Y-64145433D01*
X183431082Y-64202006D01*
X183478816Y-64329986D01*
X183560669Y-64439330D01*
X183670013Y-64521183D01*
X183797992Y-64568917D01*
X183861171Y-64575710D01*
X183860963Y-64577642D01*
X183908348Y-64589413D01*
X183952883Y-64629303D01*
X183973575Y-64685395D01*
X183965615Y-64744649D01*
X183930853Y-64793292D01*
X183920000Y-64802561D01*
X183920000Y-65897438D01*
X183951034Y-65923945D01*
X183983110Y-65966320D01*
X183994500Y-66018233D01*
X183994500Y-66075501D01*
X183998939Y-66109218D01*
X184000000Y-66125403D01*
X184000000Y-66876000D01*
X183983387Y-66938000D01*
X183938000Y-66983387D01*
X183876000Y-67000000D01*
X183587044Y-67000000D01*
X183539591Y-66990561D01*
X183499363Y-66963681D01*
X183422638Y-66886956D01*
X183406509Y-66867094D01*
X183401437Y-66859330D01*
X183378533Y-66841504D01*
X183367508Y-66831768D01*
X183351653Y-66820448D01*
X183347643Y-66817462D01*
X183347437Y-66817302D01*
X183312127Y-66773888D01*
X183308732Y-66759232D01*
X183299500Y-66750000D01*
X183238682Y-66750000D01*
X183202687Y-66744661D01*
X183169793Y-66729103D01*
X183147240Y-66714034D01*
X183074175Y-66699500D01*
X183074174Y-66699500D01*
X182843519Y-66699500D01*
X182139871Y-66699500D01*
X182087149Y-66687733D01*
X182044432Y-66654667D01*
X182019828Y-66606576D01*
X182018860Y-66602837D01*
X182002603Y-66558250D01*
X181952145Y-66474489D01*
X181952144Y-66474488D01*
X181952143Y-66474486D01*
X181930020Y-66450000D01*
X182324500Y-66450000D01*
X182662000Y-66450000D01*
X182662000Y-66200000D01*
X182962000Y-66200000D01*
X182962000Y-66450000D01*
X183299500Y-66450000D01*
X183299500Y-66425375D01*
X183284995Y-66352456D01*
X183229739Y-66269760D01*
X183147043Y-66214504D01*
X183074125Y-66200000D01*
X182962000Y-66200000D01*
X182662000Y-66200000D01*
X182549875Y-66200000D01*
X182476956Y-66214504D01*
X182394260Y-66269760D01*
X182339004Y-66352456D01*
X182324500Y-66425375D01*
X182324500Y-66450000D01*
X181930020Y-66450000D01*
X181920328Y-66439273D01*
X181905046Y-66425325D01*
X181884047Y-66406159D01*
X181513154Y-66127991D01*
X181436365Y-66070399D01*
X181422923Y-66061914D01*
X181401643Y-66048481D01*
X181366460Y-66030047D01*
X181288802Y-66004161D01*
X181249593Y-65997799D01*
X181203693Y-65994099D01*
X181203773Y-65993106D01*
X181149807Y-65979332D01*
X181104918Y-65937539D01*
X181085550Y-65879346D01*
X181096440Y-65818988D01*
X181134924Y-65771233D01*
X181241472Y-65691472D01*
X181259833Y-65666944D01*
X181309947Y-65600000D01*
X183147810Y-65600000D01*
X183154464Y-65642018D01*
X183210551Y-65752093D01*
X183297906Y-65839448D01*
X183407979Y-65895534D01*
X183419999Y-65897438D01*
X183420000Y-65897439D01*
X183420000Y-65600000D01*
X183147810Y-65600000D01*
X181309947Y-65600000D01*
X181322336Y-65583450D01*
X181369491Y-65457022D01*
X181375500Y-65401130D01*
X181375500Y-65100000D01*
X183147810Y-65100000D01*
X183420000Y-65100000D01*
X183420000Y-64802561D01*
X183407982Y-64804464D01*
X183297905Y-64860552D01*
X183210551Y-64947906D01*
X183154464Y-65057981D01*
X183147810Y-65100000D01*
X181375500Y-65100000D01*
X181375500Y-64798870D01*
X181369491Y-64742978D01*
X181322336Y-64616550D01*
X181318733Y-64611737D01*
X181241473Y-64508529D01*
X181241470Y-64508527D01*
X181220256Y-64492646D01*
X181191648Y-64471230D01*
X181155742Y-64428781D01*
X181141994Y-64374910D01*
X181148537Y-64343011D01*
X181148394Y-64342991D01*
X181161763Y-64250000D01*
X181170390Y-64190000D01*
X181150931Y-64054658D01*
X181143323Y-64038000D01*
X181094130Y-63930282D01*
X181004587Y-63826943D01*
X180889562Y-63753022D01*
X180758367Y-63714500D01*
X180621633Y-63714500D01*
X180490437Y-63753022D01*
X180375412Y-63826943D01*
X180285869Y-63930282D01*
X180229068Y-64054657D01*
X180209610Y-64190000D01*
X180231606Y-64342989D01*
X180230780Y-64343107D01*
X180236732Y-64372121D01*
X180222984Y-64425991D01*
X180187078Y-64468439D01*
X180133528Y-64508526D01*
X180052665Y-64616547D01*
X180016182Y-64714362D01*
X179982532Y-64763572D01*
X179929807Y-64791392D01*
X179870193Y-64791392D01*
X179817468Y-64763572D01*
X179783818Y-64714362D01*
X179767062Y-64669439D01*
X179747336Y-64616550D01*
X179743733Y-64611737D01*
X179666472Y-64508527D01*
X179558452Y-64427665D01*
X179558450Y-64427664D01*
X179432022Y-64380509D01*
X179376130Y-64374500D01*
X178848870Y-64374500D01*
X178806951Y-64379006D01*
X178792977Y-64380509D01*
X178666547Y-64427665D01*
X178558527Y-64508527D01*
X178477665Y-64616547D01*
X178435833Y-64728705D01*
X178430509Y-64742978D01*
X178425978Y-64785128D01*
X178424500Y-64798873D01*
X178424500Y-65170246D01*
X178415061Y-65217699D01*
X178388181Y-65257927D01*
X177644516Y-66001591D01*
X177644512Y-66001595D01*
X177621949Y-66024157D01*
X177611892Y-66043896D01*
X177601732Y-66060476D01*
X177588704Y-66078410D01*
X177588702Y-66078413D01*
X177581854Y-66099487D01*
X177574412Y-66117454D01*
X177564353Y-66137197D01*
X177560886Y-66159082D01*
X177556347Y-66177991D01*
X177549500Y-66199067D01*
X177549500Y-66876000D01*
X177532887Y-66938000D01*
X177487500Y-66983387D01*
X177425500Y-67000000D01*
X177104217Y-67000000D01*
X177038556Y-66981189D01*
X177015907Y-66956071D01*
X177013831Y-66958148D01*
X177006724Y-66951041D01*
X176996526Y-66937365D01*
X176990418Y-66931742D01*
X176954587Y-66898757D01*
X176950914Y-66895232D01*
X176716819Y-66661137D01*
X176689939Y-66620909D01*
X176680500Y-66573456D01*
X176680500Y-66378415D01*
X176669582Y-66303481D01*
X176613077Y-66187898D01*
X176522102Y-66096923D01*
X176510575Y-66091288D01*
X176459847Y-66045549D01*
X176441036Y-65979886D01*
X176459849Y-65914225D01*
X176510574Y-65868488D01*
X176542102Y-65853076D01*
X176633076Y-65762102D01*
X176633076Y-65762101D01*
X176633077Y-65762101D01*
X176689582Y-65646518D01*
X176700500Y-65571585D01*
X176700500Y-65128415D01*
X176689582Y-65053481D01*
X176633077Y-64937898D01*
X176542101Y-64846922D01*
X176426518Y-64790417D01*
X176351585Y-64779500D01*
X176351582Y-64779500D01*
X176008418Y-64779500D01*
X176008415Y-64779500D01*
X175933484Y-64790417D01*
X175838960Y-64836627D01*
X175778095Y-64849060D01*
X175718838Y-64830414D01*
X175676061Y-64785367D01*
X175660500Y-64725226D01*
X175660500Y-64631144D01*
X175663334Y-64604786D01*
X175663604Y-64603539D01*
X175664359Y-64600073D01*
X175662129Y-64568898D01*
X175673019Y-64508540D01*
X175711504Y-64460784D01*
X175739688Y-64439686D01*
X175759176Y-64413653D01*
X175821628Y-64330226D01*
X175869412Y-64202114D01*
X175875500Y-64145485D01*
X175875499Y-63600000D01*
X183425000Y-63600000D01*
X183875000Y-63600000D01*
X183875000Y-63125001D01*
X183854567Y-63125001D01*
X183797993Y-63131082D01*
X183670013Y-63178816D01*
X183560669Y-63260669D01*
X183478816Y-63370013D01*
X183431082Y-63497992D01*
X183425000Y-63554567D01*
X183425000Y-63600000D01*
X175875499Y-63600000D01*
X175875499Y-63554516D01*
X175869412Y-63497886D01*
X175862816Y-63480202D01*
X175821628Y-63369774D01*
X175739687Y-63260312D01*
X175630226Y-63178372D01*
X175502116Y-63130588D01*
X175483237Y-63128558D01*
X175445485Y-63124500D01*
X175445481Y-63124500D01*
X174904517Y-63124500D01*
X174847882Y-63130588D01*
X174719774Y-63178371D01*
X174610312Y-63260312D01*
X174528371Y-63369773D01*
X174515914Y-63403173D01*
X174482264Y-63452383D01*
X174429539Y-63480202D01*
X174369925Y-63480202D01*
X174317200Y-63452382D01*
X174283551Y-63403172D01*
X174271183Y-63370013D01*
X174189330Y-63260669D01*
X174079986Y-63178816D01*
X173952007Y-63131082D01*
X173895433Y-63125000D01*
X173875000Y-63125000D01*
X173875000Y-63976000D01*
X173858387Y-64038000D01*
X173813000Y-64083387D01*
X173751000Y-64100000D01*
X172925001Y-64100000D01*
X172925001Y-64145433D01*
X172931082Y-64202006D01*
X172978816Y-64329986D01*
X173060669Y-64439330D01*
X173170013Y-64521183D01*
X173297992Y-64568917D01*
X173361171Y-64575710D01*
X173360962Y-64577650D01*
X173408310Y-64589393D01*
X173452864Y-64629275D01*
X173473572Y-64685372D01*
X173465619Y-64744637D01*
X173430854Y-64793290D01*
X173420000Y-64802560D01*
X173420000Y-65897438D01*
X173451034Y-65923945D01*
X173483110Y-65966320D01*
X173494500Y-66018233D01*
X173494500Y-66022035D01*
X173494500Y-66075500D01*
X173502622Y-66137196D01*
X173503206Y-66141628D01*
X173519820Y-66203633D01*
X173530437Y-66229265D01*
X173539279Y-66288869D01*
X173518981Y-66345604D01*
X173514534Y-66352259D01*
X173500000Y-66425325D01*
X173500000Y-66774676D01*
X173510426Y-66827091D01*
X173510422Y-66875493D01*
X173509944Y-66877894D01*
X173480199Y-66936968D01*
X173424317Y-66972347D01*
X173358197Y-66973966D01*
X173300650Y-66941364D01*
X173246242Y-66886956D01*
X173230113Y-66867094D01*
X173225041Y-66859330D01*
X173202137Y-66841504D01*
X173191112Y-66831768D01*
X173175257Y-66820448D01*
X173171148Y-66817384D01*
X173126833Y-66782892D01*
X173073013Y-66766869D01*
X173068135Y-66765306D01*
X173015025Y-66747074D01*
X172958936Y-66749394D01*
X172953812Y-66749500D01*
X172737934Y-66749500D01*
X172701940Y-66744161D01*
X172669045Y-66728603D01*
X172647240Y-66714034D01*
X172574175Y-66699500D01*
X172574174Y-66699500D01*
X172343519Y-66699500D01*
X172286000Y-66699500D01*
X172224000Y-66682887D01*
X172178613Y-66637500D01*
X172162000Y-66575500D01*
X172162000Y-66200000D01*
X172462000Y-66200000D01*
X172462000Y-66450000D01*
X172799500Y-66450000D01*
X172799500Y-66425375D01*
X172784995Y-66352456D01*
X172729739Y-66269760D01*
X172647043Y-66214504D01*
X172574125Y-66200000D01*
X172462000Y-66200000D01*
X172162000Y-66200000D01*
X172049875Y-66200000D01*
X171976956Y-66214504D01*
X171894260Y-66269760D01*
X171839004Y-66352456D01*
X171824500Y-66425375D01*
X171824500Y-66469045D01*
X171810043Y-66527152D01*
X171770042Y-66571709D01*
X171713826Y-66592327D01*
X171654502Y-66584198D01*
X171605906Y-66549219D01*
X171585601Y-66525262D01*
X171559685Y-66498950D01*
X171530955Y-66473841D01*
X171368847Y-66352260D01*
X171309547Y-66307785D01*
X171296266Y-66296266D01*
X170796042Y-65796042D01*
X170765611Y-65746117D01*
X170761440Y-65687798D01*
X170784454Y-65634054D01*
X170809947Y-65600000D01*
X172647810Y-65600000D01*
X172654464Y-65642018D01*
X172710551Y-65752093D01*
X172797906Y-65839448D01*
X172907979Y-65895534D01*
X172919999Y-65897438D01*
X172920000Y-65897439D01*
X172920000Y-65600000D01*
X172647810Y-65600000D01*
X170809947Y-65600000D01*
X170822336Y-65583450D01*
X170869491Y-65457022D01*
X170875500Y-65401130D01*
X170875500Y-65100000D01*
X172647810Y-65100000D01*
X172920000Y-65100000D01*
X172920000Y-64802561D01*
X172907982Y-64804464D01*
X172797905Y-64860552D01*
X172710551Y-64947906D01*
X172654464Y-65057981D01*
X172647810Y-65100000D01*
X170875500Y-65100000D01*
X170875500Y-64798870D01*
X170869491Y-64742978D01*
X170822336Y-64616550D01*
X170818733Y-64611737D01*
X170741472Y-64508527D01*
X170689419Y-64469561D01*
X170653511Y-64427110D01*
X170639764Y-64373235D01*
X170644611Y-64349613D01*
X170642515Y-64349312D01*
X170656793Y-64250000D01*
X170664511Y-64196321D01*
X170645052Y-64060979D01*
X170642165Y-64054658D01*
X170588251Y-63936603D01*
X170498708Y-63833264D01*
X170383683Y-63759343D01*
X170252488Y-63720821D01*
X170115754Y-63720821D01*
X169984558Y-63759343D01*
X169869533Y-63833264D01*
X169779990Y-63936603D01*
X169723189Y-64060978D01*
X169703731Y-64196320D01*
X169725727Y-64349310D01*
X169724551Y-64349479D01*
X169730199Y-64377021D01*
X169716448Y-64430887D01*
X169680544Y-64473331D01*
X169648056Y-64497651D01*
X169594309Y-64520667D01*
X169535990Y-64516496D01*
X169523114Y-64508648D01*
X169522787Y-64509439D01*
X169500000Y-64500000D01*
X169499999Y-64500000D01*
X169196351Y-64500000D01*
X169157192Y-64493654D01*
X169122041Y-64475267D01*
X169058452Y-64427665D01*
X169058450Y-64427664D01*
X168932022Y-64380509D01*
X168876130Y-64374500D01*
X168348870Y-64374500D01*
X168306951Y-64379006D01*
X168292977Y-64380509D01*
X168166547Y-64427665D01*
X168102959Y-64475267D01*
X168067808Y-64493654D01*
X168028649Y-64500000D01*
X168000000Y-64500000D01*
X168000000Y-64545442D01*
X167993654Y-64584601D01*
X167979459Y-64611737D01*
X167935833Y-64728705D01*
X167930509Y-64742978D01*
X167925978Y-64785128D01*
X167924500Y-64798873D01*
X167924500Y-65170245D01*
X167915061Y-65217698D01*
X167888181Y-65257926D01*
X167194512Y-65951595D01*
X167171949Y-65974157D01*
X167161892Y-65993896D01*
X167151732Y-66010476D01*
X167142301Y-66023459D01*
X167138702Y-66028413D01*
X167131854Y-66049487D01*
X167124412Y-66067454D01*
X167114353Y-66087197D01*
X167110886Y-66109082D01*
X167106347Y-66127991D01*
X167099500Y-66149067D01*
X167099500Y-68322745D01*
X167090061Y-68370198D01*
X167063181Y-68410426D01*
X166090426Y-69383181D01*
X166050198Y-69410061D01*
X166002745Y-69419500D01*
X165878415Y-69419500D01*
X165803481Y-69430417D01*
X165686922Y-69487400D01*
X165632462Y-69500000D01*
X164952869Y-69500000D01*
X164901305Y-69488770D01*
X164882937Y-69475000D01*
X164299000Y-69475000D01*
X164237000Y-69458387D01*
X164191613Y-69413000D01*
X164175000Y-69351000D01*
X164175000Y-68713998D01*
X164625000Y-68713998D01*
X164625000Y-69025000D01*
X164874546Y-69025000D01*
X164864733Y-68957636D01*
X164811598Y-68848945D01*
X164726052Y-68763399D01*
X164625000Y-68713998D01*
X164175000Y-68713998D01*
X164173811Y-68713256D01*
X164117595Y-68724740D01*
X164058338Y-68706094D01*
X164015561Y-68661047D01*
X164000000Y-68600906D01*
X164000000Y-68427256D01*
X164015162Y-68367840D01*
X164056939Y-68322954D01*
X164060049Y-68320953D01*
X164060053Y-68320953D01*
X164061769Y-68319849D01*
X164085491Y-68307973D01*
X164091331Y-68305796D01*
X164134488Y-68273487D01*
X164141699Y-68268481D01*
X164181128Y-68243143D01*
X164213640Y-68205620D01*
X164219674Y-68199140D01*
X164229219Y-68189595D01*
X164229219Y-68189594D01*
X164229221Y-68189593D01*
X164237313Y-68178782D01*
X164242853Y-68171906D01*
X164275377Y-68134373D01*
X164277375Y-68129997D01*
X164290907Y-68107190D01*
X164290920Y-68107172D01*
X164293796Y-68103331D01*
X164311153Y-68056791D01*
X164314534Y-68048630D01*
X164335165Y-68003457D01*
X164335851Y-67998681D01*
X164342405Y-67973001D01*
X164344091Y-67968483D01*
X164347633Y-67918951D01*
X164348580Y-67910147D01*
X164350317Y-67898073D01*
X164350500Y-67896799D01*
X164350500Y-67883308D01*
X164350816Y-67874461D01*
X164354359Y-67824926D01*
X164353334Y-67820214D01*
X164350500Y-67793856D01*
X164350500Y-67700862D01*
X164359939Y-67653410D01*
X164386815Y-67613184D01*
X164526109Y-67473890D01*
X164569812Y-67445635D01*
X164621271Y-67437803D01*
X164671407Y-67451780D01*
X164724775Y-67479790D01*
X164889944Y-67520500D01*
X165060055Y-67520500D01*
X165060056Y-67520500D01*
X165225225Y-67479790D01*
X165375852Y-67400734D01*
X165503183Y-67287929D01*
X165599818Y-67147930D01*
X165660140Y-66988872D01*
X165675500Y-66862372D01*
X165675500Y-65677628D01*
X165660140Y-65551128D01*
X165599818Y-65392070D01*
X165507225Y-65257927D01*
X165503184Y-65252072D01*
X165495122Y-65244930D01*
X165375852Y-65139266D01*
X165288838Y-65093597D01*
X165225224Y-65060209D01*
X165122557Y-65034905D01*
X165094324Y-65027946D01*
X165045577Y-65003601D01*
X165011972Y-64960708D01*
X165000000Y-64907550D01*
X165000000Y-63600000D01*
X172925000Y-63600000D01*
X173375000Y-63600000D01*
X173375000Y-63125001D01*
X173354567Y-63125001D01*
X173297993Y-63131082D01*
X173170013Y-63178816D01*
X173060669Y-63260669D01*
X172978816Y-63370013D01*
X172931082Y-63497992D01*
X172925000Y-63554567D01*
X172925000Y-63600000D01*
X165000000Y-63600000D01*
X165000000Y-63312450D01*
X165011972Y-63259292D01*
X165045577Y-63216399D01*
X165094324Y-63192053D01*
X165225225Y-63159790D01*
X165375852Y-63080734D01*
X165503183Y-62967929D01*
X165599818Y-62827930D01*
X165660140Y-62668872D01*
X165675500Y-62542372D01*
X165675500Y-61657628D01*
X165660140Y-61531128D01*
X165599818Y-61372070D01*
X165503183Y-61232071D01*
X165375852Y-61119266D01*
X165361588Y-61111779D01*
X165225224Y-61040209D01*
X165132290Y-61017303D01*
X165094324Y-61007946D01*
X165045577Y-60983601D01*
X165011972Y-60940708D01*
X165000000Y-60887550D01*
X165000000Y-60124500D01*
X165016613Y-60062500D01*
X165062000Y-60017113D01*
X165124000Y-60000500D01*
X189949138Y-60000500D01*
X189996591Y-60009939D01*
G37*
%TD.AperFunction*%
%TD*%
%TA.AperFunction,Conductor*%
%TO.N,VMOT*%
G36*
X175996091Y-103509439D02*
G01*
X176036319Y-103536319D01*
X176463681Y-103963681D01*
X176490561Y-104003909D01*
X176500000Y-104051362D01*
X176500000Y-108000000D01*
X177463681Y-108963681D01*
X177490561Y-109003909D01*
X177500000Y-109051362D01*
X177500000Y-114302246D01*
X177490561Y-114349699D01*
X177463681Y-114389927D01*
X176889926Y-114963681D01*
X176849698Y-114990561D01*
X176802245Y-115000000D01*
X161132755Y-115000000D01*
X161085302Y-114990561D01*
X161045074Y-114963681D01*
X160869690Y-114788296D01*
X160869675Y-114788283D01*
X160853342Y-114771950D01*
X160853341Y-114771949D01*
X160853339Y-114771947D01*
X160833599Y-114761889D01*
X160817014Y-114751726D01*
X160799090Y-114738704D01*
X160778020Y-114731858D01*
X160760044Y-114724412D01*
X160740302Y-114714353D01*
X160718418Y-114710886D01*
X160699507Y-114706346D01*
X160678435Y-114699500D01*
X160678433Y-114699500D01*
X160646519Y-114699500D01*
X156750862Y-114699500D01*
X156703409Y-114690061D01*
X156663181Y-114663181D01*
X156536319Y-114536319D01*
X156509439Y-114496091D01*
X156500000Y-114448638D01*
X156500000Y-109051362D01*
X156509439Y-109003909D01*
X156536319Y-108963681D01*
X156536318Y-108963681D01*
X157500000Y-108000000D01*
X157500000Y-104051362D01*
X157509439Y-104003909D01*
X157536319Y-103963681D01*
X157963681Y-103536319D01*
X158003909Y-103509439D01*
X158051362Y-103500000D01*
X175948638Y-103500000D01*
X175996091Y-103509439D01*
G37*
%TD.AperFunction*%
%TD*%
%TA.AperFunction,Conductor*%
%TO.N,GND*%
G36*
X153329698Y-109509439D02*
G01*
X153369926Y-109536319D01*
X153963681Y-110130074D01*
X153990561Y-110170302D01*
X154000000Y-110217755D01*
X154000000Y-115448638D01*
X153990561Y-115496091D01*
X153963681Y-115536319D01*
X153536319Y-115963681D01*
X153496091Y-115990561D01*
X153448638Y-116000000D01*
X148550515Y-116000000D01*
X148503733Y-115990837D01*
X148463865Y-115964701D01*
X148037350Y-115548047D01*
X148009718Y-115507468D01*
X148000000Y-115459346D01*
X148000000Y-110217755D01*
X148009439Y-110170302D01*
X148036319Y-110130074D01*
X148630074Y-109536319D01*
X148670302Y-109509439D01*
X148717755Y-109500000D01*
X153282245Y-109500000D01*
X153329698Y-109509439D01*
G37*
%TD.AperFunction*%
%TD*%
%TA.AperFunction,Conductor*%
%TO.N,GND*%
G36*
X174482797Y-64247616D02*
G01*
X174516447Y-64296826D01*
X174528814Y-64329984D01*
X174610669Y-64439330D01*
X174720013Y-64521183D01*
X174862586Y-64574361D01*
X174862427Y-64574787D01*
X174905813Y-64591369D01*
X174946077Y-64640176D01*
X174957019Y-64702495D01*
X174935790Y-64762099D01*
X174887918Y-64803471D01*
X174798190Y-64847335D01*
X174731215Y-64914311D01*
X174675628Y-64946405D01*
X174611440Y-64946405D01*
X174555853Y-64914311D01*
X174502093Y-64860551D01*
X174392020Y-64804465D01*
X174380000Y-64802561D01*
X174380000Y-65100000D01*
X175286000Y-65100000D01*
X175348000Y-65116613D01*
X175393387Y-65162000D01*
X175410000Y-65224000D01*
X175410000Y-65476000D01*
X175393387Y-65538000D01*
X175348000Y-65583387D01*
X175286000Y-65600000D01*
X174380000Y-65600000D01*
X174380000Y-65897438D01*
X174392017Y-65895535D01*
X174502094Y-65839447D01*
X174555853Y-65785689D01*
X174611440Y-65753595D01*
X174675628Y-65753595D01*
X174731215Y-65785689D01*
X174798189Y-65852663D01*
X174809988Y-65858431D01*
X174860717Y-65904169D01*
X174879530Y-65969831D01*
X174860719Y-66035493D01*
X174809992Y-66081233D01*
X174777899Y-66096922D01*
X174744770Y-66130051D01*
X174711638Y-66163183D01*
X174671413Y-66190061D01*
X174623960Y-66199500D01*
X173874000Y-66199500D01*
X173812000Y-66182887D01*
X173766613Y-66137500D01*
X173750000Y-66075500D01*
X173750000Y-66022035D01*
X173761391Y-65970121D01*
X173793469Y-65927744D01*
X173840343Y-65902690D01*
X173876335Y-65900568D01*
X173880000Y-65897439D01*
X173880000Y-64802562D01*
X173864346Y-64789191D01*
X173830590Y-64743006D01*
X173821159Y-64686583D01*
X173838060Y-64631930D01*
X173877696Y-64590681D01*
X173931626Y-64571614D01*
X173952114Y-64569412D01*
X174080226Y-64521628D01*
X174189687Y-64439687D01*
X174271628Y-64330226D01*
X174284086Y-64296824D01*
X174317733Y-64247618D01*
X174370457Y-64219797D01*
X174430072Y-64219797D01*
X174482797Y-64247616D01*
G37*
%TD.AperFunction*%
%TD*%
%TA.AperFunction,Conductor*%
%TO.N,/Motor Drivers/M2_OUT_A*%
G36*
X165996091Y-115509439D02*
G01*
X166036319Y-115536319D01*
X166713681Y-116213681D01*
X166740561Y-116253909D01*
X166750000Y-116301362D01*
X166750000Y-118500000D01*
X166250000Y-118000000D01*
X157250500Y-118000000D01*
X157250500Y-117671567D01*
X157243653Y-117650494D01*
X157239112Y-117631580D01*
X157235646Y-117609696D01*
X157225588Y-117589958D01*
X157218142Y-117571984D01*
X157211296Y-117550910D01*
X157198275Y-117532989D01*
X157188104Y-117516392D01*
X157178050Y-117496658D01*
X157088342Y-117406950D01*
X157036318Y-117354926D01*
X157009439Y-117314699D01*
X157000000Y-117267246D01*
X157000000Y-115624500D01*
X157016613Y-115562500D01*
X157062000Y-115517113D01*
X157124000Y-115500500D01*
X160397745Y-115500500D01*
X160445198Y-115509939D01*
X160485426Y-115536819D01*
X160678181Y-115729574D01*
X160705061Y-115769802D01*
X160714500Y-115817255D01*
X160714500Y-116544867D01*
X160717414Y-116569988D01*
X160762795Y-116672767D01*
X160842232Y-116752204D01*
X160842233Y-116752204D01*
X160842235Y-116752206D01*
X160945009Y-116797585D01*
X160970135Y-116800500D01*
X161809864Y-116800499D01*
X161809867Y-116800499D01*
X161822427Y-116799041D01*
X161834991Y-116797585D01*
X161937765Y-116752206D01*
X162017206Y-116672765D01*
X162062585Y-116569991D01*
X162065500Y-116544865D01*
X162065499Y-115623999D01*
X162082112Y-115562000D01*
X162127499Y-115516613D01*
X162189499Y-115500000D01*
X165948638Y-115500000D01*
X165996091Y-115509439D01*
G37*
%TD.AperFunction*%
%TD*%
%TA.AperFunction,Conductor*%
%TO.N,VMOT*%
G36*
X143996091Y-103509439D02*
G01*
X144036319Y-103536319D01*
X144463681Y-103963681D01*
X144490561Y-104003909D01*
X144500000Y-104051362D01*
X144500000Y-108000000D01*
X145463681Y-108963681D01*
X145490561Y-109003909D01*
X145500000Y-109051362D01*
X145500000Y-114287245D01*
X145490561Y-114334698D01*
X145463681Y-114374926D01*
X144874925Y-114963681D01*
X144834697Y-114990561D01*
X144787244Y-115000000D01*
X129122755Y-115000000D01*
X129075302Y-114990561D01*
X129035074Y-114963681D01*
X128859690Y-114788296D01*
X128859675Y-114788283D01*
X128843342Y-114771950D01*
X128843341Y-114771949D01*
X128843339Y-114771947D01*
X128823599Y-114761889D01*
X128807014Y-114751726D01*
X128789090Y-114738704D01*
X128768020Y-114731858D01*
X128750044Y-114724412D01*
X128730302Y-114714353D01*
X128708418Y-114710886D01*
X128689507Y-114706346D01*
X128668435Y-114699500D01*
X128668433Y-114699500D01*
X128636519Y-114699500D01*
X124750862Y-114699500D01*
X124703409Y-114690061D01*
X124663181Y-114663181D01*
X124536319Y-114536319D01*
X124509439Y-114496091D01*
X124500000Y-114448638D01*
X124500000Y-109051362D01*
X124509439Y-109003909D01*
X124536319Y-108963681D01*
X124536318Y-108963681D01*
X125500000Y-108000000D01*
X125500000Y-104051362D01*
X125509439Y-104003909D01*
X125536319Y-103963681D01*
X125963681Y-103536319D01*
X126003909Y-103509439D01*
X126051362Y-103500000D01*
X143948638Y-103500000D01*
X143996091Y-103509439D01*
G37*
%TD.AperFunction*%
%TD*%
%TA.AperFunction,Conductor*%
%TO.N,GND*%
G36*
X109996091Y-88259439D02*
G01*
X110036319Y-88286319D01*
X110463681Y-88713681D01*
X110490561Y-88753909D01*
X110500000Y-88801362D01*
X110500000Y-101948638D01*
X110490561Y-101996091D01*
X110463681Y-102036319D01*
X110036319Y-102463681D01*
X109996091Y-102490561D01*
X109948638Y-102500000D01*
X104051362Y-102500000D01*
X104003909Y-102490561D01*
X103963681Y-102463681D01*
X103536319Y-102036319D01*
X103509439Y-101996091D01*
X103500000Y-101948638D01*
X103500000Y-88801362D01*
X103509439Y-88753909D01*
X103536319Y-88713681D01*
X103963681Y-88286319D01*
X104003909Y-88259439D01*
X104051362Y-88250000D01*
X109948638Y-88250000D01*
X109996091Y-88259439D01*
G37*
%TD.AperFunction*%
%TD*%
%TA.AperFunction,Conductor*%
%TO.N,GND*%
G36*
X160039987Y-85323230D02*
G01*
X160095418Y-85347706D01*
X160095420Y-85347707D01*
X160119492Y-85350500D01*
X160131000Y-85350500D01*
X160180500Y-85363763D01*
X160216737Y-85400000D01*
X160230000Y-85449500D01*
X160230000Y-86026403D01*
X160218577Y-86072568D01*
X160186946Y-86108080D01*
X160142405Y-86124743D01*
X160128501Y-86126355D01*
X160120418Y-86127293D01*
X160021922Y-86170784D01*
X159945783Y-86246923D01*
X159902292Y-86345419D01*
X159899500Y-86369492D01*
X159899500Y-86630502D01*
X159902293Y-86654580D01*
X159919788Y-86694203D01*
X159928223Y-86734190D01*
X159919788Y-86774178D01*
X159877292Y-86870421D01*
X159874500Y-86894492D01*
X159874500Y-86921000D01*
X159861237Y-86970500D01*
X159825000Y-87006737D01*
X159775500Y-87020000D01*
X159224499Y-87020000D01*
X159174999Y-87006737D01*
X159138762Y-86970500D01*
X159125499Y-86921000D01*
X159125499Y-86894498D01*
X159125499Y-86894495D01*
X159122707Y-86870420D01*
X159080211Y-86774178D01*
X159071776Y-86734190D01*
X159080212Y-86694201D01*
X159097707Y-86654579D01*
X159100500Y-86630505D01*
X159100499Y-86369496D01*
X159097707Y-86345420D01*
X159084616Y-86315772D01*
X159073231Y-86289988D01*
X159064795Y-86249999D01*
X159073229Y-86210013D01*
X159097707Y-86154580D01*
X159100500Y-86130505D01*
X159100499Y-85869496D01*
X159097707Y-85845420D01*
X159073231Y-85789988D01*
X159064795Y-85749999D01*
X159073229Y-85710013D01*
X159097707Y-85654580D01*
X159100500Y-85630505D01*
X159100499Y-85449498D01*
X159113762Y-85399999D01*
X159149999Y-85363763D01*
X159199496Y-85350499D01*
X159380504Y-85350499D01*
X159404580Y-85347707D01*
X159460012Y-85323230D01*
X159500000Y-85314795D01*
X159539987Y-85323230D01*
X159595420Y-85347707D01*
X159619495Y-85350500D01*
X159880504Y-85350499D01*
X159904580Y-85347707D01*
X159960012Y-85323230D01*
X160000000Y-85314795D01*
X160039987Y-85323230D01*
G37*
%TD.AperFunction*%
%TD*%
%TA.AperFunction,Conductor*%
%TO.N,/Motor Drivers/M3_OUT_B*%
G36*
X175682500Y-115516613D02*
G01*
X175727887Y-115562000D01*
X175744500Y-115624000D01*
X175744500Y-116544867D01*
X175747414Y-116569988D01*
X175747414Y-116569990D01*
X175747415Y-116569991D01*
X175792794Y-116672765D01*
X175792795Y-116672767D01*
X175872232Y-116752204D01*
X175872233Y-116752204D01*
X175872235Y-116752206D01*
X175975009Y-116797585D01*
X176000135Y-116800500D01*
X176839864Y-116800499D01*
X176839867Y-116800499D01*
X176852427Y-116799041D01*
X176864991Y-116797585D01*
X176967765Y-116752206D01*
X177047206Y-116672765D01*
X177092585Y-116569991D01*
X177095500Y-116544865D01*
X177095499Y-115942253D01*
X177104938Y-115894801D01*
X177131813Y-115854578D01*
X177288321Y-115698070D01*
X177337682Y-115667823D01*
X177395398Y-115663281D01*
X177448885Y-115685436D01*
X177486485Y-115729459D01*
X177500000Y-115785754D01*
X177500000Y-117945713D01*
X177490923Y-117992282D01*
X177485894Y-118000000D01*
X167750000Y-118000000D01*
X167250000Y-118500000D01*
X167250000Y-116301362D01*
X167259439Y-116253909D01*
X167286319Y-116213681D01*
X167963681Y-115536319D01*
X168003909Y-115509439D01*
X168051362Y-115500000D01*
X175620500Y-115500000D01*
X175682500Y-115516613D01*
G37*
%TD.AperFunction*%
%TD*%
%TA.AperFunction,Conductor*%
%TO.N,GND*%
G36*
X139996091Y-98009439D02*
G01*
X140036319Y-98036319D01*
X140463681Y-98463681D01*
X140490561Y-98503909D01*
X140500000Y-98551362D01*
X140500000Y-101948638D01*
X140490561Y-101996091D01*
X140463681Y-102036319D01*
X140036319Y-102463681D01*
X139996091Y-102490561D01*
X139948638Y-102500000D01*
X130051362Y-102500000D01*
X130003909Y-102490561D01*
X129963681Y-102463681D01*
X129536319Y-102036319D01*
X129509439Y-101996091D01*
X129500000Y-101948638D01*
X129500000Y-98551362D01*
X129509439Y-98503909D01*
X129536319Y-98463681D01*
X129963681Y-98036319D01*
X130003909Y-98009439D01*
X130051362Y-98000000D01*
X139948638Y-98000000D01*
X139996091Y-98009439D01*
G37*
%TD.AperFunction*%
%TD*%
%TA.AperFunction,Conductor*%
%TO.N,GND*%
G36*
X171996091Y-98009439D02*
G01*
X172036319Y-98036319D01*
X172463681Y-98463681D01*
X172490561Y-98503909D01*
X172500000Y-98551362D01*
X172500000Y-101948638D01*
X172490561Y-101996091D01*
X172463681Y-102036319D01*
X172036319Y-102463681D01*
X171996091Y-102490561D01*
X171948638Y-102500000D01*
X162051362Y-102500000D01*
X162003909Y-102490561D01*
X161963681Y-102463681D01*
X161536319Y-102036319D01*
X161509439Y-101996091D01*
X161500000Y-101948638D01*
X161500000Y-98551362D01*
X161509439Y-98503909D01*
X161536319Y-98463681D01*
X161963681Y-98036319D01*
X162003909Y-98009439D01*
X162051362Y-98000000D01*
X171948638Y-98000000D01*
X171996091Y-98009439D01*
G37*
%TD.AperFunction*%
%TD*%
%TA.AperFunction,Conductor*%
%TO.N,/Motor Drivers/M2_OUT_B*%
G36*
X143692500Y-115516613D02*
G01*
X143737887Y-115562000D01*
X143754500Y-115624000D01*
X143754500Y-116544867D01*
X143757414Y-116569988D01*
X143802795Y-116672767D01*
X143882232Y-116752204D01*
X143882233Y-116752204D01*
X143882235Y-116752206D01*
X143985009Y-116797585D01*
X144010135Y-116800500D01*
X144849864Y-116800499D01*
X144849867Y-116800499D01*
X144862427Y-116799041D01*
X144874991Y-116797585D01*
X144977765Y-116752206D01*
X145057206Y-116672765D01*
X145102585Y-116569991D01*
X145105500Y-116544865D01*
X145105499Y-115917253D01*
X145114938Y-115869801D01*
X145141813Y-115829578D01*
X145288321Y-115683070D01*
X145337682Y-115652823D01*
X145395398Y-115648281D01*
X145448886Y-115670436D01*
X145486485Y-115714459D01*
X145500000Y-115770754D01*
X145500000Y-117675713D01*
X145490923Y-117722282D01*
X145465021Y-117762034D01*
X145426086Y-117789146D01*
X145395768Y-117802533D01*
X145327233Y-117832794D01*
X145247795Y-117912232D01*
X145209042Y-118000000D01*
X135750000Y-118000000D01*
X135250000Y-118500000D01*
X135250000Y-116301362D01*
X135259439Y-116253909D01*
X135286319Y-116213681D01*
X135963681Y-115536319D01*
X136003909Y-115509439D01*
X136051362Y-115500000D01*
X143630500Y-115500000D01*
X143692500Y-115516613D01*
G37*
%TD.AperFunction*%
%TD*%
%TA.AperFunction,Conductor*%
%TO.N,GND*%
G36*
X172400000Y-67517113D02*
G01*
X172445387Y-67562500D01*
X172462000Y-67624500D01*
X172462000Y-68000000D01*
X172574125Y-68000000D01*
X172647043Y-67985495D01*
X172729738Y-67930240D01*
X172735964Y-67920923D01*
X172784318Y-67878551D01*
X172847389Y-67866088D01*
X172908225Y-67886884D01*
X172950469Y-67935348D01*
X172964082Y-67963195D01*
X173005399Y-68001230D01*
X173009097Y-68004779D01*
X173210396Y-68206078D01*
X173243079Y-68263952D01*
X173241181Y-68330389D01*
X173205248Y-68386303D01*
X173145602Y-68415628D01*
X173079381Y-68409941D01*
X173002007Y-68381082D01*
X172945433Y-68375000D01*
X172900000Y-68375000D01*
X172900000Y-68825000D01*
X174637678Y-68825000D01*
X174673055Y-68830154D01*
X174683060Y-68833132D01*
X174687895Y-68834681D01*
X174733974Y-68850500D01*
X174733976Y-68850500D01*
X174741040Y-68852925D01*
X174748505Y-68852616D01*
X174748508Y-68852617D01*
X174797130Y-68850605D01*
X174802254Y-68850500D01*
X175430788Y-68850500D01*
X175456234Y-68853139D01*
X175457556Y-68853416D01*
X175465315Y-68855043D01*
X175491364Y-68851795D01*
X175494123Y-68851452D01*
X175508795Y-68850541D01*
X175528013Y-68847334D01*
X175533069Y-68846596D01*
X175567600Y-68842292D01*
X175601933Y-68838013D01*
X175602469Y-68842320D01*
X175631721Y-68837171D01*
X175695418Y-68863209D01*
X175735424Y-68919198D01*
X175739419Y-68987895D01*
X175706172Y-69048144D01*
X175040636Y-69713681D01*
X175000408Y-69740561D01*
X174952955Y-69750000D01*
X174904203Y-69750000D01*
X174839036Y-69731495D01*
X174793319Y-69681504D01*
X174780697Y-69614947D01*
X174804936Y-69551689D01*
X174821184Y-69529983D01*
X174868917Y-69402007D01*
X174875000Y-69345433D01*
X174875000Y-69325000D01*
X171925001Y-69325000D01*
X171925001Y-69345433D01*
X171931082Y-69402006D01*
X171978815Y-69529983D01*
X171995064Y-69551689D01*
X172019303Y-69614947D01*
X172006681Y-69681504D01*
X171960964Y-69731495D01*
X171895797Y-69750000D01*
X171041362Y-69750000D01*
X170993909Y-69740561D01*
X170953681Y-69713681D01*
X170776319Y-69536319D01*
X170749439Y-69496091D01*
X170740000Y-69448638D01*
X170740000Y-68825000D01*
X171925000Y-68825000D01*
X172400000Y-68825000D01*
X172400000Y-68375001D01*
X172354567Y-68375001D01*
X172297993Y-68381082D01*
X172170013Y-68428816D01*
X172060669Y-68510669D01*
X171978816Y-68620013D01*
X171931082Y-68747992D01*
X171925000Y-68804567D01*
X171925000Y-68825000D01*
X170740000Y-68825000D01*
X170740000Y-68801362D01*
X170749439Y-68753909D01*
X170776319Y-68713681D01*
X170953681Y-68536319D01*
X170993909Y-68509439D01*
X171041362Y-68500000D01*
X171489999Y-68500000D01*
X171490000Y-68500000D01*
X171531317Y-68458682D01*
X171560542Y-68437009D01*
X171568041Y-68433000D01*
X171608266Y-68406122D01*
X171608265Y-68406122D01*
X171608269Y-68406120D01*
X171646985Y-68374347D01*
X171924347Y-68096985D01*
X171956120Y-68058269D01*
X171958232Y-68055107D01*
X172002882Y-68014641D01*
X172061334Y-68000000D01*
X172162000Y-68000000D01*
X172162000Y-67624500D01*
X172178613Y-67562500D01*
X172224000Y-67517113D01*
X172286000Y-67500500D01*
X172338000Y-67500500D01*
X172400000Y-67517113D01*
G37*
%TD.AperFunction*%
%TD*%
%TA.AperFunction,Conductor*%
%TO.N,GND*%
G36*
X185319698Y-109509439D02*
G01*
X185359926Y-109536319D01*
X185963681Y-110140074D01*
X185990561Y-110180302D01*
X186000000Y-110227755D01*
X186000000Y-115448638D01*
X185990561Y-115496091D01*
X185963681Y-115536319D01*
X185536319Y-115963681D01*
X185496091Y-115990561D01*
X185448638Y-116000000D01*
X180551362Y-116000000D01*
X180503909Y-115990561D01*
X180463681Y-115963681D01*
X180036319Y-115536319D01*
X180009439Y-115496091D01*
X180000000Y-115448638D01*
X180000000Y-110227755D01*
X180009439Y-110180302D01*
X180036319Y-110140074D01*
X180640074Y-109536319D01*
X180680302Y-109509439D01*
X180727755Y-109500000D01*
X185272245Y-109500000D01*
X185319698Y-109509439D01*
G37*
%TD.AperFunction*%
%TD*%
%TA.AperFunction,Conductor*%
%TO.N,+5V*%
G36*
X178338000Y-70516613D02*
G01*
X178383387Y-70562000D01*
X178400000Y-70624000D01*
X178400000Y-70700000D01*
X181400000Y-70700000D01*
X181400000Y-70624000D01*
X181416613Y-70562000D01*
X181462000Y-70516613D01*
X181524000Y-70500000D01*
X182385000Y-70500000D01*
X184900000Y-70500000D01*
X184900000Y-71324999D01*
X184945433Y-71324999D01*
X185002006Y-71318917D01*
X185129986Y-71271183D01*
X185239330Y-71189330D01*
X185276733Y-71139366D01*
X185324488Y-71100882D01*
X185384846Y-71089992D01*
X185443039Y-71109361D01*
X185484832Y-71154249D01*
X185500000Y-71213676D01*
X185500000Y-72448638D01*
X185490561Y-72496091D01*
X185463681Y-72536319D01*
X185036319Y-72963681D01*
X184996091Y-72990561D01*
X184948638Y-73000000D01*
X176301362Y-73000000D01*
X176253909Y-72990561D01*
X176213681Y-72963681D01*
X175786319Y-72536319D01*
X175759439Y-72496091D01*
X175750000Y-72448638D01*
X175750000Y-71210000D01*
X176042676Y-71210000D01*
X176097335Y-71321809D01*
X176188190Y-71412664D01*
X176303627Y-71469098D01*
X176349999Y-71475854D01*
X176350000Y-71475854D01*
X176350000Y-71210000D01*
X176850000Y-71210000D01*
X176850000Y-71475852D01*
X176896373Y-71469096D01*
X177011810Y-71412663D01*
X177102664Y-71321809D01*
X177157324Y-71210000D01*
X176850000Y-71210000D01*
X176350000Y-71210000D01*
X176042676Y-71210000D01*
X175750000Y-71210000D01*
X175750000Y-71200000D01*
X178400000Y-71200000D01*
X178400000Y-71724625D01*
X178414504Y-71797543D01*
X178469760Y-71880239D01*
X178552456Y-71935495D01*
X178625375Y-71950000D01*
X179650000Y-71950000D01*
X179650000Y-71200000D01*
X180150000Y-71200000D01*
X180150000Y-71950000D01*
X181174625Y-71950000D01*
X181247543Y-71935495D01*
X181330239Y-71880239D01*
X181385495Y-71797543D01*
X181400000Y-71724625D01*
X181400000Y-71200000D01*
X180150000Y-71200000D01*
X179650000Y-71200000D01*
X178400000Y-71200000D01*
X175750000Y-71200000D01*
X175750000Y-71051362D01*
X175759439Y-71003909D01*
X175786319Y-70963681D01*
X175875000Y-70875000D01*
X182425001Y-70875000D01*
X182425001Y-70895433D01*
X182431082Y-70952006D01*
X182478816Y-71079986D01*
X182560669Y-71189330D01*
X182670013Y-71271183D01*
X182797992Y-71318917D01*
X182854567Y-71325000D01*
X182900000Y-71325000D01*
X182900000Y-70875000D01*
X183400000Y-70875000D01*
X183400000Y-71324999D01*
X183445433Y-71324999D01*
X183502006Y-71318917D01*
X183629986Y-71271183D01*
X183739330Y-71189330D01*
X183800733Y-71107305D01*
X183844495Y-71070731D01*
X183900000Y-71057615D01*
X183955505Y-71070731D01*
X183999267Y-71107305D01*
X184060669Y-71189330D01*
X184170013Y-71271183D01*
X184297992Y-71318917D01*
X184354567Y-71325000D01*
X184400000Y-71325000D01*
X184400000Y-70875000D01*
X183400000Y-70875000D01*
X182900000Y-70875000D01*
X182425001Y-70875000D01*
X175875000Y-70875000D01*
X176003683Y-70746316D01*
X176043908Y-70719439D01*
X176091361Y-70710000D01*
X177157323Y-70710000D01*
X177141905Y-70678460D01*
X177129472Y-70617595D01*
X177148118Y-70558338D01*
X177193165Y-70515561D01*
X177253306Y-70500000D01*
X178276000Y-70500000D01*
X178338000Y-70516613D01*
G37*
%TD.AperFunction*%
%TD*%
%TA.AperFunction,Conductor*%
%TO.N,/Power/3V3_SW*%
G36*
X170777879Y-66236363D02*
G01*
X170813065Y-66254799D01*
X170983069Y-66382302D01*
X171377655Y-66678241D01*
X171403571Y-66704553D01*
X171444516Y-66760909D01*
X171521950Y-66838342D01*
X171611658Y-66928050D01*
X171631395Y-66938106D01*
X171647990Y-66948276D01*
X171665908Y-66961295D01*
X171665909Y-66961295D01*
X171665910Y-66961296D01*
X171686979Y-66968141D01*
X171704949Y-66975584D01*
X171724696Y-66985646D01*
X171746579Y-66989111D01*
X171765498Y-66993652D01*
X171786567Y-67000499D01*
X171808212Y-67000499D01*
X171808224Y-67000500D01*
X171818481Y-67000500D01*
X171887563Y-67000500D01*
X171948152Y-67016311D01*
X171993291Y-67059711D01*
X172011467Y-67119632D01*
X171998047Y-67180796D01*
X171956454Y-67227601D01*
X171893898Y-67269399D01*
X171893899Y-67269399D01*
X171838533Y-67352261D01*
X171828687Y-67401760D01*
X171816428Y-67436020D01*
X171794753Y-67465247D01*
X171780000Y-67480000D01*
X171780000Y-67828638D01*
X171770561Y-67876091D01*
X171743681Y-67916319D01*
X171466319Y-68193681D01*
X171426091Y-68220561D01*
X171378638Y-68230000D01*
X168024500Y-68230000D01*
X167962500Y-68213387D01*
X167917113Y-68168000D01*
X167900500Y-68106000D01*
X167900500Y-66429755D01*
X167909939Y-66382302D01*
X167936819Y-66342074D01*
X168012574Y-66266319D01*
X168052802Y-66239439D01*
X168100255Y-66230000D01*
X170738667Y-66230000D01*
X170777879Y-66236363D01*
G37*
%TD.AperFunction*%
%TD*%
%TA.AperFunction,Conductor*%
%TO.N,/Motor Drivers/M1_SP*%
G36*
X124177500Y-118016613D02*
G01*
X124222887Y-118062000D01*
X124239500Y-118124000D01*
X124239500Y-121270500D01*
X124222887Y-121332500D01*
X124177500Y-121377887D01*
X124115500Y-121394500D01*
X123452130Y-121394500D01*
X123392515Y-121400909D01*
X123257669Y-121451204D01*
X123142454Y-121537454D01*
X123056204Y-121652668D01*
X123005909Y-121787516D01*
X122999500Y-121847130D01*
X122999500Y-122692869D01*
X123005031Y-122744318D01*
X123005909Y-122752483D01*
X123035816Y-122832668D01*
X123042667Y-122891453D01*
X123021490Y-122946720D01*
X122977109Y-122985876D01*
X122919634Y-123000000D01*
X113624000Y-123000000D01*
X113562000Y-122983387D01*
X113516613Y-122938000D01*
X113500000Y-122876000D01*
X113500000Y-119459500D01*
X113516613Y-119397500D01*
X113562000Y-119352113D01*
X113624000Y-119335500D01*
X114547852Y-119335499D01*
X114547872Y-119335499D01*
X114607483Y-119329091D01*
X114742331Y-119278796D01*
X114857546Y-119192546D01*
X114943796Y-119077331D01*
X114994091Y-118942483D01*
X115000500Y-118882873D01*
X115000499Y-118350095D01*
X115009938Y-118302643D01*
X115036815Y-118262418D01*
X115262914Y-118036319D01*
X115303143Y-118009439D01*
X115350596Y-118000000D01*
X124115500Y-118000000D01*
X124177500Y-118016613D01*
G37*
%TD.AperFunction*%
%TD*%
%TA.AperFunction,Conductor*%
%TO.N,VMOT*%
G36*
X111996091Y-103509439D02*
G01*
X112036319Y-103536319D01*
X112463681Y-103963681D01*
X112490561Y-104003909D01*
X112500000Y-104051362D01*
X112500000Y-108000000D01*
X113463681Y-108963681D01*
X113490561Y-109003909D01*
X113500000Y-109051362D01*
X113500000Y-114277245D01*
X113490561Y-114324698D01*
X113463681Y-114364926D01*
X112864925Y-114963681D01*
X112824697Y-114990561D01*
X112777244Y-115000000D01*
X104051362Y-115000000D01*
X104003909Y-114990561D01*
X103963681Y-114963681D01*
X103536319Y-114536319D01*
X103509439Y-114496091D01*
X103500000Y-114448638D01*
X103500000Y-104051362D01*
X103509439Y-104003909D01*
X103536319Y-103963681D01*
X103963681Y-103536319D01*
X104003909Y-103509439D01*
X104051362Y-103500000D01*
X111948638Y-103500000D01*
X111996091Y-103509439D01*
G37*
%TD.AperFunction*%
%TD*%
%TA.AperFunction,Conductor*%
%TO.N,GND*%
G36*
X182900000Y-67517113D02*
G01*
X182945387Y-67562500D01*
X182962000Y-67624500D01*
X182962000Y-68000000D01*
X183074125Y-68000000D01*
X183147043Y-67985495D01*
X183229740Y-67930239D01*
X183243856Y-67909113D01*
X183283209Y-67871644D01*
X183334804Y-67854599D01*
X183388733Y-67861250D01*
X183434640Y-67890321D01*
X183774192Y-68229873D01*
X183806875Y-68287747D01*
X183804977Y-68354184D01*
X183769043Y-68410098D01*
X183709398Y-68439424D01*
X183643177Y-68433736D01*
X183502007Y-68381082D01*
X183445433Y-68375000D01*
X183400000Y-68375000D01*
X183400000Y-68825000D01*
X185385834Y-68825000D01*
X185393408Y-68819939D01*
X185440861Y-68810500D01*
X185970788Y-68810500D01*
X185996234Y-68813139D01*
X185997556Y-68813416D01*
X186005315Y-68815043D01*
X186031364Y-68811795D01*
X186034123Y-68811452D01*
X186048795Y-68810541D01*
X186068013Y-68807334D01*
X186073069Y-68806596D01*
X186121393Y-68800573D01*
X186121394Y-68800572D01*
X186128808Y-68799648D01*
X186135378Y-68796092D01*
X186135381Y-68796092D01*
X186178201Y-68772918D01*
X186182747Y-68770577D01*
X186226484Y-68749198D01*
X186226486Y-68749195D01*
X186233195Y-68745916D01*
X186238254Y-68740419D01*
X186238258Y-68740418D01*
X186271254Y-68704572D01*
X186274756Y-68700924D01*
X186528863Y-68446817D01*
X186569091Y-68419938D01*
X186616544Y-68410499D01*
X186800732Y-68410499D01*
X186800734Y-68410499D01*
X186836105Y-68404897D01*
X186889160Y-68408027D01*
X186936032Y-68433081D01*
X186968110Y-68475458D01*
X186979500Y-68527371D01*
X186979500Y-69143456D01*
X186970061Y-69190909D01*
X186943181Y-69231137D01*
X186460637Y-69713681D01*
X186420409Y-69740561D01*
X186372956Y-69750000D01*
X185404203Y-69750000D01*
X185339036Y-69731495D01*
X185293319Y-69681504D01*
X185280697Y-69614947D01*
X185304936Y-69551689D01*
X185321184Y-69529983D01*
X185368917Y-69402007D01*
X185375000Y-69345433D01*
X185375000Y-69325000D01*
X182425001Y-69325000D01*
X182425001Y-69345433D01*
X182431082Y-69402006D01*
X182478815Y-69529983D01*
X182495064Y-69551689D01*
X182519303Y-69614947D01*
X182506681Y-69681504D01*
X182460964Y-69731495D01*
X182395797Y-69750000D01*
X181551362Y-69750000D01*
X181503909Y-69740561D01*
X181463681Y-69713681D01*
X181286319Y-69536319D01*
X181259439Y-69496091D01*
X181250000Y-69448638D01*
X181250000Y-68825000D01*
X182425000Y-68825000D01*
X182900000Y-68825000D01*
X182900000Y-68375001D01*
X182854567Y-68375001D01*
X182797993Y-68381082D01*
X182670013Y-68428816D01*
X182560669Y-68510669D01*
X182478816Y-68620013D01*
X182431082Y-68747992D01*
X182425000Y-68804567D01*
X182425000Y-68825000D01*
X181250000Y-68825000D01*
X181250000Y-68801362D01*
X181259439Y-68753909D01*
X181286319Y-68713681D01*
X181458181Y-68541819D01*
X181498409Y-68514939D01*
X181545862Y-68505500D01*
X181848638Y-68505500D01*
X181898425Y-68500597D01*
X181910578Y-68500000D01*
X182000000Y-68500000D01*
X182056409Y-68443590D01*
X182075197Y-68428172D01*
X182078269Y-68426120D01*
X182116985Y-68394347D01*
X182394347Y-68116985D01*
X182426120Y-68078269D01*
X182428172Y-68075197D01*
X182443591Y-68056408D01*
X182463682Y-68036317D01*
X182503911Y-68009438D01*
X182551362Y-68000000D01*
X182662000Y-68000000D01*
X182662000Y-67624500D01*
X182678613Y-67562500D01*
X182724000Y-67517113D01*
X182786000Y-67500500D01*
X182838000Y-67500500D01*
X182900000Y-67517113D01*
G37*
%TD.AperFunction*%
%TD*%
%TA.AperFunction,Conductor*%
%TO.N,/Motor Drivers/M1_OUT_A*%
G36*
X133996091Y-115509439D02*
G01*
X134036319Y-115536319D01*
X134713681Y-116213681D01*
X134740561Y-116253909D01*
X134750000Y-116301362D01*
X134750000Y-118500000D01*
X134250000Y-118000000D01*
X125240500Y-118000000D01*
X125240500Y-117671567D01*
X125233653Y-117650494D01*
X125229112Y-117631580D01*
X125225646Y-117609696D01*
X125215588Y-117589958D01*
X125208142Y-117571984D01*
X125201296Y-117550910D01*
X125188275Y-117532989D01*
X125178104Y-117516392D01*
X125176708Y-117513652D01*
X125168050Y-117496658D01*
X125078342Y-117406950D01*
X125036318Y-117364926D01*
X125009439Y-117324699D01*
X125000000Y-117277246D01*
X125000000Y-115624500D01*
X125016613Y-115562500D01*
X125062000Y-115517113D01*
X125124000Y-115500500D01*
X128387745Y-115500500D01*
X128435198Y-115509939D01*
X128475426Y-115536819D01*
X128678181Y-115739574D01*
X128705061Y-115779802D01*
X128714500Y-115827255D01*
X128714500Y-116544867D01*
X128717414Y-116569988D01*
X128762795Y-116672767D01*
X128842232Y-116752204D01*
X128842233Y-116752204D01*
X128842235Y-116752206D01*
X128945009Y-116797585D01*
X128970135Y-116800500D01*
X129809864Y-116800499D01*
X129809867Y-116800499D01*
X129822427Y-116799041D01*
X129834991Y-116797585D01*
X129937765Y-116752206D01*
X130017206Y-116672765D01*
X130062585Y-116569991D01*
X130065500Y-116544865D01*
X130065499Y-115623999D01*
X130082112Y-115562000D01*
X130127499Y-115516613D01*
X130189499Y-115500000D01*
X133948638Y-115500000D01*
X133996091Y-115509439D01*
G37*
%TD.AperFunction*%
%TD*%
%TA.AperFunction,Conductor*%
%TO.N,/Motor Drivers/M3_OUT_A*%
G36*
X197996091Y-115509439D02*
G01*
X198036319Y-115536319D01*
X198463681Y-115963681D01*
X198490561Y-116003909D01*
X198500000Y-116051362D01*
X198500000Y-118500000D01*
X198000000Y-118000000D01*
X189250500Y-118000000D01*
X189250500Y-117681567D01*
X189243653Y-117660494D01*
X189239112Y-117641580D01*
X189235646Y-117619696D01*
X189225588Y-117599958D01*
X189218142Y-117581984D01*
X189211296Y-117560910D01*
X189198275Y-117542989D01*
X189188104Y-117526392D01*
X189178050Y-117506658D01*
X189088342Y-117416950D01*
X189036318Y-117364926D01*
X189009439Y-117324699D01*
X189000000Y-117277246D01*
X189000000Y-115634500D01*
X189016613Y-115572500D01*
X189062000Y-115527113D01*
X189124000Y-115510500D01*
X192375245Y-115510500D01*
X192422698Y-115519939D01*
X192462926Y-115546819D01*
X192678181Y-115762073D01*
X192705061Y-115802301D01*
X192714500Y-115849754D01*
X192714500Y-116657367D01*
X192717414Y-116682488D01*
X192762795Y-116785267D01*
X192842232Y-116864704D01*
X192842233Y-116864704D01*
X192842235Y-116864706D01*
X192945009Y-116910085D01*
X192970135Y-116913000D01*
X193809864Y-116912999D01*
X193809867Y-116912999D01*
X193822427Y-116911542D01*
X193834991Y-116910085D01*
X193937765Y-116864706D01*
X194017206Y-116785265D01*
X194062585Y-116682491D01*
X194065500Y-116657365D01*
X194065499Y-115623999D01*
X194082112Y-115562000D01*
X194127499Y-115516613D01*
X194189499Y-115500000D01*
X197948638Y-115500000D01*
X197996091Y-115509439D01*
G37*
%TD.AperFunction*%
%TD*%
%TA.AperFunction,Conductor*%
%TO.N,GND*%
G36*
X184982797Y-64247616D02*
G01*
X185016447Y-64296826D01*
X185028814Y-64329984D01*
X185110669Y-64439330D01*
X185220013Y-64521183D01*
X185362586Y-64574361D01*
X185362427Y-64574787D01*
X185405813Y-64591369D01*
X185446077Y-64640176D01*
X185457019Y-64702495D01*
X185435790Y-64762099D01*
X185387918Y-64803471D01*
X185298190Y-64847335D01*
X185231215Y-64914311D01*
X185175628Y-64946405D01*
X185111440Y-64946405D01*
X185055853Y-64914311D01*
X185002093Y-64860551D01*
X184892020Y-64804465D01*
X184880000Y-64802561D01*
X184880000Y-65100000D01*
X185786000Y-65100000D01*
X185848000Y-65116613D01*
X185893387Y-65162000D01*
X185910000Y-65224000D01*
X185910000Y-65476000D01*
X185893387Y-65538000D01*
X185848000Y-65583387D01*
X185786000Y-65600000D01*
X184880000Y-65600000D01*
X184880000Y-65897438D01*
X184892017Y-65895535D01*
X185002094Y-65839447D01*
X185055853Y-65785689D01*
X185111440Y-65753595D01*
X185175628Y-65753595D01*
X185231215Y-65785689D01*
X185298189Y-65852663D01*
X185309988Y-65858431D01*
X185360717Y-65904169D01*
X185379530Y-65969831D01*
X185360719Y-66035493D01*
X185309992Y-66081233D01*
X185277899Y-66096922D01*
X185244770Y-66130051D01*
X185211638Y-66163183D01*
X185171413Y-66190061D01*
X185123960Y-66199500D01*
X184374000Y-66199500D01*
X184312000Y-66182887D01*
X184266613Y-66137500D01*
X184250000Y-66075500D01*
X184250000Y-66022035D01*
X184261391Y-65970121D01*
X184293469Y-65927744D01*
X184340343Y-65902690D01*
X184376335Y-65900568D01*
X184380000Y-65897439D01*
X184380000Y-64802562D01*
X184364346Y-64789191D01*
X184330590Y-64743006D01*
X184321159Y-64686583D01*
X184338060Y-64631930D01*
X184377696Y-64590681D01*
X184431626Y-64571614D01*
X184452114Y-64569412D01*
X184580226Y-64521628D01*
X184689687Y-64439687D01*
X184771628Y-64330226D01*
X184784086Y-64296824D01*
X184817733Y-64247618D01*
X184870457Y-64219797D01*
X184930072Y-64219797D01*
X184982797Y-64247616D01*
G37*
%TD.AperFunction*%
%TD*%
%TA.AperFunction,Conductor*%
%TO.N,GND*%
G36*
X121319698Y-109509439D02*
G01*
X121359926Y-109536319D01*
X121963681Y-110140074D01*
X121990561Y-110180302D01*
X122000000Y-110227755D01*
X122000000Y-115448638D01*
X121990561Y-115496091D01*
X121963681Y-115536319D01*
X121536319Y-115963681D01*
X121496091Y-115990561D01*
X121448638Y-116000000D01*
X116551362Y-116000000D01*
X116503909Y-115990561D01*
X116463681Y-115963681D01*
X116036319Y-115536319D01*
X116009439Y-115496091D01*
X116000000Y-115448638D01*
X116000000Y-110207755D01*
X116009439Y-110160302D01*
X116036319Y-110120074D01*
X116620074Y-109536319D01*
X116660302Y-109509439D01*
X116707755Y-109500000D01*
X121272245Y-109500000D01*
X121319698Y-109509439D01*
G37*
%TD.AperFunction*%
%TD*%
%TA.AperFunction,Conductor*%
%TO.N,/Power/5V_SW*%
G36*
X181247879Y-66256363D02*
G01*
X181283065Y-66274799D01*
X181730747Y-66610560D01*
X181762562Y-66645773D01*
X181778819Y-66690361D01*
X181784353Y-66725302D01*
X181841950Y-66838343D01*
X181931656Y-66928049D01*
X181931658Y-66928050D01*
X182044696Y-66985646D01*
X182075957Y-66990597D01*
X182138479Y-67000500D01*
X182387563Y-67000500D01*
X182448152Y-67016311D01*
X182493291Y-67059711D01*
X182511467Y-67119632D01*
X182498047Y-67180796D01*
X182456454Y-67227601D01*
X182393898Y-67269399D01*
X182393899Y-67269399D01*
X182338533Y-67352261D01*
X182331170Y-67389278D01*
X182318911Y-67423538D01*
X182297235Y-67452765D01*
X182249999Y-67500000D01*
X182250000Y-67500001D01*
X182250000Y-67848638D01*
X182240561Y-67896091D01*
X182213681Y-67936319D01*
X181936319Y-68213681D01*
X181896091Y-68240561D01*
X181848638Y-68250000D01*
X178474500Y-68250000D01*
X178412500Y-68233387D01*
X178367113Y-68188000D01*
X178350500Y-68126000D01*
X178350500Y-66479755D01*
X178359939Y-66432302D01*
X178386819Y-66392074D01*
X178492574Y-66286319D01*
X178532802Y-66259439D01*
X178580255Y-66250000D01*
X181208667Y-66250000D01*
X181247879Y-66256363D01*
G37*
%TD.AperFunction*%
%TD*%
%TA.AperFunction,Conductor*%
%TO.N,VIN_RAW*%
G36*
X197438000Y-68016613D02*
G01*
X197483387Y-68062000D01*
X197500000Y-68124000D01*
X197500000Y-77876000D01*
X197483387Y-77938000D01*
X197438000Y-77983387D01*
X197376000Y-78000000D01*
X188617755Y-78000000D01*
X188570302Y-77990561D01*
X188530074Y-77963681D01*
X186706393Y-76140000D01*
X193250000Y-76140000D01*
X193250000Y-77164625D01*
X193264504Y-77237543D01*
X193319760Y-77320239D01*
X193402456Y-77375495D01*
X193475375Y-77390000D01*
X194500000Y-77390000D01*
X194500000Y-76140000D01*
X195500000Y-76140000D01*
X195500000Y-77390000D01*
X196524625Y-77390000D01*
X196597543Y-77375495D01*
X196680239Y-77320239D01*
X196735495Y-77237543D01*
X196750000Y-77164625D01*
X196750000Y-76140000D01*
X195500000Y-76140000D01*
X194500000Y-76140000D01*
X193250000Y-76140000D01*
X186706393Y-76140000D01*
X186286319Y-75719926D01*
X186259439Y-75679698D01*
X186250000Y-75632245D01*
X186250000Y-75140000D01*
X193250000Y-75140000D01*
X194500000Y-75140000D01*
X194500000Y-73890000D01*
X195500000Y-73890000D01*
X195500000Y-75140000D01*
X196750000Y-75140000D01*
X196750000Y-74115375D01*
X196735495Y-74042456D01*
X196680239Y-73959760D01*
X196597543Y-73904504D01*
X196524625Y-73890000D01*
X195500000Y-73890000D01*
X194500000Y-73890000D01*
X193475375Y-73890000D01*
X193402456Y-73904504D01*
X193319760Y-73959760D01*
X193264504Y-74042456D01*
X193250000Y-74115375D01*
X193250000Y-75140000D01*
X186250000Y-75140000D01*
X186250000Y-70968205D01*
X186258482Y-70923133D01*
X186282766Y-70884227D01*
X186296227Y-70869603D01*
X186299756Y-70865924D01*
X186605680Y-70560000D01*
X193244591Y-70560000D01*
X193264197Y-70821627D01*
X193322580Y-71077418D01*
X193418431Y-71321641D01*
X193418432Y-71321643D01*
X193549614Y-71548857D01*
X193713195Y-71753981D01*
X193713197Y-71753983D01*
X193713198Y-71753984D01*
X193905514Y-71932428D01*
X193905520Y-71932432D01*
X193905521Y-71932433D01*
X194122296Y-72080228D01*
X194358677Y-72194063D01*
X194609385Y-72271396D01*
X194868818Y-72310500D01*
X195131182Y-72310500D01*
X195390615Y-72271396D01*
X195641323Y-72194063D01*
X195877704Y-72080228D01*
X196094479Y-71932433D01*
X196094482Y-71932429D01*
X196094485Y-71932428D01*
X196179792Y-71853273D01*
X196286805Y-71753981D01*
X196450386Y-71548857D01*
X196581568Y-71321643D01*
X196677420Y-71077416D01*
X196735802Y-70821630D01*
X196755408Y-70560000D01*
X196735802Y-70298370D01*
X196677420Y-70042584D01*
X196581568Y-69798357D01*
X196450386Y-69571143D01*
X196286805Y-69366019D01*
X196271777Y-69352075D01*
X196094485Y-69187571D01*
X195987541Y-69114658D01*
X195877704Y-69039772D01*
X195641323Y-68925937D01*
X195390615Y-68848604D01*
X195131182Y-68809500D01*
X194868818Y-68809500D01*
X194609385Y-68848604D01*
X194358677Y-68925937D01*
X194122296Y-69039772D01*
X194052922Y-69087070D01*
X193905514Y-69187571D01*
X193713198Y-69366015D01*
X193549613Y-69571143D01*
X193418431Y-69798358D01*
X193322580Y-70042581D01*
X193264197Y-70298372D01*
X193244591Y-70560000D01*
X186605680Y-70560000D01*
X187543046Y-69622634D01*
X187562903Y-69606510D01*
X187570669Y-69601437D01*
X187588496Y-69578531D01*
X187598232Y-69567506D01*
X187598371Y-69567310D01*
X187598375Y-69567307D01*
X187609554Y-69551648D01*
X187612604Y-69547556D01*
X187642517Y-69509126D01*
X187642517Y-69509124D01*
X187647107Y-69503228D01*
X187649239Y-69496067D01*
X187663131Y-69449401D01*
X187664686Y-69444549D01*
X187680500Y-69398488D01*
X187680500Y-69398485D01*
X187682925Y-69391421D01*
X187682616Y-69383956D01*
X187682617Y-69383954D01*
X187680605Y-69335331D01*
X187680500Y-69330208D01*
X187680500Y-68975000D01*
X187950000Y-68975000D01*
X187950000Y-69024625D01*
X187964504Y-69097543D01*
X188019760Y-69180239D01*
X188102456Y-69235495D01*
X188175375Y-69250000D01*
X188200000Y-69250000D01*
X188200000Y-68975000D01*
X188550000Y-68975000D01*
X188550000Y-69250000D01*
X188850000Y-69250000D01*
X188850000Y-68975000D01*
X189850000Y-68975000D01*
X189850000Y-69250000D01*
X190150000Y-69250000D01*
X190150000Y-68975000D01*
X190500000Y-68975000D01*
X190500000Y-69250000D01*
X190524625Y-69250000D01*
X190597543Y-69235495D01*
X190680239Y-69180239D01*
X190735495Y-69097543D01*
X190750000Y-69024625D01*
X190750000Y-68975000D01*
X190500000Y-68975000D01*
X190150000Y-68975000D01*
X189850000Y-68975000D01*
X188850000Y-68975000D01*
X188550000Y-68975000D01*
X188200000Y-68975000D01*
X187950000Y-68975000D01*
X187680500Y-68975000D01*
X187680500Y-68325000D01*
X187950000Y-68325000D01*
X187950000Y-68374623D01*
X187965154Y-68450810D01*
X187965154Y-68499190D01*
X187950000Y-68575377D01*
X187950000Y-68625000D01*
X188200000Y-68625000D01*
X188200000Y-68325000D01*
X190500000Y-68325000D01*
X190500000Y-68625000D01*
X190750000Y-68625000D01*
X190750000Y-68575377D01*
X190734845Y-68499192D01*
X190734845Y-68450806D01*
X190750000Y-68374623D01*
X190750000Y-68325000D01*
X190500000Y-68325000D01*
X188200000Y-68325000D01*
X187950000Y-68325000D01*
X187680500Y-68325000D01*
X187680500Y-68124000D01*
X187697113Y-68062000D01*
X187742500Y-68016613D01*
X187804500Y-68000000D01*
X187915621Y-68000000D01*
X190784379Y-68000000D01*
X197376000Y-68000000D01*
X197438000Y-68016613D01*
G37*
%TD.AperFunction*%
%TD*%
%TA.AperFunction,Conductor*%
%TO.N,+3.3V*%
G36*
X167838000Y-70496613D02*
G01*
X167883387Y-70542000D01*
X167900000Y-70604000D01*
X167900000Y-70700000D01*
X170900000Y-70700000D01*
X170900000Y-70604000D01*
X170916613Y-70542000D01*
X170962000Y-70496613D01*
X171024000Y-70480000D01*
X171885000Y-70480000D01*
X174394909Y-70480000D01*
X174400000Y-70499000D01*
X174400000Y-71324999D01*
X174445433Y-71324999D01*
X174502006Y-71318917D01*
X174629986Y-71271183D01*
X174739330Y-71189330D01*
X174776733Y-71139366D01*
X174824488Y-71100882D01*
X174884846Y-71089992D01*
X174943039Y-71109361D01*
X174984832Y-71154249D01*
X175000000Y-71213676D01*
X175000000Y-72448638D01*
X174990561Y-72496091D01*
X174963681Y-72536319D01*
X174536319Y-72963681D01*
X174496091Y-72990561D01*
X174448638Y-73000000D01*
X165801362Y-73000000D01*
X165753909Y-72990561D01*
X165713681Y-72963681D01*
X165286319Y-72536319D01*
X165259439Y-72496091D01*
X165250000Y-72448638D01*
X165250000Y-71210000D01*
X165542676Y-71210000D01*
X165597335Y-71321809D01*
X165688190Y-71412664D01*
X165803627Y-71469098D01*
X165849999Y-71475854D01*
X165850000Y-71475854D01*
X165850000Y-71210000D01*
X166350000Y-71210000D01*
X166350000Y-71475852D01*
X166396373Y-71469096D01*
X166511810Y-71412663D01*
X166602664Y-71321809D01*
X166657324Y-71210000D01*
X166350000Y-71210000D01*
X165850000Y-71210000D01*
X165542676Y-71210000D01*
X165250000Y-71210000D01*
X165250000Y-71200000D01*
X167900000Y-71200000D01*
X167900000Y-71724625D01*
X167914504Y-71797543D01*
X167969760Y-71880239D01*
X168052456Y-71935495D01*
X168125375Y-71950000D01*
X169150000Y-71950000D01*
X169150000Y-71200000D01*
X169650000Y-71200000D01*
X169650000Y-71950000D01*
X170674625Y-71950000D01*
X170747543Y-71935495D01*
X170830239Y-71880239D01*
X170885495Y-71797543D01*
X170900000Y-71724625D01*
X170900000Y-71200000D01*
X169650000Y-71200000D01*
X169150000Y-71200000D01*
X167900000Y-71200000D01*
X165250000Y-71200000D01*
X165250000Y-71031362D01*
X165259439Y-70983909D01*
X165286319Y-70943681D01*
X165355000Y-70875000D01*
X171925001Y-70875000D01*
X171925001Y-70895433D01*
X171931082Y-70952006D01*
X171978816Y-71079986D01*
X172060669Y-71189330D01*
X172170013Y-71271183D01*
X172297992Y-71318917D01*
X172354567Y-71325000D01*
X172400000Y-71325000D01*
X172400000Y-70875000D01*
X172900000Y-70875000D01*
X172900000Y-71324999D01*
X172945433Y-71324999D01*
X173002006Y-71318917D01*
X173129986Y-71271183D01*
X173239330Y-71189330D01*
X173300733Y-71107305D01*
X173344495Y-71070731D01*
X173400000Y-71057615D01*
X173455505Y-71070731D01*
X173499267Y-71107305D01*
X173560669Y-71189330D01*
X173670013Y-71271183D01*
X173797992Y-71318917D01*
X173854567Y-71325000D01*
X173900000Y-71325000D01*
X173900000Y-70875000D01*
X172900000Y-70875000D01*
X172400000Y-70875000D01*
X171925001Y-70875000D01*
X165355000Y-70875000D01*
X165483683Y-70746316D01*
X165523908Y-70719439D01*
X165571361Y-70710000D01*
X166657324Y-70710000D01*
X166657324Y-70709999D01*
X166632128Y-70658460D01*
X166619695Y-70597595D01*
X166638341Y-70538338D01*
X166683388Y-70495561D01*
X166743529Y-70480000D01*
X167776000Y-70480000D01*
X167838000Y-70496613D01*
G37*
%TD.AperFunction*%
%TD*%
%TA.AperFunction,Conductor*%
%TO.N,/Motor Drivers/M2_SP*%
G36*
X156187500Y-118016613D02*
G01*
X156232887Y-118062000D01*
X156249500Y-118124000D01*
X156249500Y-121270500D01*
X156232887Y-121332500D01*
X156187500Y-121377887D01*
X156125500Y-121394500D01*
X155452130Y-121394500D01*
X155392515Y-121400909D01*
X155257669Y-121451204D01*
X155142454Y-121537454D01*
X155056204Y-121652668D01*
X155005909Y-121787516D01*
X154999500Y-121847130D01*
X154999500Y-122692869D01*
X155005031Y-122744318D01*
X155005909Y-122752483D01*
X155035816Y-122832668D01*
X155042667Y-122891453D01*
X155021490Y-122946720D01*
X154977109Y-122985876D01*
X154919634Y-123000000D01*
X145624000Y-123000000D01*
X145562000Y-122983387D01*
X145516613Y-122938000D01*
X145500000Y-122876000D01*
X145500000Y-119459500D01*
X145516613Y-119397500D01*
X145562000Y-119352113D01*
X145624000Y-119335500D01*
X146547852Y-119335499D01*
X146547872Y-119335499D01*
X146607483Y-119329091D01*
X146742331Y-119278796D01*
X146857546Y-119192546D01*
X146943796Y-119077331D01*
X146994091Y-118942483D01*
X147000500Y-118882873D01*
X147000499Y-118360095D01*
X147009938Y-118312643D01*
X147036815Y-118272418D01*
X147272914Y-118036319D01*
X147313143Y-118009439D01*
X147360596Y-118000000D01*
X156125500Y-118000000D01*
X156187500Y-118016613D01*
G37*
%TD.AperFunction*%
%TD*%
%TA.AperFunction,Conductor*%
%TO.N,GND*%
G36*
X197996091Y-98009439D02*
G01*
X198036319Y-98036319D01*
X198463681Y-98463681D01*
X198490561Y-98503909D01*
X198500000Y-98551362D01*
X198500000Y-101948638D01*
X198490561Y-101996091D01*
X198463681Y-102036319D01*
X198036319Y-102463681D01*
X197996091Y-102490561D01*
X197948638Y-102500000D01*
X192051362Y-102500000D01*
X192003909Y-102490561D01*
X191963681Y-102463681D01*
X191536319Y-102036319D01*
X191509439Y-101996091D01*
X191500000Y-101948638D01*
X191500000Y-98551362D01*
X191509439Y-98503909D01*
X191536319Y-98463681D01*
X191963681Y-98036319D01*
X192003909Y-98009439D01*
X192051362Y-98000000D01*
X197948638Y-98000000D01*
X197996091Y-98009439D01*
G37*
%TD.AperFunction*%
%TD*%
%TA.AperFunction,Conductor*%
%TO.N,/Motor Drivers/M3_SP*%
G36*
X188187500Y-118016613D02*
G01*
X188232887Y-118062000D01*
X188249500Y-118124000D01*
X188249500Y-121540500D01*
X188232887Y-121602500D01*
X188187500Y-121647887D01*
X188125500Y-121664500D01*
X187452130Y-121664500D01*
X187392515Y-121670909D01*
X187257669Y-121721204D01*
X187142454Y-121807454D01*
X187056204Y-121922668D01*
X187005909Y-122057516D01*
X186999500Y-122117130D01*
X186999501Y-122876000D01*
X186982888Y-122938000D01*
X186937501Y-122983387D01*
X186875501Y-123000000D01*
X177624000Y-123000000D01*
X177562000Y-122983387D01*
X177516613Y-122938000D01*
X177500000Y-122876000D01*
X177500000Y-119729500D01*
X177516613Y-119667500D01*
X177562000Y-119622113D01*
X177624000Y-119605500D01*
X178547852Y-119605499D01*
X178547872Y-119605499D01*
X178607483Y-119599091D01*
X178742331Y-119548796D01*
X178857546Y-119462546D01*
X178943796Y-119347331D01*
X178994091Y-119212483D01*
X179000500Y-119152873D01*
X179000499Y-118307128D01*
X178994091Y-118247517D01*
X178964183Y-118167331D01*
X178957333Y-118108547D01*
X178978510Y-118053280D01*
X179022891Y-118014124D01*
X179080366Y-118000000D01*
X188125500Y-118000000D01*
X188187500Y-118016613D01*
G37*
%TD.AperFunction*%
%TD*%
%TA.AperFunction,Conductor*%
%TO.N,/Motor Drivers/M3_OUT_A*%
G36*
X198500000Y-118500000D02*
G01*
X198500000Y-128835310D01*
X198486694Y-128891191D01*
X198449633Y-128935080D01*
X198396770Y-128957558D01*
X198308991Y-128972471D01*
X197974353Y-129068879D01*
X197652625Y-129202144D01*
X197347836Y-129370595D01*
X197063818Y-129572115D01*
X196804161Y-129804161D01*
X196572115Y-130063818D01*
X196370595Y-130347836D01*
X196202144Y-130652625D01*
X196089964Y-130923453D01*
X196063084Y-130963681D01*
X196022856Y-130990561D01*
X195975403Y-131000000D01*
X184051362Y-131000000D01*
X184003909Y-130990561D01*
X183963681Y-130963681D01*
X183536319Y-130536319D01*
X183509439Y-130496091D01*
X183500000Y-130448638D01*
X183500000Y-123629500D01*
X183516613Y-123567500D01*
X183562000Y-123522113D01*
X183624000Y-123505500D01*
X186875502Y-123505500D01*
X186901667Y-123502054D01*
X187006335Y-123488275D01*
X187068335Y-123471662D01*
X187190251Y-123421163D01*
X187294943Y-123340829D01*
X187340330Y-123295442D01*
X187364448Y-123264010D01*
X187407976Y-123228287D01*
X187462816Y-123215499D01*
X188544864Y-123215499D01*
X188544867Y-123215499D01*
X188557427Y-123214041D01*
X188569991Y-123212585D01*
X188672765Y-123167206D01*
X188752206Y-123087765D01*
X188797585Y-122984991D01*
X188800500Y-122959865D01*
X188800499Y-122817253D01*
X188809938Y-122769802D01*
X188836815Y-122729576D01*
X189155483Y-122410909D01*
X189178050Y-122388342D01*
X189188107Y-122368601D01*
X189198277Y-122352008D01*
X189211295Y-122334091D01*
X189211294Y-122334091D01*
X189211296Y-122334090D01*
X189218141Y-122313020D01*
X189225584Y-122295050D01*
X189235646Y-122275304D01*
X189239113Y-122253408D01*
X189243652Y-122234501D01*
X189250499Y-122213433D01*
X189250499Y-122191788D01*
X189250500Y-122191776D01*
X189250500Y-118000000D01*
X198000000Y-118000000D01*
X198500000Y-118500000D01*
G37*
%TD.AperFunction*%
%TD*%
%TA.AperFunction,Conductor*%
%TO.N,/Motor Drivers/M1_OUT_A*%
G36*
X134750000Y-118500000D02*
G01*
X134750000Y-128792833D01*
X134736695Y-128848714D01*
X134699634Y-128892603D01*
X134646771Y-128915081D01*
X134308990Y-128972472D01*
X133974353Y-129068879D01*
X133652625Y-129202144D01*
X133347836Y-129370595D01*
X133063818Y-129572115D01*
X132804161Y-129804161D01*
X132572115Y-130063818D01*
X132370595Y-130347836D01*
X132202144Y-130652625D01*
X132089964Y-130923453D01*
X132063084Y-130963681D01*
X132022856Y-130990561D01*
X131975403Y-131000000D01*
X120051362Y-131000000D01*
X120003909Y-130990561D01*
X119963681Y-130963681D01*
X119536319Y-130536319D01*
X119509439Y-130496091D01*
X119500000Y-130448638D01*
X119500000Y-123629500D01*
X119516613Y-123567500D01*
X119562000Y-123522113D01*
X119624000Y-123505500D01*
X122919634Y-123505500D01*
X123040267Y-123490895D01*
X123097742Y-123476771D01*
X123211412Y-123433796D01*
X123311541Y-123364935D01*
X123355922Y-123325779D01*
X123436720Y-123235015D01*
X123493523Y-123127592D01*
X123514700Y-123072325D01*
X123522954Y-123039370D01*
X123547386Y-122990834D01*
X123590222Y-122957404D01*
X123643239Y-122945499D01*
X124544867Y-122945499D01*
X124557427Y-122944041D01*
X124569991Y-122942585D01*
X124672765Y-122897206D01*
X124752206Y-122817765D01*
X124797585Y-122714991D01*
X124800500Y-122689865D01*
X124800499Y-122382253D01*
X124809938Y-122334801D01*
X124836815Y-122294576D01*
X125145483Y-121985909D01*
X125173559Y-121957833D01*
X125176397Y-121946958D01*
X125178110Y-121943595D01*
X125188274Y-121927011D01*
X125201296Y-121909090D01*
X125208141Y-121888020D01*
X125215584Y-121870050D01*
X125225646Y-121850304D01*
X125229113Y-121828408D01*
X125233652Y-121809501D01*
X125240499Y-121788433D01*
X125240499Y-121766788D01*
X125240500Y-121766776D01*
X125240500Y-118000000D01*
X134250000Y-118000000D01*
X134750000Y-118500000D01*
G37*
%TD.AperFunction*%
%TD*%
%TA.AperFunction,Conductor*%
%TO.N,/Motor Drivers/M3_OUT_B*%
G36*
X177465021Y-118032034D02*
G01*
X177426086Y-118059146D01*
X177395768Y-118072533D01*
X177327233Y-118102794D01*
X177247795Y-118182232D01*
X177202415Y-118285009D01*
X177199500Y-118310136D01*
X177199500Y-119149867D01*
X177204576Y-119193628D01*
X177203409Y-119193763D01*
X177206781Y-119209159D01*
X177197719Y-119257639D01*
X177170477Y-119298751D01*
X177159170Y-119310057D01*
X177078836Y-119414750D01*
X177028339Y-119536661D01*
X177011724Y-119598669D01*
X176994500Y-119729499D01*
X176994500Y-122876001D01*
X177011724Y-123006830D01*
X177028339Y-123068838D01*
X177078836Y-123190749D01*
X177159170Y-123295442D01*
X177204557Y-123340829D01*
X177309250Y-123421163D01*
X177431166Y-123471662D01*
X177493166Y-123488275D01*
X177591291Y-123501193D01*
X177623999Y-123505500D01*
X182876000Y-123505500D01*
X182938000Y-123522113D01*
X182983387Y-123567500D01*
X183000000Y-123629500D01*
X183000000Y-130448638D01*
X182990561Y-130496091D01*
X182963681Y-130536319D01*
X182536319Y-130963681D01*
X182496091Y-130990561D01*
X182448638Y-131000000D01*
X170024597Y-131000000D01*
X169977144Y-130990561D01*
X169936916Y-130963681D01*
X169910036Y-130923453D01*
X169797855Y-130652625D01*
X169797855Y-130652624D01*
X169629405Y-130347836D01*
X169427888Y-130063824D01*
X169427884Y-130063818D01*
X169294082Y-129914095D01*
X169195839Y-129804161D01*
X169097594Y-129716364D01*
X168936181Y-129572115D01*
X168812453Y-129484326D01*
X168652164Y-129370595D01*
X168347376Y-129202145D01*
X168347374Y-129202144D01*
X168025646Y-129068879D01*
X167760999Y-128992635D01*
X167691013Y-128972473D01*
X167691011Y-128972472D01*
X167691009Y-128972472D01*
X167353229Y-128915081D01*
X167300366Y-128892603D01*
X167263305Y-128848714D01*
X167250000Y-128792833D01*
X167250000Y-118500000D01*
X167750000Y-118000000D01*
X177485894Y-118000000D01*
X177465021Y-118032034D01*
G37*
%TD.AperFunction*%
%TD*%
%TA.AperFunction,Conductor*%
%TO.N,/Motor Drivers/M1_OUT_B*%
G36*
X113202415Y-118015009D02*
G01*
X113199500Y-118040136D01*
X113199500Y-118879867D01*
X113204576Y-118923628D01*
X113203409Y-118923763D01*
X113206781Y-118939159D01*
X113197719Y-118987639D01*
X113170477Y-119028751D01*
X113159170Y-119040057D01*
X113078836Y-119144750D01*
X113028339Y-119266661D01*
X113011724Y-119328669D01*
X112994500Y-119459499D01*
X112994500Y-122876001D01*
X113011724Y-123006830D01*
X113028339Y-123068838D01*
X113078836Y-123190749D01*
X113159170Y-123295442D01*
X113204557Y-123340829D01*
X113309250Y-123421163D01*
X113431166Y-123471662D01*
X113493166Y-123488275D01*
X113591291Y-123501193D01*
X113623999Y-123505500D01*
X118876000Y-123505500D01*
X118938000Y-123522113D01*
X118983387Y-123567500D01*
X119000000Y-123629500D01*
X119000000Y-130448638D01*
X118990561Y-130496091D01*
X118963681Y-130536319D01*
X118536319Y-130963681D01*
X118496091Y-130990561D01*
X118448638Y-131000000D01*
X106024597Y-131000000D01*
X105977144Y-130990561D01*
X105936916Y-130963681D01*
X105910036Y-130923453D01*
X105797855Y-130652625D01*
X105797855Y-130652624D01*
X105629405Y-130347836D01*
X105427888Y-130063824D01*
X105427884Y-130063818D01*
X105294082Y-129914095D01*
X105195839Y-129804161D01*
X105097594Y-129716364D01*
X104936181Y-129572115D01*
X104812453Y-129484326D01*
X104652164Y-129370595D01*
X104347376Y-129202145D01*
X104347374Y-129202144D01*
X104025646Y-129068879D01*
X103691008Y-128972471D01*
X103603230Y-128957558D01*
X103550367Y-128935080D01*
X103513306Y-128891191D01*
X103500000Y-128835310D01*
X103500000Y-118500000D01*
X104000000Y-118000000D01*
X113209042Y-118000000D01*
X113202415Y-118015009D01*
G37*
%TD.AperFunction*%
%TD*%
%TA.AperFunction,Conductor*%
%TO.N,/Motor Drivers/M2_OUT_B*%
G36*
X145202415Y-118015009D02*
G01*
X145199500Y-118040136D01*
X145199500Y-118879867D01*
X145204576Y-118923628D01*
X145203409Y-118923763D01*
X145206781Y-118939159D01*
X145197719Y-118987639D01*
X145170477Y-119028751D01*
X145159170Y-119040057D01*
X145078836Y-119144750D01*
X145028339Y-119266661D01*
X145011724Y-119328669D01*
X144994500Y-119459499D01*
X144994500Y-122876001D01*
X145011724Y-123006830D01*
X145028339Y-123068838D01*
X145078836Y-123190749D01*
X145159170Y-123295442D01*
X145204557Y-123340829D01*
X145309250Y-123421163D01*
X145431166Y-123471662D01*
X145493166Y-123488275D01*
X145591291Y-123501193D01*
X145623999Y-123505500D01*
X150876000Y-123505500D01*
X150938000Y-123522113D01*
X150983387Y-123567500D01*
X151000000Y-123629500D01*
X151000000Y-130448638D01*
X150990561Y-130496091D01*
X150963681Y-130536319D01*
X150536319Y-130963681D01*
X150496091Y-130990561D01*
X150448638Y-131000000D01*
X138024597Y-131000000D01*
X137977144Y-130990561D01*
X137936916Y-130963681D01*
X137910036Y-130923453D01*
X137797855Y-130652625D01*
X137797855Y-130652624D01*
X137629405Y-130347836D01*
X137427888Y-130063824D01*
X137427884Y-130063818D01*
X137294082Y-129914095D01*
X137195839Y-129804161D01*
X137097594Y-129716364D01*
X136936181Y-129572115D01*
X136812453Y-129484326D01*
X136652164Y-129370595D01*
X136347376Y-129202145D01*
X136347374Y-129202144D01*
X136025646Y-129068879D01*
X135760999Y-128992635D01*
X135691013Y-128972473D01*
X135691011Y-128972472D01*
X135691009Y-128972472D01*
X135353229Y-128915081D01*
X135300366Y-128892603D01*
X135263305Y-128848714D01*
X135250000Y-128792833D01*
X135250000Y-118500000D01*
X135750000Y-118000000D01*
X145209042Y-118000000D01*
X145202415Y-118015009D01*
G37*
%TD.AperFunction*%
%TD*%
%TA.AperFunction,Conductor*%
%TO.N,/Motor Drivers/M2_OUT_A*%
G36*
X166750000Y-118500000D02*
G01*
X166750000Y-128792833D01*
X166736695Y-128848714D01*
X166699634Y-128892603D01*
X166646771Y-128915081D01*
X166308990Y-128972472D01*
X165974353Y-129068879D01*
X165652625Y-129202144D01*
X165347836Y-129370595D01*
X165063818Y-129572115D01*
X164804161Y-129804161D01*
X164572115Y-130063818D01*
X164370595Y-130347836D01*
X164202144Y-130652625D01*
X164089964Y-130923453D01*
X164063084Y-130963681D01*
X164022856Y-130990561D01*
X163975403Y-131000000D01*
X152051362Y-131000000D01*
X152003909Y-130990561D01*
X151963681Y-130963681D01*
X151536319Y-130536319D01*
X151509439Y-130496091D01*
X151500000Y-130448638D01*
X151500000Y-123629500D01*
X151516613Y-123567500D01*
X151562000Y-123522113D01*
X151624000Y-123505500D01*
X154919634Y-123505500D01*
X155040267Y-123490895D01*
X155097742Y-123476771D01*
X155211412Y-123433796D01*
X155311541Y-123364935D01*
X155355922Y-123325779D01*
X155436720Y-123235015D01*
X155493523Y-123127592D01*
X155514700Y-123072325D01*
X155522954Y-123039370D01*
X155547386Y-122990834D01*
X155590222Y-122957404D01*
X155643239Y-122945499D01*
X156544867Y-122945499D01*
X156557427Y-122944041D01*
X156569991Y-122942585D01*
X156672765Y-122897206D01*
X156752206Y-122817765D01*
X156797585Y-122714991D01*
X156800500Y-122689865D01*
X156800499Y-122392253D01*
X156809938Y-122344801D01*
X156836815Y-122304576D01*
X157155483Y-121985909D01*
X157183559Y-121957833D01*
X157186397Y-121946958D01*
X157188110Y-121943595D01*
X157198274Y-121927011D01*
X157211296Y-121909090D01*
X157218141Y-121888020D01*
X157225584Y-121870050D01*
X157235646Y-121850304D01*
X157239113Y-121828408D01*
X157243652Y-121809501D01*
X157250499Y-121788433D01*
X157250499Y-121766788D01*
X157250500Y-121766776D01*
X157250500Y-118000000D01*
X166250000Y-118000000D01*
X166750000Y-118500000D01*
G37*
%TD.AperFunction*%
%TD*%
M02*
