M48
; DRILL file {KiCad 7.0.1} date Mon Jul 17 00:52:38 2023
; FORMAT={-:-/ absolute / inch / decimal}
; #@! TF.CreationDate,2023-07-17T00:52:38+01:00
; #@! TF.GenerationSoftware,Kicad,Pcbnew,7.0.1
; #@! TF.FileFunction,Plated,1,4,PTH
FMAT,2
INCH
; #@! TA.AperFunction,Plated,PTH,ViaDrill
T1C0.0079
; #@! TA.AperFunction,Plated,PTH,ComponentDrill
T2C0.0236
; #@! TA.AperFunction,Plated,PTH,ComponentDrill
T3C0.0374
; #@! TA.AperFunction,Plated,PTH,ComponentDrill
T4C0.0394
; #@! TA.AperFunction,Plated,PTH,ComponentDrill
T5C0.0598
; #@! TA.AperFunction,Plated,PTH,ComponentDrill
T6C0.1063
; #@! TA.AperFunction,Plated,PTH,ComponentDrill
T7C0.1260
; #@! TA.AperFunction,Plated,PTH,ComponentDrill
T8C0.1772
%
G90
G05
T1
X4.1043Y-3.8976
X4.1043Y-3.9469
X4.1043Y-3.9961
X4.1535Y-3.8976
X4.1535Y-3.9469
X4.1535Y-3.9961
X4.2717Y-3.8976
X4.2717Y-3.9469
X4.2717Y-3.9961
X4.2913Y-4.3701
X4.2913Y-4.4094
X4.2913Y-4.4488
X4.2913Y-4.4882
X4.2913Y-4.6791
X4.2913Y-4.7185
X4.2913Y-4.7579
X4.2913Y-4.7972
X4.2999Y-2.9173
X4.3001Y-2.799
X4.3003Y-3.0354
X4.3209Y-3.8976
X4.3209Y-3.9469
X4.3209Y-3.9961
X4.3307Y-4.3701
X4.3307Y-4.4094
X4.3307Y-4.4488
X4.3307Y-4.4882
X4.3307Y-4.6791
X4.3307Y-4.7185
X4.3307Y-4.7579
X4.3307Y-4.7972
X4.361Y-2.6528
X4.3611Y-2.9471
X4.3701Y-4.3701
X4.3701Y-4.4094
X4.3701Y-4.4488
X4.3701Y-4.4882
X4.3701Y-4.6791
X4.3701Y-4.7185
X4.3701Y-4.7579
X4.3701Y-4.7972
X4.4094Y-4.3701
X4.4094Y-4.4094
X4.4094Y-4.4488
X4.4094Y-4.4882
X4.4094Y-4.6791
X4.4094Y-4.7185
X4.4094Y-4.7579
X4.4094Y-4.7972
X4.5866Y-4.3504
X4.5866Y-4.5276
X4.6063Y-4.3307
X4.6063Y-4.3701
X4.6063Y-4.5079
X4.6063Y-4.5472
X4.626Y-4.3504
X4.626Y-4.5276
X4.6457Y-4.0945
X4.6457Y-4.1339
X4.6457Y-4.1732
X4.6457Y-4.3307
X4.6457Y-4.3701
X4.6457Y-4.5079
X4.6457Y-4.5472
X4.6476Y-2.5232
X4.6476Y-2.8169
X4.6476Y-2.9909
X4.648Y-2.6965
X4.6654Y-4.3504
X4.6654Y-4.5276
X4.685Y-4.0945
X4.685Y-4.1339
X4.685Y-4.1732
X4.685Y-4.3307
X4.685Y-4.3701
X4.685Y-4.5079
X4.685Y-4.5472
X4.7047Y-4.3504
X4.7047Y-4.5276
X4.7067Y-3.0386
X4.7071Y-3.0008
X4.7244Y-4.0945
X4.7244Y-4.1339
X4.7244Y-4.1732
X4.7244Y-4.3307
X4.7244Y-4.3701
X4.7244Y-4.5079
X4.7244Y-4.5472
X4.7289Y-2.712
X4.7372Y-3.3069
X4.7441Y-4.3504
X4.7441Y-4.5276
X4.7638Y-4.3307
X4.7638Y-4.3701
X4.7638Y-4.5079
X4.7638Y-4.5472
X4.7835Y-4.3504
X4.7835Y-4.5276
X4.8327Y-3.9665
X4.8327Y-4.0059
X4.8587Y-2.4433
X4.8862Y-4.1224
X4.8945Y-2.7311
X4.8976Y-3.1322
X4.9606Y-4.3701
X4.9606Y-4.4094
X4.9606Y-4.4488
X4.9606Y-4.4882
X4.9606Y-4.6791
X4.9606Y-4.7185
X4.9606Y-4.7579
X4.9606Y-4.7972
X4.996Y-3.074
X4.9964Y-3.2634
X5.0Y-2.9528
X5.0Y-4.3701
X5.0Y-4.4094
X5.0Y-4.4488
X5.0Y-4.4882
X5.0Y-4.6791
X5.0Y-4.7185
X5.0Y-4.7579
X5.0Y-4.7972
X5.0011Y-3.1697
X5.0256Y-3.2917
X5.0259Y-3.0465
X5.0394Y-4.3701
X5.0394Y-4.4094
X5.0394Y-4.4488
X5.0394Y-4.4882
X5.0394Y-4.6791
X5.0394Y-4.7185
X5.0394Y-4.7579
X5.0394Y-4.7972
X5.0531Y-2.561
X5.0535Y-2.6945
X5.0653Y-3.0472
X5.0693Y-2.6299
X5.0693Y-2.6677
X5.0693Y-2.8551
X5.0693Y-2.8929
X5.0787Y-4.3701
X5.0787Y-4.4094
X5.0787Y-4.4488
X5.0787Y-4.4882
X5.0787Y-4.6791
X5.0787Y-4.7185
X5.0787Y-4.7579
X5.0787Y-4.7972
X5.1807Y-2.4209
X5.1969Y-3.435
X5.2165Y-2.7067
X5.2165Y-3.0413
X5.2165Y-3.8976
X5.2165Y-3.9469
X5.2165Y-3.9961
X5.2362Y-3.435
X5.2657Y-3.8976
X5.2657Y-3.9469
X5.2657Y-3.9961
X5.2744Y-2.4217
X5.2744Y-3.4354
X5.315Y-3.8976
X5.315Y-3.9469
X5.315Y-3.9961
X5.3642Y-2.628
X5.3642Y-3.8976
X5.3642Y-3.9469
X5.3642Y-3.9961
X5.374Y-3.435
X5.4134Y-2.6772
X5.4134Y-3.8976
X5.4134Y-3.9469
X5.4134Y-3.9961
X5.4232Y-3.4724
X5.4323Y-2.4213
X5.4626Y-2.5906
X5.465Y-2.4213
X5.4823Y-3.4724
X5.5122Y-3.4744
X5.5504Y-3.4744
X5.5512Y-4.6791
X5.5512Y-4.7185
X5.5512Y-4.7579
X5.5512Y-4.7972
X5.5514Y-4.372
X5.5514Y-4.4114
X5.5514Y-4.4508
X5.5514Y-4.4902
X5.5587Y-2.4209
X5.5906Y-4.6791
X5.5906Y-4.7185
X5.5906Y-4.7579
X5.5906Y-4.7972
X5.5907Y-4.372
X5.5907Y-4.4114
X5.5907Y-4.4508
X5.5907Y-4.4902
X5.6299Y-4.6791
X5.6299Y-4.7185
X5.6299Y-4.7579
X5.6299Y-4.7972
X5.6301Y-4.372
X5.6301Y-4.4114
X5.6301Y-4.4508
X5.6301Y-4.4902
X5.6618Y-2.4213
X5.6693Y-4.6791
X5.6693Y-4.7185
X5.6693Y-4.7579
X5.6693Y-4.7972
X5.6695Y-4.372
X5.6695Y-4.4114
X5.6695Y-4.4508
X5.6695Y-4.4902
X5.6791Y-3.2874
X5.6988Y-3.7756
X5.7094Y-3.435
X5.7476Y-3.435
X5.7555Y-2.4209
X5.7677Y-4.0551
X5.7874Y-3.2874
X5.8071Y-2.5886
X5.8168Y-3.2861
X5.8366Y-2.6073
X5.8465Y-3.2874
X5.8465Y-4.3504
X5.8465Y-4.5276
X5.8661Y-4.3307
X5.8661Y-4.3701
X5.8661Y-4.5079
X5.8661Y-4.5472
X5.8858Y-4.3504
X5.8858Y-4.5276
X5.9055Y-4.0945
X5.9055Y-4.1339
X5.9055Y-4.1732
X5.9055Y-4.3307
X5.9055Y-4.3701
X5.9055Y-4.5079
X5.9055Y-4.5472
X5.9155Y-3.4714
X5.9252Y-4.3504
X5.9252Y-4.5276
X5.9265Y-2.6852
X5.935Y-2.537
X5.9358Y-2.6583
X5.9449Y-3.244
X5.9449Y-4.0945
X5.9449Y-4.1339
X5.9449Y-4.1732
X5.9449Y-4.3307
X5.9449Y-4.3701
X5.9449Y-4.5079
X5.9449Y-4.5472
X5.9512Y-3.4358
X5.9539Y-2.6764
X5.9547Y-2.9626
X5.9646Y-3.1201
X5.9646Y-4.3504
X5.9646Y-4.5276
X5.9843Y-4.0945
X5.9843Y-4.1339
X5.9843Y-4.1732
X5.9843Y-4.3307
X5.9843Y-4.3701
X5.9843Y-4.5079
X5.9843Y-4.5472
X5.9886Y-3.4354
X6.0039Y-4.3504
X6.0039Y-4.5276
X6.0174Y-3.4728
X6.0174Y-3.4996
X6.0178Y-3.5395
X6.0236Y-4.0551
X6.0236Y-4.3307
X6.0236Y-4.3701
X6.0236Y-4.5079
X6.0236Y-4.5472
X6.0433Y-4.3504
X6.0433Y-4.5276
X6.0472Y-3.3937
X6.0827Y-2.8937
X6.0925Y-3.9665
X6.0925Y-4.0059
X6.1118Y-2.8157
X6.1118Y-2.8539
X6.1122Y-2.5441
X6.1122Y-2.5819
X6.1122Y-2.6571
X6.1122Y-2.8937
X6.122Y-3.0039
X6.122Y-3.0984
X6.1417Y-4.122
X6.1858Y-3.0457
X6.1969Y-2.8327
X6.1986Y-2.672
X6.2008Y-3.3071
X6.2008Y-3.3465
X6.2008Y-3.3858
X6.2008Y-3.4252
X6.2106Y-2.9026
X6.2205Y-4.372
X6.2205Y-4.4114
X6.2205Y-4.4508
X6.2205Y-4.4902
X6.2205Y-4.6791
X6.2205Y-4.7185
X6.2205Y-4.7579
X6.2205Y-4.7972
X6.2244Y-3.7008
X6.2274Y-2.6723
X6.2365Y-3.4703
X6.2598Y-3.2008
X6.2598Y-4.372
X6.2598Y-4.4114
X6.2598Y-4.4508
X6.2598Y-4.4902
X6.2598Y-4.6791
X6.2598Y-4.7185
X6.2598Y-4.7579
X6.2598Y-4.7972
X6.2697Y-2.687
X6.2787Y-3.0961
X6.2795Y-3.3732
X6.2795Y-3.3976
X6.2894Y-2.7854
X6.2894Y-2.874
X6.2992Y-4.372
X6.2992Y-4.4114
X6.2992Y-4.4508
X6.2992Y-4.4902
X6.2992Y-4.6791
X6.2992Y-4.7185
X6.2992Y-4.7579
X6.2992Y-4.7972
X6.2998Y-2.6888
X6.3092Y-3.4713
X6.3386Y-4.372
X6.3386Y-4.4114
X6.3386Y-4.4508
X6.3386Y-4.4902
X6.3386Y-4.6791
X6.3386Y-4.7185
X6.3386Y-4.7579
X6.3386Y-4.7972
X6.3389Y-2.6881
X6.3819Y-2.8358
X6.4075Y-3.3268
X6.4075Y-3.3661
X6.4075Y-3.4055
X6.4075Y-3.4449
X6.4192Y-2.6717
X6.4507Y-2.6717
X6.4764Y-3.8976
X6.4764Y-3.9469
X6.4764Y-3.9961
X6.4843Y-3.6102
X6.4917Y-3.1461
X6.5256Y-3.8976
X6.5256Y-3.9469
X6.5256Y-3.9961
X6.5669Y-2.8543
X6.5669Y-3.6102
X6.5748Y-3.8976
X6.5748Y-3.9469
X6.5748Y-3.9961
X6.5945Y-2.8189
X6.622Y-2.8543
X6.624Y-3.8976
X6.624Y-3.9469
X6.624Y-3.9961
X6.6668Y-3.4035
X6.6732Y-3.8976
X6.6732Y-3.9469
X6.6732Y-3.9961
X6.6811Y-2.8543
X6.7002Y-2.5274
X6.7472Y-2.7206
X6.748Y-2.7953
X6.748Y-2.8543
X6.7835Y-2.8268
X6.8034Y-2.6817
X6.811Y-4.689
X6.811Y-4.7283
X6.811Y-4.7677
X6.811Y-4.8071
X6.815Y-4.374
X6.815Y-4.4134
X6.815Y-4.4528
X6.815Y-4.4921
X6.8189Y-2.8543
X6.8504Y-4.689
X6.8504Y-4.7283
X6.8504Y-4.7677
X6.8504Y-4.8071
X6.8543Y-2.8268
X6.8543Y-4.374
X6.8543Y-4.4134
X6.8543Y-4.4528
X6.8543Y-4.4921
X6.8663Y-2.5412
X6.8701Y-2.5984
X6.8898Y-4.689
X6.8898Y-4.7283
X6.8898Y-4.7677
X6.8898Y-4.8071
X6.8937Y-4.374
X6.8937Y-4.4134
X6.8937Y-4.4528
X6.8937Y-4.4921
X6.8948Y-2.7216
X6.9291Y-4.689
X6.9291Y-4.7283
X6.9291Y-4.7677
X6.9291Y-4.8071
X6.9331Y-4.374
X6.9331Y-4.4134
X6.9331Y-4.4528
X6.9331Y-4.4921
X6.9685Y-4.0551
X6.9793Y-2.8543
X7.0069Y-2.8189
X7.0344Y-2.8543
X7.0935Y-2.8543
X7.1063Y-4.3504
X7.1063Y-4.5276
X7.1138Y-2.5272
X7.126Y-4.3307
X7.126Y-4.3701
X7.126Y-4.5079
X7.126Y-4.5472
X7.1457Y-4.3504
X7.1457Y-4.5276
X7.1604Y-2.7953
X7.1604Y-2.8543
X7.1606Y-2.7206
X7.1654Y-4.0945
X7.1654Y-4.1339
X7.1654Y-4.1732
X7.1654Y-4.3307
X7.1654Y-4.3701
X7.1654Y-4.5079
X7.1654Y-4.5472
X7.185Y-4.3504
X7.185Y-4.5276
X7.1958Y-2.8267
X7.2047Y-4.0945
X7.2047Y-4.1339
X7.2047Y-4.1732
X7.2047Y-4.3307
X7.2047Y-4.3701
X7.2047Y-4.5079
X7.2047Y-4.5472
X7.2188Y-2.6824
X7.2244Y-4.3504
X7.2244Y-4.5276
X7.2313Y-2.8543
X7.2441Y-4.0945
X7.2441Y-4.1339
X7.2441Y-4.1732
X7.2441Y-4.3307
X7.2441Y-4.3701
X7.2441Y-4.5079
X7.2441Y-4.5472
X7.2638Y-4.3504
X7.2638Y-4.5276
X7.2667Y-2.8267
X7.2797Y-2.5412
X7.2835Y-2.5984
X7.2835Y-4.0551
X7.2835Y-4.3307
X7.2835Y-4.3701
X7.2835Y-4.5079
X7.2835Y-4.5472
X7.3031Y-4.3504
X7.3031Y-4.5276
X7.313Y-2.7264
X7.3446Y-2.7161
X7.3524Y-3.9567
X7.3524Y-3.9961
X7.4055Y-4.1185
X7.4798Y-4.374
X7.4798Y-4.4134
X7.4798Y-4.4528
X7.4798Y-4.4921
X7.4803Y-4.689
X7.4803Y-4.7283
X7.4803Y-4.7677
X7.4803Y-4.8071
X7.5192Y-4.374
X7.5192Y-4.4134
X7.5192Y-4.4528
X7.5192Y-4.4921
X7.5197Y-4.689
X7.5197Y-4.7283
X7.5197Y-4.7677
X7.5197Y-4.8071
X7.5586Y-4.374
X7.5586Y-4.4134
X7.5586Y-4.4528
X7.5586Y-4.4921
X7.5591Y-4.689
X7.5591Y-4.7283
X7.5591Y-4.7677
X7.5591Y-4.8071
X7.5689Y-3.8976
X7.5689Y-3.9469
X7.5689Y-3.9961
X7.5979Y-4.374
X7.5979Y-4.4134
X7.5979Y-4.4528
X7.5979Y-4.4921
X7.5984Y-4.689
X7.5984Y-4.7283
X7.5984Y-4.7677
X7.5984Y-4.8071
X7.6181Y-3.8976
X7.6181Y-3.9469
X7.6181Y-3.9961
X7.6185Y-2.6258
X7.7362Y-3.8976
X7.7362Y-3.9469
X7.7362Y-3.9961
X7.7854Y-3.8976
X7.7854Y-3.9469
X7.7854Y-3.9961
T3
X4.8425Y-3.6811
X4.9409Y-3.6811
X5.0394Y-3.6811
X5.1378Y-3.6811
X5.2362Y-3.6811
X5.6102Y-3.6811
X5.7087Y-3.6811
X5.8071Y-3.6811
X5.9055Y-3.6811
X6.0039Y-3.6811
X6.378Y-3.6811
X6.4764Y-3.6811
X6.5748Y-3.6811
X6.6732Y-3.6811
X6.7717Y-3.6811
T4
X7.1841Y-3.062
X7.185Y-3.3622
X7.185Y-3.6604
X7.2825Y-3.062
X7.2835Y-3.3622
X7.2835Y-3.6604
T5
X7.6772Y-2.778
X7.6772Y-2.978
X7.6772Y-3.2646
X7.6772Y-3.4646
X7.6772Y-3.6646
T6
X4.4488Y-3.3268
X4.4488Y-3.6102
X4.5433Y-5.0138
X4.8268Y-5.0138
X5.8031Y-5.0138
X6.0866Y-5.0138
X7.063Y-5.0138
X7.3465Y-5.0138
T7
X4.0551Y-2.4803
X4.0551Y-5.1969
X5.315Y-5.1969
X6.5748Y-5.1969
X7.8346Y-2.4803
X7.8346Y-5.1969
T8
X4.2126Y-3.3268
X4.2126Y-3.6102
T2
G00X4.1909Y-3.2028
M15
G01X4.2343Y-3.2028
M16
G05
G00X4.1909Y-3.7343
M15
G01X4.2343Y-3.7343
M16
G05
G00X4.4193Y-5.2717
M15
G01X4.4193Y-5.2283
M16
G05
G00X4.9508Y-5.2717
M15
G01X4.9508Y-5.2283
M16
G05
G00X5.6791Y-5.2717
M15
G01X5.6791Y-5.2283
M16
G05
G00X6.1545Y-2.4606
M15
G01X6.1545Y-2.4291
M16
G05
G00X6.1545Y-2.6307
M15
G01X6.1545Y-2.5874
M16
G05
G00X6.2106Y-5.2717
M15
G01X6.2106Y-5.2283
M16
G05
G00X6.4951Y-2.4606
M15
G01X6.4951Y-2.4291
M16
G05
G00X6.4951Y-2.6307
M15
G01X6.4951Y-2.5874
M16
G05
G00X6.939Y-5.2717
M15
G01X6.939Y-5.2283
M16
G05
G00X7.4705Y-5.2717
M15
G01X7.4705Y-5.2283
M16
G05
T0
M30
