%TF.GenerationSoftware,KiCad,Pcbnew,7.0.1*%
%TF.CreationDate,2023-07-17T00:52:39+01:00*%
%TF.ProjectId,Motor Driver Board,4d6f746f-7220-4447-9269-76657220426f,rev?*%
%TF.SameCoordinates,Original*%
%TF.FileFunction,Drillmap*%
%TF.FilePolarity,Positive*%
%FSLAX45Y45*%
G04 Gerber Fmt 4.5, Leading zero omitted, Abs format (unit mm)*
G04 Created by KiCad (PCBNEW 7.0.1) date 2023-07-17 00:52:39*
%MOMM*%
%LPD*%
G01*
G04 APERTURE LIST*
%ADD10C,0.100000*%
%ADD11C,0.200000*%
%ADD12C,0.020000*%
%ADD13C,0.060000*%
%ADD14C,0.095000*%
%ADD15C,0.152000*%
%ADD16C,0.270000*%
%ADD17C,0.320000*%
%ADD18C,0.450000*%
G04 APERTURE END LIST*
D10*
X10300000Y-13500000D02*
X19900000Y-13500000D01*
X10000000Y-13200000D02*
G75*
G03*
X10300000Y-13500000I300000J0D01*
G01*
X19900000Y-6000000D02*
X10300000Y-6000000D01*
X20200000Y-6300000D02*
G75*
G03*
X19900000Y-6000000I-300000J0D01*
G01*
X20200000Y-13200000D02*
X20200000Y-6300000D01*
X10000000Y-6300000D02*
X10000000Y-13200000D01*
X10300000Y-6000000D02*
G75*
G03*
X10000000Y-6300000I0J-300000D01*
G01*
X19900000Y-13500000D02*
G75*
G03*
X20200000Y-13200000I0J300000D01*
G01*
D11*
D12*
X10415000Y-9890000D02*
X10435000Y-9910000D01*
X10435000Y-9890000D02*
X10415000Y-9910000D01*
X10415000Y-10015000D02*
X10435000Y-10035000D01*
X10435000Y-10015000D02*
X10415000Y-10035000D01*
X10415000Y-10140000D02*
X10435000Y-10160000D01*
X10435000Y-10140000D02*
X10415000Y-10160000D01*
X10540000Y-9890000D02*
X10560000Y-9910000D01*
X10560000Y-9890000D02*
X10540000Y-9910000D01*
X10540000Y-10015000D02*
X10560000Y-10035000D01*
X10560000Y-10015000D02*
X10540000Y-10035000D01*
X10540000Y-10140000D02*
X10560000Y-10160000D01*
X10560000Y-10140000D02*
X10540000Y-10160000D01*
X10840000Y-9890000D02*
X10860000Y-9910000D01*
X10860000Y-9890000D02*
X10840000Y-9910000D01*
X10840000Y-10015000D02*
X10860000Y-10035000D01*
X10860000Y-10015000D02*
X10840000Y-10035000D01*
X10840000Y-10140000D02*
X10860000Y-10160000D01*
X10860000Y-10140000D02*
X10840000Y-10160000D01*
X10890000Y-11090000D02*
X10910000Y-11110000D01*
X10910000Y-11090000D02*
X10890000Y-11110000D01*
X10890000Y-11190000D02*
X10910000Y-11210000D01*
X10910000Y-11190000D02*
X10890000Y-11210000D01*
X10890000Y-11290000D02*
X10910000Y-11310000D01*
X10910000Y-11290000D02*
X10890000Y-11310000D01*
X10890000Y-11390000D02*
X10910000Y-11410000D01*
X10910000Y-11390000D02*
X10890000Y-11410000D01*
X10890000Y-11875000D02*
X10910000Y-11895000D01*
X10910000Y-11875000D02*
X10890000Y-11895000D01*
X10890000Y-11975000D02*
X10910000Y-11995000D01*
X10910000Y-11975000D02*
X10890000Y-11995000D01*
X10890000Y-12075000D02*
X10910000Y-12095000D01*
X10910000Y-12075000D02*
X10890000Y-12095000D01*
X10890000Y-12175000D02*
X10910000Y-12195000D01*
X10910000Y-12175000D02*
X10890000Y-12195000D01*
X10911838Y-7399939D02*
X10931838Y-7419939D01*
X10931838Y-7399939D02*
X10911838Y-7419939D01*
X10912289Y-7099517D02*
X10932289Y-7119517D01*
X10932289Y-7099517D02*
X10912289Y-7119517D01*
X10912741Y-7699908D02*
X10932741Y-7719908D01*
X10932741Y-7699908D02*
X10912741Y-7719908D01*
X10965000Y-9890000D02*
X10985000Y-9910000D01*
X10985000Y-9890000D02*
X10965000Y-9910000D01*
X10965000Y-10015000D02*
X10985000Y-10035000D01*
X10985000Y-10015000D02*
X10965000Y-10035000D01*
X10965000Y-10140000D02*
X10985000Y-10160000D01*
X10985000Y-10140000D02*
X10965000Y-10160000D01*
X10990000Y-11090000D02*
X11010000Y-11110000D01*
X11010000Y-11090000D02*
X10990000Y-11110000D01*
X10990000Y-11190000D02*
X11010000Y-11210000D01*
X11010000Y-11190000D02*
X10990000Y-11210000D01*
X10990000Y-11290000D02*
X11010000Y-11310000D01*
X11010000Y-11290000D02*
X10990000Y-11310000D01*
X10990000Y-11390000D02*
X11010000Y-11410000D01*
X11010000Y-11390000D02*
X10990000Y-11410000D01*
X10990000Y-11875000D02*
X11010000Y-11895000D01*
X11010000Y-11875000D02*
X10990000Y-11895000D01*
X10990000Y-11975000D02*
X11010000Y-11995000D01*
X11010000Y-11975000D02*
X10990000Y-11995000D01*
X10990000Y-12075000D02*
X11010000Y-12095000D01*
X11010000Y-12075000D02*
X10990000Y-12095000D01*
X10990000Y-12175000D02*
X11010000Y-12195000D01*
X11010000Y-12175000D02*
X10990000Y-12195000D01*
X11067000Y-6728000D02*
X11087000Y-6748000D01*
X11087000Y-6728000D02*
X11067000Y-6748000D01*
X11067116Y-7475541D02*
X11087116Y-7495541D01*
X11087116Y-7475541D02*
X11067116Y-7495541D01*
X11090000Y-11090000D02*
X11110000Y-11110000D01*
X11110000Y-11090000D02*
X11090000Y-11110000D01*
X11090000Y-11190000D02*
X11110000Y-11210000D01*
X11110000Y-11190000D02*
X11090000Y-11210000D01*
X11090000Y-11290000D02*
X11110000Y-11310000D01*
X11110000Y-11290000D02*
X11090000Y-11310000D01*
X11090000Y-11390000D02*
X11110000Y-11410000D01*
X11110000Y-11390000D02*
X11090000Y-11410000D01*
X11090000Y-11875000D02*
X11110000Y-11895000D01*
X11110000Y-11875000D02*
X11090000Y-11895000D01*
X11090000Y-11975000D02*
X11110000Y-11995000D01*
X11110000Y-11975000D02*
X11090000Y-11995000D01*
X11090000Y-12075000D02*
X11110000Y-12095000D01*
X11110000Y-12075000D02*
X11090000Y-12095000D01*
X11090000Y-12175000D02*
X11110000Y-12195000D01*
X11110000Y-12175000D02*
X11090000Y-12195000D01*
X11190000Y-11090000D02*
X11210000Y-11110000D01*
X11210000Y-11090000D02*
X11190000Y-11110000D01*
X11190000Y-11190000D02*
X11210000Y-11210000D01*
X11210000Y-11190000D02*
X11190000Y-11210000D01*
X11190000Y-11290000D02*
X11210000Y-11310000D01*
X11210000Y-11290000D02*
X11190000Y-11310000D01*
X11190000Y-11390000D02*
X11210000Y-11410000D01*
X11210000Y-11390000D02*
X11190000Y-11410000D01*
X11190000Y-11875000D02*
X11210000Y-11895000D01*
X11210000Y-11875000D02*
X11190000Y-11895000D01*
X11190000Y-11975000D02*
X11210000Y-11995000D01*
X11210000Y-11975000D02*
X11190000Y-11995000D01*
X11190000Y-12075000D02*
X11210000Y-12095000D01*
X11210000Y-12075000D02*
X11190000Y-12095000D01*
X11190000Y-12175000D02*
X11210000Y-12195000D01*
X11210000Y-12175000D02*
X11190000Y-12195000D01*
X11640000Y-11040000D02*
X11660000Y-11060000D01*
X11660000Y-11040000D02*
X11640000Y-11060000D01*
X11640000Y-11490000D02*
X11660000Y-11510000D01*
X11660000Y-11490000D02*
X11640000Y-11510000D01*
X11690000Y-10990000D02*
X11710000Y-11010000D01*
X11710000Y-10990000D02*
X11690000Y-11010000D01*
X11690000Y-11090000D02*
X11710000Y-11110000D01*
X11710000Y-11090000D02*
X11690000Y-11110000D01*
X11690000Y-11440000D02*
X11710000Y-11460000D01*
X11710000Y-11440000D02*
X11690000Y-11460000D01*
X11690000Y-11540000D02*
X11710000Y-11560000D01*
X11710000Y-11540000D02*
X11690000Y-11560000D01*
X11740000Y-11040000D02*
X11760000Y-11060000D01*
X11760000Y-11040000D02*
X11740000Y-11060000D01*
X11740000Y-11490000D02*
X11760000Y-11510000D01*
X11760000Y-11490000D02*
X11740000Y-11510000D01*
X11790000Y-10390000D02*
X11810000Y-10410000D01*
X11810000Y-10390000D02*
X11790000Y-10410000D01*
X11790000Y-10490000D02*
X11810000Y-10510000D01*
X11810000Y-10490000D02*
X11790000Y-10510000D01*
X11790000Y-10590000D02*
X11810000Y-10610000D01*
X11810000Y-10590000D02*
X11790000Y-10610000D01*
X11790000Y-10990000D02*
X11810000Y-11010000D01*
X11810000Y-10990000D02*
X11790000Y-11010000D01*
X11790000Y-11090000D02*
X11810000Y-11110000D01*
X11810000Y-11090000D02*
X11790000Y-11110000D01*
X11790000Y-11440000D02*
X11810000Y-11460000D01*
X11810000Y-11440000D02*
X11790000Y-11460000D01*
X11790000Y-11540000D02*
X11810000Y-11560000D01*
X11810000Y-11540000D02*
X11790000Y-11560000D01*
X11795000Y-6399000D02*
X11815000Y-6419000D01*
X11815000Y-6399000D02*
X11795000Y-6419000D01*
X11795000Y-7145000D02*
X11815000Y-7165000D01*
X11815000Y-7145000D02*
X11795000Y-7165000D01*
X11795000Y-7587000D02*
X11815000Y-7607000D01*
X11815000Y-7587000D02*
X11795000Y-7607000D01*
X11796000Y-6839000D02*
X11816000Y-6859000D01*
X11816000Y-6839000D02*
X11796000Y-6859000D01*
X11840000Y-11040000D02*
X11860000Y-11060000D01*
X11860000Y-11040000D02*
X11840000Y-11060000D01*
X11840000Y-11490000D02*
X11860000Y-11510000D01*
X11860000Y-11490000D02*
X11840000Y-11510000D01*
X11890000Y-10390000D02*
X11910000Y-10410000D01*
X11910000Y-10390000D02*
X11890000Y-10410000D01*
X11890000Y-10490000D02*
X11910000Y-10510000D01*
X11910000Y-10490000D02*
X11890000Y-10510000D01*
X11890000Y-10590000D02*
X11910000Y-10610000D01*
X11910000Y-10590000D02*
X11890000Y-10610000D01*
X11890000Y-10990000D02*
X11910000Y-11010000D01*
X11910000Y-10990000D02*
X11890000Y-11010000D01*
X11890000Y-11090000D02*
X11910000Y-11110000D01*
X11910000Y-11090000D02*
X11890000Y-11110000D01*
X11890000Y-11440000D02*
X11910000Y-11460000D01*
X11910000Y-11440000D02*
X11890000Y-11460000D01*
X11890000Y-11540000D02*
X11910000Y-11560000D01*
X11910000Y-11540000D02*
X11890000Y-11560000D01*
X11940000Y-11040000D02*
X11960000Y-11060000D01*
X11960000Y-11040000D02*
X11940000Y-11060000D01*
X11940000Y-11490000D02*
X11960000Y-11510000D01*
X11960000Y-11490000D02*
X11940000Y-11510000D01*
X11945000Y-7708000D02*
X11965000Y-7728000D01*
X11965000Y-7708000D02*
X11945000Y-7728000D01*
X11946000Y-7612000D02*
X11966000Y-7632000D01*
X11966000Y-7612000D02*
X11946000Y-7632000D01*
X11990000Y-10390000D02*
X12010000Y-10410000D01*
X12010000Y-10390000D02*
X11990000Y-10410000D01*
X11990000Y-10490000D02*
X12010000Y-10510000D01*
X12010000Y-10490000D02*
X11990000Y-10510000D01*
X11990000Y-10590000D02*
X12010000Y-10610000D01*
X12010000Y-10590000D02*
X11990000Y-10610000D01*
X11990000Y-10990000D02*
X12010000Y-11010000D01*
X12010000Y-10990000D02*
X11990000Y-11010000D01*
X11990000Y-11090000D02*
X12010000Y-11110000D01*
X12010000Y-11090000D02*
X11990000Y-11110000D01*
X11990000Y-11440000D02*
X12010000Y-11460000D01*
X12010000Y-11440000D02*
X11990000Y-11460000D01*
X11990000Y-11540000D02*
X12010000Y-11560000D01*
X12010000Y-11540000D02*
X11990000Y-11560000D01*
X12001500Y-6878500D02*
X12021500Y-6898500D01*
X12021500Y-6878500D02*
X12001500Y-6898500D01*
X12022605Y-8389593D02*
X12042605Y-8409593D01*
X12042605Y-8389593D02*
X12022605Y-8409593D01*
X12040000Y-11040000D02*
X12060000Y-11060000D01*
X12060000Y-11040000D02*
X12040000Y-11060000D01*
X12040000Y-11490000D02*
X12060000Y-11510000D01*
X12060000Y-11490000D02*
X12040000Y-11510000D01*
X12090000Y-10990000D02*
X12110000Y-11010000D01*
X12110000Y-10990000D02*
X12090000Y-11010000D01*
X12090000Y-11090000D02*
X12110000Y-11110000D01*
X12110000Y-11090000D02*
X12090000Y-11110000D01*
X12090000Y-11440000D02*
X12110000Y-11460000D01*
X12110000Y-11440000D02*
X12090000Y-11460000D01*
X12090000Y-11540000D02*
X12110000Y-11560000D01*
X12110000Y-11540000D02*
X12090000Y-11560000D01*
X12140000Y-11040000D02*
X12160000Y-11060000D01*
X12160000Y-11040000D02*
X12140000Y-11060000D01*
X12140000Y-11490000D02*
X12160000Y-11510000D01*
X12160000Y-11490000D02*
X12140000Y-11510000D01*
X12265000Y-10065000D02*
X12285000Y-10085000D01*
X12285000Y-10065000D02*
X12265000Y-10085000D01*
X12265000Y-10165000D02*
X12285000Y-10185000D01*
X12285000Y-10165000D02*
X12265000Y-10185000D01*
X12331000Y-6196000D02*
X12351000Y-6216000D01*
X12351000Y-6196000D02*
X12331000Y-6216000D01*
X12401000Y-10461000D02*
X12421000Y-10481000D01*
X12421000Y-10461000D02*
X12401000Y-10481000D01*
X12422000Y-6927000D02*
X12442000Y-6947000D01*
X12442000Y-6927000D02*
X12422000Y-6947000D01*
X12429908Y-7945873D02*
X12449908Y-7965873D01*
X12449908Y-7945873D02*
X12429908Y-7965873D01*
X12590000Y-11090000D02*
X12610000Y-11110000D01*
X12610000Y-11090000D02*
X12590000Y-11110000D01*
X12590000Y-11190000D02*
X12610000Y-11210000D01*
X12610000Y-11190000D02*
X12590000Y-11210000D01*
X12590000Y-11290000D02*
X12610000Y-11310000D01*
X12610000Y-11290000D02*
X12590000Y-11310000D01*
X12590000Y-11390000D02*
X12610000Y-11410000D01*
X12610000Y-11390000D02*
X12590000Y-11410000D01*
X12590000Y-11875000D02*
X12610000Y-11895000D01*
X12610000Y-11875000D02*
X12590000Y-11895000D01*
X12590000Y-11975000D02*
X12610000Y-11995000D01*
X12610000Y-11975000D02*
X12590000Y-11995000D01*
X12590000Y-12075000D02*
X12610000Y-12095000D01*
X12610000Y-12075000D02*
X12590000Y-12095000D01*
X12590000Y-12175000D02*
X12610000Y-12195000D01*
X12610000Y-12175000D02*
X12590000Y-12195000D01*
X12679900Y-7798000D02*
X12699900Y-7818000D01*
X12699900Y-7798000D02*
X12679900Y-7818000D01*
X12680900Y-8279000D02*
X12700900Y-8299000D01*
X12700900Y-8279000D02*
X12680900Y-8299000D01*
X12690000Y-7490000D02*
X12710000Y-7510000D01*
X12710000Y-7490000D02*
X12690000Y-7510000D01*
X12690000Y-11090000D02*
X12710000Y-11110000D01*
X12710000Y-11090000D02*
X12690000Y-11110000D01*
X12690000Y-11190000D02*
X12710000Y-11210000D01*
X12710000Y-11190000D02*
X12690000Y-11210000D01*
X12690000Y-11290000D02*
X12710000Y-11310000D01*
X12710000Y-11290000D02*
X12690000Y-11310000D01*
X12690000Y-11390000D02*
X12710000Y-11410000D01*
X12710000Y-11390000D02*
X12690000Y-11410000D01*
X12690000Y-11875000D02*
X12710000Y-11895000D01*
X12710000Y-11875000D02*
X12690000Y-11895000D01*
X12690000Y-11975000D02*
X12710000Y-11995000D01*
X12710000Y-11975000D02*
X12690000Y-11995000D01*
X12690000Y-12075000D02*
X12710000Y-12095000D01*
X12710000Y-12075000D02*
X12690000Y-12095000D01*
X12690000Y-12175000D02*
X12710000Y-12195000D01*
X12710000Y-12175000D02*
X12690000Y-12195000D01*
X12692900Y-8041000D02*
X12712900Y-8061000D01*
X12712900Y-8041000D02*
X12692900Y-8061000D01*
X12754900Y-8351000D02*
X12774900Y-8371000D01*
X12774900Y-8351000D02*
X12754900Y-8371000D01*
X12755900Y-7728000D02*
X12775900Y-7748000D01*
X12775900Y-7728000D02*
X12755900Y-7748000D01*
X12790000Y-11090000D02*
X12810000Y-11110000D01*
X12810000Y-11090000D02*
X12790000Y-11110000D01*
X12790000Y-11190000D02*
X12810000Y-11210000D01*
X12810000Y-11190000D02*
X12790000Y-11210000D01*
X12790000Y-11290000D02*
X12810000Y-11310000D01*
X12810000Y-11290000D02*
X12790000Y-11310000D01*
X12790000Y-11390000D02*
X12810000Y-11410000D01*
X12810000Y-11390000D02*
X12790000Y-11410000D01*
X12790000Y-11875000D02*
X12810000Y-11895000D01*
X12810000Y-11875000D02*
X12790000Y-11895000D01*
X12790000Y-11975000D02*
X12810000Y-11995000D01*
X12810000Y-11975000D02*
X12790000Y-11995000D01*
X12790000Y-12075000D02*
X12810000Y-12095000D01*
X12810000Y-12075000D02*
X12790000Y-12095000D01*
X12790000Y-12175000D02*
X12810000Y-12195000D01*
X12810000Y-12175000D02*
X12790000Y-12195000D01*
X12825000Y-6495000D02*
X12845000Y-6515000D01*
X12845000Y-6495000D02*
X12825000Y-6515000D01*
X12826000Y-6834000D02*
X12846000Y-6854000D01*
X12846000Y-6834000D02*
X12826000Y-6854000D01*
X12855900Y-7730000D02*
X12875900Y-7750000D01*
X12875900Y-7730000D02*
X12855900Y-7750000D01*
X12866000Y-6670000D02*
X12886000Y-6690000D01*
X12886000Y-6670000D02*
X12866000Y-6690000D01*
X12866000Y-6766000D02*
X12886000Y-6786000D01*
X12886000Y-6766000D02*
X12866000Y-6786000D01*
X12866000Y-7242000D02*
X12886000Y-7262000D01*
X12886000Y-7242000D02*
X12866000Y-7262000D01*
X12866000Y-7338000D02*
X12886000Y-7358000D01*
X12886000Y-7338000D02*
X12866000Y-7358000D01*
X12890000Y-11090000D02*
X12910000Y-11110000D01*
X12910000Y-11090000D02*
X12890000Y-11110000D01*
X12890000Y-11190000D02*
X12910000Y-11210000D01*
X12910000Y-11190000D02*
X12890000Y-11210000D01*
X12890000Y-11290000D02*
X12910000Y-11310000D01*
X12910000Y-11290000D02*
X12890000Y-11310000D01*
X12890000Y-11390000D02*
X12910000Y-11410000D01*
X12910000Y-11390000D02*
X12890000Y-11410000D01*
X12890000Y-11875000D02*
X12910000Y-11895000D01*
X12910000Y-11875000D02*
X12890000Y-11895000D01*
X12890000Y-11975000D02*
X12910000Y-11995000D01*
X12910000Y-11975000D02*
X12890000Y-11995000D01*
X12890000Y-12075000D02*
X12910000Y-12095000D01*
X12910000Y-12075000D02*
X12890000Y-12095000D01*
X12890000Y-12175000D02*
X12910000Y-12195000D01*
X12910000Y-12175000D02*
X12890000Y-12195000D01*
X13149000Y-6139000D02*
X13169000Y-6159000D01*
X13169000Y-6139000D02*
X13149000Y-6159000D01*
X13190000Y-8715000D02*
X13210000Y-8735000D01*
X13210000Y-8715000D02*
X13190000Y-8735000D01*
X13240000Y-6865000D02*
X13260000Y-6885000D01*
X13260000Y-6865000D02*
X13240000Y-6885000D01*
X13240000Y-7715000D02*
X13260000Y-7735000D01*
X13260000Y-7715000D02*
X13240000Y-7735000D01*
X13240000Y-9890000D02*
X13260000Y-9910000D01*
X13260000Y-9890000D02*
X13240000Y-9910000D01*
X13240000Y-10015000D02*
X13260000Y-10035000D01*
X13260000Y-10015000D02*
X13240000Y-10035000D01*
X13240000Y-10140000D02*
X13260000Y-10160000D01*
X13260000Y-10140000D02*
X13240000Y-10160000D01*
X13290000Y-8715000D02*
X13310000Y-8735000D01*
X13310000Y-8715000D02*
X13290000Y-8735000D01*
X13365000Y-9890000D02*
X13385000Y-9910000D01*
X13385000Y-9890000D02*
X13365000Y-9910000D01*
X13365000Y-10015000D02*
X13385000Y-10035000D01*
X13385000Y-10015000D02*
X13365000Y-10035000D01*
X13365000Y-10140000D02*
X13385000Y-10160000D01*
X13385000Y-10140000D02*
X13365000Y-10160000D01*
X13387000Y-6141000D02*
X13407000Y-6161000D01*
X13407000Y-6141000D02*
X13387000Y-6161000D01*
X13387000Y-8716000D02*
X13407000Y-8736000D01*
X13407000Y-8716000D02*
X13387000Y-8736000D01*
X13490000Y-9890000D02*
X13510000Y-9910000D01*
X13510000Y-9890000D02*
X13490000Y-9910000D01*
X13490000Y-10015000D02*
X13510000Y-10035000D01*
X13510000Y-10015000D02*
X13490000Y-10035000D01*
X13490000Y-10140000D02*
X13510000Y-10160000D01*
X13510000Y-10140000D02*
X13490000Y-10160000D01*
X13615000Y-6665000D02*
X13635000Y-6685000D01*
X13635000Y-6665000D02*
X13615000Y-6685000D01*
X13615000Y-9890000D02*
X13635000Y-9910000D01*
X13635000Y-9890000D02*
X13615000Y-9910000D01*
X13615000Y-10015000D02*
X13635000Y-10035000D01*
X13635000Y-10015000D02*
X13615000Y-10035000D01*
X13615000Y-10140000D02*
X13635000Y-10160000D01*
X13635000Y-10140000D02*
X13615000Y-10160000D01*
X13640000Y-8715000D02*
X13660000Y-8735000D01*
X13660000Y-8715000D02*
X13640000Y-8735000D01*
X13740000Y-6790000D02*
X13760000Y-6810000D01*
X13760000Y-6790000D02*
X13740000Y-6810000D01*
X13740000Y-9890000D02*
X13760000Y-9910000D01*
X13760000Y-9890000D02*
X13740000Y-9910000D01*
X13740000Y-10015000D02*
X13760000Y-10035000D01*
X13760000Y-10015000D02*
X13740000Y-10035000D01*
X13740000Y-10140000D02*
X13760000Y-10160000D01*
X13760000Y-10140000D02*
X13740000Y-10160000D01*
X13765000Y-8810000D02*
X13785000Y-8830000D01*
X13785000Y-8810000D02*
X13765000Y-8830000D01*
X13788000Y-6140000D02*
X13808000Y-6160000D01*
X13808000Y-6140000D02*
X13788000Y-6160000D01*
X13865000Y-6570000D02*
X13885000Y-6590000D01*
X13885000Y-6570000D02*
X13865000Y-6590000D01*
X13871000Y-6140000D02*
X13891000Y-6160000D01*
X13891000Y-6140000D02*
X13871000Y-6160000D01*
X13915000Y-8810000D02*
X13935000Y-8830000D01*
X13935000Y-8810000D02*
X13915000Y-8830000D01*
X13991000Y-8815000D02*
X14011000Y-8835000D01*
X14011000Y-8815000D02*
X13991000Y-8835000D01*
X14088000Y-8815000D02*
X14108000Y-8835000D01*
X14108000Y-8815000D02*
X14088000Y-8835000D01*
X14090000Y-11875000D02*
X14110000Y-11895000D01*
X14110000Y-11875000D02*
X14090000Y-11895000D01*
X14090000Y-11975000D02*
X14110000Y-11995000D01*
X14110000Y-11975000D02*
X14090000Y-11995000D01*
X14090000Y-12075000D02*
X14110000Y-12095000D01*
X14110000Y-12075000D02*
X14090000Y-12095000D01*
X14090000Y-12175000D02*
X14110000Y-12195000D01*
X14110000Y-12175000D02*
X14090000Y-12195000D01*
X14090500Y-11095000D02*
X14110500Y-11115000D01*
X14110500Y-11095000D02*
X14090500Y-11115000D01*
X14090500Y-11195000D02*
X14110500Y-11215000D01*
X14110500Y-11195000D02*
X14090500Y-11215000D01*
X14090500Y-11295000D02*
X14110500Y-11315000D01*
X14110500Y-11295000D02*
X14090500Y-11315000D01*
X14090500Y-11395000D02*
X14110500Y-11415000D01*
X14110500Y-11395000D02*
X14090500Y-11415000D01*
X14109000Y-6139000D02*
X14129000Y-6159000D01*
X14129000Y-6139000D02*
X14109000Y-6159000D01*
X14190000Y-11875000D02*
X14210000Y-11895000D01*
X14210000Y-11875000D02*
X14190000Y-11895000D01*
X14190000Y-11975000D02*
X14210000Y-11995000D01*
X14210000Y-11975000D02*
X14190000Y-11995000D01*
X14190000Y-12075000D02*
X14210000Y-12095000D01*
X14210000Y-12075000D02*
X14190000Y-12095000D01*
X14190000Y-12175000D02*
X14210000Y-12195000D01*
X14210000Y-12175000D02*
X14190000Y-12195000D01*
X14190500Y-11095000D02*
X14210500Y-11115000D01*
X14210500Y-11095000D02*
X14190500Y-11115000D01*
X14190500Y-11195000D02*
X14210500Y-11215000D01*
X14210500Y-11195000D02*
X14190500Y-11215000D01*
X14190500Y-11295000D02*
X14210500Y-11315000D01*
X14210500Y-11295000D02*
X14190500Y-11315000D01*
X14190500Y-11395000D02*
X14210500Y-11415000D01*
X14210500Y-11395000D02*
X14190500Y-11415000D01*
X14290000Y-11875000D02*
X14310000Y-11895000D01*
X14310000Y-11875000D02*
X14290000Y-11895000D01*
X14290000Y-11975000D02*
X14310000Y-11995000D01*
X14310000Y-11975000D02*
X14290000Y-11995000D01*
X14290000Y-12075000D02*
X14310000Y-12095000D01*
X14310000Y-12075000D02*
X14290000Y-12095000D01*
X14290000Y-12175000D02*
X14310000Y-12195000D01*
X14310000Y-12175000D02*
X14290000Y-12195000D01*
X14290500Y-11095000D02*
X14310500Y-11115000D01*
X14310500Y-11095000D02*
X14290500Y-11115000D01*
X14290500Y-11195000D02*
X14310500Y-11215000D01*
X14310500Y-11195000D02*
X14290500Y-11215000D01*
X14290500Y-11295000D02*
X14310500Y-11315000D01*
X14310500Y-11295000D02*
X14290500Y-11315000D01*
X14290500Y-11395000D02*
X14310500Y-11415000D01*
X14310500Y-11395000D02*
X14290500Y-11415000D01*
X14371000Y-6140000D02*
X14391000Y-6160000D01*
X14391000Y-6140000D02*
X14371000Y-6160000D01*
X14390000Y-11875000D02*
X14410000Y-11895000D01*
X14410000Y-11875000D02*
X14390000Y-11895000D01*
X14390000Y-11975000D02*
X14410000Y-11995000D01*
X14410000Y-11975000D02*
X14390000Y-11995000D01*
X14390000Y-12075000D02*
X14410000Y-12095000D01*
X14410000Y-12075000D02*
X14390000Y-12095000D01*
X14390000Y-12175000D02*
X14410000Y-12195000D01*
X14410000Y-12175000D02*
X14390000Y-12195000D01*
X14390500Y-11095000D02*
X14410500Y-11115000D01*
X14410500Y-11095000D02*
X14390500Y-11115000D01*
X14390500Y-11195000D02*
X14410500Y-11215000D01*
X14410500Y-11195000D02*
X14390500Y-11215000D01*
X14390500Y-11295000D02*
X14410500Y-11315000D01*
X14410500Y-11295000D02*
X14390500Y-11315000D01*
X14390500Y-11395000D02*
X14410500Y-11415000D01*
X14410500Y-11395000D02*
X14390500Y-11415000D01*
X14415000Y-8340000D02*
X14435000Y-8360000D01*
X14435000Y-8340000D02*
X14415000Y-8360000D01*
X14465000Y-9580000D02*
X14485000Y-9600000D01*
X14485000Y-9580000D02*
X14465000Y-9600000D01*
X14492000Y-8715000D02*
X14512000Y-8735000D01*
X14512000Y-8715000D02*
X14492000Y-8735000D01*
X14589000Y-8715000D02*
X14609000Y-8735000D01*
X14609000Y-8715000D02*
X14589000Y-8735000D01*
X14609000Y-6139000D02*
X14629000Y-6159000D01*
X14629000Y-6139000D02*
X14609000Y-6159000D01*
X14640000Y-10290000D02*
X14660000Y-10310000D01*
X14660000Y-10290000D02*
X14640000Y-10310000D01*
X14690000Y-8340000D02*
X14710000Y-8360000D01*
X14710000Y-8340000D02*
X14690000Y-8360000D01*
X14740000Y-6565000D02*
X14760000Y-6585000D01*
X14760000Y-6565000D02*
X14740000Y-6585000D01*
X14764701Y-8336687D02*
X14784701Y-8356687D01*
X14784701Y-8336687D02*
X14764701Y-8356687D01*
X14815000Y-6612550D02*
X14835000Y-6632550D01*
X14835000Y-6612550D02*
X14815000Y-6632550D01*
X14840000Y-8340000D02*
X14860000Y-8360000D01*
X14860000Y-8340000D02*
X14840000Y-8360000D01*
X14840000Y-11040000D02*
X14860000Y-11060000D01*
X14860000Y-11040000D02*
X14840000Y-11060000D01*
X14840000Y-11490000D02*
X14860000Y-11510000D01*
X14860000Y-11490000D02*
X14840000Y-11510000D01*
X14890000Y-10990000D02*
X14910000Y-11010000D01*
X14910000Y-10990000D02*
X14890000Y-11010000D01*
X14890000Y-11090000D02*
X14910000Y-11110000D01*
X14910000Y-11090000D02*
X14890000Y-11110000D01*
X14890000Y-11440000D02*
X14910000Y-11460000D01*
X14910000Y-11440000D02*
X14890000Y-11460000D01*
X14890000Y-11540000D02*
X14910000Y-11560000D01*
X14910000Y-11540000D02*
X14890000Y-11560000D01*
X14940000Y-11040000D02*
X14960000Y-11060000D01*
X14960000Y-11040000D02*
X14940000Y-11060000D01*
X14940000Y-11490000D02*
X14960000Y-11510000D01*
X14960000Y-11490000D02*
X14940000Y-11510000D01*
X14990000Y-10390000D02*
X15010000Y-10410000D01*
X15010000Y-10390000D02*
X14990000Y-10410000D01*
X14990000Y-10490000D02*
X15010000Y-10510000D01*
X15010000Y-10490000D02*
X14990000Y-10510000D01*
X14990000Y-10590000D02*
X15010000Y-10610000D01*
X15010000Y-10590000D02*
X14990000Y-10610000D01*
X14990000Y-10990000D02*
X15010000Y-11010000D01*
X15010000Y-10990000D02*
X14990000Y-11010000D01*
X14990000Y-11090000D02*
X15010000Y-11110000D01*
X15010000Y-11090000D02*
X14990000Y-11110000D01*
X14990000Y-11440000D02*
X15010000Y-11460000D01*
X15010000Y-11440000D02*
X14990000Y-11460000D01*
X14990000Y-11540000D02*
X15010000Y-11560000D01*
X15010000Y-11540000D02*
X14990000Y-11560000D01*
X15015304Y-8807468D02*
X15035304Y-8827468D01*
X15035304Y-8807468D02*
X15015304Y-8827468D01*
X15040000Y-11040000D02*
X15060000Y-11060000D01*
X15060000Y-11040000D02*
X15040000Y-11060000D01*
X15040000Y-11490000D02*
X15060000Y-11510000D01*
X15060000Y-11490000D02*
X15040000Y-11510000D01*
X15043200Y-6810500D02*
X15063200Y-6830500D01*
X15063200Y-6810500D02*
X15043200Y-6830500D01*
X15065000Y-6434000D02*
X15085000Y-6454000D01*
X15085000Y-6434000D02*
X15065000Y-6454000D01*
X15067019Y-6742019D02*
X15087019Y-6762019D01*
X15087019Y-6742019D02*
X15067019Y-6762019D01*
X15090000Y-8229805D02*
X15110000Y-8249805D01*
X15110000Y-8229805D02*
X15090000Y-8249805D01*
X15090000Y-10390000D02*
X15110000Y-10410000D01*
X15110000Y-10390000D02*
X15090000Y-10410000D01*
X15090000Y-10490000D02*
X15110000Y-10510000D01*
X15110000Y-10490000D02*
X15090000Y-10510000D01*
X15090000Y-10590000D02*
X15110000Y-10610000D01*
X15110000Y-10590000D02*
X15090000Y-10610000D01*
X15090000Y-10990000D02*
X15110000Y-11010000D01*
X15110000Y-10990000D02*
X15090000Y-11010000D01*
X15090000Y-11090000D02*
X15110000Y-11110000D01*
X15110000Y-11090000D02*
X15090000Y-11110000D01*
X15090000Y-11440000D02*
X15110000Y-11460000D01*
X15110000Y-11440000D02*
X15090000Y-11460000D01*
X15090000Y-11540000D02*
X15110000Y-11560000D01*
X15110000Y-11540000D02*
X15090000Y-11560000D01*
X15106000Y-8717000D02*
X15126000Y-8737000D01*
X15126000Y-8717000D02*
X15106000Y-8737000D01*
X15112981Y-6787981D02*
X15132981Y-6807981D01*
X15132981Y-6787981D02*
X15112981Y-6807981D01*
X15115000Y-7515000D02*
X15135000Y-7535000D01*
X15135000Y-7515000D02*
X15115000Y-7535000D01*
X15140000Y-7915000D02*
X15160000Y-7935000D01*
X15160000Y-7915000D02*
X15140000Y-7935000D01*
X15140000Y-11040000D02*
X15160000Y-11060000D01*
X15160000Y-11040000D02*
X15140000Y-11060000D01*
X15140000Y-11490000D02*
X15160000Y-11510000D01*
X15160000Y-11490000D02*
X15140000Y-11510000D01*
X15190000Y-10390000D02*
X15210000Y-10410000D01*
X15210000Y-10390000D02*
X15190000Y-10410000D01*
X15190000Y-10490000D02*
X15210000Y-10510000D01*
X15210000Y-10490000D02*
X15190000Y-10510000D01*
X15190000Y-10590000D02*
X15210000Y-10610000D01*
X15210000Y-10590000D02*
X15190000Y-10610000D01*
X15190000Y-10990000D02*
X15210000Y-11010000D01*
X15210000Y-10990000D02*
X15190000Y-11010000D01*
X15190000Y-11090000D02*
X15210000Y-11110000D01*
X15210000Y-11090000D02*
X15190000Y-11110000D01*
X15190000Y-11440000D02*
X15210000Y-11460000D01*
X15210000Y-11440000D02*
X15190000Y-11460000D01*
X15190000Y-11540000D02*
X15210000Y-11560000D01*
X15210000Y-11540000D02*
X15190000Y-11560000D01*
X15201000Y-8716000D02*
X15221000Y-8736000D01*
X15221000Y-8716000D02*
X15201000Y-8736000D01*
X15240000Y-11040000D02*
X15260000Y-11060000D01*
X15260000Y-11040000D02*
X15240000Y-11060000D01*
X15240000Y-11490000D02*
X15260000Y-11510000D01*
X15260000Y-11490000D02*
X15240000Y-11510000D01*
X15274127Y-8811026D02*
X15294127Y-8831026D01*
X15294127Y-8811026D02*
X15274127Y-8831026D01*
X15274278Y-8879096D02*
X15294278Y-8899096D01*
X15294278Y-8879096D02*
X15274278Y-8899096D01*
X15275142Y-8980441D02*
X15295142Y-9000441D01*
X15295142Y-8980441D02*
X15275142Y-9000441D01*
X15290000Y-10290000D02*
X15310000Y-10310000D01*
X15310000Y-10290000D02*
X15290000Y-10310000D01*
X15290000Y-10990000D02*
X15310000Y-11010000D01*
X15310000Y-10990000D02*
X15290000Y-11010000D01*
X15290000Y-11090000D02*
X15310000Y-11110000D01*
X15310000Y-11090000D02*
X15290000Y-11110000D01*
X15290000Y-11440000D02*
X15310000Y-11460000D01*
X15310000Y-11440000D02*
X15290000Y-11460000D01*
X15290000Y-11540000D02*
X15310000Y-11560000D01*
X15310000Y-11540000D02*
X15290000Y-11560000D01*
X15340000Y-11040000D02*
X15360000Y-11060000D01*
X15360000Y-11040000D02*
X15340000Y-11060000D01*
X15340000Y-11490000D02*
X15360000Y-11510000D01*
X15360000Y-11490000D02*
X15340000Y-11510000D01*
X15350000Y-8610000D02*
X15370000Y-8630000D01*
X15370000Y-8610000D02*
X15350000Y-8630000D01*
X15440000Y-7340000D02*
X15460000Y-7360000D01*
X15460000Y-7340000D02*
X15440000Y-7360000D01*
X15465000Y-10065000D02*
X15485000Y-10085000D01*
X15485000Y-10065000D02*
X15465000Y-10085000D01*
X15465000Y-10165000D02*
X15485000Y-10185000D01*
X15485000Y-10165000D02*
X15465000Y-10185000D01*
X15514000Y-7142000D02*
X15534000Y-7162000D01*
X15534000Y-7142000D02*
X15514000Y-7162000D01*
X15514000Y-7239000D02*
X15534000Y-7259000D01*
X15534000Y-7239000D02*
X15514000Y-7259000D01*
X15515000Y-6452000D02*
X15535000Y-6472000D01*
X15535000Y-6452000D02*
X15515000Y-6472000D01*
X15515000Y-6548000D02*
X15535000Y-6568000D01*
X15535000Y-6548000D02*
X15515000Y-6568000D01*
X15515000Y-6739000D02*
X15535000Y-6759000D01*
X15535000Y-6739000D02*
X15515000Y-6759000D01*
X15515000Y-7340000D02*
X15535000Y-7360000D01*
X15535000Y-7340000D02*
X15515000Y-7360000D01*
X15540000Y-7620000D02*
X15560000Y-7640000D01*
X15560000Y-7620000D02*
X15540000Y-7640000D01*
X15540000Y-7860000D02*
X15560000Y-7880000D01*
X15560000Y-7860000D02*
X15540000Y-7880000D01*
X15590000Y-10460000D02*
X15610000Y-10480000D01*
X15610000Y-10460000D02*
X15590000Y-10480000D01*
X15702000Y-7726000D02*
X15722000Y-7746000D01*
X15722000Y-7726000D02*
X15702000Y-7746000D01*
X15730000Y-7185000D02*
X15750000Y-7205000D01*
X15750000Y-7185000D02*
X15730000Y-7205000D01*
X15734500Y-6776800D02*
X15754500Y-6796800D01*
X15754500Y-6776800D02*
X15734500Y-6796800D01*
X15740000Y-8390000D02*
X15760000Y-8410000D01*
X15760000Y-8390000D02*
X15740000Y-8410000D01*
X15740000Y-8490000D02*
X15760000Y-8510000D01*
X15760000Y-8490000D02*
X15740000Y-8510000D01*
X15740000Y-8590000D02*
X15760000Y-8610000D01*
X15760000Y-8590000D02*
X15740000Y-8610000D01*
X15740000Y-8690000D02*
X15760000Y-8710000D01*
X15760000Y-8690000D02*
X15740000Y-8710000D01*
X15765000Y-7362550D02*
X15785000Y-7382550D01*
X15785000Y-7362550D02*
X15765000Y-7382550D01*
X15790000Y-11095000D02*
X15810000Y-11115000D01*
X15810000Y-11095000D02*
X15790000Y-11115000D01*
X15790000Y-11195000D02*
X15810000Y-11215000D01*
X15810000Y-11195000D02*
X15790000Y-11215000D01*
X15790000Y-11295000D02*
X15810000Y-11315000D01*
X15810000Y-11295000D02*
X15790000Y-11315000D01*
X15790000Y-11395000D02*
X15810000Y-11415000D01*
X15810000Y-11395000D02*
X15790000Y-11415000D01*
X15790000Y-11875000D02*
X15810000Y-11895000D01*
X15810000Y-11875000D02*
X15790000Y-11895000D01*
X15790000Y-11975000D02*
X15810000Y-11995000D01*
X15810000Y-11975000D02*
X15790000Y-11995000D01*
X15790000Y-12075000D02*
X15810000Y-12095000D01*
X15810000Y-12075000D02*
X15790000Y-12095000D01*
X15790000Y-12175000D02*
X15810000Y-12195000D01*
X15810000Y-12175000D02*
X15790000Y-12195000D01*
X15800000Y-9390000D02*
X15820000Y-9410000D01*
X15820000Y-9390000D02*
X15800000Y-9410000D01*
X15807500Y-6777700D02*
X15827500Y-6797700D01*
X15827500Y-6777700D02*
X15807500Y-6797700D01*
X15830804Y-8804667D02*
X15850804Y-8824667D01*
X15850804Y-8804667D02*
X15830804Y-8824667D01*
X15890000Y-8120000D02*
X15910000Y-8140000D01*
X15910000Y-8120000D02*
X15890000Y-8140000D01*
X15890000Y-11095000D02*
X15910000Y-11115000D01*
X15910000Y-11095000D02*
X15890000Y-11115000D01*
X15890000Y-11195000D02*
X15910000Y-11215000D01*
X15910000Y-11195000D02*
X15890000Y-11215000D01*
X15890000Y-11295000D02*
X15910000Y-11315000D01*
X15910000Y-11295000D02*
X15890000Y-11315000D01*
X15890000Y-11395000D02*
X15910000Y-11415000D01*
X15910000Y-11395000D02*
X15890000Y-11415000D01*
X15890000Y-11875000D02*
X15910000Y-11895000D01*
X15910000Y-11875000D02*
X15890000Y-11895000D01*
X15890000Y-11975000D02*
X15910000Y-11995000D01*
X15910000Y-11975000D02*
X15890000Y-11995000D01*
X15890000Y-12075000D02*
X15910000Y-12095000D01*
X15910000Y-12075000D02*
X15890000Y-12095000D01*
X15890000Y-12175000D02*
X15910000Y-12195000D01*
X15910000Y-12175000D02*
X15890000Y-12195000D01*
X15915000Y-6815000D02*
X15935000Y-6835000D01*
X15935000Y-6815000D02*
X15915000Y-6835000D01*
X15938000Y-7854000D02*
X15958000Y-7874000D01*
X15958000Y-7854000D02*
X15938000Y-7874000D01*
X15940000Y-8558000D02*
X15960000Y-8578000D01*
X15960000Y-8558000D02*
X15940000Y-8578000D01*
X15940000Y-8620000D02*
X15960000Y-8640000D01*
X15960000Y-8620000D02*
X15940000Y-8640000D01*
X15965000Y-7065000D02*
X15985000Y-7085000D01*
X15985000Y-7065000D02*
X15965000Y-7085000D01*
X15965000Y-7290000D02*
X15985000Y-7310000D01*
X15985000Y-7290000D02*
X15965000Y-7310000D01*
X15990000Y-11095000D02*
X16010000Y-11115000D01*
X16010000Y-11095000D02*
X15990000Y-11115000D01*
X15990000Y-11195000D02*
X16010000Y-11215000D01*
X16010000Y-11195000D02*
X15990000Y-11215000D01*
X15990000Y-11295000D02*
X16010000Y-11315000D01*
X16010000Y-11295000D02*
X15990000Y-11315000D01*
X15990000Y-11395000D02*
X16010000Y-11415000D01*
X16010000Y-11395000D02*
X15990000Y-11415000D01*
X15990000Y-11875000D02*
X16010000Y-11895000D01*
X16010000Y-11875000D02*
X15990000Y-11895000D01*
X15990000Y-11975000D02*
X16010000Y-11995000D01*
X16010000Y-11975000D02*
X15990000Y-11995000D01*
X15990000Y-12075000D02*
X16010000Y-12095000D01*
X16010000Y-12075000D02*
X15990000Y-12095000D01*
X15990000Y-12175000D02*
X16010000Y-12195000D01*
X16010000Y-12175000D02*
X15990000Y-12195000D01*
X15991465Y-6819450D02*
X16011465Y-6839450D01*
X16011465Y-6819450D02*
X15991465Y-6839450D01*
X16015438Y-8806991D02*
X16035438Y-8826991D01*
X16035438Y-8806991D02*
X16015438Y-8826991D01*
X16090000Y-11095000D02*
X16110000Y-11115000D01*
X16110000Y-11095000D02*
X16090000Y-11115000D01*
X16090000Y-11195000D02*
X16110000Y-11215000D01*
X16110000Y-11195000D02*
X16090000Y-11215000D01*
X16090000Y-11295000D02*
X16110000Y-11315000D01*
X16110000Y-11295000D02*
X16090000Y-11315000D01*
X16090000Y-11395000D02*
X16110000Y-11415000D01*
X16110000Y-11395000D02*
X16090000Y-11415000D01*
X16090000Y-11875000D02*
X16110000Y-11895000D01*
X16110000Y-11875000D02*
X16090000Y-11895000D01*
X16090000Y-11975000D02*
X16110000Y-11995000D01*
X16110000Y-11975000D02*
X16090000Y-11995000D01*
X16090000Y-12075000D02*
X16110000Y-12095000D01*
X16110000Y-12075000D02*
X16090000Y-12095000D01*
X16090000Y-12175000D02*
X16110000Y-12195000D01*
X16110000Y-12175000D02*
X16090000Y-12195000D01*
X16090703Y-6817840D02*
X16110703Y-6837840D01*
X16110703Y-6817840D02*
X16090703Y-6837840D01*
X16200000Y-7193000D02*
X16220000Y-7213000D01*
X16220000Y-7193000D02*
X16200000Y-7213000D01*
X16265000Y-8440000D02*
X16285000Y-8460000D01*
X16285000Y-8440000D02*
X16265000Y-8460000D01*
X16265000Y-8540000D02*
X16285000Y-8560000D01*
X16285000Y-8540000D02*
X16265000Y-8560000D01*
X16265000Y-8640000D02*
X16285000Y-8660000D01*
X16285000Y-8640000D02*
X16265000Y-8660000D01*
X16265000Y-8740000D02*
X16285000Y-8760000D01*
X16285000Y-8740000D02*
X16265000Y-8760000D01*
X16294800Y-6776000D02*
X16314800Y-6796000D01*
X16314800Y-6776000D02*
X16294800Y-6796000D01*
X16374900Y-6776200D02*
X16394900Y-6796200D01*
X16394900Y-6776200D02*
X16374900Y-6796200D01*
X16440000Y-9890000D02*
X16460000Y-9910000D01*
X16460000Y-9890000D02*
X16440000Y-9910000D01*
X16440000Y-10015000D02*
X16460000Y-10035000D01*
X16460000Y-10015000D02*
X16440000Y-10035000D01*
X16440000Y-10140000D02*
X16460000Y-10160000D01*
X16460000Y-10140000D02*
X16440000Y-10160000D01*
X16460000Y-9160000D02*
X16480000Y-9180000D01*
X16480000Y-9160000D02*
X16460000Y-9180000D01*
X16479000Y-7981000D02*
X16499000Y-8001000D01*
X16499000Y-7981000D02*
X16479000Y-8001000D01*
X16565000Y-9890000D02*
X16585000Y-9910000D01*
X16585000Y-9890000D02*
X16565000Y-9910000D01*
X16565000Y-10015000D02*
X16585000Y-10035000D01*
X16585000Y-10015000D02*
X16565000Y-10035000D01*
X16565000Y-10140000D02*
X16585000Y-10160000D01*
X16585000Y-10140000D02*
X16565000Y-10160000D01*
X16670000Y-7240000D02*
X16690000Y-7260000D01*
X16690000Y-7240000D02*
X16670000Y-7260000D01*
X16670000Y-9160000D02*
X16690000Y-9180000D01*
X16690000Y-9160000D02*
X16670000Y-9180000D01*
X16690000Y-9890000D02*
X16710000Y-9910000D01*
X16710000Y-9890000D02*
X16690000Y-9910000D01*
X16690000Y-10015000D02*
X16710000Y-10035000D01*
X16710000Y-10015000D02*
X16690000Y-10035000D01*
X16690000Y-10140000D02*
X16710000Y-10160000D01*
X16710000Y-10140000D02*
X16690000Y-10160000D01*
X16740000Y-7150000D02*
X16760000Y-7170000D01*
X16760000Y-7150000D02*
X16740000Y-7170000D01*
X16810000Y-7240000D02*
X16830000Y-7260000D01*
X16830000Y-7240000D02*
X16810000Y-7260000D01*
X16815000Y-9890000D02*
X16835000Y-9910000D01*
X16835000Y-9890000D02*
X16815000Y-9910000D01*
X16815000Y-10015000D02*
X16835000Y-10035000D01*
X16835000Y-10015000D02*
X16815000Y-10035000D01*
X16815000Y-10140000D02*
X16835000Y-10160000D01*
X16835000Y-10140000D02*
X16815000Y-10160000D01*
X16923583Y-8634878D02*
X16943583Y-8654878D01*
X16943583Y-8634878D02*
X16923583Y-8654878D01*
X16940000Y-9890000D02*
X16960000Y-9910000D01*
X16960000Y-9890000D02*
X16940000Y-9910000D01*
X16940000Y-10015000D02*
X16960000Y-10035000D01*
X16960000Y-10015000D02*
X16940000Y-10035000D01*
X16940000Y-10140000D02*
X16960000Y-10160000D01*
X16960000Y-10140000D02*
X16940000Y-10160000D01*
X16960000Y-7240000D02*
X16980000Y-7260000D01*
X16980000Y-7240000D02*
X16960000Y-7260000D01*
X17008412Y-6409632D02*
X17028412Y-6429632D01*
X17028412Y-6409632D02*
X17008412Y-6429632D01*
X17127795Y-6900389D02*
X17147795Y-6920389D01*
X17147795Y-6900389D02*
X17127795Y-6920389D01*
X17130000Y-7090000D02*
X17150000Y-7110000D01*
X17150000Y-7090000D02*
X17130000Y-7110000D01*
X17130000Y-7240000D02*
X17150000Y-7260000D01*
X17150000Y-7240000D02*
X17130000Y-7260000D01*
X17220000Y-7170000D02*
X17240000Y-7190000D01*
X17240000Y-7170000D02*
X17220000Y-7190000D01*
X17270532Y-6801571D02*
X17290532Y-6821571D01*
X17290532Y-6801571D02*
X17270532Y-6821571D01*
X17290000Y-11900000D02*
X17310000Y-11920000D01*
X17310000Y-11900000D02*
X17290000Y-11920000D01*
X17290000Y-12000000D02*
X17310000Y-12020000D01*
X17310000Y-12000000D02*
X17290000Y-12020000D01*
X17290000Y-12100000D02*
X17310000Y-12120000D01*
X17310000Y-12100000D02*
X17290000Y-12120000D01*
X17290000Y-12200000D02*
X17310000Y-12220000D01*
X17310000Y-12200000D02*
X17290000Y-12220000D01*
X17300000Y-11100000D02*
X17320000Y-11120000D01*
X17320000Y-11100000D02*
X17300000Y-11120000D01*
X17300000Y-11200000D02*
X17320000Y-11220000D01*
X17320000Y-11200000D02*
X17300000Y-11220000D01*
X17300000Y-11300000D02*
X17320000Y-11320000D01*
X17320000Y-11300000D02*
X17300000Y-11320000D01*
X17300000Y-11400000D02*
X17320000Y-11420000D01*
X17320000Y-11400000D02*
X17300000Y-11420000D01*
X17310000Y-7240000D02*
X17330000Y-7260000D01*
X17330000Y-7240000D02*
X17310000Y-7260000D01*
X17390000Y-11900000D02*
X17410000Y-11920000D01*
X17410000Y-11900000D02*
X17390000Y-11920000D01*
X17390000Y-12000000D02*
X17410000Y-12020000D01*
X17410000Y-12000000D02*
X17390000Y-12020000D01*
X17390000Y-12100000D02*
X17410000Y-12120000D01*
X17410000Y-12100000D02*
X17390000Y-12120000D01*
X17390000Y-12200000D02*
X17410000Y-12220000D01*
X17410000Y-12200000D02*
X17390000Y-12220000D01*
X17400000Y-7170000D02*
X17420000Y-7190000D01*
X17420000Y-7170000D02*
X17400000Y-7190000D01*
X17400000Y-11100000D02*
X17420000Y-11120000D01*
X17420000Y-11100000D02*
X17400000Y-11120000D01*
X17400000Y-11200000D02*
X17420000Y-11220000D01*
X17420000Y-11200000D02*
X17400000Y-11220000D01*
X17400000Y-11300000D02*
X17420000Y-11320000D01*
X17420000Y-11300000D02*
X17400000Y-11320000D01*
X17400000Y-11400000D02*
X17420000Y-11420000D01*
X17420000Y-11400000D02*
X17400000Y-11420000D01*
X17430400Y-6444600D02*
X17450400Y-6464600D01*
X17450400Y-6444600D02*
X17430400Y-6464600D01*
X17440000Y-6590000D02*
X17460000Y-6610000D01*
X17460000Y-6590000D02*
X17440000Y-6610000D01*
X17490000Y-11900000D02*
X17510000Y-11920000D01*
X17510000Y-11900000D02*
X17490000Y-11920000D01*
X17490000Y-12000000D02*
X17510000Y-12020000D01*
X17510000Y-12000000D02*
X17490000Y-12020000D01*
X17490000Y-12100000D02*
X17510000Y-12120000D01*
X17510000Y-12100000D02*
X17490000Y-12120000D01*
X17490000Y-12200000D02*
X17510000Y-12220000D01*
X17510000Y-12200000D02*
X17490000Y-12220000D01*
X17500000Y-11100000D02*
X17520000Y-11120000D01*
X17520000Y-11100000D02*
X17500000Y-11120000D01*
X17500000Y-11200000D02*
X17520000Y-11220000D01*
X17520000Y-11200000D02*
X17500000Y-11220000D01*
X17500000Y-11300000D02*
X17520000Y-11320000D01*
X17520000Y-11300000D02*
X17500000Y-11320000D01*
X17500000Y-11400000D02*
X17520000Y-11420000D01*
X17520000Y-11400000D02*
X17500000Y-11420000D01*
X17502669Y-6902880D02*
X17522669Y-6922880D01*
X17522669Y-6902880D02*
X17502669Y-6922880D01*
X17590000Y-11900000D02*
X17610000Y-11920000D01*
X17610000Y-11900000D02*
X17590000Y-11920000D01*
X17590000Y-12000000D02*
X17610000Y-12020000D01*
X17610000Y-12000000D02*
X17590000Y-12020000D01*
X17590000Y-12100000D02*
X17610000Y-12120000D01*
X17610000Y-12100000D02*
X17590000Y-12120000D01*
X17590000Y-12200000D02*
X17610000Y-12220000D01*
X17610000Y-12200000D02*
X17590000Y-12220000D01*
X17600000Y-11100000D02*
X17620000Y-11120000D01*
X17620000Y-11100000D02*
X17600000Y-11120000D01*
X17600000Y-11200000D02*
X17620000Y-11220000D01*
X17620000Y-11200000D02*
X17600000Y-11220000D01*
X17600000Y-11300000D02*
X17620000Y-11320000D01*
X17620000Y-11300000D02*
X17600000Y-11320000D01*
X17600000Y-11400000D02*
X17620000Y-11420000D01*
X17620000Y-11400000D02*
X17600000Y-11420000D01*
X17690000Y-10290000D02*
X17710000Y-10310000D01*
X17710000Y-10290000D02*
X17690000Y-10310000D01*
X17717411Y-7239941D02*
X17737411Y-7259941D01*
X17737411Y-7239941D02*
X17717411Y-7259941D01*
X17787411Y-7149941D02*
X17807411Y-7169941D01*
X17807411Y-7149941D02*
X17787411Y-7169941D01*
X17857411Y-7239941D02*
X17877411Y-7259941D01*
X17877411Y-7239941D02*
X17857411Y-7259941D01*
X18007411Y-7239941D02*
X18027411Y-7259941D01*
X18027411Y-7239941D02*
X18007411Y-7259941D01*
X18040000Y-11040000D02*
X18060000Y-11060000D01*
X18060000Y-11040000D02*
X18040000Y-11060000D01*
X18040000Y-11490000D02*
X18060000Y-11510000D01*
X18060000Y-11490000D02*
X18040000Y-11510000D01*
X18059000Y-6409000D02*
X18079000Y-6429000D01*
X18079000Y-6409000D02*
X18059000Y-6429000D01*
X18090000Y-10990000D02*
X18110000Y-11010000D01*
X18110000Y-10990000D02*
X18090000Y-11010000D01*
X18090000Y-11090000D02*
X18110000Y-11110000D01*
X18110000Y-11090000D02*
X18090000Y-11110000D01*
X18090000Y-11440000D02*
X18110000Y-11460000D01*
X18110000Y-11440000D02*
X18090000Y-11460000D01*
X18090000Y-11540000D02*
X18110000Y-11560000D01*
X18110000Y-11540000D02*
X18090000Y-11560000D01*
X18140000Y-11040000D02*
X18160000Y-11060000D01*
X18160000Y-11040000D02*
X18140000Y-11060000D01*
X18140000Y-11490000D02*
X18160000Y-11510000D01*
X18160000Y-11490000D02*
X18140000Y-11510000D01*
X18177411Y-7089941D02*
X18197411Y-7109941D01*
X18197411Y-7089941D02*
X18177411Y-7109941D01*
X18177411Y-7239941D02*
X18197411Y-7259941D01*
X18197411Y-7239941D02*
X18177411Y-7259941D01*
X18178047Y-6900431D02*
X18198047Y-6920431D01*
X18198047Y-6900431D02*
X18178047Y-6920431D01*
X18190000Y-10390000D02*
X18210000Y-10410000D01*
X18210000Y-10390000D02*
X18190000Y-10410000D01*
X18190000Y-10490000D02*
X18210000Y-10510000D01*
X18210000Y-10490000D02*
X18190000Y-10510000D01*
X18190000Y-10590000D02*
X18210000Y-10610000D01*
X18210000Y-10590000D02*
X18190000Y-10610000D01*
X18190000Y-10990000D02*
X18210000Y-11010000D01*
X18210000Y-10990000D02*
X18190000Y-11010000D01*
X18190000Y-11090000D02*
X18210000Y-11110000D01*
X18210000Y-11090000D02*
X18190000Y-11110000D01*
X18190000Y-11440000D02*
X18210000Y-11460000D01*
X18210000Y-11440000D02*
X18190000Y-11460000D01*
X18190000Y-11540000D02*
X18210000Y-11560000D01*
X18210000Y-11540000D02*
X18190000Y-11560000D01*
X18240000Y-11040000D02*
X18260000Y-11060000D01*
X18260000Y-11040000D02*
X18240000Y-11060000D01*
X18240000Y-11490000D02*
X18260000Y-11510000D01*
X18260000Y-11490000D02*
X18240000Y-11510000D01*
X18267411Y-7169941D02*
X18287411Y-7189941D01*
X18287411Y-7169941D02*
X18267411Y-7189941D01*
X18290000Y-10390000D02*
X18310000Y-10410000D01*
X18310000Y-10390000D02*
X18290000Y-10410000D01*
X18290000Y-10490000D02*
X18310000Y-10510000D01*
X18310000Y-10490000D02*
X18290000Y-10510000D01*
X18290000Y-10590000D02*
X18310000Y-10610000D01*
X18310000Y-10590000D02*
X18290000Y-10610000D01*
X18290000Y-10990000D02*
X18310000Y-11010000D01*
X18310000Y-10990000D02*
X18290000Y-11010000D01*
X18290000Y-11090000D02*
X18310000Y-11110000D01*
X18310000Y-11090000D02*
X18290000Y-11110000D01*
X18290000Y-11440000D02*
X18310000Y-11460000D01*
X18310000Y-11440000D02*
X18290000Y-11460000D01*
X18290000Y-11540000D02*
X18310000Y-11560000D01*
X18310000Y-11540000D02*
X18290000Y-11560000D01*
X18325725Y-6803260D02*
X18345725Y-6823260D01*
X18345725Y-6803260D02*
X18325725Y-6823260D01*
X18340000Y-11040000D02*
X18360000Y-11060000D01*
X18360000Y-11040000D02*
X18340000Y-11060000D01*
X18340000Y-11490000D02*
X18360000Y-11510000D01*
X18360000Y-11490000D02*
X18340000Y-11510000D01*
X18357411Y-7239941D02*
X18377411Y-7259941D01*
X18377411Y-7239941D02*
X18357411Y-7259941D01*
X18390000Y-10390000D02*
X18410000Y-10410000D01*
X18410000Y-10390000D02*
X18390000Y-10410000D01*
X18390000Y-10490000D02*
X18410000Y-10510000D01*
X18410000Y-10490000D02*
X18390000Y-10510000D01*
X18390000Y-10590000D02*
X18410000Y-10610000D01*
X18410000Y-10590000D02*
X18390000Y-10610000D01*
X18390000Y-10990000D02*
X18410000Y-11010000D01*
X18410000Y-10990000D02*
X18390000Y-11010000D01*
X18390000Y-11090000D02*
X18410000Y-11110000D01*
X18410000Y-11090000D02*
X18390000Y-11110000D01*
X18390000Y-11440000D02*
X18410000Y-11460000D01*
X18410000Y-11440000D02*
X18390000Y-11460000D01*
X18390000Y-11540000D02*
X18410000Y-11560000D01*
X18410000Y-11540000D02*
X18390000Y-11560000D01*
X18440000Y-11040000D02*
X18460000Y-11060000D01*
X18460000Y-11040000D02*
X18440000Y-11060000D01*
X18440000Y-11490000D02*
X18460000Y-11510000D01*
X18460000Y-11490000D02*
X18440000Y-11510000D01*
X18447411Y-7169941D02*
X18467411Y-7189941D01*
X18467411Y-7169941D02*
X18447411Y-7189941D01*
X18480400Y-6444600D02*
X18500400Y-6464600D01*
X18500400Y-6444600D02*
X18480400Y-6464600D01*
X18490000Y-6590000D02*
X18510000Y-6610000D01*
X18510000Y-6590000D02*
X18490000Y-6610000D01*
X18490000Y-10290000D02*
X18510000Y-10310000D01*
X18510000Y-10290000D02*
X18490000Y-10310000D01*
X18490000Y-10990000D02*
X18510000Y-11010000D01*
X18510000Y-10990000D02*
X18490000Y-11010000D01*
X18490000Y-11090000D02*
X18510000Y-11110000D01*
X18510000Y-11090000D02*
X18490000Y-11110000D01*
X18490000Y-11440000D02*
X18510000Y-11460000D01*
X18510000Y-11440000D02*
X18490000Y-11460000D01*
X18490000Y-11540000D02*
X18510000Y-11560000D01*
X18510000Y-11540000D02*
X18490000Y-11560000D01*
X18540000Y-11040000D02*
X18560000Y-11060000D01*
X18560000Y-11040000D02*
X18540000Y-11060000D01*
X18540000Y-11490000D02*
X18560000Y-11510000D01*
X18560000Y-11490000D02*
X18540000Y-11510000D01*
X18565000Y-6915000D02*
X18585000Y-6935000D01*
X18585000Y-6915000D02*
X18565000Y-6935000D01*
X18645236Y-6888902D02*
X18665236Y-6908902D01*
X18665236Y-6888902D02*
X18645236Y-6908902D01*
X18665000Y-10040000D02*
X18685000Y-10060000D01*
X18685000Y-10040000D02*
X18665000Y-10060000D01*
X18665000Y-10140000D02*
X18685000Y-10160000D01*
X18685000Y-10140000D02*
X18665000Y-10160000D01*
X18800000Y-10451000D02*
X18820000Y-10471000D01*
X18820000Y-10451000D02*
X18800000Y-10471000D01*
X18988750Y-11100000D02*
X19008750Y-11120000D01*
X19008750Y-11100000D02*
X18988750Y-11120000D01*
X18988750Y-11200000D02*
X19008750Y-11220000D01*
X19008750Y-11200000D02*
X18988750Y-11220000D01*
X18988750Y-11300000D02*
X19008750Y-11320000D01*
X19008750Y-11300000D02*
X18988750Y-11320000D01*
X18988750Y-11400000D02*
X19008750Y-11420000D01*
X19008750Y-11400000D02*
X18988750Y-11420000D01*
X18990000Y-11900000D02*
X19010000Y-11920000D01*
X19010000Y-11900000D02*
X18990000Y-11920000D01*
X18990000Y-12000000D02*
X19010000Y-12020000D01*
X19010000Y-12000000D02*
X18990000Y-12020000D01*
X18990000Y-12100000D02*
X19010000Y-12120000D01*
X19010000Y-12100000D02*
X18990000Y-12120000D01*
X18990000Y-12200000D02*
X19010000Y-12220000D01*
X19010000Y-12200000D02*
X18990000Y-12220000D01*
X19088750Y-11100000D02*
X19108750Y-11120000D01*
X19108750Y-11100000D02*
X19088750Y-11120000D01*
X19088750Y-11200000D02*
X19108750Y-11220000D01*
X19108750Y-11200000D02*
X19088750Y-11220000D01*
X19088750Y-11300000D02*
X19108750Y-11320000D01*
X19108750Y-11300000D02*
X19088750Y-11320000D01*
X19088750Y-11400000D02*
X19108750Y-11420000D01*
X19108750Y-11400000D02*
X19088750Y-11420000D01*
X19090000Y-11900000D02*
X19110000Y-11920000D01*
X19110000Y-11900000D02*
X19090000Y-11920000D01*
X19090000Y-12000000D02*
X19110000Y-12020000D01*
X19110000Y-12000000D02*
X19090000Y-12020000D01*
X19090000Y-12100000D02*
X19110000Y-12120000D01*
X19110000Y-12100000D02*
X19090000Y-12120000D01*
X19090000Y-12200000D02*
X19110000Y-12220000D01*
X19110000Y-12200000D02*
X19090000Y-12220000D01*
X19188750Y-11100000D02*
X19208750Y-11120000D01*
X19208750Y-11100000D02*
X19188750Y-11120000D01*
X19188750Y-11200000D02*
X19208750Y-11220000D01*
X19208750Y-11200000D02*
X19188750Y-11220000D01*
X19188750Y-11300000D02*
X19208750Y-11320000D01*
X19208750Y-11300000D02*
X19188750Y-11320000D01*
X19188750Y-11400000D02*
X19208750Y-11420000D01*
X19208750Y-11400000D02*
X19188750Y-11420000D01*
X19190000Y-11900000D02*
X19210000Y-11920000D01*
X19210000Y-11900000D02*
X19190000Y-11920000D01*
X19190000Y-12000000D02*
X19210000Y-12020000D01*
X19210000Y-12000000D02*
X19190000Y-12020000D01*
X19190000Y-12100000D02*
X19210000Y-12120000D01*
X19210000Y-12100000D02*
X19190000Y-12120000D01*
X19190000Y-12200000D02*
X19210000Y-12220000D01*
X19210000Y-12200000D02*
X19190000Y-12220000D01*
X19215000Y-9890000D02*
X19235000Y-9910000D01*
X19235000Y-9890000D02*
X19215000Y-9910000D01*
X19215000Y-10015000D02*
X19235000Y-10035000D01*
X19235000Y-10015000D02*
X19215000Y-10035000D01*
X19215000Y-10140000D02*
X19235000Y-10160000D01*
X19235000Y-10140000D02*
X19215000Y-10160000D01*
X19288750Y-11100000D02*
X19308750Y-11120000D01*
X19308750Y-11100000D02*
X19288750Y-11120000D01*
X19288750Y-11200000D02*
X19308750Y-11220000D01*
X19308750Y-11200000D02*
X19288750Y-11220000D01*
X19288750Y-11300000D02*
X19308750Y-11320000D01*
X19308750Y-11300000D02*
X19288750Y-11320000D01*
X19288750Y-11400000D02*
X19308750Y-11420000D01*
X19308750Y-11400000D02*
X19288750Y-11420000D01*
X19290000Y-11900000D02*
X19310000Y-11920000D01*
X19310000Y-11900000D02*
X19290000Y-11920000D01*
X19290000Y-12000000D02*
X19310000Y-12020000D01*
X19310000Y-12000000D02*
X19290000Y-12020000D01*
X19290000Y-12100000D02*
X19310000Y-12120000D01*
X19310000Y-12100000D02*
X19290000Y-12120000D01*
X19290000Y-12200000D02*
X19310000Y-12220000D01*
X19310000Y-12200000D02*
X19290000Y-12220000D01*
X19340000Y-9890000D02*
X19360000Y-9910000D01*
X19360000Y-9890000D02*
X19340000Y-9910000D01*
X19340000Y-10015000D02*
X19360000Y-10035000D01*
X19360000Y-10015000D02*
X19340000Y-10035000D01*
X19340000Y-10140000D02*
X19360000Y-10160000D01*
X19360000Y-10140000D02*
X19340000Y-10160000D01*
X19340927Y-6659452D02*
X19360927Y-6679452D01*
X19360927Y-6659452D02*
X19340927Y-6679452D01*
X19640000Y-9890000D02*
X19660000Y-9910000D01*
X19660000Y-9890000D02*
X19640000Y-9910000D01*
X19640000Y-10015000D02*
X19660000Y-10035000D01*
X19660000Y-10015000D02*
X19640000Y-10035000D01*
X19640000Y-10140000D02*
X19660000Y-10160000D01*
X19660000Y-10140000D02*
X19640000Y-10160000D01*
X19765000Y-9890000D02*
X19785000Y-9910000D01*
X19785000Y-9890000D02*
X19765000Y-9910000D01*
X19765000Y-10015000D02*
X19785000Y-10035000D01*
X19785000Y-10015000D02*
X19765000Y-10035000D01*
X19765000Y-10140000D02*
X19785000Y-10160000D01*
X19785000Y-10140000D02*
X19765000Y-10160000D01*
D13*
X10730000Y-8135000D02*
G75*
G03*
X10730000Y-8135000I-30000J0D01*
G01*
D11*
X10645000Y-8165000D02*
X10755000Y-8165000D01*
X10755000Y-8165000D02*
G75*
G03*
X10755000Y-8105000I0J30000D01*
G01*
X10755000Y-8105000D02*
X10645000Y-8105000D01*
X10645000Y-8105000D02*
G75*
G03*
X10645000Y-8165000I0J-30000D01*
G01*
D13*
X10730000Y-9485000D02*
G75*
G03*
X10730000Y-9485000I-30000J0D01*
G01*
D11*
X10645000Y-9515000D02*
X10755000Y-9515000D01*
X10755000Y-9515000D02*
G75*
G03*
X10755000Y-9455000I0J30000D01*
G01*
X10755000Y-9455000D02*
X10645000Y-9455000D01*
X10645000Y-9455000D02*
G75*
G03*
X10645000Y-9515000I0J-30000D01*
G01*
D13*
X11255000Y-13335000D02*
G75*
G03*
X11255000Y-13335000I-30000J0D01*
G01*
D11*
X11255000Y-13390000D02*
X11255000Y-13280000D01*
X11255000Y-13280000D02*
G75*
G03*
X11195000Y-13280000I-30000J0D01*
G01*
X11195000Y-13280000D02*
X11195000Y-13390000D01*
X11195000Y-13390000D02*
G75*
G03*
X11255000Y-13390000I30000J0D01*
G01*
D13*
X12605000Y-13335000D02*
G75*
G03*
X12605000Y-13335000I-30000J0D01*
G01*
D11*
X12605000Y-13390000D02*
X12605000Y-13280000D01*
X12605000Y-13280000D02*
G75*
G03*
X12545000Y-13280000I-30000J0D01*
G01*
X12545000Y-13280000D02*
X12545000Y-13390000D01*
X12545000Y-13390000D02*
G75*
G03*
X12605000Y-13390000I30000J0D01*
G01*
D13*
X14455000Y-13335000D02*
G75*
G03*
X14455000Y-13335000I-30000J0D01*
G01*
D11*
X14455000Y-13390000D02*
X14455000Y-13280000D01*
X14455000Y-13280000D02*
G75*
G03*
X14395000Y-13280000I-30000J0D01*
G01*
X14395000Y-13280000D02*
X14395000Y-13390000D01*
X14395000Y-13390000D02*
G75*
G03*
X14455000Y-13390000I30000J0D01*
G01*
D13*
X15662500Y-6210000D02*
G75*
G03*
X15662500Y-6210000I-30000J0D01*
G01*
D11*
X15662500Y-6250000D02*
X15662500Y-6170000D01*
X15662500Y-6170000D02*
G75*
G03*
X15602500Y-6170000I-30000J0D01*
G01*
X15602500Y-6170000D02*
X15602500Y-6250000D01*
X15602500Y-6250000D02*
G75*
G03*
X15662500Y-6250000I30000J0D01*
G01*
D13*
X15662500Y-6627000D02*
G75*
G03*
X15662500Y-6627000I-30000J0D01*
G01*
D11*
X15662500Y-6682000D02*
X15662500Y-6572000D01*
X15662500Y-6572000D02*
G75*
G03*
X15602500Y-6572000I-30000J0D01*
G01*
X15602500Y-6572000D02*
X15602500Y-6682000D01*
X15602500Y-6682000D02*
G75*
G03*
X15662500Y-6682000I30000J0D01*
G01*
D13*
X15805000Y-13335000D02*
G75*
G03*
X15805000Y-13335000I-30000J0D01*
G01*
D11*
X15805000Y-13390000D02*
X15805000Y-13280000D01*
X15805000Y-13280000D02*
G75*
G03*
X15745000Y-13280000I-30000J0D01*
G01*
X15745000Y-13280000D02*
X15745000Y-13390000D01*
X15745000Y-13390000D02*
G75*
G03*
X15805000Y-13390000I30000J0D01*
G01*
D13*
X16527500Y-6210000D02*
G75*
G03*
X16527500Y-6210000I-30000J0D01*
G01*
D11*
X16527500Y-6250000D02*
X16527500Y-6170000D01*
X16527500Y-6170000D02*
G75*
G03*
X16467500Y-6170000I-30000J0D01*
G01*
X16467500Y-6170000D02*
X16467500Y-6250000D01*
X16467500Y-6250000D02*
G75*
G03*
X16527500Y-6250000I30000J0D01*
G01*
D13*
X16527500Y-6627000D02*
G75*
G03*
X16527500Y-6627000I-30000J0D01*
G01*
D11*
X16527500Y-6682000D02*
X16527500Y-6572000D01*
X16527500Y-6572000D02*
G75*
G03*
X16467500Y-6572000I-30000J0D01*
G01*
X16467500Y-6572000D02*
X16467500Y-6682000D01*
X16467500Y-6682000D02*
G75*
G03*
X16527500Y-6682000I30000J0D01*
G01*
D13*
X17655000Y-13335000D02*
G75*
G03*
X17655000Y-13335000I-30000J0D01*
G01*
D11*
X17655000Y-13390000D02*
X17655000Y-13280000D01*
X17655000Y-13280000D02*
G75*
G03*
X17595000Y-13280000I-30000J0D01*
G01*
X17595000Y-13280000D02*
X17595000Y-13390000D01*
X17595000Y-13390000D02*
G75*
G03*
X17655000Y-13390000I30000J0D01*
G01*
D13*
X19005000Y-13335000D02*
G75*
G03*
X19005000Y-13335000I-30000J0D01*
G01*
D11*
X19005000Y-13390000D02*
X19005000Y-13280000D01*
X19005000Y-13280000D02*
G75*
G03*
X18945000Y-13280000I-30000J0D01*
G01*
X18945000Y-13280000D02*
X18945000Y-13390000D01*
X18945000Y-13390000D02*
G75*
G03*
X19005000Y-13390000I30000J0D01*
G01*
D14*
X12300000Y-9302500D02*
X12300000Y-9397500D01*
X12252500Y-9350000D02*
X12347500Y-9350000D01*
X12550000Y-9302500D02*
X12550000Y-9397500D01*
X12502500Y-9350000D02*
X12597500Y-9350000D01*
X12800000Y-9302500D02*
X12800000Y-9397500D01*
X12752500Y-9350000D02*
X12847500Y-9350000D01*
X13050000Y-9302500D02*
X13050000Y-9397500D01*
X13002500Y-9350000D02*
X13097500Y-9350000D01*
X13300000Y-9302500D02*
X13300000Y-9397500D01*
X13252500Y-9350000D02*
X13347500Y-9350000D01*
X14250000Y-9302500D02*
X14250000Y-9397500D01*
X14202500Y-9350000D02*
X14297500Y-9350000D01*
X14500000Y-9302500D02*
X14500000Y-9397500D01*
X14452500Y-9350000D02*
X14547500Y-9350000D01*
X14750000Y-9302500D02*
X14750000Y-9397500D01*
X14702500Y-9350000D02*
X14797500Y-9350000D01*
X15000000Y-9302500D02*
X15000000Y-9397500D01*
X14952500Y-9350000D02*
X15047500Y-9350000D01*
X15250000Y-9302500D02*
X15250000Y-9397500D01*
X15202500Y-9350000D02*
X15297500Y-9350000D01*
X16200000Y-9302500D02*
X16200000Y-9397500D01*
X16152500Y-9350000D02*
X16247500Y-9350000D01*
X16450000Y-9302500D02*
X16450000Y-9397500D01*
X16402500Y-9350000D02*
X16497500Y-9350000D01*
X16700000Y-9302500D02*
X16700000Y-9397500D01*
X16652500Y-9350000D02*
X16747500Y-9350000D01*
X16950000Y-9302500D02*
X16950000Y-9397500D01*
X16902500Y-9350000D02*
X16997500Y-9350000D01*
X17200000Y-9302500D02*
X17200000Y-9397500D01*
X17152500Y-9350000D02*
X17247500Y-9350000D01*
D10*
X18282856Y-7812856D02*
X18282856Y-7742144D01*
X18212144Y-7742144D01*
X18212144Y-7812856D01*
X18282856Y-7812856D01*
X18285356Y-8575356D02*
X18285356Y-8504644D01*
X18214644Y-8504644D01*
X18214644Y-8575356D01*
X18285356Y-8575356D01*
X18285356Y-9332856D02*
X18285356Y-9262144D01*
X18214644Y-9262144D01*
X18214644Y-9332856D01*
X18285356Y-9332856D01*
X18532856Y-7812856D02*
X18532856Y-7742144D01*
X18462144Y-7742144D01*
X18462144Y-7812856D01*
X18532856Y-7812856D01*
X18535356Y-8575356D02*
X18535356Y-8504644D01*
X18464644Y-8504644D01*
X18464644Y-8575356D01*
X18535356Y-8575356D01*
X18535356Y-9332856D02*
X18535356Y-9262144D01*
X18464644Y-9262144D01*
X18464644Y-9332856D01*
X18535356Y-9332856D01*
D15*
X19500000Y-7132000D02*
X19576000Y-7056000D01*
X19500000Y-6980000D01*
X19424000Y-7056000D01*
X19500000Y-7132000D01*
X19500000Y-7640000D02*
X19576000Y-7564000D01*
X19500000Y-7488000D01*
X19424000Y-7564000D01*
X19500000Y-7640000D01*
X19500000Y-8368000D02*
X19576000Y-8292000D01*
X19500000Y-8216000D01*
X19424000Y-8292000D01*
X19500000Y-8368000D01*
X19500000Y-8876000D02*
X19576000Y-8800000D01*
X19500000Y-8724000D01*
X19424000Y-8800000D01*
X19500000Y-8876000D01*
X19500000Y-9384000D02*
X19576000Y-9308000D01*
X19500000Y-9232000D01*
X19424000Y-9308000D01*
X19500000Y-9384000D01*
D16*
X11165000Y-8315000D02*
X11435000Y-8585000D01*
X11435000Y-8315000D02*
X11165000Y-8585000D01*
X11435000Y-8450000D02*
G75*
G03*
X11435000Y-8450000I-135000J0D01*
G01*
X11165000Y-9035000D02*
X11435000Y-9305000D01*
X11435000Y-9035000D02*
X11165000Y-9305000D01*
X11435000Y-9170000D02*
G75*
G03*
X11435000Y-9170000I-135000J0D01*
G01*
X11405000Y-12600000D02*
X11675000Y-12870000D01*
X11675000Y-12600000D02*
X11405000Y-12870000D01*
X11675000Y-12735000D02*
G75*
G03*
X11675000Y-12735000I-135000J0D01*
G01*
X12125000Y-12600000D02*
X12395000Y-12870000D01*
X12395000Y-12600000D02*
X12125000Y-12870000D01*
X12395000Y-12735000D02*
G75*
G03*
X12395000Y-12735000I-135000J0D01*
G01*
X14605000Y-12600000D02*
X14875000Y-12870000D01*
X14875000Y-12600000D02*
X14605000Y-12870000D01*
X14875000Y-12735000D02*
G75*
G03*
X14875000Y-12735000I-135000J0D01*
G01*
X15325000Y-12600000D02*
X15595000Y-12870000D01*
X15595000Y-12600000D02*
X15325000Y-12870000D01*
X15595000Y-12735000D02*
G75*
G03*
X15595000Y-12735000I-135000J0D01*
G01*
X17805000Y-12600000D02*
X18075000Y-12870000D01*
X18075000Y-12600000D02*
X17805000Y-12870000D01*
X18075000Y-12735000D02*
G75*
G03*
X18075000Y-12735000I-135000J0D01*
G01*
X18525000Y-12600000D02*
X18795000Y-12870000D01*
X18795000Y-12600000D02*
X18525000Y-12870000D01*
X18795000Y-12735000D02*
G75*
G03*
X18795000Y-12735000I-135000J0D01*
G01*
D17*
X10140000Y-6140000D02*
X10460000Y-6460000D01*
X10460000Y-6140000D02*
X10140000Y-6460000D01*
X10300000Y-6140000D02*
X10300000Y-6460000D01*
X10140000Y-6300000D02*
X10460000Y-6300000D01*
X10140000Y-13040000D02*
X10460000Y-13360000D01*
X10460000Y-13040000D02*
X10140000Y-13360000D01*
X10300000Y-13040000D02*
X10300000Y-13360000D01*
X10140000Y-13200000D02*
X10460000Y-13200000D01*
X13340000Y-13040000D02*
X13660000Y-13360000D01*
X13660000Y-13040000D02*
X13340000Y-13360000D01*
X13500000Y-13040000D02*
X13500000Y-13360000D01*
X13340000Y-13200000D02*
X13660000Y-13200000D01*
X16540000Y-13040000D02*
X16860000Y-13360000D01*
X16860000Y-13040000D02*
X16540000Y-13360000D01*
X16700000Y-13040000D02*
X16700000Y-13360000D01*
X16540000Y-13200000D02*
X16860000Y-13200000D01*
X19740000Y-6140000D02*
X20060000Y-6460000D01*
X20060000Y-6140000D02*
X19740000Y-6460000D01*
X19900000Y-6140000D02*
X19900000Y-6460000D01*
X19740000Y-6300000D02*
X20060000Y-6300000D01*
X19740000Y-13040000D02*
X20060000Y-13360000D01*
X20060000Y-13040000D02*
X19740000Y-13360000D01*
X19900000Y-13040000D02*
X19900000Y-13360000D01*
X19740000Y-13200000D02*
X20060000Y-13200000D01*
D18*
X10475000Y-8225000D02*
X10925000Y-8675000D01*
X10925000Y-8225000D02*
X10475000Y-8675000D01*
X10859101Y-8609101D02*
X10859101Y-8290899D01*
X10540899Y-8290899D01*
X10540899Y-8609101D01*
X10859101Y-8609101D01*
X10475000Y-8945000D02*
X10925000Y-9395000D01*
X10925000Y-8945000D02*
X10475000Y-9395000D01*
X10859101Y-9329101D02*
X10859101Y-9010899D01*
X10540899Y-9010899D01*
X10540899Y-9329101D01*
X10859101Y-9329101D01*
D11*
X10242619Y-13817524D02*
X10242619Y-13617524D01*
X10242619Y-13617524D02*
X10290238Y-13617524D01*
X10290238Y-13617524D02*
X10318810Y-13627048D01*
X10318810Y-13627048D02*
X10337857Y-13646095D01*
X10337857Y-13646095D02*
X10347381Y-13665143D01*
X10347381Y-13665143D02*
X10356905Y-13703238D01*
X10356905Y-13703238D02*
X10356905Y-13731809D01*
X10356905Y-13731809D02*
X10347381Y-13769905D01*
X10347381Y-13769905D02*
X10337857Y-13788952D01*
X10337857Y-13788952D02*
X10318810Y-13808000D01*
X10318810Y-13808000D02*
X10290238Y-13817524D01*
X10290238Y-13817524D02*
X10242619Y-13817524D01*
X10442619Y-13817524D02*
X10442619Y-13684190D01*
X10442619Y-13722286D02*
X10452143Y-13703238D01*
X10452143Y-13703238D02*
X10461667Y-13693714D01*
X10461667Y-13693714D02*
X10480714Y-13684190D01*
X10480714Y-13684190D02*
X10499762Y-13684190D01*
X10566429Y-13817524D02*
X10566429Y-13684190D01*
X10566429Y-13617524D02*
X10556905Y-13627048D01*
X10556905Y-13627048D02*
X10566429Y-13636571D01*
X10566429Y-13636571D02*
X10575952Y-13627048D01*
X10575952Y-13627048D02*
X10566429Y-13617524D01*
X10566429Y-13617524D02*
X10566429Y-13636571D01*
X10690238Y-13817524D02*
X10671190Y-13808000D01*
X10671190Y-13808000D02*
X10661667Y-13788952D01*
X10661667Y-13788952D02*
X10661667Y-13617524D01*
X10795000Y-13817524D02*
X10775952Y-13808000D01*
X10775952Y-13808000D02*
X10766429Y-13788952D01*
X10766429Y-13788952D02*
X10766429Y-13617524D01*
X11023571Y-13817524D02*
X11023571Y-13617524D01*
X11023571Y-13617524D02*
X11090238Y-13760381D01*
X11090238Y-13760381D02*
X11156905Y-13617524D01*
X11156905Y-13617524D02*
X11156905Y-13817524D01*
X11337857Y-13817524D02*
X11337857Y-13712762D01*
X11337857Y-13712762D02*
X11328333Y-13693714D01*
X11328333Y-13693714D02*
X11309286Y-13684190D01*
X11309286Y-13684190D02*
X11271190Y-13684190D01*
X11271190Y-13684190D02*
X11252143Y-13693714D01*
X11337857Y-13808000D02*
X11318809Y-13817524D01*
X11318809Y-13817524D02*
X11271190Y-13817524D01*
X11271190Y-13817524D02*
X11252143Y-13808000D01*
X11252143Y-13808000D02*
X11242619Y-13788952D01*
X11242619Y-13788952D02*
X11242619Y-13769905D01*
X11242619Y-13769905D02*
X11252143Y-13750857D01*
X11252143Y-13750857D02*
X11271190Y-13741333D01*
X11271190Y-13741333D02*
X11318809Y-13741333D01*
X11318809Y-13741333D02*
X11337857Y-13731809D01*
X11433095Y-13684190D02*
X11433095Y-13884190D01*
X11433095Y-13693714D02*
X11452143Y-13684190D01*
X11452143Y-13684190D02*
X11490238Y-13684190D01*
X11490238Y-13684190D02*
X11509286Y-13693714D01*
X11509286Y-13693714D02*
X11518809Y-13703238D01*
X11518809Y-13703238D02*
X11528333Y-13722286D01*
X11528333Y-13722286D02*
X11528333Y-13779428D01*
X11528333Y-13779428D02*
X11518809Y-13798476D01*
X11518809Y-13798476D02*
X11509286Y-13808000D01*
X11509286Y-13808000D02*
X11490238Y-13817524D01*
X11490238Y-13817524D02*
X11452143Y-13817524D01*
X11452143Y-13817524D02*
X11433095Y-13808000D01*
X11614048Y-13798476D02*
X11623571Y-13808000D01*
X11623571Y-13808000D02*
X11614048Y-13817524D01*
X11614048Y-13817524D02*
X11604524Y-13808000D01*
X11604524Y-13808000D02*
X11614048Y-13798476D01*
X11614048Y-13798476D02*
X11614048Y-13817524D01*
X11614048Y-13693714D02*
X11623571Y-13703238D01*
X11623571Y-13703238D02*
X11614048Y-13712762D01*
X11614048Y-13712762D02*
X11604524Y-13703238D01*
X11604524Y-13703238D02*
X11614048Y-13693714D01*
X11614048Y-13693714D02*
X11614048Y-13712762D01*
D12*
X9975000Y-14135000D02*
X9995000Y-14155000D01*
X9995000Y-14135000D02*
X9975000Y-14155000D01*
D11*
X10280714Y-14037524D02*
X10299762Y-14037524D01*
X10299762Y-14037524D02*
X10318810Y-14047048D01*
X10318810Y-14047048D02*
X10328333Y-14056571D01*
X10328333Y-14056571D02*
X10337857Y-14075619D01*
X10337857Y-14075619D02*
X10347381Y-14113714D01*
X10347381Y-14113714D02*
X10347381Y-14161333D01*
X10347381Y-14161333D02*
X10337857Y-14199428D01*
X10337857Y-14199428D02*
X10328333Y-14218476D01*
X10328333Y-14218476D02*
X10318810Y-14228000D01*
X10318810Y-14228000D02*
X10299762Y-14237524D01*
X10299762Y-14237524D02*
X10280714Y-14237524D01*
X10280714Y-14237524D02*
X10261667Y-14228000D01*
X10261667Y-14228000D02*
X10252143Y-14218476D01*
X10252143Y-14218476D02*
X10242619Y-14199428D01*
X10242619Y-14199428D02*
X10233095Y-14161333D01*
X10233095Y-14161333D02*
X10233095Y-14113714D01*
X10233095Y-14113714D02*
X10242619Y-14075619D01*
X10242619Y-14075619D02*
X10252143Y-14056571D01*
X10252143Y-14056571D02*
X10261667Y-14047048D01*
X10261667Y-14047048D02*
X10280714Y-14037524D01*
X10433095Y-14218476D02*
X10442619Y-14228000D01*
X10442619Y-14228000D02*
X10433095Y-14237524D01*
X10433095Y-14237524D02*
X10423571Y-14228000D01*
X10423571Y-14228000D02*
X10433095Y-14218476D01*
X10433095Y-14218476D02*
X10433095Y-14237524D01*
X10518810Y-14056571D02*
X10528333Y-14047048D01*
X10528333Y-14047048D02*
X10547381Y-14037524D01*
X10547381Y-14037524D02*
X10595000Y-14037524D01*
X10595000Y-14037524D02*
X10614048Y-14047048D01*
X10614048Y-14047048D02*
X10623571Y-14056571D01*
X10623571Y-14056571D02*
X10633095Y-14075619D01*
X10633095Y-14075619D02*
X10633095Y-14094667D01*
X10633095Y-14094667D02*
X10623571Y-14123238D01*
X10623571Y-14123238D02*
X10509286Y-14237524D01*
X10509286Y-14237524D02*
X10633095Y-14237524D01*
X10756905Y-14037524D02*
X10775952Y-14037524D01*
X10775952Y-14037524D02*
X10795000Y-14047048D01*
X10795000Y-14047048D02*
X10804524Y-14056571D01*
X10804524Y-14056571D02*
X10814048Y-14075619D01*
X10814048Y-14075619D02*
X10823571Y-14113714D01*
X10823571Y-14113714D02*
X10823571Y-14161333D01*
X10823571Y-14161333D02*
X10814048Y-14199428D01*
X10814048Y-14199428D02*
X10804524Y-14218476D01*
X10804524Y-14218476D02*
X10795000Y-14228000D01*
X10795000Y-14228000D02*
X10775952Y-14237524D01*
X10775952Y-14237524D02*
X10756905Y-14237524D01*
X10756905Y-14237524D02*
X10737857Y-14228000D01*
X10737857Y-14228000D02*
X10728333Y-14218476D01*
X10728333Y-14218476D02*
X10718810Y-14199428D01*
X10718810Y-14199428D02*
X10709286Y-14161333D01*
X10709286Y-14161333D02*
X10709286Y-14113714D01*
X10709286Y-14113714D02*
X10718810Y-14075619D01*
X10718810Y-14075619D02*
X10728333Y-14056571D01*
X10728333Y-14056571D02*
X10737857Y-14047048D01*
X10737857Y-14047048D02*
X10756905Y-14037524D01*
X10947381Y-14037524D02*
X10966429Y-14037524D01*
X10966429Y-14037524D02*
X10985476Y-14047048D01*
X10985476Y-14047048D02*
X10995000Y-14056571D01*
X10995000Y-14056571D02*
X11004524Y-14075619D01*
X11004524Y-14075619D02*
X11014048Y-14113714D01*
X11014048Y-14113714D02*
X11014048Y-14161333D01*
X11014048Y-14161333D02*
X11004524Y-14199428D01*
X11004524Y-14199428D02*
X10995000Y-14218476D01*
X10995000Y-14218476D02*
X10985476Y-14228000D01*
X10985476Y-14228000D02*
X10966429Y-14237524D01*
X10966429Y-14237524D02*
X10947381Y-14237524D01*
X10947381Y-14237524D02*
X10928333Y-14228000D01*
X10928333Y-14228000D02*
X10918810Y-14218476D01*
X10918810Y-14218476D02*
X10909286Y-14199428D01*
X10909286Y-14199428D02*
X10899762Y-14161333D01*
X10899762Y-14161333D02*
X10899762Y-14113714D01*
X10899762Y-14113714D02*
X10909286Y-14075619D01*
X10909286Y-14075619D02*
X10918810Y-14056571D01*
X10918810Y-14056571D02*
X10928333Y-14047048D01*
X10928333Y-14047048D02*
X10947381Y-14037524D01*
X11099762Y-14237524D02*
X11099762Y-14104190D01*
X11099762Y-14123238D02*
X11109286Y-14113714D01*
X11109286Y-14113714D02*
X11128333Y-14104190D01*
X11128333Y-14104190D02*
X11156905Y-14104190D01*
X11156905Y-14104190D02*
X11175952Y-14113714D01*
X11175952Y-14113714D02*
X11185476Y-14132762D01*
X11185476Y-14132762D02*
X11185476Y-14237524D01*
X11185476Y-14132762D02*
X11195000Y-14113714D01*
X11195000Y-14113714D02*
X11214048Y-14104190D01*
X11214048Y-14104190D02*
X11242619Y-14104190D01*
X11242619Y-14104190D02*
X11261667Y-14113714D01*
X11261667Y-14113714D02*
X11271190Y-14132762D01*
X11271190Y-14132762D02*
X11271190Y-14237524D01*
X11366429Y-14237524D02*
X11366429Y-14104190D01*
X11366429Y-14123238D02*
X11375952Y-14113714D01*
X11375952Y-14113714D02*
X11395000Y-14104190D01*
X11395000Y-14104190D02*
X11423571Y-14104190D01*
X11423571Y-14104190D02*
X11442619Y-14113714D01*
X11442619Y-14113714D02*
X11452143Y-14132762D01*
X11452143Y-14132762D02*
X11452143Y-14237524D01*
X11452143Y-14132762D02*
X11461667Y-14113714D01*
X11461667Y-14113714D02*
X11480714Y-14104190D01*
X11480714Y-14104190D02*
X11509286Y-14104190D01*
X11509286Y-14104190D02*
X11528333Y-14113714D01*
X11528333Y-14113714D02*
X11537857Y-14132762D01*
X11537857Y-14132762D02*
X11537857Y-14237524D01*
X11928333Y-14028000D02*
X11756905Y-14285143D01*
X12185476Y-14037524D02*
X12204524Y-14037524D01*
X12204524Y-14037524D02*
X12223572Y-14047048D01*
X12223572Y-14047048D02*
X12233095Y-14056571D01*
X12233095Y-14056571D02*
X12242619Y-14075619D01*
X12242619Y-14075619D02*
X12252143Y-14113714D01*
X12252143Y-14113714D02*
X12252143Y-14161333D01*
X12252143Y-14161333D02*
X12242619Y-14199428D01*
X12242619Y-14199428D02*
X12233095Y-14218476D01*
X12233095Y-14218476D02*
X12223572Y-14228000D01*
X12223572Y-14228000D02*
X12204524Y-14237524D01*
X12204524Y-14237524D02*
X12185476Y-14237524D01*
X12185476Y-14237524D02*
X12166429Y-14228000D01*
X12166429Y-14228000D02*
X12156905Y-14218476D01*
X12156905Y-14218476D02*
X12147381Y-14199428D01*
X12147381Y-14199428D02*
X12137857Y-14161333D01*
X12137857Y-14161333D02*
X12137857Y-14113714D01*
X12137857Y-14113714D02*
X12147381Y-14075619D01*
X12147381Y-14075619D02*
X12156905Y-14056571D01*
X12156905Y-14056571D02*
X12166429Y-14047048D01*
X12166429Y-14047048D02*
X12185476Y-14037524D01*
X12337857Y-14218476D02*
X12347381Y-14228000D01*
X12347381Y-14228000D02*
X12337857Y-14237524D01*
X12337857Y-14237524D02*
X12328333Y-14228000D01*
X12328333Y-14228000D02*
X12337857Y-14218476D01*
X12337857Y-14218476D02*
X12337857Y-14237524D01*
X12471191Y-14037524D02*
X12490238Y-14037524D01*
X12490238Y-14037524D02*
X12509286Y-14047048D01*
X12509286Y-14047048D02*
X12518810Y-14056571D01*
X12518810Y-14056571D02*
X12528333Y-14075619D01*
X12528333Y-14075619D02*
X12537857Y-14113714D01*
X12537857Y-14113714D02*
X12537857Y-14161333D01*
X12537857Y-14161333D02*
X12528333Y-14199428D01*
X12528333Y-14199428D02*
X12518810Y-14218476D01*
X12518810Y-14218476D02*
X12509286Y-14228000D01*
X12509286Y-14228000D02*
X12490238Y-14237524D01*
X12490238Y-14237524D02*
X12471191Y-14237524D01*
X12471191Y-14237524D02*
X12452143Y-14228000D01*
X12452143Y-14228000D02*
X12442619Y-14218476D01*
X12442619Y-14218476D02*
X12433095Y-14199428D01*
X12433095Y-14199428D02*
X12423572Y-14161333D01*
X12423572Y-14161333D02*
X12423572Y-14113714D01*
X12423572Y-14113714D02*
X12433095Y-14075619D01*
X12433095Y-14075619D02*
X12442619Y-14056571D01*
X12442619Y-14056571D02*
X12452143Y-14047048D01*
X12452143Y-14047048D02*
X12471191Y-14037524D01*
X12661667Y-14037524D02*
X12680714Y-14037524D01*
X12680714Y-14037524D02*
X12699762Y-14047048D01*
X12699762Y-14047048D02*
X12709286Y-14056571D01*
X12709286Y-14056571D02*
X12718810Y-14075619D01*
X12718810Y-14075619D02*
X12728333Y-14113714D01*
X12728333Y-14113714D02*
X12728333Y-14161333D01*
X12728333Y-14161333D02*
X12718810Y-14199428D01*
X12718810Y-14199428D02*
X12709286Y-14218476D01*
X12709286Y-14218476D02*
X12699762Y-14228000D01*
X12699762Y-14228000D02*
X12680714Y-14237524D01*
X12680714Y-14237524D02*
X12661667Y-14237524D01*
X12661667Y-14237524D02*
X12642619Y-14228000D01*
X12642619Y-14228000D02*
X12633095Y-14218476D01*
X12633095Y-14218476D02*
X12623572Y-14199428D01*
X12623572Y-14199428D02*
X12614048Y-14161333D01*
X12614048Y-14161333D02*
X12614048Y-14113714D01*
X12614048Y-14113714D02*
X12623572Y-14075619D01*
X12623572Y-14075619D02*
X12633095Y-14056571D01*
X12633095Y-14056571D02*
X12642619Y-14047048D01*
X12642619Y-14047048D02*
X12661667Y-14037524D01*
X12795000Y-14037524D02*
X12928333Y-14037524D01*
X12928333Y-14037524D02*
X12842619Y-14237524D01*
X13014048Y-14237524D02*
X13052143Y-14237524D01*
X13052143Y-14237524D02*
X13071191Y-14228000D01*
X13071191Y-14228000D02*
X13080714Y-14218476D01*
X13080714Y-14218476D02*
X13099762Y-14189905D01*
X13099762Y-14189905D02*
X13109286Y-14151809D01*
X13109286Y-14151809D02*
X13109286Y-14075619D01*
X13109286Y-14075619D02*
X13099762Y-14056571D01*
X13099762Y-14056571D02*
X13090238Y-14047048D01*
X13090238Y-14047048D02*
X13071191Y-14037524D01*
X13071191Y-14037524D02*
X13033095Y-14037524D01*
X13033095Y-14037524D02*
X13014048Y-14047048D01*
X13014048Y-14047048D02*
X13004524Y-14056571D01*
X13004524Y-14056571D02*
X12995000Y-14075619D01*
X12995000Y-14075619D02*
X12995000Y-14123238D01*
X12995000Y-14123238D02*
X13004524Y-14142286D01*
X13004524Y-14142286D02*
X13014048Y-14151809D01*
X13014048Y-14151809D02*
X13033095Y-14161333D01*
X13033095Y-14161333D02*
X13071191Y-14161333D01*
X13071191Y-14161333D02*
X13090238Y-14151809D01*
X13090238Y-14151809D02*
X13099762Y-14142286D01*
X13099762Y-14142286D02*
X13109286Y-14123238D01*
X13185476Y-14037524D02*
X13185476Y-14075619D01*
X13261667Y-14037524D02*
X13261667Y-14075619D01*
X13556905Y-14313714D02*
X13547381Y-14304190D01*
X13547381Y-14304190D02*
X13528334Y-14275619D01*
X13528334Y-14275619D02*
X13518810Y-14256571D01*
X13518810Y-14256571D02*
X13509286Y-14228000D01*
X13509286Y-14228000D02*
X13499762Y-14180381D01*
X13499762Y-14180381D02*
X13499762Y-14142286D01*
X13499762Y-14142286D02*
X13509286Y-14094667D01*
X13509286Y-14094667D02*
X13518810Y-14066095D01*
X13518810Y-14066095D02*
X13528334Y-14047048D01*
X13528334Y-14047048D02*
X13547381Y-14018476D01*
X13547381Y-14018476D02*
X13556905Y-14008952D01*
X13728334Y-14037524D02*
X13633095Y-14037524D01*
X13633095Y-14037524D02*
X13623572Y-14132762D01*
X13623572Y-14132762D02*
X13633095Y-14123238D01*
X13633095Y-14123238D02*
X13652143Y-14113714D01*
X13652143Y-14113714D02*
X13699762Y-14113714D01*
X13699762Y-14113714D02*
X13718810Y-14123238D01*
X13718810Y-14123238D02*
X13728334Y-14132762D01*
X13728334Y-14132762D02*
X13737857Y-14151809D01*
X13737857Y-14151809D02*
X13737857Y-14199428D01*
X13737857Y-14199428D02*
X13728334Y-14218476D01*
X13728334Y-14218476D02*
X13718810Y-14228000D01*
X13718810Y-14228000D02*
X13699762Y-14237524D01*
X13699762Y-14237524D02*
X13652143Y-14237524D01*
X13652143Y-14237524D02*
X13633095Y-14228000D01*
X13633095Y-14228000D02*
X13623572Y-14218476D01*
X13814048Y-14056571D02*
X13823572Y-14047048D01*
X13823572Y-14047048D02*
X13842619Y-14037524D01*
X13842619Y-14037524D02*
X13890238Y-14037524D01*
X13890238Y-14037524D02*
X13909286Y-14047048D01*
X13909286Y-14047048D02*
X13918810Y-14056571D01*
X13918810Y-14056571D02*
X13928334Y-14075619D01*
X13928334Y-14075619D02*
X13928334Y-14094667D01*
X13928334Y-14094667D02*
X13918810Y-14123238D01*
X13918810Y-14123238D02*
X13804524Y-14237524D01*
X13804524Y-14237524D02*
X13928334Y-14237524D01*
X13995000Y-14037524D02*
X14128334Y-14037524D01*
X14128334Y-14037524D02*
X14042619Y-14237524D01*
X14356905Y-14237524D02*
X14356905Y-14037524D01*
X14442619Y-14237524D02*
X14442619Y-14132762D01*
X14442619Y-14132762D02*
X14433096Y-14113714D01*
X14433096Y-14113714D02*
X14414048Y-14104190D01*
X14414048Y-14104190D02*
X14385476Y-14104190D01*
X14385476Y-14104190D02*
X14366429Y-14113714D01*
X14366429Y-14113714D02*
X14356905Y-14123238D01*
X14566429Y-14237524D02*
X14547381Y-14228000D01*
X14547381Y-14228000D02*
X14537857Y-14218476D01*
X14537857Y-14218476D02*
X14528334Y-14199428D01*
X14528334Y-14199428D02*
X14528334Y-14142286D01*
X14528334Y-14142286D02*
X14537857Y-14123238D01*
X14537857Y-14123238D02*
X14547381Y-14113714D01*
X14547381Y-14113714D02*
X14566429Y-14104190D01*
X14566429Y-14104190D02*
X14595000Y-14104190D01*
X14595000Y-14104190D02*
X14614048Y-14113714D01*
X14614048Y-14113714D02*
X14623572Y-14123238D01*
X14623572Y-14123238D02*
X14633096Y-14142286D01*
X14633096Y-14142286D02*
X14633096Y-14199428D01*
X14633096Y-14199428D02*
X14623572Y-14218476D01*
X14623572Y-14218476D02*
X14614048Y-14228000D01*
X14614048Y-14228000D02*
X14595000Y-14237524D01*
X14595000Y-14237524D02*
X14566429Y-14237524D01*
X14747381Y-14237524D02*
X14728334Y-14228000D01*
X14728334Y-14228000D02*
X14718810Y-14208952D01*
X14718810Y-14208952D02*
X14718810Y-14037524D01*
X14899762Y-14228000D02*
X14880715Y-14237524D01*
X14880715Y-14237524D02*
X14842619Y-14237524D01*
X14842619Y-14237524D02*
X14823572Y-14228000D01*
X14823572Y-14228000D02*
X14814048Y-14208952D01*
X14814048Y-14208952D02*
X14814048Y-14132762D01*
X14814048Y-14132762D02*
X14823572Y-14113714D01*
X14823572Y-14113714D02*
X14842619Y-14104190D01*
X14842619Y-14104190D02*
X14880715Y-14104190D01*
X14880715Y-14104190D02*
X14899762Y-14113714D01*
X14899762Y-14113714D02*
X14909286Y-14132762D01*
X14909286Y-14132762D02*
X14909286Y-14151809D01*
X14909286Y-14151809D02*
X14814048Y-14170857D01*
X14985477Y-14228000D02*
X15004524Y-14237524D01*
X15004524Y-14237524D02*
X15042619Y-14237524D01*
X15042619Y-14237524D02*
X15061667Y-14228000D01*
X15061667Y-14228000D02*
X15071191Y-14208952D01*
X15071191Y-14208952D02*
X15071191Y-14199428D01*
X15071191Y-14199428D02*
X15061667Y-14180381D01*
X15061667Y-14180381D02*
X15042619Y-14170857D01*
X15042619Y-14170857D02*
X15014048Y-14170857D01*
X15014048Y-14170857D02*
X14995000Y-14161333D01*
X14995000Y-14161333D02*
X14985477Y-14142286D01*
X14985477Y-14142286D02*
X14985477Y-14132762D01*
X14985477Y-14132762D02*
X14995000Y-14113714D01*
X14995000Y-14113714D02*
X15014048Y-14104190D01*
X15014048Y-14104190D02*
X15042619Y-14104190D01*
X15042619Y-14104190D02*
X15061667Y-14113714D01*
X15137858Y-14313714D02*
X15147381Y-14304190D01*
X15147381Y-14304190D02*
X15166429Y-14275619D01*
X15166429Y-14275619D02*
X15175953Y-14256571D01*
X15175953Y-14256571D02*
X15185477Y-14228000D01*
X15185477Y-14228000D02*
X15195000Y-14180381D01*
X15195000Y-14180381D02*
X15195000Y-14142286D01*
X15195000Y-14142286D02*
X15185477Y-14094667D01*
X15185477Y-14094667D02*
X15175953Y-14066095D01*
X15175953Y-14066095D02*
X15166429Y-14047048D01*
X15166429Y-14047048D02*
X15147381Y-14018476D01*
X15147381Y-14018476D02*
X15137858Y-14008952D01*
D13*
X9995000Y-14409000D02*
G75*
G03*
X9995000Y-14409000I-30000J0D01*
G01*
D11*
X10280714Y-14301524D02*
X10299762Y-14301524D01*
X10299762Y-14301524D02*
X10318810Y-14311048D01*
X10318810Y-14311048D02*
X10328333Y-14320571D01*
X10328333Y-14320571D02*
X10337857Y-14339619D01*
X10337857Y-14339619D02*
X10347381Y-14377714D01*
X10347381Y-14377714D02*
X10347381Y-14425333D01*
X10347381Y-14425333D02*
X10337857Y-14463428D01*
X10337857Y-14463428D02*
X10328333Y-14482476D01*
X10328333Y-14482476D02*
X10318810Y-14492000D01*
X10318810Y-14492000D02*
X10299762Y-14501524D01*
X10299762Y-14501524D02*
X10280714Y-14501524D01*
X10280714Y-14501524D02*
X10261667Y-14492000D01*
X10261667Y-14492000D02*
X10252143Y-14482476D01*
X10252143Y-14482476D02*
X10242619Y-14463428D01*
X10242619Y-14463428D02*
X10233095Y-14425333D01*
X10233095Y-14425333D02*
X10233095Y-14377714D01*
X10233095Y-14377714D02*
X10242619Y-14339619D01*
X10242619Y-14339619D02*
X10252143Y-14320571D01*
X10252143Y-14320571D02*
X10261667Y-14311048D01*
X10261667Y-14311048D02*
X10280714Y-14301524D01*
X10433095Y-14482476D02*
X10442619Y-14492000D01*
X10442619Y-14492000D02*
X10433095Y-14501524D01*
X10433095Y-14501524D02*
X10423571Y-14492000D01*
X10423571Y-14492000D02*
X10433095Y-14482476D01*
X10433095Y-14482476D02*
X10433095Y-14501524D01*
X10614048Y-14301524D02*
X10575952Y-14301524D01*
X10575952Y-14301524D02*
X10556905Y-14311048D01*
X10556905Y-14311048D02*
X10547381Y-14320571D01*
X10547381Y-14320571D02*
X10528333Y-14349143D01*
X10528333Y-14349143D02*
X10518810Y-14387238D01*
X10518810Y-14387238D02*
X10518810Y-14463428D01*
X10518810Y-14463428D02*
X10528333Y-14482476D01*
X10528333Y-14482476D02*
X10537857Y-14492000D01*
X10537857Y-14492000D02*
X10556905Y-14501524D01*
X10556905Y-14501524D02*
X10595000Y-14501524D01*
X10595000Y-14501524D02*
X10614048Y-14492000D01*
X10614048Y-14492000D02*
X10623571Y-14482476D01*
X10623571Y-14482476D02*
X10633095Y-14463428D01*
X10633095Y-14463428D02*
X10633095Y-14415809D01*
X10633095Y-14415809D02*
X10623571Y-14396762D01*
X10623571Y-14396762D02*
X10614048Y-14387238D01*
X10614048Y-14387238D02*
X10595000Y-14377714D01*
X10595000Y-14377714D02*
X10556905Y-14377714D01*
X10556905Y-14377714D02*
X10537857Y-14387238D01*
X10537857Y-14387238D02*
X10528333Y-14396762D01*
X10528333Y-14396762D02*
X10518810Y-14415809D01*
X10756905Y-14301524D02*
X10775952Y-14301524D01*
X10775952Y-14301524D02*
X10795000Y-14311048D01*
X10795000Y-14311048D02*
X10804524Y-14320571D01*
X10804524Y-14320571D02*
X10814048Y-14339619D01*
X10814048Y-14339619D02*
X10823571Y-14377714D01*
X10823571Y-14377714D02*
X10823571Y-14425333D01*
X10823571Y-14425333D02*
X10814048Y-14463428D01*
X10814048Y-14463428D02*
X10804524Y-14482476D01*
X10804524Y-14482476D02*
X10795000Y-14492000D01*
X10795000Y-14492000D02*
X10775952Y-14501524D01*
X10775952Y-14501524D02*
X10756905Y-14501524D01*
X10756905Y-14501524D02*
X10737857Y-14492000D01*
X10737857Y-14492000D02*
X10728333Y-14482476D01*
X10728333Y-14482476D02*
X10718810Y-14463428D01*
X10718810Y-14463428D02*
X10709286Y-14425333D01*
X10709286Y-14425333D02*
X10709286Y-14377714D01*
X10709286Y-14377714D02*
X10718810Y-14339619D01*
X10718810Y-14339619D02*
X10728333Y-14320571D01*
X10728333Y-14320571D02*
X10737857Y-14311048D01*
X10737857Y-14311048D02*
X10756905Y-14301524D01*
X10947381Y-14301524D02*
X10966429Y-14301524D01*
X10966429Y-14301524D02*
X10985476Y-14311048D01*
X10985476Y-14311048D02*
X10995000Y-14320571D01*
X10995000Y-14320571D02*
X11004524Y-14339619D01*
X11004524Y-14339619D02*
X11014048Y-14377714D01*
X11014048Y-14377714D02*
X11014048Y-14425333D01*
X11014048Y-14425333D02*
X11004524Y-14463428D01*
X11004524Y-14463428D02*
X10995000Y-14482476D01*
X10995000Y-14482476D02*
X10985476Y-14492000D01*
X10985476Y-14492000D02*
X10966429Y-14501524D01*
X10966429Y-14501524D02*
X10947381Y-14501524D01*
X10947381Y-14501524D02*
X10928333Y-14492000D01*
X10928333Y-14492000D02*
X10918810Y-14482476D01*
X10918810Y-14482476D02*
X10909286Y-14463428D01*
X10909286Y-14463428D02*
X10899762Y-14425333D01*
X10899762Y-14425333D02*
X10899762Y-14377714D01*
X10899762Y-14377714D02*
X10909286Y-14339619D01*
X10909286Y-14339619D02*
X10918810Y-14320571D01*
X10918810Y-14320571D02*
X10928333Y-14311048D01*
X10928333Y-14311048D02*
X10947381Y-14301524D01*
X11099762Y-14501524D02*
X11099762Y-14368190D01*
X11099762Y-14387238D02*
X11109286Y-14377714D01*
X11109286Y-14377714D02*
X11128333Y-14368190D01*
X11128333Y-14368190D02*
X11156905Y-14368190D01*
X11156905Y-14368190D02*
X11175952Y-14377714D01*
X11175952Y-14377714D02*
X11185476Y-14396762D01*
X11185476Y-14396762D02*
X11185476Y-14501524D01*
X11185476Y-14396762D02*
X11195000Y-14377714D01*
X11195000Y-14377714D02*
X11214048Y-14368190D01*
X11214048Y-14368190D02*
X11242619Y-14368190D01*
X11242619Y-14368190D02*
X11261667Y-14377714D01*
X11261667Y-14377714D02*
X11271190Y-14396762D01*
X11271190Y-14396762D02*
X11271190Y-14501524D01*
X11366429Y-14501524D02*
X11366429Y-14368190D01*
X11366429Y-14387238D02*
X11375952Y-14377714D01*
X11375952Y-14377714D02*
X11395000Y-14368190D01*
X11395000Y-14368190D02*
X11423571Y-14368190D01*
X11423571Y-14368190D02*
X11442619Y-14377714D01*
X11442619Y-14377714D02*
X11452143Y-14396762D01*
X11452143Y-14396762D02*
X11452143Y-14501524D01*
X11452143Y-14396762D02*
X11461667Y-14377714D01*
X11461667Y-14377714D02*
X11480714Y-14368190D01*
X11480714Y-14368190D02*
X11509286Y-14368190D01*
X11509286Y-14368190D02*
X11528333Y-14377714D01*
X11528333Y-14377714D02*
X11537857Y-14396762D01*
X11537857Y-14396762D02*
X11537857Y-14501524D01*
X11928333Y-14292000D02*
X11756905Y-14549143D01*
X12185476Y-14301524D02*
X12204524Y-14301524D01*
X12204524Y-14301524D02*
X12223572Y-14311048D01*
X12223572Y-14311048D02*
X12233095Y-14320571D01*
X12233095Y-14320571D02*
X12242619Y-14339619D01*
X12242619Y-14339619D02*
X12252143Y-14377714D01*
X12252143Y-14377714D02*
X12252143Y-14425333D01*
X12252143Y-14425333D02*
X12242619Y-14463428D01*
X12242619Y-14463428D02*
X12233095Y-14482476D01*
X12233095Y-14482476D02*
X12223572Y-14492000D01*
X12223572Y-14492000D02*
X12204524Y-14501524D01*
X12204524Y-14501524D02*
X12185476Y-14501524D01*
X12185476Y-14501524D02*
X12166429Y-14492000D01*
X12166429Y-14492000D02*
X12156905Y-14482476D01*
X12156905Y-14482476D02*
X12147381Y-14463428D01*
X12147381Y-14463428D02*
X12137857Y-14425333D01*
X12137857Y-14425333D02*
X12137857Y-14377714D01*
X12137857Y-14377714D02*
X12147381Y-14339619D01*
X12147381Y-14339619D02*
X12156905Y-14320571D01*
X12156905Y-14320571D02*
X12166429Y-14311048D01*
X12166429Y-14311048D02*
X12185476Y-14301524D01*
X12337857Y-14482476D02*
X12347381Y-14492000D01*
X12347381Y-14492000D02*
X12337857Y-14501524D01*
X12337857Y-14501524D02*
X12328333Y-14492000D01*
X12328333Y-14492000D02*
X12337857Y-14482476D01*
X12337857Y-14482476D02*
X12337857Y-14501524D01*
X12471191Y-14301524D02*
X12490238Y-14301524D01*
X12490238Y-14301524D02*
X12509286Y-14311048D01*
X12509286Y-14311048D02*
X12518810Y-14320571D01*
X12518810Y-14320571D02*
X12528333Y-14339619D01*
X12528333Y-14339619D02*
X12537857Y-14377714D01*
X12537857Y-14377714D02*
X12537857Y-14425333D01*
X12537857Y-14425333D02*
X12528333Y-14463428D01*
X12528333Y-14463428D02*
X12518810Y-14482476D01*
X12518810Y-14482476D02*
X12509286Y-14492000D01*
X12509286Y-14492000D02*
X12490238Y-14501524D01*
X12490238Y-14501524D02*
X12471191Y-14501524D01*
X12471191Y-14501524D02*
X12452143Y-14492000D01*
X12452143Y-14492000D02*
X12442619Y-14482476D01*
X12442619Y-14482476D02*
X12433095Y-14463428D01*
X12433095Y-14463428D02*
X12423572Y-14425333D01*
X12423572Y-14425333D02*
X12423572Y-14377714D01*
X12423572Y-14377714D02*
X12433095Y-14339619D01*
X12433095Y-14339619D02*
X12442619Y-14320571D01*
X12442619Y-14320571D02*
X12452143Y-14311048D01*
X12452143Y-14311048D02*
X12471191Y-14301524D01*
X12614048Y-14320571D02*
X12623572Y-14311048D01*
X12623572Y-14311048D02*
X12642619Y-14301524D01*
X12642619Y-14301524D02*
X12690238Y-14301524D01*
X12690238Y-14301524D02*
X12709286Y-14311048D01*
X12709286Y-14311048D02*
X12718810Y-14320571D01*
X12718810Y-14320571D02*
X12728333Y-14339619D01*
X12728333Y-14339619D02*
X12728333Y-14358667D01*
X12728333Y-14358667D02*
X12718810Y-14387238D01*
X12718810Y-14387238D02*
X12604524Y-14501524D01*
X12604524Y-14501524D02*
X12728333Y-14501524D01*
X12795000Y-14301524D02*
X12918810Y-14301524D01*
X12918810Y-14301524D02*
X12852143Y-14377714D01*
X12852143Y-14377714D02*
X12880714Y-14377714D01*
X12880714Y-14377714D02*
X12899762Y-14387238D01*
X12899762Y-14387238D02*
X12909286Y-14396762D01*
X12909286Y-14396762D02*
X12918810Y-14415809D01*
X12918810Y-14415809D02*
X12918810Y-14463428D01*
X12918810Y-14463428D02*
X12909286Y-14482476D01*
X12909286Y-14482476D02*
X12899762Y-14492000D01*
X12899762Y-14492000D02*
X12880714Y-14501524D01*
X12880714Y-14501524D02*
X12823572Y-14501524D01*
X12823572Y-14501524D02*
X12804524Y-14492000D01*
X12804524Y-14492000D02*
X12795000Y-14482476D01*
X13090238Y-14301524D02*
X13052143Y-14301524D01*
X13052143Y-14301524D02*
X13033095Y-14311048D01*
X13033095Y-14311048D02*
X13023572Y-14320571D01*
X13023572Y-14320571D02*
X13004524Y-14349143D01*
X13004524Y-14349143D02*
X12995000Y-14387238D01*
X12995000Y-14387238D02*
X12995000Y-14463428D01*
X12995000Y-14463428D02*
X13004524Y-14482476D01*
X13004524Y-14482476D02*
X13014048Y-14492000D01*
X13014048Y-14492000D02*
X13033095Y-14501524D01*
X13033095Y-14501524D02*
X13071191Y-14501524D01*
X13071191Y-14501524D02*
X13090238Y-14492000D01*
X13090238Y-14492000D02*
X13099762Y-14482476D01*
X13099762Y-14482476D02*
X13109286Y-14463428D01*
X13109286Y-14463428D02*
X13109286Y-14415809D01*
X13109286Y-14415809D02*
X13099762Y-14396762D01*
X13099762Y-14396762D02*
X13090238Y-14387238D01*
X13090238Y-14387238D02*
X13071191Y-14377714D01*
X13071191Y-14377714D02*
X13033095Y-14377714D01*
X13033095Y-14377714D02*
X13014048Y-14387238D01*
X13014048Y-14387238D02*
X13004524Y-14396762D01*
X13004524Y-14396762D02*
X12995000Y-14415809D01*
X13185476Y-14301524D02*
X13185476Y-14339619D01*
X13261667Y-14301524D02*
X13261667Y-14339619D01*
X13556905Y-14577714D02*
X13547381Y-14568190D01*
X13547381Y-14568190D02*
X13528334Y-14539619D01*
X13528334Y-14539619D02*
X13518810Y-14520571D01*
X13518810Y-14520571D02*
X13509286Y-14492000D01*
X13509286Y-14492000D02*
X13499762Y-14444381D01*
X13499762Y-14444381D02*
X13499762Y-14406286D01*
X13499762Y-14406286D02*
X13509286Y-14358667D01*
X13509286Y-14358667D02*
X13518810Y-14330095D01*
X13518810Y-14330095D02*
X13528334Y-14311048D01*
X13528334Y-14311048D02*
X13547381Y-14282476D01*
X13547381Y-14282476D02*
X13556905Y-14272952D01*
X13671191Y-14301524D02*
X13690238Y-14301524D01*
X13690238Y-14301524D02*
X13709286Y-14311048D01*
X13709286Y-14311048D02*
X13718810Y-14320571D01*
X13718810Y-14320571D02*
X13728334Y-14339619D01*
X13728334Y-14339619D02*
X13737857Y-14377714D01*
X13737857Y-14377714D02*
X13737857Y-14425333D01*
X13737857Y-14425333D02*
X13728334Y-14463428D01*
X13728334Y-14463428D02*
X13718810Y-14482476D01*
X13718810Y-14482476D02*
X13709286Y-14492000D01*
X13709286Y-14492000D02*
X13690238Y-14501524D01*
X13690238Y-14501524D02*
X13671191Y-14501524D01*
X13671191Y-14501524D02*
X13652143Y-14492000D01*
X13652143Y-14492000D02*
X13642619Y-14482476D01*
X13642619Y-14482476D02*
X13633095Y-14463428D01*
X13633095Y-14463428D02*
X13623572Y-14425333D01*
X13623572Y-14425333D02*
X13623572Y-14377714D01*
X13623572Y-14377714D02*
X13633095Y-14339619D01*
X13633095Y-14339619D02*
X13642619Y-14320571D01*
X13642619Y-14320571D02*
X13652143Y-14311048D01*
X13652143Y-14311048D02*
X13671191Y-14301524D01*
X13975953Y-14501524D02*
X13975953Y-14301524D01*
X14061667Y-14501524D02*
X14061667Y-14396762D01*
X14061667Y-14396762D02*
X14052143Y-14377714D01*
X14052143Y-14377714D02*
X14033096Y-14368190D01*
X14033096Y-14368190D02*
X14004524Y-14368190D01*
X14004524Y-14368190D02*
X13985476Y-14377714D01*
X13985476Y-14377714D02*
X13975953Y-14387238D01*
X14185476Y-14501524D02*
X14166429Y-14492000D01*
X14166429Y-14492000D02*
X14156905Y-14482476D01*
X14156905Y-14482476D02*
X14147381Y-14463428D01*
X14147381Y-14463428D02*
X14147381Y-14406286D01*
X14147381Y-14406286D02*
X14156905Y-14387238D01*
X14156905Y-14387238D02*
X14166429Y-14377714D01*
X14166429Y-14377714D02*
X14185476Y-14368190D01*
X14185476Y-14368190D02*
X14214048Y-14368190D01*
X14214048Y-14368190D02*
X14233096Y-14377714D01*
X14233096Y-14377714D02*
X14242619Y-14387238D01*
X14242619Y-14387238D02*
X14252143Y-14406286D01*
X14252143Y-14406286D02*
X14252143Y-14463428D01*
X14252143Y-14463428D02*
X14242619Y-14482476D01*
X14242619Y-14482476D02*
X14233096Y-14492000D01*
X14233096Y-14492000D02*
X14214048Y-14501524D01*
X14214048Y-14501524D02*
X14185476Y-14501524D01*
X14366429Y-14501524D02*
X14347381Y-14492000D01*
X14347381Y-14492000D02*
X14337857Y-14472952D01*
X14337857Y-14472952D02*
X14337857Y-14301524D01*
X14518810Y-14492000D02*
X14499762Y-14501524D01*
X14499762Y-14501524D02*
X14461667Y-14501524D01*
X14461667Y-14501524D02*
X14442619Y-14492000D01*
X14442619Y-14492000D02*
X14433096Y-14472952D01*
X14433096Y-14472952D02*
X14433096Y-14396762D01*
X14433096Y-14396762D02*
X14442619Y-14377714D01*
X14442619Y-14377714D02*
X14461667Y-14368190D01*
X14461667Y-14368190D02*
X14499762Y-14368190D01*
X14499762Y-14368190D02*
X14518810Y-14377714D01*
X14518810Y-14377714D02*
X14528334Y-14396762D01*
X14528334Y-14396762D02*
X14528334Y-14415809D01*
X14528334Y-14415809D02*
X14433096Y-14434857D01*
X14604524Y-14492000D02*
X14623572Y-14501524D01*
X14623572Y-14501524D02*
X14661667Y-14501524D01*
X14661667Y-14501524D02*
X14680715Y-14492000D01*
X14680715Y-14492000D02*
X14690238Y-14472952D01*
X14690238Y-14472952D02*
X14690238Y-14463428D01*
X14690238Y-14463428D02*
X14680715Y-14444381D01*
X14680715Y-14444381D02*
X14661667Y-14434857D01*
X14661667Y-14434857D02*
X14633096Y-14434857D01*
X14633096Y-14434857D02*
X14614048Y-14425333D01*
X14614048Y-14425333D02*
X14604524Y-14406286D01*
X14604524Y-14406286D02*
X14604524Y-14396762D01*
X14604524Y-14396762D02*
X14614048Y-14377714D01*
X14614048Y-14377714D02*
X14633096Y-14368190D01*
X14633096Y-14368190D02*
X14661667Y-14368190D01*
X14661667Y-14368190D02*
X14680715Y-14377714D01*
X14928334Y-14425333D02*
X15080715Y-14425333D01*
X15004524Y-14501524D02*
X15004524Y-14349143D01*
X15433096Y-14501524D02*
X15318810Y-14501524D01*
X15375953Y-14501524D02*
X15375953Y-14301524D01*
X15375953Y-14301524D02*
X15356905Y-14330095D01*
X15356905Y-14330095D02*
X15337858Y-14349143D01*
X15337858Y-14349143D02*
X15318810Y-14358667D01*
X15509286Y-14320571D02*
X15518810Y-14311048D01*
X15518810Y-14311048D02*
X15537858Y-14301524D01*
X15537858Y-14301524D02*
X15585477Y-14301524D01*
X15585477Y-14301524D02*
X15604524Y-14311048D01*
X15604524Y-14311048D02*
X15614048Y-14320571D01*
X15614048Y-14320571D02*
X15623572Y-14339619D01*
X15623572Y-14339619D02*
X15623572Y-14358667D01*
X15623572Y-14358667D02*
X15614048Y-14387238D01*
X15614048Y-14387238D02*
X15499762Y-14501524D01*
X15499762Y-14501524D02*
X15623572Y-14501524D01*
X15852143Y-14492000D02*
X15871191Y-14501524D01*
X15871191Y-14501524D02*
X15909286Y-14501524D01*
X15909286Y-14501524D02*
X15928334Y-14492000D01*
X15928334Y-14492000D02*
X15937858Y-14472952D01*
X15937858Y-14472952D02*
X15937858Y-14463428D01*
X15937858Y-14463428D02*
X15928334Y-14444381D01*
X15928334Y-14444381D02*
X15909286Y-14434857D01*
X15909286Y-14434857D02*
X15880715Y-14434857D01*
X15880715Y-14434857D02*
X15861667Y-14425333D01*
X15861667Y-14425333D02*
X15852143Y-14406286D01*
X15852143Y-14406286D02*
X15852143Y-14396762D01*
X15852143Y-14396762D02*
X15861667Y-14377714D01*
X15861667Y-14377714D02*
X15880715Y-14368190D01*
X15880715Y-14368190D02*
X15909286Y-14368190D01*
X15909286Y-14368190D02*
X15928334Y-14377714D01*
X16052143Y-14501524D02*
X16033096Y-14492000D01*
X16033096Y-14492000D02*
X16023572Y-14472952D01*
X16023572Y-14472952D02*
X16023572Y-14301524D01*
X16156905Y-14501524D02*
X16137858Y-14492000D01*
X16137858Y-14492000D02*
X16128334Y-14482476D01*
X16128334Y-14482476D02*
X16118810Y-14463428D01*
X16118810Y-14463428D02*
X16118810Y-14406286D01*
X16118810Y-14406286D02*
X16128334Y-14387238D01*
X16128334Y-14387238D02*
X16137858Y-14377714D01*
X16137858Y-14377714D02*
X16156905Y-14368190D01*
X16156905Y-14368190D02*
X16185477Y-14368190D01*
X16185477Y-14368190D02*
X16204524Y-14377714D01*
X16204524Y-14377714D02*
X16214048Y-14387238D01*
X16214048Y-14387238D02*
X16223572Y-14406286D01*
X16223572Y-14406286D02*
X16223572Y-14463428D01*
X16223572Y-14463428D02*
X16214048Y-14482476D01*
X16214048Y-14482476D02*
X16204524Y-14492000D01*
X16204524Y-14492000D02*
X16185477Y-14501524D01*
X16185477Y-14501524D02*
X16156905Y-14501524D01*
X16280715Y-14368190D02*
X16356905Y-14368190D01*
X16309286Y-14301524D02*
X16309286Y-14472952D01*
X16309286Y-14472952D02*
X16318810Y-14492000D01*
X16318810Y-14492000D02*
X16337858Y-14501524D01*
X16337858Y-14501524D02*
X16356905Y-14501524D01*
X16414048Y-14492000D02*
X16433096Y-14501524D01*
X16433096Y-14501524D02*
X16471191Y-14501524D01*
X16471191Y-14501524D02*
X16490239Y-14492000D01*
X16490239Y-14492000D02*
X16499762Y-14472952D01*
X16499762Y-14472952D02*
X16499762Y-14463428D01*
X16499762Y-14463428D02*
X16490239Y-14444381D01*
X16490239Y-14444381D02*
X16471191Y-14434857D01*
X16471191Y-14434857D02*
X16442620Y-14434857D01*
X16442620Y-14434857D02*
X16423572Y-14425333D01*
X16423572Y-14425333D02*
X16414048Y-14406286D01*
X16414048Y-14406286D02*
X16414048Y-14396762D01*
X16414048Y-14396762D02*
X16423572Y-14377714D01*
X16423572Y-14377714D02*
X16442620Y-14368190D01*
X16442620Y-14368190D02*
X16471191Y-14368190D01*
X16471191Y-14368190D02*
X16490239Y-14377714D01*
X16566429Y-14577714D02*
X16575953Y-14568190D01*
X16575953Y-14568190D02*
X16595001Y-14539619D01*
X16595001Y-14539619D02*
X16604524Y-14520571D01*
X16604524Y-14520571D02*
X16614048Y-14492000D01*
X16614048Y-14492000D02*
X16623572Y-14444381D01*
X16623572Y-14444381D02*
X16623572Y-14406286D01*
X16623572Y-14406286D02*
X16614048Y-14358667D01*
X16614048Y-14358667D02*
X16604524Y-14330095D01*
X16604524Y-14330095D02*
X16595001Y-14311048D01*
X16595001Y-14311048D02*
X16575953Y-14282476D01*
X16575953Y-14282476D02*
X16566429Y-14272952D01*
D14*
X9947500Y-14625500D02*
X9947500Y-14720500D01*
X9900000Y-14673000D02*
X9995000Y-14673000D01*
D11*
X10280714Y-14565524D02*
X10299762Y-14565524D01*
X10299762Y-14565524D02*
X10318810Y-14575048D01*
X10318810Y-14575048D02*
X10328333Y-14584571D01*
X10328333Y-14584571D02*
X10337857Y-14603619D01*
X10337857Y-14603619D02*
X10347381Y-14641714D01*
X10347381Y-14641714D02*
X10347381Y-14689333D01*
X10347381Y-14689333D02*
X10337857Y-14727428D01*
X10337857Y-14727428D02*
X10328333Y-14746476D01*
X10328333Y-14746476D02*
X10318810Y-14756000D01*
X10318810Y-14756000D02*
X10299762Y-14765524D01*
X10299762Y-14765524D02*
X10280714Y-14765524D01*
X10280714Y-14765524D02*
X10261667Y-14756000D01*
X10261667Y-14756000D02*
X10252143Y-14746476D01*
X10252143Y-14746476D02*
X10242619Y-14727428D01*
X10242619Y-14727428D02*
X10233095Y-14689333D01*
X10233095Y-14689333D02*
X10233095Y-14641714D01*
X10233095Y-14641714D02*
X10242619Y-14603619D01*
X10242619Y-14603619D02*
X10252143Y-14584571D01*
X10252143Y-14584571D02*
X10261667Y-14575048D01*
X10261667Y-14575048D02*
X10280714Y-14565524D01*
X10433095Y-14746476D02*
X10442619Y-14756000D01*
X10442619Y-14756000D02*
X10433095Y-14765524D01*
X10433095Y-14765524D02*
X10423571Y-14756000D01*
X10423571Y-14756000D02*
X10433095Y-14746476D01*
X10433095Y-14746476D02*
X10433095Y-14765524D01*
X10537857Y-14765524D02*
X10575952Y-14765524D01*
X10575952Y-14765524D02*
X10595000Y-14756000D01*
X10595000Y-14756000D02*
X10604524Y-14746476D01*
X10604524Y-14746476D02*
X10623571Y-14717905D01*
X10623571Y-14717905D02*
X10633095Y-14679809D01*
X10633095Y-14679809D02*
X10633095Y-14603619D01*
X10633095Y-14603619D02*
X10623571Y-14584571D01*
X10623571Y-14584571D02*
X10614048Y-14575048D01*
X10614048Y-14575048D02*
X10595000Y-14565524D01*
X10595000Y-14565524D02*
X10556905Y-14565524D01*
X10556905Y-14565524D02*
X10537857Y-14575048D01*
X10537857Y-14575048D02*
X10528333Y-14584571D01*
X10528333Y-14584571D02*
X10518810Y-14603619D01*
X10518810Y-14603619D02*
X10518810Y-14651238D01*
X10518810Y-14651238D02*
X10528333Y-14670286D01*
X10528333Y-14670286D02*
X10537857Y-14679809D01*
X10537857Y-14679809D02*
X10556905Y-14689333D01*
X10556905Y-14689333D02*
X10595000Y-14689333D01*
X10595000Y-14689333D02*
X10614048Y-14679809D01*
X10614048Y-14679809D02*
X10623571Y-14670286D01*
X10623571Y-14670286D02*
X10633095Y-14651238D01*
X10814048Y-14565524D02*
X10718810Y-14565524D01*
X10718810Y-14565524D02*
X10709286Y-14660762D01*
X10709286Y-14660762D02*
X10718810Y-14651238D01*
X10718810Y-14651238D02*
X10737857Y-14641714D01*
X10737857Y-14641714D02*
X10785476Y-14641714D01*
X10785476Y-14641714D02*
X10804524Y-14651238D01*
X10804524Y-14651238D02*
X10814048Y-14660762D01*
X10814048Y-14660762D02*
X10823571Y-14679809D01*
X10823571Y-14679809D02*
X10823571Y-14727428D01*
X10823571Y-14727428D02*
X10814048Y-14746476D01*
X10814048Y-14746476D02*
X10804524Y-14756000D01*
X10804524Y-14756000D02*
X10785476Y-14765524D01*
X10785476Y-14765524D02*
X10737857Y-14765524D01*
X10737857Y-14765524D02*
X10718810Y-14756000D01*
X10718810Y-14756000D02*
X10709286Y-14746476D01*
X10947381Y-14565524D02*
X10966429Y-14565524D01*
X10966429Y-14565524D02*
X10985476Y-14575048D01*
X10985476Y-14575048D02*
X10995000Y-14584571D01*
X10995000Y-14584571D02*
X11004524Y-14603619D01*
X11004524Y-14603619D02*
X11014048Y-14641714D01*
X11014048Y-14641714D02*
X11014048Y-14689333D01*
X11014048Y-14689333D02*
X11004524Y-14727428D01*
X11004524Y-14727428D02*
X10995000Y-14746476D01*
X10995000Y-14746476D02*
X10985476Y-14756000D01*
X10985476Y-14756000D02*
X10966429Y-14765524D01*
X10966429Y-14765524D02*
X10947381Y-14765524D01*
X10947381Y-14765524D02*
X10928333Y-14756000D01*
X10928333Y-14756000D02*
X10918810Y-14746476D01*
X10918810Y-14746476D02*
X10909286Y-14727428D01*
X10909286Y-14727428D02*
X10899762Y-14689333D01*
X10899762Y-14689333D02*
X10899762Y-14641714D01*
X10899762Y-14641714D02*
X10909286Y-14603619D01*
X10909286Y-14603619D02*
X10918810Y-14584571D01*
X10918810Y-14584571D02*
X10928333Y-14575048D01*
X10928333Y-14575048D02*
X10947381Y-14565524D01*
X11099762Y-14765524D02*
X11099762Y-14632190D01*
X11099762Y-14651238D02*
X11109286Y-14641714D01*
X11109286Y-14641714D02*
X11128333Y-14632190D01*
X11128333Y-14632190D02*
X11156905Y-14632190D01*
X11156905Y-14632190D02*
X11175952Y-14641714D01*
X11175952Y-14641714D02*
X11185476Y-14660762D01*
X11185476Y-14660762D02*
X11185476Y-14765524D01*
X11185476Y-14660762D02*
X11195000Y-14641714D01*
X11195000Y-14641714D02*
X11214048Y-14632190D01*
X11214048Y-14632190D02*
X11242619Y-14632190D01*
X11242619Y-14632190D02*
X11261667Y-14641714D01*
X11261667Y-14641714D02*
X11271190Y-14660762D01*
X11271190Y-14660762D02*
X11271190Y-14765524D01*
X11366429Y-14765524D02*
X11366429Y-14632190D01*
X11366429Y-14651238D02*
X11375952Y-14641714D01*
X11375952Y-14641714D02*
X11395000Y-14632190D01*
X11395000Y-14632190D02*
X11423571Y-14632190D01*
X11423571Y-14632190D02*
X11442619Y-14641714D01*
X11442619Y-14641714D02*
X11452143Y-14660762D01*
X11452143Y-14660762D02*
X11452143Y-14765524D01*
X11452143Y-14660762D02*
X11461667Y-14641714D01*
X11461667Y-14641714D02*
X11480714Y-14632190D01*
X11480714Y-14632190D02*
X11509286Y-14632190D01*
X11509286Y-14632190D02*
X11528333Y-14641714D01*
X11528333Y-14641714D02*
X11537857Y-14660762D01*
X11537857Y-14660762D02*
X11537857Y-14765524D01*
X11928333Y-14556000D02*
X11756905Y-14813143D01*
X12185476Y-14565524D02*
X12204524Y-14565524D01*
X12204524Y-14565524D02*
X12223572Y-14575048D01*
X12223572Y-14575048D02*
X12233095Y-14584571D01*
X12233095Y-14584571D02*
X12242619Y-14603619D01*
X12242619Y-14603619D02*
X12252143Y-14641714D01*
X12252143Y-14641714D02*
X12252143Y-14689333D01*
X12252143Y-14689333D02*
X12242619Y-14727428D01*
X12242619Y-14727428D02*
X12233095Y-14746476D01*
X12233095Y-14746476D02*
X12223572Y-14756000D01*
X12223572Y-14756000D02*
X12204524Y-14765524D01*
X12204524Y-14765524D02*
X12185476Y-14765524D01*
X12185476Y-14765524D02*
X12166429Y-14756000D01*
X12166429Y-14756000D02*
X12156905Y-14746476D01*
X12156905Y-14746476D02*
X12147381Y-14727428D01*
X12147381Y-14727428D02*
X12137857Y-14689333D01*
X12137857Y-14689333D02*
X12137857Y-14641714D01*
X12137857Y-14641714D02*
X12147381Y-14603619D01*
X12147381Y-14603619D02*
X12156905Y-14584571D01*
X12156905Y-14584571D02*
X12166429Y-14575048D01*
X12166429Y-14575048D02*
X12185476Y-14565524D01*
X12337857Y-14746476D02*
X12347381Y-14756000D01*
X12347381Y-14756000D02*
X12337857Y-14765524D01*
X12337857Y-14765524D02*
X12328333Y-14756000D01*
X12328333Y-14756000D02*
X12337857Y-14746476D01*
X12337857Y-14746476D02*
X12337857Y-14765524D01*
X12471191Y-14565524D02*
X12490238Y-14565524D01*
X12490238Y-14565524D02*
X12509286Y-14575048D01*
X12509286Y-14575048D02*
X12518810Y-14584571D01*
X12518810Y-14584571D02*
X12528333Y-14603619D01*
X12528333Y-14603619D02*
X12537857Y-14641714D01*
X12537857Y-14641714D02*
X12537857Y-14689333D01*
X12537857Y-14689333D02*
X12528333Y-14727428D01*
X12528333Y-14727428D02*
X12518810Y-14746476D01*
X12518810Y-14746476D02*
X12509286Y-14756000D01*
X12509286Y-14756000D02*
X12490238Y-14765524D01*
X12490238Y-14765524D02*
X12471191Y-14765524D01*
X12471191Y-14765524D02*
X12452143Y-14756000D01*
X12452143Y-14756000D02*
X12442619Y-14746476D01*
X12442619Y-14746476D02*
X12433095Y-14727428D01*
X12433095Y-14727428D02*
X12423572Y-14689333D01*
X12423572Y-14689333D02*
X12423572Y-14641714D01*
X12423572Y-14641714D02*
X12433095Y-14603619D01*
X12433095Y-14603619D02*
X12442619Y-14584571D01*
X12442619Y-14584571D02*
X12452143Y-14575048D01*
X12452143Y-14575048D02*
X12471191Y-14565524D01*
X12604524Y-14565524D02*
X12728333Y-14565524D01*
X12728333Y-14565524D02*
X12661667Y-14641714D01*
X12661667Y-14641714D02*
X12690238Y-14641714D01*
X12690238Y-14641714D02*
X12709286Y-14651238D01*
X12709286Y-14651238D02*
X12718810Y-14660762D01*
X12718810Y-14660762D02*
X12728333Y-14679809D01*
X12728333Y-14679809D02*
X12728333Y-14727428D01*
X12728333Y-14727428D02*
X12718810Y-14746476D01*
X12718810Y-14746476D02*
X12709286Y-14756000D01*
X12709286Y-14756000D02*
X12690238Y-14765524D01*
X12690238Y-14765524D02*
X12633095Y-14765524D01*
X12633095Y-14765524D02*
X12614048Y-14756000D01*
X12614048Y-14756000D02*
X12604524Y-14746476D01*
X12795000Y-14565524D02*
X12928333Y-14565524D01*
X12928333Y-14565524D02*
X12842619Y-14765524D01*
X13090238Y-14632190D02*
X13090238Y-14765524D01*
X13042619Y-14556000D02*
X12995000Y-14698857D01*
X12995000Y-14698857D02*
X13118810Y-14698857D01*
X13185476Y-14565524D02*
X13185476Y-14603619D01*
X13261667Y-14565524D02*
X13261667Y-14603619D01*
X13556905Y-14841714D02*
X13547381Y-14832190D01*
X13547381Y-14832190D02*
X13528334Y-14803619D01*
X13528334Y-14803619D02*
X13518810Y-14784571D01*
X13518810Y-14784571D02*
X13509286Y-14756000D01*
X13509286Y-14756000D02*
X13499762Y-14708381D01*
X13499762Y-14708381D02*
X13499762Y-14670286D01*
X13499762Y-14670286D02*
X13509286Y-14622667D01*
X13509286Y-14622667D02*
X13518810Y-14594095D01*
X13518810Y-14594095D02*
X13528334Y-14575048D01*
X13528334Y-14575048D02*
X13547381Y-14546476D01*
X13547381Y-14546476D02*
X13556905Y-14536952D01*
X13737857Y-14765524D02*
X13623572Y-14765524D01*
X13680714Y-14765524D02*
X13680714Y-14565524D01*
X13680714Y-14565524D02*
X13661667Y-14594095D01*
X13661667Y-14594095D02*
X13642619Y-14613143D01*
X13642619Y-14613143D02*
X13623572Y-14622667D01*
X13918810Y-14565524D02*
X13823572Y-14565524D01*
X13823572Y-14565524D02*
X13814048Y-14660762D01*
X13814048Y-14660762D02*
X13823572Y-14651238D01*
X13823572Y-14651238D02*
X13842619Y-14641714D01*
X13842619Y-14641714D02*
X13890238Y-14641714D01*
X13890238Y-14641714D02*
X13909286Y-14651238D01*
X13909286Y-14651238D02*
X13918810Y-14660762D01*
X13918810Y-14660762D02*
X13928334Y-14679809D01*
X13928334Y-14679809D02*
X13928334Y-14727428D01*
X13928334Y-14727428D02*
X13918810Y-14746476D01*
X13918810Y-14746476D02*
X13909286Y-14756000D01*
X13909286Y-14756000D02*
X13890238Y-14765524D01*
X13890238Y-14765524D02*
X13842619Y-14765524D01*
X13842619Y-14765524D02*
X13823572Y-14756000D01*
X13823572Y-14756000D02*
X13814048Y-14746476D01*
X14166429Y-14765524D02*
X14166429Y-14565524D01*
X14252143Y-14765524D02*
X14252143Y-14660762D01*
X14252143Y-14660762D02*
X14242619Y-14641714D01*
X14242619Y-14641714D02*
X14223572Y-14632190D01*
X14223572Y-14632190D02*
X14195000Y-14632190D01*
X14195000Y-14632190D02*
X14175953Y-14641714D01*
X14175953Y-14641714D02*
X14166429Y-14651238D01*
X14375953Y-14765524D02*
X14356905Y-14756000D01*
X14356905Y-14756000D02*
X14347381Y-14746476D01*
X14347381Y-14746476D02*
X14337857Y-14727428D01*
X14337857Y-14727428D02*
X14337857Y-14670286D01*
X14337857Y-14670286D02*
X14347381Y-14651238D01*
X14347381Y-14651238D02*
X14356905Y-14641714D01*
X14356905Y-14641714D02*
X14375953Y-14632190D01*
X14375953Y-14632190D02*
X14404524Y-14632190D01*
X14404524Y-14632190D02*
X14423572Y-14641714D01*
X14423572Y-14641714D02*
X14433096Y-14651238D01*
X14433096Y-14651238D02*
X14442619Y-14670286D01*
X14442619Y-14670286D02*
X14442619Y-14727428D01*
X14442619Y-14727428D02*
X14433096Y-14746476D01*
X14433096Y-14746476D02*
X14423572Y-14756000D01*
X14423572Y-14756000D02*
X14404524Y-14765524D01*
X14404524Y-14765524D02*
X14375953Y-14765524D01*
X14556905Y-14765524D02*
X14537857Y-14756000D01*
X14537857Y-14756000D02*
X14528334Y-14736952D01*
X14528334Y-14736952D02*
X14528334Y-14565524D01*
X14709286Y-14756000D02*
X14690238Y-14765524D01*
X14690238Y-14765524D02*
X14652143Y-14765524D01*
X14652143Y-14765524D02*
X14633096Y-14756000D01*
X14633096Y-14756000D02*
X14623572Y-14736952D01*
X14623572Y-14736952D02*
X14623572Y-14660762D01*
X14623572Y-14660762D02*
X14633096Y-14641714D01*
X14633096Y-14641714D02*
X14652143Y-14632190D01*
X14652143Y-14632190D02*
X14690238Y-14632190D01*
X14690238Y-14632190D02*
X14709286Y-14641714D01*
X14709286Y-14641714D02*
X14718810Y-14660762D01*
X14718810Y-14660762D02*
X14718810Y-14679809D01*
X14718810Y-14679809D02*
X14623572Y-14698857D01*
X14795000Y-14756000D02*
X14814048Y-14765524D01*
X14814048Y-14765524D02*
X14852143Y-14765524D01*
X14852143Y-14765524D02*
X14871191Y-14756000D01*
X14871191Y-14756000D02*
X14880715Y-14736952D01*
X14880715Y-14736952D02*
X14880715Y-14727428D01*
X14880715Y-14727428D02*
X14871191Y-14708381D01*
X14871191Y-14708381D02*
X14852143Y-14698857D01*
X14852143Y-14698857D02*
X14823572Y-14698857D01*
X14823572Y-14698857D02*
X14804524Y-14689333D01*
X14804524Y-14689333D02*
X14795000Y-14670286D01*
X14795000Y-14670286D02*
X14795000Y-14660762D01*
X14795000Y-14660762D02*
X14804524Y-14641714D01*
X14804524Y-14641714D02*
X14823572Y-14632190D01*
X14823572Y-14632190D02*
X14852143Y-14632190D01*
X14852143Y-14632190D02*
X14871191Y-14641714D01*
X14947381Y-14841714D02*
X14956905Y-14832190D01*
X14956905Y-14832190D02*
X14975953Y-14803619D01*
X14975953Y-14803619D02*
X14985477Y-14784571D01*
X14985477Y-14784571D02*
X14995000Y-14756000D01*
X14995000Y-14756000D02*
X15004524Y-14708381D01*
X15004524Y-14708381D02*
X15004524Y-14670286D01*
X15004524Y-14670286D02*
X14995000Y-14622667D01*
X14995000Y-14622667D02*
X14985477Y-14594095D01*
X14985477Y-14594095D02*
X14975953Y-14575048D01*
X14975953Y-14575048D02*
X14956905Y-14546476D01*
X14956905Y-14546476D02*
X14947381Y-14536952D01*
D10*
X9980356Y-14972356D02*
X9980356Y-14901644D01*
X9909644Y-14901644D01*
X9909644Y-14972356D01*
X9980356Y-14972356D01*
D11*
X10347381Y-15029524D02*
X10233095Y-15029524D01*
X10290238Y-15029524D02*
X10290238Y-14829524D01*
X10290238Y-14829524D02*
X10271190Y-14858095D01*
X10271190Y-14858095D02*
X10252143Y-14877143D01*
X10252143Y-14877143D02*
X10233095Y-14886667D01*
X10433095Y-15010476D02*
X10442619Y-15020000D01*
X10442619Y-15020000D02*
X10433095Y-15029524D01*
X10433095Y-15029524D02*
X10423571Y-15020000D01*
X10423571Y-15020000D02*
X10433095Y-15010476D01*
X10433095Y-15010476D02*
X10433095Y-15029524D01*
X10566429Y-14829524D02*
X10585476Y-14829524D01*
X10585476Y-14829524D02*
X10604524Y-14839048D01*
X10604524Y-14839048D02*
X10614048Y-14848571D01*
X10614048Y-14848571D02*
X10623571Y-14867619D01*
X10623571Y-14867619D02*
X10633095Y-14905714D01*
X10633095Y-14905714D02*
X10633095Y-14953333D01*
X10633095Y-14953333D02*
X10623571Y-14991428D01*
X10623571Y-14991428D02*
X10614048Y-15010476D01*
X10614048Y-15010476D02*
X10604524Y-15020000D01*
X10604524Y-15020000D02*
X10585476Y-15029524D01*
X10585476Y-15029524D02*
X10566429Y-15029524D01*
X10566429Y-15029524D02*
X10547381Y-15020000D01*
X10547381Y-15020000D02*
X10537857Y-15010476D01*
X10537857Y-15010476D02*
X10528333Y-14991428D01*
X10528333Y-14991428D02*
X10518810Y-14953333D01*
X10518810Y-14953333D02*
X10518810Y-14905714D01*
X10518810Y-14905714D02*
X10528333Y-14867619D01*
X10528333Y-14867619D02*
X10537857Y-14848571D01*
X10537857Y-14848571D02*
X10547381Y-14839048D01*
X10547381Y-14839048D02*
X10566429Y-14829524D01*
X10756905Y-14829524D02*
X10775952Y-14829524D01*
X10775952Y-14829524D02*
X10795000Y-14839048D01*
X10795000Y-14839048D02*
X10804524Y-14848571D01*
X10804524Y-14848571D02*
X10814048Y-14867619D01*
X10814048Y-14867619D02*
X10823571Y-14905714D01*
X10823571Y-14905714D02*
X10823571Y-14953333D01*
X10823571Y-14953333D02*
X10814048Y-14991428D01*
X10814048Y-14991428D02*
X10804524Y-15010476D01*
X10804524Y-15010476D02*
X10795000Y-15020000D01*
X10795000Y-15020000D02*
X10775952Y-15029524D01*
X10775952Y-15029524D02*
X10756905Y-15029524D01*
X10756905Y-15029524D02*
X10737857Y-15020000D01*
X10737857Y-15020000D02*
X10728333Y-15010476D01*
X10728333Y-15010476D02*
X10718810Y-14991428D01*
X10718810Y-14991428D02*
X10709286Y-14953333D01*
X10709286Y-14953333D02*
X10709286Y-14905714D01*
X10709286Y-14905714D02*
X10718810Y-14867619D01*
X10718810Y-14867619D02*
X10728333Y-14848571D01*
X10728333Y-14848571D02*
X10737857Y-14839048D01*
X10737857Y-14839048D02*
X10756905Y-14829524D01*
X10947381Y-14829524D02*
X10966429Y-14829524D01*
X10966429Y-14829524D02*
X10985476Y-14839048D01*
X10985476Y-14839048D02*
X10995000Y-14848571D01*
X10995000Y-14848571D02*
X11004524Y-14867619D01*
X11004524Y-14867619D02*
X11014048Y-14905714D01*
X11014048Y-14905714D02*
X11014048Y-14953333D01*
X11014048Y-14953333D02*
X11004524Y-14991428D01*
X11004524Y-14991428D02*
X10995000Y-15010476D01*
X10995000Y-15010476D02*
X10985476Y-15020000D01*
X10985476Y-15020000D02*
X10966429Y-15029524D01*
X10966429Y-15029524D02*
X10947381Y-15029524D01*
X10947381Y-15029524D02*
X10928333Y-15020000D01*
X10928333Y-15020000D02*
X10918810Y-15010476D01*
X10918810Y-15010476D02*
X10909286Y-14991428D01*
X10909286Y-14991428D02*
X10899762Y-14953333D01*
X10899762Y-14953333D02*
X10899762Y-14905714D01*
X10899762Y-14905714D02*
X10909286Y-14867619D01*
X10909286Y-14867619D02*
X10918810Y-14848571D01*
X10918810Y-14848571D02*
X10928333Y-14839048D01*
X10928333Y-14839048D02*
X10947381Y-14829524D01*
X11099762Y-15029524D02*
X11099762Y-14896190D01*
X11099762Y-14915238D02*
X11109286Y-14905714D01*
X11109286Y-14905714D02*
X11128333Y-14896190D01*
X11128333Y-14896190D02*
X11156905Y-14896190D01*
X11156905Y-14896190D02*
X11175952Y-14905714D01*
X11175952Y-14905714D02*
X11185476Y-14924762D01*
X11185476Y-14924762D02*
X11185476Y-15029524D01*
X11185476Y-14924762D02*
X11195000Y-14905714D01*
X11195000Y-14905714D02*
X11214048Y-14896190D01*
X11214048Y-14896190D02*
X11242619Y-14896190D01*
X11242619Y-14896190D02*
X11261667Y-14905714D01*
X11261667Y-14905714D02*
X11271190Y-14924762D01*
X11271190Y-14924762D02*
X11271190Y-15029524D01*
X11366429Y-15029524D02*
X11366429Y-14896190D01*
X11366429Y-14915238D02*
X11375952Y-14905714D01*
X11375952Y-14905714D02*
X11395000Y-14896190D01*
X11395000Y-14896190D02*
X11423571Y-14896190D01*
X11423571Y-14896190D02*
X11442619Y-14905714D01*
X11442619Y-14905714D02*
X11452143Y-14924762D01*
X11452143Y-14924762D02*
X11452143Y-15029524D01*
X11452143Y-14924762D02*
X11461667Y-14905714D01*
X11461667Y-14905714D02*
X11480714Y-14896190D01*
X11480714Y-14896190D02*
X11509286Y-14896190D01*
X11509286Y-14896190D02*
X11528333Y-14905714D01*
X11528333Y-14905714D02*
X11537857Y-14924762D01*
X11537857Y-14924762D02*
X11537857Y-15029524D01*
X11928333Y-14820000D02*
X11756905Y-15077143D01*
X12185476Y-14829524D02*
X12204524Y-14829524D01*
X12204524Y-14829524D02*
X12223572Y-14839048D01*
X12223572Y-14839048D02*
X12233095Y-14848571D01*
X12233095Y-14848571D02*
X12242619Y-14867619D01*
X12242619Y-14867619D02*
X12252143Y-14905714D01*
X12252143Y-14905714D02*
X12252143Y-14953333D01*
X12252143Y-14953333D02*
X12242619Y-14991428D01*
X12242619Y-14991428D02*
X12233095Y-15010476D01*
X12233095Y-15010476D02*
X12223572Y-15020000D01*
X12223572Y-15020000D02*
X12204524Y-15029524D01*
X12204524Y-15029524D02*
X12185476Y-15029524D01*
X12185476Y-15029524D02*
X12166429Y-15020000D01*
X12166429Y-15020000D02*
X12156905Y-15010476D01*
X12156905Y-15010476D02*
X12147381Y-14991428D01*
X12147381Y-14991428D02*
X12137857Y-14953333D01*
X12137857Y-14953333D02*
X12137857Y-14905714D01*
X12137857Y-14905714D02*
X12147381Y-14867619D01*
X12147381Y-14867619D02*
X12156905Y-14848571D01*
X12156905Y-14848571D02*
X12166429Y-14839048D01*
X12166429Y-14839048D02*
X12185476Y-14829524D01*
X12337857Y-15010476D02*
X12347381Y-15020000D01*
X12347381Y-15020000D02*
X12337857Y-15029524D01*
X12337857Y-15029524D02*
X12328333Y-15020000D01*
X12328333Y-15020000D02*
X12337857Y-15010476D01*
X12337857Y-15010476D02*
X12337857Y-15029524D01*
X12471191Y-14829524D02*
X12490238Y-14829524D01*
X12490238Y-14829524D02*
X12509286Y-14839048D01*
X12509286Y-14839048D02*
X12518810Y-14848571D01*
X12518810Y-14848571D02*
X12528333Y-14867619D01*
X12528333Y-14867619D02*
X12537857Y-14905714D01*
X12537857Y-14905714D02*
X12537857Y-14953333D01*
X12537857Y-14953333D02*
X12528333Y-14991428D01*
X12528333Y-14991428D02*
X12518810Y-15010476D01*
X12518810Y-15010476D02*
X12509286Y-15020000D01*
X12509286Y-15020000D02*
X12490238Y-15029524D01*
X12490238Y-15029524D02*
X12471191Y-15029524D01*
X12471191Y-15029524D02*
X12452143Y-15020000D01*
X12452143Y-15020000D02*
X12442619Y-15010476D01*
X12442619Y-15010476D02*
X12433095Y-14991428D01*
X12433095Y-14991428D02*
X12423572Y-14953333D01*
X12423572Y-14953333D02*
X12423572Y-14905714D01*
X12423572Y-14905714D02*
X12433095Y-14867619D01*
X12433095Y-14867619D02*
X12442619Y-14848571D01*
X12442619Y-14848571D02*
X12452143Y-14839048D01*
X12452143Y-14839048D02*
X12471191Y-14829524D01*
X12604524Y-14829524D02*
X12728333Y-14829524D01*
X12728333Y-14829524D02*
X12661667Y-14905714D01*
X12661667Y-14905714D02*
X12690238Y-14905714D01*
X12690238Y-14905714D02*
X12709286Y-14915238D01*
X12709286Y-14915238D02*
X12718810Y-14924762D01*
X12718810Y-14924762D02*
X12728333Y-14943809D01*
X12728333Y-14943809D02*
X12728333Y-14991428D01*
X12728333Y-14991428D02*
X12718810Y-15010476D01*
X12718810Y-15010476D02*
X12709286Y-15020000D01*
X12709286Y-15020000D02*
X12690238Y-15029524D01*
X12690238Y-15029524D02*
X12633095Y-15029524D01*
X12633095Y-15029524D02*
X12614048Y-15020000D01*
X12614048Y-15020000D02*
X12604524Y-15010476D01*
X12823572Y-15029524D02*
X12861667Y-15029524D01*
X12861667Y-15029524D02*
X12880714Y-15020000D01*
X12880714Y-15020000D02*
X12890238Y-15010476D01*
X12890238Y-15010476D02*
X12909286Y-14981905D01*
X12909286Y-14981905D02*
X12918810Y-14943809D01*
X12918810Y-14943809D02*
X12918810Y-14867619D01*
X12918810Y-14867619D02*
X12909286Y-14848571D01*
X12909286Y-14848571D02*
X12899762Y-14839048D01*
X12899762Y-14839048D02*
X12880714Y-14829524D01*
X12880714Y-14829524D02*
X12842619Y-14829524D01*
X12842619Y-14829524D02*
X12823572Y-14839048D01*
X12823572Y-14839048D02*
X12814048Y-14848571D01*
X12814048Y-14848571D02*
X12804524Y-14867619D01*
X12804524Y-14867619D02*
X12804524Y-14915238D01*
X12804524Y-14915238D02*
X12814048Y-14934286D01*
X12814048Y-14934286D02*
X12823572Y-14943809D01*
X12823572Y-14943809D02*
X12842619Y-14953333D01*
X12842619Y-14953333D02*
X12880714Y-14953333D01*
X12880714Y-14953333D02*
X12899762Y-14943809D01*
X12899762Y-14943809D02*
X12909286Y-14934286D01*
X12909286Y-14934286D02*
X12918810Y-14915238D01*
X13090238Y-14896190D02*
X13090238Y-15029524D01*
X13042619Y-14820000D02*
X12995000Y-14962857D01*
X12995000Y-14962857D02*
X13118810Y-14962857D01*
X13185476Y-14829524D02*
X13185476Y-14867619D01*
X13261667Y-14829524D02*
X13261667Y-14867619D01*
X13556905Y-15105714D02*
X13547381Y-15096190D01*
X13547381Y-15096190D02*
X13528334Y-15067619D01*
X13528334Y-15067619D02*
X13518810Y-15048571D01*
X13518810Y-15048571D02*
X13509286Y-15020000D01*
X13509286Y-15020000D02*
X13499762Y-14972381D01*
X13499762Y-14972381D02*
X13499762Y-14934286D01*
X13499762Y-14934286D02*
X13509286Y-14886667D01*
X13509286Y-14886667D02*
X13518810Y-14858095D01*
X13518810Y-14858095D02*
X13528334Y-14839048D01*
X13528334Y-14839048D02*
X13547381Y-14810476D01*
X13547381Y-14810476D02*
X13556905Y-14800952D01*
X13718810Y-14829524D02*
X13680714Y-14829524D01*
X13680714Y-14829524D02*
X13661667Y-14839048D01*
X13661667Y-14839048D02*
X13652143Y-14848571D01*
X13652143Y-14848571D02*
X13633095Y-14877143D01*
X13633095Y-14877143D02*
X13623572Y-14915238D01*
X13623572Y-14915238D02*
X13623572Y-14991428D01*
X13623572Y-14991428D02*
X13633095Y-15010476D01*
X13633095Y-15010476D02*
X13642619Y-15020000D01*
X13642619Y-15020000D02*
X13661667Y-15029524D01*
X13661667Y-15029524D02*
X13699762Y-15029524D01*
X13699762Y-15029524D02*
X13718810Y-15020000D01*
X13718810Y-15020000D02*
X13728334Y-15010476D01*
X13728334Y-15010476D02*
X13737857Y-14991428D01*
X13737857Y-14991428D02*
X13737857Y-14943809D01*
X13737857Y-14943809D02*
X13728334Y-14924762D01*
X13728334Y-14924762D02*
X13718810Y-14915238D01*
X13718810Y-14915238D02*
X13699762Y-14905714D01*
X13699762Y-14905714D02*
X13661667Y-14905714D01*
X13661667Y-14905714D02*
X13642619Y-14915238D01*
X13642619Y-14915238D02*
X13633095Y-14924762D01*
X13633095Y-14924762D02*
X13623572Y-14943809D01*
X13975953Y-15029524D02*
X13975953Y-14829524D01*
X14061667Y-15029524D02*
X14061667Y-14924762D01*
X14061667Y-14924762D02*
X14052143Y-14905714D01*
X14052143Y-14905714D02*
X14033096Y-14896190D01*
X14033096Y-14896190D02*
X14004524Y-14896190D01*
X14004524Y-14896190D02*
X13985476Y-14905714D01*
X13985476Y-14905714D02*
X13975953Y-14915238D01*
X14185476Y-15029524D02*
X14166429Y-15020000D01*
X14166429Y-15020000D02*
X14156905Y-15010476D01*
X14156905Y-15010476D02*
X14147381Y-14991428D01*
X14147381Y-14991428D02*
X14147381Y-14934286D01*
X14147381Y-14934286D02*
X14156905Y-14915238D01*
X14156905Y-14915238D02*
X14166429Y-14905714D01*
X14166429Y-14905714D02*
X14185476Y-14896190D01*
X14185476Y-14896190D02*
X14214048Y-14896190D01*
X14214048Y-14896190D02*
X14233096Y-14905714D01*
X14233096Y-14905714D02*
X14242619Y-14915238D01*
X14242619Y-14915238D02*
X14252143Y-14934286D01*
X14252143Y-14934286D02*
X14252143Y-14991428D01*
X14252143Y-14991428D02*
X14242619Y-15010476D01*
X14242619Y-15010476D02*
X14233096Y-15020000D01*
X14233096Y-15020000D02*
X14214048Y-15029524D01*
X14214048Y-15029524D02*
X14185476Y-15029524D01*
X14366429Y-15029524D02*
X14347381Y-15020000D01*
X14347381Y-15020000D02*
X14337857Y-15000952D01*
X14337857Y-15000952D02*
X14337857Y-14829524D01*
X14518810Y-15020000D02*
X14499762Y-15029524D01*
X14499762Y-15029524D02*
X14461667Y-15029524D01*
X14461667Y-15029524D02*
X14442619Y-15020000D01*
X14442619Y-15020000D02*
X14433096Y-15000952D01*
X14433096Y-15000952D02*
X14433096Y-14924762D01*
X14433096Y-14924762D02*
X14442619Y-14905714D01*
X14442619Y-14905714D02*
X14461667Y-14896190D01*
X14461667Y-14896190D02*
X14499762Y-14896190D01*
X14499762Y-14896190D02*
X14518810Y-14905714D01*
X14518810Y-14905714D02*
X14528334Y-14924762D01*
X14528334Y-14924762D02*
X14528334Y-14943809D01*
X14528334Y-14943809D02*
X14433096Y-14962857D01*
X14604524Y-15020000D02*
X14623572Y-15029524D01*
X14623572Y-15029524D02*
X14661667Y-15029524D01*
X14661667Y-15029524D02*
X14680715Y-15020000D01*
X14680715Y-15020000D02*
X14690238Y-15000952D01*
X14690238Y-15000952D02*
X14690238Y-14991428D01*
X14690238Y-14991428D02*
X14680715Y-14972381D01*
X14680715Y-14972381D02*
X14661667Y-14962857D01*
X14661667Y-14962857D02*
X14633096Y-14962857D01*
X14633096Y-14962857D02*
X14614048Y-14953333D01*
X14614048Y-14953333D02*
X14604524Y-14934286D01*
X14604524Y-14934286D02*
X14604524Y-14924762D01*
X14604524Y-14924762D02*
X14614048Y-14905714D01*
X14614048Y-14905714D02*
X14633096Y-14896190D01*
X14633096Y-14896190D02*
X14661667Y-14896190D01*
X14661667Y-14896190D02*
X14680715Y-14905714D01*
X14756905Y-15105714D02*
X14766429Y-15096190D01*
X14766429Y-15096190D02*
X14785477Y-15067619D01*
X14785477Y-15067619D02*
X14795000Y-15048571D01*
X14795000Y-15048571D02*
X14804524Y-15020000D01*
X14804524Y-15020000D02*
X14814048Y-14972381D01*
X14814048Y-14972381D02*
X14814048Y-14934286D01*
X14814048Y-14934286D02*
X14804524Y-14886667D01*
X14804524Y-14886667D02*
X14795000Y-14858095D01*
X14795000Y-14858095D02*
X14785477Y-14839048D01*
X14785477Y-14839048D02*
X14766429Y-14810476D01*
X14766429Y-14810476D02*
X14756905Y-14800952D01*
D15*
X9919000Y-15277000D02*
X9995000Y-15201000D01*
X9919000Y-15125000D01*
X9843000Y-15201000D01*
X9919000Y-15277000D01*
D11*
X10347381Y-15293524D02*
X10233095Y-15293524D01*
X10290238Y-15293524D02*
X10290238Y-15093524D01*
X10290238Y-15093524D02*
X10271190Y-15122095D01*
X10271190Y-15122095D02*
X10252143Y-15141143D01*
X10252143Y-15141143D02*
X10233095Y-15150667D01*
X10433095Y-15274476D02*
X10442619Y-15284000D01*
X10442619Y-15284000D02*
X10433095Y-15293524D01*
X10433095Y-15293524D02*
X10423571Y-15284000D01*
X10423571Y-15284000D02*
X10433095Y-15274476D01*
X10433095Y-15274476D02*
X10433095Y-15293524D01*
X10623571Y-15093524D02*
X10528333Y-15093524D01*
X10528333Y-15093524D02*
X10518810Y-15188762D01*
X10518810Y-15188762D02*
X10528333Y-15179238D01*
X10528333Y-15179238D02*
X10547381Y-15169714D01*
X10547381Y-15169714D02*
X10595000Y-15169714D01*
X10595000Y-15169714D02*
X10614048Y-15179238D01*
X10614048Y-15179238D02*
X10623571Y-15188762D01*
X10623571Y-15188762D02*
X10633095Y-15207809D01*
X10633095Y-15207809D02*
X10633095Y-15255428D01*
X10633095Y-15255428D02*
X10623571Y-15274476D01*
X10623571Y-15274476D02*
X10614048Y-15284000D01*
X10614048Y-15284000D02*
X10595000Y-15293524D01*
X10595000Y-15293524D02*
X10547381Y-15293524D01*
X10547381Y-15293524D02*
X10528333Y-15284000D01*
X10528333Y-15284000D02*
X10518810Y-15274476D01*
X10709286Y-15112571D02*
X10718810Y-15103048D01*
X10718810Y-15103048D02*
X10737857Y-15093524D01*
X10737857Y-15093524D02*
X10785476Y-15093524D01*
X10785476Y-15093524D02*
X10804524Y-15103048D01*
X10804524Y-15103048D02*
X10814048Y-15112571D01*
X10814048Y-15112571D02*
X10823571Y-15131619D01*
X10823571Y-15131619D02*
X10823571Y-15150667D01*
X10823571Y-15150667D02*
X10814048Y-15179238D01*
X10814048Y-15179238D02*
X10699762Y-15293524D01*
X10699762Y-15293524D02*
X10823571Y-15293524D01*
X10947381Y-15093524D02*
X10966429Y-15093524D01*
X10966429Y-15093524D02*
X10985476Y-15103048D01*
X10985476Y-15103048D02*
X10995000Y-15112571D01*
X10995000Y-15112571D02*
X11004524Y-15131619D01*
X11004524Y-15131619D02*
X11014048Y-15169714D01*
X11014048Y-15169714D02*
X11014048Y-15217333D01*
X11014048Y-15217333D02*
X11004524Y-15255428D01*
X11004524Y-15255428D02*
X10995000Y-15274476D01*
X10995000Y-15274476D02*
X10985476Y-15284000D01*
X10985476Y-15284000D02*
X10966429Y-15293524D01*
X10966429Y-15293524D02*
X10947381Y-15293524D01*
X10947381Y-15293524D02*
X10928333Y-15284000D01*
X10928333Y-15284000D02*
X10918810Y-15274476D01*
X10918810Y-15274476D02*
X10909286Y-15255428D01*
X10909286Y-15255428D02*
X10899762Y-15217333D01*
X10899762Y-15217333D02*
X10899762Y-15169714D01*
X10899762Y-15169714D02*
X10909286Y-15131619D01*
X10909286Y-15131619D02*
X10918810Y-15112571D01*
X10918810Y-15112571D02*
X10928333Y-15103048D01*
X10928333Y-15103048D02*
X10947381Y-15093524D01*
X11099762Y-15293524D02*
X11099762Y-15160190D01*
X11099762Y-15179238D02*
X11109286Y-15169714D01*
X11109286Y-15169714D02*
X11128333Y-15160190D01*
X11128333Y-15160190D02*
X11156905Y-15160190D01*
X11156905Y-15160190D02*
X11175952Y-15169714D01*
X11175952Y-15169714D02*
X11185476Y-15188762D01*
X11185476Y-15188762D02*
X11185476Y-15293524D01*
X11185476Y-15188762D02*
X11195000Y-15169714D01*
X11195000Y-15169714D02*
X11214048Y-15160190D01*
X11214048Y-15160190D02*
X11242619Y-15160190D01*
X11242619Y-15160190D02*
X11261667Y-15169714D01*
X11261667Y-15169714D02*
X11271190Y-15188762D01*
X11271190Y-15188762D02*
X11271190Y-15293524D01*
X11366429Y-15293524D02*
X11366429Y-15160190D01*
X11366429Y-15179238D02*
X11375952Y-15169714D01*
X11375952Y-15169714D02*
X11395000Y-15160190D01*
X11395000Y-15160190D02*
X11423571Y-15160190D01*
X11423571Y-15160190D02*
X11442619Y-15169714D01*
X11442619Y-15169714D02*
X11452143Y-15188762D01*
X11452143Y-15188762D02*
X11452143Y-15293524D01*
X11452143Y-15188762D02*
X11461667Y-15169714D01*
X11461667Y-15169714D02*
X11480714Y-15160190D01*
X11480714Y-15160190D02*
X11509286Y-15160190D01*
X11509286Y-15160190D02*
X11528333Y-15169714D01*
X11528333Y-15169714D02*
X11537857Y-15188762D01*
X11537857Y-15188762D02*
X11537857Y-15293524D01*
X11928333Y-15084000D02*
X11756905Y-15341143D01*
X12185476Y-15093524D02*
X12204524Y-15093524D01*
X12204524Y-15093524D02*
X12223572Y-15103048D01*
X12223572Y-15103048D02*
X12233095Y-15112571D01*
X12233095Y-15112571D02*
X12242619Y-15131619D01*
X12242619Y-15131619D02*
X12252143Y-15169714D01*
X12252143Y-15169714D02*
X12252143Y-15217333D01*
X12252143Y-15217333D02*
X12242619Y-15255428D01*
X12242619Y-15255428D02*
X12233095Y-15274476D01*
X12233095Y-15274476D02*
X12223572Y-15284000D01*
X12223572Y-15284000D02*
X12204524Y-15293524D01*
X12204524Y-15293524D02*
X12185476Y-15293524D01*
X12185476Y-15293524D02*
X12166429Y-15284000D01*
X12166429Y-15284000D02*
X12156905Y-15274476D01*
X12156905Y-15274476D02*
X12147381Y-15255428D01*
X12147381Y-15255428D02*
X12137857Y-15217333D01*
X12137857Y-15217333D02*
X12137857Y-15169714D01*
X12137857Y-15169714D02*
X12147381Y-15131619D01*
X12147381Y-15131619D02*
X12156905Y-15112571D01*
X12156905Y-15112571D02*
X12166429Y-15103048D01*
X12166429Y-15103048D02*
X12185476Y-15093524D01*
X12337857Y-15274476D02*
X12347381Y-15284000D01*
X12347381Y-15284000D02*
X12337857Y-15293524D01*
X12337857Y-15293524D02*
X12328333Y-15284000D01*
X12328333Y-15284000D02*
X12337857Y-15274476D01*
X12337857Y-15274476D02*
X12337857Y-15293524D01*
X12471191Y-15093524D02*
X12490238Y-15093524D01*
X12490238Y-15093524D02*
X12509286Y-15103048D01*
X12509286Y-15103048D02*
X12518810Y-15112571D01*
X12518810Y-15112571D02*
X12528333Y-15131619D01*
X12528333Y-15131619D02*
X12537857Y-15169714D01*
X12537857Y-15169714D02*
X12537857Y-15217333D01*
X12537857Y-15217333D02*
X12528333Y-15255428D01*
X12528333Y-15255428D02*
X12518810Y-15274476D01*
X12518810Y-15274476D02*
X12509286Y-15284000D01*
X12509286Y-15284000D02*
X12490238Y-15293524D01*
X12490238Y-15293524D02*
X12471191Y-15293524D01*
X12471191Y-15293524D02*
X12452143Y-15284000D01*
X12452143Y-15284000D02*
X12442619Y-15274476D01*
X12442619Y-15274476D02*
X12433095Y-15255428D01*
X12433095Y-15255428D02*
X12423572Y-15217333D01*
X12423572Y-15217333D02*
X12423572Y-15169714D01*
X12423572Y-15169714D02*
X12433095Y-15131619D01*
X12433095Y-15131619D02*
X12442619Y-15112571D01*
X12442619Y-15112571D02*
X12452143Y-15103048D01*
X12452143Y-15103048D02*
X12471191Y-15093524D01*
X12718810Y-15093524D02*
X12623572Y-15093524D01*
X12623572Y-15093524D02*
X12614048Y-15188762D01*
X12614048Y-15188762D02*
X12623572Y-15179238D01*
X12623572Y-15179238D02*
X12642619Y-15169714D01*
X12642619Y-15169714D02*
X12690238Y-15169714D01*
X12690238Y-15169714D02*
X12709286Y-15179238D01*
X12709286Y-15179238D02*
X12718810Y-15188762D01*
X12718810Y-15188762D02*
X12728333Y-15207809D01*
X12728333Y-15207809D02*
X12728333Y-15255428D01*
X12728333Y-15255428D02*
X12718810Y-15274476D01*
X12718810Y-15274476D02*
X12709286Y-15284000D01*
X12709286Y-15284000D02*
X12690238Y-15293524D01*
X12690238Y-15293524D02*
X12642619Y-15293524D01*
X12642619Y-15293524D02*
X12623572Y-15284000D01*
X12623572Y-15284000D02*
X12614048Y-15274476D01*
X12823572Y-15293524D02*
X12861667Y-15293524D01*
X12861667Y-15293524D02*
X12880714Y-15284000D01*
X12880714Y-15284000D02*
X12890238Y-15274476D01*
X12890238Y-15274476D02*
X12909286Y-15245905D01*
X12909286Y-15245905D02*
X12918810Y-15207809D01*
X12918810Y-15207809D02*
X12918810Y-15131619D01*
X12918810Y-15131619D02*
X12909286Y-15112571D01*
X12909286Y-15112571D02*
X12899762Y-15103048D01*
X12899762Y-15103048D02*
X12880714Y-15093524D01*
X12880714Y-15093524D02*
X12842619Y-15093524D01*
X12842619Y-15093524D02*
X12823572Y-15103048D01*
X12823572Y-15103048D02*
X12814048Y-15112571D01*
X12814048Y-15112571D02*
X12804524Y-15131619D01*
X12804524Y-15131619D02*
X12804524Y-15179238D01*
X12804524Y-15179238D02*
X12814048Y-15198286D01*
X12814048Y-15198286D02*
X12823572Y-15207809D01*
X12823572Y-15207809D02*
X12842619Y-15217333D01*
X12842619Y-15217333D02*
X12880714Y-15217333D01*
X12880714Y-15217333D02*
X12899762Y-15207809D01*
X12899762Y-15207809D02*
X12909286Y-15198286D01*
X12909286Y-15198286D02*
X12918810Y-15179238D01*
X13033095Y-15179238D02*
X13014048Y-15169714D01*
X13014048Y-15169714D02*
X13004524Y-15160190D01*
X13004524Y-15160190D02*
X12995000Y-15141143D01*
X12995000Y-15141143D02*
X12995000Y-15131619D01*
X12995000Y-15131619D02*
X13004524Y-15112571D01*
X13004524Y-15112571D02*
X13014048Y-15103048D01*
X13014048Y-15103048D02*
X13033095Y-15093524D01*
X13033095Y-15093524D02*
X13071191Y-15093524D01*
X13071191Y-15093524D02*
X13090238Y-15103048D01*
X13090238Y-15103048D02*
X13099762Y-15112571D01*
X13099762Y-15112571D02*
X13109286Y-15131619D01*
X13109286Y-15131619D02*
X13109286Y-15141143D01*
X13109286Y-15141143D02*
X13099762Y-15160190D01*
X13099762Y-15160190D02*
X13090238Y-15169714D01*
X13090238Y-15169714D02*
X13071191Y-15179238D01*
X13071191Y-15179238D02*
X13033095Y-15179238D01*
X13033095Y-15179238D02*
X13014048Y-15188762D01*
X13014048Y-15188762D02*
X13004524Y-15198286D01*
X13004524Y-15198286D02*
X12995000Y-15217333D01*
X12995000Y-15217333D02*
X12995000Y-15255428D01*
X12995000Y-15255428D02*
X13004524Y-15274476D01*
X13004524Y-15274476D02*
X13014048Y-15284000D01*
X13014048Y-15284000D02*
X13033095Y-15293524D01*
X13033095Y-15293524D02*
X13071191Y-15293524D01*
X13071191Y-15293524D02*
X13090238Y-15284000D01*
X13090238Y-15284000D02*
X13099762Y-15274476D01*
X13099762Y-15274476D02*
X13109286Y-15255428D01*
X13109286Y-15255428D02*
X13109286Y-15217333D01*
X13109286Y-15217333D02*
X13099762Y-15198286D01*
X13099762Y-15198286D02*
X13090238Y-15188762D01*
X13090238Y-15188762D02*
X13071191Y-15179238D01*
X13185476Y-15093524D02*
X13185476Y-15131619D01*
X13261667Y-15093524D02*
X13261667Y-15131619D01*
X13556905Y-15369714D02*
X13547381Y-15360190D01*
X13547381Y-15360190D02*
X13528334Y-15331619D01*
X13528334Y-15331619D02*
X13518810Y-15312571D01*
X13518810Y-15312571D02*
X13509286Y-15284000D01*
X13509286Y-15284000D02*
X13499762Y-15236381D01*
X13499762Y-15236381D02*
X13499762Y-15198286D01*
X13499762Y-15198286D02*
X13509286Y-15150667D01*
X13509286Y-15150667D02*
X13518810Y-15122095D01*
X13518810Y-15122095D02*
X13528334Y-15103048D01*
X13528334Y-15103048D02*
X13547381Y-15074476D01*
X13547381Y-15074476D02*
X13556905Y-15064952D01*
X13728334Y-15093524D02*
X13633095Y-15093524D01*
X13633095Y-15093524D02*
X13623572Y-15188762D01*
X13623572Y-15188762D02*
X13633095Y-15179238D01*
X13633095Y-15179238D02*
X13652143Y-15169714D01*
X13652143Y-15169714D02*
X13699762Y-15169714D01*
X13699762Y-15169714D02*
X13718810Y-15179238D01*
X13718810Y-15179238D02*
X13728334Y-15188762D01*
X13728334Y-15188762D02*
X13737857Y-15207809D01*
X13737857Y-15207809D02*
X13737857Y-15255428D01*
X13737857Y-15255428D02*
X13728334Y-15274476D01*
X13728334Y-15274476D02*
X13718810Y-15284000D01*
X13718810Y-15284000D02*
X13699762Y-15293524D01*
X13699762Y-15293524D02*
X13652143Y-15293524D01*
X13652143Y-15293524D02*
X13633095Y-15284000D01*
X13633095Y-15284000D02*
X13623572Y-15274476D01*
X13975953Y-15293524D02*
X13975953Y-15093524D01*
X14061667Y-15293524D02*
X14061667Y-15188762D01*
X14061667Y-15188762D02*
X14052143Y-15169714D01*
X14052143Y-15169714D02*
X14033096Y-15160190D01*
X14033096Y-15160190D02*
X14004524Y-15160190D01*
X14004524Y-15160190D02*
X13985476Y-15169714D01*
X13985476Y-15169714D02*
X13975953Y-15179238D01*
X14185476Y-15293524D02*
X14166429Y-15284000D01*
X14166429Y-15284000D02*
X14156905Y-15274476D01*
X14156905Y-15274476D02*
X14147381Y-15255428D01*
X14147381Y-15255428D02*
X14147381Y-15198286D01*
X14147381Y-15198286D02*
X14156905Y-15179238D01*
X14156905Y-15179238D02*
X14166429Y-15169714D01*
X14166429Y-15169714D02*
X14185476Y-15160190D01*
X14185476Y-15160190D02*
X14214048Y-15160190D01*
X14214048Y-15160190D02*
X14233096Y-15169714D01*
X14233096Y-15169714D02*
X14242619Y-15179238D01*
X14242619Y-15179238D02*
X14252143Y-15198286D01*
X14252143Y-15198286D02*
X14252143Y-15255428D01*
X14252143Y-15255428D02*
X14242619Y-15274476D01*
X14242619Y-15274476D02*
X14233096Y-15284000D01*
X14233096Y-15284000D02*
X14214048Y-15293524D01*
X14214048Y-15293524D02*
X14185476Y-15293524D01*
X14366429Y-15293524D02*
X14347381Y-15284000D01*
X14347381Y-15284000D02*
X14337857Y-15264952D01*
X14337857Y-15264952D02*
X14337857Y-15093524D01*
X14518810Y-15284000D02*
X14499762Y-15293524D01*
X14499762Y-15293524D02*
X14461667Y-15293524D01*
X14461667Y-15293524D02*
X14442619Y-15284000D01*
X14442619Y-15284000D02*
X14433096Y-15264952D01*
X14433096Y-15264952D02*
X14433096Y-15188762D01*
X14433096Y-15188762D02*
X14442619Y-15169714D01*
X14442619Y-15169714D02*
X14461667Y-15160190D01*
X14461667Y-15160190D02*
X14499762Y-15160190D01*
X14499762Y-15160190D02*
X14518810Y-15169714D01*
X14518810Y-15169714D02*
X14528334Y-15188762D01*
X14528334Y-15188762D02*
X14528334Y-15207809D01*
X14528334Y-15207809D02*
X14433096Y-15226857D01*
X14604524Y-15284000D02*
X14623572Y-15293524D01*
X14623572Y-15293524D02*
X14661667Y-15293524D01*
X14661667Y-15293524D02*
X14680715Y-15284000D01*
X14680715Y-15284000D02*
X14690238Y-15264952D01*
X14690238Y-15264952D02*
X14690238Y-15255428D01*
X14690238Y-15255428D02*
X14680715Y-15236381D01*
X14680715Y-15236381D02*
X14661667Y-15226857D01*
X14661667Y-15226857D02*
X14633096Y-15226857D01*
X14633096Y-15226857D02*
X14614048Y-15217333D01*
X14614048Y-15217333D02*
X14604524Y-15198286D01*
X14604524Y-15198286D02*
X14604524Y-15188762D01*
X14604524Y-15188762D02*
X14614048Y-15169714D01*
X14614048Y-15169714D02*
X14633096Y-15160190D01*
X14633096Y-15160190D02*
X14661667Y-15160190D01*
X14661667Y-15160190D02*
X14680715Y-15169714D01*
X14756905Y-15369714D02*
X14766429Y-15360190D01*
X14766429Y-15360190D02*
X14785477Y-15331619D01*
X14785477Y-15331619D02*
X14795000Y-15312571D01*
X14795000Y-15312571D02*
X14804524Y-15284000D01*
X14804524Y-15284000D02*
X14814048Y-15236381D01*
X14814048Y-15236381D02*
X14814048Y-15198286D01*
X14814048Y-15198286D02*
X14804524Y-15150667D01*
X14804524Y-15150667D02*
X14795000Y-15122095D01*
X14795000Y-15122095D02*
X14785477Y-15103048D01*
X14785477Y-15103048D02*
X14766429Y-15074476D01*
X14766429Y-15074476D02*
X14756905Y-15064952D01*
X9795000Y-15373000D02*
X9995000Y-15573000D01*
X9995000Y-15373000D02*
X9795000Y-15573000D01*
X9995000Y-15473000D02*
G75*
G03*
X9995000Y-15473000I-100000J0D01*
G01*
X10233095Y-15384571D02*
X10242619Y-15375048D01*
X10242619Y-15375048D02*
X10261667Y-15365524D01*
X10261667Y-15365524D02*
X10309286Y-15365524D01*
X10309286Y-15365524D02*
X10328333Y-15375048D01*
X10328333Y-15375048D02*
X10337857Y-15384571D01*
X10337857Y-15384571D02*
X10347381Y-15403619D01*
X10347381Y-15403619D02*
X10347381Y-15422667D01*
X10347381Y-15422667D02*
X10337857Y-15451238D01*
X10337857Y-15451238D02*
X10223571Y-15565524D01*
X10223571Y-15565524D02*
X10347381Y-15565524D01*
X10433095Y-15546476D02*
X10442619Y-15556000D01*
X10442619Y-15556000D02*
X10433095Y-15565524D01*
X10433095Y-15565524D02*
X10423571Y-15556000D01*
X10423571Y-15556000D02*
X10433095Y-15546476D01*
X10433095Y-15546476D02*
X10433095Y-15565524D01*
X10509286Y-15365524D02*
X10642619Y-15365524D01*
X10642619Y-15365524D02*
X10556905Y-15565524D01*
X10756905Y-15365524D02*
X10775952Y-15365524D01*
X10775952Y-15365524D02*
X10795000Y-15375048D01*
X10795000Y-15375048D02*
X10804524Y-15384571D01*
X10804524Y-15384571D02*
X10814048Y-15403619D01*
X10814048Y-15403619D02*
X10823571Y-15441714D01*
X10823571Y-15441714D02*
X10823571Y-15489333D01*
X10823571Y-15489333D02*
X10814048Y-15527428D01*
X10814048Y-15527428D02*
X10804524Y-15546476D01*
X10804524Y-15546476D02*
X10795000Y-15556000D01*
X10795000Y-15556000D02*
X10775952Y-15565524D01*
X10775952Y-15565524D02*
X10756905Y-15565524D01*
X10756905Y-15565524D02*
X10737857Y-15556000D01*
X10737857Y-15556000D02*
X10728333Y-15546476D01*
X10728333Y-15546476D02*
X10718810Y-15527428D01*
X10718810Y-15527428D02*
X10709286Y-15489333D01*
X10709286Y-15489333D02*
X10709286Y-15441714D01*
X10709286Y-15441714D02*
X10718810Y-15403619D01*
X10718810Y-15403619D02*
X10728333Y-15384571D01*
X10728333Y-15384571D02*
X10737857Y-15375048D01*
X10737857Y-15375048D02*
X10756905Y-15365524D01*
X10947381Y-15365524D02*
X10966429Y-15365524D01*
X10966429Y-15365524D02*
X10985476Y-15375048D01*
X10985476Y-15375048D02*
X10995000Y-15384571D01*
X10995000Y-15384571D02*
X11004524Y-15403619D01*
X11004524Y-15403619D02*
X11014048Y-15441714D01*
X11014048Y-15441714D02*
X11014048Y-15489333D01*
X11014048Y-15489333D02*
X11004524Y-15527428D01*
X11004524Y-15527428D02*
X10995000Y-15546476D01*
X10995000Y-15546476D02*
X10985476Y-15556000D01*
X10985476Y-15556000D02*
X10966429Y-15565524D01*
X10966429Y-15565524D02*
X10947381Y-15565524D01*
X10947381Y-15565524D02*
X10928333Y-15556000D01*
X10928333Y-15556000D02*
X10918810Y-15546476D01*
X10918810Y-15546476D02*
X10909286Y-15527428D01*
X10909286Y-15527428D02*
X10899762Y-15489333D01*
X10899762Y-15489333D02*
X10899762Y-15441714D01*
X10899762Y-15441714D02*
X10909286Y-15403619D01*
X10909286Y-15403619D02*
X10918810Y-15384571D01*
X10918810Y-15384571D02*
X10928333Y-15375048D01*
X10928333Y-15375048D02*
X10947381Y-15365524D01*
X11099762Y-15565524D02*
X11099762Y-15432190D01*
X11099762Y-15451238D02*
X11109286Y-15441714D01*
X11109286Y-15441714D02*
X11128333Y-15432190D01*
X11128333Y-15432190D02*
X11156905Y-15432190D01*
X11156905Y-15432190D02*
X11175952Y-15441714D01*
X11175952Y-15441714D02*
X11185476Y-15460762D01*
X11185476Y-15460762D02*
X11185476Y-15565524D01*
X11185476Y-15460762D02*
X11195000Y-15441714D01*
X11195000Y-15441714D02*
X11214048Y-15432190D01*
X11214048Y-15432190D02*
X11242619Y-15432190D01*
X11242619Y-15432190D02*
X11261667Y-15441714D01*
X11261667Y-15441714D02*
X11271190Y-15460762D01*
X11271190Y-15460762D02*
X11271190Y-15565524D01*
X11366429Y-15565524D02*
X11366429Y-15432190D01*
X11366429Y-15451238D02*
X11375952Y-15441714D01*
X11375952Y-15441714D02*
X11395000Y-15432190D01*
X11395000Y-15432190D02*
X11423571Y-15432190D01*
X11423571Y-15432190D02*
X11442619Y-15441714D01*
X11442619Y-15441714D02*
X11452143Y-15460762D01*
X11452143Y-15460762D02*
X11452143Y-15565524D01*
X11452143Y-15460762D02*
X11461667Y-15441714D01*
X11461667Y-15441714D02*
X11480714Y-15432190D01*
X11480714Y-15432190D02*
X11509286Y-15432190D01*
X11509286Y-15432190D02*
X11528333Y-15441714D01*
X11528333Y-15441714D02*
X11537857Y-15460762D01*
X11537857Y-15460762D02*
X11537857Y-15565524D01*
X11928333Y-15356000D02*
X11756905Y-15613143D01*
X12185476Y-15365524D02*
X12204524Y-15365524D01*
X12204524Y-15365524D02*
X12223572Y-15375048D01*
X12223572Y-15375048D02*
X12233095Y-15384571D01*
X12233095Y-15384571D02*
X12242619Y-15403619D01*
X12242619Y-15403619D02*
X12252143Y-15441714D01*
X12252143Y-15441714D02*
X12252143Y-15489333D01*
X12252143Y-15489333D02*
X12242619Y-15527428D01*
X12242619Y-15527428D02*
X12233095Y-15546476D01*
X12233095Y-15546476D02*
X12223572Y-15556000D01*
X12223572Y-15556000D02*
X12204524Y-15565524D01*
X12204524Y-15565524D02*
X12185476Y-15565524D01*
X12185476Y-15565524D02*
X12166429Y-15556000D01*
X12166429Y-15556000D02*
X12156905Y-15546476D01*
X12156905Y-15546476D02*
X12147381Y-15527428D01*
X12147381Y-15527428D02*
X12137857Y-15489333D01*
X12137857Y-15489333D02*
X12137857Y-15441714D01*
X12137857Y-15441714D02*
X12147381Y-15403619D01*
X12147381Y-15403619D02*
X12156905Y-15384571D01*
X12156905Y-15384571D02*
X12166429Y-15375048D01*
X12166429Y-15375048D02*
X12185476Y-15365524D01*
X12337857Y-15546476D02*
X12347381Y-15556000D01*
X12347381Y-15556000D02*
X12337857Y-15565524D01*
X12337857Y-15565524D02*
X12328333Y-15556000D01*
X12328333Y-15556000D02*
X12337857Y-15546476D01*
X12337857Y-15546476D02*
X12337857Y-15565524D01*
X12537857Y-15565524D02*
X12423572Y-15565524D01*
X12480714Y-15565524D02*
X12480714Y-15365524D01*
X12480714Y-15365524D02*
X12461667Y-15394095D01*
X12461667Y-15394095D02*
X12442619Y-15413143D01*
X12442619Y-15413143D02*
X12423572Y-15422667D01*
X12661667Y-15365524D02*
X12680714Y-15365524D01*
X12680714Y-15365524D02*
X12699762Y-15375048D01*
X12699762Y-15375048D02*
X12709286Y-15384571D01*
X12709286Y-15384571D02*
X12718810Y-15403619D01*
X12718810Y-15403619D02*
X12728333Y-15441714D01*
X12728333Y-15441714D02*
X12728333Y-15489333D01*
X12728333Y-15489333D02*
X12718810Y-15527428D01*
X12718810Y-15527428D02*
X12709286Y-15546476D01*
X12709286Y-15546476D02*
X12699762Y-15556000D01*
X12699762Y-15556000D02*
X12680714Y-15565524D01*
X12680714Y-15565524D02*
X12661667Y-15565524D01*
X12661667Y-15565524D02*
X12642619Y-15556000D01*
X12642619Y-15556000D02*
X12633095Y-15546476D01*
X12633095Y-15546476D02*
X12623572Y-15527428D01*
X12623572Y-15527428D02*
X12614048Y-15489333D01*
X12614048Y-15489333D02*
X12614048Y-15441714D01*
X12614048Y-15441714D02*
X12623572Y-15403619D01*
X12623572Y-15403619D02*
X12633095Y-15384571D01*
X12633095Y-15384571D02*
X12642619Y-15375048D01*
X12642619Y-15375048D02*
X12661667Y-15365524D01*
X12899762Y-15365524D02*
X12861667Y-15365524D01*
X12861667Y-15365524D02*
X12842619Y-15375048D01*
X12842619Y-15375048D02*
X12833095Y-15384571D01*
X12833095Y-15384571D02*
X12814048Y-15413143D01*
X12814048Y-15413143D02*
X12804524Y-15451238D01*
X12804524Y-15451238D02*
X12804524Y-15527428D01*
X12804524Y-15527428D02*
X12814048Y-15546476D01*
X12814048Y-15546476D02*
X12823572Y-15556000D01*
X12823572Y-15556000D02*
X12842619Y-15565524D01*
X12842619Y-15565524D02*
X12880714Y-15565524D01*
X12880714Y-15565524D02*
X12899762Y-15556000D01*
X12899762Y-15556000D02*
X12909286Y-15546476D01*
X12909286Y-15546476D02*
X12918810Y-15527428D01*
X12918810Y-15527428D02*
X12918810Y-15479809D01*
X12918810Y-15479809D02*
X12909286Y-15460762D01*
X12909286Y-15460762D02*
X12899762Y-15451238D01*
X12899762Y-15451238D02*
X12880714Y-15441714D01*
X12880714Y-15441714D02*
X12842619Y-15441714D01*
X12842619Y-15441714D02*
X12823572Y-15451238D01*
X12823572Y-15451238D02*
X12814048Y-15460762D01*
X12814048Y-15460762D02*
X12804524Y-15479809D01*
X12985476Y-15365524D02*
X13109286Y-15365524D01*
X13109286Y-15365524D02*
X13042619Y-15441714D01*
X13042619Y-15441714D02*
X13071191Y-15441714D01*
X13071191Y-15441714D02*
X13090238Y-15451238D01*
X13090238Y-15451238D02*
X13099762Y-15460762D01*
X13099762Y-15460762D02*
X13109286Y-15479809D01*
X13109286Y-15479809D02*
X13109286Y-15527428D01*
X13109286Y-15527428D02*
X13099762Y-15546476D01*
X13099762Y-15546476D02*
X13090238Y-15556000D01*
X13090238Y-15556000D02*
X13071191Y-15565524D01*
X13071191Y-15565524D02*
X13014048Y-15565524D01*
X13014048Y-15565524D02*
X12995000Y-15556000D01*
X12995000Y-15556000D02*
X12985476Y-15546476D01*
X13185476Y-15365524D02*
X13185476Y-15403619D01*
X13261667Y-15365524D02*
X13261667Y-15403619D01*
X13556905Y-15641714D02*
X13547381Y-15632190D01*
X13547381Y-15632190D02*
X13528334Y-15603619D01*
X13528334Y-15603619D02*
X13518810Y-15584571D01*
X13518810Y-15584571D02*
X13509286Y-15556000D01*
X13509286Y-15556000D02*
X13499762Y-15508381D01*
X13499762Y-15508381D02*
X13499762Y-15470286D01*
X13499762Y-15470286D02*
X13509286Y-15422667D01*
X13509286Y-15422667D02*
X13518810Y-15394095D01*
X13518810Y-15394095D02*
X13528334Y-15375048D01*
X13528334Y-15375048D02*
X13547381Y-15346476D01*
X13547381Y-15346476D02*
X13556905Y-15336952D01*
X13661667Y-15451238D02*
X13642619Y-15441714D01*
X13642619Y-15441714D02*
X13633095Y-15432190D01*
X13633095Y-15432190D02*
X13623572Y-15413143D01*
X13623572Y-15413143D02*
X13623572Y-15403619D01*
X13623572Y-15403619D02*
X13633095Y-15384571D01*
X13633095Y-15384571D02*
X13642619Y-15375048D01*
X13642619Y-15375048D02*
X13661667Y-15365524D01*
X13661667Y-15365524D02*
X13699762Y-15365524D01*
X13699762Y-15365524D02*
X13718810Y-15375048D01*
X13718810Y-15375048D02*
X13728334Y-15384571D01*
X13728334Y-15384571D02*
X13737857Y-15403619D01*
X13737857Y-15403619D02*
X13737857Y-15413143D01*
X13737857Y-15413143D02*
X13728334Y-15432190D01*
X13728334Y-15432190D02*
X13718810Y-15441714D01*
X13718810Y-15441714D02*
X13699762Y-15451238D01*
X13699762Y-15451238D02*
X13661667Y-15451238D01*
X13661667Y-15451238D02*
X13642619Y-15460762D01*
X13642619Y-15460762D02*
X13633095Y-15470286D01*
X13633095Y-15470286D02*
X13623572Y-15489333D01*
X13623572Y-15489333D02*
X13623572Y-15527428D01*
X13623572Y-15527428D02*
X13633095Y-15546476D01*
X13633095Y-15546476D02*
X13642619Y-15556000D01*
X13642619Y-15556000D02*
X13661667Y-15565524D01*
X13661667Y-15565524D02*
X13699762Y-15565524D01*
X13699762Y-15565524D02*
X13718810Y-15556000D01*
X13718810Y-15556000D02*
X13728334Y-15546476D01*
X13728334Y-15546476D02*
X13737857Y-15527428D01*
X13737857Y-15527428D02*
X13737857Y-15489333D01*
X13737857Y-15489333D02*
X13728334Y-15470286D01*
X13728334Y-15470286D02*
X13718810Y-15460762D01*
X13718810Y-15460762D02*
X13699762Y-15451238D01*
X13975953Y-15565524D02*
X13975953Y-15365524D01*
X14061667Y-15565524D02*
X14061667Y-15460762D01*
X14061667Y-15460762D02*
X14052143Y-15441714D01*
X14052143Y-15441714D02*
X14033096Y-15432190D01*
X14033096Y-15432190D02*
X14004524Y-15432190D01*
X14004524Y-15432190D02*
X13985476Y-15441714D01*
X13985476Y-15441714D02*
X13975953Y-15451238D01*
X14185476Y-15565524D02*
X14166429Y-15556000D01*
X14166429Y-15556000D02*
X14156905Y-15546476D01*
X14156905Y-15546476D02*
X14147381Y-15527428D01*
X14147381Y-15527428D02*
X14147381Y-15470286D01*
X14147381Y-15470286D02*
X14156905Y-15451238D01*
X14156905Y-15451238D02*
X14166429Y-15441714D01*
X14166429Y-15441714D02*
X14185476Y-15432190D01*
X14185476Y-15432190D02*
X14214048Y-15432190D01*
X14214048Y-15432190D02*
X14233096Y-15441714D01*
X14233096Y-15441714D02*
X14242619Y-15451238D01*
X14242619Y-15451238D02*
X14252143Y-15470286D01*
X14252143Y-15470286D02*
X14252143Y-15527428D01*
X14252143Y-15527428D02*
X14242619Y-15546476D01*
X14242619Y-15546476D02*
X14233096Y-15556000D01*
X14233096Y-15556000D02*
X14214048Y-15565524D01*
X14214048Y-15565524D02*
X14185476Y-15565524D01*
X14366429Y-15565524D02*
X14347381Y-15556000D01*
X14347381Y-15556000D02*
X14337857Y-15536952D01*
X14337857Y-15536952D02*
X14337857Y-15365524D01*
X14518810Y-15556000D02*
X14499762Y-15565524D01*
X14499762Y-15565524D02*
X14461667Y-15565524D01*
X14461667Y-15565524D02*
X14442619Y-15556000D01*
X14442619Y-15556000D02*
X14433096Y-15536952D01*
X14433096Y-15536952D02*
X14433096Y-15460762D01*
X14433096Y-15460762D02*
X14442619Y-15441714D01*
X14442619Y-15441714D02*
X14461667Y-15432190D01*
X14461667Y-15432190D02*
X14499762Y-15432190D01*
X14499762Y-15432190D02*
X14518810Y-15441714D01*
X14518810Y-15441714D02*
X14528334Y-15460762D01*
X14528334Y-15460762D02*
X14528334Y-15479809D01*
X14528334Y-15479809D02*
X14433096Y-15498857D01*
X14604524Y-15556000D02*
X14623572Y-15565524D01*
X14623572Y-15565524D02*
X14661667Y-15565524D01*
X14661667Y-15565524D02*
X14680715Y-15556000D01*
X14680715Y-15556000D02*
X14690238Y-15536952D01*
X14690238Y-15536952D02*
X14690238Y-15527428D01*
X14690238Y-15527428D02*
X14680715Y-15508381D01*
X14680715Y-15508381D02*
X14661667Y-15498857D01*
X14661667Y-15498857D02*
X14633096Y-15498857D01*
X14633096Y-15498857D02*
X14614048Y-15489333D01*
X14614048Y-15489333D02*
X14604524Y-15470286D01*
X14604524Y-15470286D02*
X14604524Y-15460762D01*
X14604524Y-15460762D02*
X14614048Y-15441714D01*
X14614048Y-15441714D02*
X14633096Y-15432190D01*
X14633096Y-15432190D02*
X14661667Y-15432190D01*
X14661667Y-15432190D02*
X14680715Y-15441714D01*
X14756905Y-15641714D02*
X14766429Y-15632190D01*
X14766429Y-15632190D02*
X14785477Y-15603619D01*
X14785477Y-15603619D02*
X14795000Y-15584571D01*
X14795000Y-15584571D02*
X14804524Y-15556000D01*
X14804524Y-15556000D02*
X14814048Y-15508381D01*
X14814048Y-15508381D02*
X14814048Y-15470286D01*
X14814048Y-15470286D02*
X14804524Y-15422667D01*
X14804524Y-15422667D02*
X14795000Y-15394095D01*
X14795000Y-15394095D02*
X14785477Y-15375048D01*
X14785477Y-15375048D02*
X14766429Y-15346476D01*
X14766429Y-15346476D02*
X14756905Y-15336952D01*
X9795000Y-15693000D02*
X9995000Y-15893000D01*
X9995000Y-15693000D02*
X9795000Y-15893000D01*
X9895000Y-15693000D02*
X9895000Y-15893000D01*
X9795000Y-15793000D02*
X9995000Y-15793000D01*
X10223571Y-15685524D02*
X10347381Y-15685524D01*
X10347381Y-15685524D02*
X10280714Y-15761714D01*
X10280714Y-15761714D02*
X10309286Y-15761714D01*
X10309286Y-15761714D02*
X10328333Y-15771238D01*
X10328333Y-15771238D02*
X10337857Y-15780762D01*
X10337857Y-15780762D02*
X10347381Y-15799809D01*
X10347381Y-15799809D02*
X10347381Y-15847428D01*
X10347381Y-15847428D02*
X10337857Y-15866476D01*
X10337857Y-15866476D02*
X10328333Y-15876000D01*
X10328333Y-15876000D02*
X10309286Y-15885524D01*
X10309286Y-15885524D02*
X10252143Y-15885524D01*
X10252143Y-15885524D02*
X10233095Y-15876000D01*
X10233095Y-15876000D02*
X10223571Y-15866476D01*
X10433095Y-15866476D02*
X10442619Y-15876000D01*
X10442619Y-15876000D02*
X10433095Y-15885524D01*
X10433095Y-15885524D02*
X10423571Y-15876000D01*
X10423571Y-15876000D02*
X10433095Y-15866476D01*
X10433095Y-15866476D02*
X10433095Y-15885524D01*
X10518810Y-15704571D02*
X10528333Y-15695048D01*
X10528333Y-15695048D02*
X10547381Y-15685524D01*
X10547381Y-15685524D02*
X10595000Y-15685524D01*
X10595000Y-15685524D02*
X10614048Y-15695048D01*
X10614048Y-15695048D02*
X10623571Y-15704571D01*
X10623571Y-15704571D02*
X10633095Y-15723619D01*
X10633095Y-15723619D02*
X10633095Y-15742667D01*
X10633095Y-15742667D02*
X10623571Y-15771238D01*
X10623571Y-15771238D02*
X10509286Y-15885524D01*
X10509286Y-15885524D02*
X10633095Y-15885524D01*
X10756905Y-15685524D02*
X10775952Y-15685524D01*
X10775952Y-15685524D02*
X10795000Y-15695048D01*
X10795000Y-15695048D02*
X10804524Y-15704571D01*
X10804524Y-15704571D02*
X10814048Y-15723619D01*
X10814048Y-15723619D02*
X10823571Y-15761714D01*
X10823571Y-15761714D02*
X10823571Y-15809333D01*
X10823571Y-15809333D02*
X10814048Y-15847428D01*
X10814048Y-15847428D02*
X10804524Y-15866476D01*
X10804524Y-15866476D02*
X10795000Y-15876000D01*
X10795000Y-15876000D02*
X10775952Y-15885524D01*
X10775952Y-15885524D02*
X10756905Y-15885524D01*
X10756905Y-15885524D02*
X10737857Y-15876000D01*
X10737857Y-15876000D02*
X10728333Y-15866476D01*
X10728333Y-15866476D02*
X10718810Y-15847428D01*
X10718810Y-15847428D02*
X10709286Y-15809333D01*
X10709286Y-15809333D02*
X10709286Y-15761714D01*
X10709286Y-15761714D02*
X10718810Y-15723619D01*
X10718810Y-15723619D02*
X10728333Y-15704571D01*
X10728333Y-15704571D02*
X10737857Y-15695048D01*
X10737857Y-15695048D02*
X10756905Y-15685524D01*
X10947381Y-15685524D02*
X10966429Y-15685524D01*
X10966429Y-15685524D02*
X10985476Y-15695048D01*
X10985476Y-15695048D02*
X10995000Y-15704571D01*
X10995000Y-15704571D02*
X11004524Y-15723619D01*
X11004524Y-15723619D02*
X11014048Y-15761714D01*
X11014048Y-15761714D02*
X11014048Y-15809333D01*
X11014048Y-15809333D02*
X11004524Y-15847428D01*
X11004524Y-15847428D02*
X10995000Y-15866476D01*
X10995000Y-15866476D02*
X10985476Y-15876000D01*
X10985476Y-15876000D02*
X10966429Y-15885524D01*
X10966429Y-15885524D02*
X10947381Y-15885524D01*
X10947381Y-15885524D02*
X10928333Y-15876000D01*
X10928333Y-15876000D02*
X10918810Y-15866476D01*
X10918810Y-15866476D02*
X10909286Y-15847428D01*
X10909286Y-15847428D02*
X10899762Y-15809333D01*
X10899762Y-15809333D02*
X10899762Y-15761714D01*
X10899762Y-15761714D02*
X10909286Y-15723619D01*
X10909286Y-15723619D02*
X10918810Y-15704571D01*
X10918810Y-15704571D02*
X10928333Y-15695048D01*
X10928333Y-15695048D02*
X10947381Y-15685524D01*
X11099762Y-15885524D02*
X11099762Y-15752190D01*
X11099762Y-15771238D02*
X11109286Y-15761714D01*
X11109286Y-15761714D02*
X11128333Y-15752190D01*
X11128333Y-15752190D02*
X11156905Y-15752190D01*
X11156905Y-15752190D02*
X11175952Y-15761714D01*
X11175952Y-15761714D02*
X11185476Y-15780762D01*
X11185476Y-15780762D02*
X11185476Y-15885524D01*
X11185476Y-15780762D02*
X11195000Y-15761714D01*
X11195000Y-15761714D02*
X11214048Y-15752190D01*
X11214048Y-15752190D02*
X11242619Y-15752190D01*
X11242619Y-15752190D02*
X11261667Y-15761714D01*
X11261667Y-15761714D02*
X11271190Y-15780762D01*
X11271190Y-15780762D02*
X11271190Y-15885524D01*
X11366429Y-15885524D02*
X11366429Y-15752190D01*
X11366429Y-15771238D02*
X11375952Y-15761714D01*
X11375952Y-15761714D02*
X11395000Y-15752190D01*
X11395000Y-15752190D02*
X11423571Y-15752190D01*
X11423571Y-15752190D02*
X11442619Y-15761714D01*
X11442619Y-15761714D02*
X11452143Y-15780762D01*
X11452143Y-15780762D02*
X11452143Y-15885524D01*
X11452143Y-15780762D02*
X11461667Y-15761714D01*
X11461667Y-15761714D02*
X11480714Y-15752190D01*
X11480714Y-15752190D02*
X11509286Y-15752190D01*
X11509286Y-15752190D02*
X11528333Y-15761714D01*
X11528333Y-15761714D02*
X11537857Y-15780762D01*
X11537857Y-15780762D02*
X11537857Y-15885524D01*
X11928333Y-15676000D02*
X11756905Y-15933143D01*
X12185476Y-15685524D02*
X12204524Y-15685524D01*
X12204524Y-15685524D02*
X12223572Y-15695048D01*
X12223572Y-15695048D02*
X12233095Y-15704571D01*
X12233095Y-15704571D02*
X12242619Y-15723619D01*
X12242619Y-15723619D02*
X12252143Y-15761714D01*
X12252143Y-15761714D02*
X12252143Y-15809333D01*
X12252143Y-15809333D02*
X12242619Y-15847428D01*
X12242619Y-15847428D02*
X12233095Y-15866476D01*
X12233095Y-15866476D02*
X12223572Y-15876000D01*
X12223572Y-15876000D02*
X12204524Y-15885524D01*
X12204524Y-15885524D02*
X12185476Y-15885524D01*
X12185476Y-15885524D02*
X12166429Y-15876000D01*
X12166429Y-15876000D02*
X12156905Y-15866476D01*
X12156905Y-15866476D02*
X12147381Y-15847428D01*
X12147381Y-15847428D02*
X12137857Y-15809333D01*
X12137857Y-15809333D02*
X12137857Y-15761714D01*
X12137857Y-15761714D02*
X12147381Y-15723619D01*
X12147381Y-15723619D02*
X12156905Y-15704571D01*
X12156905Y-15704571D02*
X12166429Y-15695048D01*
X12166429Y-15695048D02*
X12185476Y-15685524D01*
X12337857Y-15866476D02*
X12347381Y-15876000D01*
X12347381Y-15876000D02*
X12337857Y-15885524D01*
X12337857Y-15885524D02*
X12328333Y-15876000D01*
X12328333Y-15876000D02*
X12337857Y-15866476D01*
X12337857Y-15866476D02*
X12337857Y-15885524D01*
X12537857Y-15885524D02*
X12423572Y-15885524D01*
X12480714Y-15885524D02*
X12480714Y-15685524D01*
X12480714Y-15685524D02*
X12461667Y-15714095D01*
X12461667Y-15714095D02*
X12442619Y-15733143D01*
X12442619Y-15733143D02*
X12423572Y-15742667D01*
X12614048Y-15704571D02*
X12623572Y-15695048D01*
X12623572Y-15695048D02*
X12642619Y-15685524D01*
X12642619Y-15685524D02*
X12690238Y-15685524D01*
X12690238Y-15685524D02*
X12709286Y-15695048D01*
X12709286Y-15695048D02*
X12718810Y-15704571D01*
X12718810Y-15704571D02*
X12728333Y-15723619D01*
X12728333Y-15723619D02*
X12728333Y-15742667D01*
X12728333Y-15742667D02*
X12718810Y-15771238D01*
X12718810Y-15771238D02*
X12604524Y-15885524D01*
X12604524Y-15885524D02*
X12728333Y-15885524D01*
X12899762Y-15685524D02*
X12861667Y-15685524D01*
X12861667Y-15685524D02*
X12842619Y-15695048D01*
X12842619Y-15695048D02*
X12833095Y-15704571D01*
X12833095Y-15704571D02*
X12814048Y-15733143D01*
X12814048Y-15733143D02*
X12804524Y-15771238D01*
X12804524Y-15771238D02*
X12804524Y-15847428D01*
X12804524Y-15847428D02*
X12814048Y-15866476D01*
X12814048Y-15866476D02*
X12823572Y-15876000D01*
X12823572Y-15876000D02*
X12842619Y-15885524D01*
X12842619Y-15885524D02*
X12880714Y-15885524D01*
X12880714Y-15885524D02*
X12899762Y-15876000D01*
X12899762Y-15876000D02*
X12909286Y-15866476D01*
X12909286Y-15866476D02*
X12918810Y-15847428D01*
X12918810Y-15847428D02*
X12918810Y-15799809D01*
X12918810Y-15799809D02*
X12909286Y-15780762D01*
X12909286Y-15780762D02*
X12899762Y-15771238D01*
X12899762Y-15771238D02*
X12880714Y-15761714D01*
X12880714Y-15761714D02*
X12842619Y-15761714D01*
X12842619Y-15761714D02*
X12823572Y-15771238D01*
X12823572Y-15771238D02*
X12814048Y-15780762D01*
X12814048Y-15780762D02*
X12804524Y-15799809D01*
X13042619Y-15685524D02*
X13061667Y-15685524D01*
X13061667Y-15685524D02*
X13080714Y-15695048D01*
X13080714Y-15695048D02*
X13090238Y-15704571D01*
X13090238Y-15704571D02*
X13099762Y-15723619D01*
X13099762Y-15723619D02*
X13109286Y-15761714D01*
X13109286Y-15761714D02*
X13109286Y-15809333D01*
X13109286Y-15809333D02*
X13099762Y-15847428D01*
X13099762Y-15847428D02*
X13090238Y-15866476D01*
X13090238Y-15866476D02*
X13080714Y-15876000D01*
X13080714Y-15876000D02*
X13061667Y-15885524D01*
X13061667Y-15885524D02*
X13042619Y-15885524D01*
X13042619Y-15885524D02*
X13023572Y-15876000D01*
X13023572Y-15876000D02*
X13014048Y-15866476D01*
X13014048Y-15866476D02*
X13004524Y-15847428D01*
X13004524Y-15847428D02*
X12995000Y-15809333D01*
X12995000Y-15809333D02*
X12995000Y-15761714D01*
X12995000Y-15761714D02*
X13004524Y-15723619D01*
X13004524Y-15723619D02*
X13014048Y-15704571D01*
X13014048Y-15704571D02*
X13023572Y-15695048D01*
X13023572Y-15695048D02*
X13042619Y-15685524D01*
X13185476Y-15685524D02*
X13185476Y-15723619D01*
X13261667Y-15685524D02*
X13261667Y-15723619D01*
X13556905Y-15961714D02*
X13547381Y-15952190D01*
X13547381Y-15952190D02*
X13528334Y-15923619D01*
X13528334Y-15923619D02*
X13518810Y-15904571D01*
X13518810Y-15904571D02*
X13509286Y-15876000D01*
X13509286Y-15876000D02*
X13499762Y-15828381D01*
X13499762Y-15828381D02*
X13499762Y-15790286D01*
X13499762Y-15790286D02*
X13509286Y-15742667D01*
X13509286Y-15742667D02*
X13518810Y-15714095D01*
X13518810Y-15714095D02*
X13528334Y-15695048D01*
X13528334Y-15695048D02*
X13547381Y-15666476D01*
X13547381Y-15666476D02*
X13556905Y-15656952D01*
X13718810Y-15685524D02*
X13680714Y-15685524D01*
X13680714Y-15685524D02*
X13661667Y-15695048D01*
X13661667Y-15695048D02*
X13652143Y-15704571D01*
X13652143Y-15704571D02*
X13633095Y-15733143D01*
X13633095Y-15733143D02*
X13623572Y-15771238D01*
X13623572Y-15771238D02*
X13623572Y-15847428D01*
X13623572Y-15847428D02*
X13633095Y-15866476D01*
X13633095Y-15866476D02*
X13642619Y-15876000D01*
X13642619Y-15876000D02*
X13661667Y-15885524D01*
X13661667Y-15885524D02*
X13699762Y-15885524D01*
X13699762Y-15885524D02*
X13718810Y-15876000D01*
X13718810Y-15876000D02*
X13728334Y-15866476D01*
X13728334Y-15866476D02*
X13737857Y-15847428D01*
X13737857Y-15847428D02*
X13737857Y-15799809D01*
X13737857Y-15799809D02*
X13728334Y-15780762D01*
X13728334Y-15780762D02*
X13718810Y-15771238D01*
X13718810Y-15771238D02*
X13699762Y-15761714D01*
X13699762Y-15761714D02*
X13661667Y-15761714D01*
X13661667Y-15761714D02*
X13642619Y-15771238D01*
X13642619Y-15771238D02*
X13633095Y-15780762D01*
X13633095Y-15780762D02*
X13623572Y-15799809D01*
X13975953Y-15885524D02*
X13975953Y-15685524D01*
X14061667Y-15885524D02*
X14061667Y-15780762D01*
X14061667Y-15780762D02*
X14052143Y-15761714D01*
X14052143Y-15761714D02*
X14033096Y-15752190D01*
X14033096Y-15752190D02*
X14004524Y-15752190D01*
X14004524Y-15752190D02*
X13985476Y-15761714D01*
X13985476Y-15761714D02*
X13975953Y-15771238D01*
X14185476Y-15885524D02*
X14166429Y-15876000D01*
X14166429Y-15876000D02*
X14156905Y-15866476D01*
X14156905Y-15866476D02*
X14147381Y-15847428D01*
X14147381Y-15847428D02*
X14147381Y-15790286D01*
X14147381Y-15790286D02*
X14156905Y-15771238D01*
X14156905Y-15771238D02*
X14166429Y-15761714D01*
X14166429Y-15761714D02*
X14185476Y-15752190D01*
X14185476Y-15752190D02*
X14214048Y-15752190D01*
X14214048Y-15752190D02*
X14233096Y-15761714D01*
X14233096Y-15761714D02*
X14242619Y-15771238D01*
X14242619Y-15771238D02*
X14252143Y-15790286D01*
X14252143Y-15790286D02*
X14252143Y-15847428D01*
X14252143Y-15847428D02*
X14242619Y-15866476D01*
X14242619Y-15866476D02*
X14233096Y-15876000D01*
X14233096Y-15876000D02*
X14214048Y-15885524D01*
X14214048Y-15885524D02*
X14185476Y-15885524D01*
X14366429Y-15885524D02*
X14347381Y-15876000D01*
X14347381Y-15876000D02*
X14337857Y-15856952D01*
X14337857Y-15856952D02*
X14337857Y-15685524D01*
X14518810Y-15876000D02*
X14499762Y-15885524D01*
X14499762Y-15885524D02*
X14461667Y-15885524D01*
X14461667Y-15885524D02*
X14442619Y-15876000D01*
X14442619Y-15876000D02*
X14433096Y-15856952D01*
X14433096Y-15856952D02*
X14433096Y-15780762D01*
X14433096Y-15780762D02*
X14442619Y-15761714D01*
X14442619Y-15761714D02*
X14461667Y-15752190D01*
X14461667Y-15752190D02*
X14499762Y-15752190D01*
X14499762Y-15752190D02*
X14518810Y-15761714D01*
X14518810Y-15761714D02*
X14528334Y-15780762D01*
X14528334Y-15780762D02*
X14528334Y-15799809D01*
X14528334Y-15799809D02*
X14433096Y-15818857D01*
X14604524Y-15876000D02*
X14623572Y-15885524D01*
X14623572Y-15885524D02*
X14661667Y-15885524D01*
X14661667Y-15885524D02*
X14680715Y-15876000D01*
X14680715Y-15876000D02*
X14690238Y-15856952D01*
X14690238Y-15856952D02*
X14690238Y-15847428D01*
X14690238Y-15847428D02*
X14680715Y-15828381D01*
X14680715Y-15828381D02*
X14661667Y-15818857D01*
X14661667Y-15818857D02*
X14633096Y-15818857D01*
X14633096Y-15818857D02*
X14614048Y-15809333D01*
X14614048Y-15809333D02*
X14604524Y-15790286D01*
X14604524Y-15790286D02*
X14604524Y-15780762D01*
X14604524Y-15780762D02*
X14614048Y-15761714D01*
X14614048Y-15761714D02*
X14633096Y-15752190D01*
X14633096Y-15752190D02*
X14661667Y-15752190D01*
X14661667Y-15752190D02*
X14680715Y-15761714D01*
X14756905Y-15961714D02*
X14766429Y-15952190D01*
X14766429Y-15952190D02*
X14785477Y-15923619D01*
X14785477Y-15923619D02*
X14795000Y-15904571D01*
X14795000Y-15904571D02*
X14804524Y-15876000D01*
X14804524Y-15876000D02*
X14814048Y-15828381D01*
X14814048Y-15828381D02*
X14814048Y-15790286D01*
X14814048Y-15790286D02*
X14804524Y-15742667D01*
X14804524Y-15742667D02*
X14795000Y-15714095D01*
X14795000Y-15714095D02*
X14785477Y-15695048D01*
X14785477Y-15695048D02*
X14766429Y-15666476D01*
X14766429Y-15666476D02*
X14756905Y-15656952D01*
X9795000Y-16013000D02*
X9995000Y-16213000D01*
X9995000Y-16013000D02*
X9795000Y-16213000D01*
X9965711Y-16183711D02*
X9965711Y-16042289D01*
X9824289Y-16042289D01*
X9824289Y-16183711D01*
X9965711Y-16183711D01*
X10328333Y-16072190D02*
X10328333Y-16205524D01*
X10280714Y-15996000D02*
X10233095Y-16138857D01*
X10233095Y-16138857D02*
X10356905Y-16138857D01*
X10433095Y-16186476D02*
X10442619Y-16196000D01*
X10442619Y-16196000D02*
X10433095Y-16205524D01*
X10433095Y-16205524D02*
X10423571Y-16196000D01*
X10423571Y-16196000D02*
X10433095Y-16186476D01*
X10433095Y-16186476D02*
X10433095Y-16205524D01*
X10623571Y-16005524D02*
X10528333Y-16005524D01*
X10528333Y-16005524D02*
X10518810Y-16100762D01*
X10518810Y-16100762D02*
X10528333Y-16091238D01*
X10528333Y-16091238D02*
X10547381Y-16081714D01*
X10547381Y-16081714D02*
X10595000Y-16081714D01*
X10595000Y-16081714D02*
X10614048Y-16091238D01*
X10614048Y-16091238D02*
X10623571Y-16100762D01*
X10623571Y-16100762D02*
X10633095Y-16119809D01*
X10633095Y-16119809D02*
X10633095Y-16167428D01*
X10633095Y-16167428D02*
X10623571Y-16186476D01*
X10623571Y-16186476D02*
X10614048Y-16196000D01*
X10614048Y-16196000D02*
X10595000Y-16205524D01*
X10595000Y-16205524D02*
X10547381Y-16205524D01*
X10547381Y-16205524D02*
X10528333Y-16196000D01*
X10528333Y-16196000D02*
X10518810Y-16186476D01*
X10756905Y-16005524D02*
X10775952Y-16005524D01*
X10775952Y-16005524D02*
X10795000Y-16015048D01*
X10795000Y-16015048D02*
X10804524Y-16024571D01*
X10804524Y-16024571D02*
X10814048Y-16043619D01*
X10814048Y-16043619D02*
X10823571Y-16081714D01*
X10823571Y-16081714D02*
X10823571Y-16129333D01*
X10823571Y-16129333D02*
X10814048Y-16167428D01*
X10814048Y-16167428D02*
X10804524Y-16186476D01*
X10804524Y-16186476D02*
X10795000Y-16196000D01*
X10795000Y-16196000D02*
X10775952Y-16205524D01*
X10775952Y-16205524D02*
X10756905Y-16205524D01*
X10756905Y-16205524D02*
X10737857Y-16196000D01*
X10737857Y-16196000D02*
X10728333Y-16186476D01*
X10728333Y-16186476D02*
X10718810Y-16167428D01*
X10718810Y-16167428D02*
X10709286Y-16129333D01*
X10709286Y-16129333D02*
X10709286Y-16081714D01*
X10709286Y-16081714D02*
X10718810Y-16043619D01*
X10718810Y-16043619D02*
X10728333Y-16024571D01*
X10728333Y-16024571D02*
X10737857Y-16015048D01*
X10737857Y-16015048D02*
X10756905Y-16005524D01*
X10947381Y-16005524D02*
X10966429Y-16005524D01*
X10966429Y-16005524D02*
X10985476Y-16015048D01*
X10985476Y-16015048D02*
X10995000Y-16024571D01*
X10995000Y-16024571D02*
X11004524Y-16043619D01*
X11004524Y-16043619D02*
X11014048Y-16081714D01*
X11014048Y-16081714D02*
X11014048Y-16129333D01*
X11014048Y-16129333D02*
X11004524Y-16167428D01*
X11004524Y-16167428D02*
X10995000Y-16186476D01*
X10995000Y-16186476D02*
X10985476Y-16196000D01*
X10985476Y-16196000D02*
X10966429Y-16205524D01*
X10966429Y-16205524D02*
X10947381Y-16205524D01*
X10947381Y-16205524D02*
X10928333Y-16196000D01*
X10928333Y-16196000D02*
X10918810Y-16186476D01*
X10918810Y-16186476D02*
X10909286Y-16167428D01*
X10909286Y-16167428D02*
X10899762Y-16129333D01*
X10899762Y-16129333D02*
X10899762Y-16081714D01*
X10899762Y-16081714D02*
X10909286Y-16043619D01*
X10909286Y-16043619D02*
X10918810Y-16024571D01*
X10918810Y-16024571D02*
X10928333Y-16015048D01*
X10928333Y-16015048D02*
X10947381Y-16005524D01*
X11099762Y-16205524D02*
X11099762Y-16072190D01*
X11099762Y-16091238D02*
X11109286Y-16081714D01*
X11109286Y-16081714D02*
X11128333Y-16072190D01*
X11128333Y-16072190D02*
X11156905Y-16072190D01*
X11156905Y-16072190D02*
X11175952Y-16081714D01*
X11175952Y-16081714D02*
X11185476Y-16100762D01*
X11185476Y-16100762D02*
X11185476Y-16205524D01*
X11185476Y-16100762D02*
X11195000Y-16081714D01*
X11195000Y-16081714D02*
X11214048Y-16072190D01*
X11214048Y-16072190D02*
X11242619Y-16072190D01*
X11242619Y-16072190D02*
X11261667Y-16081714D01*
X11261667Y-16081714D02*
X11271190Y-16100762D01*
X11271190Y-16100762D02*
X11271190Y-16205524D01*
X11366429Y-16205524D02*
X11366429Y-16072190D01*
X11366429Y-16091238D02*
X11375952Y-16081714D01*
X11375952Y-16081714D02*
X11395000Y-16072190D01*
X11395000Y-16072190D02*
X11423571Y-16072190D01*
X11423571Y-16072190D02*
X11442619Y-16081714D01*
X11442619Y-16081714D02*
X11452143Y-16100762D01*
X11452143Y-16100762D02*
X11452143Y-16205524D01*
X11452143Y-16100762D02*
X11461667Y-16081714D01*
X11461667Y-16081714D02*
X11480714Y-16072190D01*
X11480714Y-16072190D02*
X11509286Y-16072190D01*
X11509286Y-16072190D02*
X11528333Y-16081714D01*
X11528333Y-16081714D02*
X11537857Y-16100762D01*
X11537857Y-16100762D02*
X11537857Y-16205524D01*
X11928333Y-15996000D02*
X11756905Y-16253143D01*
X12185476Y-16005524D02*
X12204524Y-16005524D01*
X12204524Y-16005524D02*
X12223572Y-16015048D01*
X12223572Y-16015048D02*
X12233095Y-16024571D01*
X12233095Y-16024571D02*
X12242619Y-16043619D01*
X12242619Y-16043619D02*
X12252143Y-16081714D01*
X12252143Y-16081714D02*
X12252143Y-16129333D01*
X12252143Y-16129333D02*
X12242619Y-16167428D01*
X12242619Y-16167428D02*
X12233095Y-16186476D01*
X12233095Y-16186476D02*
X12223572Y-16196000D01*
X12223572Y-16196000D02*
X12204524Y-16205524D01*
X12204524Y-16205524D02*
X12185476Y-16205524D01*
X12185476Y-16205524D02*
X12166429Y-16196000D01*
X12166429Y-16196000D02*
X12156905Y-16186476D01*
X12156905Y-16186476D02*
X12147381Y-16167428D01*
X12147381Y-16167428D02*
X12137857Y-16129333D01*
X12137857Y-16129333D02*
X12137857Y-16081714D01*
X12137857Y-16081714D02*
X12147381Y-16043619D01*
X12147381Y-16043619D02*
X12156905Y-16024571D01*
X12156905Y-16024571D02*
X12166429Y-16015048D01*
X12166429Y-16015048D02*
X12185476Y-16005524D01*
X12337857Y-16186476D02*
X12347381Y-16196000D01*
X12347381Y-16196000D02*
X12337857Y-16205524D01*
X12337857Y-16205524D02*
X12328333Y-16196000D01*
X12328333Y-16196000D02*
X12337857Y-16186476D01*
X12337857Y-16186476D02*
X12337857Y-16205524D01*
X12537857Y-16205524D02*
X12423572Y-16205524D01*
X12480714Y-16205524D02*
X12480714Y-16005524D01*
X12480714Y-16005524D02*
X12461667Y-16034095D01*
X12461667Y-16034095D02*
X12442619Y-16053143D01*
X12442619Y-16053143D02*
X12423572Y-16062667D01*
X12604524Y-16005524D02*
X12737857Y-16005524D01*
X12737857Y-16005524D02*
X12652143Y-16205524D01*
X12795000Y-16005524D02*
X12928333Y-16005524D01*
X12928333Y-16005524D02*
X12842619Y-16205524D01*
X12995000Y-16024571D02*
X13004524Y-16015048D01*
X13004524Y-16015048D02*
X13023572Y-16005524D01*
X13023572Y-16005524D02*
X13071191Y-16005524D01*
X13071191Y-16005524D02*
X13090238Y-16015048D01*
X13090238Y-16015048D02*
X13099762Y-16024571D01*
X13099762Y-16024571D02*
X13109286Y-16043619D01*
X13109286Y-16043619D02*
X13109286Y-16062667D01*
X13109286Y-16062667D02*
X13099762Y-16091238D01*
X13099762Y-16091238D02*
X12985476Y-16205524D01*
X12985476Y-16205524D02*
X13109286Y-16205524D01*
X13185476Y-16005524D02*
X13185476Y-16043619D01*
X13261667Y-16005524D02*
X13261667Y-16043619D01*
X13556905Y-16281714D02*
X13547381Y-16272190D01*
X13547381Y-16272190D02*
X13528334Y-16243619D01*
X13528334Y-16243619D02*
X13518810Y-16224571D01*
X13518810Y-16224571D02*
X13509286Y-16196000D01*
X13509286Y-16196000D02*
X13499762Y-16148381D01*
X13499762Y-16148381D02*
X13499762Y-16110286D01*
X13499762Y-16110286D02*
X13509286Y-16062667D01*
X13509286Y-16062667D02*
X13518810Y-16034095D01*
X13518810Y-16034095D02*
X13528334Y-16015048D01*
X13528334Y-16015048D02*
X13547381Y-15986476D01*
X13547381Y-15986476D02*
X13556905Y-15976952D01*
X13623572Y-16024571D02*
X13633095Y-16015048D01*
X13633095Y-16015048D02*
X13652143Y-16005524D01*
X13652143Y-16005524D02*
X13699762Y-16005524D01*
X13699762Y-16005524D02*
X13718810Y-16015048D01*
X13718810Y-16015048D02*
X13728334Y-16024571D01*
X13728334Y-16024571D02*
X13737857Y-16043619D01*
X13737857Y-16043619D02*
X13737857Y-16062667D01*
X13737857Y-16062667D02*
X13728334Y-16091238D01*
X13728334Y-16091238D02*
X13614048Y-16205524D01*
X13614048Y-16205524D02*
X13737857Y-16205524D01*
X13975953Y-16205524D02*
X13975953Y-16005524D01*
X14061667Y-16205524D02*
X14061667Y-16100762D01*
X14061667Y-16100762D02*
X14052143Y-16081714D01*
X14052143Y-16081714D02*
X14033096Y-16072190D01*
X14033096Y-16072190D02*
X14004524Y-16072190D01*
X14004524Y-16072190D02*
X13985476Y-16081714D01*
X13985476Y-16081714D02*
X13975953Y-16091238D01*
X14185476Y-16205524D02*
X14166429Y-16196000D01*
X14166429Y-16196000D02*
X14156905Y-16186476D01*
X14156905Y-16186476D02*
X14147381Y-16167428D01*
X14147381Y-16167428D02*
X14147381Y-16110286D01*
X14147381Y-16110286D02*
X14156905Y-16091238D01*
X14156905Y-16091238D02*
X14166429Y-16081714D01*
X14166429Y-16081714D02*
X14185476Y-16072190D01*
X14185476Y-16072190D02*
X14214048Y-16072190D01*
X14214048Y-16072190D02*
X14233096Y-16081714D01*
X14233096Y-16081714D02*
X14242619Y-16091238D01*
X14242619Y-16091238D02*
X14252143Y-16110286D01*
X14252143Y-16110286D02*
X14252143Y-16167428D01*
X14252143Y-16167428D02*
X14242619Y-16186476D01*
X14242619Y-16186476D02*
X14233096Y-16196000D01*
X14233096Y-16196000D02*
X14214048Y-16205524D01*
X14214048Y-16205524D02*
X14185476Y-16205524D01*
X14366429Y-16205524D02*
X14347381Y-16196000D01*
X14347381Y-16196000D02*
X14337857Y-16176952D01*
X14337857Y-16176952D02*
X14337857Y-16005524D01*
X14518810Y-16196000D02*
X14499762Y-16205524D01*
X14499762Y-16205524D02*
X14461667Y-16205524D01*
X14461667Y-16205524D02*
X14442619Y-16196000D01*
X14442619Y-16196000D02*
X14433096Y-16176952D01*
X14433096Y-16176952D02*
X14433096Y-16100762D01*
X14433096Y-16100762D02*
X14442619Y-16081714D01*
X14442619Y-16081714D02*
X14461667Y-16072190D01*
X14461667Y-16072190D02*
X14499762Y-16072190D01*
X14499762Y-16072190D02*
X14518810Y-16081714D01*
X14518810Y-16081714D02*
X14528334Y-16100762D01*
X14528334Y-16100762D02*
X14528334Y-16119809D01*
X14528334Y-16119809D02*
X14433096Y-16138857D01*
X14604524Y-16196000D02*
X14623572Y-16205524D01*
X14623572Y-16205524D02*
X14661667Y-16205524D01*
X14661667Y-16205524D02*
X14680715Y-16196000D01*
X14680715Y-16196000D02*
X14690238Y-16176952D01*
X14690238Y-16176952D02*
X14690238Y-16167428D01*
X14690238Y-16167428D02*
X14680715Y-16148381D01*
X14680715Y-16148381D02*
X14661667Y-16138857D01*
X14661667Y-16138857D02*
X14633096Y-16138857D01*
X14633096Y-16138857D02*
X14614048Y-16129333D01*
X14614048Y-16129333D02*
X14604524Y-16110286D01*
X14604524Y-16110286D02*
X14604524Y-16100762D01*
X14604524Y-16100762D02*
X14614048Y-16081714D01*
X14614048Y-16081714D02*
X14633096Y-16072190D01*
X14633096Y-16072190D02*
X14661667Y-16072190D01*
X14661667Y-16072190D02*
X14680715Y-16081714D01*
X14756905Y-16281714D02*
X14766429Y-16272190D01*
X14766429Y-16272190D02*
X14785477Y-16243619D01*
X14785477Y-16243619D02*
X14795000Y-16224571D01*
X14795000Y-16224571D02*
X14804524Y-16196000D01*
X14804524Y-16196000D02*
X14814048Y-16148381D01*
X14814048Y-16148381D02*
X14814048Y-16110286D01*
X14814048Y-16110286D02*
X14804524Y-16062667D01*
X14804524Y-16062667D02*
X14795000Y-16034095D01*
X14795000Y-16034095D02*
X14785477Y-16015048D01*
X14785477Y-16015048D02*
X14766429Y-15986476D01*
X14766429Y-15986476D02*
X14756905Y-15976952D01*
M02*
