%TF.GenerationSoftware,KiCad,Pcbnew,7.0.1*%
%TF.CreationDate,2023-07-17T00:52:35+01:00*%
%TF.ProjectId,Motor Driver Board,4d6f746f-7220-4447-9269-76657220426f,rev?*%
%TF.SameCoordinates,Original*%
%TF.FileFunction,Soldermask,Bot*%
%TF.FilePolarity,Negative*%
%FSLAX46Y46*%
G04 Gerber Fmt 4.6, Leading zero omitted, Abs format (unit mm)*
G04 Created by KiCad (PCBNEW 7.0.1) date 2023-07-17 00:52:35*
%MOMM*%
%LPD*%
G01*
G04 APERTURE LIST*
G04 Aperture macros list*
%AMRoundRect*
0 Rectangle with rounded corners*
0 $1 Rounding radius*
0 $2 $3 $4 $5 $6 $7 $8 $9 X,Y pos of 4 corners*
0 Add a 4 corners polygon primitive as box body*
4,1,4,$2,$3,$4,$5,$6,$7,$8,$9,$2,$3,0*
0 Add four circle primitives for the rounded corners*
1,1,$1+$1,$2,$3*
1,1,$1+$1,$4,$5*
1,1,$1+$1,$6,$7*
1,1,$1+$1,$8,$9*
0 Add four rect primitives between the rounded corners*
20,1,$1+$1,$2,$3,$4,$5,0*
20,1,$1+$1,$4,$5,$6,$7,0*
20,1,$1+$1,$6,$7,$8,$9,0*
20,1,$1+$1,$8,$9,$2,$3,0*%
G04 Aperture macros list end*
%ADD10RoundRect,0.250000X-0.600000X-0.750000X0.600000X-0.750000X0.600000X0.750000X-0.600000X0.750000X0*%
%ADD11O,1.700000X2.000000*%
%ADD12RoundRect,0.250000X-0.600000X-0.725000X0.600000X-0.725000X0.600000X0.725000X-0.600000X0.725000X0*%
%ADD13O,1.700000X1.950000*%
%ADD14C,5.600000*%
%ADD15R,3.000000X3.000000*%
%ADD16C,3.000000*%
%ADD17RoundRect,1.025000X1.025000X1.025000X-1.025000X1.025000X-1.025000X-1.025000X1.025000X-1.025000X0*%
%ADD18C,4.100000*%
%ADD19R,0.900000X2.000000*%
%ADD20C,0.600000*%
%ADD21O,0.900000X2.000000*%
%ADD22O,0.900000X1.700000*%
%ADD23RoundRect,1.025000X1.025000X-1.025000X1.025000X1.025000X-1.025000X1.025000X-1.025000X-1.025000X0*%
%ADD24R,2.000000X0.900000*%
%ADD25RoundRect,1.500000X1.500000X-1.500000X1.500000X1.500000X-1.500000X1.500000X-1.500000X-1.500000X0*%
%ADD26C,6.000000*%
%ADD27C,2.374900*%
%ADD28C,0.990600*%
G04 APERTURE END LIST*
G36*
X157500000Y-110500000D02*
G01*
X161500000Y-110500000D01*
X161500000Y-114500000D01*
X157500000Y-114500000D01*
X157500000Y-110500000D01*
G37*
G36*
X189500000Y-110600000D02*
G01*
X193500000Y-110600000D01*
X193500000Y-114600000D01*
X189500000Y-114600000D01*
X189500000Y-110600000D01*
G37*
G36*
X140500000Y-118300000D02*
G01*
X144500000Y-118300000D01*
X144500000Y-122300000D01*
X140500000Y-122300000D01*
X140500000Y-118300000D01*
G37*
G36*
X125500000Y-118300000D02*
G01*
X129500000Y-118300000D01*
X129500000Y-122300000D01*
X125500000Y-122300000D01*
X125500000Y-118300000D01*
G37*
G36*
X157500000Y-118300000D02*
G01*
X161500000Y-118300000D01*
X161500000Y-122300000D01*
X157500000Y-122300000D01*
X157500000Y-118300000D01*
G37*
G36*
X172500000Y-118600000D02*
G01*
X176500000Y-118600000D01*
X176500000Y-122600000D01*
X172500000Y-122600000D01*
X172500000Y-118600000D01*
G37*
G36*
X140500000Y-110500000D02*
G01*
X144500000Y-110500000D01*
X144500000Y-114500000D01*
X140500000Y-114500000D01*
X140500000Y-110500000D01*
G37*
G36*
X108500000Y-110500000D02*
G01*
X112500000Y-110500000D01*
X112500000Y-114500000D01*
X108500000Y-114500000D01*
X108500000Y-110500000D01*
G37*
G36*
X189500000Y-118600000D02*
G01*
X193500000Y-118600000D01*
X193500000Y-122600000D01*
X189500000Y-122600000D01*
X189500000Y-118600000D01*
G37*
G36*
X172500000Y-110500000D02*
G01*
X176500000Y-110500000D01*
X176500000Y-114500000D01*
X172500000Y-114500000D01*
X172500000Y-110500000D01*
G37*
G36*
X125500000Y-110500000D02*
G01*
X129500000Y-110500000D01*
X129500000Y-114500000D01*
X125500000Y-114500000D01*
X125500000Y-110500000D01*
G37*
G36*
X108500000Y-118300000D02*
G01*
X112500000Y-118300000D01*
X112500000Y-122300000D01*
X108500000Y-122300000D01*
X108500000Y-118300000D01*
G37*
D10*
%TO.C,J201*%
X182500000Y-92975000D03*
D11*
X185000000Y-92975000D03*
%TD*%
D12*
%TO.C,J406*%
X142500000Y-93500000D03*
D13*
X145000000Y-93500000D03*
X147500000Y-93500000D03*
X150000000Y-93500000D03*
X152500000Y-93500000D03*
%TD*%
D14*
%TO.C,H106*%
X167000000Y-132000000D03*
%TD*%
D15*
%TO.C,J302*%
X195000000Y-93080000D03*
D16*
X195000000Y-88000000D03*
X195000000Y-82920000D03*
%TD*%
D17*
%TO.C,J404*%
X147400000Y-127350000D03*
D18*
X154600000Y-127350000D03*
D19*
X144250000Y-133350000D03*
X157750000Y-133350000D03*
%TD*%
D20*
%TO.C,J303*%
X163540000Y-65780000D03*
X157760000Y-65780000D03*
D21*
X164975000Y-66270000D03*
X156325000Y-66270000D03*
D22*
X164975000Y-62100000D03*
X156325000Y-62100000D03*
%TD*%
D10*
%TO.C,J204*%
X182475000Y-77775000D03*
D11*
X184975000Y-77775000D03*
%TD*%
D12*
%TO.C,J409*%
X123000000Y-93500000D03*
D13*
X125500000Y-93500000D03*
X128000000Y-93500000D03*
X130500000Y-93500000D03*
X133000000Y-93500000D03*
%TD*%
D10*
%TO.C,J203*%
X182500000Y-85400000D03*
D11*
X185000000Y-85400000D03*
%TD*%
D12*
%TO.C,J407*%
X162000000Y-93500000D03*
D13*
X164500000Y-93500000D03*
X167000000Y-93500000D03*
X169500000Y-93500000D03*
X172000000Y-93500000D03*
%TD*%
D23*
%TO.C,J403*%
X113000000Y-91700000D03*
D18*
X113000000Y-84500000D03*
D24*
X107000000Y-94850000D03*
X107000000Y-81350000D03*
%TD*%
D25*
%TO.C,J405*%
X107000000Y-91700000D03*
D26*
X107000000Y-84500000D03*
%TD*%
D17*
%TO.C,J402*%
X115400000Y-127350000D03*
D18*
X122600000Y-127350000D03*
D19*
X112250000Y-133350000D03*
X125750000Y-133350000D03*
%TD*%
D14*
%TO.C,H105*%
X135000000Y-132000000D03*
%TD*%
%TO.C,H101*%
X103000000Y-63000000D03*
%TD*%
%TO.C,H103*%
X199000000Y-63000000D03*
%TD*%
%TO.C,H102*%
X103000000Y-132000000D03*
%TD*%
%TO.C,H104*%
X199000000Y-132000000D03*
%TD*%
D27*
%TO.C,J301*%
X126840000Y-63460000D03*
D28*
X124300000Y-63460000D03*
D27*
X121760000Y-63460000D03*
X126840000Y-66635000D03*
X121760000Y-66635000D03*
D28*
X125316000Y-68540000D03*
X123284000Y-68540000D03*
%TD*%
D15*
%TO.C,J202*%
X195000000Y-75640000D03*
D16*
X195000000Y-70560000D03*
%TD*%
D17*
%TO.C,J401*%
X179400000Y-127350000D03*
D18*
X186600000Y-127350000D03*
D19*
X176250000Y-133350000D03*
X189750000Y-133350000D03*
%TD*%
M02*
