%TF.GenerationSoftware,KiCad,Pcbnew,7.0.1*%
%TF.CreationDate,2023-07-17T00:48:34+01:00*%
%TF.ProjectId,Sensor Hub Board,53656e73-6f72-4204-9875-6220426f6172,rev?*%
%TF.SameCoordinates,Original*%
%TF.FileFunction,Paste,Top*%
%TF.FilePolarity,Positive*%
%FSLAX46Y46*%
G04 Gerber Fmt 4.6, Leading zero omitted, Abs format (unit mm)*
G04 Created by KiCad (PCBNEW 7.0.1) date 2023-07-17 00:48:34*
%MOMM*%
%LPD*%
G01*
G04 APERTURE LIST*
G04 Aperture macros list*
%AMRoundRect*
0 Rectangle with rounded corners*
0 $1 Rounding radius*
0 $2 $3 $4 $5 $6 $7 $8 $9 X,Y pos of 4 corners*
0 Add a 4 corners polygon primitive as box body*
4,1,4,$2,$3,$4,$5,$6,$7,$8,$9,$2,$3,0*
0 Add four circle primitives for the rounded corners*
1,1,$1+$1,$2,$3*
1,1,$1+$1,$4,$5*
1,1,$1+$1,$6,$7*
1,1,$1+$1,$8,$9*
0 Add four rect primitives between the rounded corners*
20,1,$1+$1,$2,$3,$4,$5,0*
20,1,$1+$1,$4,$5,$6,$7,0*
20,1,$1+$1,$6,$7,$8,$9,0*
20,1,$1+$1,$8,$9,$2,$3,0*%
G04 Aperture macros list end*
%ADD10RoundRect,0.218750X-0.218750X-0.256250X0.218750X-0.256250X0.218750X0.256250X-0.218750X0.256250X0*%
%ADD11R,1.475000X0.450000*%
%ADD12R,0.482600X0.254000*%
%ADD13R,0.254000X0.482600*%
%ADD14RoundRect,0.135000X0.185000X-0.135000X0.185000X0.135000X-0.185000X0.135000X-0.185000X-0.135000X0*%
%ADD15RoundRect,0.150000X0.150000X-0.512500X0.150000X0.512500X-0.150000X0.512500X-0.150000X-0.512500X0*%
%ADD16RoundRect,0.225000X-0.250000X0.225000X-0.250000X-0.225000X0.250000X-0.225000X0.250000X0.225000X0*%
%ADD17R,1.950000X1.650000*%
%ADD18RoundRect,0.140000X-0.170000X0.140000X-0.170000X-0.140000X0.170000X-0.140000X0.170000X0.140000X0*%
%ADD19RoundRect,0.135000X0.135000X0.185000X-0.135000X0.185000X-0.135000X-0.185000X0.135000X-0.185000X0*%
%ADD20RoundRect,0.140000X0.140000X0.170000X-0.140000X0.170000X-0.140000X-0.170000X0.140000X-0.170000X0*%
%ADD21R,0.600000X1.550000*%
%ADD22R,1.200000X1.800000*%
%ADD23RoundRect,0.135000X-0.135000X-0.185000X0.135000X-0.185000X0.135000X0.185000X-0.135000X0.185000X0*%
%ADD24RoundRect,0.140000X0.170000X-0.140000X0.170000X0.140000X-0.170000X0.140000X-0.170000X-0.140000X0*%
%ADD25RoundRect,0.140000X-0.140000X-0.170000X0.140000X-0.170000X0.140000X0.170000X-0.140000X0.170000X0*%
%ADD26RoundRect,0.225000X0.225000X0.250000X-0.225000X0.250000X-0.225000X-0.250000X0.225000X-0.250000X0*%
%ADD27RoundRect,0.135000X-0.185000X0.135000X-0.185000X-0.135000X0.185000X-0.135000X0.185000X0.135000X0*%
%ADD28R,0.300000X0.475000*%
%ADD29R,1.500000X2.500000*%
%ADD30R,0.650000X1.500000*%
%ADD31RoundRect,0.225000X-0.225000X-0.250000X0.225000X-0.250000X0.225000X0.250000X-0.225000X0.250000X0*%
%ADD32RoundRect,0.218750X0.218750X0.256250X-0.218750X0.256250X-0.218750X-0.256250X0.218750X-0.256250X0*%
%ADD33RoundRect,0.112500X0.112500X-0.187500X0.112500X0.187500X-0.112500X0.187500X-0.112500X-0.187500X0*%
%ADD34R,0.600000X1.140000*%
%ADD35R,0.300000X1.140000*%
%ADD36R,0.650000X1.050000*%
%ADD37R,0.300000X1.475000*%
%ADD38R,1.475000X0.300000*%
%ADD39R,0.350000X0.400000*%
%ADD40R,0.500000X0.400000*%
%ADD41R,0.920000X0.285000*%
%ADD42R,1.600000X1.050000*%
%ADD43R,3.100000X1.600000*%
%ADD44R,0.375000X0.350000*%
%ADD45R,0.350000X0.375000*%
%ADD46RoundRect,0.250000X0.600000X-0.400000X0.600000X0.400000X-0.600000X0.400000X-0.600000X-0.400000X0*%
G04 APERTURE END LIST*
D10*
%TO.C,D202*%
X144862500Y-119500000D03*
X146437500Y-119500000D03*
%TD*%
D11*
%TO.C,U403*%
X123938000Y-103575000D03*
X123938000Y-102925000D03*
X123938000Y-102275000D03*
X123938000Y-101625000D03*
X123938000Y-100975000D03*
X123938000Y-100325000D03*
X123938000Y-99675000D03*
X123938000Y-99025000D03*
X123938000Y-98375000D03*
X123938000Y-97725000D03*
X123938000Y-97075000D03*
X123938000Y-96425000D03*
X118062000Y-96425000D03*
X118062000Y-97075000D03*
X118062000Y-97725000D03*
X118062000Y-98375000D03*
X118062000Y-99025000D03*
X118062000Y-99675000D03*
X118062000Y-100325000D03*
X118062000Y-100975000D03*
X118062000Y-101625000D03*
X118062000Y-102275000D03*
X118062000Y-102925000D03*
X118062000Y-103575000D03*
%TD*%
D12*
%TO.C,U402*%
X138793499Y-119499999D03*
X138793499Y-120000000D03*
X138793499Y-120500000D03*
X138793499Y-121000001D03*
D13*
X139500000Y-121202500D03*
X139999999Y-121202500D03*
X140499998Y-121202500D03*
D12*
X141206499Y-121000001D03*
X141206499Y-120500000D03*
X141206499Y-120000000D03*
X141206499Y-119499999D03*
D13*
X140499998Y-119297500D03*
X139999999Y-119297500D03*
X139500000Y-119297500D03*
%TD*%
D14*
%TO.C,R314*%
X154000000Y-92510000D03*
X154000000Y-91490000D03*
%TD*%
D15*
%TO.C,U302*%
X130550000Y-66637500D03*
X131500000Y-66637500D03*
X132450000Y-66637500D03*
X132450000Y-64362500D03*
X131500000Y-64362500D03*
X130550000Y-64362500D03*
%TD*%
D16*
%TO.C,C202*%
X126000000Y-121225000D03*
X126000000Y-122775000D03*
%TD*%
D14*
%TO.C,R310*%
X127500000Y-97510000D03*
X127500000Y-96490000D03*
%TD*%
D17*
%TO.C,X301*%
X139125000Y-107600000D03*
X141875000Y-107600000D03*
X141875000Y-105400000D03*
X139125000Y-105400000D03*
%TD*%
D18*
%TO.C,C204*%
X127250000Y-121170000D03*
X127250000Y-122130000D03*
%TD*%
%TO.C,C315*%
X152500000Y-98520000D03*
X152500000Y-99480000D03*
%TD*%
D19*
%TO.C,R204*%
X131510000Y-124000000D03*
X130490000Y-124000000D03*
%TD*%
D18*
%TO.C,C203*%
X152750000Y-121520000D03*
X152750000Y-122480000D03*
%TD*%
D20*
%TO.C,C205*%
X149280000Y-124300000D03*
X148320000Y-124300000D03*
%TD*%
D21*
%TO.C,J304*%
X152260000Y-60230000D03*
X151260000Y-60230000D03*
X150260000Y-60230000D03*
X149260000Y-60230000D03*
D22*
X153560000Y-56355000D03*
X147960000Y-56355000D03*
%TD*%
D23*
%TO.C,R203*%
X152790000Y-124000000D03*
X153810000Y-124000000D03*
%TD*%
D19*
%TO.C,R207*%
X135110000Y-120750000D03*
X134090000Y-120750000D03*
%TD*%
D20*
%TO.C,C322*%
X133480000Y-103500000D03*
X132520000Y-103500000D03*
%TD*%
D23*
%TO.C,R306*%
X138490000Y-122500000D03*
X139510000Y-122500000D03*
%TD*%
D24*
%TO.C,C312*%
X127500000Y-93480000D03*
X127500000Y-92520000D03*
%TD*%
D19*
%TO.C,R302*%
X148070000Y-69900000D03*
X147050000Y-69900000D03*
%TD*%
D25*
%TO.C,C318*%
X143020000Y-78500000D03*
X143980000Y-78500000D03*
%TD*%
D10*
%TO.C,D303*%
X146772500Y-74650000D03*
X148347500Y-74650000D03*
%TD*%
D25*
%TO.C,C401*%
X157520000Y-104750000D03*
X158480000Y-104750000D03*
%TD*%
D23*
%TO.C,R202*%
X150790000Y-124000000D03*
X151810000Y-124000000D03*
%TD*%
D25*
%TO.C,C404*%
X119520000Y-104800000D03*
X120480000Y-104800000D03*
%TD*%
D26*
%TO.C,C210*%
X132475000Y-121300000D03*
X130925000Y-121300000D03*
%TD*%
D20*
%TO.C,C304*%
X146980000Y-103750000D03*
X146020000Y-103750000D03*
%TD*%
D25*
%TO.C,C309*%
X148020000Y-104750000D03*
X148980000Y-104750000D03*
%TD*%
D27*
%TO.C,R402*%
X127509000Y-102273000D03*
X127509000Y-103293000D03*
%TD*%
D24*
%TO.C,C402*%
X136600000Y-120730000D03*
X136600000Y-119770000D03*
%TD*%
%TO.C,C406*%
X143000000Y-120730000D03*
X143000000Y-119770000D03*
%TD*%
D28*
%TO.C,IC202*%
X129500000Y-121162000D03*
X129000000Y-121162000D03*
X128500000Y-121162000D03*
X128500000Y-122838000D03*
X129000000Y-122838000D03*
X129500000Y-122838000D03*
%TD*%
D18*
%TO.C,C308*%
X152500000Y-92020000D03*
X152500000Y-92980000D03*
%TD*%
D25*
%TO.C,C301*%
X135020000Y-109500000D03*
X135980000Y-109500000D03*
%TD*%
D23*
%TO.C,R201*%
X139490000Y-130000000D03*
X140510000Y-130000000D03*
%TD*%
D29*
%TO.C,L202*%
X127150000Y-118000000D03*
X130850000Y-118000000D03*
%TD*%
D25*
%TO.C,C313*%
X137520000Y-78500000D03*
X138480000Y-78500000D03*
%TD*%
D20*
%TO.C,C316*%
X144980000Y-103750000D03*
X144020000Y-103750000D03*
%TD*%
D23*
%TO.C,R311*%
X148250000Y-62320000D03*
X149270000Y-62320000D03*
%TD*%
D20*
%TO.C,C305*%
X146980000Y-104750000D03*
X146020000Y-104750000D03*
%TD*%
D18*
%TO.C,C311*%
X127500000Y-100020000D03*
X127500000Y-100980000D03*
%TD*%
D10*
%TO.C,D301*%
X146772500Y-71650000D03*
X148347500Y-71650000D03*
%TD*%
%TO.C,D302*%
X146772500Y-68650000D03*
X148347500Y-68650000D03*
%TD*%
D17*
%TO.C,X302*%
X133625000Y-107600000D03*
X136375000Y-107600000D03*
X136375000Y-105400000D03*
X133625000Y-105400000D03*
%TD*%
D27*
%TO.C,R307*%
X134450000Y-64990000D03*
X134450000Y-66010000D03*
%TD*%
D19*
%TO.C,R313*%
X143500000Y-65300000D03*
X142480000Y-65300000D03*
%TD*%
D25*
%TO.C,C307*%
X148040000Y-103750000D03*
X149000000Y-103750000D03*
%TD*%
D16*
%TO.C,C201*%
X154000000Y-121225000D03*
X154000000Y-122775000D03*
%TD*%
D24*
%TO.C,C403*%
X142400000Y-117460000D03*
X142400000Y-116500000D03*
%TD*%
D25*
%TO.C,C306*%
X130020000Y-78500000D03*
X130980000Y-78500000D03*
%TD*%
D20*
%TO.C,C302*%
X141480000Y-109500000D03*
X140520000Y-109500000D03*
%TD*%
D30*
%TO.C,IC301*%
X152655000Y-107300000D03*
X151385000Y-107300000D03*
X150115000Y-107300000D03*
X148845000Y-107300000D03*
X148845000Y-112700000D03*
X150115000Y-112700000D03*
X151385000Y-112700000D03*
X152655000Y-112700000D03*
%TD*%
D20*
%TO.C,C323*%
X132000000Y-77500000D03*
X131040000Y-77500000D03*
%TD*%
D26*
%TO.C,C208*%
X132475000Y-122800000D03*
X130925000Y-122800000D03*
%TD*%
D31*
%TO.C,C209*%
X147550000Y-122650000D03*
X149100000Y-122650000D03*
%TD*%
D24*
%TO.C,C320*%
X152500000Y-81980000D03*
X152500000Y-81020000D03*
%TD*%
D19*
%TO.C,R205*%
X129510000Y-124000000D03*
X128490000Y-124000000D03*
%TD*%
D27*
%TO.C,R401*%
X152500000Y-96240000D03*
X152500000Y-97260000D03*
%TD*%
D32*
%TO.C,D203*%
X135387500Y-119500000D03*
X133812500Y-119500000D03*
%TD*%
D27*
%TO.C,R309*%
X127500000Y-94490000D03*
X127500000Y-95510000D03*
%TD*%
D20*
%TO.C,C206*%
X127480000Y-124000000D03*
X126520000Y-124000000D03*
%TD*%
D24*
%TO.C,C310*%
X127499000Y-88702000D03*
X127499000Y-87742000D03*
%TD*%
D31*
%TO.C,C207*%
X147550000Y-121130000D03*
X149100000Y-121130000D03*
%TD*%
D29*
%TO.C,L201*%
X152850000Y-118000000D03*
X149150000Y-118000000D03*
%TD*%
D25*
%TO.C,C314*%
X137520000Y-77500000D03*
X138480000Y-77500000D03*
%TD*%
D33*
%TO.C,D304*%
X126400000Y-65650000D03*
X126400000Y-63550000D03*
%TD*%
D23*
%TO.C,R206*%
X145140000Y-120750000D03*
X146160000Y-120750000D03*
%TD*%
D34*
%TO.C,J303*%
X134200000Y-61750000D03*
X133400000Y-61750000D03*
D35*
X132250000Y-61750000D03*
X131250000Y-61750000D03*
X130750000Y-61750000D03*
X129750000Y-61750000D03*
D34*
X127800000Y-61750000D03*
X128600000Y-61750000D03*
D35*
X129250000Y-61750000D03*
X130250000Y-61750000D03*
X131750000Y-61750000D03*
X132750000Y-61750000D03*
%TD*%
D20*
%TO.C,C317*%
X139480000Y-103500000D03*
X138520000Y-103500000D03*
%TD*%
D36*
%TO.C,S301*%
X137925000Y-60575000D03*
X137925000Y-56425000D03*
X140075000Y-60575000D03*
X140075000Y-56425000D03*
%TD*%
D25*
%TO.C,C324*%
X144510000Y-65300000D03*
X145470000Y-65300000D03*
%TD*%
D23*
%TO.C,R304*%
X139490000Y-65300000D03*
X140510000Y-65300000D03*
%TD*%
D27*
%TO.C,R308*%
X128500000Y-64990000D03*
X128500000Y-66010000D03*
%TD*%
D37*
%TO.C,IC302*%
X131250000Y-101738000D03*
X131750000Y-101738000D03*
X132250000Y-101738000D03*
X132750000Y-101738000D03*
X133250000Y-101738000D03*
X133750000Y-101738000D03*
X134250000Y-101738000D03*
X134750000Y-101738000D03*
X135250000Y-101738000D03*
X135750000Y-101738000D03*
X136250000Y-101738000D03*
X136750000Y-101738000D03*
X137250000Y-101738000D03*
X137750000Y-101738000D03*
X138250000Y-101738000D03*
X138750000Y-101738000D03*
X139250000Y-101738000D03*
X139750000Y-101738000D03*
X140250000Y-101738000D03*
X140750000Y-101738000D03*
X141250000Y-101738000D03*
X141750000Y-101738000D03*
X142250000Y-101738000D03*
X142750000Y-101738000D03*
X143250000Y-101738000D03*
X143750000Y-101738000D03*
X144250000Y-101738000D03*
X144750000Y-101738000D03*
X145250000Y-101738000D03*
X145750000Y-101738000D03*
X146250000Y-101738000D03*
X146750000Y-101738000D03*
X147250000Y-101738000D03*
X147750000Y-101738000D03*
X148250000Y-101738000D03*
X148750000Y-101738000D03*
D38*
X150738000Y-99750000D03*
X150738000Y-99250000D03*
X150738000Y-98750000D03*
X150738000Y-98250000D03*
X150738000Y-97750000D03*
X150738000Y-97250000D03*
X150738000Y-96750000D03*
X150738000Y-96250000D03*
X150738000Y-95750000D03*
X150738000Y-95250000D03*
X150738000Y-94750000D03*
X150738000Y-94250000D03*
X150738000Y-93750000D03*
X150738000Y-93250000D03*
X150738000Y-92750000D03*
X150738000Y-92250000D03*
X150738000Y-91750000D03*
X150738000Y-91250000D03*
X150738000Y-90750000D03*
X150738000Y-90250000D03*
X150738000Y-89750000D03*
X150738000Y-89250000D03*
X150738000Y-88750000D03*
X150738000Y-88250000D03*
X150738000Y-87750000D03*
X150738000Y-87250000D03*
X150738000Y-86750000D03*
X150738000Y-86250000D03*
X150738000Y-85750000D03*
X150738000Y-85250000D03*
X150738000Y-84750000D03*
X150738000Y-84250000D03*
X150738000Y-83750000D03*
X150738000Y-83250000D03*
X150738000Y-82750000D03*
X150738000Y-82250000D03*
D37*
X148750000Y-80262000D03*
X148250000Y-80262000D03*
X147750000Y-80262000D03*
X147250000Y-80262000D03*
X146750000Y-80262000D03*
X146250000Y-80262000D03*
X145750000Y-80262000D03*
X145250000Y-80262000D03*
X144750000Y-80262000D03*
X144250000Y-80262000D03*
X143750000Y-80262000D03*
X143250000Y-80262000D03*
X142750000Y-80262000D03*
X142250000Y-80262000D03*
X141750000Y-80262000D03*
X141250000Y-80262000D03*
X140750000Y-80262000D03*
X140250000Y-80262000D03*
X139750000Y-80262000D03*
X139250000Y-80262000D03*
X138750000Y-80262000D03*
X138250000Y-80262000D03*
X137750000Y-80262000D03*
X137250000Y-80262000D03*
X136750000Y-80262000D03*
X136250000Y-80262000D03*
X135750000Y-80262000D03*
X135250000Y-80262000D03*
X134750000Y-80262000D03*
X134250000Y-80262000D03*
X133750000Y-80262000D03*
X133250000Y-80262000D03*
X132750000Y-80262000D03*
X132250000Y-80262000D03*
X131750000Y-80262000D03*
X131250000Y-80262000D03*
D38*
X129262000Y-82250000D03*
X129262000Y-82750000D03*
X129262000Y-83250000D03*
X129262000Y-83750000D03*
X129262000Y-84250000D03*
X129262000Y-84750000D03*
X129262000Y-85250000D03*
X129262000Y-85750000D03*
X129262000Y-86250000D03*
X129262000Y-86750000D03*
X129262000Y-87250000D03*
X129262000Y-87750000D03*
X129262000Y-88250000D03*
X129262000Y-88750000D03*
X129262000Y-89250000D03*
X129262000Y-89750000D03*
X129262000Y-90250000D03*
X129262000Y-90750000D03*
X129262000Y-91250000D03*
X129262000Y-91750000D03*
X129262000Y-92250000D03*
X129262000Y-92750000D03*
X129262000Y-93250000D03*
X129262000Y-93750000D03*
X129262000Y-94250000D03*
X129262000Y-94750000D03*
X129262000Y-95250000D03*
X129262000Y-95750000D03*
X129262000Y-96250000D03*
X129262000Y-96750000D03*
X129262000Y-97250000D03*
X129262000Y-97750000D03*
X129262000Y-98250000D03*
X129262000Y-98750000D03*
X129262000Y-99250000D03*
X129262000Y-99750000D03*
%TD*%
D28*
%TO.C,IC201*%
X151500000Y-121162000D03*
X151000000Y-121162000D03*
X150500000Y-121162000D03*
X150500000Y-122838000D03*
X151000000Y-122838000D03*
X151500000Y-122838000D03*
%TD*%
D20*
%TO.C,C405*%
X141480000Y-122500000D03*
X140520000Y-122500000D03*
%TD*%
D11*
%TO.C,U401*%
X161938000Y-103575000D03*
X161938000Y-102925000D03*
X161938000Y-102275000D03*
X161938000Y-101625000D03*
X161938000Y-100975000D03*
X161938000Y-100325000D03*
X161938000Y-99675000D03*
X161938000Y-99025000D03*
X161938000Y-98375000D03*
X161938000Y-97725000D03*
X161938000Y-97075000D03*
X161938000Y-96425000D03*
X156062000Y-96425000D03*
X156062000Y-97075000D03*
X156062000Y-97725000D03*
X156062000Y-98375000D03*
X156062000Y-99025000D03*
X156062000Y-99675000D03*
X156062000Y-100325000D03*
X156062000Y-100975000D03*
X156062000Y-101625000D03*
X156062000Y-102275000D03*
X156062000Y-102925000D03*
X156062000Y-103575000D03*
%TD*%
D19*
%TO.C,R301*%
X148070000Y-72900000D03*
X147050000Y-72900000D03*
%TD*%
D27*
%TO.C,R315*%
X154000000Y-89500000D03*
X154000000Y-90520000D03*
%TD*%
D19*
%TO.C,R312*%
X151300000Y-62320000D03*
X150280000Y-62320000D03*
%TD*%
D20*
%TO.C,C303*%
X138480000Y-65300000D03*
X137520000Y-65300000D03*
%TD*%
D19*
%TO.C,FB301*%
X145010000Y-104750000D03*
X143990000Y-104750000D03*
%TD*%
D18*
%TO.C,C321*%
X152500000Y-87020000D03*
X152500000Y-87980000D03*
%TD*%
D14*
%TO.C,R305*%
X148250000Y-130710000D03*
X148250000Y-129690000D03*
%TD*%
D19*
%TO.C,R303*%
X148070000Y-75900000D03*
X147050000Y-75900000D03*
%TD*%
D18*
%TO.C,C319*%
X152500000Y-83020000D03*
X152500000Y-83980000D03*
%TD*%
D39*
%TO.C,Q201*%
X132825000Y-132750000D03*
X132825000Y-132100000D03*
D40*
X132750000Y-131450000D03*
X130950000Y-131450000D03*
D39*
X130875000Y-132100000D03*
X130875000Y-132750000D03*
D41*
X131850000Y-131450000D03*
D42*
X131850000Y-132425000D03*
%TD*%
D43*
%TO.C,SW301*%
X144445000Y-127270000D03*
X144445000Y-124730000D03*
X135555000Y-124730000D03*
X135555000Y-127270000D03*
%TD*%
D24*
%TO.C,C407*%
X137600000Y-117480000D03*
X137600000Y-116520000D03*
%TD*%
D44*
%TO.C,U404*%
X139237499Y-116250000D03*
X139237499Y-116750000D03*
X139237499Y-117250000D03*
X139237499Y-117750000D03*
D45*
X139749999Y-117762500D03*
X140249999Y-117762500D03*
D44*
X140762499Y-117750000D03*
X140762499Y-117250000D03*
X140762499Y-116750000D03*
X140762499Y-116250000D03*
D45*
X140249999Y-116237500D03*
X139749999Y-116237500D03*
%TD*%
D46*
%TO.C,D201*%
X131500000Y-129250000D03*
X131500000Y-125750000D03*
%TD*%
D36*
%TO.C,S302*%
X142925000Y-60575000D03*
X142925000Y-56425000D03*
X145075000Y-60575000D03*
X145075000Y-56425000D03*
%TD*%
M02*
