%TF.GenerationSoftware,KiCad,Pcbnew,7.0.1*%
%TF.CreationDate,2023-07-17T00:48:34+01:00*%
%TF.ProjectId,Sensor Hub Board,53656e73-6f72-4204-9875-6220426f6172,rev?*%
%TF.SameCoordinates,Original*%
%TF.FileFunction,Soldermask,Top*%
%TF.FilePolarity,Negative*%
%FSLAX46Y46*%
G04 Gerber Fmt 4.6, Leading zero omitted, Abs format (unit mm)*
G04 Created by KiCad (PCBNEW 7.0.1) date 2023-07-17 00:48:34*
%MOMM*%
%LPD*%
G01*
G04 APERTURE LIST*
G04 Aperture macros list*
%AMRoundRect*
0 Rectangle with rounded corners*
0 $1 Rounding radius*
0 $2 $3 $4 $5 $6 $7 $8 $9 X,Y pos of 4 corners*
0 Add a 4 corners polygon primitive as box body*
4,1,4,$2,$3,$4,$5,$6,$7,$8,$9,$2,$3,0*
0 Add four circle primitives for the rounded corners*
1,1,$1+$1,$2,$3*
1,1,$1+$1,$4,$5*
1,1,$1+$1,$6,$7*
1,1,$1+$1,$8,$9*
0 Add four rect primitives between the rounded corners*
20,1,$1+$1,$2,$3,$4,$5,0*
20,1,$1+$1,$4,$5,$6,$7,0*
20,1,$1+$1,$6,$7,$8,$9,0*
20,1,$1+$1,$8,$9,$2,$3,0*%
G04 Aperture macros list end*
%ADD10C,0.010000*%
%ADD11RoundRect,0.218750X-0.218750X-0.256250X0.218750X-0.256250X0.218750X0.256250X-0.218750X0.256250X0*%
%ADD12R,1.475000X0.450000*%
%ADD13R,3.000000X3.000000*%
%ADD14C,3.000000*%
%ADD15R,0.482600X0.254000*%
%ADD16R,0.254000X0.482600*%
%ADD17RoundRect,0.135000X0.185000X-0.135000X0.185000X0.135000X-0.185000X0.135000X-0.185000X-0.135000X0*%
%ADD18RoundRect,0.150000X0.150000X-0.512500X0.150000X0.512500X-0.150000X0.512500X-0.150000X-0.512500X0*%
%ADD19RoundRect,0.225000X-0.250000X0.225000X-0.250000X-0.225000X0.250000X-0.225000X0.250000X0.225000X0*%
%ADD20R,1.950000X1.650000*%
%ADD21RoundRect,0.140000X-0.170000X0.140000X-0.170000X-0.140000X0.170000X-0.140000X0.170000X0.140000X0*%
%ADD22RoundRect,0.135000X0.135000X0.185000X-0.135000X0.185000X-0.135000X-0.185000X0.135000X-0.185000X0*%
%ADD23RoundRect,0.140000X0.140000X0.170000X-0.140000X0.170000X-0.140000X-0.170000X0.140000X-0.170000X0*%
%ADD24R,0.600000X1.550000*%
%ADD25R,1.200000X1.800000*%
%ADD26RoundRect,0.135000X-0.135000X-0.185000X0.135000X-0.185000X0.135000X0.185000X-0.135000X0.185000X0*%
%ADD27C,5.600000*%
%ADD28RoundRect,0.250000X0.725000X-0.600000X0.725000X0.600000X-0.725000X0.600000X-0.725000X-0.600000X0*%
%ADD29O,1.950000X1.700000*%
%ADD30RoundRect,0.140000X0.170000X-0.140000X0.170000X0.140000X-0.170000X0.140000X-0.170000X-0.140000X0*%
%ADD31RoundRect,0.140000X-0.140000X-0.170000X0.140000X-0.170000X0.140000X0.170000X-0.140000X0.170000X0*%
%ADD32RoundRect,0.225000X0.225000X0.250000X-0.225000X0.250000X-0.225000X-0.250000X0.225000X-0.250000X0*%
%ADD33RoundRect,0.135000X-0.185000X0.135000X-0.185000X-0.135000X0.185000X-0.135000X0.185000X0.135000X0*%
%ADD34R,0.300000X0.475000*%
%ADD35R,1.500000X2.500000*%
%ADD36R,1.700000X1.700000*%
%ADD37O,1.700000X1.700000*%
%ADD38RoundRect,0.250000X-0.725000X0.600000X-0.725000X-0.600000X0.725000X-0.600000X0.725000X0.600000X0*%
%ADD39R,0.650000X1.500000*%
%ADD40RoundRect,0.225000X-0.225000X-0.250000X0.225000X-0.250000X0.225000X0.250000X-0.225000X0.250000X0*%
%ADD41RoundRect,0.218750X0.218750X0.256250X-0.218750X0.256250X-0.218750X-0.256250X0.218750X-0.256250X0*%
%ADD42C,2.374900*%
%ADD43C,0.990600*%
%ADD44C,0.787400*%
%ADD45RoundRect,0.112500X0.112500X-0.187500X0.112500X0.187500X-0.112500X0.187500X-0.112500X-0.187500X0*%
%ADD46C,0.600000*%
%ADD47O,0.900000X2.000000*%
%ADD48O,0.900000X1.700000*%
%ADD49R,0.650000X1.050000*%
%ADD50R,0.300000X1.475000*%
%ADD51R,1.475000X0.300000*%
%ADD52R,0.350000X0.400000*%
%ADD53R,0.500000X0.400000*%
%ADD54R,0.920000X0.285000*%
%ADD55R,1.600000X1.050000*%
%ADD56R,3.100000X1.600000*%
%ADD57R,0.375000X0.350000*%
%ADD58R,0.350000X0.375000*%
%ADD59RoundRect,0.250000X0.600000X-0.400000X0.600000X0.400000X-0.600000X0.400000X-0.600000X-0.400000X0*%
G04 APERTURE END LIST*
%TO.C,J303*%
D10*
X134550000Y-62370000D02*
X133850000Y-62370000D01*
X133850000Y-61130000D01*
X134550000Y-61130000D01*
X134550000Y-62370000D01*
G36*
X134550000Y-62370000D02*
G01*
X133850000Y-62370000D01*
X133850000Y-61130000D01*
X134550000Y-61130000D01*
X134550000Y-62370000D01*
G37*
X133750000Y-62370000D02*
X133050000Y-62370000D01*
X133050000Y-61130000D01*
X133750000Y-61130000D01*
X133750000Y-62370000D01*
G36*
X133750000Y-62370000D02*
G01*
X133050000Y-62370000D01*
X133050000Y-61130000D01*
X133750000Y-61130000D01*
X133750000Y-62370000D01*
G37*
X132950000Y-62370000D02*
X132550000Y-62370000D01*
X132550000Y-61130000D01*
X132950000Y-61130000D01*
X132950000Y-62370000D01*
G36*
X132950000Y-62370000D02*
G01*
X132550000Y-62370000D01*
X132550000Y-61130000D01*
X132950000Y-61130000D01*
X132950000Y-62370000D01*
G37*
X132450000Y-62370000D02*
X132050000Y-62370000D01*
X132050000Y-61130000D01*
X132450000Y-61130000D01*
X132450000Y-62370000D01*
G36*
X132450000Y-62370000D02*
G01*
X132050000Y-62370000D01*
X132050000Y-61130000D01*
X132450000Y-61130000D01*
X132450000Y-62370000D01*
G37*
X131950000Y-62370000D02*
X131550000Y-62370000D01*
X131550000Y-61130000D01*
X131950000Y-61130000D01*
X131950000Y-62370000D01*
G36*
X131950000Y-62370000D02*
G01*
X131550000Y-62370000D01*
X131550000Y-61130000D01*
X131950000Y-61130000D01*
X131950000Y-62370000D01*
G37*
X131450000Y-62370000D02*
X131050000Y-62370000D01*
X131050000Y-61130000D01*
X131450000Y-61130000D01*
X131450000Y-62370000D01*
G36*
X131450000Y-62370000D02*
G01*
X131050000Y-62370000D01*
X131050000Y-61130000D01*
X131450000Y-61130000D01*
X131450000Y-62370000D01*
G37*
X130950000Y-62370000D02*
X130550000Y-62370000D01*
X130550000Y-61130000D01*
X130950000Y-61130000D01*
X130950000Y-62370000D01*
G36*
X130950000Y-62370000D02*
G01*
X130550000Y-62370000D01*
X130550000Y-61130000D01*
X130950000Y-61130000D01*
X130950000Y-62370000D01*
G37*
X130450000Y-62370000D02*
X130050000Y-62370000D01*
X130050000Y-61130000D01*
X130450000Y-61130000D01*
X130450000Y-62370000D01*
G36*
X130450000Y-62370000D02*
G01*
X130050000Y-62370000D01*
X130050000Y-61130000D01*
X130450000Y-61130000D01*
X130450000Y-62370000D01*
G37*
X129950000Y-62370000D02*
X129550000Y-62370000D01*
X129550000Y-61130000D01*
X129950000Y-61130000D01*
X129950000Y-62370000D01*
G36*
X129950000Y-62370000D02*
G01*
X129550000Y-62370000D01*
X129550000Y-61130000D01*
X129950000Y-61130000D01*
X129950000Y-62370000D01*
G37*
X129450000Y-62370000D02*
X129050000Y-62370000D01*
X129050000Y-61130000D01*
X129450000Y-61130000D01*
X129450000Y-62370000D01*
G36*
X129450000Y-62370000D02*
G01*
X129050000Y-62370000D01*
X129050000Y-61130000D01*
X129450000Y-61130000D01*
X129450000Y-62370000D01*
G37*
X128950000Y-62370000D02*
X128250000Y-62370000D01*
X128250000Y-61130000D01*
X128950000Y-61130000D01*
X128950000Y-62370000D01*
G36*
X128950000Y-62370000D02*
G01*
X128250000Y-62370000D01*
X128250000Y-61130000D01*
X128950000Y-61130000D01*
X128950000Y-62370000D01*
G37*
X128150000Y-62370000D02*
X127450000Y-62370000D01*
X127450000Y-61130000D01*
X128150000Y-61130000D01*
X128150000Y-62370000D01*
G36*
X128150000Y-62370000D02*
G01*
X127450000Y-62370000D01*
X127450000Y-61130000D01*
X128150000Y-61130000D01*
X128150000Y-62370000D01*
G37*
%TD*%
D11*
%TO.C,D202*%
X144862500Y-119500000D03*
X146437500Y-119500000D03*
%TD*%
D12*
%TO.C,U403*%
X123938000Y-103575000D03*
X123938000Y-102925000D03*
X123938000Y-102275000D03*
X123938000Y-101625000D03*
X123938000Y-100975000D03*
X123938000Y-100325000D03*
X123938000Y-99675000D03*
X123938000Y-99025000D03*
X123938000Y-98375000D03*
X123938000Y-97725000D03*
X123938000Y-97075000D03*
X123938000Y-96425000D03*
X118062000Y-96425000D03*
X118062000Y-97075000D03*
X118062000Y-97725000D03*
X118062000Y-98375000D03*
X118062000Y-99025000D03*
X118062000Y-99675000D03*
X118062000Y-100325000D03*
X118062000Y-100975000D03*
X118062000Y-101625000D03*
X118062000Y-102275000D03*
X118062000Y-102925000D03*
X118062000Y-103575000D03*
%TD*%
D13*
%TO.C,J302*%
X140380000Y-138000000D03*
D14*
X145460000Y-138000000D03*
X150540000Y-138000000D03*
%TD*%
D15*
%TO.C,U402*%
X138793499Y-119499999D03*
X138793499Y-120000000D03*
X138793499Y-120500000D03*
X138793499Y-121000001D03*
D16*
X139500000Y-121202500D03*
X139999999Y-121202500D03*
X140499998Y-121202500D03*
D15*
X141206499Y-121000001D03*
X141206499Y-120500000D03*
X141206499Y-120000000D03*
X141206499Y-119499999D03*
D16*
X140499998Y-119297500D03*
X139999999Y-119297500D03*
X139500000Y-119297500D03*
%TD*%
D17*
%TO.C,R314*%
X154000000Y-92510000D03*
X154000000Y-91490000D03*
%TD*%
D18*
%TO.C,U302*%
X130550000Y-66637500D03*
X131500000Y-66637500D03*
X132450000Y-66637500D03*
X132450000Y-64362500D03*
X131500000Y-64362500D03*
X130550000Y-64362500D03*
%TD*%
D19*
%TO.C,C202*%
X126000000Y-121225000D03*
X126000000Y-122775000D03*
%TD*%
D17*
%TO.C,R310*%
X127500000Y-97510000D03*
X127500000Y-96490000D03*
%TD*%
D20*
%TO.C,X301*%
X139125000Y-107600000D03*
X141875000Y-107600000D03*
X141875000Y-105400000D03*
X139125000Y-105400000D03*
%TD*%
D21*
%TO.C,C204*%
X127250000Y-121170000D03*
X127250000Y-122130000D03*
%TD*%
%TO.C,C315*%
X152500000Y-98520000D03*
X152500000Y-99480000D03*
%TD*%
D22*
%TO.C,R204*%
X131510000Y-124000000D03*
X130490000Y-124000000D03*
%TD*%
D21*
%TO.C,C203*%
X152750000Y-121520000D03*
X152750000Y-122480000D03*
%TD*%
D23*
%TO.C,C205*%
X149280000Y-124300000D03*
X148320000Y-124300000D03*
%TD*%
D24*
%TO.C,J304*%
X152260000Y-60230000D03*
X151260000Y-60230000D03*
X150260000Y-60230000D03*
X149260000Y-60230000D03*
D25*
X153560000Y-56355000D03*
X147960000Y-56355000D03*
%TD*%
D26*
%TO.C,R203*%
X152790000Y-124000000D03*
X153810000Y-124000000D03*
%TD*%
D22*
%TO.C,R207*%
X135110000Y-120750000D03*
X134090000Y-120750000D03*
%TD*%
D27*
%TO.C,H103*%
X169000000Y-58000000D03*
%TD*%
D28*
%TO.C,J415*%
X120975000Y-91250000D03*
D29*
X120975000Y-88750000D03*
X120975000Y-86250000D03*
X120975000Y-83750000D03*
X120975000Y-81250000D03*
X120975000Y-78750000D03*
%TD*%
D23*
%TO.C,C322*%
X133480000Y-103500000D03*
X132520000Y-103500000D03*
%TD*%
D26*
%TO.C,R306*%
X138490000Y-122500000D03*
X139510000Y-122500000D03*
%TD*%
D30*
%TO.C,C312*%
X127500000Y-93480000D03*
X127500000Y-92520000D03*
%TD*%
D22*
%TO.C,R302*%
X148070000Y-69900000D03*
X147050000Y-69900000D03*
%TD*%
D31*
%TO.C,C318*%
X143020000Y-78500000D03*
X143980000Y-78500000D03*
%TD*%
D11*
%TO.C,D303*%
X146772500Y-74650000D03*
X148347500Y-74650000D03*
%TD*%
D31*
%TO.C,C401*%
X157520000Y-104750000D03*
X158480000Y-104750000D03*
%TD*%
D26*
%TO.C,R202*%
X150790000Y-124000000D03*
X151810000Y-124000000D03*
%TD*%
D31*
%TO.C,C404*%
X119520000Y-104800000D03*
X120480000Y-104800000D03*
%TD*%
D32*
%TO.C,C210*%
X132475000Y-121300000D03*
X130925000Y-121300000D03*
%TD*%
D23*
%TO.C,C304*%
X146980000Y-103750000D03*
X146020000Y-103750000D03*
%TD*%
D31*
%TO.C,C309*%
X148020000Y-104750000D03*
X148980000Y-104750000D03*
%TD*%
D33*
%TO.C,R402*%
X127509000Y-102273000D03*
X127509000Y-103293000D03*
%TD*%
D30*
%TO.C,C402*%
X136600000Y-120730000D03*
X136600000Y-119770000D03*
%TD*%
%TO.C,C406*%
X143000000Y-120730000D03*
X143000000Y-119770000D03*
%TD*%
D34*
%TO.C,IC202*%
X129500000Y-121162000D03*
X129000000Y-121162000D03*
X128500000Y-121162000D03*
X128500000Y-122838000D03*
X129000000Y-122838000D03*
X129500000Y-122838000D03*
%TD*%
D28*
%TO.C,J412*%
X112475000Y-76250000D03*
D29*
X112475000Y-73750000D03*
X112475000Y-71250000D03*
X112475000Y-68750000D03*
X112475000Y-66250000D03*
X112475000Y-63750000D03*
%TD*%
D21*
%TO.C,C308*%
X152500000Y-92020000D03*
X152500000Y-92980000D03*
%TD*%
D31*
%TO.C,C301*%
X135020000Y-109500000D03*
X135980000Y-109500000D03*
%TD*%
D26*
%TO.C,R201*%
X139490000Y-130000000D03*
X140510000Y-130000000D03*
%TD*%
D35*
%TO.C,L202*%
X127150000Y-118000000D03*
X130850000Y-118000000D03*
%TD*%
D31*
%TO.C,C313*%
X137520000Y-78500000D03*
X138480000Y-78500000D03*
%TD*%
D23*
%TO.C,C316*%
X144980000Y-103750000D03*
X144020000Y-103750000D03*
%TD*%
D13*
%TO.C,J203*%
X128920000Y-138000000D03*
D14*
X134000000Y-138000000D03*
%TD*%
D26*
%TO.C,R311*%
X148250000Y-62320000D03*
X149270000Y-62320000D03*
%TD*%
D23*
%TO.C,C305*%
X146980000Y-104750000D03*
X146020000Y-104750000D03*
%TD*%
D21*
%TO.C,C311*%
X127500000Y-100020000D03*
X127500000Y-100980000D03*
%TD*%
D36*
%TO.C,JP402*%
X128000000Y-126460000D03*
D37*
X128000000Y-129000000D03*
X128000000Y-131540000D03*
%TD*%
D11*
%TO.C,D301*%
X146772500Y-71650000D03*
X148347500Y-71650000D03*
%TD*%
D27*
%TO.C,H102*%
X111000000Y-142000000D03*
%TD*%
D11*
%TO.C,D302*%
X146772500Y-68650000D03*
X148347500Y-68650000D03*
%TD*%
D20*
%TO.C,X302*%
X133625000Y-107600000D03*
X136375000Y-107600000D03*
X136375000Y-105400000D03*
X133625000Y-105400000D03*
%TD*%
D38*
%TO.C,J405*%
X159025000Y-108750000D03*
D29*
X159025000Y-111250000D03*
X159025000Y-113750000D03*
X159025000Y-116250000D03*
X159025000Y-118750000D03*
X159025000Y-121250000D03*
%TD*%
D27*
%TO.C,H101*%
X111000000Y-58000000D03*
%TD*%
D33*
%TO.C,R307*%
X134450000Y-64990000D03*
X134450000Y-66010000D03*
%TD*%
D22*
%TO.C,R313*%
X143500000Y-65300000D03*
X142480000Y-65300000D03*
%TD*%
D31*
%TO.C,C307*%
X148040000Y-103750000D03*
X149000000Y-103750000D03*
%TD*%
D19*
%TO.C,C201*%
X154000000Y-121225000D03*
X154000000Y-122775000D03*
%TD*%
D30*
%TO.C,C403*%
X142400000Y-117460000D03*
X142400000Y-116500000D03*
%TD*%
D31*
%TO.C,C306*%
X130020000Y-78500000D03*
X130980000Y-78500000D03*
%TD*%
D36*
%TO.C,JP403*%
X152000000Y-68475000D03*
D37*
X152000000Y-71015000D03*
X152000000Y-73555000D03*
%TD*%
D23*
%TO.C,C302*%
X141480000Y-109500000D03*
X140520000Y-109500000D03*
%TD*%
D39*
%TO.C,IC301*%
X152655000Y-107300000D03*
X151385000Y-107300000D03*
X150115000Y-107300000D03*
X148845000Y-107300000D03*
X148845000Y-112700000D03*
X150115000Y-112700000D03*
X151385000Y-112700000D03*
X152655000Y-112700000D03*
%TD*%
D23*
%TO.C,C323*%
X132000000Y-77500000D03*
X131040000Y-77500000D03*
%TD*%
D38*
%TO.C,J402*%
X167525000Y-123750000D03*
D29*
X167525000Y-126250000D03*
X167525000Y-128750000D03*
X167525000Y-131250000D03*
X167525000Y-133750000D03*
X167525000Y-136250000D03*
%TD*%
D27*
%TO.C,H104*%
X169000000Y-142000000D03*
%TD*%
D28*
%TO.C,J407*%
X121000000Y-121500000D03*
D29*
X121000000Y-119000000D03*
X121000000Y-116500000D03*
X121000000Y-114000000D03*
X121000000Y-111500000D03*
X121000000Y-109000000D03*
%TD*%
D32*
%TO.C,C208*%
X132475000Y-122800000D03*
X130925000Y-122800000D03*
%TD*%
D40*
%TO.C,C209*%
X147550000Y-122650000D03*
X149100000Y-122650000D03*
%TD*%
D38*
%TO.C,J406*%
X167525000Y-103750000D03*
D29*
X167525000Y-106250000D03*
X167525000Y-108750000D03*
X167525000Y-111250000D03*
X167525000Y-113750000D03*
X167525000Y-116250000D03*
%TD*%
D30*
%TO.C,C320*%
X152500000Y-81980000D03*
X152500000Y-81020000D03*
%TD*%
D22*
%TO.C,R205*%
X129510000Y-124000000D03*
X128490000Y-124000000D03*
%TD*%
D33*
%TO.C,R401*%
X152500000Y-96240000D03*
X152500000Y-97260000D03*
%TD*%
D38*
%TO.C,J410*%
X159025000Y-58750000D03*
D29*
X159025000Y-61250000D03*
X159025000Y-63750000D03*
X159025000Y-66250000D03*
X159025000Y-68750000D03*
X159025000Y-71250000D03*
%TD*%
D38*
%TO.C,J413*%
X167525000Y-63750000D03*
D29*
X167525000Y-66250000D03*
X167525000Y-68750000D03*
X167525000Y-71250000D03*
X167525000Y-73750000D03*
X167525000Y-76250000D03*
%TD*%
D28*
%TO.C,J403*%
X121000000Y-141000000D03*
D29*
X121000000Y-138500000D03*
X121000000Y-136000000D03*
X121000000Y-133500000D03*
X121000000Y-131000000D03*
X121000000Y-128500000D03*
%TD*%
D41*
%TO.C,D203*%
X135387500Y-119500000D03*
X133812500Y-119500000D03*
%TD*%
D42*
%TO.C,J301*%
X137165000Y-74620000D03*
D43*
X137165000Y-72080000D03*
D42*
X137165000Y-69540000D03*
X133990000Y-74620000D03*
X133990000Y-69540000D03*
D43*
X132085000Y-73096000D03*
X132085000Y-71064000D03*
D44*
X135895000Y-71445000D03*
X135895000Y-72715000D03*
X134625000Y-71445000D03*
X134625000Y-72715000D03*
X133355000Y-71445000D03*
X133355000Y-72715000D03*
%TD*%
D28*
%TO.C,J416*%
X120975000Y-71250000D03*
D29*
X120975000Y-68750000D03*
X120975000Y-66250000D03*
X120975000Y-63750000D03*
X120975000Y-61250000D03*
X120975000Y-58750000D03*
%TD*%
D33*
%TO.C,R309*%
X127500000Y-94490000D03*
X127500000Y-95510000D03*
%TD*%
D28*
%TO.C,J411*%
X112475000Y-96250000D03*
D29*
X112475000Y-93750000D03*
X112475000Y-91250000D03*
X112475000Y-88750000D03*
X112475000Y-86250000D03*
X112475000Y-83750000D03*
%TD*%
D23*
%TO.C,C206*%
X127480000Y-124000000D03*
X126520000Y-124000000D03*
%TD*%
D30*
%TO.C,C310*%
X127499000Y-88702000D03*
X127499000Y-87742000D03*
%TD*%
D40*
%TO.C,C207*%
X147550000Y-121130000D03*
X149100000Y-121130000D03*
%TD*%
D36*
%TO.C,JP404*%
X128000000Y-68460000D03*
D37*
X128000000Y-71000000D03*
X128000000Y-73540000D03*
%TD*%
D35*
%TO.C,L201*%
X152850000Y-118000000D03*
X149150000Y-118000000D03*
%TD*%
D31*
%TO.C,C314*%
X137520000Y-77500000D03*
X138480000Y-77500000D03*
%TD*%
D45*
%TO.C,D304*%
X126400000Y-65650000D03*
X126400000Y-63550000D03*
%TD*%
D26*
%TO.C,R206*%
X145140000Y-120750000D03*
X146160000Y-120750000D03*
%TD*%
D46*
%TO.C,J303*%
X133890000Y-60680000D03*
X128110000Y-60680000D03*
D47*
X135325000Y-61170000D03*
X126675000Y-61170000D03*
D48*
X135325000Y-57000000D03*
X126675000Y-57000000D03*
%TD*%
D38*
%TO.C,J414*%
X159025000Y-78750000D03*
D29*
X159025000Y-81250000D03*
X159025000Y-83750000D03*
X159025000Y-86250000D03*
X159025000Y-88750000D03*
X159025000Y-91250000D03*
%TD*%
D23*
%TO.C,C317*%
X139480000Y-103500000D03*
X138520000Y-103500000D03*
%TD*%
D49*
%TO.C,S301*%
X137925000Y-60575000D03*
X137925000Y-56425000D03*
X140075000Y-60575000D03*
X140075000Y-56425000D03*
%TD*%
D31*
%TO.C,C324*%
X144510000Y-65300000D03*
X145470000Y-65300000D03*
%TD*%
D26*
%TO.C,R304*%
X139490000Y-65300000D03*
X140510000Y-65300000D03*
%TD*%
D33*
%TO.C,R308*%
X128500000Y-64990000D03*
X128500000Y-66010000D03*
%TD*%
D38*
%TO.C,J401*%
X159025000Y-128750000D03*
D29*
X159025000Y-131250000D03*
X159025000Y-133750000D03*
X159025000Y-136250000D03*
X159025000Y-138750000D03*
X159025000Y-141250000D03*
%TD*%
D50*
%TO.C,IC302*%
X131250000Y-101738000D03*
X131750000Y-101738000D03*
X132250000Y-101738000D03*
X132750000Y-101738000D03*
X133250000Y-101738000D03*
X133750000Y-101738000D03*
X134250000Y-101738000D03*
X134750000Y-101738000D03*
X135250000Y-101738000D03*
X135750000Y-101738000D03*
X136250000Y-101738000D03*
X136750000Y-101738000D03*
X137250000Y-101738000D03*
X137750000Y-101738000D03*
X138250000Y-101738000D03*
X138750000Y-101738000D03*
X139250000Y-101738000D03*
X139750000Y-101738000D03*
X140250000Y-101738000D03*
X140750000Y-101738000D03*
X141250000Y-101738000D03*
X141750000Y-101738000D03*
X142250000Y-101738000D03*
X142750000Y-101738000D03*
X143250000Y-101738000D03*
X143750000Y-101738000D03*
X144250000Y-101738000D03*
X144750000Y-101738000D03*
X145250000Y-101738000D03*
X145750000Y-101738000D03*
X146250000Y-101738000D03*
X146750000Y-101738000D03*
X147250000Y-101738000D03*
X147750000Y-101738000D03*
X148250000Y-101738000D03*
X148750000Y-101738000D03*
D51*
X150738000Y-99750000D03*
X150738000Y-99250000D03*
X150738000Y-98750000D03*
X150738000Y-98250000D03*
X150738000Y-97750000D03*
X150738000Y-97250000D03*
X150738000Y-96750000D03*
X150738000Y-96250000D03*
X150738000Y-95750000D03*
X150738000Y-95250000D03*
X150738000Y-94750000D03*
X150738000Y-94250000D03*
X150738000Y-93750000D03*
X150738000Y-93250000D03*
X150738000Y-92750000D03*
X150738000Y-92250000D03*
X150738000Y-91750000D03*
X150738000Y-91250000D03*
X150738000Y-90750000D03*
X150738000Y-90250000D03*
X150738000Y-89750000D03*
X150738000Y-89250000D03*
X150738000Y-88750000D03*
X150738000Y-88250000D03*
X150738000Y-87750000D03*
X150738000Y-87250000D03*
X150738000Y-86750000D03*
X150738000Y-86250000D03*
X150738000Y-85750000D03*
X150738000Y-85250000D03*
X150738000Y-84750000D03*
X150738000Y-84250000D03*
X150738000Y-83750000D03*
X150738000Y-83250000D03*
X150738000Y-82750000D03*
X150738000Y-82250000D03*
D50*
X148750000Y-80262000D03*
X148250000Y-80262000D03*
X147750000Y-80262000D03*
X147250000Y-80262000D03*
X146750000Y-80262000D03*
X146250000Y-80262000D03*
X145750000Y-80262000D03*
X145250000Y-80262000D03*
X144750000Y-80262000D03*
X144250000Y-80262000D03*
X143750000Y-80262000D03*
X143250000Y-80262000D03*
X142750000Y-80262000D03*
X142250000Y-80262000D03*
X141750000Y-80262000D03*
X141250000Y-80262000D03*
X140750000Y-80262000D03*
X140250000Y-80262000D03*
X139750000Y-80262000D03*
X139250000Y-80262000D03*
X138750000Y-80262000D03*
X138250000Y-80262000D03*
X137750000Y-80262000D03*
X137250000Y-80262000D03*
X136750000Y-80262000D03*
X136250000Y-80262000D03*
X135750000Y-80262000D03*
X135250000Y-80262000D03*
X134750000Y-80262000D03*
X134250000Y-80262000D03*
X133750000Y-80262000D03*
X133250000Y-80262000D03*
X132750000Y-80262000D03*
X132250000Y-80262000D03*
X131750000Y-80262000D03*
X131250000Y-80262000D03*
D51*
X129262000Y-82250000D03*
X129262000Y-82750000D03*
X129262000Y-83250000D03*
X129262000Y-83750000D03*
X129262000Y-84250000D03*
X129262000Y-84750000D03*
X129262000Y-85250000D03*
X129262000Y-85750000D03*
X129262000Y-86250000D03*
X129262000Y-86750000D03*
X129262000Y-87250000D03*
X129262000Y-87750000D03*
X129262000Y-88250000D03*
X129262000Y-88750000D03*
X129262000Y-89250000D03*
X129262000Y-89750000D03*
X129262000Y-90250000D03*
X129262000Y-90750000D03*
X129262000Y-91250000D03*
X129262000Y-91750000D03*
X129262000Y-92250000D03*
X129262000Y-92750000D03*
X129262000Y-93250000D03*
X129262000Y-93750000D03*
X129262000Y-94250000D03*
X129262000Y-94750000D03*
X129262000Y-95250000D03*
X129262000Y-95750000D03*
X129262000Y-96250000D03*
X129262000Y-96750000D03*
X129262000Y-97250000D03*
X129262000Y-97750000D03*
X129262000Y-98250000D03*
X129262000Y-98750000D03*
X129262000Y-99250000D03*
X129262000Y-99750000D03*
%TD*%
D34*
%TO.C,IC201*%
X151500000Y-121162000D03*
X151000000Y-121162000D03*
X150500000Y-121162000D03*
X150500000Y-122838000D03*
X151000000Y-122838000D03*
X151500000Y-122838000D03*
%TD*%
D23*
%TO.C,C405*%
X141480000Y-122500000D03*
X140520000Y-122500000D03*
%TD*%
D12*
%TO.C,U401*%
X161938000Y-103575000D03*
X161938000Y-102925000D03*
X161938000Y-102275000D03*
X161938000Y-101625000D03*
X161938000Y-100975000D03*
X161938000Y-100325000D03*
X161938000Y-99675000D03*
X161938000Y-99025000D03*
X161938000Y-98375000D03*
X161938000Y-97725000D03*
X161938000Y-97075000D03*
X161938000Y-96425000D03*
X156062000Y-96425000D03*
X156062000Y-97075000D03*
X156062000Y-97725000D03*
X156062000Y-98375000D03*
X156062000Y-99025000D03*
X156062000Y-99675000D03*
X156062000Y-100325000D03*
X156062000Y-100975000D03*
X156062000Y-101625000D03*
X156062000Y-102275000D03*
X156062000Y-102925000D03*
X156062000Y-103575000D03*
%TD*%
D28*
%TO.C,J408*%
X112475000Y-116250000D03*
D29*
X112475000Y-113750000D03*
X112475000Y-111250000D03*
X112475000Y-108750000D03*
X112475000Y-106250000D03*
X112475000Y-103750000D03*
%TD*%
D22*
%TO.C,R301*%
X148070000Y-72900000D03*
X147050000Y-72900000D03*
%TD*%
D33*
%TO.C,R315*%
X154000000Y-89500000D03*
X154000000Y-90520000D03*
%TD*%
D38*
%TO.C,J409*%
X167525000Y-83750000D03*
D29*
X167525000Y-86250000D03*
X167525000Y-88750000D03*
X167525000Y-91250000D03*
X167525000Y-93750000D03*
X167525000Y-96250000D03*
%TD*%
D22*
%TO.C,R312*%
X151300000Y-62320000D03*
X150280000Y-62320000D03*
%TD*%
D23*
%TO.C,C303*%
X138480000Y-65300000D03*
X137520000Y-65300000D03*
%TD*%
D22*
%TO.C,FB301*%
X145010000Y-104750000D03*
X143990000Y-104750000D03*
%TD*%
D21*
%TO.C,C321*%
X152500000Y-87020000D03*
X152500000Y-87980000D03*
%TD*%
D17*
%TO.C,R305*%
X148250000Y-130710000D03*
X148250000Y-129690000D03*
%TD*%
D22*
%TO.C,R303*%
X148070000Y-75900000D03*
X147050000Y-75900000D03*
%TD*%
D21*
%TO.C,C319*%
X152500000Y-83020000D03*
X152500000Y-83980000D03*
%TD*%
D52*
%TO.C,Q201*%
X132825000Y-132750000D03*
X132825000Y-132100000D03*
D53*
X132750000Y-131450000D03*
X130950000Y-131450000D03*
D52*
X130875000Y-132100000D03*
X130875000Y-132750000D03*
D54*
X131850000Y-131450000D03*
D55*
X131850000Y-132425000D03*
%TD*%
D56*
%TO.C,SW301*%
X144445000Y-127270000D03*
X144445000Y-124730000D03*
X135555000Y-124730000D03*
X135555000Y-127270000D03*
%TD*%
D30*
%TO.C,C407*%
X137600000Y-117480000D03*
X137600000Y-116520000D03*
%TD*%
D36*
%TO.C,JP401*%
X152000000Y-126460000D03*
D37*
X152000000Y-129000000D03*
X152000000Y-131540000D03*
%TD*%
D28*
%TO.C,J404*%
X112475000Y-136250000D03*
D29*
X112475000Y-133750000D03*
X112475000Y-131250000D03*
X112475000Y-128750000D03*
X112475000Y-126250000D03*
X112475000Y-123750000D03*
%TD*%
D57*
%TO.C,U404*%
X139237499Y-116250000D03*
X139237499Y-116750000D03*
X139237499Y-117250000D03*
X139237499Y-117750000D03*
D58*
X139749999Y-117762500D03*
X140249999Y-117762500D03*
D57*
X140762499Y-117750000D03*
X140762499Y-117250000D03*
X140762499Y-116750000D03*
X140762499Y-116250000D03*
D58*
X140249999Y-116237500D03*
X139749999Y-116237500D03*
%TD*%
D59*
%TO.C,D201*%
X131500000Y-129250000D03*
X131500000Y-125750000D03*
%TD*%
D49*
%TO.C,S302*%
X142925000Y-60575000D03*
X142925000Y-56425000D03*
X145075000Y-60575000D03*
X145075000Y-56425000D03*
%TD*%
M02*
