M48
; DRILL file {KiCad 7.0.1} date Mon Jul 17 00:48:36 2023
; FORMAT={-:-/ absolute / inch / decimal}
; #@! TF.CreationDate,2023-07-17T00:48:36+01:00
; #@! TF.GenerationSoftware,Kicad,Pcbnew,7.0.1
; #@! TF.FileFunction,Plated,1,4,PTH
FMAT,2
INCH
; #@! TA.AperFunction,Plated,PTH,ViaDrill
T1C0.0079
; #@! TA.AperFunction,Plated,PTH,ComponentDrill
T2C0.0236
; #@! TA.AperFunction,Plated,PTH,ComponentDrill
T3C0.0374
; #@! TA.AperFunction,Plated,PTH,ComponentDrill
T4C0.0394
; #@! TA.AperFunction,Plated,PTH,ComponentDrill
T5C0.0598
; #@! TA.AperFunction,Plated,PTH,ComponentDrill
T6C0.1260
%
G90
G05
T1
X4.5079Y-3.2972
X4.5079Y-3.3957
X4.5335Y-4.2028
X4.5472Y-2.687
X4.5472Y-2.7264
X4.5541Y-4.1728
X4.5748Y-4.2028
X4.5955Y-4.1732
X4.6024Y-4.0008
X4.6171Y-3.2972
X4.626Y-2.687
X4.626Y-2.7264
X4.6368Y-3.3957
X4.7047Y-4.0965
X4.7433Y-4.0975
X4.7499Y-4.0018
X4.7502Y-4.0376
X4.9252Y-4.7598
X4.9252Y-4.7874
X4.9256Y-4.078
X4.926Y-4.0524
X4.9262Y-3.7963
X4.9331Y-3.9803
X4.937Y-4.7283
X4.9567Y-4.0
X4.9646Y-4.7283
X4.9888Y-3.7989
X4.9896Y-3.7598
X4.9902Y-3.6799
X4.9902Y-3.8386
X4.9902Y-3.9382
X4.9905Y-3.4544
X4.9905Y-3.4922
X4.9906Y-3.6425
X4.9906Y-3.9752
X5.0118Y-4.7323
X5.0197Y-4.3307
X5.0197Y-4.4685
X5.02Y-4.095
X5.0315Y-2.4724
X5.0433Y-4.7323
X5.0433Y-4.7598
X5.0492Y-4.124
X5.0492Y-4.1535
X5.0492Y-4.1831
X5.0492Y-4.2126
X5.0591Y-2.628
X5.063Y-2.4724
X5.0791Y-4.9189
X5.1063Y-4.7146
X5.1063Y-4.7421
X5.1181Y-5.0079
X5.1181Y-5.0472
X5.1185Y-3.0606
X5.124Y-4.8051
X5.1339Y-4.7146
X5.1378Y-4.5669
X5.1398Y-2.4925
X5.1417Y-3.7598
X5.1535Y-3.7362
X5.1575Y-4.4685
X5.1575Y-5.0079
X5.1575Y-5.0472
X5.1591Y-3.0173
X5.1614Y-4.7146
X5.1697Y-4.0799
X5.1707Y-2.4912
X5.1772Y-2.5787
X5.1772Y-2.6673
X5.1772Y-4.5669
X5.1787Y-2.9992
X5.185Y-4.7441
X5.185Y-4.8051
X5.1917Y-4.098
X5.1968Y-2.9811
X5.1969Y-5.0079
X5.1969Y-5.0472
X5.2018Y-2.4903
X5.2024Y-2.7484
X5.2067Y-3.9591
X5.2165Y-3.2591
X5.2165Y-3.3858
X5.2165Y-4.5669
X5.2165Y-4.6063
X5.2165Y-4.6457
X5.2165Y-4.685
X5.2176Y-4.1011
X5.2231Y-2.9824
X5.2264Y-3.2075
X5.2343Y-2.3677
X5.2362Y-3.9602
X5.2504Y-3.2787
X5.252Y-2.4724
X5.2555Y-4.1016
X5.2591Y-3.3862
X5.2795Y-4.7835
X5.2835Y-2.4724
X5.2854Y-3.9597
X5.2913Y-3.0406
X5.2913Y-3.2201
X5.2933Y-2.628
X5.2953Y-4.6063
X5.315Y-4.2815
X5.3445Y-3.9567
X5.3543Y-4.2815
X5.3618Y-4.6031
X5.3642Y-4.0551
X5.378Y-4.687
X5.378Y-4.7815
X5.3839Y-3.9567
X5.3858Y-2.5709
X5.3858Y-3.0512
X5.3858Y-4.5575
X5.3862Y-3.0906
X5.4315Y-4.0972
X5.4378Y-4.7638
X5.4492Y-4.5969
X5.4528Y-2.8025
X5.4528Y-2.8728
X5.4598Y-4.6768
X5.4665Y-4.4768
X5.4685Y-4.7913
X5.4803Y-3.0508
X5.4803Y-3.0906
X5.4925Y-4.8524
X5.4988Y-3.9472
X5.5008Y-4.735
X5.5118Y-4.6063
X5.5118Y-4.6563
X5.5146Y-2.4224
X5.5157Y-4.0984
X5.5217Y-2.8642
X5.5217Y-2.9921
X5.5252Y-4.735
X5.5315Y-4.2815
X5.5323Y-4.852
X5.5413Y-4.0516
X5.56Y-5.1181
X5.5697Y-4.7909
X5.5709Y-2.5717
X5.5709Y-4.2815
X5.576Y-4.0929
X5.5846Y-3.9472
X5.6004Y-4.7154
X5.6063Y-4.5581
X5.6299Y-4.7819
X5.6307Y-3.061
X5.6354Y-4.6248
X5.6417Y-4.0846
X5.6417Y-4.124
X5.65Y-4.1846
X5.65Y-4.2193
X5.65Y-4.1555
X5.6512Y-4.2567
X5.6524Y-4.3224
X5.6539Y-4.3516
X5.6596Y-4.0514
X5.6685Y-3.061
X5.6693Y-3.9602
X5.6868Y-4.8443
X5.6882Y-4.1602
X5.7085Y-3.9602
X5.7114Y-2.4224
X5.7319Y-4.6626
X5.7539Y-4.7843
X5.7555Y-2.5713
X5.7673Y-4.1488
X5.7941Y-4.9461
X5.7953Y-5.0429
X5.8366Y-2.4236
X5.8563Y-3.7904
X5.8563Y-3.8189
X5.8577Y-2.752
X5.8577Y-2.8691
X5.8577Y-2.9882
X5.8602Y-4.4839
X5.8701Y-4.7988
X5.878Y-4.04
X5.8892Y-3.5627
X5.8892Y-3.6025
X5.8893Y-3.8484
X5.8893Y-3.8778
X5.8937Y-4.0846
X5.8937Y-4.124
X5.9043Y-4.7701
X5.9094Y-4.1772
X5.9106Y-4.4846
X5.9291Y-3.9606
X5.9551Y-2.4193
X5.9596Y-4.1772
X5.9602Y-4.4846
X5.9685Y-3.9606
X5.9795Y-4.0894
X5.9949Y-2.4193
X6.0331Y-3.2276
X6.0331Y-3.426
X6.0331Y-3.6228
X6.0335Y-3.1894
X6.0335Y-3.3063
X6.0335Y-4.8331
X6.0339Y-3.4638
X6.0339Y-3.6606
X6.0339Y-3.8787
X6.0339Y-3.9165
X6.0453Y-4.5236
X6.0453Y-4.5512
X6.0531Y-3.7697
X6.0555Y-4.9118
X6.063Y-4.861
X6.0728Y-4.5236
X6.0728Y-4.5512
X6.0819Y-4.9394
X6.0819Y-4.9626
X6.0925Y-3.7697
X6.0929Y-3.5236
X6.0984Y-4.001
X6.1319Y-2.9528
X6.1319Y-2.9823
X6.1319Y-3.2185
X6.1319Y-3.248
X6.1319Y-3.3465
X6.1319Y-3.4449
X6.1319Y-5.0295
X6.1319Y-5.128
X6.1614Y-5.0295
X6.1614Y-5.128
X6.1634Y-4.1102
X6.2016Y-4.0947
X6.2394Y-4.0947
X6.3301Y-4.0266
X6.4213Y-4.0522
X6.4213Y-4.0778
X6.4222Y-3.7963
X6.4872Y-3.248
X6.4872Y-3.2776
X6.4961Y-2.9724
X6.4961Y-3.002
X6.4961Y-3.3465
X6.4961Y-3.4449
X6.5207Y-3.8533
X6.5354Y-3.8287
X6.5945Y-4.685
X6.5945Y-4.7244
X6.6142Y-3.2185
X6.624Y-4.6555
X6.6339Y-3.1988
X6.6732Y-3.2776
X6.6929Y-3.2579
T3
X4.4281Y-2.5098
X4.4281Y-2.6083
X4.4281Y-2.7067
X4.4281Y-2.8051
X4.4281Y-2.9035
X4.4281Y-3.002
X4.4281Y-3.2972
X4.4281Y-3.3957
X4.4281Y-3.4941
X4.4281Y-3.5925
X4.4281Y-3.6909
X4.4281Y-3.7894
X4.4281Y-4.0846
X4.4281Y-4.1831
X4.4281Y-4.2815
X4.4281Y-4.3799
X4.4281Y-4.4783
X4.4281Y-4.5768
X4.4281Y-4.872
X4.4281Y-4.9705
X4.4281Y-5.0689
X4.4281Y-5.1673
X4.4281Y-5.2657
X4.4281Y-5.3642
X4.7628Y-2.313
X4.7628Y-2.4114
X4.7628Y-2.5098
X4.7628Y-2.6083
X4.7628Y-2.7067
X4.7628Y-2.8051
X4.7628Y-3.1004
X4.7628Y-3.1988
X4.7628Y-3.2972
X4.7628Y-3.3957
X4.7628Y-3.4941
X4.7628Y-3.5925
X4.7638Y-4.2913
X4.7638Y-4.3898
X4.7638Y-4.4882
X4.7638Y-4.5866
X4.7638Y-4.685
X4.7638Y-4.7835
X4.7638Y-5.0591
X4.7638Y-5.1575
X4.7638Y-5.2559
X4.7638Y-5.3543
X4.7638Y-5.4528
X4.7638Y-5.5512
X6.2608Y-2.313
X6.2608Y-2.4114
X6.2608Y-2.5098
X6.2608Y-2.6083
X6.2608Y-2.7067
X6.2608Y-2.8051
X6.2608Y-3.1004
X6.2608Y-3.1988
X6.2608Y-3.2972
X6.2608Y-3.3957
X6.2608Y-3.4941
X6.2608Y-3.5925
X6.2608Y-4.2815
X6.2608Y-4.3799
X6.2608Y-4.4783
X6.2608Y-4.5768
X6.2608Y-4.6752
X6.2608Y-4.7736
X6.2608Y-5.0689
X6.2608Y-5.1673
X6.2608Y-5.2657
X6.2608Y-5.3642
X6.2608Y-5.4626
X6.2608Y-5.561
X6.5955Y-2.5098
X6.5955Y-2.6083
X6.5955Y-2.7067
X6.5955Y-2.8051
X6.5955Y-2.9035
X6.5955Y-3.002
X6.5955Y-3.2972
X6.5955Y-3.3957
X6.5955Y-3.4941
X6.5955Y-3.5925
X6.5955Y-3.6909
X6.5955Y-3.7894
X6.5955Y-4.0846
X6.5955Y-4.1831
X6.5955Y-4.2815
X6.5955Y-4.3799
X6.5955Y-4.4783
X6.5955Y-4.5768
X6.5955Y-4.872
X6.5955Y-4.9705
X6.5955Y-5.0689
X6.5955Y-5.1673
X6.5955Y-5.2657
X6.5955Y-5.3642
T4
X5.0394Y-2.6953
X5.0394Y-2.7953
X5.0394Y-2.8953
X5.0394Y-4.9787
X5.0394Y-5.0787
X5.0394Y-5.1787
X5.9843Y-2.6959
X5.9843Y-2.7959
X5.9843Y-2.8959
X5.9843Y-4.9787
X5.9843Y-5.0787
X5.9843Y-5.1787
T5
X5.0756Y-5.4331
X5.2756Y-5.4331
X5.5268Y-5.4331
X5.7268Y-5.4331
X5.9268Y-5.4331
T6
X4.3701Y-2.2835
X4.3701Y-5.5906
X6.6535Y-2.2835
X6.6535Y-5.5906
T2
G00X4.9872Y-2.2598
M15
G01X4.9872Y-2.2283
M16
G05
G00X4.9872Y-2.4299
M15
G01X4.9872Y-2.3866
M16
G05
G00X5.3278Y-2.2598
M15
G01X5.3278Y-2.2283
M16
G05
G00X5.3278Y-2.4299
M15
G01X5.3278Y-2.3866
M16
G05
T0
M30
