%TF.GenerationSoftware,KiCad,Pcbnew,7.0.1*%
%TF.CreationDate,2023-07-17T00:48:37+01:00*%
%TF.ProjectId,Sensor Hub Board,53656e73-6f72-4204-9875-6220426f6172,rev?*%
%TF.SameCoordinates,Original*%
%TF.FileFunction,Drillmap*%
%TF.FilePolarity,Positive*%
%FSLAX45Y45*%
G04 Gerber Fmt 4.5, Leading zero omitted, Abs format (unit mm)*
G04 Created by KiCad (PCBNEW 7.0.1) date 2023-07-17 00:48:37*
%MOMM*%
%LPD*%
G01*
G04 APERTURE LIST*
%ADD10C,0.100000*%
%ADD11C,0.200000*%
%ADD12C,0.020000*%
%ADD13C,0.060000*%
%ADD14C,0.095000*%
%ADD15C,0.152000*%
%ADD16C,0.320000*%
G04 APERTURE END LIST*
D10*
X10800000Y-14200000D02*
G75*
G03*
X11100000Y-14500000I300000J0D01*
G01*
X16887868Y-14499998D02*
G75*
G03*
X17187868Y-14200000I2J299998D01*
G01*
X17200000Y-5800000D02*
G75*
G03*
X16900000Y-5500000I-300000J0D01*
G01*
X17200000Y-5800000D02*
X17187868Y-14200000D01*
X11100000Y-5500000D02*
X16900000Y-5500000D01*
X10800000Y-14200000D02*
X10800000Y-5800000D01*
X11100000Y-5500000D02*
G75*
G03*
X10800000Y-5800000I0J-300000D01*
G01*
X16887868Y-14500000D02*
X11100000Y-14500000D01*
D11*
D12*
X11440000Y-8365000D02*
X11460000Y-8385000D01*
X11460000Y-8365000D02*
X11440000Y-8385000D01*
X11440000Y-8615000D02*
X11460000Y-8635000D01*
X11460000Y-8615000D02*
X11440000Y-8635000D01*
X11505150Y-10665000D02*
X11525150Y-10685000D01*
X11525150Y-10665000D02*
X11505150Y-10685000D01*
X11540000Y-6815000D02*
X11560000Y-6835000D01*
X11560000Y-6815000D02*
X11540000Y-6835000D01*
X11540000Y-6915000D02*
X11560000Y-6935000D01*
X11560000Y-6915000D02*
X11540000Y-6935000D01*
X11557400Y-10589000D02*
X11577400Y-10609000D01*
X11577400Y-10589000D02*
X11557400Y-10609000D01*
X11610100Y-10665000D02*
X11630100Y-10685000D01*
X11630100Y-10665000D02*
X11610100Y-10685000D01*
X11662550Y-10590000D02*
X11682550Y-10610000D01*
X11682550Y-10590000D02*
X11662550Y-10610000D01*
X11680000Y-10152000D02*
X11700000Y-10172000D01*
X11700000Y-10152000D02*
X11680000Y-10172000D01*
X11717450Y-8365000D02*
X11737450Y-8385000D01*
X11737450Y-8365000D02*
X11717450Y-8385000D01*
X11740000Y-6815000D02*
X11760000Y-6835000D01*
X11760000Y-6815000D02*
X11740000Y-6835000D01*
X11740000Y-6915000D02*
X11760000Y-6935000D01*
X11760000Y-6915000D02*
X11740000Y-6935000D01*
X11767450Y-8615000D02*
X11787450Y-8635000D01*
X11787450Y-8615000D02*
X11767450Y-8635000D01*
X11940000Y-10395000D02*
X11960000Y-10415000D01*
X11960000Y-10395000D02*
X11940000Y-10415000D01*
X12038000Y-10397550D02*
X12058000Y-10417550D01*
X12058000Y-10397550D02*
X12038000Y-10417550D01*
X12054623Y-10154623D02*
X12074623Y-10174623D01*
X12074623Y-10154623D02*
X12054623Y-10174623D01*
X12055400Y-10245400D02*
X12075400Y-10265400D01*
X12075400Y-10245400D02*
X12055400Y-10265400D01*
X12500000Y-12080000D02*
X12520000Y-12100000D01*
X12520000Y-12080000D02*
X12500000Y-12100000D01*
X12500000Y-12150000D02*
X12520000Y-12170000D01*
X12520000Y-12150000D02*
X12500000Y-12170000D01*
X12501000Y-10348000D02*
X12521000Y-10368000D01*
X12521000Y-10348000D02*
X12501000Y-10368000D01*
X12502000Y-10283000D02*
X12522000Y-10303000D01*
X12522000Y-10283000D02*
X12502000Y-10303000D01*
X12502500Y-9632500D02*
X12522500Y-9652500D01*
X12522500Y-9632500D02*
X12502500Y-9652500D01*
X12520000Y-10100000D02*
X12540000Y-10120000D01*
X12540000Y-10100000D02*
X12520000Y-10120000D01*
X12530000Y-12000000D02*
X12550000Y-12020000D01*
X12550000Y-12000000D02*
X12530000Y-12020000D01*
X12580000Y-10150000D02*
X12600000Y-10170000D01*
X12600000Y-10150000D02*
X12580000Y-10170000D01*
X12600000Y-12000000D02*
X12620000Y-12020000D01*
X12620000Y-12000000D02*
X12600000Y-12020000D01*
X12661500Y-9639300D02*
X12681500Y-9659300D01*
X12681500Y-9639300D02*
X12661500Y-9659300D01*
X12663700Y-9540000D02*
X12683700Y-9560000D01*
X12683700Y-9540000D02*
X12663700Y-9560000D01*
X12665000Y-9337000D02*
X12685000Y-9357000D01*
X12685000Y-9337000D02*
X12665000Y-9357000D01*
X12665000Y-9740000D02*
X12685000Y-9760000D01*
X12685000Y-9740000D02*
X12665000Y-9760000D01*
X12665000Y-9993000D02*
X12685000Y-10013000D01*
X12685000Y-9993000D02*
X12665000Y-10013000D01*
X12665900Y-8764200D02*
X12685900Y-8784200D01*
X12685900Y-8764200D02*
X12665900Y-8784200D01*
X12665900Y-8860200D02*
X12685900Y-8880200D01*
X12685900Y-8860200D02*
X12665900Y-8880200D01*
X12666000Y-9242000D02*
X12686000Y-9262000D01*
X12686000Y-9242000D02*
X12666000Y-9262000D01*
X12666000Y-10087000D02*
X12686000Y-10107000D01*
X12686000Y-10087000D02*
X12666000Y-10107000D01*
X12720000Y-12010000D02*
X12740000Y-12030000D01*
X12740000Y-12010000D02*
X12720000Y-12030000D01*
X12740000Y-10990000D02*
X12760000Y-11010000D01*
X12760000Y-10990000D02*
X12740000Y-11010000D01*
X12740000Y-11340000D02*
X12760000Y-11360000D01*
X12760000Y-11340000D02*
X12740000Y-11360000D01*
X12740700Y-10391300D02*
X12760700Y-10411300D01*
X12760700Y-10391300D02*
X12740700Y-10411300D01*
X12770000Y-6270000D02*
X12790000Y-6290000D01*
X12790000Y-6270000D02*
X12770000Y-6290000D01*
X12800000Y-12010000D02*
X12820000Y-12030000D01*
X12820000Y-12010000D02*
X12800000Y-12030000D01*
X12800000Y-12080000D02*
X12820000Y-12100000D01*
X12820000Y-12080000D02*
X12800000Y-12100000D01*
X12815000Y-10465000D02*
X12835000Y-10485000D01*
X12835000Y-10465000D02*
X12815000Y-10485000D01*
X12815000Y-10540000D02*
X12835000Y-10560000D01*
X12835000Y-10540000D02*
X12815000Y-10560000D01*
X12815000Y-10615000D02*
X12835000Y-10635000D01*
X12835000Y-10615000D02*
X12815000Y-10635000D01*
X12815000Y-10690000D02*
X12835000Y-10710000D01*
X12835000Y-10690000D02*
X12815000Y-10710000D01*
X12840000Y-6665000D02*
X12860000Y-6685000D01*
X12860000Y-6665000D02*
X12840000Y-6685000D01*
X12850000Y-6270000D02*
X12870000Y-6290000D01*
X12870000Y-6270000D02*
X12850000Y-6290000D01*
X12891000Y-12484000D02*
X12911000Y-12504000D01*
X12911000Y-12484000D02*
X12891000Y-12504000D01*
X12960000Y-11965000D02*
X12980000Y-11985000D01*
X12980000Y-11965000D02*
X12960000Y-11985000D01*
X12960000Y-12035000D02*
X12980000Y-12055000D01*
X12980000Y-12035000D02*
X12960000Y-12055000D01*
X12990000Y-12710000D02*
X13010000Y-12730000D01*
X13010000Y-12710000D02*
X12990000Y-12730000D01*
X12990000Y-12810000D02*
X13010000Y-12830000D01*
X13010000Y-12810000D02*
X12990000Y-12830000D01*
X12991000Y-7764000D02*
X13011000Y-7784000D01*
X13011000Y-7764000D02*
X12991000Y-7784000D01*
X13005000Y-12195000D02*
X13025000Y-12215000D01*
X13025000Y-12195000D02*
X13005000Y-12215000D01*
X13030000Y-11965000D02*
X13050000Y-11985000D01*
X13050000Y-11965000D02*
X13030000Y-11985000D01*
X13040000Y-11590000D02*
X13060000Y-11610000D01*
X13060000Y-11590000D02*
X13040000Y-11610000D01*
X13045000Y-6321000D02*
X13065000Y-6341000D01*
X13065000Y-6321000D02*
X13045000Y-6341000D01*
X13050000Y-9540000D02*
X13070000Y-9560000D01*
X13070000Y-9540000D02*
X13050000Y-9560000D01*
X13080000Y-9480000D02*
X13100000Y-9500000D01*
X13100000Y-9480000D02*
X13080000Y-9500000D01*
X13090000Y-11340000D02*
X13110000Y-11360000D01*
X13110000Y-11340000D02*
X13090000Y-11360000D01*
X13090000Y-12710000D02*
X13110000Y-12730000D01*
X13110000Y-12710000D02*
X13090000Y-12730000D01*
X13090000Y-12810000D02*
X13110000Y-12830000D01*
X13110000Y-12810000D02*
X13090000Y-12830000D01*
X13094000Y-7654000D02*
X13114000Y-7674000D01*
X13114000Y-7654000D02*
X13094000Y-7674000D01*
X13100000Y-11965000D02*
X13120000Y-11985000D01*
X13120000Y-11965000D02*
X13100000Y-11985000D01*
X13121000Y-10353000D02*
X13141000Y-10373000D01*
X13141000Y-10353000D02*
X13121000Y-10373000D01*
X13123623Y-6317566D02*
X13143623Y-6337566D01*
X13143623Y-6317566D02*
X13123623Y-6337566D01*
X13140000Y-6540000D02*
X13160000Y-6560000D01*
X13160000Y-6540000D02*
X13140000Y-6560000D01*
X13140000Y-6765000D02*
X13160000Y-6785000D01*
X13160000Y-6765000D02*
X13140000Y-6785000D01*
X13140000Y-11590000D02*
X13160000Y-11610000D01*
X13160000Y-11590000D02*
X13140000Y-11610000D01*
X13144019Y-7607981D02*
X13164019Y-7627981D01*
X13164019Y-7607981D02*
X13144019Y-7627981D01*
X13160000Y-12040000D02*
X13180000Y-12060000D01*
X13180000Y-12040000D02*
X13160000Y-12060000D01*
X13160000Y-12195000D02*
X13180000Y-12215000D01*
X13180000Y-12195000D02*
X13160000Y-12215000D01*
X13177000Y-10399000D02*
X13197000Y-10419000D01*
X13197000Y-10399000D02*
X13177000Y-10419000D01*
X13189981Y-7562019D02*
X13209981Y-7582019D01*
X13209981Y-7562019D02*
X13189981Y-7582019D01*
X13190000Y-12710000D02*
X13210000Y-12730000D01*
X13210000Y-12710000D02*
X13190000Y-12730000D01*
X13190000Y-12810000D02*
X13210000Y-12830000D01*
X13210000Y-12810000D02*
X13190000Y-12830000D01*
X13202645Y-6315355D02*
X13222645Y-6335355D01*
X13222645Y-6315355D02*
X13202645Y-6335355D01*
X13204000Y-6971000D02*
X13224000Y-6991000D01*
X13224000Y-6971000D02*
X13204000Y-6991000D01*
X13215000Y-10046000D02*
X13235000Y-10066000D01*
X13235000Y-10046000D02*
X13215000Y-10066000D01*
X13240000Y-8268000D02*
X13260000Y-8288000D01*
X13260000Y-8268000D02*
X13240000Y-8288000D01*
X13240000Y-8590000D02*
X13260000Y-8610000D01*
X13260000Y-8590000D02*
X13240000Y-8610000D01*
X13240000Y-11590000D02*
X13260000Y-11610000D01*
X13260000Y-11590000D02*
X13240000Y-11610000D01*
X13240000Y-11690000D02*
X13260000Y-11710000D01*
X13260000Y-11690000D02*
X13240000Y-11710000D01*
X13240000Y-11790000D02*
X13260000Y-11810000D01*
X13260000Y-11790000D02*
X13240000Y-11810000D01*
X13240000Y-11890000D02*
X13260000Y-11910000D01*
X13260000Y-11890000D02*
X13240000Y-11910000D01*
X13242661Y-10406883D02*
X13262661Y-10426883D01*
X13262661Y-10406883D02*
X13242661Y-10426883D01*
X13256765Y-7565234D02*
X13276765Y-7585234D01*
X13276765Y-7565234D02*
X13256765Y-7585234D01*
X13265000Y-8137000D02*
X13285000Y-8157000D01*
X13285000Y-8137000D02*
X13265000Y-8157000D01*
X13285000Y-6004000D02*
X13305000Y-6024000D01*
X13305000Y-6004000D02*
X13285000Y-6024000D01*
X13289953Y-10048806D02*
X13309953Y-10068806D01*
X13309953Y-10048806D02*
X13289953Y-10068806D01*
X13326000Y-8318000D02*
X13346000Y-8338000D01*
X13346000Y-8318000D02*
X13326000Y-8338000D01*
X13330000Y-6270000D02*
X13350000Y-6290000D01*
X13350000Y-6270000D02*
X13330000Y-6290000D01*
X13339000Y-10408000D02*
X13359000Y-10428000D01*
X13359000Y-10408000D02*
X13339000Y-10428000D01*
X13348000Y-8591000D02*
X13368000Y-8611000D01*
X13368000Y-8591000D02*
X13348000Y-8611000D01*
X13400000Y-12140000D02*
X13420000Y-12160000D01*
X13420000Y-12140000D02*
X13400000Y-12160000D01*
X13410000Y-6270000D02*
X13430000Y-6290000D01*
X13430000Y-6270000D02*
X13410000Y-6290000D01*
X13415000Y-10047600D02*
X13435000Y-10067600D01*
X13435000Y-10047600D02*
X13415000Y-10067600D01*
X13430000Y-7713000D02*
X13450000Y-7733000D01*
X13450000Y-7713000D02*
X13430000Y-7733000D01*
X13430000Y-8169000D02*
X13450000Y-8189000D01*
X13450000Y-8169000D02*
X13430000Y-8189000D01*
X13435000Y-6665000D02*
X13455000Y-6685000D01*
X13455000Y-6665000D02*
X13435000Y-6685000D01*
X13440000Y-11690000D02*
X13460000Y-11710000D01*
X13460000Y-11690000D02*
X13440000Y-11710000D01*
X13490000Y-10865000D02*
X13510000Y-10885000D01*
X13510000Y-10865000D02*
X13490000Y-10885000D01*
X13565000Y-10040000D02*
X13585000Y-10060000D01*
X13585000Y-10040000D02*
X13565000Y-10060000D01*
X13590000Y-10865000D02*
X13610000Y-10885000D01*
X13610000Y-10865000D02*
X13590000Y-10885000D01*
X13609000Y-11682000D02*
X13629000Y-11702000D01*
X13629000Y-11682000D02*
X13609000Y-11702000D01*
X13615000Y-10290000D02*
X13635000Y-10310000D01*
X13635000Y-10290000D02*
X13615000Y-10310000D01*
X13650000Y-11895000D02*
X13670000Y-11915000D01*
X13670000Y-11895000D02*
X13650000Y-11915000D01*
X13650000Y-12135000D02*
X13670000Y-12155000D01*
X13670000Y-12135000D02*
X13650000Y-12155000D01*
X13665000Y-10040000D02*
X13685000Y-10060000D01*
X13685000Y-10040000D02*
X13665000Y-10060000D01*
X13670000Y-6520000D02*
X13690000Y-6540000D01*
X13690000Y-6520000D02*
X13670000Y-6540000D01*
X13670000Y-7740000D02*
X13690000Y-7760000D01*
X13690000Y-7740000D02*
X13670000Y-7760000D01*
X13670000Y-11566000D02*
X13690000Y-11586000D01*
X13690000Y-11566000D02*
X13670000Y-11586000D01*
X13671000Y-7840000D02*
X13691000Y-7860000D01*
X13691000Y-7840000D02*
X13671000Y-7860000D01*
X13786000Y-10397000D02*
X13806000Y-10417000D01*
X13806000Y-10397000D02*
X13786000Y-10417000D01*
X13802000Y-12090000D02*
X13822000Y-12110000D01*
X13822000Y-12090000D02*
X13802000Y-12110000D01*
X13831000Y-11666000D02*
X13851000Y-11686000D01*
X13851000Y-11666000D02*
X13831000Y-11686000D01*
X13840000Y-7108470D02*
X13860000Y-7128470D01*
X13860000Y-7108470D02*
X13840000Y-7128470D01*
X13840000Y-7287000D02*
X13860000Y-7307000D01*
X13860000Y-7287000D02*
X13840000Y-7307000D01*
X13858000Y-11869000D02*
X13878000Y-11889000D01*
X13878000Y-11869000D02*
X13858000Y-11889000D01*
X13875000Y-11361000D02*
X13895000Y-11381000D01*
X13895000Y-11361000D02*
X13875000Y-11381000D01*
X13880000Y-12160000D02*
X13900000Y-12180000D01*
X13900000Y-12160000D02*
X13880000Y-12180000D01*
X13910000Y-7739000D02*
X13930000Y-7759000D01*
X13930000Y-7739000D02*
X13910000Y-7759000D01*
X13910000Y-7840000D02*
X13930000Y-7860000D01*
X13930000Y-7840000D02*
X13910000Y-7860000D01*
X13941000Y-12315000D02*
X13961000Y-12335000D01*
X13961000Y-12315000D02*
X13941000Y-12335000D01*
X13957000Y-10016000D02*
X13977000Y-10036000D01*
X13977000Y-10016000D02*
X13957000Y-10036000D01*
X13962000Y-12017000D02*
X13982000Y-12037000D01*
X13982000Y-12017000D02*
X13962000Y-12037000D01*
X13990000Y-11690000D02*
X14010000Y-11710000D01*
X14010000Y-11690000D02*
X13990000Y-11710000D01*
X13990000Y-11817000D02*
X14010000Y-11837000D01*
X14010000Y-11817000D02*
X13990000Y-11837000D01*
X13997000Y-6143000D02*
X14017000Y-6163000D01*
X14017000Y-6143000D02*
X13997000Y-6163000D01*
X14000000Y-10400000D02*
X14020000Y-10420000D01*
X14020000Y-10400000D02*
X14000000Y-10420000D01*
X14015000Y-7265000D02*
X14035000Y-7285000D01*
X14035000Y-7265000D02*
X14015000Y-7285000D01*
X14015000Y-7590000D02*
X14035000Y-7610000D01*
X14035000Y-7590000D02*
X14015000Y-7610000D01*
X14024000Y-12017000D02*
X14044000Y-12037000D01*
X14044000Y-12017000D02*
X14024000Y-12037000D01*
X14040000Y-10865000D02*
X14060000Y-10885000D01*
X14060000Y-10865000D02*
X14040000Y-10885000D01*
X14042000Y-12314000D02*
X14062000Y-12334000D01*
X14062000Y-12314000D02*
X14042000Y-12334000D01*
X14065000Y-10281000D02*
X14085000Y-10301000D01*
X14085000Y-10281000D02*
X14065000Y-10301000D01*
X14112500Y-12990000D02*
X14132500Y-13010000D01*
X14132500Y-12990000D02*
X14112500Y-13010000D01*
X14137000Y-12159000D02*
X14157000Y-12179000D01*
X14157000Y-12159000D02*
X14137000Y-12179000D01*
X14140000Y-6522000D02*
X14160000Y-6542000D01*
X14160000Y-6522000D02*
X14140000Y-6542000D01*
X14140000Y-10865000D02*
X14160000Y-10885000D01*
X14160000Y-10865000D02*
X14140000Y-10885000D01*
X14153000Y-10386000D02*
X14173000Y-10406000D01*
X14173000Y-10386000D02*
X14153000Y-10406000D01*
X14175000Y-10016000D02*
X14195000Y-10036000D01*
X14195000Y-10016000D02*
X14175000Y-10036000D01*
X14215000Y-11967000D02*
X14235000Y-11987000D01*
X14235000Y-11967000D02*
X14215000Y-11987000D01*
X14230000Y-11567500D02*
X14250000Y-11587500D01*
X14250000Y-11567500D02*
X14230000Y-11587500D01*
X14290000Y-12136000D02*
X14310000Y-12156000D01*
X14310000Y-12136000D02*
X14290000Y-12156000D01*
X14292000Y-7765000D02*
X14312000Y-7785000D01*
X14312000Y-7765000D02*
X14292000Y-7785000D01*
X14304000Y-11737000D02*
X14324000Y-11757000D01*
X14324000Y-11737000D02*
X14304000Y-11757000D01*
X14320000Y-10365000D02*
X14340000Y-10385000D01*
X14340000Y-10365000D02*
X14320000Y-10385000D01*
X14320000Y-10465000D02*
X14340000Y-10485000D01*
X14340000Y-10465000D02*
X14320000Y-10485000D01*
X14341000Y-10619000D02*
X14361000Y-10639000D01*
X14361000Y-10619000D02*
X14341000Y-10639000D01*
X14341000Y-10707000D02*
X14361000Y-10727000D01*
X14361000Y-10707000D02*
X14341000Y-10727000D01*
X14341088Y-10544912D02*
X14361088Y-10564912D01*
X14361088Y-10544912D02*
X14341088Y-10564912D01*
X14344000Y-10802000D02*
X14364000Y-10822000D01*
X14364000Y-10802000D02*
X14344000Y-10822000D01*
X14347000Y-10969000D02*
X14367000Y-10989000D01*
X14367000Y-10969000D02*
X14347000Y-10989000D01*
X14351000Y-11043000D02*
X14371000Y-11063000D01*
X14371000Y-11043000D02*
X14351000Y-11063000D01*
X14365412Y-10280588D02*
X14385412Y-10300588D01*
X14385412Y-10280588D02*
X14365412Y-10300588D01*
X14388000Y-7765000D02*
X14408000Y-7785000D01*
X14408000Y-7765000D02*
X14388000Y-7785000D01*
X14390047Y-10048806D02*
X14410047Y-10068806D01*
X14410047Y-10048806D02*
X14390047Y-10068806D01*
X14434500Y-12294500D02*
X14454500Y-12314500D01*
X14454500Y-12294500D02*
X14434500Y-12314500D01*
X14438000Y-10557000D02*
X14458000Y-10577000D01*
X14458000Y-10557000D02*
X14438000Y-10577000D01*
X14489716Y-10048864D02*
X14509716Y-10068864D01*
X14509716Y-10048864D02*
X14489716Y-10068864D01*
X14497000Y-6143000D02*
X14517000Y-6163000D01*
X14517000Y-6143000D02*
X14497000Y-6163000D01*
X14549000Y-11833000D02*
X14569000Y-11853000D01*
X14569000Y-11833000D02*
X14549000Y-11853000D01*
X14605000Y-12142000D02*
X14625000Y-12162000D01*
X14625000Y-12142000D02*
X14605000Y-12162000D01*
X14609000Y-6521000D02*
X14629000Y-6541000D01*
X14629000Y-6521000D02*
X14609000Y-6541000D01*
X14639000Y-10528000D02*
X14659000Y-10548000D01*
X14659000Y-10528000D02*
X14639000Y-10548000D01*
X14707000Y-12553000D02*
X14727000Y-12573000D01*
X14727000Y-12553000D02*
X14707000Y-12573000D01*
X14710000Y-12799000D02*
X14730000Y-12819000D01*
X14730000Y-12799000D02*
X14710000Y-12819000D01*
X14815000Y-6146000D02*
X14835000Y-6166000D01*
X14835000Y-6146000D02*
X14815000Y-6166000D01*
X14865000Y-9617500D02*
X14885000Y-9637500D01*
X14885000Y-9617500D02*
X14865000Y-9637500D01*
X14865000Y-9690000D02*
X14885000Y-9710000D01*
X14885000Y-9690000D02*
X14865000Y-9710000D01*
X14868500Y-6980000D02*
X14888500Y-7000000D01*
X14888500Y-6980000D02*
X14868500Y-7000000D01*
X14868500Y-7277500D02*
X14888500Y-7297500D01*
X14888500Y-7277500D02*
X14868500Y-7297500D01*
X14868500Y-7580000D02*
X14888500Y-7600000D01*
X14888500Y-7580000D02*
X14868500Y-7600000D01*
X14875000Y-11379000D02*
X14895000Y-11399000D01*
X14895000Y-11379000D02*
X14875000Y-11399000D01*
X14900000Y-12179000D02*
X14920000Y-12199000D01*
X14920000Y-12179000D02*
X14900000Y-12199000D01*
X14920075Y-10251550D02*
X14940075Y-10271550D01*
X14940075Y-10251550D02*
X14920075Y-10271550D01*
X14948608Y-9039197D02*
X14968608Y-9059197D01*
X14968608Y-9039197D02*
X14948608Y-9059197D01*
X14948684Y-9140466D02*
X14968684Y-9160466D01*
X14968684Y-9140466D02*
X14948684Y-9160466D01*
X14948864Y-9765000D02*
X14968864Y-9785000D01*
X14968864Y-9765000D02*
X14948864Y-9785000D01*
X14948864Y-9839716D02*
X14968864Y-9859716D01*
X14968864Y-9839716D02*
X14948864Y-9859716D01*
X14960000Y-10365000D02*
X14980000Y-10385000D01*
X14980000Y-10365000D02*
X14960000Y-10385000D01*
X14960000Y-10465000D02*
X14980000Y-10485000D01*
X14980000Y-10465000D02*
X14960000Y-10485000D01*
X14987000Y-12106000D02*
X15007000Y-12126000D01*
X15007000Y-12106000D02*
X14987000Y-12126000D01*
X15000000Y-10600000D02*
X15020000Y-10620000D01*
X15020000Y-10600000D02*
X15000000Y-10620000D01*
X15003000Y-11381000D02*
X15023000Y-11401000D01*
X15023000Y-11381000D02*
X15003000Y-11401000D01*
X15050000Y-10050000D02*
X15070000Y-10070000D01*
X15070000Y-10050000D02*
X15050000Y-10070000D01*
X15116000Y-6135000D02*
X15136000Y-6155000D01*
X15136000Y-6135000D02*
X15116000Y-6155000D01*
X15127500Y-10600000D02*
X15147500Y-10620000D01*
X15147500Y-10600000D02*
X15127500Y-10620000D01*
X15129000Y-11381000D02*
X15149000Y-11401000D01*
X15149000Y-11381000D02*
X15129000Y-11401000D01*
X15150000Y-10050000D02*
X15170000Y-10070000D01*
X15170000Y-10050000D02*
X15150000Y-10070000D01*
X15177912Y-10377088D02*
X15197912Y-10397088D01*
X15197912Y-10377088D02*
X15177912Y-10397088D01*
X15217000Y-6135000D02*
X15237000Y-6155000D01*
X15237000Y-6135000D02*
X15217000Y-6155000D01*
X15314000Y-8188000D02*
X15334000Y-8208000D01*
X15334000Y-8188000D02*
X15314000Y-8208000D01*
X15314000Y-8692000D02*
X15334000Y-8712000D01*
X15334000Y-8692000D02*
X15314000Y-8712000D01*
X15314000Y-9192000D02*
X15334000Y-9212000D01*
X15334000Y-9192000D02*
X15314000Y-9212000D01*
X15315000Y-8091000D02*
X15335000Y-8111000D01*
X15335000Y-8091000D02*
X15315000Y-8111000D01*
X15315000Y-8388000D02*
X15335000Y-8408000D01*
X15335000Y-8388000D02*
X15315000Y-8408000D01*
X15315000Y-12266000D02*
X15335000Y-12286000D01*
X15335000Y-12266000D02*
X15315000Y-12286000D01*
X15316000Y-8788000D02*
X15336000Y-8808000D01*
X15336000Y-8788000D02*
X15316000Y-8808000D01*
X15316000Y-9288000D02*
X15336000Y-9308000D01*
X15336000Y-9288000D02*
X15316000Y-9308000D01*
X15316000Y-9842000D02*
X15336000Y-9862000D01*
X15336000Y-9842000D02*
X15316000Y-9862000D01*
X15316000Y-9938000D02*
X15336000Y-9958000D01*
X15336000Y-9938000D02*
X15316000Y-9958000D01*
X15345000Y-11480000D02*
X15365000Y-11500000D01*
X15365000Y-11480000D02*
X15345000Y-11500000D01*
X15345000Y-11550000D02*
X15365000Y-11570000D01*
X15365000Y-11550000D02*
X15345000Y-11570000D01*
X15365000Y-9565000D02*
X15385000Y-9585000D01*
X15385000Y-9565000D02*
X15365000Y-9585000D01*
X15371000Y-12466000D02*
X15391000Y-12486000D01*
X15391000Y-12466000D02*
X15371000Y-12486000D01*
X15390000Y-12337000D02*
X15410000Y-12357000D01*
X15410000Y-12337000D02*
X15390000Y-12357000D01*
X15415000Y-11480000D02*
X15435000Y-11500000D01*
X15435000Y-11480000D02*
X15415000Y-11500000D01*
X15415000Y-11550000D02*
X15435000Y-11570000D01*
X15435000Y-11550000D02*
X15415000Y-11570000D01*
X15438000Y-12536000D02*
X15458000Y-12556000D01*
X15458000Y-12536000D02*
X15438000Y-12556000D01*
X15438000Y-12595000D02*
X15458000Y-12615000D01*
X15458000Y-12595000D02*
X15438000Y-12615000D01*
X15465000Y-9565000D02*
X15485000Y-9585000D01*
X15485000Y-9565000D02*
X15465000Y-9585000D01*
X15466000Y-8940000D02*
X15486000Y-8960000D01*
X15486000Y-8940000D02*
X15466000Y-8960000D01*
X15480000Y-10152500D02*
X15500000Y-10172500D01*
X15500000Y-10152500D02*
X15480000Y-10172500D01*
X15565000Y-7490000D02*
X15585000Y-7510000D01*
X15585000Y-7490000D02*
X15565000Y-7510000D01*
X15565000Y-7565000D02*
X15585000Y-7585000D01*
X15585000Y-7565000D02*
X15565000Y-7585000D01*
X15565000Y-8165000D02*
X15585000Y-8185000D01*
X15585000Y-8165000D02*
X15565000Y-8185000D01*
X15565000Y-8240000D02*
X15585000Y-8260000D01*
X15585000Y-8240000D02*
X15565000Y-8260000D01*
X15565000Y-8490000D02*
X15585000Y-8510000D01*
X15585000Y-8490000D02*
X15565000Y-8510000D01*
X15565000Y-8740000D02*
X15585000Y-8760000D01*
X15585000Y-8740000D02*
X15565000Y-8760000D01*
X15565000Y-12765000D02*
X15585000Y-12785000D01*
X15585000Y-12765000D02*
X15565000Y-12785000D01*
X15565000Y-13015000D02*
X15585000Y-13035000D01*
X15585000Y-13015000D02*
X15565000Y-13035000D01*
X15640000Y-12765000D02*
X15660000Y-12785000D01*
X15660000Y-12765000D02*
X15640000Y-12785000D01*
X15640000Y-13015000D02*
X15660000Y-13035000D01*
X15660000Y-13015000D02*
X15640000Y-13035000D01*
X15645000Y-10430000D02*
X15665000Y-10450000D01*
X15665000Y-10430000D02*
X15645000Y-10450000D01*
X15742000Y-10390500D02*
X15762000Y-10410500D01*
X15762000Y-10390500D02*
X15742000Y-10410500D01*
X15838000Y-10390500D02*
X15858000Y-10410500D01*
X15858000Y-10390500D02*
X15838000Y-10410500D01*
X16068500Y-10217500D02*
X16088500Y-10237500D01*
X16088500Y-10217500D02*
X16068500Y-10237500D01*
X16300000Y-10282500D02*
X16320000Y-10302500D01*
X16320000Y-10282500D02*
X16300000Y-10302500D01*
X16300000Y-10347500D02*
X16320000Y-10367500D01*
X16320000Y-10347500D02*
X16300000Y-10367500D01*
X16302500Y-9632500D02*
X16322500Y-9652500D01*
X16322500Y-9632500D02*
X16302500Y-9652500D01*
X16467450Y-8240000D02*
X16487450Y-8260000D01*
X16487450Y-8240000D02*
X16467450Y-8260000D01*
X16467450Y-8315000D02*
X16487450Y-8335000D01*
X16487450Y-8315000D02*
X16467450Y-8335000D01*
X16490000Y-7540000D02*
X16510000Y-7560000D01*
X16510000Y-7540000D02*
X16490000Y-7560000D01*
X16490000Y-7615000D02*
X16510000Y-7635000D01*
X16510000Y-7615000D02*
X16490000Y-7635000D01*
X16490000Y-8490000D02*
X16510000Y-8510000D01*
X16510000Y-8490000D02*
X16490000Y-8510000D01*
X16490000Y-8740000D02*
X16510000Y-8760000D01*
X16510000Y-8740000D02*
X16490000Y-8760000D01*
X16552500Y-9777500D02*
X16572500Y-9797500D01*
X16572500Y-9777500D02*
X16552500Y-9797500D01*
X16590000Y-9715000D02*
X16610000Y-9735000D01*
X16610000Y-9715000D02*
X16590000Y-9735000D01*
X16740000Y-11890000D02*
X16760000Y-11910000D01*
X16760000Y-11890000D02*
X16740000Y-11910000D01*
X16740000Y-11990000D02*
X16760000Y-12010000D01*
X16760000Y-11990000D02*
X16740000Y-12010000D01*
X16790000Y-8165000D02*
X16810000Y-8185000D01*
X16810000Y-8165000D02*
X16790000Y-8185000D01*
X16815000Y-11815000D02*
X16835000Y-11835000D01*
X16835000Y-11815000D02*
X16815000Y-11835000D01*
X16840000Y-8115000D02*
X16860000Y-8135000D01*
X16860000Y-8115000D02*
X16840000Y-8135000D01*
X16940000Y-8315000D02*
X16960000Y-8335000D01*
X16960000Y-8315000D02*
X16940000Y-8335000D01*
X16990000Y-8265000D02*
X17010000Y-8285000D01*
X17010000Y-8265000D02*
X16990000Y-8285000D01*
D13*
X12697500Y-5700000D02*
G75*
G03*
X12697500Y-5700000I-30000J0D01*
G01*
D11*
X12697500Y-5740000D02*
X12697500Y-5660000D01*
X12697500Y-5660000D02*
G75*
G03*
X12637500Y-5660000I-30000J0D01*
G01*
X12637500Y-5660000D02*
X12637500Y-5740000D01*
X12637500Y-5740000D02*
G75*
G03*
X12697500Y-5740000I30000J0D01*
G01*
D13*
X12697500Y-6117000D02*
G75*
G03*
X12697500Y-6117000I-30000J0D01*
G01*
D11*
X12697500Y-6172000D02*
X12697500Y-6062000D01*
X12697500Y-6062000D02*
G75*
G03*
X12637500Y-6062000I-30000J0D01*
G01*
X12637500Y-6062000D02*
X12637500Y-6172000D01*
X12637500Y-6172000D02*
G75*
G03*
X12697500Y-6172000I30000J0D01*
G01*
D13*
X13562500Y-5700000D02*
G75*
G03*
X13562500Y-5700000I-30000J0D01*
G01*
D11*
X13562500Y-5740000D02*
X13562500Y-5660000D01*
X13562500Y-5660000D02*
G75*
G03*
X13502500Y-5660000I-30000J0D01*
G01*
X13502500Y-5660000D02*
X13502500Y-5740000D01*
X13502500Y-5740000D02*
G75*
G03*
X13562500Y-5740000I30000J0D01*
G01*
D13*
X13562500Y-6117000D02*
G75*
G03*
X13562500Y-6117000I-30000J0D01*
G01*
D11*
X13562500Y-6172000D02*
X13562500Y-6062000D01*
X13562500Y-6062000D02*
G75*
G03*
X13502500Y-6062000I-30000J0D01*
G01*
X13502500Y-6062000D02*
X13502500Y-6172000D01*
X13502500Y-6172000D02*
G75*
G03*
X13562500Y-6172000I30000J0D01*
G01*
D14*
X11247500Y-6327500D02*
X11247500Y-6422500D01*
X11200000Y-6375000D02*
X11295000Y-6375000D01*
X11247500Y-6577500D02*
X11247500Y-6672500D01*
X11200000Y-6625000D02*
X11295000Y-6625000D01*
X11247500Y-6827500D02*
X11247500Y-6922500D01*
X11200000Y-6875000D02*
X11295000Y-6875000D01*
X11247500Y-7077500D02*
X11247500Y-7172500D01*
X11200000Y-7125000D02*
X11295000Y-7125000D01*
X11247500Y-7327500D02*
X11247500Y-7422500D01*
X11200000Y-7375000D02*
X11295000Y-7375000D01*
X11247500Y-7577500D02*
X11247500Y-7672500D01*
X11200000Y-7625000D02*
X11295000Y-7625000D01*
X11247500Y-8327500D02*
X11247500Y-8422500D01*
X11200000Y-8375000D02*
X11295000Y-8375000D01*
X11247500Y-8577500D02*
X11247500Y-8672500D01*
X11200000Y-8625000D02*
X11295000Y-8625000D01*
X11247500Y-8827500D02*
X11247500Y-8922500D01*
X11200000Y-8875000D02*
X11295000Y-8875000D01*
X11247500Y-9077500D02*
X11247500Y-9172500D01*
X11200000Y-9125000D02*
X11295000Y-9125000D01*
X11247500Y-9327500D02*
X11247500Y-9422500D01*
X11200000Y-9375000D02*
X11295000Y-9375000D01*
X11247500Y-9577500D02*
X11247500Y-9672500D01*
X11200000Y-9625000D02*
X11295000Y-9625000D01*
X11247500Y-10327500D02*
X11247500Y-10422500D01*
X11200000Y-10375000D02*
X11295000Y-10375000D01*
X11247500Y-10577500D02*
X11247500Y-10672500D01*
X11200000Y-10625000D02*
X11295000Y-10625000D01*
X11247500Y-10827500D02*
X11247500Y-10922500D01*
X11200000Y-10875000D02*
X11295000Y-10875000D01*
X11247500Y-11077500D02*
X11247500Y-11172500D01*
X11200000Y-11125000D02*
X11295000Y-11125000D01*
X11247500Y-11327500D02*
X11247500Y-11422500D01*
X11200000Y-11375000D02*
X11295000Y-11375000D01*
X11247500Y-11577500D02*
X11247500Y-11672500D01*
X11200000Y-11625000D02*
X11295000Y-11625000D01*
X11247500Y-12327500D02*
X11247500Y-12422500D01*
X11200000Y-12375000D02*
X11295000Y-12375000D01*
X11247500Y-12577500D02*
X11247500Y-12672500D01*
X11200000Y-12625000D02*
X11295000Y-12625000D01*
X11247500Y-12827500D02*
X11247500Y-12922500D01*
X11200000Y-12875000D02*
X11295000Y-12875000D01*
X11247500Y-13077500D02*
X11247500Y-13172500D01*
X11200000Y-13125000D02*
X11295000Y-13125000D01*
X11247500Y-13327500D02*
X11247500Y-13422500D01*
X11200000Y-13375000D02*
X11295000Y-13375000D01*
X11247500Y-13577500D02*
X11247500Y-13672500D01*
X11200000Y-13625000D02*
X11295000Y-13625000D01*
X12097500Y-5827500D02*
X12097500Y-5922500D01*
X12050000Y-5875000D02*
X12145000Y-5875000D01*
X12097500Y-6077500D02*
X12097500Y-6172500D01*
X12050000Y-6125000D02*
X12145000Y-6125000D01*
X12097500Y-6327500D02*
X12097500Y-6422500D01*
X12050000Y-6375000D02*
X12145000Y-6375000D01*
X12097500Y-6577500D02*
X12097500Y-6672500D01*
X12050000Y-6625000D02*
X12145000Y-6625000D01*
X12097500Y-6827500D02*
X12097500Y-6922500D01*
X12050000Y-6875000D02*
X12145000Y-6875000D01*
X12097500Y-7077500D02*
X12097500Y-7172500D01*
X12050000Y-7125000D02*
X12145000Y-7125000D01*
X12097500Y-7827500D02*
X12097500Y-7922500D01*
X12050000Y-7875000D02*
X12145000Y-7875000D01*
X12097500Y-8077500D02*
X12097500Y-8172500D01*
X12050000Y-8125000D02*
X12145000Y-8125000D01*
X12097500Y-8327500D02*
X12097500Y-8422500D01*
X12050000Y-8375000D02*
X12145000Y-8375000D01*
X12097500Y-8577500D02*
X12097500Y-8672500D01*
X12050000Y-8625000D02*
X12145000Y-8625000D01*
X12097500Y-8827500D02*
X12097500Y-8922500D01*
X12050000Y-8875000D02*
X12145000Y-8875000D01*
X12097500Y-9077500D02*
X12097500Y-9172500D01*
X12050000Y-9125000D02*
X12145000Y-9125000D01*
X12100000Y-10852500D02*
X12100000Y-10947500D01*
X12052500Y-10900000D02*
X12147500Y-10900000D01*
X12100000Y-11102500D02*
X12100000Y-11197500D01*
X12052500Y-11150000D02*
X12147500Y-11150000D01*
X12100000Y-11352500D02*
X12100000Y-11447500D01*
X12052500Y-11400000D02*
X12147500Y-11400000D01*
X12100000Y-11602500D02*
X12100000Y-11697500D01*
X12052500Y-11650000D02*
X12147500Y-11650000D01*
X12100000Y-11852500D02*
X12100000Y-11947500D01*
X12052500Y-11900000D02*
X12147500Y-11900000D01*
X12100000Y-12102500D02*
X12100000Y-12197500D01*
X12052500Y-12150000D02*
X12147500Y-12150000D01*
X12100000Y-12802500D02*
X12100000Y-12897500D01*
X12052500Y-12850000D02*
X12147500Y-12850000D01*
X12100000Y-13052500D02*
X12100000Y-13147500D01*
X12052500Y-13100000D02*
X12147500Y-13100000D01*
X12100000Y-13302500D02*
X12100000Y-13397500D01*
X12052500Y-13350000D02*
X12147500Y-13350000D01*
X12100000Y-13552500D02*
X12100000Y-13647500D01*
X12052500Y-13600000D02*
X12147500Y-13600000D01*
X12100000Y-13802500D02*
X12100000Y-13897500D01*
X12052500Y-13850000D02*
X12147500Y-13850000D01*
X12100000Y-14052500D02*
X12100000Y-14147500D01*
X12052500Y-14100000D02*
X12147500Y-14100000D01*
X15902500Y-5827500D02*
X15902500Y-5922500D01*
X15855000Y-5875000D02*
X15950000Y-5875000D01*
X15902500Y-6077500D02*
X15902500Y-6172500D01*
X15855000Y-6125000D02*
X15950000Y-6125000D01*
X15902500Y-6327500D02*
X15902500Y-6422500D01*
X15855000Y-6375000D02*
X15950000Y-6375000D01*
X15902500Y-6577500D02*
X15902500Y-6672500D01*
X15855000Y-6625000D02*
X15950000Y-6625000D01*
X15902500Y-6827500D02*
X15902500Y-6922500D01*
X15855000Y-6875000D02*
X15950000Y-6875000D01*
X15902500Y-7077500D02*
X15902500Y-7172500D01*
X15855000Y-7125000D02*
X15950000Y-7125000D01*
X15902500Y-7827500D02*
X15902500Y-7922500D01*
X15855000Y-7875000D02*
X15950000Y-7875000D01*
X15902500Y-8077500D02*
X15902500Y-8172500D01*
X15855000Y-8125000D02*
X15950000Y-8125000D01*
X15902500Y-8327500D02*
X15902500Y-8422500D01*
X15855000Y-8375000D02*
X15950000Y-8375000D01*
X15902500Y-8577500D02*
X15902500Y-8672500D01*
X15855000Y-8625000D02*
X15950000Y-8625000D01*
X15902500Y-8827500D02*
X15902500Y-8922500D01*
X15855000Y-8875000D02*
X15950000Y-8875000D01*
X15902500Y-9077500D02*
X15902500Y-9172500D01*
X15855000Y-9125000D02*
X15950000Y-9125000D01*
X15902500Y-10827500D02*
X15902500Y-10922500D01*
X15855000Y-10875000D02*
X15950000Y-10875000D01*
X15902500Y-11077500D02*
X15902500Y-11172500D01*
X15855000Y-11125000D02*
X15950000Y-11125000D01*
X15902500Y-11327500D02*
X15902500Y-11422500D01*
X15855000Y-11375000D02*
X15950000Y-11375000D01*
X15902500Y-11577500D02*
X15902500Y-11672500D01*
X15855000Y-11625000D02*
X15950000Y-11625000D01*
X15902500Y-11827500D02*
X15902500Y-11922500D01*
X15855000Y-11875000D02*
X15950000Y-11875000D01*
X15902500Y-12077500D02*
X15902500Y-12172500D01*
X15855000Y-12125000D02*
X15950000Y-12125000D01*
X15902500Y-12827500D02*
X15902500Y-12922500D01*
X15855000Y-12875000D02*
X15950000Y-12875000D01*
X15902500Y-13077500D02*
X15902500Y-13172500D01*
X15855000Y-13125000D02*
X15950000Y-13125000D01*
X15902500Y-13327500D02*
X15902500Y-13422500D01*
X15855000Y-13375000D02*
X15950000Y-13375000D01*
X15902500Y-13577500D02*
X15902500Y-13672500D01*
X15855000Y-13625000D02*
X15950000Y-13625000D01*
X15902500Y-13827500D02*
X15902500Y-13922500D01*
X15855000Y-13875000D02*
X15950000Y-13875000D01*
X15902500Y-14077500D02*
X15902500Y-14172500D01*
X15855000Y-14125000D02*
X15950000Y-14125000D01*
X16752500Y-6327500D02*
X16752500Y-6422500D01*
X16705000Y-6375000D02*
X16800000Y-6375000D01*
X16752500Y-6577500D02*
X16752500Y-6672500D01*
X16705000Y-6625000D02*
X16800000Y-6625000D01*
X16752500Y-6827500D02*
X16752500Y-6922500D01*
X16705000Y-6875000D02*
X16800000Y-6875000D01*
X16752500Y-7077500D02*
X16752500Y-7172500D01*
X16705000Y-7125000D02*
X16800000Y-7125000D01*
X16752500Y-7327500D02*
X16752500Y-7422500D01*
X16705000Y-7375000D02*
X16800000Y-7375000D01*
X16752500Y-7577500D02*
X16752500Y-7672500D01*
X16705000Y-7625000D02*
X16800000Y-7625000D01*
X16752500Y-8327500D02*
X16752500Y-8422500D01*
X16705000Y-8375000D02*
X16800000Y-8375000D01*
X16752500Y-8577500D02*
X16752500Y-8672500D01*
X16705000Y-8625000D02*
X16800000Y-8625000D01*
X16752500Y-8827500D02*
X16752500Y-8922500D01*
X16705000Y-8875000D02*
X16800000Y-8875000D01*
X16752500Y-9077500D02*
X16752500Y-9172500D01*
X16705000Y-9125000D02*
X16800000Y-9125000D01*
X16752500Y-9327500D02*
X16752500Y-9422500D01*
X16705000Y-9375000D02*
X16800000Y-9375000D01*
X16752500Y-9577500D02*
X16752500Y-9672500D01*
X16705000Y-9625000D02*
X16800000Y-9625000D01*
X16752500Y-10327500D02*
X16752500Y-10422500D01*
X16705000Y-10375000D02*
X16800000Y-10375000D01*
X16752500Y-10577500D02*
X16752500Y-10672500D01*
X16705000Y-10625000D02*
X16800000Y-10625000D01*
X16752500Y-10827500D02*
X16752500Y-10922500D01*
X16705000Y-10875000D02*
X16800000Y-10875000D01*
X16752500Y-11077500D02*
X16752500Y-11172500D01*
X16705000Y-11125000D02*
X16800000Y-11125000D01*
X16752500Y-11327500D02*
X16752500Y-11422500D01*
X16705000Y-11375000D02*
X16800000Y-11375000D01*
X16752500Y-11577500D02*
X16752500Y-11672500D01*
X16705000Y-11625000D02*
X16800000Y-11625000D01*
X16752500Y-12327500D02*
X16752500Y-12422500D01*
X16705000Y-12375000D02*
X16800000Y-12375000D01*
X16752500Y-12577500D02*
X16752500Y-12672500D01*
X16705000Y-12625000D02*
X16800000Y-12625000D01*
X16752500Y-12827500D02*
X16752500Y-12922500D01*
X16705000Y-12875000D02*
X16800000Y-12875000D01*
X16752500Y-13077500D02*
X16752500Y-13172500D01*
X16705000Y-13125000D02*
X16800000Y-13125000D01*
X16752500Y-13327500D02*
X16752500Y-13422500D01*
X16705000Y-13375000D02*
X16800000Y-13375000D01*
X16752500Y-13577500D02*
X16752500Y-13672500D01*
X16705000Y-13625000D02*
X16800000Y-13625000D01*
D10*
X12835356Y-6881356D02*
X12835356Y-6810644D01*
X12764644Y-6810644D01*
X12764644Y-6881356D01*
X12835356Y-6881356D01*
X12835356Y-7135356D02*
X12835356Y-7064644D01*
X12764644Y-7064644D01*
X12764644Y-7135356D01*
X12835356Y-7135356D01*
X12835356Y-7389356D02*
X12835356Y-7318644D01*
X12764644Y-7318644D01*
X12764644Y-7389356D01*
X12835356Y-7389356D01*
X12835356Y-12681356D02*
X12835356Y-12610644D01*
X12764644Y-12610644D01*
X12764644Y-12681356D01*
X12835356Y-12681356D01*
X12835356Y-12935356D02*
X12835356Y-12864644D01*
X12764644Y-12864644D01*
X12764644Y-12935356D01*
X12835356Y-12935356D01*
X12835356Y-13189356D02*
X12835356Y-13118644D01*
X12764644Y-13118644D01*
X12764644Y-13189356D01*
X12835356Y-13189356D01*
X15235356Y-6882856D02*
X15235356Y-6812144D01*
X15164644Y-6812144D01*
X15164644Y-6882856D01*
X15235356Y-6882856D01*
X15235356Y-7136856D02*
X15235356Y-7066144D01*
X15164644Y-7066144D01*
X15164644Y-7136856D01*
X15235356Y-7136856D01*
X15235356Y-7390856D02*
X15235356Y-7320144D01*
X15164644Y-7320144D01*
X15164644Y-7390856D01*
X15235356Y-7390856D01*
X15235356Y-12681356D02*
X15235356Y-12610644D01*
X15164644Y-12610644D01*
X15164644Y-12681356D01*
X15235356Y-12681356D01*
X15235356Y-12935356D02*
X15235356Y-12864644D01*
X15164644Y-12864644D01*
X15164644Y-12935356D01*
X15235356Y-12935356D01*
X15235356Y-13189356D02*
X15235356Y-13118644D01*
X15164644Y-13118644D01*
X15164644Y-13189356D01*
X15235356Y-13189356D01*
D15*
X12892000Y-13876000D02*
X12968000Y-13800000D01*
X12892000Y-13724000D01*
X12816000Y-13800000D01*
X12892000Y-13876000D01*
X13400000Y-13876000D02*
X13476000Y-13800000D01*
X13400000Y-13724000D01*
X13324000Y-13800000D01*
X13400000Y-13876000D01*
X14038000Y-13876000D02*
X14114000Y-13800000D01*
X14038000Y-13724000D01*
X13962000Y-13800000D01*
X14038000Y-13876000D01*
X14546000Y-13876000D02*
X14622000Y-13800000D01*
X14546000Y-13724000D01*
X14470000Y-13800000D01*
X14546000Y-13876000D01*
X15054000Y-13876000D02*
X15130000Y-13800000D01*
X15054000Y-13724000D01*
X14978000Y-13800000D01*
X15054000Y-13876000D01*
D16*
X10940000Y-5640000D02*
X11260000Y-5960000D01*
X11260000Y-5640000D02*
X10940000Y-5960000D01*
X11260000Y-5800000D02*
G75*
G03*
X11260000Y-5800000I-160000J0D01*
G01*
X10940000Y-14040000D02*
X11260000Y-14360000D01*
X11260000Y-14040000D02*
X10940000Y-14360000D01*
X11260000Y-14200000D02*
G75*
G03*
X11260000Y-14200000I-160000J0D01*
G01*
X16740000Y-5640000D02*
X17060000Y-5960000D01*
X17060000Y-5640000D02*
X16740000Y-5960000D01*
X17060000Y-5800000D02*
G75*
G03*
X17060000Y-5800000I-160000J0D01*
G01*
X16740000Y-14040000D02*
X17060000Y-14360000D01*
X17060000Y-14040000D02*
X16740000Y-14360000D01*
X17060000Y-14200000D02*
G75*
G03*
X17060000Y-14200000I-160000J0D01*
G01*
D11*
X11042619Y-14817524D02*
X11042619Y-14617524D01*
X11042619Y-14617524D02*
X11090238Y-14617524D01*
X11090238Y-14617524D02*
X11118810Y-14627048D01*
X11118810Y-14627048D02*
X11137857Y-14646095D01*
X11137857Y-14646095D02*
X11147381Y-14665143D01*
X11147381Y-14665143D02*
X11156905Y-14703238D01*
X11156905Y-14703238D02*
X11156905Y-14731809D01*
X11156905Y-14731809D02*
X11147381Y-14769905D01*
X11147381Y-14769905D02*
X11137857Y-14788952D01*
X11137857Y-14788952D02*
X11118810Y-14808000D01*
X11118810Y-14808000D02*
X11090238Y-14817524D01*
X11090238Y-14817524D02*
X11042619Y-14817524D01*
X11242619Y-14817524D02*
X11242619Y-14684190D01*
X11242619Y-14722286D02*
X11252143Y-14703238D01*
X11252143Y-14703238D02*
X11261667Y-14693714D01*
X11261667Y-14693714D02*
X11280714Y-14684190D01*
X11280714Y-14684190D02*
X11299762Y-14684190D01*
X11366428Y-14817524D02*
X11366428Y-14684190D01*
X11366428Y-14617524D02*
X11356905Y-14627048D01*
X11356905Y-14627048D02*
X11366428Y-14636571D01*
X11366428Y-14636571D02*
X11375952Y-14627048D01*
X11375952Y-14627048D02*
X11366428Y-14617524D01*
X11366428Y-14617524D02*
X11366428Y-14636571D01*
X11490238Y-14817524D02*
X11471190Y-14808000D01*
X11471190Y-14808000D02*
X11461667Y-14788952D01*
X11461667Y-14788952D02*
X11461667Y-14617524D01*
X11595000Y-14817524D02*
X11575952Y-14808000D01*
X11575952Y-14808000D02*
X11566428Y-14788952D01*
X11566428Y-14788952D02*
X11566428Y-14617524D01*
X11823571Y-14817524D02*
X11823571Y-14617524D01*
X11823571Y-14617524D02*
X11890238Y-14760381D01*
X11890238Y-14760381D02*
X11956905Y-14617524D01*
X11956905Y-14617524D02*
X11956905Y-14817524D01*
X12137857Y-14817524D02*
X12137857Y-14712762D01*
X12137857Y-14712762D02*
X12128333Y-14693714D01*
X12128333Y-14693714D02*
X12109286Y-14684190D01*
X12109286Y-14684190D02*
X12071190Y-14684190D01*
X12071190Y-14684190D02*
X12052143Y-14693714D01*
X12137857Y-14808000D02*
X12118809Y-14817524D01*
X12118809Y-14817524D02*
X12071190Y-14817524D01*
X12071190Y-14817524D02*
X12052143Y-14808000D01*
X12052143Y-14808000D02*
X12042619Y-14788952D01*
X12042619Y-14788952D02*
X12042619Y-14769905D01*
X12042619Y-14769905D02*
X12052143Y-14750857D01*
X12052143Y-14750857D02*
X12071190Y-14741333D01*
X12071190Y-14741333D02*
X12118809Y-14741333D01*
X12118809Y-14741333D02*
X12137857Y-14731809D01*
X12233095Y-14684190D02*
X12233095Y-14884190D01*
X12233095Y-14693714D02*
X12252143Y-14684190D01*
X12252143Y-14684190D02*
X12290238Y-14684190D01*
X12290238Y-14684190D02*
X12309286Y-14693714D01*
X12309286Y-14693714D02*
X12318809Y-14703238D01*
X12318809Y-14703238D02*
X12328333Y-14722286D01*
X12328333Y-14722286D02*
X12328333Y-14779428D01*
X12328333Y-14779428D02*
X12318809Y-14798476D01*
X12318809Y-14798476D02*
X12309286Y-14808000D01*
X12309286Y-14808000D02*
X12290238Y-14817524D01*
X12290238Y-14817524D02*
X12252143Y-14817524D01*
X12252143Y-14817524D02*
X12233095Y-14808000D01*
X12414048Y-14798476D02*
X12423571Y-14808000D01*
X12423571Y-14808000D02*
X12414048Y-14817524D01*
X12414048Y-14817524D02*
X12404524Y-14808000D01*
X12404524Y-14808000D02*
X12414048Y-14798476D01*
X12414048Y-14798476D02*
X12414048Y-14817524D01*
X12414048Y-14693714D02*
X12423571Y-14703238D01*
X12423571Y-14703238D02*
X12414048Y-14712762D01*
X12414048Y-14712762D02*
X12404524Y-14703238D01*
X12404524Y-14703238D02*
X12414048Y-14693714D01*
X12414048Y-14693714D02*
X12414048Y-14712762D01*
D12*
X10775000Y-15135000D02*
X10795000Y-15155000D01*
X10795000Y-15135000D02*
X10775000Y-15155000D01*
D11*
X11080714Y-15037524D02*
X11099762Y-15037524D01*
X11099762Y-15037524D02*
X11118810Y-15047048D01*
X11118810Y-15047048D02*
X11128333Y-15056571D01*
X11128333Y-15056571D02*
X11137857Y-15075619D01*
X11137857Y-15075619D02*
X11147381Y-15113714D01*
X11147381Y-15113714D02*
X11147381Y-15161333D01*
X11147381Y-15161333D02*
X11137857Y-15199428D01*
X11137857Y-15199428D02*
X11128333Y-15218476D01*
X11128333Y-15218476D02*
X11118810Y-15228000D01*
X11118810Y-15228000D02*
X11099762Y-15237524D01*
X11099762Y-15237524D02*
X11080714Y-15237524D01*
X11080714Y-15237524D02*
X11061667Y-15228000D01*
X11061667Y-15228000D02*
X11052143Y-15218476D01*
X11052143Y-15218476D02*
X11042619Y-15199428D01*
X11042619Y-15199428D02*
X11033095Y-15161333D01*
X11033095Y-15161333D02*
X11033095Y-15113714D01*
X11033095Y-15113714D02*
X11042619Y-15075619D01*
X11042619Y-15075619D02*
X11052143Y-15056571D01*
X11052143Y-15056571D02*
X11061667Y-15047048D01*
X11061667Y-15047048D02*
X11080714Y-15037524D01*
X11233095Y-15218476D02*
X11242619Y-15228000D01*
X11242619Y-15228000D02*
X11233095Y-15237524D01*
X11233095Y-15237524D02*
X11223571Y-15228000D01*
X11223571Y-15228000D02*
X11233095Y-15218476D01*
X11233095Y-15218476D02*
X11233095Y-15237524D01*
X11318809Y-15056571D02*
X11328333Y-15047048D01*
X11328333Y-15047048D02*
X11347381Y-15037524D01*
X11347381Y-15037524D02*
X11395000Y-15037524D01*
X11395000Y-15037524D02*
X11414048Y-15047048D01*
X11414048Y-15047048D02*
X11423571Y-15056571D01*
X11423571Y-15056571D02*
X11433095Y-15075619D01*
X11433095Y-15075619D02*
X11433095Y-15094667D01*
X11433095Y-15094667D02*
X11423571Y-15123238D01*
X11423571Y-15123238D02*
X11309286Y-15237524D01*
X11309286Y-15237524D02*
X11433095Y-15237524D01*
X11556905Y-15037524D02*
X11575952Y-15037524D01*
X11575952Y-15037524D02*
X11595000Y-15047048D01*
X11595000Y-15047048D02*
X11604524Y-15056571D01*
X11604524Y-15056571D02*
X11614048Y-15075619D01*
X11614048Y-15075619D02*
X11623571Y-15113714D01*
X11623571Y-15113714D02*
X11623571Y-15161333D01*
X11623571Y-15161333D02*
X11614048Y-15199428D01*
X11614048Y-15199428D02*
X11604524Y-15218476D01*
X11604524Y-15218476D02*
X11595000Y-15228000D01*
X11595000Y-15228000D02*
X11575952Y-15237524D01*
X11575952Y-15237524D02*
X11556905Y-15237524D01*
X11556905Y-15237524D02*
X11537857Y-15228000D01*
X11537857Y-15228000D02*
X11528333Y-15218476D01*
X11528333Y-15218476D02*
X11518809Y-15199428D01*
X11518809Y-15199428D02*
X11509286Y-15161333D01*
X11509286Y-15161333D02*
X11509286Y-15113714D01*
X11509286Y-15113714D02*
X11518809Y-15075619D01*
X11518809Y-15075619D02*
X11528333Y-15056571D01*
X11528333Y-15056571D02*
X11537857Y-15047048D01*
X11537857Y-15047048D02*
X11556905Y-15037524D01*
X11747381Y-15037524D02*
X11766429Y-15037524D01*
X11766429Y-15037524D02*
X11785476Y-15047048D01*
X11785476Y-15047048D02*
X11795000Y-15056571D01*
X11795000Y-15056571D02*
X11804524Y-15075619D01*
X11804524Y-15075619D02*
X11814048Y-15113714D01*
X11814048Y-15113714D02*
X11814048Y-15161333D01*
X11814048Y-15161333D02*
X11804524Y-15199428D01*
X11804524Y-15199428D02*
X11795000Y-15218476D01*
X11795000Y-15218476D02*
X11785476Y-15228000D01*
X11785476Y-15228000D02*
X11766429Y-15237524D01*
X11766429Y-15237524D02*
X11747381Y-15237524D01*
X11747381Y-15237524D02*
X11728333Y-15228000D01*
X11728333Y-15228000D02*
X11718809Y-15218476D01*
X11718809Y-15218476D02*
X11709286Y-15199428D01*
X11709286Y-15199428D02*
X11699762Y-15161333D01*
X11699762Y-15161333D02*
X11699762Y-15113714D01*
X11699762Y-15113714D02*
X11709286Y-15075619D01*
X11709286Y-15075619D02*
X11718809Y-15056571D01*
X11718809Y-15056571D02*
X11728333Y-15047048D01*
X11728333Y-15047048D02*
X11747381Y-15037524D01*
X11899762Y-15237524D02*
X11899762Y-15104190D01*
X11899762Y-15123238D02*
X11909286Y-15113714D01*
X11909286Y-15113714D02*
X11928333Y-15104190D01*
X11928333Y-15104190D02*
X11956905Y-15104190D01*
X11956905Y-15104190D02*
X11975952Y-15113714D01*
X11975952Y-15113714D02*
X11985476Y-15132762D01*
X11985476Y-15132762D02*
X11985476Y-15237524D01*
X11985476Y-15132762D02*
X11995000Y-15113714D01*
X11995000Y-15113714D02*
X12014048Y-15104190D01*
X12014048Y-15104190D02*
X12042619Y-15104190D01*
X12042619Y-15104190D02*
X12061667Y-15113714D01*
X12061667Y-15113714D02*
X12071190Y-15132762D01*
X12071190Y-15132762D02*
X12071190Y-15237524D01*
X12166429Y-15237524D02*
X12166429Y-15104190D01*
X12166429Y-15123238D02*
X12175952Y-15113714D01*
X12175952Y-15113714D02*
X12195000Y-15104190D01*
X12195000Y-15104190D02*
X12223571Y-15104190D01*
X12223571Y-15104190D02*
X12242619Y-15113714D01*
X12242619Y-15113714D02*
X12252143Y-15132762D01*
X12252143Y-15132762D02*
X12252143Y-15237524D01*
X12252143Y-15132762D02*
X12261667Y-15113714D01*
X12261667Y-15113714D02*
X12280714Y-15104190D01*
X12280714Y-15104190D02*
X12309286Y-15104190D01*
X12309286Y-15104190D02*
X12328333Y-15113714D01*
X12328333Y-15113714D02*
X12337857Y-15132762D01*
X12337857Y-15132762D02*
X12337857Y-15237524D01*
X12728333Y-15028000D02*
X12556905Y-15285143D01*
X12985476Y-15037524D02*
X13004524Y-15037524D01*
X13004524Y-15037524D02*
X13023572Y-15047048D01*
X13023572Y-15047048D02*
X13033095Y-15056571D01*
X13033095Y-15056571D02*
X13042619Y-15075619D01*
X13042619Y-15075619D02*
X13052143Y-15113714D01*
X13052143Y-15113714D02*
X13052143Y-15161333D01*
X13052143Y-15161333D02*
X13042619Y-15199428D01*
X13042619Y-15199428D02*
X13033095Y-15218476D01*
X13033095Y-15218476D02*
X13023572Y-15228000D01*
X13023572Y-15228000D02*
X13004524Y-15237524D01*
X13004524Y-15237524D02*
X12985476Y-15237524D01*
X12985476Y-15237524D02*
X12966429Y-15228000D01*
X12966429Y-15228000D02*
X12956905Y-15218476D01*
X12956905Y-15218476D02*
X12947381Y-15199428D01*
X12947381Y-15199428D02*
X12937857Y-15161333D01*
X12937857Y-15161333D02*
X12937857Y-15113714D01*
X12937857Y-15113714D02*
X12947381Y-15075619D01*
X12947381Y-15075619D02*
X12956905Y-15056571D01*
X12956905Y-15056571D02*
X12966429Y-15047048D01*
X12966429Y-15047048D02*
X12985476Y-15037524D01*
X13137857Y-15218476D02*
X13147381Y-15228000D01*
X13147381Y-15228000D02*
X13137857Y-15237524D01*
X13137857Y-15237524D02*
X13128333Y-15228000D01*
X13128333Y-15228000D02*
X13137857Y-15218476D01*
X13137857Y-15218476D02*
X13137857Y-15237524D01*
X13271191Y-15037524D02*
X13290238Y-15037524D01*
X13290238Y-15037524D02*
X13309286Y-15047048D01*
X13309286Y-15047048D02*
X13318810Y-15056571D01*
X13318810Y-15056571D02*
X13328333Y-15075619D01*
X13328333Y-15075619D02*
X13337857Y-15113714D01*
X13337857Y-15113714D02*
X13337857Y-15161333D01*
X13337857Y-15161333D02*
X13328333Y-15199428D01*
X13328333Y-15199428D02*
X13318810Y-15218476D01*
X13318810Y-15218476D02*
X13309286Y-15228000D01*
X13309286Y-15228000D02*
X13290238Y-15237524D01*
X13290238Y-15237524D02*
X13271191Y-15237524D01*
X13271191Y-15237524D02*
X13252143Y-15228000D01*
X13252143Y-15228000D02*
X13242619Y-15218476D01*
X13242619Y-15218476D02*
X13233095Y-15199428D01*
X13233095Y-15199428D02*
X13223572Y-15161333D01*
X13223572Y-15161333D02*
X13223572Y-15113714D01*
X13223572Y-15113714D02*
X13233095Y-15075619D01*
X13233095Y-15075619D02*
X13242619Y-15056571D01*
X13242619Y-15056571D02*
X13252143Y-15047048D01*
X13252143Y-15047048D02*
X13271191Y-15037524D01*
X13461667Y-15037524D02*
X13480714Y-15037524D01*
X13480714Y-15037524D02*
X13499762Y-15047048D01*
X13499762Y-15047048D02*
X13509286Y-15056571D01*
X13509286Y-15056571D02*
X13518810Y-15075619D01*
X13518810Y-15075619D02*
X13528333Y-15113714D01*
X13528333Y-15113714D02*
X13528333Y-15161333D01*
X13528333Y-15161333D02*
X13518810Y-15199428D01*
X13518810Y-15199428D02*
X13509286Y-15218476D01*
X13509286Y-15218476D02*
X13499762Y-15228000D01*
X13499762Y-15228000D02*
X13480714Y-15237524D01*
X13480714Y-15237524D02*
X13461667Y-15237524D01*
X13461667Y-15237524D02*
X13442619Y-15228000D01*
X13442619Y-15228000D02*
X13433095Y-15218476D01*
X13433095Y-15218476D02*
X13423572Y-15199428D01*
X13423572Y-15199428D02*
X13414048Y-15161333D01*
X13414048Y-15161333D02*
X13414048Y-15113714D01*
X13414048Y-15113714D02*
X13423572Y-15075619D01*
X13423572Y-15075619D02*
X13433095Y-15056571D01*
X13433095Y-15056571D02*
X13442619Y-15047048D01*
X13442619Y-15047048D02*
X13461667Y-15037524D01*
X13595000Y-15037524D02*
X13728333Y-15037524D01*
X13728333Y-15037524D02*
X13642619Y-15237524D01*
X13814048Y-15237524D02*
X13852143Y-15237524D01*
X13852143Y-15237524D02*
X13871191Y-15228000D01*
X13871191Y-15228000D02*
X13880714Y-15218476D01*
X13880714Y-15218476D02*
X13899762Y-15189905D01*
X13899762Y-15189905D02*
X13909286Y-15151809D01*
X13909286Y-15151809D02*
X13909286Y-15075619D01*
X13909286Y-15075619D02*
X13899762Y-15056571D01*
X13899762Y-15056571D02*
X13890238Y-15047048D01*
X13890238Y-15047048D02*
X13871191Y-15037524D01*
X13871191Y-15037524D02*
X13833095Y-15037524D01*
X13833095Y-15037524D02*
X13814048Y-15047048D01*
X13814048Y-15047048D02*
X13804524Y-15056571D01*
X13804524Y-15056571D02*
X13795000Y-15075619D01*
X13795000Y-15075619D02*
X13795000Y-15123238D01*
X13795000Y-15123238D02*
X13804524Y-15142286D01*
X13804524Y-15142286D02*
X13814048Y-15151809D01*
X13814048Y-15151809D02*
X13833095Y-15161333D01*
X13833095Y-15161333D02*
X13871191Y-15161333D01*
X13871191Y-15161333D02*
X13890238Y-15151809D01*
X13890238Y-15151809D02*
X13899762Y-15142286D01*
X13899762Y-15142286D02*
X13909286Y-15123238D01*
X13985476Y-15037524D02*
X13985476Y-15075619D01*
X14061667Y-15037524D02*
X14061667Y-15075619D01*
X14356905Y-15313714D02*
X14347381Y-15304190D01*
X14347381Y-15304190D02*
X14328334Y-15275619D01*
X14328334Y-15275619D02*
X14318810Y-15256571D01*
X14318810Y-15256571D02*
X14309286Y-15228000D01*
X14309286Y-15228000D02*
X14299762Y-15180381D01*
X14299762Y-15180381D02*
X14299762Y-15142286D01*
X14299762Y-15142286D02*
X14309286Y-15094667D01*
X14309286Y-15094667D02*
X14318810Y-15066095D01*
X14318810Y-15066095D02*
X14328334Y-15047048D01*
X14328334Y-15047048D02*
X14347381Y-15018476D01*
X14347381Y-15018476D02*
X14356905Y-15008952D01*
X14423572Y-15056571D02*
X14433095Y-15047048D01*
X14433095Y-15047048D02*
X14452143Y-15037524D01*
X14452143Y-15037524D02*
X14499762Y-15037524D01*
X14499762Y-15037524D02*
X14518810Y-15047048D01*
X14518810Y-15047048D02*
X14528334Y-15056571D01*
X14528334Y-15056571D02*
X14537857Y-15075619D01*
X14537857Y-15075619D02*
X14537857Y-15094667D01*
X14537857Y-15094667D02*
X14528334Y-15123238D01*
X14528334Y-15123238D02*
X14414048Y-15237524D01*
X14414048Y-15237524D02*
X14537857Y-15237524D01*
X14709286Y-15104190D02*
X14709286Y-15237524D01*
X14661667Y-15028000D02*
X14614048Y-15170857D01*
X14614048Y-15170857D02*
X14737857Y-15170857D01*
X14842619Y-15123238D02*
X14823572Y-15113714D01*
X14823572Y-15113714D02*
X14814048Y-15104190D01*
X14814048Y-15104190D02*
X14804524Y-15085143D01*
X14804524Y-15085143D02*
X14804524Y-15075619D01*
X14804524Y-15075619D02*
X14814048Y-15056571D01*
X14814048Y-15056571D02*
X14823572Y-15047048D01*
X14823572Y-15047048D02*
X14842619Y-15037524D01*
X14842619Y-15037524D02*
X14880715Y-15037524D01*
X14880715Y-15037524D02*
X14899762Y-15047048D01*
X14899762Y-15047048D02*
X14909286Y-15056571D01*
X14909286Y-15056571D02*
X14918810Y-15075619D01*
X14918810Y-15075619D02*
X14918810Y-15085143D01*
X14918810Y-15085143D02*
X14909286Y-15104190D01*
X14909286Y-15104190D02*
X14899762Y-15113714D01*
X14899762Y-15113714D02*
X14880715Y-15123238D01*
X14880715Y-15123238D02*
X14842619Y-15123238D01*
X14842619Y-15123238D02*
X14823572Y-15132762D01*
X14823572Y-15132762D02*
X14814048Y-15142286D01*
X14814048Y-15142286D02*
X14804524Y-15161333D01*
X14804524Y-15161333D02*
X14804524Y-15199428D01*
X14804524Y-15199428D02*
X14814048Y-15218476D01*
X14814048Y-15218476D02*
X14823572Y-15228000D01*
X14823572Y-15228000D02*
X14842619Y-15237524D01*
X14842619Y-15237524D02*
X14880715Y-15237524D01*
X14880715Y-15237524D02*
X14899762Y-15228000D01*
X14899762Y-15228000D02*
X14909286Y-15218476D01*
X14909286Y-15218476D02*
X14918810Y-15199428D01*
X14918810Y-15199428D02*
X14918810Y-15161333D01*
X14918810Y-15161333D02*
X14909286Y-15142286D01*
X14909286Y-15142286D02*
X14899762Y-15132762D01*
X14899762Y-15132762D02*
X14880715Y-15123238D01*
X15156905Y-15237524D02*
X15156905Y-15037524D01*
X15242619Y-15237524D02*
X15242619Y-15132762D01*
X15242619Y-15132762D02*
X15233096Y-15113714D01*
X15233096Y-15113714D02*
X15214048Y-15104190D01*
X15214048Y-15104190D02*
X15185476Y-15104190D01*
X15185476Y-15104190D02*
X15166429Y-15113714D01*
X15166429Y-15113714D02*
X15156905Y-15123238D01*
X15366429Y-15237524D02*
X15347381Y-15228000D01*
X15347381Y-15228000D02*
X15337857Y-15218476D01*
X15337857Y-15218476D02*
X15328334Y-15199428D01*
X15328334Y-15199428D02*
X15328334Y-15142286D01*
X15328334Y-15142286D02*
X15337857Y-15123238D01*
X15337857Y-15123238D02*
X15347381Y-15113714D01*
X15347381Y-15113714D02*
X15366429Y-15104190D01*
X15366429Y-15104190D02*
X15395000Y-15104190D01*
X15395000Y-15104190D02*
X15414048Y-15113714D01*
X15414048Y-15113714D02*
X15423572Y-15123238D01*
X15423572Y-15123238D02*
X15433096Y-15142286D01*
X15433096Y-15142286D02*
X15433096Y-15199428D01*
X15433096Y-15199428D02*
X15423572Y-15218476D01*
X15423572Y-15218476D02*
X15414048Y-15228000D01*
X15414048Y-15228000D02*
X15395000Y-15237524D01*
X15395000Y-15237524D02*
X15366429Y-15237524D01*
X15547381Y-15237524D02*
X15528334Y-15228000D01*
X15528334Y-15228000D02*
X15518810Y-15208952D01*
X15518810Y-15208952D02*
X15518810Y-15037524D01*
X15699762Y-15228000D02*
X15680715Y-15237524D01*
X15680715Y-15237524D02*
X15642619Y-15237524D01*
X15642619Y-15237524D02*
X15623572Y-15228000D01*
X15623572Y-15228000D02*
X15614048Y-15208952D01*
X15614048Y-15208952D02*
X15614048Y-15132762D01*
X15614048Y-15132762D02*
X15623572Y-15113714D01*
X15623572Y-15113714D02*
X15642619Y-15104190D01*
X15642619Y-15104190D02*
X15680715Y-15104190D01*
X15680715Y-15104190D02*
X15699762Y-15113714D01*
X15699762Y-15113714D02*
X15709286Y-15132762D01*
X15709286Y-15132762D02*
X15709286Y-15151809D01*
X15709286Y-15151809D02*
X15614048Y-15170857D01*
X15785477Y-15228000D02*
X15804524Y-15237524D01*
X15804524Y-15237524D02*
X15842619Y-15237524D01*
X15842619Y-15237524D02*
X15861667Y-15228000D01*
X15861667Y-15228000D02*
X15871191Y-15208952D01*
X15871191Y-15208952D02*
X15871191Y-15199428D01*
X15871191Y-15199428D02*
X15861667Y-15180381D01*
X15861667Y-15180381D02*
X15842619Y-15170857D01*
X15842619Y-15170857D02*
X15814048Y-15170857D01*
X15814048Y-15170857D02*
X15795000Y-15161333D01*
X15795000Y-15161333D02*
X15785477Y-15142286D01*
X15785477Y-15142286D02*
X15785477Y-15132762D01*
X15785477Y-15132762D02*
X15795000Y-15113714D01*
X15795000Y-15113714D02*
X15814048Y-15104190D01*
X15814048Y-15104190D02*
X15842619Y-15104190D01*
X15842619Y-15104190D02*
X15861667Y-15113714D01*
X15937858Y-15313714D02*
X15947381Y-15304190D01*
X15947381Y-15304190D02*
X15966429Y-15275619D01*
X15966429Y-15275619D02*
X15975953Y-15256571D01*
X15975953Y-15256571D02*
X15985477Y-15228000D01*
X15985477Y-15228000D02*
X15995000Y-15180381D01*
X15995000Y-15180381D02*
X15995000Y-15142286D01*
X15995000Y-15142286D02*
X15985477Y-15094667D01*
X15985477Y-15094667D02*
X15975953Y-15066095D01*
X15975953Y-15066095D02*
X15966429Y-15047048D01*
X15966429Y-15047048D02*
X15947381Y-15018476D01*
X15947381Y-15018476D02*
X15937858Y-15008952D01*
D13*
X10795000Y-15409000D02*
G75*
G03*
X10795000Y-15409000I-30000J0D01*
G01*
D11*
X11080714Y-15301524D02*
X11099762Y-15301524D01*
X11099762Y-15301524D02*
X11118810Y-15311048D01*
X11118810Y-15311048D02*
X11128333Y-15320571D01*
X11128333Y-15320571D02*
X11137857Y-15339619D01*
X11137857Y-15339619D02*
X11147381Y-15377714D01*
X11147381Y-15377714D02*
X11147381Y-15425333D01*
X11147381Y-15425333D02*
X11137857Y-15463428D01*
X11137857Y-15463428D02*
X11128333Y-15482476D01*
X11128333Y-15482476D02*
X11118810Y-15492000D01*
X11118810Y-15492000D02*
X11099762Y-15501524D01*
X11099762Y-15501524D02*
X11080714Y-15501524D01*
X11080714Y-15501524D02*
X11061667Y-15492000D01*
X11061667Y-15492000D02*
X11052143Y-15482476D01*
X11052143Y-15482476D02*
X11042619Y-15463428D01*
X11042619Y-15463428D02*
X11033095Y-15425333D01*
X11033095Y-15425333D02*
X11033095Y-15377714D01*
X11033095Y-15377714D02*
X11042619Y-15339619D01*
X11042619Y-15339619D02*
X11052143Y-15320571D01*
X11052143Y-15320571D02*
X11061667Y-15311048D01*
X11061667Y-15311048D02*
X11080714Y-15301524D01*
X11233095Y-15482476D02*
X11242619Y-15492000D01*
X11242619Y-15492000D02*
X11233095Y-15501524D01*
X11233095Y-15501524D02*
X11223571Y-15492000D01*
X11223571Y-15492000D02*
X11233095Y-15482476D01*
X11233095Y-15482476D02*
X11233095Y-15501524D01*
X11414048Y-15301524D02*
X11375952Y-15301524D01*
X11375952Y-15301524D02*
X11356905Y-15311048D01*
X11356905Y-15311048D02*
X11347381Y-15320571D01*
X11347381Y-15320571D02*
X11328333Y-15349143D01*
X11328333Y-15349143D02*
X11318809Y-15387238D01*
X11318809Y-15387238D02*
X11318809Y-15463428D01*
X11318809Y-15463428D02*
X11328333Y-15482476D01*
X11328333Y-15482476D02*
X11337857Y-15492000D01*
X11337857Y-15492000D02*
X11356905Y-15501524D01*
X11356905Y-15501524D02*
X11395000Y-15501524D01*
X11395000Y-15501524D02*
X11414048Y-15492000D01*
X11414048Y-15492000D02*
X11423571Y-15482476D01*
X11423571Y-15482476D02*
X11433095Y-15463428D01*
X11433095Y-15463428D02*
X11433095Y-15415809D01*
X11433095Y-15415809D02*
X11423571Y-15396762D01*
X11423571Y-15396762D02*
X11414048Y-15387238D01*
X11414048Y-15387238D02*
X11395000Y-15377714D01*
X11395000Y-15377714D02*
X11356905Y-15377714D01*
X11356905Y-15377714D02*
X11337857Y-15387238D01*
X11337857Y-15387238D02*
X11328333Y-15396762D01*
X11328333Y-15396762D02*
X11318809Y-15415809D01*
X11556905Y-15301524D02*
X11575952Y-15301524D01*
X11575952Y-15301524D02*
X11595000Y-15311048D01*
X11595000Y-15311048D02*
X11604524Y-15320571D01*
X11604524Y-15320571D02*
X11614048Y-15339619D01*
X11614048Y-15339619D02*
X11623571Y-15377714D01*
X11623571Y-15377714D02*
X11623571Y-15425333D01*
X11623571Y-15425333D02*
X11614048Y-15463428D01*
X11614048Y-15463428D02*
X11604524Y-15482476D01*
X11604524Y-15482476D02*
X11595000Y-15492000D01*
X11595000Y-15492000D02*
X11575952Y-15501524D01*
X11575952Y-15501524D02*
X11556905Y-15501524D01*
X11556905Y-15501524D02*
X11537857Y-15492000D01*
X11537857Y-15492000D02*
X11528333Y-15482476D01*
X11528333Y-15482476D02*
X11518809Y-15463428D01*
X11518809Y-15463428D02*
X11509286Y-15425333D01*
X11509286Y-15425333D02*
X11509286Y-15377714D01*
X11509286Y-15377714D02*
X11518809Y-15339619D01*
X11518809Y-15339619D02*
X11528333Y-15320571D01*
X11528333Y-15320571D02*
X11537857Y-15311048D01*
X11537857Y-15311048D02*
X11556905Y-15301524D01*
X11747381Y-15301524D02*
X11766429Y-15301524D01*
X11766429Y-15301524D02*
X11785476Y-15311048D01*
X11785476Y-15311048D02*
X11795000Y-15320571D01*
X11795000Y-15320571D02*
X11804524Y-15339619D01*
X11804524Y-15339619D02*
X11814048Y-15377714D01*
X11814048Y-15377714D02*
X11814048Y-15425333D01*
X11814048Y-15425333D02*
X11804524Y-15463428D01*
X11804524Y-15463428D02*
X11795000Y-15482476D01*
X11795000Y-15482476D02*
X11785476Y-15492000D01*
X11785476Y-15492000D02*
X11766429Y-15501524D01*
X11766429Y-15501524D02*
X11747381Y-15501524D01*
X11747381Y-15501524D02*
X11728333Y-15492000D01*
X11728333Y-15492000D02*
X11718809Y-15482476D01*
X11718809Y-15482476D02*
X11709286Y-15463428D01*
X11709286Y-15463428D02*
X11699762Y-15425333D01*
X11699762Y-15425333D02*
X11699762Y-15377714D01*
X11699762Y-15377714D02*
X11709286Y-15339619D01*
X11709286Y-15339619D02*
X11718809Y-15320571D01*
X11718809Y-15320571D02*
X11728333Y-15311048D01*
X11728333Y-15311048D02*
X11747381Y-15301524D01*
X11899762Y-15501524D02*
X11899762Y-15368190D01*
X11899762Y-15387238D02*
X11909286Y-15377714D01*
X11909286Y-15377714D02*
X11928333Y-15368190D01*
X11928333Y-15368190D02*
X11956905Y-15368190D01*
X11956905Y-15368190D02*
X11975952Y-15377714D01*
X11975952Y-15377714D02*
X11985476Y-15396762D01*
X11985476Y-15396762D02*
X11985476Y-15501524D01*
X11985476Y-15396762D02*
X11995000Y-15377714D01*
X11995000Y-15377714D02*
X12014048Y-15368190D01*
X12014048Y-15368190D02*
X12042619Y-15368190D01*
X12042619Y-15368190D02*
X12061667Y-15377714D01*
X12061667Y-15377714D02*
X12071190Y-15396762D01*
X12071190Y-15396762D02*
X12071190Y-15501524D01*
X12166429Y-15501524D02*
X12166429Y-15368190D01*
X12166429Y-15387238D02*
X12175952Y-15377714D01*
X12175952Y-15377714D02*
X12195000Y-15368190D01*
X12195000Y-15368190D02*
X12223571Y-15368190D01*
X12223571Y-15368190D02*
X12242619Y-15377714D01*
X12242619Y-15377714D02*
X12252143Y-15396762D01*
X12252143Y-15396762D02*
X12252143Y-15501524D01*
X12252143Y-15396762D02*
X12261667Y-15377714D01*
X12261667Y-15377714D02*
X12280714Y-15368190D01*
X12280714Y-15368190D02*
X12309286Y-15368190D01*
X12309286Y-15368190D02*
X12328333Y-15377714D01*
X12328333Y-15377714D02*
X12337857Y-15396762D01*
X12337857Y-15396762D02*
X12337857Y-15501524D01*
X12728333Y-15292000D02*
X12556905Y-15549143D01*
X12985476Y-15301524D02*
X13004524Y-15301524D01*
X13004524Y-15301524D02*
X13023572Y-15311048D01*
X13023572Y-15311048D02*
X13033095Y-15320571D01*
X13033095Y-15320571D02*
X13042619Y-15339619D01*
X13042619Y-15339619D02*
X13052143Y-15377714D01*
X13052143Y-15377714D02*
X13052143Y-15425333D01*
X13052143Y-15425333D02*
X13042619Y-15463428D01*
X13042619Y-15463428D02*
X13033095Y-15482476D01*
X13033095Y-15482476D02*
X13023572Y-15492000D01*
X13023572Y-15492000D02*
X13004524Y-15501524D01*
X13004524Y-15501524D02*
X12985476Y-15501524D01*
X12985476Y-15501524D02*
X12966429Y-15492000D01*
X12966429Y-15492000D02*
X12956905Y-15482476D01*
X12956905Y-15482476D02*
X12947381Y-15463428D01*
X12947381Y-15463428D02*
X12937857Y-15425333D01*
X12937857Y-15425333D02*
X12937857Y-15377714D01*
X12937857Y-15377714D02*
X12947381Y-15339619D01*
X12947381Y-15339619D02*
X12956905Y-15320571D01*
X12956905Y-15320571D02*
X12966429Y-15311048D01*
X12966429Y-15311048D02*
X12985476Y-15301524D01*
X13137857Y-15482476D02*
X13147381Y-15492000D01*
X13147381Y-15492000D02*
X13137857Y-15501524D01*
X13137857Y-15501524D02*
X13128333Y-15492000D01*
X13128333Y-15492000D02*
X13137857Y-15482476D01*
X13137857Y-15482476D02*
X13137857Y-15501524D01*
X13271191Y-15301524D02*
X13290238Y-15301524D01*
X13290238Y-15301524D02*
X13309286Y-15311048D01*
X13309286Y-15311048D02*
X13318810Y-15320571D01*
X13318810Y-15320571D02*
X13328333Y-15339619D01*
X13328333Y-15339619D02*
X13337857Y-15377714D01*
X13337857Y-15377714D02*
X13337857Y-15425333D01*
X13337857Y-15425333D02*
X13328333Y-15463428D01*
X13328333Y-15463428D02*
X13318810Y-15482476D01*
X13318810Y-15482476D02*
X13309286Y-15492000D01*
X13309286Y-15492000D02*
X13290238Y-15501524D01*
X13290238Y-15501524D02*
X13271191Y-15501524D01*
X13271191Y-15501524D02*
X13252143Y-15492000D01*
X13252143Y-15492000D02*
X13242619Y-15482476D01*
X13242619Y-15482476D02*
X13233095Y-15463428D01*
X13233095Y-15463428D02*
X13223572Y-15425333D01*
X13223572Y-15425333D02*
X13223572Y-15377714D01*
X13223572Y-15377714D02*
X13233095Y-15339619D01*
X13233095Y-15339619D02*
X13242619Y-15320571D01*
X13242619Y-15320571D02*
X13252143Y-15311048D01*
X13252143Y-15311048D02*
X13271191Y-15301524D01*
X13414048Y-15320571D02*
X13423572Y-15311048D01*
X13423572Y-15311048D02*
X13442619Y-15301524D01*
X13442619Y-15301524D02*
X13490238Y-15301524D01*
X13490238Y-15301524D02*
X13509286Y-15311048D01*
X13509286Y-15311048D02*
X13518810Y-15320571D01*
X13518810Y-15320571D02*
X13528333Y-15339619D01*
X13528333Y-15339619D02*
X13528333Y-15358667D01*
X13528333Y-15358667D02*
X13518810Y-15387238D01*
X13518810Y-15387238D02*
X13404524Y-15501524D01*
X13404524Y-15501524D02*
X13528333Y-15501524D01*
X13595000Y-15301524D02*
X13718810Y-15301524D01*
X13718810Y-15301524D02*
X13652143Y-15377714D01*
X13652143Y-15377714D02*
X13680714Y-15377714D01*
X13680714Y-15377714D02*
X13699762Y-15387238D01*
X13699762Y-15387238D02*
X13709286Y-15396762D01*
X13709286Y-15396762D02*
X13718810Y-15415809D01*
X13718810Y-15415809D02*
X13718810Y-15463428D01*
X13718810Y-15463428D02*
X13709286Y-15482476D01*
X13709286Y-15482476D02*
X13699762Y-15492000D01*
X13699762Y-15492000D02*
X13680714Y-15501524D01*
X13680714Y-15501524D02*
X13623572Y-15501524D01*
X13623572Y-15501524D02*
X13604524Y-15492000D01*
X13604524Y-15492000D02*
X13595000Y-15482476D01*
X13890238Y-15301524D02*
X13852143Y-15301524D01*
X13852143Y-15301524D02*
X13833095Y-15311048D01*
X13833095Y-15311048D02*
X13823572Y-15320571D01*
X13823572Y-15320571D02*
X13804524Y-15349143D01*
X13804524Y-15349143D02*
X13795000Y-15387238D01*
X13795000Y-15387238D02*
X13795000Y-15463428D01*
X13795000Y-15463428D02*
X13804524Y-15482476D01*
X13804524Y-15482476D02*
X13814048Y-15492000D01*
X13814048Y-15492000D02*
X13833095Y-15501524D01*
X13833095Y-15501524D02*
X13871191Y-15501524D01*
X13871191Y-15501524D02*
X13890238Y-15492000D01*
X13890238Y-15492000D02*
X13899762Y-15482476D01*
X13899762Y-15482476D02*
X13909286Y-15463428D01*
X13909286Y-15463428D02*
X13909286Y-15415809D01*
X13909286Y-15415809D02*
X13899762Y-15396762D01*
X13899762Y-15396762D02*
X13890238Y-15387238D01*
X13890238Y-15387238D02*
X13871191Y-15377714D01*
X13871191Y-15377714D02*
X13833095Y-15377714D01*
X13833095Y-15377714D02*
X13814048Y-15387238D01*
X13814048Y-15387238D02*
X13804524Y-15396762D01*
X13804524Y-15396762D02*
X13795000Y-15415809D01*
X13985476Y-15301524D02*
X13985476Y-15339619D01*
X14061667Y-15301524D02*
X14061667Y-15339619D01*
X14356905Y-15577714D02*
X14347381Y-15568190D01*
X14347381Y-15568190D02*
X14328334Y-15539619D01*
X14328334Y-15539619D02*
X14318810Y-15520571D01*
X14318810Y-15520571D02*
X14309286Y-15492000D01*
X14309286Y-15492000D02*
X14299762Y-15444381D01*
X14299762Y-15444381D02*
X14299762Y-15406286D01*
X14299762Y-15406286D02*
X14309286Y-15358667D01*
X14309286Y-15358667D02*
X14318810Y-15330095D01*
X14318810Y-15330095D02*
X14328334Y-15311048D01*
X14328334Y-15311048D02*
X14347381Y-15282476D01*
X14347381Y-15282476D02*
X14356905Y-15272952D01*
X14471191Y-15301524D02*
X14490238Y-15301524D01*
X14490238Y-15301524D02*
X14509286Y-15311048D01*
X14509286Y-15311048D02*
X14518810Y-15320571D01*
X14518810Y-15320571D02*
X14528334Y-15339619D01*
X14528334Y-15339619D02*
X14537857Y-15377714D01*
X14537857Y-15377714D02*
X14537857Y-15425333D01*
X14537857Y-15425333D02*
X14528334Y-15463428D01*
X14528334Y-15463428D02*
X14518810Y-15482476D01*
X14518810Y-15482476D02*
X14509286Y-15492000D01*
X14509286Y-15492000D02*
X14490238Y-15501524D01*
X14490238Y-15501524D02*
X14471191Y-15501524D01*
X14471191Y-15501524D02*
X14452143Y-15492000D01*
X14452143Y-15492000D02*
X14442619Y-15482476D01*
X14442619Y-15482476D02*
X14433095Y-15463428D01*
X14433095Y-15463428D02*
X14423572Y-15425333D01*
X14423572Y-15425333D02*
X14423572Y-15377714D01*
X14423572Y-15377714D02*
X14433095Y-15339619D01*
X14433095Y-15339619D02*
X14442619Y-15320571D01*
X14442619Y-15320571D02*
X14452143Y-15311048D01*
X14452143Y-15311048D02*
X14471191Y-15301524D01*
X14775953Y-15501524D02*
X14775953Y-15301524D01*
X14861667Y-15501524D02*
X14861667Y-15396762D01*
X14861667Y-15396762D02*
X14852143Y-15377714D01*
X14852143Y-15377714D02*
X14833096Y-15368190D01*
X14833096Y-15368190D02*
X14804524Y-15368190D01*
X14804524Y-15368190D02*
X14785476Y-15377714D01*
X14785476Y-15377714D02*
X14775953Y-15387238D01*
X14985476Y-15501524D02*
X14966429Y-15492000D01*
X14966429Y-15492000D02*
X14956905Y-15482476D01*
X14956905Y-15482476D02*
X14947381Y-15463428D01*
X14947381Y-15463428D02*
X14947381Y-15406286D01*
X14947381Y-15406286D02*
X14956905Y-15387238D01*
X14956905Y-15387238D02*
X14966429Y-15377714D01*
X14966429Y-15377714D02*
X14985476Y-15368190D01*
X14985476Y-15368190D02*
X15014048Y-15368190D01*
X15014048Y-15368190D02*
X15033096Y-15377714D01*
X15033096Y-15377714D02*
X15042619Y-15387238D01*
X15042619Y-15387238D02*
X15052143Y-15406286D01*
X15052143Y-15406286D02*
X15052143Y-15463428D01*
X15052143Y-15463428D02*
X15042619Y-15482476D01*
X15042619Y-15482476D02*
X15033096Y-15492000D01*
X15033096Y-15492000D02*
X15014048Y-15501524D01*
X15014048Y-15501524D02*
X14985476Y-15501524D01*
X15166429Y-15501524D02*
X15147381Y-15492000D01*
X15147381Y-15492000D02*
X15137857Y-15472952D01*
X15137857Y-15472952D02*
X15137857Y-15301524D01*
X15318810Y-15492000D02*
X15299762Y-15501524D01*
X15299762Y-15501524D02*
X15261667Y-15501524D01*
X15261667Y-15501524D02*
X15242619Y-15492000D01*
X15242619Y-15492000D02*
X15233096Y-15472952D01*
X15233096Y-15472952D02*
X15233096Y-15396762D01*
X15233096Y-15396762D02*
X15242619Y-15377714D01*
X15242619Y-15377714D02*
X15261667Y-15368190D01*
X15261667Y-15368190D02*
X15299762Y-15368190D01*
X15299762Y-15368190D02*
X15318810Y-15377714D01*
X15318810Y-15377714D02*
X15328334Y-15396762D01*
X15328334Y-15396762D02*
X15328334Y-15415809D01*
X15328334Y-15415809D02*
X15233096Y-15434857D01*
X15404524Y-15492000D02*
X15423572Y-15501524D01*
X15423572Y-15501524D02*
X15461667Y-15501524D01*
X15461667Y-15501524D02*
X15480715Y-15492000D01*
X15480715Y-15492000D02*
X15490238Y-15472952D01*
X15490238Y-15472952D02*
X15490238Y-15463428D01*
X15490238Y-15463428D02*
X15480715Y-15444381D01*
X15480715Y-15444381D02*
X15461667Y-15434857D01*
X15461667Y-15434857D02*
X15433096Y-15434857D01*
X15433096Y-15434857D02*
X15414048Y-15425333D01*
X15414048Y-15425333D02*
X15404524Y-15406286D01*
X15404524Y-15406286D02*
X15404524Y-15396762D01*
X15404524Y-15396762D02*
X15414048Y-15377714D01*
X15414048Y-15377714D02*
X15433096Y-15368190D01*
X15433096Y-15368190D02*
X15461667Y-15368190D01*
X15461667Y-15368190D02*
X15480715Y-15377714D01*
X15728334Y-15425333D02*
X15880715Y-15425333D01*
X15804524Y-15501524D02*
X15804524Y-15349143D01*
X16214048Y-15368190D02*
X16214048Y-15501524D01*
X16166429Y-15292000D02*
X16118810Y-15434857D01*
X16118810Y-15434857D02*
X16242619Y-15434857D01*
X16461667Y-15492000D02*
X16480715Y-15501524D01*
X16480715Y-15501524D02*
X16518810Y-15501524D01*
X16518810Y-15501524D02*
X16537858Y-15492000D01*
X16537858Y-15492000D02*
X16547381Y-15472952D01*
X16547381Y-15472952D02*
X16547381Y-15463428D01*
X16547381Y-15463428D02*
X16537858Y-15444381D01*
X16537858Y-15444381D02*
X16518810Y-15434857D01*
X16518810Y-15434857D02*
X16490239Y-15434857D01*
X16490239Y-15434857D02*
X16471191Y-15425333D01*
X16471191Y-15425333D02*
X16461667Y-15406286D01*
X16461667Y-15406286D02*
X16461667Y-15396762D01*
X16461667Y-15396762D02*
X16471191Y-15377714D01*
X16471191Y-15377714D02*
X16490239Y-15368190D01*
X16490239Y-15368190D02*
X16518810Y-15368190D01*
X16518810Y-15368190D02*
X16537858Y-15377714D01*
X16661667Y-15501524D02*
X16642620Y-15492000D01*
X16642620Y-15492000D02*
X16633096Y-15472952D01*
X16633096Y-15472952D02*
X16633096Y-15301524D01*
X16766429Y-15501524D02*
X16747381Y-15492000D01*
X16747381Y-15492000D02*
X16737858Y-15482476D01*
X16737858Y-15482476D02*
X16728334Y-15463428D01*
X16728334Y-15463428D02*
X16728334Y-15406286D01*
X16728334Y-15406286D02*
X16737858Y-15387238D01*
X16737858Y-15387238D02*
X16747381Y-15377714D01*
X16747381Y-15377714D02*
X16766429Y-15368190D01*
X16766429Y-15368190D02*
X16795001Y-15368190D01*
X16795001Y-15368190D02*
X16814048Y-15377714D01*
X16814048Y-15377714D02*
X16823572Y-15387238D01*
X16823572Y-15387238D02*
X16833096Y-15406286D01*
X16833096Y-15406286D02*
X16833096Y-15463428D01*
X16833096Y-15463428D02*
X16823572Y-15482476D01*
X16823572Y-15482476D02*
X16814048Y-15492000D01*
X16814048Y-15492000D02*
X16795001Y-15501524D01*
X16795001Y-15501524D02*
X16766429Y-15501524D01*
X16890239Y-15368190D02*
X16966429Y-15368190D01*
X16918810Y-15301524D02*
X16918810Y-15472952D01*
X16918810Y-15472952D02*
X16928334Y-15492000D01*
X16928334Y-15492000D02*
X16947382Y-15501524D01*
X16947382Y-15501524D02*
X16966429Y-15501524D01*
X17023572Y-15492000D02*
X17042620Y-15501524D01*
X17042620Y-15501524D02*
X17080715Y-15501524D01*
X17080715Y-15501524D02*
X17099763Y-15492000D01*
X17099763Y-15492000D02*
X17109286Y-15472952D01*
X17109286Y-15472952D02*
X17109286Y-15463428D01*
X17109286Y-15463428D02*
X17099763Y-15444381D01*
X17099763Y-15444381D02*
X17080715Y-15434857D01*
X17080715Y-15434857D02*
X17052143Y-15434857D01*
X17052143Y-15434857D02*
X17033096Y-15425333D01*
X17033096Y-15425333D02*
X17023572Y-15406286D01*
X17023572Y-15406286D02*
X17023572Y-15396762D01*
X17023572Y-15396762D02*
X17033096Y-15377714D01*
X17033096Y-15377714D02*
X17052143Y-15368190D01*
X17052143Y-15368190D02*
X17080715Y-15368190D01*
X17080715Y-15368190D02*
X17099763Y-15377714D01*
X17175953Y-15577714D02*
X17185477Y-15568190D01*
X17185477Y-15568190D02*
X17204524Y-15539619D01*
X17204524Y-15539619D02*
X17214048Y-15520571D01*
X17214048Y-15520571D02*
X17223572Y-15492000D01*
X17223572Y-15492000D02*
X17233096Y-15444381D01*
X17233096Y-15444381D02*
X17233096Y-15406286D01*
X17233096Y-15406286D02*
X17223572Y-15358667D01*
X17223572Y-15358667D02*
X17214048Y-15330095D01*
X17214048Y-15330095D02*
X17204524Y-15311048D01*
X17204524Y-15311048D02*
X17185477Y-15282476D01*
X17185477Y-15282476D02*
X17175953Y-15272952D01*
D14*
X10747500Y-15625500D02*
X10747500Y-15720500D01*
X10700000Y-15673000D02*
X10795000Y-15673000D01*
D11*
X11080714Y-15565524D02*
X11099762Y-15565524D01*
X11099762Y-15565524D02*
X11118810Y-15575048D01*
X11118810Y-15575048D02*
X11128333Y-15584571D01*
X11128333Y-15584571D02*
X11137857Y-15603619D01*
X11137857Y-15603619D02*
X11147381Y-15641714D01*
X11147381Y-15641714D02*
X11147381Y-15689333D01*
X11147381Y-15689333D02*
X11137857Y-15727428D01*
X11137857Y-15727428D02*
X11128333Y-15746476D01*
X11128333Y-15746476D02*
X11118810Y-15756000D01*
X11118810Y-15756000D02*
X11099762Y-15765524D01*
X11099762Y-15765524D02*
X11080714Y-15765524D01*
X11080714Y-15765524D02*
X11061667Y-15756000D01*
X11061667Y-15756000D02*
X11052143Y-15746476D01*
X11052143Y-15746476D02*
X11042619Y-15727428D01*
X11042619Y-15727428D02*
X11033095Y-15689333D01*
X11033095Y-15689333D02*
X11033095Y-15641714D01*
X11033095Y-15641714D02*
X11042619Y-15603619D01*
X11042619Y-15603619D02*
X11052143Y-15584571D01*
X11052143Y-15584571D02*
X11061667Y-15575048D01*
X11061667Y-15575048D02*
X11080714Y-15565524D01*
X11233095Y-15746476D02*
X11242619Y-15756000D01*
X11242619Y-15756000D02*
X11233095Y-15765524D01*
X11233095Y-15765524D02*
X11223571Y-15756000D01*
X11223571Y-15756000D02*
X11233095Y-15746476D01*
X11233095Y-15746476D02*
X11233095Y-15765524D01*
X11337857Y-15765524D02*
X11375952Y-15765524D01*
X11375952Y-15765524D02*
X11395000Y-15756000D01*
X11395000Y-15756000D02*
X11404524Y-15746476D01*
X11404524Y-15746476D02*
X11423571Y-15717905D01*
X11423571Y-15717905D02*
X11433095Y-15679809D01*
X11433095Y-15679809D02*
X11433095Y-15603619D01*
X11433095Y-15603619D02*
X11423571Y-15584571D01*
X11423571Y-15584571D02*
X11414048Y-15575048D01*
X11414048Y-15575048D02*
X11395000Y-15565524D01*
X11395000Y-15565524D02*
X11356905Y-15565524D01*
X11356905Y-15565524D02*
X11337857Y-15575048D01*
X11337857Y-15575048D02*
X11328333Y-15584571D01*
X11328333Y-15584571D02*
X11318809Y-15603619D01*
X11318809Y-15603619D02*
X11318809Y-15651238D01*
X11318809Y-15651238D02*
X11328333Y-15670286D01*
X11328333Y-15670286D02*
X11337857Y-15679809D01*
X11337857Y-15679809D02*
X11356905Y-15689333D01*
X11356905Y-15689333D02*
X11395000Y-15689333D01*
X11395000Y-15689333D02*
X11414048Y-15679809D01*
X11414048Y-15679809D02*
X11423571Y-15670286D01*
X11423571Y-15670286D02*
X11433095Y-15651238D01*
X11614048Y-15565524D02*
X11518809Y-15565524D01*
X11518809Y-15565524D02*
X11509286Y-15660762D01*
X11509286Y-15660762D02*
X11518809Y-15651238D01*
X11518809Y-15651238D02*
X11537857Y-15641714D01*
X11537857Y-15641714D02*
X11585476Y-15641714D01*
X11585476Y-15641714D02*
X11604524Y-15651238D01*
X11604524Y-15651238D02*
X11614048Y-15660762D01*
X11614048Y-15660762D02*
X11623571Y-15679809D01*
X11623571Y-15679809D02*
X11623571Y-15727428D01*
X11623571Y-15727428D02*
X11614048Y-15746476D01*
X11614048Y-15746476D02*
X11604524Y-15756000D01*
X11604524Y-15756000D02*
X11585476Y-15765524D01*
X11585476Y-15765524D02*
X11537857Y-15765524D01*
X11537857Y-15765524D02*
X11518809Y-15756000D01*
X11518809Y-15756000D02*
X11509286Y-15746476D01*
X11747381Y-15565524D02*
X11766429Y-15565524D01*
X11766429Y-15565524D02*
X11785476Y-15575048D01*
X11785476Y-15575048D02*
X11795000Y-15584571D01*
X11795000Y-15584571D02*
X11804524Y-15603619D01*
X11804524Y-15603619D02*
X11814048Y-15641714D01*
X11814048Y-15641714D02*
X11814048Y-15689333D01*
X11814048Y-15689333D02*
X11804524Y-15727428D01*
X11804524Y-15727428D02*
X11795000Y-15746476D01*
X11795000Y-15746476D02*
X11785476Y-15756000D01*
X11785476Y-15756000D02*
X11766429Y-15765524D01*
X11766429Y-15765524D02*
X11747381Y-15765524D01*
X11747381Y-15765524D02*
X11728333Y-15756000D01*
X11728333Y-15756000D02*
X11718809Y-15746476D01*
X11718809Y-15746476D02*
X11709286Y-15727428D01*
X11709286Y-15727428D02*
X11699762Y-15689333D01*
X11699762Y-15689333D02*
X11699762Y-15641714D01*
X11699762Y-15641714D02*
X11709286Y-15603619D01*
X11709286Y-15603619D02*
X11718809Y-15584571D01*
X11718809Y-15584571D02*
X11728333Y-15575048D01*
X11728333Y-15575048D02*
X11747381Y-15565524D01*
X11899762Y-15765524D02*
X11899762Y-15632190D01*
X11899762Y-15651238D02*
X11909286Y-15641714D01*
X11909286Y-15641714D02*
X11928333Y-15632190D01*
X11928333Y-15632190D02*
X11956905Y-15632190D01*
X11956905Y-15632190D02*
X11975952Y-15641714D01*
X11975952Y-15641714D02*
X11985476Y-15660762D01*
X11985476Y-15660762D02*
X11985476Y-15765524D01*
X11985476Y-15660762D02*
X11995000Y-15641714D01*
X11995000Y-15641714D02*
X12014048Y-15632190D01*
X12014048Y-15632190D02*
X12042619Y-15632190D01*
X12042619Y-15632190D02*
X12061667Y-15641714D01*
X12061667Y-15641714D02*
X12071190Y-15660762D01*
X12071190Y-15660762D02*
X12071190Y-15765524D01*
X12166429Y-15765524D02*
X12166429Y-15632190D01*
X12166429Y-15651238D02*
X12175952Y-15641714D01*
X12175952Y-15641714D02*
X12195000Y-15632190D01*
X12195000Y-15632190D02*
X12223571Y-15632190D01*
X12223571Y-15632190D02*
X12242619Y-15641714D01*
X12242619Y-15641714D02*
X12252143Y-15660762D01*
X12252143Y-15660762D02*
X12252143Y-15765524D01*
X12252143Y-15660762D02*
X12261667Y-15641714D01*
X12261667Y-15641714D02*
X12280714Y-15632190D01*
X12280714Y-15632190D02*
X12309286Y-15632190D01*
X12309286Y-15632190D02*
X12328333Y-15641714D01*
X12328333Y-15641714D02*
X12337857Y-15660762D01*
X12337857Y-15660762D02*
X12337857Y-15765524D01*
X12728333Y-15556000D02*
X12556905Y-15813143D01*
X12985476Y-15565524D02*
X13004524Y-15565524D01*
X13004524Y-15565524D02*
X13023572Y-15575048D01*
X13023572Y-15575048D02*
X13033095Y-15584571D01*
X13033095Y-15584571D02*
X13042619Y-15603619D01*
X13042619Y-15603619D02*
X13052143Y-15641714D01*
X13052143Y-15641714D02*
X13052143Y-15689333D01*
X13052143Y-15689333D02*
X13042619Y-15727428D01*
X13042619Y-15727428D02*
X13033095Y-15746476D01*
X13033095Y-15746476D02*
X13023572Y-15756000D01*
X13023572Y-15756000D02*
X13004524Y-15765524D01*
X13004524Y-15765524D02*
X12985476Y-15765524D01*
X12985476Y-15765524D02*
X12966429Y-15756000D01*
X12966429Y-15756000D02*
X12956905Y-15746476D01*
X12956905Y-15746476D02*
X12947381Y-15727428D01*
X12947381Y-15727428D02*
X12937857Y-15689333D01*
X12937857Y-15689333D02*
X12937857Y-15641714D01*
X12937857Y-15641714D02*
X12947381Y-15603619D01*
X12947381Y-15603619D02*
X12956905Y-15584571D01*
X12956905Y-15584571D02*
X12966429Y-15575048D01*
X12966429Y-15575048D02*
X12985476Y-15565524D01*
X13137857Y-15746476D02*
X13147381Y-15756000D01*
X13147381Y-15756000D02*
X13137857Y-15765524D01*
X13137857Y-15765524D02*
X13128333Y-15756000D01*
X13128333Y-15756000D02*
X13137857Y-15746476D01*
X13137857Y-15746476D02*
X13137857Y-15765524D01*
X13271191Y-15565524D02*
X13290238Y-15565524D01*
X13290238Y-15565524D02*
X13309286Y-15575048D01*
X13309286Y-15575048D02*
X13318810Y-15584571D01*
X13318810Y-15584571D02*
X13328333Y-15603619D01*
X13328333Y-15603619D02*
X13337857Y-15641714D01*
X13337857Y-15641714D02*
X13337857Y-15689333D01*
X13337857Y-15689333D02*
X13328333Y-15727428D01*
X13328333Y-15727428D02*
X13318810Y-15746476D01*
X13318810Y-15746476D02*
X13309286Y-15756000D01*
X13309286Y-15756000D02*
X13290238Y-15765524D01*
X13290238Y-15765524D02*
X13271191Y-15765524D01*
X13271191Y-15765524D02*
X13252143Y-15756000D01*
X13252143Y-15756000D02*
X13242619Y-15746476D01*
X13242619Y-15746476D02*
X13233095Y-15727428D01*
X13233095Y-15727428D02*
X13223572Y-15689333D01*
X13223572Y-15689333D02*
X13223572Y-15641714D01*
X13223572Y-15641714D02*
X13233095Y-15603619D01*
X13233095Y-15603619D02*
X13242619Y-15584571D01*
X13242619Y-15584571D02*
X13252143Y-15575048D01*
X13252143Y-15575048D02*
X13271191Y-15565524D01*
X13404524Y-15565524D02*
X13528333Y-15565524D01*
X13528333Y-15565524D02*
X13461667Y-15641714D01*
X13461667Y-15641714D02*
X13490238Y-15641714D01*
X13490238Y-15641714D02*
X13509286Y-15651238D01*
X13509286Y-15651238D02*
X13518810Y-15660762D01*
X13518810Y-15660762D02*
X13528333Y-15679809D01*
X13528333Y-15679809D02*
X13528333Y-15727428D01*
X13528333Y-15727428D02*
X13518810Y-15746476D01*
X13518810Y-15746476D02*
X13509286Y-15756000D01*
X13509286Y-15756000D02*
X13490238Y-15765524D01*
X13490238Y-15765524D02*
X13433095Y-15765524D01*
X13433095Y-15765524D02*
X13414048Y-15756000D01*
X13414048Y-15756000D02*
X13404524Y-15746476D01*
X13595000Y-15565524D02*
X13728333Y-15565524D01*
X13728333Y-15565524D02*
X13642619Y-15765524D01*
X13890238Y-15632190D02*
X13890238Y-15765524D01*
X13842619Y-15556000D02*
X13795000Y-15698857D01*
X13795000Y-15698857D02*
X13918810Y-15698857D01*
X13985476Y-15565524D02*
X13985476Y-15603619D01*
X14061667Y-15565524D02*
X14061667Y-15603619D01*
X14356905Y-15841714D02*
X14347381Y-15832190D01*
X14347381Y-15832190D02*
X14328334Y-15803619D01*
X14328334Y-15803619D02*
X14318810Y-15784571D01*
X14318810Y-15784571D02*
X14309286Y-15756000D01*
X14309286Y-15756000D02*
X14299762Y-15708381D01*
X14299762Y-15708381D02*
X14299762Y-15670286D01*
X14299762Y-15670286D02*
X14309286Y-15622667D01*
X14309286Y-15622667D02*
X14318810Y-15594095D01*
X14318810Y-15594095D02*
X14328334Y-15575048D01*
X14328334Y-15575048D02*
X14347381Y-15546476D01*
X14347381Y-15546476D02*
X14356905Y-15536952D01*
X14442619Y-15765524D02*
X14480714Y-15765524D01*
X14480714Y-15765524D02*
X14499762Y-15756000D01*
X14499762Y-15756000D02*
X14509286Y-15746476D01*
X14509286Y-15746476D02*
X14528334Y-15717905D01*
X14528334Y-15717905D02*
X14537857Y-15679809D01*
X14537857Y-15679809D02*
X14537857Y-15603619D01*
X14537857Y-15603619D02*
X14528334Y-15584571D01*
X14528334Y-15584571D02*
X14518810Y-15575048D01*
X14518810Y-15575048D02*
X14499762Y-15565524D01*
X14499762Y-15565524D02*
X14461667Y-15565524D01*
X14461667Y-15565524D02*
X14442619Y-15575048D01*
X14442619Y-15575048D02*
X14433095Y-15584571D01*
X14433095Y-15584571D02*
X14423572Y-15603619D01*
X14423572Y-15603619D02*
X14423572Y-15651238D01*
X14423572Y-15651238D02*
X14433095Y-15670286D01*
X14433095Y-15670286D02*
X14442619Y-15679809D01*
X14442619Y-15679809D02*
X14461667Y-15689333D01*
X14461667Y-15689333D02*
X14499762Y-15689333D01*
X14499762Y-15689333D02*
X14518810Y-15679809D01*
X14518810Y-15679809D02*
X14528334Y-15670286D01*
X14528334Y-15670286D02*
X14537857Y-15651238D01*
X14709286Y-15565524D02*
X14671191Y-15565524D01*
X14671191Y-15565524D02*
X14652143Y-15575048D01*
X14652143Y-15575048D02*
X14642619Y-15584571D01*
X14642619Y-15584571D02*
X14623572Y-15613143D01*
X14623572Y-15613143D02*
X14614048Y-15651238D01*
X14614048Y-15651238D02*
X14614048Y-15727428D01*
X14614048Y-15727428D02*
X14623572Y-15746476D01*
X14623572Y-15746476D02*
X14633095Y-15756000D01*
X14633095Y-15756000D02*
X14652143Y-15765524D01*
X14652143Y-15765524D02*
X14690238Y-15765524D01*
X14690238Y-15765524D02*
X14709286Y-15756000D01*
X14709286Y-15756000D02*
X14718810Y-15746476D01*
X14718810Y-15746476D02*
X14728334Y-15727428D01*
X14728334Y-15727428D02*
X14728334Y-15679809D01*
X14728334Y-15679809D02*
X14718810Y-15660762D01*
X14718810Y-15660762D02*
X14709286Y-15651238D01*
X14709286Y-15651238D02*
X14690238Y-15641714D01*
X14690238Y-15641714D02*
X14652143Y-15641714D01*
X14652143Y-15641714D02*
X14633095Y-15651238D01*
X14633095Y-15651238D02*
X14623572Y-15660762D01*
X14623572Y-15660762D02*
X14614048Y-15679809D01*
X14966429Y-15765524D02*
X14966429Y-15565524D01*
X15052143Y-15765524D02*
X15052143Y-15660762D01*
X15052143Y-15660762D02*
X15042619Y-15641714D01*
X15042619Y-15641714D02*
X15023572Y-15632190D01*
X15023572Y-15632190D02*
X14995000Y-15632190D01*
X14995000Y-15632190D02*
X14975953Y-15641714D01*
X14975953Y-15641714D02*
X14966429Y-15651238D01*
X15175953Y-15765524D02*
X15156905Y-15756000D01*
X15156905Y-15756000D02*
X15147381Y-15746476D01*
X15147381Y-15746476D02*
X15137857Y-15727428D01*
X15137857Y-15727428D02*
X15137857Y-15670286D01*
X15137857Y-15670286D02*
X15147381Y-15651238D01*
X15147381Y-15651238D02*
X15156905Y-15641714D01*
X15156905Y-15641714D02*
X15175953Y-15632190D01*
X15175953Y-15632190D02*
X15204524Y-15632190D01*
X15204524Y-15632190D02*
X15223572Y-15641714D01*
X15223572Y-15641714D02*
X15233096Y-15651238D01*
X15233096Y-15651238D02*
X15242619Y-15670286D01*
X15242619Y-15670286D02*
X15242619Y-15727428D01*
X15242619Y-15727428D02*
X15233096Y-15746476D01*
X15233096Y-15746476D02*
X15223572Y-15756000D01*
X15223572Y-15756000D02*
X15204524Y-15765524D01*
X15204524Y-15765524D02*
X15175953Y-15765524D01*
X15356905Y-15765524D02*
X15337857Y-15756000D01*
X15337857Y-15756000D02*
X15328334Y-15736952D01*
X15328334Y-15736952D02*
X15328334Y-15565524D01*
X15509286Y-15756000D02*
X15490238Y-15765524D01*
X15490238Y-15765524D02*
X15452143Y-15765524D01*
X15452143Y-15765524D02*
X15433096Y-15756000D01*
X15433096Y-15756000D02*
X15423572Y-15736952D01*
X15423572Y-15736952D02*
X15423572Y-15660762D01*
X15423572Y-15660762D02*
X15433096Y-15641714D01*
X15433096Y-15641714D02*
X15452143Y-15632190D01*
X15452143Y-15632190D02*
X15490238Y-15632190D01*
X15490238Y-15632190D02*
X15509286Y-15641714D01*
X15509286Y-15641714D02*
X15518810Y-15660762D01*
X15518810Y-15660762D02*
X15518810Y-15679809D01*
X15518810Y-15679809D02*
X15423572Y-15698857D01*
X15595000Y-15756000D02*
X15614048Y-15765524D01*
X15614048Y-15765524D02*
X15652143Y-15765524D01*
X15652143Y-15765524D02*
X15671191Y-15756000D01*
X15671191Y-15756000D02*
X15680715Y-15736952D01*
X15680715Y-15736952D02*
X15680715Y-15727428D01*
X15680715Y-15727428D02*
X15671191Y-15708381D01*
X15671191Y-15708381D02*
X15652143Y-15698857D01*
X15652143Y-15698857D02*
X15623572Y-15698857D01*
X15623572Y-15698857D02*
X15604524Y-15689333D01*
X15604524Y-15689333D02*
X15595000Y-15670286D01*
X15595000Y-15670286D02*
X15595000Y-15660762D01*
X15595000Y-15660762D02*
X15604524Y-15641714D01*
X15604524Y-15641714D02*
X15623572Y-15632190D01*
X15623572Y-15632190D02*
X15652143Y-15632190D01*
X15652143Y-15632190D02*
X15671191Y-15641714D01*
X15747381Y-15841714D02*
X15756905Y-15832190D01*
X15756905Y-15832190D02*
X15775953Y-15803619D01*
X15775953Y-15803619D02*
X15785477Y-15784571D01*
X15785477Y-15784571D02*
X15795000Y-15756000D01*
X15795000Y-15756000D02*
X15804524Y-15708381D01*
X15804524Y-15708381D02*
X15804524Y-15670286D01*
X15804524Y-15670286D02*
X15795000Y-15622667D01*
X15795000Y-15622667D02*
X15785477Y-15594095D01*
X15785477Y-15594095D02*
X15775953Y-15575048D01*
X15775953Y-15575048D02*
X15756905Y-15546476D01*
X15756905Y-15546476D02*
X15747381Y-15536952D01*
D10*
X10780356Y-15972356D02*
X10780356Y-15901644D01*
X10709644Y-15901644D01*
X10709644Y-15972356D01*
X10780356Y-15972356D01*
D11*
X11147381Y-16029524D02*
X11033095Y-16029524D01*
X11090238Y-16029524D02*
X11090238Y-15829524D01*
X11090238Y-15829524D02*
X11071190Y-15858095D01*
X11071190Y-15858095D02*
X11052143Y-15877143D01*
X11052143Y-15877143D02*
X11033095Y-15886667D01*
X11233095Y-16010476D02*
X11242619Y-16020000D01*
X11242619Y-16020000D02*
X11233095Y-16029524D01*
X11233095Y-16029524D02*
X11223571Y-16020000D01*
X11223571Y-16020000D02*
X11233095Y-16010476D01*
X11233095Y-16010476D02*
X11233095Y-16029524D01*
X11366428Y-15829524D02*
X11385476Y-15829524D01*
X11385476Y-15829524D02*
X11404524Y-15839048D01*
X11404524Y-15839048D02*
X11414048Y-15848571D01*
X11414048Y-15848571D02*
X11423571Y-15867619D01*
X11423571Y-15867619D02*
X11433095Y-15905714D01*
X11433095Y-15905714D02*
X11433095Y-15953333D01*
X11433095Y-15953333D02*
X11423571Y-15991428D01*
X11423571Y-15991428D02*
X11414048Y-16010476D01*
X11414048Y-16010476D02*
X11404524Y-16020000D01*
X11404524Y-16020000D02*
X11385476Y-16029524D01*
X11385476Y-16029524D02*
X11366428Y-16029524D01*
X11366428Y-16029524D02*
X11347381Y-16020000D01*
X11347381Y-16020000D02*
X11337857Y-16010476D01*
X11337857Y-16010476D02*
X11328333Y-15991428D01*
X11328333Y-15991428D02*
X11318809Y-15953333D01*
X11318809Y-15953333D02*
X11318809Y-15905714D01*
X11318809Y-15905714D02*
X11328333Y-15867619D01*
X11328333Y-15867619D02*
X11337857Y-15848571D01*
X11337857Y-15848571D02*
X11347381Y-15839048D01*
X11347381Y-15839048D02*
X11366428Y-15829524D01*
X11556905Y-15829524D02*
X11575952Y-15829524D01*
X11575952Y-15829524D02*
X11595000Y-15839048D01*
X11595000Y-15839048D02*
X11604524Y-15848571D01*
X11604524Y-15848571D02*
X11614048Y-15867619D01*
X11614048Y-15867619D02*
X11623571Y-15905714D01*
X11623571Y-15905714D02*
X11623571Y-15953333D01*
X11623571Y-15953333D02*
X11614048Y-15991428D01*
X11614048Y-15991428D02*
X11604524Y-16010476D01*
X11604524Y-16010476D02*
X11595000Y-16020000D01*
X11595000Y-16020000D02*
X11575952Y-16029524D01*
X11575952Y-16029524D02*
X11556905Y-16029524D01*
X11556905Y-16029524D02*
X11537857Y-16020000D01*
X11537857Y-16020000D02*
X11528333Y-16010476D01*
X11528333Y-16010476D02*
X11518809Y-15991428D01*
X11518809Y-15991428D02*
X11509286Y-15953333D01*
X11509286Y-15953333D02*
X11509286Y-15905714D01*
X11509286Y-15905714D02*
X11518809Y-15867619D01*
X11518809Y-15867619D02*
X11528333Y-15848571D01*
X11528333Y-15848571D02*
X11537857Y-15839048D01*
X11537857Y-15839048D02*
X11556905Y-15829524D01*
X11747381Y-15829524D02*
X11766429Y-15829524D01*
X11766429Y-15829524D02*
X11785476Y-15839048D01*
X11785476Y-15839048D02*
X11795000Y-15848571D01*
X11795000Y-15848571D02*
X11804524Y-15867619D01*
X11804524Y-15867619D02*
X11814048Y-15905714D01*
X11814048Y-15905714D02*
X11814048Y-15953333D01*
X11814048Y-15953333D02*
X11804524Y-15991428D01*
X11804524Y-15991428D02*
X11795000Y-16010476D01*
X11795000Y-16010476D02*
X11785476Y-16020000D01*
X11785476Y-16020000D02*
X11766429Y-16029524D01*
X11766429Y-16029524D02*
X11747381Y-16029524D01*
X11747381Y-16029524D02*
X11728333Y-16020000D01*
X11728333Y-16020000D02*
X11718809Y-16010476D01*
X11718809Y-16010476D02*
X11709286Y-15991428D01*
X11709286Y-15991428D02*
X11699762Y-15953333D01*
X11699762Y-15953333D02*
X11699762Y-15905714D01*
X11699762Y-15905714D02*
X11709286Y-15867619D01*
X11709286Y-15867619D02*
X11718809Y-15848571D01*
X11718809Y-15848571D02*
X11728333Y-15839048D01*
X11728333Y-15839048D02*
X11747381Y-15829524D01*
X11899762Y-16029524D02*
X11899762Y-15896190D01*
X11899762Y-15915238D02*
X11909286Y-15905714D01*
X11909286Y-15905714D02*
X11928333Y-15896190D01*
X11928333Y-15896190D02*
X11956905Y-15896190D01*
X11956905Y-15896190D02*
X11975952Y-15905714D01*
X11975952Y-15905714D02*
X11985476Y-15924762D01*
X11985476Y-15924762D02*
X11985476Y-16029524D01*
X11985476Y-15924762D02*
X11995000Y-15905714D01*
X11995000Y-15905714D02*
X12014048Y-15896190D01*
X12014048Y-15896190D02*
X12042619Y-15896190D01*
X12042619Y-15896190D02*
X12061667Y-15905714D01*
X12061667Y-15905714D02*
X12071190Y-15924762D01*
X12071190Y-15924762D02*
X12071190Y-16029524D01*
X12166429Y-16029524D02*
X12166429Y-15896190D01*
X12166429Y-15915238D02*
X12175952Y-15905714D01*
X12175952Y-15905714D02*
X12195000Y-15896190D01*
X12195000Y-15896190D02*
X12223571Y-15896190D01*
X12223571Y-15896190D02*
X12242619Y-15905714D01*
X12242619Y-15905714D02*
X12252143Y-15924762D01*
X12252143Y-15924762D02*
X12252143Y-16029524D01*
X12252143Y-15924762D02*
X12261667Y-15905714D01*
X12261667Y-15905714D02*
X12280714Y-15896190D01*
X12280714Y-15896190D02*
X12309286Y-15896190D01*
X12309286Y-15896190D02*
X12328333Y-15905714D01*
X12328333Y-15905714D02*
X12337857Y-15924762D01*
X12337857Y-15924762D02*
X12337857Y-16029524D01*
X12728333Y-15820000D02*
X12556905Y-16077143D01*
X12985476Y-15829524D02*
X13004524Y-15829524D01*
X13004524Y-15829524D02*
X13023572Y-15839048D01*
X13023572Y-15839048D02*
X13033095Y-15848571D01*
X13033095Y-15848571D02*
X13042619Y-15867619D01*
X13042619Y-15867619D02*
X13052143Y-15905714D01*
X13052143Y-15905714D02*
X13052143Y-15953333D01*
X13052143Y-15953333D02*
X13042619Y-15991428D01*
X13042619Y-15991428D02*
X13033095Y-16010476D01*
X13033095Y-16010476D02*
X13023572Y-16020000D01*
X13023572Y-16020000D02*
X13004524Y-16029524D01*
X13004524Y-16029524D02*
X12985476Y-16029524D01*
X12985476Y-16029524D02*
X12966429Y-16020000D01*
X12966429Y-16020000D02*
X12956905Y-16010476D01*
X12956905Y-16010476D02*
X12947381Y-15991428D01*
X12947381Y-15991428D02*
X12937857Y-15953333D01*
X12937857Y-15953333D02*
X12937857Y-15905714D01*
X12937857Y-15905714D02*
X12947381Y-15867619D01*
X12947381Y-15867619D02*
X12956905Y-15848571D01*
X12956905Y-15848571D02*
X12966429Y-15839048D01*
X12966429Y-15839048D02*
X12985476Y-15829524D01*
X13137857Y-16010476D02*
X13147381Y-16020000D01*
X13147381Y-16020000D02*
X13137857Y-16029524D01*
X13137857Y-16029524D02*
X13128333Y-16020000D01*
X13128333Y-16020000D02*
X13137857Y-16010476D01*
X13137857Y-16010476D02*
X13137857Y-16029524D01*
X13271191Y-15829524D02*
X13290238Y-15829524D01*
X13290238Y-15829524D02*
X13309286Y-15839048D01*
X13309286Y-15839048D02*
X13318810Y-15848571D01*
X13318810Y-15848571D02*
X13328333Y-15867619D01*
X13328333Y-15867619D02*
X13337857Y-15905714D01*
X13337857Y-15905714D02*
X13337857Y-15953333D01*
X13337857Y-15953333D02*
X13328333Y-15991428D01*
X13328333Y-15991428D02*
X13318810Y-16010476D01*
X13318810Y-16010476D02*
X13309286Y-16020000D01*
X13309286Y-16020000D02*
X13290238Y-16029524D01*
X13290238Y-16029524D02*
X13271191Y-16029524D01*
X13271191Y-16029524D02*
X13252143Y-16020000D01*
X13252143Y-16020000D02*
X13242619Y-16010476D01*
X13242619Y-16010476D02*
X13233095Y-15991428D01*
X13233095Y-15991428D02*
X13223572Y-15953333D01*
X13223572Y-15953333D02*
X13223572Y-15905714D01*
X13223572Y-15905714D02*
X13233095Y-15867619D01*
X13233095Y-15867619D02*
X13242619Y-15848571D01*
X13242619Y-15848571D02*
X13252143Y-15839048D01*
X13252143Y-15839048D02*
X13271191Y-15829524D01*
X13404524Y-15829524D02*
X13528333Y-15829524D01*
X13528333Y-15829524D02*
X13461667Y-15905714D01*
X13461667Y-15905714D02*
X13490238Y-15905714D01*
X13490238Y-15905714D02*
X13509286Y-15915238D01*
X13509286Y-15915238D02*
X13518810Y-15924762D01*
X13518810Y-15924762D02*
X13528333Y-15943809D01*
X13528333Y-15943809D02*
X13528333Y-15991428D01*
X13528333Y-15991428D02*
X13518810Y-16010476D01*
X13518810Y-16010476D02*
X13509286Y-16020000D01*
X13509286Y-16020000D02*
X13490238Y-16029524D01*
X13490238Y-16029524D02*
X13433095Y-16029524D01*
X13433095Y-16029524D02*
X13414048Y-16020000D01*
X13414048Y-16020000D02*
X13404524Y-16010476D01*
X13623572Y-16029524D02*
X13661667Y-16029524D01*
X13661667Y-16029524D02*
X13680714Y-16020000D01*
X13680714Y-16020000D02*
X13690238Y-16010476D01*
X13690238Y-16010476D02*
X13709286Y-15981905D01*
X13709286Y-15981905D02*
X13718810Y-15943809D01*
X13718810Y-15943809D02*
X13718810Y-15867619D01*
X13718810Y-15867619D02*
X13709286Y-15848571D01*
X13709286Y-15848571D02*
X13699762Y-15839048D01*
X13699762Y-15839048D02*
X13680714Y-15829524D01*
X13680714Y-15829524D02*
X13642619Y-15829524D01*
X13642619Y-15829524D02*
X13623572Y-15839048D01*
X13623572Y-15839048D02*
X13614048Y-15848571D01*
X13614048Y-15848571D02*
X13604524Y-15867619D01*
X13604524Y-15867619D02*
X13604524Y-15915238D01*
X13604524Y-15915238D02*
X13614048Y-15934286D01*
X13614048Y-15934286D02*
X13623572Y-15943809D01*
X13623572Y-15943809D02*
X13642619Y-15953333D01*
X13642619Y-15953333D02*
X13680714Y-15953333D01*
X13680714Y-15953333D02*
X13699762Y-15943809D01*
X13699762Y-15943809D02*
X13709286Y-15934286D01*
X13709286Y-15934286D02*
X13718810Y-15915238D01*
X13890238Y-15896190D02*
X13890238Y-16029524D01*
X13842619Y-15820000D02*
X13795000Y-15962857D01*
X13795000Y-15962857D02*
X13918810Y-15962857D01*
X13985476Y-15829524D02*
X13985476Y-15867619D01*
X14061667Y-15829524D02*
X14061667Y-15867619D01*
X14356905Y-16105714D02*
X14347381Y-16096190D01*
X14347381Y-16096190D02*
X14328334Y-16067619D01*
X14328334Y-16067619D02*
X14318810Y-16048571D01*
X14318810Y-16048571D02*
X14309286Y-16020000D01*
X14309286Y-16020000D02*
X14299762Y-15972381D01*
X14299762Y-15972381D02*
X14299762Y-15934286D01*
X14299762Y-15934286D02*
X14309286Y-15886667D01*
X14309286Y-15886667D02*
X14318810Y-15858095D01*
X14318810Y-15858095D02*
X14328334Y-15839048D01*
X14328334Y-15839048D02*
X14347381Y-15810476D01*
X14347381Y-15810476D02*
X14356905Y-15800952D01*
X14537857Y-16029524D02*
X14423572Y-16029524D01*
X14480714Y-16029524D02*
X14480714Y-15829524D01*
X14480714Y-15829524D02*
X14461667Y-15858095D01*
X14461667Y-15858095D02*
X14442619Y-15877143D01*
X14442619Y-15877143D02*
X14423572Y-15886667D01*
X14614048Y-15848571D02*
X14623572Y-15839048D01*
X14623572Y-15839048D02*
X14642619Y-15829524D01*
X14642619Y-15829524D02*
X14690238Y-15829524D01*
X14690238Y-15829524D02*
X14709286Y-15839048D01*
X14709286Y-15839048D02*
X14718810Y-15848571D01*
X14718810Y-15848571D02*
X14728334Y-15867619D01*
X14728334Y-15867619D02*
X14728334Y-15886667D01*
X14728334Y-15886667D02*
X14718810Y-15915238D01*
X14718810Y-15915238D02*
X14604524Y-16029524D01*
X14604524Y-16029524D02*
X14728334Y-16029524D01*
X14966429Y-16029524D02*
X14966429Y-15829524D01*
X15052143Y-16029524D02*
X15052143Y-15924762D01*
X15052143Y-15924762D02*
X15042619Y-15905714D01*
X15042619Y-15905714D02*
X15023572Y-15896190D01*
X15023572Y-15896190D02*
X14995000Y-15896190D01*
X14995000Y-15896190D02*
X14975953Y-15905714D01*
X14975953Y-15905714D02*
X14966429Y-15915238D01*
X15175953Y-16029524D02*
X15156905Y-16020000D01*
X15156905Y-16020000D02*
X15147381Y-16010476D01*
X15147381Y-16010476D02*
X15137857Y-15991428D01*
X15137857Y-15991428D02*
X15137857Y-15934286D01*
X15137857Y-15934286D02*
X15147381Y-15915238D01*
X15147381Y-15915238D02*
X15156905Y-15905714D01*
X15156905Y-15905714D02*
X15175953Y-15896190D01*
X15175953Y-15896190D02*
X15204524Y-15896190D01*
X15204524Y-15896190D02*
X15223572Y-15905714D01*
X15223572Y-15905714D02*
X15233096Y-15915238D01*
X15233096Y-15915238D02*
X15242619Y-15934286D01*
X15242619Y-15934286D02*
X15242619Y-15991428D01*
X15242619Y-15991428D02*
X15233096Y-16010476D01*
X15233096Y-16010476D02*
X15223572Y-16020000D01*
X15223572Y-16020000D02*
X15204524Y-16029524D01*
X15204524Y-16029524D02*
X15175953Y-16029524D01*
X15356905Y-16029524D02*
X15337857Y-16020000D01*
X15337857Y-16020000D02*
X15328334Y-16000952D01*
X15328334Y-16000952D02*
X15328334Y-15829524D01*
X15509286Y-16020000D02*
X15490238Y-16029524D01*
X15490238Y-16029524D02*
X15452143Y-16029524D01*
X15452143Y-16029524D02*
X15433096Y-16020000D01*
X15433096Y-16020000D02*
X15423572Y-16000952D01*
X15423572Y-16000952D02*
X15423572Y-15924762D01*
X15423572Y-15924762D02*
X15433096Y-15905714D01*
X15433096Y-15905714D02*
X15452143Y-15896190D01*
X15452143Y-15896190D02*
X15490238Y-15896190D01*
X15490238Y-15896190D02*
X15509286Y-15905714D01*
X15509286Y-15905714D02*
X15518810Y-15924762D01*
X15518810Y-15924762D02*
X15518810Y-15943809D01*
X15518810Y-15943809D02*
X15423572Y-15962857D01*
X15595000Y-16020000D02*
X15614048Y-16029524D01*
X15614048Y-16029524D02*
X15652143Y-16029524D01*
X15652143Y-16029524D02*
X15671191Y-16020000D01*
X15671191Y-16020000D02*
X15680715Y-16000952D01*
X15680715Y-16000952D02*
X15680715Y-15991428D01*
X15680715Y-15991428D02*
X15671191Y-15972381D01*
X15671191Y-15972381D02*
X15652143Y-15962857D01*
X15652143Y-15962857D02*
X15623572Y-15962857D01*
X15623572Y-15962857D02*
X15604524Y-15953333D01*
X15604524Y-15953333D02*
X15595000Y-15934286D01*
X15595000Y-15934286D02*
X15595000Y-15924762D01*
X15595000Y-15924762D02*
X15604524Y-15905714D01*
X15604524Y-15905714D02*
X15623572Y-15896190D01*
X15623572Y-15896190D02*
X15652143Y-15896190D01*
X15652143Y-15896190D02*
X15671191Y-15905714D01*
X15747381Y-16105714D02*
X15756905Y-16096190D01*
X15756905Y-16096190D02*
X15775953Y-16067619D01*
X15775953Y-16067619D02*
X15785477Y-16048571D01*
X15785477Y-16048571D02*
X15795000Y-16020000D01*
X15795000Y-16020000D02*
X15804524Y-15972381D01*
X15804524Y-15972381D02*
X15804524Y-15934286D01*
X15804524Y-15934286D02*
X15795000Y-15886667D01*
X15795000Y-15886667D02*
X15785477Y-15858095D01*
X15785477Y-15858095D02*
X15775953Y-15839048D01*
X15775953Y-15839048D02*
X15756905Y-15810476D01*
X15756905Y-15810476D02*
X15747381Y-15800952D01*
D15*
X10719000Y-16277000D02*
X10795000Y-16201000D01*
X10719000Y-16125000D01*
X10643000Y-16201000D01*
X10719000Y-16277000D01*
D11*
X11147381Y-16293524D02*
X11033095Y-16293524D01*
X11090238Y-16293524D02*
X11090238Y-16093524D01*
X11090238Y-16093524D02*
X11071190Y-16122095D01*
X11071190Y-16122095D02*
X11052143Y-16141143D01*
X11052143Y-16141143D02*
X11033095Y-16150667D01*
X11233095Y-16274476D02*
X11242619Y-16284000D01*
X11242619Y-16284000D02*
X11233095Y-16293524D01*
X11233095Y-16293524D02*
X11223571Y-16284000D01*
X11223571Y-16284000D02*
X11233095Y-16274476D01*
X11233095Y-16274476D02*
X11233095Y-16293524D01*
X11423571Y-16093524D02*
X11328333Y-16093524D01*
X11328333Y-16093524D02*
X11318809Y-16188762D01*
X11318809Y-16188762D02*
X11328333Y-16179238D01*
X11328333Y-16179238D02*
X11347381Y-16169714D01*
X11347381Y-16169714D02*
X11395000Y-16169714D01*
X11395000Y-16169714D02*
X11414048Y-16179238D01*
X11414048Y-16179238D02*
X11423571Y-16188762D01*
X11423571Y-16188762D02*
X11433095Y-16207809D01*
X11433095Y-16207809D02*
X11433095Y-16255428D01*
X11433095Y-16255428D02*
X11423571Y-16274476D01*
X11423571Y-16274476D02*
X11414048Y-16284000D01*
X11414048Y-16284000D02*
X11395000Y-16293524D01*
X11395000Y-16293524D02*
X11347381Y-16293524D01*
X11347381Y-16293524D02*
X11328333Y-16284000D01*
X11328333Y-16284000D02*
X11318809Y-16274476D01*
X11509286Y-16112571D02*
X11518809Y-16103048D01*
X11518809Y-16103048D02*
X11537857Y-16093524D01*
X11537857Y-16093524D02*
X11585476Y-16093524D01*
X11585476Y-16093524D02*
X11604524Y-16103048D01*
X11604524Y-16103048D02*
X11614048Y-16112571D01*
X11614048Y-16112571D02*
X11623571Y-16131619D01*
X11623571Y-16131619D02*
X11623571Y-16150667D01*
X11623571Y-16150667D02*
X11614048Y-16179238D01*
X11614048Y-16179238D02*
X11499762Y-16293524D01*
X11499762Y-16293524D02*
X11623571Y-16293524D01*
X11747381Y-16093524D02*
X11766429Y-16093524D01*
X11766429Y-16093524D02*
X11785476Y-16103048D01*
X11785476Y-16103048D02*
X11795000Y-16112571D01*
X11795000Y-16112571D02*
X11804524Y-16131619D01*
X11804524Y-16131619D02*
X11814048Y-16169714D01*
X11814048Y-16169714D02*
X11814048Y-16217333D01*
X11814048Y-16217333D02*
X11804524Y-16255428D01*
X11804524Y-16255428D02*
X11795000Y-16274476D01*
X11795000Y-16274476D02*
X11785476Y-16284000D01*
X11785476Y-16284000D02*
X11766429Y-16293524D01*
X11766429Y-16293524D02*
X11747381Y-16293524D01*
X11747381Y-16293524D02*
X11728333Y-16284000D01*
X11728333Y-16284000D02*
X11718809Y-16274476D01*
X11718809Y-16274476D02*
X11709286Y-16255428D01*
X11709286Y-16255428D02*
X11699762Y-16217333D01*
X11699762Y-16217333D02*
X11699762Y-16169714D01*
X11699762Y-16169714D02*
X11709286Y-16131619D01*
X11709286Y-16131619D02*
X11718809Y-16112571D01*
X11718809Y-16112571D02*
X11728333Y-16103048D01*
X11728333Y-16103048D02*
X11747381Y-16093524D01*
X11899762Y-16293524D02*
X11899762Y-16160190D01*
X11899762Y-16179238D02*
X11909286Y-16169714D01*
X11909286Y-16169714D02*
X11928333Y-16160190D01*
X11928333Y-16160190D02*
X11956905Y-16160190D01*
X11956905Y-16160190D02*
X11975952Y-16169714D01*
X11975952Y-16169714D02*
X11985476Y-16188762D01*
X11985476Y-16188762D02*
X11985476Y-16293524D01*
X11985476Y-16188762D02*
X11995000Y-16169714D01*
X11995000Y-16169714D02*
X12014048Y-16160190D01*
X12014048Y-16160190D02*
X12042619Y-16160190D01*
X12042619Y-16160190D02*
X12061667Y-16169714D01*
X12061667Y-16169714D02*
X12071190Y-16188762D01*
X12071190Y-16188762D02*
X12071190Y-16293524D01*
X12166429Y-16293524D02*
X12166429Y-16160190D01*
X12166429Y-16179238D02*
X12175952Y-16169714D01*
X12175952Y-16169714D02*
X12195000Y-16160190D01*
X12195000Y-16160190D02*
X12223571Y-16160190D01*
X12223571Y-16160190D02*
X12242619Y-16169714D01*
X12242619Y-16169714D02*
X12252143Y-16188762D01*
X12252143Y-16188762D02*
X12252143Y-16293524D01*
X12252143Y-16188762D02*
X12261667Y-16169714D01*
X12261667Y-16169714D02*
X12280714Y-16160190D01*
X12280714Y-16160190D02*
X12309286Y-16160190D01*
X12309286Y-16160190D02*
X12328333Y-16169714D01*
X12328333Y-16169714D02*
X12337857Y-16188762D01*
X12337857Y-16188762D02*
X12337857Y-16293524D01*
X12728333Y-16084000D02*
X12556905Y-16341143D01*
X12985476Y-16093524D02*
X13004524Y-16093524D01*
X13004524Y-16093524D02*
X13023572Y-16103048D01*
X13023572Y-16103048D02*
X13033095Y-16112571D01*
X13033095Y-16112571D02*
X13042619Y-16131619D01*
X13042619Y-16131619D02*
X13052143Y-16169714D01*
X13052143Y-16169714D02*
X13052143Y-16217333D01*
X13052143Y-16217333D02*
X13042619Y-16255428D01*
X13042619Y-16255428D02*
X13033095Y-16274476D01*
X13033095Y-16274476D02*
X13023572Y-16284000D01*
X13023572Y-16284000D02*
X13004524Y-16293524D01*
X13004524Y-16293524D02*
X12985476Y-16293524D01*
X12985476Y-16293524D02*
X12966429Y-16284000D01*
X12966429Y-16284000D02*
X12956905Y-16274476D01*
X12956905Y-16274476D02*
X12947381Y-16255428D01*
X12947381Y-16255428D02*
X12937857Y-16217333D01*
X12937857Y-16217333D02*
X12937857Y-16169714D01*
X12937857Y-16169714D02*
X12947381Y-16131619D01*
X12947381Y-16131619D02*
X12956905Y-16112571D01*
X12956905Y-16112571D02*
X12966429Y-16103048D01*
X12966429Y-16103048D02*
X12985476Y-16093524D01*
X13137857Y-16274476D02*
X13147381Y-16284000D01*
X13147381Y-16284000D02*
X13137857Y-16293524D01*
X13137857Y-16293524D02*
X13128333Y-16284000D01*
X13128333Y-16284000D02*
X13137857Y-16274476D01*
X13137857Y-16274476D02*
X13137857Y-16293524D01*
X13271191Y-16093524D02*
X13290238Y-16093524D01*
X13290238Y-16093524D02*
X13309286Y-16103048D01*
X13309286Y-16103048D02*
X13318810Y-16112571D01*
X13318810Y-16112571D02*
X13328333Y-16131619D01*
X13328333Y-16131619D02*
X13337857Y-16169714D01*
X13337857Y-16169714D02*
X13337857Y-16217333D01*
X13337857Y-16217333D02*
X13328333Y-16255428D01*
X13328333Y-16255428D02*
X13318810Y-16274476D01*
X13318810Y-16274476D02*
X13309286Y-16284000D01*
X13309286Y-16284000D02*
X13290238Y-16293524D01*
X13290238Y-16293524D02*
X13271191Y-16293524D01*
X13271191Y-16293524D02*
X13252143Y-16284000D01*
X13252143Y-16284000D02*
X13242619Y-16274476D01*
X13242619Y-16274476D02*
X13233095Y-16255428D01*
X13233095Y-16255428D02*
X13223572Y-16217333D01*
X13223572Y-16217333D02*
X13223572Y-16169714D01*
X13223572Y-16169714D02*
X13233095Y-16131619D01*
X13233095Y-16131619D02*
X13242619Y-16112571D01*
X13242619Y-16112571D02*
X13252143Y-16103048D01*
X13252143Y-16103048D02*
X13271191Y-16093524D01*
X13518810Y-16093524D02*
X13423572Y-16093524D01*
X13423572Y-16093524D02*
X13414048Y-16188762D01*
X13414048Y-16188762D02*
X13423572Y-16179238D01*
X13423572Y-16179238D02*
X13442619Y-16169714D01*
X13442619Y-16169714D02*
X13490238Y-16169714D01*
X13490238Y-16169714D02*
X13509286Y-16179238D01*
X13509286Y-16179238D02*
X13518810Y-16188762D01*
X13518810Y-16188762D02*
X13528333Y-16207809D01*
X13528333Y-16207809D02*
X13528333Y-16255428D01*
X13528333Y-16255428D02*
X13518810Y-16274476D01*
X13518810Y-16274476D02*
X13509286Y-16284000D01*
X13509286Y-16284000D02*
X13490238Y-16293524D01*
X13490238Y-16293524D02*
X13442619Y-16293524D01*
X13442619Y-16293524D02*
X13423572Y-16284000D01*
X13423572Y-16284000D02*
X13414048Y-16274476D01*
X13623572Y-16293524D02*
X13661667Y-16293524D01*
X13661667Y-16293524D02*
X13680714Y-16284000D01*
X13680714Y-16284000D02*
X13690238Y-16274476D01*
X13690238Y-16274476D02*
X13709286Y-16245905D01*
X13709286Y-16245905D02*
X13718810Y-16207809D01*
X13718810Y-16207809D02*
X13718810Y-16131619D01*
X13718810Y-16131619D02*
X13709286Y-16112571D01*
X13709286Y-16112571D02*
X13699762Y-16103048D01*
X13699762Y-16103048D02*
X13680714Y-16093524D01*
X13680714Y-16093524D02*
X13642619Y-16093524D01*
X13642619Y-16093524D02*
X13623572Y-16103048D01*
X13623572Y-16103048D02*
X13614048Y-16112571D01*
X13614048Y-16112571D02*
X13604524Y-16131619D01*
X13604524Y-16131619D02*
X13604524Y-16179238D01*
X13604524Y-16179238D02*
X13614048Y-16198286D01*
X13614048Y-16198286D02*
X13623572Y-16207809D01*
X13623572Y-16207809D02*
X13642619Y-16217333D01*
X13642619Y-16217333D02*
X13680714Y-16217333D01*
X13680714Y-16217333D02*
X13699762Y-16207809D01*
X13699762Y-16207809D02*
X13709286Y-16198286D01*
X13709286Y-16198286D02*
X13718810Y-16179238D01*
X13833095Y-16179238D02*
X13814048Y-16169714D01*
X13814048Y-16169714D02*
X13804524Y-16160190D01*
X13804524Y-16160190D02*
X13795000Y-16141143D01*
X13795000Y-16141143D02*
X13795000Y-16131619D01*
X13795000Y-16131619D02*
X13804524Y-16112571D01*
X13804524Y-16112571D02*
X13814048Y-16103048D01*
X13814048Y-16103048D02*
X13833095Y-16093524D01*
X13833095Y-16093524D02*
X13871191Y-16093524D01*
X13871191Y-16093524D02*
X13890238Y-16103048D01*
X13890238Y-16103048D02*
X13899762Y-16112571D01*
X13899762Y-16112571D02*
X13909286Y-16131619D01*
X13909286Y-16131619D02*
X13909286Y-16141143D01*
X13909286Y-16141143D02*
X13899762Y-16160190D01*
X13899762Y-16160190D02*
X13890238Y-16169714D01*
X13890238Y-16169714D02*
X13871191Y-16179238D01*
X13871191Y-16179238D02*
X13833095Y-16179238D01*
X13833095Y-16179238D02*
X13814048Y-16188762D01*
X13814048Y-16188762D02*
X13804524Y-16198286D01*
X13804524Y-16198286D02*
X13795000Y-16217333D01*
X13795000Y-16217333D02*
X13795000Y-16255428D01*
X13795000Y-16255428D02*
X13804524Y-16274476D01*
X13804524Y-16274476D02*
X13814048Y-16284000D01*
X13814048Y-16284000D02*
X13833095Y-16293524D01*
X13833095Y-16293524D02*
X13871191Y-16293524D01*
X13871191Y-16293524D02*
X13890238Y-16284000D01*
X13890238Y-16284000D02*
X13899762Y-16274476D01*
X13899762Y-16274476D02*
X13909286Y-16255428D01*
X13909286Y-16255428D02*
X13909286Y-16217333D01*
X13909286Y-16217333D02*
X13899762Y-16198286D01*
X13899762Y-16198286D02*
X13890238Y-16188762D01*
X13890238Y-16188762D02*
X13871191Y-16179238D01*
X13985476Y-16093524D02*
X13985476Y-16131619D01*
X14061667Y-16093524D02*
X14061667Y-16131619D01*
X14356905Y-16369714D02*
X14347381Y-16360190D01*
X14347381Y-16360190D02*
X14328334Y-16331619D01*
X14328334Y-16331619D02*
X14318810Y-16312571D01*
X14318810Y-16312571D02*
X14309286Y-16284000D01*
X14309286Y-16284000D02*
X14299762Y-16236381D01*
X14299762Y-16236381D02*
X14299762Y-16198286D01*
X14299762Y-16198286D02*
X14309286Y-16150667D01*
X14309286Y-16150667D02*
X14318810Y-16122095D01*
X14318810Y-16122095D02*
X14328334Y-16103048D01*
X14328334Y-16103048D02*
X14347381Y-16074476D01*
X14347381Y-16074476D02*
X14356905Y-16064952D01*
X14528334Y-16093524D02*
X14433095Y-16093524D01*
X14433095Y-16093524D02*
X14423572Y-16188762D01*
X14423572Y-16188762D02*
X14433095Y-16179238D01*
X14433095Y-16179238D02*
X14452143Y-16169714D01*
X14452143Y-16169714D02*
X14499762Y-16169714D01*
X14499762Y-16169714D02*
X14518810Y-16179238D01*
X14518810Y-16179238D02*
X14528334Y-16188762D01*
X14528334Y-16188762D02*
X14537857Y-16207809D01*
X14537857Y-16207809D02*
X14537857Y-16255428D01*
X14537857Y-16255428D02*
X14528334Y-16274476D01*
X14528334Y-16274476D02*
X14518810Y-16284000D01*
X14518810Y-16284000D02*
X14499762Y-16293524D01*
X14499762Y-16293524D02*
X14452143Y-16293524D01*
X14452143Y-16293524D02*
X14433095Y-16284000D01*
X14433095Y-16284000D02*
X14423572Y-16274476D01*
X14775953Y-16293524D02*
X14775953Y-16093524D01*
X14861667Y-16293524D02*
X14861667Y-16188762D01*
X14861667Y-16188762D02*
X14852143Y-16169714D01*
X14852143Y-16169714D02*
X14833096Y-16160190D01*
X14833096Y-16160190D02*
X14804524Y-16160190D01*
X14804524Y-16160190D02*
X14785476Y-16169714D01*
X14785476Y-16169714D02*
X14775953Y-16179238D01*
X14985476Y-16293524D02*
X14966429Y-16284000D01*
X14966429Y-16284000D02*
X14956905Y-16274476D01*
X14956905Y-16274476D02*
X14947381Y-16255428D01*
X14947381Y-16255428D02*
X14947381Y-16198286D01*
X14947381Y-16198286D02*
X14956905Y-16179238D01*
X14956905Y-16179238D02*
X14966429Y-16169714D01*
X14966429Y-16169714D02*
X14985476Y-16160190D01*
X14985476Y-16160190D02*
X15014048Y-16160190D01*
X15014048Y-16160190D02*
X15033096Y-16169714D01*
X15033096Y-16169714D02*
X15042619Y-16179238D01*
X15042619Y-16179238D02*
X15052143Y-16198286D01*
X15052143Y-16198286D02*
X15052143Y-16255428D01*
X15052143Y-16255428D02*
X15042619Y-16274476D01*
X15042619Y-16274476D02*
X15033096Y-16284000D01*
X15033096Y-16284000D02*
X15014048Y-16293524D01*
X15014048Y-16293524D02*
X14985476Y-16293524D01*
X15166429Y-16293524D02*
X15147381Y-16284000D01*
X15147381Y-16284000D02*
X15137857Y-16264952D01*
X15137857Y-16264952D02*
X15137857Y-16093524D01*
X15318810Y-16284000D02*
X15299762Y-16293524D01*
X15299762Y-16293524D02*
X15261667Y-16293524D01*
X15261667Y-16293524D02*
X15242619Y-16284000D01*
X15242619Y-16284000D02*
X15233096Y-16264952D01*
X15233096Y-16264952D02*
X15233096Y-16188762D01*
X15233096Y-16188762D02*
X15242619Y-16169714D01*
X15242619Y-16169714D02*
X15261667Y-16160190D01*
X15261667Y-16160190D02*
X15299762Y-16160190D01*
X15299762Y-16160190D02*
X15318810Y-16169714D01*
X15318810Y-16169714D02*
X15328334Y-16188762D01*
X15328334Y-16188762D02*
X15328334Y-16207809D01*
X15328334Y-16207809D02*
X15233096Y-16226857D01*
X15404524Y-16284000D02*
X15423572Y-16293524D01*
X15423572Y-16293524D02*
X15461667Y-16293524D01*
X15461667Y-16293524D02*
X15480715Y-16284000D01*
X15480715Y-16284000D02*
X15490238Y-16264952D01*
X15490238Y-16264952D02*
X15490238Y-16255428D01*
X15490238Y-16255428D02*
X15480715Y-16236381D01*
X15480715Y-16236381D02*
X15461667Y-16226857D01*
X15461667Y-16226857D02*
X15433096Y-16226857D01*
X15433096Y-16226857D02*
X15414048Y-16217333D01*
X15414048Y-16217333D02*
X15404524Y-16198286D01*
X15404524Y-16198286D02*
X15404524Y-16188762D01*
X15404524Y-16188762D02*
X15414048Y-16169714D01*
X15414048Y-16169714D02*
X15433096Y-16160190D01*
X15433096Y-16160190D02*
X15461667Y-16160190D01*
X15461667Y-16160190D02*
X15480715Y-16169714D01*
X15556905Y-16369714D02*
X15566429Y-16360190D01*
X15566429Y-16360190D02*
X15585477Y-16331619D01*
X15585477Y-16331619D02*
X15595000Y-16312571D01*
X15595000Y-16312571D02*
X15604524Y-16284000D01*
X15604524Y-16284000D02*
X15614048Y-16236381D01*
X15614048Y-16236381D02*
X15614048Y-16198286D01*
X15614048Y-16198286D02*
X15604524Y-16150667D01*
X15604524Y-16150667D02*
X15595000Y-16122095D01*
X15595000Y-16122095D02*
X15585477Y-16103048D01*
X15585477Y-16103048D02*
X15566429Y-16074476D01*
X15566429Y-16074476D02*
X15556905Y-16064952D01*
X10595000Y-16373000D02*
X10795000Y-16573000D01*
X10795000Y-16373000D02*
X10595000Y-16573000D01*
X10795000Y-16473000D02*
G75*
G03*
X10795000Y-16473000I-100000J0D01*
G01*
X11023571Y-16365524D02*
X11147381Y-16365524D01*
X11147381Y-16365524D02*
X11080714Y-16441714D01*
X11080714Y-16441714D02*
X11109286Y-16441714D01*
X11109286Y-16441714D02*
X11128333Y-16451238D01*
X11128333Y-16451238D02*
X11137857Y-16460762D01*
X11137857Y-16460762D02*
X11147381Y-16479809D01*
X11147381Y-16479809D02*
X11147381Y-16527428D01*
X11147381Y-16527428D02*
X11137857Y-16546476D01*
X11137857Y-16546476D02*
X11128333Y-16556000D01*
X11128333Y-16556000D02*
X11109286Y-16565524D01*
X11109286Y-16565524D02*
X11052143Y-16565524D01*
X11052143Y-16565524D02*
X11033095Y-16556000D01*
X11033095Y-16556000D02*
X11023571Y-16546476D01*
X11233095Y-16546476D02*
X11242619Y-16556000D01*
X11242619Y-16556000D02*
X11233095Y-16565524D01*
X11233095Y-16565524D02*
X11223571Y-16556000D01*
X11223571Y-16556000D02*
X11233095Y-16546476D01*
X11233095Y-16546476D02*
X11233095Y-16565524D01*
X11318809Y-16384571D02*
X11328333Y-16375048D01*
X11328333Y-16375048D02*
X11347381Y-16365524D01*
X11347381Y-16365524D02*
X11395000Y-16365524D01*
X11395000Y-16365524D02*
X11414048Y-16375048D01*
X11414048Y-16375048D02*
X11423571Y-16384571D01*
X11423571Y-16384571D02*
X11433095Y-16403619D01*
X11433095Y-16403619D02*
X11433095Y-16422667D01*
X11433095Y-16422667D02*
X11423571Y-16451238D01*
X11423571Y-16451238D02*
X11309286Y-16565524D01*
X11309286Y-16565524D02*
X11433095Y-16565524D01*
X11556905Y-16365524D02*
X11575952Y-16365524D01*
X11575952Y-16365524D02*
X11595000Y-16375048D01*
X11595000Y-16375048D02*
X11604524Y-16384571D01*
X11604524Y-16384571D02*
X11614048Y-16403619D01*
X11614048Y-16403619D02*
X11623571Y-16441714D01*
X11623571Y-16441714D02*
X11623571Y-16489333D01*
X11623571Y-16489333D02*
X11614048Y-16527428D01*
X11614048Y-16527428D02*
X11604524Y-16546476D01*
X11604524Y-16546476D02*
X11595000Y-16556000D01*
X11595000Y-16556000D02*
X11575952Y-16565524D01*
X11575952Y-16565524D02*
X11556905Y-16565524D01*
X11556905Y-16565524D02*
X11537857Y-16556000D01*
X11537857Y-16556000D02*
X11528333Y-16546476D01*
X11528333Y-16546476D02*
X11518809Y-16527428D01*
X11518809Y-16527428D02*
X11509286Y-16489333D01*
X11509286Y-16489333D02*
X11509286Y-16441714D01*
X11509286Y-16441714D02*
X11518809Y-16403619D01*
X11518809Y-16403619D02*
X11528333Y-16384571D01*
X11528333Y-16384571D02*
X11537857Y-16375048D01*
X11537857Y-16375048D02*
X11556905Y-16365524D01*
X11747381Y-16365524D02*
X11766429Y-16365524D01*
X11766429Y-16365524D02*
X11785476Y-16375048D01*
X11785476Y-16375048D02*
X11795000Y-16384571D01*
X11795000Y-16384571D02*
X11804524Y-16403619D01*
X11804524Y-16403619D02*
X11814048Y-16441714D01*
X11814048Y-16441714D02*
X11814048Y-16489333D01*
X11814048Y-16489333D02*
X11804524Y-16527428D01*
X11804524Y-16527428D02*
X11795000Y-16546476D01*
X11795000Y-16546476D02*
X11785476Y-16556000D01*
X11785476Y-16556000D02*
X11766429Y-16565524D01*
X11766429Y-16565524D02*
X11747381Y-16565524D01*
X11747381Y-16565524D02*
X11728333Y-16556000D01*
X11728333Y-16556000D02*
X11718809Y-16546476D01*
X11718809Y-16546476D02*
X11709286Y-16527428D01*
X11709286Y-16527428D02*
X11699762Y-16489333D01*
X11699762Y-16489333D02*
X11699762Y-16441714D01*
X11699762Y-16441714D02*
X11709286Y-16403619D01*
X11709286Y-16403619D02*
X11718809Y-16384571D01*
X11718809Y-16384571D02*
X11728333Y-16375048D01*
X11728333Y-16375048D02*
X11747381Y-16365524D01*
X11899762Y-16565524D02*
X11899762Y-16432190D01*
X11899762Y-16451238D02*
X11909286Y-16441714D01*
X11909286Y-16441714D02*
X11928333Y-16432190D01*
X11928333Y-16432190D02*
X11956905Y-16432190D01*
X11956905Y-16432190D02*
X11975952Y-16441714D01*
X11975952Y-16441714D02*
X11985476Y-16460762D01*
X11985476Y-16460762D02*
X11985476Y-16565524D01*
X11985476Y-16460762D02*
X11995000Y-16441714D01*
X11995000Y-16441714D02*
X12014048Y-16432190D01*
X12014048Y-16432190D02*
X12042619Y-16432190D01*
X12042619Y-16432190D02*
X12061667Y-16441714D01*
X12061667Y-16441714D02*
X12071190Y-16460762D01*
X12071190Y-16460762D02*
X12071190Y-16565524D01*
X12166429Y-16565524D02*
X12166429Y-16432190D01*
X12166429Y-16451238D02*
X12175952Y-16441714D01*
X12175952Y-16441714D02*
X12195000Y-16432190D01*
X12195000Y-16432190D02*
X12223571Y-16432190D01*
X12223571Y-16432190D02*
X12242619Y-16441714D01*
X12242619Y-16441714D02*
X12252143Y-16460762D01*
X12252143Y-16460762D02*
X12252143Y-16565524D01*
X12252143Y-16460762D02*
X12261667Y-16441714D01*
X12261667Y-16441714D02*
X12280714Y-16432190D01*
X12280714Y-16432190D02*
X12309286Y-16432190D01*
X12309286Y-16432190D02*
X12328333Y-16441714D01*
X12328333Y-16441714D02*
X12337857Y-16460762D01*
X12337857Y-16460762D02*
X12337857Y-16565524D01*
X12728333Y-16356000D02*
X12556905Y-16613143D01*
X12985476Y-16365524D02*
X13004524Y-16365524D01*
X13004524Y-16365524D02*
X13023572Y-16375048D01*
X13023572Y-16375048D02*
X13033095Y-16384571D01*
X13033095Y-16384571D02*
X13042619Y-16403619D01*
X13042619Y-16403619D02*
X13052143Y-16441714D01*
X13052143Y-16441714D02*
X13052143Y-16489333D01*
X13052143Y-16489333D02*
X13042619Y-16527428D01*
X13042619Y-16527428D02*
X13033095Y-16546476D01*
X13033095Y-16546476D02*
X13023572Y-16556000D01*
X13023572Y-16556000D02*
X13004524Y-16565524D01*
X13004524Y-16565524D02*
X12985476Y-16565524D01*
X12985476Y-16565524D02*
X12966429Y-16556000D01*
X12966429Y-16556000D02*
X12956905Y-16546476D01*
X12956905Y-16546476D02*
X12947381Y-16527428D01*
X12947381Y-16527428D02*
X12937857Y-16489333D01*
X12937857Y-16489333D02*
X12937857Y-16441714D01*
X12937857Y-16441714D02*
X12947381Y-16403619D01*
X12947381Y-16403619D02*
X12956905Y-16384571D01*
X12956905Y-16384571D02*
X12966429Y-16375048D01*
X12966429Y-16375048D02*
X12985476Y-16365524D01*
X13137857Y-16546476D02*
X13147381Y-16556000D01*
X13147381Y-16556000D02*
X13137857Y-16565524D01*
X13137857Y-16565524D02*
X13128333Y-16556000D01*
X13128333Y-16556000D02*
X13137857Y-16546476D01*
X13137857Y-16546476D02*
X13137857Y-16565524D01*
X13337857Y-16565524D02*
X13223572Y-16565524D01*
X13280714Y-16565524D02*
X13280714Y-16365524D01*
X13280714Y-16365524D02*
X13261667Y-16394095D01*
X13261667Y-16394095D02*
X13242619Y-16413143D01*
X13242619Y-16413143D02*
X13223572Y-16422667D01*
X13414048Y-16384571D02*
X13423572Y-16375048D01*
X13423572Y-16375048D02*
X13442619Y-16365524D01*
X13442619Y-16365524D02*
X13490238Y-16365524D01*
X13490238Y-16365524D02*
X13509286Y-16375048D01*
X13509286Y-16375048D02*
X13518810Y-16384571D01*
X13518810Y-16384571D02*
X13528333Y-16403619D01*
X13528333Y-16403619D02*
X13528333Y-16422667D01*
X13528333Y-16422667D02*
X13518810Y-16451238D01*
X13518810Y-16451238D02*
X13404524Y-16565524D01*
X13404524Y-16565524D02*
X13528333Y-16565524D01*
X13699762Y-16365524D02*
X13661667Y-16365524D01*
X13661667Y-16365524D02*
X13642619Y-16375048D01*
X13642619Y-16375048D02*
X13633095Y-16384571D01*
X13633095Y-16384571D02*
X13614048Y-16413143D01*
X13614048Y-16413143D02*
X13604524Y-16451238D01*
X13604524Y-16451238D02*
X13604524Y-16527428D01*
X13604524Y-16527428D02*
X13614048Y-16546476D01*
X13614048Y-16546476D02*
X13623572Y-16556000D01*
X13623572Y-16556000D02*
X13642619Y-16565524D01*
X13642619Y-16565524D02*
X13680714Y-16565524D01*
X13680714Y-16565524D02*
X13699762Y-16556000D01*
X13699762Y-16556000D02*
X13709286Y-16546476D01*
X13709286Y-16546476D02*
X13718810Y-16527428D01*
X13718810Y-16527428D02*
X13718810Y-16479809D01*
X13718810Y-16479809D02*
X13709286Y-16460762D01*
X13709286Y-16460762D02*
X13699762Y-16451238D01*
X13699762Y-16451238D02*
X13680714Y-16441714D01*
X13680714Y-16441714D02*
X13642619Y-16441714D01*
X13642619Y-16441714D02*
X13623572Y-16451238D01*
X13623572Y-16451238D02*
X13614048Y-16460762D01*
X13614048Y-16460762D02*
X13604524Y-16479809D01*
X13842619Y-16365524D02*
X13861667Y-16365524D01*
X13861667Y-16365524D02*
X13880714Y-16375048D01*
X13880714Y-16375048D02*
X13890238Y-16384571D01*
X13890238Y-16384571D02*
X13899762Y-16403619D01*
X13899762Y-16403619D02*
X13909286Y-16441714D01*
X13909286Y-16441714D02*
X13909286Y-16489333D01*
X13909286Y-16489333D02*
X13899762Y-16527428D01*
X13899762Y-16527428D02*
X13890238Y-16546476D01*
X13890238Y-16546476D02*
X13880714Y-16556000D01*
X13880714Y-16556000D02*
X13861667Y-16565524D01*
X13861667Y-16565524D02*
X13842619Y-16565524D01*
X13842619Y-16565524D02*
X13823572Y-16556000D01*
X13823572Y-16556000D02*
X13814048Y-16546476D01*
X13814048Y-16546476D02*
X13804524Y-16527428D01*
X13804524Y-16527428D02*
X13795000Y-16489333D01*
X13795000Y-16489333D02*
X13795000Y-16441714D01*
X13795000Y-16441714D02*
X13804524Y-16403619D01*
X13804524Y-16403619D02*
X13814048Y-16384571D01*
X13814048Y-16384571D02*
X13823572Y-16375048D01*
X13823572Y-16375048D02*
X13842619Y-16365524D01*
X13985476Y-16365524D02*
X13985476Y-16403619D01*
X14061667Y-16365524D02*
X14061667Y-16403619D01*
X14356905Y-16641714D02*
X14347381Y-16632190D01*
X14347381Y-16632190D02*
X14328334Y-16603619D01*
X14328334Y-16603619D02*
X14318810Y-16584571D01*
X14318810Y-16584571D02*
X14309286Y-16556000D01*
X14309286Y-16556000D02*
X14299762Y-16508381D01*
X14299762Y-16508381D02*
X14299762Y-16470286D01*
X14299762Y-16470286D02*
X14309286Y-16422667D01*
X14309286Y-16422667D02*
X14318810Y-16394095D01*
X14318810Y-16394095D02*
X14328334Y-16375048D01*
X14328334Y-16375048D02*
X14347381Y-16346476D01*
X14347381Y-16346476D02*
X14356905Y-16336952D01*
X14518810Y-16432190D02*
X14518810Y-16565524D01*
X14471191Y-16356000D02*
X14423572Y-16498857D01*
X14423572Y-16498857D02*
X14547381Y-16498857D01*
X14775953Y-16565524D02*
X14775953Y-16365524D01*
X14861667Y-16565524D02*
X14861667Y-16460762D01*
X14861667Y-16460762D02*
X14852143Y-16441714D01*
X14852143Y-16441714D02*
X14833096Y-16432190D01*
X14833096Y-16432190D02*
X14804524Y-16432190D01*
X14804524Y-16432190D02*
X14785476Y-16441714D01*
X14785476Y-16441714D02*
X14775953Y-16451238D01*
X14985476Y-16565524D02*
X14966429Y-16556000D01*
X14966429Y-16556000D02*
X14956905Y-16546476D01*
X14956905Y-16546476D02*
X14947381Y-16527428D01*
X14947381Y-16527428D02*
X14947381Y-16470286D01*
X14947381Y-16470286D02*
X14956905Y-16451238D01*
X14956905Y-16451238D02*
X14966429Y-16441714D01*
X14966429Y-16441714D02*
X14985476Y-16432190D01*
X14985476Y-16432190D02*
X15014048Y-16432190D01*
X15014048Y-16432190D02*
X15033096Y-16441714D01*
X15033096Y-16441714D02*
X15042619Y-16451238D01*
X15042619Y-16451238D02*
X15052143Y-16470286D01*
X15052143Y-16470286D02*
X15052143Y-16527428D01*
X15052143Y-16527428D02*
X15042619Y-16546476D01*
X15042619Y-16546476D02*
X15033096Y-16556000D01*
X15033096Y-16556000D02*
X15014048Y-16565524D01*
X15014048Y-16565524D02*
X14985476Y-16565524D01*
X15166429Y-16565524D02*
X15147381Y-16556000D01*
X15147381Y-16556000D02*
X15137857Y-16536952D01*
X15137857Y-16536952D02*
X15137857Y-16365524D01*
X15318810Y-16556000D02*
X15299762Y-16565524D01*
X15299762Y-16565524D02*
X15261667Y-16565524D01*
X15261667Y-16565524D02*
X15242619Y-16556000D01*
X15242619Y-16556000D02*
X15233096Y-16536952D01*
X15233096Y-16536952D02*
X15233096Y-16460762D01*
X15233096Y-16460762D02*
X15242619Y-16441714D01*
X15242619Y-16441714D02*
X15261667Y-16432190D01*
X15261667Y-16432190D02*
X15299762Y-16432190D01*
X15299762Y-16432190D02*
X15318810Y-16441714D01*
X15318810Y-16441714D02*
X15328334Y-16460762D01*
X15328334Y-16460762D02*
X15328334Y-16479809D01*
X15328334Y-16479809D02*
X15233096Y-16498857D01*
X15404524Y-16556000D02*
X15423572Y-16565524D01*
X15423572Y-16565524D02*
X15461667Y-16565524D01*
X15461667Y-16565524D02*
X15480715Y-16556000D01*
X15480715Y-16556000D02*
X15490238Y-16536952D01*
X15490238Y-16536952D02*
X15490238Y-16527428D01*
X15490238Y-16527428D02*
X15480715Y-16508381D01*
X15480715Y-16508381D02*
X15461667Y-16498857D01*
X15461667Y-16498857D02*
X15433096Y-16498857D01*
X15433096Y-16498857D02*
X15414048Y-16489333D01*
X15414048Y-16489333D02*
X15404524Y-16470286D01*
X15404524Y-16470286D02*
X15404524Y-16460762D01*
X15404524Y-16460762D02*
X15414048Y-16441714D01*
X15414048Y-16441714D02*
X15433096Y-16432190D01*
X15433096Y-16432190D02*
X15461667Y-16432190D01*
X15461667Y-16432190D02*
X15480715Y-16441714D01*
X15556905Y-16641714D02*
X15566429Y-16632190D01*
X15566429Y-16632190D02*
X15585477Y-16603619D01*
X15585477Y-16603619D02*
X15595000Y-16584571D01*
X15595000Y-16584571D02*
X15604524Y-16556000D01*
X15604524Y-16556000D02*
X15614048Y-16508381D01*
X15614048Y-16508381D02*
X15614048Y-16470286D01*
X15614048Y-16470286D02*
X15604524Y-16422667D01*
X15604524Y-16422667D02*
X15595000Y-16394095D01*
X15595000Y-16394095D02*
X15585477Y-16375048D01*
X15585477Y-16375048D02*
X15566429Y-16346476D01*
X15566429Y-16346476D02*
X15556905Y-16336952D01*
M02*
