%TF.GenerationSoftware,KiCad,Pcbnew,7.0.1*%
%TF.CreationDate,2023-07-17T00:48:34+01:00*%
%TF.ProjectId,Sensor Hub Board,53656e73-6f72-4204-9875-6220426f6172,rev?*%
%TF.SameCoordinates,Original*%
%TF.FileFunction,Copper,L1,Top*%
%TF.FilePolarity,Positive*%
%FSLAX46Y46*%
G04 Gerber Fmt 4.6, Leading zero omitted, Abs format (unit mm)*
G04 Created by KiCad (PCBNEW 7.0.1) date 2023-07-17 00:48:34*
%MOMM*%
%LPD*%
G01*
G04 APERTURE LIST*
G04 Aperture macros list*
%AMRoundRect*
0 Rectangle with rounded corners*
0 $1 Rounding radius*
0 $2 $3 $4 $5 $6 $7 $8 $9 X,Y pos of 4 corners*
0 Add a 4 corners polygon primitive as box body*
4,1,4,$2,$3,$4,$5,$6,$7,$8,$9,$2,$3,0*
0 Add four circle primitives for the rounded corners*
1,1,$1+$1,$2,$3*
1,1,$1+$1,$4,$5*
1,1,$1+$1,$6,$7*
1,1,$1+$1,$8,$9*
0 Add four rect primitives between the rounded corners*
20,1,$1+$1,$2,$3,$4,$5,0*
20,1,$1+$1,$4,$5,$6,$7,0*
20,1,$1+$1,$6,$7,$8,$9,0*
20,1,$1+$1,$8,$9,$2,$3,0*%
G04 Aperture macros list end*
%TA.AperFunction,SMDPad,CuDef*%
%ADD10RoundRect,0.218750X-0.218750X-0.256250X0.218750X-0.256250X0.218750X0.256250X-0.218750X0.256250X0*%
%TD*%
%TA.AperFunction,SMDPad,CuDef*%
%ADD11R,1.475000X0.450000*%
%TD*%
%TA.AperFunction,ComponentPad*%
%ADD12R,3.000000X3.000000*%
%TD*%
%TA.AperFunction,ComponentPad*%
%ADD13C,3.000000*%
%TD*%
%TA.AperFunction,SMDPad,CuDef*%
%ADD14R,0.482600X0.254000*%
%TD*%
%TA.AperFunction,SMDPad,CuDef*%
%ADD15R,0.254000X0.482600*%
%TD*%
%TA.AperFunction,SMDPad,CuDef*%
%ADD16RoundRect,0.135000X0.185000X-0.135000X0.185000X0.135000X-0.185000X0.135000X-0.185000X-0.135000X0*%
%TD*%
%TA.AperFunction,SMDPad,CuDef*%
%ADD17RoundRect,0.150000X0.150000X-0.512500X0.150000X0.512500X-0.150000X0.512500X-0.150000X-0.512500X0*%
%TD*%
%TA.AperFunction,SMDPad,CuDef*%
%ADD18RoundRect,0.225000X-0.250000X0.225000X-0.250000X-0.225000X0.250000X-0.225000X0.250000X0.225000X0*%
%TD*%
%TA.AperFunction,SMDPad,CuDef*%
%ADD19R,1.950000X1.650000*%
%TD*%
%TA.AperFunction,SMDPad,CuDef*%
%ADD20RoundRect,0.140000X-0.170000X0.140000X-0.170000X-0.140000X0.170000X-0.140000X0.170000X0.140000X0*%
%TD*%
%TA.AperFunction,SMDPad,CuDef*%
%ADD21RoundRect,0.135000X0.135000X0.185000X-0.135000X0.185000X-0.135000X-0.185000X0.135000X-0.185000X0*%
%TD*%
%TA.AperFunction,SMDPad,CuDef*%
%ADD22RoundRect,0.140000X0.140000X0.170000X-0.140000X0.170000X-0.140000X-0.170000X0.140000X-0.170000X0*%
%TD*%
%TA.AperFunction,SMDPad,CuDef*%
%ADD23R,0.600000X1.550000*%
%TD*%
%TA.AperFunction,SMDPad,CuDef*%
%ADD24R,1.200000X1.800000*%
%TD*%
%TA.AperFunction,SMDPad,CuDef*%
%ADD25RoundRect,0.135000X-0.135000X-0.185000X0.135000X-0.185000X0.135000X0.185000X-0.135000X0.185000X0*%
%TD*%
%TA.AperFunction,ComponentPad*%
%ADD26C,5.600000*%
%TD*%
%TA.AperFunction,ComponentPad*%
%ADD27RoundRect,0.250000X0.725000X-0.600000X0.725000X0.600000X-0.725000X0.600000X-0.725000X-0.600000X0*%
%TD*%
%TA.AperFunction,ComponentPad*%
%ADD28O,1.950000X1.700000*%
%TD*%
%TA.AperFunction,SMDPad,CuDef*%
%ADD29RoundRect,0.140000X0.170000X-0.140000X0.170000X0.140000X-0.170000X0.140000X-0.170000X-0.140000X0*%
%TD*%
%TA.AperFunction,SMDPad,CuDef*%
%ADD30RoundRect,0.140000X-0.140000X-0.170000X0.140000X-0.170000X0.140000X0.170000X-0.140000X0.170000X0*%
%TD*%
%TA.AperFunction,SMDPad,CuDef*%
%ADD31RoundRect,0.225000X0.225000X0.250000X-0.225000X0.250000X-0.225000X-0.250000X0.225000X-0.250000X0*%
%TD*%
%TA.AperFunction,SMDPad,CuDef*%
%ADD32RoundRect,0.135000X-0.185000X0.135000X-0.185000X-0.135000X0.185000X-0.135000X0.185000X0.135000X0*%
%TD*%
%TA.AperFunction,SMDPad,CuDef*%
%ADD33R,0.300000X0.475000*%
%TD*%
%TA.AperFunction,SMDPad,CuDef*%
%ADD34R,1.500000X2.500000*%
%TD*%
%TA.AperFunction,ComponentPad*%
%ADD35R,1.700000X1.700000*%
%TD*%
%TA.AperFunction,ComponentPad*%
%ADD36O,1.700000X1.700000*%
%TD*%
%TA.AperFunction,ComponentPad*%
%ADD37RoundRect,0.250000X-0.725000X0.600000X-0.725000X-0.600000X0.725000X-0.600000X0.725000X0.600000X0*%
%TD*%
%TA.AperFunction,SMDPad,CuDef*%
%ADD38R,0.650000X1.500000*%
%TD*%
%TA.AperFunction,SMDPad,CuDef*%
%ADD39RoundRect,0.225000X-0.225000X-0.250000X0.225000X-0.250000X0.225000X0.250000X-0.225000X0.250000X0*%
%TD*%
%TA.AperFunction,SMDPad,CuDef*%
%ADD40RoundRect,0.218750X0.218750X0.256250X-0.218750X0.256250X-0.218750X-0.256250X0.218750X-0.256250X0*%
%TD*%
%TA.AperFunction,ConnectorPad*%
%ADD41C,0.787400*%
%TD*%
%TA.AperFunction,SMDPad,CuDef*%
%ADD42RoundRect,0.112500X0.112500X-0.187500X0.112500X0.187500X-0.112500X0.187500X-0.112500X-0.187500X0*%
%TD*%
%TA.AperFunction,SMDPad,CuDef*%
%ADD43R,0.600000X1.140000*%
%TD*%
%TA.AperFunction,SMDPad,CuDef*%
%ADD44R,0.300000X1.140000*%
%TD*%
%TA.AperFunction,ComponentPad*%
%ADD45O,0.900000X2.000000*%
%TD*%
%TA.AperFunction,ComponentPad*%
%ADD46O,0.900000X1.700000*%
%TD*%
%TA.AperFunction,SMDPad,CuDef*%
%ADD47R,0.650000X1.050000*%
%TD*%
%TA.AperFunction,SMDPad,CuDef*%
%ADD48R,0.300000X1.475000*%
%TD*%
%TA.AperFunction,SMDPad,CuDef*%
%ADD49R,1.475000X0.300000*%
%TD*%
%TA.AperFunction,SMDPad,CuDef*%
%ADD50R,0.350000X0.400000*%
%TD*%
%TA.AperFunction,SMDPad,CuDef*%
%ADD51R,0.500000X0.400000*%
%TD*%
%TA.AperFunction,SMDPad,CuDef*%
%ADD52R,0.920000X0.285000*%
%TD*%
%TA.AperFunction,SMDPad,CuDef*%
%ADD53R,1.600000X1.050000*%
%TD*%
%TA.AperFunction,SMDPad,CuDef*%
%ADD54R,3.100000X1.600000*%
%TD*%
%TA.AperFunction,SMDPad,CuDef*%
%ADD55R,0.375000X0.350000*%
%TD*%
%TA.AperFunction,SMDPad,CuDef*%
%ADD56R,0.350000X0.375000*%
%TD*%
%TA.AperFunction,SMDPad,CuDef*%
%ADD57RoundRect,0.250000X0.600000X-0.400000X0.600000X0.400000X-0.600000X0.400000X-0.600000X-0.400000X0*%
%TD*%
%TA.AperFunction,ViaPad*%
%ADD58C,0.450000*%
%TD*%
%TA.AperFunction,Conductor*%
%ADD59C,0.300000*%
%TD*%
%TA.AperFunction,Conductor*%
%ADD60C,0.200000*%
%TD*%
%TA.AperFunction,Conductor*%
%ADD61C,0.500000*%
%TD*%
%TA.AperFunction,Conductor*%
%ADD62C,0.250000*%
%TD*%
%TA.AperFunction,Conductor*%
%ADD63C,1.000000*%
%TD*%
G04 APERTURE END LIST*
D10*
%TO.P,D202,1,K*%
%TO.N,/Power/5V_LED_K*%
X144862500Y-119500000D03*
%TO.P,D202,2,A*%
%TO.N,+5V*%
X146437500Y-119500000D03*
%TD*%
D11*
%TO.P,U403,1,A0*%
%TO.N,GND*%
X123938000Y-103575000D03*
%TO.P,U403,2,A1*%
X123938000Y-102925000D03*
%TO.P,U403,3,~{RESET}*%
%TO.N,MUX1_RST*%
X123938000Y-102275000D03*
%TO.P,U403,4,SD0*%
%TO.N,SDA9*%
X123938000Y-101625000D03*
%TO.P,U403,5,SC0*%
%TO.N,SCL9*%
X123938000Y-100975000D03*
%TO.P,U403,6,SD1*%
%TO.N,SDA8*%
X123938000Y-100325000D03*
%TO.P,U403,7,SC1*%
%TO.N,SCL8*%
X123938000Y-99675000D03*
%TO.P,U403,8,SD2*%
%TO.N,SDA15*%
X123938000Y-99025000D03*
%TO.P,U403,9,SC2*%
%TO.N,SCL15*%
X123938000Y-98375000D03*
%TO.P,U403,10,SD3*%
%TO.N,SDA13*%
X123938000Y-97725000D03*
%TO.P,U403,11,SC3*%
%TO.N,SCL13*%
X123938000Y-97075000D03*
%TO.P,U403,12,GND*%
%TO.N,GND*%
X123938000Y-96425000D03*
%TO.P,U403,13,SD4*%
%TO.N,SDA14*%
X118062000Y-96425000D03*
%TO.P,U403,14,SC4*%
%TO.N,SCL14*%
X118062000Y-97075000D03*
%TO.P,U403,15,SD5*%
%TO.N,SDA12*%
X118062000Y-97725000D03*
%TO.P,U403,16,SC5*%
%TO.N,SCL12*%
X118062000Y-98375000D03*
%TO.P,U403,17,SD6*%
%TO.N,SDA11*%
X118062000Y-99025000D03*
%TO.P,U403,18,SC6*%
%TO.N,SCL11*%
X118062000Y-99675000D03*
%TO.P,U403,19,SD7*%
%TO.N,SDA10*%
X118062000Y-100325000D03*
%TO.P,U403,20,SC7*%
%TO.N,SCL10*%
X118062000Y-100975000D03*
%TO.P,U403,21,A2*%
%TO.N,GND*%
X118062000Y-101625000D03*
%TO.P,U403,22,SCL*%
%TO.N,SCL1_MCU*%
X118062000Y-102275000D03*
%TO.P,U403,23,SDA*%
%TO.N,SDA1_MCU*%
X118062000Y-102925000D03*
%TO.P,U403,24,VCC*%
%TO.N,+3.3V*%
X118062000Y-103575000D03*
%TD*%
D12*
%TO.P,J302,1,Pin_1*%
%TO.N,/Microcontroller/CANH*%
X140380000Y-138000000D03*
D13*
%TO.P,J302,2,Pin_2*%
%TO.N,GND*%
X145460000Y-138000000D03*
%TO.P,J302,3,Pin_3*%
%TO.N,/Microcontroller/CANL*%
X150540000Y-138000000D03*
%TD*%
D14*
%TO.P,U402,1,SDO*%
%TO.N,IMU_MISO*%
X138793499Y-119499999D03*
%TO.P,U402,2,ASDX*%
%TO.N,unconnected-(U402-ASDX-Pad2)*%
X138793499Y-120000000D03*
%TO.P,U402,3,ASCX*%
%TO.N,unconnected-(U402-ASCX-Pad3)*%
X138793499Y-120500000D03*
%TO.P,U402,4,INT1*%
%TO.N,IMU_INT1*%
X138793499Y-121000001D03*
D15*
%TO.P,U402,5,VDDIO*%
%TO.N,+3.3V*%
X139500000Y-121202500D03*
%TO.P,U402,6,GNDIO*%
%TO.N,GND*%
X139999999Y-121202500D03*
%TO.P,U402,7,GND*%
X140499998Y-121202500D03*
D14*
%TO.P,U402,8,VDD*%
%TO.N,+3.3V*%
X141206499Y-121000001D03*
%TO.P,U402,9,INT2*%
%TO.N,IMU_INT2*%
X141206499Y-120500000D03*
%TO.P,U402,10,OCSB*%
%TO.N,unconnected-(U402-OCSB-Pad10)*%
X141206499Y-120000000D03*
%TO.P,U402,11,OSDO*%
%TO.N,unconnected-(U402-OSDO-Pad11)*%
X141206499Y-119499999D03*
D15*
%TO.P,U402,12,CSB*%
%TO.N,IMU_CS*%
X140499998Y-119297500D03*
%TO.P,U402,13,SCX*%
%TO.N,IMU_SCK*%
X139999999Y-119297500D03*
%TO.P,U402,14,SDX*%
%TO.N,IMU_MOSI*%
X139500000Y-119297500D03*
%TD*%
D16*
%TO.P,R314,1*%
%TO.N,+3.3V*%
X154000000Y-92510000D03*
%TO.P,R314,2*%
%TO.N,SCL4_MCU*%
X154000000Y-91490000D03*
%TD*%
D17*
%TO.P,U302,1,IO1*%
%TO.N,/Microcontroller/CC2*%
X130550000Y-66637500D03*
%TO.P,U302,2,GND*%
%TO.N,GND*%
X131500000Y-66637500D03*
%TO.P,U302,3,IO2*%
%TO.N,/Microcontroller/CC1*%
X132450000Y-66637500D03*
%TO.P,U302,4,IO3*%
%TO.N,USB_DN*%
X132450000Y-64362500D03*
%TO.P,U302,5,VBUS*%
%TO.N,VBUS*%
X131500000Y-64362500D03*
%TO.P,U302,6,IO4*%
%TO.N,USB_DP*%
X130550000Y-64362500D03*
%TD*%
D18*
%TO.P,C202,1*%
%TO.N,VIN*%
X126000000Y-121225000D03*
%TO.P,C202,2*%
%TO.N,GND*%
X126000000Y-122775000D03*
%TD*%
D16*
%TO.P,R310,1*%
%TO.N,+3.3V*%
X127500000Y-97510000D03*
%TO.P,R310,2*%
%TO.N,SDA1_MCU*%
X127500000Y-96490000D03*
%TD*%
D19*
%TO.P,X301,1,OE*%
%TO.N,unconnected-(X301-OE-Pad1)*%
X139125000Y-107600000D03*
%TO.P,X301,2,GND*%
%TO.N,GND*%
X141875000Y-107600000D03*
%TO.P,X301,3,OUT*%
%TO.N,OSC25M*%
X141875000Y-105400000D03*
%TO.P,X301,4,VDD*%
%TO.N,+3.3V*%
X139125000Y-105400000D03*
%TD*%
D20*
%TO.P,C204,1*%
%TO.N,VIN*%
X127250000Y-121170000D03*
%TO.P,C204,2*%
%TO.N,GND*%
X127250000Y-122130000D03*
%TD*%
%TO.P,C315,1*%
%TO.N,+3.3V*%
X152500000Y-98520000D03*
%TO.P,C315,2*%
%TO.N,GND*%
X152500000Y-99480000D03*
%TD*%
D21*
%TO.P,R204,1*%
%TO.N,+3.3V*%
X131510000Y-124000000D03*
%TO.P,R204,2*%
%TO.N,/Power/3V3_FB*%
X130490000Y-124000000D03*
%TD*%
D20*
%TO.P,C203,1*%
%TO.N,VIN*%
X152750000Y-121520000D03*
%TO.P,C203,2*%
%TO.N,GND*%
X152750000Y-122480000D03*
%TD*%
D22*
%TO.P,C205,1*%
%TO.N,/Power/5V_BST*%
X149280000Y-124300000D03*
%TO.P,C205,2*%
%TO.N,/Power/5V_SW*%
X148320000Y-124300000D03*
%TD*%
D23*
%TO.P,J304,1,1*%
%TO.N,GND*%
X152260000Y-60230000D03*
%TO.P,J304,2,2*%
%TO.N,+3.3V*%
X151260000Y-60230000D03*
%TO.P,J304,3,3*%
%TO.N,SDA3_MCU*%
X150260000Y-60230000D03*
%TO.P,J304,4,4*%
%TO.N,SCL3_MCU*%
X149260000Y-60230000D03*
D24*
%TO.P,J304,S1,SHIELD*%
%TO.N,unconnected-(J304-SHIELD-PadS1)*%
X153560000Y-56355000D03*
%TO.P,J304,S2,SHIELD*%
%TO.N,unconnected-(J304-SHIELD-PadS2)*%
X147960000Y-56355000D03*
%TD*%
D25*
%TO.P,R203,1*%
%TO.N,/Power/5V_FB*%
X152790000Y-124000000D03*
%TO.P,R203,2*%
%TO.N,GND*%
X153810000Y-124000000D03*
%TD*%
D21*
%TO.P,R207,1*%
%TO.N,/Power/3V3_LED_K*%
X135110000Y-120750000D03*
%TO.P,R207,2*%
%TO.N,GND*%
X134090000Y-120750000D03*
%TD*%
D26*
%TO.P,H103,1,1*%
%TO.N,unconnected-(H103-Pad1)*%
X169000000Y-58000000D03*
%TD*%
D27*
%TO.P,J415,1,Pin_1*%
%TO.N,VDDIO4*%
X120975000Y-91250000D03*
D28*
%TO.P,J415,2,Pin_2*%
%TO.N,GND*%
X120975000Y-88750000D03*
%TO.P,J415,3,Pin_3*%
%TO.N,SCL13*%
X120975000Y-86250000D03*
%TO.P,J415,4,Pin_4*%
%TO.N,SDA13*%
X120975000Y-83750000D03*
%TO.P,J415,5,Pin_5*%
%TO.N,GPIO13A*%
X120975000Y-81250000D03*
%TO.P,J415,6,Pin_6*%
%TO.N,GPIO13B*%
X120975000Y-78750000D03*
%TD*%
D22*
%TO.P,C322,1*%
%TO.N,+3.3V*%
X133480000Y-103500000D03*
%TO.P,C322,2*%
%TO.N,GND*%
X132520000Y-103500000D03*
%TD*%
D25*
%TO.P,R306,1*%
%TO.N,BOOT0*%
X138490000Y-122500000D03*
%TO.P,R306,2*%
%TO.N,GND*%
X139510000Y-122500000D03*
%TD*%
D29*
%TO.P,C312,1*%
%TO.N,+3.3V*%
X127500000Y-93480000D03*
%TO.P,C312,2*%
%TO.N,GND*%
X127500000Y-92520000D03*
%TD*%
D21*
%TO.P,R302,1*%
%TO.N,GND*%
X148070000Y-69900000D03*
%TO.P,R302,2*%
%TO.N,/Microcontroller/LEDG_K*%
X147050000Y-69900000D03*
%TD*%
D30*
%TO.P,C318,1*%
%TO.N,+3.3V*%
X143020000Y-78500000D03*
%TO.P,C318,2*%
%TO.N,GND*%
X143980000Y-78500000D03*
%TD*%
D10*
%TO.P,D303,1,K*%
%TO.N,/Microcontroller/LEDB_K*%
X146772500Y-74650000D03*
%TO.P,D303,2,A*%
%TO.N,LEDB*%
X148347500Y-74650000D03*
%TD*%
D30*
%TO.P,C401,1*%
%TO.N,+3.3V*%
X157520000Y-104750000D03*
%TO.P,C401,2*%
%TO.N,GND*%
X158480000Y-104750000D03*
%TD*%
D25*
%TO.P,R202,1*%
%TO.N,+5V*%
X150790000Y-124000000D03*
%TO.P,R202,2*%
%TO.N,/Power/5V_FB*%
X151810000Y-124000000D03*
%TD*%
D30*
%TO.P,C404,1*%
%TO.N,+3.3V*%
X119520000Y-104800000D03*
%TO.P,C404,2*%
%TO.N,GND*%
X120480000Y-104800000D03*
%TD*%
D31*
%TO.P,C210,1*%
%TO.N,+3.3V*%
X132475000Y-121300000D03*
%TO.P,C210,2*%
%TO.N,GND*%
X130925000Y-121300000D03*
%TD*%
D22*
%TO.P,C304,1*%
%TO.N,/Microcontroller/VREF+*%
X146980000Y-103750000D03*
%TO.P,C304,2*%
%TO.N,GND*%
X146020000Y-103750000D03*
%TD*%
D30*
%TO.P,C309,1*%
%TO.N,/Microcontroller/VDDA*%
X148020000Y-104750000D03*
%TO.P,C309,2*%
%TO.N,GND*%
X148980000Y-104750000D03*
%TD*%
D32*
%TO.P,R402,1*%
%TO.N,MUX1_RST*%
X127509000Y-102273000D03*
%TO.P,R402,2*%
%TO.N,+3.3V*%
X127509000Y-103293000D03*
%TD*%
D29*
%TO.P,C402,1*%
%TO.N,+3.3V*%
X136600000Y-120730000D03*
%TO.P,C402,2*%
%TO.N,GND*%
X136600000Y-119770000D03*
%TD*%
%TO.P,C406,1*%
%TO.N,+3.3V*%
X143000000Y-120730000D03*
%TO.P,C406,2*%
%TO.N,GND*%
X143000000Y-119770000D03*
%TD*%
D33*
%TO.P,IC202,1,VIN*%
%TO.N,VIN*%
X129500000Y-121162000D03*
%TO.P,IC202,2,SW*%
%TO.N,/Power/3V3_SW*%
X129000000Y-121162000D03*
%TO.P,IC202,3,GND*%
%TO.N,GND*%
X128500000Y-121162000D03*
%TO.P,IC202,4,BST*%
%TO.N,/Power/3V3_BST*%
X128500000Y-122838000D03*
%TO.P,IC202,5,EN*%
%TO.N,VIN*%
X129000000Y-122838000D03*
%TO.P,IC202,6,FB*%
%TO.N,/Power/3V3_FB*%
X129500000Y-122838000D03*
%TD*%
D27*
%TO.P,J412,1,Pin_1*%
%TO.N,VDDIO4*%
X112475000Y-76250000D03*
D28*
%TO.P,J412,2,Pin_2*%
%TO.N,GND*%
X112475000Y-73750000D03*
%TO.P,J412,3,Pin_3*%
%TO.N,SCL14*%
X112475000Y-71250000D03*
%TO.P,J412,4,Pin_4*%
%TO.N,SDA14*%
X112475000Y-68750000D03*
%TO.P,J412,5,Pin_5*%
%TO.N,GPIO14A*%
X112475000Y-66250000D03*
%TO.P,J412,6,Pin_6*%
%TO.N,GPIO14B*%
X112475000Y-63750000D03*
%TD*%
D20*
%TO.P,C308,1*%
%TO.N,+3.3V*%
X152500000Y-92020000D03*
%TO.P,C308,2*%
%TO.N,GND*%
X152500000Y-92980000D03*
%TD*%
D30*
%TO.P,C301,1*%
%TO.N,+3.3V*%
X135020000Y-109500000D03*
%TO.P,C301,2*%
%TO.N,GND*%
X135980000Y-109500000D03*
%TD*%
D25*
%TO.P,R201,1*%
%TO.N,/Power/RP_PMOS_G*%
X139490000Y-130000000D03*
%TO.P,R201,2*%
%TO.N,GND*%
X140510000Y-130000000D03*
%TD*%
D34*
%TO.P,L202,1*%
%TO.N,/Power/3V3_SW*%
X127150000Y-118000000D03*
%TO.P,L202,2*%
%TO.N,+3.3V*%
X130850000Y-118000000D03*
%TD*%
D30*
%TO.P,C313,1*%
%TO.N,+3.3V*%
X137520000Y-78500000D03*
%TO.P,C313,2*%
%TO.N,GND*%
X138480000Y-78500000D03*
%TD*%
D22*
%TO.P,C316,1*%
%TO.N,+3.3V*%
X144980000Y-103750000D03*
%TO.P,C316,2*%
%TO.N,GND*%
X144020000Y-103750000D03*
%TD*%
D12*
%TO.P,J203,1,Pin_1*%
%TO.N,VIN_RAW*%
X128920000Y-138000000D03*
D13*
%TO.P,J203,2,Pin_2*%
%TO.N,GND*%
X134000000Y-138000000D03*
%TD*%
D25*
%TO.P,R311,1*%
%TO.N,+3.3V*%
X148250000Y-62320000D03*
%TO.P,R311,2*%
%TO.N,SCL3_MCU*%
X149270000Y-62320000D03*
%TD*%
D22*
%TO.P,C305,1*%
%TO.N,/Microcontroller/VREF+*%
X146980000Y-104750000D03*
%TO.P,C305,2*%
%TO.N,GND*%
X146020000Y-104750000D03*
%TD*%
D20*
%TO.P,C311,1*%
%TO.N,+3.3V*%
X127500000Y-100020000D03*
%TO.P,C311,2*%
%TO.N,GND*%
X127500000Y-100980000D03*
%TD*%
D35*
%TO.P,JP402,1,A*%
%TO.N,+3.3V*%
X128000000Y-126460000D03*
D36*
%TO.P,JP402,2,C*%
%TO.N,VDDIO3*%
X128000000Y-129000000D03*
%TO.P,JP402,3,B*%
%TO.N,+5V*%
X128000000Y-131540000D03*
%TD*%
D10*
%TO.P,D301,1,K*%
%TO.N,/Microcontroller/LEDR_K*%
X146772500Y-71650000D03*
%TO.P,D301,2,A*%
%TO.N,LEDR*%
X148347500Y-71650000D03*
%TD*%
D26*
%TO.P,H102,1,1*%
%TO.N,unconnected-(H102-Pad1)*%
X111000000Y-142000000D03*
%TD*%
D10*
%TO.P,D302,1,K*%
%TO.N,/Microcontroller/LEDG_K*%
X146772500Y-68650000D03*
%TO.P,D302,2,A*%
%TO.N,LEDG*%
X148347500Y-68650000D03*
%TD*%
D19*
%TO.P,X302,1,OE*%
%TO.N,unconnected-(X302-OE-Pad1)*%
X133625000Y-107600000D03*
%TO.P,X302,2,GND*%
%TO.N,GND*%
X136375000Y-107600000D03*
%TO.P,X302,3,OUT*%
%TO.N,OSC32K*%
X136375000Y-105400000D03*
%TO.P,X302,4,VDD*%
%TO.N,+3.3V*%
X133625000Y-105400000D03*
%TD*%
D37*
%TO.P,J405,1,Pin_1*%
%TO.N,VDDIO1*%
X159025000Y-108750000D03*
D28*
%TO.P,J405,2,Pin_2*%
%TO.N,GND*%
X159025000Y-111250000D03*
%TO.P,J405,3,Pin_3*%
%TO.N,SCL1*%
X159025000Y-113750000D03*
%TO.P,J405,4,Pin_4*%
%TO.N,SDA1*%
X159025000Y-116250000D03*
%TO.P,J405,5,Pin_5*%
%TO.N,GPIO1A*%
X159025000Y-118750000D03*
%TO.P,J405,6,Pin_6*%
%TO.N,GPIO1B*%
X159025000Y-121250000D03*
%TD*%
D26*
%TO.P,H101,1,1*%
%TO.N,unconnected-(H101-Pad1)*%
X111000000Y-58000000D03*
%TD*%
D32*
%TO.P,R307,1*%
%TO.N,/Microcontroller/CC1*%
X134450000Y-64990000D03*
%TO.P,R307,2*%
%TO.N,GND*%
X134450000Y-66010000D03*
%TD*%
D21*
%TO.P,R313,1*%
%TO.N,BTN*%
X143500000Y-65300000D03*
%TO.P,R313,2*%
%TO.N,+3.3V*%
X142480000Y-65300000D03*
%TD*%
D30*
%TO.P,C307,1*%
%TO.N,/Microcontroller/VDDA*%
X148040000Y-103750000D03*
%TO.P,C307,2*%
%TO.N,GND*%
X149000000Y-103750000D03*
%TD*%
D18*
%TO.P,C201,1*%
%TO.N,VIN*%
X154000000Y-121225000D03*
%TO.P,C201,2*%
%TO.N,GND*%
X154000000Y-122775000D03*
%TD*%
D29*
%TO.P,C403,1*%
%TO.N,+3.3V*%
X142400000Y-117460000D03*
%TO.P,C403,2*%
%TO.N,GND*%
X142400000Y-116500000D03*
%TD*%
D30*
%TO.P,C306,1*%
%TO.N,+3.3V*%
X130020000Y-78500000D03*
%TO.P,C306,2*%
%TO.N,GND*%
X130980000Y-78500000D03*
%TD*%
D35*
%TO.P,JP403,1,A*%
%TO.N,+3.3V*%
X152000000Y-68475000D03*
D36*
%TO.P,JP403,2,C*%
%TO.N,VDDIO2*%
X152000000Y-71015000D03*
%TO.P,JP403,3,B*%
%TO.N,+5V*%
X152000000Y-73555000D03*
%TD*%
D22*
%TO.P,C302,1*%
%TO.N,GND*%
X141480000Y-109500000D03*
%TO.P,C302,2*%
%TO.N,+3.3V*%
X140520000Y-109500000D03*
%TD*%
D38*
%TO.P,IC301,1,TXD*%
%TO.N,CAN_TX*%
X152655000Y-107300000D03*
%TO.P,IC301,2,GND*%
%TO.N,GND*%
X151385000Y-107300000D03*
%TO.P,IC301,3,VCC*%
%TO.N,+5V*%
X150115000Y-107300000D03*
%TO.P,IC301,4,RXD*%
%TO.N,CAN_RX*%
X148845000Y-107300000D03*
%TO.P,IC301,5,VIO*%
%TO.N,+3.3V*%
X148845000Y-112700000D03*
%TO.P,IC301,6,CANL*%
%TO.N,/Microcontroller/CANL*%
X150115000Y-112700000D03*
%TO.P,IC301,7,CANH*%
%TO.N,/Microcontroller/CANH*%
X151385000Y-112700000D03*
%TO.P,IC301,8,S*%
%TO.N,SILENT*%
X152655000Y-112700000D03*
%TD*%
D22*
%TO.P,C323,1*%
%TO.N,/Microcontroller/VCAP2*%
X132000000Y-77500000D03*
%TO.P,C323,2*%
%TO.N,GND*%
X131040000Y-77500000D03*
%TD*%
D37*
%TO.P,J402,1,Pin_1*%
%TO.N,VDDIO1*%
X167525000Y-123750000D03*
D28*
%TO.P,J402,2,Pin_2*%
%TO.N,GND*%
X167525000Y-126250000D03*
%TO.P,J402,3,Pin_3*%
%TO.N,SCL2*%
X167525000Y-128750000D03*
%TO.P,J402,4,Pin_4*%
%TO.N,SDA2*%
X167525000Y-131250000D03*
%TO.P,J402,5,Pin_5*%
%TO.N,GPIO2A*%
X167525000Y-133750000D03*
%TO.P,J402,6,Pin_6*%
%TO.N,GPIO2B*%
X167525000Y-136250000D03*
%TD*%
D26*
%TO.P,H104,1,1*%
%TO.N,unconnected-(H104-Pad1)*%
X169000000Y-142000000D03*
%TD*%
D27*
%TO.P,J407,1,Pin_1*%
%TO.N,VDDIO3*%
X121000000Y-121500000D03*
D28*
%TO.P,J407,2,Pin_2*%
%TO.N,GND*%
X121000000Y-119000000D03*
%TO.P,J407,3,Pin_3*%
%TO.N,SCL9*%
X121000000Y-116500000D03*
%TO.P,J407,4,Pin_4*%
%TO.N,SDA9*%
X121000000Y-114000000D03*
%TO.P,J407,5,Pin_5*%
%TO.N,GPIO9A*%
X121000000Y-111500000D03*
%TO.P,J407,6,Pin_6*%
%TO.N,GPIO9B*%
X121000000Y-109000000D03*
%TD*%
D31*
%TO.P,C208,1*%
%TO.N,+3.3V*%
X132475000Y-122800000D03*
%TO.P,C208,2*%
%TO.N,GND*%
X130925000Y-122800000D03*
%TD*%
D39*
%TO.P,C209,1*%
%TO.N,+5V*%
X147550000Y-122650000D03*
%TO.P,C209,2*%
%TO.N,GND*%
X149100000Y-122650000D03*
%TD*%
D37*
%TO.P,J406,1,Pin_1*%
%TO.N,VDDIO1*%
X167525000Y-103750000D03*
D28*
%TO.P,J406,2,Pin_2*%
%TO.N,GND*%
X167525000Y-106250000D03*
%TO.P,J406,3,Pin_3*%
%TO.N,SCL3*%
X167525000Y-108750000D03*
%TO.P,J406,4,Pin_4*%
%TO.N,SDA3*%
X167525000Y-111250000D03*
%TO.P,J406,5,Pin_5*%
%TO.N,GPIO3A*%
X167525000Y-113750000D03*
%TO.P,J406,6,Pin_6*%
%TO.N,GPIO3B*%
X167525000Y-116250000D03*
%TD*%
D29*
%TO.P,C320,1*%
%TO.N,+3.3V*%
X152500000Y-81980000D03*
%TO.P,C320,2*%
%TO.N,GND*%
X152500000Y-81020000D03*
%TD*%
D21*
%TO.P,R205,1*%
%TO.N,/Power/3V3_FB*%
X129510000Y-124000000D03*
%TO.P,R205,2*%
%TO.N,GND*%
X128490000Y-124000000D03*
%TD*%
D32*
%TO.P,R401,1*%
%TO.N,MUX2_RST*%
X152500000Y-96240000D03*
%TO.P,R401,2*%
%TO.N,+3.3V*%
X152500000Y-97260000D03*
%TD*%
D37*
%TO.P,J410,1,Pin_1*%
%TO.N,VDDIO2*%
X159025000Y-58750000D03*
D28*
%TO.P,J410,2,Pin_2*%
%TO.N,GND*%
X159025000Y-61250000D03*
%TO.P,J410,3,Pin_3*%
%TO.N,SCL6*%
X159025000Y-63750000D03*
%TO.P,J410,4,Pin_4*%
%TO.N,SDA6*%
X159025000Y-66250000D03*
%TO.P,J410,5,Pin_5*%
%TO.N,GPIO6A*%
X159025000Y-68750000D03*
%TO.P,J410,6,Pin_6*%
%TO.N,GPIO6B*%
X159025000Y-71250000D03*
%TD*%
D37*
%TO.P,J413,1,Pin_1*%
%TO.N,VDDIO2*%
X167525000Y-63750000D03*
D28*
%TO.P,J413,2,Pin_2*%
%TO.N,GND*%
X167525000Y-66250000D03*
%TO.P,J413,3,Pin_3*%
%TO.N,SCL5*%
X167525000Y-68750000D03*
%TO.P,J413,4,Pin_4*%
%TO.N,SDA5*%
X167525000Y-71250000D03*
%TO.P,J413,5,Pin_5*%
%TO.N,GPIO5A*%
X167525000Y-73750000D03*
%TO.P,J413,6,Pin_6*%
%TO.N,GPIO5B*%
X167525000Y-76250000D03*
%TD*%
D27*
%TO.P,J403,1,Pin_1*%
%TO.N,VDDIO3*%
X121000000Y-141000000D03*
D28*
%TO.P,J403,2,Pin_2*%
%TO.N,GND*%
X121000000Y-138500000D03*
%TO.P,J403,3,Pin_3*%
%TO.N,SCL8*%
X121000000Y-136000000D03*
%TO.P,J403,4,Pin_4*%
%TO.N,SDA8*%
X121000000Y-133500000D03*
%TO.P,J403,5,Pin_5*%
%TO.N,GPIO8A*%
X121000000Y-131000000D03*
%TO.P,J403,6,Pin_6*%
%TO.N,GPIO8B*%
X121000000Y-128500000D03*
%TD*%
D40*
%TO.P,D203,1,K*%
%TO.N,/Power/3V3_LED_K*%
X135387500Y-119500000D03*
%TO.P,D203,2,A*%
%TO.N,+3.3V*%
X133812500Y-119500000D03*
%TD*%
D41*
%TO.P,J301,1,VCC*%
%TO.N,+3.3V*%
X135895000Y-71445000D03*
%TO.P,J301,2,SWDIO*%
%TO.N,SWDIO*%
X135895000Y-72715000D03*
%TO.P,J301,3,~{RESET}*%
%TO.N,NRST*%
X134625000Y-71445000D03*
%TO.P,J301,4,SWCLK*%
%TO.N,SWCLK*%
X134625000Y-72715000D03*
%TO.P,J301,5,GND*%
%TO.N,GND*%
X133355000Y-71445000D03*
%TO.P,J301,6,SWO*%
%TO.N,SWO*%
X133355000Y-72715000D03*
%TD*%
D27*
%TO.P,J416,1,Pin_1*%
%TO.N,VDDIO4*%
X120975000Y-71250000D03*
D28*
%TO.P,J416,2,Pin_2*%
%TO.N,GND*%
X120975000Y-68750000D03*
%TO.P,J416,3,Pin_3*%
%TO.N,SCL15*%
X120975000Y-66250000D03*
%TO.P,J416,4,Pin_4*%
%TO.N,SDA15*%
X120975000Y-63750000D03*
%TO.P,J416,5,Pin_5*%
%TO.N,GPIO15A*%
X120975000Y-61250000D03*
%TO.P,J416,6,Pin_6*%
%TO.N,GPIO15B*%
X120975000Y-58750000D03*
%TD*%
D32*
%TO.P,R309,1*%
%TO.N,+3.3V*%
X127500000Y-94490000D03*
%TO.P,R309,2*%
%TO.N,SCL1_MCU*%
X127500000Y-95510000D03*
%TD*%
D27*
%TO.P,J411,1,Pin_1*%
%TO.N,VDDIO4*%
X112475000Y-96250000D03*
D28*
%TO.P,J411,2,Pin_2*%
%TO.N,GND*%
X112475000Y-93750000D03*
%TO.P,J411,3,Pin_3*%
%TO.N,SCL12*%
X112475000Y-91250000D03*
%TO.P,J411,4,Pin_4*%
%TO.N,SDA12*%
X112475000Y-88750000D03*
%TO.P,J411,5,Pin_5*%
%TO.N,GPIO12A*%
X112475000Y-86250000D03*
%TO.P,J411,6,Pin_6*%
%TO.N,GPIO12B*%
X112475000Y-83750000D03*
%TD*%
D22*
%TO.P,C206,1*%
%TO.N,/Power/3V3_BST*%
X127480000Y-124000000D03*
%TO.P,C206,2*%
%TO.N,/Power/3V3_SW*%
X126520000Y-124000000D03*
%TD*%
D29*
%TO.P,C310,1*%
%TO.N,+3.3V*%
X127499000Y-88702000D03*
%TO.P,C310,2*%
%TO.N,GND*%
X127499000Y-87742000D03*
%TD*%
D39*
%TO.P,C207,1*%
%TO.N,+5V*%
X147550000Y-121130000D03*
%TO.P,C207,2*%
%TO.N,GND*%
X149100000Y-121130000D03*
%TD*%
D35*
%TO.P,JP404,1,A*%
%TO.N,+3.3V*%
X128000000Y-68460000D03*
D36*
%TO.P,JP404,2,C*%
%TO.N,VDDIO4*%
X128000000Y-71000000D03*
%TO.P,JP404,3,B*%
%TO.N,+5V*%
X128000000Y-73540000D03*
%TD*%
D34*
%TO.P,L201,1*%
%TO.N,/Power/5V_SW*%
X152850000Y-118000000D03*
%TO.P,L201,2*%
%TO.N,+5V*%
X149150000Y-118000000D03*
%TD*%
D30*
%TO.P,C314,1*%
%TO.N,+3.3V*%
X137520000Y-77500000D03*
%TO.P,C314,2*%
%TO.N,GND*%
X138480000Y-77500000D03*
%TD*%
D42*
%TO.P,D304,1,K*%
%TO.N,VIN*%
X126400000Y-65650000D03*
%TO.P,D304,2,A*%
%TO.N,VBUS*%
X126400000Y-63550000D03*
%TD*%
D25*
%TO.P,R206,1*%
%TO.N,/Power/5V_LED_K*%
X145140000Y-120750000D03*
%TO.P,R206,2*%
%TO.N,GND*%
X146160000Y-120750000D03*
%TD*%
D43*
%TO.P,J303,A1_B12,GND*%
%TO.N,GND*%
X134200000Y-61750000D03*
%TO.P,J303,A4_B9,VBUS*%
%TO.N,VBUS*%
X133400000Y-61750000D03*
D44*
%TO.P,J303,A5,CC1*%
%TO.N,/Microcontroller/CC1*%
X132250000Y-61750000D03*
%TO.P,J303,A6,DP1*%
%TO.N,USB_DP*%
X131250000Y-61750000D03*
%TO.P,J303,A7,DN1*%
%TO.N,USB_DN*%
X130750000Y-61750000D03*
%TO.P,J303,A8,SBU1*%
%TO.N,unconnected-(J303-SBU1-PadA8)*%
X129750000Y-61750000D03*
D43*
%TO.P,J303,B1_A12,GND*%
%TO.N,GND*%
X127800000Y-61750000D03*
%TO.P,J303,B4_A9,VBUS*%
%TO.N,VBUS*%
X128600000Y-61750000D03*
D44*
%TO.P,J303,B5,CC2*%
%TO.N,/Microcontroller/CC2*%
X129250000Y-61750000D03*
%TO.P,J303,B6,DP2*%
%TO.N,USB_DP*%
X130250000Y-61750000D03*
%TO.P,J303,B7,DN2*%
%TO.N,USB_DN*%
X131750000Y-61750000D03*
%TO.P,J303,B8,SBU2*%
%TO.N,unconnected-(J303-SBU2-PadB8)*%
X132750000Y-61750000D03*
D45*
%TO.P,J303,S1,SHIELD*%
%TO.N,unconnected-(J303-SHIELD-PadS1)*%
X135325000Y-61170000D03*
%TO.P,J303,S2,SHIELD*%
%TO.N,unconnected-(J303-SHIELD-PadS2)*%
X126675000Y-61170000D03*
D46*
%TO.P,J303,S3,SHIELD*%
%TO.N,unconnected-(J303-SHIELD-PadS3)*%
X135325000Y-57000000D03*
%TO.P,J303,S4,SHIELD*%
%TO.N,unconnected-(J303-SHIELD-PadS4)*%
X126675000Y-57000000D03*
%TD*%
D37*
%TO.P,J414,1,Pin_1*%
%TO.N,VDDIO2*%
X159025000Y-78750000D03*
D28*
%TO.P,J414,2,Pin_2*%
%TO.N,GND*%
X159025000Y-81250000D03*
%TO.P,J414,3,Pin_3*%
%TO.N,SCL7*%
X159025000Y-83750000D03*
%TO.P,J414,4,Pin_4*%
%TO.N,SDA7*%
X159025000Y-86250000D03*
%TO.P,J414,5,Pin_5*%
%TO.N,GPIO7A*%
X159025000Y-88750000D03*
%TO.P,J414,6,Pin_6*%
%TO.N,GPIO7B*%
X159025000Y-91250000D03*
%TD*%
D22*
%TO.P,C317,1*%
%TO.N,+3.3V*%
X139480000Y-103500000D03*
%TO.P,C317,2*%
%TO.N,GND*%
X138520000Y-103500000D03*
%TD*%
D47*
%TO.P,S301,1,NO_1*%
%TO.N,unconnected-(S301-NO_1-Pad1)*%
X137925000Y-60575000D03*
%TO.P,S301,2,NO_2*%
%TO.N,NRST*%
X137925000Y-56425000D03*
%TO.P,S301,3,COM_1*%
%TO.N,GND*%
X140075000Y-60575000D03*
%TO.P,S301,4,COM_2*%
%TO.N,unconnected-(S301-COM_2-Pad4)*%
X140075000Y-56425000D03*
%TD*%
D30*
%TO.P,C324,1*%
%TO.N,BTN*%
X144510000Y-65300000D03*
%TO.P,C324,2*%
%TO.N,GND*%
X145470000Y-65300000D03*
%TD*%
D25*
%TO.P,R304,1*%
%TO.N,NRST*%
X139490000Y-65300000D03*
%TO.P,R304,2*%
%TO.N,+3.3V*%
X140510000Y-65300000D03*
%TD*%
D32*
%TO.P,R308,1*%
%TO.N,/Microcontroller/CC2*%
X128500000Y-64990000D03*
%TO.P,R308,2*%
%TO.N,GND*%
X128500000Y-66010000D03*
%TD*%
D37*
%TO.P,J401,1,Pin_1*%
%TO.N,VDDIO1*%
X159025000Y-128750000D03*
D28*
%TO.P,J401,2,Pin_2*%
%TO.N,GND*%
X159025000Y-131250000D03*
%TO.P,J401,3,Pin_3*%
%TO.N,SCL0*%
X159025000Y-133750000D03*
%TO.P,J401,4,Pin_4*%
%TO.N,SDA0*%
X159025000Y-136250000D03*
%TO.P,J401,5,Pin_5*%
%TO.N,GPIO0A*%
X159025000Y-138750000D03*
%TO.P,J401,6,Pin_6*%
%TO.N,GPIO0B*%
X159025000Y-141250000D03*
%TD*%
D48*
%TO.P,IC302,1,PE2*%
%TO.N,MAG_SCK*%
X131250000Y-101738000D03*
%TO.P,IC302,2,PE3*%
%TO.N,IMU_INT1*%
X131750000Y-101738000D03*
%TO.P,IC302,3,PE4*%
%TO.N,MAG_CS*%
X132250000Y-101738000D03*
%TO.P,IC302,4,PE5*%
%TO.N,MAG_MISO*%
X132750000Y-101738000D03*
%TO.P,IC302,5,PE6*%
%TO.N,MAG_MOSI*%
X133250000Y-101738000D03*
%TO.P,IC302,6,VBAT*%
%TO.N,+3.3V*%
X133750000Y-101738000D03*
%TO.P,IC302,7,PC13*%
%TO.N,GPIO9B*%
X134250000Y-101738000D03*
%TO.P,IC302,8,PC14-OSC32_IN*%
%TO.N,OSC32K*%
X134750000Y-101738000D03*
%TO.P,IC302,9,PC15-OSC32_OUT*%
%TO.N,unconnected-(IC302-PC15-OSC32_OUT-Pad9)*%
X135250000Y-101738000D03*
%TO.P,IC302,10,PF0*%
%TO.N,GPIO9A*%
X135750000Y-101738000D03*
%TO.P,IC302,11,PF1*%
%TO.N,GPIO8B*%
X136250000Y-101738000D03*
%TO.P,IC302,12,PF2*%
%TO.N,GPIO8A*%
X136750000Y-101738000D03*
%TO.P,IC302,13,PF3*%
%TO.N,unconnected-(IC302-PF3-Pad13)*%
X137250000Y-101738000D03*
%TO.P,IC302,14,PF4*%
%TO.N,unconnected-(IC302-PF4-Pad14)*%
X137750000Y-101738000D03*
%TO.P,IC302,15,PF5*%
%TO.N,unconnected-(IC302-PF5-Pad15)*%
X138250000Y-101738000D03*
%TO.P,IC302,16,VSS_1*%
%TO.N,GND*%
X138750000Y-101738000D03*
%TO.P,IC302,17,VDD_1*%
%TO.N,+3.3V*%
X139250000Y-101738000D03*
%TO.P,IC302,18,PF6*%
%TO.N,IMU_CS*%
X139750000Y-101738000D03*
%TO.P,IC302,19,PF7*%
%TO.N,IMU_SCK*%
X140250000Y-101738000D03*
%TO.P,IC302,20,PF8*%
%TO.N,IMU_MISO*%
X140750000Y-101738000D03*
%TO.P,IC302,21,PF9*%
%TO.N,IMU_MOSI*%
X141250000Y-101738000D03*
%TO.P,IC302,22,PF10*%
%TO.N,unconnected-(IC302-PF10-Pad22)*%
X141750000Y-101738000D03*
%TO.P,IC302,23,PH0-OSC_IN*%
%TO.N,OSC25M*%
X142250000Y-101738000D03*
%TO.P,IC302,24,PH1-OSC_OUT*%
%TO.N,unconnected-(IC302-PH1-OSC_OUT-Pad24)*%
X142750000Y-101738000D03*
%TO.P,IC302,25,NRST*%
%TO.N,NRST*%
X143250000Y-101738000D03*
%TO.P,IC302,26,PC0*%
%TO.N,IMU_INT2*%
X143750000Y-101738000D03*
%TO.P,IC302,27,PC1*%
%TO.N,MAG_DRDY*%
X144250000Y-101738000D03*
%TO.P,IC302,28,PC2_C*%
%TO.N,MAG_INT*%
X144750000Y-101738000D03*
%TO.P,IC302,29,PC3_C*%
%TO.N,GND*%
X145250000Y-101738000D03*
%TO.P,IC302,30,VDD_2*%
%TO.N,+3.3V*%
X145750000Y-101738000D03*
%TO.P,IC302,31,VSSA*%
%TO.N,GND*%
X146250000Y-101738000D03*
%TO.P,IC302,32,VREF+*%
%TO.N,/Microcontroller/VREF+*%
X146750000Y-101738000D03*
%TO.P,IC302,33,VDDA*%
%TO.N,/Microcontroller/VDDA*%
X147250000Y-101738000D03*
%TO.P,IC302,34,PA0*%
%TO.N,SILENT*%
X147750000Y-101738000D03*
%TO.P,IC302,35,PA1*%
%TO.N,unconnected-(IC302-PA1-Pad35)*%
X148250000Y-101738000D03*
%TO.P,IC302,36,PA2*%
%TO.N,GPIO0B*%
X148750000Y-101738000D03*
D49*
%TO.P,IC302,37,PA3*%
%TO.N,GPIO1A*%
X150738000Y-99750000D03*
%TO.P,IC302,38,VSS_2*%
%TO.N,GND*%
X150738000Y-99250000D03*
%TO.P,IC302,39,VDD_3*%
%TO.N,+3.3V*%
X150738000Y-98750000D03*
%TO.P,IC302,40,PA4*%
%TO.N,GPIO0A*%
X150738000Y-98250000D03*
%TO.P,IC302,41,PA5*%
%TO.N,GPIO1B*%
X150738000Y-97750000D03*
%TO.P,IC302,42,PA6*%
%TO.N,GPIO3A*%
X150738000Y-97250000D03*
%TO.P,IC302,43,PA7*%
%TO.N,GPIO3B*%
X150738000Y-96750000D03*
%TO.P,IC302,44,PC4*%
%TO.N,MUX2_RST*%
X150738000Y-96250000D03*
%TO.P,IC302,45,PC5*%
%TO.N,unconnected-(IC302-PC5-Pad45)*%
X150738000Y-95750000D03*
%TO.P,IC302,46,PB0*%
%TO.N,GPIO7B*%
X150738000Y-95250000D03*
%TO.P,IC302,47,PB1*%
%TO.N,GPIO7A*%
X150738000Y-94750000D03*
%TO.P,IC302,48,PB2*%
%TO.N,GPIO6B*%
X150738000Y-94250000D03*
%TO.P,IC302,49,PF11*%
%TO.N,GPIO6A*%
X150738000Y-93750000D03*
%TO.P,IC302,50,PF12*%
%TO.N,unconnected-(IC302-PF12-Pad50)*%
X150738000Y-93250000D03*
%TO.P,IC302,51,VSS_3*%
%TO.N,GND*%
X150738000Y-92750000D03*
%TO.P,IC302,52,VDD_4*%
%TO.N,+3.3V*%
X150738000Y-92250000D03*
%TO.P,IC302,53,PF13*%
%TO.N,unconnected-(IC302-PF13-Pad53)*%
X150738000Y-91750000D03*
%TO.P,IC302,54,PF14*%
%TO.N,SCL4_MCU*%
X150738000Y-91250000D03*
%TO.P,IC302,55,PF15*%
%TO.N,SDA4_MCU*%
X150738000Y-90750000D03*
%TO.P,IC302,56,PG0*%
%TO.N,unconnected-(IC302-PG0-Pad56)*%
X150738000Y-90250000D03*
%TO.P,IC302,57,PG1*%
%TO.N,unconnected-(IC302-PG1-Pad57)*%
X150738000Y-89750000D03*
%TO.P,IC302,58,PE7*%
%TO.N,unconnected-(IC302-PE7-Pad58)*%
X150738000Y-89250000D03*
%TO.P,IC302,59,PE8*%
%TO.N,unconnected-(IC302-PE8-Pad59)*%
X150738000Y-88750000D03*
%TO.P,IC302,60,PE9*%
%TO.N,unconnected-(IC302-PE9-Pad60)*%
X150738000Y-88250000D03*
%TO.P,IC302,61,VSS_4*%
%TO.N,GND*%
X150738000Y-87750000D03*
%TO.P,IC302,62,VDD_5*%
%TO.N,+3.3V*%
X150738000Y-87250000D03*
%TO.P,IC302,63,PE10*%
%TO.N,unconnected-(IC302-PE10-Pad63)*%
X150738000Y-86750000D03*
%TO.P,IC302,64,PE11*%
%TO.N,GPIO4A*%
X150738000Y-86250000D03*
%TO.P,IC302,65,PE12*%
%TO.N,GPIO4B*%
X150738000Y-85750000D03*
%TO.P,IC302,66,PE13*%
%TO.N,GPIO2A*%
X150738000Y-85250000D03*
%TO.P,IC302,67,PE14*%
%TO.N,GPIO2B*%
X150738000Y-84750000D03*
%TO.P,IC302,68,PE15*%
%TO.N,unconnected-(IC302-PE15-Pad68)*%
X150738000Y-84250000D03*
%TO.P,IC302,69,PB10*%
%TO.N,GPIO5A*%
X150738000Y-83750000D03*
%TO.P,IC302,70,PB11*%
%TO.N,GPIO5B*%
X150738000Y-83250000D03*
%TO.P,IC302,71,VCAP_1*%
%TO.N,/Microcontroller/VCAP1*%
X150738000Y-82750000D03*
%TO.P,IC302,72,VDD_6*%
%TO.N,+3.3V*%
X150738000Y-82250000D03*
D48*
%TO.P,IC302,73,PB12*%
%TO.N,LEDG*%
X148750000Y-80262000D03*
%TO.P,IC302,74,PB13*%
%TO.N,LEDR*%
X148250000Y-80262000D03*
%TO.P,IC302,75,PB14*%
%TO.N,LEDB*%
X147750000Y-80262000D03*
%TO.P,IC302,76,PB15*%
%TO.N,unconnected-(IC302-PB15-Pad76)*%
X147250000Y-80262000D03*
%TO.P,IC302,77,PD8*%
%TO.N,unconnected-(IC302-PD8-Pad77)*%
X146750000Y-80262000D03*
%TO.P,IC302,78,PD9*%
%TO.N,unconnected-(IC302-PD9-Pad78)*%
X146250000Y-80262000D03*
%TO.P,IC302,79,PD10*%
%TO.N,unconnected-(IC302-PD10-Pad79)*%
X145750000Y-80262000D03*
%TO.P,IC302,80,PD11*%
%TO.N,unconnected-(IC302-PD11-Pad80)*%
X145250000Y-80262000D03*
%TO.P,IC302,81,PD12*%
%TO.N,unconnected-(IC302-PD12-Pad81)*%
X144750000Y-80262000D03*
%TO.P,IC302,82,PD13*%
%TO.N,unconnected-(IC302-PD13-Pad82)*%
X144250000Y-80262000D03*
%TO.P,IC302,83,VSS_5*%
%TO.N,GND*%
X143750000Y-80262000D03*
%TO.P,IC302,84,VDD_7*%
%TO.N,+3.3V*%
X143250000Y-80262000D03*
%TO.P,IC302,85,PD14*%
%TO.N,unconnected-(IC302-PD14-Pad85)*%
X142750000Y-80262000D03*
%TO.P,IC302,86,PD15*%
%TO.N,unconnected-(IC302-PD15-Pad86)*%
X142250000Y-80262000D03*
%TO.P,IC302,87,PG2*%
%TO.N,unconnected-(IC302-PG2-Pad87)*%
X141750000Y-80262000D03*
%TO.P,IC302,88,PG3*%
%TO.N,unconnected-(IC302-PG3-Pad88)*%
X141250000Y-80262000D03*
%TO.P,IC302,89,PG4*%
%TO.N,unconnected-(IC302-PG4-Pad89)*%
X140750000Y-80262000D03*
%TO.P,IC302,90,PG5*%
%TO.N,BTN*%
X140250000Y-80262000D03*
%TO.P,IC302,91,PG6*%
%TO.N,unconnected-(IC302-PG6-Pad91)*%
X139750000Y-80262000D03*
%TO.P,IC302,92,PG7*%
%TO.N,unconnected-(IC302-PG7-Pad92)*%
X139250000Y-80262000D03*
%TO.P,IC302,93,PG8*%
%TO.N,unconnected-(IC302-PG8-Pad93)*%
X138750000Y-80262000D03*
%TO.P,IC302,94,VSS_6*%
%TO.N,GND*%
X138250000Y-80262000D03*
%TO.P,IC302,95,VDD33USB*%
%TO.N,+3.3V*%
X137750000Y-80262000D03*
%TO.P,IC302,96,PC6*%
%TO.N,unconnected-(IC302-PC6-Pad96)*%
X137250000Y-80262000D03*
%TO.P,IC302,97,PC7*%
%TO.N,unconnected-(IC302-PC7-Pad97)*%
X136750000Y-80262000D03*
%TO.P,IC302,98,PC8*%
%TO.N,unconnected-(IC302-PC8-Pad98)*%
X136250000Y-80262000D03*
%TO.P,IC302,99,PC9*%
%TO.N,SDA3_MCU*%
X135750000Y-80262000D03*
%TO.P,IC302,100,PA8*%
%TO.N,SCL3_MCU*%
X135250000Y-80262000D03*
%TO.P,IC302,101,PA9*%
%TO.N,unconnected-(IC302-PA9-Pad101)*%
X134750000Y-80262000D03*
%TO.P,IC302,102,PA10*%
%TO.N,unconnected-(IC302-PA10-Pad102)*%
X134250000Y-80262000D03*
%TO.P,IC302,103,PA11*%
%TO.N,USB_DN*%
X133750000Y-80262000D03*
%TO.P,IC302,104,PA12*%
%TO.N,USB_DP*%
X133250000Y-80262000D03*
%TO.P,IC302,105,PA13*%
%TO.N,SWDIO*%
X132750000Y-80262000D03*
%TO.P,IC302,106,VCAP_2*%
%TO.N,/Microcontroller/VCAP2*%
X132250000Y-80262000D03*
%TO.P,IC302,107,VSS_7*%
%TO.N,GND*%
X131750000Y-80262000D03*
%TO.P,IC302,108,VDD_8*%
%TO.N,+3.3V*%
X131250000Y-80262000D03*
D49*
%TO.P,IC302,109,PA14*%
%TO.N,SWCLK*%
X129262000Y-82250000D03*
%TO.P,IC302,110,PA15*%
%TO.N,GPIO15B*%
X129262000Y-82750000D03*
%TO.P,IC302,111,PC10*%
%TO.N,GPIO15A*%
X129262000Y-83250000D03*
%TO.P,IC302,112,PC11*%
%TO.N,GPIO14B*%
X129262000Y-83750000D03*
%TO.P,IC302,113,PC12*%
%TO.N,GPIO14A*%
X129262000Y-84250000D03*
%TO.P,IC302,114,PD0*%
%TO.N,CAN_RX*%
X129262000Y-84750000D03*
%TO.P,IC302,115,PD1*%
%TO.N,CAN_TX*%
X129262000Y-85250000D03*
%TO.P,IC302,116,PD2*%
%TO.N,GPIO13B*%
X129262000Y-85750000D03*
%TO.P,IC302,117,PD3*%
%TO.N,GPIO13A*%
X129262000Y-86250000D03*
%TO.P,IC302,118,PD4*%
%TO.N,GPIO12B*%
X129262000Y-86750000D03*
%TO.P,IC302,119,PD5*%
%TO.N,GPIO12A*%
X129262000Y-87250000D03*
%TO.P,IC302,120,VSS_8*%
%TO.N,GND*%
X129262000Y-87750000D03*
%TO.P,IC302,121,VDD_9*%
%TO.N,+3.3V*%
X129262000Y-88250000D03*
%TO.P,IC302,122,PD6*%
%TO.N,unconnected-(IC302-PD6-Pad122)*%
X129262000Y-88750000D03*
%TO.P,IC302,123,PD7*%
%TO.N,unconnected-(IC302-PD7-Pad123)*%
X129262000Y-89250000D03*
%TO.P,IC302,124,PG9*%
%TO.N,unconnected-(IC302-PG9-Pad124)*%
X129262000Y-89750000D03*
%TO.P,IC302,125,PG10*%
%TO.N,unconnected-(IC302-PG10-Pad125)*%
X129262000Y-90250000D03*
%TO.P,IC302,126,PG11*%
%TO.N,unconnected-(IC302-PG11-Pad126)*%
X129262000Y-90750000D03*
%TO.P,IC302,127,PG12*%
%TO.N,unconnected-(IC302-PG12-Pad127)*%
X129262000Y-91250000D03*
%TO.P,IC302,128,PG13*%
%TO.N,unconnected-(IC302-PG13-Pad128)*%
X129262000Y-91750000D03*
%TO.P,IC302,129,PG14*%
%TO.N,unconnected-(IC302-PG14-Pad129)*%
X129262000Y-92250000D03*
%TO.P,IC302,130,VSS_9*%
%TO.N,GND*%
X129262000Y-92750000D03*
%TO.P,IC302,131,VDD_10*%
%TO.N,+3.3V*%
X129262000Y-93250000D03*
%TO.P,IC302,132,PG15*%
%TO.N,unconnected-(IC302-PG15-Pad132)*%
X129262000Y-93750000D03*
%TO.P,IC302,133,PB3*%
%TO.N,SWO*%
X129262000Y-94250000D03*
%TO.P,IC302,134,PB4*%
%TO.N,GPIO11A*%
X129262000Y-94750000D03*
%TO.P,IC302,135,PB5*%
%TO.N,GPIO10B*%
X129262000Y-95250000D03*
%TO.P,IC302,136,PB6*%
%TO.N,SCL1_MCU*%
X129262000Y-95750000D03*
%TO.P,IC302,137,PB7*%
%TO.N,SDA1_MCU*%
X129262000Y-96250000D03*
%TO.P,IC302,138,BOOT0*%
%TO.N,BOOT0*%
X129262000Y-96750000D03*
%TO.P,IC302,139,PB8*%
%TO.N,MUX1_RST*%
X129262000Y-97250000D03*
%TO.P,IC302,140,PB9*%
%TO.N,unconnected-(IC302-PB9-Pad140)*%
X129262000Y-97750000D03*
%TO.P,IC302,141,PE0*%
%TO.N,GPIO11B*%
X129262000Y-98250000D03*
%TO.P,IC302,142,PE1*%
%TO.N,GPIO10A*%
X129262000Y-98750000D03*
%TO.P,IC302,143,PDR_ON*%
%TO.N,+3.3V*%
X129262000Y-99250000D03*
%TO.P,IC302,144,VDD_11*%
X129262000Y-99750000D03*
%TD*%
D33*
%TO.P,IC201,1,VIN*%
%TO.N,VIN*%
X151500000Y-121162000D03*
%TO.P,IC201,2,SW*%
%TO.N,/Power/5V_SW*%
X151000000Y-121162000D03*
%TO.P,IC201,3,GND*%
%TO.N,GND*%
X150500000Y-121162000D03*
%TO.P,IC201,4,BST*%
%TO.N,/Power/5V_BST*%
X150500000Y-122838000D03*
%TO.P,IC201,5,EN*%
%TO.N,VIN*%
X151000000Y-122838000D03*
%TO.P,IC201,6,FB*%
%TO.N,/Power/5V_FB*%
X151500000Y-122838000D03*
%TD*%
D22*
%TO.P,C405,1*%
%TO.N,+3.3V*%
X141480000Y-122500000D03*
%TO.P,C405,2*%
%TO.N,GND*%
X140520000Y-122500000D03*
%TD*%
D11*
%TO.P,U401,1,A0*%
%TO.N,GND*%
X161938000Y-103575000D03*
%TO.P,U401,2,A1*%
X161938000Y-102925000D03*
%TO.P,U401,3,~{RESET}*%
%TO.N,MUX2_RST*%
X161938000Y-102275000D03*
%TO.P,U401,4,SD0*%
%TO.N,SDA2*%
X161938000Y-101625000D03*
%TO.P,U401,5,SC0*%
%TO.N,SCL2*%
X161938000Y-100975000D03*
%TO.P,U401,6,SD1*%
%TO.N,SDA3*%
X161938000Y-100325000D03*
%TO.P,U401,7,SC1*%
%TO.N,SCL3*%
X161938000Y-99675000D03*
%TO.P,U401,8,SD2*%
%TO.N,SDA4*%
X161938000Y-99025000D03*
%TO.P,U401,9,SC2*%
%TO.N,SCL4*%
X161938000Y-98375000D03*
%TO.P,U401,10,SD3*%
%TO.N,SDA5*%
X161938000Y-97725000D03*
%TO.P,U401,11,SC3*%
%TO.N,SCL5*%
X161938000Y-97075000D03*
%TO.P,U401,12,GND*%
%TO.N,GND*%
X161938000Y-96425000D03*
%TO.P,U401,13,SD4*%
%TO.N,SDA7*%
X156062000Y-96425000D03*
%TO.P,U401,14,SC4*%
%TO.N,SCL7*%
X156062000Y-97075000D03*
%TO.P,U401,15,SD5*%
%TO.N,SDA6*%
X156062000Y-97725000D03*
%TO.P,U401,16,SC5*%
%TO.N,SCL6*%
X156062000Y-98375000D03*
%TO.P,U401,17,SD6*%
%TO.N,SDA0*%
X156062000Y-99025000D03*
%TO.P,U401,18,SC6*%
%TO.N,SCL0*%
X156062000Y-99675000D03*
%TO.P,U401,19,SD7*%
%TO.N,SDA1*%
X156062000Y-100325000D03*
%TO.P,U401,20,SC7*%
%TO.N,SCL1*%
X156062000Y-100975000D03*
%TO.P,U401,21,A2*%
%TO.N,GND*%
X156062000Y-101625000D03*
%TO.P,U401,22,SCL*%
%TO.N,SCL4_MCU*%
X156062000Y-102275000D03*
%TO.P,U401,23,SDA*%
%TO.N,SDA4_MCU*%
X156062000Y-102925000D03*
%TO.P,U401,24,VCC*%
%TO.N,+3.3V*%
X156062000Y-103575000D03*
%TD*%
D27*
%TO.P,J408,1,Pin_1*%
%TO.N,VDDIO3*%
X112475000Y-116250000D03*
D28*
%TO.P,J408,2,Pin_2*%
%TO.N,GND*%
X112475000Y-113750000D03*
%TO.P,J408,3,Pin_3*%
%TO.N,SCL11*%
X112475000Y-111250000D03*
%TO.P,J408,4,Pin_4*%
%TO.N,SDA11*%
X112475000Y-108750000D03*
%TO.P,J408,5,Pin_5*%
%TO.N,GPIO11A*%
X112475000Y-106250000D03*
%TO.P,J408,6,Pin_6*%
%TO.N,GPIO11B*%
X112475000Y-103750000D03*
%TD*%
D21*
%TO.P,R301,1*%
%TO.N,GND*%
X148070000Y-72900000D03*
%TO.P,R301,2*%
%TO.N,/Microcontroller/LEDR_K*%
X147050000Y-72900000D03*
%TD*%
D32*
%TO.P,R315,1*%
%TO.N,+3.3V*%
X154000000Y-89500000D03*
%TO.P,R315,2*%
%TO.N,SDA4_MCU*%
X154000000Y-90520000D03*
%TD*%
D37*
%TO.P,J409,1,Pin_1*%
%TO.N,VDDIO2*%
X167525000Y-83750000D03*
D28*
%TO.P,J409,2,Pin_2*%
%TO.N,GND*%
X167525000Y-86250000D03*
%TO.P,J409,3,Pin_3*%
%TO.N,SCL4*%
X167525000Y-88750000D03*
%TO.P,J409,4,Pin_4*%
%TO.N,SDA4*%
X167525000Y-91250000D03*
%TO.P,J409,5,Pin_5*%
%TO.N,GPIO4A*%
X167525000Y-93750000D03*
%TO.P,J409,6,Pin_6*%
%TO.N,GPIO4B*%
X167525000Y-96250000D03*
%TD*%
D21*
%TO.P,R312,1*%
%TO.N,+3.3V*%
X151300000Y-62320000D03*
%TO.P,R312,2*%
%TO.N,SDA3_MCU*%
X150280000Y-62320000D03*
%TD*%
D22*
%TO.P,C303,1*%
%TO.N,NRST*%
X138480000Y-65300000D03*
%TO.P,C303,2*%
%TO.N,GND*%
X137520000Y-65300000D03*
%TD*%
D21*
%TO.P,FB301,1*%
%TO.N,/Microcontroller/VDDA*%
X145010000Y-104750000D03*
%TO.P,FB301,2*%
%TO.N,+3.3V*%
X143990000Y-104750000D03*
%TD*%
D20*
%TO.P,C321,1*%
%TO.N,+3.3V*%
X152500000Y-87020000D03*
%TO.P,C321,2*%
%TO.N,GND*%
X152500000Y-87980000D03*
%TD*%
D16*
%TO.P,R305,1*%
%TO.N,/Microcontroller/CANL*%
X148250000Y-130710000D03*
%TO.P,R305,2*%
%TO.N,/Microcontroller/CAN_SW*%
X148250000Y-129690000D03*
%TD*%
D21*
%TO.P,R303,1*%
%TO.N,GND*%
X148070000Y-75900000D03*
%TO.P,R303,2*%
%TO.N,/Microcontroller/LEDB_K*%
X147050000Y-75900000D03*
%TD*%
D20*
%TO.P,C319,1*%
%TO.N,/Microcontroller/VCAP1*%
X152500000Y-83020000D03*
%TO.P,C319,2*%
%TO.N,GND*%
X152500000Y-83980000D03*
%TD*%
D50*
%TO.P,Q201,1,D_1*%
%TO.N,VIN_RAW*%
X132825000Y-132750000D03*
%TO.P,Q201,2,D_2*%
X132825000Y-132100000D03*
D51*
%TO.P,Q201,3,G*%
%TO.N,/Power/RP_PMOS_G*%
X132750000Y-131450000D03*
%TO.P,Q201,4,S_1*%
%TO.N,VIN*%
X130950000Y-131450000D03*
D50*
%TO.P,Q201,5,D_3*%
%TO.N,VIN_RAW*%
X130875000Y-132100000D03*
%TO.P,Q201,6,D_4*%
X130875000Y-132750000D03*
D52*
%TO.P,Q201,7,S_2*%
%TO.N,VIN*%
X131850000Y-131450000D03*
D53*
%TO.P,Q201,8,D_5*%
%TO.N,VIN_RAW*%
X131850000Y-132425000D03*
%TD*%
D54*
%TO.P,SW301,1*%
%TO.N,/Microcontroller/CAN_SW*%
X144445000Y-127270000D03*
%TO.P,SW301,2*%
%TO.N,+3.3V*%
X144445000Y-124730000D03*
%TO.P,SW301,3*%
%TO.N,BOOT0*%
X135555000Y-124730000D03*
%TO.P,SW301,4*%
%TO.N,/Microcontroller/CANH*%
X135555000Y-127270000D03*
%TD*%
D29*
%TO.P,C407,1*%
%TO.N,/Sensors & connectors/MAG_C1*%
X137600000Y-117480000D03*
%TO.P,C407,2*%
%TO.N,GND*%
X137600000Y-116520000D03*
%TD*%
D35*
%TO.P,JP401,1,A*%
%TO.N,+3.3V*%
X152000000Y-126460000D03*
D36*
%TO.P,JP401,2,C*%
%TO.N,VDDIO1*%
X152000000Y-129000000D03*
%TO.P,JP401,3,B*%
%TO.N,+5V*%
X152000000Y-131540000D03*
%TD*%
D27*
%TO.P,J404,1,Pin_1*%
%TO.N,VDDIO3*%
X112475000Y-136250000D03*
D28*
%TO.P,J404,2,Pin_2*%
%TO.N,GND*%
X112475000Y-133750000D03*
%TO.P,J404,3,Pin_3*%
%TO.N,SCL10*%
X112475000Y-131250000D03*
%TO.P,J404,4,Pin_4*%
%TO.N,SDA10*%
X112475000Y-128750000D03*
%TO.P,J404,5,Pin_5*%
%TO.N,GPIO10A*%
X112475000Y-126250000D03*
%TO.P,J404,6,Pin_6*%
%TO.N,GPIO10B*%
X112475000Y-123750000D03*
%TD*%
D55*
%TO.P,U404,1,SCL/SPC*%
%TO.N,MAG_SCK*%
X139237499Y-116250000D03*
%TO.P,U404,2,GND*%
%TO.N,GND*%
X139237499Y-116750000D03*
%TO.P,U404,3,GND*%
X139237499Y-117250000D03*
%TO.P,U404,4,C1*%
%TO.N,/Sensors & connectors/MAG_C1*%
X139237499Y-117750000D03*
D56*
%TO.P,U404,5,Vdd*%
%TO.N,+3.3V*%
X139749999Y-117762500D03*
%TO.P,U404,6,Vdd_IO*%
X140249999Y-117762500D03*
D55*
%TO.P,U404,7,INT*%
%TO.N,MAG_INT*%
X140762499Y-117750000D03*
%TO.P,U404,8,DRDY*%
%TO.N,MAG_DRDY*%
X140762499Y-117250000D03*
%TO.P,U404,9,SDO/SA1*%
%TO.N,MAG_MISO*%
X140762499Y-116750000D03*
%TO.P,U404,10,~{CS}*%
%TO.N,MAG_CS*%
X140762499Y-116250000D03*
D56*
%TO.P,U404,11,SDA/SDI/SDO*%
%TO.N,MAG_MOSI*%
X140249999Y-116237500D03*
%TO.P,U404,12,GND*%
%TO.N,GND*%
X139749999Y-116237500D03*
%TD*%
D57*
%TO.P,D201,1,K*%
%TO.N,VIN*%
X131500000Y-129250000D03*
%TO.P,D201,2,A*%
%TO.N,/Power/RP_PMOS_G*%
X131500000Y-125750000D03*
%TD*%
D47*
%TO.P,S302,1,NO_1*%
%TO.N,unconnected-(S302-NO_1-Pad1)*%
X142925000Y-60575000D03*
%TO.P,S302,2,NO_2*%
%TO.N,BTN*%
X142925000Y-56425000D03*
%TO.P,S302,3,COM_1*%
%TO.N,GND*%
X145075000Y-60575000D03*
%TO.P,S302,4,COM_2*%
%TO.N,unconnected-(S302-COM_2-Pad4)*%
X145075000Y-56425000D03*
%TD*%
D58*
%TO.N,VIN*%
X129700000Y-119750000D03*
X130400000Y-119750000D03*
X125400000Y-120100000D03*
X131100000Y-119750000D03*
X130000000Y-127200000D03*
X132000000Y-127200000D03*
X126100000Y-120100000D03*
X125100000Y-120900000D03*
X125100000Y-121600000D03*
X129700000Y-120450000D03*
X132000000Y-128200000D03*
X131000000Y-128200000D03*
X131000000Y-127200000D03*
X130000000Y-128200000D03*
X154480000Y-126050000D03*
X154480000Y-125460000D03*
%TO.N,GND*%
X154000000Y-123470000D03*
X126759000Y-87742000D03*
X153250000Y-83980000D03*
X163125000Y-96425000D03*
X149700000Y-104750000D03*
X128500000Y-66750000D03*
X116900000Y-101620000D03*
X153250000Y-81010000D03*
X151375000Y-106100000D03*
X136000000Y-108750000D03*
X148785000Y-75900000D03*
X120480000Y-104075500D03*
X148785000Y-72875000D03*
X146150000Y-121520000D03*
X134200000Y-62800000D03*
X140000000Y-117000000D03*
X131700000Y-120500000D03*
X132667655Y-75752345D03*
X153260000Y-92980000D03*
X146490000Y-105380000D03*
X145070000Y-61530000D03*
X134450000Y-66750000D03*
X142400000Y-115775000D03*
X128100000Y-120900000D03*
X149970000Y-121160000D03*
X154900000Y-101625000D03*
X163100000Y-103575000D03*
X141225000Y-130000000D03*
X139720000Y-120270000D03*
X153810000Y-124760000D03*
X131336233Y-63275664D03*
X136600000Y-119050000D03*
X126760000Y-100970000D03*
X125120000Y-102930000D03*
X152270000Y-61450000D03*
X132526606Y-104168828D03*
X132950000Y-60140000D03*
X153260000Y-87980000D03*
X127800000Y-62800000D03*
X137960000Y-104070000D03*
X131500000Y-67750000D03*
X142250000Y-119770000D03*
X141500000Y-108750000D03*
X136800000Y-65300000D03*
X139200000Y-78500000D03*
X134100000Y-121500000D03*
X131700000Y-122050000D03*
X139200000Y-77490000D03*
X139510000Y-123250000D03*
X146190000Y-65310000D03*
X143300000Y-103750000D03*
X128100000Y-120200000D03*
X126760000Y-92520000D03*
X131040000Y-76640000D03*
X153260000Y-99480000D03*
X125125000Y-96425000D03*
X130150000Y-122050000D03*
X143980000Y-77750000D03*
X138410000Y-116760000D03*
X163100000Y-102925000D03*
X129010000Y-124940000D03*
X140520000Y-123240000D03*
X149100000Y-121890000D03*
X125110000Y-103580000D03*
X140070000Y-61530000D03*
X140340000Y-120270000D03*
X158480000Y-104005000D03*
X132140000Y-69810000D03*
X148785000Y-69900000D03*
X149700000Y-103750000D03*
X153250000Y-122760000D03*
X127300000Y-120200000D03*
%TO.N,+5V*%
X153550000Y-114900000D03*
X154250000Y-115600000D03*
X154250000Y-114900000D03*
X153550000Y-115600000D03*
X150100000Y-106100000D03*
%TO.N,+3.3V*%
X127507000Y-104013000D03*
X136800000Y-77500000D03*
X126759000Y-88702000D03*
X148250000Y-61560000D03*
X141500000Y-65320000D03*
X131500000Y-116000000D03*
X140100000Y-104100000D03*
X143000000Y-121460000D03*
X133490000Y-104180000D03*
X131000000Y-113500000D03*
X126750000Y-100030000D03*
X148850000Y-113890000D03*
X132500000Y-116000000D03*
X135000000Y-108750000D03*
X153240000Y-87020000D03*
X130500000Y-116000000D03*
X134500000Y-117000000D03*
X132500000Y-117000000D03*
X136600000Y-121450000D03*
X132500000Y-119000000D03*
X143140000Y-117470000D03*
X143300000Y-104750000D03*
X153240000Y-81980000D03*
X144445000Y-123045000D03*
X126750000Y-93470000D03*
X130010000Y-77740000D03*
X140000000Y-118270000D03*
X151260000Y-61450000D03*
X154760000Y-89500000D03*
X127500000Y-110000000D03*
X141470000Y-121690000D03*
X157520000Y-104005000D03*
X119500000Y-104050000D03*
X127500000Y-113500000D03*
X153240000Y-92020000D03*
X126750000Y-97500000D03*
X138900000Y-121700000D03*
X140500000Y-108750000D03*
X153260000Y-98520000D03*
X132500000Y-118000000D03*
X143020000Y-77750000D03*
X138500000Y-71184700D03*
X136810000Y-78500000D03*
%TO.N,NRST*%
X133580000Y-86010000D03*
X133360000Y-83280000D03*
%TO.N,VBUS*%
X131500000Y-65500000D03*
X133400000Y-62800000D03*
X128600000Y-62800000D03*
%TO.N,GPIO4B*%
X165000000Y-85000000D03*
X155750000Y-85000000D03*
%TO.N,IMU_CS*%
X141630000Y-103960000D03*
X143510000Y-106290000D03*
%TO.N,IMU_SCK*%
X143510000Y-107170000D03*
X139670000Y-100260000D03*
%TO.N,IMU_MISO*%
X143540000Y-108120000D03*
X140750000Y-102910000D03*
X136800000Y-115760000D03*
X138850000Y-113710000D03*
%TO.N,IMU_MOSI*%
X144480000Y-105670000D03*
X138680000Y-118790000D03*
X145590000Y-118430000D03*
X141850000Y-100260000D03*
%TO.N,MAG_CS*%
X132250000Y-100560000D03*
X131310000Y-103630000D03*
%TO.N,MAG_MISO*%
X131870000Y-104090000D03*
X132999527Y-100588060D03*
%TO.N,USB_DN*%
X131999810Y-75720190D03*
X132126446Y-63253554D03*
%TO.N,USB_DP*%
X131540190Y-76179810D03*
X130550000Y-63310000D03*
%TO.N,SWDIO*%
X132750000Y-81470000D03*
X138500000Y-72970000D03*
%TO.N,SWCLK*%
X134400000Y-81790000D03*
X134400000Y-77230000D03*
%TO.N,SWO*%
X132500000Y-86000000D03*
X132500000Y-82780000D03*
%TO.N,SCL1_MCU*%
X120646231Y-101646231D03*
X126737000Y-95500000D03*
%TO.N,SDA1_MCU*%
X120654000Y-102554000D03*
X126715000Y-96493000D03*
%TO.N,/Microcontroller/CANL*%
X150130000Y-113910000D03*
X147170000Y-125630000D03*
%TO.N,/Microcontroller/CANH*%
X151390000Y-113910000D03*
X147200000Y-128090000D03*
%TO.N,VDDIO1*%
X167500000Y-120000000D03*
X168250000Y-118250000D03*
X167500000Y-119000000D03*
%TO.N,GPIO0A*%
X156500000Y-130250000D03*
X149588643Y-98497164D03*
X150600000Y-100600000D03*
X156500000Y-127750000D03*
%TO.N,GPIO0B*%
X155750000Y-130250000D03*
X155750000Y-127750000D03*
X151879122Y-103870878D03*
X149300751Y-102615500D03*
%TO.N,GPIO2A*%
X169500000Y-83250000D03*
X168000000Y-81750000D03*
X164774500Y-83250000D03*
X155750000Y-82500000D03*
%TO.N,GPIO2B*%
X168500000Y-81250000D03*
X164774500Y-82500000D03*
X155750000Y-81750000D03*
X170000000Y-82750000D03*
%TO.N,GPIO8A*%
X128250000Y-107000000D03*
X136750000Y-100500000D03*
%TO.N,GPIO8B*%
X128250000Y-106250000D03*
X136250000Y-103000000D03*
%TO.N,GPIO10A*%
X125900000Y-101600000D03*
X116725500Y-106000000D03*
%TO.N,GPIO10B*%
X130600000Y-95500000D03*
X116201000Y-106750000D03*
%TO.N,GPIO1B*%
X149588643Y-97750000D03*
X151600000Y-100600000D03*
%TO.N,GPIO3A*%
X165625000Y-97875000D03*
X148750000Y-97000000D03*
%TO.N,GPIO3B*%
X148750000Y-96275000D03*
X166000000Y-97250000D03*
%TO.N,GPIO9A*%
X135750000Y-100500000D03*
X128250000Y-105500000D03*
%TO.N,GPIO9B*%
X134250000Y-100575998D03*
X128250000Y-104750000D03*
%TO.N,GPIO11A*%
X130900000Y-94900000D03*
X115151500Y-106750000D03*
%TO.N,GPIO11B*%
X115674000Y-105990000D03*
X125300000Y-101100000D03*
%TO.N,GPIO4A*%
X155750000Y-87500000D03*
X165000000Y-87500000D03*
%TO.N,GPIO12A*%
X114500000Y-86250000D03*
X117774500Y-86250000D03*
%TO.N,GPIO12B*%
X117274500Y-83750000D03*
X114500000Y-83750000D03*
%TO.N,GPIO14A*%
X117500000Y-69250000D03*
X115500000Y-69250000D03*
%TO.N,GPIO14B*%
X115500000Y-68250000D03*
X117500000Y-68250000D03*
%TO.N,GPIO5A*%
X155750000Y-75000000D03*
X165000000Y-75500000D03*
%TO.N,GPIO5B*%
X155750000Y-75750000D03*
X165000000Y-76250000D03*
%TO.N,MUX2_RST*%
X156550000Y-104400000D03*
X160785000Y-102275000D03*
%TO.N,IMU_INT1*%
X138120000Y-121000000D03*
X136190000Y-116920000D03*
%TO.N,IMU_INT2*%
X143510878Y-105549122D03*
X143754123Y-102905879D03*
%TO.N,MAG_INT*%
X144997164Y-100588643D03*
X143610000Y-110530000D03*
%TO.N,MAG_DRDY*%
X143570000Y-109790000D03*
X144000473Y-100588060D03*
%TO.N,BTN*%
X140250000Y-76000000D03*
X140250000Y-72750000D03*
%TO.N,SCL4_MCU*%
X154750000Y-95750000D03*
X149586843Y-91504663D03*
%TO.N,SDA4_MCU*%
X153750000Y-95750000D03*
X149586080Y-90491966D03*
%TD*%
D59*
%TO.N,+3.3V*%
X154000000Y-89500000D02*
X154760000Y-89500000D01*
D60*
%TO.N,SCL4_MCU*%
X149586843Y-91504663D02*
X149841506Y-91250000D01*
X149841506Y-91250000D02*
X150738000Y-91250000D01*
D59*
%TO.N,+3.3V*%
X152500000Y-92020000D02*
X153240000Y-92020000D01*
X153730000Y-92510000D02*
X154000000Y-92510000D01*
X153240000Y-92020000D02*
X153730000Y-92510000D01*
%TO.N,GND*%
X152500000Y-92980000D02*
X153260000Y-92980000D01*
D60*
%TO.N,SDA4_MCU*%
X153975000Y-102008148D02*
X154891851Y-102925000D01*
X154350000Y-99965686D02*
X153975000Y-100340686D01*
X153750000Y-95750000D02*
X154350000Y-96350000D01*
X154350000Y-96350000D02*
X154350000Y-99965686D01*
X154891851Y-102925000D02*
X156062000Y-102925000D01*
X153975000Y-100340686D02*
X153975000Y-102008148D01*
%TO.N,SCL4_MCU*%
X154375000Y-101842463D02*
X154807537Y-102275000D01*
X154750000Y-100750000D02*
X154375000Y-101125000D01*
X154375000Y-101125000D02*
X154375000Y-101842463D01*
X154750000Y-95750000D02*
X154750000Y-100750000D01*
X154807537Y-102275000D02*
X156062000Y-102275000D01*
D59*
%TO.N,GND*%
X161938000Y-96425000D02*
X163125000Y-96425000D01*
X161938000Y-103575000D02*
X163100000Y-103575000D01*
X161938000Y-102925000D02*
X163100000Y-102925000D01*
X156062000Y-101625000D02*
X154900000Y-101625000D01*
D60*
%TO.N,MUX2_RST*%
X160785000Y-102275000D02*
X161938000Y-102275000D01*
X153270000Y-96240000D02*
X152500000Y-96240000D01*
X153900000Y-96870000D02*
X153270000Y-96240000D01*
X153900000Y-99850000D02*
X153900000Y-96870000D01*
X156550000Y-104400000D02*
X155318625Y-104400000D01*
X153250000Y-100500000D02*
X153900000Y-99850000D01*
X155318625Y-104400000D02*
X153250000Y-102331375D01*
X153250000Y-102331375D02*
X153250000Y-100500000D01*
D59*
%TO.N,+3.3V*%
X157520000Y-104005000D02*
X157520000Y-104750000D01*
X157150000Y-103575000D02*
X156062000Y-103575000D01*
X157520000Y-104005000D02*
X157520000Y-103945000D01*
X157520000Y-103945000D02*
X157150000Y-103575000D01*
%TO.N,GND*%
X158480000Y-104005000D02*
X158480000Y-104750000D01*
%TO.N,VIN*%
X129000000Y-122450000D02*
X129500000Y-121950000D01*
D61*
X126400000Y-65650000D02*
X125840000Y-65650000D01*
X155100000Y-122325000D02*
X154000000Y-121225000D01*
X131500000Y-129250000D02*
X130020000Y-129250000D01*
X131500000Y-129250000D02*
X131500000Y-128700000D01*
X155100000Y-124680000D02*
X155100000Y-122325000D01*
X154480000Y-126050000D02*
X154480000Y-125460000D01*
X154480000Y-125300000D02*
X155100000Y-124680000D01*
X126400000Y-64920000D02*
X125820000Y-64340000D01*
X126055000Y-121170000D02*
X126000000Y-121225000D01*
D59*
X129000000Y-122838000D02*
X129000000Y-122450000D01*
X151500000Y-121900000D02*
X151000000Y-122400000D01*
X151500000Y-121162000D02*
X151500000Y-121900000D01*
D61*
X126400000Y-65650000D02*
X126400000Y-64920000D01*
X131500000Y-129250000D02*
X131500000Y-130350000D01*
X127250000Y-121170000D02*
X126055000Y-121170000D01*
D59*
X129500000Y-121950000D02*
X129500000Y-121162000D01*
D61*
X125840000Y-65650000D02*
X124950000Y-64760000D01*
X130020000Y-129250000D02*
X130000000Y-129230000D01*
X130000000Y-129230000D02*
X130000000Y-128200000D01*
X154480000Y-125460000D02*
X154480000Y-125300000D01*
D59*
X151000000Y-122400000D02*
X151000000Y-122838000D01*
D61*
X131500000Y-128700000D02*
X132000000Y-128200000D01*
D59*
%TO.N,GND*%
X127750500Y-121750500D02*
X127371000Y-122130000D01*
D62*
X140520000Y-122500000D02*
X140520000Y-123240000D01*
D59*
X151385000Y-106110000D02*
X151375000Y-106100000D01*
X131040000Y-78440000D02*
X130980000Y-78500000D01*
X139190000Y-77500000D02*
X139200000Y-77490000D01*
X127507000Y-87750000D02*
X129262000Y-87750000D01*
X125105000Y-103575000D02*
X125110000Y-103580000D01*
D62*
X138410000Y-116760000D02*
X138400000Y-116750000D01*
D59*
X144020000Y-103707035D02*
X144020000Y-103750000D01*
D61*
X153265000Y-122775000D02*
X153250000Y-122760000D01*
D59*
X135980000Y-108770000D02*
X136000000Y-108750000D01*
D62*
X138420000Y-116750000D02*
X138410000Y-116760000D01*
X140520000Y-122500000D02*
X140520000Y-121222502D01*
D59*
X132520000Y-103500000D02*
X132520000Y-104162222D01*
D62*
X136600000Y-119770000D02*
X136600000Y-119050000D01*
D59*
X128670000Y-124940000D02*
X128490000Y-124760000D01*
X138750000Y-103270000D02*
X138520000Y-103500000D01*
X128500000Y-121162000D02*
X128500000Y-121456000D01*
X145470000Y-65300000D02*
X146180000Y-65300000D01*
X116905000Y-101625000D02*
X116900000Y-101620000D01*
X134090000Y-120750000D02*
X134090000Y-121490000D01*
X123938000Y-102925000D02*
X125115000Y-102925000D01*
X152270000Y-92750000D02*
X152500000Y-92980000D01*
X141480000Y-109500000D02*
X141480000Y-108770000D01*
D62*
X137830000Y-116750000D02*
X137600000Y-116520000D01*
D59*
X123938000Y-96425000D02*
X125125000Y-96425000D01*
X146020000Y-104910000D02*
X146020000Y-104750000D01*
X144020000Y-103750000D02*
X143300000Y-103750000D01*
X153240000Y-81020000D02*
X153250000Y-81010000D01*
X143750000Y-78730000D02*
X143980000Y-78500000D01*
X152270000Y-87750000D02*
X152500000Y-87980000D01*
X150738000Y-92750000D02*
X152270000Y-92750000D01*
X152500000Y-87980000D02*
X153260000Y-87980000D01*
X146490000Y-105380000D02*
X146020000Y-104910000D01*
X143980000Y-78500000D02*
X143980000Y-77750000D01*
X144727035Y-103000000D02*
X144020000Y-103707035D01*
X123938000Y-103575000D02*
X125105000Y-103575000D01*
D61*
X154000000Y-122775000D02*
X154000000Y-123470000D01*
D59*
X140075000Y-61525000D02*
X140070000Y-61530000D01*
X152500000Y-99480000D02*
X153260000Y-99480000D01*
D62*
X139237499Y-117250000D02*
X139237499Y-116750000D01*
D59*
X146020000Y-103750000D02*
X146020000Y-104750000D01*
D62*
X139237499Y-116750000D02*
X138420000Y-116750000D01*
D59*
X120480000Y-104075500D02*
X120480000Y-104800000D01*
X145075000Y-61525000D02*
X145070000Y-61530000D01*
X151385000Y-107300000D02*
X151385000Y-106110000D01*
D61*
X149100000Y-121130000D02*
X149100000Y-121890000D01*
D59*
X145075000Y-60575000D02*
X145075000Y-61525000D01*
D61*
X126000000Y-122775000D02*
X126605000Y-122775000D01*
X154000000Y-123810000D02*
X153810000Y-124000000D01*
D59*
X125115000Y-102925000D02*
X125120000Y-102930000D01*
D61*
X149100000Y-121130000D02*
X149132000Y-121162000D01*
D59*
X118062000Y-101625000D02*
X116905000Y-101625000D01*
X138480000Y-78500000D02*
X139200000Y-78500000D01*
X146250000Y-101738000D02*
X146250000Y-103520000D01*
D60*
X133355000Y-71079283D02*
X132140000Y-69864283D01*
D59*
X128500000Y-121456000D02*
X128205500Y-121750500D01*
X149000000Y-103750000D02*
X149700000Y-103750000D01*
D60*
X133355000Y-71445000D02*
X133355000Y-71079283D01*
X128500000Y-66010000D02*
X128500000Y-66750000D01*
D61*
X149132000Y-121162000D02*
X149968000Y-121162000D01*
D59*
X150738000Y-87750000D02*
X152270000Y-87750000D01*
X129010000Y-124940000D02*
X128670000Y-124940000D01*
X152270000Y-99250000D02*
X152500000Y-99480000D01*
D62*
X140520000Y-121222502D02*
X140499998Y-121202500D01*
D59*
X131040000Y-77500000D02*
X131040000Y-76640000D01*
D62*
X139999999Y-121202500D02*
X140499998Y-121202500D01*
D61*
X149972000Y-121162000D02*
X150400000Y-121162000D01*
D59*
X152260000Y-61440000D02*
X152270000Y-61450000D01*
X140510000Y-130000000D02*
X141225000Y-130000000D01*
X142400000Y-116500000D02*
X142400000Y-115775000D01*
X127730000Y-92750000D02*
X129262000Y-92750000D01*
X134090000Y-121490000D02*
X134100000Y-121500000D01*
X145250000Y-101738000D02*
X145250000Y-102772894D01*
D61*
X153250000Y-122760000D02*
X153235000Y-122775000D01*
D59*
X127500000Y-100980000D02*
X126770000Y-100980000D01*
D62*
X138400000Y-116750000D02*
X137830000Y-116750000D01*
D59*
X136375000Y-108375000D02*
X136000000Y-108750000D01*
X149000000Y-104730000D02*
X148980000Y-104750000D01*
D61*
X149100000Y-121890000D02*
X149100000Y-122650000D01*
D59*
X127371000Y-122130000D02*
X127250000Y-122130000D01*
X146160000Y-121510000D02*
X146150000Y-121520000D01*
D61*
X127800000Y-61750000D02*
X127800000Y-62800000D01*
X149968000Y-121162000D02*
X149970000Y-121160000D01*
D59*
X146180000Y-65300000D02*
X146190000Y-65310000D01*
X152500000Y-81020000D02*
X153240000Y-81020000D01*
D62*
X139510000Y-122500000D02*
X139510000Y-123250000D01*
X143000000Y-119770000D02*
X142250000Y-119770000D01*
D61*
X153810000Y-124000000D02*
X153810000Y-124760000D01*
D59*
X143750000Y-80262000D02*
X143750000Y-78730000D01*
D61*
X131500000Y-66637500D02*
X131500000Y-67750000D01*
D59*
X148070000Y-72900000D02*
X148760000Y-72900000D01*
X140075000Y-60575000D02*
X140075000Y-61525000D01*
X138520000Y-103500000D02*
X138520000Y-103510000D01*
X146250000Y-103520000D02*
X146020000Y-103750000D01*
X148980000Y-104750000D02*
X149700000Y-104750000D01*
X135980000Y-109500000D02*
X135980000Y-108770000D01*
X141480000Y-108770000D02*
X141500000Y-108750000D01*
X127499000Y-87742000D02*
X127507000Y-87750000D01*
D60*
X134450000Y-66010000D02*
X134450000Y-66750000D01*
D61*
X154000000Y-123470000D02*
X154000000Y-123810000D01*
D62*
X139510000Y-122500000D02*
X139999999Y-122010001D01*
D59*
X149000000Y-103750000D02*
X149000000Y-104730000D01*
X138250000Y-78730000D02*
X138480000Y-78500000D01*
X152260000Y-60230000D02*
X152260000Y-61440000D01*
X126770000Y-100980000D02*
X126760000Y-100970000D01*
X127500000Y-92520000D02*
X126760000Y-92520000D01*
X145022894Y-103000000D02*
X144727035Y-103000000D01*
X132520000Y-104162222D02*
X132526606Y-104168828D01*
X127500000Y-92520000D02*
X127730000Y-92750000D01*
X131040000Y-77500000D02*
X131040000Y-78440000D01*
X152500000Y-83980000D02*
X153250000Y-83980000D01*
X146160000Y-120750000D02*
X146160000Y-121510000D01*
D61*
X153235000Y-122775000D02*
X153045000Y-122775000D01*
X126605000Y-122775000D02*
X127250000Y-122130000D01*
D59*
X136375000Y-107600000D02*
X136375000Y-108375000D01*
X148070000Y-75900000D02*
X148785000Y-75900000D01*
X128490000Y-124760000D02*
X128490000Y-124000000D01*
X148760000Y-72900000D02*
X148785000Y-72875000D01*
D61*
X149970000Y-121160000D02*
X149972000Y-121162000D01*
D59*
X138480000Y-78500000D02*
X138480000Y-77500000D01*
D62*
X139999999Y-122010001D02*
X139999999Y-121202500D01*
D59*
X131750000Y-79270000D02*
X130980000Y-78500000D01*
X150738000Y-99250000D02*
X152270000Y-99250000D01*
X141875000Y-107600000D02*
X141875000Y-108375000D01*
X145250000Y-102772894D02*
X145022894Y-103000000D01*
X128205500Y-121750500D02*
X127750500Y-121750500D01*
X131750000Y-80262000D02*
X131750000Y-79270000D01*
D61*
X153045000Y-122775000D02*
X152750000Y-122480000D01*
D60*
X132140000Y-69864283D02*
X132140000Y-69810000D01*
D59*
X138250000Y-80262000D02*
X138250000Y-78730000D01*
X127499000Y-87742000D02*
X126759000Y-87742000D01*
D62*
X143000000Y-119770000D02*
X142980000Y-119770000D01*
D59*
X148070000Y-69900000D02*
X148785000Y-69900000D01*
D61*
X134200000Y-61750000D02*
X134200000Y-62800000D01*
D59*
X138520000Y-103510000D02*
X137960000Y-104070000D01*
X141875000Y-108375000D02*
X141500000Y-108750000D01*
D61*
X154000000Y-122775000D02*
X153265000Y-122775000D01*
D59*
X138750000Y-101738000D02*
X138750000Y-103270000D01*
X138480000Y-77500000D02*
X139190000Y-77500000D01*
X137520000Y-65300000D02*
X136800000Y-65300000D01*
%TO.N,/Power/5V_BST*%
X149484106Y-124300000D02*
X149280000Y-124300000D01*
X150500000Y-122838000D02*
X150500000Y-123284106D01*
X150500000Y-123284106D02*
X149484106Y-124300000D01*
%TO.N,/Power/5V_SW*%
X151000000Y-121600000D02*
X151000000Y-121162000D01*
X148320000Y-124257035D02*
X149002035Y-123575000D01*
X149488173Y-123575000D02*
X150000000Y-123063173D01*
X148320000Y-124300000D02*
X148320000Y-124257035D01*
X150450000Y-122150000D02*
X151000000Y-121600000D01*
X148520000Y-124300000D02*
X148320000Y-124300000D01*
X150000000Y-123063173D02*
X150000000Y-122250500D01*
X150100500Y-122150000D02*
X150450000Y-122150000D01*
X150000000Y-122250500D02*
X150100500Y-122150000D01*
X149002035Y-123575000D02*
X149488173Y-123575000D01*
%TO.N,/Power/3V3_BST*%
X128500000Y-122980000D02*
X127480000Y-124000000D01*
X128500000Y-122838000D02*
X128500000Y-122980000D01*
%TO.N,/Power/3V3_SW*%
X126520000Y-123862965D02*
X126520000Y-124000000D01*
X128492394Y-122250500D02*
X128132465Y-122250500D01*
X129000000Y-121742894D02*
X128492394Y-122250500D01*
X128132465Y-122250500D02*
X126520000Y-123862965D01*
X129000000Y-121162000D02*
X129000000Y-121742894D01*
D61*
%TO.N,+5V*%
X149150000Y-118000000D02*
X148000000Y-118000000D01*
D60*
X149880000Y-124910000D02*
X147997746Y-124910000D01*
D61*
X148000000Y-118000000D02*
X147550000Y-118450000D01*
D60*
X150790000Y-124000000D02*
X149880000Y-124910000D01*
X147997746Y-124910000D02*
X147550000Y-124462254D01*
X147550000Y-124462254D02*
X147550000Y-122650000D01*
D59*
X150115000Y-107300000D02*
X150115000Y-106115000D01*
X150115000Y-106115000D02*
X150100000Y-106100000D01*
D61*
X147550000Y-118450000D02*
X147550000Y-121130000D01*
X147550000Y-121130000D02*
X147550000Y-122650000D01*
D62*
%TO.N,+3.3V*%
X139500000Y-121202500D02*
X139500000Y-121311800D01*
D59*
X152270000Y-87250000D02*
X152500000Y-87020000D01*
D62*
X141206499Y-121000001D02*
X141206499Y-121426499D01*
D59*
X148250000Y-62320000D02*
X148250000Y-61560000D01*
X137750000Y-80262000D02*
X137750000Y-78730000D01*
X150738000Y-92250000D02*
X152270000Y-92250000D01*
X133750000Y-101738000D02*
X133750000Y-103230000D01*
X133750000Y-103230000D02*
X133480000Y-103500000D01*
X148845000Y-113885000D02*
X148850000Y-113890000D01*
X139250000Y-103270000D02*
X139250000Y-101738000D01*
X143250000Y-80262000D02*
X143250000Y-78730000D01*
X131250000Y-80262000D02*
X131250000Y-79477106D01*
X133480000Y-104170000D02*
X133490000Y-104180000D01*
X152500000Y-98520000D02*
X153260000Y-98520000D01*
X152270000Y-98750000D02*
X152500000Y-98520000D01*
X139480000Y-103500000D02*
X139500000Y-103500000D01*
X135020000Y-108730000D02*
X135020000Y-106495000D01*
X141500000Y-65320000D02*
X141480000Y-65300000D01*
X150738000Y-87250000D02*
X152270000Y-87250000D01*
X151260000Y-61450000D02*
X151260000Y-62280000D01*
X137520000Y-78500000D02*
X136810000Y-78500000D01*
D60*
X143130000Y-117460000D02*
X143140000Y-117470000D01*
D59*
X139500000Y-103500000D02*
X140100000Y-104100000D01*
D62*
X144980000Y-103760000D02*
X144980000Y-103750000D01*
D59*
X133925000Y-105400000D02*
X133625000Y-105400000D01*
X126760000Y-97510000D02*
X126750000Y-97500000D01*
D62*
X140249999Y-118020001D02*
X140000000Y-118270000D01*
D59*
X135020000Y-108770000D02*
X135000000Y-108750000D01*
X145750000Y-101738000D02*
X145750000Y-102980000D01*
X150738000Y-98750000D02*
X152270000Y-98750000D01*
X152500000Y-87020000D02*
X153240000Y-87020000D01*
X130932894Y-79160000D02*
X130398517Y-79160000D01*
X152500000Y-81980000D02*
X153240000Y-81980000D01*
X152500000Y-97260000D02*
X152500000Y-98520000D01*
X129262000Y-99250000D02*
X129262000Y-99750000D01*
X140520000Y-108730000D02*
X140520000Y-106495000D01*
D62*
X141480000Y-121700000D02*
X141470000Y-121690000D01*
D59*
X130398517Y-79160000D02*
X130020000Y-78781483D01*
X143250000Y-78730000D02*
X143020000Y-78500000D01*
X143020000Y-78500000D02*
X143020000Y-77750000D01*
X126760000Y-93480000D02*
X126750000Y-93470000D01*
X127500000Y-100020000D02*
X126760000Y-100020000D01*
X140520000Y-106495000D02*
X139425000Y-105400000D01*
D60*
X143000000Y-120730000D02*
X143000000Y-121460000D01*
D59*
X130020000Y-78500000D02*
X130020000Y-77750000D01*
X119520000Y-104800000D02*
X119520000Y-104070000D01*
X119025000Y-103575000D02*
X119500000Y-104050000D01*
D62*
X140249999Y-117762500D02*
X139749999Y-117762500D01*
D59*
X140500000Y-108750000D02*
X140520000Y-108730000D01*
X151260000Y-62280000D02*
X151300000Y-62320000D01*
D62*
X143990000Y-104750000D02*
X144980000Y-103760000D01*
D59*
X127500000Y-94490000D02*
X127500000Y-93480000D01*
X132475000Y-122800000D02*
X132475000Y-123035000D01*
X127500000Y-93480000D02*
X126760000Y-93480000D01*
D60*
X136600000Y-120730000D02*
X136600000Y-121450000D01*
D62*
X140249999Y-117762500D02*
X140249999Y-118020001D01*
D59*
X137520000Y-77500000D02*
X137520000Y-78500000D01*
D62*
X141480000Y-122500000D02*
X141480000Y-121700000D01*
D59*
X139480000Y-103500000D02*
X139250000Y-103270000D01*
X128285000Y-88250000D02*
X129262000Y-88250000D01*
X145750000Y-102980000D02*
X144980000Y-103750000D01*
X141480000Y-65300000D02*
X140510000Y-65300000D01*
X127770000Y-99750000D02*
X127500000Y-100020000D01*
X152270000Y-92250000D02*
X152500000Y-92020000D01*
X129262000Y-93250000D02*
X127730000Y-93250000D01*
D60*
X142400000Y-117460000D02*
X143130000Y-117460000D01*
D59*
X141520000Y-65300000D02*
X141500000Y-65320000D01*
X131250000Y-79477106D02*
X130932894Y-79160000D01*
X119520000Y-104070000D02*
X119500000Y-104050000D01*
D62*
X139749999Y-118019999D02*
X140000000Y-118270000D01*
D59*
X140520000Y-108770000D02*
X140500000Y-108750000D01*
D62*
X143990000Y-104750000D02*
X143300000Y-104750000D01*
D59*
X130020000Y-78781483D02*
X130020000Y-78500000D01*
D62*
X139500000Y-121202500D02*
X139002500Y-121700000D01*
D59*
X137520000Y-77500000D02*
X136800000Y-77500000D01*
D62*
X139002500Y-121700000D02*
X138900000Y-121700000D01*
D59*
X135000000Y-108750000D02*
X135020000Y-108730000D01*
X130020000Y-77750000D02*
X130010000Y-77740000D01*
X126760000Y-100020000D02*
X126750000Y-100030000D01*
D60*
X127509000Y-103293000D02*
X127509000Y-104011000D01*
D59*
X142480000Y-65300000D02*
X141520000Y-65300000D01*
X152230000Y-82250000D02*
X152500000Y-81980000D01*
X140520000Y-109500000D02*
X140520000Y-108770000D01*
X129262000Y-99750000D02*
X127770000Y-99750000D01*
D62*
X141206499Y-121426499D02*
X141470000Y-121690000D01*
D59*
X127499000Y-88702000D02*
X127833000Y-88702000D01*
X135020000Y-106495000D02*
X133925000Y-105400000D01*
X118062000Y-103575000D02*
X119025000Y-103575000D01*
X132475000Y-123035000D02*
X131510000Y-124000000D01*
X127730000Y-93250000D02*
X127500000Y-93480000D01*
X127500000Y-97510000D02*
X126760000Y-97510000D01*
D62*
X144445000Y-123045000D02*
X144445000Y-124730000D01*
D59*
X148845000Y-112700000D02*
X148845000Y-113885000D01*
D60*
X127509000Y-104011000D02*
X127507000Y-104013000D01*
D59*
X137750000Y-78730000D02*
X137520000Y-78500000D01*
X127499000Y-88702000D02*
X126759000Y-88702000D01*
X135020000Y-109500000D02*
X135020000Y-108770000D01*
X150738000Y-82250000D02*
X152230000Y-82250000D01*
D62*
X139749999Y-117762500D02*
X139749999Y-118019999D01*
D59*
X139425000Y-105400000D02*
X139125000Y-105400000D01*
X151260000Y-60230000D02*
X151260000Y-61450000D01*
X133480000Y-103500000D02*
X133480000Y-104170000D01*
X136155300Y-71184700D02*
X135895000Y-71445000D01*
X138500000Y-71184700D02*
X136155300Y-71184700D01*
X127833000Y-88702000D02*
X128285000Y-88250000D01*
%TO.N,NRST*%
X138990000Y-65300000D02*
X139490000Y-65300000D01*
D60*
X143250000Y-101738000D02*
X143250000Y-95680000D01*
X128750000Y-80085686D02*
X128750000Y-77000000D01*
X131000000Y-69750000D02*
X133000000Y-67750000D01*
X135527450Y-70542550D02*
X135527450Y-68527450D01*
X134625000Y-71445000D02*
X135527450Y-70542550D01*
X138480000Y-66620000D02*
X138480000Y-65300000D01*
D59*
X138990000Y-65300000D02*
X138990000Y-57490000D01*
D60*
X137350000Y-67750000D02*
X138480000Y-66620000D01*
X133000000Y-67750000D02*
X137350000Y-67750000D01*
X131000000Y-74750000D02*
X131000000Y-69750000D01*
X128750000Y-77000000D02*
X131000000Y-74750000D01*
X131969314Y-83305000D02*
X128750000Y-80085686D01*
X143250000Y-95680000D02*
X133580000Y-86010000D01*
D59*
X138480000Y-65300000D02*
X138990000Y-65300000D01*
D60*
X133360000Y-83280000D02*
X133335000Y-83305000D01*
D59*
X138990000Y-57490000D02*
X137925000Y-56425000D01*
D60*
X133335000Y-83305000D02*
X131969314Y-83305000D01*
X135527450Y-68527450D02*
X134750000Y-67750000D01*
D59*
%TO.N,/Microcontroller/VREF+*%
X146750000Y-101738000D02*
X146750000Y-103520000D01*
X146980000Y-103750000D02*
X146980000Y-104750000D01*
X146750000Y-103520000D02*
X146980000Y-103750000D01*
%TO.N,/Microcontroller/VCAP1*%
X152230000Y-82750000D02*
X152500000Y-83020000D01*
X150738000Y-82750000D02*
X152230000Y-82750000D01*
%TO.N,/Microcontroller/VCAP2*%
X132250000Y-77750000D02*
X132000000Y-77500000D01*
X132250000Y-80262000D02*
X132250000Y-77750000D01*
D62*
%TO.N,/Sensors & connectors/MAG_C1*%
X137870000Y-117750000D02*
X139237499Y-117750000D01*
X137600000Y-117480000D02*
X137870000Y-117750000D01*
D59*
%TO.N,/Power/RP_PMOS_G*%
X138040000Y-131450000D02*
X132750000Y-131450000D01*
X132550000Y-125750000D02*
X132750000Y-125950000D01*
X139490000Y-130000000D02*
X138040000Y-131450000D01*
X132750000Y-125950000D02*
X132750000Y-131450000D01*
X131500000Y-125750000D02*
X132550000Y-125750000D01*
%TO.N,/Power/5V_LED_K*%
X145140000Y-119777500D02*
X144862500Y-119500000D01*
X145140000Y-120750000D02*
X145140000Y-119777500D01*
%TO.N,/Power/3V3_LED_K*%
X135110000Y-119777500D02*
X135387500Y-119500000D01*
X135110000Y-120750000D02*
X135110000Y-119777500D01*
%TO.N,/Microcontroller/LEDR_K*%
X146772500Y-72622500D02*
X147050000Y-72900000D01*
X146772500Y-71650000D02*
X146772500Y-72622500D01*
D60*
%TO.N,LEDR*%
X150000000Y-72250000D02*
X150000000Y-76750000D01*
X150000000Y-76750000D02*
X148250000Y-78500000D01*
X149400000Y-71650000D02*
X150000000Y-72250000D01*
X148347500Y-71650000D02*
X149400000Y-71650000D01*
X148250000Y-78500000D02*
X148250000Y-80262000D01*
D59*
%TO.N,/Microcontroller/LEDG_K*%
X146772500Y-68650000D02*
X146772500Y-69622500D01*
X146772500Y-69622500D02*
X147050000Y-69900000D01*
D60*
%TO.N,LEDG*%
X148750000Y-78750000D02*
X148750000Y-80262000D01*
X150500000Y-69250000D02*
X150500000Y-77000000D01*
X150500000Y-77000000D02*
X148750000Y-78750000D01*
X149900000Y-68650000D02*
X150500000Y-69250000D01*
X148347500Y-68650000D02*
X149900000Y-68650000D01*
D59*
%TO.N,/Microcontroller/LEDB_K*%
X146772500Y-75622500D02*
X147050000Y-75900000D01*
X146772500Y-74650000D02*
X146772500Y-75622500D01*
D60*
%TO.N,LEDB*%
X149500000Y-75000000D02*
X149500000Y-76500000D01*
X149150000Y-74650000D02*
X149500000Y-75000000D01*
X149500000Y-76500000D02*
X147750000Y-78250000D01*
X147750000Y-78250000D02*
X147750000Y-80262000D01*
X148347500Y-74650000D02*
X149150000Y-74650000D01*
D61*
%TO.N,VBUS*%
X128039949Y-63550000D02*
X128600000Y-62989949D01*
D60*
X131500000Y-64362500D02*
X131500000Y-65500000D01*
D61*
X133400000Y-61750000D02*
X133400000Y-62800000D01*
X126400000Y-63550000D02*
X128039949Y-63550000D01*
X128600000Y-62989949D02*
X128600000Y-62800000D01*
X128600000Y-61750000D02*
X128600000Y-62800000D01*
D59*
%TO.N,/Power/5V_FB*%
X151500000Y-123690000D02*
X151810000Y-124000000D01*
X151810000Y-124000000D02*
X152790000Y-124000000D01*
X151500000Y-122838000D02*
X151500000Y-123690000D01*
%TO.N,/Power/3V3_FB*%
X129500000Y-122838000D02*
X129500000Y-123990000D01*
X130490000Y-124000000D02*
X129510000Y-124000000D01*
X129500000Y-123990000D02*
X129510000Y-124000000D01*
D60*
%TO.N,OSC32K*%
X136225000Y-105400000D02*
X134750000Y-103925000D01*
X134750000Y-103925000D02*
X134750000Y-101738000D01*
X136375000Y-105400000D02*
X136225000Y-105400000D01*
D59*
%TO.N,OSC25M*%
X141875000Y-105400000D02*
X142250000Y-105025000D01*
D60*
X142250000Y-105025000D02*
X142250000Y-101738000D01*
%TO.N,GPIO4B*%
X155000000Y-85000000D02*
X155750000Y-85000000D01*
X169250000Y-85000000D02*
X165000000Y-85000000D01*
X170000000Y-93775000D02*
X170000000Y-85750000D01*
X150738000Y-85750000D02*
X154250000Y-85750000D01*
X167525000Y-96250000D02*
X170000000Y-93775000D01*
X170000000Y-85750000D02*
X169250000Y-85000000D01*
X154250000Y-85750000D02*
X155000000Y-85000000D01*
%TO.N,IMU_CS*%
X144650000Y-117915686D02*
X144650000Y-107430000D01*
X141630000Y-103960000D02*
X140920000Y-103960000D01*
X144650000Y-107430000D02*
X143510000Y-106290000D01*
X139750000Y-102790000D02*
X139750000Y-101738000D01*
X140807498Y-118990000D02*
X143575686Y-118990000D01*
X140920000Y-103960000D02*
X139750000Y-102790000D01*
X140499998Y-119297500D02*
X140807498Y-118990000D01*
X143575686Y-118990000D02*
X144650000Y-117915686D01*
%TO.N,IMU_SCK*%
X140061199Y-118795000D02*
X139999999Y-118856200D01*
X139999999Y-118856200D02*
X139999999Y-119297500D01*
X143510000Y-107170000D02*
X144140000Y-107800000D01*
X144140000Y-107800000D02*
X144140000Y-117795686D01*
X140250000Y-100840000D02*
X139670000Y-100260000D01*
X140250000Y-101738000D02*
X140250000Y-100840000D01*
X140472463Y-118540000D02*
X140217463Y-118795000D01*
X144140000Y-117795686D02*
X143395686Y-118540000D01*
X143395686Y-118540000D02*
X140472463Y-118540000D01*
X140217463Y-118795000D02*
X140061199Y-118795000D01*
%TO.N,IMU_MISO*%
X136810000Y-117700000D02*
X136810000Y-115770000D01*
X138609999Y-119499999D02*
X136810000Y-117700000D01*
X143540000Y-108120000D02*
X143540000Y-109020000D01*
X140750000Y-101738000D02*
X140750000Y-102910000D01*
X138793499Y-119499999D02*
X138609999Y-119499999D01*
X136810000Y-115770000D02*
X136800000Y-115760000D01*
X143540000Y-109020000D02*
X138850000Y-113710000D01*
%TO.N,IMU_MOSI*%
X138992500Y-118790000D02*
X138680000Y-118790000D01*
X145590000Y-118430000D02*
X145590000Y-106780000D01*
X141250000Y-101738000D02*
X141250000Y-100860000D01*
X139500000Y-119297500D02*
X138992500Y-118790000D01*
X145590000Y-106780000D02*
X144480000Y-105670000D01*
X141250000Y-100860000D02*
X141850000Y-100260000D01*
%TO.N,MAG_CS*%
X132250000Y-101738000D02*
X132250000Y-100560000D01*
X140762499Y-116250000D02*
X140762499Y-115292499D01*
X137910000Y-114830000D02*
X131310000Y-108230000D01*
X131310000Y-108230000D02*
X131310000Y-103630000D01*
X140762499Y-115292499D02*
X140300000Y-114830000D01*
X140300000Y-114830000D02*
X137910000Y-114830000D01*
%TO.N,MAG_SCK*%
X137750000Y-115940000D02*
X130110000Y-108300000D01*
X138927499Y-115940000D02*
X137750000Y-115940000D01*
X130110000Y-102878000D02*
X131250000Y-101738000D01*
X139237499Y-116250000D02*
X138927499Y-115940000D01*
X130110000Y-108300000D02*
X130110000Y-102878000D01*
X139237499Y-116250000D02*
X139222499Y-116235000D01*
%TO.N,MAG_MISO*%
X141370000Y-116604999D02*
X141370000Y-114970000D01*
X132750000Y-100837587D02*
X132999527Y-100588060D01*
X141370000Y-114970000D02*
X140780000Y-114380000D01*
X140780000Y-114380000D02*
X138137537Y-114380000D01*
X137475000Y-113717463D02*
X137475000Y-113715000D01*
X140762499Y-116750000D02*
X141224999Y-116750000D01*
X137475000Y-113715000D02*
X131870000Y-108110000D01*
X138137537Y-114380000D02*
X137475000Y-113717463D01*
X131870000Y-108110000D02*
X131870000Y-104090000D01*
X141224999Y-116750000D02*
X141370000Y-116604999D01*
X132750000Y-101738000D02*
X132750000Y-100837587D01*
%TO.N,MAG_MOSI*%
X139894999Y-115420000D02*
X137890000Y-115420000D01*
X132950000Y-102860000D02*
X133250000Y-102560000D01*
X140249999Y-116237500D02*
X140249999Y-115775000D01*
X140249999Y-115775000D02*
X139894999Y-115420000D01*
X131090000Y-102860000D02*
X132950000Y-102860000D01*
X130710000Y-108240000D02*
X130710000Y-103240000D01*
X130710000Y-103240000D02*
X131090000Y-102860000D01*
X137890000Y-115420000D02*
X130710000Y-108240000D01*
X133250000Y-102560000D02*
X133250000Y-101738000D01*
D62*
%TO.N,USB_DN*%
X133725000Y-77586801D02*
X131999810Y-75861611D01*
X133725000Y-79130749D02*
X133725000Y-77586801D01*
X133750000Y-79155749D02*
X133725000Y-79130749D01*
D59*
X131750000Y-60830000D02*
X130750000Y-60830000D01*
X132450000Y-63577107D02*
X132450000Y-64362500D01*
D62*
X131999810Y-75861611D02*
X131999810Y-75720190D01*
X133750000Y-80262000D02*
X133750000Y-79155749D01*
D59*
X131750000Y-62877107D02*
X132450000Y-63577107D01*
X130750000Y-60830000D02*
X130750000Y-61750000D01*
X131750000Y-61750000D02*
X131750000Y-60830000D01*
X131750000Y-61750000D02*
X131750000Y-62877107D01*
D62*
%TO.N,USB_DP*%
X133250000Y-79155749D02*
X133275000Y-79130749D01*
X130600000Y-62645000D02*
X130445000Y-62645000D01*
X130445000Y-62645000D02*
X130250000Y-62450000D01*
X133250000Y-80262000D02*
X133250000Y-79155749D01*
X131250000Y-62500000D02*
X131105000Y-62645000D01*
X130250000Y-62450000D02*
X130250000Y-61750000D01*
X133275000Y-77773199D02*
X131681611Y-76179810D01*
X130600000Y-62645000D02*
X130550000Y-62695000D01*
X131250000Y-61750000D02*
X131250000Y-62500000D01*
X131105000Y-62645000D02*
X130600000Y-62645000D01*
X130550000Y-64362500D02*
X130550000Y-63310000D01*
X131681611Y-76179810D02*
X131540190Y-76179810D01*
X133275000Y-79130749D02*
X133275000Y-77773199D01*
X130550000Y-62695000D02*
X130550000Y-63310000D01*
D60*
%TO.N,SWDIO*%
X132750000Y-80262000D02*
X132750000Y-81470000D01*
X136150000Y-72970000D02*
X135895000Y-72715000D01*
X138500000Y-72970000D02*
X136150000Y-72970000D01*
%TO.N,SWCLK*%
X130249500Y-82250000D02*
X129262000Y-82250000D01*
X135527450Y-76102550D02*
X135527450Y-73617450D01*
X131804500Y-83805000D02*
X130249500Y-82250000D01*
X134400000Y-81790000D02*
X134400000Y-83200000D01*
X135527450Y-73617450D02*
X134625000Y-72715000D01*
X134400000Y-83200000D02*
X133795000Y-83805000D01*
X134400000Y-77230000D02*
X135527450Y-76102550D01*
X133795000Y-83805000D02*
X131804500Y-83805000D01*
%TO.N,CAN_RX*%
X153075000Y-108725000D02*
X149225000Y-108725000D01*
X149737500Y-100262500D02*
X149737500Y-101487500D01*
X151250000Y-103000000D02*
X151250000Y-104000000D01*
X134225000Y-84750000D02*
X149737500Y-100262500D01*
X149225000Y-108725000D02*
X148845000Y-108345000D01*
X153425000Y-106175000D02*
X153425000Y-108375000D01*
X148845000Y-108345000D02*
X148845000Y-107300000D01*
X153425000Y-108375000D02*
X153075000Y-108725000D01*
X151250000Y-104000000D02*
X153425000Y-106175000D01*
X149737500Y-101487500D02*
X151250000Y-103000000D01*
X129262000Y-84750000D02*
X134225000Y-84750000D01*
%TO.N,CAN_TX*%
X150750000Y-103250000D02*
X149250000Y-101750000D01*
X149250000Y-101750000D02*
X149250000Y-100750000D01*
X150750000Y-104250000D02*
X150750000Y-103250000D01*
X152655000Y-106155000D02*
X150750000Y-104250000D01*
X152655000Y-107300000D02*
X152655000Y-106155000D01*
X149250000Y-100750000D02*
X133750000Y-85250000D01*
X133750000Y-85250000D02*
X129262000Y-85250000D01*
%TO.N,SWO*%
X133355000Y-73080717D02*
X133355000Y-72715000D01*
X132500000Y-93000000D02*
X132500000Y-86000000D01*
X132130000Y-82780000D02*
X129250000Y-79900000D01*
X132500000Y-82780000D02*
X132130000Y-82780000D01*
X129250000Y-77185717D02*
X133355000Y-73080717D01*
X131250000Y-94250000D02*
X132500000Y-93000000D01*
X129250000Y-79900000D02*
X129250000Y-77185717D01*
X129262000Y-94250000D02*
X131250000Y-94250000D01*
%TO.N,SCL1_MCU*%
X127740000Y-95750000D02*
X127500000Y-95510000D01*
X120646231Y-101646231D02*
X120017462Y-102275000D01*
X120017462Y-102275000D02*
X118062000Y-102275000D01*
X126747000Y-95510000D02*
X126737000Y-95500000D01*
X129262000Y-95750000D02*
X127740000Y-95750000D01*
X127500000Y-95510000D02*
X126747000Y-95510000D01*
%TO.N,SDA1_MCU*%
X129262000Y-96250000D02*
X127740000Y-96250000D01*
X120283000Y-102925000D02*
X118062000Y-102925000D01*
D59*
X126718000Y-96490000D02*
X126715000Y-96493000D01*
D60*
X127740000Y-96250000D02*
X127500000Y-96490000D01*
X120654000Y-102554000D02*
X120283000Y-102925000D01*
X127500000Y-96490000D02*
X126718000Y-96490000D01*
%TO.N,BOOT0*%
X137390000Y-121400000D02*
X138490000Y-122500000D01*
X130924000Y-97326315D02*
X130924000Y-100046000D01*
X135620000Y-115290000D02*
X135620000Y-117160000D01*
X130924000Y-100046000D02*
X128950000Y-102020000D01*
X129262000Y-96750000D02*
X130347686Y-96750000D01*
X137390000Y-118930000D02*
X137390000Y-121400000D01*
X135555000Y-124730000D02*
X136260000Y-124730000D01*
X128950000Y-108620000D02*
X135620000Y-115290000D01*
X135620000Y-117160000D02*
X137390000Y-118930000D01*
X136260000Y-124730000D02*
X138490000Y-122500000D01*
X128950000Y-102020000D02*
X128950000Y-108620000D01*
X130347686Y-96750000D02*
X130924000Y-97326315D01*
%TO.N,/Microcontroller/CANL*%
X149380000Y-130390000D02*
X149060000Y-130710000D01*
D59*
X150115000Y-112700000D02*
X150115000Y-113895000D01*
X150115000Y-113895000D02*
X150130000Y-113910000D01*
D60*
X147170000Y-125630000D02*
X149010000Y-125630000D01*
X149380000Y-126000000D02*
X149380000Y-130390000D01*
X150540000Y-138000000D02*
X148250000Y-135710000D01*
X148250000Y-135710000D02*
X148250000Y-130710000D01*
X149010000Y-125630000D02*
X149380000Y-126000000D01*
X149060000Y-130710000D02*
X148250000Y-130710000D01*
%TO.N,/Microcontroller/CANH*%
X135555000Y-127270000D02*
X139670000Y-127270000D01*
X139670000Y-127270000D02*
X142100000Y-129700000D01*
X145590000Y-129700000D02*
X142100000Y-129700000D01*
X142100000Y-129700000D02*
X142100000Y-136280000D01*
X147200000Y-128090000D02*
X145590000Y-129700000D01*
X142100000Y-136280000D02*
X140380000Y-138000000D01*
D59*
X151385000Y-112700000D02*
X151385000Y-113905000D01*
X151385000Y-113905000D02*
X151390000Y-113910000D01*
D60*
%TO.N,SILENT*%
X152100000Y-111000000D02*
X148400000Y-111000000D01*
X152655000Y-111555000D02*
X152100000Y-111000000D01*
X148600000Y-105700000D02*
X149631587Y-105700000D01*
X150275000Y-105056587D02*
X150275000Y-103575000D01*
X147750000Y-102725500D02*
X147750000Y-101738000D01*
X149631587Y-105700000D02*
X150275000Y-105056587D01*
X147800000Y-110400000D02*
X147800000Y-106500000D01*
X150275000Y-103575000D02*
X149840000Y-103140000D01*
X147800000Y-106500000D02*
X148600000Y-105700000D01*
X148164500Y-103140000D02*
X147750000Y-102725500D01*
X148400000Y-111000000D02*
X147800000Y-110400000D01*
X152655000Y-112700000D02*
X152655000Y-111555000D01*
X149840000Y-103140000D02*
X148164500Y-103140000D01*
%TO.N,/Microcontroller/CC1*%
X134430000Y-64970000D02*
X134450000Y-64990000D01*
X132450000Y-66637500D02*
X132802500Y-66637500D01*
X134450000Y-64750000D02*
X134450000Y-64990000D01*
X132250000Y-62550000D02*
X134450000Y-64750000D01*
X132802500Y-66637500D02*
X134450000Y-64990000D01*
X132250000Y-61750000D02*
X132250000Y-62550000D01*
%TO.N,/Microcontroller/CC2*%
X130147500Y-66637500D02*
X130550000Y-66637500D01*
X128500000Y-64990000D02*
X130147500Y-66637500D01*
X129250000Y-61750000D02*
X129250000Y-64240000D01*
X129250000Y-64240000D02*
X128500000Y-64990000D01*
D63*
%TO.N,VDDIO1*%
X167500000Y-119000000D02*
X167500000Y-123725000D01*
X168250000Y-118250000D02*
X167500000Y-119000000D01*
X167500000Y-123725000D02*
X167525000Y-123750000D01*
X152000000Y-129000000D02*
X158775000Y-129000000D01*
X158775000Y-129000000D02*
X159025000Y-128750000D01*
D60*
%TO.N,SCL0*%
X159025000Y-133750000D02*
X161500000Y-131275000D01*
X160250000Y-103250000D02*
X159750000Y-102750000D01*
X159175000Y-99675000D02*
X156062000Y-99675000D01*
X159750000Y-102750000D02*
X159750000Y-100250000D01*
X160250000Y-106000000D02*
X160250000Y-103250000D01*
X161500000Y-131275000D02*
X161500000Y-107250000D01*
X159750000Y-100250000D02*
X159175000Y-99675000D01*
X161500000Y-107250000D02*
X160250000Y-106000000D01*
%TO.N,SDA0*%
X162000000Y-107000000D02*
X160750000Y-105750000D01*
X160250000Y-102500000D02*
X160250000Y-99750000D01*
X159525000Y-99025000D02*
X156062000Y-99025000D01*
X160750000Y-105750000D02*
X160750000Y-103000000D01*
X160250000Y-99750000D02*
X159525000Y-99025000D01*
X162000000Y-133275000D02*
X162000000Y-107000000D01*
X160750000Y-103000000D02*
X160250000Y-102500000D01*
X159025000Y-136250000D02*
X162000000Y-133275000D01*
%TO.N,GPIO0A*%
X151750000Y-102200000D02*
X151750000Y-103000000D01*
X151750000Y-101750000D02*
X150600000Y-100600000D01*
X156500000Y-107750000D02*
X156500000Y-127750000D01*
X156500000Y-130250000D02*
X156500000Y-136225000D01*
X151750000Y-103000000D02*
X156500000Y-107750000D01*
X150738000Y-98250000D02*
X149835807Y-98250000D01*
X151750000Y-102200000D02*
X151750000Y-101750000D01*
X151750000Y-102000000D02*
X151750000Y-102200000D01*
X156500000Y-136225000D02*
X159025000Y-138750000D01*
X149835807Y-98250000D02*
X149588643Y-98497164D01*
%TO.N,GPIO0B*%
X156000000Y-127500000D02*
X155750000Y-127750000D01*
X148750000Y-102450000D02*
X148750000Y-101738000D01*
X156000000Y-107991756D02*
X156000000Y-127500000D01*
X149300751Y-102615500D02*
X148915500Y-102615500D01*
X148915500Y-102615500D02*
X148750000Y-102450000D01*
X151879122Y-103870878D02*
X156000000Y-107991756D01*
X155750000Y-137975000D02*
X155750000Y-130250000D01*
X159025000Y-141250000D02*
X155750000Y-137975000D01*
%TO.N,SCL2*%
X167525000Y-128750000D02*
X165000000Y-126225000D01*
X164225000Y-100975000D02*
X161938000Y-100975000D01*
X165000000Y-101750000D02*
X164225000Y-100975000D01*
X165000000Y-126225000D02*
X165000000Y-101750000D01*
%TO.N,SDA2*%
X164500000Y-128225000D02*
X164500000Y-102000000D01*
X164500000Y-102000000D02*
X164125000Y-101625000D01*
X164125000Y-101625000D02*
X161938000Y-101625000D01*
X167525000Y-131250000D02*
X164500000Y-128225000D01*
%TO.N,GPIO2A*%
X154000000Y-85250000D02*
X154750000Y-84500000D01*
X170500000Y-84250000D02*
X169500000Y-83250000D01*
X170500000Y-130775000D02*
X170500000Y-121250000D01*
X165637250Y-83250000D02*
X167137250Y-81750000D01*
X150738000Y-85250000D02*
X154000000Y-85250000D01*
X164774500Y-83250000D02*
X165637250Y-83250000D01*
X167137250Y-81750000D02*
X168000000Y-81750000D01*
X154750000Y-83500000D02*
X155750000Y-82500000D01*
X154750000Y-84500000D02*
X154750000Y-83500000D01*
X167525000Y-133750000D02*
X170500000Y-130775000D01*
X170500000Y-102500000D02*
X170500000Y-84250000D01*
X170500000Y-121250000D02*
X170500000Y-102500000D01*
%TO.N,GPIO2B*%
X153750000Y-84750000D02*
X154250000Y-84250000D01*
X171000000Y-122750000D02*
X171000000Y-102250000D01*
X167025000Y-81225000D02*
X168475000Y-81225000D01*
X154250000Y-83250000D02*
X155750000Y-81750000D01*
X171000000Y-102250000D02*
X171000000Y-83750000D01*
X165750000Y-82500000D02*
X167025000Y-81225000D01*
X150738000Y-84750000D02*
X153750000Y-84750000D01*
X154250000Y-84250000D02*
X154250000Y-83250000D01*
X164774500Y-82500000D02*
X165750000Y-82500000D01*
X168475000Y-81225000D02*
X168500000Y-81250000D01*
X171000000Y-83750000D02*
X170000000Y-82750000D01*
X171000000Y-132775000D02*
X171000000Y-122750000D01*
X167525000Y-136250000D02*
X171000000Y-132775000D01*
D63*
%TO.N,VDDIO3*%
X110500000Y-118225000D02*
X112475000Y-116250000D01*
X128000000Y-129000000D02*
X124000000Y-133000000D01*
X124000000Y-139000000D02*
X122000000Y-141000000D01*
X122000000Y-141000000D02*
X121000000Y-141000000D01*
X110500000Y-134275000D02*
X110500000Y-118225000D01*
X112475000Y-136250000D02*
X110500000Y-134275000D01*
X124000000Y-133000000D02*
X124000000Y-139000000D01*
D60*
%TO.N,SCL8*%
X118250000Y-133250000D02*
X121000000Y-136000000D01*
X120812500Y-106250000D02*
X119500000Y-106250000D01*
X121250000Y-100500000D02*
X121250000Y-105812500D01*
X121250000Y-105812500D02*
X120812500Y-106250000D01*
X119500000Y-106250000D02*
X118250000Y-107500000D01*
X123938000Y-99675000D02*
X122075000Y-99675000D01*
X118250000Y-107500000D02*
X118250000Y-133250000D01*
X122075000Y-99675000D02*
X121250000Y-100500000D01*
%TO.N,SDA8*%
X121750000Y-106000000D02*
X121000000Y-106750000D01*
X118750000Y-107750000D02*
X118750000Y-131250000D01*
X123938000Y-100325000D02*
X122425000Y-100325000D01*
X121000000Y-106750000D02*
X119750000Y-106750000D01*
X122425000Y-100325000D02*
X121750000Y-101000000D01*
X118750000Y-131250000D02*
X121000000Y-133500000D01*
X119750000Y-106750000D02*
X118750000Y-107750000D01*
X121750000Y-101000000D02*
X121750000Y-106000000D01*
%TO.N,GPIO8A*%
X121000000Y-131000000D02*
X124250000Y-127750000D01*
X136750000Y-101738000D02*
X136750000Y-100500000D01*
X124250000Y-111000000D02*
X128250000Y-107000000D01*
X124250000Y-127750000D02*
X124250000Y-111000000D01*
%TO.N,GPIO8B*%
X121000000Y-128500000D02*
X123750000Y-125750000D01*
X123750000Y-110750000D02*
X128250000Y-106250000D01*
X136250000Y-101738000D02*
X136250000Y-103000000D01*
X123750000Y-125750000D02*
X123750000Y-110750000D01*
%TO.N,SCL10*%
X116375000Y-101375000D02*
X116375000Y-103875000D01*
X118062000Y-100975000D02*
X116775000Y-100975000D01*
X117750000Y-105250000D02*
X117750000Y-125975000D01*
X116375000Y-103875000D02*
X117750000Y-105250000D01*
X116775000Y-100975000D02*
X116375000Y-101375000D01*
X117750000Y-125975000D02*
X112475000Y-131250000D01*
%TO.N,SDA10*%
X112475000Y-128750000D02*
X117250000Y-123975000D01*
X116675000Y-100325000D02*
X118062000Y-100325000D01*
X117250000Y-105500000D02*
X115750000Y-104000000D01*
X115750000Y-101250000D02*
X116675000Y-100325000D01*
X115750000Y-104000000D02*
X115750000Y-101250000D01*
X117250000Y-123975000D02*
X117250000Y-105500000D01*
%TO.N,GPIO10A*%
X116725500Y-122124500D02*
X116725500Y-106000000D01*
X125900000Y-100137537D02*
X125900000Y-101600000D01*
X112475000Y-126250000D02*
X112600000Y-126250000D01*
X129262000Y-98750000D02*
X127287537Y-98750000D01*
X127287537Y-98750000D02*
X125900000Y-100137537D01*
X112600000Y-126250000D02*
X116725500Y-122124500D01*
%TO.N,GPIO10B*%
X116201000Y-106750000D02*
X116201000Y-120149000D01*
X130350000Y-95250000D02*
X130600000Y-95500000D01*
X116201000Y-120149000D02*
X112600000Y-123750000D01*
X112600000Y-123750000D02*
X112475000Y-123750000D01*
X129262000Y-95250000D02*
X130350000Y-95250000D01*
%TO.N,SCL1*%
X159250000Y-106625000D02*
X159250000Y-103750000D01*
X159025000Y-113750000D02*
X160500000Y-112275000D01*
X160500000Y-112275000D02*
X160500000Y-107875000D01*
X160500000Y-107875000D02*
X159250000Y-106625000D01*
X158475000Y-100975000D02*
X156062000Y-100975000D01*
X158750000Y-101250000D02*
X158475000Y-100975000D01*
X158750000Y-103250000D02*
X158750000Y-101250000D01*
X159250000Y-103750000D02*
X158750000Y-103250000D01*
%TO.N,SDA1*%
X159250000Y-103000000D02*
X159250000Y-100750000D01*
X159250000Y-100750000D02*
X158825000Y-100325000D01*
X159750000Y-106250000D02*
X159750000Y-103500000D01*
X158825000Y-100325000D02*
X156062000Y-100325000D01*
X161000000Y-114275000D02*
X161000000Y-107500000D01*
X159750000Y-103500000D02*
X159250000Y-103000000D01*
X161000000Y-107500000D02*
X159750000Y-106250000D01*
X159025000Y-116250000D02*
X161000000Y-114275000D01*
%TO.N,GPIO1A*%
X152750000Y-100750000D02*
X151750000Y-99750000D01*
X152750000Y-102500000D02*
X152750000Y-100750000D01*
X151750000Y-99750000D02*
X150738000Y-99750000D01*
X157500000Y-117225000D02*
X157500000Y-107250000D01*
X159025000Y-118750000D02*
X157500000Y-117225000D01*
X157500000Y-107250000D02*
X152750000Y-102500000D01*
%TO.N,GPIO1B*%
X149588643Y-97750000D02*
X150738000Y-97750000D01*
X157000000Y-119225000D02*
X157000000Y-107500000D01*
X157000000Y-107500000D02*
X152250000Y-102750000D01*
X152250000Y-101250000D02*
X151600000Y-100600000D01*
X152250000Y-102750000D02*
X152250000Y-101250000D01*
X159025000Y-121250000D02*
X157000000Y-119225000D01*
%TO.N,SCL3*%
X161938000Y-99675000D02*
X164425000Y-99675000D01*
X166000000Y-107225000D02*
X167525000Y-108750000D01*
X166000000Y-101250000D02*
X166000000Y-107225000D01*
X164425000Y-99675000D02*
X166000000Y-101250000D01*
%TO.N,SDA3*%
X167525000Y-111250000D02*
X165500000Y-109225000D01*
X165500000Y-109225000D02*
X165500000Y-101500000D01*
X164325000Y-100325000D02*
X161938000Y-100325000D01*
X165500000Y-101500000D02*
X164325000Y-100325000D01*
%TO.N,GPIO3A*%
X150738000Y-97250000D02*
X149750000Y-97250000D01*
X149500000Y-97000000D02*
X148750000Y-97000000D01*
X169500000Y-101750000D02*
X169500000Y-111775000D01*
X149750000Y-97250000D02*
X149500000Y-97000000D01*
X165625000Y-97875000D02*
X169500000Y-101750000D01*
X169500000Y-111775000D02*
X167525000Y-113750000D01*
%TO.N,GPIO3B*%
X150738000Y-96750000D02*
X149850000Y-96750000D01*
X170000000Y-113775000D02*
X170000000Y-108500000D01*
X170000000Y-102565686D02*
X170000000Y-101250000D01*
X167525000Y-116250000D02*
X170000000Y-113775000D01*
X170000000Y-108500000D02*
X170000000Y-102565686D01*
X170000000Y-101250000D02*
X166000000Y-97250000D01*
X149375000Y-96275000D02*
X148750000Y-96275000D01*
X149850000Y-96750000D02*
X149375000Y-96275000D01*
%TO.N,SCL9*%
X121000000Y-116500000D02*
X119325000Y-114825000D01*
X122250000Y-106250000D02*
X122250000Y-101500000D01*
X122775000Y-100975000D02*
X123938000Y-100975000D01*
X119325000Y-107892157D02*
X119967157Y-107250000D01*
X122250000Y-101500000D02*
X122775000Y-100975000D01*
X121250000Y-107250000D02*
X122250000Y-106250000D01*
X119967157Y-107250000D02*
X121250000Y-107250000D01*
X119325000Y-114825000D02*
X119325000Y-107892157D01*
%TO.N,SDA9*%
X121500000Y-107750000D02*
X122750000Y-106500000D01*
X122750000Y-106500000D02*
X122750000Y-101900500D01*
X119725000Y-112725000D02*
X119725000Y-108275000D01*
X119725000Y-108275000D02*
X120250000Y-107750000D01*
X122750000Y-101900500D02*
X123025500Y-101625000D01*
X120250000Y-107750000D02*
X121500000Y-107750000D01*
X121000000Y-114000000D02*
X119725000Y-112725000D01*
X123025500Y-101625000D02*
X123938000Y-101625000D01*
%TO.N,GPIO9A*%
X121000000Y-111500000D02*
X122250000Y-111500000D01*
X135750000Y-101738000D02*
X135750000Y-100500000D01*
X122250000Y-111500000D02*
X128250000Y-105500000D01*
%TO.N,GPIO9B*%
X124000000Y-109000000D02*
X128250000Y-104750000D01*
X134250000Y-101738000D02*
X134250000Y-100575998D01*
X121000000Y-109000000D02*
X124000000Y-109000000D01*
%TO.N,SCL11*%
X114500000Y-109225000D02*
X114500000Y-101750000D01*
X112475000Y-111250000D02*
X114500000Y-109225000D01*
X114500000Y-101750000D02*
X116575000Y-99675000D01*
X116575000Y-99675000D02*
X118062000Y-99675000D01*
%TO.N,SDA11*%
X112475000Y-108750000D02*
X114000000Y-107225000D01*
X116475000Y-99025000D02*
X118062000Y-99025000D01*
X114000000Y-107225000D02*
X114000000Y-101500000D01*
X114000000Y-101500000D02*
X116475000Y-99025000D01*
%TO.N,GPIO11A*%
X114213173Y-112400000D02*
X115151500Y-111461673D01*
X115151500Y-111461673D02*
X115151500Y-106750000D01*
X130750000Y-94750000D02*
X130900000Y-94900000D01*
X111650000Y-112400000D02*
X114213173Y-112400000D01*
X111200000Y-111950000D02*
X111650000Y-112400000D01*
X112475000Y-106250000D02*
X111200000Y-107525000D01*
X129262000Y-94750000D02*
X130750000Y-94750000D01*
X111200000Y-107525000D02*
X111200000Y-111950000D01*
%TO.N,GPIO11B*%
X115676000Y-105992000D02*
X115674000Y-105990000D01*
X110750000Y-105475000D02*
X112475000Y-103750000D01*
X127221851Y-98250000D02*
X125300000Y-100171851D01*
X115676000Y-106074000D02*
X115676000Y-113812173D01*
X129262000Y-98250000D02*
X127221851Y-98250000D01*
X125300000Y-100171851D02*
X125300000Y-101100000D01*
X114488173Y-115000000D02*
X111750000Y-115000000D01*
X115676000Y-106074000D02*
X115676000Y-105992000D01*
X110750000Y-114000000D02*
X110750000Y-105475000D01*
X115676000Y-113812173D02*
X114488173Y-115000000D01*
X111750000Y-115000000D02*
X110750000Y-114000000D01*
D63*
%TO.N,VDDIO2*%
X167525000Y-63750000D02*
X167750000Y-63750000D01*
X153202081Y-71015000D02*
X156000000Y-68217081D01*
X152000000Y-71015000D02*
X153202081Y-71015000D01*
X158250000Y-58750000D02*
X159025000Y-58750000D01*
X169500000Y-65500000D02*
X169500000Y-81775000D01*
X169500000Y-81775000D02*
X167525000Y-83750000D01*
X167750000Y-63750000D02*
X169500000Y-65500000D01*
X156000000Y-68217081D02*
X156000000Y-61000000D01*
X156000000Y-61000000D02*
X158250000Y-58750000D01*
D60*
%TO.N,SCL4*%
X163375000Y-98375000D02*
X161938000Y-98375000D01*
X164750000Y-97000000D02*
X163375000Y-98375000D01*
X164750000Y-91525000D02*
X164750000Y-97000000D01*
X167525000Y-88750000D02*
X164750000Y-91525000D01*
%TO.N,SDA4*%
X163475000Y-99025000D02*
X165250000Y-97250000D01*
X161938000Y-99025000D02*
X163475000Y-99025000D01*
X165250000Y-97250000D02*
X165250000Y-93525000D01*
X165250000Y-93525000D02*
X167525000Y-91250000D01*
%TO.N,GPIO4A*%
X165000000Y-87500000D02*
X168750000Y-87500000D01*
X150738000Y-86250000D02*
X154500000Y-86250000D01*
X168750000Y-87500000D02*
X169500000Y-88250000D01*
X169500000Y-88250000D02*
X169500000Y-91775000D01*
X169500000Y-91775000D02*
X167525000Y-93750000D01*
X154500000Y-86250000D02*
X155750000Y-87500000D01*
%TO.N,SCL6*%
X156062000Y-98375000D02*
X157875000Y-98375000D01*
X162250000Y-94000000D02*
X162250000Y-66975000D01*
X157875000Y-98375000D02*
X162250000Y-94000000D01*
X162250000Y-66975000D02*
X159025000Y-63750000D01*
%TO.N,SDA6*%
X157775000Y-97725000D02*
X161750000Y-93750000D01*
X156062000Y-97725000D02*
X157775000Y-97725000D01*
X161750000Y-68975000D02*
X159025000Y-66250000D01*
X161750000Y-93750000D02*
X161750000Y-68975000D01*
%TO.N,GPIO6A*%
X156500000Y-91500000D02*
X154250000Y-93750000D01*
X159025000Y-68750000D02*
X156500000Y-71275000D01*
X154250000Y-93750000D02*
X150738000Y-93750000D01*
X156500000Y-71275000D02*
X156500000Y-91500000D01*
%TO.N,GPIO6B*%
X157000000Y-91750000D02*
X157000000Y-73275000D01*
X154500000Y-94250000D02*
X157000000Y-91750000D01*
X150738000Y-94250000D02*
X154500000Y-94250000D01*
X157000000Y-73275000D02*
X159025000Y-71250000D01*
D63*
%TO.N,VDDIO4*%
X112475000Y-76250000D02*
X110500000Y-78225000D01*
X121225000Y-71000000D02*
X120975000Y-71250000D01*
X110500000Y-94275000D02*
X112475000Y-96250000D01*
X110500000Y-78225000D02*
X110500000Y-94275000D01*
X128000000Y-71000000D02*
X121225000Y-71000000D01*
D60*
%TO.N,SCL12*%
X114250000Y-96250000D02*
X114250000Y-93025000D01*
X116375000Y-98375000D02*
X114250000Y-96250000D01*
X118062000Y-98375000D02*
X116375000Y-98375000D01*
X114250000Y-93025000D02*
X112475000Y-91250000D01*
%TO.N,SDA12*%
X118062000Y-97725000D02*
X116475000Y-97725000D01*
X114750000Y-91025000D02*
X112475000Y-88750000D01*
X116475000Y-97725000D02*
X114750000Y-96000000D01*
X114750000Y-96000000D02*
X114750000Y-91025000D01*
%TO.N,GPIO12A*%
X119024500Y-85000000D02*
X117774500Y-86250000D01*
X129262000Y-87250000D02*
X127939254Y-87250000D01*
X123912000Y-87162000D02*
X121750000Y-85000000D01*
X127939254Y-87250000D02*
X127851254Y-87162000D01*
X121750000Y-85000000D02*
X119024500Y-85000000D01*
X112475000Y-86250000D02*
X114500000Y-86250000D01*
X127851254Y-87162000D02*
X123912000Y-87162000D01*
%TO.N,GPIO12B*%
X122500000Y-83250000D02*
X121762250Y-82512250D01*
X121762250Y-82512250D02*
X118512250Y-82512250D01*
X118512250Y-82512250D02*
X117274500Y-83750000D01*
X118524500Y-82500000D02*
X118512250Y-82512250D01*
X129262000Y-86750000D02*
X124250000Y-86750000D01*
X122500000Y-85000000D02*
X122500000Y-83250000D01*
X124250000Y-86750000D02*
X122500000Y-85000000D01*
X112475000Y-83750000D02*
X114500000Y-83750000D01*
%TO.N,SCL14*%
X116575000Y-97075000D02*
X115250000Y-95750000D01*
X115250000Y-95750000D02*
X115250000Y-74025000D01*
X118062000Y-97075000D02*
X116575000Y-97075000D01*
X115250000Y-74025000D02*
X112475000Y-71250000D01*
%TO.N,SDA14*%
X115750000Y-95500000D02*
X115750000Y-72025000D01*
X116675000Y-96425000D02*
X115750000Y-95500000D01*
X115750000Y-72025000D02*
X112475000Y-68750000D01*
X118062000Y-96425000D02*
X116675000Y-96425000D01*
%TO.N,GPIO14A*%
X124750000Y-84250000D02*
X124000000Y-83500000D01*
X112500000Y-66250000D02*
X115500000Y-69250000D01*
X124000000Y-83500000D02*
X124000000Y-79250000D01*
X124000000Y-79250000D02*
X117500000Y-72750000D01*
X129262000Y-84250000D02*
X124750000Y-84250000D01*
X117500000Y-72750000D02*
X117500000Y-69250000D01*
%TO.N,GPIO14B*%
X124500000Y-83250000D02*
X125000000Y-83750000D01*
X112475000Y-63750000D02*
X115500000Y-66775000D01*
X115500000Y-66775000D02*
X115500000Y-68250000D01*
X125000000Y-83750000D02*
X129262000Y-83750000D01*
X118250000Y-72750000D02*
X124500000Y-79000000D01*
X118250000Y-69000000D02*
X118250000Y-72750000D01*
X117500000Y-68250000D02*
X118250000Y-69000000D01*
X124500000Y-79000000D02*
X124500000Y-83250000D01*
%TO.N,SCL5*%
X163217463Y-97075000D02*
X161938000Y-97075000D01*
X163750000Y-72525000D02*
X163750000Y-96542463D01*
X163750000Y-96542463D02*
X163217463Y-97075000D01*
X167525000Y-68750000D02*
X163750000Y-72525000D01*
%TO.N,SDA5*%
X164250000Y-96750000D02*
X164250000Y-74525000D01*
X164250000Y-74525000D02*
X167525000Y-71250000D01*
X161938000Y-97725000D02*
X163275000Y-97725000D01*
X163275000Y-97725000D02*
X164250000Y-96750000D01*
%TO.N,GPIO5A*%
X155750000Y-75000000D02*
X148750000Y-82000000D01*
X149250000Y-83750000D02*
X150738000Y-83750000D01*
X166750000Y-73750000D02*
X165000000Y-75500000D01*
X148750000Y-82000000D02*
X148750000Y-83250000D01*
X167525000Y-73750000D02*
X166750000Y-73750000D01*
X148750000Y-83250000D02*
X149250000Y-83750000D01*
%TO.N,GPIO5B*%
X149250000Y-82250500D02*
X149250000Y-83000000D01*
X155750000Y-75750500D02*
X149250000Y-82250500D01*
X149500000Y-83250000D02*
X150738000Y-83250000D01*
X155750000Y-75750000D02*
X155750000Y-75750500D01*
X167525000Y-76250000D02*
X165000000Y-76250000D01*
X149250000Y-83000000D02*
X149500000Y-83250000D01*
%TO.N,SCL7*%
X161250000Y-85975000D02*
X159025000Y-83750000D01*
X157675000Y-97075000D02*
X161250000Y-93500000D01*
X156062000Y-97075000D02*
X157675000Y-97075000D01*
X161250000Y-93500000D02*
X161250000Y-85975000D01*
%TO.N,SDA7*%
X160750000Y-87975000D02*
X159025000Y-86250000D01*
X156062000Y-96425000D02*
X157575000Y-96425000D01*
X157575000Y-96425000D02*
X160750000Y-93250000D01*
X160750000Y-93250000D02*
X160750000Y-87975000D01*
%TO.N,GPIO7A*%
X157540000Y-90235000D02*
X159025000Y-88750000D01*
X154750000Y-94750000D02*
X157540000Y-91960000D01*
X157540000Y-91960000D02*
X157540000Y-90235000D01*
X150738000Y-94750000D02*
X154750000Y-94750000D01*
%TO.N,GPIO7B*%
X150738000Y-95250000D02*
X150763000Y-95225000D01*
X159000000Y-91250000D02*
X159025000Y-91250000D01*
X155025000Y-95225000D02*
X159000000Y-91250000D01*
X150763000Y-95225000D02*
X155025000Y-95225000D01*
%TO.N,SCL13*%
X117750000Y-92250000D02*
X117750000Y-87250000D01*
X117750000Y-87250000D02*
X118750000Y-86250000D01*
X123938000Y-97075000D02*
X122575000Y-97075000D01*
X122575000Y-97075000D02*
X117750000Y-92250000D01*
X118750000Y-86250000D02*
X120975000Y-86250000D01*
%TO.N,SDA13*%
X117250000Y-92500000D02*
X117250000Y-84750000D01*
X123938000Y-97725000D02*
X122475000Y-97725000D01*
X118250000Y-83750000D02*
X120975000Y-83750000D01*
X117250000Y-84750000D02*
X118250000Y-83750000D01*
X122475000Y-97725000D02*
X117250000Y-92500000D01*
%TO.N,GPIO13A*%
X123000000Y-82967157D02*
X121282843Y-81250000D01*
X124500000Y-86250000D02*
X123000000Y-84750000D01*
X121282843Y-81250000D02*
X120975000Y-81250000D01*
X129262000Y-86250000D02*
X124500000Y-86250000D01*
X123000000Y-84750000D02*
X123000000Y-82967157D01*
%TO.N,GPIO13B*%
X124750000Y-85750000D02*
X123500000Y-84500000D01*
X123500000Y-84500000D02*
X123500000Y-81275000D01*
X129262000Y-85750000D02*
X124750000Y-85750000D01*
X123500000Y-81275000D02*
X120975000Y-78750000D01*
%TO.N,SCL15*%
X116750000Y-67250000D02*
X117750000Y-66250000D01*
X122312750Y-98375000D02*
X116750000Y-92812250D01*
X123938000Y-98375000D02*
X122312750Y-98375000D01*
X116750000Y-92812250D02*
X116750000Y-67250000D01*
X117750000Y-66250000D02*
X120975000Y-66250000D01*
%TO.N,SDA15*%
X117250000Y-63750000D02*
X120975000Y-63750000D01*
X116250000Y-93000000D02*
X116250000Y-64750000D01*
X123938000Y-99025000D02*
X122275000Y-99025000D01*
X116250000Y-64750000D02*
X117250000Y-63750000D01*
X122275000Y-99025000D02*
X116250000Y-93000000D01*
%TO.N,GPIO15A*%
X119811092Y-70000000D02*
X122000000Y-70000000D01*
X122000000Y-70000000D02*
X122750000Y-69250000D01*
X125000000Y-78750000D02*
X119500000Y-73250000D01*
X122750000Y-69250000D02*
X122750000Y-63025000D01*
X122750000Y-63025000D02*
X120975000Y-61250000D01*
X119500000Y-71500000D02*
X119500000Y-70311092D01*
X119500000Y-73250000D02*
X119500000Y-71500000D01*
X125000000Y-82750000D02*
X125000000Y-78750000D01*
X125500000Y-83250000D02*
X125000000Y-82750000D01*
X119500000Y-72250000D02*
X119500000Y-71500000D01*
X129262000Y-83250000D02*
X125500000Y-83250000D01*
X119500000Y-70311092D02*
X119811092Y-70000000D01*
%TO.N,GPIO15B*%
X128224500Y-81825500D02*
X128250000Y-81800000D01*
X123500000Y-61275000D02*
X120975000Y-58750000D01*
X128274500Y-82750000D02*
X128224500Y-82700000D01*
X129500000Y-70500000D02*
X128750000Y-69750000D01*
X124250000Y-69750000D02*
X123500000Y-69000000D01*
X128750000Y-69750000D02*
X124250000Y-69750000D01*
X128250000Y-81800000D02*
X128250000Y-76750000D01*
X129262000Y-82750000D02*
X128274500Y-82750000D01*
X128224500Y-82700000D02*
X128224500Y-81825500D01*
X123500000Y-69000000D02*
X123500000Y-61275000D01*
X128250000Y-76750000D02*
X129500000Y-75500000D01*
X129500000Y-75500000D02*
X129500000Y-70500000D01*
%TO.N,/Microcontroller/CAN_SW*%
X147870000Y-127270000D02*
X148250000Y-127650000D01*
X144445000Y-127270000D02*
X147870000Y-127270000D01*
X148250000Y-127650000D02*
X148250000Y-129690000D01*
%TO.N,MUX2_RST*%
X152490000Y-96250000D02*
X152500000Y-96240000D01*
X150738000Y-96250000D02*
X152490000Y-96250000D01*
%TO.N,MUX1_RST*%
X130524000Y-97492000D02*
X130524000Y-99816000D01*
X127509000Y-102273000D02*
X127507000Y-102275000D01*
X129262000Y-97250000D02*
X130282000Y-97250000D01*
X127507000Y-102275000D02*
X123938000Y-102275000D01*
X130282000Y-97250000D02*
X130524000Y-97492000D01*
X130524000Y-99816000D02*
X128067000Y-102273000D01*
X128067000Y-102273000D02*
X127509000Y-102273000D01*
%TO.N,IMU_INT1*%
X131750000Y-100840000D02*
X131750000Y-101738000D01*
X131560000Y-100650000D02*
X131750000Y-100840000D01*
X129530000Y-108420000D02*
X129530000Y-102130000D01*
X136190000Y-115080000D02*
X129530000Y-108420000D01*
X131010000Y-100650000D02*
X131560000Y-100650000D01*
X138793499Y-121000001D02*
X138120000Y-121000000D01*
X129530000Y-102130000D02*
X131010000Y-100650000D01*
X136190000Y-116920000D02*
X136190000Y-115080000D01*
%TO.N,IMU_INT2*%
X143880000Y-119273877D02*
X145140000Y-118013877D01*
X145140000Y-115010000D02*
X145140000Y-107178244D01*
X141647799Y-120500000D02*
X141850000Y-120702201D01*
X145140000Y-107178244D02*
X143510878Y-105549122D01*
X143750000Y-102901756D02*
X143754123Y-102905879D01*
X143880000Y-121340000D02*
X143880000Y-119273877D01*
X145140000Y-118013877D02*
X145140000Y-115010000D01*
X141850000Y-120702201D02*
X141850000Y-121052463D01*
X141850000Y-121052463D02*
X142782537Y-121985000D01*
X143750000Y-101738000D02*
X143750000Y-102901756D01*
X142782537Y-121985000D02*
X143235000Y-121985000D01*
X145140000Y-115010000D02*
X145140000Y-114900000D01*
X141206499Y-120500000D02*
X141647799Y-120500000D01*
X143235000Y-121985000D02*
X143880000Y-121340000D01*
%TO.N,MAG_INT*%
X144750000Y-100835807D02*
X144997164Y-100588643D01*
X144750000Y-101738000D02*
X144750000Y-100835807D01*
X141132499Y-118120000D02*
X143250000Y-118120000D01*
X143665000Y-117705000D02*
X143665000Y-113165000D01*
X140762499Y-117750000D02*
X141132499Y-118120000D01*
X143665000Y-110585000D02*
X143610000Y-110530000D01*
X143250000Y-118120000D02*
X143665000Y-117705000D01*
X143665000Y-113165000D02*
X143665000Y-110585000D01*
%TO.N,MAG_DRDY*%
X140762499Y-117250000D02*
X141290684Y-117250000D01*
X141790000Y-116750684D02*
X141790000Y-111570000D01*
X141290684Y-117250000D02*
X141790000Y-116750684D01*
X144250000Y-100837587D02*
X144000473Y-100588060D01*
X141790000Y-111570000D02*
X143570000Y-109790000D01*
X144250000Y-101738000D02*
X144250000Y-100837587D01*
D59*
%TO.N,BTN*%
X144000000Y-57500000D02*
X144000000Y-65300000D01*
D60*
X140250000Y-72750000D02*
X140250000Y-71000000D01*
D59*
X142925000Y-56425000D02*
X144000000Y-57500000D01*
X144510000Y-65300000D02*
X144000000Y-65300000D01*
X144000000Y-65300000D02*
X143500000Y-65300000D01*
D60*
X143500000Y-67750000D02*
X143500000Y-65300000D01*
X140250000Y-71000000D02*
X143500000Y-67750000D01*
X140250000Y-80262000D02*
X140250000Y-76000000D01*
D59*
%TO.N,/Microcontroller/VDDA*%
X145010000Y-105298173D02*
X145010000Y-104750000D01*
X147250000Y-101738000D02*
X147250000Y-102960000D01*
X148020000Y-105280000D02*
X147310000Y-105990000D01*
X147250000Y-102960000D02*
X148040000Y-103750000D01*
X147310000Y-105990000D02*
X145701827Y-105990000D01*
X148020000Y-104750000D02*
X148020000Y-103770000D01*
X148020000Y-103770000D02*
X148040000Y-103750000D01*
X145701827Y-105990000D02*
X145010000Y-105298173D01*
X148020000Y-104750000D02*
X148020000Y-105280000D01*
D60*
%TO.N,SCL4_MCU*%
X150738000Y-91250000D02*
X153760000Y-91250000D01*
X153760000Y-91250000D02*
X154000000Y-91490000D01*
%TO.N,SDA4_MCU*%
X150738000Y-90750000D02*
X153770000Y-90750000D01*
X150738000Y-90750000D02*
X149844114Y-90750000D01*
X149844114Y-90750000D02*
X149586080Y-90491966D01*
X153770000Y-90750000D02*
X154000000Y-90520000D01*
X154000000Y-90520000D02*
X154035894Y-90520000D01*
%TO.N,SDA3_MCU*%
X141750000Y-73500000D02*
X138410000Y-76840000D01*
X136380000Y-76840000D02*
X135750000Y-77470000D01*
X138410000Y-76840000D02*
X136380000Y-76840000D01*
X150260000Y-63250000D02*
X141750000Y-71760000D01*
X135750000Y-77470000D02*
X135750000Y-80262000D01*
X150260000Y-60230000D02*
X150260000Y-63250000D01*
X141750000Y-71760000D02*
X141750000Y-73500000D01*
%TO.N,SCL3_MCU*%
X141000000Y-73180000D02*
X141000000Y-71470000D01*
X137900000Y-76280000D02*
X141000000Y-73180000D01*
X135250000Y-80262000D02*
X135250000Y-77110000D01*
X136080000Y-76280000D02*
X137900000Y-76280000D01*
X149260000Y-63210000D02*
X149260000Y-60230000D01*
X135250000Y-77110000D02*
X136080000Y-76280000D01*
X141000000Y-71470000D02*
X149260000Y-63210000D01*
%TD*%
%TA.AperFunction,Conductor*%
%TO.N,GND*%
G36*
X128046360Y-119708311D02*
G01*
X128079400Y-119731850D01*
X128623746Y-120321558D01*
X128643203Y-120352658D01*
X128650000Y-120388708D01*
X128650000Y-120892489D01*
X128649500Y-120897566D01*
X128649500Y-121301000D01*
X128636237Y-121350500D01*
X128600000Y-121386737D01*
X128550500Y-121400000D01*
X127954500Y-121400000D01*
X127905000Y-121386737D01*
X127868763Y-121350500D01*
X127855500Y-121301000D01*
X127855500Y-121023999D01*
X127846794Y-120957874D01*
X127846794Y-120957871D01*
X127830181Y-120895871D01*
X127804656Y-120834250D01*
X127764053Y-120781334D01*
X127718666Y-120735947D01*
X127665750Y-120695344D01*
X127665749Y-120695343D01*
X127649105Y-120688449D01*
X127616992Y-120666992D01*
X127600000Y-120650000D01*
X127599999Y-120650000D01*
X127524265Y-120650000D01*
X127511343Y-120649153D01*
X127476001Y-120644500D01*
X127476000Y-120644500D01*
X126854500Y-120644500D01*
X126805000Y-120631237D01*
X126768763Y-120595000D01*
X126755500Y-120545500D01*
X126755500Y-119823999D01*
X126753910Y-119811922D01*
X126762339Y-119757161D01*
X126798870Y-119715504D01*
X126852063Y-119700000D01*
X128006654Y-119700000D01*
X128046360Y-119708311D01*
G37*
%TD.AperFunction*%
%TD*%
%TA.AperFunction,Conductor*%
%TO.N,GND*%
G36*
X131900500Y-120263263D02*
G01*
X131936737Y-120299500D01*
X131950000Y-120349000D01*
X131950000Y-120707244D01*
X131942464Y-120745129D01*
X131921005Y-120777246D01*
X131901473Y-120796778D01*
X131840280Y-120916875D01*
X131824500Y-121016512D01*
X131824500Y-121583488D01*
X131840280Y-121683124D01*
X131840280Y-121683125D01*
X131840281Y-121683126D01*
X131860466Y-121722742D01*
X131901473Y-121803221D01*
X131921005Y-121822754D01*
X131942464Y-121854871D01*
X131950000Y-121892756D01*
X131950000Y-122207244D01*
X131942464Y-122245129D01*
X131921005Y-122277246D01*
X131901473Y-122296778D01*
X131840280Y-122416875D01*
X131824500Y-122516512D01*
X131824500Y-123083491D01*
X131831146Y-123125458D01*
X131827519Y-123171536D01*
X131803369Y-123210946D01*
X131743313Y-123271003D01*
X131711195Y-123292464D01*
X131673309Y-123300000D01*
X129999000Y-123300000D01*
X129949500Y-123286737D01*
X129913263Y-123250500D01*
X129900000Y-123201000D01*
X129900000Y-121091008D01*
X129907536Y-121053122D01*
X129928996Y-121021004D01*
X130671004Y-120278996D01*
X130703122Y-120257536D01*
X130741008Y-120250000D01*
X131851000Y-120250000D01*
X131900500Y-120263263D01*
G37*
%TD.AperFunction*%
%TD*%
%TA.AperFunction,Conductor*%
%TO.N,VIN_RAW*%
G36*
X133496091Y-132009439D02*
G01*
X133536319Y-132036319D01*
X133963681Y-132463681D01*
X133990561Y-132503909D01*
X134000000Y-132551362D01*
X134000000Y-136125500D01*
X133983387Y-136187500D01*
X133938000Y-136232887D01*
X133876000Y-136249500D01*
X133868818Y-136249500D01*
X133609385Y-136288604D01*
X133358677Y-136365937D01*
X133122296Y-136479772D01*
X133052922Y-136527070D01*
X132905514Y-136627571D01*
X132713198Y-136806015D01*
X132549613Y-137011143D01*
X132418431Y-137238358D01*
X132322580Y-137482581D01*
X132264197Y-137738372D01*
X132244591Y-138000000D01*
X132264197Y-138261627D01*
X132322580Y-138517418D01*
X132418431Y-138761641D01*
X132549613Y-138988856D01*
X132713195Y-139193981D01*
X132811400Y-139285102D01*
X132843790Y-139334171D01*
X132849936Y-139392645D01*
X132828455Y-139447377D01*
X132784178Y-139486061D01*
X132727058Y-139500000D01*
X130794000Y-139500000D01*
X130732000Y-139483387D01*
X130686613Y-139438000D01*
X130670000Y-139376000D01*
X130670000Y-138500000D01*
X128544000Y-138500000D01*
X128482000Y-138483387D01*
X128436613Y-138438000D01*
X128420000Y-138376000D01*
X128420000Y-136250000D01*
X129420000Y-136250000D01*
X129420000Y-137500000D01*
X130670000Y-137500000D01*
X130670000Y-136475375D01*
X130655495Y-136402456D01*
X130600239Y-136319760D01*
X130517543Y-136264504D01*
X130444625Y-136250000D01*
X129420000Y-136250000D01*
X128420000Y-136250000D01*
X127624000Y-136250000D01*
X127562000Y-136233387D01*
X127516613Y-136188000D01*
X127500000Y-136126000D01*
X127500000Y-136051362D01*
X127509439Y-136003909D01*
X127536319Y-135963681D01*
X127536318Y-135963681D01*
X130357887Y-133142112D01*
X130405704Y-133112378D01*
X130461748Y-133106858D01*
X130514453Y-133126694D01*
X130602456Y-133185495D01*
X130675375Y-133200000D01*
X130700000Y-133200000D01*
X130700000Y-132925000D01*
X131050000Y-132925000D01*
X131050000Y-133200000D01*
X131350000Y-133200000D01*
X131350000Y-132925000D01*
X132350000Y-132925000D01*
X132350000Y-133200000D01*
X132650000Y-133200000D01*
X132650000Y-132925000D01*
X133000000Y-132925000D01*
X133000000Y-133200000D01*
X133024625Y-133200000D01*
X133097543Y-133185495D01*
X133180239Y-133130239D01*
X133235495Y-133047543D01*
X133250000Y-132974625D01*
X133250000Y-132925000D01*
X133000000Y-132925000D01*
X132650000Y-132925000D01*
X132350000Y-132925000D01*
X131350000Y-132925000D01*
X131050000Y-132925000D01*
X130700000Y-132925000D01*
X130700000Y-132800000D01*
X131000000Y-132500000D01*
X131000000Y-132275000D01*
X133000000Y-132275000D01*
X133000000Y-132575000D01*
X133250000Y-132575000D01*
X133250000Y-132525374D01*
X133234846Y-132449189D01*
X133234846Y-132400806D01*
X133250000Y-132324625D01*
X133250000Y-132275000D01*
X133000000Y-132275000D01*
X131000000Y-132275000D01*
X131000000Y-132000000D01*
X133290000Y-132000000D01*
X133448638Y-132000000D01*
X133496091Y-132009439D01*
G37*
%TD.AperFunction*%
%TD*%
%TA.AperFunction,Conductor*%
%TO.N,GND*%
G36*
X140275130Y-119725444D02*
G01*
X140275453Y-119723825D01*
X140294766Y-119727666D01*
X140294767Y-119727667D01*
X140353250Y-119739300D01*
X140646742Y-119739300D01*
X140646746Y-119739300D01*
X140647835Y-119739083D01*
X140652256Y-119739300D01*
X140656497Y-119739300D01*
X140656497Y-119739508D01*
X140695885Y-119741440D01*
X140737153Y-119766170D01*
X140761890Y-119807435D01*
X140763664Y-119843501D01*
X140764699Y-119843501D01*
X140764699Y-120146747D01*
X140780174Y-120224545D01*
X140778555Y-120224866D01*
X140786179Y-120250000D01*
X140778555Y-120275133D01*
X140780174Y-120275455D01*
X140764699Y-120353253D01*
X140764699Y-120646747D01*
X140780174Y-120724545D01*
X140778555Y-120724866D01*
X140786179Y-120749996D01*
X140778555Y-120775134D01*
X140780174Y-120775456D01*
X140776332Y-120794769D01*
X140776332Y-120794770D01*
X140771980Y-120816648D01*
X140764699Y-120853254D01*
X140764699Y-120901000D01*
X140751436Y-120950500D01*
X140715199Y-120986737D01*
X140665699Y-121000000D01*
X139920393Y-121000000D01*
X139876606Y-120989790D01*
X139841851Y-120961267D01*
X139823295Y-120920314D01*
X139815867Y-120882969D01*
X139796011Y-120853253D01*
X139771552Y-120816647D01*
X139705231Y-120772333D01*
X139646748Y-120760700D01*
X139353252Y-120760700D01*
X139353250Y-120760700D01*
X139352154Y-120760918D01*
X139347719Y-120760700D01*
X139343501Y-120760700D01*
X139343501Y-120760493D01*
X139304100Y-120758556D01*
X139262834Y-120733819D01*
X139238103Y-120692551D01*
X139236335Y-120656499D01*
X139235299Y-120656499D01*
X139235299Y-120353253D01*
X139219824Y-120275454D01*
X139221443Y-120275131D01*
X139213819Y-120249992D01*
X139221442Y-120224868D01*
X139219824Y-120224546D01*
X139235299Y-120146747D01*
X139235299Y-119843501D01*
X139236335Y-119843501D01*
X139238104Y-119807444D01*
X139262838Y-119766176D01*
X139304107Y-119741441D01*
X139343501Y-119739508D01*
X139343501Y-119739300D01*
X139347741Y-119739300D01*
X139352161Y-119739083D01*
X139353252Y-119739300D01*
X139646747Y-119739300D01*
X139646748Y-119739300D01*
X139705231Y-119727667D01*
X139705231Y-119727666D01*
X139724546Y-119723825D01*
X139724868Y-119725443D01*
X139749992Y-119717820D01*
X139775131Y-119725444D01*
X139775454Y-119723825D01*
X139794767Y-119727666D01*
X139794768Y-119727667D01*
X139853251Y-119739300D01*
X140146746Y-119739300D01*
X140146747Y-119739300D01*
X140205230Y-119727667D01*
X140205230Y-119727666D01*
X140224545Y-119723825D01*
X140224867Y-119725443D01*
X140249991Y-119717820D01*
X140275130Y-119725444D01*
G37*
%TD.AperFunction*%
%TD*%
%TA.AperFunction,Conductor*%
%TO.N,GND*%
G36*
X139824999Y-116263263D02*
G01*
X139861236Y-116299500D01*
X139874499Y-116349000D01*
X139874499Y-116444747D01*
X139886132Y-116503231D01*
X139930446Y-116569552D01*
X139974760Y-116599162D01*
X139996768Y-116613867D01*
X140055251Y-116625500D01*
X140275499Y-116625500D01*
X140324999Y-116638763D01*
X140361236Y-116675000D01*
X140374499Y-116724500D01*
X140374499Y-116944749D01*
X140381647Y-116980688D01*
X140381647Y-117019312D01*
X140374499Y-117055251D01*
X140374499Y-117275500D01*
X140361236Y-117325000D01*
X140324999Y-117361237D01*
X140275499Y-117374500D01*
X140055250Y-117374500D01*
X140019311Y-117381648D01*
X139980687Y-117381648D01*
X139944748Y-117374500D01*
X139944747Y-117374500D01*
X139555251Y-117374500D01*
X139555250Y-117374500D01*
X139519311Y-117381648D01*
X139480687Y-117381648D01*
X139444748Y-117374500D01*
X139444747Y-117374500D01*
X139349000Y-117374500D01*
X139299500Y-117361237D01*
X139263263Y-117325000D01*
X139250000Y-117275500D01*
X139250000Y-116724500D01*
X139263263Y-116675000D01*
X139299500Y-116638763D01*
X139349000Y-116625500D01*
X139444746Y-116625500D01*
X139444747Y-116625500D01*
X139503230Y-116613867D01*
X139569551Y-116569552D01*
X139613866Y-116503231D01*
X139625499Y-116444748D01*
X139625499Y-116349000D01*
X139638762Y-116299500D01*
X139674999Y-116263263D01*
X139724499Y-116250000D01*
X139775499Y-116250000D01*
X139824999Y-116263263D01*
G37*
%TD.AperFunction*%
%TD*%
%TA.AperFunction,Conductor*%
%TO.N,/Power/5V_SW*%
G36*
X153700500Y-116613263D02*
G01*
X153736737Y-116649500D01*
X153750000Y-116699000D01*
X153750000Y-120056654D01*
X153741689Y-120096360D01*
X153718150Y-120129400D01*
X153134400Y-120668246D01*
X153103300Y-120687703D01*
X153067250Y-120694500D01*
X151498999Y-120694500D01*
X151463657Y-120699153D01*
X151450735Y-120700000D01*
X151350000Y-120700000D01*
X151346179Y-120703821D01*
X151295492Y-120730913D01*
X151271770Y-120735631D01*
X151205447Y-120779947D01*
X151161133Y-120846268D01*
X151160663Y-120848630D01*
X151150930Y-120897566D01*
X151149500Y-120904753D01*
X151149500Y-121401000D01*
X151136237Y-121450500D01*
X151100000Y-121486737D01*
X151050500Y-121500000D01*
X150949500Y-121500000D01*
X150900000Y-121486737D01*
X150863763Y-121450500D01*
X150850500Y-121401000D01*
X150850500Y-121223915D01*
X150852982Y-121201887D01*
X150853144Y-121201175D01*
X150854315Y-121196046D01*
X150850777Y-121148835D01*
X150850500Y-121141437D01*
X150850500Y-120897566D01*
X150850000Y-120892489D01*
X150850000Y-117091008D01*
X150857536Y-117053122D01*
X150878996Y-117021004D01*
X151271004Y-116628996D01*
X151303122Y-116607536D01*
X151341008Y-116600000D01*
X153651000Y-116600000D01*
X153700500Y-116613263D01*
G37*
%TD.AperFunction*%
%TD*%
%TA.AperFunction,Conductor*%
%TO.N,VIN*%
G36*
X131300500Y-119513263D02*
G01*
X131336737Y-119549500D01*
X131350000Y-119599000D01*
X131350000Y-119901000D01*
X131336737Y-119950500D01*
X131300500Y-119986737D01*
X131251000Y-120000000D01*
X130550000Y-120000000D01*
X129650000Y-120900000D01*
X129650000Y-120900001D01*
X129650000Y-121251000D01*
X129636737Y-121300500D01*
X129600500Y-121336737D01*
X129551000Y-121350000D01*
X129449500Y-121350000D01*
X129400000Y-121336737D01*
X129363763Y-121300500D01*
X129350500Y-121251000D01*
X129350500Y-120897566D01*
X129350000Y-120892489D01*
X129350000Y-119599000D01*
X129363263Y-119549500D01*
X129399500Y-119513263D01*
X129449000Y-119500000D01*
X131251000Y-119500000D01*
X131300500Y-119513263D01*
G37*
%TD.AperFunction*%
%TD*%
%TA.AperFunction,Conductor*%
%TO.N,VIN*%
G36*
X130695262Y-126607817D02*
G01*
X130792517Y-126644091D01*
X130852127Y-126650500D01*
X132147872Y-126650499D01*
X132189759Y-126645996D01*
X132212247Y-126643579D01*
X132279683Y-126655333D01*
X132330606Y-126701076D01*
X132349500Y-126766869D01*
X132349500Y-130986733D01*
X132344161Y-131022727D01*
X132328603Y-131055622D01*
X132264034Y-131152259D01*
X132249500Y-131225325D01*
X132249500Y-131525500D01*
X132232887Y-131587500D01*
X132187500Y-131632887D01*
X132125500Y-131649500D01*
X131000000Y-131649500D01*
X131000000Y-127000000D01*
X130000000Y-127000000D01*
X129400000Y-127600000D01*
X129400000Y-126724000D01*
X129416613Y-126662000D01*
X129462000Y-126616613D01*
X129524000Y-126600000D01*
X130651931Y-126600000D01*
X130695262Y-126607817D01*
G37*
%TD.AperFunction*%
%TD*%
%TA.AperFunction,Conductor*%
%TO.N,VIN*%
G36*
X126438000Y-119716613D02*
G01*
X126483387Y-119762000D01*
X126500000Y-119824000D01*
X126500000Y-120700000D01*
X126700000Y-120900000D01*
X127476000Y-120900000D01*
X127538000Y-120916613D01*
X127583387Y-120962000D01*
X127600000Y-121024000D01*
X127600000Y-121301617D01*
X127586482Y-121357918D01*
X127548874Y-121401943D01*
X127548472Y-121402235D01*
X127531896Y-121412392D01*
X127512157Y-121422449D01*
X127489595Y-121445012D01*
X127470926Y-121463681D01*
X127430698Y-121490561D01*
X127383245Y-121500000D01*
X127099999Y-121500000D01*
X126982396Y-121598001D01*
X126959309Y-121613226D01*
X126847609Y-121670140D01*
X126760139Y-121757611D01*
X126749016Y-121779441D01*
X126717916Y-121818402D01*
X126534489Y-121971259D01*
X126497319Y-121992594D01*
X126455106Y-122000000D01*
X124824000Y-122000000D01*
X124762000Y-121983387D01*
X124716613Y-121938000D01*
X124700000Y-121876000D01*
X124700000Y-119824000D01*
X124716613Y-119762000D01*
X124762000Y-119716613D01*
X124824000Y-119700000D01*
X126376000Y-119700000D01*
X126438000Y-119716613D01*
G37*
%TD.AperFunction*%
%TD*%
%TA.AperFunction,Conductor*%
%TO.N,VIN*%
G36*
X124996591Y-55009939D02*
G01*
X125036819Y-55036819D01*
X125963681Y-55963681D01*
X125990561Y-56003909D01*
X126000000Y-56051362D01*
X126000000Y-56381667D01*
X125991942Y-56425637D01*
X125989860Y-56431125D01*
X125974500Y-56557629D01*
X125974500Y-57442371D01*
X125989860Y-57568874D01*
X125991942Y-57574363D01*
X126000000Y-57618333D01*
X126000000Y-60401667D01*
X125991942Y-60445637D01*
X125989860Y-60451125D01*
X125974500Y-60577629D01*
X125974500Y-61762371D01*
X125989860Y-61888874D01*
X125991942Y-61894363D01*
X126000000Y-61938333D01*
X126000000Y-63095394D01*
X125987400Y-63149855D01*
X125934780Y-63257489D01*
X125924500Y-63328054D01*
X125924500Y-63375068D01*
X125919477Y-63410003D01*
X125899500Y-63478039D01*
X125899500Y-63621960D01*
X125919478Y-63690003D01*
X125924500Y-63724934D01*
X125924500Y-63771945D01*
X125931280Y-63818481D01*
X125934780Y-63842509D01*
X125970975Y-63916546D01*
X125987401Y-63950146D01*
X126000000Y-64004606D01*
X126000000Y-64500000D01*
X126463681Y-64963681D01*
X126490561Y-65003909D01*
X126500000Y-65051362D01*
X126500000Y-65875000D01*
X125925453Y-65875000D01*
X125921495Y-65879575D01*
X125919316Y-65910769D01*
X125894078Y-65957116D01*
X125851854Y-65988770D01*
X125800290Y-66000000D01*
X125051362Y-66000000D01*
X125003909Y-65990561D01*
X124963681Y-65963681D01*
X124425000Y-65425000D01*
X125925452Y-65425000D01*
X126175000Y-65425000D01*
X126175000Y-65113998D01*
X126174999Y-65113998D01*
X126073947Y-65163399D01*
X125988401Y-65248945D01*
X125935266Y-65357635D01*
X125925452Y-65425000D01*
X124425000Y-65425000D01*
X124036319Y-65036319D01*
X124009439Y-64996091D01*
X124000000Y-64948638D01*
X124000000Y-59000001D01*
X123999999Y-58999999D01*
X123000000Y-58000000D01*
X121957809Y-58000000D01*
X121911723Y-57991118D01*
X121872240Y-57965744D01*
X121783378Y-57881014D01*
X121751257Y-57860371D01*
X121606574Y-57767387D01*
X121450609Y-57704949D01*
X121411457Y-57689275D01*
X121411456Y-57689274D01*
X121411454Y-57689274D01*
X121205086Y-57649500D01*
X121205085Y-57649500D01*
X120797575Y-57649500D01*
X120699579Y-57658857D01*
X120640779Y-57664472D01*
X120439126Y-57723683D01*
X120252315Y-57819990D01*
X120087115Y-57949907D01*
X120080792Y-57957204D01*
X120038591Y-57988795D01*
X119987080Y-58000000D01*
X118000002Y-58000000D01*
X118000000Y-58000000D01*
X117999999Y-58000000D01*
X117999998Y-58000001D01*
X112610410Y-62619648D01*
X112572733Y-62641798D01*
X112529712Y-62649500D01*
X112297575Y-62649500D01*
X112199579Y-62658857D01*
X112140779Y-62664472D01*
X111939126Y-62723683D01*
X111752315Y-62819990D01*
X111587115Y-62949906D01*
X111449479Y-63108745D01*
X111344396Y-63290754D01*
X111275655Y-63489366D01*
X111245746Y-63697396D01*
X111247069Y-63725176D01*
X111237065Y-63780193D01*
X111203907Y-63825222D01*
X111129758Y-63888778D01*
X111000000Y-64000000D01*
X111000000Y-64000001D01*
X111000000Y-76612270D01*
X110990561Y-76659723D01*
X110963681Y-76699951D01*
X110014359Y-77649271D01*
X110000728Y-77661051D01*
X109981469Y-77675389D01*
X109949633Y-77713329D01*
X109942341Y-77721289D01*
X109938408Y-77725222D01*
X109919176Y-77749545D01*
X109916902Y-77752337D01*
X109867894Y-77810744D01*
X109857418Y-77827187D01*
X109825192Y-77896294D01*
X109823622Y-77899536D01*
X109789393Y-77967692D01*
X109782996Y-77986098D01*
X109767573Y-78060788D01*
X109766793Y-78064305D01*
X109749208Y-78138505D01*
X109747229Y-78157878D01*
X109749448Y-78234131D01*
X109749500Y-78237737D01*
X109749500Y-94211294D01*
X109748191Y-94229264D01*
X109744711Y-94253023D01*
X109749028Y-94302369D01*
X109749500Y-94313176D01*
X109749500Y-94318708D01*
X109753098Y-94349496D01*
X109753464Y-94353081D01*
X109760110Y-94429041D01*
X109764329Y-94448071D01*
X109764758Y-94449251D01*
X109764759Y-94449255D01*
X109790413Y-94519742D01*
X109791582Y-94523107D01*
X109815580Y-94595524D01*
X109824075Y-94613072D01*
X109865979Y-94676784D01*
X109867889Y-94679782D01*
X109907288Y-94743656D01*
X109907952Y-94744732D01*
X109920253Y-94759830D01*
X109921168Y-94760693D01*
X109921170Y-94760696D01*
X109975708Y-94812150D01*
X109978295Y-94814663D01*
X110963681Y-95800049D01*
X110990561Y-95840277D01*
X111000000Y-95887730D01*
X111000000Y-104677955D01*
X110990561Y-104725408D01*
X110963681Y-104765636D01*
X110536955Y-105192361D01*
X110517104Y-105208483D01*
X110509332Y-105213561D01*
X110491500Y-105236471D01*
X110481765Y-105247496D01*
X110470441Y-105263357D01*
X110467392Y-105267445D01*
X110452678Y-105286351D01*
X110432891Y-105311773D01*
X110416871Y-105365582D01*
X110415309Y-105370458D01*
X110397074Y-105423577D01*
X110399394Y-105479668D01*
X110399500Y-105484792D01*
X110399500Y-113950788D01*
X110396861Y-113976234D01*
X110394957Y-113985314D01*
X110398548Y-114014123D01*
X110399458Y-114028795D01*
X110402665Y-114048013D01*
X110403403Y-114053078D01*
X110410351Y-114108809D01*
X110437081Y-114158202D01*
X110439421Y-114162747D01*
X110460802Y-114206484D01*
X110460803Y-114206485D01*
X110464084Y-114213196D01*
X110469581Y-114218256D01*
X110469582Y-114218258D01*
X110505399Y-114251230D01*
X110509097Y-114254779D01*
X110963681Y-114709363D01*
X110990561Y-114749591D01*
X111000000Y-114797044D01*
X111000000Y-116612270D01*
X110990561Y-116659723D01*
X110963681Y-116699951D01*
X110014359Y-117649271D01*
X110000728Y-117661051D01*
X109981469Y-117675389D01*
X109949633Y-117713329D01*
X109942341Y-117721289D01*
X109938408Y-117725222D01*
X109919176Y-117749545D01*
X109916902Y-117752337D01*
X109867894Y-117810744D01*
X109857418Y-117827187D01*
X109825192Y-117896294D01*
X109823622Y-117899536D01*
X109789393Y-117967692D01*
X109782996Y-117986098D01*
X109767573Y-118060788D01*
X109766793Y-118064305D01*
X109749208Y-118138505D01*
X109747229Y-118157878D01*
X109749448Y-118234131D01*
X109749500Y-118237737D01*
X109749500Y-134211294D01*
X109748191Y-134229264D01*
X109744711Y-134253023D01*
X109749028Y-134302369D01*
X109749500Y-134313176D01*
X109749500Y-134318708D01*
X109753098Y-134349496D01*
X109753464Y-134353081D01*
X109760110Y-134429041D01*
X109764329Y-134448071D01*
X109764758Y-134449251D01*
X109764759Y-134449255D01*
X109790413Y-134519742D01*
X109791582Y-134523107D01*
X109815580Y-134595524D01*
X109824075Y-134613072D01*
X109865979Y-134676784D01*
X109867889Y-134679782D01*
X109907288Y-134743656D01*
X109907952Y-134744732D01*
X109920253Y-134759830D01*
X109921168Y-134760693D01*
X109921170Y-134760696D01*
X109975708Y-134812150D01*
X109978295Y-134814663D01*
X111213181Y-136049549D01*
X111240061Y-136089777D01*
X111249500Y-136137230D01*
X111249500Y-136897869D01*
X111255909Y-136957484D01*
X111265282Y-136982613D01*
X111306204Y-137092331D01*
X111392454Y-137207546D01*
X111507669Y-137293796D01*
X111642517Y-137344091D01*
X111702127Y-137350500D01*
X113247872Y-137350499D01*
X113281554Y-137346878D01*
X113336060Y-137353231D01*
X113382487Y-137382487D01*
X117000000Y-141000000D01*
X119650501Y-141000000D01*
X119712501Y-141016613D01*
X119757888Y-141062000D01*
X119774500Y-141123998D01*
X119774501Y-141647872D01*
X119777443Y-141675237D01*
X119780909Y-141707484D01*
X119806056Y-141774907D01*
X119831204Y-141842331D01*
X119917454Y-141957546D01*
X120032669Y-142043796D01*
X120167517Y-142094091D01*
X120227127Y-142100500D01*
X121772872Y-142100499D01*
X121832483Y-142094091D01*
X121967331Y-142043796D01*
X122082546Y-141957546D01*
X122168796Y-141842331D01*
X122193834Y-141775197D01*
X122223973Y-141729242D01*
X122271008Y-141700827D01*
X122319334Y-141684814D01*
X122319337Y-141684811D01*
X122320541Y-141684413D01*
X122338063Y-141675929D01*
X122339112Y-141675238D01*
X122339117Y-141675237D01*
X122401806Y-141634005D01*
X122404798Y-141632099D01*
X122468656Y-141592712D01*
X122468656Y-141592711D01*
X122469729Y-141592050D01*
X122484824Y-141579753D01*
X122485692Y-141578832D01*
X122485696Y-141578830D01*
X122537185Y-141524253D01*
X122539631Y-141521735D01*
X124485638Y-139575727D01*
X124499256Y-139563957D01*
X124518530Y-139549610D01*
X124550382Y-139511649D01*
X124557668Y-139503697D01*
X124561590Y-139499777D01*
X124580863Y-139475399D01*
X124583030Y-139472739D01*
X124631302Y-139415214D01*
X124631303Y-139415210D01*
X124632118Y-139414240D01*
X124642573Y-139397827D01*
X124643106Y-139396682D01*
X124643111Y-139396677D01*
X124674833Y-139328646D01*
X124676362Y-139325488D01*
X124710040Y-139258433D01*
X124710040Y-139258432D01*
X124710612Y-139257294D01*
X124717000Y-139238914D01*
X124717255Y-139237675D01*
X124717257Y-139237673D01*
X124732433Y-139164168D01*
X124733194Y-139160734D01*
X124750500Y-139087721D01*
X124750500Y-139087718D01*
X124750790Y-139086494D01*
X124752769Y-139067123D01*
X124752732Y-139065859D01*
X124752733Y-139065856D01*
X124750552Y-138990889D01*
X124750500Y-138987284D01*
X124750500Y-133362230D01*
X124759939Y-133314777D01*
X124786819Y-133274549D01*
X125099922Y-132961446D01*
X126690084Y-131371282D01*
X126741629Y-131340346D01*
X126801672Y-131337292D01*
X126856093Y-131362839D01*
X126892102Y-131410982D01*
X126901233Y-131470405D01*
X126894785Y-131539998D01*
X126913602Y-131743083D01*
X126969418Y-131939251D01*
X127060324Y-132121818D01*
X127183236Y-132284580D01*
X127333958Y-132421981D01*
X127507361Y-132529347D01*
X127507363Y-132529348D01*
X127697544Y-132603024D01*
X127898024Y-132640500D01*
X128101974Y-132640500D01*
X128101976Y-132640500D01*
X128302456Y-132603024D01*
X128492637Y-132529348D01*
X128666041Y-132421981D01*
X128816764Y-132284579D01*
X128939673Y-132121821D01*
X128939673Y-132121819D01*
X128939675Y-132121818D01*
X129008990Y-131982613D01*
X129030582Y-131939250D01*
X129086397Y-131743083D01*
X129105215Y-131540000D01*
X129086397Y-131336917D01*
X129076633Y-131302602D01*
X129061666Y-131250000D01*
X130450000Y-131250000D01*
X130750000Y-131250000D01*
X130750000Y-131000000D01*
X130675375Y-131000000D01*
X130602456Y-131014504D01*
X130519760Y-131069760D01*
X130464504Y-131152456D01*
X130450000Y-131225375D01*
X130450000Y-131250000D01*
X129061666Y-131250000D01*
X129035299Y-131157330D01*
X129030582Y-131140750D01*
X129006641Y-131092670D01*
X128939675Y-130958181D01*
X128816763Y-130795419D01*
X128666041Y-130658018D01*
X128492638Y-130550652D01*
X128302457Y-130476976D01*
X128235629Y-130464483D01*
X128101976Y-130439500D01*
X127921229Y-130439500D01*
X127864934Y-130425985D01*
X127820911Y-130388385D01*
X127798756Y-130334898D01*
X127803298Y-130277182D01*
X127833548Y-130227819D01*
X127924548Y-130136819D01*
X127964776Y-130109939D01*
X128012229Y-130100500D01*
X128101974Y-130100500D01*
X128101976Y-130100500D01*
X128302456Y-130063024D01*
X128492637Y-129989348D01*
X128666041Y-129881981D01*
X128781950Y-129776316D01*
X128816763Y-129744580D01*
X128825800Y-129732613D01*
X128939673Y-129581821D01*
X128939673Y-129581819D01*
X128939675Y-129581818D01*
X129015265Y-129430011D01*
X129030582Y-129399250D01*
X129086397Y-129203083D01*
X129105215Y-129000000D01*
X129086397Y-128796917D01*
X129030582Y-128600750D01*
X129026559Y-128592670D01*
X128939675Y-128418181D01*
X128850732Y-128300402D01*
X128827461Y-128246580D01*
X128831521Y-128188084D01*
X128862003Y-128137996D01*
X130000000Y-127000000D01*
X131000000Y-127000000D01*
X131000000Y-128350000D01*
X130852176Y-128350000D01*
X130792624Y-128356402D01*
X130657910Y-128406647D01*
X130542811Y-128492811D01*
X130456647Y-128607910D01*
X130406402Y-128742624D01*
X130400000Y-128802176D01*
X130400000Y-129000000D01*
X131000000Y-129000000D01*
X131000000Y-129500000D01*
X130400000Y-129500000D01*
X130400000Y-129697824D01*
X130406402Y-129757375D01*
X130456647Y-129892089D01*
X130542811Y-130007188D01*
X130657910Y-130093352D01*
X130792624Y-130143597D01*
X130852176Y-130150000D01*
X131000000Y-130150000D01*
X131000000Y-131649500D01*
X130665678Y-131649500D01*
X130660601Y-131650000D01*
X130450000Y-131650000D01*
X130450000Y-131674621D01*
X130464899Y-131749526D01*
X130464899Y-131797907D01*
X130449500Y-131875327D01*
X130449500Y-132324675D01*
X130464644Y-132400807D01*
X130464644Y-132449191D01*
X130450587Y-132519859D01*
X130438328Y-132554120D01*
X130416651Y-132583348D01*
X127000000Y-135999999D01*
X127000000Y-143948638D01*
X126990561Y-143996091D01*
X126963681Y-144036319D01*
X126036819Y-144963181D01*
X125996591Y-144990061D01*
X125949138Y-144999500D01*
X112353296Y-144999500D01*
X112288506Y-144981227D01*
X112242811Y-144931795D01*
X112229678Y-144865771D01*
X112252978Y-144802614D01*
X112305844Y-144760939D01*
X112325648Y-144752736D01*
X112625521Y-144587002D01*
X112904953Y-144388735D01*
X112904955Y-144388732D01*
X112904958Y-144388731D01*
X112955607Y-144343466D01*
X113160428Y-144160428D01*
X113388735Y-143904953D01*
X113587002Y-143625521D01*
X113752736Y-143325648D01*
X113883853Y-143009104D01*
X113978704Y-142679870D01*
X114036096Y-142342086D01*
X114055307Y-142000000D01*
X114036096Y-141657914D01*
X113978704Y-141320130D01*
X113883853Y-140990896D01*
X113752736Y-140674352D01*
X113587002Y-140374479D01*
X113388735Y-140095047D01*
X113388731Y-140095041D01*
X113257086Y-139947732D01*
X113160428Y-139839572D01*
X113038020Y-139730181D01*
X112904958Y-139611268D01*
X112747825Y-139499777D01*
X112625521Y-139412998D01*
X112325648Y-139247264D01*
X112325646Y-139247263D01*
X112009106Y-139116147D01*
X111679867Y-139021295D01*
X111342086Y-138963904D01*
X111259106Y-138959244D01*
X111000000Y-138944693D01*
X110999999Y-138944693D01*
X110657913Y-138963904D01*
X110320132Y-139021295D01*
X109990893Y-139116147D01*
X109674353Y-139247263D01*
X109374479Y-139412998D01*
X109095041Y-139611268D01*
X108839572Y-139839572D01*
X108611268Y-140095041D01*
X108412998Y-140374479D01*
X108247262Y-140674356D01*
X108239061Y-140694156D01*
X108197386Y-140747022D01*
X108134229Y-140770322D01*
X108068205Y-140757189D01*
X108018773Y-140711494D01*
X108000500Y-140646704D01*
X108000500Y-59353296D01*
X108018773Y-59288506D01*
X108068205Y-59242811D01*
X108134229Y-59229678D01*
X108197386Y-59252978D01*
X108239060Y-59305843D01*
X108247264Y-59325648D01*
X108412998Y-59625521D01*
X108488984Y-59732613D01*
X108611268Y-59904958D01*
X108731295Y-60039266D01*
X108839572Y-60160428D01*
X108938635Y-60248956D01*
X109095041Y-60388731D01*
X109095047Y-60388735D01*
X109374479Y-60587002D01*
X109674352Y-60752736D01*
X109771693Y-60793056D01*
X109990893Y-60883852D01*
X109990894Y-60883852D01*
X109990896Y-60883853D01*
X110320130Y-60978704D01*
X110657914Y-61036096D01*
X111000000Y-61055307D01*
X111342086Y-61036096D01*
X111679870Y-60978704D01*
X112009104Y-60883853D01*
X112325648Y-60752736D01*
X112625521Y-60587002D01*
X112904953Y-60388735D01*
X112904955Y-60388732D01*
X112904958Y-60388731D01*
X112955607Y-60343466D01*
X113160428Y-60160428D01*
X113388735Y-59904953D01*
X113587002Y-59625521D01*
X113752736Y-59325648D01*
X113883853Y-59009104D01*
X113978704Y-58679870D01*
X114036096Y-58342086D01*
X114055307Y-58000000D01*
X114036096Y-57657914D01*
X113978704Y-57320130D01*
X113883853Y-56990896D01*
X113752736Y-56674352D01*
X113587002Y-56374479D01*
X113388735Y-56095047D01*
X113388731Y-56095041D01*
X113213983Y-55899500D01*
X113160428Y-55839572D01*
X113063768Y-55753191D01*
X112904958Y-55611268D01*
X112783226Y-55524895D01*
X112625521Y-55412998D01*
X112325648Y-55247264D01*
X112305843Y-55239060D01*
X112252978Y-55197386D01*
X112229678Y-55134229D01*
X112242811Y-55068205D01*
X112288506Y-55018773D01*
X112353296Y-55000500D01*
X124949138Y-55000500D01*
X124996591Y-55009939D01*
G37*
%TD.AperFunction*%
%TD*%
%TA.AperFunction,Conductor*%
%TO.N,/Power/3V3_SW*%
G36*
X129046878Y-116557536D02*
G01*
X129078996Y-116578996D01*
X129121004Y-116621004D01*
X129142464Y-116653122D01*
X129150000Y-116691008D01*
X129150000Y-119550735D01*
X129149153Y-119563657D01*
X129144500Y-119598999D01*
X129144500Y-120892488D01*
X129144881Y-120900249D01*
X129145000Y-120905103D01*
X129145000Y-121251000D01*
X129148653Y-121278747D01*
X129149500Y-121291669D01*
X129149500Y-121301000D01*
X129136237Y-121350500D01*
X129100000Y-121386737D01*
X129050500Y-121400000D01*
X128954000Y-121400000D01*
X128904500Y-121386737D01*
X128868263Y-121350500D01*
X128855000Y-121301000D01*
X128855000Y-120905103D01*
X128855119Y-120900249D01*
X128855500Y-120892488D01*
X128855500Y-120388712D01*
X128855500Y-120388708D01*
X128851942Y-120350633D01*
X128851940Y-120350622D01*
X128851714Y-120349421D01*
X128850000Y-120331081D01*
X128850000Y-120200001D01*
X128850000Y-120200000D01*
X128100000Y-119450000D01*
X128099999Y-119450000D01*
X126424265Y-119450000D01*
X126411343Y-119449153D01*
X126376001Y-119444500D01*
X126376000Y-119444500D01*
X126299000Y-119444500D01*
X126249500Y-119431237D01*
X126213263Y-119395000D01*
X126200000Y-119345500D01*
X126200000Y-116691008D01*
X126207536Y-116653122D01*
X126228996Y-116621004D01*
X126271004Y-116578996D01*
X126303122Y-116557536D01*
X126341008Y-116550000D01*
X129008992Y-116550000D01*
X129046878Y-116557536D01*
G37*
%TD.AperFunction*%
%TD*%
%TA.AperFunction,Conductor*%
%TO.N,+3.3V*%
G36*
X135201907Y-115307536D02*
G01*
X135234025Y-115328996D01*
X135290504Y-115385475D01*
X135311964Y-115417593D01*
X135319500Y-115455479D01*
X135319500Y-117094835D01*
X135316902Y-117110755D01*
X135319394Y-117164642D01*
X135319500Y-117169214D01*
X135319500Y-117187846D01*
X135319521Y-117187958D01*
X135321101Y-117201578D01*
X135322414Y-117229991D01*
X135326384Y-117238982D01*
X135333132Y-117260773D01*
X135334938Y-117270432D01*
X135349911Y-117294616D01*
X135356300Y-117306736D01*
X135367794Y-117332765D01*
X135367795Y-117332766D01*
X135374743Y-117339715D01*
X135388910Y-117357600D01*
X135394081Y-117365953D01*
X135416772Y-117383087D01*
X135427117Y-117392088D01*
X136509420Y-118474391D01*
X136535679Y-118521276D01*
X136533575Y-118574973D01*
X136503729Y-118619660D01*
X136479629Y-118630777D01*
X136480845Y-118633163D01*
X136466875Y-118640280D01*
X136466874Y-118640281D01*
X136407867Y-118670346D01*
X136346781Y-118701471D01*
X136251471Y-118796781D01*
X136190280Y-118916875D01*
X136171536Y-119035224D01*
X136143758Y-119089741D01*
X136089242Y-119117518D01*
X136028810Y-119107947D01*
X135985546Y-119064683D01*
X135949658Y-118994249D01*
X135855751Y-118900342D01*
X135737420Y-118840049D01*
X135737419Y-118840048D01*
X135737418Y-118840048D01*
X135639246Y-118824500D01*
X135135754Y-118824500D01*
X135037581Y-118840048D01*
X134919250Y-118900341D01*
X134825341Y-118994250D01*
X134765048Y-119112581D01*
X134749500Y-119210754D01*
X134749500Y-119789247D01*
X134758281Y-119844688D01*
X134759500Y-119860175D01*
X134759500Y-120265023D01*
X134751964Y-120302908D01*
X134730504Y-120335026D01*
X134695934Y-120369595D01*
X134689724Y-120382915D01*
X134653192Y-120424571D01*
X134600000Y-120440075D01*
X134546808Y-120424571D01*
X134510276Y-120382915D01*
X134504066Y-120369598D01*
X134504065Y-120369597D01*
X134504065Y-120369596D01*
X134420404Y-120285935D01*
X134420402Y-120285934D01*
X134420401Y-120285933D01*
X134376880Y-120265639D01*
X134337979Y-120233203D01*
X134320212Y-120185771D01*
X134328229Y-120135760D01*
X134359933Y-120096259D01*
X134366450Y-120091448D01*
X134450360Y-119977755D01*
X134497030Y-119844382D01*
X134500000Y-119812715D01*
X134500000Y-119750001D01*
X134499999Y-119750000D01*
X133125001Y-119750000D01*
X133125000Y-119750001D01*
X133125000Y-119812715D01*
X133127969Y-119844382D01*
X133174639Y-119977755D01*
X133258550Y-120091449D01*
X133372244Y-120175360D01*
X133505617Y-120222030D01*
X133537285Y-120225000D01*
X133587962Y-120225000D01*
X133635580Y-120237204D01*
X133671458Y-120270807D01*
X133686750Y-120317525D01*
X133677687Y-120365839D01*
X133625931Y-120476828D01*
X133619500Y-120525683D01*
X133619500Y-120974317D01*
X133625932Y-121023174D01*
X133675934Y-121130403D01*
X133710504Y-121164974D01*
X133731964Y-121197092D01*
X133739500Y-121234977D01*
X133739500Y-121246508D01*
X133728710Y-121291453D01*
X133690280Y-121366875D01*
X133669195Y-121500000D01*
X133690280Y-121633124D01*
X133690280Y-121633125D01*
X133690281Y-121633126D01*
X133751472Y-121753220D01*
X133846780Y-121848528D01*
X133966874Y-121909719D01*
X134100000Y-121930804D01*
X134233126Y-121909719D01*
X134353220Y-121848528D01*
X134448528Y-121753220D01*
X134509719Y-121633126D01*
X134530804Y-121500000D01*
X134509719Y-121366874D01*
X134460645Y-121270561D01*
X134449992Y-121230800D01*
X134456432Y-121190140D01*
X134478849Y-121155619D01*
X134504065Y-121130404D01*
X134510276Y-121117083D01*
X134546807Y-121075428D01*
X134600000Y-121059924D01*
X134653193Y-121075428D01*
X134689723Y-121117083D01*
X134695935Y-121130404D01*
X134779596Y-121214065D01*
X134886827Y-121264068D01*
X134928275Y-121269524D01*
X134935683Y-121270500D01*
X134935684Y-121270500D01*
X135284316Y-121270500D01*
X135284317Y-121270500D01*
X135290748Y-121269653D01*
X135333173Y-121264068D01*
X135440404Y-121214065D01*
X135524065Y-121130404D01*
X135574068Y-121023173D01*
X135579752Y-120980000D01*
X136052562Y-120980000D01*
X136054465Y-120992018D01*
X136110550Y-121102091D01*
X136197908Y-121189449D01*
X136307982Y-121245535D01*
X136350000Y-121252190D01*
X136350000Y-120980001D01*
X136349999Y-120980000D01*
X136052562Y-120980000D01*
X135579752Y-120980000D01*
X135580500Y-120974316D01*
X135580500Y-120525684D01*
X135574068Y-120476827D01*
X135524065Y-120369596D01*
X135498970Y-120344501D01*
X135471878Y-120293814D01*
X135477512Y-120236614D01*
X135513975Y-120192185D01*
X135568976Y-120175500D01*
X135639246Y-120175500D01*
X135737420Y-120159951D01*
X135855751Y-120099658D01*
X135949658Y-120005751D01*
X135949659Y-120005748D01*
X135951496Y-120003912D01*
X135991730Y-119979497D01*
X136038691Y-119976419D01*
X136081767Y-119995373D01*
X136111224Y-120032076D01*
X136146774Y-120108313D01*
X136146775Y-120108314D01*
X136146776Y-120108316D01*
X136183457Y-120144997D01*
X136209079Y-120189376D01*
X136209079Y-120240622D01*
X136183456Y-120285003D01*
X136110549Y-120357909D01*
X136054465Y-120467979D01*
X136052560Y-120479999D01*
X136052562Y-120480000D01*
X136751000Y-120480000D01*
X136800500Y-120493263D01*
X136836737Y-120529500D01*
X136850000Y-120579000D01*
X136850000Y-121252191D01*
X136865295Y-121265254D01*
X136890906Y-121299087D01*
X136900000Y-121340534D01*
X136900000Y-123401000D01*
X136886737Y-123450500D01*
X136850500Y-123486737D01*
X136801000Y-123500000D01*
X133154260Y-123500000D01*
X133102232Y-123485226D01*
X133065732Y-123445314D01*
X133055654Y-123392176D01*
X133075006Y-123341672D01*
X133121185Y-123279983D01*
X133168918Y-123152007D01*
X133175000Y-123095436D01*
X133175000Y-123050001D01*
X133174999Y-123050000D01*
X132324000Y-123050000D01*
X132300000Y-123043569D01*
X132300000Y-122549999D01*
X132725000Y-122549999D01*
X132725001Y-122550000D01*
X133174998Y-122550000D01*
X133174999Y-122549999D01*
X133174999Y-122504564D01*
X133168918Y-122447993D01*
X133121186Y-122320018D01*
X133039327Y-122210668D01*
X132930569Y-122129252D01*
X132895599Y-122080143D01*
X132895599Y-122019854D01*
X132930570Y-121970745D01*
X133039328Y-121889330D01*
X133121186Y-121779981D01*
X133168918Y-121652007D01*
X133175000Y-121595436D01*
X133175000Y-121550001D01*
X133174999Y-121550000D01*
X132725001Y-121550000D01*
X132725000Y-121550001D01*
X132725000Y-122549999D01*
X132300000Y-122549999D01*
X132300000Y-121049999D01*
X132725000Y-121049999D01*
X132725001Y-121050000D01*
X133174998Y-121050000D01*
X133174999Y-121049999D01*
X133174999Y-121004564D01*
X133168918Y-120947993D01*
X133121186Y-120820018D01*
X133039329Y-120710670D01*
X132929981Y-120628813D01*
X132802007Y-120581081D01*
X132745436Y-120575000D01*
X132725001Y-120575000D01*
X132725000Y-120575001D01*
X132725000Y-121049999D01*
X132300000Y-121049999D01*
X132300000Y-120100000D01*
X131775620Y-119575620D01*
X131748527Y-119524929D01*
X131754162Y-119467729D01*
X131770715Y-119447559D01*
X131769300Y-119446613D01*
X131835494Y-119347545D01*
X131850000Y-119274623D01*
X131850000Y-119249999D01*
X133125000Y-119249999D01*
X133125001Y-119250000D01*
X133562499Y-119250000D01*
X133562500Y-119249999D01*
X134062500Y-119249999D01*
X134062501Y-119250000D01*
X134499999Y-119250000D01*
X134500000Y-119249999D01*
X134500000Y-119187285D01*
X134497030Y-119155617D01*
X134450360Y-119022244D01*
X134366449Y-118908550D01*
X134252755Y-118824639D01*
X134119382Y-118777969D01*
X134087715Y-118775000D01*
X134062501Y-118775000D01*
X134062500Y-118775001D01*
X134062500Y-119249999D01*
X133562500Y-119249999D01*
X133562500Y-118775001D01*
X133562499Y-118775000D01*
X133537285Y-118775000D01*
X133505617Y-118777969D01*
X133372244Y-118824639D01*
X133258550Y-118908550D01*
X133174639Y-119022244D01*
X133127969Y-119155617D01*
X133125000Y-119187285D01*
X133125000Y-119249999D01*
X131850000Y-119249999D01*
X131850000Y-118250001D01*
X131849999Y-118250000D01*
X130699000Y-118250000D01*
X130649500Y-118236737D01*
X130613263Y-118200500D01*
X130600000Y-118151000D01*
X130600000Y-117749999D01*
X131100000Y-117749999D01*
X131100001Y-117750000D01*
X131849999Y-117750000D01*
X131850000Y-117749999D01*
X131850000Y-116725377D01*
X131835494Y-116652454D01*
X131780240Y-116569759D01*
X131697545Y-116514505D01*
X131624623Y-116500000D01*
X131100001Y-116500000D01*
X131100000Y-116500001D01*
X131100000Y-117749999D01*
X130600000Y-117749999D01*
X130600000Y-116500001D01*
X130599999Y-116500000D01*
X130075378Y-116500000D01*
X130018315Y-116511351D01*
X129961115Y-116505717D01*
X129916685Y-116469255D01*
X129900000Y-116414253D01*
X129900000Y-115399000D01*
X129913263Y-115349500D01*
X129949500Y-115313263D01*
X129999000Y-115300000D01*
X135164021Y-115300000D01*
X135201907Y-115307536D01*
G37*
%TD.AperFunction*%
%TD*%
%TA.AperFunction,Conductor*%
%TO.N,VIN*%
G36*
X154396878Y-120607536D02*
G01*
X154428996Y-120628996D01*
X154671004Y-120871004D01*
X154692464Y-120903122D01*
X154700000Y-120941008D01*
X154700000Y-121801000D01*
X154686737Y-121850500D01*
X154650500Y-121886737D01*
X154601000Y-121900000D01*
X151499000Y-121900000D01*
X151449500Y-121886737D01*
X151413263Y-121850500D01*
X151400000Y-121801000D01*
X151400000Y-120999000D01*
X151413263Y-120949500D01*
X151449500Y-120913263D01*
X151499000Y-120900000D01*
X153300000Y-120900000D01*
X153435502Y-120764497D01*
X153571005Y-120628996D01*
X153603122Y-120607536D01*
X153641008Y-120600000D01*
X154358992Y-120600000D01*
X154396878Y-120607536D01*
G37*
%TD.AperFunction*%
%TD*%
%TA.AperFunction,Conductor*%
%TO.N,+5V*%
G36*
X154800500Y-114413263D02*
G01*
X154836737Y-114449500D01*
X154850000Y-114499000D01*
X154850000Y-116001000D01*
X154836737Y-116050500D01*
X154800500Y-116086737D01*
X154751000Y-116100000D01*
X151000000Y-116100000D01*
X150600000Y-116500000D01*
X150318235Y-116781765D01*
X150272286Y-116807794D01*
X150219493Y-116806498D01*
X150174877Y-116778245D01*
X150151133Y-116731075D01*
X150135494Y-116652453D01*
X150080240Y-116569759D01*
X149997545Y-116514505D01*
X149924623Y-116500000D01*
X149400001Y-116500000D01*
X149400000Y-116500001D01*
X149400000Y-119499999D01*
X149400001Y-119500000D01*
X149924623Y-119500000D01*
X149974875Y-119490004D01*
X150035542Y-119497152D01*
X150080465Y-119538548D01*
X150092539Y-119598430D01*
X150067167Y-119653999D01*
X149779428Y-119967897D01*
X149746314Y-119991619D01*
X149706450Y-120000000D01*
X148750000Y-120000000D01*
X148250000Y-120500000D01*
X148250000Y-120500001D01*
X148236076Y-120513925D01*
X148235215Y-120513064D01*
X148215854Y-120536228D01*
X148158799Y-120551878D01*
X148103006Y-120532194D01*
X148004983Y-120458814D01*
X147877007Y-120411081D01*
X147820436Y-120405000D01*
X147800001Y-120405000D01*
X147800000Y-120405001D01*
X147800000Y-122801000D01*
X147786737Y-122850500D01*
X147750500Y-122886737D01*
X147701000Y-122900000D01*
X147399000Y-122900000D01*
X147349500Y-122886737D01*
X147313263Y-122850500D01*
X147300000Y-122801000D01*
X147300000Y-120405002D01*
X147299999Y-120405001D01*
X147279564Y-120405001D01*
X147222993Y-120411081D01*
X147095018Y-120458813D01*
X146985669Y-120540672D01*
X146928254Y-120617370D01*
X146878583Y-120652519D01*
X146817736Y-120651976D01*
X146768700Y-120615946D01*
X146750000Y-120558042D01*
X146750000Y-120500001D01*
X146750000Y-120500000D01*
X146644001Y-120394001D01*
X146616909Y-120343314D01*
X146622543Y-120286114D01*
X146659006Y-120241685D01*
X146708231Y-120226751D01*
X146708108Y-120225432D01*
X146744382Y-120222030D01*
X146877755Y-120175360D01*
X146991449Y-120091449D01*
X147075360Y-119977755D01*
X147122030Y-119844382D01*
X147125000Y-119812715D01*
X147125000Y-119750001D01*
X147124999Y-119750000D01*
X146286500Y-119750000D01*
X146237000Y-119736737D01*
X146200763Y-119700500D01*
X146187500Y-119651000D01*
X146187500Y-119274623D01*
X148150000Y-119274623D01*
X148164505Y-119347545D01*
X148219759Y-119430240D01*
X148302454Y-119485494D01*
X148375377Y-119500000D01*
X148899999Y-119500000D01*
X148900000Y-119499999D01*
X148900000Y-118250001D01*
X148899999Y-118250000D01*
X148150001Y-118250000D01*
X148150000Y-118250001D01*
X148150000Y-119274623D01*
X146187500Y-119274623D01*
X146187500Y-119249999D01*
X146687500Y-119249999D01*
X146687501Y-119250000D01*
X147124999Y-119250000D01*
X147125000Y-119249999D01*
X147125000Y-119187285D01*
X147122030Y-119155617D01*
X147075360Y-119022244D01*
X146991449Y-118908550D01*
X146877755Y-118824639D01*
X146744382Y-118777969D01*
X146712715Y-118775000D01*
X146687501Y-118775000D01*
X146687500Y-118775001D01*
X146687500Y-119249999D01*
X146187500Y-119249999D01*
X146187500Y-118775001D01*
X146187499Y-118775000D01*
X146162285Y-118775000D01*
X146130617Y-118777969D01*
X146071050Y-118798813D01*
X146013087Y-118801091D01*
X145963798Y-118770505D01*
X145940105Y-118717556D01*
X145950143Y-118660424D01*
X145999718Y-118563127D01*
X145999719Y-118563126D01*
X146020804Y-118430000D01*
X145999719Y-118296874D01*
X145938528Y-118176780D01*
X145938525Y-118176777D01*
X145919495Y-118157746D01*
X145898036Y-118125629D01*
X145890500Y-118087744D01*
X145890500Y-117749999D01*
X148150000Y-117749999D01*
X148150001Y-117750000D01*
X148899999Y-117750000D01*
X148900000Y-117749999D01*
X148900000Y-116500001D01*
X148899999Y-116500000D01*
X148375377Y-116500000D01*
X148302454Y-116514505D01*
X148219759Y-116569759D01*
X148164505Y-116652454D01*
X148150000Y-116725377D01*
X148150000Y-117749999D01*
X145890500Y-117749999D01*
X145890500Y-116850508D01*
X145898036Y-116812622D01*
X145919496Y-116780504D01*
X148271004Y-114428996D01*
X148303122Y-114407536D01*
X148341008Y-114400000D01*
X154751000Y-114400000D01*
X154800500Y-114413263D01*
G37*
%TD.AperFunction*%
%TD*%
M02*
