%TF.GenerationSoftware,KiCad,Pcbnew,7.0.1*%
%TF.CreationDate,2023-06-28T22:55:49+01:00*%
%TF.ProjectId,Motor Encoder Board,4d6f746f-7220-4456-9e63-6f6465722042,rev?*%
%TF.SameCoordinates,Original*%
%TF.FileFunction,Drillmap*%
%TF.FilePolarity,Positive*%
%FSLAX45Y45*%
G04 Gerber Fmt 4.5, Leading zero omitted, Abs format (unit mm)*
G04 Created by KiCad (PCBNEW 7.0.1) date 2023-06-28 22:55:49*
%MOMM*%
%LPD*%
G01*
G04 APERTURE LIST*
%ADD10C,0.100000*%
%ADD11C,0.200000*%
%ADD12C,0.040000*%
%ADD13C,0.320000*%
G04 APERTURE END LIST*
D10*
X10900000Y-7100000D02*
X12500000Y-7100000D01*
X10600000Y-6800000D02*
X10600000Y-6500000D01*
X10600000Y-5400000D02*
X10600000Y-5700000D01*
X12500000Y-5100000D02*
X10900000Y-5100000D01*
X12800000Y-5700000D02*
X12800000Y-5400000D01*
X12800000Y-6800000D02*
X12800000Y-6500000D01*
X12500000Y-7100000D02*
G75*
G03*
X12800000Y-6800000I0J300000D01*
G01*
X10600000Y-6800000D02*
G75*
G03*
X10900000Y-7100000I300000J0D01*
G01*
X10900000Y-5100000D02*
G75*
G03*
X10600000Y-5400000I0J-300000D01*
G01*
X12800000Y-5400000D02*
G75*
G03*
X12500000Y-5100000I-300000J0D01*
G01*
X12800000Y-5700000D02*
G75*
G03*
X12900000Y-5800000I100000J0D01*
G01*
X12900000Y-6400000D02*
G75*
G03*
X12800000Y-6500000I0J-100000D01*
G01*
X10600000Y-6500000D02*
G75*
G03*
X10500000Y-6400000I-100000J0D01*
G01*
X10500000Y-5800000D02*
G75*
G03*
X10600000Y-5700000I0J100000D01*
G01*
X10500000Y-5800000D02*
G75*
G03*
X10500000Y-6400000I0J-300000D01*
G01*
X12900000Y-6400000D02*
G75*
G03*
X12900000Y-5800000I0J300000D01*
G01*
D11*
D12*
X10927000Y-6271000D02*
X10967000Y-6311000D01*
X10967000Y-6271000D02*
X10927000Y-6311000D01*
X11194000Y-5889000D02*
X11234000Y-5929000D01*
X11234000Y-5889000D02*
X11194000Y-5929000D01*
X12162000Y-6271000D02*
X12202000Y-6311000D01*
X12202000Y-6271000D02*
X12162000Y-6311000D01*
X12416000Y-5888000D02*
X12456000Y-5928000D01*
X12456000Y-5888000D02*
X12416000Y-5928000D01*
X12416000Y-6016000D02*
X12456000Y-6056000D01*
X12456000Y-6016000D02*
X12416000Y-6056000D01*
D10*
X11242000Y-6600000D02*
G75*
G03*
X11242000Y-6600000I-50000J0D01*
G01*
X11496000Y-6600000D02*
G75*
G03*
X11496000Y-6600000I-50000J0D01*
G01*
X11750000Y-6600000D02*
G75*
G03*
X11750000Y-6600000I-50000J0D01*
G01*
X12004000Y-6600000D02*
G75*
G03*
X12004000Y-6600000I-50000J0D01*
G01*
X12258000Y-6600000D02*
G75*
G03*
X12258000Y-6600000I-50000J0D01*
G01*
D13*
X10500000Y-5940000D02*
X10500000Y-6260000D01*
X10340000Y-6100000D02*
X10660000Y-6100000D01*
X12900000Y-5940000D02*
X12900000Y-6260000D01*
X12740000Y-6100000D02*
X13060000Y-6100000D01*
D11*
X10442619Y-7417524D02*
X10442619Y-7217524D01*
X10442619Y-7217524D02*
X10490238Y-7217524D01*
X10490238Y-7217524D02*
X10518810Y-7227048D01*
X10518810Y-7227048D02*
X10537857Y-7246095D01*
X10537857Y-7246095D02*
X10547381Y-7265143D01*
X10547381Y-7265143D02*
X10556905Y-7303238D01*
X10556905Y-7303238D02*
X10556905Y-7331809D01*
X10556905Y-7331809D02*
X10547381Y-7369905D01*
X10547381Y-7369905D02*
X10537857Y-7388952D01*
X10537857Y-7388952D02*
X10518810Y-7408000D01*
X10518810Y-7408000D02*
X10490238Y-7417524D01*
X10490238Y-7417524D02*
X10442619Y-7417524D01*
X10642619Y-7417524D02*
X10642619Y-7284190D01*
X10642619Y-7322286D02*
X10652143Y-7303238D01*
X10652143Y-7303238D02*
X10661667Y-7293714D01*
X10661667Y-7293714D02*
X10680714Y-7284190D01*
X10680714Y-7284190D02*
X10699762Y-7284190D01*
X10766429Y-7417524D02*
X10766429Y-7284190D01*
X10766429Y-7217524D02*
X10756905Y-7227048D01*
X10756905Y-7227048D02*
X10766429Y-7236571D01*
X10766429Y-7236571D02*
X10775952Y-7227048D01*
X10775952Y-7227048D02*
X10766429Y-7217524D01*
X10766429Y-7217524D02*
X10766429Y-7236571D01*
X10890238Y-7417524D02*
X10871190Y-7408000D01*
X10871190Y-7408000D02*
X10861667Y-7388952D01*
X10861667Y-7388952D02*
X10861667Y-7217524D01*
X10995000Y-7417524D02*
X10975952Y-7408000D01*
X10975952Y-7408000D02*
X10966429Y-7388952D01*
X10966429Y-7388952D02*
X10966429Y-7217524D01*
X11223571Y-7417524D02*
X11223571Y-7217524D01*
X11223571Y-7217524D02*
X11290238Y-7360381D01*
X11290238Y-7360381D02*
X11356905Y-7217524D01*
X11356905Y-7217524D02*
X11356905Y-7417524D01*
X11537857Y-7417524D02*
X11537857Y-7312762D01*
X11537857Y-7312762D02*
X11528333Y-7293714D01*
X11528333Y-7293714D02*
X11509286Y-7284190D01*
X11509286Y-7284190D02*
X11471190Y-7284190D01*
X11471190Y-7284190D02*
X11452143Y-7293714D01*
X11537857Y-7408000D02*
X11518809Y-7417524D01*
X11518809Y-7417524D02*
X11471190Y-7417524D01*
X11471190Y-7417524D02*
X11452143Y-7408000D01*
X11452143Y-7408000D02*
X11442619Y-7388952D01*
X11442619Y-7388952D02*
X11442619Y-7369905D01*
X11442619Y-7369905D02*
X11452143Y-7350857D01*
X11452143Y-7350857D02*
X11471190Y-7341333D01*
X11471190Y-7341333D02*
X11518809Y-7341333D01*
X11518809Y-7341333D02*
X11537857Y-7331809D01*
X11633095Y-7284190D02*
X11633095Y-7484190D01*
X11633095Y-7293714D02*
X11652143Y-7284190D01*
X11652143Y-7284190D02*
X11690238Y-7284190D01*
X11690238Y-7284190D02*
X11709286Y-7293714D01*
X11709286Y-7293714D02*
X11718809Y-7303238D01*
X11718809Y-7303238D02*
X11728333Y-7322286D01*
X11728333Y-7322286D02*
X11728333Y-7379428D01*
X11728333Y-7379428D02*
X11718809Y-7398476D01*
X11718809Y-7398476D02*
X11709286Y-7408000D01*
X11709286Y-7408000D02*
X11690238Y-7417524D01*
X11690238Y-7417524D02*
X11652143Y-7417524D01*
X11652143Y-7417524D02*
X11633095Y-7408000D01*
X11814048Y-7398476D02*
X11823571Y-7408000D01*
X11823571Y-7408000D02*
X11814048Y-7417524D01*
X11814048Y-7417524D02*
X11804524Y-7408000D01*
X11804524Y-7408000D02*
X11814048Y-7398476D01*
X11814048Y-7398476D02*
X11814048Y-7417524D01*
X11814048Y-7293714D02*
X11823571Y-7303238D01*
X11823571Y-7303238D02*
X11814048Y-7312762D01*
X11814048Y-7312762D02*
X11804524Y-7303238D01*
X11804524Y-7303238D02*
X11814048Y-7293714D01*
X11814048Y-7293714D02*
X11814048Y-7312762D01*
D12*
X10155000Y-7725000D02*
X10195000Y-7765000D01*
X10195000Y-7725000D02*
X10155000Y-7765000D01*
D11*
X10480714Y-7637524D02*
X10499762Y-7637524D01*
X10499762Y-7637524D02*
X10518810Y-7647048D01*
X10518810Y-7647048D02*
X10528333Y-7656571D01*
X10528333Y-7656571D02*
X10537857Y-7675619D01*
X10537857Y-7675619D02*
X10547381Y-7713714D01*
X10547381Y-7713714D02*
X10547381Y-7761333D01*
X10547381Y-7761333D02*
X10537857Y-7799428D01*
X10537857Y-7799428D02*
X10528333Y-7818476D01*
X10528333Y-7818476D02*
X10518810Y-7828000D01*
X10518810Y-7828000D02*
X10499762Y-7837524D01*
X10499762Y-7837524D02*
X10480714Y-7837524D01*
X10480714Y-7837524D02*
X10461667Y-7828000D01*
X10461667Y-7828000D02*
X10452143Y-7818476D01*
X10452143Y-7818476D02*
X10442619Y-7799428D01*
X10442619Y-7799428D02*
X10433095Y-7761333D01*
X10433095Y-7761333D02*
X10433095Y-7713714D01*
X10433095Y-7713714D02*
X10442619Y-7675619D01*
X10442619Y-7675619D02*
X10452143Y-7656571D01*
X10452143Y-7656571D02*
X10461667Y-7647048D01*
X10461667Y-7647048D02*
X10480714Y-7637524D01*
X10633095Y-7818476D02*
X10642619Y-7828000D01*
X10642619Y-7828000D02*
X10633095Y-7837524D01*
X10633095Y-7837524D02*
X10623571Y-7828000D01*
X10623571Y-7828000D02*
X10633095Y-7818476D01*
X10633095Y-7818476D02*
X10633095Y-7837524D01*
X10814048Y-7704190D02*
X10814048Y-7837524D01*
X10766429Y-7628000D02*
X10718810Y-7770857D01*
X10718810Y-7770857D02*
X10842619Y-7770857D01*
X10956905Y-7637524D02*
X10975952Y-7637524D01*
X10975952Y-7637524D02*
X10995000Y-7647048D01*
X10995000Y-7647048D02*
X11004524Y-7656571D01*
X11004524Y-7656571D02*
X11014048Y-7675619D01*
X11014048Y-7675619D02*
X11023571Y-7713714D01*
X11023571Y-7713714D02*
X11023571Y-7761333D01*
X11023571Y-7761333D02*
X11014048Y-7799428D01*
X11014048Y-7799428D02*
X11004524Y-7818476D01*
X11004524Y-7818476D02*
X10995000Y-7828000D01*
X10995000Y-7828000D02*
X10975952Y-7837524D01*
X10975952Y-7837524D02*
X10956905Y-7837524D01*
X10956905Y-7837524D02*
X10937857Y-7828000D01*
X10937857Y-7828000D02*
X10928333Y-7818476D01*
X10928333Y-7818476D02*
X10918810Y-7799428D01*
X10918810Y-7799428D02*
X10909286Y-7761333D01*
X10909286Y-7761333D02*
X10909286Y-7713714D01*
X10909286Y-7713714D02*
X10918810Y-7675619D01*
X10918810Y-7675619D02*
X10928333Y-7656571D01*
X10928333Y-7656571D02*
X10937857Y-7647048D01*
X10937857Y-7647048D02*
X10956905Y-7637524D01*
X11147381Y-7637524D02*
X11166429Y-7637524D01*
X11166429Y-7637524D02*
X11185476Y-7647048D01*
X11185476Y-7647048D02*
X11195000Y-7656571D01*
X11195000Y-7656571D02*
X11204524Y-7675619D01*
X11204524Y-7675619D02*
X11214048Y-7713714D01*
X11214048Y-7713714D02*
X11214048Y-7761333D01*
X11214048Y-7761333D02*
X11204524Y-7799428D01*
X11204524Y-7799428D02*
X11195000Y-7818476D01*
X11195000Y-7818476D02*
X11185476Y-7828000D01*
X11185476Y-7828000D02*
X11166429Y-7837524D01*
X11166429Y-7837524D02*
X11147381Y-7837524D01*
X11147381Y-7837524D02*
X11128333Y-7828000D01*
X11128333Y-7828000D02*
X11118810Y-7818476D01*
X11118810Y-7818476D02*
X11109286Y-7799428D01*
X11109286Y-7799428D02*
X11099762Y-7761333D01*
X11099762Y-7761333D02*
X11099762Y-7713714D01*
X11099762Y-7713714D02*
X11109286Y-7675619D01*
X11109286Y-7675619D02*
X11118810Y-7656571D01*
X11118810Y-7656571D02*
X11128333Y-7647048D01*
X11128333Y-7647048D02*
X11147381Y-7637524D01*
X11299762Y-7837524D02*
X11299762Y-7704190D01*
X11299762Y-7723238D02*
X11309286Y-7713714D01*
X11309286Y-7713714D02*
X11328333Y-7704190D01*
X11328333Y-7704190D02*
X11356905Y-7704190D01*
X11356905Y-7704190D02*
X11375952Y-7713714D01*
X11375952Y-7713714D02*
X11385476Y-7732762D01*
X11385476Y-7732762D02*
X11385476Y-7837524D01*
X11385476Y-7732762D02*
X11395000Y-7713714D01*
X11395000Y-7713714D02*
X11414048Y-7704190D01*
X11414048Y-7704190D02*
X11442619Y-7704190D01*
X11442619Y-7704190D02*
X11461667Y-7713714D01*
X11461667Y-7713714D02*
X11471190Y-7732762D01*
X11471190Y-7732762D02*
X11471190Y-7837524D01*
X11566429Y-7837524D02*
X11566429Y-7704190D01*
X11566429Y-7723238D02*
X11575952Y-7713714D01*
X11575952Y-7713714D02*
X11595000Y-7704190D01*
X11595000Y-7704190D02*
X11623571Y-7704190D01*
X11623571Y-7704190D02*
X11642619Y-7713714D01*
X11642619Y-7713714D02*
X11652143Y-7732762D01*
X11652143Y-7732762D02*
X11652143Y-7837524D01*
X11652143Y-7732762D02*
X11661667Y-7713714D01*
X11661667Y-7713714D02*
X11680714Y-7704190D01*
X11680714Y-7704190D02*
X11709286Y-7704190D01*
X11709286Y-7704190D02*
X11728333Y-7713714D01*
X11728333Y-7713714D02*
X11737857Y-7732762D01*
X11737857Y-7732762D02*
X11737857Y-7837524D01*
X12128333Y-7628000D02*
X11956905Y-7885143D01*
X12385476Y-7637524D02*
X12404524Y-7637524D01*
X12404524Y-7637524D02*
X12423572Y-7647048D01*
X12423572Y-7647048D02*
X12433095Y-7656571D01*
X12433095Y-7656571D02*
X12442619Y-7675619D01*
X12442619Y-7675619D02*
X12452143Y-7713714D01*
X12452143Y-7713714D02*
X12452143Y-7761333D01*
X12452143Y-7761333D02*
X12442619Y-7799428D01*
X12442619Y-7799428D02*
X12433095Y-7818476D01*
X12433095Y-7818476D02*
X12423572Y-7828000D01*
X12423572Y-7828000D02*
X12404524Y-7837524D01*
X12404524Y-7837524D02*
X12385476Y-7837524D01*
X12385476Y-7837524D02*
X12366429Y-7828000D01*
X12366429Y-7828000D02*
X12356905Y-7818476D01*
X12356905Y-7818476D02*
X12347381Y-7799428D01*
X12347381Y-7799428D02*
X12337857Y-7761333D01*
X12337857Y-7761333D02*
X12337857Y-7713714D01*
X12337857Y-7713714D02*
X12347381Y-7675619D01*
X12347381Y-7675619D02*
X12356905Y-7656571D01*
X12356905Y-7656571D02*
X12366429Y-7647048D01*
X12366429Y-7647048D02*
X12385476Y-7637524D01*
X12537857Y-7818476D02*
X12547381Y-7828000D01*
X12547381Y-7828000D02*
X12537857Y-7837524D01*
X12537857Y-7837524D02*
X12528333Y-7828000D01*
X12528333Y-7828000D02*
X12537857Y-7818476D01*
X12537857Y-7818476D02*
X12537857Y-7837524D01*
X12671191Y-7637524D02*
X12690238Y-7637524D01*
X12690238Y-7637524D02*
X12709286Y-7647048D01*
X12709286Y-7647048D02*
X12718810Y-7656571D01*
X12718810Y-7656571D02*
X12728333Y-7675619D01*
X12728333Y-7675619D02*
X12737857Y-7713714D01*
X12737857Y-7713714D02*
X12737857Y-7761333D01*
X12737857Y-7761333D02*
X12728333Y-7799428D01*
X12728333Y-7799428D02*
X12718810Y-7818476D01*
X12718810Y-7818476D02*
X12709286Y-7828000D01*
X12709286Y-7828000D02*
X12690238Y-7837524D01*
X12690238Y-7837524D02*
X12671191Y-7837524D01*
X12671191Y-7837524D02*
X12652143Y-7828000D01*
X12652143Y-7828000D02*
X12642619Y-7818476D01*
X12642619Y-7818476D02*
X12633095Y-7799428D01*
X12633095Y-7799428D02*
X12623572Y-7761333D01*
X12623572Y-7761333D02*
X12623572Y-7713714D01*
X12623572Y-7713714D02*
X12633095Y-7675619D01*
X12633095Y-7675619D02*
X12642619Y-7656571D01*
X12642619Y-7656571D02*
X12652143Y-7647048D01*
X12652143Y-7647048D02*
X12671191Y-7637524D01*
X12928333Y-7837524D02*
X12814048Y-7837524D01*
X12871191Y-7837524D02*
X12871191Y-7637524D01*
X12871191Y-7637524D02*
X12852143Y-7666095D01*
X12852143Y-7666095D02*
X12833095Y-7685143D01*
X12833095Y-7685143D02*
X12814048Y-7694667D01*
X13109286Y-7637524D02*
X13014048Y-7637524D01*
X13014048Y-7637524D02*
X13004524Y-7732762D01*
X13004524Y-7732762D02*
X13014048Y-7723238D01*
X13014048Y-7723238D02*
X13033095Y-7713714D01*
X13033095Y-7713714D02*
X13080714Y-7713714D01*
X13080714Y-7713714D02*
X13099762Y-7723238D01*
X13099762Y-7723238D02*
X13109286Y-7732762D01*
X13109286Y-7732762D02*
X13118810Y-7751809D01*
X13118810Y-7751809D02*
X13118810Y-7799428D01*
X13118810Y-7799428D02*
X13109286Y-7818476D01*
X13109286Y-7818476D02*
X13099762Y-7828000D01*
X13099762Y-7828000D02*
X13080714Y-7837524D01*
X13080714Y-7837524D02*
X13033095Y-7837524D01*
X13033095Y-7837524D02*
X13014048Y-7828000D01*
X13014048Y-7828000D02*
X13004524Y-7818476D01*
X13185476Y-7637524D02*
X13318810Y-7637524D01*
X13318810Y-7637524D02*
X13233095Y-7837524D01*
X13385476Y-7637524D02*
X13385476Y-7675619D01*
X13461667Y-7637524D02*
X13461667Y-7675619D01*
X13756905Y-7913714D02*
X13747381Y-7904190D01*
X13747381Y-7904190D02*
X13728334Y-7875619D01*
X13728334Y-7875619D02*
X13718810Y-7856571D01*
X13718810Y-7856571D02*
X13709286Y-7828000D01*
X13709286Y-7828000D02*
X13699762Y-7780381D01*
X13699762Y-7780381D02*
X13699762Y-7742286D01*
X13699762Y-7742286D02*
X13709286Y-7694667D01*
X13709286Y-7694667D02*
X13718810Y-7666095D01*
X13718810Y-7666095D02*
X13728334Y-7647048D01*
X13728334Y-7647048D02*
X13747381Y-7618476D01*
X13747381Y-7618476D02*
X13756905Y-7608952D01*
X13928334Y-7637524D02*
X13833095Y-7637524D01*
X13833095Y-7637524D02*
X13823572Y-7732762D01*
X13823572Y-7732762D02*
X13833095Y-7723238D01*
X13833095Y-7723238D02*
X13852143Y-7713714D01*
X13852143Y-7713714D02*
X13899762Y-7713714D01*
X13899762Y-7713714D02*
X13918810Y-7723238D01*
X13918810Y-7723238D02*
X13928334Y-7732762D01*
X13928334Y-7732762D02*
X13937857Y-7751809D01*
X13937857Y-7751809D02*
X13937857Y-7799428D01*
X13937857Y-7799428D02*
X13928334Y-7818476D01*
X13928334Y-7818476D02*
X13918810Y-7828000D01*
X13918810Y-7828000D02*
X13899762Y-7837524D01*
X13899762Y-7837524D02*
X13852143Y-7837524D01*
X13852143Y-7837524D02*
X13833095Y-7828000D01*
X13833095Y-7828000D02*
X13823572Y-7818476D01*
X14175953Y-7837524D02*
X14175953Y-7637524D01*
X14261667Y-7837524D02*
X14261667Y-7732762D01*
X14261667Y-7732762D02*
X14252143Y-7713714D01*
X14252143Y-7713714D02*
X14233096Y-7704190D01*
X14233096Y-7704190D02*
X14204524Y-7704190D01*
X14204524Y-7704190D02*
X14185476Y-7713714D01*
X14185476Y-7713714D02*
X14175953Y-7723238D01*
X14385476Y-7837524D02*
X14366429Y-7828000D01*
X14366429Y-7828000D02*
X14356905Y-7818476D01*
X14356905Y-7818476D02*
X14347381Y-7799428D01*
X14347381Y-7799428D02*
X14347381Y-7742286D01*
X14347381Y-7742286D02*
X14356905Y-7723238D01*
X14356905Y-7723238D02*
X14366429Y-7713714D01*
X14366429Y-7713714D02*
X14385476Y-7704190D01*
X14385476Y-7704190D02*
X14414048Y-7704190D01*
X14414048Y-7704190D02*
X14433096Y-7713714D01*
X14433096Y-7713714D02*
X14442619Y-7723238D01*
X14442619Y-7723238D02*
X14452143Y-7742286D01*
X14452143Y-7742286D02*
X14452143Y-7799428D01*
X14452143Y-7799428D02*
X14442619Y-7818476D01*
X14442619Y-7818476D02*
X14433096Y-7828000D01*
X14433096Y-7828000D02*
X14414048Y-7837524D01*
X14414048Y-7837524D02*
X14385476Y-7837524D01*
X14566429Y-7837524D02*
X14547381Y-7828000D01*
X14547381Y-7828000D02*
X14537857Y-7808952D01*
X14537857Y-7808952D02*
X14537857Y-7637524D01*
X14718810Y-7828000D02*
X14699762Y-7837524D01*
X14699762Y-7837524D02*
X14661667Y-7837524D01*
X14661667Y-7837524D02*
X14642619Y-7828000D01*
X14642619Y-7828000D02*
X14633096Y-7808952D01*
X14633096Y-7808952D02*
X14633096Y-7732762D01*
X14633096Y-7732762D02*
X14642619Y-7713714D01*
X14642619Y-7713714D02*
X14661667Y-7704190D01*
X14661667Y-7704190D02*
X14699762Y-7704190D01*
X14699762Y-7704190D02*
X14718810Y-7713714D01*
X14718810Y-7713714D02*
X14728334Y-7732762D01*
X14728334Y-7732762D02*
X14728334Y-7751809D01*
X14728334Y-7751809D02*
X14633096Y-7770857D01*
X14804524Y-7828000D02*
X14823572Y-7837524D01*
X14823572Y-7837524D02*
X14861667Y-7837524D01*
X14861667Y-7837524D02*
X14880715Y-7828000D01*
X14880715Y-7828000D02*
X14890238Y-7808952D01*
X14890238Y-7808952D02*
X14890238Y-7799428D01*
X14890238Y-7799428D02*
X14880715Y-7780381D01*
X14880715Y-7780381D02*
X14861667Y-7770857D01*
X14861667Y-7770857D02*
X14833096Y-7770857D01*
X14833096Y-7770857D02*
X14814048Y-7761333D01*
X14814048Y-7761333D02*
X14804524Y-7742286D01*
X14804524Y-7742286D02*
X14804524Y-7732762D01*
X14804524Y-7732762D02*
X14814048Y-7713714D01*
X14814048Y-7713714D02*
X14833096Y-7704190D01*
X14833096Y-7704190D02*
X14861667Y-7704190D01*
X14861667Y-7704190D02*
X14880715Y-7713714D01*
X14956905Y-7913714D02*
X14966429Y-7904190D01*
X14966429Y-7904190D02*
X14985477Y-7875619D01*
X14985477Y-7875619D02*
X14995000Y-7856571D01*
X14995000Y-7856571D02*
X15004524Y-7828000D01*
X15004524Y-7828000D02*
X15014048Y-7780381D01*
X15014048Y-7780381D02*
X15014048Y-7742286D01*
X15014048Y-7742286D02*
X15004524Y-7694667D01*
X15004524Y-7694667D02*
X14995000Y-7666095D01*
X14995000Y-7666095D02*
X14985477Y-7647048D01*
X14985477Y-7647048D02*
X14966429Y-7618476D01*
X14966429Y-7618476D02*
X14956905Y-7608952D01*
D10*
X10195000Y-8009000D02*
G75*
G03*
X10195000Y-8009000I-50000J0D01*
G01*
D11*
X10547381Y-8101524D02*
X10433095Y-8101524D01*
X10490238Y-8101524D02*
X10490238Y-7901524D01*
X10490238Y-7901524D02*
X10471190Y-7930095D01*
X10471190Y-7930095D02*
X10452143Y-7949143D01*
X10452143Y-7949143D02*
X10433095Y-7958667D01*
X10633095Y-8082476D02*
X10642619Y-8092000D01*
X10642619Y-8092000D02*
X10633095Y-8101524D01*
X10633095Y-8101524D02*
X10623571Y-8092000D01*
X10623571Y-8092000D02*
X10633095Y-8082476D01*
X10633095Y-8082476D02*
X10633095Y-8101524D01*
X10766429Y-7901524D02*
X10785476Y-7901524D01*
X10785476Y-7901524D02*
X10804524Y-7911048D01*
X10804524Y-7911048D02*
X10814048Y-7920571D01*
X10814048Y-7920571D02*
X10823571Y-7939619D01*
X10823571Y-7939619D02*
X10833095Y-7977714D01*
X10833095Y-7977714D02*
X10833095Y-8025333D01*
X10833095Y-8025333D02*
X10823571Y-8063428D01*
X10823571Y-8063428D02*
X10814048Y-8082476D01*
X10814048Y-8082476D02*
X10804524Y-8092000D01*
X10804524Y-8092000D02*
X10785476Y-8101524D01*
X10785476Y-8101524D02*
X10766429Y-8101524D01*
X10766429Y-8101524D02*
X10747381Y-8092000D01*
X10747381Y-8092000D02*
X10737857Y-8082476D01*
X10737857Y-8082476D02*
X10728333Y-8063428D01*
X10728333Y-8063428D02*
X10718810Y-8025333D01*
X10718810Y-8025333D02*
X10718810Y-7977714D01*
X10718810Y-7977714D02*
X10728333Y-7939619D01*
X10728333Y-7939619D02*
X10737857Y-7920571D01*
X10737857Y-7920571D02*
X10747381Y-7911048D01*
X10747381Y-7911048D02*
X10766429Y-7901524D01*
X10956905Y-7901524D02*
X10975952Y-7901524D01*
X10975952Y-7901524D02*
X10995000Y-7911048D01*
X10995000Y-7911048D02*
X11004524Y-7920571D01*
X11004524Y-7920571D02*
X11014048Y-7939619D01*
X11014048Y-7939619D02*
X11023571Y-7977714D01*
X11023571Y-7977714D02*
X11023571Y-8025333D01*
X11023571Y-8025333D02*
X11014048Y-8063428D01*
X11014048Y-8063428D02*
X11004524Y-8082476D01*
X11004524Y-8082476D02*
X10995000Y-8092000D01*
X10995000Y-8092000D02*
X10975952Y-8101524D01*
X10975952Y-8101524D02*
X10956905Y-8101524D01*
X10956905Y-8101524D02*
X10937857Y-8092000D01*
X10937857Y-8092000D02*
X10928333Y-8082476D01*
X10928333Y-8082476D02*
X10918810Y-8063428D01*
X10918810Y-8063428D02*
X10909286Y-8025333D01*
X10909286Y-8025333D02*
X10909286Y-7977714D01*
X10909286Y-7977714D02*
X10918810Y-7939619D01*
X10918810Y-7939619D02*
X10928333Y-7920571D01*
X10928333Y-7920571D02*
X10937857Y-7911048D01*
X10937857Y-7911048D02*
X10956905Y-7901524D01*
X11147381Y-7901524D02*
X11166429Y-7901524D01*
X11166429Y-7901524D02*
X11185476Y-7911048D01*
X11185476Y-7911048D02*
X11195000Y-7920571D01*
X11195000Y-7920571D02*
X11204524Y-7939619D01*
X11204524Y-7939619D02*
X11214048Y-7977714D01*
X11214048Y-7977714D02*
X11214048Y-8025333D01*
X11214048Y-8025333D02*
X11204524Y-8063428D01*
X11204524Y-8063428D02*
X11195000Y-8082476D01*
X11195000Y-8082476D02*
X11185476Y-8092000D01*
X11185476Y-8092000D02*
X11166429Y-8101524D01*
X11166429Y-8101524D02*
X11147381Y-8101524D01*
X11147381Y-8101524D02*
X11128333Y-8092000D01*
X11128333Y-8092000D02*
X11118810Y-8082476D01*
X11118810Y-8082476D02*
X11109286Y-8063428D01*
X11109286Y-8063428D02*
X11099762Y-8025333D01*
X11099762Y-8025333D02*
X11099762Y-7977714D01*
X11099762Y-7977714D02*
X11109286Y-7939619D01*
X11109286Y-7939619D02*
X11118810Y-7920571D01*
X11118810Y-7920571D02*
X11128333Y-7911048D01*
X11128333Y-7911048D02*
X11147381Y-7901524D01*
X11299762Y-8101524D02*
X11299762Y-7968190D01*
X11299762Y-7987238D02*
X11309286Y-7977714D01*
X11309286Y-7977714D02*
X11328333Y-7968190D01*
X11328333Y-7968190D02*
X11356905Y-7968190D01*
X11356905Y-7968190D02*
X11375952Y-7977714D01*
X11375952Y-7977714D02*
X11385476Y-7996762D01*
X11385476Y-7996762D02*
X11385476Y-8101524D01*
X11385476Y-7996762D02*
X11395000Y-7977714D01*
X11395000Y-7977714D02*
X11414048Y-7968190D01*
X11414048Y-7968190D02*
X11442619Y-7968190D01*
X11442619Y-7968190D02*
X11461667Y-7977714D01*
X11461667Y-7977714D02*
X11471190Y-7996762D01*
X11471190Y-7996762D02*
X11471190Y-8101524D01*
X11566429Y-8101524D02*
X11566429Y-7968190D01*
X11566429Y-7987238D02*
X11575952Y-7977714D01*
X11575952Y-7977714D02*
X11595000Y-7968190D01*
X11595000Y-7968190D02*
X11623571Y-7968190D01*
X11623571Y-7968190D02*
X11642619Y-7977714D01*
X11642619Y-7977714D02*
X11652143Y-7996762D01*
X11652143Y-7996762D02*
X11652143Y-8101524D01*
X11652143Y-7996762D02*
X11661667Y-7977714D01*
X11661667Y-7977714D02*
X11680714Y-7968190D01*
X11680714Y-7968190D02*
X11709286Y-7968190D01*
X11709286Y-7968190D02*
X11728333Y-7977714D01*
X11728333Y-7977714D02*
X11737857Y-7996762D01*
X11737857Y-7996762D02*
X11737857Y-8101524D01*
X12128333Y-7892000D02*
X11956905Y-8149143D01*
X12385476Y-7901524D02*
X12404524Y-7901524D01*
X12404524Y-7901524D02*
X12423572Y-7911048D01*
X12423572Y-7911048D02*
X12433095Y-7920571D01*
X12433095Y-7920571D02*
X12442619Y-7939619D01*
X12442619Y-7939619D02*
X12452143Y-7977714D01*
X12452143Y-7977714D02*
X12452143Y-8025333D01*
X12452143Y-8025333D02*
X12442619Y-8063428D01*
X12442619Y-8063428D02*
X12433095Y-8082476D01*
X12433095Y-8082476D02*
X12423572Y-8092000D01*
X12423572Y-8092000D02*
X12404524Y-8101524D01*
X12404524Y-8101524D02*
X12385476Y-8101524D01*
X12385476Y-8101524D02*
X12366429Y-8092000D01*
X12366429Y-8092000D02*
X12356905Y-8082476D01*
X12356905Y-8082476D02*
X12347381Y-8063428D01*
X12347381Y-8063428D02*
X12337857Y-8025333D01*
X12337857Y-8025333D02*
X12337857Y-7977714D01*
X12337857Y-7977714D02*
X12347381Y-7939619D01*
X12347381Y-7939619D02*
X12356905Y-7920571D01*
X12356905Y-7920571D02*
X12366429Y-7911048D01*
X12366429Y-7911048D02*
X12385476Y-7901524D01*
X12537857Y-8082476D02*
X12547381Y-8092000D01*
X12547381Y-8092000D02*
X12537857Y-8101524D01*
X12537857Y-8101524D02*
X12528333Y-8092000D01*
X12528333Y-8092000D02*
X12537857Y-8082476D01*
X12537857Y-8082476D02*
X12537857Y-8101524D01*
X12671191Y-7901524D02*
X12690238Y-7901524D01*
X12690238Y-7901524D02*
X12709286Y-7911048D01*
X12709286Y-7911048D02*
X12718810Y-7920571D01*
X12718810Y-7920571D02*
X12728333Y-7939619D01*
X12728333Y-7939619D02*
X12737857Y-7977714D01*
X12737857Y-7977714D02*
X12737857Y-8025333D01*
X12737857Y-8025333D02*
X12728333Y-8063428D01*
X12728333Y-8063428D02*
X12718810Y-8082476D01*
X12718810Y-8082476D02*
X12709286Y-8092000D01*
X12709286Y-8092000D02*
X12690238Y-8101524D01*
X12690238Y-8101524D02*
X12671191Y-8101524D01*
X12671191Y-8101524D02*
X12652143Y-8092000D01*
X12652143Y-8092000D02*
X12642619Y-8082476D01*
X12642619Y-8082476D02*
X12633095Y-8063428D01*
X12633095Y-8063428D02*
X12623572Y-8025333D01*
X12623572Y-8025333D02*
X12623572Y-7977714D01*
X12623572Y-7977714D02*
X12633095Y-7939619D01*
X12633095Y-7939619D02*
X12642619Y-7920571D01*
X12642619Y-7920571D02*
X12652143Y-7911048D01*
X12652143Y-7911048D02*
X12671191Y-7901524D01*
X12804524Y-7901524D02*
X12928333Y-7901524D01*
X12928333Y-7901524D02*
X12861667Y-7977714D01*
X12861667Y-7977714D02*
X12890238Y-7977714D01*
X12890238Y-7977714D02*
X12909286Y-7987238D01*
X12909286Y-7987238D02*
X12918810Y-7996762D01*
X12918810Y-7996762D02*
X12928333Y-8015809D01*
X12928333Y-8015809D02*
X12928333Y-8063428D01*
X12928333Y-8063428D02*
X12918810Y-8082476D01*
X12918810Y-8082476D02*
X12909286Y-8092000D01*
X12909286Y-8092000D02*
X12890238Y-8101524D01*
X12890238Y-8101524D02*
X12833095Y-8101524D01*
X12833095Y-8101524D02*
X12814048Y-8092000D01*
X12814048Y-8092000D02*
X12804524Y-8082476D01*
X13023572Y-8101524D02*
X13061667Y-8101524D01*
X13061667Y-8101524D02*
X13080714Y-8092000D01*
X13080714Y-8092000D02*
X13090238Y-8082476D01*
X13090238Y-8082476D02*
X13109286Y-8053905D01*
X13109286Y-8053905D02*
X13118810Y-8015809D01*
X13118810Y-8015809D02*
X13118810Y-7939619D01*
X13118810Y-7939619D02*
X13109286Y-7920571D01*
X13109286Y-7920571D02*
X13099762Y-7911048D01*
X13099762Y-7911048D02*
X13080714Y-7901524D01*
X13080714Y-7901524D02*
X13042619Y-7901524D01*
X13042619Y-7901524D02*
X13023572Y-7911048D01*
X13023572Y-7911048D02*
X13014048Y-7920571D01*
X13014048Y-7920571D02*
X13004524Y-7939619D01*
X13004524Y-7939619D02*
X13004524Y-7987238D01*
X13004524Y-7987238D02*
X13014048Y-8006286D01*
X13014048Y-8006286D02*
X13023572Y-8015809D01*
X13023572Y-8015809D02*
X13042619Y-8025333D01*
X13042619Y-8025333D02*
X13080714Y-8025333D01*
X13080714Y-8025333D02*
X13099762Y-8015809D01*
X13099762Y-8015809D02*
X13109286Y-8006286D01*
X13109286Y-8006286D02*
X13118810Y-7987238D01*
X13290238Y-7968190D02*
X13290238Y-8101524D01*
X13242619Y-7892000D02*
X13195000Y-8034857D01*
X13195000Y-8034857D02*
X13318810Y-8034857D01*
X13385476Y-7901524D02*
X13385476Y-7939619D01*
X13461667Y-7901524D02*
X13461667Y-7939619D01*
X13756905Y-8177714D02*
X13747381Y-8168190D01*
X13747381Y-8168190D02*
X13728334Y-8139619D01*
X13728334Y-8139619D02*
X13718810Y-8120571D01*
X13718810Y-8120571D02*
X13709286Y-8092000D01*
X13709286Y-8092000D02*
X13699762Y-8044381D01*
X13699762Y-8044381D02*
X13699762Y-8006286D01*
X13699762Y-8006286D02*
X13709286Y-7958667D01*
X13709286Y-7958667D02*
X13718810Y-7930095D01*
X13718810Y-7930095D02*
X13728334Y-7911048D01*
X13728334Y-7911048D02*
X13747381Y-7882476D01*
X13747381Y-7882476D02*
X13756905Y-7872952D01*
X13928334Y-7901524D02*
X13833095Y-7901524D01*
X13833095Y-7901524D02*
X13823572Y-7996762D01*
X13823572Y-7996762D02*
X13833095Y-7987238D01*
X13833095Y-7987238D02*
X13852143Y-7977714D01*
X13852143Y-7977714D02*
X13899762Y-7977714D01*
X13899762Y-7977714D02*
X13918810Y-7987238D01*
X13918810Y-7987238D02*
X13928334Y-7996762D01*
X13928334Y-7996762D02*
X13937857Y-8015809D01*
X13937857Y-8015809D02*
X13937857Y-8063428D01*
X13937857Y-8063428D02*
X13928334Y-8082476D01*
X13928334Y-8082476D02*
X13918810Y-8092000D01*
X13918810Y-8092000D02*
X13899762Y-8101524D01*
X13899762Y-8101524D02*
X13852143Y-8101524D01*
X13852143Y-8101524D02*
X13833095Y-8092000D01*
X13833095Y-8092000D02*
X13823572Y-8082476D01*
X14175953Y-8101524D02*
X14175953Y-7901524D01*
X14261667Y-8101524D02*
X14261667Y-7996762D01*
X14261667Y-7996762D02*
X14252143Y-7977714D01*
X14252143Y-7977714D02*
X14233096Y-7968190D01*
X14233096Y-7968190D02*
X14204524Y-7968190D01*
X14204524Y-7968190D02*
X14185476Y-7977714D01*
X14185476Y-7977714D02*
X14175953Y-7987238D01*
X14385476Y-8101524D02*
X14366429Y-8092000D01*
X14366429Y-8092000D02*
X14356905Y-8082476D01*
X14356905Y-8082476D02*
X14347381Y-8063428D01*
X14347381Y-8063428D02*
X14347381Y-8006286D01*
X14347381Y-8006286D02*
X14356905Y-7987238D01*
X14356905Y-7987238D02*
X14366429Y-7977714D01*
X14366429Y-7977714D02*
X14385476Y-7968190D01*
X14385476Y-7968190D02*
X14414048Y-7968190D01*
X14414048Y-7968190D02*
X14433096Y-7977714D01*
X14433096Y-7977714D02*
X14442619Y-7987238D01*
X14442619Y-7987238D02*
X14452143Y-8006286D01*
X14452143Y-8006286D02*
X14452143Y-8063428D01*
X14452143Y-8063428D02*
X14442619Y-8082476D01*
X14442619Y-8082476D02*
X14433096Y-8092000D01*
X14433096Y-8092000D02*
X14414048Y-8101524D01*
X14414048Y-8101524D02*
X14385476Y-8101524D01*
X14566429Y-8101524D02*
X14547381Y-8092000D01*
X14547381Y-8092000D02*
X14537857Y-8072952D01*
X14537857Y-8072952D02*
X14537857Y-7901524D01*
X14718810Y-8092000D02*
X14699762Y-8101524D01*
X14699762Y-8101524D02*
X14661667Y-8101524D01*
X14661667Y-8101524D02*
X14642619Y-8092000D01*
X14642619Y-8092000D02*
X14633096Y-8072952D01*
X14633096Y-8072952D02*
X14633096Y-7996762D01*
X14633096Y-7996762D02*
X14642619Y-7977714D01*
X14642619Y-7977714D02*
X14661667Y-7968190D01*
X14661667Y-7968190D02*
X14699762Y-7968190D01*
X14699762Y-7968190D02*
X14718810Y-7977714D01*
X14718810Y-7977714D02*
X14728334Y-7996762D01*
X14728334Y-7996762D02*
X14728334Y-8015809D01*
X14728334Y-8015809D02*
X14633096Y-8034857D01*
X14804524Y-8092000D02*
X14823572Y-8101524D01*
X14823572Y-8101524D02*
X14861667Y-8101524D01*
X14861667Y-8101524D02*
X14880715Y-8092000D01*
X14880715Y-8092000D02*
X14890238Y-8072952D01*
X14890238Y-8072952D02*
X14890238Y-8063428D01*
X14890238Y-8063428D02*
X14880715Y-8044381D01*
X14880715Y-8044381D02*
X14861667Y-8034857D01*
X14861667Y-8034857D02*
X14833096Y-8034857D01*
X14833096Y-8034857D02*
X14814048Y-8025333D01*
X14814048Y-8025333D02*
X14804524Y-8006286D01*
X14804524Y-8006286D02*
X14804524Y-7996762D01*
X14804524Y-7996762D02*
X14814048Y-7977714D01*
X14814048Y-7977714D02*
X14833096Y-7968190D01*
X14833096Y-7968190D02*
X14861667Y-7968190D01*
X14861667Y-7968190D02*
X14880715Y-7977714D01*
X14956905Y-8177714D02*
X14966429Y-8168190D01*
X14966429Y-8168190D02*
X14985477Y-8139619D01*
X14985477Y-8139619D02*
X14995000Y-8120571D01*
X14995000Y-8120571D02*
X15004524Y-8092000D01*
X15004524Y-8092000D02*
X15014048Y-8044381D01*
X15014048Y-8044381D02*
X15014048Y-8006286D01*
X15014048Y-8006286D02*
X15004524Y-7958667D01*
X15004524Y-7958667D02*
X14995000Y-7930095D01*
X14995000Y-7930095D02*
X14985477Y-7911048D01*
X14985477Y-7911048D02*
X14966429Y-7882476D01*
X14966429Y-7882476D02*
X14956905Y-7872952D01*
X10095000Y-8173000D02*
X10095000Y-8373000D01*
X9995000Y-8273000D02*
X10195000Y-8273000D01*
X10423571Y-8165524D02*
X10547381Y-8165524D01*
X10547381Y-8165524D02*
X10480714Y-8241714D01*
X10480714Y-8241714D02*
X10509286Y-8241714D01*
X10509286Y-8241714D02*
X10528333Y-8251238D01*
X10528333Y-8251238D02*
X10537857Y-8260762D01*
X10537857Y-8260762D02*
X10547381Y-8279809D01*
X10547381Y-8279809D02*
X10547381Y-8327428D01*
X10547381Y-8327428D02*
X10537857Y-8346476D01*
X10537857Y-8346476D02*
X10528333Y-8356000D01*
X10528333Y-8356000D02*
X10509286Y-8365524D01*
X10509286Y-8365524D02*
X10452143Y-8365524D01*
X10452143Y-8365524D02*
X10433095Y-8356000D01*
X10433095Y-8356000D02*
X10423571Y-8346476D01*
X10633095Y-8346476D02*
X10642619Y-8356000D01*
X10642619Y-8356000D02*
X10633095Y-8365524D01*
X10633095Y-8365524D02*
X10623571Y-8356000D01*
X10623571Y-8356000D02*
X10633095Y-8346476D01*
X10633095Y-8346476D02*
X10633095Y-8365524D01*
X10718810Y-8184571D02*
X10728333Y-8175048D01*
X10728333Y-8175048D02*
X10747381Y-8165524D01*
X10747381Y-8165524D02*
X10795000Y-8165524D01*
X10795000Y-8165524D02*
X10814048Y-8175048D01*
X10814048Y-8175048D02*
X10823571Y-8184571D01*
X10823571Y-8184571D02*
X10833095Y-8203619D01*
X10833095Y-8203619D02*
X10833095Y-8222667D01*
X10833095Y-8222667D02*
X10823571Y-8251238D01*
X10823571Y-8251238D02*
X10709286Y-8365524D01*
X10709286Y-8365524D02*
X10833095Y-8365524D01*
X10956905Y-8165524D02*
X10975952Y-8165524D01*
X10975952Y-8165524D02*
X10995000Y-8175048D01*
X10995000Y-8175048D02*
X11004524Y-8184571D01*
X11004524Y-8184571D02*
X11014048Y-8203619D01*
X11014048Y-8203619D02*
X11023571Y-8241714D01*
X11023571Y-8241714D02*
X11023571Y-8289333D01*
X11023571Y-8289333D02*
X11014048Y-8327428D01*
X11014048Y-8327428D02*
X11004524Y-8346476D01*
X11004524Y-8346476D02*
X10995000Y-8356000D01*
X10995000Y-8356000D02*
X10975952Y-8365524D01*
X10975952Y-8365524D02*
X10956905Y-8365524D01*
X10956905Y-8365524D02*
X10937857Y-8356000D01*
X10937857Y-8356000D02*
X10928333Y-8346476D01*
X10928333Y-8346476D02*
X10918810Y-8327428D01*
X10918810Y-8327428D02*
X10909286Y-8289333D01*
X10909286Y-8289333D02*
X10909286Y-8241714D01*
X10909286Y-8241714D02*
X10918810Y-8203619D01*
X10918810Y-8203619D02*
X10928333Y-8184571D01*
X10928333Y-8184571D02*
X10937857Y-8175048D01*
X10937857Y-8175048D02*
X10956905Y-8165524D01*
X11147381Y-8165524D02*
X11166429Y-8165524D01*
X11166429Y-8165524D02*
X11185476Y-8175048D01*
X11185476Y-8175048D02*
X11195000Y-8184571D01*
X11195000Y-8184571D02*
X11204524Y-8203619D01*
X11204524Y-8203619D02*
X11214048Y-8241714D01*
X11214048Y-8241714D02*
X11214048Y-8289333D01*
X11214048Y-8289333D02*
X11204524Y-8327428D01*
X11204524Y-8327428D02*
X11195000Y-8346476D01*
X11195000Y-8346476D02*
X11185476Y-8356000D01*
X11185476Y-8356000D02*
X11166429Y-8365524D01*
X11166429Y-8365524D02*
X11147381Y-8365524D01*
X11147381Y-8365524D02*
X11128333Y-8356000D01*
X11128333Y-8356000D02*
X11118810Y-8346476D01*
X11118810Y-8346476D02*
X11109286Y-8327428D01*
X11109286Y-8327428D02*
X11099762Y-8289333D01*
X11099762Y-8289333D02*
X11099762Y-8241714D01*
X11099762Y-8241714D02*
X11109286Y-8203619D01*
X11109286Y-8203619D02*
X11118810Y-8184571D01*
X11118810Y-8184571D02*
X11128333Y-8175048D01*
X11128333Y-8175048D02*
X11147381Y-8165524D01*
X11299762Y-8365524D02*
X11299762Y-8232190D01*
X11299762Y-8251238D02*
X11309286Y-8241714D01*
X11309286Y-8241714D02*
X11328333Y-8232190D01*
X11328333Y-8232190D02*
X11356905Y-8232190D01*
X11356905Y-8232190D02*
X11375952Y-8241714D01*
X11375952Y-8241714D02*
X11385476Y-8260762D01*
X11385476Y-8260762D02*
X11385476Y-8365524D01*
X11385476Y-8260762D02*
X11395000Y-8241714D01*
X11395000Y-8241714D02*
X11414048Y-8232190D01*
X11414048Y-8232190D02*
X11442619Y-8232190D01*
X11442619Y-8232190D02*
X11461667Y-8241714D01*
X11461667Y-8241714D02*
X11471190Y-8260762D01*
X11471190Y-8260762D02*
X11471190Y-8365524D01*
X11566429Y-8365524D02*
X11566429Y-8232190D01*
X11566429Y-8251238D02*
X11575952Y-8241714D01*
X11575952Y-8241714D02*
X11595000Y-8232190D01*
X11595000Y-8232190D02*
X11623571Y-8232190D01*
X11623571Y-8232190D02*
X11642619Y-8241714D01*
X11642619Y-8241714D02*
X11652143Y-8260762D01*
X11652143Y-8260762D02*
X11652143Y-8365524D01*
X11652143Y-8260762D02*
X11661667Y-8241714D01*
X11661667Y-8241714D02*
X11680714Y-8232190D01*
X11680714Y-8232190D02*
X11709286Y-8232190D01*
X11709286Y-8232190D02*
X11728333Y-8241714D01*
X11728333Y-8241714D02*
X11737857Y-8260762D01*
X11737857Y-8260762D02*
X11737857Y-8365524D01*
X12128333Y-8156000D02*
X11956905Y-8413143D01*
X12385476Y-8165524D02*
X12404524Y-8165524D01*
X12404524Y-8165524D02*
X12423572Y-8175048D01*
X12423572Y-8175048D02*
X12433095Y-8184571D01*
X12433095Y-8184571D02*
X12442619Y-8203619D01*
X12442619Y-8203619D02*
X12452143Y-8241714D01*
X12452143Y-8241714D02*
X12452143Y-8289333D01*
X12452143Y-8289333D02*
X12442619Y-8327428D01*
X12442619Y-8327428D02*
X12433095Y-8346476D01*
X12433095Y-8346476D02*
X12423572Y-8356000D01*
X12423572Y-8356000D02*
X12404524Y-8365524D01*
X12404524Y-8365524D02*
X12385476Y-8365524D01*
X12385476Y-8365524D02*
X12366429Y-8356000D01*
X12366429Y-8356000D02*
X12356905Y-8346476D01*
X12356905Y-8346476D02*
X12347381Y-8327428D01*
X12347381Y-8327428D02*
X12337857Y-8289333D01*
X12337857Y-8289333D02*
X12337857Y-8241714D01*
X12337857Y-8241714D02*
X12347381Y-8203619D01*
X12347381Y-8203619D02*
X12356905Y-8184571D01*
X12356905Y-8184571D02*
X12366429Y-8175048D01*
X12366429Y-8175048D02*
X12385476Y-8165524D01*
X12537857Y-8346476D02*
X12547381Y-8356000D01*
X12547381Y-8356000D02*
X12537857Y-8365524D01*
X12537857Y-8365524D02*
X12528333Y-8356000D01*
X12528333Y-8356000D02*
X12537857Y-8346476D01*
X12537857Y-8346476D02*
X12537857Y-8365524D01*
X12737857Y-8365524D02*
X12623572Y-8365524D01*
X12680714Y-8365524D02*
X12680714Y-8165524D01*
X12680714Y-8165524D02*
X12661667Y-8194095D01*
X12661667Y-8194095D02*
X12642619Y-8213143D01*
X12642619Y-8213143D02*
X12623572Y-8222667D01*
X12814048Y-8184571D02*
X12823572Y-8175048D01*
X12823572Y-8175048D02*
X12842619Y-8165524D01*
X12842619Y-8165524D02*
X12890238Y-8165524D01*
X12890238Y-8165524D02*
X12909286Y-8175048D01*
X12909286Y-8175048D02*
X12918810Y-8184571D01*
X12918810Y-8184571D02*
X12928333Y-8203619D01*
X12928333Y-8203619D02*
X12928333Y-8222667D01*
X12928333Y-8222667D02*
X12918810Y-8251238D01*
X12918810Y-8251238D02*
X12804524Y-8365524D01*
X12804524Y-8365524D02*
X12928333Y-8365524D01*
X13099762Y-8165524D02*
X13061667Y-8165524D01*
X13061667Y-8165524D02*
X13042619Y-8175048D01*
X13042619Y-8175048D02*
X13033095Y-8184571D01*
X13033095Y-8184571D02*
X13014048Y-8213143D01*
X13014048Y-8213143D02*
X13004524Y-8251238D01*
X13004524Y-8251238D02*
X13004524Y-8327428D01*
X13004524Y-8327428D02*
X13014048Y-8346476D01*
X13014048Y-8346476D02*
X13023572Y-8356000D01*
X13023572Y-8356000D02*
X13042619Y-8365524D01*
X13042619Y-8365524D02*
X13080714Y-8365524D01*
X13080714Y-8365524D02*
X13099762Y-8356000D01*
X13099762Y-8356000D02*
X13109286Y-8346476D01*
X13109286Y-8346476D02*
X13118810Y-8327428D01*
X13118810Y-8327428D02*
X13118810Y-8279809D01*
X13118810Y-8279809D02*
X13109286Y-8260762D01*
X13109286Y-8260762D02*
X13099762Y-8251238D01*
X13099762Y-8251238D02*
X13080714Y-8241714D01*
X13080714Y-8241714D02*
X13042619Y-8241714D01*
X13042619Y-8241714D02*
X13023572Y-8251238D01*
X13023572Y-8251238D02*
X13014048Y-8260762D01*
X13014048Y-8260762D02*
X13004524Y-8279809D01*
X13242619Y-8165524D02*
X13261667Y-8165524D01*
X13261667Y-8165524D02*
X13280714Y-8175048D01*
X13280714Y-8175048D02*
X13290238Y-8184571D01*
X13290238Y-8184571D02*
X13299762Y-8203619D01*
X13299762Y-8203619D02*
X13309286Y-8241714D01*
X13309286Y-8241714D02*
X13309286Y-8289333D01*
X13309286Y-8289333D02*
X13299762Y-8327428D01*
X13299762Y-8327428D02*
X13290238Y-8346476D01*
X13290238Y-8346476D02*
X13280714Y-8356000D01*
X13280714Y-8356000D02*
X13261667Y-8365524D01*
X13261667Y-8365524D02*
X13242619Y-8365524D01*
X13242619Y-8365524D02*
X13223572Y-8356000D01*
X13223572Y-8356000D02*
X13214048Y-8346476D01*
X13214048Y-8346476D02*
X13204524Y-8327428D01*
X13204524Y-8327428D02*
X13195000Y-8289333D01*
X13195000Y-8289333D02*
X13195000Y-8241714D01*
X13195000Y-8241714D02*
X13204524Y-8203619D01*
X13204524Y-8203619D02*
X13214048Y-8184571D01*
X13214048Y-8184571D02*
X13223572Y-8175048D01*
X13223572Y-8175048D02*
X13242619Y-8165524D01*
X13385476Y-8165524D02*
X13385476Y-8203619D01*
X13461667Y-8165524D02*
X13461667Y-8203619D01*
X13756905Y-8441714D02*
X13747381Y-8432190D01*
X13747381Y-8432190D02*
X13728334Y-8403619D01*
X13728334Y-8403619D02*
X13718810Y-8384571D01*
X13718810Y-8384571D02*
X13709286Y-8356000D01*
X13709286Y-8356000D02*
X13699762Y-8308381D01*
X13699762Y-8308381D02*
X13699762Y-8270286D01*
X13699762Y-8270286D02*
X13709286Y-8222667D01*
X13709286Y-8222667D02*
X13718810Y-8194095D01*
X13718810Y-8194095D02*
X13728334Y-8175048D01*
X13728334Y-8175048D02*
X13747381Y-8146476D01*
X13747381Y-8146476D02*
X13756905Y-8136952D01*
X13823572Y-8184571D02*
X13833095Y-8175048D01*
X13833095Y-8175048D02*
X13852143Y-8165524D01*
X13852143Y-8165524D02*
X13899762Y-8165524D01*
X13899762Y-8165524D02*
X13918810Y-8175048D01*
X13918810Y-8175048D02*
X13928334Y-8184571D01*
X13928334Y-8184571D02*
X13937857Y-8203619D01*
X13937857Y-8203619D02*
X13937857Y-8222667D01*
X13937857Y-8222667D02*
X13928334Y-8251238D01*
X13928334Y-8251238D02*
X13814048Y-8365524D01*
X13814048Y-8365524D02*
X13937857Y-8365524D01*
X14175953Y-8365524D02*
X14175953Y-8165524D01*
X14261667Y-8365524D02*
X14261667Y-8260762D01*
X14261667Y-8260762D02*
X14252143Y-8241714D01*
X14252143Y-8241714D02*
X14233096Y-8232190D01*
X14233096Y-8232190D02*
X14204524Y-8232190D01*
X14204524Y-8232190D02*
X14185476Y-8241714D01*
X14185476Y-8241714D02*
X14175953Y-8251238D01*
X14385476Y-8365524D02*
X14366429Y-8356000D01*
X14366429Y-8356000D02*
X14356905Y-8346476D01*
X14356905Y-8346476D02*
X14347381Y-8327428D01*
X14347381Y-8327428D02*
X14347381Y-8270286D01*
X14347381Y-8270286D02*
X14356905Y-8251238D01*
X14356905Y-8251238D02*
X14366429Y-8241714D01*
X14366429Y-8241714D02*
X14385476Y-8232190D01*
X14385476Y-8232190D02*
X14414048Y-8232190D01*
X14414048Y-8232190D02*
X14433096Y-8241714D01*
X14433096Y-8241714D02*
X14442619Y-8251238D01*
X14442619Y-8251238D02*
X14452143Y-8270286D01*
X14452143Y-8270286D02*
X14452143Y-8327428D01*
X14452143Y-8327428D02*
X14442619Y-8346476D01*
X14442619Y-8346476D02*
X14433096Y-8356000D01*
X14433096Y-8356000D02*
X14414048Y-8365524D01*
X14414048Y-8365524D02*
X14385476Y-8365524D01*
X14566429Y-8365524D02*
X14547381Y-8356000D01*
X14547381Y-8356000D02*
X14537857Y-8336952D01*
X14537857Y-8336952D02*
X14537857Y-8165524D01*
X14718810Y-8356000D02*
X14699762Y-8365524D01*
X14699762Y-8365524D02*
X14661667Y-8365524D01*
X14661667Y-8365524D02*
X14642619Y-8356000D01*
X14642619Y-8356000D02*
X14633096Y-8336952D01*
X14633096Y-8336952D02*
X14633096Y-8260762D01*
X14633096Y-8260762D02*
X14642619Y-8241714D01*
X14642619Y-8241714D02*
X14661667Y-8232190D01*
X14661667Y-8232190D02*
X14699762Y-8232190D01*
X14699762Y-8232190D02*
X14718810Y-8241714D01*
X14718810Y-8241714D02*
X14728334Y-8260762D01*
X14728334Y-8260762D02*
X14728334Y-8279809D01*
X14728334Y-8279809D02*
X14633096Y-8298857D01*
X14804524Y-8356000D02*
X14823572Y-8365524D01*
X14823572Y-8365524D02*
X14861667Y-8365524D01*
X14861667Y-8365524D02*
X14880715Y-8356000D01*
X14880715Y-8356000D02*
X14890238Y-8336952D01*
X14890238Y-8336952D02*
X14890238Y-8327428D01*
X14890238Y-8327428D02*
X14880715Y-8308381D01*
X14880715Y-8308381D02*
X14861667Y-8298857D01*
X14861667Y-8298857D02*
X14833096Y-8298857D01*
X14833096Y-8298857D02*
X14814048Y-8289333D01*
X14814048Y-8289333D02*
X14804524Y-8270286D01*
X14804524Y-8270286D02*
X14804524Y-8260762D01*
X14804524Y-8260762D02*
X14814048Y-8241714D01*
X14814048Y-8241714D02*
X14833096Y-8232190D01*
X14833096Y-8232190D02*
X14861667Y-8232190D01*
X14861667Y-8232190D02*
X14880715Y-8241714D01*
X14956905Y-8441714D02*
X14966429Y-8432190D01*
X14966429Y-8432190D02*
X14985477Y-8403619D01*
X14985477Y-8403619D02*
X14995000Y-8384571D01*
X14995000Y-8384571D02*
X15004524Y-8356000D01*
X15004524Y-8356000D02*
X15014048Y-8308381D01*
X15014048Y-8308381D02*
X15014048Y-8270286D01*
X15014048Y-8270286D02*
X15004524Y-8222667D01*
X15004524Y-8222667D02*
X14995000Y-8194095D01*
X14995000Y-8194095D02*
X14985477Y-8175048D01*
X14985477Y-8175048D02*
X14966429Y-8146476D01*
X14966429Y-8146476D02*
X14956905Y-8136952D01*
M02*
