%TF.GenerationSoftware,KiCad,Pcbnew,7.0.1*%
%TF.CreationDate,2023-07-17T00:53:10+01:00*%
%TF.ProjectId,Motor Encoder Board,4d6f746f-7220-4456-9e63-6f6465722042,rev?*%
%TF.SameCoordinates,Original*%
%TF.FileFunction,Legend,Top*%
%TF.FilePolarity,Positive*%
%FSLAX46Y46*%
G04 Gerber Fmt 4.6, Leading zero omitted, Abs format (unit mm)*
G04 Created by KiCad (PCBNEW 7.0.1) date 2023-07-17 00:53:10*
%MOMM*%
%LPD*%
G01*
G04 APERTURE LIST*
G04 Aperture macros list*
%AMRoundRect*
0 Rectangle with rounded corners*
0 $1 Rounding radius*
0 $2 $3 $4 $5 $6 $7 $8 $9 X,Y pos of 4 corners*
0 Add a 4 corners polygon primitive as box body*
4,1,4,$2,$3,$4,$5,$6,$7,$8,$9,$2,$3,0*
0 Add four circle primitives for the rounded corners*
1,1,$1+$1,$2,$3*
1,1,$1+$1,$4,$5*
1,1,$1+$1,$6,$7*
1,1,$1+$1,$8,$9*
0 Add four rect primitives between the rounded corners*
20,1,$1+$1,$2,$3,$4,$5,0*
20,1,$1+$1,$4,$5,$6,$7,0*
20,1,$1+$1,$6,$7,$8,$9,0*
20,1,$1+$1,$8,$9,$2,$3,0*%
G04 Aperture macros list end*
%ADD10C,0.150000*%
%ADD11C,0.120000*%
%ADD12C,5.600000*%
%ADD13RoundRect,0.250000X-0.600000X-0.725000X0.600000X-0.725000X0.600000X0.725000X-0.600000X0.725000X0*%
%ADD14O,1.700000X1.950000*%
G04 APERTURE END LIST*
D10*
X116570000Y-59920476D02*
X116522380Y-60063333D01*
X116522380Y-60063333D02*
X116522380Y-60301428D01*
X116522380Y-60301428D02*
X116570000Y-60396666D01*
X116570000Y-60396666D02*
X116617619Y-60444285D01*
X116617619Y-60444285D02*
X116712857Y-60491904D01*
X116712857Y-60491904D02*
X116808095Y-60491904D01*
X116808095Y-60491904D02*
X116903333Y-60444285D01*
X116903333Y-60444285D02*
X116950952Y-60396666D01*
X116950952Y-60396666D02*
X116998571Y-60301428D01*
X116998571Y-60301428D02*
X117046190Y-60110952D01*
X117046190Y-60110952D02*
X117093809Y-60015714D01*
X117093809Y-60015714D02*
X117141428Y-59968095D01*
X117141428Y-59968095D02*
X117236666Y-59920476D01*
X117236666Y-59920476D02*
X117331904Y-59920476D01*
X117331904Y-59920476D02*
X117427142Y-59968095D01*
X117427142Y-59968095D02*
X117474761Y-60015714D01*
X117474761Y-60015714D02*
X117522380Y-60110952D01*
X117522380Y-60110952D02*
X117522380Y-60349047D01*
X117522380Y-60349047D02*
X117474761Y-60491904D01*
X116617619Y-61491904D02*
X116570000Y-61444285D01*
X116570000Y-61444285D02*
X116522380Y-61301428D01*
X116522380Y-61301428D02*
X116522380Y-61206190D01*
X116522380Y-61206190D02*
X116570000Y-61063333D01*
X116570000Y-61063333D02*
X116665238Y-60968095D01*
X116665238Y-60968095D02*
X116760476Y-60920476D01*
X116760476Y-60920476D02*
X116950952Y-60872857D01*
X116950952Y-60872857D02*
X117093809Y-60872857D01*
X117093809Y-60872857D02*
X117284285Y-60920476D01*
X117284285Y-60920476D02*
X117379523Y-60968095D01*
X117379523Y-60968095D02*
X117474761Y-61063333D01*
X117474761Y-61063333D02*
X117522380Y-61206190D01*
X117522380Y-61206190D02*
X117522380Y-61301428D01*
X117522380Y-61301428D02*
X117474761Y-61444285D01*
X117474761Y-61444285D02*
X117427142Y-61491904D01*
X116522380Y-62396666D02*
X116522380Y-61920476D01*
X116522380Y-61920476D02*
X117522380Y-61920476D01*
X114070000Y-59920476D02*
X114022380Y-60063333D01*
X114022380Y-60063333D02*
X114022380Y-60301428D01*
X114022380Y-60301428D02*
X114070000Y-60396666D01*
X114070000Y-60396666D02*
X114117619Y-60444285D01*
X114117619Y-60444285D02*
X114212857Y-60491904D01*
X114212857Y-60491904D02*
X114308095Y-60491904D01*
X114308095Y-60491904D02*
X114403333Y-60444285D01*
X114403333Y-60444285D02*
X114450952Y-60396666D01*
X114450952Y-60396666D02*
X114498571Y-60301428D01*
X114498571Y-60301428D02*
X114546190Y-60110952D01*
X114546190Y-60110952D02*
X114593809Y-60015714D01*
X114593809Y-60015714D02*
X114641428Y-59968095D01*
X114641428Y-59968095D02*
X114736666Y-59920476D01*
X114736666Y-59920476D02*
X114831904Y-59920476D01*
X114831904Y-59920476D02*
X114927142Y-59968095D01*
X114927142Y-59968095D02*
X114974761Y-60015714D01*
X114974761Y-60015714D02*
X115022380Y-60110952D01*
X115022380Y-60110952D02*
X115022380Y-60349047D01*
X115022380Y-60349047D02*
X114974761Y-60491904D01*
X114022380Y-60920476D02*
X115022380Y-60920476D01*
X115022380Y-60920476D02*
X115022380Y-61158571D01*
X115022380Y-61158571D02*
X114974761Y-61301428D01*
X114974761Y-61301428D02*
X114879523Y-61396666D01*
X114879523Y-61396666D02*
X114784285Y-61444285D01*
X114784285Y-61444285D02*
X114593809Y-61491904D01*
X114593809Y-61491904D02*
X114450952Y-61491904D01*
X114450952Y-61491904D02*
X114260476Y-61444285D01*
X114260476Y-61444285D02*
X114165238Y-61396666D01*
X114165238Y-61396666D02*
X114070000Y-61301428D01*
X114070000Y-61301428D02*
X114022380Y-61158571D01*
X114022380Y-61158571D02*
X114022380Y-60920476D01*
X114308095Y-61872857D02*
X114308095Y-62349047D01*
X114022380Y-61777619D02*
X115022380Y-62110952D01*
X115022380Y-62110952D02*
X114022380Y-62444285D01*
G36*
X110705676Y-55000790D02*
G01*
X110779788Y-55074902D01*
X110818282Y-55151888D01*
X110861666Y-55325424D01*
X110861666Y-55449813D01*
X110818282Y-55623345D01*
X110779788Y-55700334D01*
X110705676Y-55774447D01*
X110591161Y-55812619D01*
X110440238Y-55812619D01*
X110440238Y-54962619D01*
X110591163Y-54962619D01*
X110705676Y-55000790D01*
G37*
G36*
X109705676Y-55000790D02*
G01*
X109779788Y-55074902D01*
X109818282Y-55151888D01*
X109861666Y-55325424D01*
X109861666Y-55449813D01*
X109818282Y-55623345D01*
X109779788Y-55700334D01*
X109705676Y-55774447D01*
X109591161Y-55812619D01*
X109440238Y-55812619D01*
X109440238Y-54962619D01*
X109591163Y-54962619D01*
X109705676Y-55000790D01*
G37*
G36*
X108832609Y-55526904D02*
G01*
X108564533Y-55526904D01*
X108698571Y-55124790D01*
X108832609Y-55526904D01*
G37*
G36*
X118225574Y-55377830D02*
G01*
X118255979Y-55408235D01*
X118290238Y-55476751D01*
X118290238Y-55679436D01*
X118255979Y-55747953D01*
X118225571Y-55778361D01*
X118157057Y-55812619D01*
X118001992Y-55812619D01*
X117933474Y-55778360D01*
X117903066Y-55747951D01*
X117868810Y-55679437D01*
X117868810Y-55476753D01*
X117903069Y-55408235D01*
X117933474Y-55377829D01*
X118001990Y-55343571D01*
X118157056Y-55343571D01*
X118225574Y-55377830D01*
G37*
G36*
X115463669Y-54996878D02*
G01*
X115494074Y-55027283D01*
X115532568Y-55104269D01*
X115575952Y-55277805D01*
X115575952Y-55497432D01*
X115532568Y-55670964D01*
X115494074Y-55747953D01*
X115463666Y-55778361D01*
X115395152Y-55812619D01*
X115335325Y-55812619D01*
X115266807Y-55778360D01*
X115236399Y-55747951D01*
X115197907Y-55670966D01*
X115154524Y-55497432D01*
X115154524Y-55277806D01*
X115197907Y-55104272D01*
X115236402Y-55027283D01*
X115266807Y-54996877D01*
X115335323Y-54962619D01*
X115395151Y-54962619D01*
X115463669Y-54996878D01*
G37*
G36*
X111797002Y-54996878D02*
G01*
X111827407Y-55027283D01*
X111861666Y-55095799D01*
X111861666Y-55203246D01*
X111827407Y-55271763D01*
X111797000Y-55302170D01*
X111728485Y-55336428D01*
X111607205Y-55336428D01*
X111589160Y-55334558D01*
X111585460Y-55336428D01*
X111440238Y-55336428D01*
X111440238Y-54962619D01*
X111728484Y-54962619D01*
X111797002Y-54996878D01*
G37*
G36*
X119098572Y-56377857D02*
G01*
X107902143Y-56377857D01*
X107902143Y-55906916D01*
X108289492Y-55906916D01*
X108311949Y-55944804D01*
X108351325Y-55964536D01*
X108395118Y-55959849D01*
X108429425Y-55932228D01*
X108514533Y-55676904D01*
X108882609Y-55676904D01*
X108964162Y-55921564D01*
X108982885Y-55948504D01*
X109023584Y-55965340D01*
X109066924Y-55957500D01*
X109099146Y-55927474D01*
X109106465Y-55898743D01*
X109287868Y-55898743D01*
X109294787Y-55913895D01*
X109299481Y-55929879D01*
X109303793Y-55933615D01*
X109306164Y-55938807D01*
X109320180Y-55947814D01*
X109332767Y-55958721D01*
X109338413Y-55959532D01*
X109343216Y-55962619D01*
X109359878Y-55962619D01*
X109376362Y-55964989D01*
X109381552Y-55962619D01*
X109593931Y-55962619D01*
X109606158Y-55965734D01*
X109625770Y-55959196D01*
X109645593Y-55953376D01*
X109646551Y-55952269D01*
X109766077Y-55912427D01*
X109783651Y-55908605D01*
X109793512Y-55898743D01*
X110287868Y-55898743D01*
X110294787Y-55913895D01*
X110299481Y-55929879D01*
X110303793Y-55933615D01*
X110306164Y-55938807D01*
X110320180Y-55947814D01*
X110332767Y-55958721D01*
X110338413Y-55959532D01*
X110343216Y-55962619D01*
X110359878Y-55962619D01*
X110376362Y-55964989D01*
X110381552Y-55962619D01*
X110593931Y-55962619D01*
X110606158Y-55965734D01*
X110625770Y-55959196D01*
X110645593Y-55953376D01*
X110646551Y-55952269D01*
X110766077Y-55912427D01*
X110783651Y-55908605D01*
X110794491Y-55897764D01*
X110807075Y-55889019D01*
X110809782Y-55882472D01*
X110887812Y-55804442D01*
X110898662Y-55797999D01*
X110907912Y-55779498D01*
X110917808Y-55761375D01*
X110917703Y-55759915D01*
X110950155Y-55695012D01*
X110956467Y-55689078D01*
X110959811Y-55675700D01*
X110960951Y-55673421D01*
X110962414Y-55665288D01*
X111006433Y-55489210D01*
X111011666Y-55481069D01*
X111011666Y-55468281D01*
X111012042Y-55466777D01*
X111011666Y-55457531D01*
X111011666Y-55422552D01*
X111287868Y-55422552D01*
X111290238Y-55427742D01*
X111290238Y-55898401D01*
X111299481Y-55929879D01*
X111332767Y-55958721D01*
X111376362Y-55964989D01*
X111416426Y-55946693D01*
X111440238Y-55909641D01*
X111440238Y-55486428D01*
X111564284Y-55486428D01*
X111881407Y-55939462D01*
X111907030Y-55959949D01*
X111950839Y-55964489D01*
X111990148Y-55944624D01*
X112012478Y-55906660D01*
X112010737Y-55862651D01*
X111869334Y-55660647D01*
X113049773Y-55660647D01*
X113068069Y-55700711D01*
X113105121Y-55724523D01*
X113899830Y-55724523D01*
X113931308Y-55715280D01*
X113960150Y-55681994D01*
X113966418Y-55638399D01*
X113948122Y-55598335D01*
X113911070Y-55574523D01*
X113116361Y-55574523D01*
X113084883Y-55583766D01*
X113056041Y-55617052D01*
X113049773Y-55660647D01*
X111869334Y-55660647D01*
X111759326Y-55503492D01*
X115001422Y-55503492D01*
X115004524Y-55515900D01*
X115004524Y-55517448D01*
X115007128Y-55526317D01*
X115051142Y-55702372D01*
X115050212Y-55710986D01*
X115056378Y-55723319D01*
X115056997Y-55725792D01*
X115061179Y-55732919D01*
X115103474Y-55817509D01*
X115106157Y-55829840D01*
X115120776Y-55844460D01*
X115134846Y-55859586D01*
X115136264Y-55859948D01*
X115162698Y-55886383D01*
X115169143Y-55897234D01*
X115187654Y-55906489D01*
X115205765Y-55916379D01*
X115207224Y-55916274D01*
X115280470Y-55952897D01*
X115295597Y-55962619D01*
X115310927Y-55962619D01*
X115326010Y-55965333D01*
X115332554Y-55962619D01*
X115408817Y-55962619D01*
X115426701Y-55964550D01*
X115440414Y-55957693D01*
X115455117Y-55953376D01*
X115459755Y-55948022D01*
X115533223Y-55911287D01*
X115545557Y-55908605D01*
X115560188Y-55893972D01*
X115574971Y-55880223D01*
X115906471Y-55880223D01*
X115914825Y-55923467D01*
X115945232Y-55955329D01*
X115988039Y-55965695D01*
X116029654Y-55951272D01*
X116246190Y-55675679D01*
X116455782Y-55942434D01*
X116482498Y-55961475D01*
X116526491Y-55963589D01*
X116564643Y-55941584D01*
X116584842Y-55902445D01*
X116580675Y-55858599D01*
X116524264Y-55786803D01*
X116715843Y-55786803D01*
X116725205Y-55829840D01*
X116781746Y-55886383D01*
X116788191Y-55897234D01*
X116806702Y-55906489D01*
X116824813Y-55916379D01*
X116826272Y-55916274D01*
X116899518Y-55952897D01*
X116914645Y-55962619D01*
X116929975Y-55962619D01*
X116945058Y-55965333D01*
X116951602Y-55962619D01*
X117218341Y-55962619D01*
X117236225Y-55964550D01*
X117249938Y-55957693D01*
X117264641Y-55953376D01*
X117269279Y-55948022D01*
X117342747Y-55911287D01*
X117355081Y-55908605D01*
X117369712Y-55893972D01*
X117384825Y-55879916D01*
X117385187Y-55878496D01*
X117411621Y-55852062D01*
X117422472Y-55845618D01*
X117431728Y-55827104D01*
X117441618Y-55808994D01*
X117441513Y-55807534D01*
X117478135Y-55734290D01*
X117487857Y-55719164D01*
X117487857Y-55703834D01*
X117490571Y-55688751D01*
X117487857Y-55682207D01*
X117487857Y-55467438D01*
X117716096Y-55467438D01*
X117718810Y-55473982D01*
X117718810Y-55693102D01*
X117716879Y-55710986D01*
X117723735Y-55724699D01*
X117728053Y-55739402D01*
X117733406Y-55744040D01*
X117770141Y-55817509D01*
X117772824Y-55829840D01*
X117787443Y-55844460D01*
X117801513Y-55859586D01*
X117802931Y-55859948D01*
X117829365Y-55886383D01*
X117835810Y-55897234D01*
X117854321Y-55906489D01*
X117872432Y-55916379D01*
X117873891Y-55916274D01*
X117947137Y-55952897D01*
X117962264Y-55962619D01*
X117977594Y-55962619D01*
X117992677Y-55965333D01*
X117999221Y-55962619D01*
X118170722Y-55962619D01*
X118188606Y-55964550D01*
X118202319Y-55957693D01*
X118217022Y-55953376D01*
X118221660Y-55948022D01*
X118295128Y-55911287D01*
X118307462Y-55908605D01*
X118322093Y-55893972D01*
X118337206Y-55879916D01*
X118337568Y-55878496D01*
X118364002Y-55852062D01*
X118374853Y-55845618D01*
X118384109Y-55827104D01*
X118393999Y-55808994D01*
X118393894Y-55807534D01*
X118430516Y-55734290D01*
X118440238Y-55719164D01*
X118440238Y-55703834D01*
X118442952Y-55688751D01*
X118440238Y-55682207D01*
X118440238Y-55463078D01*
X118442168Y-55445203D01*
X118435313Y-55431493D01*
X118430995Y-55416787D01*
X118425640Y-55412147D01*
X118388906Y-55338678D01*
X118386224Y-55326348D01*
X118371604Y-55311728D01*
X118357535Y-55296603D01*
X118356116Y-55296240D01*
X118329681Y-55269805D01*
X118323238Y-55258956D01*
X118304737Y-55249705D01*
X118286615Y-55239810D01*
X118285154Y-55239914D01*
X118211913Y-55203294D01*
X118196784Y-55193571D01*
X118181454Y-55193571D01*
X118166371Y-55190857D01*
X118159827Y-55193571D01*
X117988317Y-55193571D01*
X117970442Y-55191641D01*
X117956732Y-55198495D01*
X117942026Y-55202814D01*
X117937386Y-55208168D01*
X117892515Y-55230604D01*
X117911039Y-55156506D01*
X117994951Y-55030638D01*
X118028712Y-54996877D01*
X118097228Y-54962619D01*
X118280782Y-54962619D01*
X118312260Y-54953376D01*
X118341102Y-54920090D01*
X118347370Y-54876495D01*
X118329074Y-54836431D01*
X118292022Y-54812619D01*
X118083555Y-54812619D01*
X118065680Y-54810689D01*
X118051970Y-54817543D01*
X118037264Y-54821862D01*
X118032624Y-54827216D01*
X117959155Y-54863950D01*
X117946825Y-54866633D01*
X117932205Y-54881252D01*
X117917080Y-54895322D01*
X117916717Y-54896740D01*
X117893663Y-54919794D01*
X117886479Y-54922931D01*
X117878382Y-54935075D01*
X117876010Y-54937448D01*
X117872429Y-54944005D01*
X117783791Y-55076962D01*
X117774009Y-55086160D01*
X117769188Y-55105441D01*
X117763274Y-55124401D01*
X117763889Y-55126636D01*
X117724042Y-55286026D01*
X117718810Y-55294168D01*
X117718810Y-55306956D01*
X117718434Y-55308460D01*
X117718810Y-55317706D01*
X117718810Y-55452355D01*
X117716096Y-55467438D01*
X117487857Y-55467438D01*
X117487857Y-55463078D01*
X117489787Y-55445203D01*
X117482932Y-55431493D01*
X117478614Y-55416787D01*
X117473259Y-55412147D01*
X117436525Y-55338678D01*
X117433843Y-55326348D01*
X117419223Y-55311728D01*
X117405154Y-55296603D01*
X117403735Y-55296240D01*
X117377300Y-55269805D01*
X117370857Y-55258956D01*
X117352356Y-55249705D01*
X117334234Y-55239810D01*
X117332773Y-55239914D01*
X117259532Y-55203294D01*
X117244661Y-55193736D01*
X117454928Y-54953431D01*
X117455117Y-54953376D01*
X117469421Y-54936867D01*
X117476400Y-54928892D01*
X117476477Y-54928724D01*
X117483959Y-54920090D01*
X117485532Y-54909149D01*
X117490173Y-54899116D01*
X117488601Y-54887800D01*
X117490227Y-54876495D01*
X117485635Y-54866440D01*
X117484115Y-54855492D01*
X117476677Y-54846823D01*
X117471931Y-54836431D01*
X117462630Y-54830453D01*
X117455434Y-54822067D01*
X117444490Y-54818796D01*
X117434879Y-54812619D01*
X117423824Y-54812619D01*
X117413235Y-54809454D01*
X117402260Y-54812619D01*
X116783028Y-54812619D01*
X116751550Y-54821862D01*
X116722708Y-54855148D01*
X116716440Y-54898743D01*
X116734736Y-54938807D01*
X116771788Y-54962619D01*
X117247574Y-54962619D01*
X117037451Y-55202758D01*
X117037264Y-55202814D01*
X117023046Y-55219221D01*
X117015981Y-55227297D01*
X117015902Y-55227467D01*
X117008422Y-55236100D01*
X117006849Y-55247040D01*
X117002208Y-55257074D01*
X117003779Y-55268389D01*
X117002154Y-55279695D01*
X117006745Y-55289749D01*
X117008266Y-55300698D01*
X117015703Y-55309366D01*
X117020450Y-55319759D01*
X117029750Y-55325736D01*
X117036947Y-55334123D01*
X117047890Y-55337393D01*
X117057502Y-55343571D01*
X117068557Y-55343571D01*
X117079146Y-55346736D01*
X117090121Y-55343571D01*
X117204675Y-55343571D01*
X117273193Y-55377830D01*
X117303598Y-55408235D01*
X117337857Y-55476751D01*
X117337857Y-55679436D01*
X117303598Y-55747953D01*
X117273190Y-55778361D01*
X117204676Y-55812619D01*
X116954373Y-55812619D01*
X116885855Y-55778360D01*
X116839220Y-55731723D01*
X116810426Y-55716001D01*
X116766495Y-55719143D01*
X116731236Y-55745536D01*
X116715843Y-55786803D01*
X116524264Y-55786803D01*
X116341571Y-55554284D01*
X116573730Y-55258810D01*
X116585910Y-55228348D01*
X116577556Y-55185104D01*
X116547149Y-55153242D01*
X116504342Y-55142876D01*
X116462727Y-55157299D01*
X116246190Y-55432891D01*
X116036599Y-55166137D01*
X116009883Y-55147096D01*
X115965890Y-55144982D01*
X115927738Y-55166987D01*
X115907539Y-55206126D01*
X115911706Y-55249972D01*
X116150809Y-55554286D01*
X115918651Y-55849761D01*
X115906471Y-55880223D01*
X115574971Y-55880223D01*
X115575301Y-55879916D01*
X115575663Y-55878496D01*
X115602097Y-55852062D01*
X115612948Y-55845618D01*
X115622204Y-55827104D01*
X115632094Y-55808994D01*
X115631989Y-55807534D01*
X115664441Y-55742631D01*
X115670753Y-55736697D01*
X115674097Y-55723319D01*
X115675237Y-55721040D01*
X115676700Y-55712907D01*
X115720719Y-55536829D01*
X115725952Y-55528688D01*
X115725952Y-55515900D01*
X115726328Y-55514396D01*
X115725952Y-55505150D01*
X115725952Y-55280914D01*
X115729054Y-55271745D01*
X115725952Y-55259337D01*
X115725952Y-55257789D01*
X115723347Y-55248919D01*
X115679333Y-55072862D01*
X115680263Y-55064251D01*
X115674097Y-55051920D01*
X115673479Y-55049445D01*
X115669291Y-55042306D01*
X115627001Y-54957726D01*
X115624319Y-54945396D01*
X115609699Y-54930776D01*
X115595630Y-54915651D01*
X115594211Y-54915288D01*
X115567776Y-54888853D01*
X115561333Y-54878004D01*
X115542832Y-54868753D01*
X115524710Y-54858858D01*
X115523249Y-54858962D01*
X115450008Y-54822342D01*
X115434879Y-54812619D01*
X115419549Y-54812619D01*
X115404466Y-54809905D01*
X115397922Y-54812619D01*
X115321650Y-54812619D01*
X115303775Y-54810689D01*
X115290065Y-54817543D01*
X115275359Y-54821862D01*
X115270719Y-54827216D01*
X115197250Y-54863950D01*
X115184920Y-54866633D01*
X115170300Y-54881252D01*
X115155175Y-54895322D01*
X115154812Y-54896740D01*
X115128377Y-54923175D01*
X115117528Y-54929619D01*
X115108277Y-54948119D01*
X115098382Y-54966242D01*
X115098486Y-54967702D01*
X115066034Y-55032606D01*
X115059723Y-55038541D01*
X115056378Y-55051918D01*
X115055239Y-55054198D01*
X115053775Y-55062330D01*
X115009756Y-55238407D01*
X115004524Y-55246549D01*
X115004524Y-55259337D01*
X115004148Y-55260841D01*
X115004524Y-55270087D01*
X115004524Y-55494323D01*
X115001422Y-55503492D01*
X111759326Y-55503492D01*
X111747809Y-55487039D01*
X111760034Y-55488359D01*
X111773747Y-55481502D01*
X111788450Y-55477185D01*
X111793088Y-55471831D01*
X111866557Y-55435096D01*
X111878889Y-55432414D01*
X111893516Y-55417786D01*
X111908634Y-55403725D01*
X111908996Y-55402306D01*
X111935431Y-55375871D01*
X111937011Y-55374933D01*
X113049773Y-55374933D01*
X113068069Y-55414997D01*
X113105121Y-55438809D01*
X113899830Y-55438809D01*
X113931308Y-55429566D01*
X113960150Y-55396280D01*
X113966418Y-55352685D01*
X113948122Y-55312621D01*
X113911070Y-55288809D01*
X113116361Y-55288809D01*
X113084883Y-55298052D01*
X113056041Y-55331338D01*
X113049773Y-55374933D01*
X111937011Y-55374933D01*
X111946281Y-55369428D01*
X111955535Y-55350918D01*
X111965426Y-55332805D01*
X111965321Y-55331346D01*
X112001944Y-55258100D01*
X112011666Y-55242974D01*
X112011666Y-55227644D01*
X112014380Y-55212561D01*
X112011666Y-55206017D01*
X112011666Y-55082126D01*
X112013596Y-55064251D01*
X112006741Y-55050541D01*
X112002423Y-55035835D01*
X111997068Y-55031195D01*
X111960334Y-54957726D01*
X111957652Y-54945396D01*
X111943032Y-54930776D01*
X111928963Y-54915651D01*
X111927544Y-54915288D01*
X111901109Y-54888853D01*
X111894666Y-54878004D01*
X111876165Y-54868753D01*
X111858043Y-54858858D01*
X111856582Y-54858962D01*
X111783341Y-54822342D01*
X111768212Y-54812619D01*
X111752882Y-54812619D01*
X111737799Y-54809905D01*
X111731255Y-54812619D01*
X111370598Y-54812619D01*
X111354114Y-54810249D01*
X111338961Y-54817168D01*
X111322978Y-54821862D01*
X111319241Y-54826174D01*
X111314050Y-54828545D01*
X111305042Y-54842561D01*
X111294136Y-54855148D01*
X111293324Y-54860794D01*
X111290238Y-54865597D01*
X111290238Y-54882259D01*
X111287868Y-54898743D01*
X111290238Y-54903933D01*
X111290238Y-55406068D01*
X111287868Y-55422552D01*
X111011666Y-55422552D01*
X111011666Y-55328533D01*
X111014768Y-55319364D01*
X111011666Y-55306956D01*
X111011666Y-55305408D01*
X111009061Y-55296538D01*
X110965047Y-55120481D01*
X110965977Y-55111870D01*
X110959811Y-55099539D01*
X110959193Y-55097064D01*
X110955005Y-55089925D01*
X110912715Y-55005345D01*
X110910033Y-54993015D01*
X110895413Y-54978395D01*
X110881344Y-54963270D01*
X110879925Y-54962907D01*
X110802076Y-54885058D01*
X110790799Y-54871051D01*
X110776257Y-54866203D01*
X110762805Y-54858858D01*
X110755737Y-54859363D01*
X110635970Y-54819441D01*
X110625355Y-54812619D01*
X110604675Y-54812619D01*
X110584036Y-54811873D01*
X110582777Y-54812619D01*
X110370598Y-54812619D01*
X110354114Y-54810249D01*
X110338961Y-54817168D01*
X110322978Y-54821862D01*
X110319241Y-54826174D01*
X110314050Y-54828545D01*
X110305042Y-54842561D01*
X110294136Y-54855148D01*
X110293324Y-54860794D01*
X110290238Y-54865597D01*
X110290238Y-54882259D01*
X110287868Y-54898743D01*
X110290238Y-54903933D01*
X110290238Y-55882259D01*
X110287868Y-55898743D01*
X109793512Y-55898743D01*
X109794491Y-55897764D01*
X109807075Y-55889019D01*
X109809782Y-55882472D01*
X109887812Y-55804442D01*
X109898662Y-55797999D01*
X109907912Y-55779498D01*
X109917808Y-55761375D01*
X109917703Y-55759915D01*
X109950155Y-55695012D01*
X109956467Y-55689078D01*
X109959811Y-55675700D01*
X109960951Y-55673421D01*
X109962414Y-55665288D01*
X110006433Y-55489210D01*
X110011666Y-55481069D01*
X110011666Y-55468281D01*
X110012042Y-55466777D01*
X110011666Y-55457531D01*
X110011666Y-55328533D01*
X110014768Y-55319364D01*
X110011666Y-55306956D01*
X110011666Y-55305408D01*
X110009061Y-55296538D01*
X109965047Y-55120481D01*
X109965977Y-55111870D01*
X109959811Y-55099539D01*
X109959193Y-55097064D01*
X109955005Y-55089925D01*
X109912715Y-55005345D01*
X109910033Y-54993015D01*
X109895413Y-54978395D01*
X109881344Y-54963270D01*
X109879925Y-54962907D01*
X109802076Y-54885058D01*
X109790799Y-54871051D01*
X109776257Y-54866203D01*
X109762805Y-54858858D01*
X109755737Y-54859363D01*
X109635970Y-54819441D01*
X109625355Y-54812619D01*
X109604675Y-54812619D01*
X109584036Y-54811873D01*
X109582777Y-54812619D01*
X109370598Y-54812619D01*
X109354114Y-54810249D01*
X109338961Y-54817168D01*
X109322978Y-54821862D01*
X109319241Y-54826174D01*
X109314050Y-54828545D01*
X109305042Y-54842561D01*
X109294136Y-54855148D01*
X109293324Y-54860794D01*
X109290238Y-54865597D01*
X109290238Y-54882259D01*
X109287868Y-54898743D01*
X109290238Y-54903933D01*
X109290238Y-55882259D01*
X109287868Y-55898743D01*
X109106465Y-55898743D01*
X109110019Y-55884793D01*
X109013426Y-55595016D01*
X109014036Y-55590780D01*
X109006552Y-55574392D01*
X108774011Y-54876769D01*
X108774317Y-54868322D01*
X108767185Y-54856289D01*
X108766313Y-54853673D01*
X108761700Y-54847035D01*
X108751860Y-54830434D01*
X108749254Y-54829128D01*
X108747590Y-54826733D01*
X108729736Y-54819347D01*
X108712484Y-54810702D01*
X108709586Y-54811012D01*
X108706891Y-54809897D01*
X108687883Y-54813335D01*
X108668690Y-54815390D01*
X108666419Y-54817218D01*
X108663551Y-54817737D01*
X108649427Y-54830898D01*
X108634384Y-54843010D01*
X108633461Y-54845776D01*
X108631329Y-54847764D01*
X108626561Y-54866476D01*
X108394036Y-55564051D01*
X108389374Y-55569433D01*
X108387197Y-55584568D01*
X108290677Y-55874131D01*
X108289492Y-55906916D01*
X107902143Y-55906916D01*
X107902143Y-54267143D01*
X119098572Y-54267143D01*
X119098572Y-56377857D01*
G37*
X122622380Y-59972857D02*
X122622380Y-60591904D01*
X122622380Y-60591904D02*
X122241428Y-60258571D01*
X122241428Y-60258571D02*
X122241428Y-60401428D01*
X122241428Y-60401428D02*
X122193809Y-60496666D01*
X122193809Y-60496666D02*
X122146190Y-60544285D01*
X122146190Y-60544285D02*
X122050952Y-60591904D01*
X122050952Y-60591904D02*
X121812857Y-60591904D01*
X121812857Y-60591904D02*
X121717619Y-60544285D01*
X121717619Y-60544285D02*
X121670000Y-60496666D01*
X121670000Y-60496666D02*
X121622380Y-60401428D01*
X121622380Y-60401428D02*
X121622380Y-60115714D01*
X121622380Y-60115714D02*
X121670000Y-60020476D01*
X121670000Y-60020476D02*
X121717619Y-59972857D01*
X122622380Y-60877619D02*
X121622380Y-61210952D01*
X121622380Y-61210952D02*
X122622380Y-61544285D01*
X122622380Y-61782381D02*
X122622380Y-62401428D01*
X122622380Y-62401428D02*
X122241428Y-62068095D01*
X122241428Y-62068095D02*
X122241428Y-62210952D01*
X122241428Y-62210952D02*
X122193809Y-62306190D01*
X122193809Y-62306190D02*
X122146190Y-62353809D01*
X122146190Y-62353809D02*
X122050952Y-62401428D01*
X122050952Y-62401428D02*
X121812857Y-62401428D01*
X121812857Y-62401428D02*
X121717619Y-62353809D01*
X121717619Y-62353809D02*
X121670000Y-62306190D01*
X121670000Y-62306190D02*
X121622380Y-62210952D01*
X121622380Y-62210952D02*
X121622380Y-61925238D01*
X121622380Y-61925238D02*
X121670000Y-61830000D01*
X121670000Y-61830000D02*
X121717619Y-61782381D01*
X119974761Y-60491904D02*
X120022380Y-60396666D01*
X120022380Y-60396666D02*
X120022380Y-60253809D01*
X120022380Y-60253809D02*
X119974761Y-60110952D01*
X119974761Y-60110952D02*
X119879523Y-60015714D01*
X119879523Y-60015714D02*
X119784285Y-59968095D01*
X119784285Y-59968095D02*
X119593809Y-59920476D01*
X119593809Y-59920476D02*
X119450952Y-59920476D01*
X119450952Y-59920476D02*
X119260476Y-59968095D01*
X119260476Y-59968095D02*
X119165238Y-60015714D01*
X119165238Y-60015714D02*
X119070000Y-60110952D01*
X119070000Y-60110952D02*
X119022380Y-60253809D01*
X119022380Y-60253809D02*
X119022380Y-60349047D01*
X119022380Y-60349047D02*
X119070000Y-60491904D01*
X119070000Y-60491904D02*
X119117619Y-60539523D01*
X119117619Y-60539523D02*
X119450952Y-60539523D01*
X119450952Y-60539523D02*
X119450952Y-60349047D01*
X119022380Y-60968095D02*
X120022380Y-60968095D01*
X120022380Y-60968095D02*
X119022380Y-61539523D01*
X119022380Y-61539523D02*
X120022380Y-61539523D01*
X119022380Y-62015714D02*
X120022380Y-62015714D01*
X120022380Y-62015714D02*
X120022380Y-62253809D01*
X120022380Y-62253809D02*
X119974761Y-62396666D01*
X119974761Y-62396666D02*
X119879523Y-62491904D01*
X119879523Y-62491904D02*
X119784285Y-62539523D01*
X119784285Y-62539523D02*
X119593809Y-62587142D01*
X119593809Y-62587142D02*
X119450952Y-62587142D01*
X119450952Y-62587142D02*
X119260476Y-62539523D01*
X119260476Y-62539523D02*
X119165238Y-62491904D01*
X119165238Y-62491904D02*
X119070000Y-62396666D01*
X119070000Y-62396666D02*
X119022380Y-62253809D01*
X119022380Y-62253809D02*
X119022380Y-62015714D01*
X112422380Y-60158571D02*
X112422380Y-60349047D01*
X112422380Y-60349047D02*
X112374761Y-60444285D01*
X112374761Y-60444285D02*
X112279523Y-60539523D01*
X112279523Y-60539523D02*
X112089047Y-60587142D01*
X112089047Y-60587142D02*
X111755714Y-60587142D01*
X111755714Y-60587142D02*
X111565238Y-60539523D01*
X111565238Y-60539523D02*
X111470000Y-60444285D01*
X111470000Y-60444285D02*
X111422380Y-60349047D01*
X111422380Y-60349047D02*
X111422380Y-60158571D01*
X111422380Y-60158571D02*
X111470000Y-60063333D01*
X111470000Y-60063333D02*
X111565238Y-59968095D01*
X111565238Y-59968095D02*
X111755714Y-59920476D01*
X111755714Y-59920476D02*
X112089047Y-59920476D01*
X112089047Y-59920476D02*
X112279523Y-59968095D01*
X112279523Y-59968095D02*
X112374761Y-60063333D01*
X112374761Y-60063333D02*
X112422380Y-60158571D01*
X112422380Y-61015714D02*
X111612857Y-61015714D01*
X111612857Y-61015714D02*
X111517619Y-61063333D01*
X111517619Y-61063333D02*
X111470000Y-61110952D01*
X111470000Y-61110952D02*
X111422380Y-61206190D01*
X111422380Y-61206190D02*
X111422380Y-61396666D01*
X111422380Y-61396666D02*
X111470000Y-61491904D01*
X111470000Y-61491904D02*
X111517619Y-61539523D01*
X111517619Y-61539523D02*
X111612857Y-61587142D01*
X111612857Y-61587142D02*
X112422380Y-61587142D01*
X112422380Y-61920476D02*
X112422380Y-62491904D01*
X111422380Y-62206190D02*
X112422380Y-62206190D01*
D11*
%TO.C,J1*%
X109150000Y-63250000D02*
X109150000Y-64500000D01*
X109440000Y-63540000D02*
X109440000Y-69510000D01*
X109440000Y-69510000D02*
X124560000Y-69510000D01*
X109450000Y-63550000D02*
X109450000Y-64300000D01*
X109450000Y-64300000D02*
X111250000Y-64300000D01*
X109450000Y-65800000D02*
X110200000Y-65800000D01*
X110200000Y-65800000D02*
X110200000Y-68750000D01*
X110200000Y-68750000D02*
X117000000Y-68750000D01*
X110400000Y-63250000D02*
X109150000Y-63250000D01*
X111250000Y-63550000D02*
X109450000Y-63550000D01*
X111250000Y-64300000D02*
X111250000Y-63550000D01*
X112750000Y-63550000D02*
X112750000Y-64300000D01*
X112750000Y-64300000D02*
X121250000Y-64300000D01*
X121250000Y-63550000D02*
X112750000Y-63550000D01*
X121250000Y-64300000D02*
X121250000Y-63550000D01*
X122750000Y-63550000D02*
X122750000Y-64300000D01*
X122750000Y-64300000D02*
X124550000Y-64300000D01*
X123800000Y-65800000D02*
X123800000Y-68750000D01*
X123800000Y-68750000D02*
X117000000Y-68750000D01*
X124550000Y-63550000D02*
X122750000Y-63550000D01*
X124550000Y-64300000D02*
X124550000Y-63550000D01*
X124550000Y-65800000D02*
X123800000Y-65800000D01*
X124560000Y-63540000D02*
X109440000Y-63540000D01*
X124560000Y-69510000D02*
X124560000Y-63540000D01*
%TO.C,G\u002A\u002A\u002A*%
G36*
X121492622Y-56529373D02*
G01*
X121492622Y-57382590D01*
X121337492Y-57382590D01*
X121182362Y-57382590D01*
X121182362Y-56529373D01*
X121182362Y-55676157D01*
X121337492Y-55676157D01*
X121492622Y-55676157D01*
X121492622Y-56529373D01*
G37*
G36*
X122903884Y-54423806D02*
G01*
X122932782Y-54448137D01*
X122949109Y-54481726D01*
X122950847Y-54497166D01*
X122941471Y-54532940D01*
X122917141Y-54561838D01*
X122883551Y-54578164D01*
X122868111Y-54579902D01*
X122831813Y-54570235D01*
X122810760Y-54554517D01*
X122790675Y-54522137D01*
X122787398Y-54486834D01*
X122798812Y-54453782D01*
X122822798Y-54428152D01*
X122857239Y-54415119D01*
X122868111Y-54414430D01*
X122903884Y-54423806D01*
G37*
G36*
X124112433Y-54420442D02*
G01*
X124142852Y-54431622D01*
X124167314Y-54449563D01*
X124175123Y-54461433D01*
X124181335Y-54500107D01*
X124171811Y-54533956D01*
X124150412Y-54559843D01*
X124120997Y-54574631D01*
X124087427Y-54575186D01*
X124054694Y-54559276D01*
X124033931Y-54536647D01*
X124026677Y-54507681D01*
X124026417Y-54498019D01*
X124034172Y-54459029D01*
X124058201Y-54432400D01*
X124085367Y-54420292D01*
X124112433Y-54420442D01*
G37*
G36*
X122475114Y-54398917D02*
G01*
X122475114Y-54755717D01*
X122451845Y-54754517D01*
X122422703Y-54751202D01*
X122407891Y-54748326D01*
X122350416Y-54725304D01*
X122307195Y-54687673D01*
X122293776Y-54668141D01*
X122285540Y-54653482D01*
X122279301Y-54639332D01*
X122274780Y-54622690D01*
X122271702Y-54600557D01*
X122269789Y-54569930D01*
X122268765Y-54527810D01*
X122268352Y-54471195D01*
X122268274Y-54397086D01*
X122268274Y-54391781D01*
X122268354Y-54316363D01*
X122268765Y-54258717D01*
X122269763Y-54215931D01*
X122271603Y-54185093D01*
X122274542Y-54163291D01*
X122278834Y-54147614D01*
X122284737Y-54135149D01*
X122291789Y-54124044D01*
X122332325Y-54078963D01*
X122380397Y-54051080D01*
X122430104Y-54042117D01*
X122475114Y-54042117D01*
X122475114Y-54398917D01*
G37*
G36*
X124588075Y-54045843D02*
G01*
X124635800Y-54058036D01*
X124670332Y-54080221D01*
X124694814Y-54113921D01*
X124701313Y-54128044D01*
X124707432Y-54145665D01*
X124712028Y-54166958D01*
X124715305Y-54194970D01*
X124717466Y-54232747D01*
X124718717Y-54283336D01*
X124719261Y-54349784D01*
X124719332Y-54397008D01*
X124719168Y-54472481D01*
X124718520Y-54530383D01*
X124717153Y-54573826D01*
X124714833Y-54605922D01*
X124711326Y-54629781D01*
X124706397Y-54648515D01*
X124699813Y-54665237D01*
X124699003Y-54667030D01*
X124676549Y-54702337D01*
X124644415Y-54727309D01*
X124599432Y-54743482D01*
X124538432Y-54752392D01*
X124520248Y-54753668D01*
X124440098Y-54758374D01*
X124440098Y-54400246D01*
X124440098Y-54042117D01*
X124524011Y-54042117D01*
X124588075Y-54045843D01*
G37*
G36*
X124382692Y-57681961D02*
G01*
X124404081Y-57711284D01*
X124411619Y-57744782D01*
X124411892Y-57755481D01*
X124411670Y-57764992D01*
X124410246Y-57774264D01*
X124406480Y-57784560D01*
X124399236Y-57797139D01*
X124387375Y-57813262D01*
X124369760Y-57834193D01*
X124345252Y-57861190D01*
X124312714Y-57895516D01*
X124271008Y-57938432D01*
X124218995Y-57991199D01*
X124155537Y-58055078D01*
X124079498Y-58131331D01*
X124009729Y-58201202D01*
X123933403Y-58277395D01*
X123860577Y-58349655D01*
X123792715Y-58416555D01*
X123731282Y-58476674D01*
X123677743Y-58528586D01*
X123633564Y-58570869D01*
X123600208Y-58602099D01*
X123579142Y-58620851D01*
X123573308Y-58625341D01*
X123528756Y-58643563D01*
X123474542Y-58651800D01*
X123419351Y-58649616D01*
X123371868Y-58636575D01*
X123369699Y-58635557D01*
X123352385Y-58623382D01*
X123322874Y-58598250D01*
X123282796Y-58561810D01*
X123233783Y-58515708D01*
X123177465Y-58461593D01*
X123115476Y-58401110D01*
X123049445Y-58335907D01*
X122981004Y-58267631D01*
X122911785Y-58197931D01*
X122843419Y-58128452D01*
X122777538Y-58060842D01*
X122715772Y-57996748D01*
X122659754Y-57937817D01*
X122611114Y-57885698D01*
X122571484Y-57842036D01*
X122542496Y-57808479D01*
X122525780Y-57786675D01*
X122522330Y-57779969D01*
X122522740Y-57734276D01*
X122542419Y-57691925D01*
X122559167Y-57673159D01*
X122563480Y-57669350D01*
X122568593Y-57666015D01*
X122575829Y-57663123D01*
X122586513Y-57660643D01*
X122601969Y-57658543D01*
X122623523Y-57656791D01*
X122652499Y-57655356D01*
X122690220Y-57654206D01*
X122738012Y-57653309D01*
X122797200Y-57652635D01*
X122869107Y-57652151D01*
X122955058Y-57651826D01*
X123056378Y-57651628D01*
X123174390Y-57651526D01*
X123310421Y-57651488D01*
X123465794Y-57651482D01*
X123467963Y-57651482D01*
X124353492Y-57651482D01*
X124382692Y-57681961D01*
G37*
G36*
X124044516Y-55678836D02*
G01*
X124149006Y-55680440D01*
X124235419Y-55682367D01*
X124306364Y-55684943D01*
X124364448Y-55688493D01*
X124412278Y-55693344D01*
X124452462Y-55699821D01*
X124487608Y-55708249D01*
X124520323Y-55718954D01*
X124553216Y-55732263D01*
X124584027Y-55746222D01*
X124635599Y-55778106D01*
X124688422Y-55824277D01*
X124737226Y-55879397D01*
X124776740Y-55938122D01*
X124780936Y-55945774D01*
X124814397Y-56026961D01*
X124835091Y-56117708D01*
X124842971Y-56212977D01*
X124837992Y-56307729D01*
X124820106Y-56396927D01*
X124789269Y-56475531D01*
X124785844Y-56481938D01*
X124745387Y-56542194D01*
X124693775Y-56599165D01*
X124637315Y-56646430D01*
X124603542Y-56667563D01*
X124555500Y-56689772D01*
X124501514Y-56709177D01*
X124448901Y-56723548D01*
X124404974Y-56730657D01*
X124395262Y-56731043D01*
X124373014Y-56734592D01*
X124362720Y-56741082D01*
X124366972Y-56751766D01*
X124382199Y-56776518D01*
X124406789Y-56812994D01*
X124439128Y-56858849D01*
X124477604Y-56911739D01*
X124510591Y-56956039D01*
X124553959Y-57013958D01*
X124593788Y-57067605D01*
X124628179Y-57114387D01*
X124655234Y-57151710D01*
X124673056Y-57176982D01*
X124679072Y-57186205D01*
X124691530Y-57205526D01*
X124712827Y-57236122D01*
X124739300Y-57272784D01*
X124752944Y-57291239D01*
X124778471Y-57326052D01*
X124798513Y-57354457D01*
X124810361Y-57372555D01*
X124812411Y-57376808D01*
X124802829Y-57379288D01*
X124777117Y-57381157D01*
X124739828Y-57382157D01*
X124716747Y-57382245D01*
X124621083Y-57381900D01*
X124336048Y-56997005D01*
X124051012Y-56612109D01*
X124196430Y-56605690D01*
X124295464Y-56599061D01*
X124377168Y-56588131D01*
X124444628Y-56571936D01*
X124500927Y-56549512D01*
X124549150Y-56519894D01*
X124592382Y-56482118D01*
X124592676Y-56481821D01*
X124633473Y-56431531D01*
X124661048Y-56374843D01*
X124676809Y-56307701D01*
X124682164Y-56226053D01*
X124682175Y-56224284D01*
X124680174Y-56154324D01*
X124672381Y-56098534D01*
X124657275Y-56050846D01*
X124633339Y-56005190D01*
X124623528Y-55989961D01*
X124587982Y-55945714D01*
X124544619Y-55909112D01*
X124491630Y-55879636D01*
X124427204Y-55856766D01*
X124349533Y-55839984D01*
X124256807Y-55828771D01*
X124147215Y-55822606D01*
X124034445Y-55820945D01*
X123860945Y-55820945D01*
X123860945Y-56601767D01*
X123860945Y-57382590D01*
X123778209Y-57382590D01*
X123695472Y-57382590D01*
X123695472Y-56528347D01*
X123695472Y-55674105D01*
X124044516Y-55678836D01*
G37*
G36*
X122700505Y-55648961D02*
G01*
X122785002Y-55657205D01*
X122859003Y-55670785D01*
X122877129Y-55675591D01*
X122994057Y-55718725D01*
X123104796Y-55777835D01*
X123205223Y-55850290D01*
X123291211Y-55933458D01*
X123303102Y-55947283D01*
X123329611Y-55981307D01*
X123357437Y-56020885D01*
X123383812Y-56061574D01*
X123405972Y-56098932D01*
X123421148Y-56128514D01*
X123426580Y-56145581D01*
X123416802Y-56147657D01*
X123389724Y-56149429D01*
X123348729Y-56150774D01*
X123297199Y-56151574D01*
X123253351Y-56151744D01*
X123080122Y-56151598D01*
X123026078Y-56097200D01*
X122956052Y-56035900D01*
X122883108Y-55991615D01*
X122803365Y-55962813D01*
X122712943Y-55947963D01*
X122640586Y-55945049D01*
X122533223Y-55951676D01*
X122439281Y-55972257D01*
X122356014Y-56007844D01*
X122280678Y-56059488D01*
X122237248Y-56099523D01*
X122168619Y-56181051D01*
X122118070Y-56268897D01*
X122084407Y-56365789D01*
X122066436Y-56474455D01*
X122064933Y-56493176D01*
X122067610Y-56596076D01*
X122088963Y-56695190D01*
X122127212Y-56788382D01*
X122180577Y-56873519D01*
X122247279Y-56948463D01*
X122325538Y-57011082D01*
X122413576Y-57059239D01*
X122509611Y-57090800D01*
X122571552Y-57101010D01*
X122672797Y-57104564D01*
X122765000Y-57092248D01*
X122851759Y-57062927D01*
X122936666Y-57015468D01*
X123004867Y-56964349D01*
X123074400Y-56906857D01*
X123250490Y-56906857D01*
X123308234Y-56907167D01*
X123358026Y-56908027D01*
X123396511Y-56909329D01*
X123420333Y-56910968D01*
X123426580Y-56912440D01*
X123420297Y-56933717D01*
X123403259Y-56966722D01*
X123378184Y-57007487D01*
X123347791Y-57052046D01*
X123314797Y-57096431D01*
X123281921Y-57136676D01*
X123251880Y-57168814D01*
X123249127Y-57171437D01*
X123145102Y-57255706D01*
X123032191Y-57321350D01*
X122910751Y-57368250D01*
X122781136Y-57396287D01*
X122643705Y-57405341D01*
X122563021Y-57402040D01*
X122432498Y-57381847D01*
X122307144Y-57342494D01*
X122189436Y-57285104D01*
X122081852Y-57210798D01*
X122021180Y-57156588D01*
X121929698Y-57052757D01*
X121856676Y-56940005D01*
X121802473Y-56819178D01*
X121767448Y-56691125D01*
X121751960Y-56556695D01*
X121751173Y-56517919D01*
X121760682Y-56383380D01*
X121789279Y-56256707D01*
X121837071Y-56137649D01*
X121904162Y-56025953D01*
X121990658Y-55921368D01*
X122008809Y-55902766D01*
X122108958Y-55814804D01*
X122215209Y-55745867D01*
X122330026Y-55694622D01*
X122455878Y-55659732D01*
X122458654Y-55659166D01*
X122529871Y-55649648D01*
X122612975Y-55646344D01*
X122700505Y-55648961D01*
G37*
G36*
X125593335Y-55650735D02*
G01*
X125673973Y-55667905D01*
X125744529Y-55698257D01*
X125808962Y-55743282D01*
X125843676Y-55775291D01*
X125901473Y-55847357D01*
X125943267Y-55930578D01*
X125967077Y-56020903D01*
X125968419Y-56030371D01*
X125977524Y-56100179D01*
X125892118Y-56100179D01*
X125806711Y-56100179D01*
X125795189Y-56044679D01*
X125769883Y-55968450D01*
X125729414Y-55903805D01*
X125676221Y-55852434D01*
X125612744Y-55816027D01*
X125541423Y-55796273D01*
X125464698Y-55794865D01*
X125439801Y-55798491D01*
X125363340Y-55821930D01*
X125300101Y-55861144D01*
X125250736Y-55915548D01*
X125215894Y-55984557D01*
X125209038Y-56005698D01*
X125196465Y-56081812D01*
X125202609Y-56154587D01*
X125226235Y-56221264D01*
X125266102Y-56279084D01*
X125320974Y-56325289D01*
X125362200Y-56346984D01*
X125391187Y-56358025D01*
X125434204Y-56372772D01*
X125485382Y-56389277D01*
X125537445Y-56405174D01*
X125654840Y-56444171D01*
X125753045Y-56486495D01*
X125833445Y-56533394D01*
X125897429Y-56586117D01*
X125946385Y-56645913D01*
X125981700Y-56714028D01*
X126004761Y-56791713D01*
X126011761Y-56831877D01*
X126016653Y-56933952D01*
X126002887Y-57030251D01*
X125972053Y-57119207D01*
X125925747Y-57199251D01*
X125865558Y-57268817D01*
X125793081Y-57326337D01*
X125709908Y-57370244D01*
X125617631Y-57398969D01*
X125517843Y-57410946D01*
X125427761Y-57406720D01*
X125324443Y-57384540D01*
X125232111Y-57345295D01*
X125151915Y-57290115D01*
X125085004Y-57220131D01*
X125032530Y-57136474D01*
X124995642Y-57040274D01*
X124979747Y-56966323D01*
X124970672Y-56906857D01*
X125060852Y-56906857D01*
X125151032Y-56906857D01*
X125157722Y-56957289D01*
X125171875Y-57013543D01*
X125197760Y-57072745D01*
X125231286Y-57127131D01*
X125268363Y-57168935D01*
X125269931Y-57170295D01*
X125333543Y-57212252D01*
X125407655Y-57240686D01*
X125486447Y-57254322D01*
X125564098Y-57251885D01*
X125603682Y-57243386D01*
X125682624Y-57210923D01*
X125746866Y-57164297D01*
X125795659Y-57104616D01*
X125828255Y-57032990D01*
X125843906Y-56950525D01*
X125844385Y-56887052D01*
X125834938Y-56817357D01*
X125814202Y-56760246D01*
X125779592Y-56709537D01*
X125762204Y-56690599D01*
X125736571Y-56668495D01*
X125702436Y-56646769D01*
X125657429Y-56624337D01*
X125599179Y-56600119D01*
X125525314Y-56573031D01*
X125444623Y-56545667D01*
X125369608Y-56520351D01*
X125310958Y-56498980D01*
X125265142Y-56479831D01*
X125228634Y-56461179D01*
X125197905Y-56441300D01*
X125169428Y-56418469D01*
X125151962Y-56402645D01*
X125096230Y-56337425D01*
X125057835Y-56261859D01*
X125036344Y-56174958D01*
X125032004Y-56130730D01*
X125035045Y-56027475D01*
X125055733Y-55934111D01*
X125092975Y-55851773D01*
X125145679Y-55781601D01*
X125212750Y-55724730D01*
X125293095Y-55682300D01*
X125385621Y-55655446D01*
X125489234Y-55645308D01*
X125498659Y-55645253D01*
X125593335Y-55650735D01*
G37*
G36*
X123526507Y-52406142D02*
G01*
X123537270Y-52410116D01*
X123562517Y-52423406D01*
X123594829Y-52443575D01*
X123612736Y-52455911D01*
X123624660Y-52466549D01*
X123650424Y-52491139D01*
X123689295Y-52528954D01*
X123740543Y-52579265D01*
X123803438Y-52641344D01*
X123877247Y-52714462D01*
X123961240Y-52797891D01*
X124054686Y-52890902D01*
X124156854Y-52992768D01*
X124267013Y-53102759D01*
X124384431Y-53220148D01*
X124508378Y-53344206D01*
X124638123Y-53474205D01*
X124772934Y-53609416D01*
X124912081Y-53749111D01*
X125054832Y-53892561D01*
X125073547Y-53911378D01*
X126487818Y-55333429D01*
X126487818Y-55380112D01*
X126483048Y-55420275D01*
X126466609Y-55451263D01*
X126462860Y-55455812D01*
X126437902Y-55484829D01*
X125436414Y-55487562D01*
X124434927Y-55490295D01*
X124411851Y-55439978D01*
X124377272Y-55387538D01*
X124345534Y-55359680D01*
X124302294Y-55329699D01*
X123993712Y-55326678D01*
X123685130Y-55323658D01*
X123685130Y-55190076D01*
X123685130Y-55056494D01*
X123998757Y-55053479D01*
X124087489Y-55052594D01*
X124157960Y-55051706D01*
X124212591Y-55050623D01*
X124253803Y-55049151D01*
X124284020Y-55047097D01*
X124305662Y-55044267D01*
X124321150Y-55040469D01*
X124332907Y-55035508D01*
X124343355Y-55029192D01*
X124348732Y-55025542D01*
X124394514Y-54983877D01*
X124425402Y-54933670D01*
X124437040Y-54891899D01*
X124442526Y-54851000D01*
X124552488Y-54847200D01*
X124602716Y-54845048D01*
X124637699Y-54841906D01*
X124662876Y-54836559D01*
X124683685Y-54827790D01*
X124705565Y-54814383D01*
X124708725Y-54812269D01*
X124763610Y-54764043D01*
X124800795Y-54705201D01*
X124813325Y-54669585D01*
X124817135Y-54643324D01*
X124819838Y-54597793D01*
X124821397Y-54534378D01*
X124821778Y-54454466D01*
X124821059Y-54367809D01*
X124817582Y-54107673D01*
X124786282Y-54057070D01*
X124747015Y-54008878D01*
X124704693Y-53975376D01*
X124679713Y-53961014D01*
X124656760Y-53951600D01*
X124630030Y-53945843D01*
X124593721Y-53942449D01*
X124547251Y-53940318D01*
X124440098Y-53936351D01*
X124439871Y-53893571D01*
X124430266Y-53832647D01*
X124403793Y-53779736D01*
X124362947Y-53738270D01*
X124310225Y-53711680D01*
X124306837Y-53710661D01*
X124288516Y-53708388D01*
X124250383Y-53706472D01*
X124192329Y-53704911D01*
X124114243Y-53703706D01*
X124016016Y-53702855D01*
X123897537Y-53702357D01*
X123758697Y-53702211D01*
X123599386Y-53702416D01*
X123436160Y-53702909D01*
X122602865Y-53706002D01*
X122566497Y-53730924D01*
X122519191Y-53773952D01*
X122489876Y-53826654D01*
X122478330Y-53879499D01*
X122472491Y-53936076D01*
X122406105Y-53941405D01*
X122330600Y-53955674D01*
X122268732Y-53985370D01*
X122220155Y-54030673D01*
X122209543Y-54045203D01*
X122195903Y-54067260D01*
X122185176Y-54090130D01*
X122177075Y-54116464D01*
X122171314Y-54148908D01*
X122167605Y-54190111D01*
X122165662Y-54242721D01*
X122165199Y-54309384D01*
X122165928Y-54392750D01*
X122166648Y-54441358D01*
X122168082Y-54519429D01*
X122169723Y-54579684D01*
X122171812Y-54624995D01*
X122174588Y-54658231D01*
X122178294Y-54682260D01*
X122183170Y-54699954D01*
X122189455Y-54714180D01*
X122189544Y-54714349D01*
X122228535Y-54771165D01*
X122277733Y-54811393D01*
X122339199Y-54836299D01*
X122404623Y-54846514D01*
X122473749Y-54851477D01*
X122480221Y-54889785D01*
X122500455Y-54948814D01*
X122539851Y-55000184D01*
X122563899Y-55020826D01*
X122602735Y-55050464D01*
X122906066Y-55053624D01*
X123209397Y-55056784D01*
X123209398Y-55190656D01*
X123209398Y-55324528D01*
X122917235Y-55324755D01*
X122830318Y-55324939D01*
X122761505Y-55325441D01*
X122708221Y-55326408D01*
X122667887Y-55327989D01*
X122637926Y-55330332D01*
X122615761Y-55333585D01*
X122598812Y-55337897D01*
X122584504Y-55343415D01*
X122583277Y-55343967D01*
X122541563Y-55370247D01*
X122506389Y-55405803D01*
X122483270Y-55444510D01*
X122478445Y-55460418D01*
X122472529Y-55490000D01*
X121488744Y-55489634D01*
X121318471Y-55489523D01*
X121167764Y-55489316D01*
X121035505Y-55488996D01*
X120920575Y-55488548D01*
X120821857Y-55487957D01*
X120738232Y-55487206D01*
X120668582Y-55486280D01*
X120611789Y-55485164D01*
X120566735Y-55483842D01*
X120532302Y-55482298D01*
X120507371Y-55480517D01*
X120490825Y-55478483D01*
X120481546Y-55476180D01*
X120480243Y-55475568D01*
X120448535Y-55446693D01*
X120430823Y-55404772D01*
X120427761Y-55376325D01*
X120428218Y-55371556D01*
X120430078Y-55365736D01*
X120433938Y-55358255D01*
X120440396Y-55348498D01*
X120450049Y-55335854D01*
X120463495Y-55319710D01*
X120481330Y-55299453D01*
X120504152Y-55274472D01*
X120532559Y-55244153D01*
X120567148Y-55207885D01*
X120608517Y-55165054D01*
X120657262Y-55115048D01*
X120713981Y-55057255D01*
X120779272Y-54991063D01*
X120853731Y-54915858D01*
X120937957Y-54831029D01*
X121032546Y-54735962D01*
X121138097Y-54630046D01*
X121255206Y-54512668D01*
X121384471Y-54383215D01*
X121526489Y-54241075D01*
X121681857Y-54085636D01*
X121851174Y-53916285D01*
X121877862Y-53889593D01*
X122064505Y-53703004D01*
X122236964Y-53530748D01*
X122395613Y-53372459D01*
X122540821Y-53227773D01*
X122672959Y-53096325D01*
X122792399Y-52977748D01*
X122899511Y-52871679D01*
X122994666Y-52777751D01*
X123078236Y-52695600D01*
X123150590Y-52624860D01*
X123212101Y-52565167D01*
X123263138Y-52516154D01*
X123304074Y-52477457D01*
X123335277Y-52448711D01*
X123357121Y-52429551D01*
X123369975Y-52419610D01*
X123372172Y-52418354D01*
X123422619Y-52402608D01*
X123477088Y-52398386D01*
X123526507Y-52406142D01*
G37*
%TD*%
%LPC*%
D12*
%TO.C,H2*%
X129000000Y-61000000D03*
%TD*%
%TO.C,H1*%
X105000000Y-61000000D03*
%TD*%
D13*
%TO.C,J1*%
X112000000Y-66000000D03*
D14*
X114500000Y-66000000D03*
X117000000Y-66000000D03*
X119500000Y-66000000D03*
X122000000Y-66000000D03*
%TD*%
M02*
