%TF.GenerationSoftware,KiCad,Pcbnew,7.0.1*%
%TF.CreationDate,2023-07-17T00:53:10+01:00*%
%TF.ProjectId,Motor Encoder Board,4d6f746f-7220-4456-9e63-6f6465722042,rev?*%
%TF.SameCoordinates,Original*%
%TF.FileFunction,Legend,Bot*%
%TF.FilePolarity,Positive*%
%FSLAX46Y46*%
G04 Gerber Fmt 4.6, Leading zero omitted, Abs format (unit mm)*
G04 Created by KiCad (PCBNEW 7.0.1) date 2023-07-17 00:53:10*
%MOMM*%
%LPD*%
G01*
G04 APERTURE LIST*
G04 Aperture macros list*
%AMRoundRect*
0 Rectangle with rounded corners*
0 $1 Rounding radius*
0 $2 $3 $4 $5 $6 $7 $8 $9 X,Y pos of 4 corners*
0 Add a 4 corners polygon primitive as box body*
4,1,4,$2,$3,$4,$5,$6,$7,$8,$9,$2,$3,0*
0 Add four circle primitives for the rounded corners*
1,1,$1+$1,$2,$3*
1,1,$1+$1,$4,$5*
1,1,$1+$1,$6,$7*
1,1,$1+$1,$8,$9*
0 Add four rect primitives between the rounded corners*
20,1,$1+$1,$2,$3,$4,$5,0*
20,1,$1+$1,$4,$5,$6,$7,0*
20,1,$1+$1,$6,$7,$8,$9,0*
20,1,$1+$1,$8,$9,$2,$3,0*%
G04 Aperture macros list end*
%ADD10C,0.150000*%
%ADD11C,0.300000*%
%ADD12C,0.200000*%
%ADD13C,0.120000*%
%ADD14C,5.600000*%
%ADD15RoundRect,0.250000X-0.600000X-0.725000X0.600000X-0.725000X0.600000X0.725000X-0.600000X0.725000X0*%
%ADD16O,1.700000X1.950000*%
%ADD17R,1.500000X0.650000*%
%ADD18RoundRect,0.140000X-0.140000X-0.170000X0.140000X-0.170000X0.140000X0.170000X-0.140000X0.170000X0*%
%ADD19RoundRect,0.135000X0.135000X0.185000X-0.135000X0.185000X-0.135000X-0.185000X0.135000X-0.185000X0*%
%ADD20RoundRect,0.135000X-0.135000X-0.185000X0.135000X-0.185000X0.135000X0.185000X-0.135000X0.185000X0*%
G04 APERTURE END LIST*
D10*
X125160714Y-69408214D02*
X125160714Y-68658214D01*
X125160714Y-68658214D02*
X124982143Y-68658214D01*
X124982143Y-68658214D02*
X124875000Y-68693928D01*
X124875000Y-68693928D02*
X124803571Y-68765357D01*
X124803571Y-68765357D02*
X124767857Y-68836785D01*
X124767857Y-68836785D02*
X124732143Y-68979642D01*
X124732143Y-68979642D02*
X124732143Y-69086785D01*
X124732143Y-69086785D02*
X124767857Y-69229642D01*
X124767857Y-69229642D02*
X124803571Y-69301071D01*
X124803571Y-69301071D02*
X124875000Y-69372500D01*
X124875000Y-69372500D02*
X124982143Y-69408214D01*
X124982143Y-69408214D02*
X125160714Y-69408214D01*
X124125000Y-69372500D02*
X124196428Y-69408214D01*
X124196428Y-69408214D02*
X124339286Y-69408214D01*
X124339286Y-69408214D02*
X124410714Y-69372500D01*
X124410714Y-69372500D02*
X124446428Y-69301071D01*
X124446428Y-69301071D02*
X124446428Y-69015357D01*
X124446428Y-69015357D02*
X124410714Y-68943928D01*
X124410714Y-68943928D02*
X124339286Y-68908214D01*
X124339286Y-68908214D02*
X124196428Y-68908214D01*
X124196428Y-68908214D02*
X124125000Y-68943928D01*
X124125000Y-68943928D02*
X124089286Y-69015357D01*
X124089286Y-69015357D02*
X124089286Y-69086785D01*
X124089286Y-69086785D02*
X124446428Y-69158214D01*
X123803571Y-69372500D02*
X123732143Y-69408214D01*
X123732143Y-69408214D02*
X123589286Y-69408214D01*
X123589286Y-69408214D02*
X123517857Y-69372500D01*
X123517857Y-69372500D02*
X123482143Y-69301071D01*
X123482143Y-69301071D02*
X123482143Y-69265357D01*
X123482143Y-69265357D02*
X123517857Y-69193928D01*
X123517857Y-69193928D02*
X123589286Y-69158214D01*
X123589286Y-69158214D02*
X123696429Y-69158214D01*
X123696429Y-69158214D02*
X123767857Y-69122500D01*
X123767857Y-69122500D02*
X123803571Y-69051071D01*
X123803571Y-69051071D02*
X123803571Y-69015357D01*
X123803571Y-69015357D02*
X123767857Y-68943928D01*
X123767857Y-68943928D02*
X123696429Y-68908214D01*
X123696429Y-68908214D02*
X123589286Y-68908214D01*
X123589286Y-68908214D02*
X123517857Y-68943928D01*
X123160714Y-69408214D02*
X123160714Y-68908214D01*
X123160714Y-68658214D02*
X123196428Y-68693928D01*
X123196428Y-68693928D02*
X123160714Y-68729642D01*
X123160714Y-68729642D02*
X123125000Y-68693928D01*
X123125000Y-68693928D02*
X123160714Y-68658214D01*
X123160714Y-68658214D02*
X123160714Y-68729642D01*
X122482143Y-68908214D02*
X122482143Y-69515357D01*
X122482143Y-69515357D02*
X122517857Y-69586785D01*
X122517857Y-69586785D02*
X122553571Y-69622500D01*
X122553571Y-69622500D02*
X122625000Y-69658214D01*
X122625000Y-69658214D02*
X122732143Y-69658214D01*
X122732143Y-69658214D02*
X122803571Y-69622500D01*
X122482143Y-69372500D02*
X122553571Y-69408214D01*
X122553571Y-69408214D02*
X122696428Y-69408214D01*
X122696428Y-69408214D02*
X122767857Y-69372500D01*
X122767857Y-69372500D02*
X122803571Y-69336785D01*
X122803571Y-69336785D02*
X122839285Y-69265357D01*
X122839285Y-69265357D02*
X122839285Y-69051071D01*
X122839285Y-69051071D02*
X122803571Y-68979642D01*
X122803571Y-68979642D02*
X122767857Y-68943928D01*
X122767857Y-68943928D02*
X122696428Y-68908214D01*
X122696428Y-68908214D02*
X122553571Y-68908214D01*
X122553571Y-68908214D02*
X122482143Y-68943928D01*
X122125000Y-68908214D02*
X122125000Y-69408214D01*
X122125000Y-68979642D02*
X122089286Y-68943928D01*
X122089286Y-68943928D02*
X122017857Y-68908214D01*
X122017857Y-68908214D02*
X121910714Y-68908214D01*
X121910714Y-68908214D02*
X121839286Y-68943928D01*
X121839286Y-68943928D02*
X121803572Y-69015357D01*
X121803572Y-69015357D02*
X121803572Y-69408214D01*
X121160715Y-69372500D02*
X121232143Y-69408214D01*
X121232143Y-69408214D02*
X121375001Y-69408214D01*
X121375001Y-69408214D02*
X121446429Y-69372500D01*
X121446429Y-69372500D02*
X121482143Y-69301071D01*
X121482143Y-69301071D02*
X121482143Y-69015357D01*
X121482143Y-69015357D02*
X121446429Y-68943928D01*
X121446429Y-68943928D02*
X121375001Y-68908214D01*
X121375001Y-68908214D02*
X121232143Y-68908214D01*
X121232143Y-68908214D02*
X121160715Y-68943928D01*
X121160715Y-68943928D02*
X121125001Y-69015357D01*
X121125001Y-69015357D02*
X121125001Y-69086785D01*
X121125001Y-69086785D02*
X121482143Y-69158214D01*
X120482144Y-69408214D02*
X120482144Y-68658214D01*
X120482144Y-69372500D02*
X120553572Y-69408214D01*
X120553572Y-69408214D02*
X120696429Y-69408214D01*
X120696429Y-69408214D02*
X120767858Y-69372500D01*
X120767858Y-69372500D02*
X120803572Y-69336785D01*
X120803572Y-69336785D02*
X120839286Y-69265357D01*
X120839286Y-69265357D02*
X120839286Y-69051071D01*
X120839286Y-69051071D02*
X120803572Y-68979642D01*
X120803572Y-68979642D02*
X120767858Y-68943928D01*
X120767858Y-68943928D02*
X120696429Y-68908214D01*
X120696429Y-68908214D02*
X120553572Y-68908214D01*
X120553572Y-68908214D02*
X120482144Y-68943928D01*
X119553572Y-69408214D02*
X119553572Y-68658214D01*
X119553572Y-68943928D02*
X119482144Y-68908214D01*
X119482144Y-68908214D02*
X119339286Y-68908214D01*
X119339286Y-68908214D02*
X119267858Y-68943928D01*
X119267858Y-68943928D02*
X119232144Y-68979642D01*
X119232144Y-68979642D02*
X119196429Y-69051071D01*
X119196429Y-69051071D02*
X119196429Y-69265357D01*
X119196429Y-69265357D02*
X119232144Y-69336785D01*
X119232144Y-69336785D02*
X119267858Y-69372500D01*
X119267858Y-69372500D02*
X119339286Y-69408214D01*
X119339286Y-69408214D02*
X119482144Y-69408214D01*
X119482144Y-69408214D02*
X119553572Y-69372500D01*
X118946430Y-68908214D02*
X118767858Y-69408214D01*
X118589287Y-68908214D02*
X118767858Y-69408214D01*
X118767858Y-69408214D02*
X118839287Y-69586785D01*
X118839287Y-69586785D02*
X118875001Y-69622500D01*
X118875001Y-69622500D02*
X118946430Y-69658214D01*
X117482143Y-69015357D02*
X117375000Y-69051071D01*
X117375000Y-69051071D02*
X117339286Y-69086785D01*
X117339286Y-69086785D02*
X117303572Y-69158214D01*
X117303572Y-69158214D02*
X117303572Y-69265357D01*
X117303572Y-69265357D02*
X117339286Y-69336785D01*
X117339286Y-69336785D02*
X117375000Y-69372500D01*
X117375000Y-69372500D02*
X117446429Y-69408214D01*
X117446429Y-69408214D02*
X117732143Y-69408214D01*
X117732143Y-69408214D02*
X117732143Y-68658214D01*
X117732143Y-68658214D02*
X117482143Y-68658214D01*
X117482143Y-68658214D02*
X117410715Y-68693928D01*
X117410715Y-68693928D02*
X117375000Y-68729642D01*
X117375000Y-68729642D02*
X117339286Y-68801071D01*
X117339286Y-68801071D02*
X117339286Y-68872500D01*
X117339286Y-68872500D02*
X117375000Y-68943928D01*
X117375000Y-68943928D02*
X117410715Y-68979642D01*
X117410715Y-68979642D02*
X117482143Y-69015357D01*
X117482143Y-69015357D02*
X117732143Y-69015357D01*
X116696429Y-69372500D02*
X116767857Y-69408214D01*
X116767857Y-69408214D02*
X116910715Y-69408214D01*
X116910715Y-69408214D02*
X116982143Y-69372500D01*
X116982143Y-69372500D02*
X117017857Y-69301071D01*
X117017857Y-69301071D02*
X117017857Y-69015357D01*
X117017857Y-69015357D02*
X116982143Y-68943928D01*
X116982143Y-68943928D02*
X116910715Y-68908214D01*
X116910715Y-68908214D02*
X116767857Y-68908214D01*
X116767857Y-68908214D02*
X116696429Y-68943928D01*
X116696429Y-68943928D02*
X116660715Y-69015357D01*
X116660715Y-69015357D02*
X116660715Y-69086785D01*
X116660715Y-69086785D02*
X117017857Y-69158214D01*
X116339286Y-68908214D02*
X116339286Y-69408214D01*
X116339286Y-68979642D02*
X116303572Y-68943928D01*
X116303572Y-68943928D02*
X116232143Y-68908214D01*
X116232143Y-68908214D02*
X116125000Y-68908214D01*
X116125000Y-68908214D02*
X116053572Y-68943928D01*
X116053572Y-68943928D02*
X116017858Y-69015357D01*
X116017858Y-69015357D02*
X116017858Y-69408214D01*
X115125000Y-69372500D02*
X115017858Y-69408214D01*
X115017858Y-69408214D02*
X114839286Y-69408214D01*
X114839286Y-69408214D02*
X114767858Y-69372500D01*
X114767858Y-69372500D02*
X114732143Y-69336785D01*
X114732143Y-69336785D02*
X114696429Y-69265357D01*
X114696429Y-69265357D02*
X114696429Y-69193928D01*
X114696429Y-69193928D02*
X114732143Y-69122500D01*
X114732143Y-69122500D02*
X114767858Y-69086785D01*
X114767858Y-69086785D02*
X114839286Y-69051071D01*
X114839286Y-69051071D02*
X114982143Y-69015357D01*
X114982143Y-69015357D02*
X115053572Y-68979642D01*
X115053572Y-68979642D02*
X115089286Y-68943928D01*
X115089286Y-68943928D02*
X115125000Y-68872500D01*
X115125000Y-68872500D02*
X115125000Y-68801071D01*
X115125000Y-68801071D02*
X115089286Y-68729642D01*
X115089286Y-68729642D02*
X115053572Y-68693928D01*
X115053572Y-68693928D02*
X114982143Y-68658214D01*
X114982143Y-68658214D02*
X114803572Y-68658214D01*
X114803572Y-68658214D02*
X114696429Y-68693928D01*
X114375000Y-69408214D02*
X114375000Y-68908214D01*
X114375000Y-68979642D02*
X114339286Y-68943928D01*
X114339286Y-68943928D02*
X114267857Y-68908214D01*
X114267857Y-68908214D02*
X114160714Y-68908214D01*
X114160714Y-68908214D02*
X114089286Y-68943928D01*
X114089286Y-68943928D02*
X114053572Y-69015357D01*
X114053572Y-69015357D02*
X114053572Y-69408214D01*
X114053572Y-69015357D02*
X114017857Y-68943928D01*
X114017857Y-68943928D02*
X113946429Y-68908214D01*
X113946429Y-68908214D02*
X113839286Y-68908214D01*
X113839286Y-68908214D02*
X113767857Y-68943928D01*
X113767857Y-68943928D02*
X113732143Y-69015357D01*
X113732143Y-69015357D02*
X113732143Y-69408214D01*
X113375000Y-69408214D02*
X113375000Y-68908214D01*
X113375000Y-68658214D02*
X113410714Y-68693928D01*
X113410714Y-68693928D02*
X113375000Y-68729642D01*
X113375000Y-68729642D02*
X113339286Y-68693928D01*
X113339286Y-68693928D02*
X113375000Y-68658214D01*
X113375000Y-68658214D02*
X113375000Y-68729642D01*
X113125000Y-68908214D02*
X112839286Y-68908214D01*
X113017857Y-68658214D02*
X113017857Y-69301071D01*
X113017857Y-69301071D02*
X112982143Y-69372500D01*
X112982143Y-69372500D02*
X112910714Y-69408214D01*
X112910714Y-69408214D02*
X112839286Y-69408214D01*
X112589286Y-69408214D02*
X112589286Y-68658214D01*
X112267858Y-69408214D02*
X112267858Y-69015357D01*
X112267858Y-69015357D02*
X112303572Y-68943928D01*
X112303572Y-68943928D02*
X112375000Y-68908214D01*
X112375000Y-68908214D02*
X112482143Y-68908214D01*
X112482143Y-68908214D02*
X112553572Y-68943928D01*
X112553572Y-68943928D02*
X112589286Y-68979642D01*
X111375000Y-68729642D02*
X111339286Y-68693928D01*
X111339286Y-68693928D02*
X111267858Y-68658214D01*
X111267858Y-68658214D02*
X111089286Y-68658214D01*
X111089286Y-68658214D02*
X111017858Y-68693928D01*
X111017858Y-68693928D02*
X110982143Y-68729642D01*
X110982143Y-68729642D02*
X110946429Y-68801071D01*
X110946429Y-68801071D02*
X110946429Y-68872500D01*
X110946429Y-68872500D02*
X110982143Y-68979642D01*
X110982143Y-68979642D02*
X111410715Y-69408214D01*
X111410715Y-69408214D02*
X110946429Y-69408214D01*
X110482143Y-68658214D02*
X110410714Y-68658214D01*
X110410714Y-68658214D02*
X110339286Y-68693928D01*
X110339286Y-68693928D02*
X110303572Y-68729642D01*
X110303572Y-68729642D02*
X110267857Y-68801071D01*
X110267857Y-68801071D02*
X110232143Y-68943928D01*
X110232143Y-68943928D02*
X110232143Y-69122500D01*
X110232143Y-69122500D02*
X110267857Y-69265357D01*
X110267857Y-69265357D02*
X110303572Y-69336785D01*
X110303572Y-69336785D02*
X110339286Y-69372500D01*
X110339286Y-69372500D02*
X110410714Y-69408214D01*
X110410714Y-69408214D02*
X110482143Y-69408214D01*
X110482143Y-69408214D02*
X110553572Y-69372500D01*
X110553572Y-69372500D02*
X110589286Y-69336785D01*
X110589286Y-69336785D02*
X110625000Y-69265357D01*
X110625000Y-69265357D02*
X110660714Y-69122500D01*
X110660714Y-69122500D02*
X110660714Y-68943928D01*
X110660714Y-68943928D02*
X110625000Y-68801071D01*
X110625000Y-68801071D02*
X110589286Y-68729642D01*
X110589286Y-68729642D02*
X110553572Y-68693928D01*
X110553572Y-68693928D02*
X110482143Y-68658214D01*
X109946428Y-68729642D02*
X109910714Y-68693928D01*
X109910714Y-68693928D02*
X109839286Y-68658214D01*
X109839286Y-68658214D02*
X109660714Y-68658214D01*
X109660714Y-68658214D02*
X109589286Y-68693928D01*
X109589286Y-68693928D02*
X109553571Y-68729642D01*
X109553571Y-68729642D02*
X109517857Y-68801071D01*
X109517857Y-68801071D02*
X109517857Y-68872500D01*
X109517857Y-68872500D02*
X109553571Y-68979642D01*
X109553571Y-68979642D02*
X109982143Y-69408214D01*
X109982143Y-69408214D02*
X109517857Y-69408214D01*
X109267857Y-68658214D02*
X108803571Y-68658214D01*
X108803571Y-68658214D02*
X109053571Y-68943928D01*
X109053571Y-68943928D02*
X108946428Y-68943928D01*
X108946428Y-68943928D02*
X108875000Y-68979642D01*
X108875000Y-68979642D02*
X108839285Y-69015357D01*
X108839285Y-69015357D02*
X108803571Y-69086785D01*
X108803571Y-69086785D02*
X108803571Y-69265357D01*
X108803571Y-69265357D02*
X108839285Y-69336785D01*
X108839285Y-69336785D02*
X108875000Y-69372500D01*
X108875000Y-69372500D02*
X108946428Y-69408214D01*
X108946428Y-69408214D02*
X109160714Y-69408214D01*
X109160714Y-69408214D02*
X109232142Y-69372500D01*
X109232142Y-69372500D02*
X109267857Y-69336785D01*
D11*
G36*
X122878738Y-55435103D02*
G01*
X122894961Y-55437081D01*
X122910680Y-55440378D01*
X122925894Y-55444995D01*
X122940603Y-55450930D01*
X122954807Y-55458184D01*
X122968506Y-55466757D01*
X122981700Y-55476648D01*
X122994390Y-55487859D01*
X123006574Y-55500389D01*
X123014417Y-55509475D01*
X123021906Y-55519076D01*
X123028911Y-55529194D01*
X123035434Y-55539830D01*
X123041473Y-55550984D01*
X123047029Y-55562655D01*
X123052102Y-55574843D01*
X123056692Y-55587549D01*
X123060799Y-55600773D01*
X123064422Y-55614514D01*
X123067563Y-55628772D01*
X123070220Y-55643548D01*
X123072394Y-55658841D01*
X123074085Y-55674652D01*
X123075293Y-55690981D01*
X123076018Y-55707827D01*
X123076259Y-55725190D01*
X123076018Y-55742555D01*
X123075293Y-55759404D01*
X123074085Y-55775738D01*
X123072394Y-55791557D01*
X123070220Y-55806861D01*
X123067563Y-55821649D01*
X123064422Y-55835922D01*
X123060799Y-55849681D01*
X123056692Y-55862924D01*
X123052102Y-55875651D01*
X123047029Y-55887864D01*
X123041473Y-55899561D01*
X123035434Y-55910743D01*
X123028911Y-55921410D01*
X123021906Y-55931562D01*
X123014417Y-55941198D01*
X123006574Y-55950249D01*
X122994390Y-55962729D01*
X122981700Y-55973896D01*
X122968506Y-55983750D01*
X122954807Y-55992289D01*
X122940603Y-55999515D01*
X122925894Y-56005427D01*
X122910680Y-56010025D01*
X122894961Y-56013309D01*
X122878738Y-56015280D01*
X122862009Y-56015937D01*
X122845286Y-56015280D01*
X122829078Y-56013309D01*
X122813385Y-56010025D01*
X122798207Y-56005427D01*
X122783544Y-55999515D01*
X122769397Y-55992289D01*
X122755765Y-55983750D01*
X122742648Y-55973896D01*
X122730046Y-55962729D01*
X122717959Y-55950249D01*
X122710188Y-55941198D01*
X122702735Y-55931555D01*
X122695762Y-55921383D01*
X122689271Y-55910681D01*
X122683260Y-55899451D01*
X122677730Y-55887692D01*
X122672681Y-55875404D01*
X122668113Y-55862587D01*
X122664026Y-55849241D01*
X122660420Y-55835366D01*
X122657294Y-55820962D01*
X122654649Y-55806029D01*
X122652486Y-55790568D01*
X122650803Y-55774577D01*
X122649600Y-55758057D01*
X122648879Y-55741009D01*
X122648639Y-55723431D01*
X122648879Y-55706281D01*
X122649600Y-55689634D01*
X122650803Y-55673491D01*
X122652486Y-55657852D01*
X122654649Y-55642717D01*
X122657294Y-55628085D01*
X122660420Y-55613957D01*
X122664026Y-55600333D01*
X122668113Y-55587213D01*
X122672681Y-55574596D01*
X122677730Y-55562483D01*
X122683260Y-55550874D01*
X122689271Y-55539768D01*
X122695762Y-55529167D01*
X122702735Y-55519069D01*
X122710188Y-55509475D01*
X122717959Y-55500389D01*
X122730046Y-55487859D01*
X122742648Y-55476648D01*
X122755765Y-55466757D01*
X122769397Y-55458184D01*
X122783544Y-55450930D01*
X122798207Y-55444995D01*
X122813385Y-55440378D01*
X122829078Y-55437081D01*
X122845286Y-55435103D01*
X122862009Y-55434443D01*
X122878738Y-55435103D01*
G37*
G36*
X121293699Y-55435103D02*
G01*
X121309923Y-55437081D01*
X121325642Y-55440378D01*
X121340856Y-55444995D01*
X121355565Y-55450930D01*
X121369769Y-55458184D01*
X121383468Y-55466757D01*
X121396662Y-55476648D01*
X121409351Y-55487859D01*
X121421536Y-55500389D01*
X121429378Y-55509475D01*
X121436867Y-55519076D01*
X121443873Y-55529194D01*
X121450395Y-55539830D01*
X121456434Y-55550984D01*
X121461991Y-55562655D01*
X121467064Y-55574843D01*
X121471653Y-55587549D01*
X121475760Y-55600773D01*
X121479384Y-55614514D01*
X121482524Y-55628772D01*
X121485181Y-55643548D01*
X121487356Y-55658841D01*
X121489047Y-55674652D01*
X121490254Y-55690981D01*
X121490979Y-55707827D01*
X121491221Y-55725190D01*
X121490979Y-55742555D01*
X121490254Y-55759404D01*
X121489047Y-55775738D01*
X121487356Y-55791557D01*
X121485181Y-55806861D01*
X121482524Y-55821649D01*
X121479384Y-55835922D01*
X121475760Y-55849681D01*
X121471653Y-55862924D01*
X121467064Y-55875651D01*
X121461991Y-55887864D01*
X121456434Y-55899561D01*
X121450395Y-55910743D01*
X121443873Y-55921410D01*
X121436867Y-55931562D01*
X121429378Y-55941198D01*
X121421536Y-55950249D01*
X121409351Y-55962729D01*
X121396662Y-55973896D01*
X121383468Y-55983750D01*
X121369769Y-55992289D01*
X121355565Y-55999515D01*
X121340856Y-56005427D01*
X121325642Y-56010025D01*
X121309923Y-56013309D01*
X121293699Y-56015280D01*
X121276971Y-56015937D01*
X121260248Y-56015280D01*
X121244039Y-56013309D01*
X121228346Y-56010025D01*
X121213169Y-56005427D01*
X121198506Y-55999515D01*
X121184359Y-55992289D01*
X121170726Y-55983750D01*
X121157609Y-55973896D01*
X121145008Y-55962729D01*
X121132921Y-55950249D01*
X121125150Y-55941198D01*
X121117696Y-55931555D01*
X121110724Y-55921383D01*
X121104232Y-55910681D01*
X121098222Y-55899451D01*
X121092692Y-55887692D01*
X121087643Y-55875404D01*
X121083075Y-55862587D01*
X121078988Y-55849241D01*
X121075381Y-55835366D01*
X121072256Y-55820962D01*
X121069611Y-55806029D01*
X121067447Y-55790568D01*
X121065764Y-55774577D01*
X121064562Y-55758057D01*
X121063841Y-55741009D01*
X121063600Y-55723431D01*
X121063841Y-55706281D01*
X121064562Y-55689634D01*
X121065764Y-55673491D01*
X121067447Y-55657852D01*
X121069611Y-55642717D01*
X121072256Y-55628085D01*
X121075381Y-55613957D01*
X121078988Y-55600333D01*
X121083075Y-55587213D01*
X121087643Y-55574596D01*
X121092692Y-55562483D01*
X121098222Y-55550874D01*
X121104232Y-55539768D01*
X121110724Y-55529167D01*
X121117696Y-55519069D01*
X121125150Y-55509475D01*
X121132921Y-55500389D01*
X121145008Y-55487859D01*
X121157609Y-55476648D01*
X121170726Y-55466757D01*
X121184359Y-55458184D01*
X121198506Y-55450930D01*
X121213169Y-55444995D01*
X121228346Y-55440378D01*
X121244039Y-55437081D01*
X121260248Y-55435103D01*
X121276971Y-55434443D01*
X121293699Y-55435103D01*
G37*
G36*
X116068466Y-55435103D02*
G01*
X116084689Y-55437081D01*
X116100408Y-55440378D01*
X116115622Y-55444995D01*
X116130331Y-55450930D01*
X116144535Y-55458184D01*
X116158234Y-55466757D01*
X116171428Y-55476648D01*
X116184118Y-55487859D01*
X116196302Y-55500389D01*
X116204145Y-55509475D01*
X116211633Y-55519076D01*
X116218639Y-55529194D01*
X116225161Y-55539830D01*
X116231201Y-55550984D01*
X116236757Y-55562655D01*
X116241830Y-55574843D01*
X116246420Y-55587549D01*
X116250526Y-55600773D01*
X116254150Y-55614514D01*
X116257290Y-55628772D01*
X116259948Y-55643548D01*
X116262122Y-55658841D01*
X116263813Y-55674652D01*
X116265021Y-55690981D01*
X116265745Y-55707827D01*
X116265987Y-55725190D01*
X116265745Y-55742555D01*
X116265021Y-55759404D01*
X116263813Y-55775738D01*
X116262122Y-55791557D01*
X116259948Y-55806861D01*
X116257290Y-55821649D01*
X116254150Y-55835922D01*
X116250526Y-55849681D01*
X116246420Y-55862924D01*
X116241830Y-55875651D01*
X116236757Y-55887864D01*
X116231201Y-55899561D01*
X116225161Y-55910743D01*
X116218639Y-55921410D01*
X116211633Y-55931562D01*
X116204145Y-55941198D01*
X116196302Y-55950249D01*
X116184118Y-55962729D01*
X116171428Y-55973896D01*
X116158234Y-55983750D01*
X116144535Y-55992289D01*
X116130331Y-55999515D01*
X116115622Y-56005427D01*
X116100408Y-56010025D01*
X116084689Y-56013309D01*
X116068466Y-56015280D01*
X116051737Y-56015937D01*
X116035014Y-56015280D01*
X116018806Y-56013309D01*
X116003113Y-56010025D01*
X115987935Y-56005427D01*
X115973272Y-55999515D01*
X115959125Y-55992289D01*
X115945493Y-55983750D01*
X115932376Y-55973896D01*
X115919774Y-55962729D01*
X115907687Y-55950249D01*
X115899916Y-55941198D01*
X115892463Y-55931555D01*
X115885490Y-55921383D01*
X115878999Y-55910681D01*
X115872988Y-55899451D01*
X115867458Y-55887692D01*
X115862409Y-55875404D01*
X115857841Y-55862587D01*
X115853754Y-55849241D01*
X115850147Y-55835366D01*
X115847022Y-55820962D01*
X115844377Y-55806029D01*
X115842213Y-55790568D01*
X115840530Y-55774577D01*
X115839328Y-55758057D01*
X115838607Y-55741009D01*
X115838367Y-55723431D01*
X115838607Y-55706281D01*
X115839328Y-55689634D01*
X115840530Y-55673491D01*
X115842213Y-55657852D01*
X115844377Y-55642717D01*
X115847022Y-55628085D01*
X115850147Y-55613957D01*
X115853754Y-55600333D01*
X115857841Y-55587213D01*
X115862409Y-55574596D01*
X115867458Y-55562483D01*
X115872988Y-55550874D01*
X115878999Y-55539768D01*
X115885490Y-55529167D01*
X115892463Y-55519069D01*
X115899916Y-55509475D01*
X115907687Y-55500389D01*
X115919774Y-55487859D01*
X115932376Y-55476648D01*
X115945493Y-55466757D01*
X115959125Y-55458184D01*
X115973272Y-55450930D01*
X115987935Y-55444995D01*
X116003113Y-55440378D01*
X116018806Y-55437081D01*
X116035014Y-55435103D01*
X116051737Y-55434443D01*
X116068466Y-55435103D01*
G37*
G36*
X115061055Y-55435049D02*
G01*
X115075794Y-55436865D01*
X115090064Y-55439892D01*
X115103866Y-55444129D01*
X115117198Y-55449577D01*
X115130062Y-55456236D01*
X115142457Y-55464106D01*
X115154383Y-55473186D01*
X115165840Y-55483477D01*
X115176828Y-55494979D01*
X115183893Y-55503320D01*
X115193845Y-55516777D01*
X115202818Y-55531429D01*
X115208257Y-55541861D01*
X115213260Y-55552825D01*
X115217828Y-55564319D01*
X115221961Y-55576345D01*
X115225659Y-55588903D01*
X115228922Y-55601991D01*
X115231750Y-55615610D01*
X115234143Y-55629761D01*
X115236100Y-55644443D01*
X115237623Y-55659657D01*
X115238711Y-55675401D01*
X115239363Y-55691677D01*
X115239581Y-55708484D01*
X115239430Y-55726522D01*
X115238976Y-55743925D01*
X115238221Y-55760694D01*
X115237163Y-55776829D01*
X115235803Y-55792330D01*
X115234140Y-55807196D01*
X115232176Y-55821428D01*
X115229909Y-55835026D01*
X115227340Y-55847990D01*
X115224468Y-55860319D01*
X115221295Y-55872014D01*
X115215967Y-55888367D01*
X115209960Y-55903293D01*
X115203273Y-55916793D01*
X115200893Y-55920975D01*
X115193720Y-55932474D01*
X115186197Y-55943232D01*
X115178324Y-55953247D01*
X115170100Y-55962521D01*
X115161526Y-55971052D01*
X115152601Y-55978842D01*
X115138558Y-55989136D01*
X115123726Y-55997760D01*
X115108106Y-56004716D01*
X115091698Y-56010002D01*
X115074501Y-56013618D01*
X115062599Y-56015102D01*
X115050346Y-56015844D01*
X115044089Y-56015937D01*
X115029350Y-56015311D01*
X115015028Y-56013433D01*
X115001124Y-56010303D01*
X114987637Y-56005921D01*
X114974567Y-56000288D01*
X114961914Y-55993402D01*
X114949679Y-55985264D01*
X114937862Y-55975875D01*
X114926461Y-55965233D01*
X114915478Y-55953340D01*
X114908387Y-55944715D01*
X114898331Y-55930741D01*
X114892176Y-55920734D01*
X114886461Y-55910176D01*
X114881185Y-55899066D01*
X114876349Y-55887404D01*
X114871953Y-55875191D01*
X114867996Y-55862425D01*
X114864479Y-55849108D01*
X114861401Y-55835239D01*
X114858763Y-55820818D01*
X114856565Y-55805845D01*
X114854807Y-55790320D01*
X114853488Y-55774244D01*
X114852609Y-55757615D01*
X114852169Y-55740435D01*
X114852114Y-55731638D01*
X114852327Y-55712237D01*
X114852966Y-55693527D01*
X114854030Y-55675509D01*
X114855521Y-55658182D01*
X114857438Y-55641547D01*
X114859780Y-55625603D01*
X114862548Y-55610351D01*
X114865743Y-55595790D01*
X114869363Y-55581921D01*
X114873409Y-55568743D01*
X114877881Y-55556257D01*
X114882779Y-55544463D01*
X114888102Y-55533359D01*
X114893852Y-55522948D01*
X114903275Y-55508627D01*
X114906629Y-55504199D01*
X114917066Y-55491733D01*
X114928044Y-55480493D01*
X114939563Y-55470479D01*
X114951623Y-55461692D01*
X114964224Y-55454130D01*
X114977366Y-55447795D01*
X114991049Y-55442686D01*
X115005273Y-55438803D01*
X115020037Y-55436146D01*
X115035343Y-55434716D01*
X115045847Y-55434443D01*
X115061055Y-55435049D01*
G37*
G36*
X114064458Y-55434930D02*
G01*
X114077948Y-55436391D01*
X114090980Y-55438825D01*
X114103554Y-55442233D01*
X114115669Y-55446615D01*
X114127325Y-55451970D01*
X114138523Y-55458300D01*
X114149262Y-55465603D01*
X114159543Y-55473879D01*
X114169366Y-55483130D01*
X114175659Y-55489838D01*
X114184503Y-55500627D01*
X114192461Y-55512111D01*
X114199533Y-55524292D01*
X114205719Y-55537167D01*
X114211019Y-55550739D01*
X114215432Y-55565005D01*
X114218960Y-55579968D01*
X114221601Y-55595625D01*
X114223356Y-55611979D01*
X114224225Y-55629027D01*
X114224312Y-55640780D01*
X113878171Y-55640780D01*
X113878649Y-55628330D01*
X113879495Y-55616261D01*
X113880709Y-55604571D01*
X113883223Y-55587750D01*
X113886565Y-55571784D01*
X113890738Y-55556673D01*
X113895739Y-55542418D01*
X113901571Y-55529017D01*
X113908231Y-55516472D01*
X113915722Y-55504782D01*
X113924041Y-55493948D01*
X113930048Y-55487200D01*
X113939524Y-55477772D01*
X113949375Y-55469271D01*
X113959603Y-55461697D01*
X113970206Y-55455051D01*
X113981186Y-55449333D01*
X113992542Y-55444541D01*
X114004274Y-55440677D01*
X114016382Y-55437741D01*
X114028866Y-55435731D01*
X114041726Y-55434649D01*
X114050509Y-55434443D01*
X114064458Y-55434930D01*
G37*
G36*
X109679623Y-55153712D02*
G01*
X109692077Y-55155623D01*
X109704101Y-55158807D01*
X109715696Y-55163265D01*
X109726862Y-55168997D01*
X109737598Y-55176002D01*
X109741772Y-55179161D01*
X109751750Y-55188314D01*
X109760983Y-55199471D01*
X109767834Y-55209839D01*
X109774209Y-55221490D01*
X109780107Y-55234422D01*
X109785530Y-55248637D01*
X109789284Y-55260140D01*
X109792770Y-55272364D01*
X109795680Y-55283746D01*
X109798403Y-55296058D01*
X109800938Y-55309300D01*
X109803285Y-55323472D01*
X109805444Y-55338573D01*
X109807415Y-55354603D01*
X109809199Y-55371564D01*
X109810795Y-55389454D01*
X109812203Y-55408273D01*
X109813424Y-55428023D01*
X109814456Y-55448702D01*
X109815301Y-55470310D01*
X109815958Y-55492849D01*
X109816428Y-55516317D01*
X109816592Y-55528399D01*
X109816710Y-55540714D01*
X109816780Y-55553262D01*
X109816803Y-55566041D01*
X109816783Y-55578829D01*
X109816720Y-55591365D01*
X109816615Y-55603648D01*
X109816469Y-55615679D01*
X109816281Y-55627457D01*
X109815780Y-55650257D01*
X109815111Y-55672046D01*
X109814275Y-55692826D01*
X109813272Y-55712596D01*
X109812102Y-55731356D01*
X109810765Y-55749106D01*
X109809261Y-55765847D01*
X109807589Y-55781578D01*
X109805750Y-55796299D01*
X109803745Y-55810010D01*
X109801572Y-55822711D01*
X109799231Y-55834403D01*
X109795408Y-55850047D01*
X109791298Y-55864049D01*
X109786993Y-55877150D01*
X109782492Y-55889349D01*
X109777795Y-55900646D01*
X109771228Y-55914307D01*
X109764313Y-55926365D01*
X109757049Y-55936820D01*
X109747481Y-55947635D01*
X109741479Y-55952922D01*
X109730999Y-55960268D01*
X109720075Y-55966369D01*
X109708708Y-55971225D01*
X109696897Y-55974835D01*
X109684642Y-55977201D01*
X109671944Y-55978321D01*
X109666741Y-55978421D01*
X109653858Y-55977784D01*
X109641404Y-55975874D01*
X109629380Y-55972689D01*
X109617785Y-55968231D01*
X109606620Y-55962500D01*
X109595883Y-55955495D01*
X109591709Y-55952336D01*
X109581731Y-55943182D01*
X109572498Y-55932026D01*
X109565647Y-55921657D01*
X109559272Y-55910007D01*
X109553374Y-55897074D01*
X109547952Y-55882859D01*
X109544197Y-55871357D01*
X109540711Y-55859133D01*
X109536416Y-55841865D01*
X109533788Y-55829180D01*
X109531347Y-55815555D01*
X109529094Y-55800992D01*
X109527028Y-55785491D01*
X109525151Y-55769050D01*
X109523461Y-55751671D01*
X109521959Y-55733352D01*
X109520644Y-55714095D01*
X109519518Y-55693900D01*
X109518579Y-55672765D01*
X109517828Y-55650692D01*
X109517265Y-55627679D01*
X109517053Y-55615821D01*
X109516889Y-55603728D01*
X109516772Y-55591401D01*
X109516701Y-55578838D01*
X109516678Y-55566041D01*
X109516699Y-55553272D01*
X109516761Y-55540754D01*
X109516866Y-55528489D01*
X109517012Y-55516477D01*
X109517200Y-55504717D01*
X109517702Y-55481954D01*
X109518370Y-55460201D01*
X109519206Y-55439458D01*
X109520209Y-55419725D01*
X109521379Y-55401001D01*
X109522716Y-55383288D01*
X109524221Y-55366584D01*
X109525892Y-55350890D01*
X109527731Y-55336205D01*
X109529737Y-55322531D01*
X109531910Y-55309866D01*
X109534250Y-55298211D01*
X109538073Y-55282622D01*
X109542186Y-55268565D01*
X109546499Y-55255409D01*
X109551013Y-55243155D01*
X109555728Y-55231803D01*
X109562327Y-55218069D01*
X109569283Y-55205937D01*
X109576597Y-55195409D01*
X109584267Y-55186483D01*
X109592295Y-55179161D01*
X109602691Y-55171646D01*
X109613545Y-55165405D01*
X109624856Y-55160437D01*
X109636625Y-55156744D01*
X109648853Y-55154324D01*
X109661538Y-55153177D01*
X109666741Y-55153076D01*
X109679623Y-55153712D01*
G37*
G36*
X123355282Y-54006092D02*
G01*
X123270872Y-54006092D01*
X123254259Y-54005983D01*
X123238713Y-54005659D01*
X123224233Y-54005118D01*
X123210820Y-54004361D01*
X123198473Y-54003387D01*
X123183670Y-54001752D01*
X123170762Y-53999732D01*
X123157294Y-53996667D01*
X123148653Y-53993782D01*
X123137586Y-53988571D01*
X123127468Y-53982392D01*
X123116861Y-53973959D01*
X123107544Y-53964208D01*
X123100586Y-53954801D01*
X123094609Y-53944500D01*
X123089870Y-53933602D01*
X123086366Y-53922106D01*
X123084099Y-53910013D01*
X123083069Y-53897321D01*
X123083000Y-53892958D01*
X123083601Y-53879775D01*
X123085404Y-53867336D01*
X123088410Y-53855641D01*
X123092617Y-53844690D01*
X123099253Y-53832531D01*
X123107620Y-53821444D01*
X123117206Y-53811635D01*
X123127720Y-53803309D01*
X123139160Y-53796467D01*
X123151529Y-53791109D01*
X123164824Y-53787235D01*
X123169462Y-53786273D01*
X123181861Y-53784480D01*
X123195185Y-53783269D01*
X123207802Y-53782486D01*
X123222159Y-53781868D01*
X123234068Y-53781513D01*
X123246957Y-53781250D01*
X123260824Y-53781080D01*
X123275671Y-53781003D01*
X123280837Y-53780997D01*
X123355282Y-53780997D01*
X123355282Y-54006092D01*
G37*
G36*
X121922358Y-53968576D02*
G01*
X121808053Y-53968576D01*
X121794458Y-53968540D01*
X121781519Y-53968434D01*
X121769234Y-53968256D01*
X121752035Y-53967857D01*
X121736309Y-53967298D01*
X121722057Y-53966580D01*
X121709278Y-53965701D01*
X121694532Y-53964281D01*
X121682406Y-53962578D01*
X121670931Y-53960049D01*
X121669127Y-53959490D01*
X121657535Y-53954898D01*
X121647120Y-53949072D01*
X121636660Y-53940902D01*
X121627739Y-53931120D01*
X121625750Y-53928422D01*
X121619583Y-53918144D01*
X121614930Y-53906800D01*
X121611793Y-53894390D01*
X121610170Y-53880914D01*
X121609923Y-53872735D01*
X121610654Y-53859281D01*
X121612849Y-53846838D01*
X121616507Y-53835404D01*
X121622624Y-53823340D01*
X121630732Y-53812651D01*
X121640522Y-53803349D01*
X121650207Y-53796692D01*
X121661088Y-53791252D01*
X121673165Y-53787027D01*
X121686436Y-53784018D01*
X121688764Y-53783635D01*
X121700575Y-53782607D01*
X121713425Y-53782028D01*
X121726353Y-53781657D01*
X121741635Y-53781368D01*
X121754641Y-53781206D01*
X121768972Y-53781090D01*
X121784626Y-53781021D01*
X121801605Y-53780997D01*
X121922358Y-53780997D01*
X121922358Y-53968576D01*
G37*
G36*
X120806559Y-54118639D02*
G01*
X120597878Y-54118639D01*
X120703098Y-53837271D01*
X120806559Y-54118639D01*
G37*
G36*
X125328449Y-56806186D02*
G01*
X108653155Y-56806186D01*
X108653155Y-55566041D01*
X109274584Y-55566041D01*
X109274700Y-55587358D01*
X109275048Y-55608297D01*
X109275628Y-55628858D01*
X109276439Y-55649041D01*
X109277482Y-55668847D01*
X109278757Y-55688274D01*
X109280264Y-55707324D01*
X109282003Y-55725996D01*
X109283974Y-55744290D01*
X109286176Y-55762207D01*
X109288611Y-55779745D01*
X109291277Y-55796906D01*
X109294175Y-55813689D01*
X109297305Y-55830094D01*
X109300666Y-55846121D01*
X109304260Y-55861771D01*
X109308085Y-55877042D01*
X109312142Y-55891936D01*
X109316431Y-55906452D01*
X109320952Y-55920590D01*
X109325705Y-55934351D01*
X109330690Y-55947733D01*
X109335906Y-55960738D01*
X109341354Y-55973365D01*
X109347034Y-55985614D01*
X109352946Y-55997486D01*
X109359090Y-56008979D01*
X109365466Y-56020095D01*
X109372073Y-56030833D01*
X109378912Y-56041193D01*
X109385983Y-56051175D01*
X109393286Y-56060780D01*
X109405861Y-56075793D01*
X109419037Y-56089837D01*
X109432816Y-56102913D01*
X109447197Y-56115020D01*
X109462180Y-56126159D01*
X109477765Y-56136329D01*
X109493953Y-56145530D01*
X109510743Y-56153763D01*
X109528135Y-56161027D01*
X109546129Y-56167323D01*
X109564725Y-56172650D01*
X109583924Y-56177009D01*
X109603725Y-56180399D01*
X109624128Y-56182820D01*
X109645133Y-56184273D01*
X109666741Y-56184757D01*
X109688529Y-56184226D01*
X109709784Y-56182632D01*
X109730505Y-56179976D01*
X109750693Y-56176258D01*
X109770347Y-56171477D01*
X109789468Y-56165633D01*
X109808055Y-56158727D01*
X109826109Y-56150759D01*
X109843629Y-56141728D01*
X109860616Y-56131635D01*
X109877069Y-56120479D01*
X109892989Y-56108260D01*
X109908375Y-56094980D01*
X109923228Y-56080637D01*
X109937547Y-56065231D01*
X109951332Y-56048763D01*
X109964393Y-56030931D01*
X109976612Y-56011435D01*
X109982405Y-56001063D01*
X109987987Y-55990274D01*
X109993359Y-55979069D01*
X109998520Y-55967448D01*
X110003471Y-55955411D01*
X110008210Y-55942958D01*
X110008933Y-55940905D01*
X110243838Y-55940905D01*
X110243838Y-56166000D01*
X110475673Y-56166000D01*
X110475673Y-55940905D01*
X110243838Y-55940905D01*
X110008933Y-55940905D01*
X110012740Y-55930089D01*
X110017058Y-55916803D01*
X110021166Y-55903101D01*
X110025063Y-55888983D01*
X110028750Y-55874449D01*
X110032226Y-55859499D01*
X110035491Y-55844133D01*
X110038545Y-55828350D01*
X110041389Y-55812151D01*
X110044023Y-55795537D01*
X110046445Y-55778505D01*
X110048657Y-55761058D01*
X110050658Y-55743195D01*
X110052449Y-55724915D01*
X110054029Y-55706219D01*
X110055398Y-55687108D01*
X110056557Y-55667580D01*
X110057505Y-55647635D01*
X110058242Y-55627275D01*
X110058769Y-55606498D01*
X110059085Y-55585306D01*
X110059190Y-55563697D01*
X110059074Y-55542488D01*
X110058726Y-55521654D01*
X110058147Y-55501194D01*
X110057335Y-55481109D01*
X110056292Y-55461398D01*
X110055017Y-55442061D01*
X110053510Y-55423099D01*
X110051771Y-55404511D01*
X110049800Y-55386298D01*
X110047598Y-55368459D01*
X110045164Y-55350994D01*
X110042498Y-55333904D01*
X110039600Y-55317188D01*
X110036470Y-55300846D01*
X110033108Y-55284879D01*
X110029515Y-55269286D01*
X110025689Y-55254068D01*
X110021632Y-55239224D01*
X110017343Y-55224754D01*
X110012822Y-55210659D01*
X110008069Y-55196938D01*
X110003085Y-55183591D01*
X109997868Y-55170619D01*
X109992420Y-55158021D01*
X109986740Y-55145798D01*
X109980828Y-55133949D01*
X109974684Y-55122474D01*
X109968309Y-55111374D01*
X109961701Y-55100648D01*
X109954862Y-55090297D01*
X109947791Y-55080320D01*
X109940488Y-55070717D01*
X109927913Y-55055704D01*
X109914733Y-55041660D01*
X109900948Y-55028584D01*
X109886559Y-55016477D01*
X109871566Y-55005338D01*
X109855968Y-54995168D01*
X109839765Y-54985967D01*
X109822958Y-54977734D01*
X109805547Y-54970469D01*
X109787531Y-54964174D01*
X109768910Y-54958846D01*
X109749685Y-54954488D01*
X109729856Y-54951098D01*
X109709422Y-54948676D01*
X109688384Y-54947223D01*
X109666741Y-54946739D01*
X110866657Y-54946739D01*
X110866657Y-56166000D01*
X111098199Y-56166000D01*
X111098199Y-55283794D01*
X111114240Y-55299436D01*
X111130636Y-55314560D01*
X111147387Y-55329166D01*
X111164493Y-55343255D01*
X111181953Y-55356827D01*
X111199769Y-55369881D01*
X111217940Y-55382417D01*
X111236465Y-55394436D01*
X111255345Y-55405938D01*
X111274581Y-55416922D01*
X111294171Y-55427389D01*
X111314116Y-55437338D01*
X111334416Y-55446769D01*
X111355071Y-55455683D01*
X111376081Y-55464080D01*
X111397445Y-55471959D01*
X111397445Y-55284381D01*
X111547215Y-55284381D01*
X111895115Y-56166000D01*
X112103503Y-56166000D01*
X112444889Y-55313103D01*
X112906573Y-55313103D01*
X112978381Y-55528819D01*
X112989297Y-55522010D01*
X113000064Y-55515870D01*
X113010681Y-55510400D01*
X113024605Y-55504149D01*
X113038264Y-55499089D01*
X113051657Y-55495219D01*
X113064784Y-55492540D01*
X113077645Y-55491052D01*
X113087117Y-55490717D01*
X113099052Y-55491129D01*
X113113326Y-55492803D01*
X113126884Y-55495766D01*
X113139727Y-55500016D01*
X113151854Y-55505555D01*
X113163266Y-55512381D01*
X113169769Y-55517095D01*
X113179952Y-55526376D01*
X113187593Y-55535295D01*
X113194785Y-55545541D01*
X113201528Y-55557116D01*
X113207823Y-55570019D01*
X113213669Y-55584250D01*
X113217758Y-55595795D01*
X113221596Y-55608087D01*
X113222819Y-55612350D01*
X113226276Y-55626536D01*
X113229393Y-55643375D01*
X113231282Y-55656075D01*
X113233020Y-55669955D01*
X113234607Y-55685014D01*
X113236042Y-55701252D01*
X113237327Y-55718669D01*
X113238460Y-55737265D01*
X113239443Y-55757041D01*
X113240274Y-55777996D01*
X113240954Y-55800130D01*
X113241483Y-55823443D01*
X113241691Y-55835542D01*
X113241861Y-55847936D01*
X113241993Y-55860624D01*
X113242087Y-55873608D01*
X113242144Y-55886886D01*
X113242163Y-55900459D01*
X113242163Y-56166000D01*
X113473705Y-56166000D01*
X113473705Y-55774307D01*
X113647898Y-55774307D01*
X113648094Y-55790842D01*
X114228415Y-55790842D01*
X114227922Y-55803993D01*
X114227028Y-55816772D01*
X114225733Y-55829180D01*
X114224037Y-55841218D01*
X114221941Y-55852884D01*
X114218045Y-55869688D01*
X114213248Y-55885658D01*
X114207549Y-55900792D01*
X114200948Y-55915093D01*
X114193446Y-55928558D01*
X114185042Y-55941189D01*
X114175737Y-55952986D01*
X114172435Y-55956732D01*
X114162146Y-55967313D01*
X114151394Y-55976852D01*
X114140178Y-55985352D01*
X114128499Y-55992810D01*
X114116355Y-55999228D01*
X114103749Y-56004605D01*
X114090678Y-56008941D01*
X114077144Y-56012236D01*
X114063146Y-56014491D01*
X114048684Y-56015705D01*
X114038785Y-56015937D01*
X114025500Y-56015520D01*
X114012755Y-56014270D01*
X114000551Y-56012186D01*
X113988886Y-56009269D01*
X113977763Y-56005518D01*
X113964618Y-55999658D01*
X113952318Y-55992495D01*
X113947634Y-55989265D01*
X113936445Y-55980136D01*
X113928134Y-55971689D01*
X113920389Y-55962226D01*
X113913213Y-55951745D01*
X113906605Y-55940248D01*
X113900565Y-55927735D01*
X113895092Y-55914204D01*
X113891360Y-55903390D01*
X113660404Y-55940905D01*
X113666174Y-55955594D01*
X113672348Y-55969839D01*
X113678924Y-55983639D01*
X113685903Y-55996996D01*
X113693285Y-56009908D01*
X113701071Y-56022376D01*
X113709259Y-56034399D01*
X113717850Y-56045979D01*
X113726844Y-56057114D01*
X113736242Y-56067805D01*
X113746042Y-56078051D01*
X113756245Y-56087854D01*
X113766851Y-56097212D01*
X113777861Y-56106126D01*
X113789273Y-56114596D01*
X113801088Y-56122622D01*
X113813257Y-56130146D01*
X113825804Y-56137185D01*
X113838729Y-56143738D01*
X113852031Y-56149806D01*
X113865711Y-56155389D01*
X113879769Y-56160486D01*
X113894205Y-56165097D01*
X113909019Y-56169224D01*
X113924211Y-56172864D01*
X113939780Y-56176020D01*
X113955727Y-56178689D01*
X113972052Y-56180874D01*
X113988755Y-56182573D01*
X114005835Y-56183786D01*
X114023294Y-56184515D01*
X114041130Y-56184757D01*
X114055302Y-56184611D01*
X114069242Y-56184172D01*
X114082949Y-56183441D01*
X114096424Y-56182417D01*
X114109666Y-56181101D01*
X114122676Y-56179492D01*
X114135453Y-56177591D01*
X114147998Y-56175397D01*
X114160311Y-56172910D01*
X114172391Y-56170131D01*
X114184239Y-56167060D01*
X114195855Y-56163696D01*
X114207238Y-56160039D01*
X114218388Y-56156090D01*
X114239993Y-56147315D01*
X114260667Y-56137369D01*
X114280412Y-56126254D01*
X114299227Y-56113968D01*
X114317112Y-56100512D01*
X114334068Y-56085886D01*
X114350094Y-56070090D01*
X114365191Y-56053124D01*
X114379357Y-56034988D01*
X114389827Y-56019722D01*
X114399622Y-56003966D01*
X114408741Y-55987720D01*
X114417185Y-55970984D01*
X114424953Y-55953758D01*
X114432045Y-55936042D01*
X114438462Y-55917836D01*
X114444204Y-55899140D01*
X114449270Y-55879954D01*
X114453661Y-55860278D01*
X114457376Y-55840112D01*
X114460416Y-55819456D01*
X114462780Y-55798309D01*
X114464468Y-55776673D01*
X114465482Y-55754547D01*
X114465819Y-55731931D01*
X114465708Y-55718358D01*
X114465375Y-55704971D01*
X114464820Y-55691770D01*
X114464043Y-55678753D01*
X114463043Y-55665923D01*
X114461822Y-55653277D01*
X114460378Y-55640817D01*
X114458712Y-55628543D01*
X114456824Y-55616454D01*
X114454714Y-55604551D01*
X114452382Y-55592833D01*
X114449828Y-55581300D01*
X114444053Y-55558792D01*
X114437390Y-55537025D01*
X114429838Y-55516001D01*
X114421398Y-55495718D01*
X114412069Y-55476177D01*
X114401852Y-55457378D01*
X114390747Y-55439321D01*
X114378753Y-55422005D01*
X114365871Y-55405432D01*
X114352100Y-55389600D01*
X114337649Y-55374587D01*
X114322727Y-55360543D01*
X114307333Y-55347467D01*
X114291467Y-55335360D01*
X114275129Y-55324221D01*
X114258320Y-55314051D01*
X114241039Y-55304850D01*
X114223286Y-55296617D01*
X114205062Y-55289353D01*
X114186366Y-55283057D01*
X114167198Y-55277730D01*
X114147559Y-55273371D01*
X114127448Y-55269981D01*
X114106865Y-55267560D01*
X114085810Y-55266107D01*
X114064284Y-55265623D01*
X114052165Y-55265749D01*
X114040206Y-55266128D01*
X114028408Y-55266759D01*
X114005295Y-55268778D01*
X113982826Y-55271808D01*
X113961000Y-55275847D01*
X113939817Y-55280896D01*
X113919278Y-55286955D01*
X113899382Y-55294023D01*
X113880129Y-55302101D01*
X113861520Y-55311190D01*
X113843555Y-55321287D01*
X113826232Y-55332395D01*
X113809554Y-55344513D01*
X113793518Y-55357640D01*
X113778127Y-55371777D01*
X113763378Y-55386924D01*
X113756245Y-55394876D01*
X113742565Y-55411570D01*
X113729807Y-55429337D01*
X113717973Y-55448179D01*
X113707061Y-55468094D01*
X113697072Y-55489083D01*
X113692423Y-55499980D01*
X113688005Y-55511146D01*
X113683818Y-55522581D01*
X113679862Y-55534283D01*
X113676136Y-55546255D01*
X113672641Y-55558494D01*
X113669376Y-55571002D01*
X113666343Y-55583779D01*
X113663540Y-55596824D01*
X113660968Y-55610138D01*
X113658626Y-55623720D01*
X113656515Y-55637571D01*
X113656088Y-55640780D01*
X113654635Y-55651690D01*
X113652985Y-55666077D01*
X113651567Y-55680733D01*
X113650378Y-55695658D01*
X113649421Y-55710851D01*
X113648694Y-55726312D01*
X113648198Y-55742042D01*
X113647933Y-55758040D01*
X113647898Y-55774307D01*
X113473705Y-55774307D01*
X113473705Y-55284381D01*
X113258576Y-55284381D01*
X113258576Y-55408944D01*
X113251732Y-55398154D01*
X113244975Y-55387837D01*
X113238305Y-55377995D01*
X113228462Y-55364119D01*
X113218816Y-55351311D01*
X113209366Y-55339568D01*
X113200111Y-55328893D01*
X113191052Y-55319283D01*
X113182189Y-55310740D01*
X113170676Y-55301009D01*
X113159511Y-55293173D01*
X113148259Y-55286716D01*
X113136632Y-55281120D01*
X113124629Y-55276385D01*
X113112250Y-55272510D01*
X113099496Y-55269497D01*
X113086366Y-55267345D01*
X113072861Y-55266053D01*
X113058981Y-55265623D01*
X113044194Y-55266040D01*
X113029511Y-55267292D01*
X113014931Y-55269378D01*
X113000454Y-55272300D01*
X112986080Y-55276055D01*
X112971809Y-55280646D01*
X112957641Y-55286071D01*
X112943576Y-55292331D01*
X112929614Y-55299425D01*
X112915755Y-55307354D01*
X112906573Y-55313103D01*
X112444889Y-55313103D01*
X112456385Y-55284381D01*
X112213119Y-55284381D01*
X112048401Y-55734276D01*
X112000628Y-55884632D01*
X111996085Y-55870948D01*
X111991981Y-55858473D01*
X111988318Y-55847208D01*
X111984356Y-55834826D01*
X111980510Y-55822461D01*
X111976919Y-55810206D01*
X111976594Y-55809014D01*
X111972979Y-55797375D01*
X111969278Y-55785721D01*
X111965492Y-55774054D01*
X111961619Y-55762371D01*
X111957660Y-55750675D01*
X111953616Y-55738964D01*
X111951974Y-55734276D01*
X111785498Y-55284381D01*
X111547215Y-55284381D01*
X111397445Y-55284381D01*
X111397445Y-55246865D01*
X111386063Y-55243034D01*
X111374557Y-55238796D01*
X111362927Y-55234150D01*
X111351174Y-55229096D01*
X111339297Y-55223635D01*
X111327296Y-55217766D01*
X111315171Y-55211490D01*
X111302923Y-55204806D01*
X111290552Y-55197715D01*
X111278056Y-55190216D01*
X111265438Y-55182309D01*
X111252695Y-55173995D01*
X111239829Y-55165273D01*
X111226839Y-55156144D01*
X111213725Y-55146607D01*
X111200488Y-55136662D01*
X111187450Y-55126372D01*
X111174934Y-55115871D01*
X111162940Y-55105160D01*
X111151468Y-55094237D01*
X111140519Y-55083105D01*
X111130091Y-55071761D01*
X111120186Y-55060207D01*
X111110802Y-55048442D01*
X111101941Y-55036466D01*
X111093601Y-55024280D01*
X111085784Y-55011883D01*
X111078489Y-54999276D01*
X111071716Y-54986458D01*
X111065464Y-54973429D01*
X111059735Y-54960189D01*
X111054528Y-54946739D01*
X114621158Y-54946739D01*
X114621158Y-55731638D01*
X114621158Y-56166000D01*
X114836287Y-56166000D01*
X114836287Y-56037332D01*
X114846514Y-56051061D01*
X114857080Y-56064109D01*
X114867987Y-56076477D01*
X114879234Y-56088165D01*
X114890821Y-56099174D01*
X114902748Y-56109502D01*
X114915015Y-56119150D01*
X114927622Y-56128117D01*
X114940569Y-56136405D01*
X114953856Y-56144013D01*
X114962903Y-56148707D01*
X114976597Y-56155150D01*
X114990311Y-56160959D01*
X115004046Y-56166134D01*
X115017802Y-56170675D01*
X115031579Y-56174583D01*
X115045376Y-56177857D01*
X115059193Y-56180498D01*
X115073032Y-56182504D01*
X115086890Y-56183877D01*
X115100770Y-56184617D01*
X115110034Y-56184757D01*
X115128733Y-56184281D01*
X115147092Y-56182852D01*
X115165113Y-56180471D01*
X115182794Y-56177137D01*
X115200137Y-56172851D01*
X115217141Y-56167612D01*
X115233806Y-56161420D01*
X115250132Y-56154276D01*
X115266119Y-56146179D01*
X115281768Y-56137130D01*
X115297077Y-56127128D01*
X115312048Y-56116174D01*
X115326679Y-56104267D01*
X115340972Y-56091408D01*
X115354926Y-56077596D01*
X115368541Y-56062831D01*
X115381566Y-56047177D01*
X115393751Y-56030770D01*
X115405096Y-56013609D01*
X115415601Y-55995695D01*
X115425265Y-55977028D01*
X115434088Y-55957607D01*
X115442071Y-55937433D01*
X115449214Y-55916505D01*
X115455517Y-55894825D01*
X115460979Y-55872391D01*
X115463395Y-55860891D01*
X115465601Y-55849203D01*
X115467597Y-55837327D01*
X115469383Y-55825262D01*
X115470958Y-55813010D01*
X115472324Y-55800568D01*
X115473479Y-55787939D01*
X115474425Y-55775121D01*
X115475160Y-55762115D01*
X115475685Y-55748920D01*
X115476001Y-55735537D01*
X115476099Y-55722845D01*
X115600083Y-55722845D01*
X115600089Y-55723431D01*
X115600209Y-55735235D01*
X115600585Y-55747492D01*
X115601212Y-55759617D01*
X115602089Y-55771608D01*
X115603217Y-55783467D01*
X115604596Y-55795193D01*
X115608107Y-55818247D01*
X115612620Y-55840769D01*
X115618136Y-55862760D01*
X115624655Y-55884220D01*
X115632177Y-55905148D01*
X115640702Y-55925545D01*
X115650229Y-55945412D01*
X115660760Y-55964746D01*
X115672294Y-55983550D01*
X115684830Y-56001823D01*
X115698370Y-56019564D01*
X115712912Y-56036774D01*
X115728457Y-56053452D01*
X115744726Y-56069353D01*
X115761512Y-56084227D01*
X115778816Y-56098076D01*
X115796638Y-56110898D01*
X115814976Y-56122695D01*
X115833833Y-56133466D01*
X115853207Y-56143212D01*
X115873098Y-56151931D01*
X115893507Y-56159625D01*
X115914433Y-56166293D01*
X115935877Y-56171935D01*
X115957838Y-56176551D01*
X115980317Y-56180141D01*
X116003313Y-56182706D01*
X116015005Y-56183603D01*
X116026827Y-56184244D01*
X116038778Y-56184629D01*
X116050858Y-56184757D01*
X116065872Y-56184544D01*
X116080799Y-56183906D01*
X116095639Y-56182841D01*
X116110392Y-56181350D01*
X116125058Y-56179434D01*
X116139637Y-56177091D01*
X116154129Y-56174323D01*
X116168534Y-56171129D01*
X116182852Y-56167508D01*
X116197083Y-56163462D01*
X116211227Y-56158990D01*
X116225284Y-56154093D01*
X116239254Y-56148769D01*
X116253137Y-56143019D01*
X116266933Y-56136844D01*
X116280642Y-56130242D01*
X116294066Y-56123193D01*
X116307084Y-56115748D01*
X116319694Y-56107907D01*
X116331896Y-56099669D01*
X116343691Y-56091036D01*
X116355078Y-56082006D01*
X116366057Y-56072580D01*
X116376629Y-56062758D01*
X116386793Y-56052540D01*
X116396550Y-56041926D01*
X116405899Y-56030915D01*
X116414841Y-56019509D01*
X116423375Y-56007706D01*
X116431501Y-55995507D01*
X116439220Y-55982912D01*
X116446531Y-55969921D01*
X116453417Y-55956552D01*
X116459858Y-55942824D01*
X116465855Y-55928736D01*
X116471407Y-55914289D01*
X116476516Y-55899482D01*
X116481083Y-55884632D01*
X116609490Y-55884632D01*
X116614177Y-55902922D01*
X116619373Y-55920645D01*
X116625077Y-55937800D01*
X116631289Y-55954387D01*
X116638009Y-55970407D01*
X116645238Y-55985858D01*
X116652975Y-56000742D01*
X116661221Y-56015057D01*
X116669975Y-56028805D01*
X116679237Y-56041985D01*
X116689007Y-56054597D01*
X116699286Y-56066642D01*
X116710073Y-56078118D01*
X116721369Y-56089026D01*
X116733172Y-56099367D01*
X116745484Y-56109140D01*
X116758319Y-56118297D01*
X116771689Y-56126863D01*
X116785595Y-56134838D01*
X116800036Y-56142222D01*
X116815014Y-56149016D01*
X116830527Y-56155219D01*
X116846576Y-56160831D01*
X116863161Y-56165853D01*
X116880281Y-56170284D01*
X116897938Y-56174124D01*
X116916130Y-56177373D01*
X116934858Y-56180031D01*
X116954122Y-56182099D01*
X116973922Y-56183576D01*
X116994257Y-56184462D01*
X117015129Y-56184757D01*
X117027051Y-56184639D01*
X117038822Y-56184282D01*
X117061909Y-56182857D01*
X117084389Y-56180481D01*
X117106262Y-56177155D01*
X117127528Y-56172879D01*
X117148188Y-56167653D01*
X117153554Y-56166000D01*
X117613914Y-56166000D01*
X117845457Y-56166000D01*
X117845457Y-55710829D01*
X117845515Y-55693165D01*
X117845690Y-55676299D01*
X117845982Y-55660229D01*
X117846391Y-55644956D01*
X117846916Y-55630480D01*
X117847559Y-55616801D01*
X117848318Y-55603919D01*
X117849193Y-55591833D01*
X117850726Y-55575199D01*
X117852522Y-55560358D01*
X117854580Y-55547310D01*
X117857733Y-55532701D01*
X117860404Y-55523836D01*
X117865442Y-55511021D01*
X117871395Y-55499135D01*
X117878265Y-55488180D01*
X117886050Y-55478155D01*
X117894751Y-55469060D01*
X117904368Y-55460896D01*
X117908471Y-55457891D01*
X117919242Y-55451136D01*
X117930671Y-55445526D01*
X117942758Y-55441061D01*
X117955503Y-55437741D01*
X117968907Y-55435565D01*
X117982969Y-55434535D01*
X117988778Y-55434443D01*
X118003676Y-55434970D01*
X118018179Y-55436550D01*
X118032289Y-55439183D01*
X118046004Y-55442870D01*
X118059326Y-55447610D01*
X118072254Y-55453403D01*
X118084789Y-55460249D01*
X118096929Y-55468149D01*
X118108405Y-55476850D01*
X118118948Y-55486247D01*
X118128555Y-55496341D01*
X118137229Y-55507130D01*
X118144969Y-55518616D01*
X118151774Y-55530797D01*
X118157645Y-55543675D01*
X118162581Y-55557249D01*
X118166703Y-55572567D01*
X118169434Y-55585986D01*
X118171855Y-55601058D01*
X118173967Y-55617784D01*
X118175204Y-55629853D01*
X118176303Y-55642658D01*
X118177265Y-55656197D01*
X118178089Y-55670472D01*
X118178776Y-55685481D01*
X118179325Y-55701225D01*
X118179738Y-55717705D01*
X118180012Y-55734920D01*
X118180150Y-55752869D01*
X118180167Y-55762120D01*
X118180167Y-56166000D01*
X118411709Y-56166000D01*
X118608960Y-56166000D01*
X119528094Y-56166000D01*
X119528094Y-55313103D01*
X120092002Y-55313103D01*
X120163810Y-55528819D01*
X120174726Y-55522010D01*
X120185493Y-55515870D01*
X120196110Y-55510400D01*
X120210034Y-55504149D01*
X120223693Y-55499089D01*
X120237086Y-55495219D01*
X120250213Y-55492540D01*
X120263075Y-55491052D01*
X120272547Y-55490717D01*
X120284481Y-55491129D01*
X120298755Y-55492803D01*
X120312313Y-55495766D01*
X120325156Y-55500016D01*
X120337283Y-55505555D01*
X120348695Y-55512381D01*
X120355198Y-55517095D01*
X120365381Y-55526376D01*
X120373022Y-55535295D01*
X120380214Y-55545541D01*
X120386957Y-55557116D01*
X120393252Y-55570019D01*
X120399098Y-55584250D01*
X120403188Y-55595795D01*
X120407025Y-55608087D01*
X120408248Y-55612350D01*
X120411705Y-55626536D01*
X120414822Y-55643375D01*
X120416711Y-55656075D01*
X120418449Y-55669955D01*
X120420036Y-55685014D01*
X120421471Y-55701252D01*
X120422756Y-55718669D01*
X120423889Y-55737265D01*
X120424872Y-55757041D01*
X120425703Y-55777996D01*
X120426383Y-55800130D01*
X120426912Y-55823443D01*
X120427120Y-55835542D01*
X120427290Y-55847936D01*
X120427422Y-55860624D01*
X120427516Y-55873608D01*
X120427573Y-55886886D01*
X120427592Y-55900459D01*
X120427592Y-56166000D01*
X120659134Y-56166000D01*
X120659134Y-55722845D01*
X120825317Y-55722845D01*
X120825323Y-55723431D01*
X120825442Y-55735235D01*
X120825818Y-55747492D01*
X120826445Y-55759617D01*
X120827323Y-55771608D01*
X120828451Y-55783467D01*
X120829830Y-55795193D01*
X120833340Y-55818247D01*
X120837854Y-55840769D01*
X120843370Y-55862760D01*
X120849889Y-55884220D01*
X120857411Y-55905148D01*
X120865935Y-55925545D01*
X120875463Y-55945412D01*
X120885994Y-55964746D01*
X120897527Y-55983550D01*
X120910064Y-56001823D01*
X120923603Y-56019564D01*
X120938146Y-56036774D01*
X120953691Y-56053452D01*
X120969960Y-56069353D01*
X120986746Y-56084227D01*
X121004050Y-56098076D01*
X121021871Y-56110898D01*
X121040210Y-56122695D01*
X121059067Y-56133466D01*
X121078440Y-56143212D01*
X121098332Y-56151931D01*
X121118740Y-56159625D01*
X121139667Y-56166293D01*
X121161110Y-56171935D01*
X121183072Y-56176551D01*
X121205550Y-56180141D01*
X121228547Y-56182706D01*
X121240239Y-56183603D01*
X121252060Y-56184244D01*
X121264011Y-56184629D01*
X121276092Y-56184757D01*
X121291106Y-56184544D01*
X121306033Y-56183906D01*
X121320873Y-56182841D01*
X121335626Y-56181350D01*
X121350292Y-56179434D01*
X121364871Y-56177091D01*
X121379363Y-56174323D01*
X121393768Y-56171129D01*
X121408086Y-56167508D01*
X121422317Y-56163462D01*
X121436461Y-56158990D01*
X121449993Y-56154276D01*
X121813914Y-56154276D01*
X121829267Y-56159723D01*
X121844991Y-56164635D01*
X121861086Y-56169011D01*
X121877552Y-56172851D01*
X121894389Y-56176155D01*
X121911596Y-56178923D01*
X121923274Y-56180471D01*
X121935117Y-56181781D01*
X121947124Y-56182852D01*
X121959297Y-56183686D01*
X121971634Y-56184281D01*
X121984136Y-56184638D01*
X121996803Y-56184757D01*
X122012291Y-56184418D01*
X122027395Y-56183402D01*
X122042114Y-56181707D01*
X122056448Y-56179335D01*
X122070397Y-56176285D01*
X122083961Y-56172557D01*
X122097141Y-56168152D01*
X122109937Y-56163069D01*
X122122054Y-56157449D01*
X122133347Y-56151437D01*
X122143816Y-56145030D01*
X122153461Y-56138229D01*
X122164357Y-56129174D01*
X122173966Y-56119504D01*
X122182286Y-56109219D01*
X122183796Y-56107088D01*
X122190772Y-56095778D01*
X122197048Y-56083280D01*
X122201563Y-56072427D01*
X122205630Y-56060813D01*
X122209248Y-56048439D01*
X122212417Y-56035305D01*
X122215137Y-56021410D01*
X122216329Y-56014178D01*
X122218046Y-56002450D01*
X122219535Y-55988075D01*
X122220501Y-55975556D01*
X122221338Y-55961549D01*
X122222046Y-55946052D01*
X122222626Y-55929067D01*
X122222941Y-55916916D01*
X122223198Y-55904104D01*
X122223399Y-55890630D01*
X122223542Y-55876494D01*
X122223628Y-55861696D01*
X122223656Y-55846237D01*
X122223656Y-55722845D01*
X122410355Y-55722845D01*
X122410361Y-55723431D01*
X122410481Y-55735235D01*
X122410857Y-55747492D01*
X122411484Y-55759617D01*
X122412361Y-55771608D01*
X122413490Y-55783467D01*
X122414869Y-55795193D01*
X122418379Y-55818247D01*
X122422892Y-55840769D01*
X122428408Y-55862760D01*
X122434927Y-55884220D01*
X122442449Y-55905148D01*
X122450974Y-55925545D01*
X122460502Y-55945412D01*
X122471032Y-55964746D01*
X122482566Y-55983550D01*
X122495102Y-56001823D01*
X122508642Y-56019564D01*
X122523184Y-56036774D01*
X122538729Y-56053452D01*
X122554998Y-56069353D01*
X122571785Y-56084227D01*
X122589088Y-56098076D01*
X122606910Y-56110898D01*
X122625249Y-56122695D01*
X122644105Y-56133466D01*
X122663479Y-56143212D01*
X122683370Y-56151931D01*
X122703779Y-56159625D01*
X122724705Y-56166293D01*
X122746149Y-56171935D01*
X122768110Y-56176551D01*
X122790589Y-56180141D01*
X122813585Y-56182706D01*
X122825277Y-56183603D01*
X122837099Y-56184244D01*
X122849050Y-56184629D01*
X122861130Y-56184757D01*
X122876144Y-56184544D01*
X122891071Y-56183906D01*
X122905911Y-56182841D01*
X122920664Y-56181350D01*
X122935330Y-56179434D01*
X122949909Y-56177091D01*
X122964401Y-56174323D01*
X122978806Y-56171129D01*
X122993124Y-56167508D01*
X123007355Y-56163462D01*
X123021499Y-56158990D01*
X123035556Y-56154093D01*
X123049526Y-56148769D01*
X123063409Y-56143019D01*
X123077205Y-56136844D01*
X123090914Y-56130242D01*
X123104339Y-56123193D01*
X123117356Y-56115748D01*
X123129966Y-56107907D01*
X123142168Y-56099669D01*
X123153963Y-56091036D01*
X123165350Y-56082006D01*
X123176329Y-56072580D01*
X123186901Y-56062758D01*
X123197065Y-56052540D01*
X123206822Y-56041926D01*
X123216171Y-56030915D01*
X123225113Y-56019509D01*
X123233647Y-56007706D01*
X123241773Y-55995507D01*
X123249492Y-55982912D01*
X123256803Y-55969921D01*
X123263689Y-55956552D01*
X123270130Y-55942824D01*
X123276127Y-55928736D01*
X123281680Y-55914289D01*
X123286788Y-55899482D01*
X123291452Y-55884316D01*
X123295672Y-55868790D01*
X123299448Y-55852905D01*
X123302780Y-55836660D01*
X123305667Y-55820055D01*
X123308110Y-55803092D01*
X123310109Y-55785768D01*
X123311664Y-55768086D01*
X123312775Y-55750043D01*
X123313441Y-55731641D01*
X123313663Y-55712880D01*
X123313441Y-55698402D01*
X123312775Y-55683983D01*
X123311664Y-55669624D01*
X123310109Y-55655324D01*
X123308110Y-55641084D01*
X123305667Y-55626904D01*
X123302780Y-55612783D01*
X123299448Y-55598721D01*
X123295672Y-55584719D01*
X123291452Y-55570777D01*
X123286788Y-55556894D01*
X123281680Y-55543070D01*
X123276127Y-55529306D01*
X123270130Y-55515602D01*
X123263689Y-55501957D01*
X123256803Y-55488372D01*
X123249510Y-55475017D01*
X123241847Y-55462063D01*
X123233812Y-55449509D01*
X123225406Y-55437356D01*
X123216629Y-55425604D01*
X123207482Y-55414252D01*
X123197963Y-55403301D01*
X123188073Y-55392751D01*
X123177813Y-55382602D01*
X123167182Y-55372853D01*
X123156179Y-55363505D01*
X123144806Y-55354558D01*
X123133062Y-55346011D01*
X123120946Y-55337865D01*
X123108460Y-55330120D01*
X123095603Y-55322775D01*
X123082467Y-55315855D01*
X123069142Y-55309380D01*
X123055630Y-55303352D01*
X123041931Y-55297771D01*
X123028043Y-55292636D01*
X123013968Y-55287948D01*
X122999705Y-55283706D01*
X122985254Y-55279911D01*
X122970616Y-55276562D01*
X122955789Y-55273660D01*
X122940775Y-55271204D01*
X122925573Y-55269195D01*
X122910184Y-55267632D01*
X122894607Y-55266516D01*
X122878841Y-55265846D01*
X122862889Y-55265623D01*
X122850539Y-55265749D01*
X122838330Y-55266129D01*
X122826260Y-55266761D01*
X122814332Y-55267647D01*
X122802543Y-55268785D01*
X122790895Y-55270177D01*
X122768019Y-55273719D01*
X122745703Y-55278274D01*
X122723949Y-55283840D01*
X122702756Y-55290419D01*
X122682124Y-55298009D01*
X122662053Y-55306612D01*
X122642543Y-55316227D01*
X122623594Y-55326854D01*
X122605206Y-55338493D01*
X122587379Y-55351144D01*
X122570113Y-55364807D01*
X122553408Y-55379482D01*
X122537264Y-55395169D01*
X122521896Y-55411630D01*
X122507520Y-55428627D01*
X122494135Y-55446160D01*
X122481741Y-55464229D01*
X122470340Y-55482833D01*
X122459929Y-55501973D01*
X122450510Y-55521649D01*
X122442083Y-55541861D01*
X122434646Y-55562609D01*
X122428202Y-55583892D01*
X122422749Y-55605712D01*
X122418287Y-55628067D01*
X122414817Y-55650958D01*
X122413454Y-55662604D01*
X122412338Y-55674384D01*
X122411471Y-55686299D01*
X122410851Y-55698347D01*
X122410479Y-55710529D01*
X122410355Y-55722845D01*
X122223656Y-55722845D01*
X122223656Y-55453201D01*
X122330048Y-55453201D01*
X122330048Y-55284381D01*
X122223656Y-55284381D01*
X122223656Y-55115560D01*
X121991235Y-54984255D01*
X121991235Y-55284381D01*
X121832965Y-55284381D01*
X121832965Y-55453201D01*
X121991235Y-55453201D01*
X121991235Y-55835979D01*
X121991217Y-55850144D01*
X121991166Y-55863552D01*
X121991080Y-55876202D01*
X121990960Y-55888094D01*
X121990715Y-55904511D01*
X121990393Y-55919222D01*
X121989994Y-55932228D01*
X121989341Y-55946917D01*
X121988332Y-55961015D01*
X121986838Y-55971680D01*
X121982791Y-55983112D01*
X121976511Y-55993227D01*
X121967999Y-56002025D01*
X121966029Y-56003627D01*
X121955295Y-56010118D01*
X121943246Y-56014206D01*
X121931275Y-56015829D01*
X121927048Y-56015937D01*
X121913948Y-56015154D01*
X121901489Y-56013305D01*
X121887627Y-56010368D01*
X121875528Y-56007236D01*
X121862531Y-56003407D01*
X121848637Y-55998882D01*
X121833845Y-55993662D01*
X121813914Y-56154276D01*
X121449993Y-56154276D01*
X121450518Y-56154093D01*
X121464488Y-56148769D01*
X121478370Y-56143019D01*
X121492166Y-56136844D01*
X121505875Y-56130242D01*
X121519300Y-56123193D01*
X121532318Y-56115748D01*
X121544927Y-56107907D01*
X121557130Y-56099669D01*
X121568924Y-56091036D01*
X121580311Y-56082006D01*
X121591291Y-56072580D01*
X121601863Y-56062758D01*
X121612027Y-56052540D01*
X121621784Y-56041926D01*
X121631133Y-56030915D01*
X121640075Y-56019509D01*
X121648609Y-56007706D01*
X121656735Y-55995507D01*
X121664454Y-55982912D01*
X121671765Y-55969921D01*
X121678650Y-55956552D01*
X121685092Y-55942824D01*
X121691088Y-55928736D01*
X121696641Y-55914289D01*
X121701750Y-55899482D01*
X121706414Y-55884316D01*
X121710634Y-55868790D01*
X121714410Y-55852905D01*
X121717741Y-55836660D01*
X121720629Y-55820055D01*
X121723072Y-55803092D01*
X121725071Y-55785768D01*
X121726626Y-55768086D01*
X121727736Y-55750043D01*
X121728403Y-55731641D01*
X121728625Y-55712880D01*
X121728403Y-55698402D01*
X121727736Y-55683983D01*
X121726626Y-55669624D01*
X121725071Y-55655324D01*
X121723072Y-55641084D01*
X121720629Y-55626904D01*
X121717741Y-55612783D01*
X121714410Y-55598721D01*
X121710634Y-55584719D01*
X121706414Y-55570777D01*
X121701750Y-55556894D01*
X121696641Y-55543070D01*
X121691088Y-55529306D01*
X121685092Y-55515602D01*
X121678650Y-55501957D01*
X121671765Y-55488372D01*
X121664472Y-55475017D01*
X121656808Y-55462063D01*
X121648773Y-55449509D01*
X121640368Y-55437356D01*
X121631591Y-55425604D01*
X121622443Y-55414252D01*
X121612925Y-55403301D01*
X121603035Y-55392751D01*
X121592775Y-55382602D01*
X121582143Y-55372853D01*
X121571141Y-55363505D01*
X121559767Y-55354558D01*
X121548023Y-55346011D01*
X121535908Y-55337865D01*
X121523422Y-55330120D01*
X121510565Y-55322775D01*
X121497428Y-55315855D01*
X121484104Y-55309380D01*
X121470592Y-55303352D01*
X121456892Y-55297771D01*
X121443005Y-55292636D01*
X121428930Y-55287948D01*
X121414667Y-55283706D01*
X121400216Y-55279911D01*
X121385577Y-55276562D01*
X121370751Y-55273660D01*
X121355737Y-55271204D01*
X121340535Y-55269195D01*
X121325146Y-55267632D01*
X121309568Y-55266516D01*
X121293803Y-55265846D01*
X121277850Y-55265623D01*
X121265501Y-55265749D01*
X121253291Y-55266129D01*
X121241222Y-55266761D01*
X121229293Y-55267647D01*
X121217505Y-55268785D01*
X121205856Y-55270177D01*
X121182980Y-55273719D01*
X121160665Y-55278274D01*
X121138911Y-55283840D01*
X121117718Y-55290419D01*
X121097086Y-55298009D01*
X121077015Y-55306612D01*
X121057505Y-55316227D01*
X121038556Y-55326854D01*
X121020168Y-55338493D01*
X121002341Y-55351144D01*
X120985075Y-55364807D01*
X120968370Y-55379482D01*
X120952226Y-55395169D01*
X120936858Y-55411630D01*
X120922481Y-55428627D01*
X120909097Y-55446160D01*
X120896703Y-55464229D01*
X120885301Y-55482833D01*
X120874891Y-55501973D01*
X120865472Y-55521649D01*
X120857044Y-55541861D01*
X120849608Y-55562609D01*
X120843164Y-55583892D01*
X120837710Y-55605712D01*
X120833249Y-55628067D01*
X120829779Y-55650958D01*
X120828415Y-55662604D01*
X120827300Y-55674384D01*
X120826432Y-55686299D01*
X120825813Y-55698347D01*
X120825441Y-55710529D01*
X120825317Y-55722845D01*
X120659134Y-55722845D01*
X120659134Y-55284381D01*
X120444005Y-55284381D01*
X120444005Y-55408944D01*
X120437161Y-55398154D01*
X120430404Y-55387837D01*
X120423734Y-55377995D01*
X120413892Y-55364119D01*
X120404245Y-55351311D01*
X120394795Y-55339568D01*
X120385540Y-55328893D01*
X120376481Y-55319283D01*
X120367618Y-55310740D01*
X120356105Y-55301009D01*
X120344940Y-55293173D01*
X120333688Y-55286716D01*
X120322061Y-55281120D01*
X120310058Y-55276385D01*
X120297679Y-55272510D01*
X120284925Y-55269497D01*
X120271796Y-55267345D01*
X120258290Y-55266053D01*
X120244410Y-55265623D01*
X120229624Y-55266040D01*
X120214940Y-55267292D01*
X120200360Y-55269378D01*
X120185883Y-55272300D01*
X120171509Y-55276055D01*
X120157238Y-55280646D01*
X120143070Y-55286071D01*
X120129005Y-55292331D01*
X120115043Y-55299425D01*
X120101184Y-55307354D01*
X120092002Y-55313103D01*
X119528094Y-55313103D01*
X119528094Y-54946739D01*
X123493328Y-54946739D01*
X123493328Y-56166000D01*
X123719888Y-56166000D01*
X123719888Y-55206125D01*
X123959930Y-56166000D01*
X124194696Y-56166000D01*
X124433859Y-55206125D01*
X124433859Y-56166000D01*
X124660418Y-56166000D01*
X124660418Y-54946739D01*
X124295226Y-54946739D01*
X124075994Y-55778533D01*
X123859106Y-54946739D01*
X123493328Y-54946739D01*
X119528094Y-54946739D01*
X118632114Y-54946739D01*
X118632114Y-55153076D01*
X119283949Y-55153076D01*
X119283949Y-55415685D01*
X118677250Y-55415685D01*
X118677250Y-55622022D01*
X119283949Y-55622022D01*
X119283949Y-55959663D01*
X118608960Y-55959663D01*
X118608960Y-56166000D01*
X118411709Y-56166000D01*
X118411709Y-55284381D01*
X118196580Y-55284381D01*
X118196580Y-55413048D01*
X118182024Y-55395195D01*
X118167005Y-55378495D01*
X118151524Y-55362946D01*
X118135580Y-55348549D01*
X118119174Y-55335304D01*
X118102305Y-55323211D01*
X118084974Y-55312269D01*
X118067180Y-55302479D01*
X118048924Y-55293841D01*
X118030205Y-55286354D01*
X118011023Y-55280020D01*
X117991379Y-55274837D01*
X117971273Y-55270806D01*
X117950704Y-55267926D01*
X117929672Y-55266199D01*
X117908178Y-55265623D01*
X117893899Y-55265867D01*
X117879856Y-55266602D01*
X117866050Y-55267825D01*
X117852482Y-55269538D01*
X117839150Y-55271741D01*
X117826055Y-55274433D01*
X117813198Y-55277614D01*
X117800577Y-55281285D01*
X117788193Y-55285445D01*
X117776047Y-55290095D01*
X117768080Y-55293466D01*
X117756428Y-55298821D01*
X117745322Y-55304444D01*
X117734762Y-55310334D01*
X117724749Y-55316492D01*
X117712247Y-55325120D01*
X117700715Y-55334224D01*
X117690155Y-55343805D01*
X117680565Y-55353862D01*
X117671946Y-55364394D01*
X117664125Y-55375349D01*
X117656926Y-55386669D01*
X117650349Y-55398356D01*
X117644396Y-55410410D01*
X117639065Y-55422830D01*
X117634357Y-55435616D01*
X117630273Y-55448768D01*
X117626810Y-55462287D01*
X117623788Y-55476658D01*
X117621785Y-55488409D01*
X117620010Y-55500996D01*
X117618461Y-55514417D01*
X117617138Y-55528672D01*
X117616043Y-55543762D01*
X117615174Y-55559687D01*
X117614531Y-55576447D01*
X117614116Y-55594041D01*
X117613965Y-55606234D01*
X117613914Y-55618798D01*
X117613914Y-56166000D01*
X117153554Y-56166000D01*
X117168240Y-56161476D01*
X117187686Y-56154349D01*
X117206525Y-56146272D01*
X117224758Y-56137244D01*
X117242383Y-56127267D01*
X117259402Y-56116339D01*
X117275814Y-56104461D01*
X117291619Y-56091632D01*
X117306818Y-56077853D01*
X117321409Y-56063124D01*
X117335215Y-56047520D01*
X117348131Y-56031187D01*
X117360156Y-56014125D01*
X117371290Y-55996336D01*
X117381533Y-55977819D01*
X117390886Y-55958573D01*
X117399347Y-55938599D01*
X117406919Y-55917898D01*
X117413599Y-55896468D01*
X117419389Y-55874309D01*
X117424288Y-55851423D01*
X117426403Y-55839707D01*
X117428296Y-55827809D01*
X117429966Y-55815728D01*
X117431413Y-55803466D01*
X117432638Y-55791022D01*
X117433640Y-55778395D01*
X117434420Y-55765587D01*
X117434976Y-55752596D01*
X117435310Y-55739424D01*
X117435422Y-55726069D01*
X117435310Y-55712553D01*
X117434974Y-55699225D01*
X117434414Y-55686085D01*
X117433631Y-55673134D01*
X117432624Y-55660371D01*
X117431393Y-55647797D01*
X117429938Y-55635410D01*
X117428259Y-55623213D01*
X117426357Y-55611203D01*
X117424230Y-55599382D01*
X117421880Y-55587749D01*
X117419306Y-55576304D01*
X117413487Y-55553980D01*
X117406772Y-55532409D01*
X117399162Y-55511592D01*
X117390657Y-55491527D01*
X117381256Y-55472217D01*
X117370960Y-55453659D01*
X117359769Y-55435855D01*
X117347682Y-55418804D01*
X117334700Y-55402507D01*
X117320823Y-55386963D01*
X117306182Y-55372269D01*
X117290909Y-55358523D01*
X117275005Y-55345726D01*
X117258468Y-55333876D01*
X117241299Y-55322975D01*
X117223498Y-55313021D01*
X117205066Y-55304015D01*
X117186001Y-55295958D01*
X117166304Y-55288848D01*
X117145976Y-55282686D01*
X117125015Y-55277472D01*
X117103422Y-55273206D01*
X117081198Y-55269889D01*
X117058341Y-55267519D01*
X117034853Y-55266097D01*
X117022871Y-55265741D01*
X117010732Y-55265623D01*
X116991021Y-55265877D01*
X116971820Y-55266639D01*
X116953129Y-55267910D01*
X116934950Y-55269689D01*
X116917281Y-55271977D01*
X116900122Y-55274773D01*
X116883474Y-55278077D01*
X116867337Y-55281889D01*
X116851711Y-55286210D01*
X116836595Y-55291039D01*
X116821989Y-55296377D01*
X116807895Y-55302222D01*
X116794311Y-55308577D01*
X116781237Y-55315439D01*
X116768674Y-55322810D01*
X116756622Y-55330689D01*
X116745032Y-55339051D01*
X116733857Y-55347945D01*
X116723096Y-55357369D01*
X116712750Y-55367325D01*
X116702818Y-55377813D01*
X116693300Y-55388831D01*
X116684197Y-55400381D01*
X116675509Y-55412461D01*
X116667235Y-55425074D01*
X116659375Y-55438217D01*
X116651930Y-55451891D01*
X116644899Y-55466097D01*
X116638283Y-55480834D01*
X116632081Y-55496102D01*
X116626294Y-55511902D01*
X116620921Y-55528233D01*
X116849239Y-55565748D01*
X116851642Y-55553779D01*
X116854566Y-55542382D01*
X116859274Y-55528076D01*
X116864907Y-55514786D01*
X116871465Y-55502513D01*
X116878948Y-55491256D01*
X116887356Y-55481016D01*
X116896689Y-55471793D01*
X116901702Y-55467563D01*
X116912267Y-55459800D01*
X116923592Y-55453073D01*
X116935678Y-55447381D01*
X116948524Y-55442723D01*
X116962129Y-55439101D01*
X116976495Y-55436513D01*
X116991622Y-55434961D01*
X117003465Y-55434476D01*
X117007508Y-55434443D01*
X117023413Y-55435005D01*
X117038705Y-55436690D01*
X117053384Y-55439497D01*
X117067450Y-55443428D01*
X117080903Y-55448483D01*
X117093742Y-55454660D01*
X117105969Y-55461960D01*
X117117582Y-55470384D01*
X117128583Y-55479930D01*
X117138970Y-55490600D01*
X117145554Y-55498337D01*
X117154773Y-55511072D01*
X117163085Y-55525317D01*
X117170490Y-55541070D01*
X117174923Y-55552412D01*
X117178953Y-55564424D01*
X117182580Y-55577107D01*
X117185804Y-55590461D01*
X117188625Y-55604486D01*
X117191043Y-55619182D01*
X117193058Y-55634548D01*
X117194670Y-55650586D01*
X117195879Y-55667294D01*
X117196685Y-55684674D01*
X117197088Y-55702724D01*
X117197138Y-55712001D01*
X117196935Y-55732429D01*
X117196323Y-55752095D01*
X117195304Y-55770998D01*
X117193878Y-55789139D01*
X117192044Y-55806517D01*
X117189802Y-55823133D01*
X117187153Y-55838986D01*
X117184096Y-55854077D01*
X117180631Y-55868405D01*
X117176759Y-55881971D01*
X117172480Y-55894774D01*
X117167793Y-55906815D01*
X117162698Y-55918093D01*
X117157196Y-55928609D01*
X117148178Y-55942953D01*
X117144968Y-55947353D01*
X117134817Y-55959610D01*
X117124037Y-55970661D01*
X117112629Y-55980506D01*
X117100592Y-55989146D01*
X117087927Y-55996581D01*
X117074633Y-56002809D01*
X117060711Y-56007833D01*
X117046160Y-56011650D01*
X117030980Y-56014262D01*
X117015172Y-56015669D01*
X117004284Y-56015937D01*
X116992131Y-56015604D01*
X116980400Y-56014607D01*
X116965415Y-56012244D01*
X116951182Y-56008700D01*
X116937700Y-56003974D01*
X116924969Y-55998066D01*
X116912989Y-55990977D01*
X116901759Y-55982706D01*
X116896427Y-55978128D01*
X116886265Y-55967746D01*
X116876881Y-55955651D01*
X116870354Y-55945457D01*
X116864266Y-55934298D01*
X116858615Y-55922176D01*
X116853402Y-55909091D01*
X116848627Y-55895042D01*
X116844290Y-55880030D01*
X116840390Y-55864055D01*
X116836929Y-55847116D01*
X116609490Y-55884632D01*
X116481083Y-55884632D01*
X116481180Y-55884316D01*
X116485400Y-55868790D01*
X116489176Y-55852905D01*
X116492508Y-55836660D01*
X116495395Y-55820055D01*
X116497838Y-55803092D01*
X116499837Y-55785768D01*
X116501392Y-55768086D01*
X116502503Y-55750043D01*
X116503169Y-55731641D01*
X116503391Y-55712880D01*
X116503169Y-55698402D01*
X116502503Y-55683983D01*
X116501392Y-55669624D01*
X116499837Y-55655324D01*
X116497838Y-55641084D01*
X116495395Y-55626904D01*
X116492508Y-55612783D01*
X116489176Y-55598721D01*
X116485400Y-55584719D01*
X116481180Y-55570777D01*
X116476516Y-55556894D01*
X116471407Y-55543070D01*
X116465855Y-55529306D01*
X116459858Y-55515602D01*
X116453417Y-55501957D01*
X116446531Y-55488372D01*
X116439238Y-55475017D01*
X116431574Y-55462063D01*
X116423540Y-55449509D01*
X116415134Y-55437356D01*
X116406357Y-55425604D01*
X116397209Y-55414252D01*
X116387691Y-55403301D01*
X116377801Y-55392751D01*
X116367541Y-55382602D01*
X116356909Y-55372853D01*
X116345907Y-55363505D01*
X116334534Y-55354558D01*
X116322789Y-55346011D01*
X116310674Y-55337865D01*
X116298188Y-55330120D01*
X116285331Y-55322775D01*
X116272195Y-55315855D01*
X116258870Y-55309380D01*
X116245358Y-55303352D01*
X116231659Y-55297771D01*
X116217771Y-55292636D01*
X116203696Y-55287948D01*
X116189433Y-55283706D01*
X116174982Y-55279911D01*
X116160344Y-55276562D01*
X116145517Y-55273660D01*
X116130503Y-55271204D01*
X116115301Y-55269195D01*
X116099912Y-55267632D01*
X116084334Y-55266516D01*
X116068569Y-55265846D01*
X116052616Y-55265623D01*
X116040267Y-55265749D01*
X116028057Y-55266129D01*
X116015988Y-55266761D01*
X116004059Y-55267647D01*
X115992271Y-55268785D01*
X115980622Y-55270177D01*
X115957746Y-55273719D01*
X115935431Y-55278274D01*
X115913677Y-55283840D01*
X115892484Y-55290419D01*
X115871852Y-55298009D01*
X115851781Y-55306612D01*
X115832271Y-55316227D01*
X115813322Y-55326854D01*
X115794934Y-55338493D01*
X115777107Y-55351144D01*
X115759841Y-55364807D01*
X115743136Y-55379482D01*
X115726992Y-55395169D01*
X115711624Y-55411630D01*
X115697248Y-55428627D01*
X115683863Y-55446160D01*
X115671469Y-55464229D01*
X115660067Y-55482833D01*
X115649657Y-55501973D01*
X115640238Y-55521649D01*
X115631810Y-55541861D01*
X115624374Y-55562609D01*
X115617930Y-55583892D01*
X115612477Y-55605712D01*
X115608015Y-55628067D01*
X115604545Y-55650958D01*
X115603182Y-55662604D01*
X115602066Y-55674384D01*
X115601199Y-55686299D01*
X115600579Y-55698347D01*
X115600207Y-55710529D01*
X115600083Y-55722845D01*
X115476099Y-55722845D01*
X115476106Y-55721966D01*
X115476003Y-55708094D01*
X115475697Y-55694431D01*
X115475186Y-55680978D01*
X115474471Y-55667735D01*
X115473551Y-55654701D01*
X115472427Y-55641876D01*
X115471099Y-55629262D01*
X115469566Y-55616856D01*
X115467829Y-55604660D01*
X115465887Y-55592674D01*
X115463742Y-55580897D01*
X115461391Y-55569329D01*
X115456078Y-55546823D01*
X115449947Y-55525155D01*
X115442999Y-55504325D01*
X115435233Y-55484333D01*
X115426650Y-55465179D01*
X115417249Y-55446863D01*
X115407031Y-55429385D01*
X115395995Y-55412745D01*
X115384142Y-55396944D01*
X115371472Y-55381980D01*
X115358142Y-55367890D01*
X115344384Y-55354709D01*
X115330198Y-55342437D01*
X115315583Y-55331074D01*
X115300540Y-55320620D01*
X115285070Y-55311075D01*
X115269170Y-55302439D01*
X115252843Y-55294712D01*
X115236088Y-55287894D01*
X115218904Y-55281985D01*
X115201292Y-55276986D01*
X115183252Y-55272895D01*
X115164784Y-55269713D01*
X115145888Y-55267441D01*
X115126563Y-55266077D01*
X115106810Y-55265623D01*
X115088610Y-55266099D01*
X115070719Y-55267528D01*
X115053137Y-55269909D01*
X115035864Y-55273243D01*
X115018900Y-55277530D01*
X115002245Y-55282769D01*
X114985900Y-55288960D01*
X114969863Y-55296104D01*
X114954136Y-55304201D01*
X114938718Y-55313250D01*
X114923609Y-55323252D01*
X114908809Y-55334206D01*
X114894318Y-55346113D01*
X114880136Y-55358972D01*
X114866264Y-55372784D01*
X114852700Y-55387549D01*
X114852700Y-54946739D01*
X114621158Y-54946739D01*
X111054528Y-54946739D01*
X110866657Y-54946739D01*
X109666741Y-54946739D01*
X109645130Y-54947230D01*
X109624114Y-54948704D01*
X109603694Y-54951160D01*
X109583869Y-54954598D01*
X109564639Y-54959018D01*
X109546005Y-54964421D01*
X109527966Y-54970806D01*
X109510523Y-54978173D01*
X109493675Y-54986523D01*
X109477422Y-54995855D01*
X109461764Y-55006169D01*
X109446702Y-55017466D01*
X109432235Y-55029745D01*
X109418364Y-55043006D01*
X109405088Y-55057250D01*
X109392407Y-55072475D01*
X109385158Y-55081972D01*
X109378139Y-55091852D01*
X109371351Y-55102113D01*
X109364792Y-55112757D01*
X109358464Y-55123784D01*
X109352366Y-55135192D01*
X109346498Y-55146984D01*
X109340860Y-55159157D01*
X109335452Y-55171713D01*
X109330274Y-55184652D01*
X109325326Y-55197972D01*
X109320609Y-55211676D01*
X109316121Y-55225761D01*
X109311864Y-55240229D01*
X109307837Y-55255079D01*
X109304040Y-55270312D01*
X109300473Y-55285927D01*
X109297136Y-55301925D01*
X109294030Y-55318305D01*
X109291153Y-55335067D01*
X109288507Y-55352212D01*
X109286090Y-55369739D01*
X109283904Y-55387648D01*
X109281948Y-55405940D01*
X109280222Y-55424614D01*
X109278726Y-55443671D01*
X109277461Y-55463110D01*
X109276425Y-55482932D01*
X109275620Y-55503135D01*
X109275045Y-55523722D01*
X109274699Y-55544690D01*
X109274584Y-55566041D01*
X108653155Y-55566041D01*
X108653155Y-54418764D01*
X117139106Y-54418764D01*
X117677808Y-54418764D01*
X117677808Y-54197187D01*
X117815268Y-54197187D01*
X117815590Y-54209642D01*
X117816556Y-54221948D01*
X117818166Y-54234104D01*
X117820420Y-54246111D01*
X117823318Y-54257968D01*
X117826860Y-54269676D01*
X117831046Y-54281234D01*
X117835876Y-54292643D01*
X117841350Y-54303903D01*
X117847468Y-54315013D01*
X117851905Y-54322337D01*
X117858987Y-54333010D01*
X117866605Y-54343158D01*
X117874759Y-54352780D01*
X117883449Y-54361877D01*
X117892674Y-54370448D01*
X117902435Y-54378494D01*
X117912733Y-54386014D01*
X117923565Y-54393009D01*
X117934934Y-54399478D01*
X117946839Y-54405422D01*
X117955073Y-54409092D01*
X117967891Y-54414173D01*
X117981286Y-54418754D01*
X117995258Y-54422835D01*
X118009808Y-54426417D01*
X118024934Y-54429499D01*
X118040637Y-54432081D01*
X118056917Y-54434163D01*
X118073775Y-54435745D01*
X118091209Y-54436828D01*
X118103153Y-54437272D01*
X118115353Y-54437494D01*
X118121549Y-54437522D01*
X118139456Y-54437260D01*
X118156834Y-54436473D01*
X118173683Y-54435163D01*
X118190004Y-54433327D01*
X118205795Y-54430968D01*
X118221058Y-54428084D01*
X118235791Y-54424675D01*
X118249996Y-54420743D01*
X118263672Y-54416286D01*
X118276818Y-54411304D01*
X118289436Y-54405798D01*
X118301525Y-54399768D01*
X118313085Y-54393214D01*
X118324116Y-54386135D01*
X118334618Y-54378532D01*
X118344591Y-54370404D01*
X118354056Y-54361775D01*
X118363033Y-54352668D01*
X118371522Y-54343081D01*
X118379524Y-54333017D01*
X118387038Y-54322473D01*
X118394064Y-54311452D01*
X118400603Y-54299951D01*
X118406653Y-54287972D01*
X118412216Y-54275515D01*
X118417292Y-54262579D01*
X118421879Y-54249164D01*
X118425979Y-54235271D01*
X118429591Y-54220899D01*
X118432716Y-54206049D01*
X118435352Y-54190720D01*
X118437501Y-54174912D01*
X118287145Y-54156154D01*
X118284370Y-54170302D01*
X118281100Y-54183728D01*
X118277336Y-54196433D01*
X118273077Y-54208416D01*
X118268323Y-54219679D01*
X118263075Y-54230220D01*
X118255308Y-54243152D01*
X118246662Y-54254803D01*
X118237137Y-54265171D01*
X118232044Y-54269874D01*
X118221191Y-54278392D01*
X118209439Y-54285774D01*
X118196791Y-54292021D01*
X118183244Y-54297131D01*
X118168801Y-54301106D01*
X118153459Y-54303946D01*
X118141364Y-54305330D01*
X118128764Y-54306075D01*
X118120083Y-54306217D01*
X118106394Y-54305934D01*
X118093355Y-54305084D01*
X118080964Y-54303667D01*
X118069223Y-54301683D01*
X118054577Y-54298157D01*
X118041086Y-54293623D01*
X118028749Y-54288082D01*
X118017565Y-54281533D01*
X118007536Y-54273977D01*
X117998675Y-54265748D01*
X117989259Y-54254984D01*
X117981690Y-54243691D01*
X117975967Y-54231869D01*
X117972090Y-54219517D01*
X117970060Y-54206636D01*
X117969727Y-54198653D01*
X117970499Y-54186878D01*
X117973269Y-54174417D01*
X117978055Y-54163018D01*
X117984856Y-54152682D01*
X117985847Y-54151465D01*
X117995245Y-54141976D01*
X118005902Y-54134214D01*
X118016844Y-54127963D01*
X118029456Y-54122083D01*
X118041242Y-54117466D01*
X118053895Y-54113314D01*
X118068155Y-54109051D01*
X118081994Y-54105114D01*
X118093792Y-54101856D01*
X118106806Y-54098334D01*
X118121036Y-54094550D01*
X118136481Y-54090503D01*
X118153143Y-54086194D01*
X118164926Y-54083175D01*
X118180170Y-54079198D01*
X118194835Y-54075110D01*
X118208921Y-54070909D01*
X118222427Y-54066597D01*
X118235354Y-54062172D01*
X118247702Y-54057634D01*
X118259470Y-54052985D01*
X118270659Y-54048224D01*
X118286356Y-54040871D01*
X118300750Y-54033266D01*
X118313840Y-54025408D01*
X118325627Y-54017298D01*
X118336111Y-54008935D01*
X118339316Y-54006092D01*
X118347869Y-53997921D01*
X118359665Y-53985247D01*
X118370218Y-53972075D01*
X118379531Y-53958402D01*
X118387601Y-53944230D01*
X118394430Y-53929558D01*
X118400018Y-53914386D01*
X118404363Y-53898715D01*
X118407467Y-53882543D01*
X118409330Y-53865872D01*
X118409951Y-53848702D01*
X118409433Y-53833946D01*
X118407881Y-53819429D01*
X118405293Y-53805150D01*
X118401671Y-53791109D01*
X118397013Y-53777306D01*
X118391321Y-53763742D01*
X118384594Y-53750415D01*
X118376831Y-53737327D01*
X118368094Y-53724678D01*
X118358440Y-53712817D01*
X118347870Y-53701744D01*
X118336385Y-53691458D01*
X118323983Y-53681960D01*
X118314081Y-53675353D01*
X118303664Y-53669190D01*
X118292731Y-53663469D01*
X118281284Y-53658192D01*
X118269351Y-53653321D01*
X118259118Y-53649692D01*
X118555617Y-53649692D01*
X118555617Y-54418764D01*
X118699232Y-54418764D01*
X118699232Y-53813237D01*
X118851346Y-54418764D01*
X118999944Y-54418764D01*
X119151472Y-53813237D01*
X119151472Y-54418764D01*
X119295087Y-54418764D01*
X119684312Y-54418764D01*
X120223014Y-54418764D01*
X120313286Y-54418764D01*
X120481228Y-54418764D01*
X120548053Y-54249944D01*
X120854040Y-54249944D01*
X120917348Y-54418764D01*
X121081186Y-54418764D01*
X120783112Y-53649692D01*
X121151235Y-53649692D01*
X121151235Y-54418764D01*
X121305987Y-54418764D01*
X121388639Y-54418764D01*
X121573579Y-54418764D01*
X121685247Y-54249064D01*
X121692538Y-54238435D01*
X121699535Y-54228310D01*
X121706240Y-54218688D01*
X121715747Y-54205200D01*
X121724595Y-54192846D01*
X121732783Y-54181625D01*
X121740312Y-54171537D01*
X121749324Y-54159850D01*
X121757165Y-54150178D01*
X121765316Y-54140922D01*
X121766727Y-54139448D01*
X121776470Y-54130148D01*
X121786466Y-54122250D01*
X121796714Y-54115754D01*
X121808735Y-54110048D01*
X121813328Y-54108381D01*
X121825360Y-54105069D01*
X121837882Y-54102877D01*
X121849876Y-54101508D01*
X121863287Y-54100553D01*
X121875036Y-54100088D01*
X121887692Y-54099889D01*
X121890997Y-54099881D01*
X121922358Y-54099881D01*
X121922358Y-54418764D01*
X122076817Y-54418764D01*
X122211346Y-54418764D01*
X122793719Y-54418764D01*
X122793719Y-53890614D01*
X122923558Y-53890614D01*
X122923598Y-53892958D01*
X122923785Y-53903932D01*
X122924465Y-53916848D01*
X122925599Y-53929362D01*
X122927185Y-53941474D01*
X122929226Y-53953185D01*
X122932651Y-53968173D01*
X122936883Y-53982448D01*
X122941920Y-53996008D01*
X122947764Y-54008854D01*
X122949351Y-54011953D01*
X122955940Y-54023865D01*
X122962961Y-54035126D01*
X122970412Y-54045737D01*
X122978293Y-54055697D01*
X122986605Y-54065008D01*
X122995348Y-54073668D01*
X123004520Y-54081677D01*
X123014124Y-54089036D01*
X123023965Y-54095773D01*
X123036331Y-54103356D01*
X123048769Y-54110010D01*
X123061279Y-54115733D01*
X123073859Y-54120525D01*
X123086512Y-54124388D01*
X123094138Y-54126259D01*
X123108760Y-54128869D01*
X123120743Y-54130599D01*
X123133596Y-54132132D01*
X123147320Y-54133470D01*
X123161915Y-54134612D01*
X123177380Y-54135558D01*
X123193717Y-54136309D01*
X123210923Y-54136864D01*
X123222878Y-54137125D01*
X123235220Y-54137299D01*
X123247949Y-54137386D01*
X123254459Y-54137397D01*
X123355282Y-54137397D01*
X123355282Y-54418764D01*
X123510034Y-54418764D01*
X123510034Y-53649692D01*
X123667131Y-53649692D01*
X123667131Y-54418764D01*
X123810746Y-54418764D01*
X123810746Y-53813237D01*
X123962861Y-54418764D01*
X124111458Y-54418764D01*
X124262986Y-53813237D01*
X124262986Y-54418764D01*
X124406601Y-54418764D01*
X124406601Y-53649692D01*
X124552267Y-53649692D01*
X124552267Y-54418764D01*
X124707020Y-54418764D01*
X124707020Y-53649692D01*
X124552267Y-53649692D01*
X124406601Y-53649692D01*
X124175352Y-53649692D01*
X124036427Y-54174326D01*
X123898967Y-53649692D01*
X123667131Y-53649692D01*
X123510034Y-53649692D01*
X123262079Y-53649692D01*
X123244839Y-53649738D01*
X123228364Y-53649876D01*
X123212654Y-53650105D01*
X123197709Y-53650425D01*
X123183528Y-53650837D01*
X123170112Y-53651341D01*
X123157461Y-53651936D01*
X123145575Y-53652623D01*
X123129180Y-53653825D01*
X123114505Y-53655234D01*
X123101551Y-53656848D01*
X123086956Y-53659321D01*
X123078018Y-53661416D01*
X123065896Y-53665079D01*
X123054150Y-53669474D01*
X123042781Y-53674600D01*
X123031787Y-53680458D01*
X123021170Y-53687047D01*
X123010928Y-53694368D01*
X123001063Y-53702421D01*
X122991574Y-53711205D01*
X122982461Y-53720721D01*
X122973724Y-53730968D01*
X122968108Y-53738206D01*
X122960147Y-53749556D01*
X122952968Y-53761514D01*
X122946573Y-53774079D01*
X122940961Y-53787253D01*
X122936132Y-53801035D01*
X122932086Y-53815424D01*
X122928823Y-53830422D01*
X122926343Y-53846027D01*
X122924646Y-53862240D01*
X122923732Y-53879062D01*
X122923558Y-53890614D01*
X122793719Y-53890614D01*
X122793719Y-53649692D01*
X122226001Y-53649692D01*
X122226001Y-53780997D01*
X122638967Y-53780997D01*
X122638967Y-53949818D01*
X122254724Y-53949818D01*
X122254724Y-54081123D01*
X122638967Y-54081123D01*
X122638967Y-54287459D01*
X122211346Y-54287459D01*
X122211346Y-54418764D01*
X122076817Y-54418764D01*
X122076817Y-53649692D01*
X121751486Y-53649692D01*
X121736399Y-53649774D01*
X121721838Y-53650018D01*
X121707804Y-53650424D01*
X121694296Y-53650993D01*
X121681316Y-53651725D01*
X121668862Y-53652619D01*
X121656934Y-53653676D01*
X121640030Y-53655565D01*
X121624312Y-53657821D01*
X121609778Y-53660443D01*
X121596429Y-53663430D01*
X121584265Y-53666783D01*
X121573286Y-53670502D01*
X121559713Y-53676208D01*
X121546835Y-53682922D01*
X121534653Y-53690643D01*
X121523168Y-53699371D01*
X121512378Y-53709108D01*
X121502285Y-53719851D01*
X121492888Y-53731602D01*
X121484187Y-53744361D01*
X121476355Y-53757862D01*
X121469569Y-53771838D01*
X121463826Y-53786291D01*
X121460204Y-53797444D01*
X121457169Y-53808864D01*
X121454722Y-53820552D01*
X121452862Y-53832508D01*
X121451590Y-53844732D01*
X121450905Y-53857224D01*
X121450774Y-53865701D01*
X121450970Y-53872735D01*
X121451220Y-53881702D01*
X121452557Y-53897173D01*
X121454785Y-53912113D01*
X121457904Y-53926522D01*
X121461915Y-53940400D01*
X121466817Y-53953748D01*
X121472611Y-53966566D01*
X121479296Y-53978852D01*
X121486872Y-53990608D01*
X121495339Y-54001834D01*
X121501479Y-54009023D01*
X121511374Y-54019260D01*
X121522156Y-54028762D01*
X121533823Y-54037526D01*
X121546377Y-54045554D01*
X121559817Y-54052845D01*
X121574143Y-54059399D01*
X121589355Y-54065216D01*
X121605453Y-54070297D01*
X121622438Y-54074641D01*
X121634253Y-54077128D01*
X121646462Y-54079287D01*
X121652714Y-54080244D01*
X121640459Y-54087663D01*
X121628754Y-54095265D01*
X121617598Y-54103050D01*
X121606992Y-54111018D01*
X121596935Y-54119170D01*
X121587428Y-54127505D01*
X121578470Y-54136023D01*
X121570062Y-54144724D01*
X121561572Y-54154295D01*
X121552367Y-54165570D01*
X121544994Y-54175144D01*
X121537220Y-54185677D01*
X121529044Y-54197167D01*
X121520466Y-54209616D01*
X121511486Y-54223023D01*
X121502104Y-54237389D01*
X121495626Y-54247498D01*
X121488970Y-54258033D01*
X121482135Y-54268995D01*
X121388639Y-54418764D01*
X121305987Y-54418764D01*
X121305987Y-53649692D01*
X121151235Y-53649692D01*
X120783112Y-53649692D01*
X120619567Y-53649692D01*
X120432810Y-54118639D01*
X120313286Y-54418764D01*
X120223014Y-54418764D01*
X120223014Y-53649692D01*
X120068555Y-53649692D01*
X120068555Y-54287459D01*
X119684312Y-54287459D01*
X119684312Y-54418764D01*
X119295087Y-54418764D01*
X119295087Y-53649692D01*
X119063838Y-53649692D01*
X118924912Y-54174326D01*
X118787452Y-53649692D01*
X118555617Y-53649692D01*
X118259118Y-53649692D01*
X118256966Y-53648929D01*
X118244127Y-53645016D01*
X118230835Y-53641582D01*
X118217090Y-53638627D01*
X118202891Y-53636152D01*
X118188238Y-53634155D01*
X118173133Y-53632638D01*
X118157574Y-53631600D01*
X118141561Y-53631041D01*
X118130635Y-53630935D01*
X118112889Y-53631194D01*
X118095702Y-53631974D01*
X118079073Y-53633274D01*
X118063004Y-53635093D01*
X118047493Y-53637432D01*
X118032540Y-53640291D01*
X118018147Y-53643669D01*
X118004312Y-53647568D01*
X117991036Y-53651986D01*
X117978319Y-53656924D01*
X117966160Y-53662381D01*
X117954560Y-53668359D01*
X117943519Y-53674856D01*
X117933036Y-53681873D01*
X117923112Y-53689410D01*
X117913747Y-53697466D01*
X117904896Y-53705921D01*
X117896587Y-53714727D01*
X117888822Y-53723882D01*
X117881598Y-53733388D01*
X117874918Y-53743245D01*
X117868780Y-53753451D01*
X117863185Y-53764008D01*
X117858133Y-53774916D01*
X117853623Y-53786173D01*
X117849656Y-53797781D01*
X117846232Y-53809740D01*
X117843350Y-53822049D01*
X117841011Y-53834708D01*
X117839215Y-53847717D01*
X117837961Y-53861077D01*
X117837250Y-53874787D01*
X117991709Y-53874787D01*
X117994558Y-53860297D01*
X117998121Y-53846870D01*
X118002398Y-53834505D01*
X118007390Y-53823203D01*
X118014634Y-53810569D01*
X118022994Y-53799595D01*
X118032471Y-53790281D01*
X118034501Y-53788618D01*
X118045461Y-53781019D01*
X118058011Y-53774707D01*
X118069194Y-53770586D01*
X118081394Y-53767289D01*
X118094611Y-53764816D01*
X118108844Y-53763167D01*
X118124094Y-53762343D01*
X118132100Y-53762240D01*
X118144482Y-53762487D01*
X118156349Y-53763229D01*
X118171370Y-53764987D01*
X118185475Y-53767625D01*
X118198664Y-53771142D01*
X118210937Y-53775539D01*
X118222294Y-53780814D01*
X118232736Y-53786969D01*
X118237613Y-53790376D01*
X118247206Y-53798901D01*
X118254443Y-53808577D01*
X118259323Y-53819402D01*
X118261848Y-53831377D01*
X118262233Y-53838736D01*
X118261139Y-53850411D01*
X118257209Y-53862826D01*
X118250422Y-53874252D01*
X118242140Y-53883439D01*
X118239371Y-53885924D01*
X118228173Y-53893767D01*
X118216278Y-53900123D01*
X118201772Y-53906553D01*
X118189180Y-53911423D01*
X118175119Y-53916335D01*
X118159590Y-53921287D01*
X118142593Y-53926281D01*
X118130445Y-53929634D01*
X118117645Y-53933004D01*
X118104193Y-53936393D01*
X118097222Y-53938094D01*
X118083347Y-53941508D01*
X118069933Y-53944936D01*
X118056978Y-53948378D01*
X118044484Y-53951833D01*
X118032450Y-53955302D01*
X118020876Y-53958785D01*
X118004379Y-53964035D01*
X117988917Y-53969316D01*
X117974490Y-53974627D01*
X117961099Y-53979970D01*
X117948744Y-53985343D01*
X117937424Y-53990748D01*
X117930453Y-53994368D01*
X117917269Y-54001883D01*
X117904826Y-54010067D01*
X117893125Y-54018919D01*
X117882166Y-54028440D01*
X117871949Y-54038629D01*
X117862474Y-54049487D01*
X117853741Y-54061014D01*
X117845750Y-54073210D01*
X117838606Y-54086110D01*
X117832414Y-54099753D01*
X117827175Y-54114137D01*
X117823871Y-54125412D01*
X117821103Y-54137105D01*
X117818870Y-54149214D01*
X117817173Y-54161741D01*
X117816012Y-54174686D01*
X117815387Y-54188048D01*
X117815268Y-54197187D01*
X117677808Y-54197187D01*
X117677808Y-53649692D01*
X117523349Y-53649692D01*
X117523349Y-54287459D01*
X117139106Y-54287459D01*
X117139106Y-54418764D01*
X108653155Y-54418764D01*
X108653155Y-53009506D01*
X125328449Y-53009506D01*
X125328449Y-56806186D01*
G37*
D12*
%TO.C,IC1*%
X120450000Y-58420000D02*
X118950000Y-58420000D01*
X118600000Y-63450000D02*
X118600000Y-58550000D01*
X118600000Y-58550000D02*
X115400000Y-58550000D01*
X115400000Y-63450000D02*
X118600000Y-63450000D01*
X115400000Y-58550000D02*
X115400000Y-63450000D01*
D13*
%TO.C,C1*%
X122622164Y-58720000D02*
X122837836Y-58720000D01*
X122622164Y-59440000D02*
X122837836Y-59440000D01*
%TO.C,DNP2*%
X111463641Y-63280000D02*
X111156359Y-63280000D01*
X111463641Y-62520000D02*
X111156359Y-62520000D01*
%TO.C,R2*%
X111146359Y-61250000D02*
X111453641Y-61250000D01*
X111146359Y-62010000D02*
X111453641Y-62010000D01*
%TO.C,R1*%
X111146359Y-59990000D02*
X111453641Y-59990000D01*
X111146359Y-60750000D02*
X111453641Y-60750000D01*
%TO.C,DNP1*%
X122622164Y-60000000D02*
X122837836Y-60000000D01*
X122622164Y-60720000D02*
X122837836Y-60720000D01*
%TD*%
%LPC*%
D14*
%TO.C,H2*%
X129000000Y-61000000D03*
%TD*%
%TO.C,H1*%
X105000000Y-61000000D03*
%TD*%
D15*
%TO.C,J1*%
X112000000Y-66000000D03*
D16*
X114500000Y-66000000D03*
X117000000Y-66000000D03*
X119500000Y-66000000D03*
X122000000Y-66000000D03*
%TD*%
D17*
%TO.C,IC1*%
X119700000Y-59095000D03*
X119700000Y-60365000D03*
X119700000Y-61635000D03*
X119700000Y-62905000D03*
X114300000Y-62905000D03*
X114300000Y-61635000D03*
X114300000Y-60365000D03*
X114300000Y-59095000D03*
%TD*%
D18*
%TO.C,C1*%
X122250000Y-59080000D03*
X123210000Y-59080000D03*
%TD*%
D19*
%TO.C,DNP2*%
X111820000Y-62900000D03*
X110800000Y-62900000D03*
%TD*%
D20*
%TO.C,R2*%
X110790000Y-61630000D03*
X111810000Y-61630000D03*
%TD*%
%TO.C,R1*%
X110790000Y-60370000D03*
X111810000Y-60370000D03*
%TD*%
D18*
%TO.C,DNP1*%
X122250000Y-60360000D03*
X123210000Y-60360000D03*
%TD*%
M02*
