%TF.GenerationSoftware,KiCad,Pcbnew,7.0.1*%
%TF.CreationDate,2023-07-17T00:53:13+01:00*%
%TF.ProjectId,Motor Encoder Board,4d6f746f-7220-4456-9e63-6f6465722042,rev?*%
%TF.SameCoordinates,Original*%
%TF.FileFunction,Drillmap*%
%TF.FilePolarity,Positive*%
%FSLAX45Y45*%
G04 Gerber Fmt 4.5, Leading zero omitted, Abs format (unit mm)*
G04 Created by KiCad (PCBNEW 7.0.1) date 2023-07-17 00:53:13*
%MOMM*%
%LPD*%
G01*
G04 APERTURE LIST*
%ADD10C,0.100000*%
%ADD11C,0.200000*%
G04 APERTURE END LIST*
D10*
X12800000Y-5700000D02*
X12800000Y-5400000D01*
X12800000Y-5400000D02*
G75*
G03*
X12500000Y-5100000I-300000J0D01*
G01*
X12900000Y-6400000D02*
G75*
G03*
X12800000Y-6500000I0J-100000D01*
G01*
X10500000Y-5800000D02*
G75*
G03*
X10600000Y-5700000I0J100000D01*
G01*
X12900000Y-6400000D02*
G75*
G03*
X12900000Y-5800000I0J300000D01*
G01*
X10600000Y-5400000D02*
X10600000Y-5700000D01*
X10600000Y-6800000D02*
G75*
G03*
X10900000Y-7100000I300000J0D01*
G01*
X10600000Y-6500000D02*
G75*
G03*
X10500000Y-6400000I-100000J0D01*
G01*
X12800000Y-6800000D02*
X12800000Y-6500000D01*
X10600000Y-6800000D02*
X10600000Y-6500000D01*
X12500000Y-5100000D02*
X10900000Y-5100000D01*
X10500000Y-5800000D02*
G75*
G03*
X10500000Y-6400000I0J-300000D01*
G01*
X12800000Y-5700000D02*
G75*
G03*
X12900000Y-5800000I100000J0D01*
G01*
X10900000Y-5100000D02*
G75*
G03*
X10600000Y-5400000I0J-300000D01*
G01*
X12500000Y-7100000D02*
G75*
G03*
X12800000Y-6800000I0J300000D01*
G01*
X10900000Y-7100000D02*
X12500000Y-7100000D01*
D11*
X10442619Y-7417524D02*
X10442619Y-7217524D01*
X10442619Y-7217524D02*
X10490238Y-7217524D01*
X10490238Y-7217524D02*
X10518810Y-7227048D01*
X10518810Y-7227048D02*
X10537857Y-7246095D01*
X10537857Y-7246095D02*
X10547381Y-7265143D01*
X10547381Y-7265143D02*
X10556905Y-7303238D01*
X10556905Y-7303238D02*
X10556905Y-7331809D01*
X10556905Y-7331809D02*
X10547381Y-7369905D01*
X10547381Y-7369905D02*
X10537857Y-7388952D01*
X10537857Y-7388952D02*
X10518810Y-7408000D01*
X10518810Y-7408000D02*
X10490238Y-7417524D01*
X10490238Y-7417524D02*
X10442619Y-7417524D01*
X10642619Y-7417524D02*
X10642619Y-7284190D01*
X10642619Y-7322286D02*
X10652143Y-7303238D01*
X10652143Y-7303238D02*
X10661667Y-7293714D01*
X10661667Y-7293714D02*
X10680714Y-7284190D01*
X10680714Y-7284190D02*
X10699762Y-7284190D01*
X10766429Y-7417524D02*
X10766429Y-7284190D01*
X10766429Y-7217524D02*
X10756905Y-7227048D01*
X10756905Y-7227048D02*
X10766429Y-7236571D01*
X10766429Y-7236571D02*
X10775952Y-7227048D01*
X10775952Y-7227048D02*
X10766429Y-7217524D01*
X10766429Y-7217524D02*
X10766429Y-7236571D01*
X10890238Y-7417524D02*
X10871190Y-7408000D01*
X10871190Y-7408000D02*
X10861667Y-7388952D01*
X10861667Y-7388952D02*
X10861667Y-7217524D01*
X10995000Y-7417524D02*
X10975952Y-7408000D01*
X10975952Y-7408000D02*
X10966429Y-7388952D01*
X10966429Y-7388952D02*
X10966429Y-7217524D01*
X11223571Y-7417524D02*
X11223571Y-7217524D01*
X11223571Y-7217524D02*
X11290238Y-7360381D01*
X11290238Y-7360381D02*
X11356905Y-7217524D01*
X11356905Y-7217524D02*
X11356905Y-7417524D01*
X11537857Y-7417524D02*
X11537857Y-7312762D01*
X11537857Y-7312762D02*
X11528333Y-7293714D01*
X11528333Y-7293714D02*
X11509286Y-7284190D01*
X11509286Y-7284190D02*
X11471190Y-7284190D01*
X11471190Y-7284190D02*
X11452143Y-7293714D01*
X11537857Y-7408000D02*
X11518809Y-7417524D01*
X11518809Y-7417524D02*
X11471190Y-7417524D01*
X11471190Y-7417524D02*
X11452143Y-7408000D01*
X11452143Y-7408000D02*
X11442619Y-7388952D01*
X11442619Y-7388952D02*
X11442619Y-7369905D01*
X11442619Y-7369905D02*
X11452143Y-7350857D01*
X11452143Y-7350857D02*
X11471190Y-7341333D01*
X11471190Y-7341333D02*
X11518809Y-7341333D01*
X11518809Y-7341333D02*
X11537857Y-7331809D01*
X11633095Y-7284190D02*
X11633095Y-7484190D01*
X11633095Y-7293714D02*
X11652143Y-7284190D01*
X11652143Y-7284190D02*
X11690238Y-7284190D01*
X11690238Y-7284190D02*
X11709286Y-7293714D01*
X11709286Y-7293714D02*
X11718809Y-7303238D01*
X11718809Y-7303238D02*
X11728333Y-7322286D01*
X11728333Y-7322286D02*
X11728333Y-7379428D01*
X11728333Y-7379428D02*
X11718809Y-7398476D01*
X11718809Y-7398476D02*
X11709286Y-7408000D01*
X11709286Y-7408000D02*
X11690238Y-7417524D01*
X11690238Y-7417524D02*
X11652143Y-7417524D01*
X11652143Y-7417524D02*
X11633095Y-7408000D01*
X11814048Y-7398476D02*
X11823571Y-7408000D01*
X11823571Y-7408000D02*
X11814048Y-7417524D01*
X11814048Y-7417524D02*
X11804524Y-7408000D01*
X11804524Y-7408000D02*
X11814048Y-7398476D01*
X11814048Y-7398476D02*
X11814048Y-7417524D01*
X11814048Y-7293714D02*
X11823571Y-7303238D01*
X11823571Y-7303238D02*
X11814048Y-7312762D01*
X11814048Y-7312762D02*
X11804524Y-7303238D01*
X11804524Y-7303238D02*
X11814048Y-7293714D01*
X11814048Y-7293714D02*
X11814048Y-7312762D01*
M02*
