%TF.GenerationSoftware,KiCad,Pcbnew,7.0.1*%
%TF.CreationDate,2023-06-28T22:55:46+01:00*%
%TF.ProjectId,Motor Encoder Board,4d6f746f-7220-4456-9e63-6f6465722042,rev?*%
%TF.SameCoordinates,Original*%
%TF.FileFunction,Legend,Bot*%
%TF.FilePolarity,Positive*%
%FSLAX46Y46*%
G04 Gerber Fmt 4.6, Leading zero omitted, Abs format (unit mm)*
G04 Created by KiCad (PCBNEW 7.0.1) date 2023-06-28 22:55:46*
%MOMM*%
%LPD*%
G01*
G04 APERTURE LIST*
%ADD10C,0.200000*%
%ADD11C,0.150000*%
%ADD12C,0.120000*%
G04 APERTURE END LIST*
D10*
G36*
X120464573Y-55440756D02*
G01*
X120489243Y-55465426D01*
X120519047Y-55525034D01*
X120519047Y-55763536D01*
X120489243Y-55823143D01*
X120464572Y-55847814D01*
X120404965Y-55877619D01*
X120309320Y-55877619D01*
X120249713Y-55847815D01*
X120225042Y-55823143D01*
X120195238Y-55763536D01*
X120195238Y-55525034D01*
X120225042Y-55465425D01*
X120249712Y-55440756D01*
X120309320Y-55410952D01*
X120404965Y-55410952D01*
X120464573Y-55440756D01*
G37*
G36*
X119559811Y-55440756D02*
G01*
X119584481Y-55465426D01*
X119614285Y-55525034D01*
X119614285Y-55763536D01*
X119584481Y-55823143D01*
X119559810Y-55847814D01*
X119500203Y-55877619D01*
X119356939Y-55877619D01*
X119338095Y-55868197D01*
X119338095Y-55420374D01*
X119356939Y-55410952D01*
X119500203Y-55410952D01*
X119559811Y-55440756D01*
G37*
G36*
X118687368Y-55433106D02*
G01*
X118709523Y-55477415D01*
X118709523Y-55522304D01*
X118438037Y-55468007D01*
X118455487Y-55433106D01*
X118499796Y-55410952D01*
X118643060Y-55410952D01*
X118687368Y-55433106D01*
G37*
G36*
X119250287Y-53820756D02*
G01*
X119274957Y-53845426D01*
X119304761Y-53905034D01*
X119304761Y-54143536D01*
X119274957Y-54203143D01*
X119250286Y-54227814D01*
X119190679Y-54257619D01*
X119095034Y-54257619D01*
X119035427Y-54227815D01*
X119010756Y-54203143D01*
X118980952Y-54143536D01*
X118980952Y-53905034D01*
X119010756Y-53845425D01*
X119035426Y-53820756D01*
X119095034Y-53790952D01*
X119190679Y-53790952D01*
X119250287Y-53820756D01*
G37*
G36*
X117774096Y-53820756D02*
G01*
X117798766Y-53845426D01*
X117828570Y-53905034D01*
X117828570Y-54143536D01*
X117798766Y-54203143D01*
X117774095Y-54227814D01*
X117714488Y-54257619D01*
X117618843Y-54257619D01*
X117559236Y-54227815D01*
X117534565Y-54203143D01*
X117504761Y-54143536D01*
X117504761Y-53905034D01*
X117534565Y-53845425D01*
X117559235Y-53820756D01*
X117618843Y-53790952D01*
X117714488Y-53790952D01*
X117774096Y-53820756D01*
G37*
G36*
X124997620Y-56542857D02*
G01*
X116002381Y-56542857D01*
X116002381Y-55325784D01*
X117515886Y-55325784D01*
X117540281Y-55379203D01*
X117589684Y-55410952D01*
X117690679Y-55410952D01*
X117750287Y-55440756D01*
X117774957Y-55465426D01*
X117804761Y-55525034D01*
X117804761Y-55991998D01*
X117817084Y-56033966D01*
X117861466Y-56072423D01*
X117919593Y-56080780D01*
X117973012Y-56056385D01*
X118004761Y-56006982D01*
X118004761Y-55543359D01*
X118229267Y-55543359D01*
X118233333Y-55560648D01*
X118233333Y-55563426D01*
X118236614Y-55574601D01*
X118242711Y-55600525D01*
X118244827Y-55602571D01*
X118245656Y-55605394D01*
X118265782Y-55622833D01*
X118284929Y-55641347D01*
X118287814Y-55641924D01*
X118290038Y-55643851D01*
X118316398Y-55647640D01*
X118709523Y-55726265D01*
X118709523Y-55811154D01*
X118687368Y-55855464D01*
X118643060Y-55877619D01*
X118499796Y-55877619D01*
X118412812Y-55834127D01*
X118369764Y-55826380D01*
X118315519Y-55848878D01*
X118282049Y-55897131D01*
X118279979Y-55955820D01*
X118309968Y-56006311D01*
X118426651Y-56064653D01*
X118446827Y-56077619D01*
X118467262Y-56077619D01*
X118487378Y-56081239D01*
X118496106Y-56077619D01*
X118661281Y-56077619D01*
X118685124Y-56080193D01*
X118703400Y-56071054D01*
X118723013Y-56065296D01*
X118729201Y-56058154D01*
X118783838Y-56030835D01*
X118787725Y-56030973D01*
X118809867Y-56017821D01*
X118819486Y-56013012D01*
X118822173Y-56010511D01*
X118838215Y-56000984D01*
X118843256Y-55990901D01*
X118851512Y-55983222D01*
X118856134Y-55965144D01*
X118896555Y-55884301D01*
X118909523Y-55864124D01*
X118909523Y-55843688D01*
X118913143Y-55823573D01*
X118909523Y-55814845D01*
X118909523Y-55661460D01*
X118913589Y-55649972D01*
X118909523Y-55632684D01*
X118909523Y-55459193D01*
X118912097Y-55435350D01*
X118902958Y-55417072D01*
X118897200Y-55397462D01*
X118890058Y-55391274D01*
X118875543Y-55362244D01*
X119133938Y-55362244D01*
X119138095Y-55374753D01*
X119138095Y-55928233D01*
X119137122Y-55955820D01*
X119138095Y-55957458D01*
X119138095Y-55991998D01*
X119150418Y-56033966D01*
X119194800Y-56072423D01*
X119252927Y-56080780D01*
X119285641Y-56065840D01*
X119303970Y-56077619D01*
X119324405Y-56077619D01*
X119344521Y-56081239D01*
X119353249Y-56077619D01*
X119518424Y-56077619D01*
X119542267Y-56080193D01*
X119560543Y-56071054D01*
X119580156Y-56065296D01*
X119586344Y-56058154D01*
X119652552Y-56025050D01*
X119668996Y-56021473D01*
X119688481Y-56001987D01*
X119708655Y-55983222D01*
X119709139Y-55981328D01*
X119728512Y-55961955D01*
X119742977Y-55953364D01*
X119755294Y-55928729D01*
X119768506Y-55904533D01*
X119768366Y-55902585D01*
X119801319Y-55836680D01*
X119814285Y-55816505D01*
X119814285Y-55796070D01*
X119817905Y-55775954D01*
X119814285Y-55767226D01*
X119814285Y-55512616D01*
X119991618Y-55512616D01*
X119995238Y-55521344D01*
X119995238Y-55781757D01*
X119992664Y-55805600D01*
X120001802Y-55823876D01*
X120007561Y-55843489D01*
X120014702Y-55849677D01*
X120047806Y-55915884D01*
X120051383Y-55932327D01*
X120070866Y-55951810D01*
X120089635Y-55971988D01*
X120091527Y-55972471D01*
X120110899Y-55991844D01*
X120119492Y-56006311D01*
X120144130Y-56018630D01*
X120168321Y-56031840D01*
X120170270Y-56031700D01*
X120236175Y-56064653D01*
X120256351Y-56077619D01*
X120276786Y-56077619D01*
X120296902Y-56081239D01*
X120305630Y-56077619D01*
X120423186Y-56077619D01*
X120447029Y-56080193D01*
X120465305Y-56071054D01*
X120484918Y-56065296D01*
X120491106Y-56058154D01*
X120557314Y-56025050D01*
X120573758Y-56021473D01*
X120593243Y-56001987D01*
X120613417Y-55983222D01*
X120613901Y-55981328D01*
X120633274Y-55961955D01*
X120647739Y-55953364D01*
X120660056Y-55928729D01*
X120673268Y-55904533D01*
X120673128Y-55902585D01*
X120706081Y-55836680D01*
X120719047Y-55816505D01*
X120719047Y-55796070D01*
X120722667Y-55775954D01*
X120719047Y-55767226D01*
X120719047Y-55506812D01*
X120721621Y-55482969D01*
X120712482Y-55464691D01*
X120706724Y-55445081D01*
X120699582Y-55438893D01*
X120666477Y-55372682D01*
X120664207Y-55362244D01*
X120895843Y-55362244D01*
X120914363Y-55417972D01*
X120960072Y-55454842D01*
X121018458Y-55461145D01*
X121118844Y-55410952D01*
X121262108Y-55410952D01*
X121321716Y-55440756D01*
X121346386Y-55465426D01*
X121376190Y-55525034D01*
X121376190Y-55763536D01*
X121346386Y-55823143D01*
X121321715Y-55847814D01*
X121262108Y-55877619D01*
X121118844Y-55877619D01*
X121031860Y-55834127D01*
X120988812Y-55826380D01*
X120934567Y-55848878D01*
X120901097Y-55897131D01*
X120899027Y-55955820D01*
X120929016Y-56006311D01*
X121045699Y-56064653D01*
X121065875Y-56077619D01*
X121086310Y-56077619D01*
X121106426Y-56081239D01*
X121115154Y-56077619D01*
X121280329Y-56077619D01*
X121304172Y-56080193D01*
X121322448Y-56071054D01*
X121342061Y-56065296D01*
X121348249Y-56058154D01*
X121414457Y-56025050D01*
X121430901Y-56021473D01*
X121450386Y-56001987D01*
X121470560Y-55983222D01*
X121471044Y-55981328D01*
X121490417Y-55961955D01*
X121504882Y-55953364D01*
X121517199Y-55928729D01*
X121530411Y-55904533D01*
X121530271Y-55902585D01*
X121563224Y-55836680D01*
X121576190Y-55816505D01*
X121576190Y-55796070D01*
X121579810Y-55775954D01*
X121576190Y-55767226D01*
X121576190Y-55506812D01*
X121578764Y-55482969D01*
X121569778Y-55464997D01*
X121801142Y-55464997D01*
X121804762Y-55473725D01*
X121804762Y-55991998D01*
X121817085Y-56033966D01*
X121861467Y-56072423D01*
X121919594Y-56080780D01*
X121973013Y-56056385D01*
X122004762Y-56006982D01*
X122004762Y-55477415D01*
X122026916Y-55433106D01*
X122071225Y-55410952D01*
X122166870Y-55410952D01*
X122226478Y-55440756D01*
X122233333Y-55447611D01*
X122233333Y-55991998D01*
X122245656Y-56033966D01*
X122290038Y-56072423D01*
X122348165Y-56080780D01*
X122401584Y-56056385D01*
X122433333Y-56006982D01*
X122433333Y-55992451D01*
X122658744Y-55992451D01*
X122683139Y-56045870D01*
X122732542Y-56077619D01*
X123230941Y-56077619D01*
X123252927Y-56080780D01*
X123273130Y-56071553D01*
X123294442Y-56065296D01*
X123299424Y-56059545D01*
X123306346Y-56056385D01*
X123318354Y-56037699D01*
X123332899Y-56020914D01*
X123333981Y-56013382D01*
X123338095Y-56006982D01*
X123338095Y-55984773D01*
X123341256Y-55962787D01*
X123338095Y-55955865D01*
X123338095Y-55460963D01*
X123341256Y-55438977D01*
X123338095Y-55432055D01*
X123338095Y-54984773D01*
X123341256Y-54962787D01*
X123332029Y-54942583D01*
X123325772Y-54921272D01*
X123320021Y-54916289D01*
X123316861Y-54909368D01*
X123298175Y-54897359D01*
X123281390Y-54882815D01*
X123273858Y-54881732D01*
X123267458Y-54877619D01*
X123245249Y-54877619D01*
X123223263Y-54874458D01*
X123216341Y-54877619D01*
X122747526Y-54877619D01*
X122705558Y-54889942D01*
X122667101Y-54934324D01*
X122658744Y-54992451D01*
X122683139Y-55045870D01*
X122732542Y-55077619D01*
X123138095Y-55077619D01*
X123138095Y-55353809D01*
X122890383Y-55353809D01*
X122848415Y-55366132D01*
X122809958Y-55410514D01*
X122801601Y-55468641D01*
X122825996Y-55522060D01*
X122875399Y-55553809D01*
X123138095Y-55553809D01*
X123138095Y-55877619D01*
X122747526Y-55877619D01*
X122705558Y-55889942D01*
X122667101Y-55934324D01*
X122658744Y-55992451D01*
X122433333Y-55992451D01*
X122433333Y-55424231D01*
X122437289Y-55413625D01*
X122433333Y-55395440D01*
X122433333Y-55296573D01*
X122421010Y-55254605D01*
X122376628Y-55216148D01*
X122318501Y-55207791D01*
X122265082Y-55232186D01*
X122263007Y-55235414D01*
X122240017Y-55223919D01*
X122219839Y-55210952D01*
X122199403Y-55210952D01*
X122179288Y-55207332D01*
X122170560Y-55210952D01*
X122053003Y-55210952D01*
X122029160Y-55208378D01*
X122010882Y-55217516D01*
X121991272Y-55223275D01*
X121985084Y-55230416D01*
X121930446Y-55257735D01*
X121926561Y-55257598D01*
X121904421Y-55270747D01*
X121894799Y-55275559D01*
X121892110Y-55278059D01*
X121876070Y-55287587D01*
X121871029Y-55297668D01*
X121862772Y-55305349D01*
X121858148Y-55323429D01*
X121817729Y-55404267D01*
X121804762Y-55424446D01*
X121804762Y-55444882D01*
X121801142Y-55464997D01*
X121569778Y-55464997D01*
X121569625Y-55464691D01*
X121563867Y-55445081D01*
X121556725Y-55438893D01*
X121523620Y-55372682D01*
X121520044Y-55356242D01*
X121500569Y-55336767D01*
X121481793Y-55316581D01*
X121479898Y-55316096D01*
X121460528Y-55296726D01*
X121451936Y-55282260D01*
X121427301Y-55269942D01*
X121403106Y-55256731D01*
X121401156Y-55256870D01*
X121335255Y-55223919D01*
X121315077Y-55210952D01*
X121294641Y-55210952D01*
X121274526Y-55207332D01*
X121265798Y-55210952D01*
X121100622Y-55210952D01*
X121076779Y-55208378D01*
X121058501Y-55217516D01*
X121038891Y-55223275D01*
X121032703Y-55230416D01*
X120942418Y-55275559D01*
X120910391Y-55305349D01*
X120895843Y-55362244D01*
X120664207Y-55362244D01*
X120662901Y-55356242D01*
X120643426Y-55336767D01*
X120624650Y-55316581D01*
X120622755Y-55316096D01*
X120603385Y-55296726D01*
X120594793Y-55282260D01*
X120570158Y-55269942D01*
X120545963Y-55256731D01*
X120544013Y-55256870D01*
X120478112Y-55223919D01*
X120457934Y-55210952D01*
X120437498Y-55210952D01*
X120417383Y-55207332D01*
X120408655Y-55210952D01*
X120291098Y-55210952D01*
X120267255Y-55208378D01*
X120248977Y-55217516D01*
X120229367Y-55223275D01*
X120223179Y-55230416D01*
X120156968Y-55263521D01*
X120140528Y-55267098D01*
X120121053Y-55286572D01*
X120100867Y-55305349D01*
X120100382Y-55307243D01*
X120081012Y-55326613D01*
X120066546Y-55335206D01*
X120054228Y-55359840D01*
X120041017Y-55384036D01*
X120041156Y-55385985D01*
X120008205Y-55451886D01*
X119995238Y-55472065D01*
X119995238Y-55492501D01*
X119991618Y-55512616D01*
X119814285Y-55512616D01*
X119814285Y-55506812D01*
X119816859Y-55482969D01*
X119807720Y-55464691D01*
X119801962Y-55445081D01*
X119794820Y-55438893D01*
X119761715Y-55372682D01*
X119758139Y-55356242D01*
X119738664Y-55336767D01*
X119719888Y-55316581D01*
X119717993Y-55316096D01*
X119698623Y-55296726D01*
X119690031Y-55282260D01*
X119665396Y-55269942D01*
X119641201Y-55256731D01*
X119639251Y-55256870D01*
X119573350Y-55223919D01*
X119553172Y-55210952D01*
X119532736Y-55210952D01*
X119512621Y-55207332D01*
X119503893Y-55210952D01*
X119338717Y-55210952D01*
X119338095Y-55210885D01*
X119338095Y-54963240D01*
X119325772Y-54921272D01*
X119281390Y-54882815D01*
X119223263Y-54874458D01*
X119169844Y-54898853D01*
X119138095Y-54948256D01*
X119138095Y-55345987D01*
X119133938Y-55362244D01*
X118875543Y-55362244D01*
X118862739Y-55336636D01*
X118862877Y-55332751D01*
X118849727Y-55310611D01*
X118844916Y-55300989D01*
X118842415Y-55298300D01*
X118832888Y-55282260D01*
X118822806Y-55277219D01*
X118815126Y-55268962D01*
X118797045Y-55264338D01*
X118716207Y-55223919D01*
X118696029Y-55210952D01*
X118675593Y-55210952D01*
X118655478Y-55207332D01*
X118646750Y-55210952D01*
X118481574Y-55210952D01*
X118457731Y-55208378D01*
X118439453Y-55217516D01*
X118419843Y-55223275D01*
X118413655Y-55230416D01*
X118359017Y-55257735D01*
X118355132Y-55257598D01*
X118332992Y-55270747D01*
X118323370Y-55275559D01*
X118320681Y-55278059D01*
X118304641Y-55287587D01*
X118299600Y-55297668D01*
X118291343Y-55305349D01*
X118286719Y-55323429D01*
X118246300Y-55404267D01*
X118233333Y-55424446D01*
X118233333Y-55444882D01*
X118229713Y-55464997D01*
X118233333Y-55473725D01*
X118233333Y-55531871D01*
X118229267Y-55543359D01*
X118004761Y-55543359D01*
X118004761Y-55506812D01*
X118007335Y-55482969D01*
X118004761Y-55477821D01*
X118004761Y-55296573D01*
X117992438Y-55254605D01*
X117948056Y-55216148D01*
X117889929Y-55207791D01*
X117836510Y-55232186D01*
X117822854Y-55253433D01*
X117763826Y-55223919D01*
X117743648Y-55210952D01*
X117723212Y-55210952D01*
X117703097Y-55207332D01*
X117694369Y-55210952D01*
X117604668Y-55210952D01*
X117562700Y-55223275D01*
X117524243Y-55267657D01*
X117515886Y-55325784D01*
X116002381Y-55325784D01*
X116002381Y-53705784D01*
X116587314Y-53705784D01*
X116611709Y-53759203D01*
X116661112Y-53790952D01*
X116762107Y-53790952D01*
X116821715Y-53820756D01*
X116846385Y-53845426D01*
X116876189Y-53905034D01*
X116876189Y-54371998D01*
X116888512Y-54413966D01*
X116932894Y-54452423D01*
X116991021Y-54460780D01*
X117044440Y-54436385D01*
X117076189Y-54386982D01*
X117076189Y-53892616D01*
X117301141Y-53892616D01*
X117304761Y-53901344D01*
X117304761Y-54161757D01*
X117302187Y-54185600D01*
X117311325Y-54203876D01*
X117317084Y-54223489D01*
X117324225Y-54229677D01*
X117357329Y-54295884D01*
X117360906Y-54312327D01*
X117380389Y-54331810D01*
X117399158Y-54351988D01*
X117401050Y-54352471D01*
X117420422Y-54371844D01*
X117429015Y-54386311D01*
X117453653Y-54398630D01*
X117477844Y-54411840D01*
X117479793Y-54411700D01*
X117545698Y-54444653D01*
X117565874Y-54457619D01*
X117586309Y-54457619D01*
X117606425Y-54461239D01*
X117615153Y-54457619D01*
X117732709Y-54457619D01*
X117756552Y-54460193D01*
X117774828Y-54451054D01*
X117794441Y-54445296D01*
X117800629Y-54438154D01*
X117866837Y-54405050D01*
X117883281Y-54401473D01*
X117902766Y-54381987D01*
X117913018Y-54372451D01*
X118111124Y-54372451D01*
X118135519Y-54425870D01*
X118184922Y-54457619D01*
X118304138Y-54457619D01*
X118327981Y-54460193D01*
X118346257Y-54451054D01*
X118365870Y-54445296D01*
X118372058Y-54438154D01*
X118426695Y-54410835D01*
X118430582Y-54410973D01*
X118452724Y-54397821D01*
X118462343Y-54393012D01*
X118465030Y-54390511D01*
X118481072Y-54380984D01*
X118486113Y-54370901D01*
X118494369Y-54363222D01*
X118498991Y-54345144D01*
X118539412Y-54264301D01*
X118552380Y-54244124D01*
X118552380Y-54223688D01*
X118556000Y-54203573D01*
X118552380Y-54194845D01*
X118552380Y-53892616D01*
X118777332Y-53892616D01*
X118780952Y-53901344D01*
X118780952Y-54161757D01*
X118778378Y-54185600D01*
X118787516Y-54203876D01*
X118793275Y-54223489D01*
X118800416Y-54229677D01*
X118833520Y-54295884D01*
X118837097Y-54312327D01*
X118856580Y-54331810D01*
X118875349Y-54351988D01*
X118877241Y-54352471D01*
X118896613Y-54371844D01*
X118905206Y-54386311D01*
X118929844Y-54398630D01*
X118954035Y-54411840D01*
X118955984Y-54411700D01*
X119021889Y-54444653D01*
X119042065Y-54457619D01*
X119062500Y-54457619D01*
X119082616Y-54461239D01*
X119091344Y-54457619D01*
X119208900Y-54457619D01*
X119232743Y-54460193D01*
X119251019Y-54451054D01*
X119270632Y-54445296D01*
X119276820Y-54438154D01*
X119343028Y-54405050D01*
X119359472Y-54401473D01*
X119378957Y-54381987D01*
X119399131Y-54363222D01*
X119399615Y-54361328D01*
X119418988Y-54341955D01*
X119433453Y-54333364D01*
X119445770Y-54308729D01*
X119458982Y-54284533D01*
X119458842Y-54282585D01*
X119491795Y-54216680D01*
X119504761Y-54196505D01*
X119504761Y-54176070D01*
X119508381Y-54155954D01*
X119504761Y-54147226D01*
X119504761Y-53886812D01*
X119507335Y-53862969D01*
X119498196Y-53844691D01*
X119492438Y-53825081D01*
X119485296Y-53818893D01*
X119452191Y-53752682D01*
X119448615Y-53736242D01*
X119429140Y-53716767D01*
X119410364Y-53696581D01*
X119408469Y-53696096D01*
X119389099Y-53676726D01*
X119380507Y-53662260D01*
X119355872Y-53649942D01*
X119331677Y-53636731D01*
X119329727Y-53636870D01*
X119263826Y-53603919D01*
X119243648Y-53590952D01*
X119223212Y-53590952D01*
X119203097Y-53587332D01*
X119194369Y-53590952D01*
X119076812Y-53590952D01*
X119052969Y-53588378D01*
X119034691Y-53597516D01*
X119015081Y-53603275D01*
X119008893Y-53610416D01*
X118942682Y-53643521D01*
X118926242Y-53647098D01*
X118906767Y-53666572D01*
X118886581Y-53685349D01*
X118886096Y-53687243D01*
X118866726Y-53706613D01*
X118852260Y-53715206D01*
X118839942Y-53739840D01*
X118826731Y-53764036D01*
X118826870Y-53765985D01*
X118793919Y-53831886D01*
X118780952Y-53852065D01*
X118780952Y-53872501D01*
X118777332Y-53892616D01*
X118552380Y-53892616D01*
X118552380Y-53790952D01*
X118609616Y-53790952D01*
X118651584Y-53778629D01*
X118690041Y-53734247D01*
X118698398Y-53676120D01*
X118674003Y-53622701D01*
X118624600Y-53590952D01*
X118552380Y-53590952D01*
X118552380Y-53373299D01*
X119730298Y-53373299D01*
X119733333Y-53379803D01*
X119733333Y-54371998D01*
X119745656Y-54413966D01*
X119790038Y-54452423D01*
X119848165Y-54460780D01*
X119901584Y-54436385D01*
X119933333Y-54386982D01*
X119933333Y-53808375D01*
X120075706Y-54113462D01*
X120087342Y-54139505D01*
X120100581Y-54148168D01*
X120111043Y-54160042D01*
X120124646Y-54163915D01*
X120136481Y-54171659D01*
X120152303Y-54171789D01*
X120167524Y-54176123D01*
X120181062Y-54172026D01*
X120195205Y-54172143D01*
X120208586Y-54163697D01*
X120223732Y-54159115D01*
X120232906Y-54148349D01*
X120244867Y-54140801D01*
X120251557Y-54126463D01*
X120261823Y-54114418D01*
X120263720Y-54100399D01*
X120399999Y-53808375D01*
X120399999Y-54371998D01*
X120412322Y-54413966D01*
X120456704Y-54452423D01*
X120514831Y-54460780D01*
X120568250Y-54436385D01*
X120599999Y-54386982D01*
X120599999Y-54372451D01*
X121492077Y-54372451D01*
X121516472Y-54425870D01*
X121565875Y-54457619D01*
X122064274Y-54457619D01*
X122086260Y-54460780D01*
X122106463Y-54451553D01*
X122127775Y-54445296D01*
X122132757Y-54439545D01*
X122139679Y-54436385D01*
X122151687Y-54417699D01*
X122166232Y-54400914D01*
X122167314Y-54393382D01*
X122171428Y-54386982D01*
X122171428Y-54364773D01*
X122174589Y-54342787D01*
X122171428Y-54335865D01*
X122171428Y-53394144D01*
X122396370Y-53394144D01*
X122406823Y-53451931D01*
X122446859Y-53494895D01*
X122503767Y-53509392D01*
X122659083Y-53457619D01*
X122857346Y-53457619D01*
X122916954Y-53487423D01*
X122941624Y-53512093D01*
X122971428Y-53571701D01*
X122971428Y-53619727D01*
X122941624Y-53679335D01*
X122916954Y-53704004D01*
X122846050Y-53739456D01*
X122683501Y-53780093D01*
X122672017Y-53778854D01*
X122655573Y-53787075D01*
X122652273Y-53787901D01*
X122642756Y-53793484D01*
X122561730Y-53833997D01*
X122545290Y-53837574D01*
X122525815Y-53857048D01*
X122505629Y-53875825D01*
X122505144Y-53877719D01*
X122485774Y-53897089D01*
X122471308Y-53905682D01*
X122458990Y-53930316D01*
X122445779Y-53954512D01*
X122445918Y-53956461D01*
X122412967Y-54022362D01*
X122400000Y-54042541D01*
X122400000Y-54062977D01*
X122396380Y-54083092D01*
X122400000Y-54091820D01*
X122400000Y-54161757D01*
X122397426Y-54185600D01*
X122406564Y-54203876D01*
X122412323Y-54223489D01*
X122419464Y-54229677D01*
X122452568Y-54295884D01*
X122456145Y-54312327D01*
X122475628Y-54331810D01*
X122494397Y-54351988D01*
X122496289Y-54352471D01*
X122515661Y-54371844D01*
X122524254Y-54386311D01*
X122548892Y-54398630D01*
X122573083Y-54411840D01*
X122575032Y-54411700D01*
X122640937Y-54444653D01*
X122661113Y-54457619D01*
X122681548Y-54457619D01*
X122701664Y-54461239D01*
X122710392Y-54457619D01*
X122916031Y-54457619D01*
X122932338Y-54461773D01*
X122958477Y-54453059D01*
X122984918Y-54445296D01*
X122986197Y-54443819D01*
X123116691Y-54400321D01*
X123152609Y-54375359D01*
X123175058Y-54321094D01*
X123164604Y-54263307D01*
X123124569Y-54220344D01*
X123067661Y-54205846D01*
X122912344Y-54257619D01*
X122714082Y-54257619D01*
X122654475Y-54227815D01*
X122629804Y-54203143D01*
X122600000Y-54143536D01*
X122600000Y-54095510D01*
X122629804Y-54035901D01*
X122654474Y-54011232D01*
X122725377Y-53975780D01*
X122887925Y-53935143D01*
X122899410Y-53936383D01*
X122915853Y-53928161D01*
X122919155Y-53927336D01*
X122928675Y-53921750D01*
X123009695Y-53881240D01*
X123026138Y-53877663D01*
X123045617Y-53858183D01*
X123065798Y-53839412D01*
X123066282Y-53837518D01*
X123085653Y-53818147D01*
X123100120Y-53809555D01*
X123112438Y-53784918D01*
X123125649Y-53760725D01*
X123125509Y-53758776D01*
X123158462Y-53692871D01*
X123171428Y-53672696D01*
X123171428Y-53652261D01*
X123175048Y-53632145D01*
X123171428Y-53623417D01*
X123171428Y-53553479D01*
X123174002Y-53529636D01*
X123164863Y-53511358D01*
X123159105Y-53491748D01*
X123151963Y-53485560D01*
X123118858Y-53419349D01*
X123115282Y-53402909D01*
X123095807Y-53383434D01*
X123086380Y-53373299D01*
X123396965Y-53373299D01*
X123400000Y-53379803D01*
X123400000Y-54371998D01*
X123412323Y-54413966D01*
X123456705Y-54452423D01*
X123514832Y-54460780D01*
X123568251Y-54436385D01*
X123600000Y-54386982D01*
X123600000Y-53808375D01*
X123742373Y-54113462D01*
X123754009Y-54139505D01*
X123767248Y-54148168D01*
X123777710Y-54160042D01*
X123791313Y-54163915D01*
X123803148Y-54171659D01*
X123818970Y-54171789D01*
X123834191Y-54176123D01*
X123847729Y-54172026D01*
X123861872Y-54172143D01*
X123875253Y-54163697D01*
X123890399Y-54159115D01*
X123899573Y-54148349D01*
X123911534Y-54140801D01*
X123918224Y-54126463D01*
X123928490Y-54114418D01*
X123930387Y-54100399D01*
X124066666Y-53808375D01*
X124066666Y-54371998D01*
X124078989Y-54413966D01*
X124123371Y-54452423D01*
X124181498Y-54460780D01*
X124234917Y-54436385D01*
X124266666Y-54386982D01*
X124266666Y-53365187D01*
X124269946Y-53343635D01*
X124260715Y-53322975D01*
X124254343Y-53301272D01*
X124248919Y-53296572D01*
X124245991Y-53290018D01*
X124227057Y-53277629D01*
X124209961Y-53262815D01*
X124202856Y-53261793D01*
X124196851Y-53257864D01*
X124174227Y-53257677D01*
X124151834Y-53254458D01*
X124145305Y-53257439D01*
X124138127Y-53257380D01*
X124118992Y-53269455D01*
X124098415Y-53278853D01*
X124094534Y-53284891D01*
X124088465Y-53288722D01*
X124078898Y-53309221D01*
X124066666Y-53328256D01*
X124066666Y-53335434D01*
X123833333Y-53835432D01*
X123593817Y-53322184D01*
X123587677Y-53301272D01*
X123570580Y-53286457D01*
X123555623Y-53269481D01*
X123548719Y-53267515D01*
X123543295Y-53262815D01*
X123520902Y-53259595D01*
X123499142Y-53253400D01*
X123492270Y-53255479D01*
X123485168Y-53254458D01*
X123464592Y-53263854D01*
X123442934Y-53270408D01*
X123438278Y-53275871D01*
X123431749Y-53278853D01*
X123419518Y-53297884D01*
X123404843Y-53315105D01*
X123403880Y-53322218D01*
X123400000Y-53328256D01*
X123400000Y-53350880D01*
X123396965Y-53373299D01*
X123086380Y-53373299D01*
X123077031Y-53363248D01*
X123075136Y-53362763D01*
X123055766Y-53343393D01*
X123047174Y-53328927D01*
X123022539Y-53316609D01*
X122998344Y-53303398D01*
X122996394Y-53303537D01*
X122930493Y-53270586D01*
X122910315Y-53257619D01*
X122889879Y-53257619D01*
X122869764Y-53253999D01*
X122861036Y-53257619D01*
X122655395Y-53257619D01*
X122639090Y-53253465D01*
X122612949Y-53262178D01*
X122586510Y-53269942D01*
X122585230Y-53271418D01*
X122454736Y-53314917D01*
X122418819Y-53339879D01*
X122396370Y-53394144D01*
X122171428Y-53394144D01*
X122171428Y-53343240D01*
X122159105Y-53301272D01*
X122114723Y-53262815D01*
X122056596Y-53254458D01*
X122003177Y-53278853D01*
X121971428Y-53328256D01*
X121971428Y-54257619D01*
X121580859Y-54257619D01*
X121538891Y-54269942D01*
X121500434Y-54314324D01*
X121492077Y-54372451D01*
X120599999Y-54372451D01*
X120599999Y-53365187D01*
X120603279Y-53343635D01*
X120594048Y-53322975D01*
X120587676Y-53301272D01*
X120582252Y-53296572D01*
X120579324Y-53290018D01*
X120560390Y-53277629D01*
X120543294Y-53262815D01*
X120536189Y-53261793D01*
X120530184Y-53257864D01*
X120507560Y-53257677D01*
X120485167Y-53254458D01*
X120478638Y-53257439D01*
X120471460Y-53257380D01*
X120452325Y-53269455D01*
X120431748Y-53278853D01*
X120427867Y-53284891D01*
X120421798Y-53288722D01*
X120412231Y-53309221D01*
X120399999Y-53328256D01*
X120399999Y-53335434D01*
X120166666Y-53835432D01*
X119927150Y-53322184D01*
X119921010Y-53301272D01*
X119903913Y-53286457D01*
X119888956Y-53269481D01*
X119882052Y-53267515D01*
X119876628Y-53262815D01*
X119854235Y-53259595D01*
X119832475Y-53253400D01*
X119825603Y-53255479D01*
X119818501Y-53254458D01*
X119797925Y-53263854D01*
X119776267Y-53270408D01*
X119771611Y-53275871D01*
X119765082Y-53278853D01*
X119752851Y-53297884D01*
X119738176Y-53315105D01*
X119737213Y-53322218D01*
X119733333Y-53328256D01*
X119733333Y-53350880D01*
X119730298Y-53373299D01*
X118552380Y-53373299D01*
X118552380Y-53343240D01*
X118540057Y-53301272D01*
X118495675Y-53262815D01*
X118437548Y-53254458D01*
X118384129Y-53278853D01*
X118352380Y-53328256D01*
X118352380Y-53590952D01*
X118199906Y-53590952D01*
X118157938Y-53603275D01*
X118119481Y-53647657D01*
X118111124Y-53705784D01*
X118135519Y-53759203D01*
X118184922Y-53790952D01*
X118352380Y-53790952D01*
X118352380Y-54191154D01*
X118330225Y-54235464D01*
X118285917Y-54257619D01*
X118199906Y-54257619D01*
X118157938Y-54269942D01*
X118119481Y-54314324D01*
X118111124Y-54372451D01*
X117913018Y-54372451D01*
X117922940Y-54363222D01*
X117923424Y-54361328D01*
X117942797Y-54341955D01*
X117957262Y-54333364D01*
X117969579Y-54308729D01*
X117982791Y-54284533D01*
X117982651Y-54282585D01*
X118015604Y-54216680D01*
X118028570Y-54196505D01*
X118028570Y-54176070D01*
X118032190Y-54155954D01*
X118028570Y-54147226D01*
X118028570Y-53886812D01*
X118031144Y-53862969D01*
X118022005Y-53844691D01*
X118016247Y-53825081D01*
X118009105Y-53818893D01*
X117976000Y-53752682D01*
X117972424Y-53736242D01*
X117952949Y-53716767D01*
X117934173Y-53696581D01*
X117932278Y-53696096D01*
X117912908Y-53676726D01*
X117904316Y-53662260D01*
X117879681Y-53649942D01*
X117855486Y-53636731D01*
X117853536Y-53636870D01*
X117787635Y-53603919D01*
X117767457Y-53590952D01*
X117747021Y-53590952D01*
X117726906Y-53587332D01*
X117718178Y-53590952D01*
X117600621Y-53590952D01*
X117576778Y-53588378D01*
X117558500Y-53597516D01*
X117538890Y-53603275D01*
X117532702Y-53610416D01*
X117466491Y-53643521D01*
X117450051Y-53647098D01*
X117430576Y-53666572D01*
X117410390Y-53685349D01*
X117409905Y-53687243D01*
X117390535Y-53706613D01*
X117376069Y-53715206D01*
X117363751Y-53739840D01*
X117350540Y-53764036D01*
X117350679Y-53765985D01*
X117317728Y-53831886D01*
X117304761Y-53852065D01*
X117304761Y-53872501D01*
X117301141Y-53892616D01*
X117076189Y-53892616D01*
X117076189Y-53886812D01*
X117078763Y-53862969D01*
X117076189Y-53857821D01*
X117076189Y-53676573D01*
X117063866Y-53634605D01*
X117019484Y-53596148D01*
X116961357Y-53587791D01*
X116907938Y-53612186D01*
X116894282Y-53633433D01*
X116835254Y-53603919D01*
X116815076Y-53590952D01*
X116794640Y-53590952D01*
X116774525Y-53587332D01*
X116765797Y-53590952D01*
X116676096Y-53590952D01*
X116634128Y-53603275D01*
X116595671Y-53647657D01*
X116587314Y-53705784D01*
X116002381Y-53705784D01*
X116002381Y-52537143D01*
X124997620Y-52537143D01*
X124997620Y-56542857D01*
G37*
D11*
X125160714Y-69408214D02*
X125160714Y-68658214D01*
X125160714Y-68658214D02*
X124982143Y-68658214D01*
X124982143Y-68658214D02*
X124875000Y-68693928D01*
X124875000Y-68693928D02*
X124803571Y-68765357D01*
X124803571Y-68765357D02*
X124767857Y-68836785D01*
X124767857Y-68836785D02*
X124732143Y-68979642D01*
X124732143Y-68979642D02*
X124732143Y-69086785D01*
X124732143Y-69086785D02*
X124767857Y-69229642D01*
X124767857Y-69229642D02*
X124803571Y-69301071D01*
X124803571Y-69301071D02*
X124875000Y-69372500D01*
X124875000Y-69372500D02*
X124982143Y-69408214D01*
X124982143Y-69408214D02*
X125160714Y-69408214D01*
X124125000Y-69372500D02*
X124196428Y-69408214D01*
X124196428Y-69408214D02*
X124339286Y-69408214D01*
X124339286Y-69408214D02*
X124410714Y-69372500D01*
X124410714Y-69372500D02*
X124446428Y-69301071D01*
X124446428Y-69301071D02*
X124446428Y-69015357D01*
X124446428Y-69015357D02*
X124410714Y-68943928D01*
X124410714Y-68943928D02*
X124339286Y-68908214D01*
X124339286Y-68908214D02*
X124196428Y-68908214D01*
X124196428Y-68908214D02*
X124125000Y-68943928D01*
X124125000Y-68943928D02*
X124089286Y-69015357D01*
X124089286Y-69015357D02*
X124089286Y-69086785D01*
X124089286Y-69086785D02*
X124446428Y-69158214D01*
X123803571Y-69372500D02*
X123732143Y-69408214D01*
X123732143Y-69408214D02*
X123589286Y-69408214D01*
X123589286Y-69408214D02*
X123517857Y-69372500D01*
X123517857Y-69372500D02*
X123482143Y-69301071D01*
X123482143Y-69301071D02*
X123482143Y-69265357D01*
X123482143Y-69265357D02*
X123517857Y-69193928D01*
X123517857Y-69193928D02*
X123589286Y-69158214D01*
X123589286Y-69158214D02*
X123696429Y-69158214D01*
X123696429Y-69158214D02*
X123767857Y-69122500D01*
X123767857Y-69122500D02*
X123803571Y-69051071D01*
X123803571Y-69051071D02*
X123803571Y-69015357D01*
X123803571Y-69015357D02*
X123767857Y-68943928D01*
X123767857Y-68943928D02*
X123696429Y-68908214D01*
X123696429Y-68908214D02*
X123589286Y-68908214D01*
X123589286Y-68908214D02*
X123517857Y-68943928D01*
X123160714Y-69408214D02*
X123160714Y-68908214D01*
X123160714Y-68658214D02*
X123196428Y-68693928D01*
X123196428Y-68693928D02*
X123160714Y-68729642D01*
X123160714Y-68729642D02*
X123125000Y-68693928D01*
X123125000Y-68693928D02*
X123160714Y-68658214D01*
X123160714Y-68658214D02*
X123160714Y-68729642D01*
X122482143Y-68908214D02*
X122482143Y-69515357D01*
X122482143Y-69515357D02*
X122517857Y-69586785D01*
X122517857Y-69586785D02*
X122553571Y-69622500D01*
X122553571Y-69622500D02*
X122625000Y-69658214D01*
X122625000Y-69658214D02*
X122732143Y-69658214D01*
X122732143Y-69658214D02*
X122803571Y-69622500D01*
X122482143Y-69372500D02*
X122553571Y-69408214D01*
X122553571Y-69408214D02*
X122696428Y-69408214D01*
X122696428Y-69408214D02*
X122767857Y-69372500D01*
X122767857Y-69372500D02*
X122803571Y-69336785D01*
X122803571Y-69336785D02*
X122839285Y-69265357D01*
X122839285Y-69265357D02*
X122839285Y-69051071D01*
X122839285Y-69051071D02*
X122803571Y-68979642D01*
X122803571Y-68979642D02*
X122767857Y-68943928D01*
X122767857Y-68943928D02*
X122696428Y-68908214D01*
X122696428Y-68908214D02*
X122553571Y-68908214D01*
X122553571Y-68908214D02*
X122482143Y-68943928D01*
X122125000Y-68908214D02*
X122125000Y-69408214D01*
X122125000Y-68979642D02*
X122089286Y-68943928D01*
X122089286Y-68943928D02*
X122017857Y-68908214D01*
X122017857Y-68908214D02*
X121910714Y-68908214D01*
X121910714Y-68908214D02*
X121839286Y-68943928D01*
X121839286Y-68943928D02*
X121803572Y-69015357D01*
X121803572Y-69015357D02*
X121803572Y-69408214D01*
X121160715Y-69372500D02*
X121232143Y-69408214D01*
X121232143Y-69408214D02*
X121375001Y-69408214D01*
X121375001Y-69408214D02*
X121446429Y-69372500D01*
X121446429Y-69372500D02*
X121482143Y-69301071D01*
X121482143Y-69301071D02*
X121482143Y-69015357D01*
X121482143Y-69015357D02*
X121446429Y-68943928D01*
X121446429Y-68943928D02*
X121375001Y-68908214D01*
X121375001Y-68908214D02*
X121232143Y-68908214D01*
X121232143Y-68908214D02*
X121160715Y-68943928D01*
X121160715Y-68943928D02*
X121125001Y-69015357D01*
X121125001Y-69015357D02*
X121125001Y-69086785D01*
X121125001Y-69086785D02*
X121482143Y-69158214D01*
X120482144Y-69408214D02*
X120482144Y-68658214D01*
X120482144Y-69372500D02*
X120553572Y-69408214D01*
X120553572Y-69408214D02*
X120696429Y-69408214D01*
X120696429Y-69408214D02*
X120767858Y-69372500D01*
X120767858Y-69372500D02*
X120803572Y-69336785D01*
X120803572Y-69336785D02*
X120839286Y-69265357D01*
X120839286Y-69265357D02*
X120839286Y-69051071D01*
X120839286Y-69051071D02*
X120803572Y-68979642D01*
X120803572Y-68979642D02*
X120767858Y-68943928D01*
X120767858Y-68943928D02*
X120696429Y-68908214D01*
X120696429Y-68908214D02*
X120553572Y-68908214D01*
X120553572Y-68908214D02*
X120482144Y-68943928D01*
X119553572Y-69408214D02*
X119553572Y-68658214D01*
X119553572Y-68943928D02*
X119482144Y-68908214D01*
X119482144Y-68908214D02*
X119339286Y-68908214D01*
X119339286Y-68908214D02*
X119267858Y-68943928D01*
X119267858Y-68943928D02*
X119232144Y-68979642D01*
X119232144Y-68979642D02*
X119196429Y-69051071D01*
X119196429Y-69051071D02*
X119196429Y-69265357D01*
X119196429Y-69265357D02*
X119232144Y-69336785D01*
X119232144Y-69336785D02*
X119267858Y-69372500D01*
X119267858Y-69372500D02*
X119339286Y-69408214D01*
X119339286Y-69408214D02*
X119482144Y-69408214D01*
X119482144Y-69408214D02*
X119553572Y-69372500D01*
X118946430Y-68908214D02*
X118767858Y-69408214D01*
X118589287Y-68908214D02*
X118767858Y-69408214D01*
X118767858Y-69408214D02*
X118839287Y-69586785D01*
X118839287Y-69586785D02*
X118875001Y-69622500D01*
X118875001Y-69622500D02*
X118946430Y-69658214D01*
X117482143Y-69015357D02*
X117375000Y-69051071D01*
X117375000Y-69051071D02*
X117339286Y-69086785D01*
X117339286Y-69086785D02*
X117303572Y-69158214D01*
X117303572Y-69158214D02*
X117303572Y-69265357D01*
X117303572Y-69265357D02*
X117339286Y-69336785D01*
X117339286Y-69336785D02*
X117375000Y-69372500D01*
X117375000Y-69372500D02*
X117446429Y-69408214D01*
X117446429Y-69408214D02*
X117732143Y-69408214D01*
X117732143Y-69408214D02*
X117732143Y-68658214D01*
X117732143Y-68658214D02*
X117482143Y-68658214D01*
X117482143Y-68658214D02*
X117410715Y-68693928D01*
X117410715Y-68693928D02*
X117375000Y-68729642D01*
X117375000Y-68729642D02*
X117339286Y-68801071D01*
X117339286Y-68801071D02*
X117339286Y-68872500D01*
X117339286Y-68872500D02*
X117375000Y-68943928D01*
X117375000Y-68943928D02*
X117410715Y-68979642D01*
X117410715Y-68979642D02*
X117482143Y-69015357D01*
X117482143Y-69015357D02*
X117732143Y-69015357D01*
X116696429Y-69372500D02*
X116767857Y-69408214D01*
X116767857Y-69408214D02*
X116910715Y-69408214D01*
X116910715Y-69408214D02*
X116982143Y-69372500D01*
X116982143Y-69372500D02*
X117017857Y-69301071D01*
X117017857Y-69301071D02*
X117017857Y-69015357D01*
X117017857Y-69015357D02*
X116982143Y-68943928D01*
X116982143Y-68943928D02*
X116910715Y-68908214D01*
X116910715Y-68908214D02*
X116767857Y-68908214D01*
X116767857Y-68908214D02*
X116696429Y-68943928D01*
X116696429Y-68943928D02*
X116660715Y-69015357D01*
X116660715Y-69015357D02*
X116660715Y-69086785D01*
X116660715Y-69086785D02*
X117017857Y-69158214D01*
X116339286Y-68908214D02*
X116339286Y-69408214D01*
X116339286Y-68979642D02*
X116303572Y-68943928D01*
X116303572Y-68943928D02*
X116232143Y-68908214D01*
X116232143Y-68908214D02*
X116125000Y-68908214D01*
X116125000Y-68908214D02*
X116053572Y-68943928D01*
X116053572Y-68943928D02*
X116017858Y-69015357D01*
X116017858Y-69015357D02*
X116017858Y-69408214D01*
X115125000Y-69372500D02*
X115017858Y-69408214D01*
X115017858Y-69408214D02*
X114839286Y-69408214D01*
X114839286Y-69408214D02*
X114767858Y-69372500D01*
X114767858Y-69372500D02*
X114732143Y-69336785D01*
X114732143Y-69336785D02*
X114696429Y-69265357D01*
X114696429Y-69265357D02*
X114696429Y-69193928D01*
X114696429Y-69193928D02*
X114732143Y-69122500D01*
X114732143Y-69122500D02*
X114767858Y-69086785D01*
X114767858Y-69086785D02*
X114839286Y-69051071D01*
X114839286Y-69051071D02*
X114982143Y-69015357D01*
X114982143Y-69015357D02*
X115053572Y-68979642D01*
X115053572Y-68979642D02*
X115089286Y-68943928D01*
X115089286Y-68943928D02*
X115125000Y-68872500D01*
X115125000Y-68872500D02*
X115125000Y-68801071D01*
X115125000Y-68801071D02*
X115089286Y-68729642D01*
X115089286Y-68729642D02*
X115053572Y-68693928D01*
X115053572Y-68693928D02*
X114982143Y-68658214D01*
X114982143Y-68658214D02*
X114803572Y-68658214D01*
X114803572Y-68658214D02*
X114696429Y-68693928D01*
X114375000Y-69408214D02*
X114375000Y-68908214D01*
X114375000Y-68979642D02*
X114339286Y-68943928D01*
X114339286Y-68943928D02*
X114267857Y-68908214D01*
X114267857Y-68908214D02*
X114160714Y-68908214D01*
X114160714Y-68908214D02*
X114089286Y-68943928D01*
X114089286Y-68943928D02*
X114053572Y-69015357D01*
X114053572Y-69015357D02*
X114053572Y-69408214D01*
X114053572Y-69015357D02*
X114017857Y-68943928D01*
X114017857Y-68943928D02*
X113946429Y-68908214D01*
X113946429Y-68908214D02*
X113839286Y-68908214D01*
X113839286Y-68908214D02*
X113767857Y-68943928D01*
X113767857Y-68943928D02*
X113732143Y-69015357D01*
X113732143Y-69015357D02*
X113732143Y-69408214D01*
X113375000Y-69408214D02*
X113375000Y-68908214D01*
X113375000Y-68658214D02*
X113410714Y-68693928D01*
X113410714Y-68693928D02*
X113375000Y-68729642D01*
X113375000Y-68729642D02*
X113339286Y-68693928D01*
X113339286Y-68693928D02*
X113375000Y-68658214D01*
X113375000Y-68658214D02*
X113375000Y-68729642D01*
X113125000Y-68908214D02*
X112839286Y-68908214D01*
X113017857Y-68658214D02*
X113017857Y-69301071D01*
X113017857Y-69301071D02*
X112982143Y-69372500D01*
X112982143Y-69372500D02*
X112910714Y-69408214D01*
X112910714Y-69408214D02*
X112839286Y-69408214D01*
X112589286Y-69408214D02*
X112589286Y-68658214D01*
X112267858Y-69408214D02*
X112267858Y-69015357D01*
X112267858Y-69015357D02*
X112303572Y-68943928D01*
X112303572Y-68943928D02*
X112375000Y-68908214D01*
X112375000Y-68908214D02*
X112482143Y-68908214D01*
X112482143Y-68908214D02*
X112553572Y-68943928D01*
X112553572Y-68943928D02*
X112589286Y-68979642D01*
X111375000Y-68729642D02*
X111339286Y-68693928D01*
X111339286Y-68693928D02*
X111267858Y-68658214D01*
X111267858Y-68658214D02*
X111089286Y-68658214D01*
X111089286Y-68658214D02*
X111017858Y-68693928D01*
X111017858Y-68693928D02*
X110982143Y-68729642D01*
X110982143Y-68729642D02*
X110946429Y-68801071D01*
X110946429Y-68801071D02*
X110946429Y-68872500D01*
X110946429Y-68872500D02*
X110982143Y-68979642D01*
X110982143Y-68979642D02*
X111410715Y-69408214D01*
X111410715Y-69408214D02*
X110946429Y-69408214D01*
X110482143Y-68658214D02*
X110410714Y-68658214D01*
X110410714Y-68658214D02*
X110339286Y-68693928D01*
X110339286Y-68693928D02*
X110303572Y-68729642D01*
X110303572Y-68729642D02*
X110267857Y-68801071D01*
X110267857Y-68801071D02*
X110232143Y-68943928D01*
X110232143Y-68943928D02*
X110232143Y-69122500D01*
X110232143Y-69122500D02*
X110267857Y-69265357D01*
X110267857Y-69265357D02*
X110303572Y-69336785D01*
X110303572Y-69336785D02*
X110339286Y-69372500D01*
X110339286Y-69372500D02*
X110410714Y-69408214D01*
X110410714Y-69408214D02*
X110482143Y-69408214D01*
X110482143Y-69408214D02*
X110553572Y-69372500D01*
X110553572Y-69372500D02*
X110589286Y-69336785D01*
X110589286Y-69336785D02*
X110625000Y-69265357D01*
X110625000Y-69265357D02*
X110660714Y-69122500D01*
X110660714Y-69122500D02*
X110660714Y-68943928D01*
X110660714Y-68943928D02*
X110625000Y-68801071D01*
X110625000Y-68801071D02*
X110589286Y-68729642D01*
X110589286Y-68729642D02*
X110553572Y-68693928D01*
X110553572Y-68693928D02*
X110482143Y-68658214D01*
X109946428Y-68729642D02*
X109910714Y-68693928D01*
X109910714Y-68693928D02*
X109839286Y-68658214D01*
X109839286Y-68658214D02*
X109660714Y-68658214D01*
X109660714Y-68658214D02*
X109589286Y-68693928D01*
X109589286Y-68693928D02*
X109553571Y-68729642D01*
X109553571Y-68729642D02*
X109517857Y-68801071D01*
X109517857Y-68801071D02*
X109517857Y-68872500D01*
X109517857Y-68872500D02*
X109553571Y-68979642D01*
X109553571Y-68979642D02*
X109982143Y-69408214D01*
X109982143Y-69408214D02*
X109517857Y-69408214D01*
X109267857Y-68658214D02*
X108803571Y-68658214D01*
X108803571Y-68658214D02*
X109053571Y-68943928D01*
X109053571Y-68943928D02*
X108946428Y-68943928D01*
X108946428Y-68943928D02*
X108875000Y-68979642D01*
X108875000Y-68979642D02*
X108839285Y-69015357D01*
X108839285Y-69015357D02*
X108803571Y-69086785D01*
X108803571Y-69086785D02*
X108803571Y-69265357D01*
X108803571Y-69265357D02*
X108839285Y-69336785D01*
X108839285Y-69336785D02*
X108875000Y-69372500D01*
X108875000Y-69372500D02*
X108946428Y-69408214D01*
X108946428Y-69408214D02*
X109160714Y-69408214D01*
X109160714Y-69408214D02*
X109232142Y-69372500D01*
X109232142Y-69372500D02*
X109267857Y-69336785D01*
%TO.C,G\u002A\u002A\u002A*%
G36*
X110719579Y-57161488D02*
G01*
X110855610Y-57161526D01*
X110973622Y-57161628D01*
X111074942Y-57161826D01*
X111160893Y-57162151D01*
X111232800Y-57162635D01*
X111291988Y-57163309D01*
X111339780Y-57164206D01*
X111377501Y-57165356D01*
X111406477Y-57166791D01*
X111428031Y-57168543D01*
X111443487Y-57170643D01*
X111454171Y-57173123D01*
X111461407Y-57176015D01*
X111466520Y-57179350D01*
X111470833Y-57183159D01*
X111487581Y-57201925D01*
X111507260Y-57244276D01*
X111507670Y-57289969D01*
X111504220Y-57296675D01*
X111487504Y-57318479D01*
X111458516Y-57352036D01*
X111418886Y-57395698D01*
X111370246Y-57447817D01*
X111314228Y-57506748D01*
X111252462Y-57570842D01*
X111186581Y-57638452D01*
X111118215Y-57707931D01*
X111048996Y-57777631D01*
X110980555Y-57845907D01*
X110914524Y-57911110D01*
X110852535Y-57971593D01*
X110796217Y-58025708D01*
X110747204Y-58071810D01*
X110707126Y-58108250D01*
X110677615Y-58133382D01*
X110660301Y-58145557D01*
X110658132Y-58146575D01*
X110610649Y-58159616D01*
X110555458Y-58161800D01*
X110501244Y-58153563D01*
X110456692Y-58135341D01*
X110450858Y-58130851D01*
X110429792Y-58112099D01*
X110396436Y-58080869D01*
X110352257Y-58038586D01*
X110298718Y-57986674D01*
X110237285Y-57926555D01*
X110169423Y-57859655D01*
X110096597Y-57787395D01*
X110020271Y-57711202D01*
X109950502Y-57641331D01*
X109874463Y-57565078D01*
X109811005Y-57501199D01*
X109758992Y-57448432D01*
X109717286Y-57405516D01*
X109684748Y-57371190D01*
X109660240Y-57344193D01*
X109642625Y-57323262D01*
X109630764Y-57307139D01*
X109623520Y-57294560D01*
X109619754Y-57284264D01*
X109618330Y-57274992D01*
X109618108Y-57265481D01*
X109618381Y-57254782D01*
X109625919Y-57221284D01*
X109647308Y-57191961D01*
X109676508Y-57161482D01*
X110562037Y-57161482D01*
X110564206Y-57161482D01*
X110719579Y-57161488D01*
G37*
G36*
X111500129Y-55159648D02*
G01*
X111571346Y-55169166D01*
X111574122Y-55169732D01*
X111699974Y-55204622D01*
X111814791Y-55255867D01*
X111921042Y-55324804D01*
X112021191Y-55412766D01*
X112039342Y-55431368D01*
X112125838Y-55535953D01*
X112192929Y-55647649D01*
X112240721Y-55766707D01*
X112269318Y-55893380D01*
X112278827Y-56027919D01*
X112278040Y-56066695D01*
X112262552Y-56201125D01*
X112227527Y-56329178D01*
X112173324Y-56450005D01*
X112100302Y-56562757D01*
X112008820Y-56666588D01*
X111948148Y-56720798D01*
X111840564Y-56795104D01*
X111722856Y-56852494D01*
X111597502Y-56891847D01*
X111466979Y-56912040D01*
X111386295Y-56915341D01*
X111248864Y-56906287D01*
X111119249Y-56878250D01*
X110997809Y-56831350D01*
X110884898Y-56765706D01*
X110780873Y-56681437D01*
X110778120Y-56678814D01*
X110748079Y-56646676D01*
X110715203Y-56606431D01*
X110682209Y-56562046D01*
X110651816Y-56517487D01*
X110626741Y-56476722D01*
X110609703Y-56443717D01*
X110603420Y-56422440D01*
X110609667Y-56420968D01*
X110633489Y-56419329D01*
X110671974Y-56418027D01*
X110721766Y-56417167D01*
X110779510Y-56416857D01*
X110955600Y-56416857D01*
X111025133Y-56474349D01*
X111093334Y-56525468D01*
X111178241Y-56572927D01*
X111265000Y-56602248D01*
X111357203Y-56614564D01*
X111458448Y-56611010D01*
X111520389Y-56600800D01*
X111616424Y-56569239D01*
X111704462Y-56521082D01*
X111782721Y-56458463D01*
X111849423Y-56383519D01*
X111902788Y-56298382D01*
X111941037Y-56205190D01*
X111962390Y-56106076D01*
X111965067Y-56003176D01*
X111963564Y-55984455D01*
X111945593Y-55875789D01*
X111911930Y-55778897D01*
X111861381Y-55691051D01*
X111792752Y-55609523D01*
X111749322Y-55569488D01*
X111673986Y-55517844D01*
X111590719Y-55482257D01*
X111496777Y-55461676D01*
X111389414Y-55455049D01*
X111317057Y-55457963D01*
X111226635Y-55472813D01*
X111146892Y-55501615D01*
X111073948Y-55545900D01*
X111003922Y-55607200D01*
X110949878Y-55661598D01*
X110776649Y-55661744D01*
X110732801Y-55661574D01*
X110681271Y-55660774D01*
X110640276Y-55659429D01*
X110613198Y-55657657D01*
X110603420Y-55655581D01*
X110608852Y-55638514D01*
X110624028Y-55608932D01*
X110646188Y-55571574D01*
X110672563Y-55530885D01*
X110700389Y-55491307D01*
X110726898Y-55457283D01*
X110738789Y-55443458D01*
X110824777Y-55360290D01*
X110925204Y-55287835D01*
X111035943Y-55228725D01*
X111152871Y-55185591D01*
X111170997Y-55180785D01*
X111244998Y-55167205D01*
X111329495Y-55158961D01*
X111417025Y-55156344D01*
X111500129Y-55159648D01*
G37*
G36*
X108540766Y-55155308D02*
G01*
X108644379Y-55165446D01*
X108736905Y-55192300D01*
X108817250Y-55234730D01*
X108884321Y-55291601D01*
X108937025Y-55361773D01*
X108974267Y-55444111D01*
X108994955Y-55537475D01*
X108997996Y-55640730D01*
X108993656Y-55684958D01*
X108972165Y-55771859D01*
X108933770Y-55847425D01*
X108878038Y-55912645D01*
X108860572Y-55928469D01*
X108832095Y-55951300D01*
X108801366Y-55971179D01*
X108764858Y-55989831D01*
X108719042Y-56008980D01*
X108660392Y-56030351D01*
X108585377Y-56055667D01*
X108504686Y-56083031D01*
X108430821Y-56110119D01*
X108372571Y-56134337D01*
X108327564Y-56156769D01*
X108293429Y-56178495D01*
X108267796Y-56200599D01*
X108250408Y-56219537D01*
X108215798Y-56270246D01*
X108195062Y-56327357D01*
X108185615Y-56397052D01*
X108186094Y-56460525D01*
X108201745Y-56542990D01*
X108234341Y-56614616D01*
X108283134Y-56674297D01*
X108347376Y-56720923D01*
X108426318Y-56753386D01*
X108465902Y-56761885D01*
X108543553Y-56764322D01*
X108622345Y-56750686D01*
X108696457Y-56722252D01*
X108760069Y-56680295D01*
X108761637Y-56678935D01*
X108798714Y-56637131D01*
X108832240Y-56582745D01*
X108858125Y-56523543D01*
X108872278Y-56467289D01*
X108878968Y-56416857D01*
X108969148Y-56416857D01*
X109059328Y-56416857D01*
X109050253Y-56476323D01*
X109034358Y-56550274D01*
X108997470Y-56646474D01*
X108944996Y-56730131D01*
X108878085Y-56800115D01*
X108797889Y-56855295D01*
X108705557Y-56894540D01*
X108602239Y-56916720D01*
X108512157Y-56920946D01*
X108412369Y-56908969D01*
X108320092Y-56880244D01*
X108236919Y-56836337D01*
X108164442Y-56778817D01*
X108104253Y-56709251D01*
X108057947Y-56629207D01*
X108027113Y-56540251D01*
X108013347Y-56443952D01*
X108018239Y-56341877D01*
X108025239Y-56301713D01*
X108048300Y-56224028D01*
X108083615Y-56155913D01*
X108132571Y-56096117D01*
X108196555Y-56043394D01*
X108276955Y-55996495D01*
X108375160Y-55954171D01*
X108492555Y-55915174D01*
X108544618Y-55899277D01*
X108595796Y-55882772D01*
X108638813Y-55868025D01*
X108667800Y-55856984D01*
X108709026Y-55835289D01*
X108763898Y-55789084D01*
X108803765Y-55731264D01*
X108827391Y-55664587D01*
X108833535Y-55591812D01*
X108820962Y-55515698D01*
X108814106Y-55494557D01*
X108779264Y-55425548D01*
X108729899Y-55371144D01*
X108666660Y-55331930D01*
X108590199Y-55308491D01*
X108565302Y-55304865D01*
X108488577Y-55306273D01*
X108417256Y-55326027D01*
X108353779Y-55362434D01*
X108300586Y-55413805D01*
X108260117Y-55478450D01*
X108234811Y-55554679D01*
X108223289Y-55610179D01*
X108137882Y-55610179D01*
X108052476Y-55610179D01*
X108061581Y-55540371D01*
X108062923Y-55530903D01*
X108086733Y-55440578D01*
X108128527Y-55357357D01*
X108186324Y-55285291D01*
X108221038Y-55253282D01*
X108285471Y-55208257D01*
X108356027Y-55177905D01*
X108436665Y-55160735D01*
X108531341Y-55155253D01*
X108540766Y-55155308D01*
G37*
G36*
X112847638Y-56039373D02*
G01*
X112847638Y-56892590D01*
X112692508Y-56892590D01*
X112537378Y-56892590D01*
X112537378Y-56039373D01*
X112537378Y-55186157D01*
X112692508Y-55186157D01*
X112847638Y-55186157D01*
X112847638Y-56039373D01*
G37*
G36*
X110334528Y-56038347D02*
G01*
X110334528Y-56892590D01*
X110251791Y-56892590D01*
X110169055Y-56892590D01*
X110169055Y-56111767D01*
X110169055Y-55330945D01*
X109995555Y-55330945D01*
X109882785Y-55332606D01*
X109773193Y-55338771D01*
X109680467Y-55349984D01*
X109602796Y-55366766D01*
X109538370Y-55389636D01*
X109485381Y-55419112D01*
X109442018Y-55455714D01*
X109406472Y-55499961D01*
X109396661Y-55515190D01*
X109372725Y-55560846D01*
X109357619Y-55608534D01*
X109349826Y-55664324D01*
X109347825Y-55734284D01*
X109347836Y-55736053D01*
X109353191Y-55817701D01*
X109368952Y-55884843D01*
X109396527Y-55941531D01*
X109437324Y-55991821D01*
X109437618Y-55992118D01*
X109480850Y-56029894D01*
X109529073Y-56059512D01*
X109585372Y-56081936D01*
X109652832Y-56098131D01*
X109734536Y-56109061D01*
X109833570Y-56115690D01*
X109978988Y-56122109D01*
X109693952Y-56507005D01*
X109408917Y-56891900D01*
X109313253Y-56892245D01*
X109290172Y-56892157D01*
X109252883Y-56891157D01*
X109227171Y-56889288D01*
X109217589Y-56886808D01*
X109219639Y-56882555D01*
X109231487Y-56864457D01*
X109251529Y-56836052D01*
X109277056Y-56801239D01*
X109290700Y-56782784D01*
X109317173Y-56746122D01*
X109338470Y-56715526D01*
X109350928Y-56696205D01*
X109356944Y-56686982D01*
X109374766Y-56661710D01*
X109401821Y-56624387D01*
X109436212Y-56577605D01*
X109476041Y-56523958D01*
X109519409Y-56466039D01*
X109552396Y-56421739D01*
X109590872Y-56368849D01*
X109623211Y-56322994D01*
X109647801Y-56286518D01*
X109663028Y-56261766D01*
X109667280Y-56251082D01*
X109656986Y-56244592D01*
X109634738Y-56241043D01*
X109625026Y-56240657D01*
X109581099Y-56233548D01*
X109528486Y-56219177D01*
X109474500Y-56199772D01*
X109426458Y-56177563D01*
X109392685Y-56156430D01*
X109336225Y-56109165D01*
X109284613Y-56052194D01*
X109244156Y-55991938D01*
X109240731Y-55985531D01*
X109209894Y-55906927D01*
X109192008Y-55817729D01*
X109187029Y-55722977D01*
X109194909Y-55627708D01*
X109215603Y-55536961D01*
X109249064Y-55455774D01*
X109253260Y-55448122D01*
X109292774Y-55389397D01*
X109341578Y-55334277D01*
X109394401Y-55288106D01*
X109445973Y-55256222D01*
X109476784Y-55242263D01*
X109509677Y-55228954D01*
X109542392Y-55218249D01*
X109577538Y-55209821D01*
X109617722Y-55203344D01*
X109665552Y-55198493D01*
X109723636Y-55194943D01*
X109794581Y-55192367D01*
X109880994Y-55190440D01*
X109985484Y-55188836D01*
X110334528Y-55184105D01*
X110334528Y-56038347D01*
G37*
G36*
X110607381Y-51912608D02*
G01*
X110657828Y-51928354D01*
X110660025Y-51929610D01*
X110672879Y-51939551D01*
X110694723Y-51958711D01*
X110725926Y-51987457D01*
X110766862Y-52026154D01*
X110817899Y-52075167D01*
X110879410Y-52134860D01*
X110951764Y-52205600D01*
X111035334Y-52287751D01*
X111130489Y-52381679D01*
X111237601Y-52487748D01*
X111357041Y-52606325D01*
X111489179Y-52737773D01*
X111634387Y-52882459D01*
X111793036Y-53040748D01*
X111965495Y-53213004D01*
X112152138Y-53399593D01*
X112178826Y-53426285D01*
X112348143Y-53595636D01*
X112503511Y-53751075D01*
X112645529Y-53893215D01*
X112774794Y-54022668D01*
X112891903Y-54140046D01*
X112997454Y-54245962D01*
X113092043Y-54341029D01*
X113176269Y-54425858D01*
X113250728Y-54501063D01*
X113316019Y-54567255D01*
X113372738Y-54625048D01*
X113421483Y-54675054D01*
X113462852Y-54717885D01*
X113497441Y-54754153D01*
X113525848Y-54784472D01*
X113548670Y-54809453D01*
X113566505Y-54829710D01*
X113579951Y-54845854D01*
X113589604Y-54858498D01*
X113596062Y-54868255D01*
X113599922Y-54875736D01*
X113601782Y-54881556D01*
X113602239Y-54886325D01*
X113599177Y-54914772D01*
X113581465Y-54956693D01*
X113549757Y-54985568D01*
X113548454Y-54986180D01*
X113539175Y-54988483D01*
X113522629Y-54990517D01*
X113497698Y-54992298D01*
X113463265Y-54993842D01*
X113418211Y-54995164D01*
X113361418Y-54996280D01*
X113291768Y-54997206D01*
X113208143Y-54997957D01*
X113109425Y-54998548D01*
X112994495Y-54998996D01*
X112862236Y-54999316D01*
X112711529Y-54999523D01*
X112541256Y-54999634D01*
X111557471Y-55000000D01*
X111551555Y-54970418D01*
X111546730Y-54954510D01*
X111523611Y-54915803D01*
X111488437Y-54880247D01*
X111446723Y-54853967D01*
X111445496Y-54853415D01*
X111431188Y-54847897D01*
X111414239Y-54843585D01*
X111392074Y-54840332D01*
X111362113Y-54837989D01*
X111321779Y-54836408D01*
X111268495Y-54835441D01*
X111199682Y-54834939D01*
X111112765Y-54834755D01*
X110820602Y-54834528D01*
X110820602Y-54700656D01*
X110820603Y-54566784D01*
X111123934Y-54563624D01*
X111427265Y-54560464D01*
X111466101Y-54530826D01*
X111490149Y-54510184D01*
X111529545Y-54458814D01*
X111549779Y-54399785D01*
X111556251Y-54361477D01*
X111625377Y-54356514D01*
X111690801Y-54346299D01*
X111752267Y-54321393D01*
X111801465Y-54281165D01*
X111840456Y-54224349D01*
X111840545Y-54224180D01*
X111846830Y-54209954D01*
X111851706Y-54192260D01*
X111855412Y-54168231D01*
X111858188Y-54134995D01*
X111860277Y-54089684D01*
X111861918Y-54029429D01*
X111863352Y-53951358D01*
X111864072Y-53902750D01*
X111864801Y-53819384D01*
X111864338Y-53752721D01*
X111862395Y-53700111D01*
X111858686Y-53658908D01*
X111852925Y-53626464D01*
X111844824Y-53600130D01*
X111834097Y-53577260D01*
X111820457Y-53555203D01*
X111809845Y-53540673D01*
X111761268Y-53495370D01*
X111699400Y-53465674D01*
X111623895Y-53451405D01*
X111557509Y-53446076D01*
X111551670Y-53389499D01*
X111540124Y-53336654D01*
X111510809Y-53283952D01*
X111463503Y-53240924D01*
X111427135Y-53216002D01*
X110593840Y-53212909D01*
X110430614Y-53212416D01*
X110271303Y-53212211D01*
X110132463Y-53212357D01*
X110013984Y-53212855D01*
X109915757Y-53213706D01*
X109837671Y-53214911D01*
X109779617Y-53216472D01*
X109741484Y-53218388D01*
X109723163Y-53220661D01*
X109719775Y-53221680D01*
X109667053Y-53248270D01*
X109626207Y-53289736D01*
X109599734Y-53342647D01*
X109590129Y-53403571D01*
X109589902Y-53446351D01*
X109482749Y-53450318D01*
X109436279Y-53452449D01*
X109399970Y-53455843D01*
X109373240Y-53461600D01*
X109350287Y-53471014D01*
X109325307Y-53485376D01*
X109282985Y-53518878D01*
X109243718Y-53567070D01*
X109212418Y-53617673D01*
X109208941Y-53877809D01*
X109208222Y-53964466D01*
X109208603Y-54044378D01*
X109210162Y-54107793D01*
X109212865Y-54153324D01*
X109216675Y-54179585D01*
X109229205Y-54215201D01*
X109266390Y-54274043D01*
X109321275Y-54322269D01*
X109324435Y-54324383D01*
X109346315Y-54337790D01*
X109367124Y-54346559D01*
X109392301Y-54351906D01*
X109427284Y-54355048D01*
X109477512Y-54357200D01*
X109587474Y-54361000D01*
X109592960Y-54401899D01*
X109604598Y-54443670D01*
X109635486Y-54493877D01*
X109681268Y-54535542D01*
X109686645Y-54539192D01*
X109697093Y-54545508D01*
X109708850Y-54550469D01*
X109724338Y-54554267D01*
X109745980Y-54557097D01*
X109776197Y-54559151D01*
X109817409Y-54560623D01*
X109872040Y-54561706D01*
X109942511Y-54562594D01*
X110031243Y-54563479D01*
X110344870Y-54566494D01*
X110344870Y-54700076D01*
X110344870Y-54833658D01*
X110036288Y-54836678D01*
X109727706Y-54839699D01*
X109684466Y-54869680D01*
X109652728Y-54897538D01*
X109618149Y-54949978D01*
X109595073Y-55000295D01*
X108593586Y-54997562D01*
X107592098Y-54994829D01*
X107567140Y-54965812D01*
X107563391Y-54961263D01*
X107546952Y-54930275D01*
X107542182Y-54890112D01*
X107542182Y-54843429D01*
X108956453Y-53421378D01*
X108975168Y-53402561D01*
X109117919Y-53259111D01*
X109257066Y-53119416D01*
X109391877Y-52984205D01*
X109521622Y-52854206D01*
X109645569Y-52730148D01*
X109762987Y-52612759D01*
X109873146Y-52502768D01*
X109975314Y-52400902D01*
X110068760Y-52307891D01*
X110152753Y-52224462D01*
X110226562Y-52151344D01*
X110289457Y-52089265D01*
X110340705Y-52038954D01*
X110379576Y-52001139D01*
X110405340Y-51976549D01*
X110417264Y-51965911D01*
X110435171Y-51953575D01*
X110467483Y-51933406D01*
X110492730Y-51920116D01*
X110503493Y-51916142D01*
X110552912Y-51908386D01*
X110607381Y-51912608D01*
G37*
G36*
X111649603Y-53561080D02*
G01*
X111697675Y-53588963D01*
X111738211Y-53634044D01*
X111745263Y-53645149D01*
X111751166Y-53657614D01*
X111755458Y-53673291D01*
X111758397Y-53695093D01*
X111760237Y-53725931D01*
X111761235Y-53768717D01*
X111761646Y-53826363D01*
X111761726Y-53901781D01*
X111761726Y-53907086D01*
X111761648Y-53981195D01*
X111761235Y-54037810D01*
X111760211Y-54079930D01*
X111758298Y-54110557D01*
X111755220Y-54132690D01*
X111750699Y-54149332D01*
X111744460Y-54163482D01*
X111736224Y-54178141D01*
X111722805Y-54197673D01*
X111679584Y-54235304D01*
X111622109Y-54258326D01*
X111607297Y-54261202D01*
X111578155Y-54264517D01*
X111554886Y-54265717D01*
X111554886Y-53908917D01*
X111554886Y-53552117D01*
X111599896Y-53552117D01*
X111649603Y-53561080D01*
G37*
G36*
X109589902Y-53910246D02*
G01*
X109589902Y-54268374D01*
X109509752Y-54263668D01*
X109491568Y-54262392D01*
X109430568Y-54253482D01*
X109385585Y-54237309D01*
X109353451Y-54212337D01*
X109330997Y-54177030D01*
X109330187Y-54175237D01*
X109323603Y-54158515D01*
X109318674Y-54139781D01*
X109315167Y-54115922D01*
X109312847Y-54083826D01*
X109311480Y-54040383D01*
X109310832Y-53982481D01*
X109310668Y-53907008D01*
X109310739Y-53859784D01*
X109311283Y-53793336D01*
X109312534Y-53742747D01*
X109314695Y-53704970D01*
X109317972Y-53676958D01*
X109322568Y-53655665D01*
X109328687Y-53638044D01*
X109335186Y-53623921D01*
X109359668Y-53590221D01*
X109394200Y-53568036D01*
X109441925Y-53555843D01*
X109505989Y-53552117D01*
X109589902Y-53552117D01*
X109589902Y-53910246D01*
G37*
G36*
X111172761Y-53925119D02*
G01*
X111207202Y-53938152D01*
X111231188Y-53963782D01*
X111242602Y-53996834D01*
X111239325Y-54032137D01*
X111219240Y-54064517D01*
X111198187Y-54080235D01*
X111161889Y-54089902D01*
X111146449Y-54088164D01*
X111112859Y-54071838D01*
X111088529Y-54042940D01*
X111079153Y-54007166D01*
X111080891Y-53991726D01*
X111097218Y-53958137D01*
X111126116Y-53933806D01*
X111161889Y-53924430D01*
X111172761Y-53925119D01*
G37*
G36*
X109971799Y-53942400D02*
G01*
X109995828Y-53969029D01*
X110003583Y-54008019D01*
X110003323Y-54017681D01*
X109996069Y-54046647D01*
X109975306Y-54069276D01*
X109942573Y-54085186D01*
X109909003Y-54084631D01*
X109879588Y-54069843D01*
X109858189Y-54043956D01*
X109848665Y-54010107D01*
X109854877Y-53971433D01*
X109862686Y-53959563D01*
X109887148Y-53941622D01*
X109917567Y-53930442D01*
X109944633Y-53930292D01*
X109971799Y-53942400D01*
G37*
D10*
%TO.C,IC1*%
X120450000Y-58420000D02*
X118950000Y-58420000D01*
X118600000Y-58550000D02*
X115400000Y-58550000D01*
X118600000Y-63450000D02*
X118600000Y-58550000D01*
X115400000Y-58550000D02*
X115400000Y-63450000D01*
X115400000Y-63450000D02*
X118600000Y-63450000D01*
D12*
%TO.C,DNP2*%
X111463641Y-62520000D02*
X111156359Y-62520000D01*
X111463641Y-63280000D02*
X111156359Y-63280000D01*
%TO.C,R2*%
X111146359Y-62010000D02*
X111453641Y-62010000D01*
X111146359Y-61250000D02*
X111453641Y-61250000D01*
%TO.C,R1*%
X111146359Y-60750000D02*
X111453641Y-60750000D01*
X111146359Y-59990000D02*
X111453641Y-59990000D01*
%TO.C,DNP1*%
X122622164Y-60000000D02*
X122837836Y-60000000D01*
X122622164Y-60720000D02*
X122837836Y-60720000D01*
%TO.C,C1*%
X122622164Y-59440000D02*
X122837836Y-59440000D01*
X122622164Y-58720000D02*
X122837836Y-58720000D01*
%TD*%
M02*
