%TF.GenerationSoftware,KiCad,Pcbnew,7.0.1*%
%TF.CreationDate,2023-06-28T22:55:46+01:00*%
%TF.ProjectId,Motor Encoder Board,4d6f746f-7220-4456-9e63-6f6465722042,rev?*%
%TF.SameCoordinates,Original*%
%TF.FileFunction,Copper,L1,Top*%
%TF.FilePolarity,Positive*%
%FSLAX46Y46*%
G04 Gerber Fmt 4.6, Leading zero omitted, Abs format (unit mm)*
G04 Created by KiCad (PCBNEW 7.0.1) date 2023-06-28 22:55:46*
%MOMM*%
%LPD*%
G01*
G04 APERTURE LIST*
%TA.AperFunction,ComponentPad*%
%ADD10C,5.600000*%
%TD*%
%TA.AperFunction,ComponentPad*%
%ADD11R,1.700000X1.700000*%
%TD*%
%TA.AperFunction,ComponentPad*%
%ADD12O,1.700000X1.700000*%
%TD*%
%TA.AperFunction,ViaPad*%
%ADD13C,0.800000*%
%TD*%
G04 APERTURE END LIST*
D10*
%TO.P,H2,1,1*%
%TO.N,GND*%
X129000000Y-61000000D03*
%TD*%
%TO.P,H1,1,1*%
%TO.N,GND*%
X105000000Y-61000000D03*
%TD*%
D11*
%TO.P,J1,1,Pin_1*%
%TO.N,OUT*%
X111920000Y-66000000D03*
D12*
%TO.P,J1,2,Pin_2*%
%TO.N,/SDA*%
X114460000Y-66000000D03*
%TO.P,J1,3,Pin_3*%
%TO.N,/SCL*%
X117000000Y-66000000D03*
%TO.P,J1,4,Pin_4*%
%TO.N,GND*%
X119540000Y-66000000D03*
%TO.P,J1,5,Pin_5*%
%TO.N,+3V3*%
X122080000Y-66000000D03*
%TD*%
D13*
%TO.N,GND*%
X109470000Y-62910000D03*
X112140000Y-59090000D03*
X124360000Y-59080000D03*
X124360000Y-60360000D03*
X121820000Y-62910000D03*
%TD*%
%TA.AperFunction,Conductor*%
%TO.N,GND*%
G36*
X125003243Y-51000669D02*
G01*
X125133379Y-51007490D01*
X125313908Y-51017628D01*
X125326309Y-51018955D01*
X125474990Y-51042504D01*
X125476245Y-51042709D01*
X125635324Y-51069738D01*
X125646606Y-51072202D01*
X125795635Y-51112134D01*
X125797761Y-51112725D01*
X125949174Y-51156347D01*
X125959260Y-51159729D01*
X126104710Y-51215562D01*
X126107599Y-51216714D01*
X126251768Y-51276430D01*
X126260594Y-51280500D01*
X126400064Y-51351565D01*
X126403748Y-51353521D01*
X126493848Y-51403316D01*
X126539548Y-51428574D01*
X126547061Y-51433081D01*
X126678754Y-51518604D01*
X126682947Y-51521452D01*
X126809147Y-51610996D01*
X126815428Y-51615759D01*
X126937567Y-51714665D01*
X126942158Y-51718571D01*
X127057424Y-51821579D01*
X127062478Y-51826358D01*
X127173640Y-51937520D01*
X127178419Y-51942574D01*
X127281427Y-52057840D01*
X127285333Y-52062431D01*
X127384239Y-52184570D01*
X127389002Y-52190851D01*
X127478546Y-52317051D01*
X127481409Y-52321266D01*
X127566907Y-52452921D01*
X127571430Y-52460460D01*
X127646477Y-52596250D01*
X127648433Y-52599934D01*
X127719498Y-52739404D01*
X127723575Y-52748247D01*
X127783259Y-52892337D01*
X127784462Y-52895353D01*
X127840265Y-53040727D01*
X127843655Y-53050836D01*
X127887258Y-53202185D01*
X127887879Y-53204419D01*
X127927791Y-53353370D01*
X127930264Y-53364694D01*
X127957282Y-53523715D01*
X127957507Y-53525087D01*
X127981040Y-53673666D01*
X127982372Y-53686111D01*
X127992498Y-53866421D01*
X127992523Y-53866884D01*
X127999330Y-53996757D01*
X127999500Y-54003247D01*
X127999500Y-57087533D01*
X128014668Y-57173561D01*
X128029899Y-57259938D01*
X128059712Y-57341849D01*
X128089776Y-57424447D01*
X128177307Y-57576054D01*
X128205828Y-57610044D01*
X128232721Y-57666931D01*
X128228229Y-57729694D01*
X128193509Y-57782171D01*
X128137501Y-57810850D01*
X128115858Y-57815614D01*
X127776746Y-57929875D01*
X127451987Y-58080125D01*
X127145361Y-58264614D01*
X127046712Y-58339605D01*
X127046711Y-58339605D01*
X129000000Y-60292893D01*
X129619425Y-60912318D01*
X129651519Y-60967905D01*
X129651519Y-61032093D01*
X129619425Y-61087680D01*
X127046712Y-63660393D01*
X127046712Y-63660394D01*
X127145363Y-63735386D01*
X127451984Y-63919873D01*
X127776746Y-64070124D01*
X128115862Y-64184386D01*
X128137493Y-64189147D01*
X128193504Y-64217822D01*
X128228228Y-64270299D01*
X128232722Y-64333063D01*
X128205830Y-64389952D01*
X128177307Y-64423945D01*
X128089776Y-64575552D01*
X128029898Y-64740064D01*
X127999500Y-64912467D01*
X127999500Y-67996753D01*
X127999330Y-68003243D01*
X127992523Y-68133114D01*
X127992498Y-68133577D01*
X127982372Y-68313887D01*
X127981040Y-68326332D01*
X127957507Y-68474911D01*
X127957282Y-68476283D01*
X127930264Y-68635304D01*
X127927791Y-68646628D01*
X127887879Y-68795579D01*
X127887258Y-68797813D01*
X127843655Y-68949162D01*
X127840265Y-68959271D01*
X127784462Y-69104645D01*
X127783259Y-69107661D01*
X127723575Y-69251751D01*
X127719498Y-69260594D01*
X127648433Y-69400064D01*
X127646477Y-69403748D01*
X127571430Y-69539538D01*
X127566897Y-69547094D01*
X127481412Y-69678728D01*
X127478546Y-69682947D01*
X127389002Y-69809147D01*
X127384239Y-69815428D01*
X127285333Y-69937567D01*
X127281427Y-69942158D01*
X127178419Y-70057424D01*
X127173640Y-70062478D01*
X127062478Y-70173640D01*
X127057424Y-70178419D01*
X126942158Y-70281427D01*
X126937567Y-70285333D01*
X126815428Y-70384239D01*
X126809147Y-70389002D01*
X126682947Y-70478546D01*
X126678728Y-70481412D01*
X126547094Y-70566897D01*
X126539538Y-70571430D01*
X126403748Y-70646477D01*
X126400064Y-70648433D01*
X126260594Y-70719498D01*
X126251751Y-70723575D01*
X126107661Y-70783259D01*
X126104645Y-70784462D01*
X125959271Y-70840265D01*
X125949162Y-70843655D01*
X125797813Y-70887258D01*
X125795579Y-70887879D01*
X125646628Y-70927791D01*
X125635304Y-70930264D01*
X125476283Y-70957282D01*
X125474911Y-70957507D01*
X125326332Y-70981040D01*
X125313887Y-70982372D01*
X125133577Y-70992498D01*
X125133114Y-70992523D01*
X125003243Y-70999330D01*
X124996753Y-70999500D01*
X109003247Y-70999500D01*
X108996757Y-70999330D01*
X108866884Y-70992523D01*
X108866421Y-70992498D01*
X108686111Y-70982372D01*
X108673666Y-70981040D01*
X108525087Y-70957507D01*
X108523715Y-70957282D01*
X108364694Y-70930264D01*
X108353370Y-70927791D01*
X108204419Y-70887879D01*
X108202185Y-70887258D01*
X108050836Y-70843655D01*
X108040727Y-70840265D01*
X107895353Y-70784462D01*
X107892337Y-70783259D01*
X107748247Y-70723575D01*
X107739404Y-70719498D01*
X107599934Y-70648433D01*
X107596250Y-70646477D01*
X107460460Y-70571430D01*
X107452921Y-70566907D01*
X107321266Y-70481409D01*
X107317051Y-70478546D01*
X107190851Y-70389002D01*
X107184570Y-70384239D01*
X107062431Y-70285333D01*
X107057840Y-70281427D01*
X106942574Y-70178419D01*
X106937520Y-70173640D01*
X106826358Y-70062478D01*
X106821579Y-70057424D01*
X106718571Y-69942158D01*
X106714665Y-69937567D01*
X106615759Y-69815428D01*
X106610996Y-69809147D01*
X106521452Y-69682947D01*
X106518604Y-69678754D01*
X106433081Y-69547061D01*
X106428568Y-69539538D01*
X106353521Y-69403748D01*
X106351565Y-69400064D01*
X106280500Y-69260594D01*
X106276430Y-69251768D01*
X106216714Y-69107599D01*
X106215562Y-69104710D01*
X106159729Y-68959260D01*
X106156347Y-68949174D01*
X106112725Y-68797761D01*
X106112134Y-68795635D01*
X106072202Y-68646606D01*
X106069738Y-68635324D01*
X106042709Y-68476245D01*
X106042491Y-68474911D01*
X106018955Y-68326309D01*
X106017628Y-68313908D01*
X106007485Y-68133285D01*
X106007476Y-68133114D01*
X106000669Y-68003243D01*
X106000500Y-67996755D01*
X106000500Y-66897869D01*
X110569500Y-66897869D01*
X110575909Y-66957484D01*
X110601056Y-67024906D01*
X110626204Y-67092331D01*
X110712454Y-67207546D01*
X110827669Y-67293796D01*
X110962517Y-67344091D01*
X111022127Y-67350500D01*
X112817872Y-67350499D01*
X112877483Y-67344091D01*
X113012331Y-67293796D01*
X113127546Y-67207546D01*
X113213796Y-67092331D01*
X113262810Y-66960916D01*
X113297789Y-66910537D01*
X113352634Y-66883084D01*
X113413927Y-66885273D01*
X113466673Y-66916568D01*
X113588599Y-67038495D01*
X113782170Y-67174035D01*
X113996337Y-67273903D01*
X114224591Y-67335062D01*
X114224592Y-67335063D01*
X114459999Y-67355659D01*
X114459999Y-67355658D01*
X114460000Y-67355659D01*
X114695408Y-67335063D01*
X114923663Y-67273903D01*
X115137830Y-67174035D01*
X115331401Y-67038495D01*
X115498495Y-66871401D01*
X115628426Y-66685839D01*
X115672743Y-66646975D01*
X115730000Y-66632964D01*
X115787257Y-66646975D01*
X115831573Y-66685839D01*
X115961505Y-66871401D01*
X116128599Y-67038495D01*
X116322170Y-67174035D01*
X116536337Y-67273903D01*
X116764591Y-67335062D01*
X116764592Y-67335063D01*
X116999999Y-67355659D01*
X116999999Y-67355658D01*
X117000000Y-67355659D01*
X117235408Y-67335063D01*
X117463663Y-67273903D01*
X117677830Y-67174035D01*
X117871401Y-67038495D01*
X118038495Y-66871401D01*
X118168732Y-66685402D01*
X118213048Y-66646539D01*
X118270305Y-66632528D01*
X118327562Y-66646539D01*
X118371880Y-66685404D01*
X118501893Y-66871081D01*
X118668918Y-67038106D01*
X118862423Y-67173600D01*
X119039999Y-67256406D01*
X119040000Y-67256406D01*
X120040000Y-67256406D01*
X120217576Y-67173600D01*
X120411081Y-67038106D01*
X120578109Y-66871078D01*
X120708119Y-66685405D01*
X120752437Y-66646539D01*
X120809694Y-66632528D01*
X120866951Y-66646539D01*
X120911267Y-66685402D01*
X121041505Y-66871401D01*
X121208599Y-67038495D01*
X121402170Y-67174035D01*
X121616337Y-67273903D01*
X121844591Y-67335062D01*
X121844592Y-67335063D01*
X122079999Y-67355659D01*
X122079999Y-67355658D01*
X122080000Y-67355659D01*
X122315408Y-67335063D01*
X122543663Y-67273903D01*
X122757830Y-67174035D01*
X122951401Y-67038495D01*
X123118495Y-66871401D01*
X123254035Y-66677830D01*
X123353903Y-66463663D01*
X123415063Y-66235408D01*
X123435659Y-66000000D01*
X123415063Y-65764592D01*
X123353903Y-65536337D01*
X123254035Y-65322171D01*
X123118495Y-65128599D01*
X122951401Y-64961505D01*
X122757830Y-64825965D01*
X122543663Y-64726097D01*
X122482502Y-64709709D01*
X122315407Y-64664936D01*
X122080000Y-64644340D01*
X121844592Y-64664936D01*
X121616336Y-64726097D01*
X121402170Y-64825965D01*
X121208598Y-64961505D01*
X121041508Y-65128595D01*
X120911269Y-65314596D01*
X120866951Y-65353461D01*
X120809694Y-65367472D01*
X120752437Y-65353461D01*
X120708119Y-65314595D01*
X120578109Y-65128921D01*
X120411081Y-64961893D01*
X120217576Y-64826399D01*
X120040000Y-64743593D01*
X120040000Y-67256406D01*
X119040000Y-67256406D01*
X119040000Y-64743595D01*
X119039999Y-64743594D01*
X118862421Y-64826400D01*
X118668921Y-64961890D01*
X118501893Y-65128918D01*
X118371880Y-65314596D01*
X118327562Y-65353461D01*
X118270305Y-65367472D01*
X118213048Y-65353461D01*
X118168730Y-65314595D01*
X118038494Y-65128598D01*
X117871404Y-64961508D01*
X117871403Y-64961507D01*
X117871401Y-64961505D01*
X117677830Y-64825965D01*
X117463663Y-64726097D01*
X117402502Y-64709709D01*
X117235407Y-64664936D01*
X117000000Y-64644340D01*
X116764592Y-64664936D01*
X116536336Y-64726097D01*
X116322170Y-64825965D01*
X116128598Y-64961505D01*
X115961505Y-65128598D01*
X115831575Y-65314159D01*
X115787257Y-65353025D01*
X115730000Y-65367036D01*
X115672743Y-65353025D01*
X115628425Y-65314159D01*
X115498494Y-65128598D01*
X115331404Y-64961508D01*
X115331403Y-64961507D01*
X115331401Y-64961505D01*
X115137830Y-64825965D01*
X114923663Y-64726097D01*
X114862502Y-64709709D01*
X114695407Y-64664936D01*
X114460000Y-64644340D01*
X114224592Y-64664936D01*
X113996336Y-64726097D01*
X113782170Y-64825965D01*
X113588601Y-64961503D01*
X113466673Y-65083431D01*
X113413926Y-65114726D01*
X113352634Y-65116915D01*
X113297789Y-65089462D01*
X113262810Y-65039082D01*
X113234019Y-64961890D01*
X113213796Y-64907669D01*
X113127546Y-64792454D01*
X113012331Y-64706204D01*
X112877483Y-64655909D01*
X112817873Y-64649500D01*
X112817869Y-64649500D01*
X111022130Y-64649500D01*
X110962515Y-64655909D01*
X110827669Y-64706204D01*
X110712454Y-64792454D01*
X110626204Y-64907668D01*
X110575909Y-65042516D01*
X110569500Y-65102130D01*
X110569500Y-66897869D01*
X106000500Y-66897869D01*
X106000500Y-64912467D01*
X105970724Y-64743595D01*
X105970101Y-64740062D01*
X105910225Y-64575555D01*
X105822692Y-64423945D01*
X105794170Y-64389953D01*
X105767277Y-64333064D01*
X105771771Y-64270299D01*
X105806495Y-64217822D01*
X105862507Y-64189146D01*
X105884145Y-64184383D01*
X106223253Y-64070124D01*
X106548015Y-63919873D01*
X106854637Y-63735385D01*
X106953286Y-63660393D01*
X104380574Y-61087681D01*
X104348480Y-61032094D01*
X104348480Y-61000001D01*
X105707107Y-61000001D01*
X107661733Y-62954627D01*
X107831783Y-62703824D01*
X107999398Y-62387670D01*
X108131850Y-62055241D01*
X108227580Y-61710451D01*
X108285474Y-61357310D01*
X108304847Y-61000000D01*
X125695152Y-61000000D01*
X125714525Y-61357310D01*
X125772419Y-61710451D01*
X125868149Y-62055241D01*
X126000601Y-62387670D01*
X126168218Y-62703829D01*
X126338265Y-62954627D01*
X128292893Y-61000000D01*
X126338265Y-59045371D01*
X126168215Y-59296178D01*
X126000601Y-59612329D01*
X125868149Y-59944758D01*
X125772419Y-60289548D01*
X125714525Y-60642689D01*
X125695152Y-61000000D01*
X108304847Y-61000000D01*
X108285474Y-60642689D01*
X108227580Y-60289548D01*
X108131850Y-59944758D01*
X107999398Y-59612329D01*
X107831781Y-59296170D01*
X107661734Y-59045371D01*
X107661733Y-59045371D01*
X105707107Y-61000000D01*
X105707107Y-61000001D01*
X104348480Y-61000001D01*
X104348480Y-60967906D01*
X104380574Y-60912319D01*
X106953287Y-58339605D01*
X106854636Y-58264613D01*
X106548015Y-58080126D01*
X106223253Y-57929875D01*
X105884143Y-57815615D01*
X105862503Y-57810852D01*
X105806493Y-57782175D01*
X105771771Y-57729698D01*
X105767277Y-57666933D01*
X105794171Y-57610045D01*
X105794172Y-57610044D01*
X105822692Y-57576055D01*
X105910225Y-57424445D01*
X105970101Y-57259938D01*
X106000500Y-57087532D01*
X106000500Y-57000000D01*
X106000500Y-56999500D01*
X106000500Y-54003245D01*
X106000670Y-53996756D01*
X106007501Y-53866421D01*
X106017628Y-53686087D01*
X106018954Y-53673694D01*
X106042513Y-53524947D01*
X106042700Y-53523809D01*
X106069739Y-53364666D01*
X106072199Y-53353402D01*
X106112150Y-53204305D01*
X106112709Y-53202293D01*
X106156351Y-53050811D01*
X106159724Y-53040753D01*
X106215583Y-52895233D01*
X106216692Y-52892452D01*
X106276439Y-52748212D01*
X106280488Y-52739429D01*
X106351569Y-52599925D01*
X106353521Y-52596250D01*
X106428588Y-52460426D01*
X106433065Y-52452962D01*
X106518633Y-52321199D01*
X106521434Y-52317077D01*
X106611010Y-52190832D01*
X106615733Y-52184603D01*
X106714702Y-52062386D01*
X106718532Y-52057885D01*
X106821613Y-51942537D01*
X106826323Y-51937556D01*
X106937556Y-51826323D01*
X106942537Y-51821613D01*
X107057885Y-51718532D01*
X107062386Y-51714702D01*
X107184603Y-51615733D01*
X107190832Y-51611010D01*
X107317077Y-51521434D01*
X107321199Y-51518633D01*
X107452962Y-51433065D01*
X107460426Y-51428588D01*
X107596255Y-51353517D01*
X107599934Y-51351565D01*
X107739429Y-51280488D01*
X107748212Y-51276439D01*
X107892452Y-51216692D01*
X107895233Y-51215583D01*
X108040753Y-51159724D01*
X108050811Y-51156351D01*
X108202293Y-51112709D01*
X108204305Y-51112150D01*
X108353402Y-51072199D01*
X108364666Y-51069739D01*
X108523809Y-51042700D01*
X108524947Y-51042513D01*
X108673694Y-51018954D01*
X108686087Y-51017628D01*
X108866554Y-51007493D01*
X108996756Y-51000669D01*
X109003245Y-51000500D01*
X124996755Y-51000500D01*
X125003243Y-51000669D01*
G37*
%TD.AperFunction*%
%TD*%
M02*
