%TF.GenerationSoftware,KiCad,Pcbnew,7.0.1*%
%TF.CreationDate,2023-07-17T00:53:44+01:00*%
%TF.ProjectId,Gateway Board,47617465-7761-4792-9042-6f6172642e6b,rev?*%
%TF.SameCoordinates,Original*%
%TF.FileFunction,Paste,Top*%
%TF.FilePolarity,Positive*%
%FSLAX46Y46*%
G04 Gerber Fmt 4.6, Leading zero omitted, Abs format (unit mm)*
G04 Created by KiCad (PCBNEW 7.0.1) date 2023-07-17 00:53:44*
%MOMM*%
%LPD*%
G01*
G04 APERTURE LIST*
G04 Aperture macros list*
%AMRoundRect*
0 Rectangle with rounded corners*
0 $1 Rounding radius*
0 $2 $3 $4 $5 $6 $7 $8 $9 X,Y pos of 4 corners*
0 Add a 4 corners polygon primitive as box body*
4,1,4,$2,$3,$4,$5,$6,$7,$8,$9,$2,$3,0*
0 Add four circle primitives for the rounded corners*
1,1,$1+$1,$2,$3*
1,1,$1+$1,$4,$5*
1,1,$1+$1,$6,$7*
1,1,$1+$1,$8,$9*
0 Add four rect primitives between the rounded corners*
20,1,$1+$1,$2,$3,$4,$5,0*
20,1,$1+$1,$4,$5,$6,$7,0*
20,1,$1+$1,$6,$7,$8,$9,0*
20,1,$1+$1,$8,$9,$2,$3,0*%
%AMRotRect*
0 Rectangle, with rotation*
0 The origin of the aperture is its center*
0 $1 length*
0 $2 width*
0 $3 Rotation angle, in degrees counterclockwise*
0 Add horizontal line*
21,1,$1,$2,0,0,$3*%
G04 Aperture macros list end*
%ADD10RoundRect,0.140000X-0.170000X0.140000X-0.170000X-0.140000X0.170000X-0.140000X0.170000X0.140000X0*%
%ADD11RoundRect,0.135000X0.135000X0.185000X-0.135000X0.185000X-0.135000X-0.185000X0.135000X-0.185000X0*%
%ADD12RoundRect,0.135000X0.185000X-0.135000X0.185000X0.135000X-0.185000X0.135000X-0.185000X-0.135000X0*%
%ADD13R,2.500000X1.500000*%
%ADD14RoundRect,0.218750X-0.218750X-0.256250X0.218750X-0.256250X0.218750X0.256250X-0.218750X0.256250X0*%
%ADD15RoundRect,0.140000X-0.140000X-0.170000X0.140000X-0.170000X0.140000X0.170000X-0.140000X0.170000X0*%
%ADD16R,0.650000X1.500000*%
%ADD17RoundRect,0.135000X-0.185000X0.135000X-0.185000X-0.135000X0.185000X-0.135000X0.185000X0.135000X0*%
%ADD18R,1.400000X0.620000*%
%ADD19R,2.400000X1.100000*%
%ADD20R,1.650000X1.950000*%
%ADD21RoundRect,0.140000X0.170000X-0.140000X0.170000X0.140000X-0.170000X0.140000X-0.170000X-0.140000X0*%
%ADD22RoundRect,0.140000X0.140000X0.170000X-0.140000X0.170000X-0.140000X-0.170000X0.140000X-0.170000X0*%
%ADD23RoundRect,0.135000X-0.226274X-0.035355X-0.035355X-0.226274X0.226274X0.035355X0.035355X0.226274X0*%
%ADD24RoundRect,0.140000X0.219203X0.021213X0.021213X0.219203X-0.219203X-0.021213X-0.021213X-0.219203X0*%
%ADD25RoundRect,0.225000X-0.225000X-0.250000X0.225000X-0.250000X0.225000X0.250000X-0.225000X0.250000X0*%
%ADD26R,1.500000X0.650000*%
%ADD27RoundRect,0.135000X-0.135000X-0.185000X0.135000X-0.185000X0.135000X0.185000X-0.135000X0.185000X0*%
%ADD28RoundRect,0.225000X-0.250000X0.225000X-0.250000X-0.225000X0.250000X-0.225000X0.250000X0.225000X0*%
%ADD29RoundRect,0.135000X-0.035355X0.226274X-0.226274X0.035355X0.035355X-0.226274X0.226274X-0.035355X0*%
%ADD30RoundRect,0.140000X-0.219203X-0.021213X-0.021213X-0.219203X0.219203X0.021213X0.021213X0.219203X0*%
%ADD31R,3.100000X1.600000*%
%ADD32R,0.300000X0.475000*%
%ADD33RoundRect,0.135000X0.226274X0.035355X0.035355X0.226274X-0.226274X-0.035355X-0.035355X-0.226274X0*%
%ADD34R,1.500000X2.500000*%
%ADD35RoundRect,0.150000X0.468458X-0.256326X-0.256326X0.468458X-0.468458X0.256326X0.256326X-0.468458X0*%
%ADD36R,1.140000X0.600000*%
%ADD37R,1.140000X0.300000*%
%ADD38R,0.475000X0.300000*%
%ADD39RoundRect,0.150000X0.512500X0.150000X-0.512500X0.150000X-0.512500X-0.150000X0.512500X-0.150000X0*%
%ADD40RoundRect,0.225000X0.225000X0.250000X-0.225000X0.250000X-0.225000X-0.250000X0.225000X-0.250000X0*%
%ADD41R,1.050000X0.650000*%
%ADD42RoundRect,0.112500X0.112500X-0.187500X0.112500X0.187500X-0.112500X0.187500X-0.112500X-0.187500X0*%
%ADD43RotRect,0.300000X0.800000X225.000000*%
%ADD44RotRect,0.300000X0.800000X135.000000*%
%ADD45RotRect,2.800000X2.800000X135.000000*%
%ADD46RoundRect,0.140000X-0.021213X0.219203X-0.219203X0.021213X0.021213X-0.219203X0.219203X-0.021213X0*%
%ADD47R,0.450000X0.200000*%
%ADD48R,0.300000X2.800000*%
%ADD49R,0.350000X0.400000*%
%ADD50R,0.500000X0.400000*%
%ADD51R,0.920000X0.285000*%
%ADD52R,1.600000X1.050000*%
%ADD53RoundRect,0.250000X-0.600000X0.400000X-0.600000X-0.400000X0.600000X-0.400000X0.600000X0.400000X0*%
%ADD54R,1.475000X0.300000*%
%ADD55R,0.300000X1.475000*%
G04 APERTURE END LIST*
D10*
%TO.C,C309*%
X157500000Y-97520000D03*
X157500000Y-98480000D03*
%TD*%
D11*
%TO.C,R301*%
X103020000Y-117250000D03*
X102000000Y-117250000D03*
%TD*%
D10*
%TO.C,C310*%
X131400000Y-107920000D03*
X131400000Y-108880000D03*
%TD*%
%TO.C,C324*%
X157500000Y-92520000D03*
X157500000Y-93480000D03*
%TD*%
D12*
%TO.C,R201*%
X174500000Y-128172000D03*
X174500000Y-127152000D03*
%TD*%
D10*
%TO.C,C304*%
X182250000Y-58270000D03*
X182250000Y-59230000D03*
%TD*%
D12*
%TO.C,R207*%
X188500000Y-118510000D03*
X188500000Y-117490000D03*
%TD*%
D13*
%TO.C,L202*%
X186000000Y-113100000D03*
X186000000Y-109400000D03*
%TD*%
D11*
%TO.C,R302*%
X139510000Y-129250000D03*
X138490000Y-129250000D03*
%TD*%
D14*
%TO.C,D302*%
X101722500Y-111200000D03*
X103297500Y-111200000D03*
%TD*%
D15*
%TO.C,C320*%
X142520000Y-87500000D03*
X143480000Y-87500000D03*
%TD*%
D16*
%TO.C,IC304*%
X161405000Y-124550000D03*
X160135000Y-124550000D03*
X158865000Y-124550000D03*
X157595000Y-124550000D03*
X157595000Y-129950000D03*
X158865000Y-129950000D03*
X160135000Y-129950000D03*
X161405000Y-129950000D03*
%TD*%
D17*
%TO.C,R413*%
X132000000Y-128490000D03*
X132000000Y-129510000D03*
%TD*%
D18*
%TO.C,J302*%
X116420000Y-72105000D03*
X116420000Y-71005000D03*
X116420000Y-69905000D03*
X116420000Y-68805000D03*
X116420000Y-67705000D03*
X116420000Y-66605000D03*
X116420000Y-65505000D03*
X116420000Y-64405000D03*
X116420000Y-63305000D03*
D19*
X114420000Y-61925000D03*
X105420000Y-61925000D03*
X105420000Y-78075000D03*
X114420000Y-78075000D03*
%TD*%
D20*
%TO.C,X303*%
X125900000Y-91625000D03*
X125900000Y-94375000D03*
X128100000Y-94375000D03*
X128100000Y-91625000D03*
%TD*%
D17*
%TO.C,R402*%
X133100000Y-113790000D03*
X133100000Y-114810000D03*
%TD*%
D10*
%TO.C,C308*%
X132400000Y-107920000D03*
X132400000Y-108880000D03*
%TD*%
D21*
%TO.C,C305*%
X132400000Y-106980000D03*
X132400000Y-106020000D03*
%TD*%
D22*
%TO.C,C204*%
X182230000Y-115000000D03*
X181270000Y-115000000D03*
%TD*%
D11*
%TO.C,R303*%
X103020000Y-112450000D03*
X102000000Y-112450000D03*
%TD*%
D15*
%TO.C,C6*%
X159040000Y-123000000D03*
X160000000Y-123000000D03*
%TD*%
D23*
%TO.C,R411*%
X123939376Y-120039376D03*
X124660624Y-120760624D03*
%TD*%
D12*
%TO.C,R311*%
X173000000Y-57250000D03*
X173000000Y-56230000D03*
%TD*%
D22*
%TO.C,C323*%
X152980000Y-112500000D03*
X152020000Y-112500000D03*
%TD*%
D24*
%TO.C,C404*%
X122268091Y-116064945D03*
X121589269Y-115386123D03*
%TD*%
D21*
%TO.C,C314*%
X132400000Y-105080000D03*
X132400000Y-104120000D03*
%TD*%
D22*
%TO.C,C3*%
X150980000Y-131500000D03*
X150020000Y-131500000D03*
%TD*%
D25*
%TO.C,C207*%
X170225000Y-124662000D03*
X171775000Y-124662000D03*
%TD*%
D26*
%TO.C,IC302*%
X147200000Y-118905000D03*
X147200000Y-117635000D03*
X147200000Y-116365000D03*
X147200000Y-115095000D03*
X141800000Y-115095000D03*
X141800000Y-116365000D03*
X141800000Y-117635000D03*
X141800000Y-118905000D03*
%TD*%
D20*
%TO.C,X301*%
X125900000Y-105625000D03*
X125900000Y-108375000D03*
X128100000Y-108375000D03*
X128100000Y-105625000D03*
%TD*%
D27*
%TO.C,R401*%
X130290000Y-113000000D03*
X131310000Y-113000000D03*
%TD*%
D15*
%TO.C,C4*%
X152520000Y-123000000D03*
X153480000Y-123000000D03*
%TD*%
D14*
%TO.C,D201*%
X162712500Y-114500000D03*
X164287500Y-114500000D03*
%TD*%
D20*
%TO.C,X302*%
X125900000Y-98625000D03*
X125900000Y-101375000D03*
X128100000Y-101375000D03*
X128100000Y-98625000D03*
%TD*%
D28*
%TO.C,C208*%
X182750000Y-109475000D03*
X182750000Y-111025000D03*
%TD*%
D17*
%TO.C,R412*%
X130750000Y-128480000D03*
X130750000Y-129500000D03*
%TD*%
D29*
%TO.C,R406*%
X124260624Y-110239376D03*
X123539376Y-110960624D03*
%TD*%
D22*
%TO.C,C313*%
X137480000Y-112500000D03*
X136520000Y-112500000D03*
%TD*%
D27*
%TO.C,R308*%
X112490000Y-86000000D03*
X113510000Y-86000000D03*
%TD*%
%TO.C,R203*%
X179240000Y-113750000D03*
X180260000Y-113750000D03*
%TD*%
D21*
%TO.C,C301*%
X124000000Y-93960000D03*
X124000000Y-93000000D03*
%TD*%
D30*
%TO.C,C405*%
X126989269Y-121436123D03*
X127668091Y-122114945D03*
%TD*%
D31*
%TO.C,SW301*%
X134555000Y-123980000D03*
X134555000Y-126520000D03*
X143445000Y-126520000D03*
X143445000Y-123980000D03*
%TD*%
D23*
%TO.C,R410*%
X121139376Y-123639376D03*
X121860624Y-124360624D03*
%TD*%
D10*
%TO.C,C316*%
X157500000Y-90520000D03*
X157500000Y-91480000D03*
%TD*%
D32*
%TO.C,IC201*%
X174500000Y-124324000D03*
X174000000Y-124324000D03*
X173500000Y-124324000D03*
X173500000Y-126000000D03*
X174000000Y-126000000D03*
X174500000Y-126000000D03*
%TD*%
D27*
%TO.C,R307*%
X152490000Y-131500000D03*
X153510000Y-131500000D03*
%TD*%
%TO.C,R310*%
X158990000Y-131500000D03*
X160010000Y-131500000D03*
%TD*%
D22*
%TO.C,C206*%
X180230000Y-112750000D03*
X179270000Y-112750000D03*
%TD*%
D33*
%TO.C,R408*%
X123160624Y-119260624D03*
X122439376Y-118539376D03*
%TD*%
D21*
%TO.C,C322*%
X131400000Y-105080000D03*
X131400000Y-104120000D03*
%TD*%
D34*
%TO.C,L201*%
X173850000Y-121412000D03*
X170150000Y-121412000D03*
%TD*%
D35*
%TO.C,U401*%
X122132583Y-122726085D03*
X122804334Y-122054334D03*
X123476085Y-121382583D03*
X121867417Y-119773915D03*
X121195666Y-120445666D03*
X120523915Y-121117417D03*
%TD*%
D23*
%TO.C,R407*%
X126268056Y-122114910D03*
X126989304Y-122836158D03*
%TD*%
D10*
%TO.C,C1*%
X140250000Y-115270000D03*
X140250000Y-116230000D03*
%TD*%
D14*
%TO.C,D202*%
X162712500Y-108000000D03*
X164287500Y-108000000D03*
%TD*%
D24*
%TO.C,C406*%
X122968091Y-115364945D03*
X122289269Y-114686123D03*
%TD*%
D36*
%TO.C,J303*%
X106750000Y-82300000D03*
X106750000Y-83100000D03*
D37*
X106750000Y-84250000D03*
X106750000Y-85250000D03*
X106750000Y-85750000D03*
X106750000Y-86750000D03*
D36*
X106750000Y-88700000D03*
X106750000Y-87900000D03*
D37*
X106750000Y-87250000D03*
X106750000Y-86250000D03*
X106750000Y-84750000D03*
X106750000Y-83750000D03*
%TD*%
D11*
%TO.C,R304*%
X103020000Y-122450000D03*
X102000000Y-122450000D03*
%TD*%
D38*
%TO.C,IC202*%
X183088000Y-113750000D03*
X183088000Y-113250000D03*
X183088000Y-112750000D03*
X181412000Y-112750000D03*
X181412000Y-113250000D03*
X181412000Y-113750000D03*
%TD*%
D12*
%TO.C,R403*%
X135700000Y-116510000D03*
X135700000Y-115490000D03*
%TD*%
%TO.C,R202*%
X175750000Y-128192000D03*
X175750000Y-127172000D03*
%TD*%
D15*
%TO.C,C325*%
X121945000Y-68700000D03*
X122905000Y-68700000D03*
%TD*%
D16*
%TO.C,IC303*%
X154905000Y-124550000D03*
X153635000Y-124550000D03*
X152365000Y-124550000D03*
X151095000Y-124550000D03*
X151095000Y-129950000D03*
X152365000Y-129950000D03*
X153635000Y-129950000D03*
X154905000Y-129950000D03*
%TD*%
D15*
%TO.C,C317*%
X154020000Y-112500000D03*
X154980000Y-112500000D03*
%TD*%
D39*
%TO.C,U302*%
X114137500Y-89450000D03*
X114137500Y-88500000D03*
X114137500Y-87550000D03*
X111862500Y-87550000D03*
X111862500Y-88500000D03*
X111862500Y-89450000D03*
%TD*%
D40*
%TO.C,C202*%
X181775000Y-116500000D03*
X180225000Y-116500000D03*
%TD*%
D30*
%TO.C,C403*%
X130160589Y-117460589D03*
X130839411Y-118139411D03*
%TD*%
D14*
%TO.C,D303*%
X101722500Y-121200000D03*
X103297500Y-121200000D03*
%TD*%
D27*
%TO.C,R309*%
X112490000Y-91000000D03*
X113510000Y-91000000D03*
%TD*%
D30*
%TO.C,C402*%
X130860589Y-116760589D03*
X131539411Y-117439411D03*
%TD*%
D10*
%TO.C,C315*%
X158500000Y-97520000D03*
X158500000Y-98480000D03*
%TD*%
D33*
%TO.C,R409*%
X119610624Y-122110624D03*
X118889376Y-121389376D03*
%TD*%
D41*
%TO.C,S301*%
X175925000Y-56675000D03*
X180075000Y-56675000D03*
X175925000Y-58825000D03*
X180075000Y-58825000D03*
%TD*%
%TO.C,S302*%
X166675000Y-56675000D03*
X170825000Y-56675000D03*
X166675000Y-58825000D03*
X170825000Y-58825000D03*
%TD*%
D11*
%TO.C,R205*%
X167010000Y-114500000D03*
X165990000Y-114500000D03*
%TD*%
D23*
%TO.C,FB401*%
X128368056Y-120014910D03*
X129089304Y-120736158D03*
%TD*%
D21*
%TO.C,C303*%
X124000000Y-107960000D03*
X124000000Y-107000000D03*
%TD*%
D42*
%TO.C,D304*%
X103500000Y-94650000D03*
X103500000Y-92550000D03*
%TD*%
D30*
%TO.C,C407*%
X127689269Y-120736123D03*
X128368091Y-121414945D03*
%TD*%
D22*
%TO.C,C318*%
X148980000Y-112500000D03*
X148020000Y-112500000D03*
%TD*%
D11*
%TO.C,R306*%
X139250000Y-87500000D03*
X138230000Y-87500000D03*
%TD*%
D27*
%TO.C,R405*%
X131690000Y-110700000D03*
X132710000Y-110700000D03*
%TD*%
D22*
%TO.C,C5*%
X157480000Y-131500000D03*
X156520000Y-131500000D03*
%TD*%
D43*
%TO.C,IC401*%
X127396447Y-118582641D03*
X127750000Y-118229088D03*
X128103554Y-117875534D03*
X128457107Y-117521981D03*
X128810661Y-117168427D03*
X129164214Y-116814874D03*
D44*
X129164214Y-115754214D03*
X128810661Y-115400661D03*
X128457107Y-115047107D03*
X128103554Y-114693554D03*
X127750000Y-114340000D03*
X127396447Y-113986447D03*
D43*
X126335787Y-113986447D03*
X125982234Y-114340000D03*
X125628680Y-114693554D03*
X125275127Y-115047107D03*
X124921573Y-115400661D03*
X124568020Y-115754214D03*
D44*
X124568020Y-116814874D03*
X124921573Y-117168427D03*
X125275127Y-117521981D03*
X125628680Y-117875534D03*
X125982234Y-118229088D03*
X126335787Y-118582641D03*
D45*
X126866117Y-116284544D03*
%TD*%
D10*
%TO.C,C326*%
X173000000Y-58270000D03*
X173000000Y-59230000D03*
%TD*%
D21*
%TO.C,C312*%
X132500000Y-99480000D03*
X132500000Y-98520000D03*
%TD*%
D22*
%TO.C,C401*%
X131280000Y-114000000D03*
X130320000Y-114000000D03*
%TD*%
%TO.C,C319*%
X143980000Y-112500000D03*
X143020000Y-112500000D03*
%TD*%
D12*
%TO.C,R305*%
X182250000Y-57260000D03*
X182250000Y-56240000D03*
%TD*%
D28*
%TO.C,C210*%
X181250000Y-109475000D03*
X181250000Y-111025000D03*
%TD*%
D25*
%TO.C,C209*%
X170225000Y-126412000D03*
X171775000Y-126412000D03*
%TD*%
D21*
%TO.C,C311*%
X132500000Y-93730000D03*
X132500000Y-92770000D03*
%TD*%
D10*
%TO.C,C205*%
X173250000Y-127182000D03*
X173250000Y-128142000D03*
%TD*%
D27*
%TO.C,R204*%
X179220000Y-115000000D03*
X180240000Y-115000000D03*
%TD*%
%TO.C,R404*%
X133990000Y-112900000D03*
X135010000Y-112900000D03*
%TD*%
D21*
%TO.C,C302*%
X124000000Y-100960000D03*
X124000000Y-100000000D03*
%TD*%
D11*
%TO.C,R206*%
X167010000Y-108000000D03*
X165990000Y-108000000D03*
%TD*%
D46*
%TO.C,C408*%
X120339411Y-122860589D03*
X119660589Y-123539411D03*
%TD*%
D15*
%TO.C,C321*%
X147520000Y-87500000D03*
X148480000Y-87500000D03*
%TD*%
D47*
%TO.C,FL301*%
X123000000Y-67200000D03*
X123000000Y-66800000D03*
X123000000Y-66400000D03*
X123000000Y-66000000D03*
X123000000Y-65600000D03*
X123000000Y-65200000D03*
X123000000Y-64800000D03*
X123000000Y-64400000D03*
X121850000Y-64400000D03*
X121850000Y-64800000D03*
X121850000Y-65200000D03*
X121850000Y-65600000D03*
X121850000Y-66000000D03*
X121850000Y-66400000D03*
X121850000Y-66800000D03*
X121850000Y-67200000D03*
D48*
X122425000Y-65800000D03*
%TD*%
D10*
%TO.C,C327*%
X157500000Y-103020000D03*
X157500000Y-103980000D03*
%TD*%
%TO.C,C203*%
X175750000Y-125182000D03*
X175750000Y-126142000D03*
%TD*%
D49*
%TO.C,Q201*%
X183775000Y-120650000D03*
X183775000Y-120000000D03*
D50*
X183700000Y-119350000D03*
X181900000Y-119350000D03*
D49*
X181825000Y-120000000D03*
X181825000Y-120650000D03*
D51*
X182800000Y-119350000D03*
D52*
X182800000Y-120325000D03*
%TD*%
D53*
%TO.C,D204*%
X186000000Y-116250000D03*
X186000000Y-119750000D03*
%TD*%
D54*
%TO.C,IC301*%
X134262000Y-91250000D03*
X134262000Y-91750000D03*
X134262000Y-92250000D03*
X134262000Y-92750000D03*
X134262000Y-93250000D03*
X134262000Y-93750000D03*
X134262000Y-94250000D03*
X134262000Y-94750000D03*
X134262000Y-95250000D03*
X134262000Y-95750000D03*
X134262000Y-96250000D03*
X134262000Y-96750000D03*
X134262000Y-97250000D03*
X134262000Y-97750000D03*
X134262000Y-98250000D03*
X134262000Y-98750000D03*
X134262000Y-99250000D03*
X134262000Y-99750000D03*
X134262000Y-100250000D03*
X134262000Y-100750000D03*
X134262000Y-101250000D03*
X134262000Y-101750000D03*
X134262000Y-102250000D03*
X134262000Y-102750000D03*
X134262000Y-103250000D03*
X134262000Y-103750000D03*
X134262000Y-104250000D03*
X134262000Y-104750000D03*
X134262000Y-105250000D03*
X134262000Y-105750000D03*
X134262000Y-106250000D03*
X134262000Y-106750000D03*
X134262000Y-107250000D03*
X134262000Y-107750000D03*
X134262000Y-108250000D03*
X134262000Y-108750000D03*
D55*
X136250000Y-110738000D03*
X136750000Y-110738000D03*
X137250000Y-110738000D03*
X137750000Y-110738000D03*
X138250000Y-110738000D03*
X138750000Y-110738000D03*
X139250000Y-110738000D03*
X139750000Y-110738000D03*
X140250000Y-110738000D03*
X140750000Y-110738000D03*
X141250000Y-110738000D03*
X141750000Y-110738000D03*
X142250000Y-110738000D03*
X142750000Y-110738000D03*
X143250000Y-110738000D03*
X143750000Y-110738000D03*
X144250000Y-110738000D03*
X144750000Y-110738000D03*
X145250000Y-110738000D03*
X145750000Y-110738000D03*
X146250000Y-110738000D03*
X146750000Y-110738000D03*
X147250000Y-110738000D03*
X147750000Y-110738000D03*
X148250000Y-110738000D03*
X148750000Y-110738000D03*
X149250000Y-110738000D03*
X149750000Y-110738000D03*
X150250000Y-110738000D03*
X150750000Y-110738000D03*
X151250000Y-110738000D03*
X151750000Y-110738000D03*
X152250000Y-110738000D03*
X152750000Y-110738000D03*
X153250000Y-110738000D03*
X153750000Y-110738000D03*
D54*
X155738000Y-108750000D03*
X155738000Y-108250000D03*
X155738000Y-107750000D03*
X155738000Y-107250000D03*
X155738000Y-106750000D03*
X155738000Y-106250000D03*
X155738000Y-105750000D03*
X155738000Y-105250000D03*
X155738000Y-104750000D03*
X155738000Y-104250000D03*
X155738000Y-103750000D03*
X155738000Y-103250000D03*
X155738000Y-102750000D03*
X155738000Y-102250000D03*
X155738000Y-101750000D03*
X155738000Y-101250000D03*
X155738000Y-100750000D03*
X155738000Y-100250000D03*
X155738000Y-99750000D03*
X155738000Y-99250000D03*
X155738000Y-98750000D03*
X155738000Y-98250000D03*
X155738000Y-97750000D03*
X155738000Y-97250000D03*
X155738000Y-96750000D03*
X155738000Y-96250000D03*
X155738000Y-95750000D03*
X155738000Y-95250000D03*
X155738000Y-94750000D03*
X155738000Y-94250000D03*
X155738000Y-93750000D03*
X155738000Y-93250000D03*
X155738000Y-92750000D03*
X155738000Y-92250000D03*
X155738000Y-91750000D03*
X155738000Y-91250000D03*
D55*
X153750000Y-89262000D03*
X153250000Y-89262000D03*
X152750000Y-89262000D03*
X152250000Y-89262000D03*
X151750000Y-89262000D03*
X151250000Y-89262000D03*
X150750000Y-89262000D03*
X150250000Y-89262000D03*
X149750000Y-89262000D03*
X149250000Y-89262000D03*
X148750000Y-89262000D03*
X148250000Y-89262000D03*
X147750000Y-89262000D03*
X147250000Y-89262000D03*
X146750000Y-89262000D03*
X146250000Y-89262000D03*
X145750000Y-89262000D03*
X145250000Y-89262000D03*
X144750000Y-89262000D03*
X144250000Y-89262000D03*
X143750000Y-89262000D03*
X143250000Y-89262000D03*
X142750000Y-89262000D03*
X142250000Y-89262000D03*
X141750000Y-89262000D03*
X141250000Y-89262000D03*
X140750000Y-89262000D03*
X140250000Y-89262000D03*
X139750000Y-89262000D03*
X139250000Y-89262000D03*
X138750000Y-89262000D03*
X138250000Y-89262000D03*
X137750000Y-89262000D03*
X137250000Y-89262000D03*
X136750000Y-89262000D03*
X136250000Y-89262000D03*
%TD*%
D22*
%TO.C,C307*%
X136255000Y-87500000D03*
X135295000Y-87500000D03*
%TD*%
D21*
%TO.C,C306*%
X131400000Y-106980000D03*
X131400000Y-106020000D03*
%TD*%
D14*
%TO.C,D301*%
X101722500Y-116000000D03*
X103297500Y-116000000D03*
%TD*%
D10*
%TO.C,C2*%
X148750000Y-116520000D03*
X148750000Y-117480000D03*
%TD*%
D28*
%TO.C,C201*%
X177250000Y-125637000D03*
X177250000Y-127187000D03*
%TD*%
M02*
