%TF.GenerationSoftware,KiCad,Pcbnew,7.0.1*%
%TF.CreationDate,2023-07-17T00:53:44+01:00*%
%TF.ProjectId,Gateway Board,47617465-7761-4792-9042-6f6172642e6b,rev?*%
%TF.SameCoordinates,Original*%
%TF.FileFunction,Copper,L1,Top*%
%TF.FilePolarity,Positive*%
%FSLAX46Y46*%
G04 Gerber Fmt 4.6, Leading zero omitted, Abs format (unit mm)*
G04 Created by KiCad (PCBNEW 7.0.1) date 2023-07-17 00:53:44*
%MOMM*%
%LPD*%
G01*
G04 APERTURE LIST*
G04 Aperture macros list*
%AMRoundRect*
0 Rectangle with rounded corners*
0 $1 Rounding radius*
0 $2 $3 $4 $5 $6 $7 $8 $9 X,Y pos of 4 corners*
0 Add a 4 corners polygon primitive as box body*
4,1,4,$2,$3,$4,$5,$6,$7,$8,$9,$2,$3,0*
0 Add four circle primitives for the rounded corners*
1,1,$1+$1,$2,$3*
1,1,$1+$1,$4,$5*
1,1,$1+$1,$6,$7*
1,1,$1+$1,$8,$9*
0 Add four rect primitives between the rounded corners*
20,1,$1+$1,$2,$3,$4,$5,0*
20,1,$1+$1,$4,$5,$6,$7,0*
20,1,$1+$1,$6,$7,$8,$9,0*
20,1,$1+$1,$8,$9,$2,$3,0*%
%AMRotRect*
0 Rectangle, with rotation*
0 The origin of the aperture is its center*
0 $1 length*
0 $2 width*
0 $3 Rotation angle, in degrees counterclockwise*
0 Add horizontal line*
21,1,$1,$2,0,0,$3*%
G04 Aperture macros list end*
%TA.AperFunction,SMDPad,CuDef*%
%ADD10RoundRect,0.140000X-0.170000X0.140000X-0.170000X-0.140000X0.170000X-0.140000X0.170000X0.140000X0*%
%TD*%
%TA.AperFunction,SMDPad,CuDef*%
%ADD11RoundRect,0.135000X0.135000X0.185000X-0.135000X0.185000X-0.135000X-0.185000X0.135000X-0.185000X0*%
%TD*%
%TA.AperFunction,SMDPad,CuDef*%
%ADD12RoundRect,0.135000X0.185000X-0.135000X0.185000X0.135000X-0.185000X0.135000X-0.185000X-0.135000X0*%
%TD*%
%TA.AperFunction,SMDPad,CuDef*%
%ADD13R,2.500000X1.500000*%
%TD*%
%TA.AperFunction,SMDPad,CuDef*%
%ADD14RoundRect,0.218750X-0.218750X-0.256250X0.218750X-0.256250X0.218750X0.256250X-0.218750X0.256250X0*%
%TD*%
%TA.AperFunction,SMDPad,CuDef*%
%ADD15RoundRect,0.140000X-0.140000X-0.170000X0.140000X-0.170000X0.140000X0.170000X-0.140000X0.170000X0*%
%TD*%
%TA.AperFunction,SMDPad,CuDef*%
%ADD16R,0.650000X1.500000*%
%TD*%
%TA.AperFunction,SMDPad,CuDef*%
%ADD17RoundRect,0.135000X-0.185000X0.135000X-0.185000X-0.135000X0.185000X-0.135000X0.185000X0.135000X0*%
%TD*%
%TA.AperFunction,SMDPad,CuDef*%
%ADD18R,1.400000X0.620000*%
%TD*%
%TA.AperFunction,SMDPad,CuDef*%
%ADD19R,2.400000X1.100000*%
%TD*%
%TA.AperFunction,SMDPad,CuDef*%
%ADD20R,1.650000X1.950000*%
%TD*%
%TA.AperFunction,SMDPad,CuDef*%
%ADD21RoundRect,0.140000X0.170000X-0.140000X0.170000X0.140000X-0.170000X0.140000X-0.170000X-0.140000X0*%
%TD*%
%TA.AperFunction,SMDPad,CuDef*%
%ADD22RoundRect,0.140000X0.140000X0.170000X-0.140000X0.170000X-0.140000X-0.170000X0.140000X-0.170000X0*%
%TD*%
%TA.AperFunction,SMDPad,CuDef*%
%ADD23RoundRect,0.135000X-0.226274X-0.035355X-0.035355X-0.226274X0.226274X0.035355X0.035355X0.226274X0*%
%TD*%
%TA.AperFunction,ComponentPad*%
%ADD24R,3.000000X3.000000*%
%TD*%
%TA.AperFunction,ComponentPad*%
%ADD25C,3.000000*%
%TD*%
%TA.AperFunction,SMDPad,CuDef*%
%ADD26RoundRect,0.140000X0.219203X0.021213X0.021213X0.219203X-0.219203X-0.021213X-0.021213X-0.219203X0*%
%TD*%
%TA.AperFunction,SMDPad,CuDef*%
%ADD27RoundRect,0.225000X-0.225000X-0.250000X0.225000X-0.250000X0.225000X0.250000X-0.225000X0.250000X0*%
%TD*%
%TA.AperFunction,SMDPad,CuDef*%
%ADD28R,1.500000X0.650000*%
%TD*%
%TA.AperFunction,SMDPad,CuDef*%
%ADD29RoundRect,0.135000X-0.135000X-0.185000X0.135000X-0.185000X0.135000X0.185000X-0.135000X0.185000X0*%
%TD*%
%TA.AperFunction,SMDPad,CuDef*%
%ADD30RoundRect,0.225000X-0.250000X0.225000X-0.250000X-0.225000X0.250000X-0.225000X0.250000X0.225000X0*%
%TD*%
%TA.AperFunction,ComponentPad*%
%ADD31C,5.600000*%
%TD*%
%TA.AperFunction,SMDPad,CuDef*%
%ADD32RoundRect,0.135000X-0.035355X0.226274X-0.226274X0.035355X0.035355X-0.226274X0.226274X-0.035355X0*%
%TD*%
%TA.AperFunction,SMDPad,CuDef*%
%ADD33RoundRect,0.140000X-0.219203X-0.021213X-0.021213X-0.219203X0.219203X0.021213X0.021213X0.219203X0*%
%TD*%
%TA.AperFunction,SMDPad,CuDef*%
%ADD34R,3.100000X1.600000*%
%TD*%
%TA.AperFunction,SMDPad,CuDef*%
%ADD35R,0.300000X0.475000*%
%TD*%
%TA.AperFunction,SMDPad,CuDef*%
%ADD36RoundRect,0.135000X0.226274X0.035355X0.035355X0.226274X-0.226274X-0.035355X-0.035355X-0.226274X0*%
%TD*%
%TA.AperFunction,SMDPad,CuDef*%
%ADD37R,1.500000X2.500000*%
%TD*%
%TA.AperFunction,SMDPad,CuDef*%
%ADD38RoundRect,0.150000X0.468458X-0.256326X-0.256326X0.468458X-0.468458X0.256326X0.256326X-0.468458X0*%
%TD*%
%TA.AperFunction,SMDPad,CuDef*%
%ADD39R,1.140000X0.600000*%
%TD*%
%TA.AperFunction,SMDPad,CuDef*%
%ADD40R,1.140000X0.300000*%
%TD*%
%TA.AperFunction,ComponentPad*%
%ADD41O,2.000000X0.900000*%
%TD*%
%TA.AperFunction,ComponentPad*%
%ADD42O,1.700000X0.900000*%
%TD*%
%TA.AperFunction,ConnectorPad*%
%ADD43C,0.787400*%
%TD*%
%TA.AperFunction,SMDPad,CuDef*%
%ADD44R,0.475000X0.300000*%
%TD*%
%TA.AperFunction,SMDPad,CuDef*%
%ADD45RoundRect,0.150000X0.512500X0.150000X-0.512500X0.150000X-0.512500X-0.150000X0.512500X-0.150000X0*%
%TD*%
%TA.AperFunction,SMDPad,CuDef*%
%ADD46RoundRect,0.225000X0.225000X0.250000X-0.225000X0.250000X-0.225000X-0.250000X0.225000X-0.250000X0*%
%TD*%
%TA.AperFunction,ComponentPad*%
%ADD47R,1.478000X1.478000*%
%TD*%
%TA.AperFunction,ComponentPad*%
%ADD48C,1.478000*%
%TD*%
%TA.AperFunction,ComponentPad*%
%ADD49C,1.650000*%
%TD*%
%TA.AperFunction,ComponentPad*%
%ADD50C,2.565000*%
%TD*%
%TA.AperFunction,SMDPad,CuDef*%
%ADD51R,1.050000X0.650000*%
%TD*%
%TA.AperFunction,SMDPad,CuDef*%
%ADD52RoundRect,0.112500X0.112500X-0.187500X0.112500X0.187500X-0.112500X0.187500X-0.112500X-0.187500X0*%
%TD*%
%TA.AperFunction,SMDPad,CuDef*%
%ADD53RotRect,0.300000X0.800000X225.000000*%
%TD*%
%TA.AperFunction,SMDPad,CuDef*%
%ADD54RotRect,0.300000X0.800000X135.000000*%
%TD*%
%TA.AperFunction,SMDPad,CuDef*%
%ADD55RotRect,2.800000X2.800000X135.000000*%
%TD*%
%TA.AperFunction,SMDPad,CuDef*%
%ADD56RoundRect,0.140000X-0.021213X0.219203X-0.219203X0.021213X0.021213X-0.219203X0.219203X-0.021213X0*%
%TD*%
%TA.AperFunction,SMDPad,CuDef*%
%ADD57R,0.450000X0.200000*%
%TD*%
%TA.AperFunction,SMDPad,CuDef*%
%ADD58R,0.300000X2.800000*%
%TD*%
%TA.AperFunction,SMDPad,CuDef*%
%ADD59R,0.350000X0.400000*%
%TD*%
%TA.AperFunction,SMDPad,CuDef*%
%ADD60R,0.500000X0.400000*%
%TD*%
%TA.AperFunction,SMDPad,CuDef*%
%ADD61R,0.920000X0.285000*%
%TD*%
%TA.AperFunction,SMDPad,CuDef*%
%ADD62R,1.600000X1.050000*%
%TD*%
%TA.AperFunction,SMDPad,CuDef*%
%ADD63RoundRect,0.250000X-0.600000X0.400000X-0.600000X-0.400000X0.600000X-0.400000X0.600000X0.400000X0*%
%TD*%
%TA.AperFunction,SMDPad,CuDef*%
%ADD64R,1.475000X0.300000*%
%TD*%
%TA.AperFunction,SMDPad,CuDef*%
%ADD65R,0.300000X1.475000*%
%TD*%
%TA.AperFunction,ViaPad*%
%ADD66C,0.450000*%
%TD*%
%TA.AperFunction,Conductor*%
%ADD67C,0.300000*%
%TD*%
%TA.AperFunction,Conductor*%
%ADD68C,0.200000*%
%TD*%
%TA.AperFunction,Conductor*%
%ADD69C,0.500000*%
%TD*%
%TA.AperFunction,Conductor*%
%ADD70C,0.450000*%
%TD*%
%TA.AperFunction,Conductor*%
%ADD71C,0.250000*%
%TD*%
G04 APERTURE END LIST*
D10*
%TO.P,C309,1*%
%TO.N,+3.3V*%
X157500000Y-97520000D03*
%TO.P,C309,2*%
%TO.N,GND*%
X157500000Y-98480000D03*
%TD*%
D11*
%TO.P,R301,1*%
%TO.N,GND*%
X103020000Y-117250000D03*
%TO.P,R301,2*%
%TO.N,/Microcontroller/LEDR_K*%
X102000000Y-117250000D03*
%TD*%
D10*
%TO.P,C310,1*%
%TO.N,+3.3V*%
X131400000Y-107920000D03*
%TO.P,C310,2*%
%TO.N,GND*%
X131400000Y-108880000D03*
%TD*%
%TO.P,C324,1*%
%TO.N,/Microcontroller/VCAP2*%
X157500000Y-92520000D03*
%TO.P,C324,2*%
%TO.N,GND*%
X157500000Y-93480000D03*
%TD*%
D12*
%TO.P,R201,1*%
%TO.N,+5V*%
X174500000Y-128172000D03*
%TO.P,R201,2*%
%TO.N,/Power/5V_FB*%
X174500000Y-127152000D03*
%TD*%
D10*
%TO.P,C304,1*%
%TO.N,NRST*%
X182250000Y-58270000D03*
%TO.P,C304,2*%
%TO.N,GND*%
X182250000Y-59230000D03*
%TD*%
D12*
%TO.P,R207,1*%
%TO.N,/Power/RP_PMOS_G*%
X188500000Y-118510000D03*
%TO.P,R207,2*%
%TO.N,GND*%
X188500000Y-117490000D03*
%TD*%
D13*
%TO.P,L202,1*%
%TO.N,/Power/3V3_SW*%
X186000000Y-113100000D03*
%TO.P,L202,2*%
%TO.N,+3.3V*%
X186000000Y-109400000D03*
%TD*%
D11*
%TO.P,R302,1*%
%TO.N,/Microcontroller/CANH1*%
X139510000Y-129250000D03*
%TO.P,R302,2*%
%TO.N,/Microcontroller/CAN_SW*%
X138490000Y-129250000D03*
%TD*%
D14*
%TO.P,D302,1,K*%
%TO.N,/Microcontroller/LEDG_K*%
X101722500Y-111200000D03*
%TO.P,D302,2,A*%
%TO.N,LEDG*%
X103297500Y-111200000D03*
%TD*%
D15*
%TO.P,C320,1*%
%TO.N,+3.3V*%
X142520000Y-87500000D03*
%TO.P,C320,2*%
%TO.N,GND*%
X143480000Y-87500000D03*
%TD*%
D16*
%TO.P,IC304,1,TXD*%
%TO.N,CAN_TX3*%
X161405000Y-124550000D03*
%TO.P,IC304,2,GND*%
%TO.N,GND*%
X160135000Y-124550000D03*
%TO.P,IC304,3,VCC*%
%TO.N,+5V*%
X158865000Y-124550000D03*
%TO.P,IC304,4,RXD*%
%TO.N,CAN_RX3*%
X157595000Y-124550000D03*
%TO.P,IC304,5,VIO*%
%TO.N,+3.3V*%
X157595000Y-129950000D03*
%TO.P,IC304,6,CANL*%
%TO.N,/Microcontroller/CANL3*%
X158865000Y-129950000D03*
%TO.P,IC304,7,CANH*%
%TO.N,/Microcontroller/CANH3*%
X160135000Y-129950000D03*
%TO.P,IC304,8,S*%
%TO.N,SILENT3*%
X161405000Y-129950000D03*
%TD*%
D17*
%TO.P,R413,1*%
%TO.N,/Ethernet/LED1*%
X132000000Y-128490000D03*
%TO.P,R413,2*%
%TO.N,/Ethernet/Y_K*%
X132000000Y-129510000D03*
%TD*%
D18*
%TO.P,J302,1,DAT2*%
%TO.N,/Microcontroller/DAT2*%
X116420000Y-72105000D03*
%TO.P,J302,2,CD/DAT3*%
%TO.N,/Microcontroller/DAT3*%
X116420000Y-71005000D03*
%TO.P,J302,3,CMD*%
%TO.N,/Microcontroller/CMD*%
X116420000Y-69905000D03*
%TO.P,J302,4,VDD*%
%TO.N,+3.3V*%
X116420000Y-68805000D03*
%TO.P,J302,5,CLK*%
%TO.N,/Microcontroller/CLK*%
X116420000Y-67705000D03*
%TO.P,J302,6,VSS*%
%TO.N,GND*%
X116420000Y-66605000D03*
%TO.P,J302,7,DAT0*%
%TO.N,/Microcontroller/DAT0*%
X116420000Y-65505000D03*
%TO.P,J302,8,DAT1*%
%TO.N,/Microcontroller/DAT1*%
X116420000Y-64405000D03*
%TO.P,J302,9,CD*%
%TO.N,SDMMC1_CD*%
X116420000Y-63305000D03*
D19*
%TO.P,J302,10,MP1*%
%TO.N,unconnected-(J302-MP1-Pad10)*%
X114420000Y-61925000D03*
%TO.P,J302,11,MP2*%
%TO.N,unconnected-(J302-MP2-Pad11)*%
X105420000Y-61925000D03*
%TO.P,J302,12,MP3*%
%TO.N,unconnected-(J302-MP3-Pad12)*%
X105420000Y-78075000D03*
%TO.P,J302,13,MP4*%
%TO.N,unconnected-(J302-MP4-Pad13)*%
X114420000Y-78075000D03*
%TD*%
D20*
%TO.P,X303,1,OE*%
%TO.N,unconnected-(X303-OE-Pad1)*%
X125900000Y-91625000D03*
%TO.P,X303,2,GND*%
%TO.N,GND*%
X125900000Y-94375000D03*
%TO.P,X303,3,OUT*%
%TO.N,OSC32K*%
X128100000Y-94375000D03*
%TO.P,X303,4,VDD*%
%TO.N,+3.3V*%
X128100000Y-91625000D03*
%TD*%
D17*
%TO.P,R402,1*%
%TO.N,+3.3V*%
X133100000Y-113790000D03*
%TO.P,R402,2*%
%TO.N,ETH_RXD0*%
X133100000Y-114810000D03*
%TD*%
D10*
%TO.P,C308,1*%
%TO.N,+3.3V*%
X132400000Y-107920000D03*
%TO.P,C308,2*%
%TO.N,GND*%
X132400000Y-108880000D03*
%TD*%
D21*
%TO.P,C305,1*%
%TO.N,/Microcontroller/VREF+*%
X132400000Y-106980000D03*
%TO.P,C305,2*%
%TO.N,GND*%
X132400000Y-106020000D03*
%TD*%
D22*
%TO.P,C204,1*%
%TO.N,VIN*%
X182230000Y-115000000D03*
%TO.P,C204,2*%
%TO.N,GND*%
X181270000Y-115000000D03*
%TD*%
D11*
%TO.P,R303,1*%
%TO.N,GND*%
X103020000Y-112450000D03*
%TO.P,R303,2*%
%TO.N,/Microcontroller/LEDG_K*%
X102000000Y-112450000D03*
%TD*%
D15*
%TO.P,C6,1*%
%TO.N,+5V*%
X159040000Y-123000000D03*
%TO.P,C6,2*%
%TO.N,GND*%
X160000000Y-123000000D03*
%TD*%
D23*
%TO.P,R411,1*%
%TO.N,+3.3VA*%
X123939376Y-120039376D03*
%TO.P,R411,2*%
%TO.N,/Ethernet/RXN*%
X124660624Y-120760624D03*
%TD*%
D12*
%TO.P,R311,1*%
%TO.N,BTN*%
X173000000Y-57250000D03*
%TO.P,R311,2*%
%TO.N,+3.3V*%
X173000000Y-56230000D03*
%TD*%
D22*
%TO.P,C323,1*%
%TO.N,/Microcontroller/VCAP1*%
X152980000Y-112500000D03*
%TO.P,C323,2*%
%TO.N,GND*%
X152020000Y-112500000D03*
%TD*%
D24*
%TO.P,J304,1,Pin_1*%
%TO.N,/Microcontroller/CANH1*%
X133920000Y-138000000D03*
D25*
%TO.P,J304,2,Pin_2*%
%TO.N,GND*%
X139000000Y-138000000D03*
%TO.P,J304,3,Pin_3*%
%TO.N,/Microcontroller/CANL1*%
X144080000Y-138000000D03*
%TD*%
D26*
%TO.P,C404,1*%
%TO.N,+3.3VA*%
X122268091Y-116064945D03*
%TO.P,C404,2*%
%TO.N,GND*%
X121589269Y-115386123D03*
%TD*%
D21*
%TO.P,C314,1*%
%TO.N,+3.3V*%
X132400000Y-105080000D03*
%TO.P,C314,2*%
%TO.N,GND*%
X132400000Y-104120000D03*
%TD*%
D22*
%TO.P,C3,1*%
%TO.N,+3.3V*%
X150980000Y-131500000D03*
%TO.P,C3,2*%
%TO.N,GND*%
X150020000Y-131500000D03*
%TD*%
D27*
%TO.P,C207,1*%
%TO.N,+5V*%
X170225000Y-124662000D03*
%TO.P,C207,2*%
%TO.N,GND*%
X171775000Y-124662000D03*
%TD*%
D28*
%TO.P,IC302,1,TXD*%
%TO.N,CAN_TX1*%
X147200000Y-118905000D03*
%TO.P,IC302,2,GND*%
%TO.N,GND*%
X147200000Y-117635000D03*
%TO.P,IC302,3,VCC*%
%TO.N,+5V*%
X147200000Y-116365000D03*
%TO.P,IC302,4,RXD*%
%TO.N,CAN_RX1*%
X147200000Y-115095000D03*
%TO.P,IC302,5,VIO*%
%TO.N,+3.3V*%
X141800000Y-115095000D03*
%TO.P,IC302,6,CANL*%
%TO.N,/Microcontroller/CANL1*%
X141800000Y-116365000D03*
%TO.P,IC302,7,CANH*%
%TO.N,/Microcontroller/CANH1*%
X141800000Y-117635000D03*
%TO.P,IC302,8,S*%
%TO.N,SILENT1*%
X141800000Y-118905000D03*
%TD*%
D20*
%TO.P,X301,1,OE*%
%TO.N,unconnected-(X301-OE-Pad1)*%
X125900000Y-105625000D03*
%TO.P,X301,2,GND*%
%TO.N,GND*%
X125900000Y-108375000D03*
%TO.P,X301,3,OUT*%
%TO.N,ETH_REF_CLK*%
X128100000Y-108375000D03*
%TO.P,X301,4,VDD*%
%TO.N,+3.3V*%
X128100000Y-105625000D03*
%TD*%
D29*
%TO.P,R401,1*%
%TO.N,/Ethernet/PHYAD0*%
X130290000Y-113000000D03*
%TO.P,R401,2*%
%TO.N,GND*%
X131310000Y-113000000D03*
%TD*%
D15*
%TO.P,C4,1*%
%TO.N,+5V*%
X152520000Y-123000000D03*
%TO.P,C4,2*%
%TO.N,GND*%
X153480000Y-123000000D03*
%TD*%
D24*
%TO.P,J306,1,Pin_1*%
%TO.N,/Microcontroller/CANH3*%
X168000000Y-138000000D03*
D25*
%TO.P,J306,2,Pin_2*%
%TO.N,GND*%
X173080000Y-138000000D03*
%TO.P,J306,3,Pin_3*%
%TO.N,/Microcontroller/CANL3*%
X178160000Y-138000000D03*
%TD*%
D14*
%TO.P,D201,1,K*%
%TO.N,GND*%
X162712500Y-114500000D03*
%TO.P,D201,2,A*%
%TO.N,/Power/5V_LED_A*%
X164287500Y-114500000D03*
%TD*%
D20*
%TO.P,X302,1,OE*%
%TO.N,unconnected-(X302-OE-Pad1)*%
X125900000Y-98625000D03*
%TO.P,X302,2,GND*%
%TO.N,GND*%
X125900000Y-101375000D03*
%TO.P,X302,3,OUT*%
%TO.N,OSC25M*%
X128100000Y-101375000D03*
%TO.P,X302,4,VDD*%
%TO.N,+3.3V*%
X128100000Y-98625000D03*
%TD*%
D30*
%TO.P,C208,1*%
%TO.N,+3.3V*%
X182750000Y-109475000D03*
%TO.P,C208,2*%
%TO.N,GND*%
X182750000Y-111025000D03*
%TD*%
D17*
%TO.P,R412,1*%
%TO.N,/Ethernet/LED2*%
X130750000Y-128480000D03*
%TO.P,R412,2*%
%TO.N,/Ethernet/G_K*%
X130750000Y-129500000D03*
%TD*%
D31*
%TO.P,H101,1,1*%
%TO.N,unconnected-(H101-Pad1)*%
X103000000Y-58000000D03*
%TD*%
D32*
%TO.P,R406,1*%
%TO.N,+3.3V*%
X124260624Y-110239376D03*
%TO.P,R406,2*%
%TO.N,ETH_INT*%
X123539376Y-110960624D03*
%TD*%
D22*
%TO.P,C313,1*%
%TO.N,+3.3V*%
X137480000Y-112500000D03*
%TO.P,C313,2*%
%TO.N,GND*%
X136520000Y-112500000D03*
%TD*%
D29*
%TO.P,R308,1*%
%TO.N,/Microcontroller/CC1*%
X112490000Y-86000000D03*
%TO.P,R308,2*%
%TO.N,GND*%
X113510000Y-86000000D03*
%TD*%
%TO.P,R203,1*%
%TO.N,+3.3V*%
X179240000Y-113750000D03*
%TO.P,R203,2*%
%TO.N,/Power/3V3_FB*%
X180260000Y-113750000D03*
%TD*%
D21*
%TO.P,C301,1*%
%TO.N,GND*%
X124000000Y-93960000D03*
%TO.P,C301,2*%
%TO.N,+3.3V*%
X124000000Y-93000000D03*
%TD*%
D33*
%TO.P,C405,1*%
%TO.N,+3.3VA*%
X126989269Y-121436123D03*
%TO.P,C405,2*%
%TO.N,GND*%
X127668091Y-122114945D03*
%TD*%
D34*
%TO.P,SW301,1*%
%TO.N,+3.3V*%
X134555000Y-123980000D03*
%TO.P,SW301,2*%
%TO.N,/Microcontroller/CAN_SW*%
X134555000Y-126520000D03*
%TO.P,SW301,3*%
%TO.N,/Microcontroller/CANL1*%
X143445000Y-126520000D03*
%TO.P,SW301,4*%
%TO.N,BOOT0*%
X143445000Y-123980000D03*
%TD*%
D23*
%TO.P,R410,1*%
%TO.N,+3.3VA*%
X121139376Y-123639376D03*
%TO.P,R410,2*%
%TO.N,/Ethernet/RXP*%
X121860624Y-124360624D03*
%TD*%
D10*
%TO.P,C316,1*%
%TO.N,+3.3V*%
X157500000Y-90520000D03*
%TO.P,C316,2*%
%TO.N,GND*%
X157500000Y-91480000D03*
%TD*%
D35*
%TO.P,IC201,1,VIN*%
%TO.N,VIN*%
X174500000Y-124324000D03*
%TO.P,IC201,2,SW*%
%TO.N,/Power/5V_SW*%
X174000000Y-124324000D03*
%TO.P,IC201,3,GND*%
%TO.N,GND*%
X173500000Y-124324000D03*
%TO.P,IC201,4,BST*%
%TO.N,/Power/5V_BST*%
X173500000Y-126000000D03*
%TO.P,IC201,5,EN*%
%TO.N,VIN*%
X174000000Y-126000000D03*
%TO.P,IC201,6,FB*%
%TO.N,/Power/5V_FB*%
X174500000Y-126000000D03*
%TD*%
D29*
%TO.P,R307,1*%
%TO.N,/Microcontroller/CANL2*%
X152490000Y-131500000D03*
%TO.P,R307,2*%
%TO.N,/Microcontroller/CANH2*%
X153510000Y-131500000D03*
%TD*%
%TO.P,R310,1*%
%TO.N,/Microcontroller/CANL3*%
X158990000Y-131500000D03*
%TO.P,R310,2*%
%TO.N,/Microcontroller/CANH3*%
X160010000Y-131500000D03*
%TD*%
D22*
%TO.P,C206,1*%
%TO.N,/Power/3V3_BST*%
X180230000Y-112750000D03*
%TO.P,C206,2*%
%TO.N,/Power/3V3_SW*%
X179270000Y-112750000D03*
%TD*%
D36*
%TO.P,R408,1*%
%TO.N,+3.3VA*%
X123160624Y-119260624D03*
%TO.P,R408,2*%
%TO.N,/Ethernet/TXP*%
X122439376Y-118539376D03*
%TD*%
D21*
%TO.P,C322,1*%
%TO.N,+3.3V*%
X131400000Y-105080000D03*
%TO.P,C322,2*%
%TO.N,GND*%
X131400000Y-104120000D03*
%TD*%
D37*
%TO.P,L201,1*%
%TO.N,/Power/5V_SW*%
X173850000Y-121412000D03*
%TO.P,L201,2*%
%TO.N,+5V*%
X170150000Y-121412000D03*
%TD*%
D38*
%TO.P,U401,1,IO1*%
%TO.N,/Ethernet/RXP*%
X122132583Y-122726085D03*
%TO.P,U401,2,GND*%
%TO.N,GND*%
X122804334Y-122054334D03*
%TO.P,U401,3,IO2*%
%TO.N,/Ethernet/RXN*%
X123476085Y-121382583D03*
%TO.P,U401,4,IO3*%
%TO.N,/Ethernet/TXP*%
X121867417Y-119773915D03*
%TO.P,U401,5,VBUS*%
%TO.N,+3.3VA*%
X121195666Y-120445666D03*
%TO.P,U401,6,IO4*%
%TO.N,/Ethernet/TXN*%
X120523915Y-121117417D03*
%TD*%
D23*
%TO.P,R407,1*%
%TO.N,/Ethernet/RBIAS*%
X126268056Y-122114910D03*
%TO.P,R407,2*%
%TO.N,GND*%
X126989304Y-122836158D03*
%TD*%
D10*
%TO.P,C1,1*%
%TO.N,+3.3V*%
X140250000Y-115270000D03*
%TO.P,C1,2*%
%TO.N,GND*%
X140250000Y-116230000D03*
%TD*%
D14*
%TO.P,D202,1,K*%
%TO.N,GND*%
X162712500Y-108000000D03*
%TO.P,D202,2,A*%
%TO.N,/Power/3V3_LED_A*%
X164287500Y-108000000D03*
%TD*%
D26*
%TO.P,C406,1*%
%TO.N,+3.3VA*%
X122968091Y-115364945D03*
%TO.P,C406,2*%
%TO.N,GND*%
X122289269Y-114686123D03*
%TD*%
D39*
%TO.P,J303,A1_B12,GND*%
%TO.N,GND*%
X106750000Y-82300000D03*
%TO.P,J303,A4_B9,VBUS*%
%TO.N,VBUS*%
X106750000Y-83100000D03*
D40*
%TO.P,J303,A5,CC1*%
%TO.N,/Microcontroller/CC1*%
X106750000Y-84250000D03*
%TO.P,J303,A6,DP1*%
%TO.N,USB_DP*%
X106750000Y-85250000D03*
%TO.P,J303,A7,DN1*%
%TO.N,USB_DN*%
X106750000Y-85750000D03*
%TO.P,J303,A8,SBU1*%
%TO.N,unconnected-(J303-SBU1-PadA8)*%
X106750000Y-86750000D03*
D39*
%TO.P,J303,B1_A12,GND*%
%TO.N,GND*%
X106750000Y-88700000D03*
%TO.P,J303,B4_A9,VBUS*%
%TO.N,VBUS*%
X106750000Y-87900000D03*
D40*
%TO.P,J303,B5,CC2*%
%TO.N,/Microcontroller/CC2*%
X106750000Y-87250000D03*
%TO.P,J303,B6,DP2*%
%TO.N,USB_DP*%
X106750000Y-86250000D03*
%TO.P,J303,B7,DN2*%
%TO.N,USB_DN*%
X106750000Y-84750000D03*
%TO.P,J303,B8,SBU2*%
%TO.N,unconnected-(J303-SBU2-PadB8)*%
X106750000Y-83750000D03*
D41*
%TO.P,J303,S1,SHIELD*%
%TO.N,unconnected-(J303-SHIELD-PadS1)*%
X106170000Y-81175000D03*
%TO.P,J303,S2,SHIELD*%
%TO.N,unconnected-(J303-SHIELD-PadS2)*%
X106170000Y-89825000D03*
D42*
%TO.P,J303,S3,SHIELD*%
%TO.N,unconnected-(J303-SHIELD-PadS3)*%
X102000000Y-81175000D03*
%TO.P,J303,S4,SHIELD*%
%TO.N,unconnected-(J303-SHIELD-PadS4)*%
X102000000Y-89825000D03*
%TD*%
D24*
%TO.P,J305,1,Pin_1*%
%TO.N,/Microcontroller/CANH2*%
X150920000Y-138000000D03*
D25*
%TO.P,J305,2,Pin_2*%
%TO.N,GND*%
X156000000Y-138000000D03*
%TO.P,J305,3,Pin_3*%
%TO.N,/Microcontroller/CANL2*%
X161080000Y-138000000D03*
%TD*%
D43*
%TO.P,J301,1,VCC*%
%TO.N,+3.3V*%
X164135000Y-89770000D03*
%TO.P,J301,2,SWDIO*%
%TO.N,SWDIO*%
X162865000Y-89770000D03*
%TO.P,J301,3,~{RESET}*%
%TO.N,NRST*%
X164135000Y-88500000D03*
%TO.P,J301,4,SWCLK*%
%TO.N,SWCLK*%
X162865000Y-88500000D03*
%TO.P,J301,5,GND*%
%TO.N,GND*%
X164135000Y-87230000D03*
%TO.P,J301,6,SWO*%
%TO.N,SWO*%
X162865000Y-87230000D03*
%TD*%
D11*
%TO.P,R304,1*%
%TO.N,GND*%
X103020000Y-122450000D03*
%TO.P,R304,2*%
%TO.N,/Microcontroller/LEDB_K*%
X102000000Y-122450000D03*
%TD*%
D31*
%TO.P,H104,1,1*%
%TO.N,unconnected-(H104-Pad1)*%
X187000000Y-142000000D03*
%TD*%
D44*
%TO.P,IC202,1,VIN*%
%TO.N,VIN*%
X183088000Y-113750000D03*
%TO.P,IC202,2,SW*%
%TO.N,/Power/3V3_SW*%
X183088000Y-113250000D03*
%TO.P,IC202,3,GND*%
%TO.N,GND*%
X183088000Y-112750000D03*
%TO.P,IC202,4,BST*%
%TO.N,/Power/3V3_BST*%
X181412000Y-112750000D03*
%TO.P,IC202,5,EN*%
%TO.N,VIN*%
X181412000Y-113250000D03*
%TO.P,IC202,6,FB*%
%TO.N,/Power/3V3_FB*%
X181412000Y-113750000D03*
%TD*%
D12*
%TO.P,R403,1*%
%TO.N,+3.3V*%
X135700000Y-116510000D03*
%TO.P,R403,2*%
%TO.N,ETH_RXD1*%
X135700000Y-115490000D03*
%TD*%
%TO.P,R202,1*%
%TO.N,/Power/5V_FB*%
X175750000Y-128192000D03*
%TO.P,R202,2*%
%TO.N,GND*%
X175750000Y-127172000D03*
%TD*%
D15*
%TO.P,C325,1*%
%TO.N,+3.3V*%
X121945000Y-68700000D03*
%TO.P,C325,2*%
%TO.N,GND*%
X122905000Y-68700000D03*
%TD*%
D16*
%TO.P,IC303,1,TXD*%
%TO.N,CAN_TX2*%
X154905000Y-124550000D03*
%TO.P,IC303,2,GND*%
%TO.N,GND*%
X153635000Y-124550000D03*
%TO.P,IC303,3,VCC*%
%TO.N,+5V*%
X152365000Y-124550000D03*
%TO.P,IC303,4,RXD*%
%TO.N,CAN_RX2*%
X151095000Y-124550000D03*
%TO.P,IC303,5,VIO*%
%TO.N,+3.3V*%
X151095000Y-129950000D03*
%TO.P,IC303,6,CANL*%
%TO.N,/Microcontroller/CANL2*%
X152365000Y-129950000D03*
%TO.P,IC303,7,CANH*%
%TO.N,/Microcontroller/CANH2*%
X153635000Y-129950000D03*
%TO.P,IC303,8,S*%
%TO.N,SILENT2*%
X154905000Y-129950000D03*
%TD*%
D15*
%TO.P,C317,1*%
%TO.N,+3.3V*%
X154020000Y-112500000D03*
%TO.P,C317,2*%
%TO.N,GND*%
X154980000Y-112500000D03*
%TD*%
D45*
%TO.P,U302,1,IO1*%
%TO.N,/Microcontroller/CC2*%
X114137500Y-89450000D03*
%TO.P,U302,2,GND*%
%TO.N,GND*%
X114137500Y-88500000D03*
%TO.P,U302,3,IO2*%
%TO.N,/Microcontroller/CC1*%
X114137500Y-87550000D03*
%TO.P,U302,4,IO3*%
%TO.N,USB_DP*%
X111862500Y-87550000D03*
%TO.P,U302,5,VBUS*%
%TO.N,VBUS*%
X111862500Y-88500000D03*
%TO.P,U302,6,IO4*%
%TO.N,USB_DN*%
X111862500Y-89450000D03*
%TD*%
D46*
%TO.P,C202,1*%
%TO.N,VIN*%
X181775000Y-116500000D03*
%TO.P,C202,2*%
%TO.N,GND*%
X180225000Y-116500000D03*
%TD*%
D33*
%TO.P,C403,1*%
%TO.N,/Ethernet/VDDCR*%
X130160589Y-117460589D03*
%TO.P,C403,2*%
%TO.N,GND*%
X130839411Y-118139411D03*
%TD*%
D14*
%TO.P,D303,1,K*%
%TO.N,/Microcontroller/LEDB_K*%
X101722500Y-121200000D03*
%TO.P,D303,2,A*%
%TO.N,LEDB*%
X103297500Y-121200000D03*
%TD*%
D29*
%TO.P,R309,1*%
%TO.N,/Microcontroller/CC2*%
X112490000Y-91000000D03*
%TO.P,R309,2*%
%TO.N,GND*%
X113510000Y-91000000D03*
%TD*%
D33*
%TO.P,C402,1*%
%TO.N,/Ethernet/VDDCR*%
X130860589Y-116760589D03*
%TO.P,C402,2*%
%TO.N,GND*%
X131539411Y-117439411D03*
%TD*%
D10*
%TO.P,C315,1*%
%TO.N,+3.3V*%
X158500000Y-97520000D03*
%TO.P,C315,2*%
%TO.N,GND*%
X158500000Y-98480000D03*
%TD*%
D36*
%TO.P,R409,1*%
%TO.N,+3.3VA*%
X119610624Y-122110624D03*
%TO.P,R409,2*%
%TO.N,/Ethernet/TXN*%
X118889376Y-121389376D03*
%TD*%
D47*
%TO.P,J401,1,TD+*%
%TO.N,/Ethernet/TXP*%
X113555000Y-129650000D03*
D48*
%TO.P,J401,2,TD-*%
%TO.N,/Ethernet/TXN*%
X114825000Y-127110000D03*
%TO.P,J401,3,RD+*%
%TO.N,/Ethernet/RXP*%
X116095000Y-129650000D03*
%TO.P,J401,4,TCT*%
%TO.N,+3.3VA*%
X117365000Y-127110000D03*
%TO.P,J401,5,RCT*%
X118635000Y-129650000D03*
%TO.P,J401,6,RD-*%
%TO.N,/Ethernet/RXN*%
X119905000Y-127110000D03*
%TO.P,J401,7,NC*%
%TO.N,unconnected-(J401-NC-Pad7)*%
X121175000Y-129650000D03*
%TO.P,J401,8,CHS_GND*%
%TO.N,GND*%
X122445000Y-127110000D03*
D49*
%TO.P,J401,9*%
%TO.N,+3.3V*%
X111375000Y-140900000D03*
%TO.P,J401,10*%
%TO.N,/Ethernet/G_K*%
X113915000Y-140900000D03*
%TO.P,J401,11*%
%TO.N,/Ethernet/Y_K*%
X122085000Y-140900000D03*
%TO.P,J401,12*%
%TO.N,+3.3V*%
X124625000Y-140900000D03*
D50*
%TO.P,J401,S1,SHIELD*%
%TO.N,GND*%
X125745000Y-132950000D03*
%TO.P,J401,S2,SHIELD*%
X110255000Y-132950000D03*
%TD*%
D51*
%TO.P,S301,1,NO_1*%
%TO.N,unconnected-(S301-NO_1-Pad1)*%
X175925000Y-56675000D03*
%TO.P,S301,2,NO_2*%
%TO.N,NRST*%
X180075000Y-56675000D03*
%TO.P,S301,3,COM_1*%
%TO.N,GND*%
X175925000Y-58825000D03*
%TO.P,S301,4,COM_2*%
%TO.N,unconnected-(S301-COM_2-Pad4)*%
X180075000Y-58825000D03*
%TD*%
%TO.P,S302,1,NO_1*%
%TO.N,unconnected-(S302-NO_1-Pad1)*%
X166675000Y-56675000D03*
%TO.P,S302,2,NO_2*%
%TO.N,BTN*%
X170825000Y-56675000D03*
%TO.P,S302,3,COM_1*%
%TO.N,GND*%
X166675000Y-58825000D03*
%TO.P,S302,4,COM_2*%
%TO.N,unconnected-(S302-COM_2-Pad4)*%
X170825000Y-58825000D03*
%TD*%
D11*
%TO.P,R205,1*%
%TO.N,+5V*%
X167010000Y-114500000D03*
%TO.P,R205,2*%
%TO.N,/Power/5V_LED_A*%
X165990000Y-114500000D03*
%TD*%
D23*
%TO.P,FB401,1*%
%TO.N,+3.3VA*%
X128368056Y-120014910D03*
%TO.P,FB401,2*%
%TO.N,+3.3V*%
X129089304Y-120736158D03*
%TD*%
D24*
%TO.P,J201,1,Pin_1*%
%TO.N,VIN_RAW*%
X183000000Y-129540000D03*
D25*
%TO.P,J201,2,Pin_2*%
%TO.N,GND*%
X183000000Y-124460000D03*
%TD*%
D21*
%TO.P,C303,1*%
%TO.N,GND*%
X124000000Y-107960000D03*
%TO.P,C303,2*%
%TO.N,+3.3V*%
X124000000Y-107000000D03*
%TD*%
D52*
%TO.P,D304,1,K*%
%TO.N,VIN*%
X103500000Y-94650000D03*
%TO.P,D304,2,A*%
%TO.N,VBUS*%
X103500000Y-92550000D03*
%TD*%
D31*
%TO.P,H103,1,1*%
%TO.N,unconnected-(H103-Pad1)*%
X187000000Y-58000000D03*
%TD*%
D33*
%TO.P,C407,1*%
%TO.N,+3.3VA*%
X127689269Y-120736123D03*
%TO.P,C407,2*%
%TO.N,GND*%
X128368091Y-121414945D03*
%TD*%
D22*
%TO.P,C318,1*%
%TO.N,+3.3V*%
X148980000Y-112500000D03*
%TO.P,C318,2*%
%TO.N,GND*%
X148020000Y-112500000D03*
%TD*%
D11*
%TO.P,R306,1*%
%TO.N,BOOT0*%
X139250000Y-87500000D03*
%TO.P,R306,2*%
%TO.N,GND*%
X138230000Y-87500000D03*
%TD*%
D29*
%TO.P,R405,1*%
%TO.N,+3.3V*%
X131690000Y-110700000D03*
%TO.P,R405,2*%
%TO.N,ETH_MDIO*%
X132710000Y-110700000D03*
%TD*%
D22*
%TO.P,C5,1*%
%TO.N,+3.3V*%
X157480000Y-131500000D03*
%TO.P,C5,2*%
%TO.N,GND*%
X156520000Y-131500000D03*
%TD*%
D53*
%TO.P,IC401,1,VDD2A*%
%TO.N,+3.3VA*%
X127396447Y-118582641D03*
%TO.P,IC401,2,LED2/~{INTSEL}*%
%TO.N,/Ethernet/LED2*%
X127750000Y-118229088D03*
%TO.P,IC401,3,LED1/REGOFF*%
%TO.N,/Ethernet/LED1*%
X128103554Y-117875534D03*
%TO.P,IC401,4,XTAL2*%
%TO.N,unconnected-(IC401-XTAL2-Pad4)*%
X128457107Y-117521981D03*
%TO.P,IC401,5,XTAL1/CLKIN*%
%TO.N,ETH_REF_CLK*%
X128810661Y-117168427D03*
%TO.P,IC401,6,VDDCR*%
%TO.N,/Ethernet/VDDCR*%
X129164214Y-116814874D03*
D54*
%TO.P,IC401,7,RXD1/MODE1*%
%TO.N,ETH_RXD1*%
X129164214Y-115754214D03*
%TO.P,IC401,8,RXD0/MODE0*%
%TO.N,ETH_RXD0*%
X128810661Y-115400661D03*
%TO.P,IC401,9,VDDIO*%
%TO.N,+3.3V*%
X128457107Y-115047107D03*
%TO.P,IC401,10,RXER/PHYAD0*%
%TO.N,/Ethernet/PHYAD0*%
X128103554Y-114693554D03*
%TO.P,IC401,11,CRS_DV/MODE2*%
%TO.N,ETH_CRS_DV*%
X127750000Y-114340000D03*
%TO.P,IC401,12,MDIO*%
%TO.N,ETH_MDIO*%
X127396447Y-113986447D03*
D53*
%TO.P,IC401,13,MDC*%
%TO.N,ETH_MDC*%
X126335787Y-113986447D03*
%TO.P,IC401,14,~{INT}/REFCLKO*%
%TO.N,ETH_INT*%
X125982234Y-114340000D03*
%TO.P,IC401,15,~{RST}*%
%TO.N,ETH_RST*%
X125628680Y-114693554D03*
%TO.P,IC401,16,TXEN*%
%TO.N,ETH_TX_EN*%
X125275127Y-115047107D03*
%TO.P,IC401,17,TXD0*%
%TO.N,ETH_TXD0*%
X124921573Y-115400661D03*
%TO.P,IC401,18,TXD1*%
%TO.N,ETH_TXD1*%
X124568020Y-115754214D03*
D54*
%TO.P,IC401,19,VDD1A*%
%TO.N,+3.3VA*%
X124568020Y-116814874D03*
%TO.P,IC401,20,TXN*%
%TO.N,/Ethernet/TXN*%
X124921573Y-117168427D03*
%TO.P,IC401,21,TXP*%
%TO.N,/Ethernet/TXP*%
X125275127Y-117521981D03*
%TO.P,IC401,22,RXN*%
%TO.N,/Ethernet/RXN*%
X125628680Y-117875534D03*
%TO.P,IC401,23,RXP*%
%TO.N,/Ethernet/RXP*%
X125982234Y-118229088D03*
%TO.P,IC401,24,RBIAS*%
%TO.N,/Ethernet/RBIAS*%
X126335787Y-118582641D03*
D55*
%TO.P,IC401,25,VSS*%
%TO.N,GND*%
X126866117Y-116284544D03*
%TD*%
D10*
%TO.P,C326,1*%
%TO.N,BTN*%
X173000000Y-58270000D03*
%TO.P,C326,2*%
%TO.N,GND*%
X173000000Y-59230000D03*
%TD*%
D21*
%TO.P,C312,1*%
%TO.N,+3.3V*%
X132500000Y-99480000D03*
%TO.P,C312,2*%
%TO.N,GND*%
X132500000Y-98520000D03*
%TD*%
D22*
%TO.P,C401,1*%
%TO.N,GND*%
X131280000Y-114000000D03*
%TO.P,C401,2*%
%TO.N,+3.3V*%
X130320000Y-114000000D03*
%TD*%
%TO.P,C319,1*%
%TO.N,+3.3V*%
X143980000Y-112500000D03*
%TO.P,C319,2*%
%TO.N,GND*%
X143020000Y-112500000D03*
%TD*%
D12*
%TO.P,R305,1*%
%TO.N,NRST*%
X182250000Y-57260000D03*
%TO.P,R305,2*%
%TO.N,+3.3V*%
X182250000Y-56240000D03*
%TD*%
D30*
%TO.P,C210,1*%
%TO.N,+3.3V*%
X181250000Y-109475000D03*
%TO.P,C210,2*%
%TO.N,GND*%
X181250000Y-111025000D03*
%TD*%
D27*
%TO.P,C209,1*%
%TO.N,+5V*%
X170225000Y-126412000D03*
%TO.P,C209,2*%
%TO.N,GND*%
X171775000Y-126412000D03*
%TD*%
D21*
%TO.P,C311,1*%
%TO.N,+3.3V*%
X132500000Y-93730000D03*
%TO.P,C311,2*%
%TO.N,GND*%
X132500000Y-92770000D03*
%TD*%
D31*
%TO.P,H105,1,1*%
%TO.N,unconnected-(H105-Pad1)*%
X120000000Y-100000000D03*
%TD*%
D10*
%TO.P,C205,1*%
%TO.N,/Power/5V_BST*%
X173250000Y-127182000D03*
%TO.P,C205,2*%
%TO.N,/Power/5V_SW*%
X173250000Y-128142000D03*
%TD*%
D29*
%TO.P,R204,1*%
%TO.N,/Power/3V3_FB*%
X179220000Y-115000000D03*
%TO.P,R204,2*%
%TO.N,GND*%
X180240000Y-115000000D03*
%TD*%
%TO.P,R404,1*%
%TO.N,+3.3V*%
X133990000Y-112900000D03*
%TO.P,R404,2*%
%TO.N,ETH_CRS_DV*%
X135010000Y-112900000D03*
%TD*%
D21*
%TO.P,C302,1*%
%TO.N,GND*%
X124000000Y-100960000D03*
%TO.P,C302,2*%
%TO.N,+3.3V*%
X124000000Y-100000000D03*
%TD*%
D11*
%TO.P,R206,1*%
%TO.N,+3.3V*%
X167010000Y-108000000D03*
%TO.P,R206,2*%
%TO.N,/Power/3V3_LED_A*%
X165990000Y-108000000D03*
%TD*%
D31*
%TO.P,H106,1,1*%
%TO.N,unconnected-(H106-Pad1)*%
X170000000Y-100000000D03*
%TD*%
D56*
%TO.P,C408,1*%
%TO.N,+3.3VA*%
X120339411Y-122860589D03*
%TO.P,C408,2*%
%TO.N,GND*%
X119660589Y-123539411D03*
%TD*%
D15*
%TO.P,C321,1*%
%TO.N,+3.3V*%
X147520000Y-87500000D03*
%TO.P,C321,2*%
%TO.N,GND*%
X148480000Y-87500000D03*
%TD*%
D57*
%TO.P,FL301,1,WP/CD*%
%TO.N,SDMMC1_CD*%
X123000000Y-67200000D03*
%TO.P,FL301,2,RDAT3_GND*%
%TO.N,unconnected-(FL301-RDAT3_GND-Pad2)*%
X123000000Y-66800000D03*
%TO.P,FL301,3,DAT2_IN*%
%TO.N,SDMMC1_DAT2*%
X123000000Y-66400000D03*
%TO.P,FL301,4,DAT3_IN*%
%TO.N,SDMMC1_DAT3*%
X123000000Y-66000000D03*
%TO.P,FL301,5,CMD_IN*%
%TO.N,SDMMC1_CMD*%
X123000000Y-65600000D03*
%TO.P,FL301,6,CLK_IN*%
%TO.N,SDMMC1_CLK*%
X123000000Y-65200000D03*
%TO.P,FL301,7,DAT0_IN*%
%TO.N,SDMMC1_DAT0*%
X123000000Y-64800000D03*
%TO.P,FL301,8,DAT1_IN*%
%TO.N,SDMMC1_DAT1*%
X123000000Y-64400000D03*
%TO.P,FL301,9,DAT1_EX*%
%TO.N,/Microcontroller/DAT1*%
X121850000Y-64400000D03*
%TO.P,FL301,10,DAT0_EX*%
%TO.N,/Microcontroller/DAT0*%
X121850000Y-64800000D03*
%TO.P,FL301,11,CLK_EX*%
%TO.N,/Microcontroller/CLK*%
X121850000Y-65200000D03*
%TO.P,FL301,12,CMD_EX*%
%TO.N,/Microcontroller/CMD*%
X121850000Y-65600000D03*
%TO.P,FL301,13,DAT3_EX*%
%TO.N,/Microcontroller/DAT3*%
X121850000Y-66000000D03*
%TO.P,FL301,14,DAT2_EX*%
%TO.N,/Microcontroller/DAT2*%
X121850000Y-66400000D03*
%TO.P,FL301,15,VCC*%
%TO.N,+3.3V*%
X121850000Y-66800000D03*
%TO.P,FL301,16,RDATA_VCC*%
X121850000Y-67200000D03*
D58*
%TO.P,FL301,17,EP_(GND)*%
%TO.N,GND*%
X122425000Y-65800000D03*
%TD*%
D10*
%TO.P,C327,1*%
%TO.N,+3.3V*%
X157500000Y-103020000D03*
%TO.P,C327,2*%
%TO.N,GND*%
X157500000Y-103980000D03*
%TD*%
%TO.P,C203,1*%
%TO.N,VIN*%
X175750000Y-125182000D03*
%TO.P,C203,2*%
%TO.N,GND*%
X175750000Y-126142000D03*
%TD*%
D59*
%TO.P,Q201,1,D_1*%
%TO.N,VIN_RAW*%
X183775000Y-120650000D03*
%TO.P,Q201,2,D_2*%
X183775000Y-120000000D03*
D60*
%TO.P,Q201,3,G*%
%TO.N,/Power/RP_PMOS_G*%
X183700000Y-119350000D03*
%TO.P,Q201,4,S_1*%
%TO.N,VIN*%
X181900000Y-119350000D03*
D59*
%TO.P,Q201,5,D_3*%
%TO.N,VIN_RAW*%
X181825000Y-120000000D03*
%TO.P,Q201,6,D_4*%
X181825000Y-120650000D03*
D61*
%TO.P,Q201,7,S_2*%
%TO.N,VIN*%
X182800000Y-119350000D03*
D62*
%TO.P,Q201,8,D_5*%
%TO.N,VIN_RAW*%
X182800000Y-120325000D03*
%TD*%
D31*
%TO.P,H102,1,1*%
%TO.N,unconnected-(H102-Pad1)*%
X103000000Y-142000000D03*
%TD*%
D63*
%TO.P,D204,1,K*%
%TO.N,VIN*%
X186000000Y-116250000D03*
%TO.P,D204,2,A*%
%TO.N,/Power/RP_PMOS_G*%
X186000000Y-119750000D03*
%TD*%
D64*
%TO.P,IC301,1,PE2*%
%TO.N,unconnected-(IC301-PE2-Pad1)*%
X134262000Y-91250000D03*
%TO.P,IC301,2,PE3*%
%TO.N,unconnected-(IC301-PE3-Pad2)*%
X134262000Y-91750000D03*
%TO.P,IC301,3,PE4*%
%TO.N,unconnected-(IC301-PE4-Pad3)*%
X134262000Y-92250000D03*
%TO.P,IC301,4,PE5*%
%TO.N,unconnected-(IC301-PE5-Pad4)*%
X134262000Y-92750000D03*
%TO.P,IC301,5,PE6*%
%TO.N,unconnected-(IC301-PE6-Pad5)*%
X134262000Y-93250000D03*
%TO.P,IC301,6,VBAT*%
%TO.N,+3.3V*%
X134262000Y-93750000D03*
%TO.P,IC301,7,PC13*%
%TO.N,unconnected-(IC301-PC13-Pad7)*%
X134262000Y-94250000D03*
%TO.P,IC301,8,PC14-OSC32_IN*%
%TO.N,OSC32K*%
X134262000Y-94750000D03*
%TO.P,IC301,9,PC15-OSC32_OUT*%
%TO.N,unconnected-(IC301-PC15-OSC32_OUT-Pad9)*%
X134262000Y-95250000D03*
%TO.P,IC301,10,PF0*%
%TO.N,LEDG*%
X134262000Y-95750000D03*
%TO.P,IC301,11,PF1*%
%TO.N,LEDR*%
X134262000Y-96250000D03*
%TO.P,IC301,12,PF2*%
%TO.N,LEDB*%
X134262000Y-96750000D03*
%TO.P,IC301,13,PF3*%
%TO.N,ETH_RST*%
X134262000Y-97250000D03*
%TO.P,IC301,14,PF4*%
%TO.N,ETH_INT*%
X134262000Y-97750000D03*
%TO.P,IC301,15,PF5*%
%TO.N,unconnected-(IC301-PF5-Pad15)*%
X134262000Y-98250000D03*
%TO.P,IC301,16,VSS_1*%
%TO.N,GND*%
X134262000Y-98750000D03*
%TO.P,IC301,17,VDD_1*%
%TO.N,+3.3V*%
X134262000Y-99250000D03*
%TO.P,IC301,18,PF6*%
%TO.N,CAN_RX3*%
X134262000Y-99750000D03*
%TO.P,IC301,19,PF7*%
%TO.N,CAN_TX3*%
X134262000Y-100250000D03*
%TO.P,IC301,20,PF8*%
%TO.N,unconnected-(IC301-PF8-Pad20)*%
X134262000Y-100750000D03*
%TO.P,IC301,21,PF9*%
%TO.N,unconnected-(IC301-PF9-Pad21)*%
X134262000Y-101250000D03*
%TO.P,IC301,22,PF10*%
%TO.N,unconnected-(IC301-PF10-Pad22)*%
X134262000Y-101750000D03*
%TO.P,IC301,23,PH0-OSC_IN*%
%TO.N,OSC25M*%
X134262000Y-102250000D03*
%TO.P,IC301,24,PH1-OSC_OUT*%
%TO.N,unconnected-(IC301-PH1-OSC_OUT-Pad24)*%
X134262000Y-102750000D03*
%TO.P,IC301,25,NRST*%
%TO.N,NRST*%
X134262000Y-103250000D03*
%TO.P,IC301,26,PC0*%
%TO.N,unconnected-(IC301-PC0-Pad26)*%
X134262000Y-103750000D03*
%TO.P,IC301,27,PC1*%
%TO.N,ETH_MDC*%
X134262000Y-104250000D03*
%TO.P,IC301,28,PC2_C*%
%TO.N,unconnected-(IC301-PC2_C-Pad28)*%
X134262000Y-104750000D03*
%TO.P,IC301,29,PC3_C*%
%TO.N,GND*%
X134262000Y-105250000D03*
%TO.P,IC301,30,VDD_2*%
%TO.N,+3.3V*%
X134262000Y-105750000D03*
%TO.P,IC301,31,VSSA*%
%TO.N,GND*%
X134262000Y-106250000D03*
%TO.P,IC301,32,VREF+*%
%TO.N,/Microcontroller/VREF+*%
X134262000Y-106750000D03*
%TO.P,IC301,33,VDDA*%
%TO.N,+3.3V*%
X134262000Y-107250000D03*
%TO.P,IC301,34,PA0*%
%TO.N,unconnected-(IC301-PA0-Pad34)*%
X134262000Y-107750000D03*
%TO.P,IC301,35,PA1*%
%TO.N,ETH_REF_CLK*%
X134262000Y-108250000D03*
%TO.P,IC301,36,PA2*%
%TO.N,ETH_MDIO*%
X134262000Y-108750000D03*
D65*
%TO.P,IC301,37,PA3*%
%TO.N,unconnected-(IC301-PA3-Pad37)*%
X136250000Y-110738000D03*
%TO.P,IC301,38,VSS_2*%
%TO.N,GND*%
X136750000Y-110738000D03*
%TO.P,IC301,39,VDD_3*%
%TO.N,+3.3V*%
X137250000Y-110738000D03*
%TO.P,IC301,40,PA4*%
%TO.N,unconnected-(IC301-PA4-Pad40)*%
X137750000Y-110738000D03*
%TO.P,IC301,41,PA5*%
%TO.N,unconnected-(IC301-PA5-Pad41)*%
X138250000Y-110738000D03*
%TO.P,IC301,42,PA6*%
%TO.N,unconnected-(IC301-PA6-Pad42)*%
X138750000Y-110738000D03*
%TO.P,IC301,43,PA7*%
%TO.N,ETH_CRS_DV*%
X139250000Y-110738000D03*
%TO.P,IC301,44,PC4*%
%TO.N,ETH_RXD0*%
X139750000Y-110738000D03*
%TO.P,IC301,45,PC5*%
%TO.N,ETH_RXD1*%
X140250000Y-110738000D03*
%TO.P,IC301,46,PB0*%
%TO.N,unconnected-(IC301-PB0-Pad46)*%
X140750000Y-110738000D03*
%TO.P,IC301,47,PB1*%
%TO.N,SILENT1*%
X141250000Y-110738000D03*
%TO.P,IC301,48,PB2*%
%TO.N,unconnected-(IC301-PB2-Pad48)*%
X141750000Y-110738000D03*
%TO.P,IC301,49,PF11*%
%TO.N,unconnected-(IC301-PF11-Pad49)*%
X142250000Y-110738000D03*
%TO.P,IC301,50,PF12*%
%TO.N,unconnected-(IC301-PF12-Pad50)*%
X142750000Y-110738000D03*
%TO.P,IC301,51,VSS_3*%
%TO.N,GND*%
X143250000Y-110738000D03*
%TO.P,IC301,52,VDD_4*%
%TO.N,+3.3V*%
X143750000Y-110738000D03*
%TO.P,IC301,53,PF13*%
%TO.N,unconnected-(IC301-PF13-Pad53)*%
X144250000Y-110738000D03*
%TO.P,IC301,54,PF14*%
%TO.N,unconnected-(IC301-PF14-Pad54)*%
X144750000Y-110738000D03*
%TO.P,IC301,55,PF15*%
%TO.N,unconnected-(IC301-PF15-Pad55)*%
X145250000Y-110738000D03*
%TO.P,IC301,56,PG0*%
%TO.N,unconnected-(IC301-PG0-Pad56)*%
X145750000Y-110738000D03*
%TO.P,IC301,57,PG1*%
%TO.N,unconnected-(IC301-PG1-Pad57)*%
X146250000Y-110738000D03*
%TO.P,IC301,58,PE7*%
%TO.N,unconnected-(IC301-PE7-Pad58)*%
X146750000Y-110738000D03*
%TO.P,IC301,59,PE8*%
%TO.N,unconnected-(IC301-PE8-Pad59)*%
X147250000Y-110738000D03*
%TO.P,IC301,60,PE9*%
%TO.N,unconnected-(IC301-PE9-Pad60)*%
X147750000Y-110738000D03*
%TO.P,IC301,61,VSS_4*%
%TO.N,GND*%
X148250000Y-110738000D03*
%TO.P,IC301,62,VDD_5*%
%TO.N,+3.3V*%
X148750000Y-110738000D03*
%TO.P,IC301,63,PE10*%
%TO.N,unconnected-(IC301-PE10-Pad63)*%
X149250000Y-110738000D03*
%TO.P,IC301,64,PE11*%
%TO.N,SILENT2*%
X149750000Y-110738000D03*
%TO.P,IC301,65,PE12*%
%TO.N,SILENT3*%
X150250000Y-110738000D03*
%TO.P,IC301,66,PE13*%
%TO.N,unconnected-(IC301-PE13-Pad66)*%
X150750000Y-110738000D03*
%TO.P,IC301,67,PE14*%
%TO.N,unconnected-(IC301-PE14-Pad67)*%
X151250000Y-110738000D03*
%TO.P,IC301,68,PE15*%
%TO.N,unconnected-(IC301-PE15-Pad68)*%
X151750000Y-110738000D03*
%TO.P,IC301,69,PB10*%
%TO.N,unconnected-(IC301-PB10-Pad69)*%
X152250000Y-110738000D03*
%TO.P,IC301,70,PB11*%
%TO.N,ETH_TX_EN*%
X152750000Y-110738000D03*
%TO.P,IC301,71,VCAP_1*%
%TO.N,/Microcontroller/VCAP1*%
X153250000Y-110738000D03*
%TO.P,IC301,72,VDD_6*%
%TO.N,+3.3V*%
X153750000Y-110738000D03*
D64*
%TO.P,IC301,73,PB12*%
%TO.N,ETH_TXD0*%
X155738000Y-108750000D03*
%TO.P,IC301,74,PB13*%
%TO.N,ETH_TXD1*%
X155738000Y-108250000D03*
%TO.P,IC301,75,PB14*%
%TO.N,unconnected-(IC301-PB14-Pad75)*%
X155738000Y-107750000D03*
%TO.P,IC301,76,PB15*%
%TO.N,unconnected-(IC301-PB15-Pad76)*%
X155738000Y-107250000D03*
%TO.P,IC301,77,PD8*%
%TO.N,unconnected-(IC301-PD8-Pad77)*%
X155738000Y-106750000D03*
%TO.P,IC301,78,PD9*%
%TO.N,unconnected-(IC301-PD9-Pad78)*%
X155738000Y-106250000D03*
%TO.P,IC301,79,PD10*%
%TO.N,unconnected-(IC301-PD10-Pad79)*%
X155738000Y-105750000D03*
%TO.P,IC301,80,PD11*%
%TO.N,unconnected-(IC301-PD11-Pad80)*%
X155738000Y-105250000D03*
%TO.P,IC301,81,PD12*%
%TO.N,unconnected-(IC301-PD12-Pad81)*%
X155738000Y-104750000D03*
%TO.P,IC301,82,PD13*%
%TO.N,unconnected-(IC301-PD13-Pad82)*%
X155738000Y-104250000D03*
%TO.P,IC301,83,VSS_5*%
%TO.N,GND*%
X155738000Y-103750000D03*
%TO.P,IC301,84,VDD_7*%
%TO.N,+3.3V*%
X155738000Y-103250000D03*
%TO.P,IC301,85,PD14*%
%TO.N,unconnected-(IC301-PD14-Pad85)*%
X155738000Y-102750000D03*
%TO.P,IC301,86,PD15*%
%TO.N,unconnected-(IC301-PD15-Pad86)*%
X155738000Y-102250000D03*
%TO.P,IC301,87,PG2*%
%TO.N,unconnected-(IC301-PG2-Pad87)*%
X155738000Y-101750000D03*
%TO.P,IC301,88,PG3*%
%TO.N,unconnected-(IC301-PG3-Pad88)*%
X155738000Y-101250000D03*
%TO.P,IC301,89,PG4*%
%TO.N,unconnected-(IC301-PG4-Pad89)*%
X155738000Y-100750000D03*
%TO.P,IC301,90,PG5*%
%TO.N,unconnected-(IC301-PG5-Pad90)*%
X155738000Y-100250000D03*
%TO.P,IC301,91,PG6*%
%TO.N,unconnected-(IC301-PG6-Pad91)*%
X155738000Y-99750000D03*
%TO.P,IC301,92,PG7*%
%TO.N,unconnected-(IC301-PG7-Pad92)*%
X155738000Y-99250000D03*
%TO.P,IC301,93,PG8*%
%TO.N,unconnected-(IC301-PG8-Pad93)*%
X155738000Y-98750000D03*
%TO.P,IC301,94,VSS_6*%
%TO.N,GND*%
X155738000Y-98250000D03*
%TO.P,IC301,95,VDD33USB*%
%TO.N,+3.3V*%
X155738000Y-97750000D03*
%TO.P,IC301,96,PC6*%
%TO.N,unconnected-(IC301-PC6-Pad96)*%
X155738000Y-97250000D03*
%TO.P,IC301,97,PC7*%
%TO.N,unconnected-(IC301-PC7-Pad97)*%
X155738000Y-96750000D03*
%TO.P,IC301,98,PC8*%
%TO.N,SDMMC1_DAT0*%
X155738000Y-96250000D03*
%TO.P,IC301,99,PC9*%
%TO.N,SDMMC1_DAT1*%
X155738000Y-95750000D03*
%TO.P,IC301,100,PA8*%
%TO.N,SDMMC1_CD*%
X155738000Y-95250000D03*
%TO.P,IC301,101,PA9*%
%TO.N,unconnected-(IC301-PA9-Pad101)*%
X155738000Y-94750000D03*
%TO.P,IC301,102,PA10*%
%TO.N,unconnected-(IC301-PA10-Pad102)*%
X155738000Y-94250000D03*
%TO.P,IC301,103,PA11*%
%TO.N,USB_DN*%
X155738000Y-93750000D03*
%TO.P,IC301,104,PA12*%
%TO.N,USB_DP*%
X155738000Y-93250000D03*
%TO.P,IC301,105,PA13*%
%TO.N,SWDIO*%
X155738000Y-92750000D03*
%TO.P,IC301,106,VCAP_2*%
%TO.N,/Microcontroller/VCAP2*%
X155738000Y-92250000D03*
%TO.P,IC301,107,VSS_7*%
%TO.N,GND*%
X155738000Y-91750000D03*
%TO.P,IC301,108,VDD_8*%
%TO.N,+3.3V*%
X155738000Y-91250000D03*
D65*
%TO.P,IC301,109,PA14*%
%TO.N,SWCLK*%
X153750000Y-89262000D03*
%TO.P,IC301,110,PA15*%
%TO.N,unconnected-(IC301-PA15-Pad110)*%
X153250000Y-89262000D03*
%TO.P,IC301,111,PC10*%
%TO.N,SDMMC1_DAT2*%
X152750000Y-89262000D03*
%TO.P,IC301,112,PC11*%
%TO.N,SDMMC1_DAT3*%
X152250000Y-89262000D03*
%TO.P,IC301,113,PC12*%
%TO.N,SDMMC1_CLK*%
X151750000Y-89262000D03*
%TO.P,IC301,114,PD0*%
%TO.N,CAN_RX1*%
X151250000Y-89262000D03*
%TO.P,IC301,115,PD1*%
%TO.N,CAN_TX1*%
X150750000Y-89262000D03*
%TO.P,IC301,116,PD2*%
%TO.N,SDMMC1_CMD*%
X150250000Y-89262000D03*
%TO.P,IC301,117,PD3*%
%TO.N,unconnected-(IC301-PD3-Pad117)*%
X149750000Y-89262000D03*
%TO.P,IC301,118,PD4*%
%TO.N,unconnected-(IC301-PD4-Pad118)*%
X149250000Y-89262000D03*
%TO.P,IC301,119,PD5*%
%TO.N,unconnected-(IC301-PD5-Pad119)*%
X148750000Y-89262000D03*
%TO.P,IC301,120,VSS_8*%
%TO.N,GND*%
X148250000Y-89262000D03*
%TO.P,IC301,121,VDD_9*%
%TO.N,+3.3V*%
X147750000Y-89262000D03*
%TO.P,IC301,122,PD6*%
%TO.N,unconnected-(IC301-PD6-Pad122)*%
X147250000Y-89262000D03*
%TO.P,IC301,123,PD7*%
%TO.N,BTN*%
X146750000Y-89262000D03*
%TO.P,IC301,124,PG9*%
%TO.N,unconnected-(IC301-PG9-Pad124)*%
X146250000Y-89262000D03*
%TO.P,IC301,125,PG10*%
%TO.N,unconnected-(IC301-PG10-Pad125)*%
X145750000Y-89262000D03*
%TO.P,IC301,126,PG11*%
%TO.N,unconnected-(IC301-PG11-Pad126)*%
X145250000Y-89262000D03*
%TO.P,IC301,127,PG12*%
%TO.N,unconnected-(IC301-PG12-Pad127)*%
X144750000Y-89262000D03*
%TO.P,IC301,128,PG13*%
%TO.N,unconnected-(IC301-PG13-Pad128)*%
X144250000Y-89262000D03*
%TO.P,IC301,129,PG14*%
%TO.N,unconnected-(IC301-PG14-Pad129)*%
X143750000Y-89262000D03*
%TO.P,IC301,130,VSS_9*%
%TO.N,GND*%
X143250000Y-89262000D03*
%TO.P,IC301,131,VDD_10*%
%TO.N,+3.3V*%
X142750000Y-89262000D03*
%TO.P,IC301,132,PG15*%
%TO.N,unconnected-(IC301-PG15-Pad132)*%
X142250000Y-89262000D03*
%TO.P,IC301,133,PB3*%
%TO.N,SWO*%
X141750000Y-89262000D03*
%TO.P,IC301,134,PB4*%
%TO.N,unconnected-(IC301-PB4-Pad134)*%
X141250000Y-89262000D03*
%TO.P,IC301,135,PB5*%
%TO.N,CAN_RX2*%
X140750000Y-89262000D03*
%TO.P,IC301,136,PB6*%
%TO.N,CAN_TX2*%
X140250000Y-89262000D03*
%TO.P,IC301,137,PB7*%
%TO.N,unconnected-(IC301-PB7-Pad137)*%
X139750000Y-89262000D03*
%TO.P,IC301,138,BOOT0*%
%TO.N,BOOT0*%
X139250000Y-89262000D03*
%TO.P,IC301,139,PB8*%
%TO.N,unconnected-(IC301-PB8-Pad139)*%
X138750000Y-89262000D03*
%TO.P,IC301,140,PB9*%
%TO.N,unconnected-(IC301-PB9-Pad140)*%
X138250000Y-89262000D03*
%TO.P,IC301,141,PE0*%
%TO.N,unconnected-(IC301-PE0-Pad141)*%
X137750000Y-89262000D03*
%TO.P,IC301,142,PE1*%
%TO.N,unconnected-(IC301-PE1-Pad142)*%
X137250000Y-89262000D03*
%TO.P,IC301,143,PDR_ON*%
%TO.N,+3.3V*%
X136750000Y-89262000D03*
%TO.P,IC301,144,VDD_11*%
X136250000Y-89262000D03*
%TD*%
D22*
%TO.P,C307,1*%
%TO.N,+3.3V*%
X136255000Y-87500000D03*
%TO.P,C307,2*%
%TO.N,GND*%
X135295000Y-87500000D03*
%TD*%
D21*
%TO.P,C306,1*%
%TO.N,/Microcontroller/VREF+*%
X131400000Y-106980000D03*
%TO.P,C306,2*%
%TO.N,GND*%
X131400000Y-106020000D03*
%TD*%
D14*
%TO.P,D301,1,K*%
%TO.N,/Microcontroller/LEDR_K*%
X101722500Y-116000000D03*
%TO.P,D301,2,A*%
%TO.N,LEDR*%
X103297500Y-116000000D03*
%TD*%
D10*
%TO.P,C2,1*%
%TO.N,+5V*%
X148750000Y-116520000D03*
%TO.P,C2,2*%
%TO.N,GND*%
X148750000Y-117480000D03*
%TD*%
D30*
%TO.P,C201,1*%
%TO.N,VIN*%
X177250000Y-125637000D03*
%TO.P,C201,2*%
%TO.N,GND*%
X177250000Y-127187000D03*
%TD*%
D66*
%TO.N,GND*%
X180844549Y-115650000D03*
X154500000Y-94700000D03*
X180000000Y-111000000D03*
X182750000Y-112000000D03*
X131760000Y-98530000D03*
X151300000Y-112500000D03*
X146500000Y-92700000D03*
X178500000Y-128250000D03*
X136530000Y-113240000D03*
X121775000Y-114172000D03*
X159200000Y-98500000D03*
X115275000Y-66600000D03*
X132000000Y-114000000D03*
X160000000Y-122250000D03*
X130650000Y-106020000D03*
X149500000Y-117500000D03*
X139500000Y-116250000D03*
X158260000Y-103980000D03*
X179250000Y-109500000D03*
X117575000Y-66600000D03*
X135425000Y-106324500D03*
X126900000Y-117500000D03*
X172800000Y-124650000D03*
X156500000Y-132250000D03*
X128168000Y-122615000D03*
X107800000Y-88700000D03*
X178500000Y-127500000D03*
X130650000Y-104130000D03*
X188500000Y-116750000D03*
X119100000Y-123000000D03*
X123883180Y-122696563D03*
X126900000Y-115100000D03*
X148480000Y-86760000D03*
X154500000Y-92300000D03*
X126900000Y-116300000D03*
X103729000Y-122452000D03*
X124000000Y-94680000D03*
X180000000Y-110250000D03*
X161850000Y-114490000D03*
X128874000Y-121923000D03*
X154980000Y-113250000D03*
X121082000Y-114870000D03*
X135300000Y-88125000D03*
X172800000Y-124150000D03*
X131300000Y-118600000D03*
X114250000Y-86000000D03*
X143480000Y-86750000D03*
X177000000Y-128250000D03*
X127500000Y-116900000D03*
X183250000Y-112000000D03*
X177750000Y-128250000D03*
X124000000Y-101680000D03*
X103723000Y-117245000D03*
X179944549Y-117750000D03*
X126300000Y-115700000D03*
X115230000Y-88500000D03*
X179194549Y-117750000D03*
X173750000Y-59225000D03*
X174960000Y-58830000D03*
X165710000Y-58820000D03*
X180000000Y-109500000D03*
X103724000Y-112466000D03*
X153500000Y-122250000D03*
X176400000Y-126600000D03*
X126300000Y-116900000D03*
X179194549Y-117000000D03*
X120592824Y-119405741D03*
X122425000Y-63900000D03*
X124010000Y-108680000D03*
X161840000Y-107990000D03*
X128100000Y-116300000D03*
X166500000Y-85200000D03*
X183000000Y-59225000D03*
X154588643Y-98497164D03*
X122900000Y-67900000D03*
X107800000Y-82300000D03*
X148020000Y-113240000D03*
X137520000Y-87510000D03*
X132000000Y-117900000D03*
X158240000Y-93480000D03*
X143030000Y-113250000D03*
X127491000Y-123330000D03*
X179194549Y-116250000D03*
X114250000Y-91000000D03*
X113000000Y-88500000D03*
X132000000Y-113024500D03*
X179250000Y-110250000D03*
X127500000Y-115700000D03*
X133100000Y-92775000D03*
X158250000Y-91480000D03*
X125700000Y-116300000D03*
X179250000Y-111000000D03*
X146500000Y-94300000D03*
X150000000Y-132250000D03*
X171800000Y-127400000D03*
X135425000Y-105175500D03*
X130650000Y-108870000D03*
%TO.N,+5V*%
X168500000Y-124500000D03*
X167500000Y-119500000D03*
X168500000Y-122500000D03*
X152530000Y-122230000D03*
X167500000Y-123500000D03*
X167750000Y-114500000D03*
X159050000Y-122240000D03*
X149510000Y-116520000D03*
X168500000Y-120500000D03*
X167500000Y-121500000D03*
%TO.N,VBUS*%
X107800000Y-87900000D03*
X107800000Y-83100000D03*
X110500000Y-88500000D03*
%TO.N,+3.3VA*%
X123378680Y-116125534D03*
X126878680Y-120375534D03*
X123378680Y-116875534D03*
X127378680Y-119875534D03*
X121975000Y-121225000D03*
X126878680Y-119375534D03*
X122950000Y-120230000D03*
X122628680Y-116875534D03*
X120855000Y-122345000D03*
%TO.N,+3.3V*%
X131760000Y-99490000D03*
X130650000Y-107920000D03*
X136250000Y-88125000D03*
X181250000Y-108500000D03*
X154010000Y-113250000D03*
X184500000Y-111000000D03*
X124800000Y-110800000D03*
X129600000Y-114000000D03*
X186000000Y-107750000D03*
X142510000Y-86760000D03*
X117550000Y-68800000D03*
X148990000Y-113250000D03*
X131000000Y-110700000D03*
X158250000Y-103010000D03*
X121950000Y-67900000D03*
X154588643Y-97502836D03*
X139500000Y-115250000D03*
X182750000Y-108500000D03*
X133100000Y-112900000D03*
X124000000Y-92280000D03*
X135750000Y-105750000D03*
X151000000Y-132250000D03*
X135700000Y-117200000D03*
X187500000Y-111000000D03*
X137480000Y-113250000D03*
X124000000Y-99280000D03*
X173750000Y-56225000D03*
X147510000Y-86760000D03*
X167750000Y-108000000D03*
X133125000Y-93750000D03*
X143990000Y-113250000D03*
X124000000Y-106280000D03*
X115275000Y-68800000D03*
X157500000Y-132250000D03*
X187500000Y-107750000D03*
X158250000Y-90520000D03*
X132570000Y-123990000D03*
X130650000Y-105080000D03*
X184500000Y-107750000D03*
X159200000Y-97500000D03*
X135450000Y-107250000D03*
X186000000Y-111000000D03*
X164400000Y-92400000D03*
X129582000Y-121231000D03*
X183000000Y-56250000D03*
%TO.N,NRST*%
X157400000Y-107600000D03*
X154200000Y-107600000D03*
%TO.N,SDMMC1_CD*%
X153750000Y-91424500D03*
X123675000Y-67200000D03*
X117575000Y-63300000D03*
X127500000Y-67250000D03*
X154500000Y-84750000D03*
%TO.N,SDMMC1_CMD*%
X143750000Y-78725500D03*
X145250000Y-80274500D03*
%TO.N,SDMMC1_DAT0*%
X152247097Y-91417114D03*
X153000000Y-84750000D03*
%TO.N,SDMMC1_DAT1*%
X153750000Y-84750000D03*
X153000000Y-91424500D03*
%TO.N,USB_DN*%
X115874177Y-88925000D03*
X113000000Y-89149503D03*
X109720000Y-86760000D03*
X147000000Y-93825000D03*
X154426078Y-93825000D03*
%TO.N,USB_DP*%
X113000000Y-87850497D03*
X154426078Y-93175000D03*
X115874177Y-88275000D03*
X147000000Y-93175000D03*
%TO.N,SWCLK*%
X157250000Y-89432500D03*
X154300000Y-89262000D03*
%TO.N,CAN_RX3*%
X154200000Y-106000000D03*
X159100000Y-108500000D03*
%TO.N,CAN_TX3*%
X154200000Y-106800000D03*
X159100000Y-107600000D03*
%TO.N,ETH_MDC*%
X129840000Y-108140000D03*
X129840000Y-110810000D03*
%TO.N,ETH_REF_CLK*%
X131900000Y-116300000D03*
X128100000Y-109900000D03*
%TO.N,SWO*%
X149900000Y-92000000D03*
X154500000Y-91400000D03*
%TO.N,ETH_TX_EN*%
X135600000Y-112100000D03*
X124500000Y-114200000D03*
%TO.N,BOOT0*%
X145500000Y-112500000D03*
X145500000Y-105400000D03*
%TO.N,ETH_TXD0*%
X136950000Y-108750000D03*
X127400000Y-112500000D03*
%TO.N,ETH_TXD1*%
X136450000Y-108150000D03*
X127800000Y-111825500D03*
%TO.N,CAN_RX1*%
X148380000Y-115100000D03*
X151410000Y-104000000D03*
%TO.N,CAN_TX1*%
X149700000Y-104000000D03*
X148380000Y-118900000D03*
%TO.N,CAN_RX2*%
X152600000Y-104700000D03*
X154700000Y-110400000D03*
%TO.N,CAN_TX2*%
X152700000Y-105700000D03*
X155300000Y-109700000D03*
%TO.N,ETH_INT*%
X125500000Y-113400000D03*
X124100000Y-111500000D03*
%TO.N,ETH_RST*%
X123400000Y-112200000D03*
X124700000Y-113500000D03*
%TO.N,/Ethernet/TXN*%
X120508599Y-118731487D03*
%TO.N,/Ethernet/TXP*%
X121100000Y-119000000D03*
%TO.N,/Ethernet/RXN*%
X124246751Y-122153249D03*
%TO.N,/Ethernet/RXP*%
X124529275Y-122763011D03*
%TO.N,VIN*%
X179000000Y-124750000D03*
X179000000Y-125500000D03*
X102250000Y-95750000D03*
X180000000Y-125500000D03*
X180000000Y-124750000D03*
X102250000Y-96750000D03*
X103500000Y-96750000D03*
X103500000Y-95750000D03*
%TO.N,BTN*%
X147800000Y-83700000D03*
X151050000Y-80450000D03*
%TD*%
D67*
%TO.N,GND*%
X171787000Y-124650000D02*
X171775000Y-124662000D01*
D68*
X131975500Y-113000000D02*
X132000000Y-113024500D01*
D67*
X121589269Y-115377269D02*
X121082000Y-114870000D01*
X175750000Y-127172000D02*
X175750000Y-126650000D01*
X130839411Y-118139411D02*
X131300000Y-118600000D01*
X138230000Y-87500000D02*
X137530000Y-87500000D01*
X180844549Y-115650000D02*
X180844549Y-115050000D01*
D69*
X116420000Y-66605000D02*
X115280000Y-66605000D01*
D67*
X131400000Y-108880000D02*
X132400000Y-108880000D01*
X176400000Y-126600000D02*
X176400000Y-127187000D01*
X176900000Y-128250000D02*
X177000000Y-128250000D01*
X161860000Y-114500000D02*
X161850000Y-114490000D01*
X124000000Y-93960000D02*
X125485000Y-93960000D01*
D69*
X180225000Y-115015000D02*
X180240000Y-115000000D01*
D67*
X124000000Y-100960000D02*
X124000000Y-101680000D01*
D68*
X174965000Y-58825000D02*
X174960000Y-58830000D01*
D67*
X157500000Y-103980000D02*
X158260000Y-103980000D01*
D69*
X177350000Y-128250000D02*
X177250000Y-128150000D01*
D67*
X157500000Y-98480000D02*
X158500000Y-98480000D01*
D68*
X122905000Y-67905000D02*
X122900000Y-67900000D01*
D67*
X143250000Y-89262000D02*
X143250000Y-87730000D01*
X143020000Y-112500000D02*
X143020000Y-113240000D01*
X124000000Y-107960000D02*
X125485000Y-107960000D01*
X153480000Y-123000000D02*
X153480000Y-122270000D01*
X131400000Y-104120000D02*
X132400000Y-104120000D01*
X131400000Y-106020000D02*
X130650000Y-106020000D01*
X103020000Y-117250000D02*
X103718000Y-117250000D01*
X139520000Y-116230000D02*
X139500000Y-116250000D01*
X148595000Y-117635000D02*
X148750000Y-117480000D01*
X148250000Y-110738000D02*
X148250000Y-112270000D01*
X188500000Y-117490000D02*
X188500000Y-116750000D01*
X160000000Y-123000000D02*
X160000000Y-122250000D01*
X131770000Y-98520000D02*
X131760000Y-98530000D01*
X130660000Y-108880000D02*
X130650000Y-108870000D01*
X133350000Y-105250000D02*
X133060000Y-104960000D01*
D68*
X164470000Y-87230000D02*
X166500000Y-85200000D01*
D67*
X175765000Y-127187000D02*
X175750000Y-127172000D01*
X126989304Y-122836158D02*
X126997158Y-122836158D01*
D68*
X164135000Y-87230000D02*
X164470000Y-87230000D01*
D67*
X124000000Y-107960000D02*
X124000000Y-108670000D01*
X135350500Y-106250000D02*
X135425000Y-106324500D01*
X132630000Y-106250000D02*
X132400000Y-106020000D01*
D68*
X123446563Y-122696563D02*
X122804334Y-122054334D01*
D67*
X149480000Y-117480000D02*
X149500000Y-117500000D01*
X128368091Y-121414945D02*
X128368091Y-121417091D01*
X133060000Y-104730000D02*
X132450000Y-104120000D01*
X135350500Y-105250000D02*
X135425000Y-105175500D01*
X161850000Y-108000000D02*
X161840000Y-107990000D01*
X172800000Y-124650000D02*
X172800000Y-124150000D01*
X130660000Y-104120000D02*
X130650000Y-104130000D01*
D68*
X122425000Y-67550000D02*
X122425000Y-65800000D01*
D67*
X147200000Y-117635000D02*
X148595000Y-117635000D01*
X134262000Y-98750000D02*
X132730000Y-98750000D01*
X137530000Y-87500000D02*
X137520000Y-87510000D01*
X158500000Y-98480000D02*
X159180000Y-98480000D01*
X143250000Y-87730000D02*
X143480000Y-87500000D01*
X128368091Y-121414945D02*
X128368091Y-121457371D01*
X155738000Y-103750000D02*
X157270000Y-103750000D01*
X162712500Y-114500000D02*
X161860000Y-114500000D01*
D68*
X182250000Y-59230000D02*
X182995000Y-59230000D01*
D67*
X176400000Y-127750000D02*
X176900000Y-128250000D01*
X160135000Y-124550000D02*
X160135000Y-123135000D01*
D68*
X166675000Y-58825000D02*
X165715000Y-58825000D01*
D67*
X181270000Y-115000000D02*
X180894549Y-115000000D01*
D69*
X178287000Y-127187000D02*
X177250000Y-127187000D01*
D67*
X125485000Y-100960000D02*
X125900000Y-101375000D01*
X135295000Y-87500000D02*
X135295000Y-88120000D01*
X159180000Y-98480000D02*
X159200000Y-98500000D01*
D69*
X116420000Y-66605000D02*
X117570000Y-66605000D01*
D67*
X157270000Y-98250000D02*
X157500000Y-98480000D01*
D68*
X123883180Y-122696563D02*
X123446563Y-122696563D01*
D67*
X155738000Y-91750000D02*
X157230000Y-91750000D01*
X154835807Y-98250000D02*
X154588643Y-98497164D01*
X125485000Y-107960000D02*
X125900000Y-108375000D01*
X119660589Y-123539411D02*
X119639411Y-123539411D01*
D68*
X122900000Y-67900000D02*
X122775000Y-67900000D01*
D67*
X157500000Y-91480000D02*
X158250000Y-91480000D01*
X148250000Y-89262000D02*
X148250000Y-87730000D01*
X128368091Y-121457371D02*
X126989304Y-122836158D01*
D69*
X180025000Y-111025000D02*
X180000000Y-111000000D01*
D67*
X140250000Y-116230000D02*
X139520000Y-116230000D01*
X136520000Y-113230000D02*
X136530000Y-113240000D01*
X148250000Y-87730000D02*
X148480000Y-87500000D01*
X180844549Y-115650000D02*
X180257549Y-115650000D01*
X156520000Y-131500000D02*
X156520000Y-132230000D01*
X133095000Y-92770000D02*
X133100000Y-92775000D01*
D69*
X181250000Y-111025000D02*
X180025000Y-111025000D01*
D67*
X162712500Y-108000000D02*
X161850000Y-108000000D01*
X183088000Y-112750000D02*
X183088000Y-112162000D01*
D69*
X178500000Y-127400000D02*
X178287000Y-127187000D01*
X171775000Y-124662000D02*
X171775000Y-126412000D01*
D67*
X148020000Y-112500000D02*
X148020000Y-113240000D01*
X154980000Y-112500000D02*
X154980000Y-113250000D01*
X134262000Y-106250000D02*
X132630000Y-106250000D01*
X175750000Y-126142000D02*
X175750000Y-126550000D01*
X177250000Y-127187000D02*
X176400000Y-127187000D01*
D68*
X122905000Y-68700000D02*
X122905000Y-67905000D01*
D69*
X177250000Y-128150000D02*
X177250000Y-127187000D01*
D67*
X157270000Y-103750000D02*
X157500000Y-103980000D01*
D68*
X165715000Y-58825000D02*
X165710000Y-58820000D01*
D67*
X124000000Y-108670000D02*
X124010000Y-108680000D01*
X148250000Y-112270000D02*
X148020000Y-112500000D01*
D68*
X114137500Y-88500000D02*
X113000000Y-88500000D01*
X131310000Y-113000000D02*
X131975500Y-113000000D01*
D67*
X122289123Y-114686123D02*
X121775000Y-114172000D01*
X155738000Y-98250000D02*
X154835807Y-98250000D01*
D68*
X173000000Y-59230000D02*
X173745000Y-59230000D01*
X131280000Y-114000000D02*
X132000000Y-114000000D01*
D67*
X148750000Y-117480000D02*
X149480000Y-117480000D01*
X126997158Y-122836158D02*
X127491000Y-123330000D01*
X125485000Y-93960000D02*
X125900000Y-94375000D01*
X155738000Y-98250000D02*
X157270000Y-98250000D01*
X128368091Y-121417091D02*
X128874000Y-121923000D01*
X130839411Y-118139411D02*
X131539411Y-117439411D01*
D68*
X122775000Y-67900000D02*
X122425000Y-67550000D01*
D67*
X124000000Y-100960000D02*
X125485000Y-100960000D01*
D69*
X117570000Y-66605000D02*
X117575000Y-66600000D01*
D67*
X143480000Y-87500000D02*
X143480000Y-86750000D01*
X143250000Y-112270000D02*
X143020000Y-112500000D01*
X157500000Y-93480000D02*
X158240000Y-93480000D01*
X136520000Y-112500000D02*
X136520000Y-113230000D01*
X172974000Y-124324000D02*
X172800000Y-124150000D01*
D68*
X113510000Y-86000000D02*
X114250000Y-86000000D01*
D67*
X119639411Y-123539411D02*
X119100000Y-123000000D01*
X180257549Y-115650000D02*
X179744549Y-115650000D01*
X180257549Y-115650000D02*
X180257549Y-115015000D01*
X180257549Y-116500000D02*
X180257549Y-115650000D01*
X176400000Y-127187000D02*
X175765000Y-127187000D01*
D68*
X173745000Y-59230000D02*
X173750000Y-59225000D01*
D67*
X134262000Y-106250000D02*
X135350500Y-106250000D01*
X132500000Y-98520000D02*
X131770000Y-98520000D01*
D68*
X114137500Y-88500000D02*
X115230000Y-88500000D01*
X182995000Y-59230000D02*
X183000000Y-59225000D01*
D67*
X173500000Y-124324000D02*
X172974000Y-124324000D01*
X127668091Y-122115091D02*
X128168000Y-122615000D01*
X143250000Y-110738000D02*
X143250000Y-112270000D01*
X124000000Y-93960000D02*
X124000000Y-94680000D01*
D69*
X115280000Y-66605000D02*
X115275000Y-66600000D01*
D67*
X133060000Y-104960000D02*
X133060000Y-104730000D01*
X176400000Y-127187000D02*
X176400000Y-127750000D01*
X103727000Y-122450000D02*
X103729000Y-122452000D01*
X175750000Y-126650000D02*
X175800000Y-126600000D01*
D69*
X178500000Y-127500000D02*
X178500000Y-127400000D01*
D67*
X103020000Y-122450000D02*
X103727000Y-122450000D01*
X134262000Y-105250000D02*
X133350000Y-105250000D01*
X160135000Y-123135000D02*
X160000000Y-123000000D01*
X153635000Y-124550000D02*
X153635000Y-123155000D01*
X135295000Y-88120000D02*
X135300000Y-88125000D01*
X132500000Y-92770000D02*
X133095000Y-92770000D01*
X127668091Y-122114945D02*
X127668091Y-122115091D01*
X122289269Y-114686123D02*
X122289123Y-114686123D01*
X134262000Y-105250000D02*
X135350500Y-105250000D01*
X156520000Y-132230000D02*
X156500000Y-132250000D01*
X132400000Y-106020000D02*
X131400000Y-106020000D01*
X150020000Y-131500000D02*
X150020000Y-132230000D01*
D68*
X122425000Y-65800000D02*
X122425000Y-63900000D01*
D67*
X132730000Y-98750000D02*
X132500000Y-98520000D01*
D68*
X113510000Y-91000000D02*
X114250000Y-91000000D01*
D67*
X153635000Y-123155000D02*
X153480000Y-123000000D01*
X103718000Y-117250000D02*
X103723000Y-117245000D01*
X183088000Y-112162000D02*
X183250000Y-112000000D01*
X152020000Y-112500000D02*
X151300000Y-112500000D01*
X121589269Y-115386123D02*
X121589269Y-115377269D01*
X180894549Y-115000000D02*
X180844549Y-115050000D01*
X175750000Y-126550000D02*
X175800000Y-126600000D01*
X172800000Y-124650000D02*
X171787000Y-124650000D01*
X150020000Y-132230000D02*
X150000000Y-132250000D01*
X136750000Y-110738000D02*
X136750000Y-112270000D01*
X157230000Y-91750000D02*
X157500000Y-91480000D01*
X176400000Y-126600000D02*
X175800000Y-126600000D01*
X131400000Y-104120000D02*
X130660000Y-104120000D01*
D69*
X106750000Y-88700000D02*
X107800000Y-88700000D01*
D67*
X136750000Y-112270000D02*
X136520000Y-112500000D01*
X131539411Y-117439411D02*
X132000000Y-117900000D01*
D69*
X106750000Y-82300000D02*
X107800000Y-82300000D01*
D67*
X153480000Y-122270000D02*
X153500000Y-122250000D01*
D69*
X182750000Y-111025000D02*
X181250000Y-111025000D01*
D67*
X143020000Y-113240000D02*
X143030000Y-113250000D01*
X103708000Y-112450000D02*
X103724000Y-112466000D01*
D69*
X177750000Y-128250000D02*
X177350000Y-128250000D01*
D67*
X131400000Y-108880000D02*
X130660000Y-108880000D01*
D68*
X175925000Y-58825000D02*
X174965000Y-58825000D01*
D67*
X103020000Y-112450000D02*
X103708000Y-112450000D01*
X132450000Y-104120000D02*
X132400000Y-104120000D01*
X148480000Y-87500000D02*
X148480000Y-86760000D01*
%TO.N,/Power/5V_BST*%
X173500000Y-126932000D02*
X173250000Y-127182000D01*
X173500000Y-126000000D02*
X173500000Y-126932000D01*
%TO.N,/Power/5V_SW*%
X172920000Y-127812000D02*
X172877035Y-127812000D01*
X172590000Y-125570000D02*
X172910000Y-125250000D01*
X174000000Y-124324000D02*
X174000000Y-121562000D01*
X173250000Y-128142000D02*
X172920000Y-127812000D01*
X172877035Y-127812000D02*
X172590000Y-127524965D01*
X174000000Y-121562000D02*
X173850000Y-121412000D01*
X174000000Y-124830750D02*
X174000000Y-124324000D01*
X173580750Y-125250000D02*
X174000000Y-124830750D01*
X172590000Y-127524965D02*
X172590000Y-125570000D01*
X172910000Y-125250000D02*
X173580750Y-125250000D01*
%TO.N,/Power/3V3_BST*%
X181412000Y-112750000D02*
X180230000Y-112750000D01*
%TO.N,/Power/3V3_SW*%
X179270000Y-112707035D02*
X179270000Y-112750000D01*
X182250000Y-112899500D02*
X182250000Y-112313173D01*
X182600500Y-113250000D02*
X182250000Y-112899500D01*
X179977035Y-112000000D02*
X179270000Y-112707035D01*
X181936827Y-112000000D02*
X179977035Y-112000000D01*
X182250000Y-112313173D02*
X181936827Y-112000000D01*
X183088000Y-113250000D02*
X182600500Y-113250000D01*
%TO.N,/Power/RP_PMOS_G*%
X184400000Y-119350000D02*
X184800000Y-119750000D01*
X187240000Y-118510000D02*
X186000000Y-119750000D01*
X184800000Y-119750000D02*
X186000000Y-119750000D01*
X183700000Y-119350000D02*
X184400000Y-119350000D01*
X188500000Y-118510000D02*
X187240000Y-118510000D01*
%TO.N,+5V*%
X158865000Y-124550000D02*
X158865000Y-123175000D01*
X152520000Y-122240000D02*
X152530000Y-122230000D01*
X170225000Y-127025000D02*
X170225000Y-126412000D01*
D69*
X170225000Y-124662000D02*
X170225000Y-126412000D01*
D67*
X148750000Y-116520000D02*
X149510000Y-116520000D01*
X148595000Y-116365000D02*
X148750000Y-116520000D01*
X147200000Y-116365000D02*
X148595000Y-116365000D01*
X173900000Y-128772000D02*
X171972000Y-128772000D01*
D69*
X168662000Y-124662000D02*
X168500000Y-124500000D01*
D67*
X152520000Y-123000000D02*
X152520000Y-122240000D01*
D69*
X170225000Y-126412000D02*
X169662000Y-126412000D01*
X169662000Y-126412000D02*
X168500000Y-125250000D01*
D67*
X158865000Y-123175000D02*
X159040000Y-123000000D01*
X152365000Y-123155000D02*
X152520000Y-123000000D01*
X174500000Y-128172000D02*
X173900000Y-128772000D01*
X152365000Y-124550000D02*
X152365000Y-123155000D01*
X159040000Y-122250000D02*
X159050000Y-122240000D01*
D69*
X168500000Y-125250000D02*
X168500000Y-124500000D01*
X170225000Y-124662000D02*
X168662000Y-124662000D01*
D67*
X171972000Y-128772000D02*
X170225000Y-127025000D01*
X159040000Y-123000000D02*
X159040000Y-122250000D01*
D68*
X167010000Y-114500000D02*
X167750000Y-114500000D01*
D67*
%TO.N,/Microcontroller/VCAP2*%
X157230000Y-92250000D02*
X157500000Y-92520000D01*
X155738000Y-92250000D02*
X157230000Y-92250000D01*
%TO.N,/Microcontroller/VCAP1*%
X153250000Y-112230000D02*
X152980000Y-112500000D01*
X153250000Y-110738000D02*
X153250000Y-112230000D01*
%TO.N,/Microcontroller/VREF+*%
X132400000Y-106980000D02*
X131400000Y-106980000D01*
X132630000Y-106750000D02*
X132400000Y-106980000D01*
X134262000Y-106750000D02*
X132630000Y-106750000D01*
D69*
%TO.N,VBUS*%
X105750000Y-92550000D02*
X103500000Y-92550000D01*
X107800000Y-87900000D02*
X107989949Y-87900000D01*
X108500000Y-88410051D02*
X108500000Y-89800000D01*
D68*
X111862500Y-88500000D02*
X110500000Y-88500000D01*
D69*
X108500000Y-89800000D02*
X105750000Y-92550000D01*
X106750000Y-83100000D02*
X107800000Y-83100000D01*
X106750000Y-87900000D02*
X107800000Y-87900000D01*
X107989949Y-87900000D02*
X108500000Y-88410051D01*
D67*
%TO.N,/Power/5V_FB*%
X174500000Y-126000000D02*
X174500000Y-127152000D01*
X174500000Y-127152000D02*
X174710000Y-127152000D01*
X174710000Y-127152000D02*
X175750000Y-128192000D01*
%TO.N,/Power/3V3_FB*%
X180260000Y-113960000D02*
X179220000Y-115000000D01*
X180260000Y-113750000D02*
X180260000Y-113960000D01*
X181412000Y-113750000D02*
X180260000Y-113750000D01*
D68*
%TO.N,OSC32K*%
X128475000Y-94750000D02*
X134262000Y-94750000D01*
X128100000Y-94375000D02*
X128475000Y-94750000D01*
D69*
%TO.N,+3.3VA*%
X120328233Y-122839411D02*
X120339411Y-122839411D01*
X120855000Y-122345000D02*
X120339411Y-122860589D01*
D67*
X127396447Y-118582641D02*
X126878680Y-119100408D01*
X128000000Y-119186194D02*
X128000000Y-119646854D01*
D69*
X122950000Y-120230000D02*
X122950000Y-119471248D01*
X120410589Y-122921767D02*
X120410589Y-122910589D01*
X121128198Y-123639376D02*
X120410589Y-122921767D01*
D67*
X124274340Y-117105660D02*
X123820660Y-117105660D01*
D69*
X120339411Y-122860589D02*
X120339411Y-122910589D01*
D67*
X126989269Y-121436123D02*
X126553680Y-121000534D01*
X122950000Y-120250000D02*
X122900000Y-120300000D01*
D69*
X119610624Y-122110624D02*
X119610624Y-122121802D01*
D70*
X122900000Y-120300000D02*
X121975000Y-121225000D01*
D69*
X122950000Y-120230000D02*
X123748752Y-120230000D01*
X123748752Y-120230000D02*
X123939376Y-120039376D01*
X121139376Y-123639376D02*
X121128198Y-123639376D01*
X118635000Y-128380000D02*
X117365000Y-127110000D01*
X122950000Y-119471248D02*
X123160624Y-119260624D01*
D67*
X122900000Y-120200000D02*
X122950000Y-120250000D01*
X127396447Y-118582641D02*
X128000000Y-119186194D01*
D70*
X121975000Y-121225000D02*
X120855000Y-122345000D01*
D67*
X128000000Y-119646854D02*
X128368056Y-120014910D01*
D69*
X118635000Y-129650000D02*
X118635000Y-128380000D01*
D67*
X124560000Y-116820000D02*
X124310000Y-117070000D01*
D69*
X119610624Y-122121802D02*
X120328233Y-122839411D01*
D67*
X126878680Y-119100408D02*
X126878680Y-119375534D01*
D69*
X121195666Y-120445666D02*
X121975000Y-121225000D01*
D67*
%TO.N,/Ethernet/VDDCR*%
X129164214Y-116814874D02*
X129809929Y-117460589D01*
X129809929Y-117460589D02*
X130160589Y-117460589D01*
X130160589Y-117460589D02*
X130860589Y-116760589D01*
%TO.N,+3.3V*%
X157500000Y-103020000D02*
X158240000Y-103020000D01*
D68*
X121945000Y-67905000D02*
X121950000Y-67900000D01*
D67*
X167010000Y-108000000D02*
X167750000Y-108000000D01*
X157480000Y-131500000D02*
X157480000Y-132230000D01*
X134555000Y-123980000D02*
X132580000Y-123980000D01*
X124000000Y-100000000D02*
X124000000Y-99280000D01*
X157380000Y-90520000D02*
X157500000Y-90520000D01*
X140425000Y-115095000D02*
X140250000Y-115270000D01*
D69*
X117545000Y-68805000D02*
X117550000Y-68800000D01*
D67*
X155738000Y-91250000D02*
X156650000Y-91250000D01*
X155738000Y-97750000D02*
X154835807Y-97750000D01*
X157595000Y-129950000D02*
X157595000Y-131385000D01*
X148750000Y-112270000D02*
X148980000Y-112500000D01*
X134262000Y-107250000D02*
X135450000Y-107250000D01*
X134262000Y-107250000D02*
X133132965Y-107250000D01*
D68*
X121945000Y-68700000D02*
X121945000Y-67905000D01*
D67*
X150980000Y-131500000D02*
X150980000Y-132230000D01*
D68*
X182250000Y-56240000D02*
X182990000Y-56240000D01*
D67*
X129089304Y-120738304D02*
X129582000Y-121231000D01*
X132730000Y-99250000D02*
X132500000Y-99480000D01*
X134262000Y-105750000D02*
X133132965Y-105750000D01*
X128100000Y-91625000D02*
X128100000Y-91925000D01*
X158500000Y-97520000D02*
X157500000Y-97520000D01*
X133990000Y-112900000D02*
X133100000Y-112900000D01*
X148980000Y-112500000D02*
X148980000Y-113240000D01*
X155738000Y-103250000D02*
X157270000Y-103250000D01*
X134262000Y-93750000D02*
X133125000Y-93750000D01*
X154020000Y-112500000D02*
X154020000Y-113240000D01*
X140250000Y-115270000D02*
X139520000Y-115270000D01*
X132500000Y-99480000D02*
X131770000Y-99480000D01*
D68*
X164400000Y-90035000D02*
X164400000Y-91800000D01*
D67*
X158240000Y-103020000D02*
X158250000Y-103010000D01*
X159180000Y-97520000D02*
X159200000Y-97500000D01*
X142520000Y-87500000D02*
X142520000Y-86770000D01*
X142750000Y-87730000D02*
X142520000Y-87500000D01*
X136250000Y-88125000D02*
X136250000Y-87530000D01*
X155738000Y-97750000D02*
X157270000Y-97750000D01*
D68*
X129600000Y-114000000D02*
X130320000Y-114000000D01*
D67*
X142750000Y-89262000D02*
X142750000Y-87730000D01*
X128100000Y-105925000D02*
X128100000Y-105625000D01*
X137480000Y-112500000D02*
X137480000Y-113250000D01*
X158500000Y-97520000D02*
X159180000Y-97520000D01*
X137250000Y-110738000D02*
X137250000Y-112270000D01*
X136750000Y-89262000D02*
X136250000Y-89262000D01*
X148980000Y-113240000D02*
X148990000Y-113250000D01*
X154835807Y-97750000D02*
X154588643Y-97502836D01*
X148750000Y-110738000D02*
X148750000Y-112270000D01*
X154020000Y-113240000D02*
X154010000Y-113250000D01*
D68*
X131690000Y-110700000D02*
X131000000Y-110700000D01*
D67*
X129089304Y-120736158D02*
X129089304Y-120738304D01*
X135750000Y-105750000D02*
X134262000Y-105750000D01*
X181250000Y-108500000D02*
X178700000Y-108500000D01*
D68*
X173745000Y-56230000D02*
X173750000Y-56225000D01*
D67*
X128100000Y-98775000D02*
X128100000Y-98625000D01*
X126875000Y-100000000D02*
X128100000Y-98775000D01*
X151095000Y-129950000D02*
X151095000Y-131385000D01*
D68*
X129600000Y-114000000D02*
X129504214Y-114000000D01*
D67*
X150980000Y-132230000D02*
X151000000Y-132250000D01*
X143980000Y-112500000D02*
X143980000Y-113240000D01*
D69*
X116420000Y-68805000D02*
X115280000Y-68805000D01*
D67*
X157595000Y-131385000D02*
X157480000Y-131500000D01*
X135700000Y-116510000D02*
X135700000Y-117200000D01*
X143750000Y-110738000D02*
X143750000Y-112270000D01*
X157270000Y-97750000D02*
X157500000Y-97520000D01*
D68*
X124260624Y-110260624D02*
X124800000Y-110800000D01*
D67*
X124000000Y-107000000D02*
X127025000Y-107000000D01*
X156650000Y-91250000D02*
X157380000Y-90520000D01*
X132462965Y-105080000D02*
X132400000Y-105080000D01*
D68*
X124260624Y-110239376D02*
X124260624Y-110260624D01*
D67*
X133125000Y-93750000D02*
X132520000Y-93750000D01*
X124000000Y-93000000D02*
X124000000Y-92280000D01*
X151095000Y-131385000D02*
X150980000Y-131500000D01*
X133132965Y-107250000D02*
X132462965Y-107920000D01*
X139520000Y-115270000D02*
X139500000Y-115250000D01*
X124000000Y-100000000D02*
X126875000Y-100000000D01*
X132520000Y-93750000D02*
X132500000Y-93730000D01*
X153750000Y-112230000D02*
X154020000Y-112500000D01*
X157270000Y-103250000D02*
X157500000Y-103020000D01*
X143750000Y-112270000D02*
X143980000Y-112500000D01*
D68*
X164400000Y-91800000D02*
X164400000Y-92400000D01*
D67*
X128100000Y-91925000D02*
X127025000Y-93000000D01*
X147750000Y-89262000D02*
X147750000Y-87730000D01*
D69*
X116420000Y-68805000D02*
X117545000Y-68805000D01*
D67*
X157480000Y-132230000D02*
X157500000Y-132250000D01*
D68*
X164135000Y-89770000D02*
X164400000Y-90035000D01*
D67*
X133132965Y-105750000D02*
X132462965Y-105080000D01*
X178700000Y-108500000D02*
X178300000Y-108900000D01*
X131770000Y-99480000D02*
X131760000Y-99490000D01*
X132400000Y-105080000D02*
X131400000Y-105080000D01*
D68*
X121950000Y-67300000D02*
X121850000Y-67200000D01*
X182990000Y-56240000D02*
X183000000Y-56250000D01*
D67*
X127025000Y-93000000D02*
X124000000Y-93000000D01*
X153750000Y-110738000D02*
X153750000Y-112230000D01*
X133100000Y-112900000D02*
X133100000Y-113790000D01*
X132462965Y-107920000D02*
X132400000Y-107920000D01*
X131400000Y-107920000D02*
X130650000Y-107920000D01*
D68*
X129504214Y-114000000D02*
X128457107Y-115047107D01*
D67*
X137250000Y-112270000D02*
X137480000Y-112500000D01*
X136250000Y-87530000D02*
X136280000Y-87500000D01*
X134262000Y-99250000D02*
X132730000Y-99250000D01*
X136250000Y-89262000D02*
X136250000Y-88125000D01*
D69*
X115280000Y-68805000D02*
X115275000Y-68800000D01*
D67*
X124000000Y-107000000D02*
X124000000Y-106280000D01*
X142520000Y-86770000D02*
X142510000Y-86760000D01*
X143980000Y-113240000D02*
X143990000Y-113250000D01*
X147520000Y-86770000D02*
X147510000Y-86760000D01*
X132400000Y-107920000D02*
X131400000Y-107920000D01*
D68*
X173000000Y-56230000D02*
X173745000Y-56230000D01*
D67*
X131400000Y-105080000D02*
X130650000Y-105080000D01*
X127025000Y-107000000D02*
X128100000Y-105925000D01*
X132580000Y-123980000D02*
X132570000Y-123990000D01*
X141800000Y-115095000D02*
X140425000Y-115095000D01*
D68*
X121950000Y-67900000D02*
X121950000Y-67300000D01*
D67*
X157500000Y-90520000D02*
X158250000Y-90520000D01*
X178300000Y-112810000D02*
X179240000Y-113750000D01*
X147520000Y-87500000D02*
X147520000Y-86770000D01*
X178300000Y-108900000D02*
X178300000Y-112810000D01*
X147750000Y-87730000D02*
X147520000Y-87500000D01*
D68*
X121850000Y-66800000D02*
X121850000Y-67200000D01*
%TO.N,OSC25M*%
X128975000Y-102250000D02*
X134262000Y-102250000D01*
X128100000Y-101375000D02*
X128975000Y-102250000D01*
%TO.N,NRST*%
X168660000Y-89385000D02*
X168660000Y-96340000D01*
X182250000Y-58270000D02*
X182250000Y-58297746D01*
X168660000Y-80680000D02*
X168660000Y-89385000D01*
X168660000Y-89385000D02*
X168660000Y-91000000D01*
X168660000Y-96340000D02*
X157400000Y-107600000D01*
X181180000Y-68160000D02*
X168660000Y-80680000D01*
X167062450Y-89402450D02*
X165037450Y-89402450D01*
X141300000Y-107600000D02*
X154200000Y-107600000D01*
X165037450Y-89402450D02*
X164135000Y-88500000D01*
X182250000Y-58297746D02*
X181180000Y-59367746D01*
X134262000Y-103250000D02*
X136950000Y-103250000D01*
X181665000Y-56675000D02*
X182250000Y-57260000D01*
X136950000Y-103250000D02*
X141300000Y-107600000D01*
X180075000Y-56675000D02*
X181665000Y-56675000D01*
X181180000Y-59367746D02*
X181180000Y-68160000D01*
X182250000Y-57260000D02*
X182250000Y-58270000D01*
X168660000Y-91000000D02*
X167062450Y-89402450D01*
%TO.N,SDMMC1_CD*%
X116420000Y-63305000D02*
X117570000Y-63305000D01*
X153750000Y-95000000D02*
X154000000Y-95250000D01*
X154000000Y-95250000D02*
X155738000Y-95250000D01*
X146000000Y-76250000D02*
X135250000Y-76250000D01*
X117570000Y-63305000D02*
X117575000Y-63300000D01*
X123000000Y-67200000D02*
X123675000Y-67200000D01*
X135250000Y-76250000D02*
X127500000Y-68500000D01*
X154500000Y-84750000D02*
X146000000Y-76250000D01*
X153750000Y-91424500D02*
X153750000Y-95000000D01*
X127500000Y-68500000D02*
X127500000Y-67250000D01*
%TO.N,SDMMC1_DAT2*%
X123650000Y-66400000D02*
X124250000Y-67000000D01*
X124250000Y-67000000D02*
X124250000Y-69750000D01*
X134250000Y-79750000D02*
X145500000Y-79750000D01*
X123000000Y-66400000D02*
X123650000Y-66400000D01*
X124250000Y-69750000D02*
X134250000Y-79750000D01*
X145500000Y-79750000D02*
X152750000Y-87000000D01*
X152750000Y-87000000D02*
X152750000Y-89262000D01*
%TO.N,SDMMC1_DAT3*%
X155025000Y-88492157D02*
X145782843Y-79250000D01*
X155025000Y-89375000D02*
X155025000Y-88492157D01*
X152500500Y-90500000D02*
X153900000Y-90500000D01*
X152250000Y-89262000D02*
X152250000Y-90249500D01*
X134500000Y-79250000D02*
X124750000Y-69500000D01*
X145782843Y-79250000D02*
X134500000Y-79250000D01*
X124750000Y-66750000D02*
X124000000Y-66000000D01*
X152250000Y-90249500D02*
X152500500Y-90500000D01*
X124750000Y-69500000D02*
X124750000Y-66750000D01*
X153900000Y-90500000D02*
X155025000Y-89375000D01*
X124000000Y-66000000D02*
X123000000Y-66000000D01*
%TO.N,SDMMC1_CMD*%
X124350000Y-65600000D02*
X125250000Y-66500000D01*
X123000000Y-65600000D02*
X124350000Y-65600000D01*
X150250000Y-85250000D02*
X147000000Y-82000000D01*
X147000000Y-82000000D02*
X145274500Y-80274500D01*
X125250000Y-66500000D02*
X125250000Y-69250000D01*
X145274500Y-80274500D02*
X145250000Y-80274500D01*
X150250000Y-89262000D02*
X150250000Y-85250000D01*
X134725500Y-78725500D02*
X143750000Y-78725500D01*
X125250000Y-69250000D02*
X134725500Y-78725500D01*
%TO.N,SDMMC1_CLK*%
X155500000Y-88250000D02*
X145000000Y-77750000D01*
X125750000Y-69000000D02*
X125750000Y-66250000D01*
X151750000Y-90315186D02*
X152334815Y-90900000D01*
X145000000Y-77750000D02*
X134500000Y-77750000D01*
X152334815Y-90900000D02*
X154065686Y-90900000D01*
X124700000Y-65200000D02*
X123000000Y-65200000D01*
X125750000Y-66250000D02*
X124700000Y-65200000D01*
X155500000Y-89465686D02*
X155500000Y-88250000D01*
X154065686Y-90900000D02*
X155500000Y-89465686D01*
X134500000Y-77750000D02*
X125750000Y-69000000D01*
X151750000Y-89262000D02*
X151750000Y-90315186D01*
%TO.N,SDMMC1_DAT0*%
X153000000Y-96250000D02*
X155738000Y-96250000D01*
X134750000Y-77250000D02*
X126250000Y-68750000D01*
X145500000Y-77250000D02*
X134750000Y-77250000D01*
X125050000Y-64800000D02*
X123000000Y-64800000D01*
X153000000Y-84750000D02*
X145500000Y-77250000D01*
X126250000Y-68750000D02*
X126250000Y-66000000D01*
X152247097Y-95497097D02*
X153000000Y-96250000D01*
X126250000Y-66000000D02*
X125050000Y-64800000D01*
X152247097Y-91417114D02*
X152247097Y-95497097D01*
%TO.N,SDMMC1_DAT1*%
X153000000Y-91424500D02*
X153000000Y-95250000D01*
X126750000Y-68500000D02*
X126750000Y-65750000D01*
X153500000Y-95750000D02*
X155738000Y-95750000D01*
X145742463Y-76750000D02*
X135000000Y-76750000D01*
X126750000Y-65750000D02*
X125400000Y-64400000D01*
X125400000Y-64400000D02*
X123000000Y-64400000D01*
X153742463Y-84750000D02*
X145742463Y-76750000D01*
X153000000Y-95250000D02*
X153500000Y-95750000D01*
X135000000Y-76750000D02*
X126750000Y-68500000D01*
%TO.N,/Microcontroller/DAT1*%
X121850000Y-64400000D02*
X116425000Y-64400000D01*
X116425000Y-64400000D02*
X116420000Y-64405000D01*
%TO.N,/Microcontroller/DAT0*%
X117945000Y-65505000D02*
X116420000Y-65505000D01*
X118650000Y-64800000D02*
X117945000Y-65505000D01*
X121850000Y-64800000D02*
X118650000Y-64800000D01*
%TO.N,/Microcontroller/CLK*%
X118400000Y-67275000D02*
X117970000Y-67705000D01*
X117970000Y-67705000D02*
X116420000Y-67705000D01*
X118400000Y-66000000D02*
X118400000Y-67275000D01*
X121850000Y-65200000D02*
X119200000Y-65200000D01*
X119200000Y-65200000D02*
X118400000Y-66000000D01*
%TO.N,/Microcontroller/CMD*%
X117370000Y-69905000D02*
X116420000Y-69905000D01*
X118975000Y-66375000D02*
X118975000Y-68300000D01*
X119750000Y-65600000D02*
X118975000Y-66375000D01*
X118975000Y-68300000D02*
X117370000Y-69905000D01*
X121850000Y-65600000D02*
X119750000Y-65600000D01*
%TO.N,/Microcontroller/DAT3*%
X119625000Y-66700000D02*
X119625000Y-68650000D01*
X119625000Y-68650000D02*
X117270000Y-71005000D01*
X120325000Y-66000000D02*
X119625000Y-66700000D01*
X117270000Y-71005000D02*
X116420000Y-71005000D01*
X121850000Y-66000000D02*
X120325000Y-66000000D01*
D71*
%TO.N,USB_DN*%
X138406800Y-93725000D02*
X133506800Y-88825000D01*
X111420000Y-89450000D02*
X111862500Y-89450000D01*
X105855000Y-84775000D02*
X105855000Y-85725000D01*
X133506800Y-88825000D02*
X119250000Y-88825001D01*
X146900000Y-93725000D02*
X138406800Y-93725000D01*
X109720000Y-86713604D02*
X109720000Y-86760000D01*
X154526077Y-93725001D02*
X154426078Y-93825000D01*
X105855000Y-85725000D02*
X105880000Y-85750000D01*
X112699503Y-89450000D02*
X113000000Y-89149503D01*
X118350000Y-89506539D02*
X118350000Y-89125001D01*
X106750000Y-84750000D02*
X107756396Y-84750000D01*
X115974176Y-88825001D02*
X115874177Y-88925000D01*
X118950000Y-89125001D02*
X118950000Y-89506539D01*
X147000000Y-93825000D02*
X146900000Y-93725000D01*
X106750000Y-84750000D02*
X105880000Y-84750000D01*
X117150000Y-89506528D02*
X117150000Y-89125001D01*
X116850000Y-88825001D02*
X115974176Y-88825001D01*
X155713001Y-93725001D02*
X154526077Y-93725001D01*
X107756396Y-84750000D02*
X109720000Y-86713604D01*
X105880000Y-85750000D02*
X106750000Y-85750000D01*
X105880000Y-84750000D02*
X105855000Y-84775000D01*
X117750000Y-89125001D02*
X117750000Y-89506528D01*
X155738000Y-93750000D02*
X155713001Y-93725001D01*
X111862500Y-89450000D02*
X112699503Y-89450000D01*
X119250000Y-88825000D02*
G75*
G03*
X118950000Y-89125001I0J-300000D01*
G01*
X117149999Y-89125001D02*
G75*
G03*
X116850000Y-88825001I-299999J1D01*
G01*
X118650000Y-89806500D02*
G75*
G03*
X118950000Y-89506539I0J300000D01*
G01*
X117149972Y-89506528D02*
G75*
G03*
X117450000Y-89806528I300028J28D01*
G01*
X118349961Y-89506539D02*
G75*
G03*
X118650000Y-89806539I300039J39D01*
G01*
X118050000Y-88825000D02*
G75*
G03*
X117750000Y-89125001I0J-300000D01*
G01*
X117450000Y-89806500D02*
G75*
G03*
X117750000Y-89506528I0J300000D01*
G01*
X118349999Y-89125001D02*
G75*
G03*
X118050000Y-88825001I-299999J1D01*
G01*
%TO.N,USB_DP*%
X111862500Y-87550000D02*
X109690000Y-87550000D01*
X155738000Y-93250000D02*
X155713001Y-93274999D01*
X133693200Y-88375000D02*
X115974176Y-88374999D01*
X112699503Y-87550000D02*
X113000000Y-87850497D01*
X111862500Y-87550000D02*
X112699503Y-87550000D01*
X109690000Y-87550000D02*
X108365000Y-86225000D01*
X115974176Y-88374999D02*
X115874177Y-88275000D01*
X146900000Y-93275000D02*
X138593200Y-93275000D01*
X107620000Y-86250000D02*
X106750000Y-86250000D01*
X107645000Y-86225000D02*
X107620000Y-86250000D01*
X154526077Y-93274999D02*
X154426078Y-93175000D01*
X107620000Y-85250000D02*
X107645000Y-85275000D01*
X107645000Y-85275000D02*
X107645000Y-86225000D01*
X106750000Y-85250000D02*
X107620000Y-85250000D01*
X138593200Y-93275000D02*
X133693200Y-88375000D01*
X155713001Y-93274999D02*
X154526077Y-93274999D01*
X108365000Y-86225000D02*
X107645000Y-86225000D01*
X147000000Y-93175000D02*
X146900000Y-93275000D01*
D68*
%TO.N,SWDIO*%
X156890000Y-93802254D02*
X157147746Y-94060000D01*
X155738000Y-92750000D02*
X156675500Y-92750000D01*
X157147746Y-94060000D02*
X160465000Y-94060000D01*
X162575000Y-91950000D02*
X162575000Y-90060000D01*
X156890000Y-92964500D02*
X156890000Y-93802254D01*
X160465000Y-94060000D02*
X162575000Y-91950000D01*
X156675500Y-92750000D02*
X156890000Y-92964500D01*
X162575000Y-90060000D02*
X162865000Y-89770000D01*
%TO.N,SWCLK*%
X154300000Y-89262000D02*
X153750000Y-89262000D01*
X161915000Y-89450000D02*
X162865000Y-88500000D01*
X157250000Y-89432500D02*
X161897500Y-89432500D01*
X161897500Y-89432500D02*
X161915000Y-89450000D01*
%TO.N,/Microcontroller/DAT2*%
X117220000Y-72105000D02*
X116420000Y-72105000D01*
X120275000Y-69050000D02*
X117220000Y-72105000D01*
X121850000Y-66400000D02*
X120850000Y-66400000D01*
X120275000Y-66975000D02*
X120275000Y-69050000D01*
X120850000Y-66400000D02*
X120275000Y-66975000D01*
%TO.N,CAN_RX3*%
X159100000Y-108500000D02*
X157595000Y-110005000D01*
X153700000Y-106000000D02*
X154200000Y-106000000D01*
X142300000Y-106500000D02*
X153200000Y-106500000D01*
X157595000Y-110005000D02*
X157595000Y-124550000D01*
X135550000Y-99750000D02*
X142300000Y-106500000D01*
X134262000Y-99750000D02*
X135550000Y-99750000D01*
X153200000Y-106500000D02*
X153700000Y-106000000D01*
%TO.N,CAN_TX3*%
X142000000Y-107000000D02*
X152700000Y-107000000D01*
X160600000Y-121600000D02*
X158700000Y-121600000D01*
X158700000Y-121600000D02*
X158200000Y-121100000D01*
X161405000Y-122405000D02*
X160600000Y-121600000D01*
X158200000Y-110300000D02*
X159625000Y-108875000D01*
X161405000Y-124550000D02*
X161405000Y-122405000D01*
X152700000Y-107000000D02*
X154000000Y-107000000D01*
X159625000Y-108875000D02*
X159625000Y-108125000D01*
X158200000Y-121100000D02*
X158200000Y-110300000D01*
X135250000Y-100250000D02*
X140700000Y-105700000D01*
X140700000Y-105700000D02*
X142000000Y-107000000D01*
X134262000Y-100250000D02*
X135250000Y-100250000D01*
X159625000Y-108125000D02*
X159100000Y-107600000D01*
X154000000Y-107000000D02*
X154200000Y-106800000D01*
%TO.N,ETH_MDC*%
X126667767Y-113982233D02*
X126667767Y-113986447D01*
X129840000Y-103980000D02*
X130280000Y-103540000D01*
X126667767Y-113986447D02*
X126335787Y-113986447D01*
X130280000Y-103540000D02*
X132752254Y-103540000D01*
X133010000Y-103797746D02*
X133010000Y-103985500D01*
X133274500Y-104250000D02*
X134262000Y-104250000D01*
X129840000Y-108140000D02*
X129840000Y-103980000D01*
X133010000Y-103985500D02*
X133274500Y-104250000D01*
X132752254Y-103540000D02*
X133010000Y-103797746D01*
X129840000Y-110810000D02*
X126667767Y-113982233D01*
%TO.N,ETH_REF_CLK*%
X128100000Y-109900000D02*
X132550000Y-109900000D01*
X133100000Y-109350000D02*
X133100000Y-108424500D01*
X132900000Y-118200000D02*
X131600000Y-119500000D01*
X131142234Y-119500000D02*
X128810661Y-117168427D01*
X133100000Y-108424500D02*
X133274500Y-108250000D01*
X132550000Y-109900000D02*
X133100000Y-109350000D01*
X133274500Y-108250000D02*
X134262000Y-108250000D01*
X131900000Y-116300000D02*
X132900000Y-117300000D01*
X128100000Y-109900000D02*
X128100000Y-108375000D01*
X131600000Y-119500000D02*
X131142234Y-119500000D01*
X132900000Y-117300000D02*
X132900000Y-118200000D01*
%TO.N,ETH_MDIO*%
X129882894Y-111500000D02*
X127396447Y-113986447D01*
X131910000Y-111500000D02*
X129882894Y-111500000D01*
X134262000Y-109148000D02*
X131910000Y-111500000D01*
X134262000Y-108750000D02*
X134262000Y-109148000D01*
%TO.N,ETH_CRS_DV*%
X129990000Y-112100000D02*
X134210000Y-112100000D01*
X139250000Y-112250000D02*
X139250000Y-110738000D01*
X127750000Y-114340000D02*
X129990000Y-112100000D01*
X134210000Y-112100000D02*
X136310000Y-114200000D01*
X137300000Y-114200000D02*
X139250000Y-112250000D01*
X136310000Y-114200000D02*
X137300000Y-114200000D01*
%TO.N,SWO*%
X142100000Y-90600000D02*
X141750000Y-90250000D01*
X154500000Y-91400000D02*
X154500000Y-91031372D01*
X148500000Y-90600000D02*
X142100000Y-90600000D01*
X154500000Y-91031372D02*
X159331372Y-86200000D01*
X149900000Y-92000000D02*
X148500000Y-90600000D01*
X141750000Y-90250000D02*
X141750000Y-89262000D01*
X162497450Y-87197450D02*
X162497450Y-87230000D01*
X159331372Y-86200000D02*
X161500000Y-86200000D01*
X161500000Y-86200000D02*
X162497450Y-87197450D01*
X162497450Y-87230000D02*
X162865000Y-87230000D01*
%TO.N,ETH_RXD0*%
X139750000Y-112550000D02*
X137490000Y-114810000D01*
X139750000Y-110738000D02*
X139750000Y-112550000D01*
X137490000Y-114810000D02*
X129401322Y-114810000D01*
X129401322Y-114810000D02*
X128810661Y-115400661D01*
%TO.N,ETH_RXD1*%
X137635000Y-115490000D02*
X129428428Y-115490000D01*
X140250000Y-112875000D02*
X137635000Y-115490000D01*
X140250000Y-110738000D02*
X140250000Y-112875000D01*
X129428428Y-115490000D02*
X129164214Y-115754214D01*
%TO.N,ETH_TX_EN*%
X152750000Y-109750500D02*
X152349500Y-109350000D01*
X136150500Y-109350000D02*
X144400000Y-109350000D01*
X125275127Y-115047107D02*
X124500000Y-114271980D01*
X135600000Y-109900500D02*
X136150500Y-109350000D01*
X144400000Y-109350000D02*
X144300000Y-109350000D01*
X124500000Y-114271980D02*
X124500000Y-114200000D01*
X135600000Y-112100000D02*
X135600000Y-109900500D01*
X152750000Y-110738000D02*
X152750000Y-109750500D01*
X152349500Y-109350000D02*
X144400000Y-109350000D01*
D67*
%TO.N,BOOT0*%
X139250000Y-89262000D02*
X139250000Y-87500000D01*
X147800000Y-103100000D02*
X147800000Y-92700000D01*
X147200000Y-92100000D02*
X140300000Y-92100000D01*
X140300000Y-92100000D02*
X139250000Y-91050000D01*
X145500000Y-112500000D02*
X145500000Y-120100000D01*
X147800000Y-92700000D02*
X147200000Y-92100000D01*
X145500000Y-120100000D02*
X143445000Y-122155000D01*
X145500000Y-105400000D02*
X147800000Y-103100000D01*
X143445000Y-122155000D02*
X143445000Y-123980000D01*
X139250000Y-91050000D02*
X139250000Y-89262000D01*
D68*
%TO.N,ETH_TXD0*%
X136950000Y-108750000D02*
X155738000Y-108750000D01*
X127400000Y-112500000D02*
X124900000Y-112500000D01*
X124900000Y-112500000D02*
X123900000Y-113500000D01*
X123900000Y-114379088D02*
X124921573Y-115400661D01*
X123900000Y-113500000D02*
X123900000Y-114379088D01*
%TO.N,ETH_TXD1*%
X155738000Y-108250000D02*
X154800500Y-108250000D01*
X154800500Y-108250000D02*
X154700500Y-108150000D01*
X154700500Y-108150000D02*
X136450000Y-108150000D01*
X123400000Y-113300000D02*
X123400000Y-114586194D01*
X127800000Y-111825500D02*
X127799500Y-111825000D01*
X123400000Y-114586194D02*
X124568020Y-115754214D01*
X127799500Y-111825000D02*
X124875000Y-111825000D01*
X124875000Y-111825000D02*
X123400000Y-113300000D01*
%TO.N,CAN_RX1*%
X151410000Y-90710000D02*
X151250000Y-90550000D01*
D67*
X148375000Y-115095000D02*
X148380000Y-115100000D01*
D68*
X151410000Y-104000000D02*
X151410000Y-90710000D01*
X151250000Y-90550000D02*
X151250000Y-89262000D01*
X147200000Y-115095000D02*
X148375000Y-115095000D01*
%TO.N,CAN_TX1*%
X150600000Y-103100000D02*
X150600000Y-90700000D01*
X149700000Y-104000000D02*
X150600000Y-103100000D01*
D67*
X147200000Y-118905000D02*
X148375000Y-118905000D01*
D68*
X150750000Y-90550000D02*
X150750000Y-89262000D01*
X150600000Y-90700000D02*
X150750000Y-90550000D01*
D67*
X148375000Y-118905000D02*
X148380000Y-118900000D01*
D68*
%TO.N,/Microcontroller/CC1*%
X112490000Y-86000000D02*
X110740000Y-84250000D01*
X110740000Y-84250000D02*
X106750000Y-84250000D01*
X114137500Y-87550000D02*
X114040000Y-87550000D01*
X114040000Y-87550000D02*
X112490000Y-86000000D01*
%TO.N,/Microcontroller/CC2*%
X114040000Y-89450000D02*
X112490000Y-91000000D01*
X112040000Y-91000000D02*
X108290000Y-87250000D01*
X112490000Y-91000000D02*
X112040000Y-91000000D01*
X108290000Y-87250000D02*
X106750000Y-87250000D01*
X114137500Y-89450000D02*
X114040000Y-89450000D01*
%TO.N,CAN_RX2*%
X148000000Y-91100000D02*
X141500000Y-91100000D01*
X154700000Y-110400000D02*
X155200000Y-110400000D01*
X152600000Y-104700000D02*
X149657537Y-104700000D01*
X149000000Y-92100000D02*
X148000000Y-91100000D01*
X149000000Y-104042463D02*
X149000000Y-92100000D01*
X155200000Y-110400000D02*
X156400000Y-111600000D01*
X155900000Y-121600000D02*
X151700000Y-121600000D01*
X141500000Y-91100000D02*
X140750000Y-90350000D01*
X156400000Y-121100000D02*
X155900000Y-121600000D01*
X149657537Y-104700000D02*
X149000000Y-104042463D01*
X156400000Y-111600000D02*
X156400000Y-121100000D01*
X151700000Y-121600000D02*
X151095000Y-122205000D01*
X151095000Y-122205000D02*
X151095000Y-124550000D01*
X140750000Y-90350000D02*
X140750000Y-89262000D01*
%TO.N,CAN_TX2*%
X157000000Y-111400000D02*
X157000000Y-121300000D01*
X152700000Y-105700000D02*
X152200000Y-105200000D01*
X148400000Y-92400000D02*
X147600000Y-91600000D01*
X156200000Y-122100000D02*
X155550000Y-122100000D01*
X149400000Y-105200000D02*
X148400000Y-104200000D01*
X157000000Y-121300000D02*
X156200000Y-122100000D01*
X152200000Y-105200000D02*
X149400000Y-105200000D01*
X147600000Y-91600000D02*
X141100000Y-91600000D01*
X154905000Y-122745000D02*
X154905000Y-124550000D01*
X155300000Y-109700000D02*
X157000000Y-111400000D01*
X141100000Y-91600000D02*
X140250000Y-90750000D01*
X140250000Y-90750000D02*
X140250000Y-89262000D01*
X155550000Y-122100000D02*
X154905000Y-122745000D01*
X148400000Y-104200000D02*
X148400000Y-92400000D01*
D67*
%TO.N,/Microcontroller/CANL1*%
X142965000Y-116365000D02*
X141800000Y-116365000D01*
X143445000Y-126520000D02*
X142695000Y-126520000D01*
X140300000Y-125350000D02*
X140300000Y-121700000D01*
X144080000Y-127155000D02*
X143445000Y-126520000D01*
X141470000Y-126520000D02*
X140300000Y-125350000D01*
X144080000Y-138000000D02*
X144080000Y-127155000D01*
X143445000Y-126520000D02*
X141470000Y-126520000D01*
X143100000Y-121200000D02*
X144000000Y-120300000D01*
X140300000Y-121700000D02*
X140800000Y-121200000D01*
X144000000Y-120300000D02*
X144000000Y-117400000D01*
X144000000Y-117400000D02*
X142965000Y-116365000D01*
X140800000Y-121200000D02*
X143100000Y-121200000D01*
%TO.N,/Microcontroller/CANH1*%
X142835000Y-117635000D02*
X141800000Y-117635000D01*
X133920000Y-138000000D02*
X134010000Y-138000000D01*
X139510000Y-129250000D02*
X139510000Y-121290000D01*
X143200000Y-118000000D02*
X142835000Y-117635000D01*
X139510000Y-132500000D02*
X139510000Y-129250000D01*
X143200000Y-119900000D02*
X143200000Y-118000000D01*
X134010000Y-138000000D02*
X139510000Y-132500000D01*
X142700000Y-120400000D02*
X143200000Y-119900000D01*
X140400000Y-120400000D02*
X142700000Y-120400000D01*
X139510000Y-121290000D02*
X140400000Y-120400000D01*
D68*
%TO.N,SILENT1*%
X139636827Y-114300000D02*
X138750000Y-115186827D01*
X141250000Y-110738000D02*
X141250000Y-113650000D01*
X138750000Y-118250000D02*
X139405000Y-118905000D01*
X140600000Y-114300000D02*
X139636827Y-114300000D01*
X139405000Y-118905000D02*
X141800000Y-118905000D01*
X141250000Y-113650000D02*
X140600000Y-114300000D01*
X138750000Y-115186827D02*
X138750000Y-118250000D01*
D67*
%TO.N,/Microcontroller/CANL2*%
X152490000Y-131500000D02*
X152490000Y-130075000D01*
X155750000Y-129020000D02*
X155750000Y-132670000D01*
X155240000Y-128510000D02*
X155750000Y-129020000D01*
X155750000Y-132670000D02*
X161080000Y-138000000D01*
X152365000Y-129950000D02*
X152365000Y-129075000D01*
X152365000Y-129075000D02*
X152930000Y-128510000D01*
X152930000Y-128510000D02*
X155240000Y-128510000D01*
X152490000Y-130075000D02*
X152365000Y-129950000D01*
%TO.N,/Microcontroller/CAN_SW*%
X138490000Y-127330000D02*
X138490000Y-129250000D01*
X134555000Y-126520000D02*
X137680000Y-126520000D01*
X137680000Y-126520000D02*
X138490000Y-127330000D01*
%TO.N,/Microcontroller/CANH2*%
X153510000Y-130075000D02*
X153510000Y-135410000D01*
X153635000Y-129950000D02*
X153510000Y-130075000D01*
X153510000Y-135410000D02*
X150920000Y-138000000D01*
D68*
%TO.N,SILENT2*%
X150200000Y-113900000D02*
X150200000Y-118500000D01*
X148200000Y-139800000D02*
X149000000Y-140600000D01*
X149000000Y-140600000D02*
X152700000Y-140600000D01*
X149750000Y-110738000D02*
X149750000Y-113450000D01*
X153500000Y-139800000D02*
X153500000Y-136900000D01*
X149750000Y-113450000D02*
X150200000Y-113900000D01*
X150200000Y-118500000D02*
X148200000Y-120500000D01*
X153500000Y-136900000D02*
X154905000Y-135495000D01*
X154905000Y-135495000D02*
X154905000Y-129950000D01*
X148200000Y-120500000D02*
X148200000Y-139800000D01*
X152700000Y-140600000D02*
X153500000Y-139800000D01*
D67*
%TO.N,/Microcontroller/CANL3*%
X176050000Y-140110000D02*
X166385000Y-140110000D01*
X158865000Y-131375000D02*
X158990000Y-131500000D01*
X158865000Y-129950000D02*
X158865000Y-131375000D01*
X166385000Y-140110000D02*
X158990000Y-132715000D01*
X158990000Y-132715000D02*
X158990000Y-131500000D01*
X178160000Y-138000000D02*
X176050000Y-140110000D01*
X158990000Y-130075000D02*
X158865000Y-129950000D01*
%TO.N,/Microcontroller/CANH3*%
X160135000Y-129950000D02*
X160135000Y-131375000D01*
X165750000Y-138000000D02*
X168000000Y-138000000D01*
X160010000Y-130075000D02*
X160135000Y-129950000D01*
X160010000Y-131500000D02*
X160010000Y-132260000D01*
X160010000Y-132260000D02*
X165750000Y-138000000D01*
X160135000Y-131375000D02*
X160010000Y-131500000D01*
D68*
%TO.N,SILENT3*%
X150200000Y-119400000D02*
X150200000Y-126100000D01*
X150200000Y-126100000D02*
X151100000Y-127000000D01*
X158880000Y-127000000D02*
X161405000Y-129525000D01*
X151100000Y-127000000D02*
X158880000Y-127000000D01*
X150800000Y-113700000D02*
X150800000Y-118800000D01*
X150800000Y-118800000D02*
X150200000Y-119400000D01*
X150250000Y-113150000D02*
X150800000Y-113700000D01*
X161405000Y-129525000D02*
X161405000Y-129950000D01*
X150250000Y-110738000D02*
X150250000Y-113150000D01*
D67*
%TO.N,/Ethernet/LED2*%
X130750000Y-121229088D02*
X130560456Y-121039544D01*
X127750000Y-118229088D02*
X130560456Y-121039544D01*
X130750000Y-128480000D02*
X130750000Y-121229088D01*
%TO.N,/Ethernet/LED1*%
X132000000Y-121771980D02*
X131564010Y-121335990D01*
X132000000Y-128490000D02*
X132000000Y-121771980D01*
X131564010Y-121335990D02*
X128103554Y-117875534D01*
D68*
%TO.N,/Ethernet/PHYAD0*%
X128103554Y-114693554D02*
X129797108Y-113000000D01*
X129797108Y-113000000D02*
X130290000Y-113000000D01*
%TO.N,ETH_INT*%
X132100000Y-97350000D02*
X122225000Y-97350000D01*
X116500000Y-99000000D02*
X116500000Y-101800000D01*
X122225000Y-97350000D02*
X121625000Y-96750000D01*
X134262000Y-97750000D02*
X132500000Y-97750000D01*
X118750000Y-96750000D02*
X116500000Y-99000000D01*
X116500000Y-101800000D02*
X122700000Y-108000000D01*
X123560624Y-110960624D02*
X124100000Y-111500000D01*
X125982234Y-114340000D02*
X125500000Y-113857766D01*
X122700000Y-110121248D02*
X123539376Y-110960624D01*
X122700000Y-108000000D02*
X122700000Y-110121248D01*
X123539376Y-110960624D02*
X123560624Y-110960624D01*
X125500000Y-113857766D02*
X125500000Y-113400000D01*
X121625000Y-96750000D02*
X118750000Y-96750000D01*
X132500000Y-97750000D02*
X132100000Y-97350000D01*
%TO.N,ETH_RST*%
X118484314Y-96250000D02*
X115900000Y-98834314D01*
X132750000Y-97250000D02*
X132450000Y-96950000D01*
X125100000Y-114164874D02*
X125100000Y-113900000D01*
X121937500Y-96250000D02*
X118484314Y-96250000D01*
X122100000Y-108300000D02*
X122100000Y-110900000D01*
X115900000Y-98834314D02*
X115900000Y-102100000D01*
X125628680Y-114693554D02*
X125100000Y-114164874D01*
X134262000Y-97250000D02*
X132750000Y-97250000D01*
X132450000Y-96950000D02*
X122637500Y-96950000D01*
X122100000Y-110900000D02*
X123400000Y-112200000D01*
X115900000Y-102100000D02*
X122100000Y-108300000D01*
X125100000Y-113900000D02*
X124700000Y-113500000D01*
X122637500Y-96950000D02*
X121937500Y-96250000D01*
%TO.N,/Ethernet/TXN*%
X120508599Y-118731487D02*
X120840086Y-118400000D01*
X121734315Y-117800000D02*
X124290000Y-117800000D01*
X121134314Y-118400000D02*
X121734315Y-117800000D01*
X119842625Y-119397461D02*
X119842625Y-120436127D01*
X119842625Y-120436127D02*
X118889376Y-121389376D01*
X120508599Y-118731487D02*
X119842625Y-119397461D01*
X120523915Y-121117417D02*
X119842625Y-120436127D01*
X124290000Y-117800000D02*
X124921573Y-117168427D01*
X120840086Y-118400000D02*
X121134314Y-118400000D01*
%TO.N,/Ethernet/TXP*%
X125275127Y-117521981D02*
X124597108Y-118200000D01*
X121867417Y-119767417D02*
X121100000Y-119000000D01*
X121867417Y-119773915D02*
X121867417Y-119767417D01*
X124597108Y-118200000D02*
X121900000Y-118200000D01*
X121900000Y-118200000D02*
X121100000Y-119000000D01*
%TO.N,/Ethernet/RXN*%
X124950000Y-121450000D02*
X124246751Y-122153249D01*
X125628680Y-117875534D02*
X124950000Y-118554214D01*
X123476085Y-121382583D02*
X124246751Y-122153249D01*
X124950000Y-118554214D02*
X124950000Y-121450000D01*
%TO.N,/Ethernet/RXP*%
X124408180Y-122914026D02*
X123882456Y-123439750D01*
X123882456Y-123439750D02*
X122846248Y-123439750D01*
X122846248Y-123439750D02*
X122781498Y-123375000D01*
X125350000Y-118861322D02*
X125982234Y-118229088D01*
X125350000Y-121615686D02*
X125350000Y-118861322D01*
X124529275Y-122763011D02*
X124771751Y-122520535D01*
X122781498Y-123439750D02*
X121860624Y-124360624D01*
X122781498Y-123375000D02*
X122781498Y-123439750D01*
X124771751Y-122520535D02*
X124771751Y-122193935D01*
X124408180Y-122884106D02*
X124408180Y-122914026D01*
X124771751Y-122193935D02*
X125350000Y-121615686D01*
X124529275Y-122763011D02*
X124408180Y-122884106D01*
X122781498Y-123375000D02*
X122132583Y-122726085D01*
D67*
%TO.N,/Ethernet/RBIAS*%
X125900000Y-119018428D02*
X125900000Y-121746854D01*
X126335787Y-118582641D02*
X125900000Y-119018428D01*
X125900000Y-121746854D02*
X126268056Y-122114910D01*
%TO.N,/Ethernet/Y_K*%
X123635000Y-139350000D02*
X122085000Y-140900000D01*
X132000000Y-129510000D02*
X132000000Y-134650000D01*
X132000000Y-134650000D02*
X127300000Y-139350000D01*
X127300000Y-139350000D02*
X123635000Y-139350000D01*
%TO.N,/Ethernet/G_K*%
X130750000Y-129500000D02*
X130750000Y-134500000D01*
X126750000Y-138500000D02*
X116315000Y-138500000D01*
X130750000Y-134500000D02*
X126750000Y-138500000D01*
X116315000Y-138500000D02*
X113915000Y-140900000D01*
%TO.N,/Power/5V_LED_A*%
X164287500Y-114500000D02*
X165990000Y-114500000D01*
%TO.N,VIN*%
X182300000Y-113750000D02*
X183088000Y-113750000D01*
D69*
X103500000Y-94650000D02*
X103500000Y-95750000D01*
D67*
X181800000Y-113250000D02*
X182300000Y-113750000D01*
X174500000Y-125037857D02*
X174500000Y-124324000D01*
X174000000Y-126000000D02*
X174000000Y-125537857D01*
X181412000Y-113250000D02*
X181800000Y-113250000D01*
X174000000Y-125537857D02*
X174500000Y-125037857D01*
%TO.N,/Microcontroller/LEDR_K*%
X101722500Y-116000000D02*
X101722500Y-116972500D01*
X101722500Y-116972500D02*
X102000000Y-117250000D01*
D68*
%TO.N,LEDR*%
X122500000Y-95250000D02*
X118000000Y-95250000D01*
X105500000Y-101000000D02*
X105500000Y-115250000D01*
X133250000Y-96250000D02*
X133150000Y-96150000D01*
X134262000Y-96250000D02*
X133250000Y-96250000D01*
X123400000Y-96150000D02*
X122500000Y-95250000D01*
X118000000Y-95250000D02*
X113000000Y-100250000D01*
X105500000Y-115250000D02*
X104750000Y-116000000D01*
X113000000Y-100250000D02*
X106250000Y-100250000D01*
X133150000Y-96150000D02*
X123400000Y-96150000D01*
X104750000Y-116000000D02*
X103297500Y-116000000D01*
X106250000Y-100250000D02*
X105500000Y-101000000D01*
D67*
%TO.N,/Microcontroller/LEDG_K*%
X101722500Y-112172500D02*
X102000000Y-112450000D01*
X101722500Y-111200000D02*
X101722500Y-112172500D01*
D68*
%TO.N,LEDG*%
X123750000Y-95750000D02*
X134262000Y-95750000D01*
X105000000Y-110561875D02*
X105000000Y-100750000D01*
X112750000Y-99750000D02*
X117750000Y-94750000D01*
X117750000Y-94750000D02*
X122750000Y-94750000D01*
X105000000Y-100750000D02*
X106000000Y-99750000D01*
X103297500Y-111200000D02*
X104361875Y-111200000D01*
X104361875Y-111200000D02*
X105000000Y-110561875D01*
X106000000Y-99750000D02*
X112750000Y-99750000D01*
X122750000Y-94750000D02*
X123750000Y-95750000D01*
D67*
%TO.N,/Microcontroller/LEDB_K*%
X101722500Y-122172500D02*
X102000000Y-122450000D01*
X101722500Y-121200000D02*
X101722500Y-122172500D01*
D68*
%TO.N,LEDB*%
X133000000Y-96750000D02*
X132800000Y-96550000D01*
X118250000Y-95750000D02*
X113250000Y-100750000D01*
X106000000Y-120375000D02*
X105175000Y-121200000D01*
X123050000Y-96550000D02*
X122250000Y-95750000D01*
X106000000Y-101250000D02*
X106000000Y-120375000D01*
X132800000Y-96550000D02*
X123050000Y-96550000D01*
X134262000Y-96750000D02*
X133000000Y-96750000D01*
X106500000Y-100750000D02*
X106000000Y-101250000D01*
X122250000Y-95750000D02*
X118250000Y-95750000D01*
X105175000Y-121200000D02*
X103297500Y-121200000D01*
X113250000Y-100750000D02*
X106500000Y-100750000D01*
D67*
%TO.N,/Power/3V3_LED_A*%
X164287500Y-108000000D02*
X165990000Y-108000000D01*
D68*
%TO.N,BTN*%
X170625000Y-56675000D02*
X170825000Y-56675000D01*
X170825000Y-56675000D02*
X172425000Y-56675000D01*
X169500000Y-57800000D02*
X170625000Y-56675000D01*
X173000000Y-57250000D02*
X173000000Y-58270000D01*
X146750000Y-84750000D02*
X146750000Y-89262000D01*
X151050000Y-80450000D02*
X169500000Y-62000000D01*
X169500000Y-62000000D02*
X169500000Y-57800000D01*
X147800000Y-83700000D02*
X146750000Y-84750000D01*
X172425000Y-56675000D02*
X173000000Y-57250000D01*
%TD*%
%TA.AperFunction,Conductor*%
%TO.N,+3.3VA*%
G36*
X127466096Y-118440866D02*
G01*
X128333084Y-119307854D01*
X128358125Y-119350155D01*
X128359733Y-119399285D01*
X128337513Y-119443133D01*
X128296941Y-119470887D01*
X128233329Y-119494040D01*
X128194290Y-119523996D01*
X128141782Y-119576504D01*
X128368056Y-119802779D01*
X128368056Y-119802778D01*
X128510184Y-119944906D01*
X128535807Y-119989287D01*
X128535807Y-120040533D01*
X128510184Y-120084913D01*
X128288472Y-120306625D01*
X128288472Y-120308044D01*
X128280936Y-120345930D01*
X128259476Y-120378048D01*
X127588472Y-121049052D01*
X127059272Y-121578251D01*
X127014891Y-121603874D01*
X126963645Y-121603874D01*
X126919264Y-121578251D01*
X126543790Y-121202777D01*
X126501478Y-121245090D01*
X126471074Y-121284715D01*
X126442529Y-121363142D01*
X126410450Y-121407295D01*
X126359848Y-121427740D01*
X126306101Y-121418263D01*
X126265543Y-121381744D01*
X126250500Y-121329282D01*
X126250500Y-120990644D01*
X126755923Y-120990644D01*
X126989269Y-121223990D01*
X127376340Y-120836921D01*
X127477136Y-120736123D01*
X127243790Y-120502777D01*
X127201478Y-120545090D01*
X127171076Y-120584712D01*
X127130066Y-120697387D01*
X127130066Y-120777920D01*
X127116803Y-120827420D01*
X127080566Y-120863657D01*
X127031066Y-120876920D01*
X126950533Y-120876920D01*
X126837858Y-120917930D01*
X126798236Y-120948332D01*
X126755923Y-120990644D01*
X126250500Y-120990644D01*
X126250500Y-120290644D01*
X127455923Y-120290644D01*
X127689269Y-120523990D01*
X127766782Y-120446477D01*
X127766782Y-120445060D01*
X127774318Y-120407174D01*
X127795778Y-120375057D01*
X128155923Y-120014910D01*
X127929649Y-119788636D01*
X127877145Y-119841141D01*
X127847188Y-119880179D01*
X127806782Y-119991197D01*
X127806782Y-120077920D01*
X127793519Y-120127420D01*
X127757282Y-120163657D01*
X127707782Y-120176920D01*
X127650533Y-120176920D01*
X127537858Y-120217930D01*
X127498236Y-120248332D01*
X127455923Y-120290644D01*
X126250500Y-120290644D01*
X126250500Y-119204618D01*
X126258036Y-119166732D01*
X126279496Y-119134614D01*
X126322759Y-119091351D01*
X126322759Y-119091352D01*
X126477918Y-118936193D01*
X127255025Y-118936193D01*
X127445734Y-119126902D01*
X127495186Y-119159945D01*
X127573223Y-119175467D01*
X127651260Y-119159945D01*
X127700712Y-119126902D01*
X127714644Y-119112971D01*
X127396446Y-118794773D01*
X127255025Y-118936193D01*
X126477918Y-118936193D01*
X126664597Y-118749513D01*
X126796468Y-118617641D01*
X126840847Y-118592019D01*
X126892093Y-118592019D01*
X126936474Y-118617642D01*
X127042893Y-118724061D01*
X127326088Y-118440866D01*
X127370469Y-118415243D01*
X127421715Y-118415243D01*
X127466096Y-118440866D01*
G37*
%TD.AperFunction*%
%TD*%
%TA.AperFunction,Conductor*%
%TO.N,GND*%
G36*
X178744517Y-126911707D02*
G01*
X178787178Y-126944614D01*
X178971261Y-127165514D01*
X178992594Y-127202681D01*
X179000000Y-127244894D01*
X179000000Y-128348638D01*
X178990561Y-128396091D01*
X178963681Y-128436319D01*
X178786319Y-128613681D01*
X178746091Y-128640561D01*
X178698638Y-128650000D01*
X176656268Y-128650000D01*
X176605029Y-128638918D01*
X176562948Y-128607654D01*
X176351180Y-128365633D01*
X176328423Y-128327593D01*
X176320500Y-128283979D01*
X176320500Y-128020415D01*
X176309582Y-127945481D01*
X176253077Y-127829898D01*
X176192507Y-127769328D01*
X176160413Y-127713740D01*
X176160413Y-127649553D01*
X176192507Y-127593965D01*
X176252665Y-127533806D01*
X176293885Y-127449490D01*
X176335256Y-127401617D01*
X176394860Y-127380388D01*
X176457179Y-127391329D01*
X176505986Y-127431593D01*
X176528576Y-127490695D01*
X176531082Y-127514006D01*
X176578816Y-127641986D01*
X176660669Y-127751330D01*
X176770013Y-127833183D01*
X176897992Y-127880917D01*
X176954567Y-127887000D01*
X177000000Y-127887000D01*
X177000000Y-127437000D01*
X177500000Y-127437000D01*
X177500000Y-127886999D01*
X177545433Y-127886999D01*
X177602006Y-127880917D01*
X177729986Y-127833183D01*
X177839330Y-127751330D01*
X177921183Y-127641986D01*
X177968917Y-127514007D01*
X177975000Y-127457433D01*
X177975000Y-127437000D01*
X177500000Y-127437000D01*
X177000000Y-127437000D01*
X177000000Y-127061000D01*
X177016613Y-126999000D01*
X177062000Y-126953613D01*
X177124000Y-126937000D01*
X177974999Y-126937000D01*
X177975680Y-126936319D01*
X178015908Y-126909439D01*
X178063361Y-126900000D01*
X178691922Y-126900000D01*
X178744517Y-126911707D01*
G37*
%TD.AperFunction*%
%TA.AperFunction,Conductor*%
G36*
X175938000Y-125908613D02*
G01*
X175983387Y-125954000D01*
X176000000Y-126016000D01*
X176000000Y-127298000D01*
X175983387Y-127360000D01*
X175938000Y-127405387D01*
X175876000Y-127422000D01*
X175624000Y-127422000D01*
X175562000Y-127405387D01*
X175516613Y-127360000D01*
X175500000Y-127298000D01*
X175500000Y-126016000D01*
X175516613Y-125954000D01*
X175562000Y-125908613D01*
X175624000Y-125892000D01*
X175876000Y-125892000D01*
X175938000Y-125908613D01*
G37*
%TD.AperFunction*%
%TA.AperFunction,Conductor*%
G36*
X176516634Y-126266634D02*
G01*
X176680721Y-126430721D01*
X176709222Y-126475069D01*
X176716724Y-126527248D01*
X176701872Y-126577829D01*
X176667350Y-126617670D01*
X176660667Y-126622672D01*
X176578816Y-126732013D01*
X176525639Y-126874586D01*
X176525213Y-126874427D01*
X176508626Y-126917819D01*
X176459818Y-126958079D01*
X176397500Y-126969019D01*
X176337898Y-126947789D01*
X176296528Y-126899917D01*
X176252664Y-126810190D01*
X176185689Y-126743215D01*
X176153595Y-126687628D01*
X176153595Y-126623440D01*
X176185689Y-126567853D01*
X176239448Y-126514093D01*
X176295535Y-126404018D01*
X176306480Y-126334917D01*
X176334663Y-126273783D01*
X176390635Y-126236384D01*
X176457900Y-126233741D01*
X176516634Y-126266634D01*
G37*
%TD.AperFunction*%
%TD*%
%TA.AperFunction,Conductor*%
%TO.N,VIN*%
G36*
X182280985Y-113507536D02*
G01*
X182313102Y-113528995D01*
X182339591Y-113555484D01*
X182339594Y-113555486D01*
X182362158Y-113578050D01*
X182383651Y-113589001D01*
X182396887Y-113597112D01*
X182416409Y-113611295D01*
X182416410Y-113611295D01*
X182416411Y-113611296D01*
X182439361Y-113618752D01*
X182453701Y-113624693D01*
X182475196Y-113635646D01*
X182499034Y-113639421D01*
X182514111Y-113643041D01*
X182537067Y-113650500D01*
X182537069Y-113650500D01*
X183139000Y-113650500D01*
X183188500Y-113663763D01*
X183224737Y-113700000D01*
X183238000Y-113749500D01*
X183238000Y-114099999D01*
X183238001Y-114100000D01*
X183354950Y-114100000D01*
X183354950Y-114102016D01*
X183387053Y-114103590D01*
X183428324Y-114128325D01*
X183691000Y-114391000D01*
X183800000Y-114500000D01*
X187059641Y-114500000D01*
X187097014Y-114507325D01*
X187128855Y-114528217D01*
X187396727Y-114790161D01*
X187479197Y-114870806D01*
X187501273Y-114903289D01*
X187508981Y-114941799D01*
X187504504Y-117039672D01*
X187502579Y-117941921D01*
X187502432Y-118010711D01*
X187489098Y-118060122D01*
X187452871Y-118096272D01*
X187403432Y-118109500D01*
X187176565Y-118109500D01*
X187153625Y-118116953D01*
X187138525Y-118120579D01*
X187114693Y-118124354D01*
X187093197Y-118135306D01*
X187078855Y-118141247D01*
X187055912Y-118148702D01*
X187036392Y-118162884D01*
X187023155Y-118170995D01*
X187001658Y-118181949D01*
X186979091Y-118204516D01*
X186363102Y-118820504D01*
X186330984Y-118841964D01*
X186293098Y-118849500D01*
X185352128Y-118849500D01*
X185292515Y-118855909D01*
X185157669Y-118906203D01*
X185042454Y-118992454D01*
X184956202Y-119107670D01*
X184946973Y-119132414D01*
X184919046Y-119172635D01*
X184875259Y-119194553D01*
X184826324Y-119192805D01*
X184784212Y-119167819D01*
X184655934Y-119039541D01*
X184655934Y-119039540D01*
X184655931Y-119039538D01*
X184638342Y-119021949D01*
X184616850Y-119010998D01*
X184603610Y-119002885D01*
X184584090Y-118988704D01*
X184561141Y-118981247D01*
X184546796Y-118975305D01*
X184525304Y-118964354D01*
X184525303Y-118964353D01*
X184525302Y-118964353D01*
X184501474Y-118960579D01*
X184486373Y-118956953D01*
X184463433Y-118949500D01*
X184431519Y-118949500D01*
X184130850Y-118949500D01*
X184075850Y-118932816D01*
X184047740Y-118914034D01*
X183974674Y-118899500D01*
X183425326Y-118899500D01*
X183391628Y-118906203D01*
X183352259Y-118914034D01*
X183259630Y-118975926D01*
X183237692Y-118995810D01*
X183191024Y-119007500D01*
X182942501Y-119007500D01*
X182942500Y-119007501D01*
X182942500Y-119393500D01*
X182929237Y-119443000D01*
X182893000Y-119479237D01*
X182843500Y-119492500D01*
X182379198Y-119492500D01*
X182341493Y-119500000D01*
X181450001Y-119500000D01*
X181443475Y-119506525D01*
X181439790Y-119522332D01*
X181411267Y-119557087D01*
X181370315Y-119575642D01*
X181344175Y-119580841D01*
X181329062Y-119583848D01*
X181281132Y-119598388D01*
X181236958Y-119622000D01*
X181220023Y-119633316D01*
X181165022Y-119650000D01*
X181100000Y-119650000D01*
X180750000Y-120000000D01*
X180750000Y-120000001D01*
X180750000Y-120190648D01*
X180749523Y-120200350D01*
X180744500Y-120251357D01*
X180744500Y-124409879D01*
X180749193Y-124446408D01*
X180750000Y-124459023D01*
X180750000Y-124460976D01*
X180749193Y-124473591D01*
X180744500Y-124510121D01*
X180744500Y-125714492D01*
X180736964Y-125752378D01*
X180715504Y-125784496D01*
X180278996Y-126221004D01*
X180246878Y-126242464D01*
X180208992Y-126250000D01*
X177940846Y-126250000D01*
X177892472Y-126237377D01*
X177856435Y-126202727D01*
X177841922Y-126154887D01*
X177852636Y-126106055D01*
X177909238Y-125994967D01*
X177925000Y-125895451D01*
X177925000Y-125787001D01*
X177924999Y-125787000D01*
X176573506Y-125787000D01*
X176535218Y-125779296D01*
X176502888Y-125757384D01*
X176272456Y-125522855D01*
X176254092Y-125486999D01*
X176575000Y-125486999D01*
X176575001Y-125487000D01*
X177099999Y-125487000D01*
X177100000Y-125486999D01*
X177400000Y-125486999D01*
X177400001Y-125487000D01*
X177924998Y-125487000D01*
X177924999Y-125486999D01*
X177924999Y-125378547D01*
X177909239Y-125279031D01*
X177848119Y-125159079D01*
X177752921Y-125063881D01*
X177632967Y-125002761D01*
X177533451Y-124987000D01*
X177400001Y-124987000D01*
X177400000Y-124987001D01*
X177400000Y-125486999D01*
X177100000Y-125486999D01*
X177100000Y-124987002D01*
X177099999Y-124987001D01*
X176966547Y-124987001D01*
X176867031Y-125002760D01*
X176747079Y-125063880D01*
X176651881Y-125159078D01*
X176590761Y-125279032D01*
X176575000Y-125378549D01*
X176575000Y-125486999D01*
X176254092Y-125486999D01*
X176245504Y-125470231D01*
X176253353Y-125411628D01*
X176253481Y-125411352D01*
X176260000Y-125361840D01*
X176260000Y-125332001D01*
X176259999Y-125332000D01*
X175240001Y-125332000D01*
X175211004Y-125360997D01*
X175210239Y-125360232D01*
X175185274Y-125383048D01*
X175132109Y-125393100D01*
X175081600Y-125373700D01*
X174625999Y-125031999D01*
X175240000Y-125031999D01*
X175240001Y-125032000D01*
X175599999Y-125032000D01*
X175600000Y-125031999D01*
X175900000Y-125031999D01*
X175900001Y-125032000D01*
X176259999Y-125032000D01*
X176260000Y-125031999D01*
X176260000Y-125002161D01*
X176253480Y-124952642D01*
X176202809Y-124843978D01*
X176118021Y-124759190D01*
X176009357Y-124708519D01*
X175959839Y-124702000D01*
X175900001Y-124702000D01*
X175900000Y-124702001D01*
X175900000Y-125031999D01*
X175600000Y-125031999D01*
X175600000Y-124702001D01*
X175599999Y-124702000D01*
X175540161Y-124702000D01*
X175490642Y-124708519D01*
X175381978Y-124759190D01*
X175297190Y-124843978D01*
X175246519Y-124952642D01*
X175240000Y-125002161D01*
X175240000Y-125031999D01*
X174625999Y-125031999D01*
X174440100Y-124892575D01*
X174410952Y-124857649D01*
X174400500Y-124813375D01*
X174400500Y-124761499D01*
X174650000Y-124761499D01*
X174650001Y-124761500D01*
X174669697Y-124761500D01*
X174728036Y-124749895D01*
X174794192Y-124705692D01*
X174838395Y-124639536D01*
X174850000Y-124581197D01*
X174850000Y-124474001D01*
X174849999Y-124474000D01*
X174650001Y-124474000D01*
X174650000Y-124474001D01*
X174650000Y-124761499D01*
X174400500Y-124761499D01*
X174400500Y-124273000D01*
X174413763Y-124223500D01*
X174450000Y-124187263D01*
X174499500Y-124174000D01*
X174849999Y-124174000D01*
X174850000Y-124173999D01*
X174850000Y-124099000D01*
X174863263Y-124049500D01*
X174899500Y-124013263D01*
X174949000Y-124000000D01*
X174999999Y-124000000D01*
X175000000Y-124000000D01*
X175500000Y-123500000D01*
X175500000Y-121541008D01*
X175507536Y-121503122D01*
X175528996Y-121471005D01*
X176596929Y-120403070D01*
X176814521Y-120185477D01*
X176850663Y-120162452D01*
X176893151Y-120156859D01*
X176934021Y-120169744D01*
X177158801Y-120299521D01*
X177158802Y-120299521D01*
X177175794Y-120309331D01*
X177176044Y-120309415D01*
X177234544Y-120343192D01*
X177399045Y-120403070D01*
X177479656Y-120417286D01*
X177571441Y-120433473D01*
X177571455Y-120433473D01*
X177746504Y-120433478D01*
X177892230Y-120407785D01*
X177918900Y-120403084D01*
X177918900Y-120403083D01*
X177918905Y-120403083D01*
X178083410Y-120343214D01*
X178235018Y-120255688D01*
X178369125Y-120143165D01*
X178481655Y-120009065D01*
X178518098Y-119945947D01*
X178518106Y-119945936D01*
X178525373Y-119933348D01*
X178525375Y-119933348D01*
X178932727Y-119227793D01*
X178948774Y-119199999D01*
X181450000Y-119199999D01*
X181450001Y-119200000D01*
X181749999Y-119200000D01*
X181750000Y-119199999D01*
X182050000Y-119199999D01*
X182050001Y-119200000D01*
X182341493Y-119200000D01*
X182379198Y-119207500D01*
X182657499Y-119207500D01*
X182657500Y-119207499D01*
X182657500Y-119007501D01*
X182657499Y-119007500D01*
X182326756Y-119007500D01*
X182271755Y-118990816D01*
X182228036Y-118961604D01*
X182169697Y-118950000D01*
X182050001Y-118950000D01*
X182050000Y-118950001D01*
X182050000Y-119199999D01*
X181750000Y-119199999D01*
X181750000Y-118950001D01*
X181749999Y-118950000D01*
X181630303Y-118950000D01*
X181571963Y-118961604D01*
X181505807Y-119005807D01*
X181461604Y-119071963D01*
X181450000Y-119130303D01*
X181450000Y-119199999D01*
X178948774Y-119199999D01*
X179004662Y-119103199D01*
X179004756Y-119103091D01*
X179025448Y-119067251D01*
X179025449Y-119067252D01*
X179069217Y-118991446D01*
X179129094Y-118826935D01*
X179159494Y-118654526D01*
X179159493Y-118604500D01*
X179172756Y-118555001D01*
X179208993Y-118518764D01*
X179258493Y-118505500D01*
X180199654Y-118505500D01*
X180199655Y-118505500D01*
X180243806Y-118501656D01*
X180286019Y-118494250D01*
X180369060Y-118464185D01*
X180406226Y-118442852D01*
X180442601Y-118417542D01*
X180663501Y-118233459D01*
X180702239Y-118193233D01*
X180735147Y-118150572D01*
X180764220Y-118102889D01*
X180782238Y-118050030D01*
X180793945Y-117997435D01*
X180800049Y-117941922D01*
X180800049Y-117345910D01*
X180795140Y-117296064D01*
X180785701Y-117248611D01*
X180771161Y-117200680D01*
X180771159Y-117200678D01*
X180768330Y-117191349D01*
X180770741Y-117190617D01*
X180762559Y-117151756D01*
X180782020Y-117099928D01*
X180789685Y-117089688D01*
X180789687Y-117089687D01*
X180827128Y-117039670D01*
X180862067Y-117010472D01*
X180906381Y-117000000D01*
X180999999Y-117000000D01*
X181000000Y-117000000D01*
X181000000Y-116999999D01*
X181007183Y-116992815D01*
X181013787Y-116968677D01*
X181051306Y-116932318D01*
X181102110Y-116920121D01*
X181152047Y-116935483D01*
X181187210Y-116974127D01*
X181201881Y-117002921D01*
X181297078Y-117098118D01*
X181417032Y-117159238D01*
X181516549Y-117175000D01*
X181624999Y-117175000D01*
X181625000Y-117174999D01*
X181625000Y-117174998D01*
X181925000Y-117174998D01*
X181925001Y-117174999D01*
X182033453Y-117174999D01*
X182132968Y-117159239D01*
X182252920Y-117098119D01*
X182348118Y-117002921D01*
X182409238Y-116882967D01*
X182425000Y-116783451D01*
X182425000Y-116704200D01*
X184950001Y-116704200D01*
X184952851Y-116734604D01*
X184997654Y-116862645D01*
X185078208Y-116971791D01*
X185187354Y-117052345D01*
X185315398Y-117097149D01*
X185345792Y-117100000D01*
X185849999Y-117100000D01*
X185850000Y-117099999D01*
X185850000Y-117099998D01*
X186150000Y-117099998D01*
X186150001Y-117099999D01*
X186654200Y-117099999D01*
X186684604Y-117097148D01*
X186812645Y-117052345D01*
X186921791Y-116971791D01*
X187002345Y-116862645D01*
X187047149Y-116734601D01*
X187050000Y-116704208D01*
X187050000Y-116400001D01*
X187049999Y-116400000D01*
X186150001Y-116400000D01*
X186150000Y-116400001D01*
X186150000Y-117099998D01*
X185850000Y-117099998D01*
X185850000Y-116400001D01*
X185849999Y-116400000D01*
X184950002Y-116400000D01*
X184950001Y-116400001D01*
X184950001Y-116704200D01*
X182425000Y-116704200D01*
X182425000Y-116650001D01*
X182424999Y-116650000D01*
X181925001Y-116650000D01*
X181925000Y-116650001D01*
X181925000Y-117174998D01*
X181625000Y-117174998D01*
X181625000Y-116349999D01*
X181925000Y-116349999D01*
X181925001Y-116350000D01*
X182424998Y-116350000D01*
X182424999Y-116349999D01*
X182424999Y-116216547D01*
X182409239Y-116117031D01*
X182400561Y-116099999D01*
X184950000Y-116099999D01*
X184950001Y-116100000D01*
X185849999Y-116100000D01*
X185850000Y-116099999D01*
X186150000Y-116099999D01*
X186150001Y-116100000D01*
X187049998Y-116100000D01*
X187049999Y-116099999D01*
X187049999Y-115795800D01*
X187047148Y-115765395D01*
X187002345Y-115637354D01*
X186921791Y-115528208D01*
X186812645Y-115447654D01*
X186684601Y-115402850D01*
X186654208Y-115400000D01*
X186150001Y-115400000D01*
X186150000Y-115400001D01*
X186150000Y-116099999D01*
X185850000Y-116099999D01*
X185850000Y-115400002D01*
X185849999Y-115400001D01*
X185345800Y-115400001D01*
X185315395Y-115402851D01*
X185187354Y-115447654D01*
X185078208Y-115528208D01*
X184997654Y-115637354D01*
X184952850Y-115765398D01*
X184950000Y-115795792D01*
X184950000Y-116099999D01*
X182400561Y-116099999D01*
X182348119Y-115997079D01*
X182252921Y-115901881D01*
X182132967Y-115840761D01*
X182033451Y-115825000D01*
X181925001Y-115825000D01*
X181925000Y-115825001D01*
X181925000Y-116349999D01*
X181625000Y-116349999D01*
X181625000Y-115825002D01*
X181624999Y-115825001D01*
X181558806Y-115825001D01*
X181506527Y-115810072D01*
X181470015Y-115769787D01*
X181460283Y-115716296D01*
X181461660Y-115702319D01*
X181459446Y-115645986D01*
X181469016Y-115599477D01*
X181499144Y-115562772D01*
X181518872Y-115554450D01*
X181518203Y-115553136D01*
X181532175Y-115546017D01*
X181642391Y-115489859D01*
X181715707Y-115416542D01*
X181760086Y-115390921D01*
X181811332Y-115390921D01*
X181855713Y-115416544D01*
X181891978Y-115452809D01*
X182000642Y-115503480D01*
X182050161Y-115510000D01*
X182079999Y-115510000D01*
X182080000Y-115509999D01*
X182380000Y-115509999D01*
X182380001Y-115510000D01*
X182409839Y-115510000D01*
X182459357Y-115503480D01*
X182568021Y-115452809D01*
X182652809Y-115368021D01*
X182703480Y-115259357D01*
X182710000Y-115209839D01*
X182710000Y-115150001D01*
X182709999Y-115150000D01*
X182380001Y-115150000D01*
X182380000Y-115150001D01*
X182380000Y-115509999D01*
X182080000Y-115509999D01*
X182080000Y-114849999D01*
X182380000Y-114849999D01*
X182380001Y-114850000D01*
X182709999Y-114850000D01*
X182710000Y-114849999D01*
X182710000Y-114790161D01*
X182703480Y-114740642D01*
X182652809Y-114631978D01*
X182568021Y-114547190D01*
X182459357Y-114496519D01*
X182409839Y-114490000D01*
X182380001Y-114490000D01*
X182380000Y-114490001D01*
X182380000Y-114849999D01*
X182080000Y-114849999D01*
X182080000Y-114490001D01*
X182073044Y-114483045D01*
X182049500Y-114476737D01*
X182013263Y-114440500D01*
X182000000Y-114391000D01*
X182000000Y-113919697D01*
X182650500Y-113919697D01*
X182662104Y-113978036D01*
X182706307Y-114044192D01*
X182772463Y-114088395D01*
X182830803Y-114100000D01*
X182937999Y-114100000D01*
X182938000Y-114099999D01*
X182938000Y-113900001D01*
X182937999Y-113900000D01*
X182650501Y-113900000D01*
X182650500Y-113900001D01*
X182650500Y-113919697D01*
X182000000Y-113919697D01*
X182000000Y-113599000D01*
X182013263Y-113549500D01*
X182049500Y-113513263D01*
X182099000Y-113500000D01*
X182243099Y-113500000D01*
X182280985Y-113507536D01*
G37*
%TD.AperFunction*%
%TD*%
%TA.AperFunction,Conductor*%
%TO.N,+3.3V*%
G36*
X188688000Y-107016613D02*
G01*
X188733387Y-107062000D01*
X188750000Y-107124000D01*
X188750000Y-111626000D01*
X188733387Y-111688000D01*
X188688000Y-111733387D01*
X188626000Y-111750000D01*
X183874000Y-111750000D01*
X183812000Y-111733387D01*
X183766613Y-111688000D01*
X183750000Y-111626000D01*
X183750000Y-110000000D01*
X183573665Y-110000000D01*
X183516190Y-109985876D01*
X183471809Y-109946720D01*
X183450632Y-109891454D01*
X183457483Y-109832667D01*
X183468917Y-109802009D01*
X183475000Y-109745433D01*
X183475000Y-109725000D01*
X181124000Y-109725000D01*
X181062000Y-109708387D01*
X181016613Y-109663000D01*
X181013130Y-109650000D01*
X184500000Y-109650000D01*
X184500000Y-110174625D01*
X184514504Y-110247543D01*
X184569760Y-110330239D01*
X184652456Y-110385495D01*
X184725375Y-110400000D01*
X185750000Y-110400000D01*
X185750000Y-109650000D01*
X186250000Y-109650000D01*
X186250000Y-110400000D01*
X187274625Y-110400000D01*
X187347543Y-110385495D01*
X187430239Y-110330239D01*
X187485495Y-110247543D01*
X187500000Y-110174625D01*
X187500000Y-109650000D01*
X186250000Y-109650000D01*
X185750000Y-109650000D01*
X184500000Y-109650000D01*
X181013130Y-109650000D01*
X181000000Y-109601000D01*
X181000000Y-108775001D01*
X180954567Y-108775001D01*
X180887253Y-108782237D01*
X180845733Y-108775000D01*
X181500000Y-108775000D01*
X181500000Y-109225000D01*
X182500000Y-109225000D01*
X182500000Y-108775001D01*
X182454567Y-108775001D01*
X182397993Y-108781082D01*
X182270013Y-108828816D01*
X182160669Y-108910669D01*
X182099267Y-108992694D01*
X182055505Y-109029268D01*
X182000000Y-109042384D01*
X181944495Y-109029268D01*
X181900733Y-108992694D01*
X181839330Y-108910669D01*
X181729986Y-108828816D01*
X181602007Y-108781082D01*
X181545433Y-108775000D01*
X183000000Y-108775000D01*
X183000000Y-109225000D01*
X183474999Y-109225000D01*
X183474999Y-109204567D01*
X183469133Y-109150000D01*
X184500000Y-109150000D01*
X185750000Y-109150000D01*
X185750000Y-108400000D01*
X186250000Y-108400000D01*
X186250000Y-109150000D01*
X187500000Y-109150000D01*
X187500000Y-108625375D01*
X187485495Y-108552456D01*
X187430239Y-108469760D01*
X187347543Y-108414504D01*
X187274625Y-108400000D01*
X186250000Y-108400000D01*
X185750000Y-108400000D01*
X184725375Y-108400000D01*
X184652456Y-108414504D01*
X184569760Y-108469760D01*
X184514504Y-108552456D01*
X184500000Y-108625375D01*
X184500000Y-109150000D01*
X183469133Y-109150000D01*
X183468917Y-109147993D01*
X183421183Y-109020013D01*
X183339330Y-108910669D01*
X183229986Y-108828816D01*
X183102007Y-108781082D01*
X183045433Y-108775000D01*
X183000000Y-108775000D01*
X181545433Y-108775000D01*
X181500000Y-108775000D01*
X180845733Y-108775000D01*
X180819818Y-108770483D01*
X180768894Y-108724740D01*
X180750000Y-108658947D01*
X180750000Y-107975114D01*
X180761618Y-107922709D01*
X180794294Y-107880124D01*
X180841906Y-107855339D01*
X180895530Y-107852998D01*
X182117248Y-108068419D01*
X182117614Y-108068553D01*
X182161591Y-108076240D01*
X182162862Y-108076469D01*
X182185178Y-108080609D01*
X182186427Y-108080581D01*
X182202734Y-108083432D01*
X182202876Y-108083456D01*
X182248346Y-108091475D01*
X182423405Y-108091480D01*
X182595806Y-108061085D01*
X182760309Y-108001216D01*
X182911917Y-107913691D01*
X183046023Y-107801170D01*
X183158554Y-107667071D01*
X183246089Y-107515468D01*
X183305968Y-107350969D01*
X183321171Y-107264770D01*
X183321258Y-107264278D01*
X183321257Y-107264277D01*
X183328396Y-107223905D01*
X183328399Y-107223765D01*
X183349788Y-107102467D01*
X183372441Y-107049952D01*
X183416253Y-107013189D01*
X183471904Y-107000000D01*
X188626000Y-107000000D01*
X188688000Y-107016613D01*
G37*
%TD.AperFunction*%
%TD*%
%TA.AperFunction,Conductor*%
%TO.N,/Power/5V_SW*%
G36*
X174696878Y-120007536D02*
G01*
X174728996Y-120028996D01*
X174771004Y-120071004D01*
X174792464Y-120103122D01*
X174800000Y-120141008D01*
X174800000Y-123658992D01*
X174792464Y-123696878D01*
X174771004Y-123728996D01*
X174728996Y-123771004D01*
X174696878Y-123792464D01*
X174658992Y-123800000D01*
X174200000Y-123800000D01*
X174100000Y-123900000D01*
X174100000Y-123900001D01*
X174100000Y-124049563D01*
X174099500Y-124054640D01*
X174099500Y-124291004D01*
X174082381Y-124346650D01*
X174036944Y-124383052D01*
X173978903Y-124387620D01*
X173928332Y-124358774D01*
X173902719Y-124306490D01*
X173901719Y-124300176D01*
X173900500Y-124284690D01*
X173900500Y-124054640D01*
X173900000Y-124049563D01*
X173900000Y-123900001D01*
X173900000Y-123900000D01*
X173800000Y-123800000D01*
X173799999Y-123800000D01*
X173331928Y-123800000D01*
X173294604Y-123792695D01*
X173262788Y-123771857D01*
X173261914Y-123771004D01*
X173234153Y-123743915D01*
X173234148Y-123743911D01*
X173191319Y-123710486D01*
X173143360Y-123680934D01*
X173090106Y-123662614D01*
X173037083Y-123650707D01*
X173005341Y-123647187D01*
X172988087Y-123645274D01*
X172943328Y-123628741D01*
X172911500Y-123593189D01*
X172900000Y-123546878D01*
X172900000Y-120141008D01*
X172907536Y-120103122D01*
X172928996Y-120071004D01*
X172971004Y-120028996D01*
X173003122Y-120007536D01*
X173041008Y-120000000D01*
X174658992Y-120000000D01*
X174696878Y-120007536D01*
G37*
%TD.AperFunction*%
%TD*%
%TA.AperFunction,Conductor*%
%TO.N,GND*%
G36*
X173034122Y-123911905D02*
G01*
X173076959Y-123945336D01*
X173101389Y-123993872D01*
X173102722Y-124048193D01*
X173100000Y-124061877D01*
X173100000Y-124174000D01*
X173475500Y-124174000D01*
X173537500Y-124190613D01*
X173582887Y-124236000D01*
X173599500Y-124298000D01*
X173599500Y-124350000D01*
X173582887Y-124412000D01*
X173537500Y-124457387D01*
X173475500Y-124474000D01*
X173100000Y-124474000D01*
X173100000Y-124586125D01*
X173115749Y-124665301D01*
X173133627Y-124719416D01*
X173119134Y-124783953D01*
X173073525Y-124831858D01*
X173009776Y-124849500D01*
X172868224Y-124849500D01*
X172868212Y-124849501D01*
X172846567Y-124849501D01*
X172825499Y-124856346D01*
X172806583Y-124860887D01*
X172784695Y-124864354D01*
X172764951Y-124874413D01*
X172746984Y-124881855D01*
X172725910Y-124888703D01*
X172707984Y-124901727D01*
X172691399Y-124911890D01*
X172671658Y-124921948D01*
X172665980Y-124927627D01*
X172610392Y-124959717D01*
X172546207Y-124959715D01*
X172490622Y-124927622D01*
X172475000Y-124912000D01*
X172025000Y-124912000D01*
X172025000Y-125386999D01*
X172045439Y-125386999D01*
X172052251Y-125386267D01*
X172119685Y-125398022D01*
X172170607Y-125443765D01*
X172189500Y-125509557D01*
X172189500Y-125564442D01*
X172170606Y-125630234D01*
X172119683Y-125675978D01*
X172052248Y-125687732D01*
X172045438Y-125687000D01*
X172025000Y-125687000D01*
X172025000Y-127136999D01*
X172045439Y-127136999D01*
X172052251Y-127136267D01*
X172119685Y-127148022D01*
X172170607Y-127193765D01*
X172189500Y-127259557D01*
X172189500Y-127590624D01*
X172193809Y-127645402D01*
X172171653Y-127698888D01*
X172127630Y-127736485D01*
X172071336Y-127750000D01*
X171567754Y-127750000D01*
X171520301Y-127740561D01*
X171480073Y-127713681D01*
X171436319Y-127669927D01*
X171409439Y-127629699D01*
X171400000Y-127582246D01*
X171400000Y-127261000D01*
X171416613Y-127199000D01*
X171462000Y-127153613D01*
X171524000Y-127137000D01*
X171525000Y-127137000D01*
X171525000Y-125687001D01*
X171504567Y-125687001D01*
X171437253Y-125694237D01*
X171369818Y-125682483D01*
X171318894Y-125636740D01*
X171300000Y-125570947D01*
X171300000Y-125503053D01*
X171318894Y-125437260D01*
X171369819Y-125391516D01*
X171437255Y-125379764D01*
X171504558Y-125387000D01*
X171525000Y-125387000D01*
X171525000Y-124536000D01*
X171541613Y-124474000D01*
X171587000Y-124428613D01*
X171649000Y-124412000D01*
X172474999Y-124412000D01*
X172474999Y-124366567D01*
X172468917Y-124309993D01*
X172421183Y-124182013D01*
X172358524Y-124098310D01*
X172334285Y-124035052D01*
X172346907Y-123968495D01*
X172392624Y-123918505D01*
X172457791Y-123900000D01*
X172981105Y-123900000D01*
X173034122Y-123911905D01*
G37*
%TD.AperFunction*%
%TD*%
%TA.AperFunction,Conductor*%
%TO.N,GND*%
G36*
X179818033Y-115442507D02*
G01*
X179878190Y-115502664D01*
X179962510Y-115543885D01*
X180010382Y-115585256D01*
X180031611Y-115644860D01*
X180020670Y-115707179D01*
X179980406Y-115755986D01*
X179921305Y-115778576D01*
X179897993Y-115781082D01*
X179770013Y-115828816D01*
X179660669Y-115910669D01*
X179578816Y-116020013D01*
X179531082Y-116147992D01*
X179525000Y-116204567D01*
X179525000Y-116250000D01*
X180351000Y-116250000D01*
X180413000Y-116266613D01*
X180458387Y-116312000D01*
X180475000Y-116374000D01*
X180475000Y-117224999D01*
X180508230Y-117258229D01*
X180535110Y-117298457D01*
X180544549Y-117345910D01*
X180544549Y-117941922D01*
X180532842Y-117994517D01*
X180499934Y-118037178D01*
X180279034Y-118221261D01*
X180241868Y-118242594D01*
X180199655Y-118250000D01*
X179195148Y-118250000D01*
X179146035Y-118239859D01*
X179104955Y-118211095D01*
X179078627Y-118168412D01*
X179069210Y-118142541D01*
X179069210Y-118142540D01*
X178981672Y-117990928D01*
X178981671Y-117990926D01*
X178981670Y-117990925D01*
X178869139Y-117856823D01*
X178838846Y-117831406D01*
X178806168Y-117788820D01*
X178794549Y-117736414D01*
X178794549Y-116750000D01*
X179525001Y-116750000D01*
X179525001Y-116795433D01*
X179531082Y-116852006D01*
X179578816Y-116979986D01*
X179660669Y-117089330D01*
X179770013Y-117171183D01*
X179897992Y-117218917D01*
X179954567Y-117225000D01*
X179975000Y-117225000D01*
X179975000Y-116750000D01*
X179525001Y-116750000D01*
X178794549Y-116750000D01*
X178794549Y-115906268D01*
X178805631Y-115855029D01*
X178836895Y-115812948D01*
X179078916Y-115601180D01*
X179116956Y-115578423D01*
X179160570Y-115570500D01*
X179391585Y-115570500D01*
X179466518Y-115559582D01*
X179582099Y-115503078D01*
X179582100Y-115503076D01*
X179582102Y-115503076D01*
X179642672Y-115442505D01*
X179698258Y-115410413D01*
X179762445Y-115410413D01*
X179818033Y-115442507D01*
G37*
%TD.AperFunction*%
%TA.AperFunction,Conductor*%
G36*
X180844147Y-115435689D02*
G01*
X180897906Y-115489448D01*
X181007981Y-115545535D01*
X181105181Y-115560930D01*
X181166314Y-115589113D01*
X181203714Y-115645085D01*
X181206357Y-115712350D01*
X181173464Y-115771084D01*
X180995213Y-115949335D01*
X180950865Y-115977836D01*
X180898685Y-115985338D01*
X180848104Y-115970486D01*
X180808264Y-115935964D01*
X180789327Y-115910667D01*
X180679986Y-115828816D01*
X180537414Y-115775639D01*
X180537572Y-115775213D01*
X180494181Y-115758627D01*
X180453920Y-115709818D01*
X180442980Y-115647500D01*
X180464210Y-115587898D01*
X180512082Y-115546528D01*
X180601809Y-115502664D01*
X180668785Y-115435689D01*
X180724372Y-115403595D01*
X180788560Y-115403595D01*
X180844147Y-115435689D01*
G37*
%TD.AperFunction*%
%TA.AperFunction,Conductor*%
G36*
X181458000Y-114766613D02*
G01*
X181503387Y-114812000D01*
X181520000Y-114874000D01*
X181520000Y-115126000D01*
X181503387Y-115188000D01*
X181458000Y-115233387D01*
X181396000Y-115250000D01*
X180114000Y-115250000D01*
X180052000Y-115233387D01*
X180006613Y-115188000D01*
X179990000Y-115126000D01*
X179990000Y-114874000D01*
X180006613Y-114812000D01*
X180052000Y-114766613D01*
X180114000Y-114750000D01*
X181396000Y-114750000D01*
X181458000Y-114766613D01*
G37*
%TD.AperFunction*%
%TD*%
%TA.AperFunction,Conductor*%
%TO.N,+5V*%
G36*
X169996091Y-119009439D02*
G01*
X170036319Y-119036319D01*
X170450319Y-119450319D01*
X170480569Y-119499682D01*
X170485111Y-119557398D01*
X170462956Y-119610885D01*
X170418933Y-119648485D01*
X170411803Y-119650196D01*
X170400000Y-119662000D01*
X170400000Y-123162000D01*
X170408784Y-123170784D01*
X170438000Y-123178613D01*
X170483387Y-123224000D01*
X170500000Y-123286000D01*
X170500000Y-123610638D01*
X170490561Y-123658091D01*
X170475000Y-123681379D01*
X170475000Y-126538000D01*
X170458387Y-126600000D01*
X170413000Y-126645387D01*
X170351000Y-126662000D01*
X170099000Y-126662000D01*
X170037000Y-126645387D01*
X169991613Y-126600000D01*
X169975000Y-126538000D01*
X169975000Y-124912000D01*
X169275001Y-124912000D01*
X169275001Y-124960315D01*
X169285143Y-125059605D01*
X169338453Y-125220486D01*
X169427424Y-125364729D01*
X169512013Y-125449317D01*
X169544107Y-125504905D01*
X169544107Y-125569092D01*
X169512014Y-125624680D01*
X169427424Y-125709270D01*
X169338453Y-125853513D01*
X169285143Y-126014393D01*
X169275000Y-126113685D01*
X169275000Y-126254768D01*
X169260486Y-126312982D01*
X169220340Y-126357569D01*
X169163962Y-126378089D01*
X169104549Y-126369739D01*
X169056010Y-126334474D01*
X169037976Y-126312982D01*
X167442863Y-124412000D01*
X169275000Y-124412000D01*
X169975000Y-124412000D01*
X169975000Y-123687001D01*
X169951685Y-123687001D01*
X169852394Y-123697143D01*
X169691513Y-123750453D01*
X169547267Y-123839426D01*
X169427426Y-123959267D01*
X169338453Y-124103513D01*
X169285143Y-124264393D01*
X169275000Y-124363685D01*
X169275000Y-124412000D01*
X167442863Y-124412000D01*
X167029009Y-123918788D01*
X167007478Y-123881493D01*
X167000000Y-123839083D01*
X167000000Y-121662000D01*
X168900000Y-121662000D01*
X168900000Y-122709824D01*
X168906402Y-122769375D01*
X168956647Y-122904089D01*
X169042811Y-123019188D01*
X169157910Y-123105352D01*
X169292624Y-123155597D01*
X169352176Y-123162000D01*
X169900000Y-123162000D01*
X169900000Y-121662000D01*
X168900000Y-121662000D01*
X167000000Y-121662000D01*
X167000000Y-121162000D01*
X168900000Y-121162000D01*
X169900000Y-121162000D01*
X169900000Y-119662000D01*
X169352176Y-119662000D01*
X169292624Y-119668402D01*
X169157910Y-119718647D01*
X169042811Y-119804811D01*
X168956647Y-119919910D01*
X168906402Y-120054624D01*
X168900000Y-120114176D01*
X168900000Y-121162000D01*
X167000000Y-121162000D01*
X167000000Y-119551362D01*
X167009439Y-119503909D01*
X167036319Y-119463681D01*
X167463681Y-119036319D01*
X167503909Y-119009439D01*
X167551362Y-119000000D01*
X169948638Y-119000000D01*
X169996091Y-119009439D01*
G37*
%TD.AperFunction*%
%TD*%
%TA.AperFunction,Conductor*%
%TO.N,/Power/3V3_SW*%
G36*
X187346878Y-112157536D02*
G01*
X187378996Y-112178996D01*
X187421004Y-112221004D01*
X187442464Y-112253122D01*
X187450000Y-112291008D01*
X187450000Y-113908992D01*
X187442464Y-113946878D01*
X187421004Y-113978996D01*
X187378996Y-114021004D01*
X187346878Y-114042464D01*
X187308992Y-114050000D01*
X183791008Y-114050000D01*
X183753122Y-114042464D01*
X183721004Y-114021004D01*
X183678996Y-113978996D01*
X183657536Y-113946878D01*
X183650000Y-113908992D01*
X183650000Y-113450001D01*
X183650000Y-113450000D01*
X183550000Y-113350000D01*
X183549999Y-113350000D01*
X183362437Y-113350000D01*
X183357360Y-113349500D01*
X183350174Y-113349500D01*
X183120996Y-113349500D01*
X183065350Y-113332381D01*
X183028948Y-113286944D01*
X183024380Y-113228903D01*
X183053226Y-113178332D01*
X183105510Y-113152719D01*
X183111824Y-113151719D01*
X183127310Y-113150500D01*
X183357360Y-113150500D01*
X183362437Y-113150000D01*
X183549999Y-113150000D01*
X183550000Y-113150000D01*
X183650000Y-113050000D01*
X183650000Y-112523621D01*
X183655385Y-112491416D01*
X183670952Y-112462715D01*
X183689517Y-112438926D01*
X183719063Y-112390976D01*
X183737385Y-112337718D01*
X183749291Y-112284701D01*
X183754461Y-112238083D01*
X183770995Y-112193327D01*
X183806547Y-112161499D01*
X183852857Y-112150000D01*
X187308992Y-112150000D01*
X187346878Y-112157536D01*
G37*
%TD.AperFunction*%
%TD*%
%TA.AperFunction,Conductor*%
%TO.N,VIN_RAW*%
G36*
X181938000Y-119841613D02*
G01*
X181983387Y-119887000D01*
X182000000Y-119949000D01*
X182000000Y-120075000D01*
X183600000Y-120075000D01*
X183600000Y-119949000D01*
X183616613Y-119887000D01*
X183662000Y-119841613D01*
X183724000Y-119825000D01*
X184251362Y-119825000D01*
X184251362Y-119826284D01*
X184286389Y-119826281D01*
X184341982Y-119858375D01*
X184471950Y-119988342D01*
X184561658Y-120078050D01*
X184581395Y-120088106D01*
X184597990Y-120098276D01*
X184615908Y-120111295D01*
X184615909Y-120111295D01*
X184615910Y-120111296D01*
X184636979Y-120118141D01*
X184654949Y-120125584D01*
X184674696Y-120135646D01*
X184696579Y-120139111D01*
X184715498Y-120143652D01*
X184736567Y-120150499D01*
X184758212Y-120150499D01*
X184758224Y-120150500D01*
X184768481Y-120150500D01*
X184783024Y-120150500D01*
X184841153Y-120164969D01*
X184885716Y-120204999D01*
X184899696Y-120243177D01*
X184900466Y-120242890D01*
X184905909Y-120257483D01*
X184956204Y-120392331D01*
X185042454Y-120507546D01*
X185157669Y-120593796D01*
X185292517Y-120644091D01*
X185352127Y-120650500D01*
X186647872Y-120650499D01*
X186707483Y-120644091D01*
X186707483Y-120644090D01*
X186712747Y-120643525D01*
X186780182Y-120655279D01*
X186831106Y-120701022D01*
X186850000Y-120766815D01*
X186850000Y-131876000D01*
X186833387Y-131938000D01*
X186788000Y-131983387D01*
X186726000Y-132000000D01*
X181124000Y-132000000D01*
X181062000Y-131983387D01*
X181016613Y-131938000D01*
X181000000Y-131876000D01*
X181000000Y-129790000D01*
X181250000Y-129790000D01*
X181250000Y-131064625D01*
X181264504Y-131137543D01*
X181319760Y-131220239D01*
X181402456Y-131275495D01*
X181475375Y-131290000D01*
X182750000Y-131290000D01*
X182750000Y-129790000D01*
X183250000Y-129790000D01*
X183250000Y-131290000D01*
X184524625Y-131290000D01*
X184597543Y-131275495D01*
X184680239Y-131220239D01*
X184735495Y-131137543D01*
X184750000Y-131064625D01*
X184750000Y-129790000D01*
X183250000Y-129790000D01*
X182750000Y-129790000D01*
X181250000Y-129790000D01*
X181000000Y-129790000D01*
X181000000Y-129290000D01*
X181250000Y-129290000D01*
X182750000Y-129290000D01*
X182750000Y-127790000D01*
X183250000Y-127790000D01*
X183250000Y-129290000D01*
X184750000Y-129290000D01*
X184750000Y-128015375D01*
X184735495Y-127942456D01*
X184680239Y-127859760D01*
X184597543Y-127804504D01*
X184524625Y-127790000D01*
X183250000Y-127790000D01*
X182750000Y-127790000D01*
X181475375Y-127790000D01*
X181402456Y-127804504D01*
X181319760Y-127859760D01*
X181264504Y-127942456D01*
X181250000Y-128015375D01*
X181250000Y-129290000D01*
X181000000Y-129290000D01*
X181000000Y-124510121D01*
X181013095Y-124460000D01*
X181233643Y-124460000D01*
X181247653Y-124500855D01*
X181264197Y-124721627D01*
X181322580Y-124977418D01*
X181418431Y-125221641D01*
X181418432Y-125221643D01*
X181549614Y-125448857D01*
X181713195Y-125653981D01*
X181713197Y-125653983D01*
X181713198Y-125653984D01*
X181905514Y-125832428D01*
X181905520Y-125832432D01*
X181905521Y-125832433D01*
X182122296Y-125980228D01*
X182358677Y-126094063D01*
X182609385Y-126171396D01*
X182868818Y-126210500D01*
X183131182Y-126210500D01*
X183390615Y-126171396D01*
X183641323Y-126094063D01*
X183877704Y-125980228D01*
X184094479Y-125832433D01*
X184094482Y-125832429D01*
X184094485Y-125832428D01*
X184179792Y-125753273D01*
X184286805Y-125653981D01*
X184450386Y-125448857D01*
X184581568Y-125221643D01*
X184677420Y-124977416D01*
X184735802Y-124721630D01*
X184755408Y-124460000D01*
X184735802Y-124198370D01*
X184677420Y-123942584D01*
X184581568Y-123698357D01*
X184450386Y-123471143D01*
X184286805Y-123266019D01*
X184286801Y-123266015D01*
X184094485Y-123087571D01*
X184077170Y-123075766D01*
X183877704Y-122939772D01*
X183641323Y-122825937D01*
X183390615Y-122748604D01*
X183131182Y-122709500D01*
X182868818Y-122709500D01*
X182609385Y-122748604D01*
X182358677Y-122825937D01*
X182122296Y-122939772D01*
X182052922Y-122987070D01*
X181905514Y-123087571D01*
X181713198Y-123266015D01*
X181549613Y-123471143D01*
X181418431Y-123698358D01*
X181322580Y-123942581D01*
X181264197Y-124198372D01*
X181247653Y-124419145D01*
X181233643Y-124460000D01*
X181013095Y-124460000D01*
X181000000Y-124409879D01*
X181000000Y-120825000D01*
X181400000Y-120825000D01*
X181400000Y-120874625D01*
X181414504Y-120947543D01*
X181469760Y-121030239D01*
X181552456Y-121085495D01*
X181625375Y-121100000D01*
X181650000Y-121100000D01*
X181650000Y-120825000D01*
X181400000Y-120825000D01*
X181000000Y-120825000D01*
X181000000Y-120575000D01*
X182000000Y-120575000D01*
X182000000Y-121100000D01*
X182550000Y-121100000D01*
X182550000Y-120575000D01*
X183050000Y-120575000D01*
X183050000Y-121100000D01*
X183600000Y-121100000D01*
X183600000Y-120825000D01*
X183950000Y-120825000D01*
X183950000Y-121100000D01*
X183974625Y-121100000D01*
X184047543Y-121085495D01*
X184130239Y-121030239D01*
X184185495Y-120947543D01*
X184200000Y-120874625D01*
X184200000Y-120825000D01*
X183950000Y-120825000D01*
X183600000Y-120825000D01*
X183600000Y-120575000D01*
X183050000Y-120575000D01*
X182550000Y-120575000D01*
X182000000Y-120575000D01*
X181000000Y-120575000D01*
X181000000Y-120251362D01*
X181009439Y-120203909D01*
X181028756Y-120175000D01*
X181400000Y-120175000D01*
X181400000Y-120224621D01*
X181415154Y-120300808D01*
X181415154Y-120349189D01*
X181400000Y-120425377D01*
X181400000Y-120475000D01*
X181650000Y-120475000D01*
X181650000Y-120175000D01*
X183950000Y-120175000D01*
X183950000Y-120475000D01*
X184200000Y-120475000D01*
X184200000Y-120425377D01*
X184184845Y-120349193D01*
X184184845Y-120300807D01*
X184200000Y-120224623D01*
X184200000Y-120175000D01*
X183950000Y-120175000D01*
X181650000Y-120175000D01*
X181400000Y-120175000D01*
X181028756Y-120175000D01*
X181036319Y-120163681D01*
X181338681Y-119861319D01*
X181378909Y-119834439D01*
X181426362Y-119825000D01*
X181876000Y-119825000D01*
X181938000Y-119841613D01*
G37*
%TD.AperFunction*%
%TD*%
%TA.AperFunction,Conductor*%
%TO.N,+3.3VA*%
G36*
X123038095Y-115222816D02*
G01*
X123413568Y-115598289D01*
X123455881Y-115555977D01*
X123495560Y-115504266D01*
X123497356Y-115505644D01*
X123509757Y-115487503D01*
X123553608Y-115465267D01*
X123602748Y-115466868D01*
X123645058Y-115491912D01*
X124450528Y-116297382D01*
X124476151Y-116341763D01*
X124476151Y-116393008D01*
X124450528Y-116437389D01*
X124426598Y-116461319D01*
X124426598Y-116461320D01*
X124568020Y-116602743D01*
X124568020Y-116602742D01*
X124709794Y-116744516D01*
X124735417Y-116788897D01*
X124735417Y-116840143D01*
X124709794Y-116884523D01*
X124371855Y-117222462D01*
X124368613Y-117226411D01*
X124249822Y-117345204D01*
X124249822Y-117374199D01*
X124242286Y-117412084D01*
X124220827Y-117444201D01*
X124194527Y-117470502D01*
X124162409Y-117491964D01*
X124124522Y-117499500D01*
X121927680Y-117499500D01*
X121878180Y-117486237D01*
X121841943Y-117450000D01*
X121828680Y-117400500D01*
X121828680Y-116991650D01*
X123975193Y-116991650D01*
X123990715Y-117069687D01*
X124023758Y-117119139D01*
X124037690Y-117133071D01*
X124355887Y-116814874D01*
X124214465Y-116673452D01*
X124023761Y-116864157D01*
X123990715Y-116913613D01*
X123975193Y-116991650D01*
X121828680Y-116991650D01*
X121828680Y-116585790D01*
X121845365Y-116530789D01*
X121889794Y-116494326D01*
X121946994Y-116488692D01*
X121997684Y-116515786D01*
X122034634Y-116552736D01*
X122074254Y-116583138D01*
X122186928Y-116624148D01*
X122306827Y-116624148D01*
X122419501Y-116583137D01*
X122459123Y-116552735D01*
X122501435Y-116510422D01*
X122125962Y-116134949D01*
X122100339Y-116090568D01*
X122100339Y-116064944D01*
X122480223Y-116064944D01*
X122713568Y-116298289D01*
X122755881Y-116255977D01*
X122786283Y-116216355D01*
X122827294Y-116103681D01*
X122827294Y-116023148D01*
X122840557Y-115973648D01*
X122876794Y-115937411D01*
X122926294Y-115924148D01*
X123006827Y-115924148D01*
X123119501Y-115883137D01*
X123159123Y-115852735D01*
X123201435Y-115810422D01*
X122968090Y-115577077D01*
X122480223Y-116064944D01*
X122100339Y-116064944D01*
X122100339Y-116039322D01*
X122125963Y-115994941D01*
X122268092Y-115852813D01*
X122268091Y-115852813D01*
X122655162Y-115465742D01*
X122655162Y-115465743D01*
X122898087Y-115222817D01*
X122942468Y-115197193D01*
X122993714Y-115197193D01*
X123038095Y-115222816D01*
G37*
%TD.AperFunction*%
%TD*%
%TA.AperFunction,Conductor*%
%TO.N,GND*%
G36*
X180438000Y-109016613D02*
G01*
X180483387Y-109062000D01*
X180500000Y-109124000D01*
X180500000Y-110500000D01*
X180520075Y-110520075D01*
X180546382Y-110558943D01*
X180556359Y-110604805D01*
X180548576Y-110651090D01*
X180531082Y-110697992D01*
X180525000Y-110754567D01*
X180525000Y-110775000D01*
X182876000Y-110775000D01*
X182938000Y-110791613D01*
X182983387Y-110837000D01*
X183000000Y-110899000D01*
X183000000Y-111724999D01*
X183045433Y-111724999D01*
X183102006Y-111718917D01*
X183229986Y-111671183D01*
X183301690Y-111617507D01*
X183364948Y-111593268D01*
X183431505Y-111605890D01*
X183481495Y-111651607D01*
X183500000Y-111716774D01*
X183500000Y-112228718D01*
X183488094Y-112281735D01*
X183454664Y-112324572D01*
X183406128Y-112349002D01*
X183351807Y-112350335D01*
X183350123Y-112350000D01*
X183238000Y-112350000D01*
X183238000Y-112725500D01*
X183221387Y-112787500D01*
X183176000Y-112832887D01*
X183114000Y-112849500D01*
X183062000Y-112849500D01*
X183000000Y-112832887D01*
X182954613Y-112787500D01*
X182938000Y-112725500D01*
X182938000Y-112350000D01*
X182825874Y-112350000D01*
X182798691Y-112355407D01*
X182744370Y-112354074D01*
X182695835Y-112329643D01*
X182662405Y-112286807D01*
X182658159Y-112267902D01*
X182656569Y-112268419D01*
X182646922Y-112238729D01*
X182643651Y-112228662D01*
X182639112Y-112209758D01*
X182635646Y-112187869D01*
X182631668Y-112180061D01*
X182625588Y-112168128D01*
X182618142Y-112150151D01*
X182611297Y-112129083D01*
X182598271Y-112111155D01*
X182588107Y-112094570D01*
X182578050Y-112074831D01*
X182564168Y-112060949D01*
X182564166Y-112060946D01*
X182439901Y-111936681D01*
X182409651Y-111887318D01*
X182405109Y-111829602D01*
X182427264Y-111776115D01*
X182471287Y-111738515D01*
X182491286Y-111733713D01*
X182500000Y-111725000D01*
X182500000Y-111275000D01*
X180525001Y-111275000D01*
X180525001Y-111295433D01*
X180531082Y-111352006D01*
X180560980Y-111432166D01*
X180567831Y-111490954D01*
X180546654Y-111546220D01*
X180502273Y-111585376D01*
X180444798Y-111599500D01*
X179935259Y-111599500D01*
X179935247Y-111599501D01*
X179913602Y-111599501D01*
X179892534Y-111606346D01*
X179873618Y-111610887D01*
X179851730Y-111614354D01*
X179831986Y-111624413D01*
X179814019Y-111631855D01*
X179792945Y-111638703D01*
X179775019Y-111651727D01*
X179758434Y-111661890D01*
X179738695Y-111671947D01*
X179698684Y-111711958D01*
X179257459Y-112153181D01*
X179217231Y-112180061D01*
X179169780Y-112189500D01*
X179099263Y-112189500D01*
X179007827Y-112203982D01*
X179007825Y-112203982D01*
X179007825Y-112203983D01*
X178930293Y-112243487D01*
X178869132Y-112256906D01*
X178809210Y-112238729D01*
X178765810Y-112193591D01*
X178750000Y-112133002D01*
X178750000Y-109124000D01*
X178766613Y-109062000D01*
X178812000Y-109016613D01*
X178874000Y-109000000D01*
X180376000Y-109000000D01*
X180438000Y-109016613D01*
G37*
%TD.AperFunction*%
%TD*%
M02*
