%TF.GenerationSoftware,KiCad,Pcbnew,7.0.1*%
%TF.CreationDate,2023-07-13T18:43:16+01:00*%
%TF.ProjectId,Gateway Board,47617465-7761-4792-9042-6f6172642e6b,rev?*%
%TF.SameCoordinates,Original*%
%TF.FileFunction,Profile,NP*%
%FSLAX46Y46*%
G04 Gerber Fmt 4.6, Leading zero omitted, Abs format (unit mm)*
G04 Created by KiCad (PCBNEW 7.0.1) date 2023-07-13 18:43:16*
%MOMM*%
%LPD*%
G01*
G04 APERTURE LIST*
%TA.AperFunction,Profile*%
%ADD10C,0.100000*%
%TD*%
G04 APERTURE END LIST*
D10*
X119548261Y-70445661D02*
G75*
G03*
X119425005Y-71854493I642739J-766039D01*
G01*
X121723143Y-69926124D02*
G75*
G03*
X120314305Y-69802873I-766043J-642776D01*
G01*
X106679322Y-107264683D02*
X106505674Y-106279875D01*
X110974984Y-80932998D02*
G75*
G03*
X111341035Y-82299038I866016J-500002D01*
G01*
X170574994Y-71854492D02*
G75*
G03*
X170451739Y-70445661I-765994J642792D01*
G01*
X159406304Y-64804711D02*
X156670143Y-72322252D01*
X182162234Y-108075781D02*
G75*
G03*
X183320678Y-107264683I173666J984781D01*
G01*
X153851065Y-71296191D02*
X156587226Y-63778650D01*
X170451739Y-129554339D02*
G75*
G03*
X170574995Y-128145507I-642739J766039D01*
G01*
X182683175Y-94878626D02*
G75*
G03*
X183494326Y-93720125I-173675J984826D01*
G01*
X178525035Y-80066961D02*
G75*
G03*
X177158965Y-79700962I-866035J-500039D01*
G01*
X182162222Y-108075842D02*
X174283760Y-106686657D01*
X174804705Y-103732234D02*
X182683167Y-105121419D01*
X183494280Y-106279867D02*
G75*
G03*
X182683167Y-105121420I-984780J173667D01*
G01*
X120135263Y-114933013D02*
X119635263Y-114066988D01*
X173472601Y-94471799D02*
X173646249Y-95456607D01*
X177158965Y-120299038D02*
X170230762Y-116299038D01*
X163134591Y-76054509D02*
G75*
G03*
X163257818Y-77463317I766009J-642791D01*
G01*
X120135266Y-85066988D02*
G75*
G03*
X119769238Y-83700963I-866066J499988D01*
G01*
X174283760Y-93313343D02*
X182162222Y-91924158D01*
X169685695Y-69802873D02*
X170451739Y-70445661D01*
X107316833Y-105121419D02*
X115195295Y-103732234D01*
X107837766Y-91924219D02*
G75*
G03*
X106679322Y-92735317I-173666J-984781D01*
G01*
X107316825Y-105121374D02*
G75*
G03*
X106505674Y-106279875I173675J-984826D01*
G01*
X179025016Y-119067002D02*
G75*
G03*
X178658965Y-117700962I-866016J500002D01*
G01*
X163134562Y-76054485D02*
X168276863Y-69926129D01*
X183320678Y-92735317D02*
X183494326Y-93720125D01*
X119635263Y-85933013D02*
X120135263Y-85066988D01*
X144500000Y-71000000D02*
X145500000Y-71000000D01*
X171730786Y-113700921D02*
G75*
G03*
X170364737Y-114066987I-499986J-866079D01*
G01*
X111475009Y-119933013D02*
X110975009Y-119066988D01*
X118269214Y-86299079D02*
G75*
G03*
X119635263Y-85933013I499986J866079D01*
G01*
X133412773Y-63778650D02*
X136148934Y-71296191D01*
X111341051Y-117700989D02*
G75*
G03*
X110975011Y-119066987I499949J-866011D01*
G01*
X159406310Y-64804712D02*
G75*
G03*
X158808632Y-63522998I-939710J342012D01*
G01*
X111474965Y-119933039D02*
G75*
G03*
X112841035Y-120299038I866035J500039D01*
G01*
X163257818Y-77463317D02*
X164023862Y-78106105D01*
X146500000Y-62000000D02*
G75*
G03*
X145500000Y-61000000I-1000000J0D01*
G01*
X134611570Y-72919924D02*
X135551263Y-72577904D01*
X116353751Y-95456607D02*
X116527399Y-94471799D01*
X124567256Y-77982890D02*
G75*
G03*
X125976137Y-78106105I766044J642790D01*
G01*
X169864734Y-114933012D02*
G75*
G03*
X170230762Y-116299037I866066J-499988D01*
G01*
X131191368Y-63522998D02*
X132131061Y-63180978D01*
X107837778Y-91924158D02*
X115716240Y-93313343D01*
X182683167Y-94878581D02*
X174804705Y-96267766D01*
X157868924Y-63181017D02*
G75*
G03*
X156587227Y-63778650I-342024J-939683D01*
G01*
X103000000Y-55000000D02*
G75*
G03*
X100000000Y-58000000I0J-3000000D01*
G01*
X178658949Y-82299011D02*
G75*
G03*
X179024989Y-80933013I-499949J866011D01*
G01*
X106679261Y-107264694D02*
G75*
G03*
X107837777Y-108075842I984839J173694D01*
G01*
X154448738Y-72577904D02*
X155388431Y-72919924D01*
X143500000Y-70000000D02*
G75*
G03*
X144500000Y-71000000I1000000J0D01*
G01*
X190000000Y-58000000D02*
X190000000Y-142000000D01*
X183320739Y-92735306D02*
G75*
G03*
X182162223Y-91924158I-984839J-173694D01*
G01*
X170451739Y-129554339D02*
X169685695Y-130197127D01*
X179024991Y-119066987D02*
X178524991Y-119933012D01*
X116353669Y-104543407D02*
G75*
G03*
X115195295Y-103732233I-984769J-173593D01*
G01*
X155388459Y-72919847D02*
G75*
G03*
X156670143Y-72322251I342041J939647D01*
G01*
X135551266Y-72577914D02*
G75*
G03*
X136148935Y-71296191I-342066J939714D01*
G01*
X133412813Y-63778636D02*
G75*
G03*
X132131061Y-63180978I-939713J-342064D01*
G01*
X170574996Y-71854493D02*
X165432695Y-77982849D01*
X115195281Y-96267848D02*
G75*
G03*
X116353751Y-95456607I173619J984848D01*
G01*
X103000000Y-55000000D02*
X187000000Y-55000000D01*
X119548261Y-70445661D02*
X120314305Y-69802873D01*
X146500000Y-62000000D02*
X146500000Y-70000000D01*
X171730762Y-113700962D02*
X178658965Y-117700962D01*
X144500000Y-61000000D02*
G75*
G03*
X143500000Y-62000000I0J-1000000D01*
G01*
X178524991Y-80066987D02*
X179024991Y-80933012D01*
X187000000Y-145000000D02*
X103000000Y-145000000D01*
X170230764Y-83700965D02*
G75*
G03*
X169864737Y-85066987I500036J-866035D01*
G01*
X168276863Y-130073870D02*
X163134562Y-123945514D01*
X174804719Y-103732152D02*
G75*
G03*
X173646249Y-104543393I-173619J-984848D01*
G01*
X133329857Y-72322252D02*
X130593696Y-64804711D01*
X164023904Y-78106056D02*
G75*
G03*
X165432695Y-77982849I642796J765956D01*
G01*
X115195295Y-96267766D02*
X107316833Y-94878581D01*
X169864737Y-85066987D02*
X170364737Y-85933012D01*
X112841008Y-79701008D02*
G75*
G03*
X111475011Y-80066987I-500008J-865992D01*
G01*
X170364737Y-114066987D02*
X169864737Y-114933012D01*
X106505720Y-93720133D02*
G75*
G03*
X107316833Y-94878580I984780J-173667D01*
G01*
X168276857Y-130073876D02*
G75*
G03*
X169685695Y-130197127I766043J642776D01*
G01*
X173646331Y-95456593D02*
G75*
G03*
X174804705Y-96267767I984769J173593D01*
G01*
X157868939Y-63180978D02*
X158808632Y-63522998D01*
X173472539Y-105528190D02*
G75*
G03*
X174283761Y-106686656I984861J-173610D01*
G01*
X121723137Y-69926130D02*
X126865438Y-76054486D01*
X126742206Y-77463345D02*
G75*
G03*
X126865437Y-76054485I-642806J766045D01*
G01*
X163257794Y-122536655D02*
G75*
G03*
X163134563Y-123945515I642806J-766045D01*
G01*
X169685690Y-69802879D02*
G75*
G03*
X168276863Y-69926129I-642790J-766021D01*
G01*
X144500000Y-61000000D02*
X145500000Y-61000000D01*
X100000000Y-142000000D02*
X100000000Y-58000000D01*
X111341035Y-117700962D02*
X118269238Y-113700962D01*
X125976137Y-78106105D02*
X126742181Y-77463317D01*
X177158992Y-120298992D02*
G75*
G03*
X178524989Y-119933013I500008J865992D01*
G01*
X178658965Y-82299038D02*
X171730762Y-86299038D01*
X187000000Y-145000000D02*
G75*
G03*
X190000000Y-142000000I0J3000000D01*
G01*
X119635221Y-114067011D02*
G75*
G03*
X118269238Y-113700963I-866021J-499989D01*
G01*
X116527399Y-105528201D02*
X116353751Y-104543393D01*
X164023863Y-121893895D02*
X163257819Y-122536683D01*
X119769238Y-116299038D02*
X112841035Y-120299038D01*
X110975009Y-80933013D02*
X111475009Y-80066988D01*
X170364779Y-85932989D02*
G75*
G03*
X171730762Y-86299037I866021J499989D01*
G01*
X118269238Y-86299038D02*
X111341035Y-82299038D01*
X106505674Y-93720125D02*
X106679322Y-92735317D01*
X173646249Y-104543393D02*
X173472601Y-105528201D01*
X112841035Y-79700962D02*
X119769238Y-83700962D01*
X170230762Y-83700962D02*
X177158965Y-79700962D01*
X165432744Y-122017110D02*
G75*
G03*
X164023863Y-121893895I-766044J-642790D01*
G01*
X131191370Y-63523002D02*
G75*
G03*
X130593695Y-64804710I342030J-939698D01*
G01*
X100000000Y-142000000D02*
G75*
G03*
X103000000Y-145000000I3000000J0D01*
G01*
X153851075Y-71296195D02*
G75*
G03*
X154448738Y-72577904I939725J-342005D01*
G01*
X190000000Y-58000000D02*
G75*
G03*
X187000000Y-55000000I-3000000J0D01*
G01*
X115716228Y-106686593D02*
G75*
G03*
X116527398Y-105528201I-173628J984793D01*
G01*
X183494326Y-106279875D02*
X183320678Y-107264683D01*
X143500000Y-70000000D02*
X143500000Y-62000000D01*
X174283772Y-93313407D02*
G75*
G03*
X173472602Y-94471799I173628J-984793D01*
G01*
X116527461Y-94471810D02*
G75*
G03*
X115716239Y-93313344I-984861J173610D01*
G01*
X133329780Y-72322279D02*
G75*
G03*
X134611569Y-72919924I939720J342079D01*
G01*
X165432695Y-122017152D02*
X170574996Y-128145508D01*
X119769236Y-116299035D02*
G75*
G03*
X120135263Y-114933013I-500036J866035D01*
G01*
X124567305Y-77982848D02*
X119425004Y-71854492D01*
X145500000Y-71000000D02*
G75*
G03*
X146500000Y-70000000I0J1000000D01*
G01*
X115716240Y-106686657D02*
X107837778Y-108075842D01*
M02*
