%TF.GenerationSoftware,KiCad,Pcbnew,7.0.1*%
%TF.CreationDate,2023-07-13T18:43:16+01:00*%
%TF.ProjectId,Gateway Board,47617465-7761-4792-9042-6f6172642e6b,rev?*%
%TF.SameCoordinates,Original*%
%TF.FileFunction,Legend,Bot*%
%TF.FilePolarity,Positive*%
%FSLAX46Y46*%
G04 Gerber Fmt 4.6, Leading zero omitted, Abs format (unit mm)*
G04 Created by KiCad (PCBNEW 7.0.1) date 2023-07-13 18:43:16*
%MOMM*%
%LPD*%
G01*
G04 APERTURE LIST*
%ADD10C,0.150000*%
%ADD11C,0.200000*%
%ADD12C,0.300000*%
%ADD13C,0.500000*%
G04 APERTURE END LIST*
D10*
X167000000Y-133250000D02*
X179000000Y-133250000D01*
X133000000Y-133250000D02*
X145000000Y-133250000D01*
X150000000Y-133250000D02*
X162000000Y-133250000D01*
D11*
G36*
X170723809Y-57942857D02*
G01*
X166776190Y-57942857D01*
X166776190Y-56543517D01*
X167503186Y-56543517D01*
X167507143Y-56561705D01*
X167507143Y-57136759D01*
X167519466Y-57178727D01*
X167563848Y-57217184D01*
X167621975Y-57225541D01*
X167675394Y-57201146D01*
X167707143Y-57151743D01*
X167707143Y-56792373D01*
X168118028Y-57203258D01*
X168156417Y-57224220D01*
X168214993Y-57220031D01*
X168262004Y-57184838D01*
X168279769Y-57137212D01*
X168503982Y-57137212D01*
X168513208Y-57157415D01*
X168519466Y-57178727D01*
X168525216Y-57183709D01*
X168528377Y-57190631D01*
X168547062Y-57202639D01*
X168563848Y-57217184D01*
X168571379Y-57218266D01*
X168577780Y-57222380D01*
X168599989Y-57222380D01*
X168621975Y-57225541D01*
X168628897Y-57222380D01*
X169097712Y-57222380D01*
X169139680Y-57210057D01*
X169178137Y-57165675D01*
X169184295Y-57122846D01*
X169264827Y-57122846D01*
X169281624Y-57179118D01*
X169326177Y-57217376D01*
X169384341Y-57225474D01*
X169437650Y-57200840D01*
X169702381Y-56784833D01*
X169959068Y-57188199D01*
X169991996Y-57216990D01*
X170050086Y-57225607D01*
X170103612Y-57201450D01*
X170135582Y-57152190D01*
X170135845Y-57093465D01*
X169802381Y-56569451D01*
X169802381Y-56108001D01*
X169790058Y-56066033D01*
X169745676Y-56027576D01*
X169687549Y-56019219D01*
X169634130Y-56043614D01*
X169602381Y-56093017D01*
X169602381Y-56569451D01*
X169276962Y-57080823D01*
X169264827Y-57122846D01*
X169184295Y-57122846D01*
X169186494Y-57107548D01*
X169162099Y-57054129D01*
X169112696Y-57022380D01*
X168707143Y-57022380D01*
X168707143Y-56746190D01*
X168954855Y-56746190D01*
X168996823Y-56733867D01*
X169035280Y-56689485D01*
X169043637Y-56631358D01*
X169019242Y-56577939D01*
X168969839Y-56546190D01*
X168707143Y-56546190D01*
X168707143Y-56222380D01*
X169097712Y-56222380D01*
X169139680Y-56210057D01*
X169178137Y-56165675D01*
X169186494Y-56107548D01*
X169162099Y-56054129D01*
X169112696Y-56022380D01*
X168614297Y-56022380D01*
X168592311Y-56019219D01*
X168572107Y-56028445D01*
X168550796Y-56034703D01*
X168545813Y-56040453D01*
X168538892Y-56043614D01*
X168526883Y-56062299D01*
X168512339Y-56079085D01*
X168511256Y-56086616D01*
X168507143Y-56093017D01*
X168507143Y-56115226D01*
X168503982Y-56137212D01*
X168507143Y-56144134D01*
X168507143Y-56639036D01*
X168503982Y-56661022D01*
X168507143Y-56667944D01*
X168507143Y-57115226D01*
X168503982Y-57137212D01*
X168279769Y-57137212D01*
X168282528Y-57129815D01*
X168270044Y-57072432D01*
X167882037Y-56684425D01*
X168267199Y-56170877D01*
X168282521Y-56129908D01*
X168270089Y-56072514D01*
X168228602Y-56030952D01*
X168171230Y-56018416D01*
X168116189Y-56038889D01*
X167739180Y-56541568D01*
X167707143Y-56509531D01*
X167707143Y-56108001D01*
X167694820Y-56066033D01*
X167650438Y-56027576D01*
X167592311Y-56019219D01*
X167538892Y-56043614D01*
X167507143Y-56093017D01*
X167507143Y-56532908D01*
X167503186Y-56543517D01*
X166776190Y-56543517D01*
X166776190Y-55557143D01*
X170723809Y-55557143D01*
X170723809Y-57942857D01*
G37*
X151285713Y-135127619D02*
X151285713Y-134127619D01*
X151285713Y-134603809D02*
X150714285Y-134603809D01*
X150714285Y-135127619D02*
X150714285Y-134127619D01*
X173761904Y-134175238D02*
X173857142Y-134127619D01*
X173857142Y-134127619D02*
X173999999Y-134127619D01*
X173999999Y-134127619D02*
X174142856Y-134175238D01*
X174142856Y-134175238D02*
X174238094Y-134270476D01*
X174238094Y-134270476D02*
X174285713Y-134365714D01*
X174285713Y-134365714D02*
X174333332Y-134556190D01*
X174333332Y-134556190D02*
X174333332Y-134699047D01*
X174333332Y-134699047D02*
X174285713Y-134889523D01*
X174285713Y-134889523D02*
X174238094Y-134984761D01*
X174238094Y-134984761D02*
X174142856Y-135080000D01*
X174142856Y-135080000D02*
X173999999Y-135127619D01*
X173999999Y-135127619D02*
X173904761Y-135127619D01*
X173904761Y-135127619D02*
X173761904Y-135080000D01*
X173761904Y-135080000D02*
X173714285Y-135032380D01*
X173714285Y-135032380D02*
X173714285Y-134699047D01*
X173714285Y-134699047D02*
X173904761Y-134699047D01*
X173285713Y-135127619D02*
X173285713Y-134127619D01*
X173285713Y-134127619D02*
X172714285Y-135127619D01*
X172714285Y-135127619D02*
X172714285Y-134127619D01*
X172238094Y-135127619D02*
X172238094Y-134127619D01*
X172238094Y-134127619D02*
X171999999Y-134127619D01*
X171999999Y-134127619D02*
X171857142Y-134175238D01*
X171857142Y-134175238D02*
X171761904Y-134270476D01*
X171761904Y-134270476D02*
X171714285Y-134365714D01*
X171714285Y-134365714D02*
X171666666Y-134556190D01*
X171666666Y-134556190D02*
X171666666Y-134699047D01*
X171666666Y-134699047D02*
X171714285Y-134889523D01*
X171714285Y-134889523D02*
X171761904Y-134984761D01*
X171761904Y-134984761D02*
X171857142Y-135080000D01*
X171857142Y-135080000D02*
X171999999Y-135127619D01*
X171999999Y-135127619D02*
X172238094Y-135127619D01*
D12*
G36*
X188085000Y-115284347D02*
G01*
X186560924Y-115284347D01*
X186560924Y-115589162D01*
X188085000Y-115589162D01*
X188085000Y-115284347D01*
G37*
G36*
X188085000Y-116869972D02*
G01*
X188085000Y-116580544D01*
X187516036Y-116580544D01*
X187493957Y-116580471D01*
X187472873Y-116580252D01*
X187452786Y-116579887D01*
X187433695Y-116579376D01*
X187415600Y-116578719D01*
X187398502Y-116577916D01*
X187382399Y-116576967D01*
X187367292Y-116575873D01*
X187346499Y-116573957D01*
X187327948Y-116571712D01*
X187311637Y-116569140D01*
X187293376Y-116565198D01*
X187282295Y-116561859D01*
X187266276Y-116555562D01*
X187251419Y-116548121D01*
X187237725Y-116539534D01*
X187225194Y-116529802D01*
X187213826Y-116518926D01*
X187203620Y-116506905D01*
X187199863Y-116501775D01*
X187191420Y-116488312D01*
X187184407Y-116474026D01*
X187178826Y-116458917D01*
X187174676Y-116442985D01*
X187171957Y-116426231D01*
X187170669Y-116408653D01*
X187170554Y-116401392D01*
X187171213Y-116382770D01*
X187173188Y-116364641D01*
X187176479Y-116347004D01*
X187181087Y-116329859D01*
X187187012Y-116313207D01*
X187194253Y-116297047D01*
X187202812Y-116281379D01*
X187212686Y-116266203D01*
X187223563Y-116251858D01*
X187235309Y-116238680D01*
X187247926Y-116226670D01*
X187261413Y-116215828D01*
X187275770Y-116206154D01*
X187290997Y-116197647D01*
X187307094Y-116190309D01*
X187324061Y-116184138D01*
X187343209Y-116178986D01*
X187359982Y-116175572D01*
X187378822Y-116172546D01*
X187399730Y-116169905D01*
X187414817Y-116168360D01*
X187430822Y-116166986D01*
X187447746Y-116165784D01*
X187465590Y-116164753D01*
X187484351Y-116163895D01*
X187504032Y-116163208D01*
X187524631Y-116162692D01*
X187546150Y-116162349D01*
X187568587Y-116162177D01*
X187580150Y-116162156D01*
X188085000Y-116162156D01*
X188085000Y-115872728D01*
X186982976Y-115872728D01*
X186982976Y-116141639D01*
X187143810Y-116141639D01*
X187121494Y-116159835D01*
X187100619Y-116178608D01*
X187081183Y-116197959D01*
X187063187Y-116217889D01*
X187046630Y-116238397D01*
X187031513Y-116259483D01*
X187017836Y-116281147D01*
X187005599Y-116303389D01*
X186994801Y-116326210D01*
X186985443Y-116349608D01*
X186977525Y-116373585D01*
X186971046Y-116398140D01*
X186966007Y-116423273D01*
X186962408Y-116448985D01*
X186960248Y-116475274D01*
X186959528Y-116502142D01*
X186959834Y-116519991D01*
X186960752Y-116537545D01*
X186962282Y-116554802D01*
X186964423Y-116571763D01*
X186967176Y-116588427D01*
X186970541Y-116604795D01*
X186974518Y-116620867D01*
X186979106Y-116636643D01*
X186984306Y-116652123D01*
X186990118Y-116667306D01*
X186994333Y-116677264D01*
X187001026Y-116691829D01*
X187008055Y-116705712D01*
X187015418Y-116718911D01*
X187023116Y-116731429D01*
X187033900Y-116747056D01*
X187045281Y-116761471D01*
X187057256Y-116774671D01*
X187069827Y-116786658D01*
X187082993Y-116797431D01*
X187096686Y-116807209D01*
X187110837Y-116816208D01*
X187125446Y-116824428D01*
X187140512Y-116831870D01*
X187156037Y-116838533D01*
X187172020Y-116844418D01*
X187188460Y-116849524D01*
X187205359Y-116853852D01*
X187223322Y-116857630D01*
X187238012Y-116860133D01*
X187253745Y-116862352D01*
X187270521Y-116864289D01*
X187288340Y-116865942D01*
X187307203Y-116867311D01*
X187327109Y-116868397D01*
X187348058Y-116869200D01*
X187370051Y-116869720D01*
X187385292Y-116869909D01*
X187400997Y-116869972D01*
X188085000Y-116869972D01*
G37*
G36*
X188507051Y-117438203D02*
G01*
X187948712Y-117438203D01*
X187959457Y-117448339D01*
X187974823Y-117463431D01*
X187989287Y-117478388D01*
X188002849Y-117493210D01*
X188015511Y-117507896D01*
X188027270Y-117522447D01*
X188038128Y-117536863D01*
X188048084Y-117551144D01*
X188057139Y-117565289D01*
X188065292Y-117579300D01*
X188072543Y-117593175D01*
X188076891Y-117602490D01*
X188082886Y-117616704D01*
X188088251Y-117631208D01*
X188092984Y-117646002D01*
X188097087Y-117661085D01*
X188100558Y-117676458D01*
X188103398Y-117692122D01*
X188105607Y-117708075D01*
X188107185Y-117724317D01*
X188108131Y-117740850D01*
X188108447Y-117757672D01*
X188107851Y-117781308D01*
X188106065Y-117804498D01*
X188103089Y-117827241D01*
X188098921Y-117849538D01*
X188093563Y-117871388D01*
X188087015Y-117892792D01*
X188079275Y-117913749D01*
X188070345Y-117934260D01*
X188060224Y-117954324D01*
X188048913Y-117973942D01*
X188036410Y-117993113D01*
X188022718Y-118011837D01*
X188007834Y-118030116D01*
X187991760Y-118047947D01*
X187974495Y-118065332D01*
X187956039Y-118082271D01*
X187936463Y-118098508D01*
X187915928Y-118113698D01*
X187894434Y-118127840D01*
X187871982Y-118140935D01*
X187848570Y-118152982D01*
X187824200Y-118163982D01*
X187798870Y-118173934D01*
X187772582Y-118182838D01*
X187745335Y-118190695D01*
X187717130Y-118197504D01*
X187702667Y-118200516D01*
X187687965Y-118203266D01*
X187673023Y-118205754D01*
X187657842Y-118207980D01*
X187642420Y-118209944D01*
X187626759Y-118211646D01*
X187610859Y-118213087D01*
X187594718Y-118214265D01*
X187578338Y-118215182D01*
X187561718Y-118215836D01*
X187544859Y-118216229D01*
X187527759Y-118216360D01*
X187511114Y-118216230D01*
X187494699Y-118215841D01*
X187478516Y-118215191D01*
X187462564Y-118214282D01*
X187446843Y-118213113D01*
X187431353Y-118211685D01*
X187416094Y-118209996D01*
X187401066Y-118208048D01*
X187386269Y-118205841D01*
X187371704Y-118203373D01*
X187343266Y-118197659D01*
X187315753Y-118190905D01*
X187289165Y-118183113D01*
X187263501Y-118174281D01*
X187238761Y-118164411D01*
X187214946Y-118153502D01*
X187192055Y-118141553D01*
X187170089Y-118128566D01*
X187149048Y-118114540D01*
X187128930Y-118099474D01*
X187109738Y-118083370D01*
X187091548Y-118066522D01*
X187074532Y-118049224D01*
X187058690Y-118031477D01*
X187044021Y-118013280D01*
X187030526Y-117994634D01*
X187018204Y-117975539D01*
X187007056Y-117955994D01*
X186997081Y-117936000D01*
X186988279Y-117915557D01*
X186980652Y-117894664D01*
X186974197Y-117873322D01*
X186968917Y-117851530D01*
X186964809Y-117829289D01*
X186961875Y-117806599D01*
X186960115Y-117783459D01*
X186959528Y-117759870D01*
X186959727Y-117746299D01*
X186960772Y-117726227D01*
X186962711Y-117706496D01*
X186965546Y-117687106D01*
X186966650Y-117681468D01*
X187170554Y-117681468D01*
X187170901Y-117694071D01*
X187172719Y-117712491D01*
X187176096Y-117730332D01*
X187181031Y-117747594D01*
X187187524Y-117764275D01*
X187195577Y-117780377D01*
X187205187Y-117795900D01*
X187216356Y-117810843D01*
X187229084Y-117825206D01*
X187243370Y-117838990D01*
X187259214Y-117852194D01*
X187264825Y-117856454D01*
X187282765Y-117868423D01*
X187295648Y-117875726D01*
X187309269Y-117882488D01*
X187323629Y-117888709D01*
X187338727Y-117894389D01*
X187354564Y-117899528D01*
X187371139Y-117904126D01*
X187388452Y-117908184D01*
X187406504Y-117911700D01*
X187425295Y-117914675D01*
X187444824Y-117917109D01*
X187465091Y-117919003D01*
X187486097Y-117920355D01*
X187507841Y-117921167D01*
X187530324Y-117921437D01*
X187554349Y-117921175D01*
X187577516Y-117920389D01*
X187599824Y-117919080D01*
X187621274Y-117917247D01*
X187641865Y-117914890D01*
X187661597Y-117912009D01*
X187680470Y-117908604D01*
X187698485Y-117904676D01*
X187715641Y-117900224D01*
X187731939Y-117895248D01*
X187747378Y-117889748D01*
X187761958Y-117883724D01*
X187775679Y-117877177D01*
X187794652Y-117866374D01*
X187811692Y-117854392D01*
X187822073Y-117845923D01*
X187836389Y-117832715D01*
X187849198Y-117818901D01*
X187860500Y-117804482D01*
X187870296Y-117789457D01*
X187878584Y-117773827D01*
X187885365Y-117757592D01*
X187890640Y-117740751D01*
X187894407Y-117723306D01*
X187896668Y-117705254D01*
X187897421Y-117686598D01*
X187897056Y-117673579D01*
X187895140Y-117654517D01*
X187891582Y-117636016D01*
X187886382Y-117618076D01*
X187879539Y-117600695D01*
X187871055Y-117583875D01*
X187860928Y-117567615D01*
X187849159Y-117551915D01*
X187835747Y-117536776D01*
X187820694Y-117522197D01*
X187803998Y-117508178D01*
X187791921Y-117499350D01*
X187779045Y-117491091D01*
X187765371Y-117483401D01*
X187750898Y-117476282D01*
X187735627Y-117469731D01*
X187719557Y-117463751D01*
X187702688Y-117458340D01*
X187685021Y-117453498D01*
X187666556Y-117449226D01*
X187647292Y-117445524D01*
X187627229Y-117442391D01*
X187606367Y-117439828D01*
X187584708Y-117437835D01*
X187562249Y-117436411D01*
X187538992Y-117435556D01*
X187514937Y-117435272D01*
X187493924Y-117435545D01*
X187473566Y-117436365D01*
X187453864Y-117437732D01*
X187434817Y-117439645D01*
X187416426Y-117442105D01*
X187398690Y-117445112D01*
X187381610Y-117448665D01*
X187365185Y-117452766D01*
X187349416Y-117457412D01*
X187334302Y-117462606D01*
X187319843Y-117468346D01*
X187306040Y-117474633D01*
X187292893Y-117481466D01*
X187274400Y-117492742D01*
X187257383Y-117505247D01*
X187246868Y-117514136D01*
X187232369Y-117528000D01*
X187219395Y-117542502D01*
X187207948Y-117557641D01*
X187198027Y-117573418D01*
X187189633Y-117589833D01*
X187182765Y-117606885D01*
X187177423Y-117624574D01*
X187173607Y-117642901D01*
X187171317Y-117661866D01*
X187170554Y-117681468D01*
X186966650Y-117681468D01*
X186969276Y-117668058D01*
X186973901Y-117649350D01*
X186979421Y-117630985D01*
X186985836Y-117612960D01*
X186993147Y-117595277D01*
X187001352Y-117577935D01*
X187010453Y-117560935D01*
X187016942Y-117549861D01*
X187027136Y-117533797D01*
X187037885Y-117518391D01*
X187049187Y-117503641D01*
X187061043Y-117489548D01*
X187073453Y-117476112D01*
X187086416Y-117463333D01*
X187099934Y-117451211D01*
X187114005Y-117439745D01*
X187128631Y-117428937D01*
X187143810Y-117418785D01*
X186982976Y-117418785D01*
X186982976Y-117148775D01*
X188507051Y-117148775D01*
X188507051Y-117438203D01*
G37*
G36*
X188085000Y-119159382D02*
G01*
X187921235Y-119159382D01*
X187937321Y-119147853D01*
X187952743Y-119135661D01*
X187967503Y-119122806D01*
X187981599Y-119109287D01*
X187995032Y-119095105D01*
X188007801Y-119080260D01*
X188019907Y-119064752D01*
X188031350Y-119048580D01*
X188042130Y-119031744D01*
X188052246Y-119014246D01*
X188058621Y-119002212D01*
X188067526Y-118983908D01*
X188075554Y-118965405D01*
X188082707Y-118946702D01*
X188088984Y-118927800D01*
X188094385Y-118908698D01*
X188098910Y-118889396D01*
X188102559Y-118869894D01*
X188105333Y-118850193D01*
X188107230Y-118830293D01*
X188108252Y-118810192D01*
X188108447Y-118796681D01*
X188108019Y-118776270D01*
X188106734Y-118756251D01*
X188104592Y-118736625D01*
X188101595Y-118717392D01*
X188097740Y-118698552D01*
X188093029Y-118680104D01*
X188087462Y-118662050D01*
X188081038Y-118644388D01*
X188073758Y-118627119D01*
X188065621Y-118610243D01*
X188059720Y-118599211D01*
X188050240Y-118583218D01*
X188040070Y-118568076D01*
X188029211Y-118553783D01*
X188017663Y-118540341D01*
X188005426Y-118527748D01*
X187992500Y-118516006D01*
X187978884Y-118505114D01*
X187964580Y-118495072D01*
X187949587Y-118485880D01*
X187933904Y-118477538D01*
X187923066Y-118472449D01*
X187905922Y-118465443D01*
X187887599Y-118459127D01*
X187868098Y-118453499D01*
X187847418Y-118448561D01*
X187832977Y-118445651D01*
X187818012Y-118443048D01*
X187802523Y-118440751D01*
X187786510Y-118438761D01*
X187769973Y-118437076D01*
X187752913Y-118435698D01*
X187735329Y-118434626D01*
X187717221Y-118433860D01*
X187698590Y-118433401D01*
X187679434Y-118433248D01*
X186982976Y-118433248D01*
X186982976Y-118722676D01*
X187494787Y-118722676D01*
X187523432Y-118722737D01*
X187550657Y-118722922D01*
X187576463Y-118723230D01*
X187600849Y-118723660D01*
X187623816Y-118724214D01*
X187645362Y-118724891D01*
X187665490Y-118725691D01*
X187684197Y-118726614D01*
X187701485Y-118727660D01*
X187717353Y-118728829D01*
X187738493Y-118730814D01*
X187756439Y-118733076D01*
X187771191Y-118735614D01*
X187782749Y-118738429D01*
X187798708Y-118744102D01*
X187813611Y-118751045D01*
X187827459Y-118759257D01*
X187840251Y-118768740D01*
X187851988Y-118779493D01*
X187862669Y-118791516D01*
X187866646Y-118796681D01*
X187875512Y-118810508D01*
X187882875Y-118825425D01*
X187888736Y-118841434D01*
X187893093Y-118858534D01*
X187895498Y-118873000D01*
X187896940Y-118888164D01*
X187897421Y-118904026D01*
X187896774Y-118922287D01*
X187894834Y-118940067D01*
X187891599Y-118957366D01*
X187887071Y-118974185D01*
X187881249Y-118990522D01*
X187874134Y-119006379D01*
X187865725Y-119021755D01*
X187856022Y-119036650D01*
X187845363Y-119050812D01*
X187834086Y-119063807D01*
X187822190Y-119075633D01*
X187809677Y-119086292D01*
X187796545Y-119095783D01*
X187782795Y-119104107D01*
X187768426Y-119111262D01*
X187753440Y-119117250D01*
X187735276Y-119122316D01*
X187718009Y-119125672D01*
X187697619Y-119128649D01*
X187682291Y-119130422D01*
X187665574Y-119132026D01*
X187647469Y-119133462D01*
X187627976Y-119134728D01*
X187607094Y-119135826D01*
X187584825Y-119136755D01*
X187561167Y-119137515D01*
X187536121Y-119138106D01*
X187509687Y-119138528D01*
X187481865Y-119138781D01*
X187452655Y-119138866D01*
X186982976Y-119138866D01*
X186982976Y-119428293D01*
X188085000Y-119428293D01*
X188085000Y-119159382D01*
G37*
G36*
X186982976Y-120223304D02*
G01*
X187194002Y-120223304D01*
X187194002Y-120025467D01*
X187672473Y-120025467D01*
X187690180Y-120025489D01*
X187706940Y-120025553D01*
X187722753Y-120025660D01*
X187737617Y-120025811D01*
X187758139Y-120026116D01*
X187776528Y-120026519D01*
X187792786Y-120027018D01*
X187811147Y-120027834D01*
X187828769Y-120029095D01*
X187842100Y-120030963D01*
X187856390Y-120036021D01*
X187869033Y-120043871D01*
X187880032Y-120054511D01*
X187882034Y-120056974D01*
X187890148Y-120070391D01*
X187895257Y-120085453D01*
X187897286Y-120100417D01*
X187897421Y-120105701D01*
X187896442Y-120122076D01*
X187894131Y-120137650D01*
X187890460Y-120154977D01*
X187886545Y-120170101D01*
X187881759Y-120186347D01*
X187876103Y-120203715D01*
X187869577Y-120222205D01*
X188070345Y-120247117D01*
X188077154Y-120227926D01*
X188083294Y-120208271D01*
X188088763Y-120188153D01*
X188093563Y-120167571D01*
X188097693Y-120146525D01*
X188101154Y-120125015D01*
X188103089Y-120110418D01*
X188104726Y-120095614D01*
X188106065Y-120080605D01*
X188107107Y-120065389D01*
X188107851Y-120049968D01*
X188108298Y-120034340D01*
X188108447Y-120018506D01*
X188108023Y-119999146D01*
X188106752Y-119980267D01*
X188104634Y-119961869D01*
X188101669Y-119943951D01*
X188097857Y-119926514D01*
X188093197Y-119909559D01*
X188087690Y-119893084D01*
X188081336Y-119877090D01*
X188074312Y-119861943D01*
X188066796Y-119847826D01*
X188058787Y-119834740D01*
X188050286Y-119822684D01*
X188038968Y-119809064D01*
X188026881Y-119797053D01*
X188014024Y-119786653D01*
X188011360Y-119784766D01*
X187997223Y-119776045D01*
X187981600Y-119768201D01*
X187968033Y-119762556D01*
X187953516Y-119757473D01*
X187938049Y-119752951D01*
X187921631Y-119748989D01*
X187904263Y-119745589D01*
X187895223Y-119744099D01*
X187880563Y-119741953D01*
X187862593Y-119740092D01*
X187846945Y-119738885D01*
X187829436Y-119737838D01*
X187810066Y-119736953D01*
X187788834Y-119736228D01*
X187773646Y-119735835D01*
X187757630Y-119735513D01*
X187740787Y-119735262D01*
X187723117Y-119735083D01*
X187704620Y-119734976D01*
X187685296Y-119734940D01*
X187194002Y-119734940D01*
X187194002Y-119601950D01*
X186982976Y-119601950D01*
X186982976Y-119734940D01*
X186771950Y-119734940D01*
X186607819Y-120025467D01*
X186982976Y-120025467D01*
X186982976Y-120223304D01*
G37*
G36*
X187264344Y-120476095D02*
G01*
X186982976Y-120476095D01*
X186982976Y-120765889D01*
X187264344Y-120765889D01*
X187264344Y-120476095D01*
G37*
G36*
X188085000Y-120476095D02*
G01*
X187803632Y-120476095D01*
X187803632Y-120765889D01*
X188085000Y-120765889D01*
X188085000Y-120476095D01*
G37*
G36*
X187649026Y-121645163D02*
G01*
X187616053Y-121933492D01*
X187635925Y-121936253D01*
X187655011Y-121939863D01*
X187673311Y-121944324D01*
X187690826Y-121949635D01*
X187707555Y-121955796D01*
X187723498Y-121962807D01*
X187738656Y-121970668D01*
X187753028Y-121979379D01*
X187766614Y-121988941D01*
X187779414Y-121999352D01*
X187787512Y-122006765D01*
X187798773Y-122018329D01*
X187808927Y-122030215D01*
X187817973Y-122042423D01*
X187825911Y-122054953D01*
X187834773Y-122072161D01*
X187841665Y-122089941D01*
X187846588Y-122108294D01*
X187849542Y-122127219D01*
X187850526Y-122146716D01*
X187849947Y-122163504D01*
X187848208Y-122179796D01*
X187845310Y-122195593D01*
X187841253Y-122210893D01*
X187836036Y-122225697D01*
X187829661Y-122240006D01*
X187822126Y-122253819D01*
X187813432Y-122267136D01*
X187803579Y-122279956D01*
X187792566Y-122292282D01*
X187784581Y-122300223D01*
X187771558Y-122311484D01*
X187757357Y-122321638D01*
X187741977Y-122330684D01*
X187725419Y-122338622D01*
X187707682Y-122345453D01*
X187688767Y-122351176D01*
X187668673Y-122355791D01*
X187647400Y-122359299D01*
X187632564Y-122361022D01*
X187617204Y-122362253D01*
X187601320Y-122362991D01*
X187584912Y-122363237D01*
X187569496Y-122362994D01*
X187554573Y-122362264D01*
X187533110Y-122360257D01*
X187512756Y-122357155D01*
X187493509Y-122352959D01*
X187475369Y-122347667D01*
X187458338Y-122341281D01*
X187442414Y-122333800D01*
X187427597Y-122325224D01*
X187413889Y-122315553D01*
X187401288Y-122304787D01*
X187397334Y-122300956D01*
X187386138Y-122288946D01*
X187376043Y-122276273D01*
X187367050Y-122262937D01*
X187359157Y-122248938D01*
X187352366Y-122234275D01*
X187346677Y-122218949D01*
X187342088Y-122202959D01*
X187338601Y-122186306D01*
X187336215Y-122168990D01*
X187334930Y-122151011D01*
X187334685Y-122138656D01*
X187335143Y-122123186D01*
X187336517Y-122107916D01*
X187338807Y-122092846D01*
X187342013Y-122077977D01*
X187346134Y-122063308D01*
X187351172Y-122048840D01*
X187357125Y-122034572D01*
X187363995Y-122020504D01*
X187371780Y-122006636D01*
X187380481Y-121992969D01*
X187390098Y-121979502D01*
X187400631Y-121966236D01*
X187412080Y-121953170D01*
X187424445Y-121940304D01*
X187437725Y-121927639D01*
X187451922Y-121915174D01*
X187415652Y-121680334D01*
X186584371Y-121828712D01*
X186584371Y-122594047D01*
X186865739Y-122594047D01*
X186865739Y-122048164D01*
X187130254Y-122002735D01*
X187120695Y-122020909D01*
X187112076Y-122039160D01*
X187104398Y-122057488D01*
X187097659Y-122075893D01*
X187091861Y-122094376D01*
X187087003Y-122112936D01*
X187083086Y-122131574D01*
X187080108Y-122150288D01*
X187078071Y-122169080D01*
X187076974Y-122187949D01*
X187076765Y-122200572D01*
X187077310Y-122224430D01*
X187078946Y-122247827D01*
X187081672Y-122270763D01*
X187085489Y-122293239D01*
X187090396Y-122315254D01*
X187096394Y-122336808D01*
X187103482Y-122357901D01*
X187111661Y-122378533D01*
X187120931Y-122398705D01*
X187131290Y-122418415D01*
X187142741Y-122437665D01*
X187155281Y-122456454D01*
X187168913Y-122474783D01*
X187183635Y-122492650D01*
X187199447Y-122510057D01*
X187216350Y-122527002D01*
X187234078Y-122543240D01*
X187252460Y-122558429D01*
X187271493Y-122572572D01*
X187291180Y-122585666D01*
X187311519Y-122597713D01*
X187332510Y-122608713D01*
X187354154Y-122618665D01*
X187376451Y-122627569D01*
X187399400Y-122635426D01*
X187423002Y-122642235D01*
X187447257Y-122647997D01*
X187472164Y-122652711D01*
X187497723Y-122656378D01*
X187523936Y-122658996D01*
X187550800Y-122660568D01*
X187578318Y-122661092D01*
X187601336Y-122660669D01*
X187624045Y-122659403D01*
X187646444Y-122657292D01*
X187668535Y-122654337D01*
X187690316Y-122650537D01*
X187711789Y-122645893D01*
X187732952Y-122640405D01*
X187753806Y-122634072D01*
X187774351Y-122626895D01*
X187794587Y-122618874D01*
X187814514Y-122610008D01*
X187834132Y-122600298D01*
X187853440Y-122589744D01*
X187872440Y-122578345D01*
X187891130Y-122566102D01*
X187909511Y-122553014D01*
X187921750Y-122543697D01*
X187933601Y-122534156D01*
X187945063Y-122524392D01*
X187956137Y-122514403D01*
X187966822Y-122504190D01*
X187977118Y-122493753D01*
X187996545Y-122472208D01*
X188014419Y-122449767D01*
X188030738Y-122426430D01*
X188045502Y-122402197D01*
X188058713Y-122377068D01*
X188070369Y-122351043D01*
X188080471Y-122324122D01*
X188089019Y-122296306D01*
X188092711Y-122282062D01*
X188096013Y-122267593D01*
X188098927Y-122252901D01*
X188101453Y-122237985D01*
X188103590Y-122222845D01*
X188105338Y-122207481D01*
X188106698Y-122191893D01*
X188107670Y-122176081D01*
X188108253Y-122160045D01*
X188108447Y-122143785D01*
X188107960Y-122117938D01*
X188106501Y-122092695D01*
X188104068Y-122068055D01*
X188100662Y-122044020D01*
X188096282Y-122020588D01*
X188090930Y-121997760D01*
X188084605Y-121975537D01*
X188077306Y-121953917D01*
X188069034Y-121932901D01*
X188059789Y-121912489D01*
X188049571Y-121892681D01*
X188038380Y-121873477D01*
X188026215Y-121854877D01*
X188013078Y-121836881D01*
X187998967Y-121819488D01*
X187983883Y-121802700D01*
X187967978Y-121786629D01*
X187951402Y-121771387D01*
X187934158Y-121756976D01*
X187916243Y-121743395D01*
X187897659Y-121730644D01*
X187878404Y-121718723D01*
X187858480Y-121707631D01*
X187837887Y-121697370D01*
X187816623Y-121687939D01*
X187794690Y-121679338D01*
X187772087Y-121671567D01*
X187748814Y-121664627D01*
X187724872Y-121658516D01*
X187700260Y-121653235D01*
X187674978Y-121648784D01*
X187649026Y-121645163D01*
G37*
G36*
X187686395Y-122837679D02*
G01*
X187428475Y-122837679D01*
X187428475Y-123406643D01*
X187686395Y-123406643D01*
X187686395Y-122837679D01*
G37*
G36*
X188085000Y-124248914D02*
G01*
X188085000Y-123959487D01*
X186982243Y-123959487D01*
X187001795Y-123939435D01*
X187020700Y-123918940D01*
X187038958Y-123898002D01*
X187056569Y-123876620D01*
X187073534Y-123854794D01*
X187089851Y-123832524D01*
X187105522Y-123809811D01*
X187120546Y-123786654D01*
X187134922Y-123763054D01*
X187148653Y-123739010D01*
X187161736Y-123714522D01*
X187174172Y-123689591D01*
X187185962Y-123664216D01*
X187197104Y-123638397D01*
X187207600Y-123612135D01*
X187217449Y-123585429D01*
X186936081Y-123585429D01*
X186931293Y-123599657D01*
X186925995Y-123614039D01*
X186920187Y-123628577D01*
X186913870Y-123643268D01*
X186907044Y-123658115D01*
X186899708Y-123673116D01*
X186891863Y-123688271D01*
X186883508Y-123703581D01*
X186874644Y-123719046D01*
X186865270Y-123734665D01*
X186855387Y-123750439D01*
X186844994Y-123766367D01*
X186834092Y-123782450D01*
X186822680Y-123798687D01*
X186810759Y-123815079D01*
X186798328Y-123831625D01*
X186785465Y-123847923D01*
X186772339Y-123863568D01*
X186758950Y-123878560D01*
X186745297Y-123892900D01*
X186731381Y-123906587D01*
X186717201Y-123919622D01*
X186702759Y-123932004D01*
X186688053Y-123943733D01*
X186673083Y-123954810D01*
X186657850Y-123965234D01*
X186642354Y-123975006D01*
X186626595Y-123984125D01*
X186610572Y-123992591D01*
X186594286Y-124000405D01*
X186577737Y-124007566D01*
X186560924Y-124014075D01*
X186560924Y-124248914D01*
X188085000Y-124248914D01*
G37*
G36*
X187370847Y-124676239D02*
G01*
X187395573Y-124676670D01*
X187419854Y-124677390D01*
X187443690Y-124678396D01*
X187467081Y-124679691D01*
X187490027Y-124681273D01*
X187512527Y-124683143D01*
X187534583Y-124685300D01*
X187556193Y-124687745D01*
X187577359Y-124690478D01*
X187598079Y-124693498D01*
X187618354Y-124696806D01*
X187638185Y-124700402D01*
X187657570Y-124704285D01*
X187676510Y-124708456D01*
X187695005Y-124712915D01*
X187713055Y-124717661D01*
X187730659Y-124722695D01*
X187747819Y-124728017D01*
X187764534Y-124733626D01*
X187780803Y-124739523D01*
X187796628Y-124745707D01*
X187812007Y-124752179D01*
X187826942Y-124758939D01*
X187841431Y-124765987D01*
X187855475Y-124773322D01*
X187869074Y-124780945D01*
X187882228Y-124788855D01*
X187894937Y-124797053D01*
X187907201Y-124805539D01*
X187930394Y-124823374D01*
X187951955Y-124842102D01*
X187972125Y-124861470D01*
X187990904Y-124881475D01*
X188008292Y-124902119D01*
X188024289Y-124923401D01*
X188038895Y-124945321D01*
X188052110Y-124967880D01*
X188063934Y-124991077D01*
X188074366Y-125014912D01*
X188083408Y-125039385D01*
X188091059Y-125064497D01*
X188097318Y-125090247D01*
X188102187Y-125116635D01*
X188105665Y-125143662D01*
X188107751Y-125171327D01*
X188108447Y-125199630D01*
X188107912Y-125225981D01*
X188106306Y-125251728D01*
X188103630Y-125276871D01*
X188099883Y-125301410D01*
X188095066Y-125325346D01*
X188089178Y-125348677D01*
X188082220Y-125371404D01*
X188074192Y-125393528D01*
X188065093Y-125415048D01*
X188054923Y-125435963D01*
X188043683Y-125456275D01*
X188031373Y-125475983D01*
X188017992Y-125495087D01*
X188003541Y-125513587D01*
X187988019Y-125531483D01*
X187971427Y-125548775D01*
X187953948Y-125565234D01*
X187935769Y-125580631D01*
X187916888Y-125594967D01*
X187897307Y-125608240D01*
X187877023Y-125620452D01*
X187856039Y-125631602D01*
X187834353Y-125641690D01*
X187811967Y-125650716D01*
X187788878Y-125658680D01*
X187765089Y-125665582D01*
X187740598Y-125671422D01*
X187715407Y-125676201D01*
X187689514Y-125679917D01*
X187662919Y-125682572D01*
X187635624Y-125684165D01*
X187607627Y-125684696D01*
X187581191Y-125684191D01*
X187555374Y-125682675D01*
X187530175Y-125680149D01*
X187505594Y-125676613D01*
X187481632Y-125672066D01*
X187458288Y-125666509D01*
X187435562Y-125659942D01*
X187413454Y-125652364D01*
X187391964Y-125643776D01*
X187371093Y-125634178D01*
X187350840Y-125623569D01*
X187331205Y-125611950D01*
X187312188Y-125599320D01*
X187293790Y-125585680D01*
X187276010Y-125571030D01*
X187258848Y-125555369D01*
X187242478Y-125539000D01*
X187227163Y-125522225D01*
X187212905Y-125505043D01*
X187199703Y-125487455D01*
X187187557Y-125469460D01*
X187176468Y-125451059D01*
X187166434Y-125432251D01*
X187157457Y-125413037D01*
X187149536Y-125393416D01*
X187142671Y-125373389D01*
X187136862Y-125352956D01*
X187132109Y-125332116D01*
X187128412Y-125310870D01*
X187125772Y-125289217D01*
X187124188Y-125267158D01*
X187123660Y-125244692D01*
X187124159Y-125224794D01*
X187125657Y-125205308D01*
X187126401Y-125199630D01*
X187381580Y-125199630D01*
X187382092Y-125215587D01*
X187383628Y-125231035D01*
X187386188Y-125245975D01*
X187389772Y-125260406D01*
X187394380Y-125274328D01*
X187402116Y-125292100D01*
X187411673Y-125308967D01*
X187420035Y-125321024D01*
X187429422Y-125332572D01*
X187439832Y-125343611D01*
X187443515Y-125347172D01*
X187455351Y-125357178D01*
X187468365Y-125366166D01*
X187482558Y-125374136D01*
X187497929Y-125381089D01*
X187514479Y-125387025D01*
X187532207Y-125391943D01*
X187551114Y-125395843D01*
X187571199Y-125398726D01*
X187592463Y-125400592D01*
X187607293Y-125401270D01*
X187622648Y-125401496D01*
X187630161Y-125401444D01*
X187651905Y-125400661D01*
X187672459Y-125398937D01*
X187691821Y-125396273D01*
X187709991Y-125392669D01*
X187726970Y-125388124D01*
X187742758Y-125382639D01*
X187757354Y-125376214D01*
X187770759Y-125368849D01*
X187782972Y-125360544D01*
X187797404Y-125348007D01*
X187800672Y-125344638D01*
X187812707Y-125330630D01*
X187823083Y-125315775D01*
X187831798Y-125300073D01*
X187838854Y-125283523D01*
X187844249Y-125266127D01*
X187847984Y-125247883D01*
X187850059Y-125228792D01*
X187850526Y-125213918D01*
X187850273Y-125203549D01*
X187848943Y-125188271D01*
X187846473Y-125173320D01*
X187842864Y-125158698D01*
X187838114Y-125144405D01*
X187832225Y-125130439D01*
X187825196Y-125116803D01*
X187817027Y-125103494D01*
X187807718Y-125090515D01*
X187797269Y-125077863D01*
X187785680Y-125065540D01*
X187772973Y-125053952D01*
X187759306Y-125043503D01*
X187744680Y-125034194D01*
X187729094Y-125026025D01*
X187712548Y-125018995D01*
X187695043Y-125013106D01*
X187676579Y-125008356D01*
X187657155Y-125004747D01*
X187636771Y-125002277D01*
X187615428Y-125000947D01*
X187600666Y-125000694D01*
X187587362Y-125000919D01*
X187568180Y-125002098D01*
X187549924Y-125004289D01*
X187532597Y-125007491D01*
X187516196Y-125011703D01*
X187500723Y-125016927D01*
X187486177Y-125023162D01*
X187472559Y-125030408D01*
X187459868Y-125038666D01*
X187448104Y-125047934D01*
X187437267Y-125058213D01*
X187427316Y-125069292D01*
X187415569Y-125084765D01*
X187405563Y-125101040D01*
X187397297Y-125118116D01*
X187390771Y-125135993D01*
X187385985Y-125154672D01*
X187383538Y-125169207D01*
X187382070Y-125184193D01*
X187381580Y-125199630D01*
X187126401Y-125199630D01*
X187128155Y-125186234D01*
X187131651Y-125167573D01*
X187136146Y-125149323D01*
X187141640Y-125131486D01*
X187148133Y-125114061D01*
X187155625Y-125097048D01*
X187164116Y-125080447D01*
X187173605Y-125064258D01*
X187184094Y-125048481D01*
X187195582Y-125033117D01*
X187208068Y-125018165D01*
X187221553Y-125003625D01*
X187236038Y-124989497D01*
X187251521Y-124975781D01*
X187235210Y-124976857D01*
X187219249Y-124978025D01*
X187203639Y-124979284D01*
X187188380Y-124980635D01*
X187173472Y-124982078D01*
X187144706Y-124985238D01*
X187117343Y-124988764D01*
X187091383Y-124992657D01*
X187066825Y-124996916D01*
X187043670Y-125001541D01*
X187021917Y-125006533D01*
X187001567Y-125011891D01*
X186982619Y-125017615D01*
X186965073Y-125023706D01*
X186948930Y-125030163D01*
X186934190Y-125036987D01*
X186920852Y-125044177D01*
X186903475Y-125055648D01*
X186893227Y-125063681D01*
X186879094Y-125076144D01*
X186866449Y-125089102D01*
X186855292Y-125102556D01*
X186845622Y-125116506D01*
X186837440Y-125130952D01*
X186830746Y-125145894D01*
X186825539Y-125161332D01*
X186821820Y-125177266D01*
X186819588Y-125193695D01*
X186818845Y-125210621D01*
X186819002Y-125219174D01*
X186820261Y-125235672D01*
X186822780Y-125251357D01*
X186826558Y-125266229D01*
X186831596Y-125280288D01*
X186839664Y-125296719D01*
X186849699Y-125311880D01*
X186859145Y-125323094D01*
X186864308Y-125328369D01*
X186875665Y-125338147D01*
X186888397Y-125346894D01*
X186902502Y-125354610D01*
X186917980Y-125361296D01*
X186934833Y-125366952D01*
X186953060Y-125371578D01*
X186967631Y-125374370D01*
X186982976Y-125376584D01*
X186952934Y-125656852D01*
X186929384Y-125652685D01*
X186906543Y-125647876D01*
X186884412Y-125642427D01*
X186862991Y-125636336D01*
X186842280Y-125629604D01*
X186822279Y-125622231D01*
X186802988Y-125614217D01*
X186784406Y-125605561D01*
X186766535Y-125596265D01*
X186749373Y-125586327D01*
X186732921Y-125575748D01*
X186717178Y-125564528D01*
X186702146Y-125552667D01*
X186687824Y-125540165D01*
X186674211Y-125527022D01*
X186661308Y-125513237D01*
X186649152Y-125498901D01*
X186637780Y-125484100D01*
X186627193Y-125468836D01*
X186617390Y-125453108D01*
X186608371Y-125436916D01*
X186600137Y-125420261D01*
X186592686Y-125403142D01*
X186586020Y-125385560D01*
X186580138Y-125367513D01*
X186575041Y-125349003D01*
X186570727Y-125330030D01*
X186567198Y-125310592D01*
X186564453Y-125290691D01*
X186562493Y-125270327D01*
X186561316Y-125249498D01*
X186560924Y-125228206D01*
X186561104Y-125212977D01*
X186561644Y-125197927D01*
X186562544Y-125183055D01*
X186563804Y-125168363D01*
X186567403Y-125139514D01*
X186572442Y-125111382D01*
X186578920Y-125083964D01*
X186586839Y-125057263D01*
X186596197Y-125031277D01*
X186606994Y-125006006D01*
X186619232Y-124981451D01*
X186632909Y-124957612D01*
X186648026Y-124934488D01*
X186664582Y-124912079D01*
X186682579Y-124890387D01*
X186702014Y-124869410D01*
X186722890Y-124849148D01*
X186733868Y-124839285D01*
X186745205Y-124829602D01*
X186756927Y-124820157D01*
X186769103Y-124811013D01*
X186781734Y-124802168D01*
X186794819Y-124793624D01*
X186808358Y-124785379D01*
X186822352Y-124777433D01*
X186836800Y-124769788D01*
X186851703Y-124762443D01*
X186867060Y-124755397D01*
X186882871Y-124748651D01*
X186899137Y-124742205D01*
X186915857Y-124736059D01*
X186933031Y-124730212D01*
X186950660Y-124724666D01*
X186968743Y-124719419D01*
X186987281Y-124714472D01*
X187006272Y-124709825D01*
X187025719Y-124705477D01*
X187045619Y-124701430D01*
X187065974Y-124697682D01*
X187086784Y-124694234D01*
X187108048Y-124691086D01*
X187129766Y-124688238D01*
X187151938Y-124685689D01*
X187174565Y-124683441D01*
X187197647Y-124681492D01*
X187221182Y-124679843D01*
X187245172Y-124678494D01*
X187269617Y-124677444D01*
X187294516Y-124676695D01*
X187319869Y-124676245D01*
X187345676Y-124676095D01*
X187370847Y-124676239D01*
G37*
G36*
X188085000Y-126293227D02*
G01*
X186560924Y-125753206D01*
X186560924Y-126084033D01*
X187686395Y-126466151D01*
X186560924Y-126836179D01*
X186560924Y-127159678D01*
X188085000Y-126618925D01*
X188085000Y-126293227D01*
G37*
G36*
X187359132Y-132491876D02*
G01*
X187385623Y-132492271D01*
X187411594Y-132492929D01*
X187437044Y-132493851D01*
X187461975Y-132495036D01*
X187486385Y-132496484D01*
X187510274Y-132498196D01*
X187533644Y-132500170D01*
X187556494Y-132502409D01*
X187578823Y-132504910D01*
X187600632Y-132507675D01*
X187621921Y-132510703D01*
X187642689Y-132513995D01*
X187662938Y-132517550D01*
X187682666Y-132521368D01*
X187701874Y-132525450D01*
X187720562Y-132529794D01*
X187738729Y-132534403D01*
X187756377Y-132539274D01*
X187773504Y-132544409D01*
X187790111Y-132549807D01*
X187806198Y-132555469D01*
X187821764Y-132561393D01*
X187836811Y-132567581D01*
X187851337Y-132574033D01*
X187865343Y-132580748D01*
X187878828Y-132587726D01*
X187891794Y-132594967D01*
X187916164Y-132610240D01*
X187938454Y-132626566D01*
X187959039Y-132643798D01*
X187978296Y-132661697D01*
X187996225Y-132680263D01*
X188012826Y-132699496D01*
X188028099Y-132719395D01*
X188042043Y-132739962D01*
X188054660Y-132761195D01*
X188065949Y-132783095D01*
X188075909Y-132805662D01*
X188084542Y-132828897D01*
X188091846Y-132852798D01*
X188097822Y-132877365D01*
X188102470Y-132902600D01*
X188105791Y-132928502D01*
X188107783Y-132955070D01*
X188108447Y-132982306D01*
X188107841Y-133009315D01*
X188106025Y-133035572D01*
X188102999Y-133061076D01*
X188098761Y-133085827D01*
X188093313Y-133109825D01*
X188086654Y-133133070D01*
X188078784Y-133155563D01*
X188069704Y-133177303D01*
X188059413Y-133198290D01*
X188047911Y-133218525D01*
X188035198Y-133238007D01*
X188021275Y-133256736D01*
X188006141Y-133274712D01*
X187989796Y-133291935D01*
X187972241Y-133308406D01*
X187953475Y-133324124D01*
X187941469Y-133333252D01*
X187928991Y-133342091D01*
X187916041Y-133350640D01*
X187902619Y-133358900D01*
X187888724Y-133366869D01*
X187874357Y-133374549D01*
X187859518Y-133381939D01*
X187844207Y-133389039D01*
X187828423Y-133395849D01*
X187812167Y-133402370D01*
X187795439Y-133408600D01*
X187778238Y-133414541D01*
X187760565Y-133420192D01*
X187742420Y-133425554D01*
X187723803Y-133430625D01*
X187704713Y-133435407D01*
X187685152Y-133439899D01*
X187665117Y-133444101D01*
X187644611Y-133448013D01*
X187623632Y-133451636D01*
X187602181Y-133454968D01*
X187580258Y-133458011D01*
X187557863Y-133460764D01*
X187534995Y-133463228D01*
X187511655Y-133465401D01*
X187487843Y-133467285D01*
X187463558Y-133468879D01*
X187438802Y-133470183D01*
X187413573Y-133471197D01*
X187387871Y-133471922D01*
X187361698Y-133472356D01*
X187335052Y-133472501D01*
X187308363Y-133472357D01*
X187282152Y-133471926D01*
X187256419Y-133471207D01*
X187231165Y-133470200D01*
X187206388Y-133468906D01*
X187182089Y-133467323D01*
X187158268Y-133465454D01*
X187134925Y-133463296D01*
X187112061Y-133460851D01*
X187089674Y-133458119D01*
X187067765Y-133455098D01*
X187046334Y-133451790D01*
X187025381Y-133448195D01*
X187004906Y-133444311D01*
X186984909Y-133440140D01*
X186965390Y-133435682D01*
X186946349Y-133430935D01*
X186927786Y-133425901D01*
X186909701Y-133420580D01*
X186892095Y-133414971D01*
X186874966Y-133409074D01*
X186858315Y-133402889D01*
X186842142Y-133396417D01*
X186826447Y-133389657D01*
X186811230Y-133382610D01*
X186796491Y-133375274D01*
X186782230Y-133367652D01*
X186768447Y-133359741D01*
X186755142Y-133351543D01*
X186742315Y-133343057D01*
X186729965Y-133334284D01*
X186718094Y-133325223D01*
X186699062Y-133309372D01*
X186681258Y-133292777D01*
X186664681Y-133275437D01*
X186649332Y-133257354D01*
X186635212Y-133238526D01*
X186622319Y-133218954D01*
X186610654Y-133198638D01*
X186600217Y-133177578D01*
X186591008Y-133155774D01*
X186583026Y-133133225D01*
X186576273Y-133109932D01*
X186570747Y-133085895D01*
X186566450Y-133061114D01*
X186563380Y-133035589D01*
X186561538Y-133009319D01*
X186560924Y-132982306D01*
X186818845Y-132982306D01*
X186818972Y-132988809D01*
X186820405Y-133004666D01*
X186823430Y-133019950D01*
X186828047Y-133034662D01*
X186834256Y-133048801D01*
X186842058Y-133062368D01*
X186851451Y-133075362D01*
X186860604Y-133085397D01*
X186871761Y-133094986D01*
X186884922Y-133104128D01*
X186900086Y-133112823D01*
X186917253Y-133121072D01*
X186931444Y-133126966D01*
X186946762Y-133132608D01*
X186963206Y-133138000D01*
X186980778Y-133143140D01*
X187000264Y-133147919D01*
X187014833Y-133150845D01*
X187030664Y-133153561D01*
X187047757Y-133156068D01*
X187066112Y-133158366D01*
X187085730Y-133160456D01*
X187106610Y-133162336D01*
X187128752Y-133164008D01*
X187152156Y-133165470D01*
X187176823Y-133166724D01*
X187202752Y-133167769D01*
X187229943Y-133168605D01*
X187258396Y-133169231D01*
X187273096Y-133169466D01*
X187288112Y-133169649D01*
X187303443Y-133169780D01*
X187319090Y-133169858D01*
X187335052Y-133169884D01*
X187351048Y-133169855D01*
X187366751Y-133169767D01*
X187382160Y-133169620D01*
X187397277Y-133169415D01*
X187412099Y-133169151D01*
X187440865Y-133168447D01*
X187468456Y-133167508D01*
X187494875Y-133166334D01*
X187520119Y-133164926D01*
X187544191Y-133163283D01*
X187567089Y-133161406D01*
X187588813Y-133159293D01*
X187609364Y-133156946D01*
X187628741Y-133154365D01*
X187646944Y-133151548D01*
X187663975Y-133148497D01*
X187679831Y-133145211D01*
X187701416Y-133139842D01*
X187716696Y-133135485D01*
X187731074Y-133130792D01*
X187748843Y-133124014D01*
X187765009Y-133116641D01*
X187779572Y-133108673D01*
X187792532Y-133100109D01*
X187806478Y-133088567D01*
X187817920Y-133076095D01*
X187821868Y-133070877D01*
X187830625Y-133057457D01*
X187837789Y-133043500D01*
X187843362Y-133029007D01*
X187847342Y-133013976D01*
X187849730Y-132998409D01*
X187850526Y-132982306D01*
X187850402Y-132975801D01*
X187849001Y-132959929D01*
X187846044Y-132944610D01*
X187841531Y-132929847D01*
X187835461Y-132915638D01*
X187827835Y-132901983D01*
X187818653Y-132888883D01*
X187812044Y-132881380D01*
X187798526Y-132869420D01*
X187785457Y-132860341D01*
X187770384Y-132851697D01*
X187753308Y-132843488D01*
X187739186Y-132837617D01*
X187723937Y-132831991D01*
X187707562Y-132826609D01*
X187690059Y-132821472D01*
X187670504Y-132816692D01*
X187655889Y-132813767D01*
X187640013Y-132811051D01*
X187622874Y-132808544D01*
X187604472Y-132806245D01*
X187584809Y-132804156D01*
X187563883Y-132802275D01*
X187541695Y-132800604D01*
X187518245Y-132799141D01*
X187493533Y-132797888D01*
X187467558Y-132796843D01*
X187440321Y-132796007D01*
X187411822Y-132795380D01*
X187397099Y-132795145D01*
X187382061Y-132794962D01*
X187366707Y-132794832D01*
X187351037Y-132794753D01*
X187335052Y-132794727D01*
X187319077Y-132794757D01*
X187303393Y-132794845D01*
X187287999Y-132794991D01*
X187272896Y-132795197D01*
X187243561Y-132795784D01*
X187215388Y-132796605D01*
X187188377Y-132797661D01*
X187162529Y-132798952D01*
X187137842Y-132800478D01*
X187114317Y-132802238D01*
X187091955Y-132804233D01*
X187070754Y-132806462D01*
X187050716Y-132808927D01*
X187031840Y-132811626D01*
X187014125Y-132814560D01*
X186997573Y-132817728D01*
X186982183Y-132821131D01*
X186967955Y-132824769D01*
X186952675Y-132829127D01*
X186938297Y-132833820D01*
X186920528Y-132840597D01*
X186904362Y-132847970D01*
X186889799Y-132855939D01*
X186876839Y-132864503D01*
X186862893Y-132876044D01*
X186851451Y-132888517D01*
X186847503Y-132893734D01*
X186838746Y-132907155D01*
X186831581Y-132921112D01*
X186826009Y-132935605D01*
X186822029Y-132950635D01*
X186819641Y-132966202D01*
X186818845Y-132982306D01*
X186560924Y-132982306D01*
X186561529Y-132955252D01*
X186563346Y-132928954D01*
X186566372Y-132903412D01*
X186570610Y-132878625D01*
X186576058Y-132854594D01*
X186582717Y-132831318D01*
X186590587Y-132808798D01*
X186599667Y-132787034D01*
X186609958Y-132766025D01*
X186621460Y-132745772D01*
X186634173Y-132726274D01*
X186648096Y-132707533D01*
X186663230Y-132689546D01*
X186679575Y-132672316D01*
X186697130Y-132655841D01*
X186715896Y-132640122D01*
X186727900Y-132630993D01*
X186740371Y-132622154D01*
X186753310Y-132613605D01*
X186766718Y-132605346D01*
X186780593Y-132597376D01*
X186794936Y-132589696D01*
X186809748Y-132582307D01*
X186825027Y-132575206D01*
X186840774Y-132568396D01*
X186856989Y-132561876D01*
X186873673Y-132555645D01*
X186890824Y-132549704D01*
X186908443Y-132544053D01*
X186926530Y-132538692D01*
X186945085Y-132533620D01*
X186964108Y-132528838D01*
X186983599Y-132524347D01*
X187003558Y-132520144D01*
X187023985Y-132516232D01*
X187044880Y-132512610D01*
X187066243Y-132509277D01*
X187088074Y-132506234D01*
X187110373Y-132503481D01*
X187133139Y-132501018D01*
X187156374Y-132498844D01*
X187180077Y-132496960D01*
X187204248Y-132495367D01*
X187228886Y-132494062D01*
X187253993Y-132493048D01*
X187279568Y-132492324D01*
X187305610Y-132491889D01*
X187332121Y-132491744D01*
X187359132Y-132491876D01*
G37*
G36*
X188085000Y-133722362D02*
G01*
X187803632Y-133722362D01*
X187803632Y-134012156D01*
X188085000Y-134012156D01*
X188085000Y-133722362D01*
G37*
G36*
X187649026Y-134248094D02*
G01*
X187616053Y-134536423D01*
X187635925Y-134539184D01*
X187655011Y-134542794D01*
X187673311Y-134547255D01*
X187690826Y-134552566D01*
X187707555Y-134558727D01*
X187723498Y-134565738D01*
X187738656Y-134573599D01*
X187753028Y-134582310D01*
X187766614Y-134591871D01*
X187779414Y-134602283D01*
X187787512Y-134609696D01*
X187798773Y-134621260D01*
X187808927Y-134633146D01*
X187817973Y-134645354D01*
X187825911Y-134657884D01*
X187834773Y-134675092D01*
X187841665Y-134692872D01*
X187846588Y-134711225D01*
X187849542Y-134730150D01*
X187850526Y-134749647D01*
X187849947Y-134766435D01*
X187848208Y-134782727D01*
X187845310Y-134798523D01*
X187841253Y-134813824D01*
X187836036Y-134828628D01*
X187829661Y-134842937D01*
X187822126Y-134856750D01*
X187813432Y-134870066D01*
X187803579Y-134882887D01*
X187792566Y-134895212D01*
X187784581Y-134903154D01*
X187771558Y-134914415D01*
X187757357Y-134924569D01*
X187741977Y-134933615D01*
X187725419Y-134941553D01*
X187707682Y-134948384D01*
X187688767Y-134954107D01*
X187668673Y-134958722D01*
X187647400Y-134962230D01*
X187632564Y-134963953D01*
X187617204Y-134965184D01*
X187601320Y-134965922D01*
X187584912Y-134966168D01*
X187569496Y-134965925D01*
X187554573Y-134965195D01*
X187533110Y-134963188D01*
X187512756Y-134960086D01*
X187493509Y-134955889D01*
X187475369Y-134950598D01*
X187458338Y-134944212D01*
X187442414Y-134936730D01*
X187427597Y-134928155D01*
X187413889Y-134918484D01*
X187401288Y-134907718D01*
X187397334Y-134903886D01*
X187386138Y-134891877D01*
X187376043Y-134879204D01*
X187367050Y-134865868D01*
X187359157Y-134851868D01*
X187352366Y-134837206D01*
X187346677Y-134821880D01*
X187342088Y-134805890D01*
X187338601Y-134789237D01*
X187336215Y-134771921D01*
X187334930Y-134753942D01*
X187334685Y-134741587D01*
X187335143Y-134726117D01*
X187336517Y-134710847D01*
X187338807Y-134695777D01*
X187342013Y-134680908D01*
X187346134Y-134666239D01*
X187351172Y-134651771D01*
X187357125Y-134637502D01*
X187363995Y-134623435D01*
X187371780Y-134609567D01*
X187380481Y-134595900D01*
X187390098Y-134582433D01*
X187400631Y-134569167D01*
X187412080Y-134556101D01*
X187424445Y-134543235D01*
X187437725Y-134530570D01*
X187451922Y-134518105D01*
X187415652Y-134283265D01*
X186584371Y-134431643D01*
X186584371Y-135196978D01*
X186865739Y-135196978D01*
X186865739Y-134651095D01*
X187130254Y-134605666D01*
X187120695Y-134623840D01*
X187112076Y-134642091D01*
X187104398Y-134660419D01*
X187097659Y-134678824D01*
X187091861Y-134697307D01*
X187087003Y-134715867D01*
X187083086Y-134734505D01*
X187080108Y-134753219D01*
X187078071Y-134772011D01*
X187076974Y-134790880D01*
X187076765Y-134803503D01*
X187077310Y-134827361D01*
X187078946Y-134850758D01*
X187081672Y-134873694D01*
X187085489Y-134896170D01*
X187090396Y-134918185D01*
X187096394Y-134939739D01*
X187103482Y-134960832D01*
X187111661Y-134981464D01*
X187120931Y-135001636D01*
X187131290Y-135021346D01*
X187142741Y-135040596D01*
X187155281Y-135059385D01*
X187168913Y-135077713D01*
X187183635Y-135095581D01*
X187199447Y-135112987D01*
X187216350Y-135129933D01*
X187234078Y-135146171D01*
X187252460Y-135161360D01*
X187271493Y-135175503D01*
X187291180Y-135188597D01*
X187311519Y-135200644D01*
X187332510Y-135211644D01*
X187354154Y-135221596D01*
X187376451Y-135230500D01*
X187399400Y-135238357D01*
X187423002Y-135245166D01*
X187447257Y-135250928D01*
X187472164Y-135255642D01*
X187497723Y-135259308D01*
X187523936Y-135261927D01*
X187550800Y-135263499D01*
X187578318Y-135264023D01*
X187601336Y-135263600D01*
X187624045Y-135262334D01*
X187646444Y-135260223D01*
X187668535Y-135257268D01*
X187690316Y-135253468D01*
X187711789Y-135248824D01*
X187732952Y-135243336D01*
X187753806Y-135237003D01*
X187774351Y-135229826D01*
X187794587Y-135221805D01*
X187814514Y-135212939D01*
X187834132Y-135203229D01*
X187853440Y-135192675D01*
X187872440Y-135181276D01*
X187891130Y-135169033D01*
X187909511Y-135155945D01*
X187921750Y-135146628D01*
X187933601Y-135137087D01*
X187945063Y-135127323D01*
X187956137Y-135117334D01*
X187966822Y-135107121D01*
X187977118Y-135096684D01*
X187996545Y-135075139D01*
X188014419Y-135052698D01*
X188030738Y-135029360D01*
X188045502Y-135005127D01*
X188058713Y-134979999D01*
X188070369Y-134953974D01*
X188080471Y-134927053D01*
X188089019Y-134899237D01*
X188092711Y-134884993D01*
X188096013Y-134870524D01*
X188098927Y-134855832D01*
X188101453Y-134840916D01*
X188103590Y-134825776D01*
X188105338Y-134810412D01*
X188106698Y-134794824D01*
X188107670Y-134779012D01*
X188108253Y-134762976D01*
X188108447Y-134746716D01*
X188107960Y-134720869D01*
X188106501Y-134695626D01*
X188104068Y-134670986D01*
X188100662Y-134646951D01*
X188096282Y-134623519D01*
X188090930Y-134600691D01*
X188084605Y-134578468D01*
X188077306Y-134556848D01*
X188069034Y-134535832D01*
X188059789Y-134515420D01*
X188049571Y-134495612D01*
X188038380Y-134476408D01*
X188026215Y-134457808D01*
X188013078Y-134439812D01*
X187998967Y-134422419D01*
X187983883Y-134405631D01*
X187967978Y-134389560D01*
X187951402Y-134374318D01*
X187934158Y-134359907D01*
X187916243Y-134346326D01*
X187897659Y-134333575D01*
X187878404Y-134321653D01*
X187858480Y-134310562D01*
X187837887Y-134300301D01*
X187816623Y-134290870D01*
X187794690Y-134282269D01*
X187772087Y-134274498D01*
X187748814Y-134267558D01*
X187724872Y-134261447D01*
X187700260Y-134256166D01*
X187674978Y-134251715D01*
X187649026Y-134248094D01*
G37*
G36*
X188085000Y-135645774D02*
G01*
X187733290Y-135770338D01*
X187733290Y-136374473D01*
X188085000Y-136506364D01*
X188085000Y-136837923D01*
X186560924Y-136233056D01*
X186560924Y-136068192D01*
X186936081Y-136068192D01*
X187475369Y-136276287D01*
X187475369Y-135864127D01*
X186936081Y-136068192D01*
X186560924Y-136068192D01*
X186560924Y-135910655D01*
X188085000Y-135322274D01*
X188085000Y-135645774D01*
G37*
D10*
X156380952Y-126377619D02*
X156380952Y-125377619D01*
X156380952Y-125377619D02*
X156142857Y-125377619D01*
X156142857Y-125377619D02*
X156000000Y-125425238D01*
X156000000Y-125425238D02*
X155904762Y-125520476D01*
X155904762Y-125520476D02*
X155857143Y-125615714D01*
X155857143Y-125615714D02*
X155809524Y-125806190D01*
X155809524Y-125806190D02*
X155809524Y-125949047D01*
X155809524Y-125949047D02*
X155857143Y-126139523D01*
X155857143Y-126139523D02*
X155904762Y-126234761D01*
X155904762Y-126234761D02*
X156000000Y-126330000D01*
X156000000Y-126330000D02*
X156142857Y-126377619D01*
X156142857Y-126377619D02*
X156380952Y-126377619D01*
X155000000Y-126330000D02*
X155095238Y-126377619D01*
X155095238Y-126377619D02*
X155285714Y-126377619D01*
X155285714Y-126377619D02*
X155380952Y-126330000D01*
X155380952Y-126330000D02*
X155428571Y-126234761D01*
X155428571Y-126234761D02*
X155428571Y-125853809D01*
X155428571Y-125853809D02*
X155380952Y-125758571D01*
X155380952Y-125758571D02*
X155285714Y-125710952D01*
X155285714Y-125710952D02*
X155095238Y-125710952D01*
X155095238Y-125710952D02*
X155000000Y-125758571D01*
X155000000Y-125758571D02*
X154952381Y-125853809D01*
X154952381Y-125853809D02*
X154952381Y-125949047D01*
X154952381Y-125949047D02*
X155428571Y-126044285D01*
X154571428Y-126330000D02*
X154476190Y-126377619D01*
X154476190Y-126377619D02*
X154285714Y-126377619D01*
X154285714Y-126377619D02*
X154190476Y-126330000D01*
X154190476Y-126330000D02*
X154142857Y-126234761D01*
X154142857Y-126234761D02*
X154142857Y-126187142D01*
X154142857Y-126187142D02*
X154190476Y-126091904D01*
X154190476Y-126091904D02*
X154285714Y-126044285D01*
X154285714Y-126044285D02*
X154428571Y-126044285D01*
X154428571Y-126044285D02*
X154523809Y-125996666D01*
X154523809Y-125996666D02*
X154571428Y-125901428D01*
X154571428Y-125901428D02*
X154571428Y-125853809D01*
X154571428Y-125853809D02*
X154523809Y-125758571D01*
X154523809Y-125758571D02*
X154428571Y-125710952D01*
X154428571Y-125710952D02*
X154285714Y-125710952D01*
X154285714Y-125710952D02*
X154190476Y-125758571D01*
X153714285Y-126377619D02*
X153714285Y-125710952D01*
X153714285Y-125377619D02*
X153761904Y-125425238D01*
X153761904Y-125425238D02*
X153714285Y-125472857D01*
X153714285Y-125472857D02*
X153666666Y-125425238D01*
X153666666Y-125425238D02*
X153714285Y-125377619D01*
X153714285Y-125377619D02*
X153714285Y-125472857D01*
X152809524Y-125710952D02*
X152809524Y-126520476D01*
X152809524Y-126520476D02*
X152857143Y-126615714D01*
X152857143Y-126615714D02*
X152904762Y-126663333D01*
X152904762Y-126663333D02*
X153000000Y-126710952D01*
X153000000Y-126710952D02*
X153142857Y-126710952D01*
X153142857Y-126710952D02*
X153238095Y-126663333D01*
X152809524Y-126330000D02*
X152904762Y-126377619D01*
X152904762Y-126377619D02*
X153095238Y-126377619D01*
X153095238Y-126377619D02*
X153190476Y-126330000D01*
X153190476Y-126330000D02*
X153238095Y-126282380D01*
X153238095Y-126282380D02*
X153285714Y-126187142D01*
X153285714Y-126187142D02*
X153285714Y-125901428D01*
X153285714Y-125901428D02*
X153238095Y-125806190D01*
X153238095Y-125806190D02*
X153190476Y-125758571D01*
X153190476Y-125758571D02*
X153095238Y-125710952D01*
X153095238Y-125710952D02*
X152904762Y-125710952D01*
X152904762Y-125710952D02*
X152809524Y-125758571D01*
X152333333Y-125710952D02*
X152333333Y-126377619D01*
X152333333Y-125806190D02*
X152285714Y-125758571D01*
X152285714Y-125758571D02*
X152190476Y-125710952D01*
X152190476Y-125710952D02*
X152047619Y-125710952D01*
X152047619Y-125710952D02*
X151952381Y-125758571D01*
X151952381Y-125758571D02*
X151904762Y-125853809D01*
X151904762Y-125853809D02*
X151904762Y-126377619D01*
X151047619Y-126330000D02*
X151142857Y-126377619D01*
X151142857Y-126377619D02*
X151333333Y-126377619D01*
X151333333Y-126377619D02*
X151428571Y-126330000D01*
X151428571Y-126330000D02*
X151476190Y-126234761D01*
X151476190Y-126234761D02*
X151476190Y-125853809D01*
X151476190Y-125853809D02*
X151428571Y-125758571D01*
X151428571Y-125758571D02*
X151333333Y-125710952D01*
X151333333Y-125710952D02*
X151142857Y-125710952D01*
X151142857Y-125710952D02*
X151047619Y-125758571D01*
X151047619Y-125758571D02*
X151000000Y-125853809D01*
X151000000Y-125853809D02*
X151000000Y-125949047D01*
X151000000Y-125949047D02*
X151476190Y-126044285D01*
X150142857Y-126377619D02*
X150142857Y-125377619D01*
X150142857Y-126330000D02*
X150238095Y-126377619D01*
X150238095Y-126377619D02*
X150428571Y-126377619D01*
X150428571Y-126377619D02*
X150523809Y-126330000D01*
X150523809Y-126330000D02*
X150571428Y-126282380D01*
X150571428Y-126282380D02*
X150619047Y-126187142D01*
X150619047Y-126187142D02*
X150619047Y-125901428D01*
X150619047Y-125901428D02*
X150571428Y-125806190D01*
X150571428Y-125806190D02*
X150523809Y-125758571D01*
X150523809Y-125758571D02*
X150428571Y-125710952D01*
X150428571Y-125710952D02*
X150238095Y-125710952D01*
X150238095Y-125710952D02*
X150142857Y-125758571D01*
X148904761Y-126377619D02*
X148904761Y-125377619D01*
X148904761Y-125758571D02*
X148809523Y-125710952D01*
X148809523Y-125710952D02*
X148619047Y-125710952D01*
X148619047Y-125710952D02*
X148523809Y-125758571D01*
X148523809Y-125758571D02*
X148476190Y-125806190D01*
X148476190Y-125806190D02*
X148428571Y-125901428D01*
X148428571Y-125901428D02*
X148428571Y-126187142D01*
X148428571Y-126187142D02*
X148476190Y-126282380D01*
X148476190Y-126282380D02*
X148523809Y-126330000D01*
X148523809Y-126330000D02*
X148619047Y-126377619D01*
X148619047Y-126377619D02*
X148809523Y-126377619D01*
X148809523Y-126377619D02*
X148904761Y-126330000D01*
X148095237Y-125710952D02*
X147857142Y-126377619D01*
X147619047Y-125710952D02*
X147857142Y-126377619D01*
X147857142Y-126377619D02*
X147952380Y-126615714D01*
X147952380Y-126615714D02*
X147999999Y-126663333D01*
X147999999Y-126663333D02*
X148095237Y-126710952D01*
X146142856Y-125853809D02*
X145999999Y-125901428D01*
X145999999Y-125901428D02*
X145952380Y-125949047D01*
X145952380Y-125949047D02*
X145904761Y-126044285D01*
X145904761Y-126044285D02*
X145904761Y-126187142D01*
X145904761Y-126187142D02*
X145952380Y-126282380D01*
X145952380Y-126282380D02*
X145999999Y-126330000D01*
X145999999Y-126330000D02*
X146095237Y-126377619D01*
X146095237Y-126377619D02*
X146476189Y-126377619D01*
X146476189Y-126377619D02*
X146476189Y-125377619D01*
X146476189Y-125377619D02*
X146142856Y-125377619D01*
X146142856Y-125377619D02*
X146047618Y-125425238D01*
X146047618Y-125425238D02*
X145999999Y-125472857D01*
X145999999Y-125472857D02*
X145952380Y-125568095D01*
X145952380Y-125568095D02*
X145952380Y-125663333D01*
X145952380Y-125663333D02*
X145999999Y-125758571D01*
X145999999Y-125758571D02*
X146047618Y-125806190D01*
X146047618Y-125806190D02*
X146142856Y-125853809D01*
X146142856Y-125853809D02*
X146476189Y-125853809D01*
X145095237Y-126330000D02*
X145190475Y-126377619D01*
X145190475Y-126377619D02*
X145380951Y-126377619D01*
X145380951Y-126377619D02*
X145476189Y-126330000D01*
X145476189Y-126330000D02*
X145523808Y-126234761D01*
X145523808Y-126234761D02*
X145523808Y-125853809D01*
X145523808Y-125853809D02*
X145476189Y-125758571D01*
X145476189Y-125758571D02*
X145380951Y-125710952D01*
X145380951Y-125710952D02*
X145190475Y-125710952D01*
X145190475Y-125710952D02*
X145095237Y-125758571D01*
X145095237Y-125758571D02*
X145047618Y-125853809D01*
X145047618Y-125853809D02*
X145047618Y-125949047D01*
X145047618Y-125949047D02*
X145523808Y-126044285D01*
X144619046Y-125710952D02*
X144619046Y-126377619D01*
X144619046Y-125806190D02*
X144571427Y-125758571D01*
X144571427Y-125758571D02*
X144476189Y-125710952D01*
X144476189Y-125710952D02*
X144333332Y-125710952D01*
X144333332Y-125710952D02*
X144238094Y-125758571D01*
X144238094Y-125758571D02*
X144190475Y-125853809D01*
X144190475Y-125853809D02*
X144190475Y-126377619D01*
X142999998Y-126330000D02*
X142857141Y-126377619D01*
X142857141Y-126377619D02*
X142619046Y-126377619D01*
X142619046Y-126377619D02*
X142523808Y-126330000D01*
X142523808Y-126330000D02*
X142476189Y-126282380D01*
X142476189Y-126282380D02*
X142428570Y-126187142D01*
X142428570Y-126187142D02*
X142428570Y-126091904D01*
X142428570Y-126091904D02*
X142476189Y-125996666D01*
X142476189Y-125996666D02*
X142523808Y-125949047D01*
X142523808Y-125949047D02*
X142619046Y-125901428D01*
X142619046Y-125901428D02*
X142809522Y-125853809D01*
X142809522Y-125853809D02*
X142904760Y-125806190D01*
X142904760Y-125806190D02*
X142952379Y-125758571D01*
X142952379Y-125758571D02*
X142999998Y-125663333D01*
X142999998Y-125663333D02*
X142999998Y-125568095D01*
X142999998Y-125568095D02*
X142952379Y-125472857D01*
X142952379Y-125472857D02*
X142904760Y-125425238D01*
X142904760Y-125425238D02*
X142809522Y-125377619D01*
X142809522Y-125377619D02*
X142571427Y-125377619D01*
X142571427Y-125377619D02*
X142428570Y-125425238D01*
X141999998Y-126377619D02*
X141999998Y-125710952D01*
X141999998Y-125806190D02*
X141952379Y-125758571D01*
X141952379Y-125758571D02*
X141857141Y-125710952D01*
X141857141Y-125710952D02*
X141714284Y-125710952D01*
X141714284Y-125710952D02*
X141619046Y-125758571D01*
X141619046Y-125758571D02*
X141571427Y-125853809D01*
X141571427Y-125853809D02*
X141571427Y-126377619D01*
X141571427Y-125853809D02*
X141523808Y-125758571D01*
X141523808Y-125758571D02*
X141428570Y-125710952D01*
X141428570Y-125710952D02*
X141285713Y-125710952D01*
X141285713Y-125710952D02*
X141190474Y-125758571D01*
X141190474Y-125758571D02*
X141142855Y-125853809D01*
X141142855Y-125853809D02*
X141142855Y-126377619D01*
X140666665Y-126377619D02*
X140666665Y-125710952D01*
X140666665Y-125377619D02*
X140714284Y-125425238D01*
X140714284Y-125425238D02*
X140666665Y-125472857D01*
X140666665Y-125472857D02*
X140619046Y-125425238D01*
X140619046Y-125425238D02*
X140666665Y-125377619D01*
X140666665Y-125377619D02*
X140666665Y-125472857D01*
X140333332Y-125710952D02*
X139952380Y-125710952D01*
X140190475Y-125377619D02*
X140190475Y-126234761D01*
X140190475Y-126234761D02*
X140142856Y-126330000D01*
X140142856Y-126330000D02*
X140047618Y-126377619D01*
X140047618Y-126377619D02*
X139952380Y-126377619D01*
X139619046Y-126377619D02*
X139619046Y-125377619D01*
X139190475Y-126377619D02*
X139190475Y-125853809D01*
X139190475Y-125853809D02*
X139238094Y-125758571D01*
X139238094Y-125758571D02*
X139333332Y-125710952D01*
X139333332Y-125710952D02*
X139476189Y-125710952D01*
X139476189Y-125710952D02*
X139571427Y-125758571D01*
X139571427Y-125758571D02*
X139619046Y-125806190D01*
X137999998Y-125472857D02*
X137952379Y-125425238D01*
X137952379Y-125425238D02*
X137857141Y-125377619D01*
X137857141Y-125377619D02*
X137619046Y-125377619D01*
X137619046Y-125377619D02*
X137523808Y-125425238D01*
X137523808Y-125425238D02*
X137476189Y-125472857D01*
X137476189Y-125472857D02*
X137428570Y-125568095D01*
X137428570Y-125568095D02*
X137428570Y-125663333D01*
X137428570Y-125663333D02*
X137476189Y-125806190D01*
X137476189Y-125806190D02*
X138047617Y-126377619D01*
X138047617Y-126377619D02*
X137428570Y-126377619D01*
X136809522Y-125377619D02*
X136714284Y-125377619D01*
X136714284Y-125377619D02*
X136619046Y-125425238D01*
X136619046Y-125425238D02*
X136571427Y-125472857D01*
X136571427Y-125472857D02*
X136523808Y-125568095D01*
X136523808Y-125568095D02*
X136476189Y-125758571D01*
X136476189Y-125758571D02*
X136476189Y-125996666D01*
X136476189Y-125996666D02*
X136523808Y-126187142D01*
X136523808Y-126187142D02*
X136571427Y-126282380D01*
X136571427Y-126282380D02*
X136619046Y-126330000D01*
X136619046Y-126330000D02*
X136714284Y-126377619D01*
X136714284Y-126377619D02*
X136809522Y-126377619D01*
X136809522Y-126377619D02*
X136904760Y-126330000D01*
X136904760Y-126330000D02*
X136952379Y-126282380D01*
X136952379Y-126282380D02*
X136999998Y-126187142D01*
X136999998Y-126187142D02*
X137047617Y-125996666D01*
X137047617Y-125996666D02*
X137047617Y-125758571D01*
X137047617Y-125758571D02*
X136999998Y-125568095D01*
X136999998Y-125568095D02*
X136952379Y-125472857D01*
X136952379Y-125472857D02*
X136904760Y-125425238D01*
X136904760Y-125425238D02*
X136809522Y-125377619D01*
X136095236Y-125472857D02*
X136047617Y-125425238D01*
X136047617Y-125425238D02*
X135952379Y-125377619D01*
X135952379Y-125377619D02*
X135714284Y-125377619D01*
X135714284Y-125377619D02*
X135619046Y-125425238D01*
X135619046Y-125425238D02*
X135571427Y-125472857D01*
X135571427Y-125472857D02*
X135523808Y-125568095D01*
X135523808Y-125568095D02*
X135523808Y-125663333D01*
X135523808Y-125663333D02*
X135571427Y-125806190D01*
X135571427Y-125806190D02*
X136142855Y-126377619D01*
X136142855Y-126377619D02*
X135523808Y-126377619D01*
X135190474Y-125377619D02*
X134571427Y-125377619D01*
X134571427Y-125377619D02*
X134904760Y-125758571D01*
X134904760Y-125758571D02*
X134761903Y-125758571D01*
X134761903Y-125758571D02*
X134666665Y-125806190D01*
X134666665Y-125806190D02*
X134619046Y-125853809D01*
X134619046Y-125853809D02*
X134571427Y-125949047D01*
X134571427Y-125949047D02*
X134571427Y-126187142D01*
X134571427Y-126187142D02*
X134619046Y-126282380D01*
X134619046Y-126282380D02*
X134666665Y-126330000D01*
X134666665Y-126330000D02*
X134761903Y-126377619D01*
X134761903Y-126377619D02*
X135047617Y-126377619D01*
X135047617Y-126377619D02*
X135142855Y-126330000D01*
X135142855Y-126330000D02*
X135190474Y-126282380D01*
D13*
G36*
X180227369Y-129468136D02*
G01*
X179680265Y-129468136D01*
X179680265Y-128920055D01*
X179445792Y-128920055D01*
X179445792Y-129468136D01*
X178914319Y-129468136D01*
X178914319Y-129701633D01*
X179445792Y-129701633D01*
X179445792Y-130249713D01*
X179680265Y-130249713D01*
X179680265Y-129701633D01*
X180227369Y-129701633D01*
X180227369Y-129468136D01*
G37*
D11*
X160690476Y-135127619D02*
X161166666Y-135127619D01*
X161166666Y-135127619D02*
X161166666Y-134127619D01*
X139761904Y-134175238D02*
X139857142Y-134127619D01*
X139857142Y-134127619D02*
X139999999Y-134127619D01*
X139999999Y-134127619D02*
X140142856Y-134175238D01*
X140142856Y-134175238D02*
X140238094Y-134270476D01*
X140238094Y-134270476D02*
X140285713Y-134365714D01*
X140285713Y-134365714D02*
X140333332Y-134556190D01*
X140333332Y-134556190D02*
X140333332Y-134699047D01*
X140333332Y-134699047D02*
X140285713Y-134889523D01*
X140285713Y-134889523D02*
X140238094Y-134984761D01*
X140238094Y-134984761D02*
X140142856Y-135080000D01*
X140142856Y-135080000D02*
X139999999Y-135127619D01*
X139999999Y-135127619D02*
X139904761Y-135127619D01*
X139904761Y-135127619D02*
X139761904Y-135080000D01*
X139761904Y-135080000D02*
X139714285Y-135032380D01*
X139714285Y-135032380D02*
X139714285Y-134699047D01*
X139714285Y-134699047D02*
X139904761Y-134699047D01*
X139285713Y-135127619D02*
X139285713Y-134127619D01*
X139285713Y-134127619D02*
X138714285Y-135127619D01*
X138714285Y-135127619D02*
X138714285Y-134127619D01*
X138238094Y-135127619D02*
X138238094Y-134127619D01*
X138238094Y-134127619D02*
X137999999Y-134127619D01*
X137999999Y-134127619D02*
X137857142Y-134175238D01*
X137857142Y-134175238D02*
X137761904Y-134270476D01*
X137761904Y-134270476D02*
X137714285Y-134365714D01*
X137714285Y-134365714D02*
X137666666Y-134556190D01*
X137666666Y-134556190D02*
X137666666Y-134699047D01*
X137666666Y-134699047D02*
X137714285Y-134889523D01*
X137714285Y-134889523D02*
X137761904Y-134984761D01*
X137761904Y-134984761D02*
X137857142Y-135080000D01*
X137857142Y-135080000D02*
X137999999Y-135127619D01*
X137999999Y-135127619D02*
X138238094Y-135127619D01*
G36*
X101967906Y-112270280D02*
G01*
X101992576Y-112294950D01*
X102022380Y-112354558D01*
X102022380Y-112611904D01*
X101698571Y-112611904D01*
X101698571Y-112482954D01*
X101702238Y-112463065D01*
X101698571Y-112454116D01*
X101698571Y-112354558D01*
X101728375Y-112294949D01*
X101753045Y-112270280D01*
X101812653Y-112240476D01*
X101908298Y-112240476D01*
X101967906Y-112270280D01*
G37*
G36*
X102942857Y-113392857D02*
G01*
X100557143Y-113392857D01*
X100557143Y-112151220D01*
X101018713Y-112151220D01*
X101040979Y-112205561D01*
X101498571Y-112525874D01*
X101498571Y-112611904D01*
X101108001Y-112611904D01*
X101066033Y-112624227D01*
X101027576Y-112668609D01*
X101019219Y-112726736D01*
X101043614Y-112780155D01*
X101093017Y-112811904D01*
X101591417Y-112811904D01*
X101613403Y-112815065D01*
X101620325Y-112811904D01*
X102115226Y-112811904D01*
X102137212Y-112815065D01*
X102157415Y-112805838D01*
X102178727Y-112799581D01*
X102183709Y-112793830D01*
X102190631Y-112790670D01*
X102202639Y-112771984D01*
X102217184Y-112755199D01*
X102218266Y-112747667D01*
X102222380Y-112741267D01*
X102222380Y-112719058D01*
X102225541Y-112697072D01*
X102222380Y-112690150D01*
X102222380Y-112336336D01*
X102224954Y-112312493D01*
X102215815Y-112294215D01*
X102210057Y-112274605D01*
X102202915Y-112268417D01*
X102169810Y-112202206D01*
X102166234Y-112185766D01*
X102146759Y-112166291D01*
X102127983Y-112146105D01*
X102126088Y-112145620D01*
X102106718Y-112126250D01*
X102098126Y-112111784D01*
X102073491Y-112099466D01*
X102049296Y-112086255D01*
X102047346Y-112086394D01*
X101981445Y-112053443D01*
X101961267Y-112040476D01*
X101940831Y-112040476D01*
X101920716Y-112036856D01*
X101911988Y-112040476D01*
X101794431Y-112040476D01*
X101770588Y-112037902D01*
X101752310Y-112047040D01*
X101732700Y-112052799D01*
X101726512Y-112059940D01*
X101660301Y-112093045D01*
X101643861Y-112096622D01*
X101624386Y-112116096D01*
X101604200Y-112134873D01*
X101603715Y-112136767D01*
X101584345Y-112156137D01*
X101569879Y-112164730D01*
X101557561Y-112189364D01*
X101544350Y-112213560D01*
X101544489Y-112215509D01*
X101511538Y-112281410D01*
X101507367Y-112287901D01*
X101167946Y-112050307D01*
X101126498Y-112036335D01*
X101069542Y-112050641D01*
X101029362Y-112093468D01*
X101018713Y-112151220D01*
X100557143Y-112151220D01*
X100557143Y-111342139D01*
X101018760Y-111342139D01*
X101022380Y-111350867D01*
X101022380Y-111516044D01*
X101019806Y-111539887D01*
X101028944Y-111558164D01*
X101034703Y-111577775D01*
X101041844Y-111583962D01*
X101074950Y-111650174D01*
X101078527Y-111666614D01*
X101097997Y-111686084D01*
X101116779Y-111706275D01*
X101118672Y-111706759D01*
X101138042Y-111726129D01*
X101146635Y-111740596D01*
X101171271Y-111752914D01*
X101195465Y-111766125D01*
X101197413Y-111765985D01*
X101263318Y-111798938D01*
X101283494Y-111811904D01*
X101303929Y-111811904D01*
X101324045Y-111815524D01*
X101332773Y-111811904D01*
X102136759Y-111811904D01*
X102178727Y-111799581D01*
X102217184Y-111755199D01*
X102225541Y-111697072D01*
X102201146Y-111643653D01*
X102151743Y-111611904D01*
X101336463Y-111611904D01*
X101276855Y-111582100D01*
X101252185Y-111557430D01*
X101222380Y-111497820D01*
X101222380Y-111354560D01*
X101252185Y-111294949D01*
X101276855Y-111270280D01*
X101336463Y-111240476D01*
X102136759Y-111240476D01*
X102178727Y-111228153D01*
X102217184Y-111183771D01*
X102225541Y-111125644D01*
X102201146Y-111072225D01*
X102151743Y-111040476D01*
X101318241Y-111040476D01*
X101294398Y-111037902D01*
X101276120Y-111047040D01*
X101256510Y-111052799D01*
X101250322Y-111059940D01*
X101184111Y-111093045D01*
X101167671Y-111096622D01*
X101148196Y-111116096D01*
X101128010Y-111134873D01*
X101127525Y-111136767D01*
X101108156Y-111156136D01*
X101093690Y-111164729D01*
X101081373Y-111189361D01*
X101068160Y-111213560D01*
X101068299Y-111215508D01*
X101035346Y-111281412D01*
X101022380Y-111301589D01*
X101022380Y-111322024D01*
X101018760Y-111342139D01*
X100557143Y-111342139D01*
X100557143Y-110679117D01*
X101019219Y-110679117D01*
X101043614Y-110732536D01*
X101093017Y-110764285D01*
X102110649Y-110764285D01*
X102127803Y-110768366D01*
X102153058Y-110759499D01*
X102178727Y-110751962D01*
X102180563Y-110749842D01*
X102183213Y-110748912D01*
X102199664Y-110727798D01*
X102217184Y-110707580D01*
X102217583Y-110704802D01*
X102219308Y-110702589D01*
X102221733Y-110675937D01*
X102225541Y-110649453D01*
X102224375Y-110646900D01*
X102224630Y-110644105D01*
X102212261Y-110620374D01*
X102201146Y-110596034D01*
X102198784Y-110594516D01*
X102197488Y-110592029D01*
X102174263Y-110578757D01*
X102151743Y-110564285D01*
X102148936Y-110564285D01*
X101498936Y-110192857D01*
X102136759Y-110192857D01*
X102178727Y-110180534D01*
X102217184Y-110136152D01*
X102225541Y-110078025D01*
X102201146Y-110024606D01*
X102151743Y-109992857D01*
X101134111Y-109992857D01*
X101116957Y-109988776D01*
X101091701Y-109997642D01*
X101066033Y-110005180D01*
X101064196Y-110007299D01*
X101061547Y-110008230D01*
X101045095Y-110029343D01*
X101027576Y-110049562D01*
X101027176Y-110052339D01*
X101025452Y-110054553D01*
X101023026Y-110081204D01*
X101019219Y-110107689D01*
X101020384Y-110110241D01*
X101020130Y-110113037D01*
X101032498Y-110136767D01*
X101043614Y-110161108D01*
X101045975Y-110162625D01*
X101047272Y-110165113D01*
X101070496Y-110178384D01*
X101093017Y-110192857D01*
X101095824Y-110192857D01*
X101745824Y-110564285D01*
X101108001Y-110564285D01*
X101066033Y-110576608D01*
X101027576Y-110620990D01*
X101019219Y-110679117D01*
X100557143Y-110679117D01*
X100557143Y-109111905D01*
X102942857Y-109111905D01*
X102942857Y-113392857D01*
G37*
G36*
X176225029Y-56702238D02*
G01*
X176233978Y-56698571D01*
X176333536Y-56698571D01*
X176393144Y-56728375D01*
X176417814Y-56753045D01*
X176447618Y-56812653D01*
X176447618Y-56908298D01*
X176417814Y-56967906D01*
X176393144Y-56992575D01*
X176333536Y-57022380D01*
X176076190Y-57022380D01*
X176076190Y-56698571D01*
X176205142Y-56698571D01*
X176225029Y-56702238D01*
G37*
G36*
X180854762Y-57942857D02*
G01*
X175145238Y-57942857D01*
X175145238Y-57137212D01*
X175873029Y-57137212D01*
X175882255Y-57157415D01*
X175888513Y-57178727D01*
X175894263Y-57183709D01*
X175897424Y-57190631D01*
X175916109Y-57202639D01*
X175932895Y-57217184D01*
X175940426Y-57218266D01*
X175946827Y-57222380D01*
X175969036Y-57222380D01*
X175991022Y-57225541D01*
X175997944Y-57222380D01*
X176351757Y-57222380D01*
X176375600Y-57224954D01*
X176393876Y-57215815D01*
X176413489Y-57210057D01*
X176419677Y-57202915D01*
X176485885Y-57169811D01*
X176502328Y-57166234D01*
X176521807Y-57146754D01*
X176532066Y-57137212D01*
X176873029Y-57137212D01*
X176882255Y-57157415D01*
X176888513Y-57178727D01*
X176894263Y-57183709D01*
X176897424Y-57190631D01*
X176916109Y-57202639D01*
X176932895Y-57217184D01*
X176940426Y-57218266D01*
X176946827Y-57222380D01*
X176969036Y-57222380D01*
X176991022Y-57225541D01*
X176997944Y-57222380D01*
X177466759Y-57222380D01*
X177508727Y-57210057D01*
X177547184Y-57165675D01*
X177555541Y-57107548D01*
X177531146Y-57054129D01*
X177481743Y-57022380D01*
X177076190Y-57022380D01*
X177076190Y-56746190D01*
X177323902Y-56746190D01*
X177365870Y-56733867D01*
X177404327Y-56689485D01*
X177412684Y-56631358D01*
X177388289Y-56577939D01*
X177338886Y-56546190D01*
X177076190Y-56546190D01*
X177076190Y-56222380D01*
X177466759Y-56222380D01*
X177508727Y-56210057D01*
X177547184Y-56165675D01*
X177548157Y-56158907D01*
X177729703Y-56158907D01*
X177740156Y-56216694D01*
X177780192Y-56259657D01*
X177837100Y-56274154D01*
X177992419Y-56222380D01*
X178190677Y-56222380D01*
X178250287Y-56252185D01*
X178274957Y-56276855D01*
X178304761Y-56336463D01*
X178304761Y-56384489D01*
X178274957Y-56444097D01*
X178250287Y-56468766D01*
X178179383Y-56504218D01*
X178016834Y-56544855D01*
X178005350Y-56543616D01*
X177988906Y-56551837D01*
X177985606Y-56552663D01*
X177976089Y-56558246D01*
X177895063Y-56598759D01*
X177878623Y-56602336D01*
X177859148Y-56621810D01*
X177838962Y-56640587D01*
X177838477Y-56642481D01*
X177819107Y-56661851D01*
X177804641Y-56670444D01*
X177792323Y-56695078D01*
X177779112Y-56719274D01*
X177779251Y-56721223D01*
X177746300Y-56787124D01*
X177733333Y-56807303D01*
X177733333Y-56827739D01*
X177729713Y-56847854D01*
X177733333Y-56856582D01*
X177733333Y-56926519D01*
X177730759Y-56950362D01*
X177739897Y-56968638D01*
X177745656Y-56988251D01*
X177752797Y-56994439D01*
X177785901Y-57060647D01*
X177789479Y-57077090D01*
X177808958Y-57096569D01*
X177827730Y-57116750D01*
X177829623Y-57117234D01*
X177848994Y-57136605D01*
X177857587Y-57151072D01*
X177882223Y-57163390D01*
X177906417Y-57176601D01*
X177908365Y-57176461D01*
X177974270Y-57209414D01*
X177994446Y-57222380D01*
X178014881Y-57222380D01*
X178034997Y-57226000D01*
X178043725Y-57222380D01*
X178249364Y-57222380D01*
X178265671Y-57226534D01*
X178291810Y-57217820D01*
X178318251Y-57210057D01*
X178319530Y-57208580D01*
X178450024Y-57165082D01*
X178485942Y-57140120D01*
X178487145Y-57137212D01*
X178730172Y-57137212D01*
X178739398Y-57157415D01*
X178745656Y-57178727D01*
X178751406Y-57183709D01*
X178754567Y-57190631D01*
X178773252Y-57202639D01*
X178790038Y-57217184D01*
X178797569Y-57218266D01*
X178803970Y-57222380D01*
X178826179Y-57222380D01*
X178848165Y-57225541D01*
X178855087Y-57222380D01*
X179323902Y-57222380D01*
X179365870Y-57210057D01*
X179404327Y-57165675D01*
X179408419Y-57137212D01*
X179492077Y-57137212D01*
X179516472Y-57190631D01*
X179565875Y-57222380D01*
X179873798Y-57222380D01*
X179895784Y-57225541D01*
X179902706Y-57222380D01*
X180181045Y-57222380D01*
X180223013Y-57210057D01*
X180261470Y-57165675D01*
X180269827Y-57107548D01*
X180245432Y-57054129D01*
X180196029Y-57022380D01*
X179980952Y-57022380D01*
X179980952Y-56108001D01*
X179968629Y-56066033D01*
X179924247Y-56027576D01*
X179866120Y-56019219D01*
X179812701Y-56043614D01*
X179780952Y-56093017D01*
X179780952Y-57022380D01*
X179580859Y-57022380D01*
X179538891Y-57034703D01*
X179500434Y-57079085D01*
X179492077Y-57137212D01*
X179408419Y-57137212D01*
X179412684Y-57107548D01*
X179388289Y-57054129D01*
X179338886Y-57022380D01*
X178933333Y-57022380D01*
X178933333Y-56746190D01*
X179181045Y-56746190D01*
X179223013Y-56733867D01*
X179261470Y-56689485D01*
X179269827Y-56631358D01*
X179245432Y-56577939D01*
X179196029Y-56546190D01*
X178933333Y-56546190D01*
X178933333Y-56222380D01*
X179323902Y-56222380D01*
X179365870Y-56210057D01*
X179404327Y-56165675D01*
X179412684Y-56107548D01*
X179388289Y-56054129D01*
X179338886Y-56022380D01*
X178840487Y-56022380D01*
X178818501Y-56019219D01*
X178798297Y-56028445D01*
X178776986Y-56034703D01*
X178772003Y-56040453D01*
X178765082Y-56043614D01*
X178753073Y-56062299D01*
X178738529Y-56079085D01*
X178737446Y-56086616D01*
X178733333Y-56093017D01*
X178733333Y-56115226D01*
X178730172Y-56137212D01*
X178733333Y-56144134D01*
X178733333Y-56639036D01*
X178730172Y-56661022D01*
X178733333Y-56667944D01*
X178733333Y-57115226D01*
X178730172Y-57137212D01*
X178487145Y-57137212D01*
X178508391Y-57085855D01*
X178497937Y-57028068D01*
X178457902Y-56985105D01*
X178400994Y-56970607D01*
X178245677Y-57022380D01*
X178047415Y-57022380D01*
X177987807Y-56992576D01*
X177963137Y-56967906D01*
X177933333Y-56908298D01*
X177933333Y-56860272D01*
X177963137Y-56800663D01*
X177987807Y-56775994D01*
X178058710Y-56740542D01*
X178221258Y-56699905D01*
X178232743Y-56701145D01*
X178249186Y-56692923D01*
X178252488Y-56692098D01*
X178262008Y-56686512D01*
X178343028Y-56646002D01*
X178359471Y-56642425D01*
X178378950Y-56622945D01*
X178399131Y-56604174D01*
X178399615Y-56602280D01*
X178418986Y-56582909D01*
X178433453Y-56574317D01*
X178445771Y-56549680D01*
X178458982Y-56525487D01*
X178458842Y-56523538D01*
X178491795Y-56457633D01*
X178504761Y-56437458D01*
X178504761Y-56417023D01*
X178508381Y-56396907D01*
X178504761Y-56388179D01*
X178504761Y-56318241D01*
X178507335Y-56294398D01*
X178498196Y-56276120D01*
X178492438Y-56256510D01*
X178485296Y-56250322D01*
X178452191Y-56184111D01*
X178448615Y-56167671D01*
X178429140Y-56148196D01*
X178410364Y-56128010D01*
X178408469Y-56127525D01*
X178389100Y-56108156D01*
X178380508Y-56093690D01*
X178355875Y-56081373D01*
X178331677Y-56068160D01*
X178329728Y-56068299D01*
X178263824Y-56035346D01*
X178243648Y-56022380D01*
X178223213Y-56022380D01*
X178203098Y-56018760D01*
X178194370Y-56022380D01*
X177988730Y-56022380D01*
X177972423Y-56018226D01*
X177946285Y-56026938D01*
X177919843Y-56034703D01*
X177918563Y-56036179D01*
X177788069Y-56079679D01*
X177752151Y-56104641D01*
X177729703Y-56158907D01*
X177548157Y-56158907D01*
X177555541Y-56107548D01*
X177531146Y-56054129D01*
X177481743Y-56022380D01*
X176983344Y-56022380D01*
X176961358Y-56019219D01*
X176941154Y-56028445D01*
X176919843Y-56034703D01*
X176914860Y-56040453D01*
X176907939Y-56043614D01*
X176895930Y-56062299D01*
X176881386Y-56079085D01*
X176880303Y-56086616D01*
X176876190Y-56093017D01*
X176876190Y-56115226D01*
X176873029Y-56137212D01*
X176876190Y-56144134D01*
X176876190Y-56639036D01*
X176873029Y-56661022D01*
X176876190Y-56667944D01*
X176876190Y-57115226D01*
X176873029Y-57137212D01*
X176532066Y-57137212D01*
X176541988Y-57127983D01*
X176542472Y-57126089D01*
X176561843Y-57106718D01*
X176576310Y-57098126D01*
X176588628Y-57073489D01*
X176601839Y-57049296D01*
X176601699Y-57047347D01*
X176634652Y-56981442D01*
X176647618Y-56961267D01*
X176647618Y-56940832D01*
X176651238Y-56920716D01*
X176647618Y-56911988D01*
X176647618Y-56794431D01*
X176650192Y-56770588D01*
X176641053Y-56752310D01*
X176635295Y-56732700D01*
X176628153Y-56726512D01*
X176595048Y-56660301D01*
X176591472Y-56643861D01*
X176571997Y-56624386D01*
X176553221Y-56604200D01*
X176551326Y-56603715D01*
X176531956Y-56584345D01*
X176523364Y-56569879D01*
X176498729Y-56557561D01*
X176474534Y-56544350D01*
X176472584Y-56544489D01*
X176406683Y-56511538D01*
X176400192Y-56507367D01*
X176637787Y-56167946D01*
X176651759Y-56126498D01*
X176637453Y-56069541D01*
X176594626Y-56029361D01*
X176536874Y-56018713D01*
X176482533Y-56040979D01*
X176162220Y-56498571D01*
X176076190Y-56498571D01*
X176076190Y-56108001D01*
X176063867Y-56066033D01*
X176019485Y-56027576D01*
X175961358Y-56019219D01*
X175907939Y-56043614D01*
X175876190Y-56093017D01*
X175876190Y-56591417D01*
X175873029Y-56613403D01*
X175876190Y-56620325D01*
X175876190Y-57115226D01*
X175873029Y-57137212D01*
X175145238Y-57137212D01*
X175145238Y-55557143D01*
X180854762Y-55557143D01*
X180854762Y-57942857D01*
G37*
D13*
G36*
X179646001Y-123915066D02*
G01*
X179395896Y-123915066D01*
X179395896Y-125054459D01*
X179646001Y-125054459D01*
X179646001Y-123915066D01*
G37*
D11*
G36*
X101967906Y-116165518D02*
G01*
X101992576Y-116190188D01*
X102022380Y-116249796D01*
X102022380Y-116507142D01*
X101698571Y-116507142D01*
X101698571Y-116378192D01*
X101702238Y-116358303D01*
X101698571Y-116349354D01*
X101698571Y-116249796D01*
X101728375Y-116190187D01*
X101753045Y-116165518D01*
X101812653Y-116135714D01*
X101908298Y-116135714D01*
X101967906Y-116165518D01*
G37*
G36*
X101967906Y-115165518D02*
G01*
X101992576Y-115190188D01*
X102022380Y-115249796D01*
X102022380Y-115507142D01*
X101698571Y-115507142D01*
X101698571Y-115378192D01*
X101702238Y-115358303D01*
X101698571Y-115349354D01*
X101698571Y-115249796D01*
X101728375Y-115190187D01*
X101753045Y-115165518D01*
X101812653Y-115135714D01*
X101908298Y-115135714D01*
X101967906Y-115165518D01*
G37*
G36*
X102942857Y-118192857D02*
G01*
X100557143Y-118192857D01*
X100557143Y-117526736D01*
X101019219Y-117526736D01*
X101028445Y-117546939D01*
X101034703Y-117568251D01*
X101040453Y-117573233D01*
X101043614Y-117580155D01*
X101062299Y-117592163D01*
X101079085Y-117606708D01*
X101086616Y-117607790D01*
X101093017Y-117611904D01*
X101115226Y-117611904D01*
X101137212Y-117615065D01*
X101144134Y-117611904D01*
X101639036Y-117611904D01*
X101661022Y-117615065D01*
X101667944Y-117611904D01*
X102115226Y-117611904D01*
X102137212Y-117615065D01*
X102157415Y-117605838D01*
X102178727Y-117599581D01*
X102183709Y-117593830D01*
X102190631Y-117590670D01*
X102202639Y-117571984D01*
X102217184Y-117555199D01*
X102218266Y-117547667D01*
X102222380Y-117541267D01*
X102222380Y-117519058D01*
X102225541Y-117497072D01*
X102222380Y-117490150D01*
X102222380Y-117021335D01*
X102210057Y-116979367D01*
X102165675Y-116940910D01*
X102107548Y-116932553D01*
X102054129Y-116956948D01*
X102022380Y-117006351D01*
X102022380Y-117411904D01*
X101746190Y-117411904D01*
X101746190Y-117164192D01*
X101733867Y-117122224D01*
X101689485Y-117083767D01*
X101631358Y-117075410D01*
X101577939Y-117099805D01*
X101546190Y-117149208D01*
X101546190Y-117411904D01*
X101222380Y-117411904D01*
X101222380Y-117021335D01*
X101210057Y-116979367D01*
X101165675Y-116940910D01*
X101107548Y-116932553D01*
X101054129Y-116956948D01*
X101022380Y-117006351D01*
X101022380Y-117504750D01*
X101019219Y-117526736D01*
X100557143Y-117526736D01*
X100557143Y-116046458D01*
X101018713Y-116046458D01*
X101040979Y-116100799D01*
X101498571Y-116421112D01*
X101498571Y-116507142D01*
X101108001Y-116507142D01*
X101066033Y-116519465D01*
X101027576Y-116563847D01*
X101019219Y-116621974D01*
X101043614Y-116675393D01*
X101093017Y-116707142D01*
X101591417Y-116707142D01*
X101613403Y-116710303D01*
X101620325Y-116707142D01*
X102115226Y-116707142D01*
X102137212Y-116710303D01*
X102157415Y-116701076D01*
X102178727Y-116694819D01*
X102183709Y-116689068D01*
X102190631Y-116685908D01*
X102202639Y-116667222D01*
X102217184Y-116650437D01*
X102218266Y-116642905D01*
X102222380Y-116636505D01*
X102222380Y-116614296D01*
X102225541Y-116592310D01*
X102222380Y-116585388D01*
X102222380Y-116231574D01*
X102224954Y-116207731D01*
X102215815Y-116189453D01*
X102210057Y-116169843D01*
X102202915Y-116163655D01*
X102169810Y-116097444D01*
X102166234Y-116081004D01*
X102146759Y-116061529D01*
X102127983Y-116041343D01*
X102126088Y-116040858D01*
X102106718Y-116021488D01*
X102098126Y-116007022D01*
X102073491Y-115994704D01*
X102049296Y-115981493D01*
X102047346Y-115981632D01*
X101981445Y-115948681D01*
X101961267Y-115935714D01*
X101940831Y-115935714D01*
X101920716Y-115932094D01*
X101911988Y-115935714D01*
X101794431Y-115935714D01*
X101770588Y-115933140D01*
X101752310Y-115942278D01*
X101732700Y-115948037D01*
X101726512Y-115955178D01*
X101660301Y-115988283D01*
X101643861Y-115991860D01*
X101624386Y-116011334D01*
X101604200Y-116030111D01*
X101603715Y-116032005D01*
X101584345Y-116051375D01*
X101569879Y-116059968D01*
X101557561Y-116084602D01*
X101544350Y-116108798D01*
X101544489Y-116110747D01*
X101511538Y-116176648D01*
X101507367Y-116183139D01*
X101167946Y-115945545D01*
X101126498Y-115931573D01*
X101069542Y-115945879D01*
X101029362Y-115988706D01*
X101018713Y-116046458D01*
X100557143Y-116046458D01*
X100557143Y-115046458D01*
X101018713Y-115046458D01*
X101040979Y-115100799D01*
X101498571Y-115421112D01*
X101498571Y-115507142D01*
X101108001Y-115507142D01*
X101066033Y-115519465D01*
X101027576Y-115563847D01*
X101019219Y-115621974D01*
X101043614Y-115675393D01*
X101093017Y-115707142D01*
X101591417Y-115707142D01*
X101613403Y-115710303D01*
X101620325Y-115707142D01*
X102115226Y-115707142D01*
X102137212Y-115710303D01*
X102157415Y-115701076D01*
X102178727Y-115694819D01*
X102183709Y-115689068D01*
X102190631Y-115685908D01*
X102202639Y-115667222D01*
X102217184Y-115650437D01*
X102218266Y-115642905D01*
X102222380Y-115636505D01*
X102222380Y-115614296D01*
X102225541Y-115592310D01*
X102222380Y-115585388D01*
X102222380Y-115231574D01*
X102224954Y-115207731D01*
X102215815Y-115189453D01*
X102210057Y-115169843D01*
X102202915Y-115163655D01*
X102169810Y-115097444D01*
X102166234Y-115081004D01*
X102146759Y-115061529D01*
X102127983Y-115041343D01*
X102126088Y-115040858D01*
X102106718Y-115021488D01*
X102098126Y-115007022D01*
X102073491Y-114994704D01*
X102049296Y-114981493D01*
X102047346Y-114981632D01*
X101981445Y-114948681D01*
X101961267Y-114935714D01*
X101940831Y-114935714D01*
X101920716Y-114932094D01*
X101911988Y-114935714D01*
X101794431Y-114935714D01*
X101770588Y-114933140D01*
X101752310Y-114942278D01*
X101732700Y-114948037D01*
X101726512Y-114955178D01*
X101660301Y-114988283D01*
X101643861Y-114991860D01*
X101624386Y-115011334D01*
X101604200Y-115030111D01*
X101603715Y-115032005D01*
X101584345Y-115051375D01*
X101569879Y-115059968D01*
X101557561Y-115084602D01*
X101544350Y-115108798D01*
X101544489Y-115110747D01*
X101511538Y-115176648D01*
X101507367Y-115183139D01*
X101167946Y-114945545D01*
X101126498Y-114931573D01*
X101069542Y-114945879D01*
X101029362Y-114988706D01*
X101018713Y-115046458D01*
X100557143Y-115046458D01*
X100557143Y-114102381D01*
X102942857Y-114102381D01*
X102942857Y-118192857D01*
G37*
X159285714Y-132103809D02*
X159619047Y-132103809D01*
X159619047Y-132627619D02*
X159619047Y-131627619D01*
X159619047Y-131627619D02*
X159142857Y-131627619D01*
X158761904Y-132627619D02*
X158761904Y-131627619D01*
X158761904Y-131627619D02*
X158523809Y-131627619D01*
X158523809Y-131627619D02*
X158380952Y-131675238D01*
X158380952Y-131675238D02*
X158285714Y-131770476D01*
X158285714Y-131770476D02*
X158238095Y-131865714D01*
X158238095Y-131865714D02*
X158190476Y-132056190D01*
X158190476Y-132056190D02*
X158190476Y-132199047D01*
X158190476Y-132199047D02*
X158238095Y-132389523D01*
X158238095Y-132389523D02*
X158285714Y-132484761D01*
X158285714Y-132484761D02*
X158380952Y-132580000D01*
X158380952Y-132580000D02*
X158523809Y-132627619D01*
X158523809Y-132627619D02*
X158761904Y-132627619D01*
X157761904Y-132246666D02*
X157000000Y-132246666D01*
X155952381Y-132532380D02*
X156000000Y-132580000D01*
X156000000Y-132580000D02*
X156142857Y-132627619D01*
X156142857Y-132627619D02*
X156238095Y-132627619D01*
X156238095Y-132627619D02*
X156380952Y-132580000D01*
X156380952Y-132580000D02*
X156476190Y-132484761D01*
X156476190Y-132484761D02*
X156523809Y-132389523D01*
X156523809Y-132389523D02*
X156571428Y-132199047D01*
X156571428Y-132199047D02*
X156571428Y-132056190D01*
X156571428Y-132056190D02*
X156523809Y-131865714D01*
X156523809Y-131865714D02*
X156476190Y-131770476D01*
X156476190Y-131770476D02*
X156380952Y-131675238D01*
X156380952Y-131675238D02*
X156238095Y-131627619D01*
X156238095Y-131627619D02*
X156142857Y-131627619D01*
X156142857Y-131627619D02*
X156000000Y-131675238D01*
X156000000Y-131675238D02*
X155952381Y-131722857D01*
X155571428Y-132341904D02*
X155095238Y-132341904D01*
X155666666Y-132627619D02*
X155333333Y-131627619D01*
X155333333Y-131627619D02*
X155000000Y-132627619D01*
X154666666Y-132627619D02*
X154666666Y-131627619D01*
X154666666Y-131627619D02*
X154095238Y-132627619D01*
X154095238Y-132627619D02*
X154095238Y-131627619D01*
X152904761Y-131722857D02*
X152857142Y-131675238D01*
X152857142Y-131675238D02*
X152761904Y-131627619D01*
X152761904Y-131627619D02*
X152523809Y-131627619D01*
X152523809Y-131627619D02*
X152428571Y-131675238D01*
X152428571Y-131675238D02*
X152380952Y-131722857D01*
X152380952Y-131722857D02*
X152333333Y-131818095D01*
X152333333Y-131818095D02*
X152333333Y-131913333D01*
X152333333Y-131913333D02*
X152380952Y-132056190D01*
X152380952Y-132056190D02*
X152952380Y-132627619D01*
X152952380Y-132627619D02*
X152333333Y-132627619D01*
G36*
X101806151Y-120807141D02*
G01*
X101508095Y-120906494D01*
X101508095Y-120707790D01*
X101806151Y-120807141D01*
G37*
G36*
X102942857Y-123392857D02*
G01*
X100557143Y-123392857D01*
X100557143Y-122620433D01*
X101018226Y-122620433D01*
X101026939Y-122646571D01*
X101034703Y-122673013D01*
X101036179Y-122674292D01*
X101079679Y-122804788D01*
X101104641Y-122840705D01*
X101158907Y-122863153D01*
X101216694Y-122852700D01*
X101259657Y-122812664D01*
X101274154Y-122755756D01*
X101222380Y-122600438D01*
X101222380Y-122402179D01*
X101252185Y-122342568D01*
X101276855Y-122317899D01*
X101336463Y-122288095D01*
X101384489Y-122288095D01*
X101444097Y-122317899D01*
X101468767Y-122342569D01*
X101504218Y-122413472D01*
X101544855Y-122576020D01*
X101543616Y-122587505D01*
X101551837Y-122603948D01*
X101552663Y-122607250D01*
X101558248Y-122616770D01*
X101598758Y-122697790D01*
X101602336Y-122714233D01*
X101621815Y-122733712D01*
X101640587Y-122753893D01*
X101642480Y-122754377D01*
X101661851Y-122773748D01*
X101670444Y-122788215D01*
X101695080Y-122800533D01*
X101719274Y-122813744D01*
X101721222Y-122813604D01*
X101787127Y-122846557D01*
X101807303Y-122859523D01*
X101827738Y-122859523D01*
X101847854Y-122863143D01*
X101856582Y-122859523D01*
X101926519Y-122859523D01*
X101950362Y-122862097D01*
X101968638Y-122852958D01*
X101988251Y-122847200D01*
X101994439Y-122840058D01*
X102060647Y-122806954D01*
X102077090Y-122803377D01*
X102096569Y-122783897D01*
X102116750Y-122765126D01*
X102117234Y-122763232D01*
X102136605Y-122743861D01*
X102151072Y-122735269D01*
X102163390Y-122710632D01*
X102176601Y-122686439D01*
X102176461Y-122684490D01*
X102209414Y-122618585D01*
X102222380Y-122598410D01*
X102222380Y-122577975D01*
X102226000Y-122557859D01*
X102222380Y-122549131D01*
X102222380Y-122343490D01*
X102226534Y-122327185D01*
X102217820Y-122301044D01*
X102210057Y-122274605D01*
X102208580Y-122273325D01*
X102165082Y-122142831D01*
X102140120Y-122106914D01*
X102085855Y-122084465D01*
X102028068Y-122094918D01*
X101985104Y-122134954D01*
X101970607Y-122191862D01*
X102022380Y-122347178D01*
X102022380Y-122545441D01*
X101992576Y-122605049D01*
X101967906Y-122629718D01*
X101908298Y-122659523D01*
X101860272Y-122659523D01*
X101800664Y-122629719D01*
X101775994Y-122605049D01*
X101740542Y-122534145D01*
X101699905Y-122371596D01*
X101701145Y-122360112D01*
X101692923Y-122343668D01*
X101692098Y-122340368D01*
X101686514Y-122330851D01*
X101646001Y-122249825D01*
X101642425Y-122233385D01*
X101622950Y-122213910D01*
X101604174Y-122193724D01*
X101602279Y-122193239D01*
X101582909Y-122173869D01*
X101574317Y-122159403D01*
X101549682Y-122147085D01*
X101525487Y-122133874D01*
X101523537Y-122134013D01*
X101457636Y-122101062D01*
X101437458Y-122088095D01*
X101417022Y-122088095D01*
X101396907Y-122084475D01*
X101388179Y-122088095D01*
X101318241Y-122088095D01*
X101294398Y-122085521D01*
X101276120Y-122094659D01*
X101256510Y-122100418D01*
X101250322Y-122107559D01*
X101184111Y-122140664D01*
X101167671Y-122144241D01*
X101148196Y-122163715D01*
X101128010Y-122182492D01*
X101127525Y-122184386D01*
X101108156Y-122203755D01*
X101093690Y-122212348D01*
X101081373Y-122236980D01*
X101068160Y-122261179D01*
X101068299Y-122263127D01*
X101035346Y-122329031D01*
X101022380Y-122349208D01*
X101022380Y-122369643D01*
X101018760Y-122389758D01*
X101022380Y-122398486D01*
X101022380Y-122604126D01*
X101018226Y-122620433D01*
X100557143Y-122620433D01*
X100557143Y-121631498D01*
X101019219Y-121631498D01*
X101043614Y-121684917D01*
X101093017Y-121716666D01*
X102022380Y-121716666D01*
X102022380Y-121916759D01*
X102034703Y-121958727D01*
X102079085Y-121997184D01*
X102137212Y-122005541D01*
X102190631Y-121981146D01*
X102222380Y-121931743D01*
X102222380Y-121623820D01*
X102225541Y-121601834D01*
X102222380Y-121594912D01*
X102222380Y-121316573D01*
X102210057Y-121274605D01*
X102165675Y-121236148D01*
X102107548Y-121227791D01*
X102054129Y-121252186D01*
X102022380Y-121301589D01*
X102022380Y-121516666D01*
X101108001Y-121516666D01*
X101066033Y-121528989D01*
X101027576Y-121573371D01*
X101019219Y-121631498D01*
X100557143Y-121631498D01*
X100557143Y-121129381D01*
X101018750Y-121129381D01*
X101029203Y-121187168D01*
X101069239Y-121230132D01*
X101126147Y-121244629D01*
X101417276Y-121147585D01*
X101422927Y-121148398D01*
X101444784Y-121138416D01*
X102136840Y-120907730D01*
X102148109Y-120908138D01*
X102164160Y-120898623D01*
X102167643Y-120897463D01*
X102176475Y-120891324D01*
X102198627Y-120878195D01*
X102200368Y-120874719D01*
X102203561Y-120872501D01*
X102213405Y-120848704D01*
X102224937Y-120825693D01*
X102224523Y-120821829D01*
X102226010Y-120818236D01*
X102221426Y-120792898D01*
X102218686Y-120767301D01*
X102216247Y-120764272D01*
X102215556Y-120760449D01*
X102198009Y-120741619D01*
X102181859Y-120721559D01*
X102178170Y-120720329D01*
X102175521Y-120717486D01*
X102150570Y-120711129D01*
X101458567Y-120480462D01*
X101451390Y-120474243D01*
X101431202Y-120471340D01*
X101140362Y-120374394D01*
X101096650Y-120372813D01*
X101046132Y-120402756D01*
X101019823Y-120455258D01*
X101026073Y-120513650D01*
X101062901Y-120559392D01*
X101308095Y-120641123D01*
X101308095Y-120973161D01*
X101077116Y-121050154D01*
X101041199Y-121075116D01*
X101018750Y-121129381D01*
X100557143Y-121129381D01*
X100557143Y-120012450D01*
X101019219Y-120012450D01*
X101043614Y-120065869D01*
X101093017Y-120097618D01*
X102022380Y-120097618D01*
X102022380Y-120297711D01*
X102034703Y-120339679D01*
X102079085Y-120378136D01*
X102137212Y-120386493D01*
X102190631Y-120362098D01*
X102222380Y-120312695D01*
X102222380Y-120004772D01*
X102225541Y-119982786D01*
X102222380Y-119975864D01*
X102222380Y-119697525D01*
X102210057Y-119655557D01*
X102165675Y-119617100D01*
X102107548Y-119608743D01*
X102054129Y-119633138D01*
X102022380Y-119682541D01*
X102022380Y-119897618D01*
X101108001Y-119897618D01*
X101066033Y-119909941D01*
X101027576Y-119954323D01*
X101019219Y-120012450D01*
X100557143Y-120012450D01*
X100557143Y-118873809D01*
X102942857Y-118873809D01*
X102942857Y-123392857D01*
G37*
X177690476Y-135127619D02*
X178166666Y-135127619D01*
X178166666Y-135127619D02*
X178166666Y-134127619D01*
X168285713Y-135127619D02*
X168285713Y-134127619D01*
X168285713Y-134603809D02*
X167714285Y-134603809D01*
X167714285Y-135127619D02*
X167714285Y-134127619D01*
X143690476Y-135127619D02*
X144166666Y-135127619D01*
X144166666Y-135127619D02*
X144166666Y-134127619D01*
X156761904Y-134175238D02*
X156857142Y-134127619D01*
X156857142Y-134127619D02*
X156999999Y-134127619D01*
X156999999Y-134127619D02*
X157142856Y-134175238D01*
X157142856Y-134175238D02*
X157238094Y-134270476D01*
X157238094Y-134270476D02*
X157285713Y-134365714D01*
X157285713Y-134365714D02*
X157333332Y-134556190D01*
X157333332Y-134556190D02*
X157333332Y-134699047D01*
X157333332Y-134699047D02*
X157285713Y-134889523D01*
X157285713Y-134889523D02*
X157238094Y-134984761D01*
X157238094Y-134984761D02*
X157142856Y-135080000D01*
X157142856Y-135080000D02*
X156999999Y-135127619D01*
X156999999Y-135127619D02*
X156904761Y-135127619D01*
X156904761Y-135127619D02*
X156761904Y-135080000D01*
X156761904Y-135080000D02*
X156714285Y-135032380D01*
X156714285Y-135032380D02*
X156714285Y-134699047D01*
X156714285Y-134699047D02*
X156904761Y-134699047D01*
X156285713Y-135127619D02*
X156285713Y-134127619D01*
X156285713Y-134127619D02*
X155714285Y-135127619D01*
X155714285Y-135127619D02*
X155714285Y-134127619D01*
X155238094Y-135127619D02*
X155238094Y-134127619D01*
X155238094Y-134127619D02*
X154999999Y-134127619D01*
X154999999Y-134127619D02*
X154857142Y-134175238D01*
X154857142Y-134175238D02*
X154761904Y-134270476D01*
X154761904Y-134270476D02*
X154714285Y-134365714D01*
X154714285Y-134365714D02*
X154666666Y-134556190D01*
X154666666Y-134556190D02*
X154666666Y-134699047D01*
X154666666Y-134699047D02*
X154714285Y-134889523D01*
X154714285Y-134889523D02*
X154761904Y-134984761D01*
X154761904Y-134984761D02*
X154857142Y-135080000D01*
X154857142Y-135080000D02*
X154999999Y-135127619D01*
X154999999Y-135127619D02*
X155238094Y-135127619D01*
X134285713Y-135127619D02*
X134285713Y-134127619D01*
X134285713Y-134603809D02*
X133714285Y-134603809D01*
X133714285Y-135127619D02*
X133714285Y-134127619D01*
X142285714Y-132103809D02*
X142619047Y-132103809D01*
X142619047Y-132627619D02*
X142619047Y-131627619D01*
X142619047Y-131627619D02*
X142142857Y-131627619D01*
X141761904Y-132627619D02*
X141761904Y-131627619D01*
X141761904Y-131627619D02*
X141523809Y-131627619D01*
X141523809Y-131627619D02*
X141380952Y-131675238D01*
X141380952Y-131675238D02*
X141285714Y-131770476D01*
X141285714Y-131770476D02*
X141238095Y-131865714D01*
X141238095Y-131865714D02*
X141190476Y-132056190D01*
X141190476Y-132056190D02*
X141190476Y-132199047D01*
X141190476Y-132199047D02*
X141238095Y-132389523D01*
X141238095Y-132389523D02*
X141285714Y-132484761D01*
X141285714Y-132484761D02*
X141380952Y-132580000D01*
X141380952Y-132580000D02*
X141523809Y-132627619D01*
X141523809Y-132627619D02*
X141761904Y-132627619D01*
X140761904Y-132246666D02*
X140000000Y-132246666D01*
X138952381Y-132532380D02*
X139000000Y-132580000D01*
X139000000Y-132580000D02*
X139142857Y-132627619D01*
X139142857Y-132627619D02*
X139238095Y-132627619D01*
X139238095Y-132627619D02*
X139380952Y-132580000D01*
X139380952Y-132580000D02*
X139476190Y-132484761D01*
X139476190Y-132484761D02*
X139523809Y-132389523D01*
X139523809Y-132389523D02*
X139571428Y-132199047D01*
X139571428Y-132199047D02*
X139571428Y-132056190D01*
X139571428Y-132056190D02*
X139523809Y-131865714D01*
X139523809Y-131865714D02*
X139476190Y-131770476D01*
X139476190Y-131770476D02*
X139380952Y-131675238D01*
X139380952Y-131675238D02*
X139238095Y-131627619D01*
X139238095Y-131627619D02*
X139142857Y-131627619D01*
X139142857Y-131627619D02*
X139000000Y-131675238D01*
X139000000Y-131675238D02*
X138952381Y-131722857D01*
X138571428Y-132341904D02*
X138095238Y-132341904D01*
X138666666Y-132627619D02*
X138333333Y-131627619D01*
X138333333Y-131627619D02*
X138000000Y-132627619D01*
X137666666Y-132627619D02*
X137666666Y-131627619D01*
X137666666Y-131627619D02*
X137095238Y-132627619D01*
X137095238Y-132627619D02*
X137095238Y-131627619D01*
X135333333Y-132627619D02*
X135904761Y-132627619D01*
X135619047Y-132627619D02*
X135619047Y-131627619D01*
X135619047Y-131627619D02*
X135714285Y-131770476D01*
X135714285Y-131770476D02*
X135809523Y-131865714D01*
X135809523Y-131865714D02*
X135904761Y-131913333D01*
X176285714Y-132103809D02*
X176619047Y-132103809D01*
X176619047Y-132627619D02*
X176619047Y-131627619D01*
X176619047Y-131627619D02*
X176142857Y-131627619D01*
X175761904Y-132627619D02*
X175761904Y-131627619D01*
X175761904Y-131627619D02*
X175523809Y-131627619D01*
X175523809Y-131627619D02*
X175380952Y-131675238D01*
X175380952Y-131675238D02*
X175285714Y-131770476D01*
X175285714Y-131770476D02*
X175238095Y-131865714D01*
X175238095Y-131865714D02*
X175190476Y-132056190D01*
X175190476Y-132056190D02*
X175190476Y-132199047D01*
X175190476Y-132199047D02*
X175238095Y-132389523D01*
X175238095Y-132389523D02*
X175285714Y-132484761D01*
X175285714Y-132484761D02*
X175380952Y-132580000D01*
X175380952Y-132580000D02*
X175523809Y-132627619D01*
X175523809Y-132627619D02*
X175761904Y-132627619D01*
X174761904Y-132246666D02*
X174000000Y-132246666D01*
X172952381Y-132532380D02*
X173000000Y-132580000D01*
X173000000Y-132580000D02*
X173142857Y-132627619D01*
X173142857Y-132627619D02*
X173238095Y-132627619D01*
X173238095Y-132627619D02*
X173380952Y-132580000D01*
X173380952Y-132580000D02*
X173476190Y-132484761D01*
X173476190Y-132484761D02*
X173523809Y-132389523D01*
X173523809Y-132389523D02*
X173571428Y-132199047D01*
X173571428Y-132199047D02*
X173571428Y-132056190D01*
X173571428Y-132056190D02*
X173523809Y-131865714D01*
X173523809Y-131865714D02*
X173476190Y-131770476D01*
X173476190Y-131770476D02*
X173380952Y-131675238D01*
X173380952Y-131675238D02*
X173238095Y-131627619D01*
X173238095Y-131627619D02*
X173142857Y-131627619D01*
X173142857Y-131627619D02*
X173000000Y-131675238D01*
X173000000Y-131675238D02*
X172952381Y-131722857D01*
X172571428Y-132341904D02*
X172095238Y-132341904D01*
X172666666Y-132627619D02*
X172333333Y-131627619D01*
X172333333Y-131627619D02*
X172000000Y-132627619D01*
X171666666Y-132627619D02*
X171666666Y-131627619D01*
X171666666Y-131627619D02*
X171095238Y-132627619D01*
X171095238Y-132627619D02*
X171095238Y-131627619D01*
X169952380Y-131627619D02*
X169333333Y-131627619D01*
X169333333Y-131627619D02*
X169666666Y-132008571D01*
X169666666Y-132008571D02*
X169523809Y-132008571D01*
X169523809Y-132008571D02*
X169428571Y-132056190D01*
X169428571Y-132056190D02*
X169380952Y-132103809D01*
X169380952Y-132103809D02*
X169333333Y-132199047D01*
X169333333Y-132199047D02*
X169333333Y-132437142D01*
X169333333Y-132437142D02*
X169380952Y-132532380D01*
X169380952Y-132532380D02*
X169428571Y-132580000D01*
X169428571Y-132580000D02*
X169523809Y-132627619D01*
X169523809Y-132627619D02*
X169809523Y-132627619D01*
X169809523Y-132627619D02*
X169904761Y-132580000D01*
X169904761Y-132580000D02*
X169952380Y-132532380D01*
%TO.C,G\u002A\u002A\u002A*%
G36*
X187703081Y-129401620D02*
G01*
X187751237Y-129402290D01*
X187791244Y-129403763D01*
X187819183Y-129405849D01*
X187831136Y-129408356D01*
X187832569Y-129418806D01*
X187833806Y-129447013D01*
X187834764Y-129490658D01*
X187835416Y-129547467D01*
X187835737Y-129615164D01*
X187835702Y-129691476D01*
X187835283Y-129774128D01*
X187832672Y-130133143D01*
X187704672Y-130135937D01*
X187673044Y-130136428D01*
X187617022Y-130135784D01*
X187580376Y-130132731D01*
X187562842Y-130127253D01*
X187562632Y-130127072D01*
X187558850Y-130120425D01*
X187555807Y-130106767D01*
X187553430Y-130084255D01*
X187551647Y-130051049D01*
X187550386Y-130005305D01*
X187549575Y-129945181D01*
X187549141Y-129868838D01*
X187549013Y-129774431D01*
X187549115Y-129711646D01*
X187549532Y-129634990D01*
X187550233Y-129566153D01*
X187551176Y-129507552D01*
X187552322Y-129461606D01*
X187553628Y-129430730D01*
X187555054Y-129417342D01*
X187555662Y-129415971D01*
X187562008Y-129409846D01*
X187575768Y-129405702D01*
X187600061Y-129403185D01*
X187638011Y-129401936D01*
X187692737Y-129401599D01*
X187703081Y-129401620D01*
G37*
G36*
X187703081Y-130884613D02*
G01*
X187751237Y-130885283D01*
X187791244Y-130886757D01*
X187819183Y-130888843D01*
X187831136Y-130891350D01*
X187832569Y-130901800D01*
X187833806Y-130930007D01*
X187834764Y-130973652D01*
X187835416Y-131030461D01*
X187835737Y-131098158D01*
X187835702Y-131174470D01*
X187835283Y-131257122D01*
X187832672Y-131616136D01*
X187704672Y-131618930D01*
X187673044Y-131619422D01*
X187617022Y-131618778D01*
X187580376Y-131615725D01*
X187562842Y-131610247D01*
X187562632Y-131610066D01*
X187558850Y-131603419D01*
X187555807Y-131589761D01*
X187553430Y-131567249D01*
X187551647Y-131534042D01*
X187550386Y-131488298D01*
X187549575Y-131428175D01*
X187549141Y-131351831D01*
X187549013Y-131257425D01*
X187549115Y-131194640D01*
X187549532Y-131117984D01*
X187550233Y-131049147D01*
X187551176Y-130990546D01*
X187552322Y-130944599D01*
X187553628Y-130913723D01*
X187555054Y-130900336D01*
X187555662Y-130898965D01*
X187562008Y-130892839D01*
X187575768Y-130888696D01*
X187600061Y-130886178D01*
X187638011Y-130884930D01*
X187692737Y-130884593D01*
X187703081Y-130884613D01*
G37*
G36*
X187753481Y-127919365D02*
G01*
X187791495Y-127920667D01*
X187818933Y-127922671D01*
X187831136Y-127925363D01*
X187832569Y-127935813D01*
X187833806Y-127964020D01*
X187834764Y-128007665D01*
X187835416Y-128064473D01*
X187835737Y-128132171D01*
X187835702Y-128208483D01*
X187835283Y-128291135D01*
X187832672Y-128650149D01*
X187704672Y-128652943D01*
X187673044Y-128653435D01*
X187617022Y-128652790D01*
X187580376Y-128649737D01*
X187562842Y-128644259D01*
X187562116Y-128643566D01*
X187558479Y-128636206D01*
X187555552Y-128621660D01*
X187553265Y-128598111D01*
X187551549Y-128563743D01*
X187550335Y-128516739D01*
X187549554Y-128455281D01*
X187549136Y-128377552D01*
X187549013Y-128281735D01*
X187549013Y-128279332D01*
X187549097Y-128186031D01*
X187549401Y-128110675D01*
X187550008Y-128051347D01*
X187551003Y-128006130D01*
X187552470Y-127973109D01*
X187554495Y-127950366D01*
X187557161Y-127935986D01*
X187560553Y-127928051D01*
X187564756Y-127924646D01*
X187567823Y-127923802D01*
X187588836Y-127921413D01*
X187622567Y-127919787D01*
X187664357Y-127918912D01*
X187709548Y-127918775D01*
X187753481Y-127919365D01*
G37*
G36*
X187192931Y-127920306D02*
G01*
X187223035Y-127921291D01*
X187237456Y-127922957D01*
X187238619Y-127924883D01*
X187240151Y-127933003D01*
X187241551Y-127948128D01*
X187242824Y-127971018D01*
X187243975Y-128002430D01*
X187245010Y-128043125D01*
X187245934Y-128093860D01*
X187246751Y-128155394D01*
X187247468Y-128228487D01*
X187248090Y-128313898D01*
X187248622Y-128412384D01*
X187249069Y-128524706D01*
X187249437Y-128651621D01*
X187249730Y-128793889D01*
X187249955Y-128952269D01*
X187250116Y-129127520D01*
X187250219Y-129320399D01*
X187250269Y-129531667D01*
X187250271Y-129762082D01*
X187250234Y-129906814D01*
X187250111Y-130092596D01*
X187249909Y-130272341D01*
X187249631Y-130445059D01*
X187249283Y-130609760D01*
X187248868Y-130765453D01*
X187248390Y-130911146D01*
X187247856Y-131045850D01*
X187247268Y-131168574D01*
X187246631Y-131278327D01*
X187245950Y-131374118D01*
X187245229Y-131454957D01*
X187244472Y-131519852D01*
X187243684Y-131567814D01*
X187242870Y-131597851D01*
X187242033Y-131608973D01*
X187239448Y-131611529D01*
X187225869Y-131616087D01*
X187199797Y-131618725D01*
X187158777Y-131619613D01*
X187100355Y-131618926D01*
X186966763Y-131616136D01*
X186966763Y-129769859D01*
X186966763Y-127923582D01*
X187095626Y-127920781D01*
X187102530Y-127920639D01*
X187151358Y-127920067D01*
X187192931Y-127920306D01*
G37*
G36*
X161809912Y-107405247D02*
G01*
X161809912Y-113551603D01*
X160699125Y-113551603D01*
X159588338Y-113551603D01*
X159588338Y-107405247D01*
X159588338Y-101258892D01*
X160699125Y-101258892D01*
X161809912Y-101258892D01*
X161809912Y-107405247D01*
G37*
G36*
X141223269Y-92425107D02*
G01*
X141384676Y-92619010D01*
X141445481Y-92897064D01*
X141444165Y-92955500D01*
X141394684Y-93168472D01*
X141250363Y-93329902D01*
X141003217Y-93460189D01*
X140752124Y-93454301D01*
X140516459Y-93301616D01*
X140366395Y-93077550D01*
X140332256Y-92821603D01*
X140426290Y-92585187D01*
X140643578Y-92403066D01*
X140724681Y-92367402D01*
X140992767Y-92334768D01*
X141223269Y-92425107D01*
G37*
G36*
X149817202Y-92303472D02*
G01*
X150063814Y-92396797D01*
X150235564Y-92580313D01*
X150317290Y-92816981D01*
X150293828Y-93069762D01*
X150150013Y-93301616D01*
X149999264Y-93414156D01*
X149739358Y-93483381D01*
X149628801Y-93470935D01*
X149388288Y-93354031D01*
X149214073Y-93147112D01*
X149146939Y-92890962D01*
X149159386Y-92780404D01*
X149276289Y-92539892D01*
X149483208Y-92365676D01*
X149739358Y-92298542D01*
X149817202Y-92303472D01*
G37*
G36*
X138483382Y-92196978D02*
G01*
X138483382Y-94761303D01*
X137909475Y-94727603D01*
X137779277Y-94718466D01*
X137342491Y-94654668D01*
X137020401Y-94538865D01*
X136790311Y-94360057D01*
X136629527Y-94107246D01*
X136623731Y-94094406D01*
X136576586Y-93974673D01*
X136541296Y-93840527D01*
X136516184Y-93669688D01*
X136499572Y-93439875D01*
X136489783Y-93128807D01*
X136485140Y-92714206D01*
X136483965Y-92173791D01*
X136484479Y-91835656D01*
X136488372Y-91359863D01*
X136497326Y-90997626D01*
X136512803Y-90727129D01*
X136536265Y-90526555D01*
X136569173Y-90374089D01*
X136612989Y-90247914D01*
X136659523Y-90146793D01*
X136834828Y-89905486D01*
X137082084Y-89746636D01*
X137423812Y-89659329D01*
X137882531Y-89632653D01*
X138483382Y-89632653D01*
X138483382Y-92196978D01*
G37*
G36*
X152923804Y-89634805D02*
G01*
X153299770Y-89725909D01*
X153633069Y-89931704D01*
X153877568Y-90225372D01*
X153908917Y-90283621D01*
X153952658Y-90384927D01*
X153984892Y-90505836D01*
X154007360Y-90667766D01*
X154021803Y-90892133D01*
X154029964Y-91200352D01*
X154033583Y-91613840D01*
X154034402Y-92154013D01*
X154034402Y-92161300D01*
X154033897Y-92695745D01*
X154031044Y-93103987D01*
X154023830Y-93407671D01*
X154010238Y-93628439D01*
X153988254Y-93787933D01*
X153955862Y-93907796D01*
X153911048Y-94009670D01*
X153851797Y-94115198D01*
X153755713Y-94255059D01*
X153446234Y-94524511D01*
X153034694Y-94689351D01*
X152928634Y-94709944D01*
X152719971Y-94733683D01*
X152553353Y-94742274D01*
X152553353Y-92187463D01*
X152553353Y-89632653D01*
X152857993Y-89632653D01*
X152923804Y-89634805D01*
G37*
G36*
X146572262Y-115477008D02*
G01*
X147546289Y-115477281D01*
X148391303Y-115478013D01*
X149116788Y-115479430D01*
X149732228Y-115481757D01*
X150247107Y-115485222D01*
X150670909Y-115490050D01*
X151013118Y-115496468D01*
X151283217Y-115504702D01*
X151490691Y-115514977D01*
X151645024Y-115527521D01*
X151755700Y-115542560D01*
X151832201Y-115560319D01*
X151884014Y-115581025D01*
X151920621Y-115604905D01*
X151951506Y-115632184D01*
X152071426Y-115766549D01*
X152212334Y-116069803D01*
X152215267Y-116396975D01*
X152190627Y-116445226D01*
X152070911Y-116601928D01*
X151863234Y-116842714D01*
X151579296Y-117155781D01*
X151230793Y-117529326D01*
X150829426Y-117951546D01*
X150386892Y-118410639D01*
X149914891Y-118894801D01*
X149425120Y-119392230D01*
X148929278Y-119891122D01*
X148439063Y-120379674D01*
X147966175Y-120846084D01*
X147522311Y-121278549D01*
X147119171Y-121665265D01*
X146768453Y-121994430D01*
X146481855Y-122254240D01*
X146271075Y-122432893D01*
X146147813Y-122518586D01*
X146098176Y-122540084D01*
X145820682Y-122623577D01*
X145555393Y-122658019D01*
X145516189Y-122658188D01*
X145367404Y-122656962D01*
X145232376Y-122646714D01*
X145101183Y-122619517D01*
X144963905Y-122567442D01*
X144810619Y-122482562D01*
X144631405Y-122356950D01*
X144416343Y-122182678D01*
X144155510Y-121951818D01*
X143838987Y-121656443D01*
X143456851Y-121288625D01*
X142999183Y-120840437D01*
X142456060Y-120303951D01*
X141817563Y-119671240D01*
X141543919Y-119399838D01*
X141014685Y-118874081D01*
X140519164Y-118380699D01*
X140067585Y-117929942D01*
X139670177Y-117532061D01*
X139337171Y-117197308D01*
X139078795Y-116935932D01*
X138905279Y-116758184D01*
X138826853Y-116674316D01*
X138745782Y-116544944D01*
X138680662Y-116257099D01*
X138731328Y-115957652D01*
X138894427Y-115695204D01*
X139103511Y-115476967D01*
X145444206Y-115476967D01*
X145459739Y-115476967D01*
X146572262Y-115477008D01*
G37*
G36*
X143815160Y-107435583D02*
G01*
X143815160Y-113551603D01*
X143222740Y-113551603D01*
X142630321Y-113551603D01*
X142630321Y-107960641D01*
X142630321Y-102369679D01*
X141426968Y-102370286D01*
X140534929Y-102384908D01*
X139760106Y-102431139D01*
X139104984Y-102512657D01*
X138556595Y-102633144D01*
X138101966Y-102796281D01*
X137728129Y-103005751D01*
X137422112Y-103265235D01*
X137170945Y-103578415D01*
X137134327Y-103635041D01*
X136885202Y-104162389D01*
X136744674Y-104756131D01*
X136718118Y-105380130D01*
X136810911Y-105998250D01*
X136875298Y-106221733D01*
X137076443Y-106696026D01*
X137351751Y-107085585D01*
X137712331Y-107396879D01*
X138169287Y-107636374D01*
X138733726Y-107810536D01*
X139416755Y-107925832D01*
X140229479Y-107988728D01*
X141272078Y-108034693D01*
X139229771Y-110790900D01*
X137187463Y-113547106D01*
X136502478Y-113549355D01*
X136337213Y-113548671D01*
X136070207Y-113541428D01*
X135886103Y-113527985D01*
X135817493Y-113510205D01*
X135832170Y-113479752D01*
X135917006Y-113350163D01*
X136060514Y-113146775D01*
X136243294Y-112897503D01*
X136340988Y-112765353D01*
X136530548Y-112502839D01*
X136683038Y-112283767D01*
X136772240Y-112145416D01*
X136816026Y-112078359D01*
X136944201Y-111896672D01*
X137138424Y-111628786D01*
X137385125Y-111293234D01*
X137670736Y-110908552D01*
X137981690Y-110493273D01*
X138222869Y-110170463D01*
X138498670Y-109795684D01*
X138731036Y-109473512D01*
X138908393Y-109220255D01*
X139019167Y-109052216D01*
X139051784Y-108985700D01*
X139047198Y-108982478D01*
X138943126Y-108947919D01*
X138738370Y-108896940D01*
X138471780Y-108839344D01*
X138426944Y-108830044D01*
X137700525Y-108610165D01*
X137074777Y-108283228D01*
X136553741Y-107854318D01*
X136141457Y-107328523D01*
X135841966Y-106710930D01*
X135659308Y-106006627D01*
X135597524Y-105220699D01*
X135598549Y-105112883D01*
X135674548Y-104338533D01*
X135873873Y-103640884D01*
X136200423Y-103009698D01*
X136658093Y-102434741D01*
X136853398Y-102246245D01*
X137259225Y-101948175D01*
X137741540Y-101711089D01*
X138335277Y-101515849D01*
X138346750Y-101512741D01*
X138504416Y-101476035D01*
X138688231Y-101445989D01*
X138915617Y-101421646D01*
X139203996Y-101402046D01*
X139570790Y-101386232D01*
X140033422Y-101373246D01*
X140609314Y-101362129D01*
X141315889Y-101351923D01*
X143815160Y-101319564D01*
X143815160Y-107435583D01*
G37*
G36*
X152229231Y-101132464D02*
G01*
X152601218Y-101178997D01*
X152814511Y-101223691D01*
X153727319Y-101504053D01*
X154577997Y-101911569D01*
X155353899Y-102436581D01*
X156042376Y-103069427D01*
X156630782Y-103800450D01*
X157106468Y-104619988D01*
X157318183Y-105080817D01*
X157477828Y-105495417D01*
X157586575Y-105889482D01*
X157653452Y-106304987D01*
X157687490Y-106783909D01*
X157697720Y-107368221D01*
X157695837Y-107622860D01*
X157653825Y-108367032D01*
X157549253Y-109019364D01*
X157372129Y-109616321D01*
X157112462Y-110194372D01*
X156760262Y-110789983D01*
X156218512Y-111508089D01*
X155536144Y-112184365D01*
X154765431Y-112748733D01*
X153918247Y-113193874D01*
X153006469Y-113512472D01*
X152041973Y-113697210D01*
X151830291Y-113721909D01*
X151586693Y-113747496D01*
X151398740Y-113758031D01*
X151215675Y-113753636D01*
X150986739Y-113734434D01*
X150661173Y-113700547D01*
X150254860Y-113645050D01*
X149339528Y-113422212D01*
X148483346Y-113075073D01*
X147700170Y-112611248D01*
X147003856Y-112038348D01*
X146408262Y-111363987D01*
X146329187Y-111253108D01*
X146172566Y-111012036D01*
X146014653Y-110748034D01*
X145876184Y-110497725D01*
X145777895Y-110297731D01*
X145740525Y-110184677D01*
X145797976Y-110173169D01*
X145981616Y-110161983D01*
X146268654Y-110153122D01*
X146635595Y-110147290D01*
X147058943Y-110145189D01*
X148377361Y-110145189D01*
X148632558Y-110409734D01*
X148757749Y-110531546D01*
X149221123Y-110893586D01*
X149747896Y-111200837D01*
X150274016Y-111414110D01*
X150601470Y-111491033D01*
X151169789Y-111549325D01*
X151767799Y-111536675D01*
X152341108Y-111455345D01*
X152835321Y-111307596D01*
X153079038Y-111198562D01*
X153758923Y-110791433D01*
X154341787Y-110278453D01*
X154817997Y-109671164D01*
X155177923Y-108981107D01*
X155411934Y-108219825D01*
X155464313Y-107910589D01*
X155491173Y-107182712D01*
X155392412Y-106461596D01*
X155177469Y-105767956D01*
X154855784Y-105122508D01*
X154436794Y-104545967D01*
X153929937Y-104059051D01*
X153344653Y-103682474D01*
X152909618Y-103495423D01*
X152207167Y-103316916D01*
X151430652Y-103258309D01*
X150783037Y-103288471D01*
X150183161Y-103396240D01*
X149651338Y-103594519D01*
X149154100Y-103896045D01*
X148657979Y-104313556D01*
X148130026Y-104813411D01*
X146935275Y-104813411D01*
X146871538Y-104813349D01*
X146384031Y-104807571D01*
X146029777Y-104792612D01*
X145813650Y-104768786D01*
X145740525Y-104736408D01*
X145754023Y-104668021D01*
X145836595Y-104471050D01*
X145979436Y-104203386D01*
X146165323Y-103896287D01*
X146377038Y-103581013D01*
X146470968Y-103453139D01*
X147029118Y-102833339D01*
X147697733Y-102285415D01*
X148454118Y-101823638D01*
X149275577Y-101462276D01*
X150139413Y-101215598D01*
X150319341Y-101183888D01*
X150756371Y-101136940D01*
X151254941Y-101112206D01*
X151763183Y-101110457D01*
X152229231Y-101132464D01*
G37*
G36*
X131334866Y-101129643D02*
G01*
X132038355Y-101255080D01*
X132655341Y-101500580D01*
X133186600Y-101866607D01*
X133632906Y-102353625D01*
X133995035Y-102962099D01*
X134056990Y-103093967D01*
X134135423Y-103283870D01*
X134184795Y-103462889D01*
X134211788Y-103670767D01*
X134223084Y-103947246D01*
X134225364Y-104332070D01*
X134224606Y-104601138D01*
X134217438Y-104907590D01*
X134196925Y-105131946D01*
X134156195Y-105313826D01*
X134088377Y-105492851D01*
X133986597Y-105708640D01*
X133892027Y-105883865D01*
X133561295Y-106341586D01*
X133155618Y-106738152D01*
X132716659Y-107030205D01*
X132642492Y-107064750D01*
X132406080Y-107161122D01*
X132078306Y-107284398D01*
X131692160Y-107422345D01*
X131280631Y-107562729D01*
X130895786Y-107692936D01*
X130307896Y-107904921D01*
X129836617Y-108098066D01*
X129464428Y-108282781D01*
X129173808Y-108469472D01*
X128947237Y-108668548D01*
X128767195Y-108890415D01*
X128616160Y-109145481D01*
X128554641Y-109293137D01*
X128468285Y-109652418D01*
X128424294Y-110070863D01*
X128427020Y-110493211D01*
X128480814Y-110864203D01*
X128537872Y-111056781D01*
X128786457Y-111559531D01*
X129150415Y-111989059D01*
X129611562Y-112326968D01*
X130151714Y-112554858D01*
X130435144Y-112615713D01*
X130991153Y-112633162D01*
X131555333Y-112535524D01*
X132086004Y-112331926D01*
X132541485Y-112031496D01*
X132552716Y-112021758D01*
X132818198Y-111722427D01*
X133058256Y-111333006D01*
X133243599Y-110909096D01*
X133344939Y-110506298D01*
X133392841Y-110145189D01*
X134038563Y-110145189D01*
X134684284Y-110145189D01*
X134619223Y-110570991D01*
X134536724Y-110983206D01*
X134293764Y-111683604D01*
X133940706Y-112296554D01*
X133486183Y-112813123D01*
X132938829Y-113224376D01*
X132307276Y-113521379D01*
X131600159Y-113695197D01*
X131188823Y-113741196D01*
X130484554Y-113737415D01*
X129823689Y-113614401D01*
X129171518Y-113367471D01*
X129043442Y-113303835D01*
X128472445Y-112926409D01*
X127997481Y-112452305D01*
X127624938Y-111899948D01*
X127361203Y-111287764D01*
X127212665Y-110634180D01*
X127185709Y-109957621D01*
X127286725Y-109276514D01*
X127522098Y-108609285D01*
X127551373Y-108548213D01*
X127814668Y-108116819D01*
X128159697Y-107736653D01*
X128599698Y-107398930D01*
X129147909Y-107094867D01*
X129817569Y-106815682D01*
X130621915Y-106552590D01*
X131027490Y-106430480D01*
X131480528Y-106282943D01*
X131828679Y-106151329D01*
X132094872Y-106025735D01*
X132302038Y-105896258D01*
X132473107Y-105752991D01*
X132742855Y-105430798D01*
X132961148Y-104984911D01*
X133062032Y-104503235D01*
X133049393Y-104010179D01*
X132927116Y-103530153D01*
X132699088Y-103087565D01*
X132369193Y-102706827D01*
X131941319Y-102412346D01*
X131746039Y-102318773D01*
X131518529Y-102240496D01*
X131273017Y-102204426D01*
X130944791Y-102196550D01*
X130771411Y-102200575D01*
X130310586Y-102258877D01*
X129918310Y-102398705D01*
X129544372Y-102635807D01*
X129331062Y-102846919D01*
X129096485Y-103186937D01*
X128902887Y-103581413D01*
X128778756Y-103980320D01*
X128697954Y-104369096D01*
X128086996Y-104369096D01*
X127476038Y-104369096D01*
X127535411Y-103875921D01*
X127625556Y-103420674D01*
X127865971Y-102811640D01*
X128223626Y-102268619D01*
X128683034Y-101809455D01*
X129228712Y-101451996D01*
X129845174Y-101214085D01*
X129906785Y-101199532D01*
X130192912Y-101155034D01*
X130546439Y-101123734D01*
X130904918Y-101111666D01*
X131334866Y-101129643D01*
G37*
G36*
X145768885Y-77893191D02*
G01*
X146130107Y-78005937D01*
X146145836Y-78014935D01*
X146237875Y-78086111D01*
X146394282Y-78223308D01*
X146617713Y-78429139D01*
X146910823Y-78706221D01*
X147276269Y-79057167D01*
X147716706Y-79484594D01*
X148234789Y-79991115D01*
X148833176Y-80579346D01*
X149514522Y-81251901D01*
X150281482Y-82011396D01*
X151136713Y-82860445D01*
X152082871Y-83801663D01*
X153122610Y-84837665D01*
X154258589Y-85971066D01*
X155493461Y-87204481D01*
X156829883Y-88540524D01*
X157020984Y-88731647D01*
X158233349Y-89944261D01*
X159345842Y-91057262D01*
X160362741Y-92075032D01*
X161288322Y-93001960D01*
X162126863Y-93842429D01*
X162882642Y-94600825D01*
X163559935Y-95281535D01*
X164163022Y-95888943D01*
X164696178Y-96427435D01*
X165163682Y-96901396D01*
X165569812Y-97315213D01*
X165918843Y-97673270D01*
X166215055Y-97979954D01*
X166462724Y-98239649D01*
X166666128Y-98456741D01*
X166829545Y-98635616D01*
X166957252Y-98780660D01*
X167053526Y-98896257D01*
X167122645Y-98986793D01*
X167168886Y-99056655D01*
X167196527Y-99110227D01*
X167209846Y-99151895D01*
X167213119Y-99186044D01*
X167191195Y-99389736D01*
X167064366Y-99689903D01*
X166837330Y-99896659D01*
X166827999Y-99901044D01*
X166761554Y-99917530D01*
X166643079Y-99932094D01*
X166464567Y-99944847D01*
X166218013Y-99955902D01*
X165895411Y-99965370D01*
X165488754Y-99973362D01*
X164990036Y-99979990D01*
X164391251Y-99985367D01*
X163684393Y-99989603D01*
X162861456Y-99992810D01*
X161914434Y-99995100D01*
X160835320Y-99996585D01*
X159616108Y-99997375D01*
X152571866Y-100000000D01*
X152529502Y-99788181D01*
X152494951Y-99674275D01*
X152329414Y-99397121D01*
X152077553Y-99142523D01*
X151778865Y-98954354D01*
X151770082Y-98950401D01*
X151667629Y-98910885D01*
X151546274Y-98880012D01*
X151387559Y-98856718D01*
X151173028Y-98839942D01*
X150884225Y-98828623D01*
X150502692Y-98821698D01*
X150009972Y-98818107D01*
X149387609Y-98816786D01*
X147295627Y-98815160D01*
X147295627Y-97856591D01*
X147295627Y-96898022D01*
X149467583Y-96875396D01*
X151639540Y-96852769D01*
X151917620Y-96640547D01*
X152089731Y-96492818D01*
X152371813Y-96125133D01*
X152516659Y-95702989D01*
X152562877Y-95429428D01*
X153069906Y-95386921D01*
X153071426Y-95386793D01*
X153605808Y-95291564D01*
X154031917Y-95101170D01*
X154360258Y-94808896D01*
X154601337Y-94408027D01*
X154614147Y-94377437D01*
X154656745Y-94243381D01*
X154689643Y-94068253D01*
X154714655Y-93830647D01*
X154733592Y-93509157D01*
X154748270Y-93082376D01*
X154760499Y-92528898D01*
X154762207Y-92431203D01*
X154767697Y-91928403D01*
X154767854Y-91450412D01*
X154762991Y-91028042D01*
X154753425Y-90692101D01*
X154739471Y-90473399D01*
X154737894Y-90459095D01*
X154616278Y-89956063D01*
X154379719Y-89543622D01*
X154034897Y-89227935D01*
X153588491Y-89015170D01*
X153047182Y-88911491D01*
X152571532Y-88873310D01*
X152522659Y-88457476D01*
X152433454Y-88066230D01*
X152227939Y-87701400D01*
X151899016Y-87404400D01*
X151638612Y-87225947D01*
X145605395Y-87206151D01*
X144904604Y-87203862D01*
X143907493Y-87200762D01*
X143042203Y-87198503D01*
X142298748Y-87197303D01*
X141667140Y-87197380D01*
X141137392Y-87198951D01*
X140699517Y-87202234D01*
X140343528Y-87207447D01*
X140059437Y-87214806D01*
X139837258Y-87224530D01*
X139667004Y-87236836D01*
X139538687Y-87251942D01*
X139442320Y-87270065D01*
X139367917Y-87291423D01*
X139305489Y-87316234D01*
X139245051Y-87344714D01*
X139150873Y-87394960D01*
X138822664Y-87668976D01*
X138601661Y-88036777D01*
X138499118Y-88481212D01*
X138466383Y-88875959D01*
X137714828Y-88903780D01*
X137475525Y-88914203D01*
X137183926Y-88937388D01*
X136971130Y-88976384D01*
X136794370Y-89040266D01*
X136610882Y-89138115D01*
X136489315Y-89218117D01*
X136252038Y-89417470D01*
X136077879Y-89618233D01*
X136003214Y-89741359D01*
X135915580Y-89931166D01*
X135849063Y-90153560D01*
X135801463Y-90427760D01*
X135770579Y-90772983D01*
X135754209Y-91208447D01*
X135750153Y-91753370D01*
X135756211Y-92426968D01*
X135762763Y-92865683D01*
X135771913Y-93328013D01*
X135783366Y-93678714D01*
X135798975Y-93938507D01*
X135820592Y-94128118D01*
X135850071Y-94268270D01*
X135889263Y-94379686D01*
X135940022Y-94483090D01*
X136063685Y-94684770D01*
X136316343Y-94966424D01*
X136668936Y-95223676D01*
X136789639Y-95282764D01*
X136989680Y-95335443D01*
X137275679Y-95370976D01*
X137678636Y-95394613D01*
X138466338Y-95427068D01*
X138506463Y-95726219D01*
X138517006Y-95792532D01*
X138612747Y-96079159D01*
X138801236Y-96345392D01*
X139105839Y-96626325D01*
X139385478Y-96852769D01*
X141637345Y-96875286D01*
X143889213Y-96897802D01*
X143889213Y-97856481D01*
X143889213Y-98815160D01*
X141834256Y-98815573D01*
X141828964Y-98815574D01*
X141274042Y-98818356D01*
X140757486Y-98825904D01*
X140301240Y-98837516D01*
X139927254Y-98852491D01*
X139657473Y-98870128D01*
X139513845Y-98889726D01*
X139285031Y-98995139D01*
X139009646Y-99209845D01*
X138774514Y-99477695D01*
X138627879Y-99751746D01*
X138545235Y-100002160D01*
X131361820Y-99982567D01*
X124178404Y-99962973D01*
X123999698Y-99755200D01*
X123972851Y-99722630D01*
X123855142Y-99500743D01*
X123820991Y-99213159D01*
X123820991Y-98878893D01*
X133947668Y-88696512D01*
X134081673Y-88561778D01*
X135103820Y-87534623D01*
X136100158Y-86534358D01*
X137065453Y-85566201D01*
X137994469Y-84635364D01*
X138881973Y-83747066D01*
X139722729Y-82906520D01*
X140511504Y-82118942D01*
X141243062Y-81389548D01*
X141912169Y-80723553D01*
X142513590Y-80126173D01*
X143042091Y-79602622D01*
X143492437Y-79158117D01*
X143859393Y-78797873D01*
X144137726Y-78527106D01*
X144322200Y-78351030D01*
X144407580Y-78274861D01*
X144535799Y-78186530D01*
X144767168Y-78042113D01*
X144947945Y-77946950D01*
X145025009Y-77918495D01*
X145378871Y-77862963D01*
X145768885Y-77893191D01*
G37*
%TD*%
M02*
