M48
; DRILL file {KiCad 7.0.1} date Thu Jul 13 18:43:05 2023
; FORMAT={-:-/ absolute / inch / decimal}
; #@! TF.CreationDate,2023-07-13T18:43:05+01:00
; #@! TF.GenerationSoftware,Kicad,Pcbnew,7.0.1
; #@! TF.FileFunction,Plated,1,4,PTH
FMAT,2
INCH
; #@! TA.AperFunction,Plated,PTH,ViaDrill
T1C0.0118
; #@! TA.AperFunction,Plated,PTH,ComponentDrill
T2C0.0236
; #@! TA.AperFunction,Plated,PTH,ComponentDrill
T3C0.0382
; #@! TA.AperFunction,Plated,PTH,ComponentDrill
T4C0.0433
; #@! TA.AperFunction,Plated,PTH,ComponentDrill
T5C0.0598
; #@! TA.AperFunction,Plated,PTH,ComponentDrill
T6C0.0673
; #@! TA.AperFunction,Plated,PTH,ComponentDrill
T7C0.1260
%
G90
G05
T1
X4.0256Y-3.7697
X4.0256Y-3.8091
X4.0748Y-3.7697
X4.0748Y-3.8091
X4.0836Y-4.6159
X4.0836Y-4.4278
X4.0838Y-4.8209
X4.2441Y-3.2402
X4.2441Y-3.2717
X4.2441Y-3.4606
X4.2441Y-3.4921
X4.3197Y-3.4157
X4.3504Y-3.4843
X4.4488Y-3.4587
X4.4488Y-3.4843
X4.4488Y-3.5098
X4.498Y-3.3858
X4.498Y-3.5827
X4.5366Y-3.4843
X4.5384Y-2.622
X4.5384Y-2.7087
X4.562Y-3.4754
X4.562Y-3.501
X4.628Y-2.7087
X4.6289Y-2.4921
X4.6289Y-2.622
X4.689Y-4.8425
X4.7444Y-4.6745
X4.7477Y-4.701
X4.7581Y-4.8167
X4.767Y-4.5224
X4.7677Y-4.685
X4.7943Y-4.495
X4.8012Y-2.6732
X4.8022Y-4.7726
X4.8199Y-2.5157
X4.8279Y-4.6014
X4.8386Y-2.6732
X4.8406Y-4.7335
X4.8574Y-4.5719
X4.8574Y-4.6014
X4.8583Y-4.4173
X4.8691Y-2.6457
X4.8773Y-4.8306
X4.8819Y-3.6331
X4.8819Y-3.7276
X4.8819Y-3.9087
X4.8819Y-4.0031
X4.8819Y-4.1843
X4.8823Y-4.2787
X4.8858Y-4.3898
X4.8916Y-4.8092
X4.9016Y-4.4961
X4.9027Y-4.8332
X4.9094Y-4.4685
X4.9134Y-4.3622
X4.9409Y-4.4646
X4.9488Y-4.5787
X4.9724Y-4.5551
X4.9724Y-4.6024
X4.9952Y-4.6998
X4.9952Y-4.7392
X4.9961Y-4.5315
X4.9961Y-4.5787
X4.9961Y-4.626
X5.0149Y-4.7195
X5.0157Y-4.4291
X5.0193Y-4.8555
X5.0197Y-2.6476
X5.0197Y-4.5551
X5.0197Y-4.6024
X5.0315Y-4.4026
X5.0433Y-4.3268
X5.0433Y-4.5787
X5.046Y-4.8274
X5.0738Y-4.8001
X5.1017Y-4.7729
X5.1024Y-4.4882
X5.1118Y-4.2575
X5.1118Y-4.3626
X5.1437Y-4.0996
X5.1437Y-4.137
X5.1437Y-4.174
X5.1437Y-4.2488
X5.1437Y-4.2862
X5.1575Y-4.3583
X5.1693Y-4.6693
X5.1874Y-3.8791
X5.1874Y-3.9169
X5.1929Y-4.5787
X5.1969Y-4.4498
X5.1969Y-4.4882
X5.1969Y-4.6417
X5.2402Y-3.6526
X5.2402Y-4.4449
X5.2411Y-3.6909
X5.3268Y-3.4695
X5.3317Y-4.1408
X5.3317Y-4.186
X5.3327Y-4.2224
X5.3386Y-4.4134
X5.3425Y-4.6142
X5.3445Y-4.1634
X5.3472Y-4.8815
X5.3642Y-3.4695
X5.372Y-4.2579
X5.3752Y-4.4583
X5.3917Y-4.2815
X5.4126Y-4.4587
X5.4142Y-3.4453
X5.4921Y-4.5374
X5.4921Y-4.5768
X5.6106Y-3.4157
X5.6311Y-4.4587
X5.6488Y-3.4154
X5.6594Y-3.0994
X5.6689Y-4.4587
X5.7185Y-3.1604
X5.7283Y-4.1496
X5.7283Y-4.4291
X5.7677Y-3.6496
X5.7677Y-3.7126
X5.7874Y-3.6683
X5.7874Y-3.6939
X5.8075Y-3.4157
X5.8189Y-3.2953
X5.8276Y-4.4583
X5.8417Y-4.5315
X5.8417Y-4.6811
X5.8457Y-3.4157
X5.8657Y-4.4587
X5.8858Y-4.626
X5.8862Y-4.5874
X5.8937Y-4.0945
X5.9016Y-3.622
X5.9055Y-5.2067
X5.9449Y-5.2067
X5.9469Y-3.1673
X5.9567Y-4.4291
X5.961Y-4.0945
X5.994Y-3.5991
X6.0051Y-4.8122
X6.0079Y-4.122
X6.0118Y-4.1614
X6.0236Y-3.3366
X6.0236Y-3.5994
X6.0433Y-4.813
X6.0531Y-3.3366
X6.0531Y-3.5994
X6.0634Y-4.4587
X6.0709Y-4.1732
X6.0709Y-4.2047
X6.0709Y-4.2362
X6.0748Y-3.5143
X6.0798Y-3.6683
X6.0798Y-3.6939
X6.0827Y-3.3366
X6.0827Y-3.5984
X6.0827Y-3.6339
X6.0827Y-3.7283
X6.0862Y-3.8387
X6.0862Y-3.8778
X6.0906Y-4.3465
X6.1016Y-4.4587
X6.1142Y-4.3189
X6.1614Y-5.2067
X6.1909Y-3.521
X6.1969Y-4.2362
X6.2008Y-5.2067
X6.2299Y-3.6803
X6.2303Y-3.5638
X6.2303Y-3.6016
X6.2303Y-4.0555
X6.2307Y-4.0937
X6.2618Y-4.8126
X6.2638Y-4.2362
X6.2638Y-4.2717
X6.2677Y-3.8386
X6.2677Y-3.878
X6.2992Y-4.813
X6.3717Y-4.2516
X6.372Y-4.5075
X6.4724Y-3.6378
X6.524Y-2.3157
X6.5551Y-3.3543
X6.5945Y-4.7047
X6.5945Y-4.7835
X6.5945Y-4.8622
X6.6043Y-4.252
X6.6043Y-4.5079
X6.6339Y-4.7441
X6.6339Y-4.8228
X6.6339Y-4.9016
X6.7638Y-5.0157
X6.8031Y-4.8878
X6.8031Y-4.9075
X6.8406Y-2.2136
X6.8406Y-2.3317
X6.8882Y-2.3161
X6.9449Y-4.9843
X6.9685Y-5.0492
X6.998Y-5.0492
X7.0276Y-5.0197
X7.0276Y-5.0492
X7.0472Y-4.9114
X7.0472Y-4.9409
X7.0549Y-4.5768
X7.0549Y-4.6063
X7.0549Y-4.6358
X7.0571Y-4.311
X7.0571Y-4.3406
X7.0571Y-4.3701
X7.0844Y-4.6358
X7.0866Y-4.311
X7.0866Y-4.3406
X7.0866Y-4.3701
X7.0866Y-4.9114
X7.0866Y-4.9409
X7.1199Y-4.5531
X7.1358Y-4.2717
X7.1949Y-4.2717
X7.1949Y-4.4094
X7.2047Y-2.2146
X7.2047Y-2.3317
X7.2146Y-4.4094
X7.2638Y-4.2421
X7.2638Y-4.3701
X7.3228Y-4.2421
X7.3228Y-4.3701
X7.3819Y-4.2421
X7.3819Y-4.3701
X7.4213Y-4.5965
T3
X4.4707Y-5.1043
X4.5207Y-5.0043
X4.5707Y-5.1043
X4.6207Y-5.0043
X4.6707Y-5.1043
X4.7207Y-5.0043
X4.7707Y-5.1043
X4.8207Y-5.0043
T4
X4.3848Y-5.5472
X4.4848Y-5.5472
X4.8065Y-5.5472
X4.9065Y-5.5472
T5
X5.2724Y-5.4331
X5.4724Y-5.4331
X5.6724Y-5.4331
X5.9417Y-5.4331
X6.1417Y-5.4331
X6.3417Y-5.4331
X6.6142Y-5.4331
X6.8142Y-5.4331
X7.0142Y-5.4331
X7.2047Y-4.9
X7.2047Y-5.1
T6
X4.3407Y-5.2343
X4.9506Y-5.2343
T7
X4.0551Y-2.2835
X4.0551Y-5.5906
X4.7244Y-3.937
X6.6929Y-3.937
X7.3622Y-2.2835
X7.3622Y-5.5906
T2
G00X4.0315Y-3.1959
M15
G01X4.0Y-3.1959
M16
G05
G00X4.0315Y-3.5364
M15
G01X4.0Y-3.5364
M16
G05
G00X4.2016Y-3.1959
M15
G01X4.1583Y-3.1959
M16
G05
G00X4.2016Y-3.5364
M15
G01X4.1583Y-3.5364
M16
G05
T0
M30
