%TF.GenerationSoftware,KiCad,Pcbnew,7.0.1*%
%TF.CreationDate,2023-07-13T18:43:07+01:00*%
%TF.ProjectId,Gateway Board,47617465-7761-4792-9042-6f6172642e6b,rev?*%
%TF.SameCoordinates,Original*%
%TF.FileFunction,Drillmap*%
%TF.FilePolarity,Positive*%
%FSLAX45Y45*%
G04 Gerber Fmt 4.5, Leading zero omitted, Abs format (unit mm)*
G04 Created by KiCad (PCBNEW 7.0.1) date 2023-07-13 18:43:07*
%MOMM*%
%LPD*%
G01*
G04 APERTURE LIST*
%ADD10C,0.100000*%
%ADD11C,0.200000*%
%ADD12C,0.060000*%
%ADD13C,0.095000*%
%ADD14C,0.099060*%
%ADD15C,0.237490*%
%ADD16C,0.333000*%
G04 APERTURE END LIST*
D10*
X11954826Y-7044566D02*
G75*
G03*
X11942500Y-7185449I64274J-76604D01*
G01*
X12172314Y-6992612D02*
G75*
G03*
X12031430Y-6980287I-76604J-64278D01*
G01*
X10667932Y-10726468D02*
X10650567Y-10627988D01*
X11097498Y-8093300D02*
G75*
G03*
X11134104Y-8229904I86602J-50000D01*
G01*
X17057499Y-7185449D02*
G75*
G03*
X17045174Y-7044566I-76599J64279D01*
G01*
X15940630Y-6480471D02*
X15667014Y-7232225D01*
X18216223Y-10807578D02*
G75*
G03*
X18332068Y-10726468I17367J98478D01*
G01*
X15385106Y-7129619D02*
X15658723Y-6377865D01*
X17045174Y-12955434D02*
G75*
G03*
X17057500Y-12814551I-64274J76604D01*
G01*
X18268318Y-9487863D02*
G75*
G03*
X18349433Y-9372013I-17368J98483D01*
G01*
X17852504Y-8006696D02*
G75*
G03*
X17715897Y-7970096I-86604J-50004D01*
G01*
X18216222Y-10807584D02*
X17428376Y-10668666D01*
X17480471Y-10373223D02*
X18268317Y-10512142D01*
X18349428Y-10627987D02*
G75*
G03*
X18268317Y-10512142I-98478J17367D01*
G01*
X12013526Y-11493301D02*
X11963526Y-11406699D01*
X17347260Y-9447180D02*
X17364625Y-9545661D01*
X17715897Y-12029904D02*
X17023076Y-11629904D01*
X16313459Y-7605451D02*
G75*
G03*
X16325782Y-7746332I76601J-64279D01*
G01*
X12013527Y-8506699D02*
G75*
G03*
X11976924Y-8370096I-86607J49999D01*
G01*
X17428376Y-9331334D02*
X18216222Y-9192416D01*
X16968570Y-6980287D02*
X17045174Y-7044566D01*
X10731683Y-10512142D02*
X11519529Y-10373223D01*
X10783777Y-9192422D02*
G75*
G03*
X10667932Y-9273532I-17367J-98478D01*
G01*
X10731683Y-10512137D02*
G75*
G03*
X10650567Y-10627988I17368J-98483D01*
G01*
X17902502Y-11906700D02*
G75*
G03*
X17865897Y-11770096I-86602J50000D01*
G01*
X16313456Y-7605448D02*
X16827686Y-6992613D01*
X18332068Y-9273532D02*
X18349433Y-9372013D01*
X11963526Y-8593301D02*
X12013526Y-8506699D01*
X14450000Y-7100000D02*
X14550000Y-7100000D01*
X17173079Y-11370092D02*
G75*
G03*
X17036474Y-11406699I-49999J-86608D01*
G01*
X11147501Y-11993301D02*
X11097501Y-11906699D01*
X11826921Y-8629908D02*
G75*
G03*
X11963526Y-8593301I49999J86608D01*
G01*
X13341277Y-6377865D02*
X13614893Y-7129619D01*
X11134105Y-11770099D02*
G75*
G03*
X11097501Y-11906699I49995J-86601D01*
G01*
X15940631Y-6480471D02*
G75*
G03*
X15880863Y-6352300I-93971J34201D01*
G01*
X11147497Y-11993304D02*
G75*
G03*
X11284103Y-12029904I86603J50004D01*
G01*
X16325782Y-7746332D02*
X16402386Y-7810610D01*
X14650000Y-6200000D02*
G75*
G03*
X14550000Y-6100000I-100000J0D01*
G01*
X13461157Y-7291992D02*
X13555126Y-7257790D01*
X11635375Y-9545661D02*
X11652740Y-9447180D01*
X12456726Y-7798289D02*
G75*
G03*
X12597614Y-7810610I76604J64279D01*
G01*
X16986473Y-11493301D02*
G75*
G03*
X17023076Y-11629904I86607J-49999D01*
G01*
X13119137Y-6352300D02*
X13213106Y-6318098D01*
X10783778Y-9192416D02*
X11571624Y-9331334D01*
X18268317Y-9487858D02*
X17480471Y-9626777D01*
X15786892Y-6318102D02*
G75*
G03*
X15658723Y-6377865I-34202J-93968D01*
G01*
X10300000Y-5500000D02*
G75*
G03*
X10000000Y-5800000I0J-300000D01*
G01*
X17865895Y-8229901D02*
G75*
G03*
X17902499Y-8093301I-49995J86601D01*
G01*
X10667926Y-10726469D02*
G75*
G03*
X10783778Y-10807584I98484J17369D01*
G01*
X15444874Y-7257790D02*
X15538843Y-7291992D01*
X14350000Y-7000000D02*
G75*
G03*
X14450000Y-7100000I100000J0D01*
G01*
X19000000Y-5800000D02*
X19000000Y-14200000D01*
X18332074Y-9273531D02*
G75*
G03*
X18216222Y-9192416I-98484J-17369D01*
G01*
X17045174Y-12955434D02*
X16968570Y-13019713D01*
X17902499Y-11906699D02*
X17852499Y-11993301D01*
X11635367Y-10454341D02*
G75*
G03*
X11519529Y-10373223I-98477J-17359D01*
G01*
X15538846Y-7291985D02*
G75*
G03*
X15667014Y-7232225I34204J93965D01*
G01*
X13555127Y-7257791D02*
G75*
G03*
X13614893Y-7129619I-34207J93971D01*
G01*
X13341281Y-6377864D02*
G75*
G03*
X13213106Y-6318098I-93971J-34206D01*
G01*
X17057500Y-7185449D02*
X16543269Y-7798285D01*
X11519528Y-9626785D02*
G75*
G03*
X11635375Y-9545661I17362J98485D01*
G01*
X10300000Y-5500000D02*
X18700000Y-5500000D01*
X11954826Y-7044566D02*
X12031430Y-6980287D01*
X14650000Y-6200000D02*
X14650000Y-7000000D01*
X17173076Y-11370096D02*
X17865897Y-11770096D01*
X14450000Y-6100000D02*
G75*
G03*
X14350000Y-6200000I0J-100000D01*
G01*
X17852499Y-8006699D02*
X17902499Y-8093301D01*
X18700000Y-14500000D02*
X10300000Y-14500000D01*
X17023076Y-8370096D02*
G75*
G03*
X16986474Y-8506699I50004J-86604D01*
G01*
X16827686Y-13007387D02*
X16313456Y-12394551D01*
X17480472Y-10373215D02*
G75*
G03*
X17364625Y-10454339I-17362J-98485D01*
G01*
X13332986Y-7232225D02*
X13059370Y-6480471D01*
X16402390Y-7810606D02*
G75*
G03*
X16543269Y-7798285I64280J76596D01*
G01*
X11519529Y-9626777D02*
X10731683Y-9487858D01*
X16986474Y-8506699D02*
X17036474Y-8593301D01*
X11284101Y-7970101D02*
G75*
G03*
X11147501Y-8006699I-50001J-86599D01*
G01*
X17036474Y-11406699D02*
X16986474Y-11493301D01*
X10650572Y-9372013D02*
G75*
G03*
X10731683Y-9487858I98478J-17367D01*
G01*
X16827686Y-13007388D02*
G75*
G03*
X16968570Y-13019713I76604J64278D01*
G01*
X17364633Y-9545659D02*
G75*
G03*
X17480471Y-9626777I98477J17359D01*
G01*
X15786894Y-6318098D02*
X15880863Y-6352300D01*
X17347254Y-10552819D02*
G75*
G03*
X17428376Y-10668666I98486J-17361D01*
G01*
X12172314Y-6992613D02*
X12686544Y-7605449D01*
X12674221Y-7746334D02*
G75*
G03*
X12686544Y-7605448I-64281J76605D01*
G01*
X16325779Y-12253665D02*
G75*
G03*
X16313456Y-12394551I64281J-76605D01*
G01*
X16968569Y-6980288D02*
G75*
G03*
X16827686Y-6992613I-64279J-76602D01*
G01*
X14450000Y-6100000D02*
X14550000Y-6100000D01*
X10000000Y-14200000D02*
X10000000Y-5800000D01*
X11134104Y-11770096D02*
X11826924Y-11370096D01*
X12597614Y-7810610D02*
X12674218Y-7746332D01*
X17715899Y-12029899D02*
G75*
G03*
X17852499Y-11993301I50001J86599D01*
G01*
X17865897Y-8229904D02*
X17173076Y-8629904D01*
X18700000Y-14500000D02*
G75*
G03*
X19000000Y-14200000I0J300000D01*
G01*
X11963522Y-11406701D02*
G75*
G03*
X11826924Y-11370096I-86602J-49999D01*
G01*
X11652740Y-10552820D02*
X11635375Y-10454339D01*
X16402386Y-12189389D02*
X16325782Y-12253668D01*
X11976924Y-11629904D02*
X11284103Y-12029904D01*
X11097501Y-8093301D02*
X11147501Y-8006699D01*
X17036478Y-8593299D02*
G75*
G03*
X17173076Y-8629904I86602J49999D01*
G01*
X11826924Y-8629904D02*
X11134104Y-8229904D01*
X10650567Y-9372013D02*
X10667932Y-9273532D01*
X17364625Y-10454339D02*
X17347260Y-10552820D01*
X11284103Y-7970096D02*
X11976924Y-8370096D01*
X17023076Y-8370096D02*
X17715897Y-7970096D01*
X16543274Y-12201711D02*
G75*
G03*
X16402386Y-12189389I-76604J-64279D01*
G01*
X13119137Y-6352300D02*
G75*
G03*
X13059369Y-6480471I34203J-93970D01*
G01*
X10000000Y-14200000D02*
G75*
G03*
X10300000Y-14500000I300000J0D01*
G01*
X15385107Y-7129619D02*
G75*
G03*
X15444874Y-7257790I93973J-34201D01*
G01*
X19000000Y-5800000D02*
G75*
G03*
X18700000Y-5500000I-300000J0D01*
G01*
X11571623Y-10668659D02*
G75*
G03*
X11652740Y-10552820I-17363J98479D01*
G01*
X18349433Y-10627988D02*
X18332068Y-10726468D01*
X14350000Y-7000000D02*
X14350000Y-6200000D01*
X17428377Y-9331341D02*
G75*
G03*
X17347260Y-9447180I17363J-98479D01*
G01*
X11652746Y-9447181D02*
G75*
G03*
X11571624Y-9331334I-98486J17361D01*
G01*
X13332978Y-7232228D02*
G75*
G03*
X13461157Y-7291992I93972J34208D01*
G01*
X16543269Y-12201715D02*
X17057500Y-12814551D01*
X11976924Y-11629903D02*
G75*
G03*
X12013526Y-11493301I-50004J86604D01*
G01*
X12456730Y-7798285D02*
X11942500Y-7185449D01*
X14550000Y-7100000D02*
G75*
G03*
X14650000Y-7000000I0J100000D01*
G01*
X11571624Y-10668666D02*
X10783778Y-10807584D01*
D11*
D12*
X10538000Y-8231000D02*
X10598000Y-8291000D01*
X10598000Y-8231000D02*
X10538000Y-8291000D01*
X10538000Y-8809000D02*
X10598000Y-8869000D01*
X10598000Y-8809000D02*
X10538000Y-8869000D01*
D13*
X10547500Y-6660500D02*
G75*
G03*
X10547500Y-6660500I-47500J0D01*
G01*
X10547500Y-7320500D02*
G75*
G03*
X10547500Y-7320500I-47500J0D01*
G01*
D14*
X16248400Y-8546470D02*
X16248400Y-8645530D01*
X16198870Y-8596000D02*
X16297930Y-8596000D01*
X16350000Y-9054470D02*
X16350000Y-9153530D01*
X16300470Y-9104000D02*
X16399530Y-9104000D01*
X16451600Y-8546470D02*
X16451600Y-8645530D01*
X16402070Y-8596000D02*
X16501130Y-8596000D01*
D15*
X16179966Y-8870466D02*
X16179966Y-8702534D01*
X16012034Y-8702534D01*
X16012034Y-8870466D01*
X16179966Y-8870466D01*
X16179966Y-9187966D02*
X16179966Y-9020034D01*
X16012034Y-9020034D01*
X16012034Y-9187966D01*
X16179966Y-9187966D01*
X16687966Y-8870466D02*
X16687966Y-8702534D01*
X16520034Y-8702534D01*
X16520034Y-8870466D01*
X16687966Y-8870466D01*
X16687966Y-9187966D02*
X16687966Y-9020034D01*
X16520034Y-9020034D01*
X16520034Y-9187966D01*
X16687966Y-9187966D01*
D16*
X11228500Y-13766500D02*
X11395000Y-13600000D01*
X11228500Y-13433500D01*
X11062000Y-13600000D01*
X11228500Y-13766500D01*
X12371500Y-13766500D02*
X12538000Y-13600000D01*
X12371500Y-13433500D01*
X12205000Y-13600000D01*
X12371500Y-13766500D01*
D11*
X10242619Y-14817524D02*
X10242619Y-14617524D01*
X10242619Y-14617524D02*
X10290238Y-14617524D01*
X10290238Y-14617524D02*
X10318810Y-14627048D01*
X10318810Y-14627048D02*
X10337857Y-14646095D01*
X10337857Y-14646095D02*
X10347381Y-14665143D01*
X10347381Y-14665143D02*
X10356905Y-14703238D01*
X10356905Y-14703238D02*
X10356905Y-14731809D01*
X10356905Y-14731809D02*
X10347381Y-14769905D01*
X10347381Y-14769905D02*
X10337857Y-14788952D01*
X10337857Y-14788952D02*
X10318810Y-14808000D01*
X10318810Y-14808000D02*
X10290238Y-14817524D01*
X10290238Y-14817524D02*
X10242619Y-14817524D01*
X10442619Y-14817524D02*
X10442619Y-14684190D01*
X10442619Y-14722286D02*
X10452143Y-14703238D01*
X10452143Y-14703238D02*
X10461667Y-14693714D01*
X10461667Y-14693714D02*
X10480714Y-14684190D01*
X10480714Y-14684190D02*
X10499762Y-14684190D01*
X10566429Y-14817524D02*
X10566429Y-14684190D01*
X10566429Y-14617524D02*
X10556905Y-14627048D01*
X10556905Y-14627048D02*
X10566429Y-14636571D01*
X10566429Y-14636571D02*
X10575952Y-14627048D01*
X10575952Y-14627048D02*
X10566429Y-14617524D01*
X10566429Y-14617524D02*
X10566429Y-14636571D01*
X10690238Y-14817524D02*
X10671190Y-14808000D01*
X10671190Y-14808000D02*
X10661667Y-14788952D01*
X10661667Y-14788952D02*
X10661667Y-14617524D01*
X10795000Y-14817524D02*
X10775952Y-14808000D01*
X10775952Y-14808000D02*
X10766429Y-14788952D01*
X10766429Y-14788952D02*
X10766429Y-14617524D01*
X11023571Y-14817524D02*
X11023571Y-14617524D01*
X11023571Y-14617524D02*
X11090238Y-14760381D01*
X11090238Y-14760381D02*
X11156905Y-14617524D01*
X11156905Y-14617524D02*
X11156905Y-14817524D01*
X11337857Y-14817524D02*
X11337857Y-14712762D01*
X11337857Y-14712762D02*
X11328333Y-14693714D01*
X11328333Y-14693714D02*
X11309286Y-14684190D01*
X11309286Y-14684190D02*
X11271190Y-14684190D01*
X11271190Y-14684190D02*
X11252143Y-14693714D01*
X11337857Y-14808000D02*
X11318809Y-14817524D01*
X11318809Y-14817524D02*
X11271190Y-14817524D01*
X11271190Y-14817524D02*
X11252143Y-14808000D01*
X11252143Y-14808000D02*
X11242619Y-14788952D01*
X11242619Y-14788952D02*
X11242619Y-14769905D01*
X11242619Y-14769905D02*
X11252143Y-14750857D01*
X11252143Y-14750857D02*
X11271190Y-14741333D01*
X11271190Y-14741333D02*
X11318809Y-14741333D01*
X11318809Y-14741333D02*
X11337857Y-14731809D01*
X11433095Y-14684190D02*
X11433095Y-14884190D01*
X11433095Y-14693714D02*
X11452143Y-14684190D01*
X11452143Y-14684190D02*
X11490238Y-14684190D01*
X11490238Y-14684190D02*
X11509286Y-14693714D01*
X11509286Y-14693714D02*
X11518809Y-14703238D01*
X11518809Y-14703238D02*
X11528333Y-14722286D01*
X11528333Y-14722286D02*
X11528333Y-14779428D01*
X11528333Y-14779428D02*
X11518809Y-14798476D01*
X11518809Y-14798476D02*
X11509286Y-14808000D01*
X11509286Y-14808000D02*
X11490238Y-14817524D01*
X11490238Y-14817524D02*
X11452143Y-14817524D01*
X11452143Y-14817524D02*
X11433095Y-14808000D01*
X11614048Y-14798476D02*
X11623571Y-14808000D01*
X11623571Y-14808000D02*
X11614048Y-14817524D01*
X11614048Y-14817524D02*
X11604524Y-14808000D01*
X11604524Y-14808000D02*
X11614048Y-14798476D01*
X11614048Y-14798476D02*
X11614048Y-14817524D01*
X11614048Y-14693714D02*
X11623571Y-14703238D01*
X11623571Y-14703238D02*
X11614048Y-14712762D01*
X11614048Y-14712762D02*
X11604524Y-14703238D01*
X11604524Y-14703238D02*
X11614048Y-14693714D01*
X11614048Y-14693714D02*
X11614048Y-14712762D01*
D12*
X9935000Y-15115000D02*
X9995000Y-15175000D01*
X9995000Y-15115000D02*
X9935000Y-15175000D01*
D11*
X10280714Y-15037524D02*
X10299762Y-15037524D01*
X10299762Y-15037524D02*
X10318810Y-15047048D01*
X10318810Y-15047048D02*
X10328333Y-15056571D01*
X10328333Y-15056571D02*
X10337857Y-15075619D01*
X10337857Y-15075619D02*
X10347381Y-15113714D01*
X10347381Y-15113714D02*
X10347381Y-15161333D01*
X10347381Y-15161333D02*
X10337857Y-15199428D01*
X10337857Y-15199428D02*
X10328333Y-15218476D01*
X10328333Y-15218476D02*
X10318810Y-15228000D01*
X10318810Y-15228000D02*
X10299762Y-15237524D01*
X10299762Y-15237524D02*
X10280714Y-15237524D01*
X10280714Y-15237524D02*
X10261667Y-15228000D01*
X10261667Y-15228000D02*
X10252143Y-15218476D01*
X10252143Y-15218476D02*
X10242619Y-15199428D01*
X10242619Y-15199428D02*
X10233095Y-15161333D01*
X10233095Y-15161333D02*
X10233095Y-15113714D01*
X10233095Y-15113714D02*
X10242619Y-15075619D01*
X10242619Y-15075619D02*
X10252143Y-15056571D01*
X10252143Y-15056571D02*
X10261667Y-15047048D01*
X10261667Y-15047048D02*
X10280714Y-15037524D01*
X10433095Y-15218476D02*
X10442619Y-15228000D01*
X10442619Y-15228000D02*
X10433095Y-15237524D01*
X10433095Y-15237524D02*
X10423571Y-15228000D01*
X10423571Y-15228000D02*
X10433095Y-15218476D01*
X10433095Y-15218476D02*
X10433095Y-15237524D01*
X10614048Y-15037524D02*
X10575952Y-15037524D01*
X10575952Y-15037524D02*
X10556905Y-15047048D01*
X10556905Y-15047048D02*
X10547381Y-15056571D01*
X10547381Y-15056571D02*
X10528333Y-15085143D01*
X10528333Y-15085143D02*
X10518810Y-15123238D01*
X10518810Y-15123238D02*
X10518810Y-15199428D01*
X10518810Y-15199428D02*
X10528333Y-15218476D01*
X10528333Y-15218476D02*
X10537857Y-15228000D01*
X10537857Y-15228000D02*
X10556905Y-15237524D01*
X10556905Y-15237524D02*
X10595000Y-15237524D01*
X10595000Y-15237524D02*
X10614048Y-15228000D01*
X10614048Y-15228000D02*
X10623571Y-15218476D01*
X10623571Y-15218476D02*
X10633095Y-15199428D01*
X10633095Y-15199428D02*
X10633095Y-15151809D01*
X10633095Y-15151809D02*
X10623571Y-15132762D01*
X10623571Y-15132762D02*
X10614048Y-15123238D01*
X10614048Y-15123238D02*
X10595000Y-15113714D01*
X10595000Y-15113714D02*
X10556905Y-15113714D01*
X10556905Y-15113714D02*
X10537857Y-15123238D01*
X10537857Y-15123238D02*
X10528333Y-15132762D01*
X10528333Y-15132762D02*
X10518810Y-15151809D01*
X10756905Y-15037524D02*
X10775952Y-15037524D01*
X10775952Y-15037524D02*
X10795000Y-15047048D01*
X10795000Y-15047048D02*
X10804524Y-15056571D01*
X10804524Y-15056571D02*
X10814048Y-15075619D01*
X10814048Y-15075619D02*
X10823571Y-15113714D01*
X10823571Y-15113714D02*
X10823571Y-15161333D01*
X10823571Y-15161333D02*
X10814048Y-15199428D01*
X10814048Y-15199428D02*
X10804524Y-15218476D01*
X10804524Y-15218476D02*
X10795000Y-15228000D01*
X10795000Y-15228000D02*
X10775952Y-15237524D01*
X10775952Y-15237524D02*
X10756905Y-15237524D01*
X10756905Y-15237524D02*
X10737857Y-15228000D01*
X10737857Y-15228000D02*
X10728333Y-15218476D01*
X10728333Y-15218476D02*
X10718810Y-15199428D01*
X10718810Y-15199428D02*
X10709286Y-15161333D01*
X10709286Y-15161333D02*
X10709286Y-15113714D01*
X10709286Y-15113714D02*
X10718810Y-15075619D01*
X10718810Y-15075619D02*
X10728333Y-15056571D01*
X10728333Y-15056571D02*
X10737857Y-15047048D01*
X10737857Y-15047048D02*
X10756905Y-15037524D01*
X10947381Y-15037524D02*
X10966429Y-15037524D01*
X10966429Y-15037524D02*
X10985476Y-15047048D01*
X10985476Y-15047048D02*
X10995000Y-15056571D01*
X10995000Y-15056571D02*
X11004524Y-15075619D01*
X11004524Y-15075619D02*
X11014048Y-15113714D01*
X11014048Y-15113714D02*
X11014048Y-15161333D01*
X11014048Y-15161333D02*
X11004524Y-15199428D01*
X11004524Y-15199428D02*
X10995000Y-15218476D01*
X10995000Y-15218476D02*
X10985476Y-15228000D01*
X10985476Y-15228000D02*
X10966429Y-15237524D01*
X10966429Y-15237524D02*
X10947381Y-15237524D01*
X10947381Y-15237524D02*
X10928333Y-15228000D01*
X10928333Y-15228000D02*
X10918810Y-15218476D01*
X10918810Y-15218476D02*
X10909286Y-15199428D01*
X10909286Y-15199428D02*
X10899762Y-15161333D01*
X10899762Y-15161333D02*
X10899762Y-15113714D01*
X10899762Y-15113714D02*
X10909286Y-15075619D01*
X10909286Y-15075619D02*
X10918810Y-15056571D01*
X10918810Y-15056571D02*
X10928333Y-15047048D01*
X10928333Y-15047048D02*
X10947381Y-15037524D01*
X11099762Y-15237524D02*
X11099762Y-15104190D01*
X11099762Y-15123238D02*
X11109286Y-15113714D01*
X11109286Y-15113714D02*
X11128333Y-15104190D01*
X11128333Y-15104190D02*
X11156905Y-15104190D01*
X11156905Y-15104190D02*
X11175952Y-15113714D01*
X11175952Y-15113714D02*
X11185476Y-15132762D01*
X11185476Y-15132762D02*
X11185476Y-15237524D01*
X11185476Y-15132762D02*
X11195000Y-15113714D01*
X11195000Y-15113714D02*
X11214048Y-15104190D01*
X11214048Y-15104190D02*
X11242619Y-15104190D01*
X11242619Y-15104190D02*
X11261667Y-15113714D01*
X11261667Y-15113714D02*
X11271190Y-15132762D01*
X11271190Y-15132762D02*
X11271190Y-15237524D01*
X11366429Y-15237524D02*
X11366429Y-15104190D01*
X11366429Y-15123238D02*
X11375952Y-15113714D01*
X11375952Y-15113714D02*
X11395000Y-15104190D01*
X11395000Y-15104190D02*
X11423571Y-15104190D01*
X11423571Y-15104190D02*
X11442619Y-15113714D01*
X11442619Y-15113714D02*
X11452143Y-15132762D01*
X11452143Y-15132762D02*
X11452143Y-15237524D01*
X11452143Y-15132762D02*
X11461667Y-15113714D01*
X11461667Y-15113714D02*
X11480714Y-15104190D01*
X11480714Y-15104190D02*
X11509286Y-15104190D01*
X11509286Y-15104190D02*
X11528333Y-15113714D01*
X11528333Y-15113714D02*
X11537857Y-15132762D01*
X11537857Y-15132762D02*
X11537857Y-15237524D01*
X11928333Y-15028000D02*
X11756905Y-15285143D01*
X12185476Y-15037524D02*
X12204524Y-15037524D01*
X12204524Y-15037524D02*
X12223572Y-15047048D01*
X12223572Y-15047048D02*
X12233095Y-15056571D01*
X12233095Y-15056571D02*
X12242619Y-15075619D01*
X12242619Y-15075619D02*
X12252143Y-15113714D01*
X12252143Y-15113714D02*
X12252143Y-15161333D01*
X12252143Y-15161333D02*
X12242619Y-15199428D01*
X12242619Y-15199428D02*
X12233095Y-15218476D01*
X12233095Y-15218476D02*
X12223572Y-15228000D01*
X12223572Y-15228000D02*
X12204524Y-15237524D01*
X12204524Y-15237524D02*
X12185476Y-15237524D01*
X12185476Y-15237524D02*
X12166429Y-15228000D01*
X12166429Y-15228000D02*
X12156905Y-15218476D01*
X12156905Y-15218476D02*
X12147381Y-15199428D01*
X12147381Y-15199428D02*
X12137857Y-15161333D01*
X12137857Y-15161333D02*
X12137857Y-15113714D01*
X12137857Y-15113714D02*
X12147381Y-15075619D01*
X12147381Y-15075619D02*
X12156905Y-15056571D01*
X12156905Y-15056571D02*
X12166429Y-15047048D01*
X12166429Y-15047048D02*
X12185476Y-15037524D01*
X12337857Y-15218476D02*
X12347381Y-15228000D01*
X12347381Y-15228000D02*
X12337857Y-15237524D01*
X12337857Y-15237524D02*
X12328333Y-15228000D01*
X12328333Y-15228000D02*
X12337857Y-15218476D01*
X12337857Y-15218476D02*
X12337857Y-15237524D01*
X12471191Y-15037524D02*
X12490238Y-15037524D01*
X12490238Y-15037524D02*
X12509286Y-15047048D01*
X12509286Y-15047048D02*
X12518810Y-15056571D01*
X12518810Y-15056571D02*
X12528333Y-15075619D01*
X12528333Y-15075619D02*
X12537857Y-15113714D01*
X12537857Y-15113714D02*
X12537857Y-15161333D01*
X12537857Y-15161333D02*
X12528333Y-15199428D01*
X12528333Y-15199428D02*
X12518810Y-15218476D01*
X12518810Y-15218476D02*
X12509286Y-15228000D01*
X12509286Y-15228000D02*
X12490238Y-15237524D01*
X12490238Y-15237524D02*
X12471191Y-15237524D01*
X12471191Y-15237524D02*
X12452143Y-15228000D01*
X12452143Y-15228000D02*
X12442619Y-15218476D01*
X12442619Y-15218476D02*
X12433095Y-15199428D01*
X12433095Y-15199428D02*
X12423572Y-15161333D01*
X12423572Y-15161333D02*
X12423572Y-15113714D01*
X12423572Y-15113714D02*
X12433095Y-15075619D01*
X12433095Y-15075619D02*
X12442619Y-15056571D01*
X12442619Y-15056571D02*
X12452143Y-15047048D01*
X12452143Y-15047048D02*
X12471191Y-15037524D01*
X12614048Y-15056571D02*
X12623572Y-15047048D01*
X12623572Y-15047048D02*
X12642619Y-15037524D01*
X12642619Y-15037524D02*
X12690238Y-15037524D01*
X12690238Y-15037524D02*
X12709286Y-15047048D01*
X12709286Y-15047048D02*
X12718810Y-15056571D01*
X12718810Y-15056571D02*
X12728333Y-15075619D01*
X12728333Y-15075619D02*
X12728333Y-15094667D01*
X12728333Y-15094667D02*
X12718810Y-15123238D01*
X12718810Y-15123238D02*
X12604524Y-15237524D01*
X12604524Y-15237524D02*
X12728333Y-15237524D01*
X12795000Y-15037524D02*
X12918810Y-15037524D01*
X12918810Y-15037524D02*
X12852143Y-15113714D01*
X12852143Y-15113714D02*
X12880714Y-15113714D01*
X12880714Y-15113714D02*
X12899762Y-15123238D01*
X12899762Y-15123238D02*
X12909286Y-15132762D01*
X12909286Y-15132762D02*
X12918810Y-15151809D01*
X12918810Y-15151809D02*
X12918810Y-15199428D01*
X12918810Y-15199428D02*
X12909286Y-15218476D01*
X12909286Y-15218476D02*
X12899762Y-15228000D01*
X12899762Y-15228000D02*
X12880714Y-15237524D01*
X12880714Y-15237524D02*
X12823572Y-15237524D01*
X12823572Y-15237524D02*
X12804524Y-15228000D01*
X12804524Y-15228000D02*
X12795000Y-15218476D01*
X13090238Y-15037524D02*
X13052143Y-15037524D01*
X13052143Y-15037524D02*
X13033095Y-15047048D01*
X13033095Y-15047048D02*
X13023572Y-15056571D01*
X13023572Y-15056571D02*
X13004524Y-15085143D01*
X13004524Y-15085143D02*
X12995000Y-15123238D01*
X12995000Y-15123238D02*
X12995000Y-15199428D01*
X12995000Y-15199428D02*
X13004524Y-15218476D01*
X13004524Y-15218476D02*
X13014048Y-15228000D01*
X13014048Y-15228000D02*
X13033095Y-15237524D01*
X13033095Y-15237524D02*
X13071191Y-15237524D01*
X13071191Y-15237524D02*
X13090238Y-15228000D01*
X13090238Y-15228000D02*
X13099762Y-15218476D01*
X13099762Y-15218476D02*
X13109286Y-15199428D01*
X13109286Y-15199428D02*
X13109286Y-15151809D01*
X13109286Y-15151809D02*
X13099762Y-15132762D01*
X13099762Y-15132762D02*
X13090238Y-15123238D01*
X13090238Y-15123238D02*
X13071191Y-15113714D01*
X13071191Y-15113714D02*
X13033095Y-15113714D01*
X13033095Y-15113714D02*
X13014048Y-15123238D01*
X13014048Y-15123238D02*
X13004524Y-15132762D01*
X13004524Y-15132762D02*
X12995000Y-15151809D01*
X13185476Y-15037524D02*
X13185476Y-15075619D01*
X13261667Y-15037524D02*
X13261667Y-15075619D01*
X13556905Y-15313714D02*
X13547381Y-15304190D01*
X13547381Y-15304190D02*
X13528334Y-15275619D01*
X13528334Y-15275619D02*
X13518810Y-15256571D01*
X13518810Y-15256571D02*
X13509286Y-15228000D01*
X13509286Y-15228000D02*
X13499762Y-15180381D01*
X13499762Y-15180381D02*
X13499762Y-15142286D01*
X13499762Y-15142286D02*
X13509286Y-15094667D01*
X13509286Y-15094667D02*
X13518810Y-15066095D01*
X13518810Y-15066095D02*
X13528334Y-15047048D01*
X13528334Y-15047048D02*
X13547381Y-15018476D01*
X13547381Y-15018476D02*
X13556905Y-15008952D01*
X13623572Y-15056571D02*
X13633095Y-15047048D01*
X13633095Y-15047048D02*
X13652143Y-15037524D01*
X13652143Y-15037524D02*
X13699762Y-15037524D01*
X13699762Y-15037524D02*
X13718810Y-15047048D01*
X13718810Y-15047048D02*
X13728334Y-15056571D01*
X13728334Y-15056571D02*
X13737857Y-15075619D01*
X13737857Y-15075619D02*
X13737857Y-15094667D01*
X13737857Y-15094667D02*
X13728334Y-15123238D01*
X13728334Y-15123238D02*
X13614048Y-15237524D01*
X13614048Y-15237524D02*
X13737857Y-15237524D01*
X13975953Y-15237524D02*
X13975953Y-15037524D01*
X14061667Y-15237524D02*
X14061667Y-15132762D01*
X14061667Y-15132762D02*
X14052143Y-15113714D01*
X14052143Y-15113714D02*
X14033096Y-15104190D01*
X14033096Y-15104190D02*
X14004524Y-15104190D01*
X14004524Y-15104190D02*
X13985476Y-15113714D01*
X13985476Y-15113714D02*
X13975953Y-15123238D01*
X14185476Y-15237524D02*
X14166429Y-15228000D01*
X14166429Y-15228000D02*
X14156905Y-15218476D01*
X14156905Y-15218476D02*
X14147381Y-15199428D01*
X14147381Y-15199428D02*
X14147381Y-15142286D01*
X14147381Y-15142286D02*
X14156905Y-15123238D01*
X14156905Y-15123238D02*
X14166429Y-15113714D01*
X14166429Y-15113714D02*
X14185476Y-15104190D01*
X14185476Y-15104190D02*
X14214048Y-15104190D01*
X14214048Y-15104190D02*
X14233096Y-15113714D01*
X14233096Y-15113714D02*
X14242619Y-15123238D01*
X14242619Y-15123238D02*
X14252143Y-15142286D01*
X14252143Y-15142286D02*
X14252143Y-15199428D01*
X14252143Y-15199428D02*
X14242619Y-15218476D01*
X14242619Y-15218476D02*
X14233096Y-15228000D01*
X14233096Y-15228000D02*
X14214048Y-15237524D01*
X14214048Y-15237524D02*
X14185476Y-15237524D01*
X14366429Y-15237524D02*
X14347381Y-15228000D01*
X14347381Y-15228000D02*
X14337857Y-15208952D01*
X14337857Y-15208952D02*
X14337857Y-15037524D01*
X14518810Y-15228000D02*
X14499762Y-15237524D01*
X14499762Y-15237524D02*
X14461667Y-15237524D01*
X14461667Y-15237524D02*
X14442619Y-15228000D01*
X14442619Y-15228000D02*
X14433096Y-15208952D01*
X14433096Y-15208952D02*
X14433096Y-15132762D01*
X14433096Y-15132762D02*
X14442619Y-15113714D01*
X14442619Y-15113714D02*
X14461667Y-15104190D01*
X14461667Y-15104190D02*
X14499762Y-15104190D01*
X14499762Y-15104190D02*
X14518810Y-15113714D01*
X14518810Y-15113714D02*
X14528334Y-15132762D01*
X14528334Y-15132762D02*
X14528334Y-15151809D01*
X14528334Y-15151809D02*
X14433096Y-15170857D01*
X14604524Y-15228000D02*
X14623572Y-15237524D01*
X14623572Y-15237524D02*
X14661667Y-15237524D01*
X14661667Y-15237524D02*
X14680715Y-15228000D01*
X14680715Y-15228000D02*
X14690238Y-15208952D01*
X14690238Y-15208952D02*
X14690238Y-15199428D01*
X14690238Y-15199428D02*
X14680715Y-15180381D01*
X14680715Y-15180381D02*
X14661667Y-15170857D01*
X14661667Y-15170857D02*
X14633096Y-15170857D01*
X14633096Y-15170857D02*
X14614048Y-15161333D01*
X14614048Y-15161333D02*
X14604524Y-15142286D01*
X14604524Y-15142286D02*
X14604524Y-15132762D01*
X14604524Y-15132762D02*
X14614048Y-15113714D01*
X14614048Y-15113714D02*
X14633096Y-15104190D01*
X14633096Y-15104190D02*
X14661667Y-15104190D01*
X14661667Y-15104190D02*
X14680715Y-15113714D01*
X14756905Y-15313714D02*
X14766429Y-15304190D01*
X14766429Y-15304190D02*
X14785477Y-15275619D01*
X14785477Y-15275619D02*
X14795000Y-15256571D01*
X14795000Y-15256571D02*
X14804524Y-15228000D01*
X14804524Y-15228000D02*
X14814048Y-15180381D01*
X14814048Y-15180381D02*
X14814048Y-15142286D01*
X14814048Y-15142286D02*
X14804524Y-15094667D01*
X14804524Y-15094667D02*
X14795000Y-15066095D01*
X14795000Y-15066095D02*
X14785477Y-15047048D01*
X14785477Y-15047048D02*
X14766429Y-15018476D01*
X14766429Y-15018476D02*
X14756905Y-15008952D01*
X15118810Y-15313714D02*
X15109286Y-15304190D01*
X15109286Y-15304190D02*
X15090238Y-15275619D01*
X15090238Y-15275619D02*
X15080715Y-15256571D01*
X15080715Y-15256571D02*
X15071191Y-15228000D01*
X15071191Y-15228000D02*
X15061667Y-15180381D01*
X15061667Y-15180381D02*
X15061667Y-15142286D01*
X15061667Y-15142286D02*
X15071191Y-15094667D01*
X15071191Y-15094667D02*
X15080715Y-15066095D01*
X15080715Y-15066095D02*
X15090238Y-15047048D01*
X15090238Y-15047048D02*
X15109286Y-15018476D01*
X15109286Y-15018476D02*
X15118810Y-15008952D01*
X15195000Y-15104190D02*
X15195000Y-15237524D01*
X15195000Y-15123238D02*
X15204524Y-15113714D01*
X15204524Y-15113714D02*
X15223572Y-15104190D01*
X15223572Y-15104190D02*
X15252143Y-15104190D01*
X15252143Y-15104190D02*
X15271191Y-15113714D01*
X15271191Y-15113714D02*
X15280715Y-15132762D01*
X15280715Y-15132762D02*
X15280715Y-15237524D01*
X15404524Y-15237524D02*
X15385477Y-15228000D01*
X15385477Y-15228000D02*
X15375953Y-15218476D01*
X15375953Y-15218476D02*
X15366429Y-15199428D01*
X15366429Y-15199428D02*
X15366429Y-15142286D01*
X15366429Y-15142286D02*
X15375953Y-15123238D01*
X15375953Y-15123238D02*
X15385477Y-15113714D01*
X15385477Y-15113714D02*
X15404524Y-15104190D01*
X15404524Y-15104190D02*
X15433096Y-15104190D01*
X15433096Y-15104190D02*
X15452143Y-15113714D01*
X15452143Y-15113714D02*
X15461667Y-15123238D01*
X15461667Y-15123238D02*
X15471191Y-15142286D01*
X15471191Y-15142286D02*
X15471191Y-15199428D01*
X15471191Y-15199428D02*
X15461667Y-15218476D01*
X15461667Y-15218476D02*
X15452143Y-15228000D01*
X15452143Y-15228000D02*
X15433096Y-15237524D01*
X15433096Y-15237524D02*
X15404524Y-15237524D01*
X15528334Y-15104190D02*
X15604524Y-15104190D01*
X15556905Y-15037524D02*
X15556905Y-15208952D01*
X15556905Y-15208952D02*
X15566429Y-15228000D01*
X15566429Y-15228000D02*
X15585477Y-15237524D01*
X15585477Y-15237524D02*
X15604524Y-15237524D01*
X15823572Y-15104190D02*
X15823572Y-15304190D01*
X15823572Y-15113714D02*
X15842619Y-15104190D01*
X15842619Y-15104190D02*
X15880715Y-15104190D01*
X15880715Y-15104190D02*
X15899762Y-15113714D01*
X15899762Y-15113714D02*
X15909286Y-15123238D01*
X15909286Y-15123238D02*
X15918810Y-15142286D01*
X15918810Y-15142286D02*
X15918810Y-15199428D01*
X15918810Y-15199428D02*
X15909286Y-15218476D01*
X15909286Y-15218476D02*
X15899762Y-15228000D01*
X15899762Y-15228000D02*
X15880715Y-15237524D01*
X15880715Y-15237524D02*
X15842619Y-15237524D01*
X15842619Y-15237524D02*
X15823572Y-15228000D01*
X16033096Y-15237524D02*
X16014048Y-15228000D01*
X16014048Y-15228000D02*
X16004524Y-15208952D01*
X16004524Y-15208952D02*
X16004524Y-15037524D01*
X16195000Y-15237524D02*
X16195000Y-15132762D01*
X16195000Y-15132762D02*
X16185477Y-15113714D01*
X16185477Y-15113714D02*
X16166429Y-15104190D01*
X16166429Y-15104190D02*
X16128334Y-15104190D01*
X16128334Y-15104190D02*
X16109286Y-15113714D01*
X16195000Y-15228000D02*
X16175953Y-15237524D01*
X16175953Y-15237524D02*
X16128334Y-15237524D01*
X16128334Y-15237524D02*
X16109286Y-15228000D01*
X16109286Y-15228000D02*
X16099762Y-15208952D01*
X16099762Y-15208952D02*
X16099762Y-15189905D01*
X16099762Y-15189905D02*
X16109286Y-15170857D01*
X16109286Y-15170857D02*
X16128334Y-15161333D01*
X16128334Y-15161333D02*
X16175953Y-15161333D01*
X16175953Y-15161333D02*
X16195000Y-15151809D01*
X16261667Y-15104190D02*
X16337858Y-15104190D01*
X16290239Y-15037524D02*
X16290239Y-15208952D01*
X16290239Y-15208952D02*
X16299762Y-15228000D01*
X16299762Y-15228000D02*
X16318810Y-15237524D01*
X16318810Y-15237524D02*
X16337858Y-15237524D01*
X16480715Y-15228000D02*
X16461667Y-15237524D01*
X16461667Y-15237524D02*
X16423572Y-15237524D01*
X16423572Y-15237524D02*
X16404524Y-15228000D01*
X16404524Y-15228000D02*
X16395000Y-15208952D01*
X16395000Y-15208952D02*
X16395000Y-15132762D01*
X16395000Y-15132762D02*
X16404524Y-15113714D01*
X16404524Y-15113714D02*
X16423572Y-15104190D01*
X16423572Y-15104190D02*
X16461667Y-15104190D01*
X16461667Y-15104190D02*
X16480715Y-15113714D01*
X16480715Y-15113714D02*
X16490239Y-15132762D01*
X16490239Y-15132762D02*
X16490239Y-15151809D01*
X16490239Y-15151809D02*
X16395000Y-15170857D01*
X16661667Y-15237524D02*
X16661667Y-15037524D01*
X16661667Y-15228000D02*
X16642620Y-15237524D01*
X16642620Y-15237524D02*
X16604524Y-15237524D01*
X16604524Y-15237524D02*
X16585477Y-15228000D01*
X16585477Y-15228000D02*
X16575953Y-15218476D01*
X16575953Y-15218476D02*
X16566429Y-15199428D01*
X16566429Y-15199428D02*
X16566429Y-15142286D01*
X16566429Y-15142286D02*
X16575953Y-15123238D01*
X16575953Y-15123238D02*
X16585477Y-15113714D01*
X16585477Y-15113714D02*
X16604524Y-15104190D01*
X16604524Y-15104190D02*
X16642620Y-15104190D01*
X16642620Y-15104190D02*
X16661667Y-15113714D01*
X16737858Y-15313714D02*
X16747381Y-15304190D01*
X16747381Y-15304190D02*
X16766429Y-15275619D01*
X16766429Y-15275619D02*
X16775953Y-15256571D01*
X16775953Y-15256571D02*
X16785477Y-15228000D01*
X16785477Y-15228000D02*
X16795001Y-15180381D01*
X16795001Y-15180381D02*
X16795001Y-15142286D01*
X16795001Y-15142286D02*
X16785477Y-15094667D01*
X16785477Y-15094667D02*
X16775953Y-15066095D01*
X16775953Y-15066095D02*
X16766429Y-15047048D01*
X16766429Y-15047048D02*
X16747381Y-15018476D01*
X16747381Y-15018476D02*
X16737858Y-15008952D01*
D13*
X9995000Y-15409000D02*
G75*
G03*
X9995000Y-15409000I-47500J0D01*
G01*
D11*
X10280714Y-15301524D02*
X10299762Y-15301524D01*
X10299762Y-15301524D02*
X10318810Y-15311048D01*
X10318810Y-15311048D02*
X10328333Y-15320571D01*
X10328333Y-15320571D02*
X10337857Y-15339619D01*
X10337857Y-15339619D02*
X10347381Y-15377714D01*
X10347381Y-15377714D02*
X10347381Y-15425333D01*
X10347381Y-15425333D02*
X10337857Y-15463428D01*
X10337857Y-15463428D02*
X10328333Y-15482476D01*
X10328333Y-15482476D02*
X10318810Y-15492000D01*
X10318810Y-15492000D02*
X10299762Y-15501524D01*
X10299762Y-15501524D02*
X10280714Y-15501524D01*
X10280714Y-15501524D02*
X10261667Y-15492000D01*
X10261667Y-15492000D02*
X10252143Y-15482476D01*
X10252143Y-15482476D02*
X10242619Y-15463428D01*
X10242619Y-15463428D02*
X10233095Y-15425333D01*
X10233095Y-15425333D02*
X10233095Y-15377714D01*
X10233095Y-15377714D02*
X10242619Y-15339619D01*
X10242619Y-15339619D02*
X10252143Y-15320571D01*
X10252143Y-15320571D02*
X10261667Y-15311048D01*
X10261667Y-15311048D02*
X10280714Y-15301524D01*
X10433095Y-15482476D02*
X10442619Y-15492000D01*
X10442619Y-15492000D02*
X10433095Y-15501524D01*
X10433095Y-15501524D02*
X10423571Y-15492000D01*
X10423571Y-15492000D02*
X10433095Y-15482476D01*
X10433095Y-15482476D02*
X10433095Y-15501524D01*
X10537857Y-15501524D02*
X10575952Y-15501524D01*
X10575952Y-15501524D02*
X10595000Y-15492000D01*
X10595000Y-15492000D02*
X10604524Y-15482476D01*
X10604524Y-15482476D02*
X10623571Y-15453905D01*
X10623571Y-15453905D02*
X10633095Y-15415809D01*
X10633095Y-15415809D02*
X10633095Y-15339619D01*
X10633095Y-15339619D02*
X10623571Y-15320571D01*
X10623571Y-15320571D02*
X10614048Y-15311048D01*
X10614048Y-15311048D02*
X10595000Y-15301524D01*
X10595000Y-15301524D02*
X10556905Y-15301524D01*
X10556905Y-15301524D02*
X10537857Y-15311048D01*
X10537857Y-15311048D02*
X10528333Y-15320571D01*
X10528333Y-15320571D02*
X10518810Y-15339619D01*
X10518810Y-15339619D02*
X10518810Y-15387238D01*
X10518810Y-15387238D02*
X10528333Y-15406286D01*
X10528333Y-15406286D02*
X10537857Y-15415809D01*
X10537857Y-15415809D02*
X10556905Y-15425333D01*
X10556905Y-15425333D02*
X10595000Y-15425333D01*
X10595000Y-15425333D02*
X10614048Y-15415809D01*
X10614048Y-15415809D02*
X10623571Y-15406286D01*
X10623571Y-15406286D02*
X10633095Y-15387238D01*
X10814048Y-15301524D02*
X10718810Y-15301524D01*
X10718810Y-15301524D02*
X10709286Y-15396762D01*
X10709286Y-15396762D02*
X10718810Y-15387238D01*
X10718810Y-15387238D02*
X10737857Y-15377714D01*
X10737857Y-15377714D02*
X10785476Y-15377714D01*
X10785476Y-15377714D02*
X10804524Y-15387238D01*
X10804524Y-15387238D02*
X10814048Y-15396762D01*
X10814048Y-15396762D02*
X10823571Y-15415809D01*
X10823571Y-15415809D02*
X10823571Y-15463428D01*
X10823571Y-15463428D02*
X10814048Y-15482476D01*
X10814048Y-15482476D02*
X10804524Y-15492000D01*
X10804524Y-15492000D02*
X10785476Y-15501524D01*
X10785476Y-15501524D02*
X10737857Y-15501524D01*
X10737857Y-15501524D02*
X10718810Y-15492000D01*
X10718810Y-15492000D02*
X10709286Y-15482476D01*
X10947381Y-15301524D02*
X10966429Y-15301524D01*
X10966429Y-15301524D02*
X10985476Y-15311048D01*
X10985476Y-15311048D02*
X10995000Y-15320571D01*
X10995000Y-15320571D02*
X11004524Y-15339619D01*
X11004524Y-15339619D02*
X11014048Y-15377714D01*
X11014048Y-15377714D02*
X11014048Y-15425333D01*
X11014048Y-15425333D02*
X11004524Y-15463428D01*
X11004524Y-15463428D02*
X10995000Y-15482476D01*
X10995000Y-15482476D02*
X10985476Y-15492000D01*
X10985476Y-15492000D02*
X10966429Y-15501524D01*
X10966429Y-15501524D02*
X10947381Y-15501524D01*
X10947381Y-15501524D02*
X10928333Y-15492000D01*
X10928333Y-15492000D02*
X10918810Y-15482476D01*
X10918810Y-15482476D02*
X10909286Y-15463428D01*
X10909286Y-15463428D02*
X10899762Y-15425333D01*
X10899762Y-15425333D02*
X10899762Y-15377714D01*
X10899762Y-15377714D02*
X10909286Y-15339619D01*
X10909286Y-15339619D02*
X10918810Y-15320571D01*
X10918810Y-15320571D02*
X10928333Y-15311048D01*
X10928333Y-15311048D02*
X10947381Y-15301524D01*
X11099762Y-15501524D02*
X11099762Y-15368190D01*
X11099762Y-15387238D02*
X11109286Y-15377714D01*
X11109286Y-15377714D02*
X11128333Y-15368190D01*
X11128333Y-15368190D02*
X11156905Y-15368190D01*
X11156905Y-15368190D02*
X11175952Y-15377714D01*
X11175952Y-15377714D02*
X11185476Y-15396762D01*
X11185476Y-15396762D02*
X11185476Y-15501524D01*
X11185476Y-15396762D02*
X11195000Y-15377714D01*
X11195000Y-15377714D02*
X11214048Y-15368190D01*
X11214048Y-15368190D02*
X11242619Y-15368190D01*
X11242619Y-15368190D02*
X11261667Y-15377714D01*
X11261667Y-15377714D02*
X11271190Y-15396762D01*
X11271190Y-15396762D02*
X11271190Y-15501524D01*
X11366429Y-15501524D02*
X11366429Y-15368190D01*
X11366429Y-15387238D02*
X11375952Y-15377714D01*
X11375952Y-15377714D02*
X11395000Y-15368190D01*
X11395000Y-15368190D02*
X11423571Y-15368190D01*
X11423571Y-15368190D02*
X11442619Y-15377714D01*
X11442619Y-15377714D02*
X11452143Y-15396762D01*
X11452143Y-15396762D02*
X11452143Y-15501524D01*
X11452143Y-15396762D02*
X11461667Y-15377714D01*
X11461667Y-15377714D02*
X11480714Y-15368190D01*
X11480714Y-15368190D02*
X11509286Y-15368190D01*
X11509286Y-15368190D02*
X11528333Y-15377714D01*
X11528333Y-15377714D02*
X11537857Y-15396762D01*
X11537857Y-15396762D02*
X11537857Y-15501524D01*
X11928333Y-15292000D02*
X11756905Y-15549143D01*
X12185476Y-15301524D02*
X12204524Y-15301524D01*
X12204524Y-15301524D02*
X12223572Y-15311048D01*
X12223572Y-15311048D02*
X12233095Y-15320571D01*
X12233095Y-15320571D02*
X12242619Y-15339619D01*
X12242619Y-15339619D02*
X12252143Y-15377714D01*
X12252143Y-15377714D02*
X12252143Y-15425333D01*
X12252143Y-15425333D02*
X12242619Y-15463428D01*
X12242619Y-15463428D02*
X12233095Y-15482476D01*
X12233095Y-15482476D02*
X12223572Y-15492000D01*
X12223572Y-15492000D02*
X12204524Y-15501524D01*
X12204524Y-15501524D02*
X12185476Y-15501524D01*
X12185476Y-15501524D02*
X12166429Y-15492000D01*
X12166429Y-15492000D02*
X12156905Y-15482476D01*
X12156905Y-15482476D02*
X12147381Y-15463428D01*
X12147381Y-15463428D02*
X12137857Y-15425333D01*
X12137857Y-15425333D02*
X12137857Y-15377714D01*
X12137857Y-15377714D02*
X12147381Y-15339619D01*
X12147381Y-15339619D02*
X12156905Y-15320571D01*
X12156905Y-15320571D02*
X12166429Y-15311048D01*
X12166429Y-15311048D02*
X12185476Y-15301524D01*
X12337857Y-15482476D02*
X12347381Y-15492000D01*
X12347381Y-15492000D02*
X12337857Y-15501524D01*
X12337857Y-15501524D02*
X12328333Y-15492000D01*
X12328333Y-15492000D02*
X12337857Y-15482476D01*
X12337857Y-15482476D02*
X12337857Y-15501524D01*
X12471191Y-15301524D02*
X12490238Y-15301524D01*
X12490238Y-15301524D02*
X12509286Y-15311048D01*
X12509286Y-15311048D02*
X12518810Y-15320571D01*
X12518810Y-15320571D02*
X12528333Y-15339619D01*
X12528333Y-15339619D02*
X12537857Y-15377714D01*
X12537857Y-15377714D02*
X12537857Y-15425333D01*
X12537857Y-15425333D02*
X12528333Y-15463428D01*
X12528333Y-15463428D02*
X12518810Y-15482476D01*
X12518810Y-15482476D02*
X12509286Y-15492000D01*
X12509286Y-15492000D02*
X12490238Y-15501524D01*
X12490238Y-15501524D02*
X12471191Y-15501524D01*
X12471191Y-15501524D02*
X12452143Y-15492000D01*
X12452143Y-15492000D02*
X12442619Y-15482476D01*
X12442619Y-15482476D02*
X12433095Y-15463428D01*
X12433095Y-15463428D02*
X12423572Y-15425333D01*
X12423572Y-15425333D02*
X12423572Y-15377714D01*
X12423572Y-15377714D02*
X12433095Y-15339619D01*
X12433095Y-15339619D02*
X12442619Y-15320571D01*
X12442619Y-15320571D02*
X12452143Y-15311048D01*
X12452143Y-15311048D02*
X12471191Y-15301524D01*
X12604524Y-15301524D02*
X12728333Y-15301524D01*
X12728333Y-15301524D02*
X12661667Y-15377714D01*
X12661667Y-15377714D02*
X12690238Y-15377714D01*
X12690238Y-15377714D02*
X12709286Y-15387238D01*
X12709286Y-15387238D02*
X12718810Y-15396762D01*
X12718810Y-15396762D02*
X12728333Y-15415809D01*
X12728333Y-15415809D02*
X12728333Y-15463428D01*
X12728333Y-15463428D02*
X12718810Y-15482476D01*
X12718810Y-15482476D02*
X12709286Y-15492000D01*
X12709286Y-15492000D02*
X12690238Y-15501524D01*
X12690238Y-15501524D02*
X12633095Y-15501524D01*
X12633095Y-15501524D02*
X12614048Y-15492000D01*
X12614048Y-15492000D02*
X12604524Y-15482476D01*
X12795000Y-15301524D02*
X12928333Y-15301524D01*
X12928333Y-15301524D02*
X12842619Y-15501524D01*
X13090238Y-15368190D02*
X13090238Y-15501524D01*
X13042619Y-15292000D02*
X12995000Y-15434857D01*
X12995000Y-15434857D02*
X13118810Y-15434857D01*
X13185476Y-15301524D02*
X13185476Y-15339619D01*
X13261667Y-15301524D02*
X13261667Y-15339619D01*
X13556905Y-15577714D02*
X13547381Y-15568190D01*
X13547381Y-15568190D02*
X13528334Y-15539619D01*
X13528334Y-15539619D02*
X13518810Y-15520571D01*
X13518810Y-15520571D02*
X13509286Y-15492000D01*
X13509286Y-15492000D02*
X13499762Y-15444381D01*
X13499762Y-15444381D02*
X13499762Y-15406286D01*
X13499762Y-15406286D02*
X13509286Y-15358667D01*
X13509286Y-15358667D02*
X13518810Y-15330095D01*
X13518810Y-15330095D02*
X13528334Y-15311048D01*
X13528334Y-15311048D02*
X13547381Y-15282476D01*
X13547381Y-15282476D02*
X13556905Y-15272952D01*
X13623572Y-15320571D02*
X13633095Y-15311048D01*
X13633095Y-15311048D02*
X13652143Y-15301524D01*
X13652143Y-15301524D02*
X13699762Y-15301524D01*
X13699762Y-15301524D02*
X13718810Y-15311048D01*
X13718810Y-15311048D02*
X13728334Y-15320571D01*
X13728334Y-15320571D02*
X13737857Y-15339619D01*
X13737857Y-15339619D02*
X13737857Y-15358667D01*
X13737857Y-15358667D02*
X13728334Y-15387238D01*
X13728334Y-15387238D02*
X13614048Y-15501524D01*
X13614048Y-15501524D02*
X13737857Y-15501524D01*
X13975953Y-15501524D02*
X13975953Y-15301524D01*
X14061667Y-15501524D02*
X14061667Y-15396762D01*
X14061667Y-15396762D02*
X14052143Y-15377714D01*
X14052143Y-15377714D02*
X14033096Y-15368190D01*
X14033096Y-15368190D02*
X14004524Y-15368190D01*
X14004524Y-15368190D02*
X13985476Y-15377714D01*
X13985476Y-15377714D02*
X13975953Y-15387238D01*
X14185476Y-15501524D02*
X14166429Y-15492000D01*
X14166429Y-15492000D02*
X14156905Y-15482476D01*
X14156905Y-15482476D02*
X14147381Y-15463428D01*
X14147381Y-15463428D02*
X14147381Y-15406286D01*
X14147381Y-15406286D02*
X14156905Y-15387238D01*
X14156905Y-15387238D02*
X14166429Y-15377714D01*
X14166429Y-15377714D02*
X14185476Y-15368190D01*
X14185476Y-15368190D02*
X14214048Y-15368190D01*
X14214048Y-15368190D02*
X14233096Y-15377714D01*
X14233096Y-15377714D02*
X14242619Y-15387238D01*
X14242619Y-15387238D02*
X14252143Y-15406286D01*
X14252143Y-15406286D02*
X14252143Y-15463428D01*
X14252143Y-15463428D02*
X14242619Y-15482476D01*
X14242619Y-15482476D02*
X14233096Y-15492000D01*
X14233096Y-15492000D02*
X14214048Y-15501524D01*
X14214048Y-15501524D02*
X14185476Y-15501524D01*
X14366429Y-15501524D02*
X14347381Y-15492000D01*
X14347381Y-15492000D02*
X14337857Y-15472952D01*
X14337857Y-15472952D02*
X14337857Y-15301524D01*
X14518810Y-15492000D02*
X14499762Y-15501524D01*
X14499762Y-15501524D02*
X14461667Y-15501524D01*
X14461667Y-15501524D02*
X14442619Y-15492000D01*
X14442619Y-15492000D02*
X14433096Y-15472952D01*
X14433096Y-15472952D02*
X14433096Y-15396762D01*
X14433096Y-15396762D02*
X14442619Y-15377714D01*
X14442619Y-15377714D02*
X14461667Y-15368190D01*
X14461667Y-15368190D02*
X14499762Y-15368190D01*
X14499762Y-15368190D02*
X14518810Y-15377714D01*
X14518810Y-15377714D02*
X14528334Y-15396762D01*
X14528334Y-15396762D02*
X14528334Y-15415809D01*
X14528334Y-15415809D02*
X14433096Y-15434857D01*
X14604524Y-15492000D02*
X14623572Y-15501524D01*
X14623572Y-15501524D02*
X14661667Y-15501524D01*
X14661667Y-15501524D02*
X14680715Y-15492000D01*
X14680715Y-15492000D02*
X14690238Y-15472952D01*
X14690238Y-15472952D02*
X14690238Y-15463428D01*
X14690238Y-15463428D02*
X14680715Y-15444381D01*
X14680715Y-15444381D02*
X14661667Y-15434857D01*
X14661667Y-15434857D02*
X14633096Y-15434857D01*
X14633096Y-15434857D02*
X14614048Y-15425333D01*
X14614048Y-15425333D02*
X14604524Y-15406286D01*
X14604524Y-15406286D02*
X14604524Y-15396762D01*
X14604524Y-15396762D02*
X14614048Y-15377714D01*
X14614048Y-15377714D02*
X14633096Y-15368190D01*
X14633096Y-15368190D02*
X14661667Y-15368190D01*
X14661667Y-15368190D02*
X14680715Y-15377714D01*
X14756905Y-15577714D02*
X14766429Y-15568190D01*
X14766429Y-15568190D02*
X14785477Y-15539619D01*
X14785477Y-15539619D02*
X14795000Y-15520571D01*
X14795000Y-15520571D02*
X14804524Y-15492000D01*
X14804524Y-15492000D02*
X14814048Y-15444381D01*
X14814048Y-15444381D02*
X14814048Y-15406286D01*
X14814048Y-15406286D02*
X14804524Y-15358667D01*
X14804524Y-15358667D02*
X14795000Y-15330095D01*
X14795000Y-15330095D02*
X14785477Y-15311048D01*
X14785477Y-15311048D02*
X14766429Y-15282476D01*
X14766429Y-15282476D02*
X14756905Y-15272952D01*
X15118810Y-15577714D02*
X15109286Y-15568190D01*
X15109286Y-15568190D02*
X15090238Y-15539619D01*
X15090238Y-15539619D02*
X15080715Y-15520571D01*
X15080715Y-15520571D02*
X15071191Y-15492000D01*
X15071191Y-15492000D02*
X15061667Y-15444381D01*
X15061667Y-15444381D02*
X15061667Y-15406286D01*
X15061667Y-15406286D02*
X15071191Y-15358667D01*
X15071191Y-15358667D02*
X15080715Y-15330095D01*
X15080715Y-15330095D02*
X15090238Y-15311048D01*
X15090238Y-15311048D02*
X15109286Y-15282476D01*
X15109286Y-15282476D02*
X15118810Y-15272952D01*
X15195000Y-15368190D02*
X15195000Y-15501524D01*
X15195000Y-15387238D02*
X15204524Y-15377714D01*
X15204524Y-15377714D02*
X15223572Y-15368190D01*
X15223572Y-15368190D02*
X15252143Y-15368190D01*
X15252143Y-15368190D02*
X15271191Y-15377714D01*
X15271191Y-15377714D02*
X15280715Y-15396762D01*
X15280715Y-15396762D02*
X15280715Y-15501524D01*
X15404524Y-15501524D02*
X15385477Y-15492000D01*
X15385477Y-15492000D02*
X15375953Y-15482476D01*
X15375953Y-15482476D02*
X15366429Y-15463428D01*
X15366429Y-15463428D02*
X15366429Y-15406286D01*
X15366429Y-15406286D02*
X15375953Y-15387238D01*
X15375953Y-15387238D02*
X15385477Y-15377714D01*
X15385477Y-15377714D02*
X15404524Y-15368190D01*
X15404524Y-15368190D02*
X15433096Y-15368190D01*
X15433096Y-15368190D02*
X15452143Y-15377714D01*
X15452143Y-15377714D02*
X15461667Y-15387238D01*
X15461667Y-15387238D02*
X15471191Y-15406286D01*
X15471191Y-15406286D02*
X15471191Y-15463428D01*
X15471191Y-15463428D02*
X15461667Y-15482476D01*
X15461667Y-15482476D02*
X15452143Y-15492000D01*
X15452143Y-15492000D02*
X15433096Y-15501524D01*
X15433096Y-15501524D02*
X15404524Y-15501524D01*
X15528334Y-15368190D02*
X15604524Y-15368190D01*
X15556905Y-15301524D02*
X15556905Y-15472952D01*
X15556905Y-15472952D02*
X15566429Y-15492000D01*
X15566429Y-15492000D02*
X15585477Y-15501524D01*
X15585477Y-15501524D02*
X15604524Y-15501524D01*
X15823572Y-15368190D02*
X15823572Y-15568190D01*
X15823572Y-15377714D02*
X15842619Y-15368190D01*
X15842619Y-15368190D02*
X15880715Y-15368190D01*
X15880715Y-15368190D02*
X15899762Y-15377714D01*
X15899762Y-15377714D02*
X15909286Y-15387238D01*
X15909286Y-15387238D02*
X15918810Y-15406286D01*
X15918810Y-15406286D02*
X15918810Y-15463428D01*
X15918810Y-15463428D02*
X15909286Y-15482476D01*
X15909286Y-15482476D02*
X15899762Y-15492000D01*
X15899762Y-15492000D02*
X15880715Y-15501524D01*
X15880715Y-15501524D02*
X15842619Y-15501524D01*
X15842619Y-15501524D02*
X15823572Y-15492000D01*
X16033096Y-15501524D02*
X16014048Y-15492000D01*
X16014048Y-15492000D02*
X16004524Y-15472952D01*
X16004524Y-15472952D02*
X16004524Y-15301524D01*
X16195000Y-15501524D02*
X16195000Y-15396762D01*
X16195000Y-15396762D02*
X16185477Y-15377714D01*
X16185477Y-15377714D02*
X16166429Y-15368190D01*
X16166429Y-15368190D02*
X16128334Y-15368190D01*
X16128334Y-15368190D02*
X16109286Y-15377714D01*
X16195000Y-15492000D02*
X16175953Y-15501524D01*
X16175953Y-15501524D02*
X16128334Y-15501524D01*
X16128334Y-15501524D02*
X16109286Y-15492000D01*
X16109286Y-15492000D02*
X16099762Y-15472952D01*
X16099762Y-15472952D02*
X16099762Y-15453905D01*
X16099762Y-15453905D02*
X16109286Y-15434857D01*
X16109286Y-15434857D02*
X16128334Y-15425333D01*
X16128334Y-15425333D02*
X16175953Y-15425333D01*
X16175953Y-15425333D02*
X16195000Y-15415809D01*
X16261667Y-15368190D02*
X16337858Y-15368190D01*
X16290239Y-15301524D02*
X16290239Y-15472952D01*
X16290239Y-15472952D02*
X16299762Y-15492000D01*
X16299762Y-15492000D02*
X16318810Y-15501524D01*
X16318810Y-15501524D02*
X16337858Y-15501524D01*
X16480715Y-15492000D02*
X16461667Y-15501524D01*
X16461667Y-15501524D02*
X16423572Y-15501524D01*
X16423572Y-15501524D02*
X16404524Y-15492000D01*
X16404524Y-15492000D02*
X16395000Y-15472952D01*
X16395000Y-15472952D02*
X16395000Y-15396762D01*
X16395000Y-15396762D02*
X16404524Y-15377714D01*
X16404524Y-15377714D02*
X16423572Y-15368190D01*
X16423572Y-15368190D02*
X16461667Y-15368190D01*
X16461667Y-15368190D02*
X16480715Y-15377714D01*
X16480715Y-15377714D02*
X16490239Y-15396762D01*
X16490239Y-15396762D02*
X16490239Y-15415809D01*
X16490239Y-15415809D02*
X16395000Y-15434857D01*
X16661667Y-15501524D02*
X16661667Y-15301524D01*
X16661667Y-15492000D02*
X16642620Y-15501524D01*
X16642620Y-15501524D02*
X16604524Y-15501524D01*
X16604524Y-15501524D02*
X16585477Y-15492000D01*
X16585477Y-15492000D02*
X16575953Y-15482476D01*
X16575953Y-15482476D02*
X16566429Y-15463428D01*
X16566429Y-15463428D02*
X16566429Y-15406286D01*
X16566429Y-15406286D02*
X16575953Y-15387238D01*
X16575953Y-15387238D02*
X16585477Y-15377714D01*
X16585477Y-15377714D02*
X16604524Y-15368190D01*
X16604524Y-15368190D02*
X16642620Y-15368190D01*
X16642620Y-15368190D02*
X16661667Y-15377714D01*
X16737858Y-15577714D02*
X16747381Y-15568190D01*
X16747381Y-15568190D02*
X16766429Y-15539619D01*
X16766429Y-15539619D02*
X16775953Y-15520571D01*
X16775953Y-15520571D02*
X16785477Y-15492000D01*
X16785477Y-15492000D02*
X16795001Y-15444381D01*
X16795001Y-15444381D02*
X16795001Y-15406286D01*
X16795001Y-15406286D02*
X16785477Y-15358667D01*
X16785477Y-15358667D02*
X16775953Y-15330095D01*
X16775953Y-15330095D02*
X16766429Y-15311048D01*
X16766429Y-15311048D02*
X16747381Y-15282476D01*
X16747381Y-15282476D02*
X16737858Y-15272952D01*
D14*
X9945470Y-15623470D02*
X9945470Y-15722530D01*
X9895940Y-15673000D02*
X9995000Y-15673000D01*
D11*
X10280714Y-15565524D02*
X10299762Y-15565524D01*
X10299762Y-15565524D02*
X10318810Y-15575048D01*
X10318810Y-15575048D02*
X10328333Y-15584571D01*
X10328333Y-15584571D02*
X10337857Y-15603619D01*
X10337857Y-15603619D02*
X10347381Y-15641714D01*
X10347381Y-15641714D02*
X10347381Y-15689333D01*
X10347381Y-15689333D02*
X10337857Y-15727428D01*
X10337857Y-15727428D02*
X10328333Y-15746476D01*
X10328333Y-15746476D02*
X10318810Y-15756000D01*
X10318810Y-15756000D02*
X10299762Y-15765524D01*
X10299762Y-15765524D02*
X10280714Y-15765524D01*
X10280714Y-15765524D02*
X10261667Y-15756000D01*
X10261667Y-15756000D02*
X10252143Y-15746476D01*
X10252143Y-15746476D02*
X10242619Y-15727428D01*
X10242619Y-15727428D02*
X10233095Y-15689333D01*
X10233095Y-15689333D02*
X10233095Y-15641714D01*
X10233095Y-15641714D02*
X10242619Y-15603619D01*
X10242619Y-15603619D02*
X10252143Y-15584571D01*
X10252143Y-15584571D02*
X10261667Y-15575048D01*
X10261667Y-15575048D02*
X10280714Y-15565524D01*
X10433095Y-15746476D02*
X10442619Y-15756000D01*
X10442619Y-15756000D02*
X10433095Y-15765524D01*
X10433095Y-15765524D02*
X10423571Y-15756000D01*
X10423571Y-15756000D02*
X10433095Y-15746476D01*
X10433095Y-15746476D02*
X10433095Y-15765524D01*
X10537857Y-15765524D02*
X10575952Y-15765524D01*
X10575952Y-15765524D02*
X10595000Y-15756000D01*
X10595000Y-15756000D02*
X10604524Y-15746476D01*
X10604524Y-15746476D02*
X10623571Y-15717905D01*
X10623571Y-15717905D02*
X10633095Y-15679809D01*
X10633095Y-15679809D02*
X10633095Y-15603619D01*
X10633095Y-15603619D02*
X10623571Y-15584571D01*
X10623571Y-15584571D02*
X10614048Y-15575048D01*
X10614048Y-15575048D02*
X10595000Y-15565524D01*
X10595000Y-15565524D02*
X10556905Y-15565524D01*
X10556905Y-15565524D02*
X10537857Y-15575048D01*
X10537857Y-15575048D02*
X10528333Y-15584571D01*
X10528333Y-15584571D02*
X10518810Y-15603619D01*
X10518810Y-15603619D02*
X10518810Y-15651238D01*
X10518810Y-15651238D02*
X10528333Y-15670286D01*
X10528333Y-15670286D02*
X10537857Y-15679809D01*
X10537857Y-15679809D02*
X10556905Y-15689333D01*
X10556905Y-15689333D02*
X10595000Y-15689333D01*
X10595000Y-15689333D02*
X10614048Y-15679809D01*
X10614048Y-15679809D02*
X10623571Y-15670286D01*
X10623571Y-15670286D02*
X10633095Y-15651238D01*
X10728333Y-15765524D02*
X10766429Y-15765524D01*
X10766429Y-15765524D02*
X10785476Y-15756000D01*
X10785476Y-15756000D02*
X10795000Y-15746476D01*
X10795000Y-15746476D02*
X10814048Y-15717905D01*
X10814048Y-15717905D02*
X10823571Y-15679809D01*
X10823571Y-15679809D02*
X10823571Y-15603619D01*
X10823571Y-15603619D02*
X10814048Y-15584571D01*
X10814048Y-15584571D02*
X10804524Y-15575048D01*
X10804524Y-15575048D02*
X10785476Y-15565524D01*
X10785476Y-15565524D02*
X10747381Y-15565524D01*
X10747381Y-15565524D02*
X10728333Y-15575048D01*
X10728333Y-15575048D02*
X10718810Y-15584571D01*
X10718810Y-15584571D02*
X10709286Y-15603619D01*
X10709286Y-15603619D02*
X10709286Y-15651238D01*
X10709286Y-15651238D02*
X10718810Y-15670286D01*
X10718810Y-15670286D02*
X10728333Y-15679809D01*
X10728333Y-15679809D02*
X10747381Y-15689333D01*
X10747381Y-15689333D02*
X10785476Y-15689333D01*
X10785476Y-15689333D02*
X10804524Y-15679809D01*
X10804524Y-15679809D02*
X10814048Y-15670286D01*
X10814048Y-15670286D02*
X10823571Y-15651238D01*
X11014048Y-15765524D02*
X10899762Y-15765524D01*
X10956905Y-15765524D02*
X10956905Y-15565524D01*
X10956905Y-15565524D02*
X10937857Y-15594095D01*
X10937857Y-15594095D02*
X10918810Y-15613143D01*
X10918810Y-15613143D02*
X10899762Y-15622667D01*
X11099762Y-15765524D02*
X11099762Y-15632190D01*
X11099762Y-15651238D02*
X11109286Y-15641714D01*
X11109286Y-15641714D02*
X11128333Y-15632190D01*
X11128333Y-15632190D02*
X11156905Y-15632190D01*
X11156905Y-15632190D02*
X11175952Y-15641714D01*
X11175952Y-15641714D02*
X11185476Y-15660762D01*
X11185476Y-15660762D02*
X11185476Y-15765524D01*
X11185476Y-15660762D02*
X11195000Y-15641714D01*
X11195000Y-15641714D02*
X11214048Y-15632190D01*
X11214048Y-15632190D02*
X11242619Y-15632190D01*
X11242619Y-15632190D02*
X11261667Y-15641714D01*
X11261667Y-15641714D02*
X11271190Y-15660762D01*
X11271190Y-15660762D02*
X11271190Y-15765524D01*
X11366429Y-15765524D02*
X11366429Y-15632190D01*
X11366429Y-15651238D02*
X11375952Y-15641714D01*
X11375952Y-15641714D02*
X11395000Y-15632190D01*
X11395000Y-15632190D02*
X11423571Y-15632190D01*
X11423571Y-15632190D02*
X11442619Y-15641714D01*
X11442619Y-15641714D02*
X11452143Y-15660762D01*
X11452143Y-15660762D02*
X11452143Y-15765524D01*
X11452143Y-15660762D02*
X11461667Y-15641714D01*
X11461667Y-15641714D02*
X11480714Y-15632190D01*
X11480714Y-15632190D02*
X11509286Y-15632190D01*
X11509286Y-15632190D02*
X11528333Y-15641714D01*
X11528333Y-15641714D02*
X11537857Y-15660762D01*
X11537857Y-15660762D02*
X11537857Y-15765524D01*
X11928333Y-15556000D02*
X11756905Y-15813143D01*
X12185476Y-15565524D02*
X12204524Y-15565524D01*
X12204524Y-15565524D02*
X12223572Y-15575048D01*
X12223572Y-15575048D02*
X12233095Y-15584571D01*
X12233095Y-15584571D02*
X12242619Y-15603619D01*
X12242619Y-15603619D02*
X12252143Y-15641714D01*
X12252143Y-15641714D02*
X12252143Y-15689333D01*
X12252143Y-15689333D02*
X12242619Y-15727428D01*
X12242619Y-15727428D02*
X12233095Y-15746476D01*
X12233095Y-15746476D02*
X12223572Y-15756000D01*
X12223572Y-15756000D02*
X12204524Y-15765524D01*
X12204524Y-15765524D02*
X12185476Y-15765524D01*
X12185476Y-15765524D02*
X12166429Y-15756000D01*
X12166429Y-15756000D02*
X12156905Y-15746476D01*
X12156905Y-15746476D02*
X12147381Y-15727428D01*
X12147381Y-15727428D02*
X12137857Y-15689333D01*
X12137857Y-15689333D02*
X12137857Y-15641714D01*
X12137857Y-15641714D02*
X12147381Y-15603619D01*
X12147381Y-15603619D02*
X12156905Y-15584571D01*
X12156905Y-15584571D02*
X12166429Y-15575048D01*
X12166429Y-15575048D02*
X12185476Y-15565524D01*
X12337857Y-15746476D02*
X12347381Y-15756000D01*
X12347381Y-15756000D02*
X12337857Y-15765524D01*
X12337857Y-15765524D02*
X12328333Y-15756000D01*
X12328333Y-15756000D02*
X12337857Y-15746476D01*
X12337857Y-15746476D02*
X12337857Y-15765524D01*
X12471191Y-15565524D02*
X12490238Y-15565524D01*
X12490238Y-15565524D02*
X12509286Y-15575048D01*
X12509286Y-15575048D02*
X12518810Y-15584571D01*
X12518810Y-15584571D02*
X12528333Y-15603619D01*
X12528333Y-15603619D02*
X12537857Y-15641714D01*
X12537857Y-15641714D02*
X12537857Y-15689333D01*
X12537857Y-15689333D02*
X12528333Y-15727428D01*
X12528333Y-15727428D02*
X12518810Y-15746476D01*
X12518810Y-15746476D02*
X12509286Y-15756000D01*
X12509286Y-15756000D02*
X12490238Y-15765524D01*
X12490238Y-15765524D02*
X12471191Y-15765524D01*
X12471191Y-15765524D02*
X12452143Y-15756000D01*
X12452143Y-15756000D02*
X12442619Y-15746476D01*
X12442619Y-15746476D02*
X12433095Y-15727428D01*
X12433095Y-15727428D02*
X12423572Y-15689333D01*
X12423572Y-15689333D02*
X12423572Y-15641714D01*
X12423572Y-15641714D02*
X12433095Y-15603619D01*
X12433095Y-15603619D02*
X12442619Y-15584571D01*
X12442619Y-15584571D02*
X12452143Y-15575048D01*
X12452143Y-15575048D02*
X12471191Y-15565524D01*
X12604524Y-15565524D02*
X12728333Y-15565524D01*
X12728333Y-15565524D02*
X12661667Y-15641714D01*
X12661667Y-15641714D02*
X12690238Y-15641714D01*
X12690238Y-15641714D02*
X12709286Y-15651238D01*
X12709286Y-15651238D02*
X12718810Y-15660762D01*
X12718810Y-15660762D02*
X12728333Y-15679809D01*
X12728333Y-15679809D02*
X12728333Y-15727428D01*
X12728333Y-15727428D02*
X12718810Y-15746476D01*
X12718810Y-15746476D02*
X12709286Y-15756000D01*
X12709286Y-15756000D02*
X12690238Y-15765524D01*
X12690238Y-15765524D02*
X12633095Y-15765524D01*
X12633095Y-15765524D02*
X12614048Y-15756000D01*
X12614048Y-15756000D02*
X12604524Y-15746476D01*
X12823572Y-15765524D02*
X12861667Y-15765524D01*
X12861667Y-15765524D02*
X12880714Y-15756000D01*
X12880714Y-15756000D02*
X12890238Y-15746476D01*
X12890238Y-15746476D02*
X12909286Y-15717905D01*
X12909286Y-15717905D02*
X12918810Y-15679809D01*
X12918810Y-15679809D02*
X12918810Y-15603619D01*
X12918810Y-15603619D02*
X12909286Y-15584571D01*
X12909286Y-15584571D02*
X12899762Y-15575048D01*
X12899762Y-15575048D02*
X12880714Y-15565524D01*
X12880714Y-15565524D02*
X12842619Y-15565524D01*
X12842619Y-15565524D02*
X12823572Y-15575048D01*
X12823572Y-15575048D02*
X12814048Y-15584571D01*
X12814048Y-15584571D02*
X12804524Y-15603619D01*
X12804524Y-15603619D02*
X12804524Y-15651238D01*
X12804524Y-15651238D02*
X12814048Y-15670286D01*
X12814048Y-15670286D02*
X12823572Y-15679809D01*
X12823572Y-15679809D02*
X12842619Y-15689333D01*
X12842619Y-15689333D02*
X12880714Y-15689333D01*
X12880714Y-15689333D02*
X12899762Y-15679809D01*
X12899762Y-15679809D02*
X12909286Y-15670286D01*
X12909286Y-15670286D02*
X12918810Y-15651238D01*
X13042619Y-15565524D02*
X13061667Y-15565524D01*
X13061667Y-15565524D02*
X13080714Y-15575048D01*
X13080714Y-15575048D02*
X13090238Y-15584571D01*
X13090238Y-15584571D02*
X13099762Y-15603619D01*
X13099762Y-15603619D02*
X13109286Y-15641714D01*
X13109286Y-15641714D02*
X13109286Y-15689333D01*
X13109286Y-15689333D02*
X13099762Y-15727428D01*
X13099762Y-15727428D02*
X13090238Y-15746476D01*
X13090238Y-15746476D02*
X13080714Y-15756000D01*
X13080714Y-15756000D02*
X13061667Y-15765524D01*
X13061667Y-15765524D02*
X13042619Y-15765524D01*
X13042619Y-15765524D02*
X13023572Y-15756000D01*
X13023572Y-15756000D02*
X13014048Y-15746476D01*
X13014048Y-15746476D02*
X13004524Y-15727428D01*
X13004524Y-15727428D02*
X12995000Y-15689333D01*
X12995000Y-15689333D02*
X12995000Y-15641714D01*
X12995000Y-15641714D02*
X13004524Y-15603619D01*
X13004524Y-15603619D02*
X13014048Y-15584571D01*
X13014048Y-15584571D02*
X13023572Y-15575048D01*
X13023572Y-15575048D02*
X13042619Y-15565524D01*
X13185476Y-15565524D02*
X13185476Y-15603619D01*
X13261667Y-15565524D02*
X13261667Y-15603619D01*
X13556905Y-15841714D02*
X13547381Y-15832190D01*
X13547381Y-15832190D02*
X13528334Y-15803619D01*
X13528334Y-15803619D02*
X13518810Y-15784571D01*
X13518810Y-15784571D02*
X13509286Y-15756000D01*
X13509286Y-15756000D02*
X13499762Y-15708381D01*
X13499762Y-15708381D02*
X13499762Y-15670286D01*
X13499762Y-15670286D02*
X13509286Y-15622667D01*
X13509286Y-15622667D02*
X13518810Y-15594095D01*
X13518810Y-15594095D02*
X13528334Y-15575048D01*
X13528334Y-15575048D02*
X13547381Y-15546476D01*
X13547381Y-15546476D02*
X13556905Y-15536952D01*
X13614048Y-15565524D02*
X13737857Y-15565524D01*
X13737857Y-15565524D02*
X13671191Y-15641714D01*
X13671191Y-15641714D02*
X13699762Y-15641714D01*
X13699762Y-15641714D02*
X13718810Y-15651238D01*
X13718810Y-15651238D02*
X13728334Y-15660762D01*
X13728334Y-15660762D02*
X13737857Y-15679809D01*
X13737857Y-15679809D02*
X13737857Y-15727428D01*
X13737857Y-15727428D02*
X13728334Y-15746476D01*
X13728334Y-15746476D02*
X13718810Y-15756000D01*
X13718810Y-15756000D02*
X13699762Y-15765524D01*
X13699762Y-15765524D02*
X13642619Y-15765524D01*
X13642619Y-15765524D02*
X13623572Y-15756000D01*
X13623572Y-15756000D02*
X13614048Y-15746476D01*
X13975953Y-15765524D02*
X13975953Y-15565524D01*
X14061667Y-15765524D02*
X14061667Y-15660762D01*
X14061667Y-15660762D02*
X14052143Y-15641714D01*
X14052143Y-15641714D02*
X14033096Y-15632190D01*
X14033096Y-15632190D02*
X14004524Y-15632190D01*
X14004524Y-15632190D02*
X13985476Y-15641714D01*
X13985476Y-15641714D02*
X13975953Y-15651238D01*
X14185476Y-15765524D02*
X14166429Y-15756000D01*
X14166429Y-15756000D02*
X14156905Y-15746476D01*
X14156905Y-15746476D02*
X14147381Y-15727428D01*
X14147381Y-15727428D02*
X14147381Y-15670286D01*
X14147381Y-15670286D02*
X14156905Y-15651238D01*
X14156905Y-15651238D02*
X14166429Y-15641714D01*
X14166429Y-15641714D02*
X14185476Y-15632190D01*
X14185476Y-15632190D02*
X14214048Y-15632190D01*
X14214048Y-15632190D02*
X14233096Y-15641714D01*
X14233096Y-15641714D02*
X14242619Y-15651238D01*
X14242619Y-15651238D02*
X14252143Y-15670286D01*
X14252143Y-15670286D02*
X14252143Y-15727428D01*
X14252143Y-15727428D02*
X14242619Y-15746476D01*
X14242619Y-15746476D02*
X14233096Y-15756000D01*
X14233096Y-15756000D02*
X14214048Y-15765524D01*
X14214048Y-15765524D02*
X14185476Y-15765524D01*
X14366429Y-15765524D02*
X14347381Y-15756000D01*
X14347381Y-15756000D02*
X14337857Y-15736952D01*
X14337857Y-15736952D02*
X14337857Y-15565524D01*
X14518810Y-15756000D02*
X14499762Y-15765524D01*
X14499762Y-15765524D02*
X14461667Y-15765524D01*
X14461667Y-15765524D02*
X14442619Y-15756000D01*
X14442619Y-15756000D02*
X14433096Y-15736952D01*
X14433096Y-15736952D02*
X14433096Y-15660762D01*
X14433096Y-15660762D02*
X14442619Y-15641714D01*
X14442619Y-15641714D02*
X14461667Y-15632190D01*
X14461667Y-15632190D02*
X14499762Y-15632190D01*
X14499762Y-15632190D02*
X14518810Y-15641714D01*
X14518810Y-15641714D02*
X14528334Y-15660762D01*
X14528334Y-15660762D02*
X14528334Y-15679809D01*
X14528334Y-15679809D02*
X14433096Y-15698857D01*
X14604524Y-15756000D02*
X14623572Y-15765524D01*
X14623572Y-15765524D02*
X14661667Y-15765524D01*
X14661667Y-15765524D02*
X14680715Y-15756000D01*
X14680715Y-15756000D02*
X14690238Y-15736952D01*
X14690238Y-15736952D02*
X14690238Y-15727428D01*
X14690238Y-15727428D02*
X14680715Y-15708381D01*
X14680715Y-15708381D02*
X14661667Y-15698857D01*
X14661667Y-15698857D02*
X14633096Y-15698857D01*
X14633096Y-15698857D02*
X14614048Y-15689333D01*
X14614048Y-15689333D02*
X14604524Y-15670286D01*
X14604524Y-15670286D02*
X14604524Y-15660762D01*
X14604524Y-15660762D02*
X14614048Y-15641714D01*
X14614048Y-15641714D02*
X14633096Y-15632190D01*
X14633096Y-15632190D02*
X14661667Y-15632190D01*
X14661667Y-15632190D02*
X14680715Y-15641714D01*
X14756905Y-15841714D02*
X14766429Y-15832190D01*
X14766429Y-15832190D02*
X14785477Y-15803619D01*
X14785477Y-15803619D02*
X14795000Y-15784571D01*
X14795000Y-15784571D02*
X14804524Y-15756000D01*
X14804524Y-15756000D02*
X14814048Y-15708381D01*
X14814048Y-15708381D02*
X14814048Y-15670286D01*
X14814048Y-15670286D02*
X14804524Y-15622667D01*
X14804524Y-15622667D02*
X14795000Y-15594095D01*
X14795000Y-15594095D02*
X14785477Y-15575048D01*
X14785477Y-15575048D02*
X14766429Y-15546476D01*
X14766429Y-15546476D02*
X14756905Y-15536952D01*
X15118810Y-15841714D02*
X15109286Y-15832190D01*
X15109286Y-15832190D02*
X15090238Y-15803619D01*
X15090238Y-15803619D02*
X15080715Y-15784571D01*
X15080715Y-15784571D02*
X15071191Y-15756000D01*
X15071191Y-15756000D02*
X15061667Y-15708381D01*
X15061667Y-15708381D02*
X15061667Y-15670286D01*
X15061667Y-15670286D02*
X15071191Y-15622667D01*
X15071191Y-15622667D02*
X15080715Y-15594095D01*
X15080715Y-15594095D02*
X15090238Y-15575048D01*
X15090238Y-15575048D02*
X15109286Y-15546476D01*
X15109286Y-15546476D02*
X15118810Y-15536952D01*
X15195000Y-15632190D02*
X15195000Y-15765524D01*
X15195000Y-15651238D02*
X15204524Y-15641714D01*
X15204524Y-15641714D02*
X15223572Y-15632190D01*
X15223572Y-15632190D02*
X15252143Y-15632190D01*
X15252143Y-15632190D02*
X15271191Y-15641714D01*
X15271191Y-15641714D02*
X15280715Y-15660762D01*
X15280715Y-15660762D02*
X15280715Y-15765524D01*
X15404524Y-15765524D02*
X15385477Y-15756000D01*
X15385477Y-15756000D02*
X15375953Y-15746476D01*
X15375953Y-15746476D02*
X15366429Y-15727428D01*
X15366429Y-15727428D02*
X15366429Y-15670286D01*
X15366429Y-15670286D02*
X15375953Y-15651238D01*
X15375953Y-15651238D02*
X15385477Y-15641714D01*
X15385477Y-15641714D02*
X15404524Y-15632190D01*
X15404524Y-15632190D02*
X15433096Y-15632190D01*
X15433096Y-15632190D02*
X15452143Y-15641714D01*
X15452143Y-15641714D02*
X15461667Y-15651238D01*
X15461667Y-15651238D02*
X15471191Y-15670286D01*
X15471191Y-15670286D02*
X15471191Y-15727428D01*
X15471191Y-15727428D02*
X15461667Y-15746476D01*
X15461667Y-15746476D02*
X15452143Y-15756000D01*
X15452143Y-15756000D02*
X15433096Y-15765524D01*
X15433096Y-15765524D02*
X15404524Y-15765524D01*
X15528334Y-15632190D02*
X15604524Y-15632190D01*
X15556905Y-15565524D02*
X15556905Y-15736952D01*
X15556905Y-15736952D02*
X15566429Y-15756000D01*
X15566429Y-15756000D02*
X15585477Y-15765524D01*
X15585477Y-15765524D02*
X15604524Y-15765524D01*
X15823572Y-15632190D02*
X15823572Y-15832190D01*
X15823572Y-15641714D02*
X15842619Y-15632190D01*
X15842619Y-15632190D02*
X15880715Y-15632190D01*
X15880715Y-15632190D02*
X15899762Y-15641714D01*
X15899762Y-15641714D02*
X15909286Y-15651238D01*
X15909286Y-15651238D02*
X15918810Y-15670286D01*
X15918810Y-15670286D02*
X15918810Y-15727428D01*
X15918810Y-15727428D02*
X15909286Y-15746476D01*
X15909286Y-15746476D02*
X15899762Y-15756000D01*
X15899762Y-15756000D02*
X15880715Y-15765524D01*
X15880715Y-15765524D02*
X15842619Y-15765524D01*
X15842619Y-15765524D02*
X15823572Y-15756000D01*
X16033096Y-15765524D02*
X16014048Y-15756000D01*
X16014048Y-15756000D02*
X16004524Y-15736952D01*
X16004524Y-15736952D02*
X16004524Y-15565524D01*
X16195000Y-15765524D02*
X16195000Y-15660762D01*
X16195000Y-15660762D02*
X16185477Y-15641714D01*
X16185477Y-15641714D02*
X16166429Y-15632190D01*
X16166429Y-15632190D02*
X16128334Y-15632190D01*
X16128334Y-15632190D02*
X16109286Y-15641714D01*
X16195000Y-15756000D02*
X16175953Y-15765524D01*
X16175953Y-15765524D02*
X16128334Y-15765524D01*
X16128334Y-15765524D02*
X16109286Y-15756000D01*
X16109286Y-15756000D02*
X16099762Y-15736952D01*
X16099762Y-15736952D02*
X16099762Y-15717905D01*
X16099762Y-15717905D02*
X16109286Y-15698857D01*
X16109286Y-15698857D02*
X16128334Y-15689333D01*
X16128334Y-15689333D02*
X16175953Y-15689333D01*
X16175953Y-15689333D02*
X16195000Y-15679809D01*
X16261667Y-15632190D02*
X16337858Y-15632190D01*
X16290239Y-15565524D02*
X16290239Y-15736952D01*
X16290239Y-15736952D02*
X16299762Y-15756000D01*
X16299762Y-15756000D02*
X16318810Y-15765524D01*
X16318810Y-15765524D02*
X16337858Y-15765524D01*
X16480715Y-15756000D02*
X16461667Y-15765524D01*
X16461667Y-15765524D02*
X16423572Y-15765524D01*
X16423572Y-15765524D02*
X16404524Y-15756000D01*
X16404524Y-15756000D02*
X16395000Y-15736952D01*
X16395000Y-15736952D02*
X16395000Y-15660762D01*
X16395000Y-15660762D02*
X16404524Y-15641714D01*
X16404524Y-15641714D02*
X16423572Y-15632190D01*
X16423572Y-15632190D02*
X16461667Y-15632190D01*
X16461667Y-15632190D02*
X16480715Y-15641714D01*
X16480715Y-15641714D02*
X16490239Y-15660762D01*
X16490239Y-15660762D02*
X16490239Y-15679809D01*
X16490239Y-15679809D02*
X16395000Y-15698857D01*
X16661667Y-15765524D02*
X16661667Y-15565524D01*
X16661667Y-15756000D02*
X16642620Y-15765524D01*
X16642620Y-15765524D02*
X16604524Y-15765524D01*
X16604524Y-15765524D02*
X16585477Y-15756000D01*
X16585477Y-15756000D02*
X16575953Y-15746476D01*
X16575953Y-15746476D02*
X16566429Y-15727428D01*
X16566429Y-15727428D02*
X16566429Y-15670286D01*
X16566429Y-15670286D02*
X16575953Y-15651238D01*
X16575953Y-15651238D02*
X16585477Y-15641714D01*
X16585477Y-15641714D02*
X16604524Y-15632190D01*
X16604524Y-15632190D02*
X16642620Y-15632190D01*
X16642620Y-15632190D02*
X16661667Y-15641714D01*
X16737858Y-15841714D02*
X16747381Y-15832190D01*
X16747381Y-15832190D02*
X16766429Y-15803619D01*
X16766429Y-15803619D02*
X16775953Y-15784571D01*
X16775953Y-15784571D02*
X16785477Y-15756000D01*
X16785477Y-15756000D02*
X16795001Y-15708381D01*
X16795001Y-15708381D02*
X16795001Y-15670286D01*
X16795001Y-15670286D02*
X16785477Y-15622667D01*
X16785477Y-15622667D02*
X16775953Y-15594095D01*
X16775953Y-15594095D02*
X16766429Y-15575048D01*
X16766429Y-15575048D02*
X16747381Y-15546476D01*
X16747381Y-15546476D02*
X16737858Y-15536952D01*
X9965711Y-16007711D02*
X9965711Y-15866289D01*
X9824289Y-15866289D01*
X9824289Y-16007711D01*
X9965711Y-16007711D01*
X10233095Y-15848571D02*
X10242619Y-15839048D01*
X10242619Y-15839048D02*
X10261667Y-15829524D01*
X10261667Y-15829524D02*
X10309286Y-15829524D01*
X10309286Y-15829524D02*
X10328333Y-15839048D01*
X10328333Y-15839048D02*
X10337857Y-15848571D01*
X10337857Y-15848571D02*
X10347381Y-15867619D01*
X10347381Y-15867619D02*
X10347381Y-15886667D01*
X10347381Y-15886667D02*
X10337857Y-15915238D01*
X10337857Y-15915238D02*
X10223571Y-16029524D01*
X10223571Y-16029524D02*
X10347381Y-16029524D01*
X10433095Y-16010476D02*
X10442619Y-16020000D01*
X10442619Y-16020000D02*
X10433095Y-16029524D01*
X10433095Y-16029524D02*
X10423571Y-16020000D01*
X10423571Y-16020000D02*
X10433095Y-16010476D01*
X10433095Y-16010476D02*
X10433095Y-16029524D01*
X10509286Y-15829524D02*
X10633095Y-15829524D01*
X10633095Y-15829524D02*
X10566429Y-15905714D01*
X10566429Y-15905714D02*
X10595000Y-15905714D01*
X10595000Y-15905714D02*
X10614048Y-15915238D01*
X10614048Y-15915238D02*
X10623571Y-15924762D01*
X10623571Y-15924762D02*
X10633095Y-15943809D01*
X10633095Y-15943809D02*
X10633095Y-15991428D01*
X10633095Y-15991428D02*
X10623571Y-16010476D01*
X10623571Y-16010476D02*
X10614048Y-16020000D01*
X10614048Y-16020000D02*
X10595000Y-16029524D01*
X10595000Y-16029524D02*
X10537857Y-16029524D01*
X10537857Y-16029524D02*
X10518810Y-16020000D01*
X10518810Y-16020000D02*
X10509286Y-16010476D01*
X10699762Y-15829524D02*
X10833095Y-15829524D01*
X10833095Y-15829524D02*
X10747381Y-16029524D01*
X11004524Y-15829524D02*
X10909286Y-15829524D01*
X10909286Y-15829524D02*
X10899762Y-15924762D01*
X10899762Y-15924762D02*
X10909286Y-15915238D01*
X10909286Y-15915238D02*
X10928333Y-15905714D01*
X10928333Y-15905714D02*
X10975952Y-15905714D01*
X10975952Y-15905714D02*
X10995000Y-15915238D01*
X10995000Y-15915238D02*
X11004524Y-15924762D01*
X11004524Y-15924762D02*
X11014048Y-15943809D01*
X11014048Y-15943809D02*
X11014048Y-15991428D01*
X11014048Y-15991428D02*
X11004524Y-16010476D01*
X11004524Y-16010476D02*
X10995000Y-16020000D01*
X10995000Y-16020000D02*
X10975952Y-16029524D01*
X10975952Y-16029524D02*
X10928333Y-16029524D01*
X10928333Y-16029524D02*
X10909286Y-16020000D01*
X10909286Y-16020000D02*
X10899762Y-16010476D01*
X11099762Y-16029524D02*
X11099762Y-15896190D01*
X11099762Y-15915238D02*
X11109286Y-15905714D01*
X11109286Y-15905714D02*
X11128333Y-15896190D01*
X11128333Y-15896190D02*
X11156905Y-15896190D01*
X11156905Y-15896190D02*
X11175952Y-15905714D01*
X11175952Y-15905714D02*
X11185476Y-15924762D01*
X11185476Y-15924762D02*
X11185476Y-16029524D01*
X11185476Y-15924762D02*
X11195000Y-15905714D01*
X11195000Y-15905714D02*
X11214048Y-15896190D01*
X11214048Y-15896190D02*
X11242619Y-15896190D01*
X11242619Y-15896190D02*
X11261667Y-15905714D01*
X11261667Y-15905714D02*
X11271190Y-15924762D01*
X11271190Y-15924762D02*
X11271190Y-16029524D01*
X11366429Y-16029524D02*
X11366429Y-15896190D01*
X11366429Y-15915238D02*
X11375952Y-15905714D01*
X11375952Y-15905714D02*
X11395000Y-15896190D01*
X11395000Y-15896190D02*
X11423571Y-15896190D01*
X11423571Y-15896190D02*
X11442619Y-15905714D01*
X11442619Y-15905714D02*
X11452143Y-15924762D01*
X11452143Y-15924762D02*
X11452143Y-16029524D01*
X11452143Y-15924762D02*
X11461667Y-15905714D01*
X11461667Y-15905714D02*
X11480714Y-15896190D01*
X11480714Y-15896190D02*
X11509286Y-15896190D01*
X11509286Y-15896190D02*
X11528333Y-15905714D01*
X11528333Y-15905714D02*
X11537857Y-15924762D01*
X11537857Y-15924762D02*
X11537857Y-16029524D01*
X11928333Y-15820000D02*
X11756905Y-16077143D01*
X12185476Y-15829524D02*
X12204524Y-15829524D01*
X12204524Y-15829524D02*
X12223572Y-15839048D01*
X12223572Y-15839048D02*
X12233095Y-15848571D01*
X12233095Y-15848571D02*
X12242619Y-15867619D01*
X12242619Y-15867619D02*
X12252143Y-15905714D01*
X12252143Y-15905714D02*
X12252143Y-15953333D01*
X12252143Y-15953333D02*
X12242619Y-15991428D01*
X12242619Y-15991428D02*
X12233095Y-16010476D01*
X12233095Y-16010476D02*
X12223572Y-16020000D01*
X12223572Y-16020000D02*
X12204524Y-16029524D01*
X12204524Y-16029524D02*
X12185476Y-16029524D01*
X12185476Y-16029524D02*
X12166429Y-16020000D01*
X12166429Y-16020000D02*
X12156905Y-16010476D01*
X12156905Y-16010476D02*
X12147381Y-15991428D01*
X12147381Y-15991428D02*
X12137857Y-15953333D01*
X12137857Y-15953333D02*
X12137857Y-15905714D01*
X12137857Y-15905714D02*
X12147381Y-15867619D01*
X12147381Y-15867619D02*
X12156905Y-15848571D01*
X12156905Y-15848571D02*
X12166429Y-15839048D01*
X12166429Y-15839048D02*
X12185476Y-15829524D01*
X12337857Y-16010476D02*
X12347381Y-16020000D01*
X12347381Y-16020000D02*
X12337857Y-16029524D01*
X12337857Y-16029524D02*
X12328333Y-16020000D01*
X12328333Y-16020000D02*
X12337857Y-16010476D01*
X12337857Y-16010476D02*
X12337857Y-16029524D01*
X12471191Y-15829524D02*
X12490238Y-15829524D01*
X12490238Y-15829524D02*
X12509286Y-15839048D01*
X12509286Y-15839048D02*
X12518810Y-15848571D01*
X12518810Y-15848571D02*
X12528333Y-15867619D01*
X12528333Y-15867619D02*
X12537857Y-15905714D01*
X12537857Y-15905714D02*
X12537857Y-15953333D01*
X12537857Y-15953333D02*
X12528333Y-15991428D01*
X12528333Y-15991428D02*
X12518810Y-16010476D01*
X12518810Y-16010476D02*
X12509286Y-16020000D01*
X12509286Y-16020000D02*
X12490238Y-16029524D01*
X12490238Y-16029524D02*
X12471191Y-16029524D01*
X12471191Y-16029524D02*
X12452143Y-16020000D01*
X12452143Y-16020000D02*
X12442619Y-16010476D01*
X12442619Y-16010476D02*
X12433095Y-15991428D01*
X12433095Y-15991428D02*
X12423572Y-15953333D01*
X12423572Y-15953333D02*
X12423572Y-15905714D01*
X12423572Y-15905714D02*
X12433095Y-15867619D01*
X12433095Y-15867619D02*
X12442619Y-15848571D01*
X12442619Y-15848571D02*
X12452143Y-15839048D01*
X12452143Y-15839048D02*
X12471191Y-15829524D01*
X12633095Y-16029524D02*
X12671191Y-16029524D01*
X12671191Y-16029524D02*
X12690238Y-16020000D01*
X12690238Y-16020000D02*
X12699762Y-16010476D01*
X12699762Y-16010476D02*
X12718810Y-15981905D01*
X12718810Y-15981905D02*
X12728333Y-15943809D01*
X12728333Y-15943809D02*
X12728333Y-15867619D01*
X12728333Y-15867619D02*
X12718810Y-15848571D01*
X12718810Y-15848571D02*
X12709286Y-15839048D01*
X12709286Y-15839048D02*
X12690238Y-15829524D01*
X12690238Y-15829524D02*
X12652143Y-15829524D01*
X12652143Y-15829524D02*
X12633095Y-15839048D01*
X12633095Y-15839048D02*
X12623572Y-15848571D01*
X12623572Y-15848571D02*
X12614048Y-15867619D01*
X12614048Y-15867619D02*
X12614048Y-15915238D01*
X12614048Y-15915238D02*
X12623572Y-15934286D01*
X12623572Y-15934286D02*
X12633095Y-15943809D01*
X12633095Y-15943809D02*
X12652143Y-15953333D01*
X12652143Y-15953333D02*
X12690238Y-15953333D01*
X12690238Y-15953333D02*
X12709286Y-15943809D01*
X12709286Y-15943809D02*
X12718810Y-15934286D01*
X12718810Y-15934286D02*
X12728333Y-15915238D01*
X12795000Y-15829524D02*
X12918810Y-15829524D01*
X12918810Y-15829524D02*
X12852143Y-15905714D01*
X12852143Y-15905714D02*
X12880714Y-15905714D01*
X12880714Y-15905714D02*
X12899762Y-15915238D01*
X12899762Y-15915238D02*
X12909286Y-15924762D01*
X12909286Y-15924762D02*
X12918810Y-15943809D01*
X12918810Y-15943809D02*
X12918810Y-15991428D01*
X12918810Y-15991428D02*
X12909286Y-16010476D01*
X12909286Y-16010476D02*
X12899762Y-16020000D01*
X12899762Y-16020000D02*
X12880714Y-16029524D01*
X12880714Y-16029524D02*
X12823572Y-16029524D01*
X12823572Y-16029524D02*
X12804524Y-16020000D01*
X12804524Y-16020000D02*
X12795000Y-16010476D01*
X13099762Y-15829524D02*
X13004524Y-15829524D01*
X13004524Y-15829524D02*
X12995000Y-15924762D01*
X12995000Y-15924762D02*
X13004524Y-15915238D01*
X13004524Y-15915238D02*
X13023572Y-15905714D01*
X13023572Y-15905714D02*
X13071191Y-15905714D01*
X13071191Y-15905714D02*
X13090238Y-15915238D01*
X13090238Y-15915238D02*
X13099762Y-15924762D01*
X13099762Y-15924762D02*
X13109286Y-15943809D01*
X13109286Y-15943809D02*
X13109286Y-15991428D01*
X13109286Y-15991428D02*
X13099762Y-16010476D01*
X13099762Y-16010476D02*
X13090238Y-16020000D01*
X13090238Y-16020000D02*
X13071191Y-16029524D01*
X13071191Y-16029524D02*
X13023572Y-16029524D01*
X13023572Y-16029524D02*
X13004524Y-16020000D01*
X13004524Y-16020000D02*
X12995000Y-16010476D01*
X13185476Y-15829524D02*
X13185476Y-15867619D01*
X13261667Y-15829524D02*
X13261667Y-15867619D01*
X13556905Y-16105714D02*
X13547381Y-16096190D01*
X13547381Y-16096190D02*
X13528334Y-16067619D01*
X13528334Y-16067619D02*
X13518810Y-16048571D01*
X13518810Y-16048571D02*
X13509286Y-16020000D01*
X13509286Y-16020000D02*
X13499762Y-15972381D01*
X13499762Y-15972381D02*
X13499762Y-15934286D01*
X13499762Y-15934286D02*
X13509286Y-15886667D01*
X13509286Y-15886667D02*
X13518810Y-15858095D01*
X13518810Y-15858095D02*
X13528334Y-15839048D01*
X13528334Y-15839048D02*
X13547381Y-15810476D01*
X13547381Y-15810476D02*
X13556905Y-15800952D01*
X13718810Y-15896190D02*
X13718810Y-16029524D01*
X13671191Y-15820000D02*
X13623572Y-15962857D01*
X13623572Y-15962857D02*
X13747381Y-15962857D01*
X13975953Y-16029524D02*
X13975953Y-15829524D01*
X14061667Y-16029524D02*
X14061667Y-15924762D01*
X14061667Y-15924762D02*
X14052143Y-15905714D01*
X14052143Y-15905714D02*
X14033096Y-15896190D01*
X14033096Y-15896190D02*
X14004524Y-15896190D01*
X14004524Y-15896190D02*
X13985476Y-15905714D01*
X13985476Y-15905714D02*
X13975953Y-15915238D01*
X14185476Y-16029524D02*
X14166429Y-16020000D01*
X14166429Y-16020000D02*
X14156905Y-16010476D01*
X14156905Y-16010476D02*
X14147381Y-15991428D01*
X14147381Y-15991428D02*
X14147381Y-15934286D01*
X14147381Y-15934286D02*
X14156905Y-15915238D01*
X14156905Y-15915238D02*
X14166429Y-15905714D01*
X14166429Y-15905714D02*
X14185476Y-15896190D01*
X14185476Y-15896190D02*
X14214048Y-15896190D01*
X14214048Y-15896190D02*
X14233096Y-15905714D01*
X14233096Y-15905714D02*
X14242619Y-15915238D01*
X14242619Y-15915238D02*
X14252143Y-15934286D01*
X14252143Y-15934286D02*
X14252143Y-15991428D01*
X14252143Y-15991428D02*
X14242619Y-16010476D01*
X14242619Y-16010476D02*
X14233096Y-16020000D01*
X14233096Y-16020000D02*
X14214048Y-16029524D01*
X14214048Y-16029524D02*
X14185476Y-16029524D01*
X14366429Y-16029524D02*
X14347381Y-16020000D01*
X14347381Y-16020000D02*
X14337857Y-16000952D01*
X14337857Y-16000952D02*
X14337857Y-15829524D01*
X14518810Y-16020000D02*
X14499762Y-16029524D01*
X14499762Y-16029524D02*
X14461667Y-16029524D01*
X14461667Y-16029524D02*
X14442619Y-16020000D01*
X14442619Y-16020000D02*
X14433096Y-16000952D01*
X14433096Y-16000952D02*
X14433096Y-15924762D01*
X14433096Y-15924762D02*
X14442619Y-15905714D01*
X14442619Y-15905714D02*
X14461667Y-15896190D01*
X14461667Y-15896190D02*
X14499762Y-15896190D01*
X14499762Y-15896190D02*
X14518810Y-15905714D01*
X14518810Y-15905714D02*
X14528334Y-15924762D01*
X14528334Y-15924762D02*
X14528334Y-15943809D01*
X14528334Y-15943809D02*
X14433096Y-15962857D01*
X14604524Y-16020000D02*
X14623572Y-16029524D01*
X14623572Y-16029524D02*
X14661667Y-16029524D01*
X14661667Y-16029524D02*
X14680715Y-16020000D01*
X14680715Y-16020000D02*
X14690238Y-16000952D01*
X14690238Y-16000952D02*
X14690238Y-15991428D01*
X14690238Y-15991428D02*
X14680715Y-15972381D01*
X14680715Y-15972381D02*
X14661667Y-15962857D01*
X14661667Y-15962857D02*
X14633096Y-15962857D01*
X14633096Y-15962857D02*
X14614048Y-15953333D01*
X14614048Y-15953333D02*
X14604524Y-15934286D01*
X14604524Y-15934286D02*
X14604524Y-15924762D01*
X14604524Y-15924762D02*
X14614048Y-15905714D01*
X14614048Y-15905714D02*
X14633096Y-15896190D01*
X14633096Y-15896190D02*
X14661667Y-15896190D01*
X14661667Y-15896190D02*
X14680715Y-15905714D01*
X14756905Y-16105714D02*
X14766429Y-16096190D01*
X14766429Y-16096190D02*
X14785477Y-16067619D01*
X14785477Y-16067619D02*
X14795000Y-16048571D01*
X14795000Y-16048571D02*
X14804524Y-16020000D01*
X14804524Y-16020000D02*
X14814048Y-15972381D01*
X14814048Y-15972381D02*
X14814048Y-15934286D01*
X14814048Y-15934286D02*
X14804524Y-15886667D01*
X14804524Y-15886667D02*
X14795000Y-15858095D01*
X14795000Y-15858095D02*
X14785477Y-15839048D01*
X14785477Y-15839048D02*
X14766429Y-15810476D01*
X14766429Y-15810476D02*
X14756905Y-15800952D01*
X15118810Y-16105714D02*
X15109286Y-16096190D01*
X15109286Y-16096190D02*
X15090238Y-16067619D01*
X15090238Y-16067619D02*
X15080715Y-16048571D01*
X15080715Y-16048571D02*
X15071191Y-16020000D01*
X15071191Y-16020000D02*
X15061667Y-15972381D01*
X15061667Y-15972381D02*
X15061667Y-15934286D01*
X15061667Y-15934286D02*
X15071191Y-15886667D01*
X15071191Y-15886667D02*
X15080715Y-15858095D01*
X15080715Y-15858095D02*
X15090238Y-15839048D01*
X15090238Y-15839048D02*
X15109286Y-15810476D01*
X15109286Y-15810476D02*
X15118810Y-15800952D01*
X15195000Y-15896190D02*
X15195000Y-16029524D01*
X15195000Y-15915238D02*
X15204524Y-15905714D01*
X15204524Y-15905714D02*
X15223572Y-15896190D01*
X15223572Y-15896190D02*
X15252143Y-15896190D01*
X15252143Y-15896190D02*
X15271191Y-15905714D01*
X15271191Y-15905714D02*
X15280715Y-15924762D01*
X15280715Y-15924762D02*
X15280715Y-16029524D01*
X15404524Y-16029524D02*
X15385477Y-16020000D01*
X15385477Y-16020000D02*
X15375953Y-16010476D01*
X15375953Y-16010476D02*
X15366429Y-15991428D01*
X15366429Y-15991428D02*
X15366429Y-15934286D01*
X15366429Y-15934286D02*
X15375953Y-15915238D01*
X15375953Y-15915238D02*
X15385477Y-15905714D01*
X15385477Y-15905714D02*
X15404524Y-15896190D01*
X15404524Y-15896190D02*
X15433096Y-15896190D01*
X15433096Y-15896190D02*
X15452143Y-15905714D01*
X15452143Y-15905714D02*
X15461667Y-15915238D01*
X15461667Y-15915238D02*
X15471191Y-15934286D01*
X15471191Y-15934286D02*
X15471191Y-15991428D01*
X15471191Y-15991428D02*
X15461667Y-16010476D01*
X15461667Y-16010476D02*
X15452143Y-16020000D01*
X15452143Y-16020000D02*
X15433096Y-16029524D01*
X15433096Y-16029524D02*
X15404524Y-16029524D01*
X15528334Y-15896190D02*
X15604524Y-15896190D01*
X15556905Y-15829524D02*
X15556905Y-16000952D01*
X15556905Y-16000952D02*
X15566429Y-16020000D01*
X15566429Y-16020000D02*
X15585477Y-16029524D01*
X15585477Y-16029524D02*
X15604524Y-16029524D01*
X15823572Y-15896190D02*
X15823572Y-16096190D01*
X15823572Y-15905714D02*
X15842619Y-15896190D01*
X15842619Y-15896190D02*
X15880715Y-15896190D01*
X15880715Y-15896190D02*
X15899762Y-15905714D01*
X15899762Y-15905714D02*
X15909286Y-15915238D01*
X15909286Y-15915238D02*
X15918810Y-15934286D01*
X15918810Y-15934286D02*
X15918810Y-15991428D01*
X15918810Y-15991428D02*
X15909286Y-16010476D01*
X15909286Y-16010476D02*
X15899762Y-16020000D01*
X15899762Y-16020000D02*
X15880715Y-16029524D01*
X15880715Y-16029524D02*
X15842619Y-16029524D01*
X15842619Y-16029524D02*
X15823572Y-16020000D01*
X16033096Y-16029524D02*
X16014048Y-16020000D01*
X16014048Y-16020000D02*
X16004524Y-16000952D01*
X16004524Y-16000952D02*
X16004524Y-15829524D01*
X16195000Y-16029524D02*
X16195000Y-15924762D01*
X16195000Y-15924762D02*
X16185477Y-15905714D01*
X16185477Y-15905714D02*
X16166429Y-15896190D01*
X16166429Y-15896190D02*
X16128334Y-15896190D01*
X16128334Y-15896190D02*
X16109286Y-15905714D01*
X16195000Y-16020000D02*
X16175953Y-16029524D01*
X16175953Y-16029524D02*
X16128334Y-16029524D01*
X16128334Y-16029524D02*
X16109286Y-16020000D01*
X16109286Y-16020000D02*
X16099762Y-16000952D01*
X16099762Y-16000952D02*
X16099762Y-15981905D01*
X16099762Y-15981905D02*
X16109286Y-15962857D01*
X16109286Y-15962857D02*
X16128334Y-15953333D01*
X16128334Y-15953333D02*
X16175953Y-15953333D01*
X16175953Y-15953333D02*
X16195000Y-15943809D01*
X16261667Y-15896190D02*
X16337858Y-15896190D01*
X16290239Y-15829524D02*
X16290239Y-16000952D01*
X16290239Y-16000952D02*
X16299762Y-16020000D01*
X16299762Y-16020000D02*
X16318810Y-16029524D01*
X16318810Y-16029524D02*
X16337858Y-16029524D01*
X16480715Y-16020000D02*
X16461667Y-16029524D01*
X16461667Y-16029524D02*
X16423572Y-16029524D01*
X16423572Y-16029524D02*
X16404524Y-16020000D01*
X16404524Y-16020000D02*
X16395000Y-16000952D01*
X16395000Y-16000952D02*
X16395000Y-15924762D01*
X16395000Y-15924762D02*
X16404524Y-15905714D01*
X16404524Y-15905714D02*
X16423572Y-15896190D01*
X16423572Y-15896190D02*
X16461667Y-15896190D01*
X16461667Y-15896190D02*
X16480715Y-15905714D01*
X16480715Y-15905714D02*
X16490239Y-15924762D01*
X16490239Y-15924762D02*
X16490239Y-15943809D01*
X16490239Y-15943809D02*
X16395000Y-15962857D01*
X16661667Y-16029524D02*
X16661667Y-15829524D01*
X16661667Y-16020000D02*
X16642620Y-16029524D01*
X16642620Y-16029524D02*
X16604524Y-16029524D01*
X16604524Y-16029524D02*
X16585477Y-16020000D01*
X16585477Y-16020000D02*
X16575953Y-16010476D01*
X16575953Y-16010476D02*
X16566429Y-15991428D01*
X16566429Y-15991428D02*
X16566429Y-15934286D01*
X16566429Y-15934286D02*
X16575953Y-15915238D01*
X16575953Y-15915238D02*
X16585477Y-15905714D01*
X16585477Y-15905714D02*
X16604524Y-15896190D01*
X16604524Y-15896190D02*
X16642620Y-15896190D01*
X16642620Y-15896190D02*
X16661667Y-15905714D01*
X16737858Y-16105714D02*
X16747381Y-16096190D01*
X16747381Y-16096190D02*
X16766429Y-16067619D01*
X16766429Y-16067619D02*
X16775953Y-16048571D01*
X16775953Y-16048571D02*
X16785477Y-16020000D01*
X16785477Y-16020000D02*
X16795001Y-15972381D01*
X16795001Y-15972381D02*
X16795001Y-15934286D01*
X16795001Y-15934286D02*
X16785477Y-15886667D01*
X16785477Y-15886667D02*
X16775953Y-15858095D01*
X16775953Y-15858095D02*
X16766429Y-15839048D01*
X16766429Y-15839048D02*
X16747381Y-15810476D01*
X16747381Y-15810476D02*
X16737858Y-15800952D01*
X9895000Y-16357000D02*
X9995000Y-16257000D01*
X9895000Y-16157000D01*
X9795000Y-16257000D01*
X9895000Y-16357000D01*
X10223571Y-16149524D02*
X10347381Y-16149524D01*
X10347381Y-16149524D02*
X10280714Y-16225714D01*
X10280714Y-16225714D02*
X10309286Y-16225714D01*
X10309286Y-16225714D02*
X10328333Y-16235238D01*
X10328333Y-16235238D02*
X10337857Y-16244762D01*
X10337857Y-16244762D02*
X10347381Y-16263809D01*
X10347381Y-16263809D02*
X10347381Y-16311428D01*
X10347381Y-16311428D02*
X10337857Y-16330476D01*
X10337857Y-16330476D02*
X10328333Y-16340000D01*
X10328333Y-16340000D02*
X10309286Y-16349524D01*
X10309286Y-16349524D02*
X10252143Y-16349524D01*
X10252143Y-16349524D02*
X10233095Y-16340000D01*
X10233095Y-16340000D02*
X10223571Y-16330476D01*
X10433095Y-16330476D02*
X10442619Y-16340000D01*
X10442619Y-16340000D02*
X10433095Y-16349524D01*
X10433095Y-16349524D02*
X10423571Y-16340000D01*
X10423571Y-16340000D02*
X10433095Y-16330476D01*
X10433095Y-16330476D02*
X10433095Y-16349524D01*
X10509286Y-16149524D02*
X10633095Y-16149524D01*
X10633095Y-16149524D02*
X10566429Y-16225714D01*
X10566429Y-16225714D02*
X10595000Y-16225714D01*
X10595000Y-16225714D02*
X10614048Y-16235238D01*
X10614048Y-16235238D02*
X10623571Y-16244762D01*
X10623571Y-16244762D02*
X10633095Y-16263809D01*
X10633095Y-16263809D02*
X10633095Y-16311428D01*
X10633095Y-16311428D02*
X10623571Y-16330476D01*
X10623571Y-16330476D02*
X10614048Y-16340000D01*
X10614048Y-16340000D02*
X10595000Y-16349524D01*
X10595000Y-16349524D02*
X10537857Y-16349524D01*
X10537857Y-16349524D02*
X10518810Y-16340000D01*
X10518810Y-16340000D02*
X10509286Y-16330476D01*
X10699762Y-16149524D02*
X10823571Y-16149524D01*
X10823571Y-16149524D02*
X10756905Y-16225714D01*
X10756905Y-16225714D02*
X10785476Y-16225714D01*
X10785476Y-16225714D02*
X10804524Y-16235238D01*
X10804524Y-16235238D02*
X10814048Y-16244762D01*
X10814048Y-16244762D02*
X10823571Y-16263809D01*
X10823571Y-16263809D02*
X10823571Y-16311428D01*
X10823571Y-16311428D02*
X10814048Y-16330476D01*
X10814048Y-16330476D02*
X10804524Y-16340000D01*
X10804524Y-16340000D02*
X10785476Y-16349524D01*
X10785476Y-16349524D02*
X10728333Y-16349524D01*
X10728333Y-16349524D02*
X10709286Y-16340000D01*
X10709286Y-16340000D02*
X10699762Y-16330476D01*
X10947381Y-16149524D02*
X10966429Y-16149524D01*
X10966429Y-16149524D02*
X10985476Y-16159048D01*
X10985476Y-16159048D02*
X10995000Y-16168571D01*
X10995000Y-16168571D02*
X11004524Y-16187619D01*
X11004524Y-16187619D02*
X11014048Y-16225714D01*
X11014048Y-16225714D02*
X11014048Y-16273333D01*
X11014048Y-16273333D02*
X11004524Y-16311428D01*
X11004524Y-16311428D02*
X10995000Y-16330476D01*
X10995000Y-16330476D02*
X10985476Y-16340000D01*
X10985476Y-16340000D02*
X10966429Y-16349524D01*
X10966429Y-16349524D02*
X10947381Y-16349524D01*
X10947381Y-16349524D02*
X10928333Y-16340000D01*
X10928333Y-16340000D02*
X10918810Y-16330476D01*
X10918810Y-16330476D02*
X10909286Y-16311428D01*
X10909286Y-16311428D02*
X10899762Y-16273333D01*
X10899762Y-16273333D02*
X10899762Y-16225714D01*
X10899762Y-16225714D02*
X10909286Y-16187619D01*
X10909286Y-16187619D02*
X10918810Y-16168571D01*
X10918810Y-16168571D02*
X10928333Y-16159048D01*
X10928333Y-16159048D02*
X10947381Y-16149524D01*
X11099762Y-16349524D02*
X11099762Y-16216190D01*
X11099762Y-16235238D02*
X11109286Y-16225714D01*
X11109286Y-16225714D02*
X11128333Y-16216190D01*
X11128333Y-16216190D02*
X11156905Y-16216190D01*
X11156905Y-16216190D02*
X11175952Y-16225714D01*
X11175952Y-16225714D02*
X11185476Y-16244762D01*
X11185476Y-16244762D02*
X11185476Y-16349524D01*
X11185476Y-16244762D02*
X11195000Y-16225714D01*
X11195000Y-16225714D02*
X11214048Y-16216190D01*
X11214048Y-16216190D02*
X11242619Y-16216190D01*
X11242619Y-16216190D02*
X11261667Y-16225714D01*
X11261667Y-16225714D02*
X11271190Y-16244762D01*
X11271190Y-16244762D02*
X11271190Y-16349524D01*
X11366429Y-16349524D02*
X11366429Y-16216190D01*
X11366429Y-16235238D02*
X11375952Y-16225714D01*
X11375952Y-16225714D02*
X11395000Y-16216190D01*
X11395000Y-16216190D02*
X11423571Y-16216190D01*
X11423571Y-16216190D02*
X11442619Y-16225714D01*
X11442619Y-16225714D02*
X11452143Y-16244762D01*
X11452143Y-16244762D02*
X11452143Y-16349524D01*
X11452143Y-16244762D02*
X11461667Y-16225714D01*
X11461667Y-16225714D02*
X11480714Y-16216190D01*
X11480714Y-16216190D02*
X11509286Y-16216190D01*
X11509286Y-16216190D02*
X11528333Y-16225714D01*
X11528333Y-16225714D02*
X11537857Y-16244762D01*
X11537857Y-16244762D02*
X11537857Y-16349524D01*
X11928333Y-16140000D02*
X11756905Y-16397143D01*
X12185476Y-16149524D02*
X12204524Y-16149524D01*
X12204524Y-16149524D02*
X12223572Y-16159048D01*
X12223572Y-16159048D02*
X12233095Y-16168571D01*
X12233095Y-16168571D02*
X12242619Y-16187619D01*
X12242619Y-16187619D02*
X12252143Y-16225714D01*
X12252143Y-16225714D02*
X12252143Y-16273333D01*
X12252143Y-16273333D02*
X12242619Y-16311428D01*
X12242619Y-16311428D02*
X12233095Y-16330476D01*
X12233095Y-16330476D02*
X12223572Y-16340000D01*
X12223572Y-16340000D02*
X12204524Y-16349524D01*
X12204524Y-16349524D02*
X12185476Y-16349524D01*
X12185476Y-16349524D02*
X12166429Y-16340000D01*
X12166429Y-16340000D02*
X12156905Y-16330476D01*
X12156905Y-16330476D02*
X12147381Y-16311428D01*
X12147381Y-16311428D02*
X12137857Y-16273333D01*
X12137857Y-16273333D02*
X12137857Y-16225714D01*
X12137857Y-16225714D02*
X12147381Y-16187619D01*
X12147381Y-16187619D02*
X12156905Y-16168571D01*
X12156905Y-16168571D02*
X12166429Y-16159048D01*
X12166429Y-16159048D02*
X12185476Y-16149524D01*
X12337857Y-16330476D02*
X12347381Y-16340000D01*
X12347381Y-16340000D02*
X12337857Y-16349524D01*
X12337857Y-16349524D02*
X12328333Y-16340000D01*
X12328333Y-16340000D02*
X12337857Y-16330476D01*
X12337857Y-16330476D02*
X12337857Y-16349524D01*
X12537857Y-16349524D02*
X12423572Y-16349524D01*
X12480714Y-16349524D02*
X12480714Y-16149524D01*
X12480714Y-16149524D02*
X12461667Y-16178095D01*
X12461667Y-16178095D02*
X12442619Y-16197143D01*
X12442619Y-16197143D02*
X12423572Y-16206667D01*
X12604524Y-16149524D02*
X12728333Y-16149524D01*
X12728333Y-16149524D02*
X12661667Y-16225714D01*
X12661667Y-16225714D02*
X12690238Y-16225714D01*
X12690238Y-16225714D02*
X12709286Y-16235238D01*
X12709286Y-16235238D02*
X12718810Y-16244762D01*
X12718810Y-16244762D02*
X12728333Y-16263809D01*
X12728333Y-16263809D02*
X12728333Y-16311428D01*
X12728333Y-16311428D02*
X12718810Y-16330476D01*
X12718810Y-16330476D02*
X12709286Y-16340000D01*
X12709286Y-16340000D02*
X12690238Y-16349524D01*
X12690238Y-16349524D02*
X12633095Y-16349524D01*
X12633095Y-16349524D02*
X12614048Y-16340000D01*
X12614048Y-16340000D02*
X12604524Y-16330476D01*
X12918810Y-16349524D02*
X12804524Y-16349524D01*
X12861667Y-16349524D02*
X12861667Y-16149524D01*
X12861667Y-16149524D02*
X12842619Y-16178095D01*
X12842619Y-16178095D02*
X12823572Y-16197143D01*
X12823572Y-16197143D02*
X12804524Y-16206667D01*
X13109286Y-16349524D02*
X12995000Y-16349524D01*
X13052143Y-16349524D02*
X13052143Y-16149524D01*
X13052143Y-16149524D02*
X13033095Y-16178095D01*
X13033095Y-16178095D02*
X13014048Y-16197143D01*
X13014048Y-16197143D02*
X12995000Y-16206667D01*
X13185476Y-16149524D02*
X13185476Y-16187619D01*
X13261667Y-16149524D02*
X13261667Y-16187619D01*
X13556905Y-16425714D02*
X13547381Y-16416190D01*
X13547381Y-16416190D02*
X13528334Y-16387619D01*
X13528334Y-16387619D02*
X13518810Y-16368571D01*
X13518810Y-16368571D02*
X13509286Y-16340000D01*
X13509286Y-16340000D02*
X13499762Y-16292381D01*
X13499762Y-16292381D02*
X13499762Y-16254286D01*
X13499762Y-16254286D02*
X13509286Y-16206667D01*
X13509286Y-16206667D02*
X13518810Y-16178095D01*
X13518810Y-16178095D02*
X13528334Y-16159048D01*
X13528334Y-16159048D02*
X13547381Y-16130476D01*
X13547381Y-16130476D02*
X13556905Y-16120952D01*
X13623572Y-16168571D02*
X13633095Y-16159048D01*
X13633095Y-16159048D02*
X13652143Y-16149524D01*
X13652143Y-16149524D02*
X13699762Y-16149524D01*
X13699762Y-16149524D02*
X13718810Y-16159048D01*
X13718810Y-16159048D02*
X13728334Y-16168571D01*
X13728334Y-16168571D02*
X13737857Y-16187619D01*
X13737857Y-16187619D02*
X13737857Y-16206667D01*
X13737857Y-16206667D02*
X13728334Y-16235238D01*
X13728334Y-16235238D02*
X13614048Y-16349524D01*
X13614048Y-16349524D02*
X13737857Y-16349524D01*
X13975953Y-16349524D02*
X13975953Y-16149524D01*
X14061667Y-16349524D02*
X14061667Y-16244762D01*
X14061667Y-16244762D02*
X14052143Y-16225714D01*
X14052143Y-16225714D02*
X14033096Y-16216190D01*
X14033096Y-16216190D02*
X14004524Y-16216190D01*
X14004524Y-16216190D02*
X13985476Y-16225714D01*
X13985476Y-16225714D02*
X13975953Y-16235238D01*
X14185476Y-16349524D02*
X14166429Y-16340000D01*
X14166429Y-16340000D02*
X14156905Y-16330476D01*
X14156905Y-16330476D02*
X14147381Y-16311428D01*
X14147381Y-16311428D02*
X14147381Y-16254286D01*
X14147381Y-16254286D02*
X14156905Y-16235238D01*
X14156905Y-16235238D02*
X14166429Y-16225714D01*
X14166429Y-16225714D02*
X14185476Y-16216190D01*
X14185476Y-16216190D02*
X14214048Y-16216190D01*
X14214048Y-16216190D02*
X14233096Y-16225714D01*
X14233096Y-16225714D02*
X14242619Y-16235238D01*
X14242619Y-16235238D02*
X14252143Y-16254286D01*
X14252143Y-16254286D02*
X14252143Y-16311428D01*
X14252143Y-16311428D02*
X14242619Y-16330476D01*
X14242619Y-16330476D02*
X14233096Y-16340000D01*
X14233096Y-16340000D02*
X14214048Y-16349524D01*
X14214048Y-16349524D02*
X14185476Y-16349524D01*
X14366429Y-16349524D02*
X14347381Y-16340000D01*
X14347381Y-16340000D02*
X14337857Y-16320952D01*
X14337857Y-16320952D02*
X14337857Y-16149524D01*
X14518810Y-16340000D02*
X14499762Y-16349524D01*
X14499762Y-16349524D02*
X14461667Y-16349524D01*
X14461667Y-16349524D02*
X14442619Y-16340000D01*
X14442619Y-16340000D02*
X14433096Y-16320952D01*
X14433096Y-16320952D02*
X14433096Y-16244762D01*
X14433096Y-16244762D02*
X14442619Y-16225714D01*
X14442619Y-16225714D02*
X14461667Y-16216190D01*
X14461667Y-16216190D02*
X14499762Y-16216190D01*
X14499762Y-16216190D02*
X14518810Y-16225714D01*
X14518810Y-16225714D02*
X14528334Y-16244762D01*
X14528334Y-16244762D02*
X14528334Y-16263809D01*
X14528334Y-16263809D02*
X14433096Y-16282857D01*
X14604524Y-16340000D02*
X14623572Y-16349524D01*
X14623572Y-16349524D02*
X14661667Y-16349524D01*
X14661667Y-16349524D02*
X14680715Y-16340000D01*
X14680715Y-16340000D02*
X14690238Y-16320952D01*
X14690238Y-16320952D02*
X14690238Y-16311428D01*
X14690238Y-16311428D02*
X14680715Y-16292381D01*
X14680715Y-16292381D02*
X14661667Y-16282857D01*
X14661667Y-16282857D02*
X14633096Y-16282857D01*
X14633096Y-16282857D02*
X14614048Y-16273333D01*
X14614048Y-16273333D02*
X14604524Y-16254286D01*
X14604524Y-16254286D02*
X14604524Y-16244762D01*
X14604524Y-16244762D02*
X14614048Y-16225714D01*
X14614048Y-16225714D02*
X14633096Y-16216190D01*
X14633096Y-16216190D02*
X14661667Y-16216190D01*
X14661667Y-16216190D02*
X14680715Y-16225714D01*
X14756905Y-16425714D02*
X14766429Y-16416190D01*
X14766429Y-16416190D02*
X14785477Y-16387619D01*
X14785477Y-16387619D02*
X14795000Y-16368571D01*
X14795000Y-16368571D02*
X14804524Y-16340000D01*
X14804524Y-16340000D02*
X14814048Y-16292381D01*
X14814048Y-16292381D02*
X14814048Y-16254286D01*
X14814048Y-16254286D02*
X14804524Y-16206667D01*
X14804524Y-16206667D02*
X14795000Y-16178095D01*
X14795000Y-16178095D02*
X14785477Y-16159048D01*
X14785477Y-16159048D02*
X14766429Y-16130476D01*
X14766429Y-16130476D02*
X14756905Y-16120952D01*
X15118810Y-16425714D02*
X15109286Y-16416190D01*
X15109286Y-16416190D02*
X15090238Y-16387619D01*
X15090238Y-16387619D02*
X15080715Y-16368571D01*
X15080715Y-16368571D02*
X15071191Y-16340000D01*
X15071191Y-16340000D02*
X15061667Y-16292381D01*
X15061667Y-16292381D02*
X15061667Y-16254286D01*
X15061667Y-16254286D02*
X15071191Y-16206667D01*
X15071191Y-16206667D02*
X15080715Y-16178095D01*
X15080715Y-16178095D02*
X15090238Y-16159048D01*
X15090238Y-16159048D02*
X15109286Y-16130476D01*
X15109286Y-16130476D02*
X15118810Y-16120952D01*
X15195000Y-16216190D02*
X15195000Y-16349524D01*
X15195000Y-16235238D02*
X15204524Y-16225714D01*
X15204524Y-16225714D02*
X15223572Y-16216190D01*
X15223572Y-16216190D02*
X15252143Y-16216190D01*
X15252143Y-16216190D02*
X15271191Y-16225714D01*
X15271191Y-16225714D02*
X15280715Y-16244762D01*
X15280715Y-16244762D02*
X15280715Y-16349524D01*
X15404524Y-16349524D02*
X15385477Y-16340000D01*
X15385477Y-16340000D02*
X15375953Y-16330476D01*
X15375953Y-16330476D02*
X15366429Y-16311428D01*
X15366429Y-16311428D02*
X15366429Y-16254286D01*
X15366429Y-16254286D02*
X15375953Y-16235238D01*
X15375953Y-16235238D02*
X15385477Y-16225714D01*
X15385477Y-16225714D02*
X15404524Y-16216190D01*
X15404524Y-16216190D02*
X15433096Y-16216190D01*
X15433096Y-16216190D02*
X15452143Y-16225714D01*
X15452143Y-16225714D02*
X15461667Y-16235238D01*
X15461667Y-16235238D02*
X15471191Y-16254286D01*
X15471191Y-16254286D02*
X15471191Y-16311428D01*
X15471191Y-16311428D02*
X15461667Y-16330476D01*
X15461667Y-16330476D02*
X15452143Y-16340000D01*
X15452143Y-16340000D02*
X15433096Y-16349524D01*
X15433096Y-16349524D02*
X15404524Y-16349524D01*
X15528334Y-16216190D02*
X15604524Y-16216190D01*
X15556905Y-16149524D02*
X15556905Y-16320952D01*
X15556905Y-16320952D02*
X15566429Y-16340000D01*
X15566429Y-16340000D02*
X15585477Y-16349524D01*
X15585477Y-16349524D02*
X15604524Y-16349524D01*
X15823572Y-16216190D02*
X15823572Y-16416190D01*
X15823572Y-16225714D02*
X15842619Y-16216190D01*
X15842619Y-16216190D02*
X15880715Y-16216190D01*
X15880715Y-16216190D02*
X15899762Y-16225714D01*
X15899762Y-16225714D02*
X15909286Y-16235238D01*
X15909286Y-16235238D02*
X15918810Y-16254286D01*
X15918810Y-16254286D02*
X15918810Y-16311428D01*
X15918810Y-16311428D02*
X15909286Y-16330476D01*
X15909286Y-16330476D02*
X15899762Y-16340000D01*
X15899762Y-16340000D02*
X15880715Y-16349524D01*
X15880715Y-16349524D02*
X15842619Y-16349524D01*
X15842619Y-16349524D02*
X15823572Y-16340000D01*
X16033096Y-16349524D02*
X16014048Y-16340000D01*
X16014048Y-16340000D02*
X16004524Y-16320952D01*
X16004524Y-16320952D02*
X16004524Y-16149524D01*
X16195000Y-16349524D02*
X16195000Y-16244762D01*
X16195000Y-16244762D02*
X16185477Y-16225714D01*
X16185477Y-16225714D02*
X16166429Y-16216190D01*
X16166429Y-16216190D02*
X16128334Y-16216190D01*
X16128334Y-16216190D02*
X16109286Y-16225714D01*
X16195000Y-16340000D02*
X16175953Y-16349524D01*
X16175953Y-16349524D02*
X16128334Y-16349524D01*
X16128334Y-16349524D02*
X16109286Y-16340000D01*
X16109286Y-16340000D02*
X16099762Y-16320952D01*
X16099762Y-16320952D02*
X16099762Y-16301905D01*
X16099762Y-16301905D02*
X16109286Y-16282857D01*
X16109286Y-16282857D02*
X16128334Y-16273333D01*
X16128334Y-16273333D02*
X16175953Y-16273333D01*
X16175953Y-16273333D02*
X16195000Y-16263809D01*
X16261667Y-16216190D02*
X16337858Y-16216190D01*
X16290239Y-16149524D02*
X16290239Y-16320952D01*
X16290239Y-16320952D02*
X16299762Y-16340000D01*
X16299762Y-16340000D02*
X16318810Y-16349524D01*
X16318810Y-16349524D02*
X16337858Y-16349524D01*
X16480715Y-16340000D02*
X16461667Y-16349524D01*
X16461667Y-16349524D02*
X16423572Y-16349524D01*
X16423572Y-16349524D02*
X16404524Y-16340000D01*
X16404524Y-16340000D02*
X16395000Y-16320952D01*
X16395000Y-16320952D02*
X16395000Y-16244762D01*
X16395000Y-16244762D02*
X16404524Y-16225714D01*
X16404524Y-16225714D02*
X16423572Y-16216190D01*
X16423572Y-16216190D02*
X16461667Y-16216190D01*
X16461667Y-16216190D02*
X16480715Y-16225714D01*
X16480715Y-16225714D02*
X16490239Y-16244762D01*
X16490239Y-16244762D02*
X16490239Y-16263809D01*
X16490239Y-16263809D02*
X16395000Y-16282857D01*
X16661667Y-16349524D02*
X16661667Y-16149524D01*
X16661667Y-16340000D02*
X16642620Y-16349524D01*
X16642620Y-16349524D02*
X16604524Y-16349524D01*
X16604524Y-16349524D02*
X16585477Y-16340000D01*
X16585477Y-16340000D02*
X16575953Y-16330476D01*
X16575953Y-16330476D02*
X16566429Y-16311428D01*
X16566429Y-16311428D02*
X16566429Y-16254286D01*
X16566429Y-16254286D02*
X16575953Y-16235238D01*
X16575953Y-16235238D02*
X16585477Y-16225714D01*
X16585477Y-16225714D02*
X16604524Y-16216190D01*
X16604524Y-16216190D02*
X16642620Y-16216190D01*
X16642620Y-16216190D02*
X16661667Y-16225714D01*
X16737858Y-16425714D02*
X16747381Y-16416190D01*
X16747381Y-16416190D02*
X16766429Y-16387619D01*
X16766429Y-16387619D02*
X16775953Y-16368571D01*
X16775953Y-16368571D02*
X16785477Y-16340000D01*
X16785477Y-16340000D02*
X16795001Y-16292381D01*
X16795001Y-16292381D02*
X16795001Y-16254286D01*
X16795001Y-16254286D02*
X16785477Y-16206667D01*
X16785477Y-16206667D02*
X16775953Y-16178095D01*
X16775953Y-16178095D02*
X16766429Y-16159048D01*
X16766429Y-16159048D02*
X16747381Y-16130476D01*
X16747381Y-16130476D02*
X16737858Y-16120952D01*
M02*
