%TF.GenerationSoftware,KiCad,Pcbnew,7.0.1*%
%TF.CreationDate,2023-07-13T18:43:16+01:00*%
%TF.ProjectId,Gateway Board,47617465-7761-4792-9042-6f6172642e6b,rev?*%
%TF.SameCoordinates,Original*%
%TF.FileFunction,Copper,L4,Bot*%
%TF.FilePolarity,Positive*%
%FSLAX46Y46*%
G04 Gerber Fmt 4.6, Leading zero omitted, Abs format (unit mm)*
G04 Created by KiCad (PCBNEW 7.0.1) date 2023-07-13 18:43:16*
%MOMM*%
%LPD*%
G01*
G04 APERTURE LIST*
%TA.AperFunction,ComponentPad*%
%ADD10R,3.000000X3.000000*%
%TD*%
%TA.AperFunction,ComponentPad*%
%ADD11C,3.000000*%
%TD*%
%TA.AperFunction,ComponentPad*%
%ADD12C,5.600000*%
%TD*%
%TA.AperFunction,ComponentPad*%
%ADD13O,2.000000X0.900000*%
%TD*%
%TA.AperFunction,ComponentPad*%
%ADD14O,1.700000X0.900000*%
%TD*%
%TA.AperFunction,ComponentPad*%
%ADD15R,1.478000X1.478000*%
%TD*%
%TA.AperFunction,ComponentPad*%
%ADD16C,1.478000*%
%TD*%
%TA.AperFunction,ComponentPad*%
%ADD17C,1.650000*%
%TD*%
%TA.AperFunction,ComponentPad*%
%ADD18C,2.565000*%
%TD*%
%TA.AperFunction,ViaPad*%
%ADD19C,0.450000*%
%TD*%
%TA.AperFunction,Conductor*%
%ADD20C,0.500000*%
%TD*%
%TA.AperFunction,Conductor*%
%ADD21C,0.200000*%
%TD*%
%TA.AperFunction,Conductor*%
%ADD22C,1.000000*%
%TD*%
%TA.AperFunction,Conductor*%
%ADD23C,0.250000*%
%TD*%
%TA.AperFunction,Conductor*%
%ADD24C,0.300000*%
%TD*%
G04 APERTURE END LIST*
D10*
%TO.P,J304,1,Pin_1*%
%TO.N,/Microcontroller/CANH1*%
X133920000Y-138000000D03*
D11*
%TO.P,J304,2,Pin_2*%
%TO.N,GND*%
X139000000Y-138000000D03*
%TO.P,J304,3,Pin_3*%
%TO.N,/Microcontroller/CANL1*%
X144080000Y-138000000D03*
%TD*%
D10*
%TO.P,J306,1,Pin_1*%
%TO.N,/Microcontroller/CANH3*%
X168000000Y-138000000D03*
D11*
%TO.P,J306,2,Pin_2*%
%TO.N,GND*%
X173080000Y-138000000D03*
%TO.P,J306,3,Pin_3*%
%TO.N,/Microcontroller/CANL3*%
X178160000Y-138000000D03*
%TD*%
D12*
%TO.P,H101,1,1*%
%TO.N,GND*%
X103000000Y-58000000D03*
%TD*%
D13*
%TO.P,J303,S1,SHIELD*%
%TO.N,unconnected-(J303-SHIELD-PadS1)*%
X106170000Y-81175000D03*
%TO.P,J303,S2,SHIELD*%
%TO.N,unconnected-(J303-SHIELD-PadS2)*%
X106170000Y-89825000D03*
D14*
%TO.P,J303,S3,SHIELD*%
%TO.N,unconnected-(J303-SHIELD-PadS3)*%
X102000000Y-81175000D03*
%TO.P,J303,S4,SHIELD*%
%TO.N,unconnected-(J303-SHIELD-PadS4)*%
X102000000Y-89825000D03*
%TD*%
D10*
%TO.P,J305,1,Pin_1*%
%TO.N,/Microcontroller/CANH2*%
X150920000Y-138000000D03*
D11*
%TO.P,J305,2,Pin_2*%
%TO.N,GND*%
X156000000Y-138000000D03*
%TO.P,J305,3,Pin_3*%
%TO.N,/Microcontroller/CANL2*%
X161080000Y-138000000D03*
%TD*%
D12*
%TO.P,H104,1,1*%
%TO.N,GND*%
X187000000Y-142000000D03*
%TD*%
D15*
%TO.P,J401,1,TD+*%
%TO.N,/Ethernet/TXP*%
X113555000Y-129650000D03*
D16*
%TO.P,J401,2,TD-*%
%TO.N,/Ethernet/TXN*%
X114825000Y-127110000D03*
%TO.P,J401,3,RD+*%
%TO.N,/Ethernet/RXP*%
X116095000Y-129650000D03*
%TO.P,J401,4,TCT*%
%TO.N,+3.3VA*%
X117365000Y-127110000D03*
%TO.P,J401,5,RCT*%
X118635000Y-129650000D03*
%TO.P,J401,6,RD-*%
%TO.N,/Ethernet/RXN*%
X119905000Y-127110000D03*
%TO.P,J401,7,NC*%
%TO.N,unconnected-(J401-NC-Pad7)*%
X121175000Y-129650000D03*
%TO.P,J401,8,CHS_GND*%
%TO.N,GND*%
X122445000Y-127110000D03*
D17*
%TO.P,J401,9*%
%TO.N,+3.3V*%
X111375000Y-140900000D03*
%TO.P,J401,10*%
%TO.N,/Ethernet/G_K*%
X113915000Y-140900000D03*
%TO.P,J401,11*%
%TO.N,/Ethernet/Y_K*%
X122085000Y-140900000D03*
%TO.P,J401,12*%
%TO.N,+3.3V*%
X124625000Y-140900000D03*
D18*
%TO.P,J401,S1,SHIELD*%
%TO.N,GND*%
X125745000Y-132950000D03*
%TO.P,J401,S2,SHIELD*%
X110255000Y-132950000D03*
%TD*%
D10*
%TO.P,J201,1,Pin_1*%
%TO.N,VIN_RAW*%
X183000000Y-129540000D03*
D11*
%TO.P,J201,2,Pin_2*%
%TO.N,GND*%
X183000000Y-124460000D03*
%TD*%
D12*
%TO.P,H103,1,1*%
%TO.N,GND*%
X187000000Y-58000000D03*
%TD*%
%TO.P,H105,1,1*%
%TO.N,GND*%
X120000000Y-100000000D03*
%TD*%
%TO.P,H106,1,1*%
%TO.N,GND*%
X170000000Y-100000000D03*
%TD*%
%TO.P,H102,1,1*%
%TO.N,GND*%
X103000000Y-142000000D03*
%TD*%
D19*
%TO.N,GND*%
X180844549Y-115650000D03*
X154500000Y-94700000D03*
X180000000Y-111000000D03*
X182750000Y-112000000D03*
X131760000Y-98530000D03*
X151300000Y-112500000D03*
X146500000Y-92700000D03*
X178500000Y-128250000D03*
X136530000Y-113240000D03*
X121775000Y-114172000D03*
X159200000Y-98500000D03*
X115275000Y-66600000D03*
X132000000Y-114000000D03*
X160000000Y-122250000D03*
X130650000Y-106020000D03*
X149500000Y-117500000D03*
X139500000Y-116250000D03*
X158260000Y-103980000D03*
X179250000Y-109500000D03*
X117575000Y-66600000D03*
X135425000Y-106324500D03*
X126900000Y-117500000D03*
X172800000Y-124650000D03*
X156500000Y-132250000D03*
X128168000Y-122615000D03*
X107800000Y-88700000D03*
X178500000Y-127500000D03*
X130650000Y-104130000D03*
X188500000Y-116750000D03*
X119100000Y-123000000D03*
X123883180Y-122696563D03*
X126900000Y-115100000D03*
X148480000Y-86760000D03*
X154500000Y-92300000D03*
X126900000Y-116300000D03*
X103729000Y-122452000D03*
X124000000Y-94680000D03*
X180000000Y-110250000D03*
X161850000Y-114490000D03*
X128874000Y-121923000D03*
X154980000Y-113250000D03*
X121082000Y-114870000D03*
X135300000Y-88125000D03*
X172800000Y-124150000D03*
X131300000Y-118600000D03*
X114250000Y-86000000D03*
X143480000Y-86750000D03*
X177000000Y-128250000D03*
X127500000Y-116900000D03*
X183250000Y-112000000D03*
X177750000Y-128250000D03*
X124000000Y-101680000D03*
X103723000Y-117245000D03*
X179944549Y-117750000D03*
X126300000Y-115700000D03*
X115230000Y-88500000D03*
X179194549Y-117750000D03*
X173750000Y-59225000D03*
X174960000Y-58830000D03*
X165710000Y-58820000D03*
X180000000Y-109500000D03*
X103724000Y-112466000D03*
X153500000Y-122250000D03*
X176400000Y-126600000D03*
X126300000Y-116900000D03*
X179194549Y-117000000D03*
X120592824Y-119405741D03*
X122425000Y-63900000D03*
X124010000Y-108680000D03*
X161840000Y-107990000D03*
X128100000Y-116300000D03*
X166500000Y-85200000D03*
X183000000Y-59225000D03*
X154588643Y-98497164D03*
X122900000Y-67900000D03*
X107800000Y-82300000D03*
X148020000Y-113240000D03*
X137520000Y-87510000D03*
X132000000Y-117900000D03*
X158240000Y-93480000D03*
X143030000Y-113250000D03*
X127491000Y-123330000D03*
X179194549Y-116250000D03*
X114250000Y-91000000D03*
X113000000Y-88500000D03*
X132000000Y-113024500D03*
X179250000Y-110250000D03*
X127500000Y-115700000D03*
X133100000Y-92775000D03*
X158250000Y-91480000D03*
X125700000Y-116300000D03*
X179250000Y-111000000D03*
X146500000Y-94300000D03*
X150000000Y-132250000D03*
X171800000Y-127400000D03*
X135425000Y-105175500D03*
X130650000Y-108870000D03*
%TO.N,+5V*%
X168500000Y-124500000D03*
X167500000Y-119500000D03*
X168500000Y-122500000D03*
X152530000Y-122230000D03*
X167500000Y-123500000D03*
X167750000Y-114500000D03*
X159050000Y-122240000D03*
X149510000Y-116520000D03*
X168500000Y-120500000D03*
X167500000Y-121500000D03*
%TO.N,VBUS*%
X107800000Y-87900000D03*
X107800000Y-83100000D03*
X110500000Y-88500000D03*
%TO.N,+3.3VA*%
X123378680Y-116125534D03*
X126878680Y-120375534D03*
X123378680Y-116875534D03*
X127378680Y-119875534D03*
X121975000Y-121225000D03*
X126878680Y-119375534D03*
X122950000Y-120230000D03*
X122628680Y-116875534D03*
X120855000Y-122345000D03*
%TO.N,+3.3V*%
X131760000Y-99490000D03*
X130650000Y-107920000D03*
X136250000Y-88125000D03*
X181250000Y-108500000D03*
X154010000Y-113250000D03*
X184500000Y-111000000D03*
X124800000Y-110800000D03*
X129600000Y-114000000D03*
X186000000Y-107750000D03*
X142510000Y-86760000D03*
X117550000Y-68800000D03*
X148990000Y-113250000D03*
X131000000Y-110700000D03*
X158250000Y-103010000D03*
X121950000Y-67900000D03*
X154588643Y-97502836D03*
X139500000Y-115250000D03*
X182750000Y-108500000D03*
X133100000Y-112900000D03*
X124000000Y-92280000D03*
X135750000Y-105750000D03*
X151000000Y-132250000D03*
X135700000Y-117200000D03*
X187500000Y-111000000D03*
X137480000Y-113250000D03*
X124000000Y-99280000D03*
X173750000Y-56225000D03*
X147510000Y-86760000D03*
X167750000Y-108000000D03*
X133125000Y-93750000D03*
X143990000Y-113250000D03*
X124000000Y-106280000D03*
X115275000Y-68800000D03*
X157500000Y-132250000D03*
X187500000Y-107750000D03*
X158250000Y-90520000D03*
X135820000Y-123990000D03*
X130650000Y-105080000D03*
X184500000Y-107750000D03*
X159200000Y-97500000D03*
X135450000Y-107250000D03*
X186000000Y-111000000D03*
X164400000Y-92400000D03*
X129582000Y-121231000D03*
X183000000Y-56250000D03*
%TO.N,NRST*%
X157400000Y-107600000D03*
X154200000Y-107600000D03*
%TO.N,SDMMC1_CD*%
X153750000Y-91424500D03*
X123675000Y-67200000D03*
X117575000Y-63300000D03*
X127500000Y-67250000D03*
X154500000Y-84750000D03*
%TO.N,SDMMC1_CMD*%
X143750000Y-78725500D03*
X145250000Y-80274500D03*
%TO.N,SDMMC1_DAT0*%
X152247097Y-91417114D03*
X153000000Y-84750000D03*
%TO.N,SDMMC1_DAT1*%
X153750000Y-84750000D03*
X153000000Y-91424500D03*
%TO.N,USB_DN*%
X115874177Y-88925000D03*
X113000000Y-89149503D03*
X109720000Y-86760000D03*
X147000000Y-93825000D03*
X154426078Y-93825000D03*
%TO.N,USB_DP*%
X113000000Y-87850497D03*
X154426078Y-93175000D03*
X115874177Y-88275000D03*
X147000000Y-93175000D03*
%TO.N,SWCLK*%
X157250000Y-89432500D03*
X154300000Y-89262000D03*
%TO.N,CAN_RX3*%
X154200000Y-106000000D03*
X159100000Y-108500000D03*
%TO.N,CAN_TX3*%
X154200000Y-106800000D03*
X159100000Y-107600000D03*
%TO.N,ETH_MDC*%
X129840000Y-108140000D03*
X129840000Y-110810000D03*
%TO.N,ETH_REF_CLK*%
X131900000Y-116300000D03*
X128100000Y-109900000D03*
%TO.N,SWO*%
X149900000Y-92000000D03*
X154500000Y-91400000D03*
%TO.N,ETH_TX_EN*%
X135600000Y-112100000D03*
X124500000Y-114200000D03*
%TO.N,BOOT0*%
X145500000Y-112500000D03*
X145500000Y-105400000D03*
%TO.N,ETH_TXD0*%
X136950000Y-108750000D03*
X127400000Y-112500000D03*
%TO.N,ETH_TXD1*%
X136450000Y-108150000D03*
X127800000Y-111825500D03*
%TO.N,CAN_RX1*%
X148380000Y-115100000D03*
X151410000Y-104000000D03*
%TO.N,CAN_TX1*%
X149700000Y-104000000D03*
X148380000Y-118900000D03*
%TO.N,CAN_RX2*%
X152600000Y-104700000D03*
X154700000Y-110400000D03*
%TO.N,CAN_TX2*%
X152700000Y-105700000D03*
X155300000Y-109700000D03*
%TO.N,ETH_INT*%
X125500000Y-113400000D03*
X124100000Y-111500000D03*
%TO.N,ETH_RST*%
X123400000Y-112200000D03*
X124700000Y-113500000D03*
%TO.N,/Ethernet/TXN*%
X120508599Y-118731487D03*
%TO.N,/Ethernet/TXP*%
X121100000Y-119000000D03*
%TO.N,/Ethernet/RXN*%
X124246751Y-122153249D03*
%TO.N,/Ethernet/RXP*%
X124529275Y-122763011D03*
%TO.N,VIN*%
X179000000Y-124750000D03*
X179000000Y-125500000D03*
X102250000Y-95750000D03*
X180000000Y-125500000D03*
X180000000Y-124750000D03*
X102250000Y-96750000D03*
X103500000Y-96750000D03*
X103500000Y-95750000D03*
%TO.N,BTN*%
X147800000Y-83700000D03*
X151050000Y-80450000D03*
%TD*%
D20*
%TO.N,VBUS*%
X107800000Y-83100000D02*
X107800000Y-87900000D01*
D21*
X109900000Y-87900000D02*
X107800000Y-87900000D01*
X110500000Y-88500000D02*
X109900000Y-87900000D01*
D20*
%TO.N,+3.3VA*%
X123378680Y-116875534D02*
X124480000Y-117976854D01*
X117365000Y-125835000D02*
X117365000Y-127110000D01*
X120855000Y-122345000D02*
X117365000Y-125835000D01*
X124480000Y-117976854D02*
X124480000Y-118720000D01*
X120855000Y-122345000D02*
X121975000Y-121225000D01*
X124480000Y-118720000D02*
X121975000Y-121225000D01*
D22*
%TO.N,+3.3V*%
X124625000Y-140900000D02*
X130500000Y-135025000D01*
X122625000Y-138900000D02*
X124625000Y-140900000D01*
X111375000Y-140900000D02*
X113375000Y-138900000D01*
X130500000Y-135025000D02*
X130500000Y-133200000D01*
X113375000Y-138900000D02*
X122625000Y-138900000D01*
X130500000Y-133200000D02*
X130500000Y-131700000D01*
D21*
%TO.N,NRST*%
X154200000Y-107600000D02*
X157400000Y-107600000D01*
%TO.N,SDMMC1_CD*%
X117575000Y-63300000D02*
X119775000Y-63300000D01*
X127450000Y-67200000D02*
X127500000Y-67250000D01*
X119775000Y-63300000D02*
X123675000Y-67200000D01*
X154500000Y-86250000D02*
X154500000Y-84750000D01*
X123675000Y-67200000D02*
X127450000Y-67200000D01*
X153750000Y-87000000D02*
X154500000Y-86250000D01*
X153750000Y-91424500D02*
X153750000Y-87000000D01*
%TO.N,SDMMC1_CMD*%
X145250000Y-80274500D02*
X145250000Y-80225500D01*
X145250000Y-80225500D02*
X143750000Y-78725500D01*
%TO.N,SDMMC1_DAT0*%
X152247097Y-91417114D02*
X152250000Y-91414211D01*
X152250000Y-91414211D02*
X152250000Y-85500000D01*
X152250000Y-85500000D02*
X153000000Y-84750000D01*
%TO.N,SDMMC1_DAT1*%
X153000000Y-91424500D02*
X153000000Y-86250000D01*
X153750000Y-85500000D02*
X153750000Y-84750000D01*
X153000000Y-86250000D02*
X153750000Y-85500000D01*
D23*
%TO.N,USB_DN*%
X154426078Y-93825000D02*
X154326079Y-93725001D01*
X154326079Y-93725001D02*
X147099999Y-93725001D01*
X109720000Y-86760000D02*
X112109503Y-89149503D01*
X115749177Y-89050000D02*
X115874177Y-88925000D01*
X113000000Y-89149503D02*
X113099503Y-89050000D01*
X113099503Y-89050000D02*
X115749177Y-89050000D01*
X112109503Y-89149503D02*
X113000000Y-89149503D01*
X147099999Y-93725001D02*
X147000000Y-93825000D01*
%TO.N,USB_DP*%
X147099999Y-93274999D02*
X147000000Y-93175000D01*
X154326079Y-93274999D02*
X147099999Y-93274999D01*
X154426078Y-93175000D02*
X154326079Y-93274999D01*
X115549177Y-87950000D02*
X115874177Y-88275000D01*
X113000000Y-87850497D02*
X113099503Y-87950000D01*
X113099503Y-87950000D02*
X115549177Y-87950000D01*
D21*
%TO.N,SWCLK*%
X154300000Y-89262000D02*
X157079500Y-89262000D01*
X157079500Y-89262000D02*
X157250000Y-89432500D01*
%TO.N,CAN_RX3*%
X159700000Y-107900000D02*
X159700000Y-107200000D01*
X159100000Y-108500000D02*
X159700000Y-107900000D01*
X158500000Y-106000000D02*
X154200000Y-106000000D01*
X159700000Y-107200000D02*
X158500000Y-106000000D01*
%TO.N,CAN_TX3*%
X158300000Y-106800000D02*
X159100000Y-107600000D01*
X154200000Y-106800000D02*
X158300000Y-106800000D01*
%TO.N,ETH_MDC*%
X129840000Y-110810000D02*
X129840000Y-108140000D01*
%TO.N,ETH_REF_CLK*%
X130100000Y-116300000D02*
X131900000Y-116300000D01*
X126800000Y-113000000D02*
X130100000Y-116300000D01*
X128100000Y-109900000D02*
X126800000Y-111200000D01*
X126800000Y-111200000D02*
X126800000Y-113000000D01*
%TO.N,SWO*%
X149900000Y-92000000D02*
X153916963Y-92000000D01*
X154500000Y-91416963D02*
X154500000Y-91400000D01*
X153916963Y-92000000D02*
X154500000Y-91416963D01*
%TO.N,ETH_TX_EN*%
X135600000Y-112100000D02*
X135600000Y-113600000D01*
X127100000Y-114200000D02*
X124500000Y-114200000D01*
X132200000Y-117000000D02*
X129900000Y-117000000D01*
X135600000Y-113600000D02*
X132200000Y-117000000D01*
X129900000Y-117000000D02*
X127100000Y-114200000D01*
D24*
%TO.N,BOOT0*%
X145500000Y-112500000D02*
X145500000Y-105400000D01*
D21*
%TO.N,ETH_TXD0*%
X127400000Y-112500000D02*
X132100000Y-112500000D01*
X132100000Y-112500000D02*
X135850000Y-108750000D01*
X135850000Y-108750000D02*
X136950000Y-108750000D01*
%TO.N,ETH_TXD1*%
X131758814Y-111825500D02*
X135434314Y-108150000D01*
X135434314Y-108150000D02*
X136450000Y-108150000D01*
X127800000Y-111825500D02*
X131758814Y-111825500D01*
%TO.N,CAN_RX1*%
X150400000Y-112100000D02*
X150400000Y-113080000D01*
X151410000Y-104000000D02*
X151410000Y-111090000D01*
X151410000Y-111090000D02*
X150400000Y-112100000D01*
X150400000Y-113080000D02*
X148380000Y-115100000D01*
%TO.N,CAN_TX1*%
X147400000Y-117920000D02*
X148380000Y-118900000D01*
X147400000Y-108000000D02*
X147400000Y-117920000D01*
X149700000Y-104000000D02*
X149700000Y-105700000D01*
X149700000Y-105700000D02*
X147400000Y-108000000D01*
%TO.N,CAN_RX2*%
X152075000Y-105225000D02*
X152075000Y-107775000D01*
X152600000Y-104700000D02*
X152075000Y-105225000D01*
X152075000Y-107775000D02*
X154700000Y-110400000D01*
%TO.N,CAN_TX2*%
X152700000Y-107100000D02*
X155300000Y-109700000D01*
X152700000Y-105700000D02*
X152700000Y-107100000D01*
%TO.N,ETH_INT*%
X124100000Y-111500000D02*
X124100000Y-112000000D01*
X124100000Y-112000000D02*
X125500000Y-113400000D01*
%TO.N,ETH_RST*%
X124700000Y-113500000D02*
X123400000Y-112200000D01*
%TO.N,/Ethernet/TXN*%
X117226728Y-121605109D02*
X117000458Y-121378839D01*
X118923786Y-119908051D02*
X118697508Y-119681773D01*
X115700000Y-123556102D02*
X115700000Y-126235000D01*
X115700000Y-126235000D02*
X114825000Y-127110000D01*
X116802463Y-122453636D02*
X116802464Y-122453637D01*
X120508599Y-118731487D02*
X120508599Y-118747503D01*
X118499522Y-120756579D02*
X118499522Y-120756580D01*
X118499521Y-120756578D02*
X118499522Y-120756579D01*
X117424697Y-120954548D02*
X117650992Y-121180843D01*
X117650992Y-121605107D02*
X117650993Y-121605108D01*
X120508599Y-118747503D02*
X119348051Y-119908051D01*
X118075257Y-120756580D02*
X117848961Y-120530284D01*
X117650993Y-121605108D02*
X117650993Y-121605109D01*
X118273244Y-120106037D02*
X118499521Y-120332314D01*
X118923785Y-119908051D02*
X118923786Y-119908051D01*
X116576194Y-121803103D02*
X116802463Y-122029372D01*
X117226727Y-121605109D02*
X117226728Y-121605109D01*
X118075256Y-120756580D02*
X118075257Y-120756580D01*
X116802464Y-122453637D02*
X115700000Y-123556102D01*
X116802459Y-122453632D02*
G75*
G03*
X116802463Y-122029372I-212159J212132D01*
G01*
X118273239Y-119681768D02*
G75*
G03*
X118273244Y-120106037I212161J-212132D01*
G01*
X117848960Y-120530285D02*
G75*
G03*
X117424698Y-120530285I-212131J-212131D01*
G01*
X118075256Y-120756580D02*
G75*
G03*
X118499522Y-120756580I212133J212134D01*
G01*
X117000457Y-121378840D02*
G75*
G03*
X116576195Y-121378840I-212131J-212131D01*
G01*
X118697507Y-119681774D02*
G75*
G03*
X118273245Y-119681774I-212131J-212131D01*
G01*
X118499475Y-120756532D02*
G75*
G03*
X118499521Y-120332314I-212075J212132D01*
G01*
X117651017Y-121605132D02*
G75*
G03*
X117650992Y-121180843I-212117J212132D01*
G01*
X118923785Y-119908051D02*
G75*
G03*
X119348051Y-119908051I212133J212134D01*
G01*
X117226727Y-121605109D02*
G75*
G03*
X117650993Y-121605109I212133J212134D01*
G01*
X117424682Y-120530269D02*
G75*
G03*
X117424698Y-120954547I212118J-212131D01*
G01*
X116576223Y-121378868D02*
G75*
G03*
X116576194Y-121803103I212077J-212132D01*
G01*
%TO.N,/Ethernet/TXP*%
X116100000Y-127720000D02*
X114170000Y-129650000D01*
X120810287Y-119930741D02*
X119909259Y-119930741D01*
X114170000Y-129650000D02*
X113555000Y-129650000D01*
X119909259Y-119930741D02*
X116100000Y-123740000D01*
X121117824Y-119623204D02*
X120810287Y-119930741D01*
X121117824Y-118982176D02*
X121117824Y-119623204D01*
X116100000Y-123740000D02*
X116100000Y-127720000D01*
X121100000Y-119000000D02*
X121117824Y-118982176D01*
%TO.N,/Ethernet/RXN*%
X122085385Y-124324663D02*
X122085386Y-124324663D01*
X119964064Y-126870249D02*
X119905000Y-126929314D01*
X120611156Y-125396019D02*
X120812592Y-125597455D01*
X122308214Y-123698961D02*
X122509650Y-123900397D01*
X122085386Y-124324663D02*
X121883958Y-124123235D01*
X121459694Y-124547499D02*
X121661121Y-124748926D01*
X122933915Y-123476134D02*
X122732478Y-123274697D01*
X119905000Y-126929314D02*
X119905000Y-127110000D01*
X120388328Y-126021721D02*
X120186900Y-125820293D01*
X120388327Y-126021721D02*
X120388328Y-126021721D01*
X123684031Y-122153249D02*
X123358180Y-122479100D01*
X122933914Y-123476134D02*
X122933915Y-123476134D01*
X122509650Y-124324661D02*
X122509651Y-124324663D01*
X121236856Y-125173192D02*
X121236857Y-125173192D01*
X120812592Y-126021719D02*
X120812593Y-126021721D01*
X124246751Y-122153249D02*
X123684031Y-122153249D01*
X123358180Y-122479100D02*
X123358180Y-123476134D01*
X121236857Y-125173192D02*
X121035420Y-124971755D01*
X121661121Y-125173190D02*
X121661122Y-125173192D01*
X119762636Y-126244557D02*
X119964063Y-126445984D01*
X119964063Y-126870248D02*
X119964064Y-126870249D01*
X121459727Y-124123268D02*
G75*
G03*
X121459694Y-124547499I212073J-212132D01*
G01*
X122933914Y-123476134D02*
G75*
G03*
X123358180Y-123476134I212133J212134D01*
G01*
X121883957Y-124123236D02*
G75*
G03*
X121459695Y-124123236I-212131J-212131D01*
G01*
X120186899Y-125820294D02*
G75*
G03*
X119762637Y-125820294I-212131J-212131D01*
G01*
X120388327Y-126021721D02*
G75*
G03*
X120812593Y-126021721I212133J212134D01*
G01*
X122509621Y-124324632D02*
G75*
G03*
X122509650Y-123900397I-212121J212132D01*
G01*
X121035419Y-124971756D02*
G75*
G03*
X120611157Y-124971756I-212131J-212131D01*
G01*
X122085385Y-124324663D02*
G75*
G03*
X122509651Y-124324663I212133J212134D01*
G01*
X122732477Y-123274698D02*
G75*
G03*
X122308215Y-123274698I-212131J-212131D01*
G01*
X121661162Y-125173231D02*
G75*
G03*
X121661120Y-124748927I-212162J212131D01*
G01*
X121236856Y-125173192D02*
G75*
G03*
X121661122Y-125173192I212133J212134D01*
G01*
X119964047Y-126870232D02*
G75*
G03*
X119964063Y-126445984I-212147J212132D01*
G01*
X122308186Y-123274669D02*
G75*
G03*
X122308215Y-123698960I212114J-212131D01*
G01*
X119762611Y-125820268D02*
G75*
G03*
X119762636Y-126244557I212189J-212132D01*
G01*
X120611169Y-124971768D02*
G75*
G03*
X120611156Y-125396019I212131J-212132D01*
G01*
X120812604Y-126021731D02*
G75*
G03*
X120812591Y-125597456I-212104J212131D01*
G01*
%TO.N,/Ethernet/RXP*%
X117385000Y-128360000D02*
X116095000Y-129650000D01*
X120600000Y-128360000D02*
X117385000Y-128360000D01*
X121160000Y-126240000D02*
X121160000Y-127800000D01*
X124529275Y-122763011D02*
X124529275Y-122870725D01*
X124529275Y-122870725D02*
X121160000Y-126240000D01*
X121160000Y-127800000D02*
X120600000Y-128360000D01*
D22*
%TO.N,VIN*%
X180000000Y-134400000D02*
X180000000Y-125500000D01*
X102250000Y-95750000D02*
X103500000Y-95750000D01*
X180000000Y-125500000D02*
X179000000Y-125500000D01*
X102250000Y-96750000D02*
X102250000Y-95750000D01*
X102250000Y-135050000D02*
X110300000Y-143100000D01*
X180000000Y-124750000D02*
X180000000Y-125500000D01*
X103500000Y-96750000D02*
X102250000Y-96750000D01*
X179000000Y-143100000D02*
X181300000Y-140800000D01*
X181300000Y-140800000D02*
X181300000Y-135700000D01*
X179000000Y-125500000D02*
X179000000Y-124750000D01*
X179000000Y-124750000D02*
X180000000Y-124750000D01*
X102250000Y-97050000D02*
X102250000Y-135050000D01*
X110300000Y-143100000D02*
X179000000Y-143100000D01*
X102250000Y-97050000D02*
X102250000Y-96750000D01*
X103500000Y-95750000D02*
X103500000Y-96750000D01*
X181300000Y-135700000D02*
X180000000Y-134400000D01*
D21*
%TO.N,BTN*%
X151050000Y-80450000D02*
X147800000Y-83700000D01*
%TD*%
%TA.AperFunction,Conductor*%
%TO.N,+3.3V*%
G36*
X185711494Y-55018773D02*
G01*
X185757189Y-55068205D01*
X185770322Y-55134229D01*
X185747022Y-55197386D01*
X185694156Y-55239061D01*
X185674356Y-55247262D01*
X185374479Y-55412998D01*
X185095041Y-55611268D01*
X184839572Y-55839572D01*
X184611268Y-56095041D01*
X184412998Y-56374479D01*
X184247263Y-56674353D01*
X184116147Y-56990893D01*
X184021295Y-57320132D01*
X183963904Y-57657913D01*
X183944693Y-57999999D01*
X183963904Y-58342086D01*
X184021295Y-58679867D01*
X184116147Y-59009106D01*
X184222962Y-59266978D01*
X184247264Y-59325648D01*
X184412998Y-59625521D01*
X184524895Y-59783226D01*
X184611268Y-59904958D01*
X184753191Y-60063768D01*
X184839572Y-60160428D01*
X184947732Y-60257086D01*
X185095041Y-60388731D01*
X185095047Y-60388735D01*
X185374479Y-60587002D01*
X185674352Y-60752736D01*
X185873963Y-60835417D01*
X185990893Y-60883852D01*
X185990894Y-60883852D01*
X185990896Y-60883853D01*
X186320130Y-60978704D01*
X186657914Y-61036096D01*
X187000000Y-61055307D01*
X187342086Y-61036096D01*
X187679870Y-60978704D01*
X188009104Y-60883853D01*
X188325648Y-60752736D01*
X188625521Y-60587002D01*
X188904953Y-60388735D01*
X188904955Y-60388732D01*
X188904958Y-60388731D01*
X188955607Y-60343466D01*
X189160428Y-60160428D01*
X189388735Y-59904953D01*
X189587002Y-59625521D01*
X189752736Y-59325648D01*
X189760939Y-59305843D01*
X189802614Y-59252978D01*
X189865771Y-59229678D01*
X189931795Y-59242811D01*
X189981227Y-59288506D01*
X189999500Y-59353296D01*
X189999500Y-112449138D01*
X189990061Y-112496591D01*
X189963181Y-112536819D01*
X189036319Y-113463681D01*
X188996091Y-113490561D01*
X188948638Y-113500000D01*
X155567549Y-113500000D01*
X155500510Y-113480315D01*
X155454755Y-113427511D01*
X155444811Y-113358353D01*
X155445503Y-113353543D01*
X155460390Y-113250000D01*
X155440931Y-113114658D01*
X155440246Y-113113159D01*
X155384130Y-112990282D01*
X155333121Y-112931414D01*
X155294589Y-112886945D01*
X155294588Y-112886944D01*
X155294587Y-112886943D01*
X155179562Y-112813022D01*
X155048367Y-112774500D01*
X154911633Y-112774500D01*
X154780437Y-112813022D01*
X154665412Y-112886943D01*
X154575869Y-112990282D01*
X154519068Y-113114657D01*
X154499736Y-113249126D01*
X154499610Y-113250000D01*
X154512756Y-113341437D01*
X154515189Y-113358353D01*
X154505245Y-113427511D01*
X154459490Y-113480315D01*
X154392451Y-113500000D01*
X150771691Y-113500000D01*
X150707121Y-113481862D01*
X150661441Y-113432753D01*
X150648015Y-113367041D01*
X150670770Y-113303952D01*
X150679570Y-113291625D01*
X150682604Y-113287556D01*
X150712517Y-113249126D01*
X150712517Y-113249124D01*
X150717107Y-113243228D01*
X150719239Y-113236067D01*
X150733131Y-113189401D01*
X150734686Y-113184549D01*
X150750500Y-113138488D01*
X150750500Y-113138485D01*
X150752925Y-113131421D01*
X150752616Y-113123956D01*
X150752617Y-113123954D01*
X150750605Y-113075331D01*
X150750500Y-113070208D01*
X150750500Y-112924410D01*
X150764830Y-112866543D01*
X150804510Y-112822051D01*
X150860366Y-112801218D01*
X150919489Y-112808859D01*
X150968214Y-112843208D01*
X150985412Y-112863056D01*
X151100437Y-112936977D01*
X151100439Y-112936978D01*
X151231633Y-112975500D01*
X151368367Y-112975500D01*
X151499561Y-112936978D01*
X151614589Y-112863055D01*
X151704130Y-112759718D01*
X151760931Y-112635342D01*
X151780390Y-112500000D01*
X151760931Y-112364658D01*
X151760199Y-112363056D01*
X151704130Y-112240282D01*
X151614587Y-112136943D01*
X151499562Y-112063022D01*
X151368367Y-112024500D01*
X151270544Y-112024500D01*
X151214249Y-112010985D01*
X151201387Y-112000000D01*
X182269610Y-112000000D01*
X182289068Y-112135342D01*
X182345869Y-112259717D01*
X182435412Y-112363056D01*
X182526527Y-112421611D01*
X182550439Y-112436978D01*
X182681633Y-112475500D01*
X182818367Y-112475500D01*
X182949561Y-112436978D01*
X182949562Y-112436976D01*
X182965065Y-112432425D01*
X183000000Y-112427402D01*
X183034935Y-112432425D01*
X183050437Y-112436976D01*
X183050439Y-112436978D01*
X183181633Y-112475500D01*
X183318367Y-112475500D01*
X183449561Y-112436978D01*
X183564589Y-112363055D01*
X183654130Y-112259718D01*
X183710931Y-112135342D01*
X183730390Y-112000000D01*
X183710931Y-111864658D01*
X183709800Y-111862182D01*
X183654130Y-111740282D01*
X183564589Y-111636945D01*
X183564588Y-111636944D01*
X183564587Y-111636943D01*
X183449562Y-111563022D01*
X183318367Y-111524500D01*
X183181633Y-111524500D01*
X183181632Y-111524500D01*
X183034933Y-111567573D01*
X182965065Y-111567573D01*
X182818368Y-111524500D01*
X182818367Y-111524500D01*
X182681633Y-111524500D01*
X182550437Y-111563022D01*
X182435412Y-111636943D01*
X182345869Y-111740282D01*
X182289068Y-111864657D01*
X182269610Y-112000000D01*
X151201387Y-112000000D01*
X151170226Y-111973385D01*
X151148071Y-111919898D01*
X151152613Y-111862182D01*
X151182863Y-111812819D01*
X151495681Y-111500000D01*
X151623046Y-111372634D01*
X151642903Y-111356510D01*
X151650669Y-111351437D01*
X151668496Y-111328531D01*
X151678228Y-111317511D01*
X151678370Y-111317311D01*
X151678376Y-111317306D01*
X151689586Y-111301603D01*
X151692600Y-111297561D01*
X151722517Y-111259126D01*
X151722517Y-111259124D01*
X151727107Y-111253228D01*
X151729238Y-111246067D01*
X151729240Y-111246066D01*
X151743129Y-111199412D01*
X151744679Y-111194569D01*
X151760500Y-111148488D01*
X151760500Y-111148484D01*
X151762925Y-111141420D01*
X151762616Y-111133955D01*
X151762617Y-111133954D01*
X151760606Y-111085321D01*
X151760500Y-111080198D01*
X151760500Y-111000000D01*
X178769610Y-111000000D01*
X178789068Y-111135342D01*
X178845869Y-111259717D01*
X178935412Y-111363056D01*
X179016291Y-111415033D01*
X179050439Y-111436978D01*
X179181633Y-111475500D01*
X179318367Y-111475500D01*
X179449561Y-111436978D01*
X179557963Y-111367313D01*
X179624999Y-111347630D01*
X179692037Y-111367314D01*
X179766291Y-111415033D01*
X179800439Y-111436978D01*
X179931633Y-111475500D01*
X180068367Y-111475500D01*
X180199561Y-111436978D01*
X180314589Y-111363055D01*
X180404130Y-111259718D01*
X180460931Y-111135342D01*
X180480390Y-111000000D01*
X180460931Y-110864658D01*
X180448289Y-110836977D01*
X180432530Y-110802469D01*
X180404130Y-110740282D01*
X180374598Y-110706200D01*
X180347808Y-110654234D01*
X180347808Y-110595766D01*
X180374598Y-110543799D01*
X180404130Y-110509718D01*
X180460931Y-110385342D01*
X180480390Y-110250000D01*
X180460931Y-110114658D01*
X180404130Y-109990282D01*
X180374598Y-109956200D01*
X180347808Y-109904234D01*
X180347808Y-109845766D01*
X180374598Y-109793799D01*
X180404130Y-109759718D01*
X180460931Y-109635342D01*
X180480390Y-109500000D01*
X180460931Y-109364658D01*
X180433111Y-109303742D01*
X180404130Y-109240282D01*
X180330667Y-109155500D01*
X180314589Y-109136945D01*
X180314588Y-109136944D01*
X180314587Y-109136943D01*
X180199562Y-109063022D01*
X180068367Y-109024500D01*
X179931633Y-109024500D01*
X179800439Y-109063021D01*
X179742121Y-109100500D01*
X179692037Y-109132686D01*
X179625000Y-109152370D01*
X179557962Y-109132686D01*
X179494798Y-109092093D01*
X179449560Y-109063021D01*
X179318367Y-109024500D01*
X179181633Y-109024500D01*
X179050437Y-109063022D01*
X178935412Y-109136943D01*
X178845869Y-109240282D01*
X178789068Y-109364657D01*
X178769610Y-109500000D01*
X178789068Y-109635342D01*
X178845869Y-109759717D01*
X178875400Y-109793798D01*
X178902191Y-109845766D01*
X178902191Y-109904234D01*
X178875400Y-109956202D01*
X178845869Y-109990282D01*
X178789068Y-110114657D01*
X178769610Y-110250000D01*
X178789068Y-110385342D01*
X178845869Y-110509717D01*
X178875400Y-110543798D01*
X178902191Y-110595766D01*
X178902191Y-110654234D01*
X178875400Y-110706202D01*
X178845869Y-110740282D01*
X178789068Y-110864657D01*
X178769610Y-111000000D01*
X151760500Y-111000000D01*
X151760500Y-108255544D01*
X151774015Y-108199249D01*
X151811615Y-108155226D01*
X151865102Y-108133071D01*
X151922818Y-108137613D01*
X151972181Y-108167863D01*
X154192993Y-110388675D01*
X154216195Y-110420851D01*
X154228050Y-110458707D01*
X154239069Y-110535342D01*
X154239070Y-110535344D01*
X154295868Y-110659716D01*
X154385412Y-110763056D01*
X154500437Y-110836977D01*
X154500439Y-110836978D01*
X154631633Y-110875500D01*
X154768367Y-110875500D01*
X154899561Y-110836978D01*
X155014589Y-110763055D01*
X155104130Y-110659718D01*
X155160931Y-110535342D01*
X155180390Y-110400000D01*
X155168478Y-110317146D01*
X155178422Y-110247988D01*
X155224177Y-110195184D01*
X155291216Y-110175500D01*
X155368367Y-110175500D01*
X155499561Y-110136978D01*
X155614589Y-110063055D01*
X155704130Y-109959718D01*
X155760931Y-109835342D01*
X155780390Y-109700000D01*
X155760931Y-109564658D01*
X155731402Y-109500000D01*
X155704130Y-109440282D01*
X155690455Y-109424500D01*
X155614589Y-109336945D01*
X155614588Y-109336944D01*
X155614587Y-109336943D01*
X155499562Y-109263022D01*
X155361694Y-109222540D01*
X155324091Y-109215061D01*
X155283863Y-109188181D01*
X154341019Y-108245337D01*
X154309118Y-108190461D01*
X154308552Y-108126988D01*
X154339469Y-108071552D01*
X154393764Y-108038679D01*
X154399561Y-108036978D01*
X154503496Y-107970183D01*
X154570534Y-107950500D01*
X157029466Y-107950500D01*
X157096503Y-107970183D01*
X157200439Y-108036978D01*
X157331633Y-108075500D01*
X157468367Y-108075500D01*
X157599561Y-108036978D01*
X157714589Y-107963055D01*
X157804130Y-107859718D01*
X157860931Y-107735342D01*
X157880390Y-107600000D01*
X157860931Y-107464658D01*
X157859291Y-107461068D01*
X157797613Y-107326012D01*
X157786723Y-107265654D01*
X157806091Y-107207461D01*
X157850980Y-107165668D01*
X157910407Y-107150500D01*
X158103456Y-107150500D01*
X158150909Y-107159939D01*
X158191137Y-107186819D01*
X158592993Y-107588674D01*
X158616195Y-107620850D01*
X158628050Y-107658706D01*
X158639069Y-107735342D01*
X158639070Y-107735344D01*
X158695868Y-107859716D01*
X158790387Y-107968798D01*
X158817178Y-108020766D01*
X158817178Y-108079234D01*
X158790387Y-108131202D01*
X158695869Y-108240282D01*
X158639068Y-108364657D01*
X158619610Y-108500000D01*
X158639068Y-108635342D01*
X158695869Y-108759717D01*
X158785412Y-108863056D01*
X158900437Y-108936977D01*
X158900439Y-108936978D01*
X159031633Y-108975500D01*
X159168367Y-108975500D01*
X159299561Y-108936978D01*
X159414589Y-108863055D01*
X159504130Y-108759718D01*
X159560931Y-108635342D01*
X159571949Y-108558707D01*
X159583802Y-108520852D01*
X159607002Y-108488678D01*
X159913046Y-108182634D01*
X159932903Y-108166510D01*
X159940669Y-108161437D01*
X159958496Y-108138531D01*
X159968232Y-108127507D01*
X159969778Y-108125342D01*
X159979561Y-108111637D01*
X159982610Y-108107548D01*
X160012517Y-108069126D01*
X160012517Y-108069124D01*
X160017108Y-108063227D01*
X160021046Y-108050000D01*
X160033129Y-108009412D01*
X160034679Y-108004569D01*
X160039681Y-107990000D01*
X161359610Y-107990000D01*
X161361223Y-108001216D01*
X161379068Y-108125342D01*
X161435869Y-108249717D01*
X161525412Y-108353056D01*
X161640437Y-108426977D01*
X161640439Y-108426978D01*
X161771633Y-108465500D01*
X161908367Y-108465500D01*
X162039561Y-108426978D01*
X162154589Y-108353055D01*
X162244130Y-108249718D01*
X162300931Y-108125342D01*
X162320390Y-107990000D01*
X162301226Y-107856712D01*
X162300931Y-107854657D01*
X162244130Y-107730282D01*
X162189387Y-107667105D01*
X162154589Y-107626945D01*
X162154588Y-107626944D01*
X162154587Y-107626943D01*
X162039562Y-107553022D01*
X161908367Y-107514500D01*
X161771633Y-107514500D01*
X161640437Y-107553022D01*
X161525412Y-107626943D01*
X161435869Y-107730282D01*
X161379068Y-107854657D01*
X161363484Y-107963055D01*
X161359610Y-107990000D01*
X160039681Y-107990000D01*
X160050500Y-107958488D01*
X160050500Y-107958485D01*
X160052925Y-107951421D01*
X160052616Y-107943956D01*
X160052617Y-107943954D01*
X160050605Y-107895331D01*
X160050500Y-107890208D01*
X160050500Y-107249207D01*
X160053139Y-107223761D01*
X160053173Y-107223594D01*
X160055042Y-107214685D01*
X160051452Y-107185884D01*
X160050540Y-107171205D01*
X160050500Y-107170965D01*
X160050500Y-107170960D01*
X160047331Y-107151972D01*
X160046594Y-107146915D01*
X160043800Y-107124500D01*
X160040573Y-107098607D01*
X160040572Y-107098605D01*
X160039648Y-107091191D01*
X160036092Y-107084620D01*
X160036092Y-107084619D01*
X160012925Y-107041811D01*
X160010581Y-107037256D01*
X159985918Y-106986805D01*
X159980418Y-106981742D01*
X159944587Y-106948757D01*
X159940914Y-106945232D01*
X158782638Y-105786956D01*
X158766509Y-105767094D01*
X158761437Y-105759330D01*
X158738533Y-105741504D01*
X158727508Y-105731768D01*
X158711653Y-105720448D01*
X158707544Y-105717384D01*
X158663229Y-105682892D01*
X158609409Y-105666869D01*
X158604531Y-105665306D01*
X158551421Y-105647074D01*
X158495332Y-105649394D01*
X158490208Y-105649500D01*
X154570534Y-105649500D01*
X154503496Y-105629816D01*
X154479363Y-105614307D01*
X173456850Y-105614307D01*
X173456857Y-105789380D01*
X173487264Y-105961786D01*
X173547147Y-106126295D01*
X173634689Y-106277910D01*
X173747222Y-106412014D01*
X173881338Y-106524545D01*
X173968869Y-106575077D01*
X174032956Y-106612076D01*
X174197469Y-106671950D01*
X174264781Y-106683817D01*
X174264783Y-106683818D01*
X174283575Y-106687131D01*
X174283576Y-106687132D01*
X182117248Y-108068419D01*
X182117614Y-108068553D01*
X182161591Y-108076240D01*
X182162862Y-108076469D01*
X182185178Y-108080609D01*
X182186427Y-108080581D01*
X182202734Y-108083432D01*
X182202876Y-108083456D01*
X182248346Y-108091475D01*
X182423405Y-108091480D01*
X182595806Y-108061085D01*
X182760309Y-108001216D01*
X182911917Y-107913691D01*
X183046023Y-107801170D01*
X183158554Y-107667071D01*
X183246089Y-107515468D01*
X183305968Y-107350969D01*
X183321015Y-107265654D01*
X183321171Y-107264771D01*
X183321171Y-107264770D01*
X183328396Y-107223905D01*
X183328399Y-107223766D01*
X183335079Y-107185884D01*
X183481676Y-106354492D01*
X183481857Y-106354116D01*
X183494703Y-106280621D01*
X183494976Y-106279112D01*
X183499138Y-106256917D01*
X183499103Y-106255448D01*
X183500037Y-106250108D01*
X183500079Y-106250115D01*
X183500066Y-106249933D01*
X183509974Y-106193753D01*
X183509978Y-106018693D01*
X183479583Y-105846291D01*
X183457989Y-105786956D01*
X183419713Y-105681785D01*
X183367379Y-105591137D01*
X183332186Y-105530177D01*
X183219662Y-105396071D01*
X183219660Y-105396069D01*
X183219659Y-105396068D01*
X183085563Y-105283542D01*
X182988142Y-105227293D01*
X182933956Y-105196007D01*
X182851704Y-105166067D01*
X182769453Y-105136128D01*
X182701127Y-105124079D01*
X182701111Y-105124075D01*
X174879324Y-103744883D01*
X174878952Y-103744704D01*
X174855376Y-103740583D01*
X174855200Y-103740515D01*
X174855196Y-103740542D01*
X174718599Y-103716462D01*
X174543525Y-103716467D01*
X174371117Y-103746875D01*
X174206604Y-103806761D01*
X174054990Y-103894303D01*
X173920882Y-104006842D01*
X173808351Y-104140962D01*
X173720824Y-104292581D01*
X173660952Y-104457100D01*
X173644143Y-104552458D01*
X173644142Y-104552465D01*
X173480945Y-105477993D01*
X173480823Y-105478307D01*
X173456850Y-105614307D01*
X154479363Y-105614307D01*
X154402107Y-105564658D01*
X154399560Y-105563021D01*
X154268367Y-105524500D01*
X154131633Y-105524500D01*
X154000437Y-105563022D01*
X153885412Y-105636943D01*
X153795869Y-105740282D01*
X153739068Y-105864657D01*
X153719610Y-105999999D01*
X153739068Y-106135342D01*
X153769329Y-106201602D01*
X153795870Y-106259718D01*
X153847063Y-106318799D01*
X153873853Y-106370764D01*
X153873854Y-106429232D01*
X153847063Y-106481201D01*
X153795869Y-106540282D01*
X153739068Y-106664657D01*
X153719610Y-106799999D01*
X153739068Y-106935342D01*
X153795869Y-107059717D01*
X153847062Y-107118798D01*
X153873853Y-107170766D01*
X153873853Y-107229234D01*
X153847062Y-107281202D01*
X153795870Y-107340282D01*
X153757225Y-107424900D01*
X153720500Y-107471313D01*
X153666447Y-107495417D01*
X153607378Y-107491721D01*
X153556750Y-107461068D01*
X153086819Y-106991137D01*
X153059939Y-106950909D01*
X153050500Y-106903456D01*
X153050500Y-106067860D01*
X153058318Y-106024526D01*
X153080787Y-105986657D01*
X153084269Y-105982639D01*
X153104130Y-105959718D01*
X153160931Y-105835342D01*
X153180390Y-105700000D01*
X153160931Y-105564658D01*
X153160183Y-105563021D01*
X153104130Y-105440282D01*
X153017732Y-105340572D01*
X153014589Y-105336945D01*
X153014588Y-105336944D01*
X152913816Y-105272183D01*
X152872022Y-105227293D01*
X152856855Y-105167865D01*
X152872025Y-105108436D01*
X152913817Y-105063550D01*
X152914589Y-105063055D01*
X153004130Y-104959718D01*
X153060931Y-104835342D01*
X153080390Y-104700000D01*
X153061265Y-104566978D01*
X153060931Y-104564657D01*
X153004130Y-104440282D01*
X152983936Y-104416977D01*
X152914589Y-104336945D01*
X152914588Y-104336944D01*
X152914587Y-104336943D01*
X152799562Y-104263022D01*
X152668367Y-104224500D01*
X152531633Y-104224500D01*
X152400437Y-104263022D01*
X152285412Y-104336943D01*
X152195869Y-104440282D01*
X152139069Y-104564656D01*
X152128050Y-104641291D01*
X152116196Y-104679147D01*
X152092994Y-104711323D01*
X151972179Y-104832137D01*
X151922818Y-104862386D01*
X151865102Y-104866928D01*
X151811615Y-104844773D01*
X151774015Y-104800750D01*
X151760500Y-104744455D01*
X151760500Y-104367860D01*
X151768318Y-104324526D01*
X151790787Y-104286657D01*
X151814130Y-104259718D01*
X151870931Y-104135342D01*
X151890390Y-104000000D01*
X151887514Y-103980000D01*
X157779610Y-103980000D01*
X157799068Y-104115342D01*
X157855869Y-104239717D01*
X157945412Y-104343056D01*
X157995447Y-104375211D01*
X158060439Y-104416978D01*
X158191633Y-104455500D01*
X158328367Y-104455500D01*
X158459561Y-104416978D01*
X158574589Y-104343055D01*
X158664130Y-104239718D01*
X158720931Y-104115342D01*
X158740390Y-103980000D01*
X158720931Y-103844658D01*
X158685440Y-103766945D01*
X158664130Y-103720282D01*
X158574587Y-103616943D01*
X158459562Y-103543022D01*
X158328367Y-103504500D01*
X158191633Y-103504500D01*
X158060437Y-103543022D01*
X157945412Y-103616943D01*
X157855869Y-103720282D01*
X157799068Y-103844657D01*
X157779610Y-103980000D01*
X151887514Y-103980000D01*
X151870931Y-103864658D01*
X151864908Y-103851470D01*
X151814130Y-103740282D01*
X151724587Y-103636943D01*
X151609562Y-103563022D01*
X151478367Y-103524500D01*
X151341633Y-103524500D01*
X151210437Y-103563022D01*
X151095412Y-103636943D01*
X151005869Y-103740282D01*
X150949068Y-103864657D01*
X150929610Y-103999999D01*
X150949068Y-104135342D01*
X151005869Y-104259717D01*
X151029213Y-104286657D01*
X151051682Y-104324526D01*
X151059500Y-104367860D01*
X151059500Y-110893457D01*
X151050061Y-110940910D01*
X151023181Y-110981138D01*
X150186955Y-111817361D01*
X150167104Y-111833483D01*
X150159332Y-111838561D01*
X150141500Y-111861471D01*
X150131765Y-111872496D01*
X150120441Y-111888357D01*
X150117392Y-111892445D01*
X150100954Y-111913566D01*
X150082891Y-111936773D01*
X150066871Y-111990582D01*
X150065309Y-111995458D01*
X150047074Y-112048577D01*
X150049394Y-112104668D01*
X150049500Y-112109792D01*
X150049500Y-112883456D01*
X150040061Y-112930909D01*
X150013181Y-112971137D01*
X148396137Y-114588181D01*
X148355909Y-114615061D01*
X148318305Y-114622540D01*
X148180437Y-114663022D01*
X148065412Y-114736943D01*
X147968214Y-114849118D01*
X147919489Y-114883467D01*
X147860366Y-114891108D01*
X147804509Y-114870275D01*
X147764830Y-114825783D01*
X147750500Y-114767916D01*
X147750500Y-113822086D01*
X147763616Y-113766581D01*
X147800190Y-113722819D01*
X147852484Y-113700056D01*
X147909432Y-113703108D01*
X147951633Y-113715500D01*
X148088367Y-113715500D01*
X148219561Y-113676978D01*
X148334589Y-113603055D01*
X148424130Y-113499718D01*
X148480931Y-113375342D01*
X148500390Y-113240000D01*
X148480931Y-113104658D01*
X148467538Y-113075332D01*
X148424130Y-112980282D01*
X148407749Y-112961377D01*
X148334589Y-112876945D01*
X148334588Y-112876944D01*
X148334587Y-112876943D01*
X148219562Y-112803022D01*
X148088367Y-112764500D01*
X147951633Y-112764500D01*
X147909432Y-112776891D01*
X147852484Y-112779944D01*
X147800190Y-112757181D01*
X147763616Y-112713419D01*
X147750500Y-112657914D01*
X147750500Y-108196544D01*
X147759939Y-108149091D01*
X147786819Y-108108863D01*
X148307008Y-107588674D01*
X149913046Y-105982634D01*
X149932903Y-105966510D01*
X149940669Y-105961437D01*
X149958496Y-105938531D01*
X149968232Y-105927507D01*
X149968375Y-105927307D01*
X149979559Y-105911640D01*
X149982607Y-105907552D01*
X150012517Y-105869126D01*
X150012517Y-105869125D01*
X150017105Y-105863231D01*
X150019237Y-105856068D01*
X150019239Y-105856066D01*
X150033142Y-105809363D01*
X150034674Y-105804581D01*
X150050500Y-105758488D01*
X150050500Y-105758486D01*
X150052925Y-105751423D01*
X150052616Y-105743956D01*
X150052617Y-105743954D01*
X150050605Y-105695331D01*
X150050500Y-105690208D01*
X150050500Y-104367860D01*
X150058318Y-104324526D01*
X150080787Y-104286657D01*
X150104130Y-104259718D01*
X150160931Y-104135342D01*
X150180390Y-104000000D01*
X150160931Y-103864658D01*
X150154908Y-103851470D01*
X150104130Y-103740282D01*
X150014587Y-103636943D01*
X149899562Y-103563022D01*
X149768367Y-103524500D01*
X149631633Y-103524500D01*
X149500437Y-103563022D01*
X149385412Y-103636943D01*
X149295869Y-103740282D01*
X149239068Y-103864657D01*
X149219610Y-103999999D01*
X149239068Y-104135342D01*
X149295869Y-104259717D01*
X149319213Y-104286657D01*
X149341682Y-104324526D01*
X149349500Y-104367860D01*
X149349500Y-105503456D01*
X149340061Y-105550909D01*
X149313181Y-105591137D01*
X147186955Y-107717361D01*
X147167104Y-107733483D01*
X147159332Y-107738561D01*
X147141500Y-107761471D01*
X147131765Y-107772496D01*
X147128590Y-107776943D01*
X147121451Y-107786943D01*
X147120441Y-107788357D01*
X147117392Y-107792445D01*
X147109110Y-107803087D01*
X147082891Y-107836773D01*
X147066871Y-107890582D01*
X147065309Y-107895458D01*
X147047074Y-107948577D01*
X147049394Y-108004668D01*
X147049500Y-108009792D01*
X147049500Y-115899138D01*
X147040061Y-115946591D01*
X147013181Y-115986819D01*
X147000000Y-115999999D01*
X147000000Y-116000000D01*
X147000000Y-123000000D01*
X148500000Y-124500000D01*
X161948638Y-124500000D01*
X161996091Y-124509439D01*
X162036319Y-124536319D01*
X162963681Y-125463681D01*
X162990561Y-125503909D01*
X163000000Y-125551362D01*
X163000000Y-131948638D01*
X162990561Y-131996091D01*
X162963681Y-132036319D01*
X162036319Y-132963681D01*
X161996091Y-132990561D01*
X161948638Y-133000000D01*
X130051362Y-133000000D01*
X130003909Y-132990561D01*
X129963681Y-132963681D01*
X129250000Y-132250000D01*
X149519610Y-132250000D01*
X149522055Y-132267012D01*
X149539068Y-132385342D01*
X149595869Y-132509717D01*
X149685412Y-132613056D01*
X149800437Y-132686977D01*
X149800439Y-132686978D01*
X149931633Y-132725500D01*
X150068367Y-132725500D01*
X150199561Y-132686978D01*
X150314589Y-132613055D01*
X150404130Y-132509718D01*
X150460931Y-132385342D01*
X150480390Y-132250000D01*
X156019610Y-132250000D01*
X156022055Y-132267012D01*
X156039068Y-132385342D01*
X156095869Y-132509717D01*
X156185412Y-132613056D01*
X156300437Y-132686977D01*
X156300439Y-132686978D01*
X156431633Y-132725500D01*
X156568367Y-132725500D01*
X156699561Y-132686978D01*
X156814589Y-132613055D01*
X156904130Y-132509718D01*
X156960931Y-132385342D01*
X156980390Y-132250000D01*
X156960931Y-132114658D01*
X156904130Y-131990282D01*
X156814589Y-131886945D01*
X156814588Y-131886944D01*
X156814587Y-131886943D01*
X156699562Y-131813022D01*
X156568367Y-131774500D01*
X156431633Y-131774500D01*
X156300437Y-131813022D01*
X156185412Y-131886943D01*
X156095869Y-131990282D01*
X156039068Y-132114657D01*
X156019610Y-132249999D01*
X156019610Y-132250000D01*
X150480390Y-132250000D01*
X150460931Y-132114658D01*
X150404130Y-131990282D01*
X150314589Y-131886945D01*
X150314588Y-131886944D01*
X150314587Y-131886943D01*
X150199562Y-131813022D01*
X150068367Y-131774500D01*
X149931633Y-131774500D01*
X149800437Y-131813022D01*
X149685412Y-131886943D01*
X149595869Y-131990282D01*
X149539068Y-132114657D01*
X149519610Y-132249999D01*
X149519610Y-132250000D01*
X129250000Y-132250000D01*
X129036319Y-132036319D01*
X129009439Y-131996091D01*
X129000000Y-131948638D01*
X129000000Y-122474403D01*
X129011207Y-122422889D01*
X129042801Y-122380687D01*
X129059734Y-122371441D01*
X129058562Y-122369617D01*
X129126381Y-122326033D01*
X129188589Y-122286055D01*
X129278130Y-122182718D01*
X129334931Y-122058342D01*
X129354390Y-121923000D01*
X129334931Y-121787658D01*
X129302329Y-121716271D01*
X129278130Y-121663282D01*
X129188588Y-121559944D01*
X129058562Y-121476383D01*
X129059734Y-121474558D01*
X129042801Y-121465313D01*
X129011207Y-121423111D01*
X129000000Y-121371597D01*
X129000000Y-116895044D01*
X129013515Y-116838749D01*
X129051115Y-116794726D01*
X129104602Y-116772571D01*
X129162318Y-116777113D01*
X129211681Y-116807363D01*
X129617361Y-117213043D01*
X129633489Y-117232903D01*
X129638563Y-117240669D01*
X129661473Y-117258500D01*
X129672492Y-117268232D01*
X129681120Y-117274391D01*
X129688359Y-117279559D01*
X129692420Y-117282587D01*
X129730874Y-117312517D01*
X129730876Y-117312517D01*
X129736775Y-117317109D01*
X129790593Y-117333131D01*
X129795437Y-117334682D01*
X129841512Y-117350500D01*
X129841514Y-117350500D01*
X129848578Y-117352925D01*
X129856043Y-117352616D01*
X129856046Y-117352617D01*
X129904668Y-117350605D01*
X129909792Y-117350500D01*
X131575444Y-117350500D01*
X131642483Y-117370184D01*
X131688238Y-117422988D01*
X131698182Y-117492146D01*
X131669158Y-117555702D01*
X131595869Y-117640282D01*
X131539068Y-117764657D01*
X131519610Y-117900000D01*
X131532517Y-117989780D01*
X131525960Y-118050760D01*
X131490981Y-118101139D01*
X131436136Y-118128591D01*
X131374844Y-118126402D01*
X131368367Y-118124500D01*
X131231633Y-118124500D01*
X131100437Y-118163022D01*
X130985412Y-118236943D01*
X130895869Y-118340282D01*
X130839068Y-118464657D01*
X130819610Y-118600000D01*
X130839068Y-118735342D01*
X130895869Y-118859717D01*
X130985412Y-118963056D01*
X131097893Y-119035342D01*
X131100439Y-119036978D01*
X131231633Y-119075500D01*
X131368367Y-119075500D01*
X131499561Y-119036978D01*
X131614589Y-118963055D01*
X131704130Y-118859718D01*
X131760931Y-118735342D01*
X131780390Y-118600000D01*
X131769535Y-118524500D01*
X131767482Y-118510220D01*
X131774039Y-118449239D01*
X131809019Y-118398860D01*
X131863865Y-118371407D01*
X131925154Y-118373597D01*
X131931633Y-118375500D01*
X132068367Y-118375500D01*
X132199561Y-118336978D01*
X132314589Y-118263055D01*
X132404130Y-118159718D01*
X132460931Y-118035342D01*
X132480390Y-117900000D01*
X132460931Y-117764658D01*
X132451642Y-117744319D01*
X132404130Y-117640282D01*
X132302913Y-117523470D01*
X132304233Y-117522326D01*
X132278968Y-117494675D01*
X132264983Y-117432643D01*
X132283584Y-117371837D01*
X132329877Y-117328246D01*
X132358203Y-117312917D01*
X132362747Y-117310577D01*
X132406484Y-117289198D01*
X132406486Y-117289195D01*
X132413195Y-117285916D01*
X132418254Y-117280419D01*
X132418258Y-117280418D01*
X132451254Y-117244572D01*
X132454756Y-117240924D01*
X133445680Y-116250000D01*
X139019610Y-116250000D01*
X139039068Y-116385342D01*
X139095869Y-116509717D01*
X139185412Y-116613056D01*
X139300437Y-116686977D01*
X139300439Y-116686978D01*
X139431633Y-116725500D01*
X139568367Y-116725500D01*
X139699561Y-116686978D01*
X139814589Y-116613055D01*
X139904130Y-116509718D01*
X139960931Y-116385342D01*
X139980390Y-116250000D01*
X139960931Y-116114658D01*
X139946483Y-116083022D01*
X139904130Y-115990282D01*
X139901129Y-115986819D01*
X139814589Y-115886945D01*
X139814588Y-115886944D01*
X139814587Y-115886943D01*
X139699562Y-115813022D01*
X139568367Y-115774500D01*
X139431633Y-115774500D01*
X139300437Y-115813022D01*
X139185412Y-115886943D01*
X139095869Y-115990282D01*
X139039068Y-116114657D01*
X139019610Y-116250000D01*
X133445680Y-116250000D01*
X135813046Y-113882634D01*
X135832903Y-113866510D01*
X135840669Y-113861437D01*
X135858496Y-113838531D01*
X135868232Y-113827507D01*
X135872102Y-113822086D01*
X135879561Y-113811637D01*
X135882610Y-113807548D01*
X135912517Y-113769126D01*
X135912517Y-113769124D01*
X135917108Y-113763227D01*
X135933127Y-113709419D01*
X135934679Y-113704569D01*
X135950500Y-113658488D01*
X135950500Y-113658485D01*
X135952925Y-113651421D01*
X135952325Y-113636895D01*
X135964696Y-113577561D01*
X136003712Y-113531179D01*
X136060050Y-113508830D01*
X136120252Y-113515852D01*
X136169933Y-113550570D01*
X136215410Y-113603055D01*
X136330437Y-113676977D01*
X136330439Y-113676978D01*
X136461633Y-113715500D01*
X136598367Y-113715500D01*
X136729561Y-113676978D01*
X136844589Y-113603055D01*
X136934130Y-113499718D01*
X136990931Y-113375342D01*
X137008952Y-113250000D01*
X142549610Y-113250000D01*
X142569068Y-113385342D01*
X142625869Y-113509717D01*
X142715412Y-113613056D01*
X142814878Y-113676978D01*
X142830439Y-113686978D01*
X142961633Y-113725500D01*
X143098367Y-113725500D01*
X143229561Y-113686978D01*
X143344589Y-113613055D01*
X143434130Y-113509718D01*
X143490931Y-113385342D01*
X143510390Y-113250000D01*
X143490931Y-113114658D01*
X143490246Y-113113159D01*
X143434130Y-112990282D01*
X143383121Y-112931414D01*
X143344589Y-112886945D01*
X143344588Y-112886944D01*
X143344587Y-112886943D01*
X143229562Y-112813022D01*
X143098367Y-112774500D01*
X142961633Y-112774500D01*
X142830437Y-112813022D01*
X142715412Y-112886943D01*
X142625869Y-112990282D01*
X142569068Y-113114657D01*
X142549610Y-113250000D01*
X137008952Y-113250000D01*
X137010390Y-113240000D01*
X136990931Y-113104658D01*
X136977538Y-113075332D01*
X136934130Y-112980282D01*
X136917749Y-112961377D01*
X136844589Y-112876945D01*
X136844588Y-112876944D01*
X136844587Y-112876943D01*
X136729562Y-112803022D01*
X136598367Y-112764500D01*
X136461633Y-112764500D01*
X136330437Y-112803022D01*
X136215412Y-112876943D01*
X136182384Y-112915061D01*
X136168652Y-112930909D01*
X136168214Y-112931414D01*
X136119489Y-112965763D01*
X136060366Y-112973404D01*
X136004509Y-112952571D01*
X135964830Y-112908079D01*
X135950500Y-112850212D01*
X135950500Y-112500000D01*
X145019610Y-112500000D01*
X145039068Y-112635342D01*
X145095869Y-112759717D01*
X145185412Y-112863056D01*
X145300437Y-112936977D01*
X145300439Y-112936978D01*
X145431633Y-112975500D01*
X145568367Y-112975500D01*
X145699561Y-112936978D01*
X145814589Y-112863055D01*
X145904130Y-112759718D01*
X145960931Y-112635342D01*
X145980390Y-112500000D01*
X145960931Y-112364658D01*
X145960199Y-112363056D01*
X145911706Y-112256871D01*
X145900500Y-112205359D01*
X145900500Y-105694641D01*
X145911706Y-105643129D01*
X145960931Y-105535342D01*
X145969176Y-105477993D01*
X145980390Y-105400000D01*
X145960931Y-105264658D01*
X145949962Y-105240640D01*
X145904130Y-105140282D01*
X145837213Y-105063055D01*
X145814589Y-105036945D01*
X145814588Y-105036944D01*
X145814587Y-105036943D01*
X145699562Y-104963022D01*
X145568367Y-104924500D01*
X145431633Y-104924500D01*
X145300437Y-104963022D01*
X145185412Y-105036943D01*
X145095869Y-105140282D01*
X145039068Y-105264657D01*
X145019610Y-105400000D01*
X145039068Y-105535342D01*
X145088294Y-105643129D01*
X145099500Y-105694641D01*
X145099500Y-112205359D01*
X145088294Y-112256871D01*
X145039068Y-112364657D01*
X145019610Y-112500000D01*
X135950500Y-112500000D01*
X135950500Y-112467860D01*
X135958318Y-112424526D01*
X135980787Y-112386657D01*
X136004130Y-112359718D01*
X136060931Y-112235342D01*
X136080390Y-112100000D01*
X136060931Y-111964658D01*
X136059188Y-111960842D01*
X136004130Y-111840282D01*
X136002639Y-111838561D01*
X135914589Y-111736945D01*
X135914588Y-111736944D01*
X135914587Y-111736943D01*
X135799562Y-111663022D01*
X135668367Y-111624500D01*
X135531633Y-111624500D01*
X135400437Y-111663022D01*
X135285412Y-111736943D01*
X135195869Y-111840282D01*
X135139068Y-111964657D01*
X135119610Y-112100000D01*
X135139068Y-112235342D01*
X135195869Y-112359717D01*
X135219213Y-112386657D01*
X135241682Y-112424526D01*
X135249500Y-112467860D01*
X135249500Y-113403456D01*
X135240061Y-113450909D01*
X135213181Y-113491137D01*
X132543248Y-116161068D01*
X132492620Y-116191722D01*
X132433550Y-116195417D01*
X132379496Y-116171312D01*
X132342774Y-116124901D01*
X132304130Y-116040282D01*
X132214589Y-115936945D01*
X132214588Y-115936944D01*
X132214587Y-115936943D01*
X132099562Y-115863022D01*
X131968367Y-115824500D01*
X131831633Y-115824500D01*
X131700439Y-115863021D01*
X131634814Y-115905195D01*
X131596503Y-115929816D01*
X131529466Y-115949500D01*
X130296543Y-115949500D01*
X130249090Y-115940061D01*
X130208862Y-115913181D01*
X127463717Y-113168035D01*
X127431816Y-113113159D01*
X127431250Y-113049688D01*
X127462166Y-112994251D01*
X127516462Y-112961377D01*
X127599561Y-112936978D01*
X127703496Y-112870183D01*
X127770534Y-112850500D01*
X131401524Y-112850500D01*
X131453036Y-112861706D01*
X131495237Y-112893297D01*
X131520501Y-112939565D01*
X131524262Y-112992147D01*
X131519610Y-113024500D01*
X131539068Y-113159842D01*
X131595869Y-113284217D01*
X131620339Y-113312457D01*
X131683493Y-113385342D01*
X131685413Y-113387557D01*
X131717121Y-113407935D01*
X131758914Y-113452823D01*
X131774082Y-113512250D01*
X131758914Y-113571677D01*
X131717121Y-113616565D01*
X131685413Y-113636942D01*
X131595869Y-113740282D01*
X131539068Y-113864657D01*
X131519610Y-113999999D01*
X131539068Y-114135342D01*
X131595869Y-114259717D01*
X131685412Y-114363056D01*
X131687905Y-114364658D01*
X131800439Y-114436978D01*
X131931633Y-114475500D01*
X132068367Y-114475500D01*
X132199561Y-114436978D01*
X132314589Y-114363055D01*
X132404130Y-114259718D01*
X132460931Y-114135342D01*
X132480390Y-114000000D01*
X132463376Y-113881670D01*
X132460931Y-113864657D01*
X132404130Y-113740282D01*
X132388998Y-113722819D01*
X132314589Y-113636945D01*
X132314588Y-113636944D01*
X132314587Y-113636943D01*
X132282879Y-113616566D01*
X132241085Y-113571677D01*
X132225917Y-113512250D01*
X132241085Y-113452823D01*
X132282879Y-113407934D01*
X132305111Y-113393646D01*
X132314589Y-113387555D01*
X132404130Y-113284218D01*
X132460931Y-113159842D01*
X132480390Y-113024500D01*
X132460931Y-112889158D01*
X132459920Y-112886945D01*
X132430284Y-112822051D01*
X132416935Y-112792822D01*
X132405765Y-112744264D01*
X132414612Y-112695226D01*
X132442047Y-112653633D01*
X135958861Y-109136819D01*
X135999090Y-109109939D01*
X136046543Y-109100500D01*
X136579466Y-109100500D01*
X136646503Y-109120183D01*
X136750439Y-109186978D01*
X136881633Y-109225500D01*
X137018367Y-109225500D01*
X137149561Y-109186978D01*
X137264589Y-109113055D01*
X137354130Y-109009718D01*
X137410931Y-108885342D01*
X137430390Y-108750000D01*
X137410931Y-108614658D01*
X137378962Y-108544657D01*
X137354130Y-108490282D01*
X137352738Y-108488675D01*
X137264589Y-108386945D01*
X137264588Y-108386944D01*
X137264587Y-108386943D01*
X137149562Y-108313022D01*
X137050945Y-108284065D01*
X137019871Y-108274941D01*
X136969235Y-108245706D01*
X136937625Y-108196517D01*
X136934843Y-108167371D01*
X136932927Y-108167647D01*
X136928742Y-108138542D01*
X136917606Y-108061084D01*
X136910931Y-108014657D01*
X136854130Y-107890282D01*
X136845465Y-107880282D01*
X136764589Y-107786945D01*
X136764588Y-107786944D01*
X136764587Y-107786943D01*
X136649562Y-107713022D01*
X136518367Y-107674500D01*
X136381633Y-107674500D01*
X136250439Y-107713021D01*
X136184814Y-107755195D01*
X136146503Y-107779816D01*
X136079466Y-107799500D01*
X135483526Y-107799500D01*
X135458080Y-107796861D01*
X135448999Y-107794957D01*
X135420191Y-107798548D01*
X135405515Y-107799458D01*
X135386275Y-107802668D01*
X135381217Y-107803405D01*
X135325503Y-107810351D01*
X135276127Y-107837072D01*
X135271575Y-107839415D01*
X135221118Y-107864082D01*
X135183094Y-107905387D01*
X135179547Y-107909083D01*
X131649951Y-111438681D01*
X131609723Y-111465561D01*
X131562270Y-111475000D01*
X130107057Y-111475000D01*
X130046082Y-111458972D01*
X130000869Y-111415033D01*
X129983108Y-111354540D01*
X129997388Y-111293132D01*
X130040018Y-111246684D01*
X130101409Y-111207231D01*
X130154589Y-111173055D01*
X130244130Y-111069718D01*
X130300931Y-110945342D01*
X130320390Y-110810000D01*
X130300931Y-110674658D01*
X130294107Y-110659716D01*
X130244130Y-110550282D01*
X130231186Y-110535344D01*
X130220785Y-110523341D01*
X130198318Y-110485474D01*
X130190500Y-110442140D01*
X130190500Y-109367015D01*
X130207858Y-109303742D01*
X130255073Y-109258183D01*
X130318925Y-109243094D01*
X130381538Y-109262698D01*
X130450439Y-109306978D01*
X130581633Y-109345500D01*
X130718367Y-109345500D01*
X130849561Y-109306978D01*
X130964589Y-109233055D01*
X131054130Y-109129718D01*
X131110931Y-109005342D01*
X131130390Y-108870000D01*
X131110931Y-108734658D01*
X131109500Y-108731525D01*
X131054130Y-108610282D01*
X130964587Y-108506943D01*
X130849562Y-108433022D01*
X130718367Y-108394500D01*
X130581633Y-108394500D01*
X130581632Y-108394500D01*
X130455139Y-108431641D01*
X130399051Y-108434846D01*
X130347306Y-108412972D01*
X130310523Y-108370508D01*
X130296255Y-108316171D01*
X130300886Y-108293347D01*
X130298394Y-108292989D01*
X130312264Y-108196517D01*
X130320390Y-108140000D01*
X130301261Y-108006954D01*
X130300931Y-108004657D01*
X130244130Y-107880282D01*
X130154589Y-107776945D01*
X130154588Y-107776944D01*
X130154587Y-107776943D01*
X130039562Y-107703022D01*
X129908367Y-107664500D01*
X129771633Y-107664500D01*
X129640437Y-107703022D01*
X129525412Y-107776943D01*
X129435869Y-107880282D01*
X129379068Y-108004657D01*
X129359610Y-108140000D01*
X129379068Y-108275342D01*
X129435869Y-108399717D01*
X129459213Y-108426657D01*
X129481682Y-108464526D01*
X129489500Y-108507860D01*
X129489500Y-110442140D01*
X129481682Y-110485474D01*
X129459213Y-110523343D01*
X129435869Y-110550282D01*
X129379068Y-110674657D01*
X129359610Y-110809999D01*
X129379068Y-110945342D01*
X129435869Y-111069717D01*
X129491530Y-111133954D01*
X129525411Y-111173055D01*
X129574602Y-111204668D01*
X129639982Y-111246684D01*
X129682612Y-111293132D01*
X129696892Y-111354540D01*
X129679131Y-111415033D01*
X129633918Y-111458972D01*
X129572943Y-111475000D01*
X128170534Y-111475000D01*
X128103496Y-111455316D01*
X128012044Y-111396544D01*
X127999560Y-111388521D01*
X127868367Y-111350000D01*
X127731633Y-111350000D01*
X127600437Y-111388522D01*
X127485412Y-111462443D01*
X127395869Y-111565783D01*
X127387294Y-111584560D01*
X127344490Y-111635407D01*
X127281578Y-111656846D01*
X127216633Y-111642718D01*
X127168313Y-111597081D01*
X127150500Y-111533048D01*
X127150500Y-111396544D01*
X127159939Y-111349091D01*
X127186819Y-111308863D01*
X128083863Y-110411819D01*
X128124091Y-110384939D01*
X128161694Y-110377459D01*
X128168366Y-110375500D01*
X128168367Y-110375500D01*
X128299561Y-110336978D01*
X128414589Y-110263055D01*
X128504130Y-110159718D01*
X128560931Y-110035342D01*
X128580390Y-109900000D01*
X128560931Y-109764658D01*
X128539558Y-109717859D01*
X128504130Y-109640282D01*
X128414587Y-109536943D01*
X128299562Y-109463022D01*
X128168367Y-109424500D01*
X128031633Y-109424500D01*
X127900437Y-109463022D01*
X127785412Y-109536943D01*
X127695868Y-109640283D01*
X127641326Y-109759716D01*
X127639069Y-109764658D01*
X127634879Y-109793798D01*
X127628050Y-109841292D01*
X127616195Y-109879149D01*
X127592993Y-109911324D01*
X126586955Y-110917361D01*
X126567104Y-110933483D01*
X126559332Y-110938561D01*
X126541500Y-110961471D01*
X126531765Y-110972496D01*
X126520441Y-110988357D01*
X126517392Y-110992445D01*
X126511513Y-111000000D01*
X126482891Y-111036773D01*
X126466871Y-111090582D01*
X126465309Y-111095458D01*
X126447074Y-111148577D01*
X126449394Y-111204668D01*
X126449500Y-111209792D01*
X126449500Y-112950788D01*
X126446861Y-112976234D01*
X126444957Y-112985314D01*
X126448548Y-113014123D01*
X126449458Y-113028795D01*
X126452665Y-113048013D01*
X126453403Y-113053078D01*
X126460351Y-113108809D01*
X126487081Y-113158202D01*
X126489421Y-113162747D01*
X126510802Y-113206484D01*
X126510803Y-113206485D01*
X126514084Y-113213196D01*
X126519581Y-113218256D01*
X126519582Y-113218258D01*
X126538928Y-113236067D01*
X126555399Y-113251230D01*
X126559097Y-113254779D01*
X126592637Y-113288319D01*
X126622887Y-113337682D01*
X126627429Y-113395398D01*
X126605274Y-113448885D01*
X126561251Y-113486485D01*
X126504956Y-113500000D01*
X126102214Y-113500000D01*
X126045394Y-113486215D01*
X126001206Y-113447927D01*
X125979476Y-113393646D01*
X125978600Y-113387556D01*
X125960931Y-113264658D01*
X125956419Y-113254779D01*
X125904130Y-113140282D01*
X125896452Y-113131421D01*
X125814589Y-113036945D01*
X125814588Y-113036944D01*
X125814587Y-113036943D01*
X125699562Y-112963022D01*
X125561694Y-112922540D01*
X125524091Y-112915061D01*
X125483863Y-112888181D01*
X124516717Y-111921035D01*
X124485419Y-111868283D01*
X124483234Y-111806984D01*
X124498398Y-111776699D01*
X124496724Y-111775935D01*
X124560931Y-111635342D01*
X124566432Y-111597081D01*
X124580390Y-111500000D01*
X124563376Y-111381670D01*
X124560931Y-111364657D01*
X124504130Y-111240282D01*
X124504129Y-111240281D01*
X124414589Y-111136945D01*
X124414588Y-111136944D01*
X124414587Y-111136943D01*
X124299562Y-111063022D01*
X124168367Y-111024500D01*
X124031633Y-111024500D01*
X123900437Y-111063022D01*
X123785412Y-111136943D01*
X123695869Y-111240282D01*
X123639068Y-111364657D01*
X123619610Y-111500000D01*
X123632517Y-111589780D01*
X123625960Y-111650760D01*
X123590981Y-111701139D01*
X123536136Y-111728591D01*
X123474844Y-111726402D01*
X123468367Y-111724500D01*
X123331633Y-111724500D01*
X123200437Y-111763022D01*
X123085412Y-111836943D01*
X122995869Y-111940282D01*
X122939068Y-112064657D01*
X122919610Y-112200000D01*
X122939068Y-112335342D01*
X122995869Y-112459717D01*
X123085412Y-112563056D01*
X123197893Y-112635342D01*
X123200439Y-112636978D01*
X123331633Y-112675500D01*
X123338305Y-112677459D01*
X123375909Y-112684939D01*
X123416137Y-112711819D01*
X123992637Y-113288319D01*
X124022887Y-113337682D01*
X124027429Y-113395398D01*
X124005274Y-113448885D01*
X123961251Y-113486485D01*
X123904956Y-113500000D01*
X103124500Y-113500000D01*
X103062500Y-113483387D01*
X103017113Y-113438000D01*
X103000500Y-113376000D01*
X103000500Y-112508879D01*
X103011444Y-112465999D01*
X103236786Y-112465999D01*
X103247238Y-112491233D01*
X103263068Y-112601342D01*
X103319869Y-112725717D01*
X103349330Y-112759717D01*
X103395518Y-112813022D01*
X103409412Y-112829056D01*
X103524437Y-112902977D01*
X103524439Y-112902978D01*
X103655633Y-112941500D01*
X103792367Y-112941500D01*
X103923561Y-112902978D01*
X104038589Y-112829055D01*
X104128130Y-112725718D01*
X104184931Y-112601342D01*
X104204390Y-112466000D01*
X104187376Y-112347670D01*
X104184931Y-112330657D01*
X104128130Y-112206282D01*
X104044522Y-112109792D01*
X104038589Y-112102945D01*
X104038588Y-112102944D01*
X104038587Y-112102943D01*
X103923562Y-112029022D01*
X103792367Y-111990500D01*
X103655633Y-111990500D01*
X103524437Y-112029022D01*
X103409412Y-112102943D01*
X103319869Y-112206282D01*
X103263068Y-112330657D01*
X103247238Y-112440767D01*
X103236786Y-112465999D01*
X103011444Y-112465999D01*
X103000500Y-112423120D01*
X103000500Y-108680000D01*
X123529610Y-108680000D01*
X123549068Y-108815342D01*
X123605869Y-108939717D01*
X123695412Y-109043056D01*
X123804336Y-109113056D01*
X123810439Y-109116978D01*
X123941633Y-109155500D01*
X124078367Y-109155500D01*
X124209561Y-109116978D01*
X124324589Y-109043055D01*
X124414130Y-108939718D01*
X124470931Y-108815342D01*
X124490390Y-108680000D01*
X124473728Y-108564115D01*
X124470931Y-108544657D01*
X124414130Y-108420282D01*
X124396311Y-108399718D01*
X124324589Y-108316945D01*
X124324588Y-108316944D01*
X124324587Y-108316943D01*
X124209562Y-108243022D01*
X124078367Y-108204500D01*
X123941633Y-108204500D01*
X123810437Y-108243022D01*
X123695412Y-108316943D01*
X123605869Y-108420282D01*
X123549068Y-108544657D01*
X123529610Y-108680000D01*
X103000500Y-108680000D01*
X103000500Y-106018690D01*
X106489975Y-106018690D01*
X106489978Y-106193756D01*
X106505181Y-106279962D01*
X106505213Y-106280146D01*
X106518143Y-106354120D01*
X106518323Y-106354494D01*
X106669824Y-107213695D01*
X106669816Y-107214030D01*
X106693972Y-107350987D01*
X106753852Y-107515490D01*
X106796109Y-107588674D01*
X106841396Y-107667106D01*
X106953933Y-107801214D01*
X107078090Y-107905387D01*
X107088048Y-107913742D01*
X107239665Y-108001272D01*
X107337771Y-108036977D01*
X107404178Y-108061145D01*
X107576589Y-108091541D01*
X107751659Y-108091537D01*
X107837864Y-108076335D01*
X107837872Y-108076385D01*
X107838045Y-108076303D01*
X107838356Y-108076249D01*
X107838355Y-108076248D01*
X107912019Y-108063372D01*
X107912394Y-108063192D01*
X112673021Y-107223766D01*
X115740433Y-106682899D01*
X115740741Y-106682778D01*
X115802514Y-106671888D01*
X115967017Y-106612018D01*
X116118624Y-106524492D01*
X116252730Y-106411971D01*
X116365259Y-106277872D01*
X116452793Y-106126270D01*
X116460091Y-106106223D01*
X116491477Y-106019999D01*
X130169610Y-106019999D01*
X130189068Y-106155342D01*
X130245869Y-106279717D01*
X130284673Y-106324500D01*
X130310335Y-106354116D01*
X130335412Y-106383056D01*
X130450437Y-106456977D01*
X130450439Y-106456978D01*
X130581633Y-106495500D01*
X130718367Y-106495500D01*
X130849561Y-106456978D01*
X130964589Y-106383055D01*
X131015327Y-106324499D01*
X134944610Y-106324499D01*
X134964068Y-106459842D01*
X135020869Y-106584217D01*
X135020870Y-106584218D01*
X135110044Y-106687132D01*
X135110412Y-106687556D01*
X135225437Y-106761477D01*
X135225439Y-106761478D01*
X135356633Y-106800000D01*
X135493367Y-106800000D01*
X135624561Y-106761478D01*
X135739589Y-106687555D01*
X135829130Y-106584218D01*
X135885931Y-106459842D01*
X135905390Y-106324500D01*
X135885931Y-106189158D01*
X135829130Y-106064782D01*
X135739589Y-105961445D01*
X135739588Y-105961444D01*
X135739587Y-105961443D01*
X135624562Y-105887522D01*
X135599034Y-105880026D01*
X135561399Y-105868976D01*
X135507412Y-105836420D01*
X135476410Y-105781523D01*
X135476410Y-105718477D01*
X135507412Y-105663580D01*
X135561399Y-105631023D01*
X135624561Y-105612478D01*
X135739589Y-105538555D01*
X135829130Y-105435218D01*
X135885931Y-105310842D01*
X135905390Y-105175500D01*
X135885931Y-105040158D01*
X135864185Y-104992542D01*
X135829130Y-104915782D01*
X135786798Y-104866928D01*
X135739589Y-104812445D01*
X135739588Y-104812444D01*
X135739587Y-104812443D01*
X135624562Y-104738522D01*
X135493367Y-104700000D01*
X135356633Y-104700000D01*
X135225437Y-104738522D01*
X135110412Y-104812443D01*
X135020869Y-104915782D01*
X134964068Y-105040157D01*
X134944610Y-105175499D01*
X134964068Y-105310842D01*
X135020869Y-105435217D01*
X135020870Y-105435218D01*
X135101685Y-105528485D01*
X135110412Y-105538556D01*
X135225437Y-105612477D01*
X135225439Y-105612478D01*
X135284487Y-105629816D01*
X135288598Y-105631023D01*
X135342587Y-105663580D01*
X135373589Y-105718477D01*
X135373589Y-105781523D01*
X135342587Y-105836420D01*
X135288598Y-105868976D01*
X135276492Y-105872531D01*
X135225437Y-105887522D01*
X135110412Y-105961443D01*
X135020869Y-106064782D01*
X134964068Y-106189157D01*
X134944610Y-106324499D01*
X131015327Y-106324499D01*
X131054130Y-106279718D01*
X131110931Y-106155342D01*
X131130390Y-106020000D01*
X131110931Y-105884658D01*
X131106707Y-105875409D01*
X131054130Y-105760282D01*
X131046454Y-105751423D01*
X130964589Y-105656945D01*
X130964588Y-105656944D01*
X130964587Y-105656943D01*
X130849562Y-105583022D01*
X130718367Y-105544500D01*
X130581633Y-105544500D01*
X130450437Y-105583022D01*
X130335412Y-105656943D01*
X130245869Y-105760282D01*
X130189068Y-105884657D01*
X130169610Y-106019999D01*
X116491477Y-106019999D01*
X116512673Y-105961771D01*
X116543079Y-105789374D01*
X116543080Y-105758488D01*
X116543086Y-105614314D01*
X116531371Y-105547858D01*
X116531371Y-105547848D01*
X116527908Y-105528211D01*
X116527909Y-105528211D01*
X116354226Y-104543209D01*
X116354224Y-104543206D01*
X116350026Y-104519395D01*
X116349875Y-104519003D01*
X116338967Y-104457123D01*
X116338967Y-104457121D01*
X116279101Y-104292617D01*
X116191579Y-104141009D01*
X116182342Y-104130000D01*
X130169610Y-104130000D01*
X130189068Y-104265342D01*
X130245869Y-104389717D01*
X130335412Y-104493056D01*
X130446827Y-104564657D01*
X130450439Y-104566978D01*
X130581633Y-104605500D01*
X130718367Y-104605500D01*
X130849561Y-104566978D01*
X130964589Y-104493055D01*
X131054130Y-104389718D01*
X131110931Y-104265342D01*
X131130390Y-104130000D01*
X131110931Y-103994658D01*
X131054130Y-103870282D01*
X130964589Y-103766945D01*
X130964588Y-103766944D01*
X130964587Y-103766943D01*
X130849562Y-103693022D01*
X130718367Y-103654500D01*
X130581633Y-103654500D01*
X130450437Y-103693022D01*
X130335412Y-103766943D01*
X130245869Y-103870282D01*
X130189068Y-103994657D01*
X130169610Y-104130000D01*
X116182342Y-104130000D01*
X116079060Y-104006902D01*
X115944962Y-103894371D01*
X115793361Y-103806836D01*
X115628863Y-103746956D01*
X115628862Y-103746955D01*
X115628860Y-103746955D01*
X115456467Y-103716550D01*
X115281408Y-103716544D01*
X115195207Y-103731741D01*
X115195030Y-103731772D01*
X115150684Y-103739523D01*
X115150318Y-103739656D01*
X107368095Y-105111871D01*
X107367862Y-105111865D01*
X107230534Y-105136082D01*
X107122247Y-105175499D01*
X107066024Y-105195964D01*
X106914412Y-105283502D01*
X106888702Y-105305076D01*
X106780302Y-105396038D01*
X106667774Y-105530149D01*
X106580243Y-105681768D01*
X106520371Y-105846276D01*
X106489975Y-106018690D01*
X103000500Y-106018690D01*
X103000500Y-99999999D01*
X116944693Y-99999999D01*
X116963904Y-100342086D01*
X117021295Y-100679867D01*
X117116147Y-101009106D01*
X117213039Y-101243022D01*
X117247264Y-101325648D01*
X117412998Y-101625521D01*
X117451653Y-101680000D01*
X117611268Y-101904958D01*
X117734681Y-102043055D01*
X117839572Y-102160428D01*
X117947732Y-102257086D01*
X118095041Y-102388731D01*
X118095047Y-102388735D01*
X118374479Y-102587002D01*
X118674352Y-102752736D01*
X118873963Y-102835417D01*
X118990893Y-102883852D01*
X118990894Y-102883852D01*
X118990896Y-102883853D01*
X119320130Y-102978704D01*
X119657914Y-103036096D01*
X120000000Y-103055307D01*
X120342086Y-103036096D01*
X120679870Y-102978704D01*
X121009104Y-102883853D01*
X121325648Y-102752736D01*
X121625521Y-102587002D01*
X121904953Y-102388735D01*
X121904955Y-102388732D01*
X121904958Y-102388731D01*
X121955607Y-102343466D01*
X122160428Y-102160428D01*
X122388735Y-101904953D01*
X122548347Y-101680000D01*
X123519610Y-101680000D01*
X123539068Y-101815342D01*
X123595869Y-101939717D01*
X123685412Y-102043056D01*
X123800437Y-102116977D01*
X123800439Y-102116978D01*
X123931633Y-102155500D01*
X124068367Y-102155500D01*
X124199561Y-102116978D01*
X124314589Y-102043055D01*
X124404130Y-101939718D01*
X124460931Y-101815342D01*
X124480390Y-101680000D01*
X124460931Y-101544658D01*
X124404130Y-101420282D01*
X124314589Y-101316945D01*
X124314588Y-101316944D01*
X124314587Y-101316943D01*
X124199562Y-101243022D01*
X124068367Y-101204500D01*
X123931633Y-101204500D01*
X123800437Y-101243022D01*
X123685412Y-101316943D01*
X123595869Y-101420282D01*
X123539068Y-101544657D01*
X123519610Y-101680000D01*
X122548347Y-101680000D01*
X122587002Y-101625521D01*
X122752736Y-101325648D01*
X122883853Y-101009104D01*
X122978704Y-100679870D01*
X123036096Y-100342086D01*
X123055307Y-100000000D01*
X123055307Y-99999999D01*
X166944693Y-99999999D01*
X166963904Y-100342086D01*
X167021295Y-100679867D01*
X167116147Y-101009106D01*
X167213039Y-101243022D01*
X167247264Y-101325648D01*
X167412998Y-101625521D01*
X167451653Y-101680000D01*
X167611268Y-101904958D01*
X167734681Y-102043055D01*
X167839572Y-102160428D01*
X167947732Y-102257086D01*
X168095041Y-102388731D01*
X168095047Y-102388735D01*
X168374479Y-102587002D01*
X168674352Y-102752736D01*
X168873963Y-102835417D01*
X168990893Y-102883852D01*
X168990894Y-102883852D01*
X168990896Y-102883853D01*
X169320130Y-102978704D01*
X169657914Y-103036096D01*
X170000000Y-103055307D01*
X170342086Y-103036096D01*
X170679870Y-102978704D01*
X171009104Y-102883853D01*
X171325648Y-102752736D01*
X171625521Y-102587002D01*
X171904953Y-102388735D01*
X171904955Y-102388732D01*
X171904958Y-102388731D01*
X171955607Y-102343466D01*
X172160428Y-102160428D01*
X172388735Y-101904953D01*
X172587002Y-101625521D01*
X172752736Y-101325648D01*
X172883853Y-101009104D01*
X172978704Y-100679870D01*
X173036096Y-100342086D01*
X173055307Y-100000000D01*
X173036096Y-99657914D01*
X172978704Y-99320130D01*
X172883853Y-98990896D01*
X172873945Y-98966977D01*
X172786921Y-98756882D01*
X172752736Y-98674352D01*
X172587002Y-98374479D01*
X172416451Y-98134109D01*
X172388731Y-98095041D01*
X172257086Y-97947732D01*
X172160428Y-97839572D01*
X172063768Y-97753191D01*
X171904958Y-97611268D01*
X171738998Y-97493514D01*
X171625521Y-97412998D01*
X171325648Y-97247264D01*
X171323835Y-97246513D01*
X171009106Y-97116147D01*
X170679867Y-97021295D01*
X170342086Y-96963904D01*
X170000000Y-96944693D01*
X169657913Y-96963904D01*
X169320132Y-97021295D01*
X168990893Y-97116147D01*
X168674353Y-97247263D01*
X168374479Y-97412998D01*
X168095041Y-97611268D01*
X167839572Y-97839572D01*
X167611268Y-98095041D01*
X167412998Y-98374479D01*
X167247263Y-98674353D01*
X167116147Y-98990893D01*
X167021295Y-99320132D01*
X166963904Y-99657913D01*
X166944693Y-99999999D01*
X123055307Y-99999999D01*
X123036096Y-99657914D01*
X122978704Y-99320130D01*
X122883853Y-98990896D01*
X122873945Y-98966977D01*
X122786921Y-98756882D01*
X122752736Y-98674352D01*
X122672955Y-98530000D01*
X131279610Y-98530000D01*
X131299068Y-98665342D01*
X131355869Y-98789717D01*
X131445412Y-98893056D01*
X131513757Y-98936978D01*
X131560439Y-98966978D01*
X131691633Y-99005500D01*
X131828367Y-99005500D01*
X131959561Y-98966978D01*
X132074589Y-98893055D01*
X132164130Y-98789718D01*
X132220931Y-98665342D01*
X132240390Y-98530000D01*
X132235669Y-98497164D01*
X154108253Y-98497164D01*
X154127711Y-98632506D01*
X154184512Y-98756881D01*
X154274055Y-98860220D01*
X154325150Y-98893056D01*
X154389082Y-98934142D01*
X154520276Y-98972664D01*
X154657010Y-98972664D01*
X154788204Y-98934142D01*
X154903232Y-98860219D01*
X154992773Y-98756882D01*
X155049574Y-98632506D01*
X155068625Y-98499999D01*
X158719610Y-98499999D01*
X158739068Y-98635342D01*
X158795869Y-98759717D01*
X158795870Y-98759718D01*
X158882954Y-98860220D01*
X158885412Y-98863056D01*
X158932094Y-98893056D01*
X159000439Y-98936978D01*
X159131633Y-98975500D01*
X159268367Y-98975500D01*
X159399561Y-98936978D01*
X159514589Y-98863055D01*
X159604130Y-98759718D01*
X159660931Y-98635342D01*
X159680390Y-98500000D01*
X159660931Y-98364658D01*
X159659635Y-98361821D01*
X159604130Y-98240282D01*
X159514587Y-98136943D01*
X159399562Y-98063022D01*
X159268367Y-98024500D01*
X159131633Y-98024500D01*
X159000437Y-98063022D01*
X158885412Y-98136943D01*
X158795869Y-98240282D01*
X158739068Y-98364657D01*
X158719610Y-98499999D01*
X155068625Y-98499999D01*
X155069033Y-98497164D01*
X155049574Y-98361822D01*
X154992773Y-98237446D01*
X154903232Y-98134109D01*
X154903231Y-98134108D01*
X154903230Y-98134107D01*
X154788205Y-98060186D01*
X154657010Y-98021664D01*
X154520276Y-98021664D01*
X154389080Y-98060186D01*
X154274055Y-98134107D01*
X154184512Y-98237446D01*
X154127711Y-98361821D01*
X154108253Y-98497164D01*
X132235669Y-98497164D01*
X132220931Y-98394658D01*
X132211715Y-98374479D01*
X132164130Y-98270282D01*
X132074587Y-98166943D01*
X131959562Y-98093022D01*
X131828367Y-98054500D01*
X131691633Y-98054500D01*
X131560437Y-98093022D01*
X131445412Y-98166943D01*
X131355869Y-98270282D01*
X131299068Y-98394657D01*
X131279610Y-98530000D01*
X122672955Y-98530000D01*
X122587002Y-98374479D01*
X122416451Y-98134109D01*
X122388731Y-98095041D01*
X122257086Y-97947732D01*
X122160428Y-97839572D01*
X122063768Y-97753191D01*
X121904958Y-97611268D01*
X121738998Y-97493514D01*
X121625521Y-97412998D01*
X121325648Y-97247264D01*
X121323835Y-97246513D01*
X121009106Y-97116147D01*
X120679867Y-97021295D01*
X120342086Y-96963904D01*
X120000000Y-96944693D01*
X119657913Y-96963904D01*
X119320132Y-97021295D01*
X118990893Y-97116147D01*
X118674353Y-97247263D01*
X118374479Y-97412998D01*
X118095041Y-97611268D01*
X117839572Y-97839572D01*
X117611268Y-98095041D01*
X117412998Y-98374479D01*
X117247263Y-98674353D01*
X117116147Y-98990893D01*
X117021295Y-99320132D01*
X116963904Y-99657913D01*
X116944693Y-99999999D01*
X103000500Y-99999999D01*
X103000500Y-97624500D01*
X103017113Y-97562500D01*
X103062500Y-97517113D01*
X103124500Y-97500500D01*
X103474554Y-97500500D01*
X103481764Y-97500710D01*
X103484367Y-97500861D01*
X103543935Y-97504331D01*
X103605304Y-97493508D01*
X103612384Y-97492471D01*
X103674255Y-97485241D01*
X103684790Y-97481405D01*
X103705661Y-97475812D01*
X103716711Y-97473865D01*
X103773899Y-97449196D01*
X103780580Y-97446541D01*
X103839117Y-97425237D01*
X103848479Y-97419078D01*
X103867517Y-97408814D01*
X103877804Y-97404377D01*
X103927786Y-97367165D01*
X103933648Y-97363061D01*
X103985696Y-97328830D01*
X103993391Y-97320673D01*
X104009534Y-97306306D01*
X104018530Y-97299610D01*
X104058567Y-97251893D01*
X104063333Y-97246537D01*
X104106092Y-97201218D01*
X104111699Y-97191504D01*
X104124097Y-97173800D01*
X104131302Y-97165214D01*
X104159255Y-97109551D01*
X104162669Y-97103221D01*
X104193812Y-97049281D01*
X104197028Y-97038535D01*
X104205010Y-97018448D01*
X104210039Y-97008434D01*
X104210040Y-97008433D01*
X104224405Y-96947820D01*
X104226271Y-96940860D01*
X104244130Y-96881210D01*
X104244781Y-96870009D01*
X104247916Y-96848620D01*
X104250500Y-96837721D01*
X104250500Y-96775446D01*
X104250710Y-96768236D01*
X104254331Y-96706065D01*
X104252384Y-96695023D01*
X104250500Y-96673490D01*
X104250500Y-95775446D01*
X104250710Y-95768236D01*
X104254331Y-95706066D01*
X104246609Y-95662279D01*
X104243514Y-95644728D01*
X104242469Y-95637591D01*
X104240973Y-95624789D01*
X104235241Y-95575745D01*
X104231404Y-95565206D01*
X104225810Y-95544324D01*
X104223865Y-95533289D01*
X104199193Y-95476094D01*
X104196535Y-95469400D01*
X104175238Y-95410884D01*
X104169076Y-95401516D01*
X104158817Y-95382490D01*
X104154377Y-95372196D01*
X104117187Y-95322243D01*
X104113054Y-95316340D01*
X104101506Y-95298782D01*
X104078830Y-95264304D01*
X104070673Y-95256608D01*
X104056304Y-95240462D01*
X104049610Y-95231470D01*
X104001894Y-95191432D01*
X103996543Y-95186670D01*
X103951218Y-95143908D01*
X103951216Y-95143906D01*
X103951213Y-95143904D01*
X103941503Y-95138298D01*
X103923803Y-95125905D01*
X103915214Y-95118698D01*
X103915212Y-95118697D01*
X103915211Y-95118696D01*
X103859551Y-95090742D01*
X103853204Y-95087320D01*
X103799279Y-95056187D01*
X103788535Y-95052970D01*
X103768459Y-95044994D01*
X103758435Y-95039960D01*
X103697841Y-95025598D01*
X103690879Y-95023732D01*
X103631212Y-95005870D01*
X103625941Y-95005563D01*
X103620013Y-95005217D01*
X103598634Y-95002086D01*
X103587721Y-94999500D01*
X103587719Y-94999500D01*
X103525446Y-94999500D01*
X103518236Y-94999290D01*
X103456065Y-94995668D01*
X103445023Y-94997616D01*
X103423490Y-94999500D01*
X102275446Y-94999500D01*
X102268236Y-94999290D01*
X102206065Y-94995668D01*
X102192187Y-94998116D01*
X102170654Y-95000000D01*
X100801362Y-95000000D01*
X100753909Y-94990561D01*
X100713681Y-94963681D01*
X100036819Y-94286819D01*
X100009939Y-94246591D01*
X100000500Y-94199138D01*
X100000500Y-93981307D01*
X106490022Y-93981307D01*
X106505189Y-94067334D01*
X106520417Y-94153711D01*
X106580286Y-94318214D01*
X106631183Y-94406373D01*
X106667814Y-94469823D01*
X106747387Y-94564658D01*
X106780340Y-94603931D01*
X106914436Y-94716457D01*
X106914437Y-94716458D01*
X106914439Y-94716459D01*
X107066044Y-94803993D01*
X107230546Y-94863871D01*
X107291036Y-94874537D01*
X107291043Y-94874541D01*
X107316649Y-94879056D01*
X115144740Y-96259358D01*
X115145154Y-96259519D01*
X115195194Y-96268340D01*
X115195194Y-96268341D01*
X115281401Y-96283538D01*
X115456468Y-96283532D01*
X115456474Y-96283532D01*
X115499576Y-96275929D01*
X115628885Y-96253124D01*
X115793396Y-96193239D01*
X115945010Y-96105697D01*
X116079118Y-95993157D01*
X116191647Y-95859039D01*
X116279176Y-95707418D01*
X116339047Y-95542901D01*
X116354243Y-95456694D01*
X116354257Y-95456618D01*
X116491195Y-94679999D01*
X123519610Y-94679999D01*
X123539068Y-94815342D01*
X123595869Y-94939717D01*
X123685412Y-95043056D01*
X123800437Y-95116977D01*
X123800439Y-95116978D01*
X123931633Y-95155500D01*
X124068367Y-95155500D01*
X124199561Y-95116978D01*
X124314589Y-95043055D01*
X124404130Y-94939718D01*
X124460931Y-94815342D01*
X124480390Y-94680000D01*
X124460931Y-94544658D01*
X124457097Y-94536263D01*
X124404130Y-94420282D01*
X124315703Y-94318231D01*
X124314589Y-94316945D01*
X124314588Y-94316944D01*
X124314587Y-94316943D01*
X124288223Y-94300000D01*
X146019610Y-94300000D01*
X146039068Y-94435342D01*
X146095869Y-94559717D01*
X146100150Y-94564658D01*
X146182299Y-94659464D01*
X146185412Y-94663056D01*
X146268571Y-94716498D01*
X146300439Y-94736978D01*
X146431633Y-94775500D01*
X146568367Y-94775500D01*
X146699561Y-94736978D01*
X146814589Y-94663055D01*
X146904130Y-94559718D01*
X146960931Y-94435342D01*
X146965096Y-94406372D01*
X146980446Y-94362019D01*
X147011182Y-94326548D01*
X147052900Y-94305041D01*
X147068365Y-94300500D01*
X147068367Y-94300500D01*
X147199561Y-94261978D01*
X147314589Y-94188055D01*
X147334863Y-94164657D01*
X147353369Y-94143300D01*
X147395571Y-94111707D01*
X147447083Y-94100501D01*
X153978995Y-94100501D01*
X154030507Y-94111707D01*
X154072709Y-94143300D01*
X154111488Y-94188055D01*
X154121450Y-94194457D01*
X154158727Y-94231732D01*
X154177150Y-94281125D01*
X154173389Y-94333707D01*
X154148125Y-94379975D01*
X154095870Y-94440280D01*
X154039068Y-94564657D01*
X154019610Y-94699999D01*
X154039068Y-94835342D01*
X154095869Y-94959717D01*
X154095870Y-94959718D01*
X154176672Y-95052970D01*
X154185412Y-95063056D01*
X154300437Y-95136977D01*
X154300439Y-95136978D01*
X154431633Y-95175500D01*
X154568367Y-95175500D01*
X154699561Y-95136978D01*
X154814589Y-95063055D01*
X154904130Y-94959718D01*
X154960931Y-94835342D01*
X154980390Y-94700000D01*
X154960931Y-94564658D01*
X154951797Y-94544658D01*
X154904130Y-94440282D01*
X154904128Y-94440280D01*
X154856824Y-94385687D01*
X173456914Y-94385687D01*
X173470208Y-94461104D01*
X173470209Y-94461117D01*
X173645741Y-95456611D01*
X173645752Y-95456672D01*
X173645859Y-95457274D01*
X173649937Y-95480547D01*
X173650136Y-95481061D01*
X173661032Y-95542876D01*
X173720899Y-95707383D01*
X173808419Y-95858989D01*
X173808461Y-95859039D01*
X173920940Y-95993098D01*
X174055038Y-96105629D01*
X174206639Y-96193164D01*
X174371137Y-96253044D01*
X174456907Y-96268171D01*
X174543532Y-96283449D01*
X174543546Y-96283449D01*
X174718592Y-96283456D01*
X174793557Y-96270239D01*
X174804793Y-96268259D01*
X174804801Y-96268307D01*
X174804968Y-96268228D01*
X174805284Y-96268173D01*
X174805283Y-96268172D01*
X174866113Y-96257540D01*
X174866487Y-96257378D01*
X182632546Y-94888014D01*
X182632788Y-94888019D01*
X182683261Y-94879118D01*
X182683262Y-94879119D01*
X182769466Y-94863917D01*
X182933976Y-94804036D01*
X183085588Y-94716498D01*
X183219696Y-94603963D01*
X183332225Y-94469850D01*
X183419756Y-94318233D01*
X183479629Y-94153721D01*
X183510025Y-93981311D01*
X183510021Y-93806242D01*
X183494819Y-93720038D01*
X183494732Y-93719546D01*
X183331293Y-92792645D01*
X183331300Y-92792512D01*
X183330207Y-92786330D01*
X183330212Y-92786133D01*
X183318261Y-92718379D01*
X183306028Y-92649015D01*
X183295475Y-92620024D01*
X183246147Y-92484509D01*
X183218702Y-92436977D01*
X183158604Y-92332894D01*
X183046067Y-92198786D01*
X182911952Y-92086258D01*
X182911951Y-92086257D01*
X182760334Y-91998727D01*
X182595824Y-91938855D01*
X182485935Y-91919482D01*
X182423411Y-91908459D01*
X182423409Y-91908459D01*
X182248342Y-91908462D01*
X182162289Y-91923638D01*
X182162136Y-91923665D01*
X182161690Y-91923742D01*
X182161734Y-91923735D01*
X178554904Y-92559717D01*
X174283576Y-93312868D01*
X174283575Y-93312868D01*
X174260075Y-93317012D01*
X174259764Y-93317131D01*
X174197490Y-93328110D01*
X174032980Y-93387982D01*
X173881375Y-93475508D01*
X173747269Y-93588028D01*
X173634742Y-93722125D01*
X173547205Y-93873731D01*
X173487326Y-94038228D01*
X173456920Y-94210625D01*
X173456914Y-94385687D01*
X154856824Y-94385687D01*
X154814589Y-94336945D01*
X154814588Y-94336944D01*
X154814586Y-94336942D01*
X154804625Y-94330540D01*
X154758871Y-94277736D01*
X154748928Y-94208578D01*
X154777951Y-94145025D01*
X154830208Y-94084718D01*
X154887009Y-93960342D01*
X154906468Y-93825000D01*
X154887009Y-93689658D01*
X154830208Y-93565282D01*
X154823919Y-93551511D01*
X154812713Y-93499999D01*
X154817064Y-93480000D01*
X157759610Y-93480000D01*
X157779068Y-93615342D01*
X157835869Y-93739717D01*
X157835870Y-93739718D01*
X157909766Y-93825000D01*
X157925412Y-93843056D01*
X157973144Y-93873731D01*
X158040439Y-93916978D01*
X158171633Y-93955500D01*
X158308367Y-93955500D01*
X158439561Y-93916978D01*
X158554589Y-93843055D01*
X158644130Y-93739718D01*
X158700931Y-93615342D01*
X158720390Y-93480000D01*
X158700931Y-93344658D01*
X158693346Y-93328050D01*
X158644130Y-93220282D01*
X158604893Y-93175000D01*
X158554589Y-93116945D01*
X158554588Y-93116944D01*
X158554587Y-93116943D01*
X158439562Y-93043022D01*
X158308367Y-93004500D01*
X158171633Y-93004500D01*
X158040437Y-93043022D01*
X157925412Y-93116943D01*
X157835869Y-93220282D01*
X157779068Y-93344657D01*
X157759610Y-93480000D01*
X154817064Y-93480000D01*
X154823919Y-93448486D01*
X154830205Y-93434721D01*
X154830208Y-93434718D01*
X154887009Y-93310342D01*
X154906468Y-93175000D01*
X154887009Y-93039658D01*
X154830208Y-92915282D01*
X154830207Y-92915281D01*
X154830207Y-92915280D01*
X154777953Y-92854975D01*
X154752689Y-92808707D01*
X154748928Y-92756125D01*
X154767351Y-92706732D01*
X154804628Y-92669457D01*
X154814587Y-92663056D01*
X154814586Y-92663056D01*
X154814589Y-92663055D01*
X154904130Y-92559718D01*
X154960931Y-92435342D01*
X154980390Y-92300000D01*
X154960931Y-92164658D01*
X154904130Y-92040282D01*
X154904129Y-92040281D01*
X154904129Y-92040280D01*
X154809613Y-91931202D01*
X154782821Y-91879234D01*
X154782821Y-91820766D01*
X154809613Y-91768798D01*
X154897518Y-91667349D01*
X154904130Y-91659718D01*
X154960931Y-91535342D01*
X154968888Y-91480000D01*
X157769610Y-91480000D01*
X157789068Y-91615342D01*
X157845869Y-91739717D01*
X157935412Y-91843056D01*
X158050437Y-91916977D01*
X158050439Y-91916978D01*
X158181633Y-91955500D01*
X158318367Y-91955500D01*
X158449561Y-91916978D01*
X158564589Y-91843055D01*
X158654130Y-91739718D01*
X158710931Y-91615342D01*
X158730390Y-91480000D01*
X158710931Y-91344658D01*
X158682211Y-91281771D01*
X158654130Y-91220282D01*
X158601160Y-91159151D01*
X159522050Y-91159151D01*
X159561274Y-91394209D01*
X159638650Y-91619595D01*
X159752072Y-91829182D01*
X159898436Y-92017231D01*
X159898439Y-92017233D01*
X159898440Y-92017235D01*
X160073766Y-92178633D01*
X160273266Y-92308973D01*
X160491498Y-92404699D01*
X160722510Y-92463199D01*
X160793717Y-92469099D01*
X160900522Y-92477950D01*
X160900528Y-92477950D01*
X161019472Y-92477950D01*
X161019478Y-92477950D01*
X161116572Y-92469904D01*
X161197490Y-92463199D01*
X161428502Y-92404699D01*
X161646734Y-92308973D01*
X161846234Y-92178633D01*
X162021560Y-92017235D01*
X162099593Y-91916978D01*
X162167927Y-91829182D01*
X162167929Y-91829179D01*
X162281349Y-91619597D01*
X162358726Y-91394206D01*
X162397950Y-91159152D01*
X162397950Y-91083659D01*
X162750392Y-91083659D01*
X162765685Y-91170386D01*
X162780668Y-91255354D01*
X162849721Y-91415438D01*
X162953832Y-91555283D01*
X163087386Y-91667349D01*
X163243185Y-91745594D01*
X163412829Y-91785800D01*
X163543433Y-91785800D01*
X163543436Y-91785800D01*
X163673164Y-91770637D01*
X163836993Y-91711008D01*
X163982654Y-91615205D01*
X164102296Y-91488393D01*
X164189467Y-91337407D01*
X164239469Y-91170388D01*
X164240124Y-91159151D01*
X164602050Y-91159151D01*
X164641274Y-91394209D01*
X164718650Y-91619595D01*
X164832072Y-91829182D01*
X164978436Y-92017231D01*
X164978439Y-92017233D01*
X164978440Y-92017235D01*
X165153766Y-92178633D01*
X165353266Y-92308973D01*
X165571498Y-92404699D01*
X165802510Y-92463199D01*
X165873717Y-92469099D01*
X165980522Y-92477950D01*
X165980528Y-92477950D01*
X166099472Y-92477950D01*
X166099478Y-92477950D01*
X166196572Y-92469904D01*
X166277490Y-92463199D01*
X166508502Y-92404699D01*
X166726734Y-92308973D01*
X166926234Y-92178633D01*
X167101560Y-92017235D01*
X167179593Y-91916978D01*
X167247927Y-91829182D01*
X167247929Y-91829179D01*
X167361349Y-91619597D01*
X167438726Y-91394206D01*
X167477950Y-91159152D01*
X167477950Y-90920848D01*
X167438726Y-90685794D01*
X167421955Y-90636943D01*
X167383428Y-90524716D01*
X167361349Y-90460403D01*
X167247929Y-90250821D01*
X167247927Y-90250817D01*
X167101563Y-90062768D01*
X167101560Y-90062765D01*
X166926234Y-89901367D01*
X166726734Y-89771027D01*
X166508502Y-89675301D01*
X166277490Y-89616801D01*
X166277488Y-89616800D01*
X166277485Y-89616800D01*
X166099478Y-89602050D01*
X166099472Y-89602050D01*
X165980528Y-89602050D01*
X165980522Y-89602050D01*
X165802514Y-89616800D01*
X165802510Y-89616800D01*
X165802510Y-89616801D01*
X165571498Y-89675301D01*
X165353266Y-89771027D01*
X165153766Y-89901367D01*
X165153764Y-89901368D01*
X165153765Y-89901368D01*
X164978436Y-90062768D01*
X164832072Y-90250817D01*
X164718650Y-90460404D01*
X164641274Y-90685790D01*
X164602050Y-90920849D01*
X164602050Y-91159151D01*
X164240124Y-91159151D01*
X164249607Y-90996340D01*
X164219332Y-90824646D01*
X164150279Y-90664562D01*
X164046168Y-90524717D01*
X164045909Y-90524500D01*
X163969522Y-90460403D01*
X163912614Y-90412651D01*
X163756815Y-90334406D01*
X163587171Y-90294200D01*
X163456564Y-90294200D01*
X163378727Y-90303297D01*
X163326834Y-90309363D01*
X163163005Y-90368992D01*
X163017346Y-90464794D01*
X162897704Y-90591606D01*
X162810533Y-90742591D01*
X162760531Y-90909613D01*
X162750392Y-91083659D01*
X162397950Y-91083659D01*
X162397950Y-90920848D01*
X162358726Y-90685794D01*
X162341955Y-90636943D01*
X162303428Y-90524716D01*
X162281349Y-90460403D01*
X162167929Y-90250821D01*
X162167927Y-90250817D01*
X162021563Y-90062768D01*
X162021560Y-90062765D01*
X161846234Y-89901367D01*
X161646734Y-89771027D01*
X161428502Y-89675301D01*
X161197490Y-89616801D01*
X161197488Y-89616800D01*
X161197485Y-89616800D01*
X161019478Y-89602050D01*
X161019472Y-89602050D01*
X160900528Y-89602050D01*
X160900522Y-89602050D01*
X160722514Y-89616800D01*
X160722510Y-89616800D01*
X160722510Y-89616801D01*
X160491498Y-89675301D01*
X160273266Y-89771027D01*
X160073766Y-89901367D01*
X160073764Y-89901368D01*
X160073765Y-89901368D01*
X159898436Y-90062768D01*
X159752072Y-90250817D01*
X159638650Y-90460404D01*
X159561274Y-90685790D01*
X159522050Y-90920849D01*
X159522050Y-91159151D01*
X158601160Y-91159151D01*
X158599640Y-91157397D01*
X158564589Y-91116945D01*
X158564588Y-91116944D01*
X158564587Y-91116943D01*
X158449562Y-91043022D01*
X158318367Y-91004500D01*
X158181633Y-91004500D01*
X158050437Y-91043022D01*
X157935412Y-91116943D01*
X157845869Y-91220282D01*
X157789068Y-91344657D01*
X157769610Y-91480000D01*
X154968888Y-91480000D01*
X154980390Y-91400000D01*
X154960931Y-91264658D01*
X154904130Y-91140282D01*
X154814589Y-91036945D01*
X154814588Y-91036944D01*
X154814587Y-91036943D01*
X154699562Y-90963022D01*
X154568367Y-90924500D01*
X154431633Y-90924500D01*
X154300437Y-90963022D01*
X154291538Y-90968742D01*
X154228925Y-90988347D01*
X154165073Y-90973258D01*
X154117858Y-90927699D01*
X154100500Y-90864426D01*
X154100500Y-89861500D01*
X154117113Y-89799500D01*
X154162500Y-89754113D01*
X154224500Y-89737500D01*
X154368367Y-89737500D01*
X154499561Y-89698978D01*
X154603496Y-89632183D01*
X154670534Y-89612500D01*
X156729774Y-89612500D01*
X156796813Y-89632184D01*
X156842568Y-89684988D01*
X156845869Y-89692217D01*
X156935412Y-89795556D01*
X157050437Y-89869477D01*
X157050439Y-89869478D01*
X157181633Y-89908000D01*
X157318367Y-89908000D01*
X157449561Y-89869478D01*
X157564589Y-89795555D01*
X157654130Y-89692218D01*
X157710931Y-89567842D01*
X157730390Y-89432500D01*
X157710931Y-89297158D01*
X157710775Y-89296817D01*
X157654130Y-89172782D01*
X157620501Y-89133972D01*
X157564589Y-89069445D01*
X157564588Y-89069444D01*
X157564587Y-89069443D01*
X157449562Y-88995522D01*
X157318367Y-88957000D01*
X157295234Y-88957000D01*
X157257402Y-88951088D01*
X157248449Y-88946595D01*
X157188909Y-88928869D01*
X157184031Y-88927306D01*
X157130921Y-88909074D01*
X157074832Y-88911394D01*
X157069708Y-88911500D01*
X154670534Y-88911500D01*
X154603496Y-88891816D01*
X154526339Y-88842231D01*
X154499560Y-88825021D01*
X154368367Y-88786500D01*
X154231633Y-88786500D01*
X154224500Y-88786500D01*
X154162500Y-88769887D01*
X154117113Y-88724500D01*
X154100500Y-88662500D01*
X154100500Y-87984151D01*
X159522050Y-87984151D01*
X159561274Y-88219209D01*
X159638650Y-88444595D01*
X159752072Y-88654182D01*
X159898436Y-88842231D01*
X159898439Y-88842233D01*
X159898440Y-88842235D01*
X160073766Y-89003633D01*
X160273266Y-89133973D01*
X160491498Y-89229699D01*
X160722510Y-89288199D01*
X160793717Y-89294099D01*
X160900522Y-89302950D01*
X160900528Y-89302950D01*
X161019472Y-89302950D01*
X161019478Y-89302950D01*
X161116572Y-89294904D01*
X161197490Y-89288199D01*
X161428502Y-89229699D01*
X161646734Y-89133973D01*
X161846234Y-89003633D01*
X162021560Y-88842235D01*
X162131086Y-88701515D01*
X162167927Y-88654182D01*
X162167929Y-88654179D01*
X162281349Y-88444597D01*
X162358726Y-88219206D01*
X162397950Y-87984152D01*
X162397950Y-87984151D01*
X164602050Y-87984151D01*
X164641274Y-88219209D01*
X164718650Y-88444595D01*
X164832072Y-88654182D01*
X164978436Y-88842231D01*
X164978439Y-88842233D01*
X164978440Y-88842235D01*
X165153766Y-89003633D01*
X165353266Y-89133973D01*
X165571498Y-89229699D01*
X165802510Y-89288199D01*
X165873717Y-89294099D01*
X165980522Y-89302950D01*
X165980528Y-89302950D01*
X166099472Y-89302950D01*
X166099478Y-89302950D01*
X166196572Y-89294904D01*
X166277490Y-89288199D01*
X166508502Y-89229699D01*
X166726734Y-89133973D01*
X166926234Y-89003633D01*
X167101560Y-88842235D01*
X167211086Y-88701515D01*
X167247927Y-88654182D01*
X167247929Y-88654179D01*
X167361349Y-88444597D01*
X167438726Y-88219206D01*
X167477950Y-87984152D01*
X167477950Y-87745848D01*
X167438726Y-87510794D01*
X167438453Y-87510000D01*
X167361349Y-87285404D01*
X167361349Y-87285403D01*
X167247929Y-87075821D01*
X167247927Y-87075817D01*
X167101563Y-86887768D01*
X167098928Y-86885342D01*
X166926234Y-86726367D01*
X166726734Y-86596027D01*
X166508502Y-86500301D01*
X166277490Y-86441801D01*
X166277488Y-86441800D01*
X166277485Y-86441800D01*
X166099478Y-86427050D01*
X166099472Y-86427050D01*
X165980528Y-86427050D01*
X165980522Y-86427050D01*
X165802514Y-86441800D01*
X165571498Y-86500301D01*
X165353263Y-86596028D01*
X165155777Y-86725052D01*
X165150936Y-86726745D01*
X165147293Y-86732325D01*
X164978437Y-86887768D01*
X164832072Y-87075817D01*
X164718650Y-87285404D01*
X164641274Y-87510790D01*
X164602050Y-87745849D01*
X164602050Y-87984151D01*
X162397950Y-87984151D01*
X162397950Y-87745848D01*
X162358726Y-87510794D01*
X162358453Y-87510000D01*
X162281349Y-87285404D01*
X162281349Y-87285403D01*
X162167929Y-87075821D01*
X162167927Y-87075817D01*
X162021563Y-86887768D01*
X162018928Y-86885342D01*
X161846234Y-86726367D01*
X161646734Y-86596027D01*
X161428502Y-86500301D01*
X161197490Y-86441801D01*
X161197488Y-86441800D01*
X161197485Y-86441800D01*
X161019478Y-86427050D01*
X161019472Y-86427050D01*
X160900528Y-86427050D01*
X160900522Y-86427050D01*
X160722514Y-86441800D01*
X160722510Y-86441800D01*
X160722510Y-86441801D01*
X160491498Y-86500301D01*
X160273266Y-86596027D01*
X160073766Y-86726367D01*
X160073764Y-86726368D01*
X160073765Y-86726368D01*
X159898436Y-86887768D01*
X159752072Y-87075817D01*
X159638650Y-87285404D01*
X159561274Y-87510790D01*
X159522050Y-87745849D01*
X159522050Y-87984151D01*
X154100500Y-87984151D01*
X154100500Y-87196544D01*
X154109939Y-87149091D01*
X154136819Y-87108863D01*
X154238451Y-87007231D01*
X154713046Y-86532634D01*
X154732903Y-86516510D01*
X154740669Y-86511437D01*
X154758496Y-86488531D01*
X154768232Y-86477507D01*
X154769820Y-86475283D01*
X154779559Y-86461640D01*
X154782607Y-86457552D01*
X154812517Y-86419126D01*
X154812517Y-86419125D01*
X154817105Y-86413231D01*
X154819237Y-86406068D01*
X154819239Y-86406066D01*
X154833142Y-86359363D01*
X154834674Y-86354581D01*
X154850500Y-86308488D01*
X154850500Y-86308486D01*
X154852925Y-86301423D01*
X154852616Y-86293956D01*
X154852617Y-86293954D01*
X154850605Y-86245331D01*
X154850500Y-86240208D01*
X154850500Y-86003659D01*
X161734392Y-86003659D01*
X161749685Y-86090386D01*
X161764668Y-86175354D01*
X161833721Y-86335438D01*
X161937832Y-86475283D01*
X162071386Y-86587349D01*
X162227185Y-86665594D01*
X162396829Y-86705800D01*
X162527433Y-86705800D01*
X162527436Y-86705800D01*
X162657164Y-86690637D01*
X162820993Y-86631008D01*
X162966654Y-86535205D01*
X163086296Y-86408393D01*
X163173467Y-86257407D01*
X163223469Y-86090388D01*
X163228521Y-86003659D01*
X163766392Y-86003659D01*
X163781685Y-86090386D01*
X163796668Y-86175354D01*
X163865721Y-86335438D01*
X163969832Y-86475283D01*
X164103386Y-86587349D01*
X164259185Y-86665594D01*
X164428829Y-86705800D01*
X164559433Y-86705800D01*
X164559436Y-86705800D01*
X164689164Y-86690637D01*
X164852993Y-86631008D01*
X164995174Y-86537493D01*
X164997447Y-86536705D01*
X164997763Y-86536148D01*
X164998650Y-86535207D01*
X164998654Y-86535205D01*
X165118296Y-86408393D01*
X165205467Y-86257407D01*
X165255469Y-86090388D01*
X165265607Y-85916340D01*
X165235332Y-85744646D01*
X165166279Y-85584562D01*
X165062168Y-85444717D01*
X165058348Y-85441512D01*
X164928615Y-85332652D01*
X164928614Y-85332651D01*
X164772815Y-85254406D01*
X164603171Y-85214200D01*
X164472564Y-85214200D01*
X164394727Y-85223297D01*
X164342834Y-85229363D01*
X164179005Y-85288992D01*
X164033346Y-85384794D01*
X163913704Y-85511606D01*
X163826533Y-85662591D01*
X163801968Y-85744646D01*
X163783043Y-85807862D01*
X163776531Y-85829613D01*
X163766392Y-86003659D01*
X163228521Y-86003659D01*
X163233607Y-85916340D01*
X163203332Y-85744646D01*
X163134279Y-85584562D01*
X163030168Y-85444717D01*
X163026348Y-85441512D01*
X162896615Y-85332652D01*
X162896614Y-85332651D01*
X162740815Y-85254406D01*
X162571171Y-85214200D01*
X162440564Y-85214200D01*
X162362727Y-85223297D01*
X162310834Y-85229363D01*
X162147005Y-85288992D01*
X162001346Y-85384794D01*
X161881704Y-85511606D01*
X161794533Y-85662591D01*
X161769968Y-85744646D01*
X161751043Y-85807862D01*
X161744531Y-85829613D01*
X161734392Y-86003659D01*
X154850500Y-86003659D01*
X154850500Y-85199999D01*
X166019610Y-85199999D01*
X166039068Y-85335342D01*
X166095869Y-85459717D01*
X166134819Y-85504668D01*
X166185382Y-85563022D01*
X166185412Y-85563056D01*
X166300437Y-85636977D01*
X166300439Y-85636978D01*
X166431633Y-85675500D01*
X166568367Y-85675500D01*
X166699561Y-85636978D01*
X166814589Y-85563055D01*
X166904130Y-85459718D01*
X166960931Y-85335342D01*
X166980390Y-85200000D01*
X166961292Y-85067170D01*
X166960931Y-85064657D01*
X166904130Y-84940282D01*
X166814587Y-84836943D01*
X166699562Y-84763022D01*
X166568367Y-84724500D01*
X166431633Y-84724500D01*
X166300437Y-84763022D01*
X166185412Y-84836943D01*
X166095869Y-84940282D01*
X166039068Y-85064657D01*
X166019610Y-85199999D01*
X154850500Y-85199999D01*
X154850500Y-85117860D01*
X154858318Y-85074526D01*
X154880787Y-85036657D01*
X154904130Y-85009718D01*
X154960931Y-84885342D01*
X154980390Y-84750000D01*
X154966662Y-84654520D01*
X169730273Y-84654520D01*
X169747107Y-84750000D01*
X169760669Y-84826926D01*
X169820539Y-84991429D01*
X169820540Y-84991431D01*
X169864001Y-85066714D01*
X169872413Y-85081284D01*
X169872416Y-85081288D01*
X170355891Y-85918691D01*
X170355898Y-85918705D01*
X170407937Y-86008836D01*
X170408108Y-86009040D01*
X170408110Y-86009043D01*
X170485193Y-86100909D01*
X170520633Y-86143146D01*
X170654739Y-86255679D01*
X170771379Y-86323022D01*
X170806341Y-86343208D01*
X170970842Y-86403086D01*
X171143241Y-86433489D01*
X171318301Y-86433494D01*
X171490702Y-86403101D01*
X171655207Y-86343233D01*
X171716783Y-86307683D01*
X171716797Y-86307678D01*
X171730925Y-86299521D01*
X171730926Y-86299521D01*
X178622330Y-82320764D01*
X178622335Y-82320763D01*
X178658781Y-82299720D01*
X178658782Y-82299721D01*
X178658838Y-82299688D01*
X178659936Y-82299063D01*
X178680177Y-82287663D01*
X178681140Y-82286811D01*
X178712093Y-82268940D01*
X178712182Y-82268855D01*
X178735005Y-82255681D01*
X178869115Y-82143157D01*
X178981647Y-82009054D01*
X179069182Y-81857447D01*
X179129060Y-81692942D01*
X179159461Y-81520539D01*
X179159463Y-81345476D01*
X179129064Y-81173073D01*
X179069189Y-81008568D01*
X179033637Y-80946993D01*
X179033631Y-80946975D01*
X178645376Y-80274499D01*
X178551254Y-80111476D01*
X178551172Y-80111230D01*
X178525433Y-80066652D01*
X178481699Y-79990905D01*
X178369163Y-79856797D01*
X178235049Y-79744269D01*
X178235048Y-79744268D01*
X178083431Y-79656737D01*
X177918921Y-79596866D01*
X177832714Y-79581668D01*
X177746509Y-79566470D01*
X177746507Y-79566470D01*
X177571441Y-79566473D01*
X177399029Y-79596879D01*
X177234517Y-79656760D01*
X177130027Y-79717090D01*
X177130023Y-79717091D01*
X177130024Y-79717092D01*
X170212650Y-83710841D01*
X170212631Y-83710856D01*
X170154711Y-83744299D01*
X170020605Y-83856831D01*
X169908080Y-83990938D01*
X169820549Y-84142549D01*
X169760675Y-84307054D01*
X169730274Y-84479456D01*
X169730273Y-84614656D01*
X169730273Y-84654520D01*
X154966662Y-84654520D01*
X154960931Y-84614658D01*
X154960930Y-84614656D01*
X154904130Y-84490282D01*
X154874999Y-84456663D01*
X154814589Y-84386945D01*
X154814588Y-84386944D01*
X154814587Y-84386943D01*
X154699562Y-84313022D01*
X154568367Y-84274500D01*
X154431633Y-84274500D01*
X154300439Y-84313021D01*
X154228121Y-84359497D01*
X154192037Y-84382686D01*
X154125000Y-84402370D01*
X154057962Y-84382686D01*
X153994798Y-84342093D01*
X153949560Y-84313021D01*
X153818367Y-84274500D01*
X153681633Y-84274500D01*
X153550439Y-84313021D01*
X153478121Y-84359497D01*
X153442037Y-84382686D01*
X153375000Y-84402370D01*
X153307962Y-84382686D01*
X153244798Y-84342093D01*
X153199560Y-84313021D01*
X153068367Y-84274500D01*
X152931633Y-84274500D01*
X152800437Y-84313022D01*
X152685412Y-84386943D01*
X152595869Y-84490282D01*
X152539069Y-84614656D01*
X152528050Y-84691291D01*
X152516195Y-84729148D01*
X152492993Y-84761323D01*
X152036955Y-85217361D01*
X152017104Y-85233483D01*
X152009332Y-85238561D01*
X151991500Y-85261471D01*
X151981765Y-85272496D01*
X151970441Y-85288357D01*
X151967392Y-85292445D01*
X151958823Y-85303456D01*
X151932891Y-85336773D01*
X151916871Y-85390582D01*
X151915309Y-85395458D01*
X151897074Y-85448577D01*
X151899394Y-85504668D01*
X151899500Y-85509792D01*
X151899500Y-91045904D01*
X151891682Y-91089238D01*
X151869214Y-91127104D01*
X151847684Y-91151951D01*
X151842966Y-91157397D01*
X151786165Y-91281771D01*
X151766707Y-91417114D01*
X151779753Y-91507854D01*
X151769809Y-91577012D01*
X151724054Y-91629816D01*
X151657015Y-91649500D01*
X150270534Y-91649500D01*
X150203496Y-91629816D01*
X150121330Y-91577012D01*
X150099560Y-91563021D01*
X149968367Y-91524500D01*
X149831633Y-91524500D01*
X149700437Y-91563022D01*
X149585412Y-91636943D01*
X149495869Y-91740282D01*
X149439068Y-91864657D01*
X149419610Y-92000000D01*
X149439068Y-92135342D01*
X149495869Y-92259717D01*
X149495870Y-92259718D01*
X149565930Y-92340573D01*
X149585412Y-92363056D01*
X149697893Y-92435342D01*
X149700439Y-92436978D01*
X149831633Y-92475500D01*
X149968367Y-92475500D01*
X150099561Y-92436978D01*
X150203496Y-92370183D01*
X150270534Y-92350500D01*
X153867751Y-92350500D01*
X153893197Y-92353139D01*
X153894519Y-92353416D01*
X153902278Y-92355043D01*
X153906681Y-92354494D01*
X153958442Y-92359010D01*
X154003808Y-92384338D01*
X154034815Y-92426029D01*
X154095870Y-92559719D01*
X154148124Y-92620024D01*
X154177149Y-92683578D01*
X154167206Y-92752735D01*
X154121454Y-92805539D01*
X154111490Y-92811942D01*
X154072709Y-92856700D01*
X154030507Y-92888293D01*
X153978995Y-92899499D01*
X147447083Y-92899499D01*
X147395571Y-92888293D01*
X147353369Y-92856700D01*
X147314589Y-92811944D01*
X147199562Y-92738022D01*
X147052899Y-92694958D01*
X147011182Y-92673451D01*
X146980446Y-92637980D01*
X146965096Y-92593627D01*
X146960931Y-92564657D01*
X146904130Y-92440282D01*
X146877198Y-92409200D01*
X146814589Y-92336945D01*
X146814588Y-92336944D01*
X146814587Y-92336943D01*
X146699562Y-92263022D01*
X146568367Y-92224500D01*
X146431633Y-92224500D01*
X146300437Y-92263022D01*
X146185412Y-92336943D01*
X146095869Y-92440282D01*
X146039068Y-92564657D01*
X146019610Y-92700000D01*
X146039068Y-92835342D01*
X146095869Y-92959717D01*
X146185412Y-93063056D01*
X146300437Y-93136977D01*
X146300439Y-93136978D01*
X146431633Y-93175500D01*
X146431635Y-93175500D01*
X146447100Y-93180041D01*
X146505878Y-93217815D01*
X146534903Y-93281370D01*
X146539068Y-93310342D01*
X146602158Y-93448488D01*
X146613364Y-93500000D01*
X146602158Y-93551512D01*
X146539068Y-93689657D01*
X146534903Y-93718629D01*
X146505878Y-93782184D01*
X146447100Y-93819958D01*
X146300437Y-93863022D01*
X146185412Y-93936943D01*
X146095869Y-94040282D01*
X146039068Y-94164657D01*
X146019610Y-94300000D01*
X124288223Y-94300000D01*
X124199562Y-94243022D01*
X124068367Y-94204500D01*
X123931633Y-94204500D01*
X123800437Y-94243022D01*
X123685412Y-94316943D01*
X123595869Y-94420282D01*
X123539068Y-94544657D01*
X123519610Y-94679999D01*
X116491195Y-94679999D01*
X116518972Y-94522466D01*
X116519095Y-94522149D01*
X116527953Y-94471896D01*
X116527954Y-94471897D01*
X116543150Y-94385691D01*
X116543142Y-94210622D01*
X116543142Y-94210619D01*
X116512735Y-94038213D01*
X116452852Y-93873704D01*
X116375489Y-93739718D01*
X116365312Y-93722092D01*
X116365311Y-93722090D01*
X116365310Y-93722089D01*
X116252777Y-93587985D01*
X116118661Y-93475454D01*
X115967044Y-93387924D01*
X115802532Y-93328050D01*
X115787349Y-93325373D01*
X115716424Y-93312868D01*
X115716422Y-93312867D01*
X115716421Y-93312867D01*
X112666020Y-92774999D01*
X132619610Y-92774999D01*
X132639068Y-92910342D01*
X132695869Y-93034717D01*
X132785412Y-93138056D01*
X132842899Y-93175000D01*
X132900439Y-93211978D01*
X133031633Y-93250500D01*
X133168367Y-93250500D01*
X133299561Y-93211978D01*
X133414589Y-93138055D01*
X133504130Y-93034718D01*
X133560931Y-92910342D01*
X133580390Y-92775000D01*
X133560931Y-92639658D01*
X133551964Y-92620024D01*
X133504130Y-92515282D01*
X133477485Y-92484532D01*
X133414589Y-92411945D01*
X133414588Y-92411944D01*
X133414587Y-92411943D01*
X133299562Y-92338022D01*
X133168367Y-92299500D01*
X133031633Y-92299500D01*
X132900437Y-92338022D01*
X132785412Y-92411943D01*
X132695869Y-92515282D01*
X132639068Y-92639657D01*
X132619610Y-92774999D01*
X112666020Y-92774999D01*
X109782310Y-92266523D01*
X107950151Y-91943463D01*
X107949384Y-91943118D01*
X107838024Y-91923693D01*
X107837711Y-91923638D01*
X107814203Y-91919475D01*
X107813794Y-91919482D01*
X107751654Y-91908524D01*
X107576596Y-91908520D01*
X107576595Y-91908520D01*
X107533494Y-91916118D01*
X107404191Y-91938915D01*
X107239691Y-91998783D01*
X107088083Y-92086308D01*
X106953973Y-92198833D01*
X106841448Y-92332925D01*
X106753911Y-92484530D01*
X106694031Y-92649034D01*
X106678829Y-92735228D01*
X106668699Y-92792516D01*
X106668705Y-92792648D01*
X106505268Y-93719546D01*
X106505266Y-93719548D01*
X106505215Y-93719836D01*
X106505216Y-93719837D01*
X106502381Y-93736181D01*
X106502321Y-93736523D01*
X106490025Y-93806247D01*
X106490022Y-93960342D01*
X106490022Y-93981307D01*
X100000500Y-93981307D01*
X100000500Y-91000000D01*
X113769610Y-91000000D01*
X113789068Y-91135342D01*
X113845869Y-91259717D01*
X113935412Y-91363056D01*
X114050437Y-91436977D01*
X114050439Y-91436978D01*
X114181633Y-91475500D01*
X114318367Y-91475500D01*
X114449561Y-91436978D01*
X114564589Y-91363055D01*
X114654130Y-91259718D01*
X114710931Y-91135342D01*
X114730390Y-91000000D01*
X114710931Y-90864658D01*
X114710825Y-90864426D01*
X114654130Y-90740282D01*
X114564587Y-90636943D01*
X114449562Y-90563022D01*
X114318367Y-90524500D01*
X114181633Y-90524500D01*
X114050437Y-90563022D01*
X113935412Y-90636943D01*
X113845869Y-90740282D01*
X113789068Y-90864657D01*
X113769610Y-91000000D01*
X100000500Y-91000000D01*
X100000500Y-89910055D01*
X100899500Y-89910055D01*
X100940209Y-90075224D01*
X100940210Y-90075225D01*
X101019266Y-90225852D01*
X101132071Y-90353183D01*
X101272070Y-90449818D01*
X101431128Y-90510140D01*
X101557628Y-90525500D01*
X102442371Y-90525500D01*
X102442372Y-90525500D01*
X102568872Y-90510140D01*
X102727930Y-90449818D01*
X102867929Y-90353183D01*
X102980734Y-90225852D01*
X103059790Y-90075225D01*
X103100500Y-89910056D01*
X103100500Y-89910055D01*
X104919500Y-89910055D01*
X104960209Y-90075224D01*
X104960210Y-90075225D01*
X105039266Y-90225852D01*
X105152071Y-90353183D01*
X105292070Y-90449818D01*
X105451128Y-90510140D01*
X105577628Y-90525500D01*
X106762371Y-90525500D01*
X106762372Y-90525500D01*
X106888872Y-90510140D01*
X107047930Y-90449818D01*
X107187929Y-90353183D01*
X107300734Y-90225852D01*
X107379790Y-90075225D01*
X107420500Y-89910056D01*
X107420500Y-89739944D01*
X107379790Y-89574775D01*
X107300734Y-89424148D01*
X107187929Y-89296817D01*
X107187928Y-89296816D01*
X107187927Y-89296815D01*
X107047930Y-89200182D01*
X106888872Y-89139860D01*
X106865137Y-89136978D01*
X106762372Y-89124500D01*
X105967506Y-89124500D01*
X105903078Y-89106448D01*
X105857408Y-89057548D01*
X105843795Y-88992038D01*
X105866201Y-88928992D01*
X105918104Y-88886766D01*
X105929820Y-88881676D01*
X105968720Y-88864780D01*
X106086108Y-88769278D01*
X106173377Y-88645647D01*
X106177040Y-88635342D01*
X106198100Y-88576083D01*
X106224054Y-88503056D01*
X106234381Y-88352079D01*
X106231186Y-88336706D01*
X106206770Y-88219209D01*
X106203592Y-88203915D01*
X106133971Y-88069553D01*
X106030680Y-87958956D01*
X106030679Y-87958955D01*
X106030678Y-87958954D01*
X105992601Y-87935799D01*
X107299500Y-87935799D01*
X107314834Y-88042457D01*
X107374623Y-88173374D01*
X107430522Y-88237885D01*
X107457314Y-88289852D01*
X107457314Y-88348320D01*
X107430523Y-88400288D01*
X107395870Y-88440280D01*
X107339068Y-88564657D01*
X107319610Y-88699999D01*
X107339068Y-88835342D01*
X107395869Y-88959717D01*
X107485412Y-89063056D01*
X107600437Y-89136977D01*
X107600439Y-89136978D01*
X107731633Y-89175500D01*
X107868367Y-89175500D01*
X107999561Y-89136978D01*
X108114589Y-89063055D01*
X108204130Y-88959718D01*
X108260931Y-88835342D01*
X108280390Y-88700000D01*
X108260931Y-88564658D01*
X108259707Y-88561978D01*
X108197613Y-88426012D01*
X108186723Y-88365654D01*
X108206091Y-88307461D01*
X108250980Y-88265668D01*
X108310407Y-88250500D01*
X109703456Y-88250500D01*
X109750909Y-88259939D01*
X109791137Y-88286819D01*
X109992993Y-88488675D01*
X110016195Y-88520851D01*
X110028050Y-88558707D01*
X110028906Y-88564657D01*
X110039069Y-88635342D01*
X110039070Y-88635344D01*
X110095868Y-88759716D01*
X110185412Y-88863056D01*
X110287821Y-88928869D01*
X110300439Y-88936978D01*
X110431633Y-88975500D01*
X110568367Y-88975500D01*
X110699561Y-88936978D01*
X110814589Y-88863055D01*
X110904130Y-88759718D01*
X110919150Y-88726827D01*
X110955872Y-88680418D01*
X111009926Y-88656312D01*
X111068996Y-88660007D01*
X111119624Y-88690661D01*
X111807353Y-89378390D01*
X111823480Y-89398249D01*
X111829418Y-89407339D01*
X111854396Y-89426780D01*
X111865913Y-89436951D01*
X111865984Y-89437022D01*
X111882900Y-89449100D01*
X111887008Y-89452163D01*
X111934544Y-89489162D01*
X111934735Y-89489259D01*
X111942302Y-89491512D01*
X111942304Y-89491513D01*
X111992477Y-89506450D01*
X111997307Y-89507997D01*
X112046843Y-89525003D01*
X112046845Y-89525003D01*
X112054302Y-89527563D01*
X112054536Y-89527597D01*
X112062412Y-89527271D01*
X112062415Y-89527272D01*
X112112730Y-89525190D01*
X112114710Y-89525109D01*
X112119834Y-89525003D01*
X112668367Y-89525003D01*
X112735404Y-89544686D01*
X112800439Y-89586481D01*
X112931633Y-89625003D01*
X113068367Y-89625003D01*
X113199561Y-89586481D01*
X113314589Y-89512558D01*
X113318530Y-89508010D01*
X113352941Y-89468298D01*
X113395142Y-89436706D01*
X113446654Y-89425500D01*
X115697372Y-89425500D01*
X115722818Y-89428139D01*
X115726617Y-89428935D01*
X115733445Y-89430367D01*
X115763315Y-89426643D01*
X115764854Y-89426452D01*
X115780191Y-89425500D01*
X115780288Y-89425500D01*
X115780291Y-89425500D01*
X115800820Y-89422073D01*
X115805836Y-89421342D01*
X115857803Y-89414866D01*
X115857805Y-89414864D01*
X115865635Y-89413889D01*
X115882777Y-89408398D01*
X115893203Y-89406659D01*
X115893378Y-89407712D01*
X115921862Y-89400500D01*
X115942544Y-89400500D01*
X116073738Y-89361978D01*
X116188766Y-89288055D01*
X116278307Y-89184718D01*
X116335108Y-89060342D01*
X116354567Y-88925000D01*
X116335108Y-88789658D01*
X116298933Y-88710447D01*
X116272018Y-88651511D01*
X116260812Y-88599999D01*
X116272018Y-88548486D01*
X116278304Y-88534721D01*
X116278307Y-88534718D01*
X116335108Y-88410342D01*
X116354567Y-88275000D01*
X116335108Y-88139658D01*
X116332685Y-88134353D01*
X116328413Y-88124999D01*
X134819610Y-88124999D01*
X134839068Y-88260342D01*
X134895869Y-88384717D01*
X134985412Y-88488056D01*
X135095349Y-88558707D01*
X135100439Y-88561978D01*
X135231633Y-88600500D01*
X135368367Y-88600500D01*
X135499561Y-88561978D01*
X135614589Y-88488055D01*
X135704130Y-88384718D01*
X135760931Y-88260342D01*
X135780390Y-88125000D01*
X135760931Y-87989658D01*
X135759032Y-87985500D01*
X135704130Y-87865282D01*
X135614587Y-87761943D01*
X135499562Y-87688022D01*
X135368367Y-87649500D01*
X135231633Y-87649500D01*
X135100437Y-87688022D01*
X134985412Y-87761943D01*
X134895869Y-87865282D01*
X134839068Y-87989657D01*
X134819610Y-88124999D01*
X116328413Y-88124999D01*
X116278307Y-88015282D01*
X116188764Y-87911943D01*
X116073739Y-87838022D01*
X115954748Y-87803083D01*
X115902002Y-87771787D01*
X115851326Y-87721111D01*
X115835199Y-87701253D01*
X115829260Y-87692162D01*
X115804287Y-87672725D01*
X115792770Y-87662554D01*
X115792696Y-87662480D01*
X115775771Y-87650397D01*
X115771657Y-87647330D01*
X115769103Y-87645342D01*
X115730366Y-87615191D01*
X115730363Y-87615190D01*
X115724140Y-87610346D01*
X115723938Y-87610242D01*
X115716377Y-87607990D01*
X115716376Y-87607990D01*
X115666213Y-87593055D01*
X115661351Y-87591497D01*
X115649957Y-87587586D01*
X115604379Y-87571939D01*
X115604146Y-87571906D01*
X115559087Y-87573769D01*
X115543983Y-87574394D01*
X115538861Y-87574500D01*
X113446654Y-87574500D01*
X113395142Y-87563294D01*
X113352941Y-87531702D01*
X113334136Y-87510000D01*
X137039610Y-87510000D01*
X137059068Y-87645342D01*
X137115869Y-87769717D01*
X137205412Y-87873056D01*
X137320437Y-87946977D01*
X137320439Y-87946978D01*
X137451633Y-87985500D01*
X137588367Y-87985500D01*
X137719561Y-87946978D01*
X137834589Y-87873055D01*
X137924130Y-87769718D01*
X137980931Y-87645342D01*
X138000390Y-87510000D01*
X137980931Y-87374658D01*
X137924130Y-87250282D01*
X137834589Y-87146945D01*
X137834588Y-87146944D01*
X137834587Y-87146943D01*
X137719562Y-87073022D01*
X137588367Y-87034500D01*
X137451633Y-87034500D01*
X137320437Y-87073022D01*
X137205412Y-87146943D01*
X137115869Y-87250282D01*
X137059068Y-87374657D01*
X137039610Y-87510000D01*
X113334136Y-87510000D01*
X113314589Y-87487441D01*
X113199562Y-87413519D01*
X113068367Y-87374997D01*
X112931633Y-87374997D01*
X112800437Y-87413519D01*
X112685412Y-87487440D01*
X112595869Y-87590779D01*
X112539068Y-87715154D01*
X112519610Y-87850497D01*
X112539068Y-87985839D01*
X112602045Y-88123736D01*
X112613251Y-88175248D01*
X112602045Y-88226760D01*
X112539068Y-88364657D01*
X112524333Y-88467148D01*
X112519610Y-88500000D01*
X112531893Y-88585434D01*
X112538640Y-88632356D01*
X112528696Y-88701515D01*
X112482941Y-88754318D01*
X112415902Y-88774003D01*
X112316402Y-88774003D01*
X112268949Y-88764564D01*
X112228721Y-88737684D01*
X110241037Y-86749999D01*
X142999610Y-86749999D01*
X143019068Y-86885342D01*
X143075869Y-87009717D01*
X143165412Y-87113056D01*
X143280437Y-87186977D01*
X143280439Y-87186978D01*
X143411633Y-87225500D01*
X143548367Y-87225500D01*
X143679561Y-87186978D01*
X143794589Y-87113055D01*
X143884130Y-87009718D01*
X143940931Y-86885342D01*
X143958952Y-86759999D01*
X147999610Y-86759999D01*
X148019068Y-86895342D01*
X148075869Y-87019717D01*
X148165412Y-87123056D01*
X148280437Y-87196977D01*
X148280439Y-87196978D01*
X148411633Y-87235500D01*
X148548367Y-87235500D01*
X148679561Y-87196978D01*
X148794589Y-87123055D01*
X148884130Y-87019718D01*
X148940931Y-86895342D01*
X148960390Y-86760000D01*
X148940931Y-86624658D01*
X148936364Y-86614658D01*
X148884130Y-86500282D01*
X148864222Y-86477307D01*
X148794589Y-86396945D01*
X148794588Y-86396944D01*
X148794587Y-86396943D01*
X148679562Y-86323022D01*
X148548367Y-86284500D01*
X148411633Y-86284500D01*
X148280437Y-86323022D01*
X148165412Y-86396943D01*
X148075869Y-86500282D01*
X148019068Y-86624657D01*
X147999610Y-86759999D01*
X143958952Y-86759999D01*
X143960390Y-86750000D01*
X143940931Y-86614658D01*
X143936271Y-86604455D01*
X143884130Y-86490282D01*
X143877350Y-86482457D01*
X143794589Y-86386945D01*
X143794588Y-86386944D01*
X143794587Y-86386943D01*
X143679562Y-86313022D01*
X143548367Y-86274500D01*
X143411633Y-86274500D01*
X143280437Y-86313022D01*
X143165412Y-86386943D01*
X143075869Y-86490282D01*
X143019068Y-86614657D01*
X142999610Y-86749999D01*
X110241037Y-86749999D01*
X110221068Y-86730030D01*
X110197864Y-86697852D01*
X110186011Y-86659994D01*
X110180931Y-86624657D01*
X110124130Y-86500282D01*
X110104222Y-86477307D01*
X110034589Y-86396945D01*
X110034588Y-86396944D01*
X110034587Y-86396943D01*
X109919562Y-86323022D01*
X109788367Y-86284500D01*
X109651633Y-86284500D01*
X109520437Y-86323022D01*
X109405412Y-86396943D01*
X109315869Y-86500282D01*
X109259068Y-86624657D01*
X109239610Y-86760000D01*
X109259068Y-86895342D01*
X109315869Y-87019717D01*
X109405412Y-87123056D01*
X109520437Y-87196977D01*
X109520439Y-87196978D01*
X109639430Y-87231917D01*
X109692175Y-87263212D01*
X109766782Y-87337819D01*
X109797032Y-87387182D01*
X109801574Y-87444898D01*
X109779419Y-87498385D01*
X109735396Y-87535985D01*
X109679101Y-87549500D01*
X108424500Y-87549500D01*
X108362500Y-87532887D01*
X108317113Y-87487500D01*
X108300500Y-87425500D01*
X108300500Y-86000000D01*
X113769610Y-86000000D01*
X113789068Y-86135342D01*
X113845869Y-86259717D01*
X113879565Y-86298605D01*
X113928035Y-86354543D01*
X113935412Y-86363056D01*
X114045092Y-86433542D01*
X114050439Y-86436978D01*
X114181633Y-86475500D01*
X114318367Y-86475500D01*
X114449561Y-86436978D01*
X114564589Y-86363055D01*
X114654130Y-86259718D01*
X114710931Y-86135342D01*
X114730390Y-86000000D01*
X114710931Y-85864658D01*
X114706271Y-85854455D01*
X114654130Y-85740282D01*
X114597997Y-85675500D01*
X114564589Y-85636945D01*
X114564588Y-85636944D01*
X114564587Y-85636943D01*
X114449562Y-85563022D01*
X114318367Y-85524500D01*
X114181633Y-85524500D01*
X114050437Y-85563022D01*
X113935412Y-85636943D01*
X113845869Y-85740282D01*
X113789068Y-85864657D01*
X113769610Y-86000000D01*
X108300500Y-86000000D01*
X108300500Y-83064201D01*
X108285165Y-82957542D01*
X108225377Y-82826627D01*
X108198912Y-82796085D01*
X108169476Y-82762113D01*
X108142685Y-82710146D01*
X108142685Y-82651678D01*
X108169475Y-82599711D01*
X108204130Y-82559718D01*
X108260931Y-82435342D01*
X108280390Y-82300000D01*
X108260931Y-82164658D01*
X108251123Y-82143182D01*
X108204130Y-82040282D01*
X108114587Y-81936943D01*
X107999562Y-81863022D01*
X107868367Y-81824500D01*
X107731633Y-81824500D01*
X107600437Y-81863022D01*
X107485412Y-81936943D01*
X107395869Y-82040282D01*
X107339068Y-82164657D01*
X107319610Y-82300000D01*
X107339068Y-82435342D01*
X107395869Y-82559717D01*
X107430523Y-82599710D01*
X107457314Y-82651678D01*
X107457314Y-82710146D01*
X107430523Y-82762114D01*
X107374622Y-82826627D01*
X107314834Y-82957542D01*
X107299500Y-83064201D01*
X107299500Y-87935799D01*
X105992601Y-87935799D01*
X105944481Y-87906537D01*
X105901382Y-87880328D01*
X105755665Y-87839500D01*
X105642342Y-87839500D01*
X105530079Y-87854930D01*
X105391280Y-87915219D01*
X105273892Y-88010721D01*
X105186621Y-88134354D01*
X105135946Y-88276942D01*
X105125618Y-88427922D01*
X105156407Y-88576083D01*
X105156407Y-88576084D01*
X105156408Y-88576085D01*
X105226029Y-88710447D01*
X105329320Y-88821044D01*
X105329321Y-88821045D01*
X105352832Y-88835342D01*
X105445699Y-88891816D01*
X105473180Y-88908527D01*
X105472812Y-88909131D01*
X105513624Y-88934033D01*
X105544302Y-88993906D01*
X105539200Y-89060987D01*
X105499820Y-89115531D01*
X105463727Y-89130622D01*
X105465206Y-89134521D01*
X105292069Y-89200182D01*
X105152072Y-89296815D01*
X105039265Y-89424149D01*
X104960209Y-89574775D01*
X104931263Y-89692218D01*
X104920103Y-89737500D01*
X104919500Y-89739945D01*
X104919500Y-89910055D01*
X103100500Y-89910055D01*
X103100500Y-89739944D01*
X103059790Y-89574775D01*
X102980734Y-89424148D01*
X102867929Y-89296817D01*
X102867928Y-89296816D01*
X102867927Y-89296815D01*
X102727930Y-89200182D01*
X102568872Y-89139860D01*
X102545137Y-89136978D01*
X102442372Y-89124500D01*
X101557628Y-89124500D01*
X101507209Y-89130622D01*
X101431127Y-89139860D01*
X101272069Y-89200182D01*
X101132072Y-89296815D01*
X101019265Y-89424149D01*
X100940209Y-89574775D01*
X100911263Y-89692218D01*
X100900103Y-89737500D01*
X100899500Y-89739945D01*
X100899500Y-89910055D01*
X100000500Y-89910055D01*
X100000500Y-81260055D01*
X100899500Y-81260055D01*
X100940209Y-81425224D01*
X100990235Y-81520538D01*
X101019266Y-81575852D01*
X101132071Y-81703183D01*
X101272070Y-81799818D01*
X101431128Y-81860140D01*
X101557628Y-81875500D01*
X102442371Y-81875500D01*
X102442372Y-81875500D01*
X102568872Y-81860140D01*
X102727930Y-81799818D01*
X102867929Y-81703183D01*
X102980734Y-81575852D01*
X103059790Y-81425225D01*
X103100500Y-81260056D01*
X103100500Y-81260055D01*
X104919500Y-81260055D01*
X104960209Y-81425224D01*
X105010235Y-81520538D01*
X105039266Y-81575852D01*
X105152071Y-81703183D01*
X105292070Y-81799818D01*
X105451128Y-81860140D01*
X105465206Y-81865479D01*
X105464652Y-81866939D01*
X105505652Y-81883406D01*
X105545241Y-81933718D01*
X105554459Y-81997070D01*
X105530849Y-82056577D01*
X105480704Y-82096377D01*
X105391279Y-82135220D01*
X105273892Y-82230721D01*
X105186621Y-82354354D01*
X105135946Y-82496942D01*
X105125618Y-82647922D01*
X105156407Y-82796083D01*
X105156407Y-82796084D01*
X105156408Y-82796085D01*
X105226029Y-82930447D01*
X105280974Y-82989278D01*
X105329321Y-83041045D01*
X105367400Y-83064201D01*
X105458618Y-83119672D01*
X105604335Y-83160500D01*
X105717658Y-83160500D01*
X105829920Y-83145070D01*
X105968720Y-83084780D01*
X106086108Y-82989278D01*
X106173377Y-82865647D01*
X106224054Y-82723056D01*
X106234381Y-82572079D01*
X106231812Y-82559718D01*
X106213854Y-82473302D01*
X106203592Y-82423915D01*
X106133971Y-82289553D01*
X106030680Y-82178956D01*
X106030679Y-82178955D01*
X106030678Y-82178954D01*
X105909801Y-82105448D01*
X105865731Y-82059535D01*
X105850241Y-81997807D01*
X105867411Y-81936525D01*
X105912718Y-81891832D01*
X105974229Y-81875500D01*
X106762371Y-81875500D01*
X106762372Y-81875500D01*
X106888872Y-81860140D01*
X107047930Y-81799818D01*
X107187929Y-81703183D01*
X107300734Y-81575852D01*
X107379790Y-81425225D01*
X107399447Y-81345472D01*
X110840506Y-81345472D01*
X110840507Y-81520541D01*
X110850261Y-81575852D01*
X110870910Y-81692950D01*
X110930790Y-81857460D01*
X111018328Y-82009072D01*
X111060674Y-82059535D01*
X111130865Y-82143182D01*
X111264947Y-82255681D01*
X111264977Y-82255706D01*
X111324915Y-82290308D01*
X111324919Y-82290312D01*
X113785348Y-83710841D01*
X118224856Y-86273992D01*
X118225049Y-86274160D01*
X118268964Y-86299511D01*
X118268964Y-86299512D01*
X118344773Y-86343276D01*
X118509285Y-86403147D01*
X118681695Y-86433542D01*
X118856763Y-86433537D01*
X119029170Y-86403132D01*
X119193679Y-86343252D01*
X119345291Y-86255715D01*
X119479400Y-86143181D01*
X119591930Y-86009070D01*
X119623277Y-85954773D01*
X119635646Y-85933349D01*
X119635647Y-85933349D01*
X120113607Y-85105495D01*
X120113622Y-85105477D01*
X120135700Y-85067237D01*
X120179463Y-84991433D01*
X120239334Y-84826925D01*
X120269730Y-84654521D01*
X120269728Y-84479457D01*
X120239328Y-84307053D01*
X120179453Y-84142547D01*
X120091922Y-83990937D01*
X119979398Y-83856831D01*
X119979394Y-83856826D01*
X119845292Y-83744297D01*
X119770020Y-83700837D01*
X119769794Y-83700706D01*
X119769527Y-83700551D01*
X119769214Y-83700371D01*
X119769054Y-83700279D01*
X119768571Y-83700000D01*
X147319610Y-83700000D01*
X147339068Y-83835342D01*
X147395869Y-83959717D01*
X147485412Y-84063056D01*
X147491926Y-84067242D01*
X147600439Y-84136978D01*
X147731633Y-84175500D01*
X147868367Y-84175500D01*
X147999561Y-84136978D01*
X148114589Y-84063055D01*
X148204130Y-83959718D01*
X148260931Y-83835342D01*
X148271949Y-83758707D01*
X148283802Y-83720852D01*
X148307002Y-83688678D01*
X151033862Y-80961819D01*
X151074091Y-80934939D01*
X151111694Y-80927459D01*
X151118366Y-80925500D01*
X151118367Y-80925500D01*
X151249561Y-80886978D01*
X151364589Y-80813055D01*
X151454130Y-80709718D01*
X151510931Y-80585342D01*
X151530390Y-80450000D01*
X151510931Y-80314658D01*
X151510930Y-80314656D01*
X151454130Y-80190282D01*
X151364587Y-80086943D01*
X151249562Y-80013022D01*
X151118367Y-79974500D01*
X150981633Y-79974500D01*
X150850437Y-80013022D01*
X150735412Y-80086943D01*
X150645869Y-80190282D01*
X150589069Y-80314656D01*
X150578050Y-80391291D01*
X150566195Y-80429148D01*
X150542993Y-80461323D01*
X147816137Y-83188181D01*
X147775909Y-83215061D01*
X147738305Y-83222540D01*
X147600437Y-83263022D01*
X147485412Y-83336943D01*
X147395869Y-83440282D01*
X147339068Y-83564657D01*
X147319610Y-83700000D01*
X119768571Y-83700000D01*
X118667335Y-83064201D01*
X112841199Y-79700479D01*
X112841198Y-79700478D01*
X112820232Y-79688374D01*
X112819975Y-79688286D01*
X112818845Y-79687633D01*
X112765456Y-79656808D01*
X112683205Y-79626868D01*
X112600954Y-79596929D01*
X112428554Y-79566526D01*
X112253497Y-79566522D01*
X112253496Y-79566522D01*
X112210395Y-79574120D01*
X112081092Y-79596917D01*
X111916590Y-79656785D01*
X111764981Y-79744311D01*
X111630872Y-79856836D01*
X111518345Y-79990933D01*
X111486350Y-80046345D01*
X111474627Y-80066650D01*
X111474626Y-80066652D01*
X111403248Y-80190282D01*
X111000351Y-80888115D01*
X111000262Y-80888216D01*
X110930783Y-81008553D01*
X110870905Y-81173065D01*
X110840506Y-81345472D01*
X107399447Y-81345472D01*
X107420500Y-81260056D01*
X107420500Y-81089944D01*
X107379790Y-80924775D01*
X107300734Y-80774148D01*
X107187929Y-80646817D01*
X107187928Y-80646816D01*
X107187927Y-80646815D01*
X107047930Y-80550182D01*
X106888872Y-80489860D01*
X106762372Y-80474500D01*
X105577628Y-80474500D01*
X105514377Y-80482180D01*
X105451127Y-80489860D01*
X105292069Y-80550182D01*
X105152072Y-80646815D01*
X105039265Y-80774149D01*
X104960209Y-80924775D01*
X104919500Y-81089945D01*
X104919500Y-81260055D01*
X103100500Y-81260055D01*
X103100500Y-81089944D01*
X103059790Y-80924775D01*
X102980734Y-80774148D01*
X102867929Y-80646817D01*
X102867928Y-80646816D01*
X102867927Y-80646815D01*
X102727930Y-80550182D01*
X102568872Y-80489860D01*
X102442372Y-80474500D01*
X101557628Y-80474500D01*
X101494377Y-80482180D01*
X101431127Y-80489860D01*
X101272069Y-80550182D01*
X101132072Y-80646815D01*
X101019265Y-80774149D01*
X100940209Y-80924775D01*
X100899500Y-81089945D01*
X100899500Y-81260055D01*
X100000500Y-81260055D01*
X100000500Y-78725500D01*
X143269610Y-78725500D01*
X143289068Y-78860842D01*
X143345869Y-78985217D01*
X143435412Y-79088556D01*
X143550437Y-79162477D01*
X143550439Y-79162478D01*
X143681633Y-79201000D01*
X143688305Y-79202959D01*
X143725909Y-79210439D01*
X143766137Y-79237319D01*
X144734766Y-80205948D01*
X144757969Y-80238125D01*
X144769823Y-80275982D01*
X144789068Y-80409842D01*
X144845869Y-80534217D01*
X144935412Y-80637556D01*
X145047700Y-80709718D01*
X145050439Y-80711478D01*
X145181633Y-80750000D01*
X145318367Y-80750000D01*
X145449561Y-80711478D01*
X145564589Y-80637555D01*
X145654130Y-80534218D01*
X145710931Y-80409842D01*
X145730390Y-80274500D01*
X145710931Y-80139158D01*
X145698289Y-80111477D01*
X145654130Y-80014782D01*
X145564587Y-79911443D01*
X145449562Y-79837522D01*
X145349885Y-79808254D01*
X145297140Y-79776958D01*
X144257005Y-78736823D01*
X144233802Y-78704646D01*
X144221948Y-78666788D01*
X144210931Y-78590157D01*
X144154130Y-78465782D01*
X144064587Y-78362443D01*
X143949562Y-78288522D01*
X143818367Y-78250000D01*
X143681633Y-78250000D01*
X143550437Y-78288522D01*
X143435412Y-78362443D01*
X143345869Y-78465782D01*
X143289068Y-78590157D01*
X143269610Y-78725500D01*
X100000500Y-78725500D01*
X100000500Y-73247470D01*
X104270796Y-73247470D01*
X104300246Y-73414490D01*
X104367421Y-73570219D01*
X104468698Y-73706258D01*
X104598614Y-73815271D01*
X104598615Y-73815271D01*
X104598617Y-73815273D01*
X104750175Y-73891388D01*
X104915201Y-73930500D01*
X105042253Y-73930500D01*
X105042256Y-73930500D01*
X105168451Y-73915750D01*
X105327820Y-73857744D01*
X105469517Y-73764549D01*
X105585902Y-73641188D01*
X105670701Y-73494312D01*
X105719342Y-73331839D01*
X105729203Y-73162529D01*
X105699753Y-72995508D01*
X105632579Y-72839781D01*
X105531302Y-72703742D01*
X105515433Y-72690426D01*
X105401385Y-72594728D01*
X105249825Y-72518612D01*
X105187328Y-72503800D01*
X105084799Y-72479500D01*
X104957744Y-72479500D01*
X104863097Y-72490562D01*
X104831548Y-72494250D01*
X104672177Y-72552257D01*
X104530483Y-72645450D01*
X104414098Y-72768811D01*
X104329299Y-72915686D01*
X104280657Y-73078163D01*
X104270796Y-73247470D01*
X100000500Y-73247470D01*
X100000500Y-71299238D01*
X119190535Y-71299238D01*
X119220937Y-71471645D01*
X119280818Y-71636154D01*
X119368352Y-71787758D01*
X119368354Y-71787760D01*
X119368355Y-71787762D01*
X119419336Y-71848514D01*
X119424083Y-71854172D01*
X119424556Y-71854735D01*
X119424557Y-71854738D01*
X122598921Y-75637797D01*
X124533833Y-77943737D01*
X124533991Y-77944023D01*
X124623139Y-78050267D01*
X124757255Y-78162801D01*
X124831563Y-78205701D01*
X124908872Y-78250334D01*
X125073387Y-78310208D01*
X125245800Y-78340604D01*
X125420867Y-78340598D01*
X125420873Y-78340598D01*
X125593278Y-78310191D01*
X125593278Y-78310190D01*
X125593283Y-78310190D01*
X125757794Y-78250303D01*
X125909405Y-78162759D01*
X125959626Y-78120612D01*
X125959634Y-78120607D01*
X126302169Y-77833183D01*
X126703420Y-77496492D01*
X126703596Y-77496395D01*
X126742526Y-77463727D01*
X126742527Y-77463728D01*
X126809581Y-77407461D01*
X126922111Y-77273350D01*
X126922122Y-77273332D01*
X126966176Y-77197024D01*
X127009643Y-77121735D01*
X127069517Y-76957223D01*
X127099914Y-76784814D01*
X127099914Y-76784811D01*
X162900123Y-76784811D01*
X162930519Y-76957214D01*
X162930520Y-76957218D01*
X162930522Y-76957223D01*
X162990391Y-77121719D01*
X163077919Y-77273329D01*
X163077921Y-77273332D01*
X163190445Y-77407435D01*
X163257497Y-77463700D01*
X163257880Y-77464021D01*
X164022624Y-78105719D01*
X164042410Y-78122321D01*
X164042693Y-78122476D01*
X164090632Y-78162706D01*
X164242234Y-78250245D01*
X164406734Y-78310128D01*
X164406736Y-78310128D01*
X164406738Y-78310129D01*
X164579132Y-78340534D01*
X164579143Y-78340534D01*
X164754194Y-78340540D01*
X164926596Y-78310146D01*
X165008848Y-78280210D01*
X165091099Y-78250277D01*
X165091101Y-78250276D01*
X165242709Y-78162748D01*
X165376814Y-78050222D01*
X165433078Y-77983170D01*
X165433308Y-77982896D01*
X170575442Y-71854739D01*
X170575442Y-71854737D01*
X170586125Y-71842006D01*
X170586132Y-71841995D01*
X170590620Y-71836647D01*
X170631644Y-71787761D01*
X170719182Y-71636152D01*
X170779061Y-71471644D01*
X170809464Y-71299238D01*
X170809464Y-71124172D01*
X170779064Y-70951765D01*
X170719186Y-70787257D01*
X170631650Y-70635647D01*
X170519116Y-70501541D01*
X170519113Y-70501537D01*
X170452247Y-70445434D01*
X170452044Y-70445265D01*
X170451716Y-70444990D01*
X170451677Y-70444957D01*
X169667190Y-69786692D01*
X169667152Y-69786671D01*
X169618957Y-69746228D01*
X169467349Y-69658695D01*
X169302844Y-69598818D01*
X169130437Y-69568416D01*
X168955372Y-69568416D01*
X168782970Y-69598814D01*
X168618458Y-69658692D01*
X168466850Y-69746223D01*
X168332752Y-69858747D01*
X168332744Y-69858754D01*
X168276544Y-69925731D01*
X168276543Y-69925732D01*
X164916144Y-73930500D01*
X163118605Y-76072723D01*
X163118513Y-76072890D01*
X163077943Y-76121236D01*
X162990409Y-76272843D01*
X162930528Y-76437348D01*
X162900125Y-76609750D01*
X162900123Y-76784808D01*
X162900123Y-76784811D01*
X127099914Y-76784811D01*
X127099910Y-76609746D01*
X127069506Y-76437338D01*
X127009626Y-76272829D01*
X126922088Y-76121218D01*
X126865821Y-76054164D01*
X126865499Y-76053781D01*
X121756617Y-69965253D01*
X121756598Y-69965217D01*
X121667260Y-69858747D01*
X121533153Y-69746216D01*
X121381542Y-69658684D01*
X121217034Y-69598808D01*
X121044626Y-69568408D01*
X120869561Y-69568408D01*
X120697152Y-69598811D01*
X120532648Y-69658687D01*
X120381036Y-69746224D01*
X120293001Y-69820095D01*
X120292999Y-69820097D01*
X119564692Y-70431221D01*
X119564691Y-70431220D01*
X119564687Y-70431225D01*
X119480882Y-70501540D01*
X119368350Y-70635643D01*
X119280811Y-70787258D01*
X119220935Y-70951763D01*
X119190535Y-71124171D01*
X119190535Y-71299238D01*
X100000500Y-71299238D01*
X100000500Y-66647470D01*
X104270796Y-66647470D01*
X104300246Y-66814490D01*
X104367421Y-66970219D01*
X104468698Y-67106258D01*
X104598614Y-67215271D01*
X104598615Y-67215271D01*
X104598617Y-67215273D01*
X104750175Y-67291388D01*
X104915201Y-67330500D01*
X105042253Y-67330500D01*
X105042256Y-67330500D01*
X105168451Y-67315750D01*
X105327820Y-67257744D01*
X105469517Y-67164549D01*
X105585902Y-67041188D01*
X105670701Y-66894312D01*
X105719342Y-66731839D01*
X105727021Y-66600000D01*
X114794610Y-66600000D01*
X114814068Y-66735342D01*
X114870869Y-66859717D01*
X114960412Y-66963056D01*
X115075437Y-67036977D01*
X115075439Y-67036978D01*
X115206633Y-67075500D01*
X115343367Y-67075500D01*
X115474561Y-67036978D01*
X115589589Y-66963055D01*
X115679130Y-66859718D01*
X115735931Y-66735342D01*
X115755390Y-66600000D01*
X117094610Y-66600000D01*
X117114068Y-66735342D01*
X117170869Y-66859717D01*
X117260412Y-66963056D01*
X117375437Y-67036977D01*
X117375439Y-67036978D01*
X117506633Y-67075500D01*
X117643367Y-67075500D01*
X117774561Y-67036978D01*
X117889589Y-66963055D01*
X117979130Y-66859718D01*
X118035931Y-66735342D01*
X118055390Y-66600000D01*
X118035931Y-66464658D01*
X118004351Y-66395509D01*
X117979130Y-66340282D01*
X117892046Y-66239781D01*
X117889589Y-66236945D01*
X117889588Y-66236944D01*
X117889587Y-66236943D01*
X117774562Y-66163022D01*
X117643367Y-66124500D01*
X117506633Y-66124500D01*
X117375437Y-66163022D01*
X117260412Y-66236943D01*
X117170869Y-66340282D01*
X117114068Y-66464657D01*
X117094610Y-66600000D01*
X115755390Y-66600000D01*
X115735931Y-66464658D01*
X115704351Y-66395509D01*
X115679130Y-66340282D01*
X115592046Y-66239781D01*
X115589589Y-66236945D01*
X115589588Y-66236944D01*
X115589587Y-66236943D01*
X115474562Y-66163022D01*
X115343367Y-66124500D01*
X115206633Y-66124500D01*
X115075437Y-66163022D01*
X114960412Y-66236943D01*
X114870869Y-66340282D01*
X114814068Y-66464657D01*
X114794610Y-66600000D01*
X105727021Y-66600000D01*
X105729203Y-66562529D01*
X105699753Y-66395508D01*
X105632579Y-66239781D01*
X105531302Y-66103742D01*
X105461834Y-66045451D01*
X105401385Y-65994728D01*
X105249825Y-65918612D01*
X105249824Y-65918611D01*
X105084799Y-65879500D01*
X104957744Y-65879500D01*
X104863097Y-65890562D01*
X104831548Y-65894250D01*
X104672177Y-65952257D01*
X104530483Y-66045450D01*
X104414098Y-66168811D01*
X104329299Y-66315686D01*
X104280657Y-66478163D01*
X104270796Y-66647470D01*
X100000500Y-66647470D01*
X100000500Y-63299999D01*
X117094610Y-63299999D01*
X117114068Y-63435342D01*
X117170869Y-63559717D01*
X117260412Y-63663056D01*
X117313284Y-63697034D01*
X117375439Y-63736978D01*
X117506633Y-63775500D01*
X117643367Y-63775500D01*
X117774561Y-63736978D01*
X117878496Y-63670183D01*
X117945534Y-63650500D01*
X119578456Y-63650500D01*
X119625909Y-63659939D01*
X119666137Y-63686819D01*
X123167993Y-67188674D01*
X123191195Y-67220850D01*
X123203050Y-67258706D01*
X123210823Y-67312771D01*
X123204268Y-67373750D01*
X123169289Y-67424130D01*
X123114445Y-67451584D01*
X123053151Y-67449395D01*
X122968367Y-67424500D01*
X122831633Y-67424500D01*
X122700437Y-67463022D01*
X122585412Y-67536943D01*
X122495869Y-67640282D01*
X122439068Y-67764657D01*
X122419610Y-67899999D01*
X122439068Y-68035342D01*
X122495869Y-68159717D01*
X122585412Y-68263056D01*
X122700437Y-68336977D01*
X122700439Y-68336978D01*
X122831633Y-68375500D01*
X122968367Y-68375500D01*
X123099561Y-68336978D01*
X123214589Y-68263055D01*
X123304130Y-68159718D01*
X123360931Y-68035342D01*
X123380390Y-67900000D01*
X123364176Y-67787228D01*
X123370732Y-67726248D01*
X123405711Y-67675869D01*
X123460556Y-67648416D01*
X123521848Y-67650604D01*
X123606633Y-67675500D01*
X123743367Y-67675500D01*
X123874561Y-67636978D01*
X123978496Y-67570183D01*
X124045534Y-67550500D01*
X127074578Y-67550500D01*
X127126090Y-67561706D01*
X127168292Y-67593298D01*
X127185412Y-67613056D01*
X127300437Y-67686977D01*
X127300439Y-67686978D01*
X127431633Y-67725500D01*
X127568367Y-67725500D01*
X127699561Y-67686978D01*
X127814589Y-67613055D01*
X127904130Y-67509718D01*
X127960931Y-67385342D01*
X127980390Y-67250000D01*
X127960931Y-67114658D01*
X127925455Y-67036978D01*
X127904130Y-66990282D01*
X127814589Y-66886945D01*
X127814588Y-66886944D01*
X127814587Y-66886943D01*
X127699562Y-66813022D01*
X127568367Y-66774500D01*
X127431633Y-66774500D01*
X127300437Y-66813022D01*
X127274306Y-66829816D01*
X127207268Y-66849500D01*
X124045534Y-66849500D01*
X123978496Y-66829816D01*
X123914024Y-66788383D01*
X123874560Y-66763021D01*
X123736694Y-66722540D01*
X123699091Y-66715061D01*
X123658863Y-66688181D01*
X121520905Y-64550223D01*
X130532891Y-64550223D01*
X130548059Y-64636252D01*
X130563288Y-64722630D01*
X130593225Y-64804881D01*
X130593388Y-64805330D01*
X130593396Y-64805352D01*
X133311840Y-72274216D01*
X133311906Y-72274640D01*
X133329310Y-72322449D01*
X133329310Y-72322450D01*
X133359253Y-72404705D01*
X133446795Y-72556318D01*
X133521592Y-72645450D01*
X133559284Y-72690366D01*
X133559335Y-72690426D01*
X133693452Y-72802954D01*
X133845073Y-72890484D01*
X134009589Y-72950355D01*
X134182002Y-72980749D01*
X134357063Y-72980743D01*
X134357075Y-72980743D01*
X134426037Y-72968580D01*
X134529484Y-72950336D01*
X134587637Y-72929166D01*
X134587643Y-72929166D01*
X134587643Y-72929165D01*
X134611651Y-72920427D01*
X135028212Y-72768811D01*
X135504229Y-72595555D01*
X135504289Y-72595545D01*
X135551436Y-72578383D01*
X135551437Y-72578384D01*
X135633689Y-72548444D01*
X135785297Y-72460907D01*
X135919402Y-72348375D01*
X136031929Y-72214266D01*
X136119460Y-72062655D01*
X136179335Y-71898148D01*
X136209735Y-71725744D01*
X136209737Y-71550682D01*
X153790274Y-71550682D01*
X153790275Y-71725743D01*
X153820676Y-71898146D01*
X153880549Y-72062649D01*
X153968080Y-72214260D01*
X154080604Y-72348366D01*
X154093408Y-72359110D01*
X154214709Y-72460898D01*
X154214710Y-72460899D01*
X154214712Y-72460900D01*
X154366311Y-72548432D01*
X154366312Y-72548432D01*
X154366315Y-72548434D01*
X154448567Y-72578374D01*
X154449037Y-72578545D01*
X154971791Y-72768812D01*
X155385747Y-72919480D01*
X155387789Y-72920223D01*
X155388624Y-72920527D01*
X155388795Y-72920589D01*
X155411345Y-72928834D01*
X155411930Y-72928922D01*
X155470537Y-72950256D01*
X155551153Y-72964474D01*
X155642932Y-72980661D01*
X155642945Y-72980661D01*
X155817991Y-72980668D01*
X155945452Y-72958198D01*
X155990392Y-72950276D01*
X156154687Y-72890484D01*
X156154893Y-72890409D01*
X156306501Y-72802887D01*
X156440607Y-72690368D01*
X156553138Y-72556271D01*
X156640673Y-72404671D01*
X156657243Y-72359149D01*
X156657265Y-72359110D01*
X156674004Y-72313104D01*
X156674009Y-72313090D01*
X156795222Y-71980060D01*
X159383338Y-64869270D01*
X159383359Y-64869239D01*
X159393165Y-64842287D01*
X159393171Y-64842270D01*
X159406778Y-64804882D01*
X159406779Y-64804883D01*
X159436716Y-64722629D01*
X159467114Y-64550223D01*
X159467113Y-64375159D01*
X159436712Y-64202754D01*
X159376835Y-64038247D01*
X159324825Y-63948163D01*
X159289303Y-63886636D01*
X159176776Y-63752533D01*
X159176773Y-63752529D01*
X159176772Y-63752528D01*
X159042666Y-63639998D01*
X158946548Y-63584505D01*
X158891056Y-63552466D01*
X158869522Y-63544628D01*
X158845514Y-63535889D01*
X158845329Y-63535787D01*
X158808334Y-63522356D01*
X158808332Y-63522356D01*
X158191916Y-63297999D01*
X157967313Y-63216250D01*
X157967009Y-63216050D01*
X157869099Y-63180503D01*
X157860691Y-63177487D01*
X157860147Y-63177290D01*
X157786845Y-63150609D01*
X157614444Y-63120208D01*
X157439389Y-63120206D01*
X157439382Y-63120206D01*
X157439380Y-63120206D01*
X157266985Y-63150601D01*
X157102477Y-63210474D01*
X156950868Y-63297999D01*
X156816762Y-63410523D01*
X156704228Y-63544628D01*
X156616695Y-63696228D01*
X156586913Y-63778046D01*
X156586791Y-63778384D01*
X156586790Y-63778386D01*
X156586756Y-63778479D01*
X156586637Y-63778807D01*
X156586611Y-63778879D01*
X156586637Y-63778806D01*
X153842311Y-71318779D01*
X153842302Y-71318837D01*
X153820672Y-71378272D01*
X153820670Y-71378277D01*
X153790275Y-71550679D01*
X153790274Y-71550682D01*
X136209737Y-71550682D01*
X136209737Y-71550679D01*
X136179341Y-71378274D01*
X136149405Y-71296020D01*
X136149233Y-71295550D01*
X135709551Y-70087533D01*
X143499500Y-70087533D01*
X143514668Y-70173561D01*
X143529899Y-70259938D01*
X143559712Y-70341849D01*
X143589776Y-70424447D01*
X143673371Y-70569237D01*
X143677308Y-70576055D01*
X143789837Y-70710163D01*
X143923945Y-70822692D01*
X144075555Y-70910225D01*
X144240062Y-70970101D01*
X144320676Y-70984315D01*
X144412467Y-71000500D01*
X144412468Y-71000500D01*
X144499901Y-71000500D01*
X144500000Y-71000500D01*
X144500500Y-71000500D01*
X145499500Y-71000500D01*
X145500099Y-71000500D01*
X145587532Y-71000500D01*
X145587533Y-71000500D01*
X145630633Y-70992900D01*
X145759938Y-70970101D01*
X145924445Y-70910225D01*
X146076055Y-70822692D01*
X146210163Y-70710163D01*
X146322692Y-70576055D01*
X146410225Y-70424445D01*
X146470101Y-70259938D01*
X146500500Y-70087532D01*
X146500500Y-70000000D01*
X146500500Y-69999500D01*
X146500500Y-61999901D01*
X146500500Y-61912468D01*
X146470101Y-61740062D01*
X146410225Y-61575555D01*
X146322692Y-61423945D01*
X146210163Y-61289837D01*
X146076055Y-61177308D01*
X146076054Y-61177307D01*
X145924447Y-61089776D01*
X145924446Y-61089775D01*
X145924445Y-61089775D01*
X145759938Y-61029899D01*
X145759937Y-61029898D01*
X145759935Y-61029898D01*
X145587533Y-60999500D01*
X145587532Y-60999500D01*
X145500099Y-60999500D01*
X144500500Y-60999500D01*
X144500000Y-60999500D01*
X144412468Y-60999500D01*
X144412467Y-60999500D01*
X144240064Y-61029898D01*
X144075552Y-61089776D01*
X143923945Y-61177307D01*
X143789837Y-61289837D01*
X143677307Y-61423945D01*
X143589776Y-61575552D01*
X143529898Y-61740064D01*
X143499500Y-61912467D01*
X143499500Y-70087533D01*
X135709551Y-70087533D01*
X133430877Y-63826930D01*
X133430845Y-63826715D01*
X133413282Y-63778465D01*
X133413283Y-63778465D01*
X133383342Y-63696211D01*
X133377919Y-63686819D01*
X133295803Y-63544599D01*
X133183270Y-63410496D01*
X133049153Y-63297964D01*
X132897541Y-63210435D01*
X132733030Y-63150562D01*
X132689927Y-63142962D01*
X132560621Y-63120165D01*
X132560618Y-63120165D01*
X132385553Y-63120166D01*
X132213143Y-63150569D01*
X132138336Y-63177797D01*
X132138335Y-63177797D01*
X132130433Y-63180673D01*
X132130419Y-63180677D01*
X132130420Y-63180678D01*
X131191667Y-63522356D01*
X131191197Y-63522527D01*
X131154515Y-63535873D01*
X131154457Y-63535905D01*
X131108946Y-63552470D01*
X130957337Y-63640002D01*
X130823230Y-63752532D01*
X130710700Y-63886638D01*
X130623170Y-64038246D01*
X130563292Y-64202756D01*
X130532891Y-64375159D01*
X130532891Y-64462691D01*
X130532891Y-64550223D01*
X121520905Y-64550223D01*
X120870682Y-63900000D01*
X121944610Y-63900000D01*
X121964068Y-64035342D01*
X122020869Y-64159717D01*
X122110412Y-64263056D01*
X122225437Y-64336977D01*
X122225439Y-64336978D01*
X122356633Y-64375500D01*
X122493367Y-64375500D01*
X122624561Y-64336978D01*
X122739589Y-64263055D01*
X122829130Y-64159718D01*
X122885931Y-64035342D01*
X122905390Y-63900000D01*
X122887905Y-63778386D01*
X122885931Y-63764657D01*
X122829130Y-63640282D01*
X122812341Y-63620906D01*
X122739589Y-63536945D01*
X122739588Y-63536944D01*
X122739587Y-63536943D01*
X122624562Y-63463022D01*
X122493367Y-63424500D01*
X122356633Y-63424500D01*
X122225437Y-63463022D01*
X122110412Y-63536943D01*
X122020869Y-63640282D01*
X121964068Y-63764657D01*
X121944610Y-63900000D01*
X120870682Y-63900000D01*
X120057638Y-63086956D01*
X120041509Y-63067094D01*
X120036437Y-63059330D01*
X120013533Y-63041504D01*
X120002508Y-63031768D01*
X119986653Y-63020448D01*
X119982544Y-63017384D01*
X119938229Y-62982892D01*
X119884409Y-62966869D01*
X119879531Y-62965306D01*
X119826421Y-62947074D01*
X119770332Y-62949394D01*
X119765208Y-62949500D01*
X117945534Y-62949500D01*
X117878496Y-62929816D01*
X117814024Y-62888383D01*
X117774560Y-62863021D01*
X117643367Y-62824500D01*
X117506633Y-62824500D01*
X117375437Y-62863022D01*
X117260412Y-62936943D01*
X117170869Y-63040282D01*
X117114068Y-63164657D01*
X117094610Y-63299999D01*
X100000500Y-63299999D01*
X100000500Y-59353296D01*
X100018773Y-59288506D01*
X100068205Y-59242811D01*
X100134229Y-59229678D01*
X100197386Y-59252978D01*
X100239060Y-59305843D01*
X100247264Y-59325648D01*
X100412998Y-59625521D01*
X100524895Y-59783226D01*
X100611268Y-59904958D01*
X100753191Y-60063768D01*
X100839572Y-60160428D01*
X100947732Y-60257086D01*
X101095041Y-60388731D01*
X101095047Y-60388735D01*
X101374479Y-60587002D01*
X101674352Y-60752736D01*
X101873963Y-60835417D01*
X101990893Y-60883852D01*
X101990894Y-60883852D01*
X101990896Y-60883853D01*
X102320130Y-60978704D01*
X102657914Y-61036096D01*
X103000000Y-61055307D01*
X103342086Y-61036096D01*
X103679870Y-60978704D01*
X104009104Y-60883853D01*
X104325648Y-60752736D01*
X104625521Y-60587002D01*
X104904953Y-60388735D01*
X104904955Y-60388732D01*
X104904958Y-60388731D01*
X104955607Y-60343466D01*
X105160428Y-60160428D01*
X105388735Y-59904953D01*
X105587002Y-59625521D01*
X105752736Y-59325648D01*
X105883853Y-59009104D01*
X105938333Y-58819999D01*
X165229610Y-58819999D01*
X165249068Y-58955342D01*
X165305869Y-59079717D01*
X165395412Y-59183056D01*
X165510437Y-59256977D01*
X165510439Y-59256978D01*
X165641633Y-59295500D01*
X165778367Y-59295500D01*
X165909561Y-59256978D01*
X165959322Y-59224999D01*
X173269610Y-59224999D01*
X173289068Y-59360342D01*
X173345869Y-59484717D01*
X173435412Y-59588056D01*
X173493708Y-59625520D01*
X173550439Y-59661978D01*
X173681633Y-59700500D01*
X173818367Y-59700500D01*
X173949561Y-59661978D01*
X174064589Y-59588055D01*
X174154130Y-59484718D01*
X174210931Y-59360342D01*
X174230390Y-59225000D01*
X174210940Y-59089718D01*
X174210931Y-59089657D01*
X174154130Y-58965282D01*
X174064587Y-58861943D01*
X174014880Y-58829999D01*
X174479610Y-58829999D01*
X174499068Y-58965342D01*
X174555869Y-59089717D01*
X174645412Y-59193056D01*
X174744878Y-59256978D01*
X174760439Y-59266978D01*
X174891633Y-59305500D01*
X175028367Y-59305500D01*
X175159561Y-59266978D01*
X175224882Y-59224999D01*
X182519610Y-59224999D01*
X182539068Y-59360342D01*
X182595869Y-59484717D01*
X182685412Y-59588056D01*
X182743708Y-59625520D01*
X182800439Y-59661978D01*
X182931633Y-59700500D01*
X183068367Y-59700500D01*
X183199561Y-59661978D01*
X183314589Y-59588055D01*
X183404130Y-59484718D01*
X183460931Y-59360342D01*
X183480390Y-59225000D01*
X183460940Y-59089718D01*
X183460931Y-59089657D01*
X183404130Y-58965282D01*
X183314587Y-58861943D01*
X183199562Y-58788022D01*
X183068367Y-58749500D01*
X182931633Y-58749500D01*
X182800437Y-58788022D01*
X182685412Y-58861943D01*
X182595869Y-58965282D01*
X182539068Y-59089657D01*
X182519610Y-59224999D01*
X175224882Y-59224999D01*
X175274589Y-59193055D01*
X175364130Y-59089718D01*
X175420931Y-58965342D01*
X175440390Y-58830000D01*
X175420931Y-58694658D01*
X175416364Y-58684658D01*
X175364130Y-58570282D01*
X175274587Y-58466943D01*
X175159562Y-58393022D01*
X175028367Y-58354500D01*
X174891633Y-58354500D01*
X174760437Y-58393022D01*
X174645412Y-58466943D01*
X174555869Y-58570282D01*
X174499068Y-58694657D01*
X174479610Y-58829999D01*
X174014880Y-58829999D01*
X173949562Y-58788022D01*
X173818367Y-58749500D01*
X173681633Y-58749500D01*
X173550437Y-58788022D01*
X173435412Y-58861943D01*
X173345869Y-58965282D01*
X173289068Y-59089657D01*
X173269610Y-59224999D01*
X165959322Y-59224999D01*
X166024589Y-59183055D01*
X166114130Y-59079718D01*
X166170931Y-58955342D01*
X166190390Y-58820000D01*
X166170931Y-58684658D01*
X166168744Y-58679870D01*
X166114130Y-58560282D01*
X166024587Y-58456943D01*
X165909562Y-58383022D01*
X165778367Y-58344500D01*
X165641633Y-58344500D01*
X165510437Y-58383022D01*
X165395412Y-58456943D01*
X165305869Y-58560282D01*
X165249068Y-58684657D01*
X165229610Y-58819999D01*
X105938333Y-58819999D01*
X105978704Y-58679870D01*
X106036096Y-58342086D01*
X106055307Y-58000000D01*
X106036096Y-57657914D01*
X105978704Y-57320130D01*
X105883853Y-56990896D01*
X105752736Y-56674352D01*
X105587002Y-56374479D01*
X105388735Y-56095047D01*
X105388731Y-56095041D01*
X105257086Y-55947732D01*
X105160428Y-55839572D01*
X105063768Y-55753191D01*
X104904958Y-55611268D01*
X104783226Y-55524895D01*
X104625521Y-55412998D01*
X104325648Y-55247264D01*
X104305843Y-55239060D01*
X104252978Y-55197386D01*
X104229678Y-55134229D01*
X104242811Y-55068205D01*
X104288506Y-55018773D01*
X104353296Y-55000500D01*
X185646704Y-55000500D01*
X185711494Y-55018773D01*
G37*
%TD.AperFunction*%
%TD*%
%TA.AperFunction,Conductor*%
%TO.N,+5V*%
G36*
X161328052Y-114269685D02*
G01*
X161373807Y-114322488D01*
X161383751Y-114391647D01*
X161369610Y-114490000D01*
X161389068Y-114625342D01*
X161445869Y-114749717D01*
X161535412Y-114853056D01*
X161650437Y-114926977D01*
X161650439Y-114926978D01*
X161781633Y-114965500D01*
X161918367Y-114965500D01*
X162049561Y-114926978D01*
X162164589Y-114853055D01*
X162254130Y-114749718D01*
X162310931Y-114625342D01*
X162330390Y-114490000D01*
X162316249Y-114391646D01*
X162326193Y-114322488D01*
X162371948Y-114269685D01*
X162438987Y-114250000D01*
X168948638Y-114250000D01*
X168996091Y-114259439D01*
X169036319Y-114286319D01*
X169748143Y-114998143D01*
X169781522Y-115058982D01*
X169776986Y-115128229D01*
X169760667Y-115173072D01*
X169760666Y-115173075D01*
X169730270Y-115345479D01*
X169730270Y-115345481D01*
X169730271Y-115520542D01*
X169745441Y-115606571D01*
X169760672Y-115692947D01*
X169820547Y-115857453D01*
X169908078Y-116009063D01*
X169963801Y-116075474D01*
X170020605Y-116143172D01*
X170154709Y-116255703D01*
X170216286Y-116291257D01*
X170216295Y-116291264D01*
X170321909Y-116352240D01*
X171860043Y-117240282D01*
X171938000Y-117285290D01*
X171983387Y-117330677D01*
X172000000Y-117392677D01*
X172000000Y-126198638D01*
X171990561Y-126246091D01*
X171963681Y-126286319D01*
X171286319Y-126963681D01*
X171246091Y-126990561D01*
X171198638Y-127000000D01*
X169672276Y-127000000D01*
X169619871Y-126988382D01*
X169577286Y-126955706D01*
X165466166Y-122056264D01*
X165466007Y-122055974D01*
X165376860Y-121949732D01*
X165242744Y-121837198D01*
X165091130Y-121749667D01*
X165091129Y-121749666D01*
X165091128Y-121749666D01*
X164926613Y-121689792D01*
X164754200Y-121659396D01*
X164754198Y-121659396D01*
X164579126Y-121659401D01*
X164406721Y-121689808D01*
X164242205Y-121749697D01*
X164090593Y-121837241D01*
X164010533Y-121904427D01*
X164010529Y-121904430D01*
X163296580Y-122503505D01*
X163296410Y-122503598D01*
X163190417Y-122592540D01*
X163077887Y-122726650D01*
X162990359Y-122878260D01*
X162930483Y-123042777D01*
X162900086Y-123215188D01*
X162900089Y-123375998D01*
X162883477Y-123437999D01*
X162838090Y-123483387D01*
X162776089Y-123500000D01*
X149051362Y-123500000D01*
X149003909Y-123490561D01*
X148963681Y-123463681D01*
X148036319Y-122536319D01*
X148009439Y-122496091D01*
X148000000Y-122448638D01*
X148000000Y-122249999D01*
X153019610Y-122249999D01*
X153039068Y-122385342D01*
X153095869Y-122509717D01*
X153185412Y-122613056D01*
X153300437Y-122686977D01*
X153300439Y-122686978D01*
X153431633Y-122725500D01*
X153568367Y-122725500D01*
X153699561Y-122686978D01*
X153814589Y-122613055D01*
X153904130Y-122509718D01*
X153960931Y-122385342D01*
X153980390Y-122250000D01*
X153980390Y-122249999D01*
X159519610Y-122249999D01*
X159539068Y-122385342D01*
X159595869Y-122509717D01*
X159685412Y-122613056D01*
X159800437Y-122686977D01*
X159800439Y-122686978D01*
X159931633Y-122725500D01*
X160068367Y-122725500D01*
X160199561Y-122686978D01*
X160314589Y-122613055D01*
X160404130Y-122509718D01*
X160460931Y-122385342D01*
X160480390Y-122250000D01*
X160460931Y-122114658D01*
X160416235Y-122016789D01*
X160404130Y-121990282D01*
X160368994Y-121949732D01*
X160314589Y-121886945D01*
X160314588Y-121886944D01*
X160314587Y-121886943D01*
X160199562Y-121813022D01*
X160068367Y-121774500D01*
X159931633Y-121774500D01*
X159800437Y-121813022D01*
X159685412Y-121886943D01*
X159595869Y-121990282D01*
X159539068Y-122114657D01*
X159519610Y-122249999D01*
X153980390Y-122249999D01*
X153960931Y-122114658D01*
X153916235Y-122016789D01*
X153904130Y-121990282D01*
X153868994Y-121949732D01*
X153814589Y-121886945D01*
X153814588Y-121886944D01*
X153814587Y-121886943D01*
X153699562Y-121813022D01*
X153568367Y-121774500D01*
X153431633Y-121774500D01*
X153300437Y-121813022D01*
X153185412Y-121886943D01*
X153095869Y-121990282D01*
X153039068Y-122114657D01*
X153019610Y-122249999D01*
X148000000Y-122249999D01*
X148000000Y-119448106D01*
X148017357Y-119384834D01*
X148064569Y-119339276D01*
X148128420Y-119324185D01*
X148162483Y-119334848D01*
X148163333Y-119331955D01*
X148180438Y-119336977D01*
X148180439Y-119336978D01*
X148311633Y-119375500D01*
X148448367Y-119375500D01*
X148579561Y-119336978D01*
X148694589Y-119263055D01*
X148784130Y-119159718D01*
X148840931Y-119035342D01*
X148860390Y-118900000D01*
X148840931Y-118764658D01*
X148784130Y-118640282D01*
X148694589Y-118536945D01*
X148694588Y-118536944D01*
X148694587Y-118536943D01*
X148579562Y-118463022D01*
X148441694Y-118422540D01*
X148404091Y-118415061D01*
X148363863Y-118388181D01*
X148036319Y-118060637D01*
X148009439Y-118020409D01*
X148000000Y-117972956D01*
X148000000Y-117499999D01*
X149019610Y-117499999D01*
X149039068Y-117635342D01*
X149095869Y-117759717D01*
X149185412Y-117863056D01*
X149300437Y-117936977D01*
X149300439Y-117936978D01*
X149431633Y-117975500D01*
X149568367Y-117975500D01*
X149699561Y-117936978D01*
X149814589Y-117863055D01*
X149904130Y-117759718D01*
X149960931Y-117635342D01*
X149980390Y-117500000D01*
X149960931Y-117364658D01*
X149945412Y-117330677D01*
X149904130Y-117240282D01*
X149814587Y-117136943D01*
X149699562Y-117063022D01*
X149568367Y-117024500D01*
X149431633Y-117024500D01*
X149300437Y-117063022D01*
X149185412Y-117136943D01*
X149095869Y-117240282D01*
X149039068Y-117364657D01*
X149019610Y-117499999D01*
X148000000Y-117499999D01*
X148000000Y-116352240D01*
X148009727Y-116304098D01*
X148037381Y-116263509D01*
X150063871Y-114285269D01*
X150103728Y-114259155D01*
X150150490Y-114250000D01*
X161261013Y-114250000D01*
X161328052Y-114269685D01*
G37*
%TD.AperFunction*%
%TD*%
%TA.AperFunction,Conductor*%
%TO.N,+3.3VA*%
G36*
X123473968Y-115497628D02*
G01*
X123554750Y-115551604D01*
X127702610Y-119699464D01*
X127756586Y-119780246D01*
X127775540Y-119875534D01*
X127756586Y-119970822D01*
X127702610Y-120051604D01*
X126554750Y-121199464D01*
X126473968Y-121253440D01*
X126378680Y-121272394D01*
X126283392Y-121253440D01*
X126202610Y-121199464D01*
X122054750Y-117051604D01*
X122000774Y-116970822D01*
X121981820Y-116875534D01*
X122000774Y-116780246D01*
X122054750Y-116699464D01*
X123202610Y-115551604D01*
X123283392Y-115497628D01*
X123378680Y-115478674D01*
X123473968Y-115497628D01*
G37*
%TD.AperFunction*%
%TD*%
M02*
