M48
; DRILL file {KiCad 7.0.1} date Mon Jul 17 00:51:02 2023
; FORMAT={-:-/ absolute / inch / decimal}
; #@! TF.CreationDate,2023-07-17T00:51:02+01:00
; #@! TF.GenerationSoftware,Kicad,Pcbnew,7.0.1
; #@! TF.FileFunction,Plated,1,4,PTH
FMAT,2
INCH
; #@! TA.AperFunction,Plated,PTH,ViaDrill
T1C0.0079
; #@! TA.AperFunction,Plated,PTH,ComponentDrill
T2C0.0236
; #@! TA.AperFunction,Plated,PTH,ComponentDrill
T3C0.0394
; #@! TA.AperFunction,Plated,PTH,ComponentDrill
T4C0.0512
; #@! TA.AperFunction,Plated,PTH,ComponentDrill
T5C0.0598
; #@! TA.AperFunction,Plated,PTH,ComponentDrill
T6C0.1063
; #@! TA.AperFunction,Plated,PTH,ComponentDrill
T7C0.1124
; #@! TA.AperFunction,Plated,PTH,ComponentDrill
T8C0.1260
%
G90
G05
T1
X4.4341Y-3.2411
X4.4341Y-3.5364
X4.4579Y-4.8405
X4.6457Y-3.1122
X4.6457Y-3.2854
X4.6457Y-3.4075
X4.6457Y-3.5807
X4.6555Y-4.8917
X4.689Y-3.6024
X4.6953Y-4.1732
X4.7366Y-3.5591
X4.7659Y-4.9079
X4.7973Y-4.9079
X4.8299Y-3.709
X4.8374Y-3.5146
X4.8465Y-3.1063
X4.8512Y-5.0047
X4.8539Y-4.6302
X4.8539Y-4.6558
X4.8622Y-3.563
X4.8622Y-4.1732
X4.8675Y-5.0254
X4.8728Y-4.8189
X4.8762Y-4.6433
X4.8819Y-5.0043
X4.8844Y-3.3913
X4.9006Y-4.4882
X4.9035Y-4.5866
X4.9119Y-4.8192
X4.9433Y-3.7425
X4.9488Y-3.6594
X4.9646Y-4.3012
X4.9724Y-3.3642
X4.9865Y-4.908
X5.0179Y-4.9078
X5.0437Y-3.6091
X5.0778Y-4.3898
X5.0866Y-3.9055
X5.0866Y-4.0236
X5.0866Y-4.1417
X5.1087Y-3.6815
X5.1087Y-3.7193
X5.1319Y-3.5335
X5.1378Y-3.5709
X5.1378Y-3.6571
X5.1575Y-3.2785
X5.1614Y-3.4941
X5.1846Y-3.7425
X5.2295Y-3.1004
X5.2299Y-3.0614
X5.2524Y-4.1354
X5.2559Y-3.6713
X5.2587Y-3.0315
X5.2906Y-4.1354
X5.2961Y-3.0315
X5.3346Y-5.1073
X5.3362Y-3.0319
X5.3435Y-4.4882
X5.3465Y-4.5866
X5.3657Y-3.0618
X5.3657Y-3.0996
X5.374Y-3.8228
X5.4035Y-3.2776
X5.4075Y-4.3012
X5.4224Y-3.6331
X5.4429Y-3.5728
X5.4429Y-3.8921
X5.4783Y-4.1354
X5.4811Y-3.8917
X5.5169Y-4.1354
X5.5207Y-4.3898
X5.5917Y-3.8484
X5.5921Y-3.8878
X5.6571Y-3.0705
X5.6973Y-3.0708
X5.6988Y-3.9173
X5.7185Y-3.2972
X5.7397Y-3.0709
X5.748Y-4.1437
X5.748Y-4.4193
X5.765Y-3.848
X5.765Y-3.8878
X5.8083Y-3.1004
X5.828Y-3.8954
X5.8307Y-4.2362
X5.8465Y-4.5866
X5.8465Y-4.8228
X5.8811Y-3.2579
X5.8898Y-3.9213
X5.902Y-4.7392
X5.9154Y-3.6626
X5.9154Y-3.7004
X5.9173Y-3.9016
X5.9252Y-4.5866
X5.9252Y-4.8228
X5.9311Y-3.2
X5.9311Y-3.2374
X5.9311Y-3.2783
X5.9449Y-4.378
X5.952Y-4.7392
X6.0039Y-4.5866
X6.0039Y-4.6654
X6.0039Y-4.7441
X6.0039Y-4.8228
X6.0118Y-3.9173
X6.0665Y-3.2778
X6.0666Y-3.0657
X6.0709Y-3.7913
X6.0709Y-3.8228
X6.0827Y-4.5866
X6.0827Y-4.6654
X6.0827Y-4.7441
X6.0827Y-4.8228
X6.0925Y-3.4331
X6.1024Y-3.7913
X6.1024Y-3.8228
X6.1161Y-3.2795
X6.1168Y-3.0658
X6.1339Y-3.7913
X6.1339Y-3.8228
X6.1437Y-3.5531
X6.1614Y-4.7441
X6.1614Y-4.8228
X6.2165Y-3.0669
X6.2402Y-4.5866
X6.2402Y-4.6654
X6.2402Y-4.7441
X6.2402Y-4.8228
X6.3091Y-3.7854
X6.3115Y-3.613
X6.3189Y-4.5079
X6.3189Y-4.5866
X6.3189Y-4.6654
X6.3189Y-4.7441
X6.3189Y-4.8228
X6.3484Y-3.4744
X6.3673Y-4.6169
X6.3774Y-3.612
X6.378Y-3.5039
X6.3976Y-4.5866
X6.3976Y-4.7441
X6.3976Y-4.8228
X6.4075Y-3.4744
X6.4213Y-3.6449
X6.437Y-3.5039
X6.4444Y-3.612
X6.4636Y-4.6561
X6.4646Y-4.0433
X6.4665Y-3.4744
X6.4665Y-3.5335
X6.4764Y-4.7441
X6.4764Y-4.8228
X6.4843Y-4.5472
X6.4843Y-4.6339
X6.5039Y-3.8051
X6.5151Y-4.5935
X6.5157Y-4.4193
X6.5256Y-3.4744
X6.5453Y-4.626
X6.5551Y-4.7441
X6.5551Y-4.8228
X6.5827Y-4.4882
X6.5846Y-3.4744
X6.5866Y-4.5984
X6.626Y-4.4882
X6.6339Y-4.7441
X6.6339Y-4.8228
X6.6732Y-4.5571
X6.6929Y-4.4193
X6.7028Y-3.7854
X6.7047Y-3.6142
X6.7126Y-4.7441
X6.7126Y-4.8228
X6.7426Y-4.5251
X6.7707Y-3.6132
X6.7726Y-4.5669
X6.7913Y-4.6654
X6.7913Y-4.7441
X6.7913Y-4.8228
X6.8145Y-3.6461
X6.8376Y-3.6132
X6.8701Y-4.5866
X6.8701Y-4.6654
X6.8701Y-4.7441
X6.8701Y-4.8228
X6.8976Y-3.8051
X6.937Y-4.1772
X6.937Y-4.2087
X6.9488Y-4.5866
X6.9488Y-4.6654
X6.9488Y-4.7441
X6.9488Y-4.8228
X6.9685Y-4.1772
X6.9685Y-4.2087
X7.0Y-4.1772
X7.0Y-4.2087
X7.0276Y-4.5079
X7.0276Y-4.5866
X7.0276Y-4.6654
X7.0276Y-4.7441
X7.0276Y-4.8228
X7.0573Y-3.9683
X7.1063Y-4.1929
X7.1063Y-4.5079
X7.185Y-4.2717
X7.185Y-4.3504
X7.185Y-4.4291
X7.2067Y-3.8878
X7.2638Y-4.1929
X7.3621Y-3.912
X7.3622Y-3.8619
X7.4705Y-3.912
X7.5726Y-3.862
X7.5726Y-4.012
X7.574Y-3.962
T3
X6.4144Y-3.1791
X6.4144Y-3.2776
X6.7126Y-3.1791
X6.7126Y-3.2776
X7.0128Y-3.1781
X7.0128Y-3.2766
T4
X6.378Y-4.9803
X7.2638Y-4.9803
T5
X4.5177Y-3.7535
X4.5177Y-3.9535
X4.5177Y-4.1535
X4.7031Y-2.874
X4.9031Y-2.874
X5.1756Y-2.874
X5.3756Y-2.874
X5.648Y-2.874
X5.848Y-2.874
X6.1205Y-2.874
X6.3205Y-2.874
X6.5929Y-2.874
X6.7929Y-2.874
X7.0654Y-2.874
X7.2654Y-2.874
X7.5Y-3.3055
X7.5Y-3.5055
X7.5Y-4.3685
X7.5Y-4.5685
T6
X7.3524Y-3.2638
X7.3524Y-3.5472
X7.3524Y-4.3252
X7.3524Y-4.6087
T7
X5.752Y-5.0315
X5.937Y-5.0315
X6.122Y-5.0315
T8
X4.4291Y-2.7756
X4.4291Y-5.0984
X7.5394Y-2.7756
X7.5394Y-5.0984
T2
G00X4.7215Y-4.9485
M15
G01X4.7215Y-4.9918
M16
G05
G00X4.7215Y-5.1186
M15
G01X4.7215Y-5.1501
M16
G05
G00X5.062Y-4.9485
M15
G01X5.062Y-4.9918
M16
G05
G00X5.062Y-5.1186
M15
G01X5.062Y-5.1501
M16
G05
G00X7.6102Y-3.1398
M15
G01X7.5669Y-3.1398
M16
G05
G00X7.6102Y-3.6713
M15
G01X7.5669Y-3.6713
M16
G05
G00X7.6102Y-4.2012
M15
G01X7.5669Y-4.2012
M16
G05
G00X7.6102Y-4.7327
M15
G01X7.5669Y-4.7327
M16
G05
T0
M30
