%TF.GenerationSoftware,KiCad,Pcbnew,7.0.1*%
%TF.CreationDate,2023-07-17T00:50:59+01:00*%
%TF.ProjectId,Power Board,506f7765-7220-4426-9f61-72642e6b6963,rev?*%
%TF.SameCoordinates,Original*%
%TF.FileFunction,Soldermask,Bot*%
%TF.FilePolarity,Negative*%
%FSLAX46Y46*%
G04 Gerber Fmt 4.6, Leading zero omitted, Abs format (unit mm)*
G04 Created by KiCad (PCBNEW 7.0.1) date 2023-07-17 00:50:59*
%MOMM*%
%LPD*%
G01*
G04 APERTURE LIST*
G04 Aperture macros list*
%AMRoundRect*
0 Rectangle with rounded corners*
0 $1 Rounding radius*
0 $2 $3 $4 $5 $6 $7 $8 $9 X,Y pos of 4 corners*
0 Add a 4 corners polygon primitive as box body*
4,1,4,$2,$3,$4,$5,$6,$7,$8,$9,$2,$3,0*
0 Add four circle primitives for the rounded corners*
1,1,$1+$1,$2,$3*
1,1,$1+$1,$4,$5*
1,1,$1+$1,$6,$7*
1,1,$1+$1,$8,$9*
0 Add four rect primitives between the rounded corners*
20,1,$1+$1,$2,$3,$4,$5,0*
20,1,$1+$1,$4,$5,$6,$7,0*
20,1,$1+$1,$6,$7,$8,$9,0*
20,1,$1+$1,$8,$9,$2,$3,0*%
G04 Aperture macros list end*
%ADD10R,3.000000X3.000000*%
%ADD11C,3.000000*%
%ADD12C,3.781000*%
%ADD13RoundRect,1.025000X-1.025000X1.025000X-1.025000X-1.025000X1.025000X-1.025000X1.025000X1.025000X0*%
%ADD14C,4.100000*%
%ADD15R,2.000000X0.900000*%
%ADD16C,2.700000*%
%ADD17C,5.600000*%
%ADD18C,0.600000*%
%ADD19O,0.900000X2.000000*%
%ADD20O,0.900000X1.700000*%
%ADD21RoundRect,0.250000X-0.750000X0.600000X-0.750000X-0.600000X0.750000X-0.600000X0.750000X0.600000X0*%
%ADD22O,2.000000X1.700000*%
%ADD23C,2.374900*%
%ADD24C,0.990600*%
G04 APERTURE END LIST*
D10*
%TO.C,J214*%
X148540000Y-73000000D03*
D11*
X143460000Y-73000000D03*
%TD*%
D12*
%TO.C,SW201*%
X146101000Y-127800000D03*
X150800000Y-127800000D03*
X155499000Y-127800000D03*
%TD*%
D10*
%TO.C,J215*%
X190500000Y-89040000D03*
D11*
X190500000Y-83960000D03*
%TD*%
D10*
%TO.C,J204*%
X190500000Y-116040000D03*
D11*
X190500000Y-110960000D03*
%TD*%
D13*
%TO.C,J201*%
X186750000Y-90100000D03*
D14*
X186750000Y-82900000D03*
D15*
X192750000Y-93250000D03*
X192750000Y-79750000D03*
%TD*%
D16*
%TO.C,F201*%
X173250000Y-126500000D03*
D11*
X184500000Y-126500000D03*
X162000000Y-126500000D03*
%TD*%
D10*
%TO.C,J211*%
X136540000Y-73000000D03*
D11*
X131460000Y-73000000D03*
%TD*%
D10*
%TO.C,J207*%
X160540000Y-73000000D03*
D11*
X155460000Y-73000000D03*
%TD*%
D10*
%TO.C,J213*%
X184540000Y-73000000D03*
D11*
X179460000Y-73000000D03*
%TD*%
D10*
%TO.C,J208*%
X124540000Y-73000000D03*
D11*
X119460000Y-73000000D03*
%TD*%
D10*
%TO.C,J303*%
X114750000Y-95340000D03*
D11*
X114750000Y-100420000D03*
X114750000Y-105500000D03*
%TD*%
D10*
%TO.C,J210*%
X172540000Y-73000000D03*
D11*
X167460000Y-73000000D03*
%TD*%
D17*
%TO.C,H101*%
X191500000Y-70500000D03*
%TD*%
D18*
%TO.C,J302*%
X121360000Y-126732500D03*
X127140000Y-126732500D03*
D19*
X119925000Y-126242500D03*
X128575000Y-126242500D03*
D20*
X119925000Y-130412500D03*
X128575000Y-130412500D03*
%TD*%
D21*
%TO.C,J206*%
X170500000Y-80750000D03*
D22*
X170500000Y-83250000D03*
%TD*%
D23*
%TO.C,J301*%
X126540000Y-80310000D03*
D24*
X124000000Y-80310000D03*
D23*
X121460000Y-80310000D03*
X126540000Y-83485000D03*
X121460000Y-83485000D03*
D24*
X125016000Y-85390000D03*
X122984000Y-85390000D03*
%TD*%
D17*
%TO.C,H102*%
X112500000Y-70500000D03*
%TD*%
D21*
%TO.C,J202*%
X178125000Y-80725000D03*
D22*
X178125000Y-83225000D03*
%TD*%
D17*
%TO.C,H104*%
X112500000Y-129500000D03*
%TD*%
D21*
%TO.C,J205*%
X162925000Y-80750000D03*
D22*
X162925000Y-83250000D03*
%TD*%
D17*
%TO.C,H103*%
X191500000Y-129500000D03*
%TD*%
D13*
%TO.C,J203*%
X186750000Y-109860000D03*
D14*
X186750000Y-117060000D03*
D15*
X192750000Y-106710000D03*
X192750000Y-120210000D03*
%TD*%
M02*
