%TF.GenerationSoftware,KiCad,Pcbnew,7.0.1*%
%TF.CreationDate,2023-07-17T00:51:03+01:00*%
%TF.ProjectId,Power Board,506f7765-7220-4426-9f61-72642e6b6963,rev?*%
%TF.SameCoordinates,Original*%
%TF.FileFunction,Drillmap*%
%TF.FilePolarity,Positive*%
%FSLAX45Y45*%
G04 Gerber Fmt 4.5, Leading zero omitted, Abs format (unit mm)*
G04 Created by KiCad (PCBNEW 7.0.1) date 2023-07-17 00:51:03*
%MOMM*%
%LPD*%
G01*
G04 APERTURE LIST*
%ADD10C,0.100000*%
%ADD11C,0.200000*%
%ADD12C,0.020000*%
%ADD13C,0.060000*%
%ADD14C,0.130000*%
%ADD15C,0.152000*%
%ADD16C,0.270000*%
%ADD17C,0.285420*%
%ADD18C,0.320000*%
G04 APERTURE END LIST*
D10*
X11250000Y-13250000D02*
X19150000Y-13250000D01*
X11250000Y-6750000D02*
G75*
G03*
X10950000Y-7050000I0J-300000D01*
G01*
X10950000Y-7050000D02*
X10950000Y-12950000D01*
X10950000Y-12950000D02*
G75*
G03*
X11250000Y-13250000I300000J0D01*
G01*
X19150000Y-13250000D02*
G75*
G03*
X19450000Y-12950000I0J300000D01*
G01*
X19450000Y-7050000D02*
G75*
G03*
X19150000Y-6750000I-300000J0D01*
G01*
X19450000Y-12950000D02*
X19450000Y-7050000D01*
X19150000Y-6750000D02*
X11250000Y-6750000D01*
D11*
D12*
X11252500Y-8222500D02*
X11272500Y-8242500D01*
X11272500Y-8222500D02*
X11252500Y-8242500D01*
X11252500Y-8972500D02*
X11272500Y-8992500D01*
X11272500Y-8972500D02*
X11252500Y-8992500D01*
X11313099Y-12284984D02*
X11333099Y-12304984D01*
X11333099Y-12284984D02*
X11313099Y-12304984D01*
X11790000Y-7895000D02*
X11810000Y-7915000D01*
X11810000Y-7895000D02*
X11790000Y-7915000D01*
X11790000Y-8335000D02*
X11810000Y-8355000D01*
X11810000Y-8335000D02*
X11790000Y-8355000D01*
X11790000Y-8645000D02*
X11810000Y-8665000D01*
X11810000Y-8645000D02*
X11790000Y-8665000D01*
X11790000Y-9085000D02*
X11810000Y-9105000D01*
X11810000Y-9085000D02*
X11790000Y-9105000D01*
X11815000Y-12415000D02*
X11835000Y-12435000D01*
X11835000Y-12415000D02*
X11815000Y-12435000D01*
X11900000Y-9140000D02*
X11920000Y-9160000D01*
X11920000Y-9140000D02*
X11900000Y-9160000D01*
X11916000Y-10590000D02*
X11936000Y-10610000D01*
X11936000Y-10590000D02*
X11916000Y-10610000D01*
X12021000Y-9030000D02*
X12041000Y-9050000D01*
X12041000Y-9030000D02*
X12021000Y-9050000D01*
X12095339Y-12456026D02*
X12115339Y-12476026D01*
X12115339Y-12456026D02*
X12095339Y-12476026D01*
X12175015Y-12456054D02*
X12195015Y-12476054D01*
X12195015Y-12456054D02*
X12175015Y-12476054D01*
X12257966Y-9410740D02*
X12277966Y-9430740D01*
X12277966Y-9410740D02*
X12257966Y-9430740D01*
X12277000Y-8917000D02*
X12297000Y-8937000D01*
X12297000Y-8917000D02*
X12277000Y-8937000D01*
X12300000Y-7880000D02*
X12320000Y-7900000D01*
X12320000Y-7880000D02*
X12300000Y-7900000D01*
X12312000Y-12702000D02*
X12332000Y-12722000D01*
X12332000Y-12702000D02*
X12312000Y-12722000D01*
X12319000Y-11750818D02*
X12339000Y-11770818D01*
X12339000Y-11750818D02*
X12319000Y-11770818D01*
X12319000Y-11815818D02*
X12339000Y-11835818D01*
X12339000Y-11815818D02*
X12319000Y-11835818D01*
X12340000Y-9040000D02*
X12360000Y-9060000D01*
X12360000Y-9040000D02*
X12340000Y-9060000D01*
X12340000Y-10590000D02*
X12360000Y-10610000D01*
X12360000Y-10590000D02*
X12340000Y-10610000D01*
X12353351Y-12754622D02*
X12373351Y-12774622D01*
X12373351Y-12754622D02*
X12353351Y-12774622D01*
X12367027Y-12230000D02*
X12387027Y-12250000D01*
X12387027Y-12230000D02*
X12367027Y-12250000D01*
X12375633Y-11784018D02*
X12395633Y-11804018D01*
X12395633Y-11784018D02*
X12375633Y-11804018D01*
X12390000Y-12701000D02*
X12410000Y-12721000D01*
X12410000Y-12701000D02*
X12390000Y-12721000D01*
X12396500Y-8604000D02*
X12416500Y-8624000D01*
X12416500Y-8604000D02*
X12396500Y-8624000D01*
X12437500Y-11390000D02*
X12457500Y-11410000D01*
X12457500Y-11390000D02*
X12437500Y-11410000D01*
X12445000Y-11640000D02*
X12465000Y-11660000D01*
X12465000Y-11640000D02*
X12445000Y-11660000D01*
X12466278Y-12230799D02*
X12486278Y-12250799D01*
X12486278Y-12230799D02*
X12466278Y-12250799D01*
X12546000Y-9496000D02*
X12566000Y-9516000D01*
X12566000Y-9496000D02*
X12546000Y-9516000D01*
X12560000Y-9285000D02*
X12580000Y-9305000D01*
X12580000Y-9285000D02*
X12560000Y-9305000D01*
X12600000Y-10915000D02*
X12620000Y-10935000D01*
X12620000Y-10915000D02*
X12600000Y-10935000D01*
X12620000Y-8535000D02*
X12640000Y-8555000D01*
X12640000Y-8535000D02*
X12620000Y-8555000D01*
X12655628Y-12456310D02*
X12675628Y-12476310D01*
X12675628Y-12456310D02*
X12655628Y-12476310D01*
X12735510Y-12455804D02*
X12755510Y-12475804D01*
X12755510Y-12455804D02*
X12735510Y-12475804D01*
X12801000Y-9157000D02*
X12821000Y-9177000D01*
X12821000Y-9157000D02*
X12801000Y-9177000D01*
X12887500Y-11140000D02*
X12907500Y-11160000D01*
X12907500Y-11140000D02*
X12887500Y-11160000D01*
X12910000Y-9910000D02*
X12930000Y-9930000D01*
X12930000Y-9910000D02*
X12910000Y-9930000D01*
X12910000Y-10210000D02*
X12930000Y-10230000D01*
X12930000Y-10210000D02*
X12910000Y-10230000D01*
X12910000Y-10510000D02*
X12930000Y-10530000D01*
X12930000Y-10510000D02*
X12910000Y-10530000D01*
X12966000Y-9341000D02*
X12986000Y-9361000D01*
X12986000Y-9341000D02*
X12966000Y-9361000D01*
X12966000Y-9437000D02*
X12986000Y-9457000D01*
X12986000Y-9437000D02*
X12966000Y-9457000D01*
X13025000Y-8965000D02*
X13045000Y-8985000D01*
X13045000Y-8965000D02*
X13025000Y-8985000D01*
X13040000Y-9060000D02*
X13060000Y-9080000D01*
X13060000Y-9060000D02*
X13040000Y-9080000D01*
X13040000Y-9279000D02*
X13060000Y-9299000D01*
X13060000Y-9279000D02*
X13040000Y-9299000D01*
X13090000Y-8317450D02*
X13110000Y-8337450D01*
X13110000Y-8317450D02*
X13090000Y-8337450D01*
X13100000Y-8865000D02*
X13120000Y-8885000D01*
X13120000Y-8865000D02*
X13100000Y-8885000D01*
X13159000Y-9496000D02*
X13179000Y-9516000D01*
X13179000Y-9496000D02*
X13159000Y-9516000D01*
X13273000Y-7865000D02*
X13293000Y-7885000D01*
X13293000Y-7865000D02*
X13273000Y-7885000D01*
X13274000Y-7766000D02*
X13294000Y-7786000D01*
X13294000Y-7766000D02*
X13274000Y-7786000D01*
X13331000Y-10494000D02*
X13351000Y-10514000D01*
X13351000Y-10494000D02*
X13331000Y-10514000D01*
X13340000Y-9315000D02*
X13360000Y-9335000D01*
X13360000Y-9315000D02*
X13340000Y-9335000D01*
X13347000Y-7690000D02*
X13367000Y-7710000D01*
X13367000Y-7690000D02*
X13347000Y-7710000D01*
X13428000Y-10494000D02*
X13448000Y-10514000D01*
X13448000Y-10494000D02*
X13428000Y-10514000D01*
X13442000Y-7690000D02*
X13462000Y-7710000D01*
X13462000Y-7690000D02*
X13442000Y-7710000D01*
X13540000Y-12962500D02*
X13560000Y-12982500D01*
X13560000Y-12962500D02*
X13540000Y-12982500D01*
X13544000Y-7691000D02*
X13564000Y-7711000D01*
X13564000Y-7691000D02*
X13544000Y-7711000D01*
X13562500Y-11390000D02*
X13582500Y-11410000D01*
X13582500Y-11390000D02*
X13562500Y-11410000D01*
X13570000Y-11640000D02*
X13590000Y-11660000D01*
X13590000Y-11640000D02*
X13570000Y-11660000D01*
X13619000Y-7767000D02*
X13639000Y-7787000D01*
X13639000Y-7767000D02*
X13619000Y-7787000D01*
X13619000Y-7863000D02*
X13639000Y-7883000D01*
X13639000Y-7863000D02*
X13619000Y-7883000D01*
X13640000Y-9700000D02*
X13660000Y-9720000D01*
X13660000Y-9700000D02*
X13640000Y-9720000D01*
X13715000Y-8315000D02*
X13735000Y-8335000D01*
X13735000Y-8315000D02*
X13715000Y-8335000D01*
X13725000Y-10915000D02*
X13745000Y-10935000D01*
X13745000Y-10915000D02*
X13725000Y-10935000D01*
X13763000Y-9218000D02*
X13783000Y-9238000D01*
X13783000Y-9218000D02*
X13763000Y-9238000D01*
X13815000Y-9065000D02*
X13835000Y-9085000D01*
X13835000Y-9065000D02*
X13815000Y-9085000D01*
X13815000Y-9876000D02*
X13835000Y-9896000D01*
X13835000Y-9876000D02*
X13815000Y-9896000D01*
X13905000Y-10494000D02*
X13925000Y-10514000D01*
X13925000Y-10494000D02*
X13905000Y-10514000D01*
X13912000Y-9875000D02*
X13932000Y-9895000D01*
X13932000Y-9875000D02*
X13912000Y-9895000D01*
X14003000Y-10494000D02*
X14023000Y-10514000D01*
X14023000Y-10494000D02*
X14003000Y-10514000D01*
X14012500Y-11140000D02*
X14032500Y-11160000D01*
X14032500Y-11140000D02*
X14012500Y-11160000D01*
X14193000Y-9765000D02*
X14213000Y-9785000D01*
X14213000Y-9765000D02*
X14193000Y-9785000D01*
X14194000Y-9865000D02*
X14214000Y-9885000D01*
X14214000Y-9865000D02*
X14194000Y-9885000D01*
X14359000Y-7789000D02*
X14379000Y-7809000D01*
X14379000Y-7789000D02*
X14359000Y-7809000D01*
X14461232Y-7789707D02*
X14481232Y-7809707D01*
X14481232Y-7789707D02*
X14461232Y-7809707D01*
X14465000Y-9940000D02*
X14485000Y-9960000D01*
X14485000Y-9940000D02*
X14465000Y-9960000D01*
X14515000Y-8365000D02*
X14535000Y-8385000D01*
X14535000Y-8365000D02*
X14515000Y-8385000D01*
X14568749Y-7790047D02*
X14588749Y-7810047D01*
X14588749Y-7790047D02*
X14568749Y-7810047D01*
X14590000Y-10515000D02*
X14610000Y-10535000D01*
X14610000Y-10515000D02*
X14590000Y-10535000D01*
X14590000Y-11215000D02*
X14610000Y-11235000D01*
X14610000Y-11215000D02*
X14590000Y-11235000D01*
X14633000Y-9764000D02*
X14653000Y-9784000D01*
X14653000Y-9764000D02*
X14633000Y-9784000D01*
X14633000Y-9865000D02*
X14653000Y-9885000D01*
X14653000Y-9865000D02*
X14633000Y-9885000D01*
X14743000Y-7865000D02*
X14763000Y-7885000D01*
X14763000Y-7865000D02*
X14743000Y-7885000D01*
X14793125Y-9884424D02*
X14813125Y-9904424D01*
X14813125Y-9884424D02*
X14793125Y-9904424D01*
X14800000Y-10750000D02*
X14820000Y-10770000D01*
X14820000Y-10750000D02*
X14800000Y-10770000D01*
X14840000Y-11640000D02*
X14860000Y-11660000D01*
X14860000Y-11640000D02*
X14840000Y-11660000D01*
X14840000Y-12240000D02*
X14860000Y-12260000D01*
X14860000Y-12240000D02*
X14840000Y-12260000D01*
X14928000Y-8265000D02*
X14948000Y-8285000D01*
X14948000Y-8265000D02*
X14928000Y-8285000D01*
X14950000Y-9950000D02*
X14970000Y-9970000D01*
X14970000Y-9950000D02*
X14950000Y-9970000D01*
X14981000Y-12027532D02*
X15001000Y-12047532D01*
X15001000Y-12027532D02*
X14981000Y-12047532D01*
X15015000Y-9293000D02*
X15035000Y-9313000D01*
X15035000Y-9293000D02*
X15015000Y-9313000D01*
X15015000Y-9389000D02*
X15035000Y-9409000D01*
X15035000Y-9389000D02*
X15015000Y-9409000D01*
X15020000Y-9900000D02*
X15040000Y-9920000D01*
X15040000Y-9900000D02*
X15020000Y-9920000D01*
X15040000Y-11640000D02*
X15060000Y-11660000D01*
X15060000Y-11640000D02*
X15040000Y-11660000D01*
X15040000Y-12240000D02*
X15060000Y-12260000D01*
X15060000Y-12240000D02*
X15040000Y-12260000D01*
X15055000Y-8118000D02*
X15075000Y-8138000D01*
X15075000Y-8118000D02*
X15055000Y-8138000D01*
X15055000Y-8213000D02*
X15075000Y-8233000D01*
X15075000Y-8213000D02*
X15055000Y-8233000D01*
X15055000Y-8317000D02*
X15075000Y-8337000D01*
X15075000Y-8317000D02*
X15055000Y-8337000D01*
X15090000Y-11110000D02*
X15110000Y-11130000D01*
X15110000Y-11110000D02*
X15090000Y-11130000D01*
X15108000Y-12027633D02*
X15128000Y-12047633D01*
X15128000Y-12027633D02*
X15108000Y-12047633D01*
X15240000Y-11640000D02*
X15260000Y-11660000D01*
X15260000Y-11640000D02*
X15240000Y-11660000D01*
X15240000Y-11840000D02*
X15260000Y-11860000D01*
X15260000Y-11840000D02*
X15240000Y-11860000D01*
X15240000Y-12040000D02*
X15260000Y-12060000D01*
X15260000Y-12040000D02*
X15240000Y-12060000D01*
X15240000Y-12240000D02*
X15260000Y-12260000D01*
X15260000Y-12240000D02*
X15240000Y-12260000D01*
X15260000Y-9940000D02*
X15280000Y-9960000D01*
X15280000Y-9940000D02*
X15260000Y-9960000D01*
X15398977Y-8315527D02*
X15418977Y-8335527D01*
X15418977Y-8315527D02*
X15398977Y-8335527D01*
X15399244Y-7776873D02*
X15419244Y-7796873D01*
X15419244Y-7776873D02*
X15399244Y-7796873D01*
X15410000Y-9620000D02*
X15430000Y-9640000D01*
X15430000Y-9620000D02*
X15410000Y-9640000D01*
X15410000Y-9700000D02*
X15430000Y-9720000D01*
X15430000Y-9700000D02*
X15410000Y-9720000D01*
X15440000Y-11640000D02*
X15460000Y-11660000D01*
X15460000Y-11640000D02*
X15440000Y-11660000D01*
X15440000Y-11840000D02*
X15460000Y-11860000D01*
X15460000Y-11840000D02*
X15440000Y-11860000D01*
X15440000Y-12040000D02*
X15460000Y-12060000D01*
X15460000Y-12040000D02*
X15440000Y-12060000D01*
X15440000Y-12240000D02*
X15460000Y-12260000D01*
X15460000Y-12240000D02*
X15440000Y-12260000D01*
X15465000Y-8710000D02*
X15485000Y-8730000D01*
X15485000Y-8710000D02*
X15465000Y-8730000D01*
X15490000Y-9620000D02*
X15510000Y-9640000D01*
X15510000Y-9620000D02*
X15490000Y-9640000D01*
X15490000Y-9700000D02*
X15510000Y-9720000D01*
X15510000Y-9700000D02*
X15490000Y-9720000D01*
X15525000Y-8320000D02*
X15545000Y-8340000D01*
X15545000Y-8320000D02*
X15525000Y-8340000D01*
X15526587Y-7777050D02*
X15546587Y-7797050D01*
X15546587Y-7777050D02*
X15526587Y-7797050D01*
X15570000Y-9620000D02*
X15590000Y-9640000D01*
X15590000Y-9620000D02*
X15570000Y-9640000D01*
X15570000Y-9700000D02*
X15590000Y-9720000D01*
X15590000Y-9700000D02*
X15570000Y-9720000D01*
X15595000Y-9015000D02*
X15615000Y-9035000D01*
X15615000Y-9015000D02*
X15595000Y-9035000D01*
X15640000Y-12040000D02*
X15660000Y-12060000D01*
X15660000Y-12040000D02*
X15640000Y-12060000D01*
X15640000Y-12240000D02*
X15660000Y-12260000D01*
X15660000Y-12240000D02*
X15640000Y-12260000D01*
X15780000Y-7780000D02*
X15800000Y-7800000D01*
X15800000Y-7780000D02*
X15780000Y-7800000D01*
X15840000Y-11640000D02*
X15860000Y-11660000D01*
X15860000Y-11640000D02*
X15840000Y-11660000D01*
X15840000Y-11840000D02*
X15860000Y-11860000D01*
X15860000Y-11840000D02*
X15840000Y-11860000D01*
X15840000Y-12040000D02*
X15860000Y-12060000D01*
X15860000Y-12040000D02*
X15840000Y-12060000D01*
X15840000Y-12240000D02*
X15860000Y-12260000D01*
X15860000Y-12240000D02*
X15840000Y-12260000D01*
X16015000Y-9605000D02*
X16035000Y-9625000D01*
X16035000Y-9605000D02*
X16015000Y-9625000D01*
X16021200Y-9166900D02*
X16041200Y-9186900D01*
X16041200Y-9166900D02*
X16021200Y-9186900D01*
X16040000Y-11440000D02*
X16060000Y-11460000D01*
X16060000Y-11440000D02*
X16040000Y-11460000D01*
X16040000Y-11640000D02*
X16060000Y-11660000D01*
X16060000Y-11640000D02*
X16040000Y-11660000D01*
X16040000Y-11840000D02*
X16060000Y-11860000D01*
X16060000Y-11840000D02*
X16040000Y-11860000D01*
X16040000Y-12040000D02*
X16060000Y-12060000D01*
X16060000Y-12040000D02*
X16040000Y-12060000D01*
X16040000Y-12240000D02*
X16060000Y-12260000D01*
X16060000Y-12240000D02*
X16040000Y-12260000D01*
X16115000Y-8815000D02*
X16135000Y-8835000D01*
X16135000Y-8815000D02*
X16115000Y-8835000D01*
X16163000Y-11717000D02*
X16183000Y-11737000D01*
X16183000Y-11717000D02*
X16163000Y-11737000D01*
X16188700Y-9164400D02*
X16208700Y-9184400D01*
X16208700Y-9164400D02*
X16188700Y-9184400D01*
X16190000Y-8890000D02*
X16210000Y-8910000D01*
X16210000Y-8890000D02*
X16190000Y-8910000D01*
X16240000Y-11640000D02*
X16260000Y-11660000D01*
X16260000Y-11640000D02*
X16240000Y-11660000D01*
X16240000Y-12040000D02*
X16260000Y-12060000D01*
X16260000Y-12040000D02*
X16240000Y-12060000D01*
X16240000Y-12240000D02*
X16260000Y-12260000D01*
X16260000Y-12240000D02*
X16240000Y-12260000D01*
X16265000Y-8815000D02*
X16285000Y-8835000D01*
X16285000Y-8815000D02*
X16265000Y-8835000D01*
X16300000Y-9248100D02*
X16320000Y-9268100D01*
X16320000Y-9248100D02*
X16300000Y-9268100D01*
X16340000Y-8890000D02*
X16360000Y-8910000D01*
X16360000Y-8890000D02*
X16340000Y-8910000D01*
X16358700Y-9164400D02*
X16378700Y-9184400D01*
X16378700Y-9164400D02*
X16358700Y-9184400D01*
X16407550Y-11816476D02*
X16427550Y-11836476D01*
X16427550Y-11816476D02*
X16407550Y-11836476D01*
X16410000Y-10260000D02*
X16430000Y-10280000D01*
X16430000Y-10260000D02*
X16410000Y-10280000D01*
X16415000Y-8815000D02*
X16435000Y-8835000D01*
X16435000Y-8815000D02*
X16415000Y-8835000D01*
X16415000Y-8965000D02*
X16435000Y-8985000D01*
X16435000Y-8965000D02*
X16415000Y-8985000D01*
X16440000Y-12040000D02*
X16460000Y-12060000D01*
X16460000Y-12040000D02*
X16440000Y-12060000D01*
X16440000Y-12240000D02*
X16460000Y-12260000D01*
X16460000Y-12240000D02*
X16440000Y-12260000D01*
X16460000Y-11540000D02*
X16480000Y-11560000D01*
X16480000Y-11540000D02*
X16460000Y-11560000D01*
X16460000Y-11760000D02*
X16480000Y-11780000D01*
X16480000Y-11760000D02*
X16460000Y-11780000D01*
X16510000Y-9655000D02*
X16530000Y-9675000D01*
X16530000Y-9655000D02*
X16510000Y-9675000D01*
X16538287Y-11657537D02*
X16558287Y-11677537D01*
X16558287Y-11657537D02*
X16538287Y-11677537D01*
X16540000Y-11215000D02*
X16560000Y-11235000D01*
X16560000Y-11215000D02*
X16540000Y-11235000D01*
X16565000Y-8815000D02*
X16585000Y-8835000D01*
X16585000Y-8815000D02*
X16565000Y-8835000D01*
X16615000Y-11740000D02*
X16635000Y-11760000D01*
X16635000Y-11740000D02*
X16615000Y-11760000D01*
X16640000Y-12040000D02*
X16660000Y-12060000D01*
X16660000Y-12040000D02*
X16640000Y-12060000D01*
X16640000Y-12240000D02*
X16660000Y-12260000D01*
X16660000Y-12240000D02*
X16640000Y-12260000D01*
X16710000Y-11390000D02*
X16730000Y-11410000D01*
X16730000Y-11390000D02*
X16710000Y-11410000D01*
X16715000Y-8815000D02*
X16735000Y-8835000D01*
X16735000Y-8815000D02*
X16715000Y-8835000D01*
X16720000Y-11670000D02*
X16740000Y-11690000D01*
X16740000Y-11670000D02*
X16720000Y-11690000D01*
X16820000Y-11390000D02*
X16840000Y-11410000D01*
X16840000Y-11390000D02*
X16820000Y-11410000D01*
X16840000Y-12040000D02*
X16860000Y-12060000D01*
X16860000Y-12040000D02*
X16840000Y-12060000D01*
X16840000Y-12240000D02*
X16860000Y-12260000D01*
X16860000Y-12240000D02*
X16840000Y-12260000D01*
X16940000Y-11565000D02*
X16960000Y-11585000D01*
X16960000Y-11565000D02*
X16940000Y-11585000D01*
X16990000Y-11215000D02*
X17010000Y-11235000D01*
X17010000Y-11215000D02*
X16990000Y-11235000D01*
X17015000Y-9605000D02*
X17035000Y-9625000D01*
X17035000Y-9605000D02*
X17015000Y-9625000D01*
X17020000Y-9170000D02*
X17040000Y-9190000D01*
X17040000Y-9170000D02*
X17020000Y-9190000D01*
X17040000Y-12040000D02*
X17060000Y-12060000D01*
X17060000Y-12040000D02*
X17040000Y-12060000D01*
X17040000Y-12240000D02*
X17060000Y-12260000D01*
X17060000Y-12240000D02*
X17040000Y-12260000D01*
X17116163Y-11483806D02*
X17136163Y-11503806D01*
X17136163Y-11483806D02*
X17116163Y-11503806D01*
X17187500Y-9167500D02*
X17207500Y-9187500D01*
X17207500Y-9167500D02*
X17187500Y-9187500D01*
X17192504Y-11589906D02*
X17212504Y-11609906D01*
X17212504Y-11589906D02*
X17192504Y-11609906D01*
X17240000Y-11840000D02*
X17260000Y-11860000D01*
X17260000Y-11840000D02*
X17240000Y-11860000D01*
X17240000Y-12040000D02*
X17260000Y-12060000D01*
X17260000Y-12040000D02*
X17240000Y-12060000D01*
X17240000Y-12240000D02*
X17260000Y-12260000D01*
X17260000Y-12240000D02*
X17240000Y-12260000D01*
X17298800Y-9251200D02*
X17318800Y-9271200D01*
X17318800Y-9251200D02*
X17298800Y-9271200D01*
X17357500Y-9167500D02*
X17377500Y-9187500D01*
X17377500Y-9167500D02*
X17357500Y-9187500D01*
X17440000Y-11640000D02*
X17460000Y-11660000D01*
X17460000Y-11640000D02*
X17440000Y-11660000D01*
X17440000Y-11840000D02*
X17460000Y-11860000D01*
X17460000Y-11840000D02*
X17440000Y-11860000D01*
X17440000Y-12040000D02*
X17460000Y-12060000D01*
X17460000Y-12040000D02*
X17440000Y-12060000D01*
X17440000Y-12240000D02*
X17460000Y-12260000D01*
X17460000Y-12240000D02*
X17440000Y-12260000D01*
X17510000Y-9655000D02*
X17530000Y-9675000D01*
X17530000Y-9655000D02*
X17510000Y-9675000D01*
X17610000Y-10600000D02*
X17630000Y-10620000D01*
X17630000Y-10600000D02*
X17610000Y-10620000D01*
X17610000Y-10680000D02*
X17630000Y-10700000D01*
X17630000Y-10680000D02*
X17610000Y-10700000D01*
X17640000Y-11640000D02*
X17660000Y-11660000D01*
X17660000Y-11640000D02*
X17640000Y-11660000D01*
X17640000Y-11840000D02*
X17660000Y-11860000D01*
X17660000Y-11840000D02*
X17640000Y-11860000D01*
X17640000Y-12040000D02*
X17660000Y-12060000D01*
X17660000Y-12040000D02*
X17640000Y-12060000D01*
X17640000Y-12240000D02*
X17660000Y-12260000D01*
X17660000Y-12240000D02*
X17640000Y-12260000D01*
X17690000Y-10600000D02*
X17710000Y-10620000D01*
X17710000Y-10600000D02*
X17690000Y-10620000D01*
X17690000Y-10680000D02*
X17710000Y-10700000D01*
X17710000Y-10680000D02*
X17690000Y-10700000D01*
X17770000Y-10600000D02*
X17790000Y-10620000D01*
X17790000Y-10600000D02*
X17770000Y-10620000D01*
X17770000Y-10680000D02*
X17790000Y-10700000D01*
X17790000Y-10680000D02*
X17770000Y-10700000D01*
X17840000Y-11440000D02*
X17860000Y-11460000D01*
X17860000Y-11440000D02*
X17840000Y-11460000D01*
X17840000Y-11640000D02*
X17860000Y-11660000D01*
X17860000Y-11640000D02*
X17840000Y-11660000D01*
X17840000Y-11840000D02*
X17860000Y-11860000D01*
X17860000Y-11840000D02*
X17840000Y-11860000D01*
X17840000Y-12040000D02*
X17860000Y-12060000D01*
X17860000Y-12040000D02*
X17840000Y-12060000D01*
X17840000Y-12240000D02*
X17860000Y-12260000D01*
X17860000Y-12240000D02*
X17840000Y-12260000D01*
X17915500Y-10069500D02*
X17935500Y-10089500D01*
X17935500Y-10069500D02*
X17915500Y-10089500D01*
X18040000Y-10640000D02*
X18060000Y-10660000D01*
X18060000Y-10640000D02*
X18040000Y-10660000D01*
X18040000Y-11440000D02*
X18060000Y-11460000D01*
X18060000Y-11440000D02*
X18040000Y-11460000D01*
X18240000Y-10840000D02*
X18260000Y-10860000D01*
X18260000Y-10840000D02*
X18240000Y-10860000D01*
X18240000Y-11040000D02*
X18260000Y-11060000D01*
X18260000Y-11040000D02*
X18240000Y-11060000D01*
X18240000Y-11240000D02*
X18260000Y-11260000D01*
X18260000Y-11240000D02*
X18240000Y-11260000D01*
X18295000Y-9865000D02*
X18315000Y-9885000D01*
X18315000Y-9865000D02*
X18295000Y-9885000D01*
X18440000Y-10640000D02*
X18460000Y-10660000D01*
X18460000Y-10640000D02*
X18440000Y-10660000D01*
X18689697Y-9926549D02*
X18709697Y-9946549D01*
X18709697Y-9926549D02*
X18689697Y-9946549D01*
X18689886Y-9799248D02*
X18709886Y-9819248D01*
X18709886Y-9799248D02*
X18689886Y-9819248D01*
X18965000Y-9926500D02*
X18985000Y-9946500D01*
X18985000Y-9926500D02*
X18965000Y-9946500D01*
X19224500Y-9799500D02*
X19244500Y-9819500D01*
X19244500Y-9799500D02*
X19224500Y-9819500D01*
X19224500Y-10180500D02*
X19244500Y-10200500D01*
X19244500Y-10180500D02*
X19224500Y-10200500D01*
X19227986Y-10053500D02*
X19247986Y-10073500D01*
X19247986Y-10053500D02*
X19227986Y-10073500D01*
D13*
X12022500Y-12624250D02*
G75*
G03*
X12022500Y-12624250I-30000J0D01*
G01*
D11*
X11962500Y-12569250D02*
X11962500Y-12679250D01*
X11962500Y-12679250D02*
G75*
G03*
X12022500Y-12679250I30000J0D01*
G01*
X12022500Y-12679250D02*
X12022500Y-12569250D01*
X12022500Y-12569250D02*
G75*
G03*
X11962500Y-12569250I-30000J0D01*
G01*
D13*
X12022500Y-13041250D02*
G75*
G03*
X12022500Y-13041250I-30000J0D01*
G01*
D11*
X11962500Y-13001250D02*
X11962500Y-13081250D01*
X11962500Y-13081250D02*
G75*
G03*
X12022500Y-13081250I30000J0D01*
G01*
X12022500Y-13081250D02*
X12022500Y-13001250D01*
X12022500Y-13001250D02*
G75*
G03*
X11962500Y-13001250I-30000J0D01*
G01*
D13*
X12887500Y-12624250D02*
G75*
G03*
X12887500Y-12624250I-30000J0D01*
G01*
D11*
X12827500Y-12569250D02*
X12827500Y-12679250D01*
X12827500Y-12679250D02*
G75*
G03*
X12887500Y-12679250I30000J0D01*
G01*
X12887500Y-12679250D02*
X12887500Y-12569250D01*
X12887500Y-12569250D02*
G75*
G03*
X12827500Y-12569250I-30000J0D01*
G01*
D13*
X12887500Y-13041250D02*
G75*
G03*
X12887500Y-13041250I-30000J0D01*
G01*
D11*
X12827500Y-13001250D02*
X12827500Y-13081250D01*
X12827500Y-13081250D02*
G75*
G03*
X12887500Y-13081250I30000J0D01*
G01*
X12887500Y-13081250D02*
X12887500Y-13001250D01*
X12887500Y-13001250D02*
G75*
G03*
X12827500Y-13001250I-30000J0D01*
G01*
D13*
X19305000Y-7975000D02*
G75*
G03*
X19305000Y-7975000I-30000J0D01*
G01*
D11*
X19330000Y-7945000D02*
X19220000Y-7945000D01*
X19220000Y-7945000D02*
G75*
G03*
X19220000Y-8005000I0J-30000D01*
G01*
X19220000Y-8005000D02*
X19330000Y-8005000D01*
X19330000Y-8005000D02*
G75*
G03*
X19330000Y-7945000I0J30000D01*
G01*
D13*
X19305000Y-9325000D02*
G75*
G03*
X19305000Y-9325000I-30000J0D01*
G01*
D11*
X19330000Y-9295000D02*
X19220000Y-9295000D01*
X19220000Y-9295000D02*
G75*
G03*
X19220000Y-9355000I0J-30000D01*
G01*
X19220000Y-9355000D02*
X19330000Y-9355000D01*
X19330000Y-9355000D02*
G75*
G03*
X19330000Y-9295000I0J30000D01*
G01*
D13*
X19305000Y-10671000D02*
G75*
G03*
X19305000Y-10671000I-30000J0D01*
G01*
D11*
X19330000Y-10641000D02*
X19220000Y-10641000D01*
X19220000Y-10641000D02*
G75*
G03*
X19220000Y-10701000I0J-30000D01*
G01*
X19220000Y-10701000D02*
X19330000Y-10701000D01*
X19330000Y-10701000D02*
G75*
G03*
X19330000Y-10641000I0J30000D01*
G01*
D13*
X19305000Y-12021000D02*
G75*
G03*
X19305000Y-12021000I-30000J0D01*
G01*
D11*
X19330000Y-11991000D02*
X19220000Y-11991000D01*
X19220000Y-11991000D02*
G75*
G03*
X19220000Y-12051000I0J-30000D01*
G01*
X19220000Y-12051000D02*
X19330000Y-12051000D01*
X19330000Y-12051000D02*
G75*
G03*
X19330000Y-11991000I0J30000D01*
G01*
D10*
X16292500Y-8025000D02*
X16292500Y-8125000D01*
X16242500Y-8075000D02*
X16342500Y-8075000D01*
X16292500Y-8275000D02*
X16292500Y-8375000D01*
X16242500Y-8325000D02*
X16342500Y-8325000D01*
X17050000Y-8025000D02*
X17050000Y-8125000D01*
X17000000Y-8075000D02*
X17100000Y-8075000D01*
X17050000Y-8275000D02*
X17050000Y-8375000D01*
X17000000Y-8325000D02*
X17100000Y-8325000D01*
X17812500Y-8022500D02*
X17812500Y-8122500D01*
X17762500Y-8072500D02*
X17862500Y-8072500D01*
X17812500Y-8272500D02*
X17812500Y-8372500D01*
X17762500Y-8322500D02*
X17862500Y-8322500D01*
D14*
X16245962Y-12695962D02*
X16245962Y-12604038D01*
X16154038Y-12604038D01*
X16154038Y-12695962D01*
X16245962Y-12695962D01*
X18495962Y-12695962D02*
X18495962Y-12604038D01*
X18404038Y-12604038D01*
X18404038Y-12695962D01*
X18495962Y-12695962D01*
D15*
X11475000Y-9610000D02*
X11551000Y-9534000D01*
X11475000Y-9458000D01*
X11399000Y-9534000D01*
X11475000Y-9610000D01*
X11475000Y-10118000D02*
X11551000Y-10042000D01*
X11475000Y-9966000D01*
X11399000Y-10042000D01*
X11475000Y-10118000D01*
X11475000Y-10626000D02*
X11551000Y-10550000D01*
X11475000Y-10474000D01*
X11399000Y-10550000D01*
X11475000Y-10626000D01*
X11946000Y-7376000D02*
X12022000Y-7300000D01*
X11946000Y-7224000D01*
X11870000Y-7300000D01*
X11946000Y-7376000D01*
X12454000Y-7376000D02*
X12530000Y-7300000D01*
X12454000Y-7224000D01*
X12378000Y-7300000D01*
X12454000Y-7376000D01*
X13146000Y-7376000D02*
X13222000Y-7300000D01*
X13146000Y-7224000D01*
X13070000Y-7300000D01*
X13146000Y-7376000D01*
X13654000Y-7376000D02*
X13730000Y-7300000D01*
X13654000Y-7224000D01*
X13578000Y-7300000D01*
X13654000Y-7376000D01*
X14346000Y-7376000D02*
X14422000Y-7300000D01*
X14346000Y-7224000D01*
X14270000Y-7300000D01*
X14346000Y-7376000D01*
X14854000Y-7376000D02*
X14930000Y-7300000D01*
X14854000Y-7224000D01*
X14778000Y-7300000D01*
X14854000Y-7376000D01*
X15546000Y-7376000D02*
X15622000Y-7300000D01*
X15546000Y-7224000D01*
X15470000Y-7300000D01*
X15546000Y-7376000D01*
X16054000Y-7376000D02*
X16130000Y-7300000D01*
X16054000Y-7224000D01*
X15978000Y-7300000D01*
X16054000Y-7376000D01*
X16746000Y-7376000D02*
X16822000Y-7300000D01*
X16746000Y-7224000D01*
X16670000Y-7300000D01*
X16746000Y-7376000D01*
X17254000Y-7376000D02*
X17330000Y-7300000D01*
X17254000Y-7224000D01*
X17178000Y-7300000D01*
X17254000Y-7376000D01*
X17946000Y-7376000D02*
X18022000Y-7300000D01*
X17946000Y-7224000D01*
X17870000Y-7300000D01*
X17946000Y-7376000D01*
X18454000Y-7376000D02*
X18530000Y-7300000D01*
X18454000Y-7224000D01*
X18378000Y-7300000D01*
X18454000Y-7376000D01*
X19050000Y-8472000D02*
X19126000Y-8396000D01*
X19050000Y-8320000D01*
X18974000Y-8396000D01*
X19050000Y-8472000D01*
X19050000Y-8980000D02*
X19126000Y-8904000D01*
X19050000Y-8828000D01*
X18974000Y-8904000D01*
X19050000Y-8980000D01*
X19050000Y-11172000D02*
X19126000Y-11096000D01*
X19050000Y-11020000D01*
X18974000Y-11096000D01*
X19050000Y-11172000D01*
X19050000Y-11680000D02*
X19126000Y-11604000D01*
X19050000Y-11528000D01*
X18974000Y-11604000D01*
X19050000Y-11680000D01*
D16*
X18540000Y-8155000D02*
X18810000Y-8425000D01*
X18810000Y-8155000D02*
X18540000Y-8425000D01*
X18810000Y-8290000D02*
G75*
G03*
X18810000Y-8290000I-135000J0D01*
G01*
X18540000Y-8875000D02*
X18810000Y-9145000D01*
X18810000Y-8875000D02*
X18540000Y-9145000D01*
X18810000Y-9010000D02*
G75*
G03*
X18810000Y-9010000I-135000J0D01*
G01*
X18540000Y-10851000D02*
X18810000Y-11121000D01*
X18810000Y-10851000D02*
X18540000Y-11121000D01*
X18810000Y-10986000D02*
G75*
G03*
X18810000Y-10986000I-135000J0D01*
G01*
X18540000Y-11571000D02*
X18810000Y-11841000D01*
X18810000Y-11571000D02*
X18540000Y-11841000D01*
X18810000Y-11706000D02*
G75*
G03*
X18810000Y-11706000I-135000J0D01*
G01*
D17*
X14467390Y-12637290D02*
X14752810Y-12922710D01*
X14752810Y-12637290D02*
X14467390Y-12922710D01*
X14610100Y-12637290D02*
X14610100Y-12922710D01*
X14467390Y-12780000D02*
X14752810Y-12780000D01*
X14937290Y-12637290D02*
X15222710Y-12922710D01*
X15222710Y-12637290D02*
X14937290Y-12922710D01*
X15080000Y-12637290D02*
X15080000Y-12922710D01*
X14937290Y-12780000D02*
X15222710Y-12780000D01*
X15407190Y-12637290D02*
X15692610Y-12922710D01*
X15692610Y-12637290D02*
X15407190Y-12922710D01*
X15549900Y-12637290D02*
X15549900Y-12922710D01*
X15407190Y-12780000D02*
X15692610Y-12780000D01*
D18*
X11090000Y-6890000D02*
X11410000Y-7210000D01*
X11410000Y-6890000D02*
X11090000Y-7210000D01*
X11363138Y-7163138D02*
X11363138Y-6936862D01*
X11136862Y-6936862D01*
X11136862Y-7163138D01*
X11363138Y-7163138D01*
X11090000Y-12790000D02*
X11410000Y-13110000D01*
X11410000Y-12790000D02*
X11090000Y-13110000D01*
X11363138Y-13063138D02*
X11363138Y-12836862D01*
X11136862Y-12836862D01*
X11136862Y-13063138D01*
X11363138Y-13063138D01*
X18990000Y-6890000D02*
X19310000Y-7210000D01*
X19310000Y-6890000D02*
X18990000Y-7210000D01*
X19263138Y-7163138D02*
X19263138Y-6936862D01*
X19036862Y-6936862D01*
X19036862Y-7163138D01*
X19263138Y-7163138D01*
X18990000Y-12790000D02*
X19310000Y-13110000D01*
X19310000Y-12790000D02*
X18990000Y-13110000D01*
X19263138Y-13063138D02*
X19263138Y-12836862D01*
X19036862Y-12836862D01*
X19036862Y-13063138D01*
X19263138Y-13063138D01*
D11*
X11192619Y-13567524D02*
X11192619Y-13367524D01*
X11192619Y-13367524D02*
X11240238Y-13367524D01*
X11240238Y-13367524D02*
X11268809Y-13377048D01*
X11268809Y-13377048D02*
X11287857Y-13396095D01*
X11287857Y-13396095D02*
X11297381Y-13415143D01*
X11297381Y-13415143D02*
X11306905Y-13453238D01*
X11306905Y-13453238D02*
X11306905Y-13481809D01*
X11306905Y-13481809D02*
X11297381Y-13519905D01*
X11297381Y-13519905D02*
X11287857Y-13538952D01*
X11287857Y-13538952D02*
X11268809Y-13558000D01*
X11268809Y-13558000D02*
X11240238Y-13567524D01*
X11240238Y-13567524D02*
X11192619Y-13567524D01*
X11392619Y-13567524D02*
X11392619Y-13434190D01*
X11392619Y-13472286D02*
X11402143Y-13453238D01*
X11402143Y-13453238D02*
X11411667Y-13443714D01*
X11411667Y-13443714D02*
X11430714Y-13434190D01*
X11430714Y-13434190D02*
X11449762Y-13434190D01*
X11516428Y-13567524D02*
X11516428Y-13434190D01*
X11516428Y-13367524D02*
X11506905Y-13377048D01*
X11506905Y-13377048D02*
X11516428Y-13386571D01*
X11516428Y-13386571D02*
X11525952Y-13377048D01*
X11525952Y-13377048D02*
X11516428Y-13367524D01*
X11516428Y-13367524D02*
X11516428Y-13386571D01*
X11640238Y-13567524D02*
X11621190Y-13558000D01*
X11621190Y-13558000D02*
X11611667Y-13538952D01*
X11611667Y-13538952D02*
X11611667Y-13367524D01*
X11745000Y-13567524D02*
X11725952Y-13558000D01*
X11725952Y-13558000D02*
X11716428Y-13538952D01*
X11716428Y-13538952D02*
X11716428Y-13367524D01*
X11973571Y-13567524D02*
X11973571Y-13367524D01*
X11973571Y-13367524D02*
X12040238Y-13510381D01*
X12040238Y-13510381D02*
X12106905Y-13367524D01*
X12106905Y-13367524D02*
X12106905Y-13567524D01*
X12287857Y-13567524D02*
X12287857Y-13462762D01*
X12287857Y-13462762D02*
X12278333Y-13443714D01*
X12278333Y-13443714D02*
X12259286Y-13434190D01*
X12259286Y-13434190D02*
X12221190Y-13434190D01*
X12221190Y-13434190D02*
X12202143Y-13443714D01*
X12287857Y-13558000D02*
X12268809Y-13567524D01*
X12268809Y-13567524D02*
X12221190Y-13567524D01*
X12221190Y-13567524D02*
X12202143Y-13558000D01*
X12202143Y-13558000D02*
X12192619Y-13538952D01*
X12192619Y-13538952D02*
X12192619Y-13519905D01*
X12192619Y-13519905D02*
X12202143Y-13500857D01*
X12202143Y-13500857D02*
X12221190Y-13491333D01*
X12221190Y-13491333D02*
X12268809Y-13491333D01*
X12268809Y-13491333D02*
X12287857Y-13481809D01*
X12383095Y-13434190D02*
X12383095Y-13634190D01*
X12383095Y-13443714D02*
X12402143Y-13434190D01*
X12402143Y-13434190D02*
X12440238Y-13434190D01*
X12440238Y-13434190D02*
X12459286Y-13443714D01*
X12459286Y-13443714D02*
X12468809Y-13453238D01*
X12468809Y-13453238D02*
X12478333Y-13472286D01*
X12478333Y-13472286D02*
X12478333Y-13529428D01*
X12478333Y-13529428D02*
X12468809Y-13548476D01*
X12468809Y-13548476D02*
X12459286Y-13558000D01*
X12459286Y-13558000D02*
X12440238Y-13567524D01*
X12440238Y-13567524D02*
X12402143Y-13567524D01*
X12402143Y-13567524D02*
X12383095Y-13558000D01*
X12564048Y-13548476D02*
X12573571Y-13558000D01*
X12573571Y-13558000D02*
X12564048Y-13567524D01*
X12564048Y-13567524D02*
X12554524Y-13558000D01*
X12554524Y-13558000D02*
X12564048Y-13548476D01*
X12564048Y-13548476D02*
X12564048Y-13567524D01*
X12564048Y-13443714D02*
X12573571Y-13453238D01*
X12573571Y-13453238D02*
X12564048Y-13462762D01*
X12564048Y-13462762D02*
X12554524Y-13453238D01*
X12554524Y-13453238D02*
X12564048Y-13443714D01*
X12564048Y-13443714D02*
X12564048Y-13462762D01*
D12*
X10925000Y-13885000D02*
X10945000Y-13905000D01*
X10945000Y-13885000D02*
X10925000Y-13905000D01*
D11*
X11230714Y-13787524D02*
X11249762Y-13787524D01*
X11249762Y-13787524D02*
X11268809Y-13797048D01*
X11268809Y-13797048D02*
X11278333Y-13806571D01*
X11278333Y-13806571D02*
X11287857Y-13825619D01*
X11287857Y-13825619D02*
X11297381Y-13863714D01*
X11297381Y-13863714D02*
X11297381Y-13911333D01*
X11297381Y-13911333D02*
X11287857Y-13949428D01*
X11287857Y-13949428D02*
X11278333Y-13968476D01*
X11278333Y-13968476D02*
X11268809Y-13978000D01*
X11268809Y-13978000D02*
X11249762Y-13987524D01*
X11249762Y-13987524D02*
X11230714Y-13987524D01*
X11230714Y-13987524D02*
X11211667Y-13978000D01*
X11211667Y-13978000D02*
X11202143Y-13968476D01*
X11202143Y-13968476D02*
X11192619Y-13949428D01*
X11192619Y-13949428D02*
X11183095Y-13911333D01*
X11183095Y-13911333D02*
X11183095Y-13863714D01*
X11183095Y-13863714D02*
X11192619Y-13825619D01*
X11192619Y-13825619D02*
X11202143Y-13806571D01*
X11202143Y-13806571D02*
X11211667Y-13797048D01*
X11211667Y-13797048D02*
X11230714Y-13787524D01*
X11383095Y-13968476D02*
X11392619Y-13978000D01*
X11392619Y-13978000D02*
X11383095Y-13987524D01*
X11383095Y-13987524D02*
X11373571Y-13978000D01*
X11373571Y-13978000D02*
X11383095Y-13968476D01*
X11383095Y-13968476D02*
X11383095Y-13987524D01*
X11468809Y-13806571D02*
X11478333Y-13797048D01*
X11478333Y-13797048D02*
X11497381Y-13787524D01*
X11497381Y-13787524D02*
X11545000Y-13787524D01*
X11545000Y-13787524D02*
X11564048Y-13797048D01*
X11564048Y-13797048D02*
X11573571Y-13806571D01*
X11573571Y-13806571D02*
X11583095Y-13825619D01*
X11583095Y-13825619D02*
X11583095Y-13844667D01*
X11583095Y-13844667D02*
X11573571Y-13873238D01*
X11573571Y-13873238D02*
X11459286Y-13987524D01*
X11459286Y-13987524D02*
X11583095Y-13987524D01*
X11706905Y-13787524D02*
X11725952Y-13787524D01*
X11725952Y-13787524D02*
X11745000Y-13797048D01*
X11745000Y-13797048D02*
X11754524Y-13806571D01*
X11754524Y-13806571D02*
X11764048Y-13825619D01*
X11764048Y-13825619D02*
X11773571Y-13863714D01*
X11773571Y-13863714D02*
X11773571Y-13911333D01*
X11773571Y-13911333D02*
X11764048Y-13949428D01*
X11764048Y-13949428D02*
X11754524Y-13968476D01*
X11754524Y-13968476D02*
X11745000Y-13978000D01*
X11745000Y-13978000D02*
X11725952Y-13987524D01*
X11725952Y-13987524D02*
X11706905Y-13987524D01*
X11706905Y-13987524D02*
X11687857Y-13978000D01*
X11687857Y-13978000D02*
X11678333Y-13968476D01*
X11678333Y-13968476D02*
X11668809Y-13949428D01*
X11668809Y-13949428D02*
X11659286Y-13911333D01*
X11659286Y-13911333D02*
X11659286Y-13863714D01*
X11659286Y-13863714D02*
X11668809Y-13825619D01*
X11668809Y-13825619D02*
X11678333Y-13806571D01*
X11678333Y-13806571D02*
X11687857Y-13797048D01*
X11687857Y-13797048D02*
X11706905Y-13787524D01*
X11897381Y-13787524D02*
X11916429Y-13787524D01*
X11916429Y-13787524D02*
X11935476Y-13797048D01*
X11935476Y-13797048D02*
X11945000Y-13806571D01*
X11945000Y-13806571D02*
X11954524Y-13825619D01*
X11954524Y-13825619D02*
X11964048Y-13863714D01*
X11964048Y-13863714D02*
X11964048Y-13911333D01*
X11964048Y-13911333D02*
X11954524Y-13949428D01*
X11954524Y-13949428D02*
X11945000Y-13968476D01*
X11945000Y-13968476D02*
X11935476Y-13978000D01*
X11935476Y-13978000D02*
X11916429Y-13987524D01*
X11916429Y-13987524D02*
X11897381Y-13987524D01*
X11897381Y-13987524D02*
X11878333Y-13978000D01*
X11878333Y-13978000D02*
X11868809Y-13968476D01*
X11868809Y-13968476D02*
X11859286Y-13949428D01*
X11859286Y-13949428D02*
X11849762Y-13911333D01*
X11849762Y-13911333D02*
X11849762Y-13863714D01*
X11849762Y-13863714D02*
X11859286Y-13825619D01*
X11859286Y-13825619D02*
X11868809Y-13806571D01*
X11868809Y-13806571D02*
X11878333Y-13797048D01*
X11878333Y-13797048D02*
X11897381Y-13787524D01*
X12049762Y-13987524D02*
X12049762Y-13854190D01*
X12049762Y-13873238D02*
X12059286Y-13863714D01*
X12059286Y-13863714D02*
X12078333Y-13854190D01*
X12078333Y-13854190D02*
X12106905Y-13854190D01*
X12106905Y-13854190D02*
X12125952Y-13863714D01*
X12125952Y-13863714D02*
X12135476Y-13882762D01*
X12135476Y-13882762D02*
X12135476Y-13987524D01*
X12135476Y-13882762D02*
X12145000Y-13863714D01*
X12145000Y-13863714D02*
X12164048Y-13854190D01*
X12164048Y-13854190D02*
X12192619Y-13854190D01*
X12192619Y-13854190D02*
X12211667Y-13863714D01*
X12211667Y-13863714D02*
X12221190Y-13882762D01*
X12221190Y-13882762D02*
X12221190Y-13987524D01*
X12316429Y-13987524D02*
X12316429Y-13854190D01*
X12316429Y-13873238D02*
X12325952Y-13863714D01*
X12325952Y-13863714D02*
X12345000Y-13854190D01*
X12345000Y-13854190D02*
X12373571Y-13854190D01*
X12373571Y-13854190D02*
X12392619Y-13863714D01*
X12392619Y-13863714D02*
X12402143Y-13882762D01*
X12402143Y-13882762D02*
X12402143Y-13987524D01*
X12402143Y-13882762D02*
X12411667Y-13863714D01*
X12411667Y-13863714D02*
X12430714Y-13854190D01*
X12430714Y-13854190D02*
X12459286Y-13854190D01*
X12459286Y-13854190D02*
X12478333Y-13863714D01*
X12478333Y-13863714D02*
X12487857Y-13882762D01*
X12487857Y-13882762D02*
X12487857Y-13987524D01*
X12878333Y-13778000D02*
X12706905Y-14035143D01*
X13135476Y-13787524D02*
X13154524Y-13787524D01*
X13154524Y-13787524D02*
X13173572Y-13797048D01*
X13173572Y-13797048D02*
X13183095Y-13806571D01*
X13183095Y-13806571D02*
X13192619Y-13825619D01*
X13192619Y-13825619D02*
X13202143Y-13863714D01*
X13202143Y-13863714D02*
X13202143Y-13911333D01*
X13202143Y-13911333D02*
X13192619Y-13949428D01*
X13192619Y-13949428D02*
X13183095Y-13968476D01*
X13183095Y-13968476D02*
X13173572Y-13978000D01*
X13173572Y-13978000D02*
X13154524Y-13987524D01*
X13154524Y-13987524D02*
X13135476Y-13987524D01*
X13135476Y-13987524D02*
X13116429Y-13978000D01*
X13116429Y-13978000D02*
X13106905Y-13968476D01*
X13106905Y-13968476D02*
X13097381Y-13949428D01*
X13097381Y-13949428D02*
X13087857Y-13911333D01*
X13087857Y-13911333D02*
X13087857Y-13863714D01*
X13087857Y-13863714D02*
X13097381Y-13825619D01*
X13097381Y-13825619D02*
X13106905Y-13806571D01*
X13106905Y-13806571D02*
X13116429Y-13797048D01*
X13116429Y-13797048D02*
X13135476Y-13787524D01*
X13287857Y-13968476D02*
X13297381Y-13978000D01*
X13297381Y-13978000D02*
X13287857Y-13987524D01*
X13287857Y-13987524D02*
X13278333Y-13978000D01*
X13278333Y-13978000D02*
X13287857Y-13968476D01*
X13287857Y-13968476D02*
X13287857Y-13987524D01*
X13421191Y-13787524D02*
X13440238Y-13787524D01*
X13440238Y-13787524D02*
X13459286Y-13797048D01*
X13459286Y-13797048D02*
X13468810Y-13806571D01*
X13468810Y-13806571D02*
X13478333Y-13825619D01*
X13478333Y-13825619D02*
X13487857Y-13863714D01*
X13487857Y-13863714D02*
X13487857Y-13911333D01*
X13487857Y-13911333D02*
X13478333Y-13949428D01*
X13478333Y-13949428D02*
X13468810Y-13968476D01*
X13468810Y-13968476D02*
X13459286Y-13978000D01*
X13459286Y-13978000D02*
X13440238Y-13987524D01*
X13440238Y-13987524D02*
X13421191Y-13987524D01*
X13421191Y-13987524D02*
X13402143Y-13978000D01*
X13402143Y-13978000D02*
X13392619Y-13968476D01*
X13392619Y-13968476D02*
X13383095Y-13949428D01*
X13383095Y-13949428D02*
X13373572Y-13911333D01*
X13373572Y-13911333D02*
X13373572Y-13863714D01*
X13373572Y-13863714D02*
X13383095Y-13825619D01*
X13383095Y-13825619D02*
X13392619Y-13806571D01*
X13392619Y-13806571D02*
X13402143Y-13797048D01*
X13402143Y-13797048D02*
X13421191Y-13787524D01*
X13611667Y-13787524D02*
X13630714Y-13787524D01*
X13630714Y-13787524D02*
X13649762Y-13797048D01*
X13649762Y-13797048D02*
X13659286Y-13806571D01*
X13659286Y-13806571D02*
X13668810Y-13825619D01*
X13668810Y-13825619D02*
X13678333Y-13863714D01*
X13678333Y-13863714D02*
X13678333Y-13911333D01*
X13678333Y-13911333D02*
X13668810Y-13949428D01*
X13668810Y-13949428D02*
X13659286Y-13968476D01*
X13659286Y-13968476D02*
X13649762Y-13978000D01*
X13649762Y-13978000D02*
X13630714Y-13987524D01*
X13630714Y-13987524D02*
X13611667Y-13987524D01*
X13611667Y-13987524D02*
X13592619Y-13978000D01*
X13592619Y-13978000D02*
X13583095Y-13968476D01*
X13583095Y-13968476D02*
X13573572Y-13949428D01*
X13573572Y-13949428D02*
X13564048Y-13911333D01*
X13564048Y-13911333D02*
X13564048Y-13863714D01*
X13564048Y-13863714D02*
X13573572Y-13825619D01*
X13573572Y-13825619D02*
X13583095Y-13806571D01*
X13583095Y-13806571D02*
X13592619Y-13797048D01*
X13592619Y-13797048D02*
X13611667Y-13787524D01*
X13745000Y-13787524D02*
X13878333Y-13787524D01*
X13878333Y-13787524D02*
X13792619Y-13987524D01*
X13964048Y-13987524D02*
X14002143Y-13987524D01*
X14002143Y-13987524D02*
X14021191Y-13978000D01*
X14021191Y-13978000D02*
X14030714Y-13968476D01*
X14030714Y-13968476D02*
X14049762Y-13939905D01*
X14049762Y-13939905D02*
X14059286Y-13901809D01*
X14059286Y-13901809D02*
X14059286Y-13825619D01*
X14059286Y-13825619D02*
X14049762Y-13806571D01*
X14049762Y-13806571D02*
X14040238Y-13797048D01*
X14040238Y-13797048D02*
X14021191Y-13787524D01*
X14021191Y-13787524D02*
X13983095Y-13787524D01*
X13983095Y-13787524D02*
X13964048Y-13797048D01*
X13964048Y-13797048D02*
X13954524Y-13806571D01*
X13954524Y-13806571D02*
X13945000Y-13825619D01*
X13945000Y-13825619D02*
X13945000Y-13873238D01*
X13945000Y-13873238D02*
X13954524Y-13892286D01*
X13954524Y-13892286D02*
X13964048Y-13901809D01*
X13964048Y-13901809D02*
X13983095Y-13911333D01*
X13983095Y-13911333D02*
X14021191Y-13911333D01*
X14021191Y-13911333D02*
X14040238Y-13901809D01*
X14040238Y-13901809D02*
X14049762Y-13892286D01*
X14049762Y-13892286D02*
X14059286Y-13873238D01*
X14135476Y-13787524D02*
X14135476Y-13825619D01*
X14211667Y-13787524D02*
X14211667Y-13825619D01*
X14506905Y-14063714D02*
X14497381Y-14054190D01*
X14497381Y-14054190D02*
X14478334Y-14025619D01*
X14478334Y-14025619D02*
X14468810Y-14006571D01*
X14468810Y-14006571D02*
X14459286Y-13978000D01*
X14459286Y-13978000D02*
X14449762Y-13930381D01*
X14449762Y-13930381D02*
X14449762Y-13892286D01*
X14449762Y-13892286D02*
X14459286Y-13844667D01*
X14459286Y-13844667D02*
X14468810Y-13816095D01*
X14468810Y-13816095D02*
X14478334Y-13797048D01*
X14478334Y-13797048D02*
X14497381Y-13768476D01*
X14497381Y-13768476D02*
X14506905Y-13758952D01*
X14573572Y-13806571D02*
X14583095Y-13797048D01*
X14583095Y-13797048D02*
X14602143Y-13787524D01*
X14602143Y-13787524D02*
X14649762Y-13787524D01*
X14649762Y-13787524D02*
X14668810Y-13797048D01*
X14668810Y-13797048D02*
X14678334Y-13806571D01*
X14678334Y-13806571D02*
X14687857Y-13825619D01*
X14687857Y-13825619D02*
X14687857Y-13844667D01*
X14687857Y-13844667D02*
X14678334Y-13873238D01*
X14678334Y-13873238D02*
X14564048Y-13987524D01*
X14564048Y-13987524D02*
X14687857Y-13987524D01*
X14878334Y-13987524D02*
X14764048Y-13987524D01*
X14821191Y-13987524D02*
X14821191Y-13787524D01*
X14821191Y-13787524D02*
X14802143Y-13816095D01*
X14802143Y-13816095D02*
X14783095Y-13835143D01*
X14783095Y-13835143D02*
X14764048Y-13844667D01*
X15059286Y-13787524D02*
X14964048Y-13787524D01*
X14964048Y-13787524D02*
X14954524Y-13882762D01*
X14954524Y-13882762D02*
X14964048Y-13873238D01*
X14964048Y-13873238D02*
X14983095Y-13863714D01*
X14983095Y-13863714D02*
X15030715Y-13863714D01*
X15030715Y-13863714D02*
X15049762Y-13873238D01*
X15049762Y-13873238D02*
X15059286Y-13882762D01*
X15059286Y-13882762D02*
X15068810Y-13901809D01*
X15068810Y-13901809D02*
X15068810Y-13949428D01*
X15068810Y-13949428D02*
X15059286Y-13968476D01*
X15059286Y-13968476D02*
X15049762Y-13978000D01*
X15049762Y-13978000D02*
X15030715Y-13987524D01*
X15030715Y-13987524D02*
X14983095Y-13987524D01*
X14983095Y-13987524D02*
X14964048Y-13978000D01*
X14964048Y-13978000D02*
X14954524Y-13968476D01*
X15306905Y-13987524D02*
X15306905Y-13787524D01*
X15392619Y-13987524D02*
X15392619Y-13882762D01*
X15392619Y-13882762D02*
X15383096Y-13863714D01*
X15383096Y-13863714D02*
X15364048Y-13854190D01*
X15364048Y-13854190D02*
X15335476Y-13854190D01*
X15335476Y-13854190D02*
X15316429Y-13863714D01*
X15316429Y-13863714D02*
X15306905Y-13873238D01*
X15516429Y-13987524D02*
X15497381Y-13978000D01*
X15497381Y-13978000D02*
X15487857Y-13968476D01*
X15487857Y-13968476D02*
X15478334Y-13949428D01*
X15478334Y-13949428D02*
X15478334Y-13892286D01*
X15478334Y-13892286D02*
X15487857Y-13873238D01*
X15487857Y-13873238D02*
X15497381Y-13863714D01*
X15497381Y-13863714D02*
X15516429Y-13854190D01*
X15516429Y-13854190D02*
X15545000Y-13854190D01*
X15545000Y-13854190D02*
X15564048Y-13863714D01*
X15564048Y-13863714D02*
X15573572Y-13873238D01*
X15573572Y-13873238D02*
X15583096Y-13892286D01*
X15583096Y-13892286D02*
X15583096Y-13949428D01*
X15583096Y-13949428D02*
X15573572Y-13968476D01*
X15573572Y-13968476D02*
X15564048Y-13978000D01*
X15564048Y-13978000D02*
X15545000Y-13987524D01*
X15545000Y-13987524D02*
X15516429Y-13987524D01*
X15697381Y-13987524D02*
X15678334Y-13978000D01*
X15678334Y-13978000D02*
X15668810Y-13958952D01*
X15668810Y-13958952D02*
X15668810Y-13787524D01*
X15849762Y-13978000D02*
X15830715Y-13987524D01*
X15830715Y-13987524D02*
X15792619Y-13987524D01*
X15792619Y-13987524D02*
X15773572Y-13978000D01*
X15773572Y-13978000D02*
X15764048Y-13958952D01*
X15764048Y-13958952D02*
X15764048Y-13882762D01*
X15764048Y-13882762D02*
X15773572Y-13863714D01*
X15773572Y-13863714D02*
X15792619Y-13854190D01*
X15792619Y-13854190D02*
X15830715Y-13854190D01*
X15830715Y-13854190D02*
X15849762Y-13863714D01*
X15849762Y-13863714D02*
X15859286Y-13882762D01*
X15859286Y-13882762D02*
X15859286Y-13901809D01*
X15859286Y-13901809D02*
X15764048Y-13920857D01*
X15935477Y-13978000D02*
X15954524Y-13987524D01*
X15954524Y-13987524D02*
X15992619Y-13987524D01*
X15992619Y-13987524D02*
X16011667Y-13978000D01*
X16011667Y-13978000D02*
X16021191Y-13958952D01*
X16021191Y-13958952D02*
X16021191Y-13949428D01*
X16021191Y-13949428D02*
X16011667Y-13930381D01*
X16011667Y-13930381D02*
X15992619Y-13920857D01*
X15992619Y-13920857D02*
X15964048Y-13920857D01*
X15964048Y-13920857D02*
X15945000Y-13911333D01*
X15945000Y-13911333D02*
X15935477Y-13892286D01*
X15935477Y-13892286D02*
X15935477Y-13882762D01*
X15935477Y-13882762D02*
X15945000Y-13863714D01*
X15945000Y-13863714D02*
X15964048Y-13854190D01*
X15964048Y-13854190D02*
X15992619Y-13854190D01*
X15992619Y-13854190D02*
X16011667Y-13863714D01*
X16087858Y-14063714D02*
X16097381Y-14054190D01*
X16097381Y-14054190D02*
X16116429Y-14025619D01*
X16116429Y-14025619D02*
X16125953Y-14006571D01*
X16125953Y-14006571D02*
X16135477Y-13978000D01*
X16135477Y-13978000D02*
X16145000Y-13930381D01*
X16145000Y-13930381D02*
X16145000Y-13892286D01*
X16145000Y-13892286D02*
X16135477Y-13844667D01*
X16135477Y-13844667D02*
X16125953Y-13816095D01*
X16125953Y-13816095D02*
X16116429Y-13797048D01*
X16116429Y-13797048D02*
X16097381Y-13768476D01*
X16097381Y-13768476D02*
X16087858Y-13758952D01*
D13*
X10945000Y-14159000D02*
G75*
G03*
X10945000Y-14159000I-30000J0D01*
G01*
D11*
X11230714Y-14051524D02*
X11249762Y-14051524D01*
X11249762Y-14051524D02*
X11268809Y-14061048D01*
X11268809Y-14061048D02*
X11278333Y-14070571D01*
X11278333Y-14070571D02*
X11287857Y-14089619D01*
X11287857Y-14089619D02*
X11297381Y-14127714D01*
X11297381Y-14127714D02*
X11297381Y-14175333D01*
X11297381Y-14175333D02*
X11287857Y-14213428D01*
X11287857Y-14213428D02*
X11278333Y-14232476D01*
X11278333Y-14232476D02*
X11268809Y-14242000D01*
X11268809Y-14242000D02*
X11249762Y-14251524D01*
X11249762Y-14251524D02*
X11230714Y-14251524D01*
X11230714Y-14251524D02*
X11211667Y-14242000D01*
X11211667Y-14242000D02*
X11202143Y-14232476D01*
X11202143Y-14232476D02*
X11192619Y-14213428D01*
X11192619Y-14213428D02*
X11183095Y-14175333D01*
X11183095Y-14175333D02*
X11183095Y-14127714D01*
X11183095Y-14127714D02*
X11192619Y-14089619D01*
X11192619Y-14089619D02*
X11202143Y-14070571D01*
X11202143Y-14070571D02*
X11211667Y-14061048D01*
X11211667Y-14061048D02*
X11230714Y-14051524D01*
X11383095Y-14232476D02*
X11392619Y-14242000D01*
X11392619Y-14242000D02*
X11383095Y-14251524D01*
X11383095Y-14251524D02*
X11373571Y-14242000D01*
X11373571Y-14242000D02*
X11383095Y-14232476D01*
X11383095Y-14232476D02*
X11383095Y-14251524D01*
X11564048Y-14051524D02*
X11525952Y-14051524D01*
X11525952Y-14051524D02*
X11506905Y-14061048D01*
X11506905Y-14061048D02*
X11497381Y-14070571D01*
X11497381Y-14070571D02*
X11478333Y-14099143D01*
X11478333Y-14099143D02*
X11468809Y-14137238D01*
X11468809Y-14137238D02*
X11468809Y-14213428D01*
X11468809Y-14213428D02*
X11478333Y-14232476D01*
X11478333Y-14232476D02*
X11487857Y-14242000D01*
X11487857Y-14242000D02*
X11506905Y-14251524D01*
X11506905Y-14251524D02*
X11545000Y-14251524D01*
X11545000Y-14251524D02*
X11564048Y-14242000D01*
X11564048Y-14242000D02*
X11573571Y-14232476D01*
X11573571Y-14232476D02*
X11583095Y-14213428D01*
X11583095Y-14213428D02*
X11583095Y-14165809D01*
X11583095Y-14165809D02*
X11573571Y-14146762D01*
X11573571Y-14146762D02*
X11564048Y-14137238D01*
X11564048Y-14137238D02*
X11545000Y-14127714D01*
X11545000Y-14127714D02*
X11506905Y-14127714D01*
X11506905Y-14127714D02*
X11487857Y-14137238D01*
X11487857Y-14137238D02*
X11478333Y-14146762D01*
X11478333Y-14146762D02*
X11468809Y-14165809D01*
X11706905Y-14051524D02*
X11725952Y-14051524D01*
X11725952Y-14051524D02*
X11745000Y-14061048D01*
X11745000Y-14061048D02*
X11754524Y-14070571D01*
X11754524Y-14070571D02*
X11764048Y-14089619D01*
X11764048Y-14089619D02*
X11773571Y-14127714D01*
X11773571Y-14127714D02*
X11773571Y-14175333D01*
X11773571Y-14175333D02*
X11764048Y-14213428D01*
X11764048Y-14213428D02*
X11754524Y-14232476D01*
X11754524Y-14232476D02*
X11745000Y-14242000D01*
X11745000Y-14242000D02*
X11725952Y-14251524D01*
X11725952Y-14251524D02*
X11706905Y-14251524D01*
X11706905Y-14251524D02*
X11687857Y-14242000D01*
X11687857Y-14242000D02*
X11678333Y-14232476D01*
X11678333Y-14232476D02*
X11668809Y-14213428D01*
X11668809Y-14213428D02*
X11659286Y-14175333D01*
X11659286Y-14175333D02*
X11659286Y-14127714D01*
X11659286Y-14127714D02*
X11668809Y-14089619D01*
X11668809Y-14089619D02*
X11678333Y-14070571D01*
X11678333Y-14070571D02*
X11687857Y-14061048D01*
X11687857Y-14061048D02*
X11706905Y-14051524D01*
X11897381Y-14051524D02*
X11916429Y-14051524D01*
X11916429Y-14051524D02*
X11935476Y-14061048D01*
X11935476Y-14061048D02*
X11945000Y-14070571D01*
X11945000Y-14070571D02*
X11954524Y-14089619D01*
X11954524Y-14089619D02*
X11964048Y-14127714D01*
X11964048Y-14127714D02*
X11964048Y-14175333D01*
X11964048Y-14175333D02*
X11954524Y-14213428D01*
X11954524Y-14213428D02*
X11945000Y-14232476D01*
X11945000Y-14232476D02*
X11935476Y-14242000D01*
X11935476Y-14242000D02*
X11916429Y-14251524D01*
X11916429Y-14251524D02*
X11897381Y-14251524D01*
X11897381Y-14251524D02*
X11878333Y-14242000D01*
X11878333Y-14242000D02*
X11868809Y-14232476D01*
X11868809Y-14232476D02*
X11859286Y-14213428D01*
X11859286Y-14213428D02*
X11849762Y-14175333D01*
X11849762Y-14175333D02*
X11849762Y-14127714D01*
X11849762Y-14127714D02*
X11859286Y-14089619D01*
X11859286Y-14089619D02*
X11868809Y-14070571D01*
X11868809Y-14070571D02*
X11878333Y-14061048D01*
X11878333Y-14061048D02*
X11897381Y-14051524D01*
X12049762Y-14251524D02*
X12049762Y-14118190D01*
X12049762Y-14137238D02*
X12059286Y-14127714D01*
X12059286Y-14127714D02*
X12078333Y-14118190D01*
X12078333Y-14118190D02*
X12106905Y-14118190D01*
X12106905Y-14118190D02*
X12125952Y-14127714D01*
X12125952Y-14127714D02*
X12135476Y-14146762D01*
X12135476Y-14146762D02*
X12135476Y-14251524D01*
X12135476Y-14146762D02*
X12145000Y-14127714D01*
X12145000Y-14127714D02*
X12164048Y-14118190D01*
X12164048Y-14118190D02*
X12192619Y-14118190D01*
X12192619Y-14118190D02*
X12211667Y-14127714D01*
X12211667Y-14127714D02*
X12221190Y-14146762D01*
X12221190Y-14146762D02*
X12221190Y-14251524D01*
X12316429Y-14251524D02*
X12316429Y-14118190D01*
X12316429Y-14137238D02*
X12325952Y-14127714D01*
X12325952Y-14127714D02*
X12345000Y-14118190D01*
X12345000Y-14118190D02*
X12373571Y-14118190D01*
X12373571Y-14118190D02*
X12392619Y-14127714D01*
X12392619Y-14127714D02*
X12402143Y-14146762D01*
X12402143Y-14146762D02*
X12402143Y-14251524D01*
X12402143Y-14146762D02*
X12411667Y-14127714D01*
X12411667Y-14127714D02*
X12430714Y-14118190D01*
X12430714Y-14118190D02*
X12459286Y-14118190D01*
X12459286Y-14118190D02*
X12478333Y-14127714D01*
X12478333Y-14127714D02*
X12487857Y-14146762D01*
X12487857Y-14146762D02*
X12487857Y-14251524D01*
X12878333Y-14042000D02*
X12706905Y-14299143D01*
X13135476Y-14051524D02*
X13154524Y-14051524D01*
X13154524Y-14051524D02*
X13173572Y-14061048D01*
X13173572Y-14061048D02*
X13183095Y-14070571D01*
X13183095Y-14070571D02*
X13192619Y-14089619D01*
X13192619Y-14089619D02*
X13202143Y-14127714D01*
X13202143Y-14127714D02*
X13202143Y-14175333D01*
X13202143Y-14175333D02*
X13192619Y-14213428D01*
X13192619Y-14213428D02*
X13183095Y-14232476D01*
X13183095Y-14232476D02*
X13173572Y-14242000D01*
X13173572Y-14242000D02*
X13154524Y-14251524D01*
X13154524Y-14251524D02*
X13135476Y-14251524D01*
X13135476Y-14251524D02*
X13116429Y-14242000D01*
X13116429Y-14242000D02*
X13106905Y-14232476D01*
X13106905Y-14232476D02*
X13097381Y-14213428D01*
X13097381Y-14213428D02*
X13087857Y-14175333D01*
X13087857Y-14175333D02*
X13087857Y-14127714D01*
X13087857Y-14127714D02*
X13097381Y-14089619D01*
X13097381Y-14089619D02*
X13106905Y-14070571D01*
X13106905Y-14070571D02*
X13116429Y-14061048D01*
X13116429Y-14061048D02*
X13135476Y-14051524D01*
X13287857Y-14232476D02*
X13297381Y-14242000D01*
X13297381Y-14242000D02*
X13287857Y-14251524D01*
X13287857Y-14251524D02*
X13278333Y-14242000D01*
X13278333Y-14242000D02*
X13287857Y-14232476D01*
X13287857Y-14232476D02*
X13287857Y-14251524D01*
X13421191Y-14051524D02*
X13440238Y-14051524D01*
X13440238Y-14051524D02*
X13459286Y-14061048D01*
X13459286Y-14061048D02*
X13468810Y-14070571D01*
X13468810Y-14070571D02*
X13478333Y-14089619D01*
X13478333Y-14089619D02*
X13487857Y-14127714D01*
X13487857Y-14127714D02*
X13487857Y-14175333D01*
X13487857Y-14175333D02*
X13478333Y-14213428D01*
X13478333Y-14213428D02*
X13468810Y-14232476D01*
X13468810Y-14232476D02*
X13459286Y-14242000D01*
X13459286Y-14242000D02*
X13440238Y-14251524D01*
X13440238Y-14251524D02*
X13421191Y-14251524D01*
X13421191Y-14251524D02*
X13402143Y-14242000D01*
X13402143Y-14242000D02*
X13392619Y-14232476D01*
X13392619Y-14232476D02*
X13383095Y-14213428D01*
X13383095Y-14213428D02*
X13373572Y-14175333D01*
X13373572Y-14175333D02*
X13373572Y-14127714D01*
X13373572Y-14127714D02*
X13383095Y-14089619D01*
X13383095Y-14089619D02*
X13392619Y-14070571D01*
X13392619Y-14070571D02*
X13402143Y-14061048D01*
X13402143Y-14061048D02*
X13421191Y-14051524D01*
X13564048Y-14070571D02*
X13573572Y-14061048D01*
X13573572Y-14061048D02*
X13592619Y-14051524D01*
X13592619Y-14051524D02*
X13640238Y-14051524D01*
X13640238Y-14051524D02*
X13659286Y-14061048D01*
X13659286Y-14061048D02*
X13668810Y-14070571D01*
X13668810Y-14070571D02*
X13678333Y-14089619D01*
X13678333Y-14089619D02*
X13678333Y-14108667D01*
X13678333Y-14108667D02*
X13668810Y-14137238D01*
X13668810Y-14137238D02*
X13554524Y-14251524D01*
X13554524Y-14251524D02*
X13678333Y-14251524D01*
X13745000Y-14051524D02*
X13868810Y-14051524D01*
X13868810Y-14051524D02*
X13802143Y-14127714D01*
X13802143Y-14127714D02*
X13830714Y-14127714D01*
X13830714Y-14127714D02*
X13849762Y-14137238D01*
X13849762Y-14137238D02*
X13859286Y-14146762D01*
X13859286Y-14146762D02*
X13868810Y-14165809D01*
X13868810Y-14165809D02*
X13868810Y-14213428D01*
X13868810Y-14213428D02*
X13859286Y-14232476D01*
X13859286Y-14232476D02*
X13849762Y-14242000D01*
X13849762Y-14242000D02*
X13830714Y-14251524D01*
X13830714Y-14251524D02*
X13773572Y-14251524D01*
X13773572Y-14251524D02*
X13754524Y-14242000D01*
X13754524Y-14242000D02*
X13745000Y-14232476D01*
X14040238Y-14051524D02*
X14002143Y-14051524D01*
X14002143Y-14051524D02*
X13983095Y-14061048D01*
X13983095Y-14061048D02*
X13973572Y-14070571D01*
X13973572Y-14070571D02*
X13954524Y-14099143D01*
X13954524Y-14099143D02*
X13945000Y-14137238D01*
X13945000Y-14137238D02*
X13945000Y-14213428D01*
X13945000Y-14213428D02*
X13954524Y-14232476D01*
X13954524Y-14232476D02*
X13964048Y-14242000D01*
X13964048Y-14242000D02*
X13983095Y-14251524D01*
X13983095Y-14251524D02*
X14021191Y-14251524D01*
X14021191Y-14251524D02*
X14040238Y-14242000D01*
X14040238Y-14242000D02*
X14049762Y-14232476D01*
X14049762Y-14232476D02*
X14059286Y-14213428D01*
X14059286Y-14213428D02*
X14059286Y-14165809D01*
X14059286Y-14165809D02*
X14049762Y-14146762D01*
X14049762Y-14146762D02*
X14040238Y-14137238D01*
X14040238Y-14137238D02*
X14021191Y-14127714D01*
X14021191Y-14127714D02*
X13983095Y-14127714D01*
X13983095Y-14127714D02*
X13964048Y-14137238D01*
X13964048Y-14137238D02*
X13954524Y-14146762D01*
X13954524Y-14146762D02*
X13945000Y-14165809D01*
X14135476Y-14051524D02*
X14135476Y-14089619D01*
X14211667Y-14051524D02*
X14211667Y-14089619D01*
X14506905Y-14327714D02*
X14497381Y-14318190D01*
X14497381Y-14318190D02*
X14478334Y-14289619D01*
X14478334Y-14289619D02*
X14468810Y-14270571D01*
X14468810Y-14270571D02*
X14459286Y-14242000D01*
X14459286Y-14242000D02*
X14449762Y-14194381D01*
X14449762Y-14194381D02*
X14449762Y-14156286D01*
X14449762Y-14156286D02*
X14459286Y-14108667D01*
X14459286Y-14108667D02*
X14468810Y-14080095D01*
X14468810Y-14080095D02*
X14478334Y-14061048D01*
X14478334Y-14061048D02*
X14497381Y-14032476D01*
X14497381Y-14032476D02*
X14506905Y-14022952D01*
X14621191Y-14051524D02*
X14640238Y-14051524D01*
X14640238Y-14051524D02*
X14659286Y-14061048D01*
X14659286Y-14061048D02*
X14668810Y-14070571D01*
X14668810Y-14070571D02*
X14678334Y-14089619D01*
X14678334Y-14089619D02*
X14687857Y-14127714D01*
X14687857Y-14127714D02*
X14687857Y-14175333D01*
X14687857Y-14175333D02*
X14678334Y-14213428D01*
X14678334Y-14213428D02*
X14668810Y-14232476D01*
X14668810Y-14232476D02*
X14659286Y-14242000D01*
X14659286Y-14242000D02*
X14640238Y-14251524D01*
X14640238Y-14251524D02*
X14621191Y-14251524D01*
X14621191Y-14251524D02*
X14602143Y-14242000D01*
X14602143Y-14242000D02*
X14592619Y-14232476D01*
X14592619Y-14232476D02*
X14583095Y-14213428D01*
X14583095Y-14213428D02*
X14573572Y-14175333D01*
X14573572Y-14175333D02*
X14573572Y-14127714D01*
X14573572Y-14127714D02*
X14583095Y-14089619D01*
X14583095Y-14089619D02*
X14592619Y-14070571D01*
X14592619Y-14070571D02*
X14602143Y-14061048D01*
X14602143Y-14061048D02*
X14621191Y-14051524D01*
X14925953Y-14251524D02*
X14925953Y-14051524D01*
X15011667Y-14251524D02*
X15011667Y-14146762D01*
X15011667Y-14146762D02*
X15002143Y-14127714D01*
X15002143Y-14127714D02*
X14983096Y-14118190D01*
X14983096Y-14118190D02*
X14954524Y-14118190D01*
X14954524Y-14118190D02*
X14935476Y-14127714D01*
X14935476Y-14127714D02*
X14925953Y-14137238D01*
X15135476Y-14251524D02*
X15116429Y-14242000D01*
X15116429Y-14242000D02*
X15106905Y-14232476D01*
X15106905Y-14232476D02*
X15097381Y-14213428D01*
X15097381Y-14213428D02*
X15097381Y-14156286D01*
X15097381Y-14156286D02*
X15106905Y-14137238D01*
X15106905Y-14137238D02*
X15116429Y-14127714D01*
X15116429Y-14127714D02*
X15135476Y-14118190D01*
X15135476Y-14118190D02*
X15164048Y-14118190D01*
X15164048Y-14118190D02*
X15183096Y-14127714D01*
X15183096Y-14127714D02*
X15192619Y-14137238D01*
X15192619Y-14137238D02*
X15202143Y-14156286D01*
X15202143Y-14156286D02*
X15202143Y-14213428D01*
X15202143Y-14213428D02*
X15192619Y-14232476D01*
X15192619Y-14232476D02*
X15183096Y-14242000D01*
X15183096Y-14242000D02*
X15164048Y-14251524D01*
X15164048Y-14251524D02*
X15135476Y-14251524D01*
X15316429Y-14251524D02*
X15297381Y-14242000D01*
X15297381Y-14242000D02*
X15287857Y-14222952D01*
X15287857Y-14222952D02*
X15287857Y-14051524D01*
X15468810Y-14242000D02*
X15449762Y-14251524D01*
X15449762Y-14251524D02*
X15411667Y-14251524D01*
X15411667Y-14251524D02*
X15392619Y-14242000D01*
X15392619Y-14242000D02*
X15383096Y-14222952D01*
X15383096Y-14222952D02*
X15383096Y-14146762D01*
X15383096Y-14146762D02*
X15392619Y-14127714D01*
X15392619Y-14127714D02*
X15411667Y-14118190D01*
X15411667Y-14118190D02*
X15449762Y-14118190D01*
X15449762Y-14118190D02*
X15468810Y-14127714D01*
X15468810Y-14127714D02*
X15478334Y-14146762D01*
X15478334Y-14146762D02*
X15478334Y-14165809D01*
X15478334Y-14165809D02*
X15383096Y-14184857D01*
X15554524Y-14242000D02*
X15573572Y-14251524D01*
X15573572Y-14251524D02*
X15611667Y-14251524D01*
X15611667Y-14251524D02*
X15630715Y-14242000D01*
X15630715Y-14242000D02*
X15640238Y-14222952D01*
X15640238Y-14222952D02*
X15640238Y-14213428D01*
X15640238Y-14213428D02*
X15630715Y-14194381D01*
X15630715Y-14194381D02*
X15611667Y-14184857D01*
X15611667Y-14184857D02*
X15583096Y-14184857D01*
X15583096Y-14184857D02*
X15564048Y-14175333D01*
X15564048Y-14175333D02*
X15554524Y-14156286D01*
X15554524Y-14156286D02*
X15554524Y-14146762D01*
X15554524Y-14146762D02*
X15564048Y-14127714D01*
X15564048Y-14127714D02*
X15583096Y-14118190D01*
X15583096Y-14118190D02*
X15611667Y-14118190D01*
X15611667Y-14118190D02*
X15630715Y-14127714D01*
X15878334Y-14175333D02*
X16030715Y-14175333D01*
X15954524Y-14251524D02*
X15954524Y-14099143D01*
X16306905Y-14137238D02*
X16287858Y-14127714D01*
X16287858Y-14127714D02*
X16278334Y-14118190D01*
X16278334Y-14118190D02*
X16268810Y-14099143D01*
X16268810Y-14099143D02*
X16268810Y-14089619D01*
X16268810Y-14089619D02*
X16278334Y-14070571D01*
X16278334Y-14070571D02*
X16287858Y-14061048D01*
X16287858Y-14061048D02*
X16306905Y-14051524D01*
X16306905Y-14051524D02*
X16345000Y-14051524D01*
X16345000Y-14051524D02*
X16364048Y-14061048D01*
X16364048Y-14061048D02*
X16373572Y-14070571D01*
X16373572Y-14070571D02*
X16383096Y-14089619D01*
X16383096Y-14089619D02*
X16383096Y-14099143D01*
X16383096Y-14099143D02*
X16373572Y-14118190D01*
X16373572Y-14118190D02*
X16364048Y-14127714D01*
X16364048Y-14127714D02*
X16345000Y-14137238D01*
X16345000Y-14137238D02*
X16306905Y-14137238D01*
X16306905Y-14137238D02*
X16287858Y-14146762D01*
X16287858Y-14146762D02*
X16278334Y-14156286D01*
X16278334Y-14156286D02*
X16268810Y-14175333D01*
X16268810Y-14175333D02*
X16268810Y-14213428D01*
X16268810Y-14213428D02*
X16278334Y-14232476D01*
X16278334Y-14232476D02*
X16287858Y-14242000D01*
X16287858Y-14242000D02*
X16306905Y-14251524D01*
X16306905Y-14251524D02*
X16345000Y-14251524D01*
X16345000Y-14251524D02*
X16364048Y-14242000D01*
X16364048Y-14242000D02*
X16373572Y-14232476D01*
X16373572Y-14232476D02*
X16383096Y-14213428D01*
X16383096Y-14213428D02*
X16383096Y-14175333D01*
X16383096Y-14175333D02*
X16373572Y-14156286D01*
X16373572Y-14156286D02*
X16364048Y-14146762D01*
X16364048Y-14146762D02*
X16345000Y-14137238D01*
X16611667Y-14242000D02*
X16630715Y-14251524D01*
X16630715Y-14251524D02*
X16668810Y-14251524D01*
X16668810Y-14251524D02*
X16687858Y-14242000D01*
X16687858Y-14242000D02*
X16697381Y-14222952D01*
X16697381Y-14222952D02*
X16697381Y-14213428D01*
X16697381Y-14213428D02*
X16687858Y-14194381D01*
X16687858Y-14194381D02*
X16668810Y-14184857D01*
X16668810Y-14184857D02*
X16640239Y-14184857D01*
X16640239Y-14184857D02*
X16621191Y-14175333D01*
X16621191Y-14175333D02*
X16611667Y-14156286D01*
X16611667Y-14156286D02*
X16611667Y-14146762D01*
X16611667Y-14146762D02*
X16621191Y-14127714D01*
X16621191Y-14127714D02*
X16640239Y-14118190D01*
X16640239Y-14118190D02*
X16668810Y-14118190D01*
X16668810Y-14118190D02*
X16687858Y-14127714D01*
X16811667Y-14251524D02*
X16792620Y-14242000D01*
X16792620Y-14242000D02*
X16783096Y-14222952D01*
X16783096Y-14222952D02*
X16783096Y-14051524D01*
X16916429Y-14251524D02*
X16897382Y-14242000D01*
X16897382Y-14242000D02*
X16887858Y-14232476D01*
X16887858Y-14232476D02*
X16878334Y-14213428D01*
X16878334Y-14213428D02*
X16878334Y-14156286D01*
X16878334Y-14156286D02*
X16887858Y-14137238D01*
X16887858Y-14137238D02*
X16897382Y-14127714D01*
X16897382Y-14127714D02*
X16916429Y-14118190D01*
X16916429Y-14118190D02*
X16945001Y-14118190D01*
X16945001Y-14118190D02*
X16964048Y-14127714D01*
X16964048Y-14127714D02*
X16973572Y-14137238D01*
X16973572Y-14137238D02*
X16983096Y-14156286D01*
X16983096Y-14156286D02*
X16983096Y-14213428D01*
X16983096Y-14213428D02*
X16973572Y-14232476D01*
X16973572Y-14232476D02*
X16964048Y-14242000D01*
X16964048Y-14242000D02*
X16945001Y-14251524D01*
X16945001Y-14251524D02*
X16916429Y-14251524D01*
X17040239Y-14118190D02*
X17116429Y-14118190D01*
X17068810Y-14051524D02*
X17068810Y-14222952D01*
X17068810Y-14222952D02*
X17078334Y-14242000D01*
X17078334Y-14242000D02*
X17097382Y-14251524D01*
X17097382Y-14251524D02*
X17116429Y-14251524D01*
X17173572Y-14242000D02*
X17192620Y-14251524D01*
X17192620Y-14251524D02*
X17230715Y-14251524D01*
X17230715Y-14251524D02*
X17249763Y-14242000D01*
X17249763Y-14242000D02*
X17259286Y-14222952D01*
X17259286Y-14222952D02*
X17259286Y-14213428D01*
X17259286Y-14213428D02*
X17249763Y-14194381D01*
X17249763Y-14194381D02*
X17230715Y-14184857D01*
X17230715Y-14184857D02*
X17202143Y-14184857D01*
X17202143Y-14184857D02*
X17183096Y-14175333D01*
X17183096Y-14175333D02*
X17173572Y-14156286D01*
X17173572Y-14156286D02*
X17173572Y-14146762D01*
X17173572Y-14146762D02*
X17183096Y-14127714D01*
X17183096Y-14127714D02*
X17202143Y-14118190D01*
X17202143Y-14118190D02*
X17230715Y-14118190D01*
X17230715Y-14118190D02*
X17249763Y-14127714D01*
X17325953Y-14327714D02*
X17335477Y-14318190D01*
X17335477Y-14318190D02*
X17354524Y-14289619D01*
X17354524Y-14289619D02*
X17364048Y-14270571D01*
X17364048Y-14270571D02*
X17373572Y-14242000D01*
X17373572Y-14242000D02*
X17383096Y-14194381D01*
X17383096Y-14194381D02*
X17383096Y-14156286D01*
X17383096Y-14156286D02*
X17373572Y-14108667D01*
X17373572Y-14108667D02*
X17364048Y-14080095D01*
X17364048Y-14080095D02*
X17354524Y-14061048D01*
X17354524Y-14061048D02*
X17335477Y-14032476D01*
X17335477Y-14032476D02*
X17325953Y-14022952D01*
D10*
X10895000Y-14373000D02*
X10895000Y-14473000D01*
X10845000Y-14423000D02*
X10945000Y-14423000D01*
D11*
X11297381Y-14515524D02*
X11183095Y-14515524D01*
X11240238Y-14515524D02*
X11240238Y-14315524D01*
X11240238Y-14315524D02*
X11221190Y-14344095D01*
X11221190Y-14344095D02*
X11202143Y-14363143D01*
X11202143Y-14363143D02*
X11183095Y-14372667D01*
X11383095Y-14496476D02*
X11392619Y-14506000D01*
X11392619Y-14506000D02*
X11383095Y-14515524D01*
X11383095Y-14515524D02*
X11373571Y-14506000D01*
X11373571Y-14506000D02*
X11383095Y-14496476D01*
X11383095Y-14496476D02*
X11383095Y-14515524D01*
X11516428Y-14315524D02*
X11535476Y-14315524D01*
X11535476Y-14315524D02*
X11554524Y-14325048D01*
X11554524Y-14325048D02*
X11564048Y-14334571D01*
X11564048Y-14334571D02*
X11573571Y-14353619D01*
X11573571Y-14353619D02*
X11583095Y-14391714D01*
X11583095Y-14391714D02*
X11583095Y-14439333D01*
X11583095Y-14439333D02*
X11573571Y-14477428D01*
X11573571Y-14477428D02*
X11564048Y-14496476D01*
X11564048Y-14496476D02*
X11554524Y-14506000D01*
X11554524Y-14506000D02*
X11535476Y-14515524D01*
X11535476Y-14515524D02*
X11516428Y-14515524D01*
X11516428Y-14515524D02*
X11497381Y-14506000D01*
X11497381Y-14506000D02*
X11487857Y-14496476D01*
X11487857Y-14496476D02*
X11478333Y-14477428D01*
X11478333Y-14477428D02*
X11468809Y-14439333D01*
X11468809Y-14439333D02*
X11468809Y-14391714D01*
X11468809Y-14391714D02*
X11478333Y-14353619D01*
X11478333Y-14353619D02*
X11487857Y-14334571D01*
X11487857Y-14334571D02*
X11497381Y-14325048D01*
X11497381Y-14325048D02*
X11516428Y-14315524D01*
X11706905Y-14315524D02*
X11725952Y-14315524D01*
X11725952Y-14315524D02*
X11745000Y-14325048D01*
X11745000Y-14325048D02*
X11754524Y-14334571D01*
X11754524Y-14334571D02*
X11764048Y-14353619D01*
X11764048Y-14353619D02*
X11773571Y-14391714D01*
X11773571Y-14391714D02*
X11773571Y-14439333D01*
X11773571Y-14439333D02*
X11764048Y-14477428D01*
X11764048Y-14477428D02*
X11754524Y-14496476D01*
X11754524Y-14496476D02*
X11745000Y-14506000D01*
X11745000Y-14506000D02*
X11725952Y-14515524D01*
X11725952Y-14515524D02*
X11706905Y-14515524D01*
X11706905Y-14515524D02*
X11687857Y-14506000D01*
X11687857Y-14506000D02*
X11678333Y-14496476D01*
X11678333Y-14496476D02*
X11668809Y-14477428D01*
X11668809Y-14477428D02*
X11659286Y-14439333D01*
X11659286Y-14439333D02*
X11659286Y-14391714D01*
X11659286Y-14391714D02*
X11668809Y-14353619D01*
X11668809Y-14353619D02*
X11678333Y-14334571D01*
X11678333Y-14334571D02*
X11687857Y-14325048D01*
X11687857Y-14325048D02*
X11706905Y-14315524D01*
X11897381Y-14315524D02*
X11916429Y-14315524D01*
X11916429Y-14315524D02*
X11935476Y-14325048D01*
X11935476Y-14325048D02*
X11945000Y-14334571D01*
X11945000Y-14334571D02*
X11954524Y-14353619D01*
X11954524Y-14353619D02*
X11964048Y-14391714D01*
X11964048Y-14391714D02*
X11964048Y-14439333D01*
X11964048Y-14439333D02*
X11954524Y-14477428D01*
X11954524Y-14477428D02*
X11945000Y-14496476D01*
X11945000Y-14496476D02*
X11935476Y-14506000D01*
X11935476Y-14506000D02*
X11916429Y-14515524D01*
X11916429Y-14515524D02*
X11897381Y-14515524D01*
X11897381Y-14515524D02*
X11878333Y-14506000D01*
X11878333Y-14506000D02*
X11868809Y-14496476D01*
X11868809Y-14496476D02*
X11859286Y-14477428D01*
X11859286Y-14477428D02*
X11849762Y-14439333D01*
X11849762Y-14439333D02*
X11849762Y-14391714D01*
X11849762Y-14391714D02*
X11859286Y-14353619D01*
X11859286Y-14353619D02*
X11868809Y-14334571D01*
X11868809Y-14334571D02*
X11878333Y-14325048D01*
X11878333Y-14325048D02*
X11897381Y-14315524D01*
X12049762Y-14515524D02*
X12049762Y-14382190D01*
X12049762Y-14401238D02*
X12059286Y-14391714D01*
X12059286Y-14391714D02*
X12078333Y-14382190D01*
X12078333Y-14382190D02*
X12106905Y-14382190D01*
X12106905Y-14382190D02*
X12125952Y-14391714D01*
X12125952Y-14391714D02*
X12135476Y-14410762D01*
X12135476Y-14410762D02*
X12135476Y-14515524D01*
X12135476Y-14410762D02*
X12145000Y-14391714D01*
X12145000Y-14391714D02*
X12164048Y-14382190D01*
X12164048Y-14382190D02*
X12192619Y-14382190D01*
X12192619Y-14382190D02*
X12211667Y-14391714D01*
X12211667Y-14391714D02*
X12221190Y-14410762D01*
X12221190Y-14410762D02*
X12221190Y-14515524D01*
X12316429Y-14515524D02*
X12316429Y-14382190D01*
X12316429Y-14401238D02*
X12325952Y-14391714D01*
X12325952Y-14391714D02*
X12345000Y-14382190D01*
X12345000Y-14382190D02*
X12373571Y-14382190D01*
X12373571Y-14382190D02*
X12392619Y-14391714D01*
X12392619Y-14391714D02*
X12402143Y-14410762D01*
X12402143Y-14410762D02*
X12402143Y-14515524D01*
X12402143Y-14410762D02*
X12411667Y-14391714D01*
X12411667Y-14391714D02*
X12430714Y-14382190D01*
X12430714Y-14382190D02*
X12459286Y-14382190D01*
X12459286Y-14382190D02*
X12478333Y-14391714D01*
X12478333Y-14391714D02*
X12487857Y-14410762D01*
X12487857Y-14410762D02*
X12487857Y-14515524D01*
X12878333Y-14306000D02*
X12706905Y-14563143D01*
X13135476Y-14315524D02*
X13154524Y-14315524D01*
X13154524Y-14315524D02*
X13173572Y-14325048D01*
X13173572Y-14325048D02*
X13183095Y-14334571D01*
X13183095Y-14334571D02*
X13192619Y-14353619D01*
X13192619Y-14353619D02*
X13202143Y-14391714D01*
X13202143Y-14391714D02*
X13202143Y-14439333D01*
X13202143Y-14439333D02*
X13192619Y-14477428D01*
X13192619Y-14477428D02*
X13183095Y-14496476D01*
X13183095Y-14496476D02*
X13173572Y-14506000D01*
X13173572Y-14506000D02*
X13154524Y-14515524D01*
X13154524Y-14515524D02*
X13135476Y-14515524D01*
X13135476Y-14515524D02*
X13116429Y-14506000D01*
X13116429Y-14506000D02*
X13106905Y-14496476D01*
X13106905Y-14496476D02*
X13097381Y-14477428D01*
X13097381Y-14477428D02*
X13087857Y-14439333D01*
X13087857Y-14439333D02*
X13087857Y-14391714D01*
X13087857Y-14391714D02*
X13097381Y-14353619D01*
X13097381Y-14353619D02*
X13106905Y-14334571D01*
X13106905Y-14334571D02*
X13116429Y-14325048D01*
X13116429Y-14325048D02*
X13135476Y-14315524D01*
X13287857Y-14496476D02*
X13297381Y-14506000D01*
X13297381Y-14506000D02*
X13287857Y-14515524D01*
X13287857Y-14515524D02*
X13278333Y-14506000D01*
X13278333Y-14506000D02*
X13287857Y-14496476D01*
X13287857Y-14496476D02*
X13287857Y-14515524D01*
X13421191Y-14315524D02*
X13440238Y-14315524D01*
X13440238Y-14315524D02*
X13459286Y-14325048D01*
X13459286Y-14325048D02*
X13468810Y-14334571D01*
X13468810Y-14334571D02*
X13478333Y-14353619D01*
X13478333Y-14353619D02*
X13487857Y-14391714D01*
X13487857Y-14391714D02*
X13487857Y-14439333D01*
X13487857Y-14439333D02*
X13478333Y-14477428D01*
X13478333Y-14477428D02*
X13468810Y-14496476D01*
X13468810Y-14496476D02*
X13459286Y-14506000D01*
X13459286Y-14506000D02*
X13440238Y-14515524D01*
X13440238Y-14515524D02*
X13421191Y-14515524D01*
X13421191Y-14515524D02*
X13402143Y-14506000D01*
X13402143Y-14506000D02*
X13392619Y-14496476D01*
X13392619Y-14496476D02*
X13383095Y-14477428D01*
X13383095Y-14477428D02*
X13373572Y-14439333D01*
X13373572Y-14439333D02*
X13373572Y-14391714D01*
X13373572Y-14391714D02*
X13383095Y-14353619D01*
X13383095Y-14353619D02*
X13392619Y-14334571D01*
X13392619Y-14334571D02*
X13402143Y-14325048D01*
X13402143Y-14325048D02*
X13421191Y-14315524D01*
X13554524Y-14315524D02*
X13678333Y-14315524D01*
X13678333Y-14315524D02*
X13611667Y-14391714D01*
X13611667Y-14391714D02*
X13640238Y-14391714D01*
X13640238Y-14391714D02*
X13659286Y-14401238D01*
X13659286Y-14401238D02*
X13668810Y-14410762D01*
X13668810Y-14410762D02*
X13678333Y-14429809D01*
X13678333Y-14429809D02*
X13678333Y-14477428D01*
X13678333Y-14477428D02*
X13668810Y-14496476D01*
X13668810Y-14496476D02*
X13659286Y-14506000D01*
X13659286Y-14506000D02*
X13640238Y-14515524D01*
X13640238Y-14515524D02*
X13583095Y-14515524D01*
X13583095Y-14515524D02*
X13564048Y-14506000D01*
X13564048Y-14506000D02*
X13554524Y-14496476D01*
X13773572Y-14515524D02*
X13811667Y-14515524D01*
X13811667Y-14515524D02*
X13830714Y-14506000D01*
X13830714Y-14506000D02*
X13840238Y-14496476D01*
X13840238Y-14496476D02*
X13859286Y-14467905D01*
X13859286Y-14467905D02*
X13868810Y-14429809D01*
X13868810Y-14429809D02*
X13868810Y-14353619D01*
X13868810Y-14353619D02*
X13859286Y-14334571D01*
X13859286Y-14334571D02*
X13849762Y-14325048D01*
X13849762Y-14325048D02*
X13830714Y-14315524D01*
X13830714Y-14315524D02*
X13792619Y-14315524D01*
X13792619Y-14315524D02*
X13773572Y-14325048D01*
X13773572Y-14325048D02*
X13764048Y-14334571D01*
X13764048Y-14334571D02*
X13754524Y-14353619D01*
X13754524Y-14353619D02*
X13754524Y-14401238D01*
X13754524Y-14401238D02*
X13764048Y-14420286D01*
X13764048Y-14420286D02*
X13773572Y-14429809D01*
X13773572Y-14429809D02*
X13792619Y-14439333D01*
X13792619Y-14439333D02*
X13830714Y-14439333D01*
X13830714Y-14439333D02*
X13849762Y-14429809D01*
X13849762Y-14429809D02*
X13859286Y-14420286D01*
X13859286Y-14420286D02*
X13868810Y-14401238D01*
X14040238Y-14382190D02*
X14040238Y-14515524D01*
X13992619Y-14306000D02*
X13945000Y-14448857D01*
X13945000Y-14448857D02*
X14068810Y-14448857D01*
X14135476Y-14315524D02*
X14135476Y-14353619D01*
X14211667Y-14315524D02*
X14211667Y-14353619D01*
X14506905Y-14591714D02*
X14497381Y-14582190D01*
X14497381Y-14582190D02*
X14478334Y-14553619D01*
X14478334Y-14553619D02*
X14468810Y-14534571D01*
X14468810Y-14534571D02*
X14459286Y-14506000D01*
X14459286Y-14506000D02*
X14449762Y-14458381D01*
X14449762Y-14458381D02*
X14449762Y-14420286D01*
X14449762Y-14420286D02*
X14459286Y-14372667D01*
X14459286Y-14372667D02*
X14468810Y-14344095D01*
X14468810Y-14344095D02*
X14478334Y-14325048D01*
X14478334Y-14325048D02*
X14497381Y-14296476D01*
X14497381Y-14296476D02*
X14506905Y-14286952D01*
X14668810Y-14315524D02*
X14630714Y-14315524D01*
X14630714Y-14315524D02*
X14611667Y-14325048D01*
X14611667Y-14325048D02*
X14602143Y-14334571D01*
X14602143Y-14334571D02*
X14583095Y-14363143D01*
X14583095Y-14363143D02*
X14573572Y-14401238D01*
X14573572Y-14401238D02*
X14573572Y-14477428D01*
X14573572Y-14477428D02*
X14583095Y-14496476D01*
X14583095Y-14496476D02*
X14592619Y-14506000D01*
X14592619Y-14506000D02*
X14611667Y-14515524D01*
X14611667Y-14515524D02*
X14649762Y-14515524D01*
X14649762Y-14515524D02*
X14668810Y-14506000D01*
X14668810Y-14506000D02*
X14678334Y-14496476D01*
X14678334Y-14496476D02*
X14687857Y-14477428D01*
X14687857Y-14477428D02*
X14687857Y-14429809D01*
X14687857Y-14429809D02*
X14678334Y-14410762D01*
X14678334Y-14410762D02*
X14668810Y-14401238D01*
X14668810Y-14401238D02*
X14649762Y-14391714D01*
X14649762Y-14391714D02*
X14611667Y-14391714D01*
X14611667Y-14391714D02*
X14592619Y-14401238D01*
X14592619Y-14401238D02*
X14583095Y-14410762D01*
X14583095Y-14410762D02*
X14573572Y-14429809D01*
X14925953Y-14515524D02*
X14925953Y-14315524D01*
X15011667Y-14515524D02*
X15011667Y-14410762D01*
X15011667Y-14410762D02*
X15002143Y-14391714D01*
X15002143Y-14391714D02*
X14983096Y-14382190D01*
X14983096Y-14382190D02*
X14954524Y-14382190D01*
X14954524Y-14382190D02*
X14935476Y-14391714D01*
X14935476Y-14391714D02*
X14925953Y-14401238D01*
X15135476Y-14515524D02*
X15116429Y-14506000D01*
X15116429Y-14506000D02*
X15106905Y-14496476D01*
X15106905Y-14496476D02*
X15097381Y-14477428D01*
X15097381Y-14477428D02*
X15097381Y-14420286D01*
X15097381Y-14420286D02*
X15106905Y-14401238D01*
X15106905Y-14401238D02*
X15116429Y-14391714D01*
X15116429Y-14391714D02*
X15135476Y-14382190D01*
X15135476Y-14382190D02*
X15164048Y-14382190D01*
X15164048Y-14382190D02*
X15183096Y-14391714D01*
X15183096Y-14391714D02*
X15192619Y-14401238D01*
X15192619Y-14401238D02*
X15202143Y-14420286D01*
X15202143Y-14420286D02*
X15202143Y-14477428D01*
X15202143Y-14477428D02*
X15192619Y-14496476D01*
X15192619Y-14496476D02*
X15183096Y-14506000D01*
X15183096Y-14506000D02*
X15164048Y-14515524D01*
X15164048Y-14515524D02*
X15135476Y-14515524D01*
X15316429Y-14515524D02*
X15297381Y-14506000D01*
X15297381Y-14506000D02*
X15287857Y-14486952D01*
X15287857Y-14486952D02*
X15287857Y-14315524D01*
X15468810Y-14506000D02*
X15449762Y-14515524D01*
X15449762Y-14515524D02*
X15411667Y-14515524D01*
X15411667Y-14515524D02*
X15392619Y-14506000D01*
X15392619Y-14506000D02*
X15383096Y-14486952D01*
X15383096Y-14486952D02*
X15383096Y-14410762D01*
X15383096Y-14410762D02*
X15392619Y-14391714D01*
X15392619Y-14391714D02*
X15411667Y-14382190D01*
X15411667Y-14382190D02*
X15449762Y-14382190D01*
X15449762Y-14382190D02*
X15468810Y-14391714D01*
X15468810Y-14391714D02*
X15478334Y-14410762D01*
X15478334Y-14410762D02*
X15478334Y-14429809D01*
X15478334Y-14429809D02*
X15383096Y-14448857D01*
X15554524Y-14506000D02*
X15573572Y-14515524D01*
X15573572Y-14515524D02*
X15611667Y-14515524D01*
X15611667Y-14515524D02*
X15630715Y-14506000D01*
X15630715Y-14506000D02*
X15640238Y-14486952D01*
X15640238Y-14486952D02*
X15640238Y-14477428D01*
X15640238Y-14477428D02*
X15630715Y-14458381D01*
X15630715Y-14458381D02*
X15611667Y-14448857D01*
X15611667Y-14448857D02*
X15583096Y-14448857D01*
X15583096Y-14448857D02*
X15564048Y-14439333D01*
X15564048Y-14439333D02*
X15554524Y-14420286D01*
X15554524Y-14420286D02*
X15554524Y-14410762D01*
X15554524Y-14410762D02*
X15564048Y-14391714D01*
X15564048Y-14391714D02*
X15583096Y-14382190D01*
X15583096Y-14382190D02*
X15611667Y-14382190D01*
X15611667Y-14382190D02*
X15630715Y-14391714D01*
X15706905Y-14591714D02*
X15716429Y-14582190D01*
X15716429Y-14582190D02*
X15735477Y-14553619D01*
X15735477Y-14553619D02*
X15745000Y-14534571D01*
X15745000Y-14534571D02*
X15754524Y-14506000D01*
X15754524Y-14506000D02*
X15764048Y-14458381D01*
X15764048Y-14458381D02*
X15764048Y-14420286D01*
X15764048Y-14420286D02*
X15754524Y-14372667D01*
X15754524Y-14372667D02*
X15745000Y-14344095D01*
X15745000Y-14344095D02*
X15735477Y-14325048D01*
X15735477Y-14325048D02*
X15716429Y-14296476D01*
X15716429Y-14296476D02*
X15706905Y-14286952D01*
D14*
X10925962Y-14732962D02*
X10925962Y-14641038D01*
X10834038Y-14641038D01*
X10834038Y-14732962D01*
X10925962Y-14732962D01*
D11*
X11297381Y-14779524D02*
X11183095Y-14779524D01*
X11240238Y-14779524D02*
X11240238Y-14579524D01*
X11240238Y-14579524D02*
X11221190Y-14608095D01*
X11221190Y-14608095D02*
X11202143Y-14627143D01*
X11202143Y-14627143D02*
X11183095Y-14636667D01*
X11383095Y-14760476D02*
X11392619Y-14770000D01*
X11392619Y-14770000D02*
X11383095Y-14779524D01*
X11383095Y-14779524D02*
X11373571Y-14770000D01*
X11373571Y-14770000D02*
X11383095Y-14760476D01*
X11383095Y-14760476D02*
X11383095Y-14779524D01*
X11459286Y-14579524D02*
X11583095Y-14579524D01*
X11583095Y-14579524D02*
X11516428Y-14655714D01*
X11516428Y-14655714D02*
X11545000Y-14655714D01*
X11545000Y-14655714D02*
X11564048Y-14665238D01*
X11564048Y-14665238D02*
X11573571Y-14674762D01*
X11573571Y-14674762D02*
X11583095Y-14693809D01*
X11583095Y-14693809D02*
X11583095Y-14741428D01*
X11583095Y-14741428D02*
X11573571Y-14760476D01*
X11573571Y-14760476D02*
X11564048Y-14770000D01*
X11564048Y-14770000D02*
X11545000Y-14779524D01*
X11545000Y-14779524D02*
X11487857Y-14779524D01*
X11487857Y-14779524D02*
X11468809Y-14770000D01*
X11468809Y-14770000D02*
X11459286Y-14760476D01*
X11706905Y-14579524D02*
X11725952Y-14579524D01*
X11725952Y-14579524D02*
X11745000Y-14589048D01*
X11745000Y-14589048D02*
X11754524Y-14598571D01*
X11754524Y-14598571D02*
X11764048Y-14617619D01*
X11764048Y-14617619D02*
X11773571Y-14655714D01*
X11773571Y-14655714D02*
X11773571Y-14703333D01*
X11773571Y-14703333D02*
X11764048Y-14741428D01*
X11764048Y-14741428D02*
X11754524Y-14760476D01*
X11754524Y-14760476D02*
X11745000Y-14770000D01*
X11745000Y-14770000D02*
X11725952Y-14779524D01*
X11725952Y-14779524D02*
X11706905Y-14779524D01*
X11706905Y-14779524D02*
X11687857Y-14770000D01*
X11687857Y-14770000D02*
X11678333Y-14760476D01*
X11678333Y-14760476D02*
X11668809Y-14741428D01*
X11668809Y-14741428D02*
X11659286Y-14703333D01*
X11659286Y-14703333D02*
X11659286Y-14655714D01*
X11659286Y-14655714D02*
X11668809Y-14617619D01*
X11668809Y-14617619D02*
X11678333Y-14598571D01*
X11678333Y-14598571D02*
X11687857Y-14589048D01*
X11687857Y-14589048D02*
X11706905Y-14579524D01*
X11897381Y-14579524D02*
X11916429Y-14579524D01*
X11916429Y-14579524D02*
X11935476Y-14589048D01*
X11935476Y-14589048D02*
X11945000Y-14598571D01*
X11945000Y-14598571D02*
X11954524Y-14617619D01*
X11954524Y-14617619D02*
X11964048Y-14655714D01*
X11964048Y-14655714D02*
X11964048Y-14703333D01*
X11964048Y-14703333D02*
X11954524Y-14741428D01*
X11954524Y-14741428D02*
X11945000Y-14760476D01*
X11945000Y-14760476D02*
X11935476Y-14770000D01*
X11935476Y-14770000D02*
X11916429Y-14779524D01*
X11916429Y-14779524D02*
X11897381Y-14779524D01*
X11897381Y-14779524D02*
X11878333Y-14770000D01*
X11878333Y-14770000D02*
X11868809Y-14760476D01*
X11868809Y-14760476D02*
X11859286Y-14741428D01*
X11859286Y-14741428D02*
X11849762Y-14703333D01*
X11849762Y-14703333D02*
X11849762Y-14655714D01*
X11849762Y-14655714D02*
X11859286Y-14617619D01*
X11859286Y-14617619D02*
X11868809Y-14598571D01*
X11868809Y-14598571D02*
X11878333Y-14589048D01*
X11878333Y-14589048D02*
X11897381Y-14579524D01*
X12049762Y-14779524D02*
X12049762Y-14646190D01*
X12049762Y-14665238D02*
X12059286Y-14655714D01*
X12059286Y-14655714D02*
X12078333Y-14646190D01*
X12078333Y-14646190D02*
X12106905Y-14646190D01*
X12106905Y-14646190D02*
X12125952Y-14655714D01*
X12125952Y-14655714D02*
X12135476Y-14674762D01*
X12135476Y-14674762D02*
X12135476Y-14779524D01*
X12135476Y-14674762D02*
X12145000Y-14655714D01*
X12145000Y-14655714D02*
X12164048Y-14646190D01*
X12164048Y-14646190D02*
X12192619Y-14646190D01*
X12192619Y-14646190D02*
X12211667Y-14655714D01*
X12211667Y-14655714D02*
X12221190Y-14674762D01*
X12221190Y-14674762D02*
X12221190Y-14779524D01*
X12316429Y-14779524D02*
X12316429Y-14646190D01*
X12316429Y-14665238D02*
X12325952Y-14655714D01*
X12325952Y-14655714D02*
X12345000Y-14646190D01*
X12345000Y-14646190D02*
X12373571Y-14646190D01*
X12373571Y-14646190D02*
X12392619Y-14655714D01*
X12392619Y-14655714D02*
X12402143Y-14674762D01*
X12402143Y-14674762D02*
X12402143Y-14779524D01*
X12402143Y-14674762D02*
X12411667Y-14655714D01*
X12411667Y-14655714D02*
X12430714Y-14646190D01*
X12430714Y-14646190D02*
X12459286Y-14646190D01*
X12459286Y-14646190D02*
X12478333Y-14655714D01*
X12478333Y-14655714D02*
X12487857Y-14674762D01*
X12487857Y-14674762D02*
X12487857Y-14779524D01*
X12878333Y-14570000D02*
X12706905Y-14827143D01*
X13135476Y-14579524D02*
X13154524Y-14579524D01*
X13154524Y-14579524D02*
X13173572Y-14589048D01*
X13173572Y-14589048D02*
X13183095Y-14598571D01*
X13183095Y-14598571D02*
X13192619Y-14617619D01*
X13192619Y-14617619D02*
X13202143Y-14655714D01*
X13202143Y-14655714D02*
X13202143Y-14703333D01*
X13202143Y-14703333D02*
X13192619Y-14741428D01*
X13192619Y-14741428D02*
X13183095Y-14760476D01*
X13183095Y-14760476D02*
X13173572Y-14770000D01*
X13173572Y-14770000D02*
X13154524Y-14779524D01*
X13154524Y-14779524D02*
X13135476Y-14779524D01*
X13135476Y-14779524D02*
X13116429Y-14770000D01*
X13116429Y-14770000D02*
X13106905Y-14760476D01*
X13106905Y-14760476D02*
X13097381Y-14741428D01*
X13097381Y-14741428D02*
X13087857Y-14703333D01*
X13087857Y-14703333D02*
X13087857Y-14655714D01*
X13087857Y-14655714D02*
X13097381Y-14617619D01*
X13097381Y-14617619D02*
X13106905Y-14598571D01*
X13106905Y-14598571D02*
X13116429Y-14589048D01*
X13116429Y-14589048D02*
X13135476Y-14579524D01*
X13287857Y-14760476D02*
X13297381Y-14770000D01*
X13297381Y-14770000D02*
X13287857Y-14779524D01*
X13287857Y-14779524D02*
X13278333Y-14770000D01*
X13278333Y-14770000D02*
X13287857Y-14760476D01*
X13287857Y-14760476D02*
X13287857Y-14779524D01*
X13421191Y-14579524D02*
X13440238Y-14579524D01*
X13440238Y-14579524D02*
X13459286Y-14589048D01*
X13459286Y-14589048D02*
X13468810Y-14598571D01*
X13468810Y-14598571D02*
X13478333Y-14617619D01*
X13478333Y-14617619D02*
X13487857Y-14655714D01*
X13487857Y-14655714D02*
X13487857Y-14703333D01*
X13487857Y-14703333D02*
X13478333Y-14741428D01*
X13478333Y-14741428D02*
X13468810Y-14760476D01*
X13468810Y-14760476D02*
X13459286Y-14770000D01*
X13459286Y-14770000D02*
X13440238Y-14779524D01*
X13440238Y-14779524D02*
X13421191Y-14779524D01*
X13421191Y-14779524D02*
X13402143Y-14770000D01*
X13402143Y-14770000D02*
X13392619Y-14760476D01*
X13392619Y-14760476D02*
X13383095Y-14741428D01*
X13383095Y-14741428D02*
X13373572Y-14703333D01*
X13373572Y-14703333D02*
X13373572Y-14655714D01*
X13373572Y-14655714D02*
X13383095Y-14617619D01*
X13383095Y-14617619D02*
X13392619Y-14598571D01*
X13392619Y-14598571D02*
X13402143Y-14589048D01*
X13402143Y-14589048D02*
X13421191Y-14579524D01*
X13668810Y-14579524D02*
X13573572Y-14579524D01*
X13573572Y-14579524D02*
X13564048Y-14674762D01*
X13564048Y-14674762D02*
X13573572Y-14665238D01*
X13573572Y-14665238D02*
X13592619Y-14655714D01*
X13592619Y-14655714D02*
X13640238Y-14655714D01*
X13640238Y-14655714D02*
X13659286Y-14665238D01*
X13659286Y-14665238D02*
X13668810Y-14674762D01*
X13668810Y-14674762D02*
X13678333Y-14693809D01*
X13678333Y-14693809D02*
X13678333Y-14741428D01*
X13678333Y-14741428D02*
X13668810Y-14760476D01*
X13668810Y-14760476D02*
X13659286Y-14770000D01*
X13659286Y-14770000D02*
X13640238Y-14779524D01*
X13640238Y-14779524D02*
X13592619Y-14779524D01*
X13592619Y-14779524D02*
X13573572Y-14770000D01*
X13573572Y-14770000D02*
X13564048Y-14760476D01*
X13868810Y-14779524D02*
X13754524Y-14779524D01*
X13811667Y-14779524D02*
X13811667Y-14579524D01*
X13811667Y-14579524D02*
X13792619Y-14608095D01*
X13792619Y-14608095D02*
X13773572Y-14627143D01*
X13773572Y-14627143D02*
X13754524Y-14636667D01*
X13945000Y-14598571D02*
X13954524Y-14589048D01*
X13954524Y-14589048D02*
X13973572Y-14579524D01*
X13973572Y-14579524D02*
X14021191Y-14579524D01*
X14021191Y-14579524D02*
X14040238Y-14589048D01*
X14040238Y-14589048D02*
X14049762Y-14598571D01*
X14049762Y-14598571D02*
X14059286Y-14617619D01*
X14059286Y-14617619D02*
X14059286Y-14636667D01*
X14059286Y-14636667D02*
X14049762Y-14665238D01*
X14049762Y-14665238D02*
X13935476Y-14779524D01*
X13935476Y-14779524D02*
X14059286Y-14779524D01*
X14135476Y-14579524D02*
X14135476Y-14617619D01*
X14211667Y-14579524D02*
X14211667Y-14617619D01*
X14506905Y-14855714D02*
X14497381Y-14846190D01*
X14497381Y-14846190D02*
X14478334Y-14817619D01*
X14478334Y-14817619D02*
X14468810Y-14798571D01*
X14468810Y-14798571D02*
X14459286Y-14770000D01*
X14459286Y-14770000D02*
X14449762Y-14722381D01*
X14449762Y-14722381D02*
X14449762Y-14684286D01*
X14449762Y-14684286D02*
X14459286Y-14636667D01*
X14459286Y-14636667D02*
X14468810Y-14608095D01*
X14468810Y-14608095D02*
X14478334Y-14589048D01*
X14478334Y-14589048D02*
X14497381Y-14560476D01*
X14497381Y-14560476D02*
X14506905Y-14550952D01*
X14573572Y-14598571D02*
X14583095Y-14589048D01*
X14583095Y-14589048D02*
X14602143Y-14579524D01*
X14602143Y-14579524D02*
X14649762Y-14579524D01*
X14649762Y-14579524D02*
X14668810Y-14589048D01*
X14668810Y-14589048D02*
X14678334Y-14598571D01*
X14678334Y-14598571D02*
X14687857Y-14617619D01*
X14687857Y-14617619D02*
X14687857Y-14636667D01*
X14687857Y-14636667D02*
X14678334Y-14665238D01*
X14678334Y-14665238D02*
X14564048Y-14779524D01*
X14564048Y-14779524D02*
X14687857Y-14779524D01*
X14925953Y-14779524D02*
X14925953Y-14579524D01*
X15011667Y-14779524D02*
X15011667Y-14674762D01*
X15011667Y-14674762D02*
X15002143Y-14655714D01*
X15002143Y-14655714D02*
X14983096Y-14646190D01*
X14983096Y-14646190D02*
X14954524Y-14646190D01*
X14954524Y-14646190D02*
X14935476Y-14655714D01*
X14935476Y-14655714D02*
X14925953Y-14665238D01*
X15135476Y-14779524D02*
X15116429Y-14770000D01*
X15116429Y-14770000D02*
X15106905Y-14760476D01*
X15106905Y-14760476D02*
X15097381Y-14741428D01*
X15097381Y-14741428D02*
X15097381Y-14684286D01*
X15097381Y-14684286D02*
X15106905Y-14665238D01*
X15106905Y-14665238D02*
X15116429Y-14655714D01*
X15116429Y-14655714D02*
X15135476Y-14646190D01*
X15135476Y-14646190D02*
X15164048Y-14646190D01*
X15164048Y-14646190D02*
X15183096Y-14655714D01*
X15183096Y-14655714D02*
X15192619Y-14665238D01*
X15192619Y-14665238D02*
X15202143Y-14684286D01*
X15202143Y-14684286D02*
X15202143Y-14741428D01*
X15202143Y-14741428D02*
X15192619Y-14760476D01*
X15192619Y-14760476D02*
X15183096Y-14770000D01*
X15183096Y-14770000D02*
X15164048Y-14779524D01*
X15164048Y-14779524D02*
X15135476Y-14779524D01*
X15316429Y-14779524D02*
X15297381Y-14770000D01*
X15297381Y-14770000D02*
X15287857Y-14750952D01*
X15287857Y-14750952D02*
X15287857Y-14579524D01*
X15468810Y-14770000D02*
X15449762Y-14779524D01*
X15449762Y-14779524D02*
X15411667Y-14779524D01*
X15411667Y-14779524D02*
X15392619Y-14770000D01*
X15392619Y-14770000D02*
X15383096Y-14750952D01*
X15383096Y-14750952D02*
X15383096Y-14674762D01*
X15383096Y-14674762D02*
X15392619Y-14655714D01*
X15392619Y-14655714D02*
X15411667Y-14646190D01*
X15411667Y-14646190D02*
X15449762Y-14646190D01*
X15449762Y-14646190D02*
X15468810Y-14655714D01*
X15468810Y-14655714D02*
X15478334Y-14674762D01*
X15478334Y-14674762D02*
X15478334Y-14693809D01*
X15478334Y-14693809D02*
X15383096Y-14712857D01*
X15554524Y-14770000D02*
X15573572Y-14779524D01*
X15573572Y-14779524D02*
X15611667Y-14779524D01*
X15611667Y-14779524D02*
X15630715Y-14770000D01*
X15630715Y-14770000D02*
X15640238Y-14750952D01*
X15640238Y-14750952D02*
X15640238Y-14741428D01*
X15640238Y-14741428D02*
X15630715Y-14722381D01*
X15630715Y-14722381D02*
X15611667Y-14712857D01*
X15611667Y-14712857D02*
X15583096Y-14712857D01*
X15583096Y-14712857D02*
X15564048Y-14703333D01*
X15564048Y-14703333D02*
X15554524Y-14684286D01*
X15554524Y-14684286D02*
X15554524Y-14674762D01*
X15554524Y-14674762D02*
X15564048Y-14655714D01*
X15564048Y-14655714D02*
X15583096Y-14646190D01*
X15583096Y-14646190D02*
X15611667Y-14646190D01*
X15611667Y-14646190D02*
X15630715Y-14655714D01*
X15706905Y-14855714D02*
X15716429Y-14846190D01*
X15716429Y-14846190D02*
X15735477Y-14817619D01*
X15735477Y-14817619D02*
X15745000Y-14798571D01*
X15745000Y-14798571D02*
X15754524Y-14770000D01*
X15754524Y-14770000D02*
X15764048Y-14722381D01*
X15764048Y-14722381D02*
X15764048Y-14684286D01*
X15764048Y-14684286D02*
X15754524Y-14636667D01*
X15754524Y-14636667D02*
X15745000Y-14608095D01*
X15745000Y-14608095D02*
X15735477Y-14589048D01*
X15735477Y-14589048D02*
X15716429Y-14560476D01*
X15716429Y-14560476D02*
X15706905Y-14550952D01*
D15*
X10869000Y-15027000D02*
X10945000Y-14951000D01*
X10869000Y-14875000D01*
X10793000Y-14951000D01*
X10869000Y-15027000D01*
D11*
X11297381Y-15043524D02*
X11183095Y-15043524D01*
X11240238Y-15043524D02*
X11240238Y-14843524D01*
X11240238Y-14843524D02*
X11221190Y-14872095D01*
X11221190Y-14872095D02*
X11202143Y-14891143D01*
X11202143Y-14891143D02*
X11183095Y-14900667D01*
X11383095Y-15024476D02*
X11392619Y-15034000D01*
X11392619Y-15034000D02*
X11383095Y-15043524D01*
X11383095Y-15043524D02*
X11373571Y-15034000D01*
X11373571Y-15034000D02*
X11383095Y-15024476D01*
X11383095Y-15024476D02*
X11383095Y-15043524D01*
X11573571Y-14843524D02*
X11478333Y-14843524D01*
X11478333Y-14843524D02*
X11468809Y-14938762D01*
X11468809Y-14938762D02*
X11478333Y-14929238D01*
X11478333Y-14929238D02*
X11497381Y-14919714D01*
X11497381Y-14919714D02*
X11545000Y-14919714D01*
X11545000Y-14919714D02*
X11564048Y-14929238D01*
X11564048Y-14929238D02*
X11573571Y-14938762D01*
X11573571Y-14938762D02*
X11583095Y-14957809D01*
X11583095Y-14957809D02*
X11583095Y-15005428D01*
X11583095Y-15005428D02*
X11573571Y-15024476D01*
X11573571Y-15024476D02*
X11564048Y-15034000D01*
X11564048Y-15034000D02*
X11545000Y-15043524D01*
X11545000Y-15043524D02*
X11497381Y-15043524D01*
X11497381Y-15043524D02*
X11478333Y-15034000D01*
X11478333Y-15034000D02*
X11468809Y-15024476D01*
X11659286Y-14862571D02*
X11668809Y-14853048D01*
X11668809Y-14853048D02*
X11687857Y-14843524D01*
X11687857Y-14843524D02*
X11735476Y-14843524D01*
X11735476Y-14843524D02*
X11754524Y-14853048D01*
X11754524Y-14853048D02*
X11764048Y-14862571D01*
X11764048Y-14862571D02*
X11773571Y-14881619D01*
X11773571Y-14881619D02*
X11773571Y-14900667D01*
X11773571Y-14900667D02*
X11764048Y-14929238D01*
X11764048Y-14929238D02*
X11649762Y-15043524D01*
X11649762Y-15043524D02*
X11773571Y-15043524D01*
X11897381Y-14843524D02*
X11916429Y-14843524D01*
X11916429Y-14843524D02*
X11935476Y-14853048D01*
X11935476Y-14853048D02*
X11945000Y-14862571D01*
X11945000Y-14862571D02*
X11954524Y-14881619D01*
X11954524Y-14881619D02*
X11964048Y-14919714D01*
X11964048Y-14919714D02*
X11964048Y-14967333D01*
X11964048Y-14967333D02*
X11954524Y-15005428D01*
X11954524Y-15005428D02*
X11945000Y-15024476D01*
X11945000Y-15024476D02*
X11935476Y-15034000D01*
X11935476Y-15034000D02*
X11916429Y-15043524D01*
X11916429Y-15043524D02*
X11897381Y-15043524D01*
X11897381Y-15043524D02*
X11878333Y-15034000D01*
X11878333Y-15034000D02*
X11868809Y-15024476D01*
X11868809Y-15024476D02*
X11859286Y-15005428D01*
X11859286Y-15005428D02*
X11849762Y-14967333D01*
X11849762Y-14967333D02*
X11849762Y-14919714D01*
X11849762Y-14919714D02*
X11859286Y-14881619D01*
X11859286Y-14881619D02*
X11868809Y-14862571D01*
X11868809Y-14862571D02*
X11878333Y-14853048D01*
X11878333Y-14853048D02*
X11897381Y-14843524D01*
X12049762Y-15043524D02*
X12049762Y-14910190D01*
X12049762Y-14929238D02*
X12059286Y-14919714D01*
X12059286Y-14919714D02*
X12078333Y-14910190D01*
X12078333Y-14910190D02*
X12106905Y-14910190D01*
X12106905Y-14910190D02*
X12125952Y-14919714D01*
X12125952Y-14919714D02*
X12135476Y-14938762D01*
X12135476Y-14938762D02*
X12135476Y-15043524D01*
X12135476Y-14938762D02*
X12145000Y-14919714D01*
X12145000Y-14919714D02*
X12164048Y-14910190D01*
X12164048Y-14910190D02*
X12192619Y-14910190D01*
X12192619Y-14910190D02*
X12211667Y-14919714D01*
X12211667Y-14919714D02*
X12221190Y-14938762D01*
X12221190Y-14938762D02*
X12221190Y-15043524D01*
X12316429Y-15043524D02*
X12316429Y-14910190D01*
X12316429Y-14929238D02*
X12325952Y-14919714D01*
X12325952Y-14919714D02*
X12345000Y-14910190D01*
X12345000Y-14910190D02*
X12373571Y-14910190D01*
X12373571Y-14910190D02*
X12392619Y-14919714D01*
X12392619Y-14919714D02*
X12402143Y-14938762D01*
X12402143Y-14938762D02*
X12402143Y-15043524D01*
X12402143Y-14938762D02*
X12411667Y-14919714D01*
X12411667Y-14919714D02*
X12430714Y-14910190D01*
X12430714Y-14910190D02*
X12459286Y-14910190D01*
X12459286Y-14910190D02*
X12478333Y-14919714D01*
X12478333Y-14919714D02*
X12487857Y-14938762D01*
X12487857Y-14938762D02*
X12487857Y-15043524D01*
X12878333Y-14834000D02*
X12706905Y-15091143D01*
X13135476Y-14843524D02*
X13154524Y-14843524D01*
X13154524Y-14843524D02*
X13173572Y-14853048D01*
X13173572Y-14853048D02*
X13183095Y-14862571D01*
X13183095Y-14862571D02*
X13192619Y-14881619D01*
X13192619Y-14881619D02*
X13202143Y-14919714D01*
X13202143Y-14919714D02*
X13202143Y-14967333D01*
X13202143Y-14967333D02*
X13192619Y-15005428D01*
X13192619Y-15005428D02*
X13183095Y-15024476D01*
X13183095Y-15024476D02*
X13173572Y-15034000D01*
X13173572Y-15034000D02*
X13154524Y-15043524D01*
X13154524Y-15043524D02*
X13135476Y-15043524D01*
X13135476Y-15043524D02*
X13116429Y-15034000D01*
X13116429Y-15034000D02*
X13106905Y-15024476D01*
X13106905Y-15024476D02*
X13097381Y-15005428D01*
X13097381Y-15005428D02*
X13087857Y-14967333D01*
X13087857Y-14967333D02*
X13087857Y-14919714D01*
X13087857Y-14919714D02*
X13097381Y-14881619D01*
X13097381Y-14881619D02*
X13106905Y-14862571D01*
X13106905Y-14862571D02*
X13116429Y-14853048D01*
X13116429Y-14853048D02*
X13135476Y-14843524D01*
X13287857Y-15024476D02*
X13297381Y-15034000D01*
X13297381Y-15034000D02*
X13287857Y-15043524D01*
X13287857Y-15043524D02*
X13278333Y-15034000D01*
X13278333Y-15034000D02*
X13287857Y-15024476D01*
X13287857Y-15024476D02*
X13287857Y-15043524D01*
X13421191Y-14843524D02*
X13440238Y-14843524D01*
X13440238Y-14843524D02*
X13459286Y-14853048D01*
X13459286Y-14853048D02*
X13468810Y-14862571D01*
X13468810Y-14862571D02*
X13478333Y-14881619D01*
X13478333Y-14881619D02*
X13487857Y-14919714D01*
X13487857Y-14919714D02*
X13487857Y-14967333D01*
X13487857Y-14967333D02*
X13478333Y-15005428D01*
X13478333Y-15005428D02*
X13468810Y-15024476D01*
X13468810Y-15024476D02*
X13459286Y-15034000D01*
X13459286Y-15034000D02*
X13440238Y-15043524D01*
X13440238Y-15043524D02*
X13421191Y-15043524D01*
X13421191Y-15043524D02*
X13402143Y-15034000D01*
X13402143Y-15034000D02*
X13392619Y-15024476D01*
X13392619Y-15024476D02*
X13383095Y-15005428D01*
X13383095Y-15005428D02*
X13373572Y-14967333D01*
X13373572Y-14967333D02*
X13373572Y-14919714D01*
X13373572Y-14919714D02*
X13383095Y-14881619D01*
X13383095Y-14881619D02*
X13392619Y-14862571D01*
X13392619Y-14862571D02*
X13402143Y-14853048D01*
X13402143Y-14853048D02*
X13421191Y-14843524D01*
X13668810Y-14843524D02*
X13573572Y-14843524D01*
X13573572Y-14843524D02*
X13564048Y-14938762D01*
X13564048Y-14938762D02*
X13573572Y-14929238D01*
X13573572Y-14929238D02*
X13592619Y-14919714D01*
X13592619Y-14919714D02*
X13640238Y-14919714D01*
X13640238Y-14919714D02*
X13659286Y-14929238D01*
X13659286Y-14929238D02*
X13668810Y-14938762D01*
X13668810Y-14938762D02*
X13678333Y-14957809D01*
X13678333Y-14957809D02*
X13678333Y-15005428D01*
X13678333Y-15005428D02*
X13668810Y-15024476D01*
X13668810Y-15024476D02*
X13659286Y-15034000D01*
X13659286Y-15034000D02*
X13640238Y-15043524D01*
X13640238Y-15043524D02*
X13592619Y-15043524D01*
X13592619Y-15043524D02*
X13573572Y-15034000D01*
X13573572Y-15034000D02*
X13564048Y-15024476D01*
X13773572Y-15043524D02*
X13811667Y-15043524D01*
X13811667Y-15043524D02*
X13830714Y-15034000D01*
X13830714Y-15034000D02*
X13840238Y-15024476D01*
X13840238Y-15024476D02*
X13859286Y-14995905D01*
X13859286Y-14995905D02*
X13868810Y-14957809D01*
X13868810Y-14957809D02*
X13868810Y-14881619D01*
X13868810Y-14881619D02*
X13859286Y-14862571D01*
X13859286Y-14862571D02*
X13849762Y-14853048D01*
X13849762Y-14853048D02*
X13830714Y-14843524D01*
X13830714Y-14843524D02*
X13792619Y-14843524D01*
X13792619Y-14843524D02*
X13773572Y-14853048D01*
X13773572Y-14853048D02*
X13764048Y-14862571D01*
X13764048Y-14862571D02*
X13754524Y-14881619D01*
X13754524Y-14881619D02*
X13754524Y-14929238D01*
X13754524Y-14929238D02*
X13764048Y-14948286D01*
X13764048Y-14948286D02*
X13773572Y-14957809D01*
X13773572Y-14957809D02*
X13792619Y-14967333D01*
X13792619Y-14967333D02*
X13830714Y-14967333D01*
X13830714Y-14967333D02*
X13849762Y-14957809D01*
X13849762Y-14957809D02*
X13859286Y-14948286D01*
X13859286Y-14948286D02*
X13868810Y-14929238D01*
X13983095Y-14929238D02*
X13964048Y-14919714D01*
X13964048Y-14919714D02*
X13954524Y-14910190D01*
X13954524Y-14910190D02*
X13945000Y-14891143D01*
X13945000Y-14891143D02*
X13945000Y-14881619D01*
X13945000Y-14881619D02*
X13954524Y-14862571D01*
X13954524Y-14862571D02*
X13964048Y-14853048D01*
X13964048Y-14853048D02*
X13983095Y-14843524D01*
X13983095Y-14843524D02*
X14021191Y-14843524D01*
X14021191Y-14843524D02*
X14040238Y-14853048D01*
X14040238Y-14853048D02*
X14049762Y-14862571D01*
X14049762Y-14862571D02*
X14059286Y-14881619D01*
X14059286Y-14881619D02*
X14059286Y-14891143D01*
X14059286Y-14891143D02*
X14049762Y-14910190D01*
X14049762Y-14910190D02*
X14040238Y-14919714D01*
X14040238Y-14919714D02*
X14021191Y-14929238D01*
X14021191Y-14929238D02*
X13983095Y-14929238D01*
X13983095Y-14929238D02*
X13964048Y-14938762D01*
X13964048Y-14938762D02*
X13954524Y-14948286D01*
X13954524Y-14948286D02*
X13945000Y-14967333D01*
X13945000Y-14967333D02*
X13945000Y-15005428D01*
X13945000Y-15005428D02*
X13954524Y-15024476D01*
X13954524Y-15024476D02*
X13964048Y-15034000D01*
X13964048Y-15034000D02*
X13983095Y-15043524D01*
X13983095Y-15043524D02*
X14021191Y-15043524D01*
X14021191Y-15043524D02*
X14040238Y-15034000D01*
X14040238Y-15034000D02*
X14049762Y-15024476D01*
X14049762Y-15024476D02*
X14059286Y-15005428D01*
X14059286Y-15005428D02*
X14059286Y-14967333D01*
X14059286Y-14967333D02*
X14049762Y-14948286D01*
X14049762Y-14948286D02*
X14040238Y-14938762D01*
X14040238Y-14938762D02*
X14021191Y-14929238D01*
X14135476Y-14843524D02*
X14135476Y-14881619D01*
X14211667Y-14843524D02*
X14211667Y-14881619D01*
X14506905Y-15119714D02*
X14497381Y-15110190D01*
X14497381Y-15110190D02*
X14478334Y-15081619D01*
X14478334Y-15081619D02*
X14468810Y-15062571D01*
X14468810Y-15062571D02*
X14459286Y-15034000D01*
X14459286Y-15034000D02*
X14449762Y-14986381D01*
X14449762Y-14986381D02*
X14449762Y-14948286D01*
X14449762Y-14948286D02*
X14459286Y-14900667D01*
X14459286Y-14900667D02*
X14468810Y-14872095D01*
X14468810Y-14872095D02*
X14478334Y-14853048D01*
X14478334Y-14853048D02*
X14497381Y-14824476D01*
X14497381Y-14824476D02*
X14506905Y-14814952D01*
X14687857Y-15043524D02*
X14573572Y-15043524D01*
X14630714Y-15043524D02*
X14630714Y-14843524D01*
X14630714Y-14843524D02*
X14611667Y-14872095D01*
X14611667Y-14872095D02*
X14592619Y-14891143D01*
X14592619Y-14891143D02*
X14573572Y-14900667D01*
X14783095Y-15043524D02*
X14821191Y-15043524D01*
X14821191Y-15043524D02*
X14840238Y-15034000D01*
X14840238Y-15034000D02*
X14849762Y-15024476D01*
X14849762Y-15024476D02*
X14868810Y-14995905D01*
X14868810Y-14995905D02*
X14878334Y-14957809D01*
X14878334Y-14957809D02*
X14878334Y-14881619D01*
X14878334Y-14881619D02*
X14868810Y-14862571D01*
X14868810Y-14862571D02*
X14859286Y-14853048D01*
X14859286Y-14853048D02*
X14840238Y-14843524D01*
X14840238Y-14843524D02*
X14802143Y-14843524D01*
X14802143Y-14843524D02*
X14783095Y-14853048D01*
X14783095Y-14853048D02*
X14773572Y-14862571D01*
X14773572Y-14862571D02*
X14764048Y-14881619D01*
X14764048Y-14881619D02*
X14764048Y-14929238D01*
X14764048Y-14929238D02*
X14773572Y-14948286D01*
X14773572Y-14948286D02*
X14783095Y-14957809D01*
X14783095Y-14957809D02*
X14802143Y-14967333D01*
X14802143Y-14967333D02*
X14840238Y-14967333D01*
X14840238Y-14967333D02*
X14859286Y-14957809D01*
X14859286Y-14957809D02*
X14868810Y-14948286D01*
X14868810Y-14948286D02*
X14878334Y-14929238D01*
X15116429Y-15043524D02*
X15116429Y-14843524D01*
X15202143Y-15043524D02*
X15202143Y-14938762D01*
X15202143Y-14938762D02*
X15192619Y-14919714D01*
X15192619Y-14919714D02*
X15173572Y-14910190D01*
X15173572Y-14910190D02*
X15145000Y-14910190D01*
X15145000Y-14910190D02*
X15125953Y-14919714D01*
X15125953Y-14919714D02*
X15116429Y-14929238D01*
X15325953Y-15043524D02*
X15306905Y-15034000D01*
X15306905Y-15034000D02*
X15297381Y-15024476D01*
X15297381Y-15024476D02*
X15287857Y-15005428D01*
X15287857Y-15005428D02*
X15287857Y-14948286D01*
X15287857Y-14948286D02*
X15297381Y-14929238D01*
X15297381Y-14929238D02*
X15306905Y-14919714D01*
X15306905Y-14919714D02*
X15325953Y-14910190D01*
X15325953Y-14910190D02*
X15354524Y-14910190D01*
X15354524Y-14910190D02*
X15373572Y-14919714D01*
X15373572Y-14919714D02*
X15383096Y-14929238D01*
X15383096Y-14929238D02*
X15392619Y-14948286D01*
X15392619Y-14948286D02*
X15392619Y-15005428D01*
X15392619Y-15005428D02*
X15383096Y-15024476D01*
X15383096Y-15024476D02*
X15373572Y-15034000D01*
X15373572Y-15034000D02*
X15354524Y-15043524D01*
X15354524Y-15043524D02*
X15325953Y-15043524D01*
X15506905Y-15043524D02*
X15487857Y-15034000D01*
X15487857Y-15034000D02*
X15478334Y-15014952D01*
X15478334Y-15014952D02*
X15478334Y-14843524D01*
X15659286Y-15034000D02*
X15640238Y-15043524D01*
X15640238Y-15043524D02*
X15602143Y-15043524D01*
X15602143Y-15043524D02*
X15583096Y-15034000D01*
X15583096Y-15034000D02*
X15573572Y-15014952D01*
X15573572Y-15014952D02*
X15573572Y-14938762D01*
X15573572Y-14938762D02*
X15583096Y-14919714D01*
X15583096Y-14919714D02*
X15602143Y-14910190D01*
X15602143Y-14910190D02*
X15640238Y-14910190D01*
X15640238Y-14910190D02*
X15659286Y-14919714D01*
X15659286Y-14919714D02*
X15668810Y-14938762D01*
X15668810Y-14938762D02*
X15668810Y-14957809D01*
X15668810Y-14957809D02*
X15573572Y-14976857D01*
X15745000Y-15034000D02*
X15764048Y-15043524D01*
X15764048Y-15043524D02*
X15802143Y-15043524D01*
X15802143Y-15043524D02*
X15821191Y-15034000D01*
X15821191Y-15034000D02*
X15830715Y-15014952D01*
X15830715Y-15014952D02*
X15830715Y-15005428D01*
X15830715Y-15005428D02*
X15821191Y-14986381D01*
X15821191Y-14986381D02*
X15802143Y-14976857D01*
X15802143Y-14976857D02*
X15773572Y-14976857D01*
X15773572Y-14976857D02*
X15754524Y-14967333D01*
X15754524Y-14967333D02*
X15745000Y-14948286D01*
X15745000Y-14948286D02*
X15745000Y-14938762D01*
X15745000Y-14938762D02*
X15754524Y-14919714D01*
X15754524Y-14919714D02*
X15773572Y-14910190D01*
X15773572Y-14910190D02*
X15802143Y-14910190D01*
X15802143Y-14910190D02*
X15821191Y-14919714D01*
X15897381Y-15119714D02*
X15906905Y-15110190D01*
X15906905Y-15110190D02*
X15925953Y-15081619D01*
X15925953Y-15081619D02*
X15935477Y-15062571D01*
X15935477Y-15062571D02*
X15945000Y-15034000D01*
X15945000Y-15034000D02*
X15954524Y-14986381D01*
X15954524Y-14986381D02*
X15954524Y-14948286D01*
X15954524Y-14948286D02*
X15945000Y-14900667D01*
X15945000Y-14900667D02*
X15935477Y-14872095D01*
X15935477Y-14872095D02*
X15925953Y-14853048D01*
X15925953Y-14853048D02*
X15906905Y-14824476D01*
X15906905Y-14824476D02*
X15897381Y-14814952D01*
X10745000Y-15123000D02*
X10945000Y-15323000D01*
X10945000Y-15123000D02*
X10745000Y-15323000D01*
X10945000Y-15223000D02*
G75*
G03*
X10945000Y-15223000I-100000J0D01*
G01*
X11183095Y-15134571D02*
X11192619Y-15125048D01*
X11192619Y-15125048D02*
X11211667Y-15115524D01*
X11211667Y-15115524D02*
X11259286Y-15115524D01*
X11259286Y-15115524D02*
X11278333Y-15125048D01*
X11278333Y-15125048D02*
X11287857Y-15134571D01*
X11287857Y-15134571D02*
X11297381Y-15153619D01*
X11297381Y-15153619D02*
X11297381Y-15172667D01*
X11297381Y-15172667D02*
X11287857Y-15201238D01*
X11287857Y-15201238D02*
X11173571Y-15315524D01*
X11173571Y-15315524D02*
X11297381Y-15315524D01*
X11383095Y-15296476D02*
X11392619Y-15306000D01*
X11392619Y-15306000D02*
X11383095Y-15315524D01*
X11383095Y-15315524D02*
X11373571Y-15306000D01*
X11373571Y-15306000D02*
X11383095Y-15296476D01*
X11383095Y-15296476D02*
X11383095Y-15315524D01*
X11459286Y-15115524D02*
X11592619Y-15115524D01*
X11592619Y-15115524D02*
X11506905Y-15315524D01*
X11706905Y-15115524D02*
X11725952Y-15115524D01*
X11725952Y-15115524D02*
X11745000Y-15125048D01*
X11745000Y-15125048D02*
X11754524Y-15134571D01*
X11754524Y-15134571D02*
X11764048Y-15153619D01*
X11764048Y-15153619D02*
X11773571Y-15191714D01*
X11773571Y-15191714D02*
X11773571Y-15239333D01*
X11773571Y-15239333D02*
X11764048Y-15277428D01*
X11764048Y-15277428D02*
X11754524Y-15296476D01*
X11754524Y-15296476D02*
X11745000Y-15306000D01*
X11745000Y-15306000D02*
X11725952Y-15315524D01*
X11725952Y-15315524D02*
X11706905Y-15315524D01*
X11706905Y-15315524D02*
X11687857Y-15306000D01*
X11687857Y-15306000D02*
X11678333Y-15296476D01*
X11678333Y-15296476D02*
X11668809Y-15277428D01*
X11668809Y-15277428D02*
X11659286Y-15239333D01*
X11659286Y-15239333D02*
X11659286Y-15191714D01*
X11659286Y-15191714D02*
X11668809Y-15153619D01*
X11668809Y-15153619D02*
X11678333Y-15134571D01*
X11678333Y-15134571D02*
X11687857Y-15125048D01*
X11687857Y-15125048D02*
X11706905Y-15115524D01*
X11897381Y-15115524D02*
X11916429Y-15115524D01*
X11916429Y-15115524D02*
X11935476Y-15125048D01*
X11935476Y-15125048D02*
X11945000Y-15134571D01*
X11945000Y-15134571D02*
X11954524Y-15153619D01*
X11954524Y-15153619D02*
X11964048Y-15191714D01*
X11964048Y-15191714D02*
X11964048Y-15239333D01*
X11964048Y-15239333D02*
X11954524Y-15277428D01*
X11954524Y-15277428D02*
X11945000Y-15296476D01*
X11945000Y-15296476D02*
X11935476Y-15306000D01*
X11935476Y-15306000D02*
X11916429Y-15315524D01*
X11916429Y-15315524D02*
X11897381Y-15315524D01*
X11897381Y-15315524D02*
X11878333Y-15306000D01*
X11878333Y-15306000D02*
X11868809Y-15296476D01*
X11868809Y-15296476D02*
X11859286Y-15277428D01*
X11859286Y-15277428D02*
X11849762Y-15239333D01*
X11849762Y-15239333D02*
X11849762Y-15191714D01*
X11849762Y-15191714D02*
X11859286Y-15153619D01*
X11859286Y-15153619D02*
X11868809Y-15134571D01*
X11868809Y-15134571D02*
X11878333Y-15125048D01*
X11878333Y-15125048D02*
X11897381Y-15115524D01*
X12049762Y-15315524D02*
X12049762Y-15182190D01*
X12049762Y-15201238D02*
X12059286Y-15191714D01*
X12059286Y-15191714D02*
X12078333Y-15182190D01*
X12078333Y-15182190D02*
X12106905Y-15182190D01*
X12106905Y-15182190D02*
X12125952Y-15191714D01*
X12125952Y-15191714D02*
X12135476Y-15210762D01*
X12135476Y-15210762D02*
X12135476Y-15315524D01*
X12135476Y-15210762D02*
X12145000Y-15191714D01*
X12145000Y-15191714D02*
X12164048Y-15182190D01*
X12164048Y-15182190D02*
X12192619Y-15182190D01*
X12192619Y-15182190D02*
X12211667Y-15191714D01*
X12211667Y-15191714D02*
X12221190Y-15210762D01*
X12221190Y-15210762D02*
X12221190Y-15315524D01*
X12316429Y-15315524D02*
X12316429Y-15182190D01*
X12316429Y-15201238D02*
X12325952Y-15191714D01*
X12325952Y-15191714D02*
X12345000Y-15182190D01*
X12345000Y-15182190D02*
X12373571Y-15182190D01*
X12373571Y-15182190D02*
X12392619Y-15191714D01*
X12392619Y-15191714D02*
X12402143Y-15210762D01*
X12402143Y-15210762D02*
X12402143Y-15315524D01*
X12402143Y-15210762D02*
X12411667Y-15191714D01*
X12411667Y-15191714D02*
X12430714Y-15182190D01*
X12430714Y-15182190D02*
X12459286Y-15182190D01*
X12459286Y-15182190D02*
X12478333Y-15191714D01*
X12478333Y-15191714D02*
X12487857Y-15210762D01*
X12487857Y-15210762D02*
X12487857Y-15315524D01*
X12878333Y-15106000D02*
X12706905Y-15363143D01*
X13135476Y-15115524D02*
X13154524Y-15115524D01*
X13154524Y-15115524D02*
X13173572Y-15125048D01*
X13173572Y-15125048D02*
X13183095Y-15134571D01*
X13183095Y-15134571D02*
X13192619Y-15153619D01*
X13192619Y-15153619D02*
X13202143Y-15191714D01*
X13202143Y-15191714D02*
X13202143Y-15239333D01*
X13202143Y-15239333D02*
X13192619Y-15277428D01*
X13192619Y-15277428D02*
X13183095Y-15296476D01*
X13183095Y-15296476D02*
X13173572Y-15306000D01*
X13173572Y-15306000D02*
X13154524Y-15315524D01*
X13154524Y-15315524D02*
X13135476Y-15315524D01*
X13135476Y-15315524D02*
X13116429Y-15306000D01*
X13116429Y-15306000D02*
X13106905Y-15296476D01*
X13106905Y-15296476D02*
X13097381Y-15277428D01*
X13097381Y-15277428D02*
X13087857Y-15239333D01*
X13087857Y-15239333D02*
X13087857Y-15191714D01*
X13087857Y-15191714D02*
X13097381Y-15153619D01*
X13097381Y-15153619D02*
X13106905Y-15134571D01*
X13106905Y-15134571D02*
X13116429Y-15125048D01*
X13116429Y-15125048D02*
X13135476Y-15115524D01*
X13287857Y-15296476D02*
X13297381Y-15306000D01*
X13297381Y-15306000D02*
X13287857Y-15315524D01*
X13287857Y-15315524D02*
X13278333Y-15306000D01*
X13278333Y-15306000D02*
X13287857Y-15296476D01*
X13287857Y-15296476D02*
X13287857Y-15315524D01*
X13487857Y-15315524D02*
X13373572Y-15315524D01*
X13430714Y-15315524D02*
X13430714Y-15115524D01*
X13430714Y-15115524D02*
X13411667Y-15144095D01*
X13411667Y-15144095D02*
X13392619Y-15163143D01*
X13392619Y-15163143D02*
X13373572Y-15172667D01*
X13611667Y-15115524D02*
X13630714Y-15115524D01*
X13630714Y-15115524D02*
X13649762Y-15125048D01*
X13649762Y-15125048D02*
X13659286Y-15134571D01*
X13659286Y-15134571D02*
X13668810Y-15153619D01*
X13668810Y-15153619D02*
X13678333Y-15191714D01*
X13678333Y-15191714D02*
X13678333Y-15239333D01*
X13678333Y-15239333D02*
X13668810Y-15277428D01*
X13668810Y-15277428D02*
X13659286Y-15296476D01*
X13659286Y-15296476D02*
X13649762Y-15306000D01*
X13649762Y-15306000D02*
X13630714Y-15315524D01*
X13630714Y-15315524D02*
X13611667Y-15315524D01*
X13611667Y-15315524D02*
X13592619Y-15306000D01*
X13592619Y-15306000D02*
X13583095Y-15296476D01*
X13583095Y-15296476D02*
X13573572Y-15277428D01*
X13573572Y-15277428D02*
X13564048Y-15239333D01*
X13564048Y-15239333D02*
X13564048Y-15191714D01*
X13564048Y-15191714D02*
X13573572Y-15153619D01*
X13573572Y-15153619D02*
X13583095Y-15134571D01*
X13583095Y-15134571D02*
X13592619Y-15125048D01*
X13592619Y-15125048D02*
X13611667Y-15115524D01*
X13849762Y-15115524D02*
X13811667Y-15115524D01*
X13811667Y-15115524D02*
X13792619Y-15125048D01*
X13792619Y-15125048D02*
X13783095Y-15134571D01*
X13783095Y-15134571D02*
X13764048Y-15163143D01*
X13764048Y-15163143D02*
X13754524Y-15201238D01*
X13754524Y-15201238D02*
X13754524Y-15277428D01*
X13754524Y-15277428D02*
X13764048Y-15296476D01*
X13764048Y-15296476D02*
X13773572Y-15306000D01*
X13773572Y-15306000D02*
X13792619Y-15315524D01*
X13792619Y-15315524D02*
X13830714Y-15315524D01*
X13830714Y-15315524D02*
X13849762Y-15306000D01*
X13849762Y-15306000D02*
X13859286Y-15296476D01*
X13859286Y-15296476D02*
X13868810Y-15277428D01*
X13868810Y-15277428D02*
X13868810Y-15229809D01*
X13868810Y-15229809D02*
X13859286Y-15210762D01*
X13859286Y-15210762D02*
X13849762Y-15201238D01*
X13849762Y-15201238D02*
X13830714Y-15191714D01*
X13830714Y-15191714D02*
X13792619Y-15191714D01*
X13792619Y-15191714D02*
X13773572Y-15201238D01*
X13773572Y-15201238D02*
X13764048Y-15210762D01*
X13764048Y-15210762D02*
X13754524Y-15229809D01*
X13935476Y-15115524D02*
X14059286Y-15115524D01*
X14059286Y-15115524D02*
X13992619Y-15191714D01*
X13992619Y-15191714D02*
X14021191Y-15191714D01*
X14021191Y-15191714D02*
X14040238Y-15201238D01*
X14040238Y-15201238D02*
X14049762Y-15210762D01*
X14049762Y-15210762D02*
X14059286Y-15229809D01*
X14059286Y-15229809D02*
X14059286Y-15277428D01*
X14059286Y-15277428D02*
X14049762Y-15296476D01*
X14049762Y-15296476D02*
X14040238Y-15306000D01*
X14040238Y-15306000D02*
X14021191Y-15315524D01*
X14021191Y-15315524D02*
X13964048Y-15315524D01*
X13964048Y-15315524D02*
X13945000Y-15306000D01*
X13945000Y-15306000D02*
X13935476Y-15296476D01*
X14135476Y-15115524D02*
X14135476Y-15153619D01*
X14211667Y-15115524D02*
X14211667Y-15153619D01*
X14506905Y-15391714D02*
X14497381Y-15382190D01*
X14497381Y-15382190D02*
X14478334Y-15353619D01*
X14478334Y-15353619D02*
X14468810Y-15334571D01*
X14468810Y-15334571D02*
X14459286Y-15306000D01*
X14459286Y-15306000D02*
X14449762Y-15258381D01*
X14449762Y-15258381D02*
X14449762Y-15220286D01*
X14449762Y-15220286D02*
X14459286Y-15172667D01*
X14459286Y-15172667D02*
X14468810Y-15144095D01*
X14468810Y-15144095D02*
X14478334Y-15125048D01*
X14478334Y-15125048D02*
X14497381Y-15096476D01*
X14497381Y-15096476D02*
X14506905Y-15086952D01*
X14668810Y-15182190D02*
X14668810Y-15315524D01*
X14621191Y-15106000D02*
X14573572Y-15248857D01*
X14573572Y-15248857D02*
X14697381Y-15248857D01*
X14925953Y-15315524D02*
X14925953Y-15115524D01*
X15011667Y-15315524D02*
X15011667Y-15210762D01*
X15011667Y-15210762D02*
X15002143Y-15191714D01*
X15002143Y-15191714D02*
X14983096Y-15182190D01*
X14983096Y-15182190D02*
X14954524Y-15182190D01*
X14954524Y-15182190D02*
X14935476Y-15191714D01*
X14935476Y-15191714D02*
X14925953Y-15201238D01*
X15135476Y-15315524D02*
X15116429Y-15306000D01*
X15116429Y-15306000D02*
X15106905Y-15296476D01*
X15106905Y-15296476D02*
X15097381Y-15277428D01*
X15097381Y-15277428D02*
X15097381Y-15220286D01*
X15097381Y-15220286D02*
X15106905Y-15201238D01*
X15106905Y-15201238D02*
X15116429Y-15191714D01*
X15116429Y-15191714D02*
X15135476Y-15182190D01*
X15135476Y-15182190D02*
X15164048Y-15182190D01*
X15164048Y-15182190D02*
X15183096Y-15191714D01*
X15183096Y-15191714D02*
X15192619Y-15201238D01*
X15192619Y-15201238D02*
X15202143Y-15220286D01*
X15202143Y-15220286D02*
X15202143Y-15277428D01*
X15202143Y-15277428D02*
X15192619Y-15296476D01*
X15192619Y-15296476D02*
X15183096Y-15306000D01*
X15183096Y-15306000D02*
X15164048Y-15315524D01*
X15164048Y-15315524D02*
X15135476Y-15315524D01*
X15316429Y-15315524D02*
X15297381Y-15306000D01*
X15297381Y-15306000D02*
X15287857Y-15286952D01*
X15287857Y-15286952D02*
X15287857Y-15115524D01*
X15468810Y-15306000D02*
X15449762Y-15315524D01*
X15449762Y-15315524D02*
X15411667Y-15315524D01*
X15411667Y-15315524D02*
X15392619Y-15306000D01*
X15392619Y-15306000D02*
X15383096Y-15286952D01*
X15383096Y-15286952D02*
X15383096Y-15210762D01*
X15383096Y-15210762D02*
X15392619Y-15191714D01*
X15392619Y-15191714D02*
X15411667Y-15182190D01*
X15411667Y-15182190D02*
X15449762Y-15182190D01*
X15449762Y-15182190D02*
X15468810Y-15191714D01*
X15468810Y-15191714D02*
X15478334Y-15210762D01*
X15478334Y-15210762D02*
X15478334Y-15229809D01*
X15478334Y-15229809D02*
X15383096Y-15248857D01*
X15554524Y-15306000D02*
X15573572Y-15315524D01*
X15573572Y-15315524D02*
X15611667Y-15315524D01*
X15611667Y-15315524D02*
X15630715Y-15306000D01*
X15630715Y-15306000D02*
X15640238Y-15286952D01*
X15640238Y-15286952D02*
X15640238Y-15277428D01*
X15640238Y-15277428D02*
X15630715Y-15258381D01*
X15630715Y-15258381D02*
X15611667Y-15248857D01*
X15611667Y-15248857D02*
X15583096Y-15248857D01*
X15583096Y-15248857D02*
X15564048Y-15239333D01*
X15564048Y-15239333D02*
X15554524Y-15220286D01*
X15554524Y-15220286D02*
X15554524Y-15210762D01*
X15554524Y-15210762D02*
X15564048Y-15191714D01*
X15564048Y-15191714D02*
X15583096Y-15182190D01*
X15583096Y-15182190D02*
X15611667Y-15182190D01*
X15611667Y-15182190D02*
X15630715Y-15191714D01*
X15706905Y-15391714D02*
X15716429Y-15382190D01*
X15716429Y-15382190D02*
X15735477Y-15353619D01*
X15735477Y-15353619D02*
X15745000Y-15334571D01*
X15745000Y-15334571D02*
X15754524Y-15306000D01*
X15754524Y-15306000D02*
X15764048Y-15258381D01*
X15764048Y-15258381D02*
X15764048Y-15220286D01*
X15764048Y-15220286D02*
X15754524Y-15172667D01*
X15754524Y-15172667D02*
X15745000Y-15144095D01*
X15745000Y-15144095D02*
X15735477Y-15125048D01*
X15735477Y-15125048D02*
X15716429Y-15096476D01*
X15716429Y-15096476D02*
X15706905Y-15086952D01*
X10745000Y-15443000D02*
X10945000Y-15643000D01*
X10945000Y-15443000D02*
X10745000Y-15643000D01*
X10845000Y-15443000D02*
X10845000Y-15643000D01*
X10745000Y-15543000D02*
X10945000Y-15543000D01*
X11183095Y-15454571D02*
X11192619Y-15445048D01*
X11192619Y-15445048D02*
X11211667Y-15435524D01*
X11211667Y-15435524D02*
X11259286Y-15435524D01*
X11259286Y-15435524D02*
X11278333Y-15445048D01*
X11278333Y-15445048D02*
X11287857Y-15454571D01*
X11287857Y-15454571D02*
X11297381Y-15473619D01*
X11297381Y-15473619D02*
X11297381Y-15492667D01*
X11297381Y-15492667D02*
X11287857Y-15521238D01*
X11287857Y-15521238D02*
X11173571Y-15635524D01*
X11173571Y-15635524D02*
X11297381Y-15635524D01*
X11383095Y-15616476D02*
X11392619Y-15626000D01*
X11392619Y-15626000D02*
X11383095Y-15635524D01*
X11383095Y-15635524D02*
X11373571Y-15626000D01*
X11373571Y-15626000D02*
X11383095Y-15616476D01*
X11383095Y-15616476D02*
X11383095Y-15635524D01*
X11506905Y-15521238D02*
X11487857Y-15511714D01*
X11487857Y-15511714D02*
X11478333Y-15502190D01*
X11478333Y-15502190D02*
X11468809Y-15483143D01*
X11468809Y-15483143D02*
X11468809Y-15473619D01*
X11468809Y-15473619D02*
X11478333Y-15454571D01*
X11478333Y-15454571D02*
X11487857Y-15445048D01*
X11487857Y-15445048D02*
X11506905Y-15435524D01*
X11506905Y-15435524D02*
X11545000Y-15435524D01*
X11545000Y-15435524D02*
X11564048Y-15445048D01*
X11564048Y-15445048D02*
X11573571Y-15454571D01*
X11573571Y-15454571D02*
X11583095Y-15473619D01*
X11583095Y-15473619D02*
X11583095Y-15483143D01*
X11583095Y-15483143D02*
X11573571Y-15502190D01*
X11573571Y-15502190D02*
X11564048Y-15511714D01*
X11564048Y-15511714D02*
X11545000Y-15521238D01*
X11545000Y-15521238D02*
X11506905Y-15521238D01*
X11506905Y-15521238D02*
X11487857Y-15530762D01*
X11487857Y-15530762D02*
X11478333Y-15540286D01*
X11478333Y-15540286D02*
X11468809Y-15559333D01*
X11468809Y-15559333D02*
X11468809Y-15597428D01*
X11468809Y-15597428D02*
X11478333Y-15616476D01*
X11478333Y-15616476D02*
X11487857Y-15626000D01*
X11487857Y-15626000D02*
X11506905Y-15635524D01*
X11506905Y-15635524D02*
X11545000Y-15635524D01*
X11545000Y-15635524D02*
X11564048Y-15626000D01*
X11564048Y-15626000D02*
X11573571Y-15616476D01*
X11573571Y-15616476D02*
X11583095Y-15597428D01*
X11583095Y-15597428D02*
X11583095Y-15559333D01*
X11583095Y-15559333D02*
X11573571Y-15540286D01*
X11573571Y-15540286D02*
X11564048Y-15530762D01*
X11564048Y-15530762D02*
X11545000Y-15521238D01*
X11764048Y-15435524D02*
X11668809Y-15435524D01*
X11668809Y-15435524D02*
X11659286Y-15530762D01*
X11659286Y-15530762D02*
X11668809Y-15521238D01*
X11668809Y-15521238D02*
X11687857Y-15511714D01*
X11687857Y-15511714D02*
X11735476Y-15511714D01*
X11735476Y-15511714D02*
X11754524Y-15521238D01*
X11754524Y-15521238D02*
X11764048Y-15530762D01*
X11764048Y-15530762D02*
X11773571Y-15549809D01*
X11773571Y-15549809D02*
X11773571Y-15597428D01*
X11773571Y-15597428D02*
X11764048Y-15616476D01*
X11764048Y-15616476D02*
X11754524Y-15626000D01*
X11754524Y-15626000D02*
X11735476Y-15635524D01*
X11735476Y-15635524D02*
X11687857Y-15635524D01*
X11687857Y-15635524D02*
X11668809Y-15626000D01*
X11668809Y-15626000D02*
X11659286Y-15616476D01*
X11945000Y-15502190D02*
X11945000Y-15635524D01*
X11897381Y-15426000D02*
X11849762Y-15568857D01*
X11849762Y-15568857D02*
X11973571Y-15568857D01*
X12049762Y-15635524D02*
X12049762Y-15502190D01*
X12049762Y-15521238D02*
X12059286Y-15511714D01*
X12059286Y-15511714D02*
X12078333Y-15502190D01*
X12078333Y-15502190D02*
X12106905Y-15502190D01*
X12106905Y-15502190D02*
X12125952Y-15511714D01*
X12125952Y-15511714D02*
X12135476Y-15530762D01*
X12135476Y-15530762D02*
X12135476Y-15635524D01*
X12135476Y-15530762D02*
X12145000Y-15511714D01*
X12145000Y-15511714D02*
X12164048Y-15502190D01*
X12164048Y-15502190D02*
X12192619Y-15502190D01*
X12192619Y-15502190D02*
X12211667Y-15511714D01*
X12211667Y-15511714D02*
X12221190Y-15530762D01*
X12221190Y-15530762D02*
X12221190Y-15635524D01*
X12316429Y-15635524D02*
X12316429Y-15502190D01*
X12316429Y-15521238D02*
X12325952Y-15511714D01*
X12325952Y-15511714D02*
X12345000Y-15502190D01*
X12345000Y-15502190D02*
X12373571Y-15502190D01*
X12373571Y-15502190D02*
X12392619Y-15511714D01*
X12392619Y-15511714D02*
X12402143Y-15530762D01*
X12402143Y-15530762D02*
X12402143Y-15635524D01*
X12402143Y-15530762D02*
X12411667Y-15511714D01*
X12411667Y-15511714D02*
X12430714Y-15502190D01*
X12430714Y-15502190D02*
X12459286Y-15502190D01*
X12459286Y-15502190D02*
X12478333Y-15511714D01*
X12478333Y-15511714D02*
X12487857Y-15530762D01*
X12487857Y-15530762D02*
X12487857Y-15635524D01*
X12878333Y-15426000D02*
X12706905Y-15683143D01*
X13135476Y-15435524D02*
X13154524Y-15435524D01*
X13154524Y-15435524D02*
X13173572Y-15445048D01*
X13173572Y-15445048D02*
X13183095Y-15454571D01*
X13183095Y-15454571D02*
X13192619Y-15473619D01*
X13192619Y-15473619D02*
X13202143Y-15511714D01*
X13202143Y-15511714D02*
X13202143Y-15559333D01*
X13202143Y-15559333D02*
X13192619Y-15597428D01*
X13192619Y-15597428D02*
X13183095Y-15616476D01*
X13183095Y-15616476D02*
X13173572Y-15626000D01*
X13173572Y-15626000D02*
X13154524Y-15635524D01*
X13154524Y-15635524D02*
X13135476Y-15635524D01*
X13135476Y-15635524D02*
X13116429Y-15626000D01*
X13116429Y-15626000D02*
X13106905Y-15616476D01*
X13106905Y-15616476D02*
X13097381Y-15597428D01*
X13097381Y-15597428D02*
X13087857Y-15559333D01*
X13087857Y-15559333D02*
X13087857Y-15511714D01*
X13087857Y-15511714D02*
X13097381Y-15473619D01*
X13097381Y-15473619D02*
X13106905Y-15454571D01*
X13106905Y-15454571D02*
X13116429Y-15445048D01*
X13116429Y-15445048D02*
X13135476Y-15435524D01*
X13287857Y-15616476D02*
X13297381Y-15626000D01*
X13297381Y-15626000D02*
X13287857Y-15635524D01*
X13287857Y-15635524D02*
X13278333Y-15626000D01*
X13278333Y-15626000D02*
X13287857Y-15616476D01*
X13287857Y-15616476D02*
X13287857Y-15635524D01*
X13487857Y-15635524D02*
X13373572Y-15635524D01*
X13430714Y-15635524D02*
X13430714Y-15435524D01*
X13430714Y-15435524D02*
X13411667Y-15464095D01*
X13411667Y-15464095D02*
X13392619Y-15483143D01*
X13392619Y-15483143D02*
X13373572Y-15492667D01*
X13678333Y-15635524D02*
X13564048Y-15635524D01*
X13621191Y-15635524D02*
X13621191Y-15435524D01*
X13621191Y-15435524D02*
X13602143Y-15464095D01*
X13602143Y-15464095D02*
X13583095Y-15483143D01*
X13583095Y-15483143D02*
X13564048Y-15492667D01*
X13754524Y-15454571D02*
X13764048Y-15445048D01*
X13764048Y-15445048D02*
X13783095Y-15435524D01*
X13783095Y-15435524D02*
X13830714Y-15435524D01*
X13830714Y-15435524D02*
X13849762Y-15445048D01*
X13849762Y-15445048D02*
X13859286Y-15454571D01*
X13859286Y-15454571D02*
X13868810Y-15473619D01*
X13868810Y-15473619D02*
X13868810Y-15492667D01*
X13868810Y-15492667D02*
X13859286Y-15521238D01*
X13859286Y-15521238D02*
X13745000Y-15635524D01*
X13745000Y-15635524D02*
X13868810Y-15635524D01*
X14040238Y-15502190D02*
X14040238Y-15635524D01*
X13992619Y-15426000D02*
X13945000Y-15568857D01*
X13945000Y-15568857D02*
X14068810Y-15568857D01*
X14135476Y-15435524D02*
X14135476Y-15473619D01*
X14211667Y-15435524D02*
X14211667Y-15473619D01*
X14506905Y-15711714D02*
X14497381Y-15702190D01*
X14497381Y-15702190D02*
X14478334Y-15673619D01*
X14478334Y-15673619D02*
X14468810Y-15654571D01*
X14468810Y-15654571D02*
X14459286Y-15626000D01*
X14459286Y-15626000D02*
X14449762Y-15578381D01*
X14449762Y-15578381D02*
X14449762Y-15540286D01*
X14449762Y-15540286D02*
X14459286Y-15492667D01*
X14459286Y-15492667D02*
X14468810Y-15464095D01*
X14468810Y-15464095D02*
X14478334Y-15445048D01*
X14478334Y-15445048D02*
X14497381Y-15416476D01*
X14497381Y-15416476D02*
X14506905Y-15406952D01*
X14564048Y-15435524D02*
X14687857Y-15435524D01*
X14687857Y-15435524D02*
X14621191Y-15511714D01*
X14621191Y-15511714D02*
X14649762Y-15511714D01*
X14649762Y-15511714D02*
X14668810Y-15521238D01*
X14668810Y-15521238D02*
X14678334Y-15530762D01*
X14678334Y-15530762D02*
X14687857Y-15549809D01*
X14687857Y-15549809D02*
X14687857Y-15597428D01*
X14687857Y-15597428D02*
X14678334Y-15616476D01*
X14678334Y-15616476D02*
X14668810Y-15626000D01*
X14668810Y-15626000D02*
X14649762Y-15635524D01*
X14649762Y-15635524D02*
X14592619Y-15635524D01*
X14592619Y-15635524D02*
X14573572Y-15626000D01*
X14573572Y-15626000D02*
X14564048Y-15616476D01*
X14925953Y-15635524D02*
X14925953Y-15435524D01*
X15011667Y-15635524D02*
X15011667Y-15530762D01*
X15011667Y-15530762D02*
X15002143Y-15511714D01*
X15002143Y-15511714D02*
X14983096Y-15502190D01*
X14983096Y-15502190D02*
X14954524Y-15502190D01*
X14954524Y-15502190D02*
X14935476Y-15511714D01*
X14935476Y-15511714D02*
X14925953Y-15521238D01*
X15135476Y-15635524D02*
X15116429Y-15626000D01*
X15116429Y-15626000D02*
X15106905Y-15616476D01*
X15106905Y-15616476D02*
X15097381Y-15597428D01*
X15097381Y-15597428D02*
X15097381Y-15540286D01*
X15097381Y-15540286D02*
X15106905Y-15521238D01*
X15106905Y-15521238D02*
X15116429Y-15511714D01*
X15116429Y-15511714D02*
X15135476Y-15502190D01*
X15135476Y-15502190D02*
X15164048Y-15502190D01*
X15164048Y-15502190D02*
X15183096Y-15511714D01*
X15183096Y-15511714D02*
X15192619Y-15521238D01*
X15192619Y-15521238D02*
X15202143Y-15540286D01*
X15202143Y-15540286D02*
X15202143Y-15597428D01*
X15202143Y-15597428D02*
X15192619Y-15616476D01*
X15192619Y-15616476D02*
X15183096Y-15626000D01*
X15183096Y-15626000D02*
X15164048Y-15635524D01*
X15164048Y-15635524D02*
X15135476Y-15635524D01*
X15316429Y-15635524D02*
X15297381Y-15626000D01*
X15297381Y-15626000D02*
X15287857Y-15606952D01*
X15287857Y-15606952D02*
X15287857Y-15435524D01*
X15468810Y-15626000D02*
X15449762Y-15635524D01*
X15449762Y-15635524D02*
X15411667Y-15635524D01*
X15411667Y-15635524D02*
X15392619Y-15626000D01*
X15392619Y-15626000D02*
X15383096Y-15606952D01*
X15383096Y-15606952D02*
X15383096Y-15530762D01*
X15383096Y-15530762D02*
X15392619Y-15511714D01*
X15392619Y-15511714D02*
X15411667Y-15502190D01*
X15411667Y-15502190D02*
X15449762Y-15502190D01*
X15449762Y-15502190D02*
X15468810Y-15511714D01*
X15468810Y-15511714D02*
X15478334Y-15530762D01*
X15478334Y-15530762D02*
X15478334Y-15549809D01*
X15478334Y-15549809D02*
X15383096Y-15568857D01*
X15554524Y-15626000D02*
X15573572Y-15635524D01*
X15573572Y-15635524D02*
X15611667Y-15635524D01*
X15611667Y-15635524D02*
X15630715Y-15626000D01*
X15630715Y-15626000D02*
X15640238Y-15606952D01*
X15640238Y-15606952D02*
X15640238Y-15597428D01*
X15640238Y-15597428D02*
X15630715Y-15578381D01*
X15630715Y-15578381D02*
X15611667Y-15568857D01*
X15611667Y-15568857D02*
X15583096Y-15568857D01*
X15583096Y-15568857D02*
X15564048Y-15559333D01*
X15564048Y-15559333D02*
X15554524Y-15540286D01*
X15554524Y-15540286D02*
X15554524Y-15530762D01*
X15554524Y-15530762D02*
X15564048Y-15511714D01*
X15564048Y-15511714D02*
X15583096Y-15502190D01*
X15583096Y-15502190D02*
X15611667Y-15502190D01*
X15611667Y-15502190D02*
X15630715Y-15511714D01*
X15706905Y-15711714D02*
X15716429Y-15702190D01*
X15716429Y-15702190D02*
X15735477Y-15673619D01*
X15735477Y-15673619D02*
X15745000Y-15654571D01*
X15745000Y-15654571D02*
X15754524Y-15626000D01*
X15754524Y-15626000D02*
X15764048Y-15578381D01*
X15764048Y-15578381D02*
X15764048Y-15540286D01*
X15764048Y-15540286D02*
X15754524Y-15492667D01*
X15754524Y-15492667D02*
X15745000Y-15464095D01*
X15745000Y-15464095D02*
X15735477Y-15445048D01*
X15735477Y-15445048D02*
X15716429Y-15416476D01*
X15716429Y-15416476D02*
X15706905Y-15406952D01*
X10745000Y-15763000D02*
X10945000Y-15963000D01*
X10945000Y-15763000D02*
X10745000Y-15963000D01*
X10915711Y-15933711D02*
X10915711Y-15792289D01*
X10774289Y-15792289D01*
X10774289Y-15933711D01*
X10915711Y-15933711D01*
X11173571Y-15755524D02*
X11297381Y-15755524D01*
X11297381Y-15755524D02*
X11230714Y-15831714D01*
X11230714Y-15831714D02*
X11259286Y-15831714D01*
X11259286Y-15831714D02*
X11278333Y-15841238D01*
X11278333Y-15841238D02*
X11287857Y-15850762D01*
X11287857Y-15850762D02*
X11297381Y-15869809D01*
X11297381Y-15869809D02*
X11297381Y-15917428D01*
X11297381Y-15917428D02*
X11287857Y-15936476D01*
X11287857Y-15936476D02*
X11278333Y-15946000D01*
X11278333Y-15946000D02*
X11259286Y-15955524D01*
X11259286Y-15955524D02*
X11202143Y-15955524D01*
X11202143Y-15955524D02*
X11183095Y-15946000D01*
X11183095Y-15946000D02*
X11173571Y-15936476D01*
X11383095Y-15936476D02*
X11392619Y-15946000D01*
X11392619Y-15946000D02*
X11383095Y-15955524D01*
X11383095Y-15955524D02*
X11373571Y-15946000D01*
X11373571Y-15946000D02*
X11383095Y-15936476D01*
X11383095Y-15936476D02*
X11383095Y-15955524D01*
X11468809Y-15774571D02*
X11478333Y-15765048D01*
X11478333Y-15765048D02*
X11497381Y-15755524D01*
X11497381Y-15755524D02*
X11545000Y-15755524D01*
X11545000Y-15755524D02*
X11564048Y-15765048D01*
X11564048Y-15765048D02*
X11573571Y-15774571D01*
X11573571Y-15774571D02*
X11583095Y-15793619D01*
X11583095Y-15793619D02*
X11583095Y-15812667D01*
X11583095Y-15812667D02*
X11573571Y-15841238D01*
X11573571Y-15841238D02*
X11459286Y-15955524D01*
X11459286Y-15955524D02*
X11583095Y-15955524D01*
X11706905Y-15755524D02*
X11725952Y-15755524D01*
X11725952Y-15755524D02*
X11745000Y-15765048D01*
X11745000Y-15765048D02*
X11754524Y-15774571D01*
X11754524Y-15774571D02*
X11764048Y-15793619D01*
X11764048Y-15793619D02*
X11773571Y-15831714D01*
X11773571Y-15831714D02*
X11773571Y-15879333D01*
X11773571Y-15879333D02*
X11764048Y-15917428D01*
X11764048Y-15917428D02*
X11754524Y-15936476D01*
X11754524Y-15936476D02*
X11745000Y-15946000D01*
X11745000Y-15946000D02*
X11725952Y-15955524D01*
X11725952Y-15955524D02*
X11706905Y-15955524D01*
X11706905Y-15955524D02*
X11687857Y-15946000D01*
X11687857Y-15946000D02*
X11678333Y-15936476D01*
X11678333Y-15936476D02*
X11668809Y-15917428D01*
X11668809Y-15917428D02*
X11659286Y-15879333D01*
X11659286Y-15879333D02*
X11659286Y-15831714D01*
X11659286Y-15831714D02*
X11668809Y-15793619D01*
X11668809Y-15793619D02*
X11678333Y-15774571D01*
X11678333Y-15774571D02*
X11687857Y-15765048D01*
X11687857Y-15765048D02*
X11706905Y-15755524D01*
X11897381Y-15755524D02*
X11916429Y-15755524D01*
X11916429Y-15755524D02*
X11935476Y-15765048D01*
X11935476Y-15765048D02*
X11945000Y-15774571D01*
X11945000Y-15774571D02*
X11954524Y-15793619D01*
X11954524Y-15793619D02*
X11964048Y-15831714D01*
X11964048Y-15831714D02*
X11964048Y-15879333D01*
X11964048Y-15879333D02*
X11954524Y-15917428D01*
X11954524Y-15917428D02*
X11945000Y-15936476D01*
X11945000Y-15936476D02*
X11935476Y-15946000D01*
X11935476Y-15946000D02*
X11916429Y-15955524D01*
X11916429Y-15955524D02*
X11897381Y-15955524D01*
X11897381Y-15955524D02*
X11878333Y-15946000D01*
X11878333Y-15946000D02*
X11868809Y-15936476D01*
X11868809Y-15936476D02*
X11859286Y-15917428D01*
X11859286Y-15917428D02*
X11849762Y-15879333D01*
X11849762Y-15879333D02*
X11849762Y-15831714D01*
X11849762Y-15831714D02*
X11859286Y-15793619D01*
X11859286Y-15793619D02*
X11868809Y-15774571D01*
X11868809Y-15774571D02*
X11878333Y-15765048D01*
X11878333Y-15765048D02*
X11897381Y-15755524D01*
X12049762Y-15955524D02*
X12049762Y-15822190D01*
X12049762Y-15841238D02*
X12059286Y-15831714D01*
X12059286Y-15831714D02*
X12078333Y-15822190D01*
X12078333Y-15822190D02*
X12106905Y-15822190D01*
X12106905Y-15822190D02*
X12125952Y-15831714D01*
X12125952Y-15831714D02*
X12135476Y-15850762D01*
X12135476Y-15850762D02*
X12135476Y-15955524D01*
X12135476Y-15850762D02*
X12145000Y-15831714D01*
X12145000Y-15831714D02*
X12164048Y-15822190D01*
X12164048Y-15822190D02*
X12192619Y-15822190D01*
X12192619Y-15822190D02*
X12211667Y-15831714D01*
X12211667Y-15831714D02*
X12221190Y-15850762D01*
X12221190Y-15850762D02*
X12221190Y-15955524D01*
X12316429Y-15955524D02*
X12316429Y-15822190D01*
X12316429Y-15841238D02*
X12325952Y-15831714D01*
X12325952Y-15831714D02*
X12345000Y-15822190D01*
X12345000Y-15822190D02*
X12373571Y-15822190D01*
X12373571Y-15822190D02*
X12392619Y-15831714D01*
X12392619Y-15831714D02*
X12402143Y-15850762D01*
X12402143Y-15850762D02*
X12402143Y-15955524D01*
X12402143Y-15850762D02*
X12411667Y-15831714D01*
X12411667Y-15831714D02*
X12430714Y-15822190D01*
X12430714Y-15822190D02*
X12459286Y-15822190D01*
X12459286Y-15822190D02*
X12478333Y-15831714D01*
X12478333Y-15831714D02*
X12487857Y-15850762D01*
X12487857Y-15850762D02*
X12487857Y-15955524D01*
X12878333Y-15746000D02*
X12706905Y-16003143D01*
X13135476Y-15755524D02*
X13154524Y-15755524D01*
X13154524Y-15755524D02*
X13173572Y-15765048D01*
X13173572Y-15765048D02*
X13183095Y-15774571D01*
X13183095Y-15774571D02*
X13192619Y-15793619D01*
X13192619Y-15793619D02*
X13202143Y-15831714D01*
X13202143Y-15831714D02*
X13202143Y-15879333D01*
X13202143Y-15879333D02*
X13192619Y-15917428D01*
X13192619Y-15917428D02*
X13183095Y-15936476D01*
X13183095Y-15936476D02*
X13173572Y-15946000D01*
X13173572Y-15946000D02*
X13154524Y-15955524D01*
X13154524Y-15955524D02*
X13135476Y-15955524D01*
X13135476Y-15955524D02*
X13116429Y-15946000D01*
X13116429Y-15946000D02*
X13106905Y-15936476D01*
X13106905Y-15936476D02*
X13097381Y-15917428D01*
X13097381Y-15917428D02*
X13087857Y-15879333D01*
X13087857Y-15879333D02*
X13087857Y-15831714D01*
X13087857Y-15831714D02*
X13097381Y-15793619D01*
X13097381Y-15793619D02*
X13106905Y-15774571D01*
X13106905Y-15774571D02*
X13116429Y-15765048D01*
X13116429Y-15765048D02*
X13135476Y-15755524D01*
X13287857Y-15936476D02*
X13297381Y-15946000D01*
X13297381Y-15946000D02*
X13287857Y-15955524D01*
X13287857Y-15955524D02*
X13278333Y-15946000D01*
X13278333Y-15946000D02*
X13287857Y-15936476D01*
X13287857Y-15936476D02*
X13287857Y-15955524D01*
X13487857Y-15955524D02*
X13373572Y-15955524D01*
X13430714Y-15955524D02*
X13430714Y-15755524D01*
X13430714Y-15755524D02*
X13411667Y-15784095D01*
X13411667Y-15784095D02*
X13392619Y-15803143D01*
X13392619Y-15803143D02*
X13373572Y-15812667D01*
X13564048Y-15774571D02*
X13573572Y-15765048D01*
X13573572Y-15765048D02*
X13592619Y-15755524D01*
X13592619Y-15755524D02*
X13640238Y-15755524D01*
X13640238Y-15755524D02*
X13659286Y-15765048D01*
X13659286Y-15765048D02*
X13668810Y-15774571D01*
X13668810Y-15774571D02*
X13678333Y-15793619D01*
X13678333Y-15793619D02*
X13678333Y-15812667D01*
X13678333Y-15812667D02*
X13668810Y-15841238D01*
X13668810Y-15841238D02*
X13554524Y-15955524D01*
X13554524Y-15955524D02*
X13678333Y-15955524D01*
X13849762Y-15755524D02*
X13811667Y-15755524D01*
X13811667Y-15755524D02*
X13792619Y-15765048D01*
X13792619Y-15765048D02*
X13783095Y-15774571D01*
X13783095Y-15774571D02*
X13764048Y-15803143D01*
X13764048Y-15803143D02*
X13754524Y-15841238D01*
X13754524Y-15841238D02*
X13754524Y-15917428D01*
X13754524Y-15917428D02*
X13764048Y-15936476D01*
X13764048Y-15936476D02*
X13773572Y-15946000D01*
X13773572Y-15946000D02*
X13792619Y-15955524D01*
X13792619Y-15955524D02*
X13830714Y-15955524D01*
X13830714Y-15955524D02*
X13849762Y-15946000D01*
X13849762Y-15946000D02*
X13859286Y-15936476D01*
X13859286Y-15936476D02*
X13868810Y-15917428D01*
X13868810Y-15917428D02*
X13868810Y-15869809D01*
X13868810Y-15869809D02*
X13859286Y-15850762D01*
X13859286Y-15850762D02*
X13849762Y-15841238D01*
X13849762Y-15841238D02*
X13830714Y-15831714D01*
X13830714Y-15831714D02*
X13792619Y-15831714D01*
X13792619Y-15831714D02*
X13773572Y-15841238D01*
X13773572Y-15841238D02*
X13764048Y-15850762D01*
X13764048Y-15850762D02*
X13754524Y-15869809D01*
X13992619Y-15755524D02*
X14011667Y-15755524D01*
X14011667Y-15755524D02*
X14030714Y-15765048D01*
X14030714Y-15765048D02*
X14040238Y-15774571D01*
X14040238Y-15774571D02*
X14049762Y-15793619D01*
X14049762Y-15793619D02*
X14059286Y-15831714D01*
X14059286Y-15831714D02*
X14059286Y-15879333D01*
X14059286Y-15879333D02*
X14049762Y-15917428D01*
X14049762Y-15917428D02*
X14040238Y-15936476D01*
X14040238Y-15936476D02*
X14030714Y-15946000D01*
X14030714Y-15946000D02*
X14011667Y-15955524D01*
X14011667Y-15955524D02*
X13992619Y-15955524D01*
X13992619Y-15955524D02*
X13973572Y-15946000D01*
X13973572Y-15946000D02*
X13964048Y-15936476D01*
X13964048Y-15936476D02*
X13954524Y-15917428D01*
X13954524Y-15917428D02*
X13945000Y-15879333D01*
X13945000Y-15879333D02*
X13945000Y-15831714D01*
X13945000Y-15831714D02*
X13954524Y-15793619D01*
X13954524Y-15793619D02*
X13964048Y-15774571D01*
X13964048Y-15774571D02*
X13973572Y-15765048D01*
X13973572Y-15765048D02*
X13992619Y-15755524D01*
X14135476Y-15755524D02*
X14135476Y-15793619D01*
X14211667Y-15755524D02*
X14211667Y-15793619D01*
X14506905Y-16031714D02*
X14497381Y-16022190D01*
X14497381Y-16022190D02*
X14478334Y-15993619D01*
X14478334Y-15993619D02*
X14468810Y-15974571D01*
X14468810Y-15974571D02*
X14459286Y-15946000D01*
X14459286Y-15946000D02*
X14449762Y-15898381D01*
X14449762Y-15898381D02*
X14449762Y-15860286D01*
X14449762Y-15860286D02*
X14459286Y-15812667D01*
X14459286Y-15812667D02*
X14468810Y-15784095D01*
X14468810Y-15784095D02*
X14478334Y-15765048D01*
X14478334Y-15765048D02*
X14497381Y-15736476D01*
X14497381Y-15736476D02*
X14506905Y-15726952D01*
X14668810Y-15822190D02*
X14668810Y-15955524D01*
X14621191Y-15746000D02*
X14573572Y-15888857D01*
X14573572Y-15888857D02*
X14697381Y-15888857D01*
X14925953Y-15955524D02*
X14925953Y-15755524D01*
X15011667Y-15955524D02*
X15011667Y-15850762D01*
X15011667Y-15850762D02*
X15002143Y-15831714D01*
X15002143Y-15831714D02*
X14983096Y-15822190D01*
X14983096Y-15822190D02*
X14954524Y-15822190D01*
X14954524Y-15822190D02*
X14935476Y-15831714D01*
X14935476Y-15831714D02*
X14925953Y-15841238D01*
X15135476Y-15955524D02*
X15116429Y-15946000D01*
X15116429Y-15946000D02*
X15106905Y-15936476D01*
X15106905Y-15936476D02*
X15097381Y-15917428D01*
X15097381Y-15917428D02*
X15097381Y-15860286D01*
X15097381Y-15860286D02*
X15106905Y-15841238D01*
X15106905Y-15841238D02*
X15116429Y-15831714D01*
X15116429Y-15831714D02*
X15135476Y-15822190D01*
X15135476Y-15822190D02*
X15164048Y-15822190D01*
X15164048Y-15822190D02*
X15183096Y-15831714D01*
X15183096Y-15831714D02*
X15192619Y-15841238D01*
X15192619Y-15841238D02*
X15202143Y-15860286D01*
X15202143Y-15860286D02*
X15202143Y-15917428D01*
X15202143Y-15917428D02*
X15192619Y-15936476D01*
X15192619Y-15936476D02*
X15183096Y-15946000D01*
X15183096Y-15946000D02*
X15164048Y-15955524D01*
X15164048Y-15955524D02*
X15135476Y-15955524D01*
X15316429Y-15955524D02*
X15297381Y-15946000D01*
X15297381Y-15946000D02*
X15287857Y-15926952D01*
X15287857Y-15926952D02*
X15287857Y-15755524D01*
X15468810Y-15946000D02*
X15449762Y-15955524D01*
X15449762Y-15955524D02*
X15411667Y-15955524D01*
X15411667Y-15955524D02*
X15392619Y-15946000D01*
X15392619Y-15946000D02*
X15383096Y-15926952D01*
X15383096Y-15926952D02*
X15383096Y-15850762D01*
X15383096Y-15850762D02*
X15392619Y-15831714D01*
X15392619Y-15831714D02*
X15411667Y-15822190D01*
X15411667Y-15822190D02*
X15449762Y-15822190D01*
X15449762Y-15822190D02*
X15468810Y-15831714D01*
X15468810Y-15831714D02*
X15478334Y-15850762D01*
X15478334Y-15850762D02*
X15478334Y-15869809D01*
X15478334Y-15869809D02*
X15383096Y-15888857D01*
X15554524Y-15946000D02*
X15573572Y-15955524D01*
X15573572Y-15955524D02*
X15611667Y-15955524D01*
X15611667Y-15955524D02*
X15630715Y-15946000D01*
X15630715Y-15946000D02*
X15640238Y-15926952D01*
X15640238Y-15926952D02*
X15640238Y-15917428D01*
X15640238Y-15917428D02*
X15630715Y-15898381D01*
X15630715Y-15898381D02*
X15611667Y-15888857D01*
X15611667Y-15888857D02*
X15583096Y-15888857D01*
X15583096Y-15888857D02*
X15564048Y-15879333D01*
X15564048Y-15879333D02*
X15554524Y-15860286D01*
X15554524Y-15860286D02*
X15554524Y-15850762D01*
X15554524Y-15850762D02*
X15564048Y-15831714D01*
X15564048Y-15831714D02*
X15583096Y-15822190D01*
X15583096Y-15822190D02*
X15611667Y-15822190D01*
X15611667Y-15822190D02*
X15630715Y-15831714D01*
X15706905Y-16031714D02*
X15716429Y-16022190D01*
X15716429Y-16022190D02*
X15735477Y-15993619D01*
X15735477Y-15993619D02*
X15745000Y-15974571D01*
X15745000Y-15974571D02*
X15754524Y-15946000D01*
X15754524Y-15946000D02*
X15764048Y-15898381D01*
X15764048Y-15898381D02*
X15764048Y-15860286D01*
X15764048Y-15860286D02*
X15754524Y-15812667D01*
X15754524Y-15812667D02*
X15745000Y-15784095D01*
X15745000Y-15784095D02*
X15735477Y-15765048D01*
X15735477Y-15765048D02*
X15716429Y-15736476D01*
X15716429Y-15736476D02*
X15706905Y-15726952D01*
M02*
