%TF.GenerationSoftware,KiCad,Pcbnew,7.0.1*%
%TF.CreationDate,2023-07-17T00:51:04+01:00*%
%TF.ProjectId,Power Board,506f7765-7220-4426-9f61-72642e6b6963,rev?*%
%TF.SameCoordinates,Original*%
%TF.FileFunction,Drillmap*%
%TF.FilePolarity,Positive*%
%FSLAX45Y45*%
G04 Gerber Fmt 4.5, Leading zero omitted, Abs format (unit mm)*
G04 Created by KiCad (PCBNEW 7.0.1) date 2023-07-17 00:51:04*
%MOMM*%
%LPD*%
G01*
G04 APERTURE LIST*
%ADD10C,0.100000*%
%ADD11C,0.200000*%
%ADD12C,0.060000*%
%ADD13C,0.099060*%
%ADD14C,0.237490*%
%ADD15C,0.270000*%
G04 APERTURE END LIST*
D10*
X11250000Y-13250000D02*
X19150000Y-13250000D01*
X11250000Y-6750000D02*
G75*
G03*
X10950000Y-7050000I0J-300000D01*
G01*
X10950000Y-7050000D02*
X10950000Y-12950000D01*
X10950000Y-12950000D02*
G75*
G03*
X11250000Y-13250000I300000J0D01*
G01*
X19150000Y-13250000D02*
G75*
G03*
X19450000Y-12950000I0J300000D01*
G01*
X19450000Y-7050000D02*
G75*
G03*
X19150000Y-6750000I-300000J0D01*
G01*
X19450000Y-12950000D02*
X19450000Y-7050000D01*
X19150000Y-6750000D02*
X11250000Y-6750000D01*
D11*
D12*
X12106000Y-12643250D02*
X12166000Y-12703250D01*
X12166000Y-12643250D02*
X12106000Y-12703250D01*
X12684000Y-12643250D02*
X12744000Y-12703250D01*
X12744000Y-12643250D02*
X12684000Y-12703250D01*
D13*
X12347930Y-8539000D02*
G75*
G03*
X12347930Y-8539000I-49530J0D01*
G01*
X12449530Y-8031000D02*
G75*
G03*
X12449530Y-8031000I-49530J0D01*
G01*
X12551130Y-8539000D02*
G75*
G03*
X12551130Y-8539000I-49530J0D01*
G01*
D14*
X12146000Y-7912255D02*
X12146000Y-8149745D01*
X12027255Y-8031000D02*
X12264745Y-8031000D01*
X12146000Y-8229755D02*
X12146000Y-8467245D01*
X12027255Y-8348500D02*
X12264745Y-8348500D01*
X12654000Y-7912255D02*
X12654000Y-8149745D01*
X12535255Y-8031000D02*
X12772745Y-8031000D01*
X12654000Y-8229755D02*
X12654000Y-8467245D01*
X12535255Y-8348500D02*
X12772745Y-8348500D01*
D15*
X17420460Y-12745460D02*
X17420460Y-12554540D01*
X17229540Y-12554540D01*
X17229540Y-12745460D01*
X17420460Y-12745460D01*
D11*
X11192619Y-13567524D02*
X11192619Y-13367524D01*
X11192619Y-13367524D02*
X11240238Y-13367524D01*
X11240238Y-13367524D02*
X11268809Y-13377048D01*
X11268809Y-13377048D02*
X11287857Y-13396095D01*
X11287857Y-13396095D02*
X11297381Y-13415143D01*
X11297381Y-13415143D02*
X11306905Y-13453238D01*
X11306905Y-13453238D02*
X11306905Y-13481809D01*
X11306905Y-13481809D02*
X11297381Y-13519905D01*
X11297381Y-13519905D02*
X11287857Y-13538952D01*
X11287857Y-13538952D02*
X11268809Y-13558000D01*
X11268809Y-13558000D02*
X11240238Y-13567524D01*
X11240238Y-13567524D02*
X11192619Y-13567524D01*
X11392619Y-13567524D02*
X11392619Y-13434190D01*
X11392619Y-13472286D02*
X11402143Y-13453238D01*
X11402143Y-13453238D02*
X11411667Y-13443714D01*
X11411667Y-13443714D02*
X11430714Y-13434190D01*
X11430714Y-13434190D02*
X11449762Y-13434190D01*
X11516428Y-13567524D02*
X11516428Y-13434190D01*
X11516428Y-13367524D02*
X11506905Y-13377048D01*
X11506905Y-13377048D02*
X11516428Y-13386571D01*
X11516428Y-13386571D02*
X11525952Y-13377048D01*
X11525952Y-13377048D02*
X11516428Y-13367524D01*
X11516428Y-13367524D02*
X11516428Y-13386571D01*
X11640238Y-13567524D02*
X11621190Y-13558000D01*
X11621190Y-13558000D02*
X11611667Y-13538952D01*
X11611667Y-13538952D02*
X11611667Y-13367524D01*
X11745000Y-13567524D02*
X11725952Y-13558000D01*
X11725952Y-13558000D02*
X11716428Y-13538952D01*
X11716428Y-13538952D02*
X11716428Y-13367524D01*
X11973571Y-13567524D02*
X11973571Y-13367524D01*
X11973571Y-13367524D02*
X12040238Y-13510381D01*
X12040238Y-13510381D02*
X12106905Y-13367524D01*
X12106905Y-13367524D02*
X12106905Y-13567524D01*
X12287857Y-13567524D02*
X12287857Y-13462762D01*
X12287857Y-13462762D02*
X12278333Y-13443714D01*
X12278333Y-13443714D02*
X12259286Y-13434190D01*
X12259286Y-13434190D02*
X12221190Y-13434190D01*
X12221190Y-13434190D02*
X12202143Y-13443714D01*
X12287857Y-13558000D02*
X12268809Y-13567524D01*
X12268809Y-13567524D02*
X12221190Y-13567524D01*
X12221190Y-13567524D02*
X12202143Y-13558000D01*
X12202143Y-13558000D02*
X12192619Y-13538952D01*
X12192619Y-13538952D02*
X12192619Y-13519905D01*
X12192619Y-13519905D02*
X12202143Y-13500857D01*
X12202143Y-13500857D02*
X12221190Y-13491333D01*
X12221190Y-13491333D02*
X12268809Y-13491333D01*
X12268809Y-13491333D02*
X12287857Y-13481809D01*
X12383095Y-13434190D02*
X12383095Y-13634190D01*
X12383095Y-13443714D02*
X12402143Y-13434190D01*
X12402143Y-13434190D02*
X12440238Y-13434190D01*
X12440238Y-13434190D02*
X12459286Y-13443714D01*
X12459286Y-13443714D02*
X12468809Y-13453238D01*
X12468809Y-13453238D02*
X12478333Y-13472286D01*
X12478333Y-13472286D02*
X12478333Y-13529428D01*
X12478333Y-13529428D02*
X12468809Y-13548476D01*
X12468809Y-13548476D02*
X12459286Y-13558000D01*
X12459286Y-13558000D02*
X12440238Y-13567524D01*
X12440238Y-13567524D02*
X12402143Y-13567524D01*
X12402143Y-13567524D02*
X12383095Y-13558000D01*
X12564048Y-13548476D02*
X12573571Y-13558000D01*
X12573571Y-13558000D02*
X12564048Y-13567524D01*
X12564048Y-13567524D02*
X12554524Y-13558000D01*
X12554524Y-13558000D02*
X12564048Y-13548476D01*
X12564048Y-13548476D02*
X12564048Y-13567524D01*
X12564048Y-13443714D02*
X12573571Y-13453238D01*
X12573571Y-13453238D02*
X12564048Y-13462762D01*
X12564048Y-13462762D02*
X12554524Y-13453238D01*
X12554524Y-13453238D02*
X12564048Y-13443714D01*
X12564048Y-13443714D02*
X12564048Y-13462762D01*
D12*
X10885000Y-13865000D02*
X10945000Y-13925000D01*
X10945000Y-13865000D02*
X10885000Y-13925000D01*
D11*
X11230714Y-13787524D02*
X11249762Y-13787524D01*
X11249762Y-13787524D02*
X11268809Y-13797048D01*
X11268809Y-13797048D02*
X11278333Y-13806571D01*
X11278333Y-13806571D02*
X11287857Y-13825619D01*
X11287857Y-13825619D02*
X11297381Y-13863714D01*
X11297381Y-13863714D02*
X11297381Y-13911333D01*
X11297381Y-13911333D02*
X11287857Y-13949428D01*
X11287857Y-13949428D02*
X11278333Y-13968476D01*
X11278333Y-13968476D02*
X11268809Y-13978000D01*
X11268809Y-13978000D02*
X11249762Y-13987524D01*
X11249762Y-13987524D02*
X11230714Y-13987524D01*
X11230714Y-13987524D02*
X11211667Y-13978000D01*
X11211667Y-13978000D02*
X11202143Y-13968476D01*
X11202143Y-13968476D02*
X11192619Y-13949428D01*
X11192619Y-13949428D02*
X11183095Y-13911333D01*
X11183095Y-13911333D02*
X11183095Y-13863714D01*
X11183095Y-13863714D02*
X11192619Y-13825619D01*
X11192619Y-13825619D02*
X11202143Y-13806571D01*
X11202143Y-13806571D02*
X11211667Y-13797048D01*
X11211667Y-13797048D02*
X11230714Y-13787524D01*
X11383095Y-13968476D02*
X11392619Y-13978000D01*
X11392619Y-13978000D02*
X11383095Y-13987524D01*
X11383095Y-13987524D02*
X11373571Y-13978000D01*
X11373571Y-13978000D02*
X11383095Y-13968476D01*
X11383095Y-13968476D02*
X11383095Y-13987524D01*
X11564048Y-13787524D02*
X11525952Y-13787524D01*
X11525952Y-13787524D02*
X11506905Y-13797048D01*
X11506905Y-13797048D02*
X11497381Y-13806571D01*
X11497381Y-13806571D02*
X11478333Y-13835143D01*
X11478333Y-13835143D02*
X11468809Y-13873238D01*
X11468809Y-13873238D02*
X11468809Y-13949428D01*
X11468809Y-13949428D02*
X11478333Y-13968476D01*
X11478333Y-13968476D02*
X11487857Y-13978000D01*
X11487857Y-13978000D02*
X11506905Y-13987524D01*
X11506905Y-13987524D02*
X11545000Y-13987524D01*
X11545000Y-13987524D02*
X11564048Y-13978000D01*
X11564048Y-13978000D02*
X11573571Y-13968476D01*
X11573571Y-13968476D02*
X11583095Y-13949428D01*
X11583095Y-13949428D02*
X11583095Y-13901809D01*
X11583095Y-13901809D02*
X11573571Y-13882762D01*
X11573571Y-13882762D02*
X11564048Y-13873238D01*
X11564048Y-13873238D02*
X11545000Y-13863714D01*
X11545000Y-13863714D02*
X11506905Y-13863714D01*
X11506905Y-13863714D02*
X11487857Y-13873238D01*
X11487857Y-13873238D02*
X11478333Y-13882762D01*
X11478333Y-13882762D02*
X11468809Y-13901809D01*
X11706905Y-13787524D02*
X11725952Y-13787524D01*
X11725952Y-13787524D02*
X11745000Y-13797048D01*
X11745000Y-13797048D02*
X11754524Y-13806571D01*
X11754524Y-13806571D02*
X11764048Y-13825619D01*
X11764048Y-13825619D02*
X11773571Y-13863714D01*
X11773571Y-13863714D02*
X11773571Y-13911333D01*
X11773571Y-13911333D02*
X11764048Y-13949428D01*
X11764048Y-13949428D02*
X11754524Y-13968476D01*
X11754524Y-13968476D02*
X11745000Y-13978000D01*
X11745000Y-13978000D02*
X11725952Y-13987524D01*
X11725952Y-13987524D02*
X11706905Y-13987524D01*
X11706905Y-13987524D02*
X11687857Y-13978000D01*
X11687857Y-13978000D02*
X11678333Y-13968476D01*
X11678333Y-13968476D02*
X11668809Y-13949428D01*
X11668809Y-13949428D02*
X11659286Y-13911333D01*
X11659286Y-13911333D02*
X11659286Y-13863714D01*
X11659286Y-13863714D02*
X11668809Y-13825619D01*
X11668809Y-13825619D02*
X11678333Y-13806571D01*
X11678333Y-13806571D02*
X11687857Y-13797048D01*
X11687857Y-13797048D02*
X11706905Y-13787524D01*
X11897381Y-13787524D02*
X11916429Y-13787524D01*
X11916429Y-13787524D02*
X11935476Y-13797048D01*
X11935476Y-13797048D02*
X11945000Y-13806571D01*
X11945000Y-13806571D02*
X11954524Y-13825619D01*
X11954524Y-13825619D02*
X11964048Y-13863714D01*
X11964048Y-13863714D02*
X11964048Y-13911333D01*
X11964048Y-13911333D02*
X11954524Y-13949428D01*
X11954524Y-13949428D02*
X11945000Y-13968476D01*
X11945000Y-13968476D02*
X11935476Y-13978000D01*
X11935476Y-13978000D02*
X11916429Y-13987524D01*
X11916429Y-13987524D02*
X11897381Y-13987524D01*
X11897381Y-13987524D02*
X11878333Y-13978000D01*
X11878333Y-13978000D02*
X11868809Y-13968476D01*
X11868809Y-13968476D02*
X11859286Y-13949428D01*
X11859286Y-13949428D02*
X11849762Y-13911333D01*
X11849762Y-13911333D02*
X11849762Y-13863714D01*
X11849762Y-13863714D02*
X11859286Y-13825619D01*
X11859286Y-13825619D02*
X11868809Y-13806571D01*
X11868809Y-13806571D02*
X11878333Y-13797048D01*
X11878333Y-13797048D02*
X11897381Y-13787524D01*
X12049762Y-13987524D02*
X12049762Y-13854190D01*
X12049762Y-13873238D02*
X12059286Y-13863714D01*
X12059286Y-13863714D02*
X12078333Y-13854190D01*
X12078333Y-13854190D02*
X12106905Y-13854190D01*
X12106905Y-13854190D02*
X12125952Y-13863714D01*
X12125952Y-13863714D02*
X12135476Y-13882762D01*
X12135476Y-13882762D02*
X12135476Y-13987524D01*
X12135476Y-13882762D02*
X12145000Y-13863714D01*
X12145000Y-13863714D02*
X12164048Y-13854190D01*
X12164048Y-13854190D02*
X12192619Y-13854190D01*
X12192619Y-13854190D02*
X12211667Y-13863714D01*
X12211667Y-13863714D02*
X12221190Y-13882762D01*
X12221190Y-13882762D02*
X12221190Y-13987524D01*
X12316429Y-13987524D02*
X12316429Y-13854190D01*
X12316429Y-13873238D02*
X12325952Y-13863714D01*
X12325952Y-13863714D02*
X12345000Y-13854190D01*
X12345000Y-13854190D02*
X12373571Y-13854190D01*
X12373571Y-13854190D02*
X12392619Y-13863714D01*
X12392619Y-13863714D02*
X12402143Y-13882762D01*
X12402143Y-13882762D02*
X12402143Y-13987524D01*
X12402143Y-13882762D02*
X12411667Y-13863714D01*
X12411667Y-13863714D02*
X12430714Y-13854190D01*
X12430714Y-13854190D02*
X12459286Y-13854190D01*
X12459286Y-13854190D02*
X12478333Y-13863714D01*
X12478333Y-13863714D02*
X12487857Y-13882762D01*
X12487857Y-13882762D02*
X12487857Y-13987524D01*
X12878333Y-13778000D02*
X12706905Y-14035143D01*
X13135476Y-13787524D02*
X13154524Y-13787524D01*
X13154524Y-13787524D02*
X13173572Y-13797048D01*
X13173572Y-13797048D02*
X13183095Y-13806571D01*
X13183095Y-13806571D02*
X13192619Y-13825619D01*
X13192619Y-13825619D02*
X13202143Y-13863714D01*
X13202143Y-13863714D02*
X13202143Y-13911333D01*
X13202143Y-13911333D02*
X13192619Y-13949428D01*
X13192619Y-13949428D02*
X13183095Y-13968476D01*
X13183095Y-13968476D02*
X13173572Y-13978000D01*
X13173572Y-13978000D02*
X13154524Y-13987524D01*
X13154524Y-13987524D02*
X13135476Y-13987524D01*
X13135476Y-13987524D02*
X13116429Y-13978000D01*
X13116429Y-13978000D02*
X13106905Y-13968476D01*
X13106905Y-13968476D02*
X13097381Y-13949428D01*
X13097381Y-13949428D02*
X13087857Y-13911333D01*
X13087857Y-13911333D02*
X13087857Y-13863714D01*
X13087857Y-13863714D02*
X13097381Y-13825619D01*
X13097381Y-13825619D02*
X13106905Y-13806571D01*
X13106905Y-13806571D02*
X13116429Y-13797048D01*
X13116429Y-13797048D02*
X13135476Y-13787524D01*
X13287857Y-13968476D02*
X13297381Y-13978000D01*
X13297381Y-13978000D02*
X13287857Y-13987524D01*
X13287857Y-13987524D02*
X13278333Y-13978000D01*
X13278333Y-13978000D02*
X13287857Y-13968476D01*
X13287857Y-13968476D02*
X13287857Y-13987524D01*
X13421191Y-13787524D02*
X13440238Y-13787524D01*
X13440238Y-13787524D02*
X13459286Y-13797048D01*
X13459286Y-13797048D02*
X13468810Y-13806571D01*
X13468810Y-13806571D02*
X13478333Y-13825619D01*
X13478333Y-13825619D02*
X13487857Y-13863714D01*
X13487857Y-13863714D02*
X13487857Y-13911333D01*
X13487857Y-13911333D02*
X13478333Y-13949428D01*
X13478333Y-13949428D02*
X13468810Y-13968476D01*
X13468810Y-13968476D02*
X13459286Y-13978000D01*
X13459286Y-13978000D02*
X13440238Y-13987524D01*
X13440238Y-13987524D02*
X13421191Y-13987524D01*
X13421191Y-13987524D02*
X13402143Y-13978000D01*
X13402143Y-13978000D02*
X13392619Y-13968476D01*
X13392619Y-13968476D02*
X13383095Y-13949428D01*
X13383095Y-13949428D02*
X13373572Y-13911333D01*
X13373572Y-13911333D02*
X13373572Y-13863714D01*
X13373572Y-13863714D02*
X13383095Y-13825619D01*
X13383095Y-13825619D02*
X13392619Y-13806571D01*
X13392619Y-13806571D02*
X13402143Y-13797048D01*
X13402143Y-13797048D02*
X13421191Y-13787524D01*
X13564048Y-13806571D02*
X13573572Y-13797048D01*
X13573572Y-13797048D02*
X13592619Y-13787524D01*
X13592619Y-13787524D02*
X13640238Y-13787524D01*
X13640238Y-13787524D02*
X13659286Y-13797048D01*
X13659286Y-13797048D02*
X13668810Y-13806571D01*
X13668810Y-13806571D02*
X13678333Y-13825619D01*
X13678333Y-13825619D02*
X13678333Y-13844667D01*
X13678333Y-13844667D02*
X13668810Y-13873238D01*
X13668810Y-13873238D02*
X13554524Y-13987524D01*
X13554524Y-13987524D02*
X13678333Y-13987524D01*
X13745000Y-13787524D02*
X13868810Y-13787524D01*
X13868810Y-13787524D02*
X13802143Y-13863714D01*
X13802143Y-13863714D02*
X13830714Y-13863714D01*
X13830714Y-13863714D02*
X13849762Y-13873238D01*
X13849762Y-13873238D02*
X13859286Y-13882762D01*
X13859286Y-13882762D02*
X13868810Y-13901809D01*
X13868810Y-13901809D02*
X13868810Y-13949428D01*
X13868810Y-13949428D02*
X13859286Y-13968476D01*
X13859286Y-13968476D02*
X13849762Y-13978000D01*
X13849762Y-13978000D02*
X13830714Y-13987524D01*
X13830714Y-13987524D02*
X13773572Y-13987524D01*
X13773572Y-13987524D02*
X13754524Y-13978000D01*
X13754524Y-13978000D02*
X13745000Y-13968476D01*
X14040238Y-13787524D02*
X14002143Y-13787524D01*
X14002143Y-13787524D02*
X13983095Y-13797048D01*
X13983095Y-13797048D02*
X13973572Y-13806571D01*
X13973572Y-13806571D02*
X13954524Y-13835143D01*
X13954524Y-13835143D02*
X13945000Y-13873238D01*
X13945000Y-13873238D02*
X13945000Y-13949428D01*
X13945000Y-13949428D02*
X13954524Y-13968476D01*
X13954524Y-13968476D02*
X13964048Y-13978000D01*
X13964048Y-13978000D02*
X13983095Y-13987524D01*
X13983095Y-13987524D02*
X14021191Y-13987524D01*
X14021191Y-13987524D02*
X14040238Y-13978000D01*
X14040238Y-13978000D02*
X14049762Y-13968476D01*
X14049762Y-13968476D02*
X14059286Y-13949428D01*
X14059286Y-13949428D02*
X14059286Y-13901809D01*
X14059286Y-13901809D02*
X14049762Y-13882762D01*
X14049762Y-13882762D02*
X14040238Y-13873238D01*
X14040238Y-13873238D02*
X14021191Y-13863714D01*
X14021191Y-13863714D02*
X13983095Y-13863714D01*
X13983095Y-13863714D02*
X13964048Y-13873238D01*
X13964048Y-13873238D02*
X13954524Y-13882762D01*
X13954524Y-13882762D02*
X13945000Y-13901809D01*
X14135476Y-13787524D02*
X14135476Y-13825619D01*
X14211667Y-13787524D02*
X14211667Y-13825619D01*
X14506905Y-14063714D02*
X14497381Y-14054190D01*
X14497381Y-14054190D02*
X14478334Y-14025619D01*
X14478334Y-14025619D02*
X14468810Y-14006571D01*
X14468810Y-14006571D02*
X14459286Y-13978000D01*
X14459286Y-13978000D02*
X14449762Y-13930381D01*
X14449762Y-13930381D02*
X14449762Y-13892286D01*
X14449762Y-13892286D02*
X14459286Y-13844667D01*
X14459286Y-13844667D02*
X14468810Y-13816095D01*
X14468810Y-13816095D02*
X14478334Y-13797048D01*
X14478334Y-13797048D02*
X14497381Y-13768476D01*
X14497381Y-13768476D02*
X14506905Y-13758952D01*
X14573572Y-13806571D02*
X14583095Y-13797048D01*
X14583095Y-13797048D02*
X14602143Y-13787524D01*
X14602143Y-13787524D02*
X14649762Y-13787524D01*
X14649762Y-13787524D02*
X14668810Y-13797048D01*
X14668810Y-13797048D02*
X14678334Y-13806571D01*
X14678334Y-13806571D02*
X14687857Y-13825619D01*
X14687857Y-13825619D02*
X14687857Y-13844667D01*
X14687857Y-13844667D02*
X14678334Y-13873238D01*
X14678334Y-13873238D02*
X14564048Y-13987524D01*
X14564048Y-13987524D02*
X14687857Y-13987524D01*
X14925953Y-13987524D02*
X14925953Y-13787524D01*
X15011667Y-13987524D02*
X15011667Y-13882762D01*
X15011667Y-13882762D02*
X15002143Y-13863714D01*
X15002143Y-13863714D02*
X14983096Y-13854190D01*
X14983096Y-13854190D02*
X14954524Y-13854190D01*
X14954524Y-13854190D02*
X14935476Y-13863714D01*
X14935476Y-13863714D02*
X14925953Y-13873238D01*
X15135476Y-13987524D02*
X15116429Y-13978000D01*
X15116429Y-13978000D02*
X15106905Y-13968476D01*
X15106905Y-13968476D02*
X15097381Y-13949428D01*
X15097381Y-13949428D02*
X15097381Y-13892286D01*
X15097381Y-13892286D02*
X15106905Y-13873238D01*
X15106905Y-13873238D02*
X15116429Y-13863714D01*
X15116429Y-13863714D02*
X15135476Y-13854190D01*
X15135476Y-13854190D02*
X15164048Y-13854190D01*
X15164048Y-13854190D02*
X15183096Y-13863714D01*
X15183096Y-13863714D02*
X15192619Y-13873238D01*
X15192619Y-13873238D02*
X15202143Y-13892286D01*
X15202143Y-13892286D02*
X15202143Y-13949428D01*
X15202143Y-13949428D02*
X15192619Y-13968476D01*
X15192619Y-13968476D02*
X15183096Y-13978000D01*
X15183096Y-13978000D02*
X15164048Y-13987524D01*
X15164048Y-13987524D02*
X15135476Y-13987524D01*
X15316429Y-13987524D02*
X15297381Y-13978000D01*
X15297381Y-13978000D02*
X15287857Y-13958952D01*
X15287857Y-13958952D02*
X15287857Y-13787524D01*
X15468810Y-13978000D02*
X15449762Y-13987524D01*
X15449762Y-13987524D02*
X15411667Y-13987524D01*
X15411667Y-13987524D02*
X15392619Y-13978000D01*
X15392619Y-13978000D02*
X15383096Y-13958952D01*
X15383096Y-13958952D02*
X15383096Y-13882762D01*
X15383096Y-13882762D02*
X15392619Y-13863714D01*
X15392619Y-13863714D02*
X15411667Y-13854190D01*
X15411667Y-13854190D02*
X15449762Y-13854190D01*
X15449762Y-13854190D02*
X15468810Y-13863714D01*
X15468810Y-13863714D02*
X15478334Y-13882762D01*
X15478334Y-13882762D02*
X15478334Y-13901809D01*
X15478334Y-13901809D02*
X15383096Y-13920857D01*
X15554524Y-13978000D02*
X15573572Y-13987524D01*
X15573572Y-13987524D02*
X15611667Y-13987524D01*
X15611667Y-13987524D02*
X15630715Y-13978000D01*
X15630715Y-13978000D02*
X15640238Y-13958952D01*
X15640238Y-13958952D02*
X15640238Y-13949428D01*
X15640238Y-13949428D02*
X15630715Y-13930381D01*
X15630715Y-13930381D02*
X15611667Y-13920857D01*
X15611667Y-13920857D02*
X15583096Y-13920857D01*
X15583096Y-13920857D02*
X15564048Y-13911333D01*
X15564048Y-13911333D02*
X15554524Y-13892286D01*
X15554524Y-13892286D02*
X15554524Y-13882762D01*
X15554524Y-13882762D02*
X15564048Y-13863714D01*
X15564048Y-13863714D02*
X15583096Y-13854190D01*
X15583096Y-13854190D02*
X15611667Y-13854190D01*
X15611667Y-13854190D02*
X15630715Y-13863714D01*
X15706905Y-14063714D02*
X15716429Y-14054190D01*
X15716429Y-14054190D02*
X15735477Y-14025619D01*
X15735477Y-14025619D02*
X15745000Y-14006571D01*
X15745000Y-14006571D02*
X15754524Y-13978000D01*
X15754524Y-13978000D02*
X15764048Y-13930381D01*
X15764048Y-13930381D02*
X15764048Y-13892286D01*
X15764048Y-13892286D02*
X15754524Y-13844667D01*
X15754524Y-13844667D02*
X15745000Y-13816095D01*
X15745000Y-13816095D02*
X15735477Y-13797048D01*
X15735477Y-13797048D02*
X15716429Y-13768476D01*
X15716429Y-13768476D02*
X15706905Y-13758952D01*
X16068810Y-14063714D02*
X16059286Y-14054190D01*
X16059286Y-14054190D02*
X16040238Y-14025619D01*
X16040238Y-14025619D02*
X16030715Y-14006571D01*
X16030715Y-14006571D02*
X16021191Y-13978000D01*
X16021191Y-13978000D02*
X16011667Y-13930381D01*
X16011667Y-13930381D02*
X16011667Y-13892286D01*
X16011667Y-13892286D02*
X16021191Y-13844667D01*
X16021191Y-13844667D02*
X16030715Y-13816095D01*
X16030715Y-13816095D02*
X16040238Y-13797048D01*
X16040238Y-13797048D02*
X16059286Y-13768476D01*
X16059286Y-13768476D02*
X16068810Y-13758952D01*
X16145000Y-13854190D02*
X16145000Y-13987524D01*
X16145000Y-13873238D02*
X16154524Y-13863714D01*
X16154524Y-13863714D02*
X16173572Y-13854190D01*
X16173572Y-13854190D02*
X16202143Y-13854190D01*
X16202143Y-13854190D02*
X16221191Y-13863714D01*
X16221191Y-13863714D02*
X16230715Y-13882762D01*
X16230715Y-13882762D02*
X16230715Y-13987524D01*
X16354524Y-13987524D02*
X16335477Y-13978000D01*
X16335477Y-13978000D02*
X16325953Y-13968476D01*
X16325953Y-13968476D02*
X16316429Y-13949428D01*
X16316429Y-13949428D02*
X16316429Y-13892286D01*
X16316429Y-13892286D02*
X16325953Y-13873238D01*
X16325953Y-13873238D02*
X16335477Y-13863714D01*
X16335477Y-13863714D02*
X16354524Y-13854190D01*
X16354524Y-13854190D02*
X16383096Y-13854190D01*
X16383096Y-13854190D02*
X16402143Y-13863714D01*
X16402143Y-13863714D02*
X16411667Y-13873238D01*
X16411667Y-13873238D02*
X16421191Y-13892286D01*
X16421191Y-13892286D02*
X16421191Y-13949428D01*
X16421191Y-13949428D02*
X16411667Y-13968476D01*
X16411667Y-13968476D02*
X16402143Y-13978000D01*
X16402143Y-13978000D02*
X16383096Y-13987524D01*
X16383096Y-13987524D02*
X16354524Y-13987524D01*
X16478334Y-13854190D02*
X16554524Y-13854190D01*
X16506905Y-13787524D02*
X16506905Y-13958952D01*
X16506905Y-13958952D02*
X16516429Y-13978000D01*
X16516429Y-13978000D02*
X16535477Y-13987524D01*
X16535477Y-13987524D02*
X16554524Y-13987524D01*
X16773572Y-13854190D02*
X16773572Y-14054190D01*
X16773572Y-13863714D02*
X16792620Y-13854190D01*
X16792620Y-13854190D02*
X16830715Y-13854190D01*
X16830715Y-13854190D02*
X16849762Y-13863714D01*
X16849762Y-13863714D02*
X16859286Y-13873238D01*
X16859286Y-13873238D02*
X16868810Y-13892286D01*
X16868810Y-13892286D02*
X16868810Y-13949428D01*
X16868810Y-13949428D02*
X16859286Y-13968476D01*
X16859286Y-13968476D02*
X16849762Y-13978000D01*
X16849762Y-13978000D02*
X16830715Y-13987524D01*
X16830715Y-13987524D02*
X16792620Y-13987524D01*
X16792620Y-13987524D02*
X16773572Y-13978000D01*
X16983096Y-13987524D02*
X16964048Y-13978000D01*
X16964048Y-13978000D02*
X16954524Y-13958952D01*
X16954524Y-13958952D02*
X16954524Y-13787524D01*
X17145001Y-13987524D02*
X17145001Y-13882762D01*
X17145001Y-13882762D02*
X17135477Y-13863714D01*
X17135477Y-13863714D02*
X17116429Y-13854190D01*
X17116429Y-13854190D02*
X17078334Y-13854190D01*
X17078334Y-13854190D02*
X17059286Y-13863714D01*
X17145001Y-13978000D02*
X17125953Y-13987524D01*
X17125953Y-13987524D02*
X17078334Y-13987524D01*
X17078334Y-13987524D02*
X17059286Y-13978000D01*
X17059286Y-13978000D02*
X17049762Y-13958952D01*
X17049762Y-13958952D02*
X17049762Y-13939905D01*
X17049762Y-13939905D02*
X17059286Y-13920857D01*
X17059286Y-13920857D02*
X17078334Y-13911333D01*
X17078334Y-13911333D02*
X17125953Y-13911333D01*
X17125953Y-13911333D02*
X17145001Y-13901809D01*
X17211667Y-13854190D02*
X17287858Y-13854190D01*
X17240239Y-13787524D02*
X17240239Y-13958952D01*
X17240239Y-13958952D02*
X17249762Y-13978000D01*
X17249762Y-13978000D02*
X17268810Y-13987524D01*
X17268810Y-13987524D02*
X17287858Y-13987524D01*
X17430715Y-13978000D02*
X17411667Y-13987524D01*
X17411667Y-13987524D02*
X17373572Y-13987524D01*
X17373572Y-13987524D02*
X17354524Y-13978000D01*
X17354524Y-13978000D02*
X17345001Y-13958952D01*
X17345001Y-13958952D02*
X17345001Y-13882762D01*
X17345001Y-13882762D02*
X17354524Y-13863714D01*
X17354524Y-13863714D02*
X17373572Y-13854190D01*
X17373572Y-13854190D02*
X17411667Y-13854190D01*
X17411667Y-13854190D02*
X17430715Y-13863714D01*
X17430715Y-13863714D02*
X17440239Y-13882762D01*
X17440239Y-13882762D02*
X17440239Y-13901809D01*
X17440239Y-13901809D02*
X17345001Y-13920857D01*
X17611667Y-13987524D02*
X17611667Y-13787524D01*
X17611667Y-13978000D02*
X17592620Y-13987524D01*
X17592620Y-13987524D02*
X17554524Y-13987524D01*
X17554524Y-13987524D02*
X17535477Y-13978000D01*
X17535477Y-13978000D02*
X17525953Y-13968476D01*
X17525953Y-13968476D02*
X17516429Y-13949428D01*
X17516429Y-13949428D02*
X17516429Y-13892286D01*
X17516429Y-13892286D02*
X17525953Y-13873238D01*
X17525953Y-13873238D02*
X17535477Y-13863714D01*
X17535477Y-13863714D02*
X17554524Y-13854190D01*
X17554524Y-13854190D02*
X17592620Y-13854190D01*
X17592620Y-13854190D02*
X17611667Y-13863714D01*
X17687858Y-14063714D02*
X17697382Y-14054190D01*
X17697382Y-14054190D02*
X17716429Y-14025619D01*
X17716429Y-14025619D02*
X17725953Y-14006571D01*
X17725953Y-14006571D02*
X17735477Y-13978000D01*
X17735477Y-13978000D02*
X17745001Y-13930381D01*
X17745001Y-13930381D02*
X17745001Y-13892286D01*
X17745001Y-13892286D02*
X17735477Y-13844667D01*
X17735477Y-13844667D02*
X17725953Y-13816095D01*
X17725953Y-13816095D02*
X17716429Y-13797048D01*
X17716429Y-13797048D02*
X17697382Y-13768476D01*
X17697382Y-13768476D02*
X17687858Y-13758952D01*
D13*
X10945000Y-14159000D02*
G75*
G03*
X10945000Y-14159000I-49530J0D01*
G01*
D11*
X11230714Y-14051524D02*
X11249762Y-14051524D01*
X11249762Y-14051524D02*
X11268809Y-14061048D01*
X11268809Y-14061048D02*
X11278333Y-14070571D01*
X11278333Y-14070571D02*
X11287857Y-14089619D01*
X11287857Y-14089619D02*
X11297381Y-14127714D01*
X11297381Y-14127714D02*
X11297381Y-14175333D01*
X11297381Y-14175333D02*
X11287857Y-14213428D01*
X11287857Y-14213428D02*
X11278333Y-14232476D01*
X11278333Y-14232476D02*
X11268809Y-14242000D01*
X11268809Y-14242000D02*
X11249762Y-14251524D01*
X11249762Y-14251524D02*
X11230714Y-14251524D01*
X11230714Y-14251524D02*
X11211667Y-14242000D01*
X11211667Y-14242000D02*
X11202143Y-14232476D01*
X11202143Y-14232476D02*
X11192619Y-14213428D01*
X11192619Y-14213428D02*
X11183095Y-14175333D01*
X11183095Y-14175333D02*
X11183095Y-14127714D01*
X11183095Y-14127714D02*
X11192619Y-14089619D01*
X11192619Y-14089619D02*
X11202143Y-14070571D01*
X11202143Y-14070571D02*
X11211667Y-14061048D01*
X11211667Y-14061048D02*
X11230714Y-14051524D01*
X11383095Y-14232476D02*
X11392619Y-14242000D01*
X11392619Y-14242000D02*
X11383095Y-14251524D01*
X11383095Y-14251524D02*
X11373571Y-14242000D01*
X11373571Y-14242000D02*
X11383095Y-14232476D01*
X11383095Y-14232476D02*
X11383095Y-14251524D01*
X11487857Y-14251524D02*
X11525952Y-14251524D01*
X11525952Y-14251524D02*
X11545000Y-14242000D01*
X11545000Y-14242000D02*
X11554524Y-14232476D01*
X11554524Y-14232476D02*
X11573571Y-14203905D01*
X11573571Y-14203905D02*
X11583095Y-14165809D01*
X11583095Y-14165809D02*
X11583095Y-14089619D01*
X11583095Y-14089619D02*
X11573571Y-14070571D01*
X11573571Y-14070571D02*
X11564048Y-14061048D01*
X11564048Y-14061048D02*
X11545000Y-14051524D01*
X11545000Y-14051524D02*
X11506905Y-14051524D01*
X11506905Y-14051524D02*
X11487857Y-14061048D01*
X11487857Y-14061048D02*
X11478333Y-14070571D01*
X11478333Y-14070571D02*
X11468809Y-14089619D01*
X11468809Y-14089619D02*
X11468809Y-14137238D01*
X11468809Y-14137238D02*
X11478333Y-14156286D01*
X11478333Y-14156286D02*
X11487857Y-14165809D01*
X11487857Y-14165809D02*
X11506905Y-14175333D01*
X11506905Y-14175333D02*
X11545000Y-14175333D01*
X11545000Y-14175333D02*
X11564048Y-14165809D01*
X11564048Y-14165809D02*
X11573571Y-14156286D01*
X11573571Y-14156286D02*
X11583095Y-14137238D01*
X11678333Y-14251524D02*
X11716428Y-14251524D01*
X11716428Y-14251524D02*
X11735476Y-14242000D01*
X11735476Y-14242000D02*
X11745000Y-14232476D01*
X11745000Y-14232476D02*
X11764048Y-14203905D01*
X11764048Y-14203905D02*
X11773571Y-14165809D01*
X11773571Y-14165809D02*
X11773571Y-14089619D01*
X11773571Y-14089619D02*
X11764048Y-14070571D01*
X11764048Y-14070571D02*
X11754524Y-14061048D01*
X11754524Y-14061048D02*
X11735476Y-14051524D01*
X11735476Y-14051524D02*
X11697381Y-14051524D01*
X11697381Y-14051524D02*
X11678333Y-14061048D01*
X11678333Y-14061048D02*
X11668809Y-14070571D01*
X11668809Y-14070571D02*
X11659286Y-14089619D01*
X11659286Y-14089619D02*
X11659286Y-14137238D01*
X11659286Y-14137238D02*
X11668809Y-14156286D01*
X11668809Y-14156286D02*
X11678333Y-14165809D01*
X11678333Y-14165809D02*
X11697381Y-14175333D01*
X11697381Y-14175333D02*
X11735476Y-14175333D01*
X11735476Y-14175333D02*
X11754524Y-14165809D01*
X11754524Y-14165809D02*
X11764048Y-14156286D01*
X11764048Y-14156286D02*
X11773571Y-14137238D01*
X11964048Y-14251524D02*
X11849762Y-14251524D01*
X11906905Y-14251524D02*
X11906905Y-14051524D01*
X11906905Y-14051524D02*
X11887857Y-14080095D01*
X11887857Y-14080095D02*
X11868809Y-14099143D01*
X11868809Y-14099143D02*
X11849762Y-14108667D01*
X12049762Y-14251524D02*
X12049762Y-14118190D01*
X12049762Y-14137238D02*
X12059286Y-14127714D01*
X12059286Y-14127714D02*
X12078333Y-14118190D01*
X12078333Y-14118190D02*
X12106905Y-14118190D01*
X12106905Y-14118190D02*
X12125952Y-14127714D01*
X12125952Y-14127714D02*
X12135476Y-14146762D01*
X12135476Y-14146762D02*
X12135476Y-14251524D01*
X12135476Y-14146762D02*
X12145000Y-14127714D01*
X12145000Y-14127714D02*
X12164048Y-14118190D01*
X12164048Y-14118190D02*
X12192619Y-14118190D01*
X12192619Y-14118190D02*
X12211667Y-14127714D01*
X12211667Y-14127714D02*
X12221190Y-14146762D01*
X12221190Y-14146762D02*
X12221190Y-14251524D01*
X12316429Y-14251524D02*
X12316429Y-14118190D01*
X12316429Y-14137238D02*
X12325952Y-14127714D01*
X12325952Y-14127714D02*
X12345000Y-14118190D01*
X12345000Y-14118190D02*
X12373571Y-14118190D01*
X12373571Y-14118190D02*
X12392619Y-14127714D01*
X12392619Y-14127714D02*
X12402143Y-14146762D01*
X12402143Y-14146762D02*
X12402143Y-14251524D01*
X12402143Y-14146762D02*
X12411667Y-14127714D01*
X12411667Y-14127714D02*
X12430714Y-14118190D01*
X12430714Y-14118190D02*
X12459286Y-14118190D01*
X12459286Y-14118190D02*
X12478333Y-14127714D01*
X12478333Y-14127714D02*
X12487857Y-14146762D01*
X12487857Y-14146762D02*
X12487857Y-14251524D01*
X12878333Y-14042000D02*
X12706905Y-14299143D01*
X13135476Y-14051524D02*
X13154524Y-14051524D01*
X13154524Y-14051524D02*
X13173572Y-14061048D01*
X13173572Y-14061048D02*
X13183095Y-14070571D01*
X13183095Y-14070571D02*
X13192619Y-14089619D01*
X13192619Y-14089619D02*
X13202143Y-14127714D01*
X13202143Y-14127714D02*
X13202143Y-14175333D01*
X13202143Y-14175333D02*
X13192619Y-14213428D01*
X13192619Y-14213428D02*
X13183095Y-14232476D01*
X13183095Y-14232476D02*
X13173572Y-14242000D01*
X13173572Y-14242000D02*
X13154524Y-14251524D01*
X13154524Y-14251524D02*
X13135476Y-14251524D01*
X13135476Y-14251524D02*
X13116429Y-14242000D01*
X13116429Y-14242000D02*
X13106905Y-14232476D01*
X13106905Y-14232476D02*
X13097381Y-14213428D01*
X13097381Y-14213428D02*
X13087857Y-14175333D01*
X13087857Y-14175333D02*
X13087857Y-14127714D01*
X13087857Y-14127714D02*
X13097381Y-14089619D01*
X13097381Y-14089619D02*
X13106905Y-14070571D01*
X13106905Y-14070571D02*
X13116429Y-14061048D01*
X13116429Y-14061048D02*
X13135476Y-14051524D01*
X13287857Y-14232476D02*
X13297381Y-14242000D01*
X13297381Y-14242000D02*
X13287857Y-14251524D01*
X13287857Y-14251524D02*
X13278333Y-14242000D01*
X13278333Y-14242000D02*
X13287857Y-14232476D01*
X13287857Y-14232476D02*
X13287857Y-14251524D01*
X13421191Y-14051524D02*
X13440238Y-14051524D01*
X13440238Y-14051524D02*
X13459286Y-14061048D01*
X13459286Y-14061048D02*
X13468810Y-14070571D01*
X13468810Y-14070571D02*
X13478333Y-14089619D01*
X13478333Y-14089619D02*
X13487857Y-14127714D01*
X13487857Y-14127714D02*
X13487857Y-14175333D01*
X13487857Y-14175333D02*
X13478333Y-14213428D01*
X13478333Y-14213428D02*
X13468810Y-14232476D01*
X13468810Y-14232476D02*
X13459286Y-14242000D01*
X13459286Y-14242000D02*
X13440238Y-14251524D01*
X13440238Y-14251524D02*
X13421191Y-14251524D01*
X13421191Y-14251524D02*
X13402143Y-14242000D01*
X13402143Y-14242000D02*
X13392619Y-14232476D01*
X13392619Y-14232476D02*
X13383095Y-14213428D01*
X13383095Y-14213428D02*
X13373572Y-14175333D01*
X13373572Y-14175333D02*
X13373572Y-14127714D01*
X13373572Y-14127714D02*
X13383095Y-14089619D01*
X13383095Y-14089619D02*
X13392619Y-14070571D01*
X13392619Y-14070571D02*
X13402143Y-14061048D01*
X13402143Y-14061048D02*
X13421191Y-14051524D01*
X13554524Y-14051524D02*
X13678333Y-14051524D01*
X13678333Y-14051524D02*
X13611667Y-14127714D01*
X13611667Y-14127714D02*
X13640238Y-14127714D01*
X13640238Y-14127714D02*
X13659286Y-14137238D01*
X13659286Y-14137238D02*
X13668810Y-14146762D01*
X13668810Y-14146762D02*
X13678333Y-14165809D01*
X13678333Y-14165809D02*
X13678333Y-14213428D01*
X13678333Y-14213428D02*
X13668810Y-14232476D01*
X13668810Y-14232476D02*
X13659286Y-14242000D01*
X13659286Y-14242000D02*
X13640238Y-14251524D01*
X13640238Y-14251524D02*
X13583095Y-14251524D01*
X13583095Y-14251524D02*
X13564048Y-14242000D01*
X13564048Y-14242000D02*
X13554524Y-14232476D01*
X13773572Y-14251524D02*
X13811667Y-14251524D01*
X13811667Y-14251524D02*
X13830714Y-14242000D01*
X13830714Y-14242000D02*
X13840238Y-14232476D01*
X13840238Y-14232476D02*
X13859286Y-14203905D01*
X13859286Y-14203905D02*
X13868810Y-14165809D01*
X13868810Y-14165809D02*
X13868810Y-14089619D01*
X13868810Y-14089619D02*
X13859286Y-14070571D01*
X13859286Y-14070571D02*
X13849762Y-14061048D01*
X13849762Y-14061048D02*
X13830714Y-14051524D01*
X13830714Y-14051524D02*
X13792619Y-14051524D01*
X13792619Y-14051524D02*
X13773572Y-14061048D01*
X13773572Y-14061048D02*
X13764048Y-14070571D01*
X13764048Y-14070571D02*
X13754524Y-14089619D01*
X13754524Y-14089619D02*
X13754524Y-14137238D01*
X13754524Y-14137238D02*
X13764048Y-14156286D01*
X13764048Y-14156286D02*
X13773572Y-14165809D01*
X13773572Y-14165809D02*
X13792619Y-14175333D01*
X13792619Y-14175333D02*
X13830714Y-14175333D01*
X13830714Y-14175333D02*
X13849762Y-14165809D01*
X13849762Y-14165809D02*
X13859286Y-14156286D01*
X13859286Y-14156286D02*
X13868810Y-14137238D01*
X13992619Y-14051524D02*
X14011667Y-14051524D01*
X14011667Y-14051524D02*
X14030714Y-14061048D01*
X14030714Y-14061048D02*
X14040238Y-14070571D01*
X14040238Y-14070571D02*
X14049762Y-14089619D01*
X14049762Y-14089619D02*
X14059286Y-14127714D01*
X14059286Y-14127714D02*
X14059286Y-14175333D01*
X14059286Y-14175333D02*
X14049762Y-14213428D01*
X14049762Y-14213428D02*
X14040238Y-14232476D01*
X14040238Y-14232476D02*
X14030714Y-14242000D01*
X14030714Y-14242000D02*
X14011667Y-14251524D01*
X14011667Y-14251524D02*
X13992619Y-14251524D01*
X13992619Y-14251524D02*
X13973572Y-14242000D01*
X13973572Y-14242000D02*
X13964048Y-14232476D01*
X13964048Y-14232476D02*
X13954524Y-14213428D01*
X13954524Y-14213428D02*
X13945000Y-14175333D01*
X13945000Y-14175333D02*
X13945000Y-14127714D01*
X13945000Y-14127714D02*
X13954524Y-14089619D01*
X13954524Y-14089619D02*
X13964048Y-14070571D01*
X13964048Y-14070571D02*
X13973572Y-14061048D01*
X13973572Y-14061048D02*
X13992619Y-14051524D01*
X14135476Y-14051524D02*
X14135476Y-14089619D01*
X14211667Y-14051524D02*
X14211667Y-14089619D01*
X14506905Y-14327714D02*
X14497381Y-14318190D01*
X14497381Y-14318190D02*
X14478334Y-14289619D01*
X14478334Y-14289619D02*
X14468810Y-14270571D01*
X14468810Y-14270571D02*
X14459286Y-14242000D01*
X14459286Y-14242000D02*
X14449762Y-14194381D01*
X14449762Y-14194381D02*
X14449762Y-14156286D01*
X14449762Y-14156286D02*
X14459286Y-14108667D01*
X14459286Y-14108667D02*
X14468810Y-14080095D01*
X14468810Y-14080095D02*
X14478334Y-14061048D01*
X14478334Y-14061048D02*
X14497381Y-14032476D01*
X14497381Y-14032476D02*
X14506905Y-14022952D01*
X14564048Y-14051524D02*
X14687857Y-14051524D01*
X14687857Y-14051524D02*
X14621191Y-14127714D01*
X14621191Y-14127714D02*
X14649762Y-14127714D01*
X14649762Y-14127714D02*
X14668810Y-14137238D01*
X14668810Y-14137238D02*
X14678334Y-14146762D01*
X14678334Y-14146762D02*
X14687857Y-14165809D01*
X14687857Y-14165809D02*
X14687857Y-14213428D01*
X14687857Y-14213428D02*
X14678334Y-14232476D01*
X14678334Y-14232476D02*
X14668810Y-14242000D01*
X14668810Y-14242000D02*
X14649762Y-14251524D01*
X14649762Y-14251524D02*
X14592619Y-14251524D01*
X14592619Y-14251524D02*
X14573572Y-14242000D01*
X14573572Y-14242000D02*
X14564048Y-14232476D01*
X14925953Y-14251524D02*
X14925953Y-14051524D01*
X15011667Y-14251524D02*
X15011667Y-14146762D01*
X15011667Y-14146762D02*
X15002143Y-14127714D01*
X15002143Y-14127714D02*
X14983096Y-14118190D01*
X14983096Y-14118190D02*
X14954524Y-14118190D01*
X14954524Y-14118190D02*
X14935476Y-14127714D01*
X14935476Y-14127714D02*
X14925953Y-14137238D01*
X15135476Y-14251524D02*
X15116429Y-14242000D01*
X15116429Y-14242000D02*
X15106905Y-14232476D01*
X15106905Y-14232476D02*
X15097381Y-14213428D01*
X15097381Y-14213428D02*
X15097381Y-14156286D01*
X15097381Y-14156286D02*
X15106905Y-14137238D01*
X15106905Y-14137238D02*
X15116429Y-14127714D01*
X15116429Y-14127714D02*
X15135476Y-14118190D01*
X15135476Y-14118190D02*
X15164048Y-14118190D01*
X15164048Y-14118190D02*
X15183096Y-14127714D01*
X15183096Y-14127714D02*
X15192619Y-14137238D01*
X15192619Y-14137238D02*
X15202143Y-14156286D01*
X15202143Y-14156286D02*
X15202143Y-14213428D01*
X15202143Y-14213428D02*
X15192619Y-14232476D01*
X15192619Y-14232476D02*
X15183096Y-14242000D01*
X15183096Y-14242000D02*
X15164048Y-14251524D01*
X15164048Y-14251524D02*
X15135476Y-14251524D01*
X15316429Y-14251524D02*
X15297381Y-14242000D01*
X15297381Y-14242000D02*
X15287857Y-14222952D01*
X15287857Y-14222952D02*
X15287857Y-14051524D01*
X15468810Y-14242000D02*
X15449762Y-14251524D01*
X15449762Y-14251524D02*
X15411667Y-14251524D01*
X15411667Y-14251524D02*
X15392619Y-14242000D01*
X15392619Y-14242000D02*
X15383096Y-14222952D01*
X15383096Y-14222952D02*
X15383096Y-14146762D01*
X15383096Y-14146762D02*
X15392619Y-14127714D01*
X15392619Y-14127714D02*
X15411667Y-14118190D01*
X15411667Y-14118190D02*
X15449762Y-14118190D01*
X15449762Y-14118190D02*
X15468810Y-14127714D01*
X15468810Y-14127714D02*
X15478334Y-14146762D01*
X15478334Y-14146762D02*
X15478334Y-14165809D01*
X15478334Y-14165809D02*
X15383096Y-14184857D01*
X15554524Y-14242000D02*
X15573572Y-14251524D01*
X15573572Y-14251524D02*
X15611667Y-14251524D01*
X15611667Y-14251524D02*
X15630715Y-14242000D01*
X15630715Y-14242000D02*
X15640238Y-14222952D01*
X15640238Y-14222952D02*
X15640238Y-14213428D01*
X15640238Y-14213428D02*
X15630715Y-14194381D01*
X15630715Y-14194381D02*
X15611667Y-14184857D01*
X15611667Y-14184857D02*
X15583096Y-14184857D01*
X15583096Y-14184857D02*
X15564048Y-14175333D01*
X15564048Y-14175333D02*
X15554524Y-14156286D01*
X15554524Y-14156286D02*
X15554524Y-14146762D01*
X15554524Y-14146762D02*
X15564048Y-14127714D01*
X15564048Y-14127714D02*
X15583096Y-14118190D01*
X15583096Y-14118190D02*
X15611667Y-14118190D01*
X15611667Y-14118190D02*
X15630715Y-14127714D01*
X15706905Y-14327714D02*
X15716429Y-14318190D01*
X15716429Y-14318190D02*
X15735477Y-14289619D01*
X15735477Y-14289619D02*
X15745000Y-14270571D01*
X15745000Y-14270571D02*
X15754524Y-14242000D01*
X15754524Y-14242000D02*
X15764048Y-14194381D01*
X15764048Y-14194381D02*
X15764048Y-14156286D01*
X15764048Y-14156286D02*
X15754524Y-14108667D01*
X15754524Y-14108667D02*
X15745000Y-14080095D01*
X15745000Y-14080095D02*
X15735477Y-14061048D01*
X15735477Y-14061048D02*
X15716429Y-14032476D01*
X15716429Y-14032476D02*
X15706905Y-14022952D01*
X16068810Y-14327714D02*
X16059286Y-14318190D01*
X16059286Y-14318190D02*
X16040238Y-14289619D01*
X16040238Y-14289619D02*
X16030715Y-14270571D01*
X16030715Y-14270571D02*
X16021191Y-14242000D01*
X16021191Y-14242000D02*
X16011667Y-14194381D01*
X16011667Y-14194381D02*
X16011667Y-14156286D01*
X16011667Y-14156286D02*
X16021191Y-14108667D01*
X16021191Y-14108667D02*
X16030715Y-14080095D01*
X16030715Y-14080095D02*
X16040238Y-14061048D01*
X16040238Y-14061048D02*
X16059286Y-14032476D01*
X16059286Y-14032476D02*
X16068810Y-14022952D01*
X16145000Y-14118190D02*
X16145000Y-14251524D01*
X16145000Y-14137238D02*
X16154524Y-14127714D01*
X16154524Y-14127714D02*
X16173572Y-14118190D01*
X16173572Y-14118190D02*
X16202143Y-14118190D01*
X16202143Y-14118190D02*
X16221191Y-14127714D01*
X16221191Y-14127714D02*
X16230715Y-14146762D01*
X16230715Y-14146762D02*
X16230715Y-14251524D01*
X16354524Y-14251524D02*
X16335477Y-14242000D01*
X16335477Y-14242000D02*
X16325953Y-14232476D01*
X16325953Y-14232476D02*
X16316429Y-14213428D01*
X16316429Y-14213428D02*
X16316429Y-14156286D01*
X16316429Y-14156286D02*
X16325953Y-14137238D01*
X16325953Y-14137238D02*
X16335477Y-14127714D01*
X16335477Y-14127714D02*
X16354524Y-14118190D01*
X16354524Y-14118190D02*
X16383096Y-14118190D01*
X16383096Y-14118190D02*
X16402143Y-14127714D01*
X16402143Y-14127714D02*
X16411667Y-14137238D01*
X16411667Y-14137238D02*
X16421191Y-14156286D01*
X16421191Y-14156286D02*
X16421191Y-14213428D01*
X16421191Y-14213428D02*
X16411667Y-14232476D01*
X16411667Y-14232476D02*
X16402143Y-14242000D01*
X16402143Y-14242000D02*
X16383096Y-14251524D01*
X16383096Y-14251524D02*
X16354524Y-14251524D01*
X16478334Y-14118190D02*
X16554524Y-14118190D01*
X16506905Y-14051524D02*
X16506905Y-14222952D01*
X16506905Y-14222952D02*
X16516429Y-14242000D01*
X16516429Y-14242000D02*
X16535477Y-14251524D01*
X16535477Y-14251524D02*
X16554524Y-14251524D01*
X16773572Y-14118190D02*
X16773572Y-14318190D01*
X16773572Y-14127714D02*
X16792620Y-14118190D01*
X16792620Y-14118190D02*
X16830715Y-14118190D01*
X16830715Y-14118190D02*
X16849762Y-14127714D01*
X16849762Y-14127714D02*
X16859286Y-14137238D01*
X16859286Y-14137238D02*
X16868810Y-14156286D01*
X16868810Y-14156286D02*
X16868810Y-14213428D01*
X16868810Y-14213428D02*
X16859286Y-14232476D01*
X16859286Y-14232476D02*
X16849762Y-14242000D01*
X16849762Y-14242000D02*
X16830715Y-14251524D01*
X16830715Y-14251524D02*
X16792620Y-14251524D01*
X16792620Y-14251524D02*
X16773572Y-14242000D01*
X16983096Y-14251524D02*
X16964048Y-14242000D01*
X16964048Y-14242000D02*
X16954524Y-14222952D01*
X16954524Y-14222952D02*
X16954524Y-14051524D01*
X17145001Y-14251524D02*
X17145001Y-14146762D01*
X17145001Y-14146762D02*
X17135477Y-14127714D01*
X17135477Y-14127714D02*
X17116429Y-14118190D01*
X17116429Y-14118190D02*
X17078334Y-14118190D01*
X17078334Y-14118190D02*
X17059286Y-14127714D01*
X17145001Y-14242000D02*
X17125953Y-14251524D01*
X17125953Y-14251524D02*
X17078334Y-14251524D01*
X17078334Y-14251524D02*
X17059286Y-14242000D01*
X17059286Y-14242000D02*
X17049762Y-14222952D01*
X17049762Y-14222952D02*
X17049762Y-14203905D01*
X17049762Y-14203905D02*
X17059286Y-14184857D01*
X17059286Y-14184857D02*
X17078334Y-14175333D01*
X17078334Y-14175333D02*
X17125953Y-14175333D01*
X17125953Y-14175333D02*
X17145001Y-14165809D01*
X17211667Y-14118190D02*
X17287858Y-14118190D01*
X17240239Y-14051524D02*
X17240239Y-14222952D01*
X17240239Y-14222952D02*
X17249762Y-14242000D01*
X17249762Y-14242000D02*
X17268810Y-14251524D01*
X17268810Y-14251524D02*
X17287858Y-14251524D01*
X17430715Y-14242000D02*
X17411667Y-14251524D01*
X17411667Y-14251524D02*
X17373572Y-14251524D01*
X17373572Y-14251524D02*
X17354524Y-14242000D01*
X17354524Y-14242000D02*
X17345001Y-14222952D01*
X17345001Y-14222952D02*
X17345001Y-14146762D01*
X17345001Y-14146762D02*
X17354524Y-14127714D01*
X17354524Y-14127714D02*
X17373572Y-14118190D01*
X17373572Y-14118190D02*
X17411667Y-14118190D01*
X17411667Y-14118190D02*
X17430715Y-14127714D01*
X17430715Y-14127714D02*
X17440239Y-14146762D01*
X17440239Y-14146762D02*
X17440239Y-14165809D01*
X17440239Y-14165809D02*
X17345001Y-14184857D01*
X17611667Y-14251524D02*
X17611667Y-14051524D01*
X17611667Y-14242000D02*
X17592620Y-14251524D01*
X17592620Y-14251524D02*
X17554524Y-14251524D01*
X17554524Y-14251524D02*
X17535477Y-14242000D01*
X17535477Y-14242000D02*
X17525953Y-14232476D01*
X17525953Y-14232476D02*
X17516429Y-14213428D01*
X17516429Y-14213428D02*
X17516429Y-14156286D01*
X17516429Y-14156286D02*
X17525953Y-14137238D01*
X17525953Y-14137238D02*
X17535477Y-14127714D01*
X17535477Y-14127714D02*
X17554524Y-14118190D01*
X17554524Y-14118190D02*
X17592620Y-14118190D01*
X17592620Y-14118190D02*
X17611667Y-14127714D01*
X17687858Y-14327714D02*
X17697382Y-14318190D01*
X17697382Y-14318190D02*
X17716429Y-14289619D01*
X17716429Y-14289619D02*
X17725953Y-14270571D01*
X17725953Y-14270571D02*
X17735477Y-14242000D01*
X17735477Y-14242000D02*
X17745001Y-14194381D01*
X17745001Y-14194381D02*
X17745001Y-14156286D01*
X17745001Y-14156286D02*
X17735477Y-14108667D01*
X17735477Y-14108667D02*
X17725953Y-14080095D01*
X17725953Y-14080095D02*
X17716429Y-14061048D01*
X17716429Y-14061048D02*
X17697382Y-14032476D01*
X17697382Y-14032476D02*
X17687858Y-14022952D01*
X10845000Y-14323000D02*
X10845000Y-14523000D01*
X10745000Y-14423000D02*
X10945000Y-14423000D01*
X11183095Y-14334571D02*
X11192619Y-14325048D01*
X11192619Y-14325048D02*
X11211667Y-14315524D01*
X11211667Y-14315524D02*
X11259286Y-14315524D01*
X11259286Y-14315524D02*
X11278333Y-14325048D01*
X11278333Y-14325048D02*
X11287857Y-14334571D01*
X11287857Y-14334571D02*
X11297381Y-14353619D01*
X11297381Y-14353619D02*
X11297381Y-14372667D01*
X11297381Y-14372667D02*
X11287857Y-14401238D01*
X11287857Y-14401238D02*
X11173571Y-14515524D01*
X11173571Y-14515524D02*
X11297381Y-14515524D01*
X11383095Y-14496476D02*
X11392619Y-14506000D01*
X11392619Y-14506000D02*
X11383095Y-14515524D01*
X11383095Y-14515524D02*
X11373571Y-14506000D01*
X11373571Y-14506000D02*
X11383095Y-14496476D01*
X11383095Y-14496476D02*
X11383095Y-14515524D01*
X11459286Y-14315524D02*
X11583095Y-14315524D01*
X11583095Y-14315524D02*
X11516428Y-14391714D01*
X11516428Y-14391714D02*
X11545000Y-14391714D01*
X11545000Y-14391714D02*
X11564048Y-14401238D01*
X11564048Y-14401238D02*
X11573571Y-14410762D01*
X11573571Y-14410762D02*
X11583095Y-14429809D01*
X11583095Y-14429809D02*
X11583095Y-14477428D01*
X11583095Y-14477428D02*
X11573571Y-14496476D01*
X11573571Y-14496476D02*
X11564048Y-14506000D01*
X11564048Y-14506000D02*
X11545000Y-14515524D01*
X11545000Y-14515524D02*
X11487857Y-14515524D01*
X11487857Y-14515524D02*
X11468809Y-14506000D01*
X11468809Y-14506000D02*
X11459286Y-14496476D01*
X11649762Y-14315524D02*
X11783095Y-14315524D01*
X11783095Y-14315524D02*
X11697381Y-14515524D01*
X11954524Y-14315524D02*
X11859286Y-14315524D01*
X11859286Y-14315524D02*
X11849762Y-14410762D01*
X11849762Y-14410762D02*
X11859286Y-14401238D01*
X11859286Y-14401238D02*
X11878333Y-14391714D01*
X11878333Y-14391714D02*
X11925952Y-14391714D01*
X11925952Y-14391714D02*
X11945000Y-14401238D01*
X11945000Y-14401238D02*
X11954524Y-14410762D01*
X11954524Y-14410762D02*
X11964048Y-14429809D01*
X11964048Y-14429809D02*
X11964048Y-14477428D01*
X11964048Y-14477428D02*
X11954524Y-14496476D01*
X11954524Y-14496476D02*
X11945000Y-14506000D01*
X11945000Y-14506000D02*
X11925952Y-14515524D01*
X11925952Y-14515524D02*
X11878333Y-14515524D01*
X11878333Y-14515524D02*
X11859286Y-14506000D01*
X11859286Y-14506000D02*
X11849762Y-14496476D01*
X12049762Y-14515524D02*
X12049762Y-14382190D01*
X12049762Y-14401238D02*
X12059286Y-14391714D01*
X12059286Y-14391714D02*
X12078333Y-14382190D01*
X12078333Y-14382190D02*
X12106905Y-14382190D01*
X12106905Y-14382190D02*
X12125952Y-14391714D01*
X12125952Y-14391714D02*
X12135476Y-14410762D01*
X12135476Y-14410762D02*
X12135476Y-14515524D01*
X12135476Y-14410762D02*
X12145000Y-14391714D01*
X12145000Y-14391714D02*
X12164048Y-14382190D01*
X12164048Y-14382190D02*
X12192619Y-14382190D01*
X12192619Y-14382190D02*
X12211667Y-14391714D01*
X12211667Y-14391714D02*
X12221190Y-14410762D01*
X12221190Y-14410762D02*
X12221190Y-14515524D01*
X12316429Y-14515524D02*
X12316429Y-14382190D01*
X12316429Y-14401238D02*
X12325952Y-14391714D01*
X12325952Y-14391714D02*
X12345000Y-14382190D01*
X12345000Y-14382190D02*
X12373571Y-14382190D01*
X12373571Y-14382190D02*
X12392619Y-14391714D01*
X12392619Y-14391714D02*
X12402143Y-14410762D01*
X12402143Y-14410762D02*
X12402143Y-14515524D01*
X12402143Y-14410762D02*
X12411667Y-14391714D01*
X12411667Y-14391714D02*
X12430714Y-14382190D01*
X12430714Y-14382190D02*
X12459286Y-14382190D01*
X12459286Y-14382190D02*
X12478333Y-14391714D01*
X12478333Y-14391714D02*
X12487857Y-14410762D01*
X12487857Y-14410762D02*
X12487857Y-14515524D01*
X12878333Y-14306000D02*
X12706905Y-14563143D01*
X13135476Y-14315524D02*
X13154524Y-14315524D01*
X13154524Y-14315524D02*
X13173572Y-14325048D01*
X13173572Y-14325048D02*
X13183095Y-14334571D01*
X13183095Y-14334571D02*
X13192619Y-14353619D01*
X13192619Y-14353619D02*
X13202143Y-14391714D01*
X13202143Y-14391714D02*
X13202143Y-14439333D01*
X13202143Y-14439333D02*
X13192619Y-14477428D01*
X13192619Y-14477428D02*
X13183095Y-14496476D01*
X13183095Y-14496476D02*
X13173572Y-14506000D01*
X13173572Y-14506000D02*
X13154524Y-14515524D01*
X13154524Y-14515524D02*
X13135476Y-14515524D01*
X13135476Y-14515524D02*
X13116429Y-14506000D01*
X13116429Y-14506000D02*
X13106905Y-14496476D01*
X13106905Y-14496476D02*
X13097381Y-14477428D01*
X13097381Y-14477428D02*
X13087857Y-14439333D01*
X13087857Y-14439333D02*
X13087857Y-14391714D01*
X13087857Y-14391714D02*
X13097381Y-14353619D01*
X13097381Y-14353619D02*
X13106905Y-14334571D01*
X13106905Y-14334571D02*
X13116429Y-14325048D01*
X13116429Y-14325048D02*
X13135476Y-14315524D01*
X13287857Y-14496476D02*
X13297381Y-14506000D01*
X13297381Y-14506000D02*
X13287857Y-14515524D01*
X13287857Y-14515524D02*
X13278333Y-14506000D01*
X13278333Y-14506000D02*
X13287857Y-14496476D01*
X13287857Y-14496476D02*
X13287857Y-14515524D01*
X13421191Y-14315524D02*
X13440238Y-14315524D01*
X13440238Y-14315524D02*
X13459286Y-14325048D01*
X13459286Y-14325048D02*
X13468810Y-14334571D01*
X13468810Y-14334571D02*
X13478333Y-14353619D01*
X13478333Y-14353619D02*
X13487857Y-14391714D01*
X13487857Y-14391714D02*
X13487857Y-14439333D01*
X13487857Y-14439333D02*
X13478333Y-14477428D01*
X13478333Y-14477428D02*
X13468810Y-14496476D01*
X13468810Y-14496476D02*
X13459286Y-14506000D01*
X13459286Y-14506000D02*
X13440238Y-14515524D01*
X13440238Y-14515524D02*
X13421191Y-14515524D01*
X13421191Y-14515524D02*
X13402143Y-14506000D01*
X13402143Y-14506000D02*
X13392619Y-14496476D01*
X13392619Y-14496476D02*
X13383095Y-14477428D01*
X13383095Y-14477428D02*
X13373572Y-14439333D01*
X13373572Y-14439333D02*
X13373572Y-14391714D01*
X13373572Y-14391714D02*
X13383095Y-14353619D01*
X13383095Y-14353619D02*
X13392619Y-14334571D01*
X13392619Y-14334571D02*
X13402143Y-14325048D01*
X13402143Y-14325048D02*
X13421191Y-14315524D01*
X13583095Y-14515524D02*
X13621191Y-14515524D01*
X13621191Y-14515524D02*
X13640238Y-14506000D01*
X13640238Y-14506000D02*
X13649762Y-14496476D01*
X13649762Y-14496476D02*
X13668810Y-14467905D01*
X13668810Y-14467905D02*
X13678333Y-14429809D01*
X13678333Y-14429809D02*
X13678333Y-14353619D01*
X13678333Y-14353619D02*
X13668810Y-14334571D01*
X13668810Y-14334571D02*
X13659286Y-14325048D01*
X13659286Y-14325048D02*
X13640238Y-14315524D01*
X13640238Y-14315524D02*
X13602143Y-14315524D01*
X13602143Y-14315524D02*
X13583095Y-14325048D01*
X13583095Y-14325048D02*
X13573572Y-14334571D01*
X13573572Y-14334571D02*
X13564048Y-14353619D01*
X13564048Y-14353619D02*
X13564048Y-14401238D01*
X13564048Y-14401238D02*
X13573572Y-14420286D01*
X13573572Y-14420286D02*
X13583095Y-14429809D01*
X13583095Y-14429809D02*
X13602143Y-14439333D01*
X13602143Y-14439333D02*
X13640238Y-14439333D01*
X13640238Y-14439333D02*
X13659286Y-14429809D01*
X13659286Y-14429809D02*
X13668810Y-14420286D01*
X13668810Y-14420286D02*
X13678333Y-14401238D01*
X13745000Y-14315524D02*
X13868810Y-14315524D01*
X13868810Y-14315524D02*
X13802143Y-14391714D01*
X13802143Y-14391714D02*
X13830714Y-14391714D01*
X13830714Y-14391714D02*
X13849762Y-14401238D01*
X13849762Y-14401238D02*
X13859286Y-14410762D01*
X13859286Y-14410762D02*
X13868810Y-14429809D01*
X13868810Y-14429809D02*
X13868810Y-14477428D01*
X13868810Y-14477428D02*
X13859286Y-14496476D01*
X13859286Y-14496476D02*
X13849762Y-14506000D01*
X13849762Y-14506000D02*
X13830714Y-14515524D01*
X13830714Y-14515524D02*
X13773572Y-14515524D01*
X13773572Y-14515524D02*
X13754524Y-14506000D01*
X13754524Y-14506000D02*
X13745000Y-14496476D01*
X14049762Y-14315524D02*
X13954524Y-14315524D01*
X13954524Y-14315524D02*
X13945000Y-14410762D01*
X13945000Y-14410762D02*
X13954524Y-14401238D01*
X13954524Y-14401238D02*
X13973572Y-14391714D01*
X13973572Y-14391714D02*
X14021191Y-14391714D01*
X14021191Y-14391714D02*
X14040238Y-14401238D01*
X14040238Y-14401238D02*
X14049762Y-14410762D01*
X14049762Y-14410762D02*
X14059286Y-14429809D01*
X14059286Y-14429809D02*
X14059286Y-14477428D01*
X14059286Y-14477428D02*
X14049762Y-14496476D01*
X14049762Y-14496476D02*
X14040238Y-14506000D01*
X14040238Y-14506000D02*
X14021191Y-14515524D01*
X14021191Y-14515524D02*
X13973572Y-14515524D01*
X13973572Y-14515524D02*
X13954524Y-14506000D01*
X13954524Y-14506000D02*
X13945000Y-14496476D01*
X14135476Y-14315524D02*
X14135476Y-14353619D01*
X14211667Y-14315524D02*
X14211667Y-14353619D01*
X14506905Y-14591714D02*
X14497381Y-14582190D01*
X14497381Y-14582190D02*
X14478334Y-14553619D01*
X14478334Y-14553619D02*
X14468810Y-14534571D01*
X14468810Y-14534571D02*
X14459286Y-14506000D01*
X14459286Y-14506000D02*
X14449762Y-14458381D01*
X14449762Y-14458381D02*
X14449762Y-14420286D01*
X14449762Y-14420286D02*
X14459286Y-14372667D01*
X14459286Y-14372667D02*
X14468810Y-14344095D01*
X14468810Y-14344095D02*
X14478334Y-14325048D01*
X14478334Y-14325048D02*
X14497381Y-14296476D01*
X14497381Y-14296476D02*
X14506905Y-14286952D01*
X14668810Y-14382190D02*
X14668810Y-14515524D01*
X14621191Y-14306000D02*
X14573572Y-14448857D01*
X14573572Y-14448857D02*
X14697381Y-14448857D01*
X14925953Y-14515524D02*
X14925953Y-14315524D01*
X15011667Y-14515524D02*
X15011667Y-14410762D01*
X15011667Y-14410762D02*
X15002143Y-14391714D01*
X15002143Y-14391714D02*
X14983096Y-14382190D01*
X14983096Y-14382190D02*
X14954524Y-14382190D01*
X14954524Y-14382190D02*
X14935476Y-14391714D01*
X14935476Y-14391714D02*
X14925953Y-14401238D01*
X15135476Y-14515524D02*
X15116429Y-14506000D01*
X15116429Y-14506000D02*
X15106905Y-14496476D01*
X15106905Y-14496476D02*
X15097381Y-14477428D01*
X15097381Y-14477428D02*
X15097381Y-14420286D01*
X15097381Y-14420286D02*
X15106905Y-14401238D01*
X15106905Y-14401238D02*
X15116429Y-14391714D01*
X15116429Y-14391714D02*
X15135476Y-14382190D01*
X15135476Y-14382190D02*
X15164048Y-14382190D01*
X15164048Y-14382190D02*
X15183096Y-14391714D01*
X15183096Y-14391714D02*
X15192619Y-14401238D01*
X15192619Y-14401238D02*
X15202143Y-14420286D01*
X15202143Y-14420286D02*
X15202143Y-14477428D01*
X15202143Y-14477428D02*
X15192619Y-14496476D01*
X15192619Y-14496476D02*
X15183096Y-14506000D01*
X15183096Y-14506000D02*
X15164048Y-14515524D01*
X15164048Y-14515524D02*
X15135476Y-14515524D01*
X15316429Y-14515524D02*
X15297381Y-14506000D01*
X15297381Y-14506000D02*
X15287857Y-14486952D01*
X15287857Y-14486952D02*
X15287857Y-14315524D01*
X15468810Y-14506000D02*
X15449762Y-14515524D01*
X15449762Y-14515524D02*
X15411667Y-14515524D01*
X15411667Y-14515524D02*
X15392619Y-14506000D01*
X15392619Y-14506000D02*
X15383096Y-14486952D01*
X15383096Y-14486952D02*
X15383096Y-14410762D01*
X15383096Y-14410762D02*
X15392619Y-14391714D01*
X15392619Y-14391714D02*
X15411667Y-14382190D01*
X15411667Y-14382190D02*
X15449762Y-14382190D01*
X15449762Y-14382190D02*
X15468810Y-14391714D01*
X15468810Y-14391714D02*
X15478334Y-14410762D01*
X15478334Y-14410762D02*
X15478334Y-14429809D01*
X15478334Y-14429809D02*
X15383096Y-14448857D01*
X15554524Y-14506000D02*
X15573572Y-14515524D01*
X15573572Y-14515524D02*
X15611667Y-14515524D01*
X15611667Y-14515524D02*
X15630715Y-14506000D01*
X15630715Y-14506000D02*
X15640238Y-14486952D01*
X15640238Y-14486952D02*
X15640238Y-14477428D01*
X15640238Y-14477428D02*
X15630715Y-14458381D01*
X15630715Y-14458381D02*
X15611667Y-14448857D01*
X15611667Y-14448857D02*
X15583096Y-14448857D01*
X15583096Y-14448857D02*
X15564048Y-14439333D01*
X15564048Y-14439333D02*
X15554524Y-14420286D01*
X15554524Y-14420286D02*
X15554524Y-14410762D01*
X15554524Y-14410762D02*
X15564048Y-14391714D01*
X15564048Y-14391714D02*
X15583096Y-14382190D01*
X15583096Y-14382190D02*
X15611667Y-14382190D01*
X15611667Y-14382190D02*
X15630715Y-14391714D01*
X15706905Y-14591714D02*
X15716429Y-14582190D01*
X15716429Y-14582190D02*
X15735477Y-14553619D01*
X15735477Y-14553619D02*
X15745000Y-14534571D01*
X15745000Y-14534571D02*
X15754524Y-14506000D01*
X15754524Y-14506000D02*
X15764048Y-14458381D01*
X15764048Y-14458381D02*
X15764048Y-14420286D01*
X15764048Y-14420286D02*
X15754524Y-14372667D01*
X15754524Y-14372667D02*
X15745000Y-14344095D01*
X15745000Y-14344095D02*
X15735477Y-14325048D01*
X15735477Y-14325048D02*
X15716429Y-14296476D01*
X15716429Y-14296476D02*
X15706905Y-14286952D01*
X16068810Y-14591714D02*
X16059286Y-14582190D01*
X16059286Y-14582190D02*
X16040238Y-14553619D01*
X16040238Y-14553619D02*
X16030715Y-14534571D01*
X16030715Y-14534571D02*
X16021191Y-14506000D01*
X16021191Y-14506000D02*
X16011667Y-14458381D01*
X16011667Y-14458381D02*
X16011667Y-14420286D01*
X16011667Y-14420286D02*
X16021191Y-14372667D01*
X16021191Y-14372667D02*
X16030715Y-14344095D01*
X16030715Y-14344095D02*
X16040238Y-14325048D01*
X16040238Y-14325048D02*
X16059286Y-14296476D01*
X16059286Y-14296476D02*
X16068810Y-14286952D01*
X16145000Y-14382190D02*
X16145000Y-14515524D01*
X16145000Y-14401238D02*
X16154524Y-14391714D01*
X16154524Y-14391714D02*
X16173572Y-14382190D01*
X16173572Y-14382190D02*
X16202143Y-14382190D01*
X16202143Y-14382190D02*
X16221191Y-14391714D01*
X16221191Y-14391714D02*
X16230715Y-14410762D01*
X16230715Y-14410762D02*
X16230715Y-14515524D01*
X16354524Y-14515524D02*
X16335477Y-14506000D01*
X16335477Y-14506000D02*
X16325953Y-14496476D01*
X16325953Y-14496476D02*
X16316429Y-14477428D01*
X16316429Y-14477428D02*
X16316429Y-14420286D01*
X16316429Y-14420286D02*
X16325953Y-14401238D01*
X16325953Y-14401238D02*
X16335477Y-14391714D01*
X16335477Y-14391714D02*
X16354524Y-14382190D01*
X16354524Y-14382190D02*
X16383096Y-14382190D01*
X16383096Y-14382190D02*
X16402143Y-14391714D01*
X16402143Y-14391714D02*
X16411667Y-14401238D01*
X16411667Y-14401238D02*
X16421191Y-14420286D01*
X16421191Y-14420286D02*
X16421191Y-14477428D01*
X16421191Y-14477428D02*
X16411667Y-14496476D01*
X16411667Y-14496476D02*
X16402143Y-14506000D01*
X16402143Y-14506000D02*
X16383096Y-14515524D01*
X16383096Y-14515524D02*
X16354524Y-14515524D01*
X16478334Y-14382190D02*
X16554524Y-14382190D01*
X16506905Y-14315524D02*
X16506905Y-14486952D01*
X16506905Y-14486952D02*
X16516429Y-14506000D01*
X16516429Y-14506000D02*
X16535477Y-14515524D01*
X16535477Y-14515524D02*
X16554524Y-14515524D01*
X16773572Y-14382190D02*
X16773572Y-14582190D01*
X16773572Y-14391714D02*
X16792620Y-14382190D01*
X16792620Y-14382190D02*
X16830715Y-14382190D01*
X16830715Y-14382190D02*
X16849762Y-14391714D01*
X16849762Y-14391714D02*
X16859286Y-14401238D01*
X16859286Y-14401238D02*
X16868810Y-14420286D01*
X16868810Y-14420286D02*
X16868810Y-14477428D01*
X16868810Y-14477428D02*
X16859286Y-14496476D01*
X16859286Y-14496476D02*
X16849762Y-14506000D01*
X16849762Y-14506000D02*
X16830715Y-14515524D01*
X16830715Y-14515524D02*
X16792620Y-14515524D01*
X16792620Y-14515524D02*
X16773572Y-14506000D01*
X16983096Y-14515524D02*
X16964048Y-14506000D01*
X16964048Y-14506000D02*
X16954524Y-14486952D01*
X16954524Y-14486952D02*
X16954524Y-14315524D01*
X17145001Y-14515524D02*
X17145001Y-14410762D01*
X17145001Y-14410762D02*
X17135477Y-14391714D01*
X17135477Y-14391714D02*
X17116429Y-14382190D01*
X17116429Y-14382190D02*
X17078334Y-14382190D01*
X17078334Y-14382190D02*
X17059286Y-14391714D01*
X17145001Y-14506000D02*
X17125953Y-14515524D01*
X17125953Y-14515524D02*
X17078334Y-14515524D01*
X17078334Y-14515524D02*
X17059286Y-14506000D01*
X17059286Y-14506000D02*
X17049762Y-14486952D01*
X17049762Y-14486952D02*
X17049762Y-14467905D01*
X17049762Y-14467905D02*
X17059286Y-14448857D01*
X17059286Y-14448857D02*
X17078334Y-14439333D01*
X17078334Y-14439333D02*
X17125953Y-14439333D01*
X17125953Y-14439333D02*
X17145001Y-14429809D01*
X17211667Y-14382190D02*
X17287858Y-14382190D01*
X17240239Y-14315524D02*
X17240239Y-14486952D01*
X17240239Y-14486952D02*
X17249762Y-14506000D01*
X17249762Y-14506000D02*
X17268810Y-14515524D01*
X17268810Y-14515524D02*
X17287858Y-14515524D01*
X17430715Y-14506000D02*
X17411667Y-14515524D01*
X17411667Y-14515524D02*
X17373572Y-14515524D01*
X17373572Y-14515524D02*
X17354524Y-14506000D01*
X17354524Y-14506000D02*
X17345001Y-14486952D01*
X17345001Y-14486952D02*
X17345001Y-14410762D01*
X17345001Y-14410762D02*
X17354524Y-14391714D01*
X17354524Y-14391714D02*
X17373572Y-14382190D01*
X17373572Y-14382190D02*
X17411667Y-14382190D01*
X17411667Y-14382190D02*
X17430715Y-14391714D01*
X17430715Y-14391714D02*
X17440239Y-14410762D01*
X17440239Y-14410762D02*
X17440239Y-14429809D01*
X17440239Y-14429809D02*
X17345001Y-14448857D01*
X17611667Y-14515524D02*
X17611667Y-14315524D01*
X17611667Y-14506000D02*
X17592620Y-14515524D01*
X17592620Y-14515524D02*
X17554524Y-14515524D01*
X17554524Y-14515524D02*
X17535477Y-14506000D01*
X17535477Y-14506000D02*
X17525953Y-14496476D01*
X17525953Y-14496476D02*
X17516429Y-14477428D01*
X17516429Y-14477428D02*
X17516429Y-14420286D01*
X17516429Y-14420286D02*
X17525953Y-14401238D01*
X17525953Y-14401238D02*
X17535477Y-14391714D01*
X17535477Y-14391714D02*
X17554524Y-14382190D01*
X17554524Y-14382190D02*
X17592620Y-14382190D01*
X17592620Y-14382190D02*
X17611667Y-14391714D01*
X17687858Y-14591714D02*
X17697382Y-14582190D01*
X17697382Y-14582190D02*
X17716429Y-14553619D01*
X17716429Y-14553619D02*
X17725953Y-14534571D01*
X17725953Y-14534571D02*
X17735477Y-14506000D01*
X17735477Y-14506000D02*
X17745001Y-14458381D01*
X17745001Y-14458381D02*
X17745001Y-14420286D01*
X17745001Y-14420286D02*
X17735477Y-14372667D01*
X17735477Y-14372667D02*
X17725953Y-14344095D01*
X17725953Y-14344095D02*
X17716429Y-14325048D01*
X17716429Y-14325048D02*
X17697382Y-14296476D01*
X17697382Y-14296476D02*
X17687858Y-14286952D01*
X10915711Y-14813711D02*
X10915711Y-14672289D01*
X10774289Y-14672289D01*
X10774289Y-14813711D01*
X10915711Y-14813711D01*
X11183095Y-14654571D02*
X11192619Y-14645048D01*
X11192619Y-14645048D02*
X11211667Y-14635524D01*
X11211667Y-14635524D02*
X11259286Y-14635524D01*
X11259286Y-14635524D02*
X11278333Y-14645048D01*
X11278333Y-14645048D02*
X11287857Y-14654571D01*
X11287857Y-14654571D02*
X11297381Y-14673619D01*
X11297381Y-14673619D02*
X11297381Y-14692667D01*
X11297381Y-14692667D02*
X11287857Y-14721238D01*
X11287857Y-14721238D02*
X11173571Y-14835524D01*
X11173571Y-14835524D02*
X11297381Y-14835524D01*
X11383095Y-14816476D02*
X11392619Y-14826000D01*
X11392619Y-14826000D02*
X11383095Y-14835524D01*
X11383095Y-14835524D02*
X11373571Y-14826000D01*
X11373571Y-14826000D02*
X11383095Y-14816476D01*
X11383095Y-14816476D02*
X11383095Y-14835524D01*
X11459286Y-14635524D02*
X11592619Y-14635524D01*
X11592619Y-14635524D02*
X11506905Y-14835524D01*
X11706905Y-14635524D02*
X11725952Y-14635524D01*
X11725952Y-14635524D02*
X11745000Y-14645048D01*
X11745000Y-14645048D02*
X11754524Y-14654571D01*
X11754524Y-14654571D02*
X11764048Y-14673619D01*
X11764048Y-14673619D02*
X11773571Y-14711714D01*
X11773571Y-14711714D02*
X11773571Y-14759333D01*
X11773571Y-14759333D02*
X11764048Y-14797428D01*
X11764048Y-14797428D02*
X11754524Y-14816476D01*
X11754524Y-14816476D02*
X11745000Y-14826000D01*
X11745000Y-14826000D02*
X11725952Y-14835524D01*
X11725952Y-14835524D02*
X11706905Y-14835524D01*
X11706905Y-14835524D02*
X11687857Y-14826000D01*
X11687857Y-14826000D02*
X11678333Y-14816476D01*
X11678333Y-14816476D02*
X11668809Y-14797428D01*
X11668809Y-14797428D02*
X11659286Y-14759333D01*
X11659286Y-14759333D02*
X11659286Y-14711714D01*
X11659286Y-14711714D02*
X11668809Y-14673619D01*
X11668809Y-14673619D02*
X11678333Y-14654571D01*
X11678333Y-14654571D02*
X11687857Y-14645048D01*
X11687857Y-14645048D02*
X11706905Y-14635524D01*
X11897381Y-14635524D02*
X11916429Y-14635524D01*
X11916429Y-14635524D02*
X11935476Y-14645048D01*
X11935476Y-14645048D02*
X11945000Y-14654571D01*
X11945000Y-14654571D02*
X11954524Y-14673619D01*
X11954524Y-14673619D02*
X11964048Y-14711714D01*
X11964048Y-14711714D02*
X11964048Y-14759333D01*
X11964048Y-14759333D02*
X11954524Y-14797428D01*
X11954524Y-14797428D02*
X11945000Y-14816476D01*
X11945000Y-14816476D02*
X11935476Y-14826000D01*
X11935476Y-14826000D02*
X11916429Y-14835524D01*
X11916429Y-14835524D02*
X11897381Y-14835524D01*
X11897381Y-14835524D02*
X11878333Y-14826000D01*
X11878333Y-14826000D02*
X11868809Y-14816476D01*
X11868809Y-14816476D02*
X11859286Y-14797428D01*
X11859286Y-14797428D02*
X11849762Y-14759333D01*
X11849762Y-14759333D02*
X11849762Y-14711714D01*
X11849762Y-14711714D02*
X11859286Y-14673619D01*
X11859286Y-14673619D02*
X11868809Y-14654571D01*
X11868809Y-14654571D02*
X11878333Y-14645048D01*
X11878333Y-14645048D02*
X11897381Y-14635524D01*
X12049762Y-14835524D02*
X12049762Y-14702190D01*
X12049762Y-14721238D02*
X12059286Y-14711714D01*
X12059286Y-14711714D02*
X12078333Y-14702190D01*
X12078333Y-14702190D02*
X12106905Y-14702190D01*
X12106905Y-14702190D02*
X12125952Y-14711714D01*
X12125952Y-14711714D02*
X12135476Y-14730762D01*
X12135476Y-14730762D02*
X12135476Y-14835524D01*
X12135476Y-14730762D02*
X12145000Y-14711714D01*
X12145000Y-14711714D02*
X12164048Y-14702190D01*
X12164048Y-14702190D02*
X12192619Y-14702190D01*
X12192619Y-14702190D02*
X12211667Y-14711714D01*
X12211667Y-14711714D02*
X12221190Y-14730762D01*
X12221190Y-14730762D02*
X12221190Y-14835524D01*
X12316429Y-14835524D02*
X12316429Y-14702190D01*
X12316429Y-14721238D02*
X12325952Y-14711714D01*
X12325952Y-14711714D02*
X12345000Y-14702190D01*
X12345000Y-14702190D02*
X12373571Y-14702190D01*
X12373571Y-14702190D02*
X12392619Y-14711714D01*
X12392619Y-14711714D02*
X12402143Y-14730762D01*
X12402143Y-14730762D02*
X12402143Y-14835524D01*
X12402143Y-14730762D02*
X12411667Y-14711714D01*
X12411667Y-14711714D02*
X12430714Y-14702190D01*
X12430714Y-14702190D02*
X12459286Y-14702190D01*
X12459286Y-14702190D02*
X12478333Y-14711714D01*
X12478333Y-14711714D02*
X12487857Y-14730762D01*
X12487857Y-14730762D02*
X12487857Y-14835524D01*
X12878333Y-14626000D02*
X12706905Y-14883143D01*
X13135476Y-14635524D02*
X13154524Y-14635524D01*
X13154524Y-14635524D02*
X13173572Y-14645048D01*
X13173572Y-14645048D02*
X13183095Y-14654571D01*
X13183095Y-14654571D02*
X13192619Y-14673619D01*
X13192619Y-14673619D02*
X13202143Y-14711714D01*
X13202143Y-14711714D02*
X13202143Y-14759333D01*
X13202143Y-14759333D02*
X13192619Y-14797428D01*
X13192619Y-14797428D02*
X13183095Y-14816476D01*
X13183095Y-14816476D02*
X13173572Y-14826000D01*
X13173572Y-14826000D02*
X13154524Y-14835524D01*
X13154524Y-14835524D02*
X13135476Y-14835524D01*
X13135476Y-14835524D02*
X13116429Y-14826000D01*
X13116429Y-14826000D02*
X13106905Y-14816476D01*
X13106905Y-14816476D02*
X13097381Y-14797428D01*
X13097381Y-14797428D02*
X13087857Y-14759333D01*
X13087857Y-14759333D02*
X13087857Y-14711714D01*
X13087857Y-14711714D02*
X13097381Y-14673619D01*
X13097381Y-14673619D02*
X13106905Y-14654571D01*
X13106905Y-14654571D02*
X13116429Y-14645048D01*
X13116429Y-14645048D02*
X13135476Y-14635524D01*
X13287857Y-14816476D02*
X13297381Y-14826000D01*
X13297381Y-14826000D02*
X13287857Y-14835524D01*
X13287857Y-14835524D02*
X13278333Y-14826000D01*
X13278333Y-14826000D02*
X13287857Y-14816476D01*
X13287857Y-14816476D02*
X13287857Y-14835524D01*
X13487857Y-14835524D02*
X13373572Y-14835524D01*
X13430714Y-14835524D02*
X13430714Y-14635524D01*
X13430714Y-14635524D02*
X13411667Y-14664095D01*
X13411667Y-14664095D02*
X13392619Y-14683143D01*
X13392619Y-14683143D02*
X13373572Y-14692667D01*
X13611667Y-14635524D02*
X13630714Y-14635524D01*
X13630714Y-14635524D02*
X13649762Y-14645048D01*
X13649762Y-14645048D02*
X13659286Y-14654571D01*
X13659286Y-14654571D02*
X13668810Y-14673619D01*
X13668810Y-14673619D02*
X13678333Y-14711714D01*
X13678333Y-14711714D02*
X13678333Y-14759333D01*
X13678333Y-14759333D02*
X13668810Y-14797428D01*
X13668810Y-14797428D02*
X13659286Y-14816476D01*
X13659286Y-14816476D02*
X13649762Y-14826000D01*
X13649762Y-14826000D02*
X13630714Y-14835524D01*
X13630714Y-14835524D02*
X13611667Y-14835524D01*
X13611667Y-14835524D02*
X13592619Y-14826000D01*
X13592619Y-14826000D02*
X13583095Y-14816476D01*
X13583095Y-14816476D02*
X13573572Y-14797428D01*
X13573572Y-14797428D02*
X13564048Y-14759333D01*
X13564048Y-14759333D02*
X13564048Y-14711714D01*
X13564048Y-14711714D02*
X13573572Y-14673619D01*
X13573572Y-14673619D02*
X13583095Y-14654571D01*
X13583095Y-14654571D02*
X13592619Y-14645048D01*
X13592619Y-14645048D02*
X13611667Y-14635524D01*
X13849762Y-14635524D02*
X13811667Y-14635524D01*
X13811667Y-14635524D02*
X13792619Y-14645048D01*
X13792619Y-14645048D02*
X13783095Y-14654571D01*
X13783095Y-14654571D02*
X13764048Y-14683143D01*
X13764048Y-14683143D02*
X13754524Y-14721238D01*
X13754524Y-14721238D02*
X13754524Y-14797428D01*
X13754524Y-14797428D02*
X13764048Y-14816476D01*
X13764048Y-14816476D02*
X13773572Y-14826000D01*
X13773572Y-14826000D02*
X13792619Y-14835524D01*
X13792619Y-14835524D02*
X13830714Y-14835524D01*
X13830714Y-14835524D02*
X13849762Y-14826000D01*
X13849762Y-14826000D02*
X13859286Y-14816476D01*
X13859286Y-14816476D02*
X13868810Y-14797428D01*
X13868810Y-14797428D02*
X13868810Y-14749809D01*
X13868810Y-14749809D02*
X13859286Y-14730762D01*
X13859286Y-14730762D02*
X13849762Y-14721238D01*
X13849762Y-14721238D02*
X13830714Y-14711714D01*
X13830714Y-14711714D02*
X13792619Y-14711714D01*
X13792619Y-14711714D02*
X13773572Y-14721238D01*
X13773572Y-14721238D02*
X13764048Y-14730762D01*
X13764048Y-14730762D02*
X13754524Y-14749809D01*
X13935476Y-14635524D02*
X14059286Y-14635524D01*
X14059286Y-14635524D02*
X13992619Y-14711714D01*
X13992619Y-14711714D02*
X14021191Y-14711714D01*
X14021191Y-14711714D02*
X14040238Y-14721238D01*
X14040238Y-14721238D02*
X14049762Y-14730762D01*
X14049762Y-14730762D02*
X14059286Y-14749809D01*
X14059286Y-14749809D02*
X14059286Y-14797428D01*
X14059286Y-14797428D02*
X14049762Y-14816476D01*
X14049762Y-14816476D02*
X14040238Y-14826000D01*
X14040238Y-14826000D02*
X14021191Y-14835524D01*
X14021191Y-14835524D02*
X13964048Y-14835524D01*
X13964048Y-14835524D02*
X13945000Y-14826000D01*
X13945000Y-14826000D02*
X13935476Y-14816476D01*
X14135476Y-14635524D02*
X14135476Y-14673619D01*
X14211667Y-14635524D02*
X14211667Y-14673619D01*
X14506905Y-14911714D02*
X14497381Y-14902190D01*
X14497381Y-14902190D02*
X14478334Y-14873619D01*
X14478334Y-14873619D02*
X14468810Y-14854571D01*
X14468810Y-14854571D02*
X14459286Y-14826000D01*
X14459286Y-14826000D02*
X14449762Y-14778381D01*
X14449762Y-14778381D02*
X14449762Y-14740286D01*
X14449762Y-14740286D02*
X14459286Y-14692667D01*
X14459286Y-14692667D02*
X14468810Y-14664095D01*
X14468810Y-14664095D02*
X14478334Y-14645048D01*
X14478334Y-14645048D02*
X14497381Y-14616476D01*
X14497381Y-14616476D02*
X14506905Y-14606952D01*
X14687857Y-14835524D02*
X14573572Y-14835524D01*
X14630714Y-14835524D02*
X14630714Y-14635524D01*
X14630714Y-14635524D02*
X14611667Y-14664095D01*
X14611667Y-14664095D02*
X14592619Y-14683143D01*
X14592619Y-14683143D02*
X14573572Y-14692667D01*
X14925953Y-14835524D02*
X14925953Y-14635524D01*
X15011667Y-14835524D02*
X15011667Y-14730762D01*
X15011667Y-14730762D02*
X15002143Y-14711714D01*
X15002143Y-14711714D02*
X14983096Y-14702190D01*
X14983096Y-14702190D02*
X14954524Y-14702190D01*
X14954524Y-14702190D02*
X14935476Y-14711714D01*
X14935476Y-14711714D02*
X14925953Y-14721238D01*
X15135476Y-14835524D02*
X15116429Y-14826000D01*
X15116429Y-14826000D02*
X15106905Y-14816476D01*
X15106905Y-14816476D02*
X15097381Y-14797428D01*
X15097381Y-14797428D02*
X15097381Y-14740286D01*
X15097381Y-14740286D02*
X15106905Y-14721238D01*
X15106905Y-14721238D02*
X15116429Y-14711714D01*
X15116429Y-14711714D02*
X15135476Y-14702190D01*
X15135476Y-14702190D02*
X15164048Y-14702190D01*
X15164048Y-14702190D02*
X15183096Y-14711714D01*
X15183096Y-14711714D02*
X15192619Y-14721238D01*
X15192619Y-14721238D02*
X15202143Y-14740286D01*
X15202143Y-14740286D02*
X15202143Y-14797428D01*
X15202143Y-14797428D02*
X15192619Y-14816476D01*
X15192619Y-14816476D02*
X15183096Y-14826000D01*
X15183096Y-14826000D02*
X15164048Y-14835524D01*
X15164048Y-14835524D02*
X15135476Y-14835524D01*
X15316429Y-14835524D02*
X15297381Y-14826000D01*
X15297381Y-14826000D02*
X15287857Y-14806952D01*
X15287857Y-14806952D02*
X15287857Y-14635524D01*
X15468810Y-14826000D02*
X15449762Y-14835524D01*
X15449762Y-14835524D02*
X15411667Y-14835524D01*
X15411667Y-14835524D02*
X15392619Y-14826000D01*
X15392619Y-14826000D02*
X15383096Y-14806952D01*
X15383096Y-14806952D02*
X15383096Y-14730762D01*
X15383096Y-14730762D02*
X15392619Y-14711714D01*
X15392619Y-14711714D02*
X15411667Y-14702190D01*
X15411667Y-14702190D02*
X15449762Y-14702190D01*
X15449762Y-14702190D02*
X15468810Y-14711714D01*
X15468810Y-14711714D02*
X15478334Y-14730762D01*
X15478334Y-14730762D02*
X15478334Y-14749809D01*
X15478334Y-14749809D02*
X15383096Y-14768857D01*
X15545000Y-14911714D02*
X15554524Y-14902190D01*
X15554524Y-14902190D02*
X15573572Y-14873619D01*
X15573572Y-14873619D02*
X15583096Y-14854571D01*
X15583096Y-14854571D02*
X15592619Y-14826000D01*
X15592619Y-14826000D02*
X15602143Y-14778381D01*
X15602143Y-14778381D02*
X15602143Y-14740286D01*
X15602143Y-14740286D02*
X15592619Y-14692667D01*
X15592619Y-14692667D02*
X15583096Y-14664095D01*
X15583096Y-14664095D02*
X15573572Y-14645048D01*
X15573572Y-14645048D02*
X15554524Y-14616476D01*
X15554524Y-14616476D02*
X15545000Y-14606952D01*
X15906905Y-14911714D02*
X15897381Y-14902190D01*
X15897381Y-14902190D02*
X15878334Y-14873619D01*
X15878334Y-14873619D02*
X15868810Y-14854571D01*
X15868810Y-14854571D02*
X15859286Y-14826000D01*
X15859286Y-14826000D02*
X15849762Y-14778381D01*
X15849762Y-14778381D02*
X15849762Y-14740286D01*
X15849762Y-14740286D02*
X15859286Y-14692667D01*
X15859286Y-14692667D02*
X15868810Y-14664095D01*
X15868810Y-14664095D02*
X15878334Y-14645048D01*
X15878334Y-14645048D02*
X15897381Y-14616476D01*
X15897381Y-14616476D02*
X15906905Y-14606952D01*
X15983096Y-14702190D02*
X15983096Y-14835524D01*
X15983096Y-14721238D02*
X15992619Y-14711714D01*
X15992619Y-14711714D02*
X16011667Y-14702190D01*
X16011667Y-14702190D02*
X16040238Y-14702190D01*
X16040238Y-14702190D02*
X16059286Y-14711714D01*
X16059286Y-14711714D02*
X16068810Y-14730762D01*
X16068810Y-14730762D02*
X16068810Y-14835524D01*
X16192619Y-14835524D02*
X16173572Y-14826000D01*
X16173572Y-14826000D02*
X16164048Y-14816476D01*
X16164048Y-14816476D02*
X16154524Y-14797428D01*
X16154524Y-14797428D02*
X16154524Y-14740286D01*
X16154524Y-14740286D02*
X16164048Y-14721238D01*
X16164048Y-14721238D02*
X16173572Y-14711714D01*
X16173572Y-14711714D02*
X16192619Y-14702190D01*
X16192619Y-14702190D02*
X16221191Y-14702190D01*
X16221191Y-14702190D02*
X16240238Y-14711714D01*
X16240238Y-14711714D02*
X16249762Y-14721238D01*
X16249762Y-14721238D02*
X16259286Y-14740286D01*
X16259286Y-14740286D02*
X16259286Y-14797428D01*
X16259286Y-14797428D02*
X16249762Y-14816476D01*
X16249762Y-14816476D02*
X16240238Y-14826000D01*
X16240238Y-14826000D02*
X16221191Y-14835524D01*
X16221191Y-14835524D02*
X16192619Y-14835524D01*
X16316429Y-14702190D02*
X16392619Y-14702190D01*
X16345000Y-14635524D02*
X16345000Y-14806952D01*
X16345000Y-14806952D02*
X16354524Y-14826000D01*
X16354524Y-14826000D02*
X16373572Y-14835524D01*
X16373572Y-14835524D02*
X16392619Y-14835524D01*
X16611667Y-14702190D02*
X16611667Y-14902190D01*
X16611667Y-14711714D02*
X16630715Y-14702190D01*
X16630715Y-14702190D02*
X16668810Y-14702190D01*
X16668810Y-14702190D02*
X16687858Y-14711714D01*
X16687858Y-14711714D02*
X16697381Y-14721238D01*
X16697381Y-14721238D02*
X16706905Y-14740286D01*
X16706905Y-14740286D02*
X16706905Y-14797428D01*
X16706905Y-14797428D02*
X16697381Y-14816476D01*
X16697381Y-14816476D02*
X16687858Y-14826000D01*
X16687858Y-14826000D02*
X16668810Y-14835524D01*
X16668810Y-14835524D02*
X16630715Y-14835524D01*
X16630715Y-14835524D02*
X16611667Y-14826000D01*
X16821191Y-14835524D02*
X16802143Y-14826000D01*
X16802143Y-14826000D02*
X16792620Y-14806952D01*
X16792620Y-14806952D02*
X16792620Y-14635524D01*
X16983096Y-14835524D02*
X16983096Y-14730762D01*
X16983096Y-14730762D02*
X16973572Y-14711714D01*
X16973572Y-14711714D02*
X16954524Y-14702190D01*
X16954524Y-14702190D02*
X16916429Y-14702190D01*
X16916429Y-14702190D02*
X16897381Y-14711714D01*
X16983096Y-14826000D02*
X16964048Y-14835524D01*
X16964048Y-14835524D02*
X16916429Y-14835524D01*
X16916429Y-14835524D02*
X16897381Y-14826000D01*
X16897381Y-14826000D02*
X16887858Y-14806952D01*
X16887858Y-14806952D02*
X16887858Y-14787905D01*
X16887858Y-14787905D02*
X16897381Y-14768857D01*
X16897381Y-14768857D02*
X16916429Y-14759333D01*
X16916429Y-14759333D02*
X16964048Y-14759333D01*
X16964048Y-14759333D02*
X16983096Y-14749809D01*
X17049762Y-14702190D02*
X17125953Y-14702190D01*
X17078334Y-14635524D02*
X17078334Y-14806952D01*
X17078334Y-14806952D02*
X17087858Y-14826000D01*
X17087858Y-14826000D02*
X17106905Y-14835524D01*
X17106905Y-14835524D02*
X17125953Y-14835524D01*
X17268810Y-14826000D02*
X17249762Y-14835524D01*
X17249762Y-14835524D02*
X17211667Y-14835524D01*
X17211667Y-14835524D02*
X17192620Y-14826000D01*
X17192620Y-14826000D02*
X17183096Y-14806952D01*
X17183096Y-14806952D02*
X17183096Y-14730762D01*
X17183096Y-14730762D02*
X17192620Y-14711714D01*
X17192620Y-14711714D02*
X17211667Y-14702190D01*
X17211667Y-14702190D02*
X17249762Y-14702190D01*
X17249762Y-14702190D02*
X17268810Y-14711714D01*
X17268810Y-14711714D02*
X17278334Y-14730762D01*
X17278334Y-14730762D02*
X17278334Y-14749809D01*
X17278334Y-14749809D02*
X17183096Y-14768857D01*
X17449762Y-14835524D02*
X17449762Y-14635524D01*
X17449762Y-14826000D02*
X17430715Y-14835524D01*
X17430715Y-14835524D02*
X17392620Y-14835524D01*
X17392620Y-14835524D02*
X17373572Y-14826000D01*
X17373572Y-14826000D02*
X17364048Y-14816476D01*
X17364048Y-14816476D02*
X17354524Y-14797428D01*
X17354524Y-14797428D02*
X17354524Y-14740286D01*
X17354524Y-14740286D02*
X17364048Y-14721238D01*
X17364048Y-14721238D02*
X17373572Y-14711714D01*
X17373572Y-14711714D02*
X17392620Y-14702190D01*
X17392620Y-14702190D02*
X17430715Y-14702190D01*
X17430715Y-14702190D02*
X17449762Y-14711714D01*
X17525953Y-14911714D02*
X17535477Y-14902190D01*
X17535477Y-14902190D02*
X17554524Y-14873619D01*
X17554524Y-14873619D02*
X17564048Y-14854571D01*
X17564048Y-14854571D02*
X17573572Y-14826000D01*
X17573572Y-14826000D02*
X17583096Y-14778381D01*
X17583096Y-14778381D02*
X17583096Y-14740286D01*
X17583096Y-14740286D02*
X17573572Y-14692667D01*
X17573572Y-14692667D02*
X17564048Y-14664095D01*
X17564048Y-14664095D02*
X17554524Y-14645048D01*
X17554524Y-14645048D02*
X17535477Y-14616476D01*
X17535477Y-14616476D02*
X17525953Y-14606952D01*
M02*
