%TF.GenerationSoftware,KiCad,Pcbnew,7.0.1*%
%TF.CreationDate,2023-07-17T00:50:59+01:00*%
%TF.ProjectId,Power Board,506f7765-7220-4426-9f61-72642e6b6963,rev?*%
%TF.SameCoordinates,Original*%
%TF.FileFunction,Copper,L2,Inr*%
%TF.FilePolarity,Positive*%
%FSLAX46Y46*%
G04 Gerber Fmt 4.6, Leading zero omitted, Abs format (unit mm)*
G04 Created by KiCad (PCBNEW 7.0.1) date 2023-07-17 00:50:59*
%MOMM*%
%LPD*%
G01*
G04 APERTURE LIST*
G04 Aperture macros list*
%AMRoundRect*
0 Rectangle with rounded corners*
0 $1 Rounding radius*
0 $2 $3 $4 $5 $6 $7 $8 $9 X,Y pos of 4 corners*
0 Add a 4 corners polygon primitive as box body*
4,1,4,$2,$3,$4,$5,$6,$7,$8,$9,$2,$3,0*
0 Add four circle primitives for the rounded corners*
1,1,$1+$1,$2,$3*
1,1,$1+$1,$4,$5*
1,1,$1+$1,$6,$7*
1,1,$1+$1,$8,$9*
0 Add four rect primitives between the rounded corners*
20,1,$1+$1,$2,$3,$4,$5,0*
20,1,$1+$1,$4,$5,$6,$7,0*
20,1,$1+$1,$6,$7,$8,$9,0*
20,1,$1+$1,$8,$9,$2,$3,0*%
G04 Aperture macros list end*
%TA.AperFunction,ComponentPad*%
%ADD10R,3.000000X3.000000*%
%TD*%
%TA.AperFunction,ComponentPad*%
%ADD11C,3.000000*%
%TD*%
%TA.AperFunction,ComponentPad*%
%ADD12C,3.781000*%
%TD*%
%TA.AperFunction,ComponentPad*%
%ADD13RoundRect,1.025000X-1.025000X1.025000X-1.025000X-1.025000X1.025000X-1.025000X1.025000X1.025000X0*%
%TD*%
%TA.AperFunction,ComponentPad*%
%ADD14C,4.100000*%
%TD*%
%TA.AperFunction,ComponentPad*%
%ADD15R,2.000000X0.900000*%
%TD*%
%TA.AperFunction,ComponentPad*%
%ADD16C,5.600000*%
%TD*%
%TA.AperFunction,ComponentPad*%
%ADD17O,0.900000X2.000000*%
%TD*%
%TA.AperFunction,ComponentPad*%
%ADD18O,0.900000X1.700000*%
%TD*%
%TA.AperFunction,ComponentPad*%
%ADD19RoundRect,0.250000X-0.750000X0.600000X-0.750000X-0.600000X0.750000X-0.600000X0.750000X0.600000X0*%
%TD*%
%TA.AperFunction,ComponentPad*%
%ADD20O,2.000000X1.700000*%
%TD*%
%TA.AperFunction,ViaPad*%
%ADD21C,0.450000*%
%TD*%
G04 APERTURE END LIST*
D10*
%TO.N,VOUT*%
%TO.C,J214*%
X148540000Y-73000000D03*
D11*
%TO.N,GND*%
X143460000Y-73000000D03*
%TD*%
D12*
%TO.N,/Power/VBAT_SWITCHED*%
%TO.C,SW201*%
X146101000Y-127800000D03*
%TO.N,/Power/VBAT_FUSED*%
X150800000Y-127800000D03*
%TO.N,unconnected-(SW201-C-Pad3)*%
X155499000Y-127800000D03*
%TD*%
D10*
%TO.N,GND*%
%TO.C,J215*%
X190500000Y-89040000D03*
D11*
%TO.N,/Power/12V_OUT*%
X190500000Y-83960000D03*
%TD*%
D10*
%TO.N,VBAT_RAW*%
%TO.C,J204*%
X190500000Y-116040000D03*
D11*
%TO.N,GND*%
X190500000Y-110960000D03*
%TD*%
D13*
%TO.N,GND*%
%TO.C,J201*%
X186750000Y-90100000D03*
D14*
%TO.N,/Power/12V_OUT*%
X186750000Y-82900000D03*
D15*
%TO.N,unconnected-(J201-PadSH1)*%
X192750000Y-93250000D03*
%TO.N,unconnected-(J201-PadSH2)*%
X192750000Y-79750000D03*
%TD*%
D11*
%TO.N,VBAT_RAW*%
%TO.C,F201*%
X184500000Y-126500000D03*
%TO.N,/Power/VBAT_FUSED*%
X162000000Y-126500000D03*
%TD*%
D10*
%TO.N,VOUT*%
%TO.C,J211*%
X136540000Y-73000000D03*
D11*
%TO.N,GND*%
X131460000Y-73000000D03*
%TD*%
D10*
%TO.N,VOUT*%
%TO.C,J207*%
X160540000Y-73000000D03*
D11*
%TO.N,GND*%
X155460000Y-73000000D03*
%TD*%
D10*
%TO.N,VOUT*%
%TO.C,J213*%
X184540000Y-73000000D03*
D11*
%TO.N,GND*%
X179460000Y-73000000D03*
%TD*%
D10*
%TO.N,VOUT*%
%TO.C,J208*%
X124540000Y-73000000D03*
D11*
%TO.N,GND*%
X119460000Y-73000000D03*
%TD*%
D10*
%TO.N,/Control/CANH*%
%TO.C,J303*%
X114750000Y-95340000D03*
D11*
%TO.N,GND*%
X114750000Y-100420000D03*
%TO.N,/Control/CANL*%
X114750000Y-105500000D03*
%TD*%
D10*
%TO.N,VOUT*%
%TO.C,J210*%
X172540000Y-73000000D03*
D11*
%TO.N,GND*%
X167460000Y-73000000D03*
%TD*%
D16*
%TO.N,unconnected-(H101-Pad1)*%
%TO.C,H101*%
X191500000Y-70500000D03*
%TD*%
D17*
%TO.N,unconnected-(J302-SHIELD-PadS1)*%
%TO.C,J302*%
X119925000Y-126242500D03*
%TO.N,unconnected-(J302-SHIELD-PadS2)*%
X128575000Y-126242500D03*
D18*
%TO.N,unconnected-(J302-SHIELD-PadS3)*%
X119925000Y-130412500D03*
%TO.N,unconnected-(J302-SHIELD-PadS4)*%
X128575000Y-130412500D03*
%TD*%
D19*
%TO.N,+5V*%
%TO.C,J206*%
X170500000Y-80750000D03*
D20*
%TO.N,GND*%
X170500000Y-83250000D03*
%TD*%
D16*
%TO.N,unconnected-(H102-Pad1)*%
%TO.C,H102*%
X112500000Y-70500000D03*
%TD*%
D19*
%TO.N,+5V*%
%TO.C,J202*%
X178125000Y-80725000D03*
D20*
%TO.N,GND*%
X178125000Y-83225000D03*
%TD*%
D16*
%TO.N,unconnected-(H104-Pad1)*%
%TO.C,H104*%
X112500000Y-129500000D03*
%TD*%
D19*
%TO.N,+5V*%
%TO.C,J205*%
X162925000Y-80750000D03*
D20*
%TO.N,GND*%
X162925000Y-83250000D03*
%TD*%
D16*
%TO.N,unconnected-(H103-Pad1)*%
%TO.C,H103*%
X191500000Y-129500000D03*
%TD*%
D13*
%TO.N,GND*%
%TO.C,J203*%
X186750000Y-109860000D03*
D14*
%TO.N,VBAT_RAW*%
X186750000Y-117060000D03*
D15*
%TO.N,unconnected-(J203-PadSH1)*%
X192750000Y-106710000D03*
%TO.N,unconnected-(J203-PadSH2)*%
X192750000Y-120210000D03*
%TD*%
D21*
%TO.N,GND*%
X128975000Y-111500000D03*
X152500000Y-116500000D03*
X154200000Y-96300000D03*
X170300000Y-91800000D03*
X154500000Y-120500000D03*
X129200000Y-102200000D03*
X168300000Y-114000000D03*
X150500000Y-116500000D03*
X138250000Y-98860000D03*
X171261629Y-114938060D03*
X160500000Y-114500000D03*
X157900000Y-77900000D03*
X161987000Y-91744000D03*
X163100000Y-92581000D03*
X162500000Y-120500000D03*
X176500000Y-118500000D03*
X160500000Y-116500000D03*
X125700000Y-92950000D03*
X164700000Y-115500000D03*
X172500000Y-120500000D03*
X155000000Y-97100000D03*
X163687000Y-91744000D03*
X177000000Y-106100000D03*
X156500000Y-122500000D03*
X160250000Y-96150000D03*
X174500000Y-116500000D03*
X164500000Y-122500000D03*
X148031254Y-98944242D03*
X182500000Y-110500000D03*
X148500000Y-122500000D03*
X134520000Y-77000000D03*
X162500000Y-116500000D03*
X172025035Y-115999065D03*
X172500000Y-122500000D03*
X182500000Y-112500000D03*
X124065000Y-86140000D03*
X112625000Y-89825000D03*
X186996968Y-99365489D03*
X170500000Y-120500000D03*
X155000000Y-96300000D03*
X175200000Y-96650000D03*
X123856331Y-117940179D03*
X124550000Y-116500000D03*
X158500000Y-116500000D03*
X154750000Y-87200000D03*
X140130000Y-105040000D03*
X160500000Y-118500000D03*
X179255001Y-100794999D03*
X176200000Y-106900000D03*
X156050000Y-90250000D03*
X124475000Y-114000000D03*
X124762779Y-122407988D03*
X146430000Y-98750000D03*
X180500000Y-114500000D03*
X178500000Y-114500000D03*
X182500000Y-108500000D03*
X178500000Y-120500000D03*
X135725000Y-114000000D03*
X136290000Y-77770000D03*
X176500000Y-122500000D03*
X160500000Y-120500000D03*
X150650000Y-83270000D03*
X178500000Y-116500000D03*
X155350000Y-83300000D03*
X155800000Y-97100000D03*
X129200000Y-105200000D03*
X192345000Y-101905000D03*
X146430000Y-97740000D03*
X149380000Y-82750000D03*
X123633506Y-127646223D03*
X140225000Y-111500000D03*
X178500000Y-118500000D03*
X164500000Y-120500000D03*
X154200000Y-97100000D03*
X156500000Y-120500000D03*
X178500000Y-122500000D03*
X174500000Y-120500000D03*
X174500000Y-118500000D03*
X167200000Y-114000000D03*
X129760000Y-93510000D03*
X176500000Y-120500000D03*
X134380000Y-105040000D03*
X176500000Y-116500000D03*
X174500000Y-122500000D03*
X162500000Y-122500000D03*
X180500000Y-106500000D03*
X152500000Y-118500000D03*
X154500000Y-116500000D03*
X173088000Y-92612000D03*
X112625000Y-82325000D03*
X168500000Y-122500000D03*
X155800000Y-96300000D03*
X150500000Y-122500000D03*
X170500000Y-122500000D03*
X158500000Y-122500000D03*
X118000000Y-83450000D03*
X121053389Y-124660260D03*
X176200000Y-106100000D03*
X152500000Y-122500000D03*
X172500000Y-118500000D03*
X137350000Y-109250000D03*
X126100000Y-109250000D03*
X154500000Y-118500000D03*
X148500000Y-116500000D03*
X158500000Y-120500000D03*
X142040000Y-98750000D03*
X173675000Y-91775000D03*
X166500000Y-122500000D03*
X152700000Y-99500000D03*
X160500000Y-122500000D03*
X171975000Y-91775000D03*
X177000000Y-106900000D03*
X152500000Y-120500000D03*
X168500000Y-120500000D03*
X184500000Y-106500000D03*
X150650000Y-82230000D03*
X166500000Y-120500000D03*
X165200000Y-96650000D03*
X135540000Y-77010000D03*
X135500000Y-129725000D03*
X177800000Y-106900000D03*
X142030000Y-97750000D03*
X135800000Y-116500000D03*
X170250000Y-96150000D03*
X183050000Y-98750000D03*
X127455098Y-124658043D03*
X154500000Y-122500000D03*
X130500000Y-92890000D03*
X160312000Y-91769000D03*
X158500000Y-118500000D03*
X177800000Y-106100000D03*
X118000000Y-90950000D03*
X118250000Y-124250000D03*
X129200000Y-99200000D03*
X150250000Y-93990000D03*
%TO.N,VBAT*%
X146000000Y-112250000D03*
X146000000Y-105250000D03*
%TO.N,+12V*%
X170000000Y-112250000D03*
X169500000Y-115750000D03*
%TO.N,+5V*%
X145250000Y-83750000D03*
X128110000Y-91670000D03*
X138250000Y-90750000D03*
%TO.N,VBUS*%
X121850154Y-124660544D03*
X126656284Y-124663100D03*
%TO.N,NRST*%
X123500000Y-90500000D03*
X137730000Y-92280000D03*
%TO.N,/Control/CC2*%
X131000000Y-83274500D03*
X137250000Y-83250000D03*
%TO.N,USB_DN*%
X123220000Y-127120000D03*
X123290000Y-117608176D03*
%TO.N,USB_DP*%
X124000000Y-127110000D03*
X123290000Y-118258176D03*
%TO.N,SWO*%
X131100000Y-88750000D03*
X126300000Y-85450000D03*
%TO.N,SCL*%
X192345000Y-98095000D03*
X154092436Y-77868732D03*
X151180000Y-120376327D03*
X145787486Y-78000475D03*
X166250000Y-117500000D03*
%TO.N,SDA*%
X167300000Y-116800000D03*
X144712317Y-77997067D03*
X149910000Y-120375316D03*
X155365866Y-77870502D03*
X189750000Y-99365000D03*
%TO.N,SILENT*%
X125560000Y-95060000D03*
X133500000Y-93250000D03*
X131690000Y-95060000D03*
X122679664Y-94207402D03*
%TO.N,ALT*%
X149600000Y-99600000D03*
X165482872Y-116675372D03*
%TO.N,+3.3V*%
X150250000Y-93030000D03*
X118000000Y-86550000D03*
X151000000Y-111200000D03*
X136290000Y-78730000D03*
X118000000Y-79050000D03*
X154089773Y-83255269D03*
X139150000Y-105040000D03*
X167250000Y-88250000D03*
X163500000Y-89000000D03*
X162750000Y-88250000D03*
X161250000Y-88250000D03*
X132830000Y-78750000D03*
X164250000Y-88250000D03*
X147530000Y-78750000D03*
X164250000Y-89750000D03*
X113230991Y-122949839D03*
X120310000Y-90400000D03*
X129760000Y-94470000D03*
X165750000Y-88250000D03*
X123770271Y-122400000D03*
X133570000Y-77000000D03*
X123100000Y-78900000D03*
X150650000Y-81280000D03*
X164700000Y-117700000D03*
X162000000Y-89000000D03*
X144750000Y-99500000D03*
X136500000Y-97100000D03*
X143690000Y-77990000D03*
X132840000Y-77760000D03*
X139220000Y-98850000D03*
X192379859Y-100635000D03*
X133410000Y-105040000D03*
X186998861Y-98092476D03*
%TO.N,BTN*%
X122870000Y-89270000D03*
X130350000Y-89750000D03*
%TO.N,BOOT0*%
X119100000Y-91500000D03*
X130500000Y-90700000D03*
%TO.N,VDD*%
X164175500Y-118264764D03*
X165500000Y-112250000D03*
%TO.N,12V_EN*%
X148100000Y-107600000D03*
X161730000Y-117270000D03*
%TO.N,12V_OUT_EN*%
X150300000Y-99100000D03*
X164200000Y-102700000D03*
%TO.N,VBUS{slash}11*%
X123500000Y-106000000D03*
X119260000Y-106000000D03*
%TD*%
%TA.AperFunction,Conductor*%
%TO.N,GND*%
G36*
X189618104Y-67565080D02*
G01*
X189662955Y-67606653D01*
X189682482Y-67664606D01*
X189671935Y-67724844D01*
X189633879Y-67772714D01*
X189570058Y-67821230D01*
X189360161Y-67980789D01*
X189100332Y-68226913D01*
X188868636Y-68499686D01*
X188667786Y-68795919D01*
X188500146Y-69112118D01*
X188367674Y-69444598D01*
X188271930Y-69789440D01*
X188214027Y-70142635D01*
X188194651Y-70499999D01*
X188214027Y-70857364D01*
X188271930Y-71210559D01*
X188367674Y-71555401D01*
X188500146Y-71887881D01*
X188667786Y-72204080D01*
X188667789Y-72204085D01*
X188772793Y-72358955D01*
X188868636Y-72500313D01*
X189100332Y-72773086D01*
X189360161Y-73019210D01*
X189645081Y-73235800D01*
X189951747Y-73420315D01*
X190276565Y-73570591D01*
X190615726Y-73684868D01*
X190965254Y-73761805D01*
X191286151Y-73796704D01*
X191321051Y-73800500D01*
X191321052Y-73800500D01*
X191678948Y-73800500D01*
X191678949Y-73800500D01*
X191710730Y-73797043D01*
X192034746Y-73761805D01*
X192384274Y-73684868D01*
X192723435Y-73570591D01*
X193048253Y-73420315D01*
X193354919Y-73235800D01*
X193639837Y-73019211D01*
X193899668Y-72773086D01*
X194131365Y-72500311D01*
X194272866Y-72291611D01*
X194319804Y-72250411D01*
X194380871Y-72237315D01*
X194440576Y-72255647D01*
X194483771Y-72300756D01*
X194499500Y-72361199D01*
X194499500Y-127638801D01*
X194483771Y-127699244D01*
X194440576Y-127744353D01*
X194380871Y-127762685D01*
X194319804Y-127749589D01*
X194272866Y-127708388D01*
X194266666Y-127699244D01*
X194131365Y-127499689D01*
X194131363Y-127499686D01*
X193912628Y-127242172D01*
X193899668Y-127226914D01*
X193817292Y-127148883D01*
X193639838Y-126980789D01*
X193354918Y-126764199D01*
X193048250Y-126579683D01*
X192723439Y-126429411D01*
X192723440Y-126429411D01*
X192723435Y-126429409D01*
X192384274Y-126315132D01*
X192384273Y-126315131D01*
X192384271Y-126315131D01*
X192083161Y-126248852D01*
X192034746Y-126238195D01*
X191817516Y-126214570D01*
X191678949Y-126199500D01*
X191678948Y-126199500D01*
X191321052Y-126199500D01*
X191321051Y-126199500D01*
X190965254Y-126238195D01*
X190615728Y-126315131D01*
X190502682Y-126353221D01*
X190276565Y-126429409D01*
X190276562Y-126429410D01*
X190276560Y-126429411D01*
X189951749Y-126579683D01*
X189645081Y-126764199D01*
X189360161Y-126980789D01*
X189100332Y-127226913D01*
X188868636Y-127499686D01*
X188667786Y-127795919D01*
X188500146Y-128112118D01*
X188367674Y-128444598D01*
X188271930Y-128789440D01*
X188214027Y-129142635D01*
X188194651Y-129500000D01*
X188214027Y-129857364D01*
X188271930Y-130210559D01*
X188367674Y-130555401D01*
X188500146Y-130887881D01*
X188667786Y-131204080D01*
X188868636Y-131500313D01*
X189100332Y-131773086D01*
X189360161Y-132019210D01*
X189645081Y-132235800D01*
X189700677Y-132269251D01*
X189745018Y-132315057D01*
X189760740Y-132376843D01*
X189743684Y-132438274D01*
X189698359Y-132483110D01*
X189636747Y-132499500D01*
X114363253Y-132499500D01*
X114301641Y-132483110D01*
X114256316Y-132438274D01*
X114239260Y-132376843D01*
X114254982Y-132315057D01*
X114299322Y-132269251D01*
X114354919Y-132235800D01*
X114639837Y-132019211D01*
X114899668Y-131773086D01*
X115131365Y-131500311D01*
X115332211Y-131204085D01*
X115424597Y-131029826D01*
X115499853Y-130887881D01*
X115510680Y-130860706D01*
X118974500Y-130860706D01*
X118979427Y-130909155D01*
X118989155Y-131004823D01*
X119018551Y-131098512D01*
X119047026Y-131189268D01*
X119140841Y-131358291D01*
X119266760Y-131504968D01*
X119266763Y-131504970D01*
X119419624Y-131623295D01*
X119503050Y-131664217D01*
X119593184Y-131708430D01*
X119780326Y-131756885D01*
X119973390Y-131766676D01*
X119973390Y-131766675D01*
X119973391Y-131766676D01*
X120164474Y-131737403D01*
X120164474Y-131737402D01*
X120345753Y-131670264D01*
X120509807Y-131568009D01*
X120649919Y-131434823D01*
X120760353Y-131276158D01*
X120836587Y-131098512D01*
X120875500Y-130909156D01*
X120875500Y-130860706D01*
X127624500Y-130860706D01*
X127629427Y-130909155D01*
X127639155Y-131004823D01*
X127668551Y-131098512D01*
X127697026Y-131189268D01*
X127790841Y-131358291D01*
X127916760Y-131504968D01*
X127916763Y-131504970D01*
X128069624Y-131623295D01*
X128153050Y-131664217D01*
X128243184Y-131708430D01*
X128430326Y-131756885D01*
X128623390Y-131766676D01*
X128623390Y-131766675D01*
X128623391Y-131766676D01*
X128814474Y-131737403D01*
X128814474Y-131737402D01*
X128995753Y-131670264D01*
X129159807Y-131568009D01*
X129299919Y-131434823D01*
X129410353Y-131276158D01*
X129486587Y-131098512D01*
X129525500Y-130909156D01*
X129525500Y-129964294D01*
X129510845Y-129820179D01*
X129452974Y-129635732D01*
X129359159Y-129466709D01*
X129233240Y-129320032D01*
X129224289Y-129313104D01*
X129080375Y-129201704D01*
X128906816Y-129116570D01*
X128906815Y-129116569D01*
X128719674Y-129068115D01*
X128700090Y-129067121D01*
X128526608Y-129058323D01*
X128335525Y-129087596D01*
X128154247Y-129154735D01*
X127990196Y-129256988D01*
X127850079Y-129390178D01*
X127739647Y-129548841D01*
X127663412Y-129726488D01*
X127644160Y-129820176D01*
X127624500Y-129915844D01*
X127624500Y-130860706D01*
X120875500Y-130860706D01*
X120875500Y-129964294D01*
X120860845Y-129820179D01*
X120802974Y-129635732D01*
X120709159Y-129466709D01*
X120583240Y-129320032D01*
X120574289Y-129313104D01*
X120430375Y-129201704D01*
X120256816Y-129116570D01*
X120256815Y-129116569D01*
X120069674Y-129068115D01*
X120050090Y-129067121D01*
X119876608Y-129058323D01*
X119685525Y-129087596D01*
X119504247Y-129154735D01*
X119340196Y-129256988D01*
X119200079Y-129390178D01*
X119089647Y-129548841D01*
X119013412Y-129726488D01*
X118994160Y-129820176D01*
X118974500Y-129915844D01*
X118974500Y-130860706D01*
X115510680Y-130860706D01*
X115632325Y-130555401D01*
X115728069Y-130210559D01*
X115728068Y-130210559D01*
X115728071Y-130210552D01*
X115785972Y-129857371D01*
X115805348Y-129500000D01*
X115785972Y-129142629D01*
X115728071Y-128789448D01*
X115698218Y-128681926D01*
X115632325Y-128444598D01*
X115499853Y-128112118D01*
X115332213Y-127795919D01*
X115332211Y-127795915D01*
X115131365Y-127499689D01*
X115131363Y-127499686D01*
X114912628Y-127242172D01*
X114899668Y-127226914D01*
X114817292Y-127148883D01*
X114639838Y-126980789D01*
X114455559Y-126840704D01*
X118974500Y-126840704D01*
X118989155Y-126984823D01*
X119018551Y-127078512D01*
X119047026Y-127169268D01*
X119079022Y-127226914D01*
X119137994Y-127333163D01*
X119140841Y-127338291D01*
X119266760Y-127484968D01*
X119266763Y-127484970D01*
X119419624Y-127603295D01*
X119484714Y-127635223D01*
X119593184Y-127688430D01*
X119780326Y-127736885D01*
X119973390Y-127746676D01*
X119973390Y-127746675D01*
X119973391Y-127746676D01*
X120164474Y-127717403D01*
X120236287Y-127690806D01*
X120345753Y-127650264D01*
X120509807Y-127548009D01*
X120649919Y-127414823D01*
X120760353Y-127256158D01*
X120791052Y-127184618D01*
X120828080Y-127136263D01*
X120883665Y-127111369D01*
X120944398Y-127115943D01*
X120995627Y-127148883D01*
X121009319Y-127163544D01*
X121043978Y-127184620D01*
X121138618Y-127242172D01*
X121284335Y-127283000D01*
X121397658Y-127283000D01*
X121509920Y-127267570D01*
X121648720Y-127207280D01*
X121756002Y-127120000D01*
X122489908Y-127120000D01*
X122508213Y-127282461D01*
X122562209Y-127436772D01*
X122582759Y-127469477D01*
X122649192Y-127575204D01*
X122764796Y-127690808D01*
X122887312Y-127767790D01*
X122903227Y-127777790D01*
X123057538Y-127831786D01*
X123220000Y-127850091D01*
X123382461Y-127831786D01*
X123536775Y-127777789D01*
X123551984Y-127768231D01*
X123617955Y-127749225D01*
X123669702Y-127764133D01*
X123670038Y-127763175D01*
X123837538Y-127821786D01*
X124000000Y-127840091D01*
X124162461Y-127821786D01*
X124224722Y-127800000D01*
X143705272Y-127800000D01*
X143724163Y-128100259D01*
X143780539Y-128395795D01*
X143852511Y-128617301D01*
X143873509Y-128681926D01*
X143924105Y-128789448D01*
X144001611Y-128954156D01*
X144067718Y-129058323D01*
X144162816Y-129208173D01*
X144255354Y-129320032D01*
X144354589Y-129439987D01*
X144573907Y-129645941D01*
X144817304Y-129822779D01*
X144880227Y-129857371D01*
X145080949Y-129967719D01*
X145220814Y-130023095D01*
X145360679Y-130078472D01*
X145514473Y-130117959D01*
X145652086Y-130153292D01*
X145900113Y-130184625D01*
X145950570Y-130191000D01*
X145950571Y-130191000D01*
X146251429Y-130191000D01*
X146251430Y-130191000D01*
X146294590Y-130185547D01*
X146549914Y-130153292D01*
X146841320Y-130078472D01*
X147121051Y-129967719D01*
X147384695Y-129822779D01*
X147517228Y-129726488D01*
X147628092Y-129645941D01*
X147731493Y-129548841D01*
X147847410Y-129439988D01*
X148039184Y-129208173D01*
X148200392Y-128954150D01*
X148328491Y-128681926D01*
X148332570Y-128669371D01*
X148365615Y-128617301D01*
X148419662Y-128587588D01*
X148481338Y-128587588D01*
X148535385Y-128617301D01*
X148568429Y-128669371D01*
X148572509Y-128681926D01*
X148623105Y-128789448D01*
X148700611Y-128954156D01*
X148766718Y-129058323D01*
X148861816Y-129208173D01*
X148954354Y-129320032D01*
X149053589Y-129439987D01*
X149272907Y-129645941D01*
X149516304Y-129822779D01*
X149579227Y-129857371D01*
X149779949Y-129967719D01*
X149919814Y-130023095D01*
X150059679Y-130078472D01*
X150213473Y-130117959D01*
X150351086Y-130153292D01*
X150599113Y-130184625D01*
X150649570Y-130191000D01*
X150649571Y-130191000D01*
X150950429Y-130191000D01*
X150950430Y-130191000D01*
X150993590Y-130185547D01*
X151248914Y-130153292D01*
X151540320Y-130078472D01*
X151820051Y-129967719D01*
X152083695Y-129822779D01*
X152216228Y-129726488D01*
X152327092Y-129645941D01*
X152430493Y-129548841D01*
X152546410Y-129439988D01*
X152738184Y-129208173D01*
X152899392Y-128954150D01*
X153027491Y-128681926D01*
X153031570Y-128669371D01*
X153064615Y-128617301D01*
X153118662Y-128587588D01*
X153180338Y-128587588D01*
X153234385Y-128617301D01*
X153267429Y-128669371D01*
X153271509Y-128681926D01*
X153322105Y-128789448D01*
X153399611Y-128954156D01*
X153465718Y-129058323D01*
X153560816Y-129208173D01*
X153653354Y-129320032D01*
X153752589Y-129439987D01*
X153971907Y-129645941D01*
X154215304Y-129822779D01*
X154278227Y-129857371D01*
X154478949Y-129967719D01*
X154618814Y-130023095D01*
X154758679Y-130078472D01*
X154912473Y-130117959D01*
X155050086Y-130153292D01*
X155298113Y-130184625D01*
X155348570Y-130191000D01*
X155348571Y-130191000D01*
X155649429Y-130191000D01*
X155649430Y-130191000D01*
X155692590Y-130185547D01*
X155947914Y-130153292D01*
X156239320Y-130078472D01*
X156519051Y-129967719D01*
X156782695Y-129822779D01*
X156915228Y-129726488D01*
X157026092Y-129645941D01*
X157129493Y-129548841D01*
X157245410Y-129439988D01*
X157437184Y-129208173D01*
X157598392Y-128954150D01*
X157726491Y-128681926D01*
X157819461Y-128395793D01*
X157875836Y-128100264D01*
X157894727Y-127800000D01*
X157875836Y-127499736D01*
X157819461Y-127204207D01*
X157726491Y-126918074D01*
X157598392Y-126645850D01*
X157581634Y-126619444D01*
X157505833Y-126500000D01*
X159994389Y-126500000D01*
X160014804Y-126785429D01*
X160075629Y-127065041D01*
X160092398Y-127110000D01*
X160151168Y-127267569D01*
X160175634Y-127333163D01*
X160312772Y-127584313D01*
X160362143Y-127650264D01*
X160484261Y-127813395D01*
X160686605Y-128015739D01*
X160858415Y-128144354D01*
X160915686Y-128187227D01*
X161018860Y-128243564D01*
X161166839Y-128324367D01*
X161434954Y-128424369D01*
X161434957Y-128424369D01*
X161434958Y-128424370D01*
X161487217Y-128435738D01*
X161714572Y-128485196D01*
X162000000Y-128505610D01*
X162285428Y-128485196D01*
X162565046Y-128424369D01*
X162833161Y-128324367D01*
X163084315Y-128187226D01*
X163313395Y-128015739D01*
X163515739Y-127813395D01*
X163687226Y-127584315D01*
X163824367Y-127333161D01*
X163924369Y-127065046D01*
X163985196Y-126785428D01*
X164005610Y-126500000D01*
X171644551Y-126500000D01*
X171664317Y-126751149D01*
X171723126Y-126996110D01*
X171757258Y-127078511D01*
X171819534Y-127228859D01*
X171951164Y-127443659D01*
X172114776Y-127635224D01*
X172306341Y-127798836D01*
X172521141Y-127930466D01*
X172753889Y-128026873D01*
X172998852Y-128085683D01*
X173187118Y-128100500D01*
X173312879Y-128100500D01*
X173312882Y-128100500D01*
X173501148Y-128085683D01*
X173746111Y-128026873D01*
X173978859Y-127930466D01*
X174193659Y-127798836D01*
X174385224Y-127635224D01*
X174548836Y-127443659D01*
X174680466Y-127228859D01*
X174776873Y-126996111D01*
X174835683Y-126751148D01*
X174855449Y-126500000D01*
X182494389Y-126500000D01*
X182514804Y-126785429D01*
X182575629Y-127065041D01*
X182592398Y-127110000D01*
X182651168Y-127267569D01*
X182675634Y-127333163D01*
X182812772Y-127584313D01*
X182862143Y-127650264D01*
X182984261Y-127813395D01*
X183186605Y-128015739D01*
X183358415Y-128144354D01*
X183415686Y-128187227D01*
X183518860Y-128243564D01*
X183666839Y-128324367D01*
X183934954Y-128424369D01*
X183934957Y-128424369D01*
X183934958Y-128424370D01*
X183987217Y-128435738D01*
X184214572Y-128485196D01*
X184500000Y-128505610D01*
X184785428Y-128485196D01*
X185065046Y-128424369D01*
X185333161Y-128324367D01*
X185584315Y-128187226D01*
X185813395Y-128015739D01*
X186015739Y-127813395D01*
X186187226Y-127584315D01*
X186324367Y-127333161D01*
X186424369Y-127065046D01*
X186485196Y-126785428D01*
X186505610Y-126500000D01*
X186485196Y-126214572D01*
X186435738Y-125987217D01*
X186424370Y-125934958D01*
X186365537Y-125777221D01*
X186324367Y-125666839D01*
X186245020Y-125521527D01*
X186187227Y-125415686D01*
X186116263Y-125320890D01*
X186015739Y-125186605D01*
X185813395Y-124984261D01*
X185613653Y-124834736D01*
X185584313Y-124812772D01*
X185333163Y-124675634D01*
X185333162Y-124675633D01*
X185333161Y-124675633D01*
X185065046Y-124575631D01*
X185065041Y-124575629D01*
X184785429Y-124514804D01*
X184500000Y-124494389D01*
X184214570Y-124514804D01*
X183934958Y-124575629D01*
X183666836Y-124675634D01*
X183415686Y-124812772D01*
X183186602Y-124984263D01*
X182984263Y-125186602D01*
X182812772Y-125415686D01*
X182675634Y-125666836D01*
X182575629Y-125934958D01*
X182514804Y-126214570D01*
X182494389Y-126500000D01*
X174855449Y-126500000D01*
X174835683Y-126248852D01*
X174776873Y-126003889D01*
X174680466Y-125771141D01*
X174548836Y-125556341D01*
X174385224Y-125364776D01*
X174193659Y-125201164D01*
X173978859Y-125069534D01*
X173811066Y-125000032D01*
X173746110Y-124973126D01*
X173501149Y-124914317D01*
X173454081Y-124910612D01*
X173312882Y-124899500D01*
X173187118Y-124899500D01*
X173074158Y-124908390D01*
X172998850Y-124914317D01*
X172753889Y-124973126D01*
X172521139Y-125069535D01*
X172306342Y-125201163D01*
X172114776Y-125364776D01*
X171951163Y-125556342D01*
X171819535Y-125771139D01*
X171723126Y-126003889D01*
X171664317Y-126248850D01*
X171644551Y-126500000D01*
X164005610Y-126500000D01*
X163985196Y-126214572D01*
X163935738Y-125987217D01*
X163924370Y-125934958D01*
X163865537Y-125777221D01*
X163824367Y-125666839D01*
X163745020Y-125521527D01*
X163687227Y-125415686D01*
X163616263Y-125320890D01*
X163515739Y-125186605D01*
X163313395Y-124984261D01*
X163113653Y-124834736D01*
X163084313Y-124812772D01*
X162833163Y-124675634D01*
X162833162Y-124675633D01*
X162833161Y-124675633D01*
X162565046Y-124575631D01*
X162565041Y-124575629D01*
X162285429Y-124514804D01*
X162000000Y-124494389D01*
X161714570Y-124514804D01*
X161434958Y-124575629D01*
X161166836Y-124675634D01*
X160915686Y-124812772D01*
X160686602Y-124984263D01*
X160484263Y-125186602D01*
X160312772Y-125415686D01*
X160175634Y-125666836D01*
X160075629Y-125934958D01*
X160014804Y-126214570D01*
X159994389Y-126500000D01*
X157505833Y-126500000D01*
X157437184Y-126391827D01*
X157245410Y-126160012D01*
X157079156Y-126003889D01*
X157026092Y-125954058D01*
X156782695Y-125777220D01*
X156519049Y-125632280D01*
X156239320Y-125521527D01*
X155947916Y-125446708D01*
X155649430Y-125409000D01*
X155649429Y-125409000D01*
X155348571Y-125409000D01*
X155348570Y-125409000D01*
X155050083Y-125446708D01*
X154758679Y-125521527D01*
X154478950Y-125632280D01*
X154215304Y-125777220D01*
X153971907Y-125954058D01*
X153752589Y-126160012D01*
X153560815Y-126391828D01*
X153399611Y-126645843D01*
X153271507Y-126918078D01*
X153267431Y-126930625D01*
X153234384Y-126982699D01*
X153180338Y-127012411D01*
X153118662Y-127012411D01*
X153064616Y-126982699D01*
X153031569Y-126930625D01*
X153027492Y-126918078D01*
X153027491Y-126918074D01*
X152899392Y-126645850D01*
X152882634Y-126619444D01*
X152806833Y-126500000D01*
X152738184Y-126391827D01*
X152546410Y-126160012D01*
X152380156Y-126003889D01*
X152327092Y-125954058D01*
X152083695Y-125777220D01*
X151820049Y-125632280D01*
X151540320Y-125521527D01*
X151248916Y-125446708D01*
X150950430Y-125409000D01*
X150950429Y-125409000D01*
X150649571Y-125409000D01*
X150649570Y-125409000D01*
X150351083Y-125446708D01*
X150059679Y-125521527D01*
X149779950Y-125632280D01*
X149516304Y-125777220D01*
X149272907Y-125954058D01*
X149053589Y-126160012D01*
X148861815Y-126391828D01*
X148700611Y-126645843D01*
X148572507Y-126918078D01*
X148568431Y-126930625D01*
X148535384Y-126982699D01*
X148481338Y-127012411D01*
X148419662Y-127012411D01*
X148365616Y-126982699D01*
X148332569Y-126930625D01*
X148328492Y-126918078D01*
X148328491Y-126918074D01*
X148200392Y-126645850D01*
X148183634Y-126619444D01*
X148107833Y-126500000D01*
X148039184Y-126391827D01*
X147847410Y-126160012D01*
X147681156Y-126003889D01*
X147628092Y-125954058D01*
X147384695Y-125777220D01*
X147121049Y-125632280D01*
X146841320Y-125521527D01*
X146549916Y-125446708D01*
X146251430Y-125409000D01*
X146251429Y-125409000D01*
X145950571Y-125409000D01*
X145950570Y-125409000D01*
X145652083Y-125446708D01*
X145360679Y-125521527D01*
X145080950Y-125632280D01*
X144817304Y-125777220D01*
X144573907Y-125954058D01*
X144354589Y-126160012D01*
X144162815Y-126391828D01*
X144001611Y-126645843D01*
X143873507Y-126918078D01*
X143780539Y-127204204D01*
X143724163Y-127499740D01*
X143705272Y-127800000D01*
X124224722Y-127800000D01*
X124316775Y-127767789D01*
X124455204Y-127680808D01*
X124570808Y-127565204D01*
X124657789Y-127426775D01*
X124711786Y-127272461D01*
X124730091Y-127110000D01*
X124717259Y-126996110D01*
X124711786Y-126947538D01*
X124657790Y-126793227D01*
X124643461Y-126770422D01*
X126585618Y-126770422D01*
X126616407Y-126918583D01*
X126616407Y-126918584D01*
X126616408Y-126918585D01*
X126686029Y-127052947D01*
X126775628Y-127148883D01*
X126789321Y-127163545D01*
X126823978Y-127184620D01*
X126918618Y-127242172D01*
X127064335Y-127283000D01*
X127177658Y-127283000D01*
X127289920Y-127267570D01*
X127428720Y-127207280D01*
X127513265Y-127138497D01*
X127561296Y-127114426D01*
X127615004Y-127112932D01*
X127664303Y-127134297D01*
X127699934Y-127174508D01*
X127729022Y-127226914D01*
X127787994Y-127333163D01*
X127790841Y-127338291D01*
X127916760Y-127484968D01*
X127916763Y-127484970D01*
X128069624Y-127603295D01*
X128134714Y-127635223D01*
X128243184Y-127688430D01*
X128430326Y-127736885D01*
X128623390Y-127746676D01*
X128623390Y-127746675D01*
X128623391Y-127746676D01*
X128814474Y-127717403D01*
X128886287Y-127690806D01*
X128995753Y-127650264D01*
X129159807Y-127548009D01*
X129299919Y-127414823D01*
X129410353Y-127256158D01*
X129486587Y-127078512D01*
X129525500Y-126889156D01*
X129525500Y-125644294D01*
X129510845Y-125500179D01*
X129452974Y-125315732D01*
X129359159Y-125146709D01*
X129233240Y-125000032D01*
X129212866Y-124984261D01*
X129080375Y-124881704D01*
X128906816Y-124796570D01*
X128719674Y-124748115D01*
X128700090Y-124747121D01*
X128526608Y-124738323D01*
X128335525Y-124767596D01*
X128154247Y-124834735D01*
X127990196Y-124936988D01*
X127850079Y-125070178D01*
X127739647Y-125228841D01*
X127663412Y-125406488D01*
X127624500Y-125595845D01*
X127624500Y-126162300D01*
X127607533Y-126224910D01*
X127561274Y-126270386D01*
X127498383Y-126286282D01*
X127436072Y-126268248D01*
X127418758Y-126257719D01*
X127361382Y-126222828D01*
X127215665Y-126182000D01*
X127102342Y-126182000D01*
X126990079Y-126197430D01*
X126851280Y-126257719D01*
X126733892Y-126353221D01*
X126646621Y-126476854D01*
X126595946Y-126619442D01*
X126585618Y-126770422D01*
X124643461Y-126770422D01*
X124639551Y-126764200D01*
X124570808Y-126654796D01*
X124455204Y-126539192D01*
X124316775Y-126452211D01*
X124316772Y-126452209D01*
X124162461Y-126398213D01*
X124000000Y-126379908D01*
X123837538Y-126398213D01*
X123683226Y-126452210D01*
X123668011Y-126461770D01*
X123602042Y-126480774D01*
X123550297Y-126465867D01*
X123549962Y-126466825D01*
X123382461Y-126408213D01*
X123220000Y-126389908D01*
X123057538Y-126408213D01*
X122903227Y-126462209D01*
X122764794Y-126549193D01*
X122649193Y-126664794D01*
X122562209Y-126803227D01*
X122508213Y-126957538D01*
X122489908Y-127120000D01*
X121756002Y-127120000D01*
X121766108Y-127111778D01*
X121853377Y-126988147D01*
X121854559Y-126984823D01*
X121878100Y-126918583D01*
X121904054Y-126845556D01*
X121914381Y-126694579D01*
X121904253Y-126645843D01*
X121883592Y-126546416D01*
X121883592Y-126546415D01*
X121813971Y-126412053D01*
X121710680Y-126301456D01*
X121710679Y-126301455D01*
X121710678Y-126301454D01*
X121606652Y-126238195D01*
X121581382Y-126222828D01*
X121435665Y-126182000D01*
X121322342Y-126182000D01*
X121210079Y-126197430D01*
X121055648Y-126264510D01*
X121054665Y-126262248D01*
X121014283Y-126279380D01*
X120946243Y-126268245D01*
X120894667Y-126222491D01*
X120875500Y-126156264D01*
X120875500Y-125644296D01*
X120866556Y-125556341D01*
X120860845Y-125500179D01*
X120802974Y-125315732D01*
X120709159Y-125146709D01*
X120583240Y-125000032D01*
X120562866Y-124984261D01*
X120430375Y-124881704D01*
X120256816Y-124796570D01*
X120069674Y-124748115D01*
X120050090Y-124747121D01*
X119876608Y-124738323D01*
X119685525Y-124767596D01*
X119504247Y-124834735D01*
X119340196Y-124936988D01*
X119200079Y-125070178D01*
X119089647Y-125228841D01*
X119013412Y-125406488D01*
X118974500Y-125595845D01*
X118974500Y-126840704D01*
X114455559Y-126840704D01*
X114354918Y-126764199D01*
X114048250Y-126579683D01*
X113723439Y-126429411D01*
X113723440Y-126429411D01*
X113723435Y-126429409D01*
X113384274Y-126315132D01*
X113384273Y-126315131D01*
X113384271Y-126315131D01*
X113083161Y-126248852D01*
X113034746Y-126238195D01*
X112817516Y-126214570D01*
X112678949Y-126199500D01*
X112678948Y-126199500D01*
X112321052Y-126199500D01*
X112321051Y-126199500D01*
X111965254Y-126238195D01*
X111615728Y-126315131D01*
X111502682Y-126353221D01*
X111276565Y-126429409D01*
X111276562Y-126429410D01*
X111276560Y-126429411D01*
X110951749Y-126579683D01*
X110645081Y-126764199D01*
X110360161Y-126980789D01*
X110100332Y-127226913D01*
X109868636Y-127499686D01*
X109776741Y-127635223D01*
X109733334Y-127699244D01*
X109727134Y-127708388D01*
X109680196Y-127749589D01*
X109619129Y-127762685D01*
X109559424Y-127744353D01*
X109516229Y-127699244D01*
X109500500Y-127638801D01*
X109500500Y-124660544D01*
X121120062Y-124660544D01*
X121138367Y-124823005D01*
X121192363Y-124977316D01*
X121192365Y-124977319D01*
X121279346Y-125115748D01*
X121394950Y-125231352D01*
X121529240Y-125315732D01*
X121533381Y-125318334D01*
X121687692Y-125372330D01*
X121850154Y-125390635D01*
X122012615Y-125372330D01*
X122166929Y-125318333D01*
X122305358Y-125231352D01*
X122420962Y-125115748D01*
X122507943Y-124977319D01*
X122561940Y-124823005D01*
X122579957Y-124663099D01*
X125926192Y-124663099D01*
X125944497Y-124825561D01*
X125998493Y-124979872D01*
X126019043Y-125012577D01*
X126085476Y-125118304D01*
X126201080Y-125233908D01*
X126335443Y-125318334D01*
X126339511Y-125320890D01*
X126493822Y-125374886D01*
X126656284Y-125393191D01*
X126818745Y-125374886D01*
X126973059Y-125320889D01*
X127111488Y-125233908D01*
X127227092Y-125118304D01*
X127314073Y-124979875D01*
X127368070Y-124825561D01*
X127386375Y-124663100D01*
X127368070Y-124500639D01*
X127367175Y-124498082D01*
X127314074Y-124346327D01*
X127312467Y-124343769D01*
X127227092Y-124207896D01*
X127111488Y-124092292D01*
X126973059Y-124005311D01*
X126973056Y-124005309D01*
X126818745Y-123951313D01*
X126656284Y-123933008D01*
X126493822Y-123951313D01*
X126339511Y-124005309D01*
X126201078Y-124092293D01*
X126085477Y-124207894D01*
X125998493Y-124346327D01*
X125944497Y-124500638D01*
X125926192Y-124663099D01*
X122579957Y-124663099D01*
X122580245Y-124660544D01*
X122561940Y-124498083D01*
X122560647Y-124494389D01*
X122507944Y-124343771D01*
X122507943Y-124343769D01*
X122420962Y-124205340D01*
X122305358Y-124089736D01*
X122166929Y-124002755D01*
X122166926Y-124002753D01*
X122012615Y-123948757D01*
X121850154Y-123930452D01*
X121687692Y-123948757D01*
X121533381Y-124002753D01*
X121394948Y-124089737D01*
X121279347Y-124205338D01*
X121192363Y-124343771D01*
X121138367Y-124498082D01*
X121120062Y-124660544D01*
X109500500Y-124660544D01*
X109500500Y-122949838D01*
X112500899Y-122949838D01*
X112519204Y-123112300D01*
X112573200Y-123266611D01*
X112573202Y-123266614D01*
X112660183Y-123405043D01*
X112775787Y-123520647D01*
X112914216Y-123607628D01*
X112914218Y-123607629D01*
X113068529Y-123661625D01*
X113230991Y-123679930D01*
X113393452Y-123661625D01*
X113547766Y-123607628D01*
X113686195Y-123520647D01*
X113801799Y-123405043D01*
X113888780Y-123266614D01*
X113942777Y-123112300D01*
X113961082Y-122949839D01*
X113942777Y-122787378D01*
X113888780Y-122633064D01*
X113801799Y-122494635D01*
X113707163Y-122399999D01*
X123040179Y-122399999D01*
X123058484Y-122562461D01*
X123112480Y-122716772D01*
X123112482Y-122716775D01*
X123199463Y-122855204D01*
X123315067Y-122970808D01*
X123453496Y-123057789D01*
X123453498Y-123057790D01*
X123607809Y-123111786D01*
X123770271Y-123130091D01*
X123932732Y-123111786D01*
X124087046Y-123057789D01*
X124225475Y-122970808D01*
X124341079Y-122855204D01*
X124428060Y-122716775D01*
X124482057Y-122562461D01*
X124500362Y-122400000D01*
X124482057Y-122237539D01*
X124475831Y-122219747D01*
X124428061Y-122083227D01*
X124428060Y-122083225D01*
X124341079Y-121944796D01*
X124225475Y-121829192D01*
X124087046Y-121742211D01*
X124087043Y-121742209D01*
X123932732Y-121688213D01*
X123770271Y-121669908D01*
X123607809Y-121688213D01*
X123453498Y-121742209D01*
X123315065Y-121829193D01*
X123199464Y-121944794D01*
X123112480Y-122083227D01*
X123058484Y-122237538D01*
X123040179Y-122399999D01*
X113707163Y-122399999D01*
X113686195Y-122379031D01*
X113547766Y-122292050D01*
X113547763Y-122292048D01*
X113393452Y-122238052D01*
X113230991Y-122219747D01*
X113068529Y-122238052D01*
X112914218Y-122292048D01*
X112775785Y-122379032D01*
X112660184Y-122494633D01*
X112573200Y-122633066D01*
X112519204Y-122787377D01*
X112500899Y-122949838D01*
X109500500Y-122949838D01*
X109500500Y-120375316D01*
X149179908Y-120375316D01*
X149198213Y-120537777D01*
X149252209Y-120692088D01*
X149272759Y-120724793D01*
X149339192Y-120830520D01*
X149454796Y-120946124D01*
X149593225Y-121033105D01*
X149593227Y-121033106D01*
X149747538Y-121087102D01*
X149910000Y-121105407D01*
X150072461Y-121087102D01*
X150226775Y-121033105D01*
X150365204Y-120946124D01*
X150456813Y-120854515D01*
X150512400Y-120822421D01*
X150576587Y-120822421D01*
X150632175Y-120854514D01*
X150724796Y-120947135D01*
X150861616Y-121033105D01*
X150863227Y-121034117D01*
X151017538Y-121088113D01*
X151180000Y-121106418D01*
X151342461Y-121088113D01*
X151496775Y-121034116D01*
X151635204Y-120947135D01*
X151750808Y-120831531D01*
X151828510Y-120707869D01*
X191249500Y-120707869D01*
X191255909Y-120767484D01*
X191279420Y-120830520D01*
X191306204Y-120902331D01*
X191392454Y-121017546D01*
X191507669Y-121103796D01*
X191642517Y-121154091D01*
X191702127Y-121160500D01*
X193797872Y-121160499D01*
X193857483Y-121154091D01*
X193992331Y-121103796D01*
X194107546Y-121017546D01*
X194193796Y-120902331D01*
X194244091Y-120767483D01*
X194250500Y-120707873D01*
X194250499Y-119712128D01*
X194244091Y-119652517D01*
X194193796Y-119517669D01*
X194107546Y-119402454D01*
X193992331Y-119316204D01*
X193857483Y-119265909D01*
X193797873Y-119259500D01*
X193797869Y-119259500D01*
X191702130Y-119259500D01*
X191642515Y-119265909D01*
X191507669Y-119316204D01*
X191392454Y-119402454D01*
X191306204Y-119517668D01*
X191255909Y-119652516D01*
X191249500Y-119712130D01*
X191249500Y-120707869D01*
X151828510Y-120707869D01*
X151837789Y-120693102D01*
X151891786Y-120538788D01*
X151910091Y-120376327D01*
X151891786Y-120213866D01*
X151891432Y-120212855D01*
X151837790Y-120059554D01*
X151837155Y-120058543D01*
X151750808Y-119921123D01*
X151635204Y-119805519D01*
X151496775Y-119718538D01*
X151496772Y-119718536D01*
X151342461Y-119664540D01*
X151179999Y-119646235D01*
X151017538Y-119664540D01*
X150863227Y-119718536D01*
X150724796Y-119805519D01*
X150633186Y-119897129D01*
X150577598Y-119929222D01*
X150513411Y-119929222D01*
X150457824Y-119897128D01*
X150365205Y-119804509D01*
X150365204Y-119804508D01*
X150226775Y-119717527D01*
X150226772Y-119717525D01*
X150072461Y-119663529D01*
X149910000Y-119645224D01*
X149747538Y-119663529D01*
X149593227Y-119717525D01*
X149454794Y-119804509D01*
X149339193Y-119920110D01*
X149252209Y-120058543D01*
X149198213Y-120212854D01*
X149179908Y-120375316D01*
X109500500Y-120375316D01*
X109500500Y-118258176D01*
X122559908Y-118258176D01*
X122578213Y-118420637D01*
X122632209Y-118574948D01*
X122652759Y-118607653D01*
X122719192Y-118713380D01*
X122834796Y-118828984D01*
X122973225Y-118915965D01*
X122973227Y-118915966D01*
X123127538Y-118969962D01*
X123290000Y-118988267D01*
X123452461Y-118969962D01*
X123606775Y-118915965D01*
X123745204Y-118828984D01*
X123860808Y-118713380D01*
X123947789Y-118574951D01*
X124001786Y-118420637D01*
X124019349Y-118264764D01*
X163445408Y-118264764D01*
X163463713Y-118427225D01*
X163517709Y-118581536D01*
X163517711Y-118581539D01*
X163604692Y-118719968D01*
X163720296Y-118835572D01*
X163848242Y-118915966D01*
X163858727Y-118922554D01*
X164013038Y-118976550D01*
X164175500Y-118994855D01*
X164337961Y-118976550D01*
X164492275Y-118922553D01*
X164630704Y-118835572D01*
X164746308Y-118719968D01*
X164833289Y-118581539D01*
X164877184Y-118456092D01*
X164906543Y-118409369D01*
X164953267Y-118380010D01*
X165016775Y-118357789D01*
X165155204Y-118270808D01*
X165270808Y-118155204D01*
X165357789Y-118016775D01*
X165401548Y-117891717D01*
X165441276Y-117835727D01*
X165504705Y-117809454D01*
X165572390Y-117820954D01*
X165623581Y-117866700D01*
X165679192Y-117955204D01*
X165794796Y-118070808D01*
X165929111Y-118155204D01*
X165933227Y-118157790D01*
X166087538Y-118211786D01*
X166250000Y-118230091D01*
X166412461Y-118211786D01*
X166566775Y-118157789D01*
X166705204Y-118070808D01*
X166820808Y-117955204D01*
X166907789Y-117816775D01*
X166961786Y-117662461D01*
X166967375Y-117612849D01*
X166985602Y-117560760D01*
X167024624Y-117521738D01*
X167076712Y-117503512D01*
X167131551Y-117509691D01*
X167137538Y-117511786D01*
X167300000Y-117530091D01*
X167462461Y-117511786D01*
X167616775Y-117457789D01*
X167755204Y-117370808D01*
X167870808Y-117255204D01*
X167957789Y-117116775D01*
X167977656Y-117060000D01*
X184194456Y-117060000D01*
X184214607Y-117380289D01*
X184274744Y-117695541D01*
X184373699Y-118000091D01*
X184373916Y-118000758D01*
X184510561Y-118291142D01*
X184510563Y-118291146D01*
X184682521Y-118562110D01*
X184887088Y-118809389D01*
X185121037Y-119029082D01*
X185380671Y-119217716D01*
X185559821Y-119316204D01*
X185661903Y-119372324D01*
X185960294Y-119490466D01*
X186271139Y-119570277D01*
X186535713Y-119603700D01*
X186589535Y-119610500D01*
X186589536Y-119610500D01*
X186910464Y-119610500D01*
X186910465Y-119610500D01*
X186956504Y-119604683D01*
X187228861Y-119570277D01*
X187539706Y-119490466D01*
X187838097Y-119372324D01*
X188119328Y-119217716D01*
X188119328Y-119217715D01*
X188378962Y-119029082D01*
X188434903Y-118976550D01*
X188612911Y-118809390D01*
X188817478Y-118562110D01*
X188989439Y-118291142D01*
X189073876Y-118111702D01*
X189119632Y-118059802D01*
X189186075Y-118040499D01*
X192047870Y-118040499D01*
X192047872Y-118040499D01*
X192107483Y-118034091D01*
X192242331Y-117983796D01*
X192357546Y-117897546D01*
X192443796Y-117782331D01*
X192494091Y-117647483D01*
X192500500Y-117587873D01*
X192500499Y-114492128D01*
X192494091Y-114432517D01*
X192443796Y-114297669D01*
X192357546Y-114182454D01*
X192242331Y-114096204D01*
X192107483Y-114045909D01*
X192047873Y-114039500D01*
X192047869Y-114039500D01*
X188952130Y-114039500D01*
X188892515Y-114045909D01*
X188757669Y-114096204D01*
X188642454Y-114182454D01*
X188556204Y-114297668D01*
X188505909Y-114432516D01*
X188499500Y-114492131D01*
X188499500Y-114935130D01*
X188481227Y-114999920D01*
X188431795Y-115045615D01*
X188365771Y-115058748D01*
X188302615Y-115035448D01*
X188119328Y-114902283D01*
X187838098Y-114747676D01*
X187539703Y-114629533D01*
X187228863Y-114549723D01*
X186910465Y-114509500D01*
X186910464Y-114509500D01*
X186589536Y-114509500D01*
X186589535Y-114509500D01*
X186271136Y-114549723D01*
X185960296Y-114629533D01*
X185661901Y-114747676D01*
X185380671Y-114902283D01*
X185121037Y-115090917D01*
X184887088Y-115310610D01*
X184682521Y-115557889D01*
X184510563Y-115828853D01*
X184373914Y-116119246D01*
X184274744Y-116424458D01*
X184214607Y-116739710D01*
X184194456Y-117060000D01*
X167977656Y-117060000D01*
X168011786Y-116962461D01*
X168030091Y-116800000D01*
X168023298Y-116739710D01*
X168011786Y-116637538D01*
X167957790Y-116483227D01*
X167944318Y-116461786D01*
X167870808Y-116344796D01*
X167755204Y-116229192D01*
X167616775Y-116142211D01*
X167616772Y-116142209D01*
X167462461Y-116088213D01*
X167300000Y-116069908D01*
X167137538Y-116088213D01*
X166983227Y-116142209D01*
X166844794Y-116229193D01*
X166729193Y-116344794D01*
X166642209Y-116483227D01*
X166588213Y-116637539D01*
X166582623Y-116687152D01*
X166564397Y-116739239D01*
X166525376Y-116778260D01*
X166473289Y-116796487D01*
X166418452Y-116790310D01*
X166412460Y-116788213D01*
X166321540Y-116777969D01*
X166269452Y-116759743D01*
X166230430Y-116720721D01*
X166212204Y-116668633D01*
X166194658Y-116512910D01*
X166140662Y-116358599D01*
X166131988Y-116344794D01*
X166053680Y-116220168D01*
X165938076Y-116104564D01*
X165799647Y-116017583D01*
X165799644Y-116017581D01*
X165645333Y-115963585D01*
X165482872Y-115945280D01*
X165320410Y-115963585D01*
X165166099Y-116017581D01*
X165027666Y-116104565D01*
X164912065Y-116220166D01*
X164825081Y-116358599D01*
X164771085Y-116512910D01*
X164752780Y-116675372D01*
X164771005Y-116837124D01*
X164761439Y-116900594D01*
X164721419Y-116950777D01*
X164661669Y-116974227D01*
X164537539Y-116988213D01*
X164383227Y-117042209D01*
X164244794Y-117129193D01*
X164129193Y-117244794D01*
X164042209Y-117383227D01*
X163998316Y-117508666D01*
X163968956Y-117555392D01*
X163922231Y-117584752D01*
X163858724Y-117606974D01*
X163720295Y-117693956D01*
X163604693Y-117809558D01*
X163517709Y-117947991D01*
X163463713Y-118102302D01*
X163445408Y-118264764D01*
X124019349Y-118264764D01*
X124020091Y-118258176D01*
X124001786Y-118095715D01*
X123959239Y-117974125D01*
X123952282Y-117933176D01*
X123959241Y-117892222D01*
X124001786Y-117770637D01*
X124020091Y-117608176D01*
X124017803Y-117587873D01*
X124001786Y-117445714D01*
X123947790Y-117291403D01*
X123947789Y-117291401D01*
X123934341Y-117269999D01*
X160999908Y-117269999D01*
X161018213Y-117432461D01*
X161072209Y-117586772D01*
X161072211Y-117586775D01*
X161159192Y-117725204D01*
X161274796Y-117840808D01*
X161413225Y-117927789D01*
X161413227Y-117927790D01*
X161567538Y-117981786D01*
X161730000Y-118000091D01*
X161892461Y-117981786D01*
X162046775Y-117927789D01*
X162185204Y-117840808D01*
X162300808Y-117725204D01*
X162387789Y-117586775D01*
X162441786Y-117432461D01*
X162460091Y-117270000D01*
X162441786Y-117107539D01*
X162425151Y-117060000D01*
X162387790Y-116953227D01*
X162386251Y-116950777D01*
X162300808Y-116814796D01*
X162185204Y-116699192D01*
X162046775Y-116612211D01*
X162046772Y-116612209D01*
X161892461Y-116558213D01*
X161730000Y-116539908D01*
X161567538Y-116558213D01*
X161413227Y-116612209D01*
X161274794Y-116699193D01*
X161159193Y-116814794D01*
X161072209Y-116953227D01*
X161018213Y-117107538D01*
X160999908Y-117269999D01*
X123934341Y-117269999D01*
X123860808Y-117152972D01*
X123745204Y-117037368D01*
X123606775Y-116950387D01*
X123606772Y-116950385D01*
X123452461Y-116896389D01*
X123290000Y-116878084D01*
X123127538Y-116896389D01*
X122973227Y-116950385D01*
X122834794Y-117037369D01*
X122719193Y-117152970D01*
X122632209Y-117291403D01*
X122578213Y-117445714D01*
X122559908Y-117608176D01*
X122578213Y-117770634D01*
X122620758Y-117892222D01*
X122627716Y-117933176D01*
X122620758Y-117974130D01*
X122578213Y-118095717D01*
X122559908Y-118258176D01*
X109500500Y-118258176D01*
X109500500Y-115750000D01*
X168769908Y-115750000D01*
X168788213Y-115912461D01*
X168842209Y-116066772D01*
X168844180Y-116069909D01*
X168929192Y-116205204D01*
X169044796Y-116320808D01*
X169183225Y-116407789D01*
X169183227Y-116407790D01*
X169337538Y-116461786D01*
X169500000Y-116480091D01*
X169662461Y-116461786D01*
X169816775Y-116407789D01*
X169955204Y-116320808D01*
X170070808Y-116205204D01*
X170157789Y-116066775D01*
X170211786Y-115912461D01*
X170230091Y-115750000D01*
X170211786Y-115587539D01*
X170201411Y-115557890D01*
X170157790Y-115433227D01*
X170157789Y-115433225D01*
X170070808Y-115294796D01*
X169955204Y-115179192D01*
X169816775Y-115092211D01*
X169816772Y-115092209D01*
X169662461Y-115038213D01*
X169499999Y-115019908D01*
X169337538Y-115038213D01*
X169183227Y-115092209D01*
X169044794Y-115179193D01*
X168929193Y-115294794D01*
X168842209Y-115433227D01*
X168788213Y-115587538D01*
X168769908Y-115750000D01*
X109500500Y-115750000D01*
X109500500Y-112250000D01*
X145269908Y-112250000D01*
X145288213Y-112412461D01*
X145342209Y-112566772D01*
X145342211Y-112566775D01*
X145429192Y-112705204D01*
X145544796Y-112820808D01*
X145683225Y-112907789D01*
X145683227Y-112907790D01*
X145837538Y-112961786D01*
X146000000Y-112980091D01*
X146162461Y-112961786D01*
X146316775Y-112907789D01*
X146455204Y-112820808D01*
X146570808Y-112705204D01*
X146657789Y-112566775D01*
X146711786Y-112412461D01*
X146730091Y-112250000D01*
X164769908Y-112250000D01*
X164788213Y-112412461D01*
X164842209Y-112566772D01*
X164842211Y-112566775D01*
X164929192Y-112705204D01*
X165044796Y-112820808D01*
X165183225Y-112907789D01*
X165183227Y-112907790D01*
X165337538Y-112961786D01*
X165500000Y-112980091D01*
X165662461Y-112961786D01*
X165816775Y-112907789D01*
X165955204Y-112820808D01*
X166070808Y-112705204D01*
X166157789Y-112566775D01*
X166211786Y-112412461D01*
X166230091Y-112250000D01*
X169269908Y-112250000D01*
X169288213Y-112412461D01*
X169342209Y-112566772D01*
X169342211Y-112566775D01*
X169429192Y-112705204D01*
X169544796Y-112820808D01*
X169683225Y-112907789D01*
X169683227Y-112907790D01*
X169837538Y-112961786D01*
X170000000Y-112980091D01*
X170162461Y-112961786D01*
X170316775Y-112907789D01*
X170455204Y-112820808D01*
X170570808Y-112705204D01*
X170584347Y-112683657D01*
X189483448Y-112683657D01*
X189667045Y-112783909D01*
X189935100Y-112883889D01*
X190214642Y-112944699D01*
X190500000Y-112965109D01*
X190785357Y-112944699D01*
X191064899Y-112883889D01*
X191332954Y-112783909D01*
X191516550Y-112683658D01*
X191516550Y-112683657D01*
X190500000Y-111667107D01*
X189483448Y-112683657D01*
X170584347Y-112683657D01*
X170657789Y-112566775D01*
X170711786Y-112412461D01*
X170730091Y-112250000D01*
X170711786Y-112087539D01*
X170707348Y-112074857D01*
X170657790Y-111933227D01*
X170644318Y-111911786D01*
X170570808Y-111794796D01*
X170455204Y-111679192D01*
X170316775Y-111592211D01*
X170316772Y-111592209D01*
X170162461Y-111538213D01*
X170000000Y-111519908D01*
X169837538Y-111538213D01*
X169683227Y-111592209D01*
X169544794Y-111679193D01*
X169429193Y-111794794D01*
X169342209Y-111933227D01*
X169288213Y-112087538D01*
X169269908Y-112250000D01*
X166230091Y-112250000D01*
X166211786Y-112087539D01*
X166207348Y-112074857D01*
X166157790Y-111933227D01*
X166144318Y-111911786D01*
X166070808Y-111794796D01*
X165955204Y-111679192D01*
X165816775Y-111592211D01*
X165816772Y-111592209D01*
X165662461Y-111538213D01*
X165500000Y-111519908D01*
X165337538Y-111538213D01*
X165183227Y-111592209D01*
X165044794Y-111679193D01*
X164929193Y-111794794D01*
X164842209Y-111933227D01*
X164788213Y-112087538D01*
X164769908Y-112250000D01*
X146730091Y-112250000D01*
X146711786Y-112087539D01*
X146707348Y-112074857D01*
X146657790Y-111933227D01*
X146644318Y-111911786D01*
X146570808Y-111794796D01*
X146455204Y-111679192D01*
X146316775Y-111592211D01*
X146316772Y-111592209D01*
X146162461Y-111538213D01*
X146000000Y-111519908D01*
X145837538Y-111538213D01*
X145683227Y-111592209D01*
X145544794Y-111679193D01*
X145429193Y-111794794D01*
X145342209Y-111933227D01*
X145288213Y-112087538D01*
X145269908Y-112250000D01*
X109500500Y-112250000D01*
X109500500Y-111200000D01*
X150269908Y-111200000D01*
X150288213Y-111362461D01*
X150342209Y-111516772D01*
X150344180Y-111519909D01*
X150429192Y-111655204D01*
X150544796Y-111770808D01*
X150683225Y-111857789D01*
X150683227Y-111857790D01*
X150837538Y-111911786D01*
X151000000Y-111930091D01*
X151162461Y-111911786D01*
X151316775Y-111857789D01*
X151455204Y-111770808D01*
X151570808Y-111655204D01*
X151657789Y-111516775D01*
X151711786Y-111362461D01*
X151730091Y-111200000D01*
X151711786Y-111037539D01*
X151684654Y-110960001D01*
X151657790Y-110883227D01*
X151657789Y-110883225D01*
X151570808Y-110744796D01*
X151455204Y-110629192D01*
X151316775Y-110542211D01*
X151316772Y-110542209D01*
X151162461Y-110488213D01*
X151000000Y-110469908D01*
X150837538Y-110488213D01*
X150683227Y-110542209D01*
X150544794Y-110629193D01*
X150429193Y-110744794D01*
X150342209Y-110883227D01*
X150288213Y-111037538D01*
X150269908Y-111200000D01*
X109500500Y-111200000D01*
X109500500Y-110360000D01*
X184200000Y-110360000D01*
X184200000Y-110955267D01*
X184210216Y-111099963D01*
X184264313Y-111340167D01*
X184356243Y-111568582D01*
X184483624Y-111779295D01*
X184643153Y-111966846D01*
X184830704Y-112126375D01*
X185041417Y-112253756D01*
X185269832Y-112345686D01*
X185510036Y-112399783D01*
X185654733Y-112410000D01*
X186250000Y-112410000D01*
X186250000Y-110360000D01*
X187250000Y-110360000D01*
X187250000Y-112410000D01*
X187845267Y-112410000D01*
X187989963Y-112399783D01*
X188230167Y-112345686D01*
X188458582Y-112253756D01*
X188669296Y-112126375D01*
X188729861Y-112074857D01*
X188730086Y-112069277D01*
X188740403Y-112024519D01*
X188766305Y-111986587D01*
X189792892Y-110960001D01*
X191207107Y-110960001D01*
X192223657Y-111976550D01*
X192223658Y-111976550D01*
X192323909Y-111792954D01*
X192423889Y-111524899D01*
X192484699Y-111245357D01*
X192505109Y-110959999D01*
X192484699Y-110674642D01*
X192423889Y-110395100D01*
X192323909Y-110127045D01*
X192223657Y-109943448D01*
X191207107Y-110960000D01*
X191207107Y-110960001D01*
X189792892Y-110960001D01*
X189792893Y-110960000D01*
X189192893Y-110360000D01*
X187250000Y-110360000D01*
X186250000Y-110360000D01*
X184200000Y-110360000D01*
X109500500Y-110360000D01*
X109500500Y-109360000D01*
X184200000Y-109360000D01*
X186250000Y-109360000D01*
X186250000Y-107310000D01*
X187250000Y-107310000D01*
X187250000Y-109360000D01*
X189215003Y-109360000D01*
X189317441Y-109257564D01*
X189317560Y-109257683D01*
X189329930Y-109241003D01*
X189336619Y-109237839D01*
X189477372Y-109237839D01*
X189496279Y-109249172D01*
X190500000Y-110252893D01*
X190500001Y-110252893D01*
X191516550Y-109236341D01*
X191516550Y-109236340D01*
X191332952Y-109136088D01*
X191064902Y-109036111D01*
X190785357Y-108975300D01*
X190500000Y-108954890D01*
X190214642Y-108975300D01*
X189935097Y-109036111D01*
X189667043Y-109136090D01*
X189483426Y-109236352D01*
X189477372Y-109237839D01*
X189336619Y-109237839D01*
X189355544Y-109228887D01*
X189316246Y-109188880D01*
X189300000Y-109127520D01*
X189300000Y-108764733D01*
X189289783Y-108620036D01*
X189235686Y-108379832D01*
X189143756Y-108151417D01*
X189016375Y-107940704D01*
X188856846Y-107753153D01*
X188669295Y-107593624D01*
X188458582Y-107466243D01*
X188230167Y-107374313D01*
X187989963Y-107320216D01*
X187845267Y-107310000D01*
X187250000Y-107310000D01*
X186250000Y-107310000D01*
X185654733Y-107310000D01*
X185510036Y-107320216D01*
X185269832Y-107374313D01*
X185041417Y-107466243D01*
X184830704Y-107593624D01*
X184643153Y-107753153D01*
X184483624Y-107940704D01*
X184356243Y-108151417D01*
X184264313Y-108379832D01*
X184210216Y-108620036D01*
X184200000Y-108764733D01*
X184200000Y-109360000D01*
X109500500Y-109360000D01*
X109500500Y-107599999D01*
X147369908Y-107599999D01*
X147388213Y-107762461D01*
X147442209Y-107916772D01*
X147442211Y-107916775D01*
X147529192Y-108055204D01*
X147644796Y-108170808D01*
X147783225Y-108257789D01*
X147783227Y-108257790D01*
X147937538Y-108311786D01*
X148099999Y-108330091D01*
X148099999Y-108330090D01*
X148100000Y-108330091D01*
X148262461Y-108311786D01*
X148416775Y-108257789D01*
X148555204Y-108170808D01*
X148670808Y-108055204D01*
X148757789Y-107916775D01*
X148811786Y-107762461D01*
X148830091Y-107600000D01*
X148811786Y-107437539D01*
X148789662Y-107374313D01*
X148757790Y-107283227D01*
X148747898Y-107267484D01*
X148710439Y-107207869D01*
X191249500Y-107207869D01*
X191255909Y-107267483D01*
X191306204Y-107402331D01*
X191392454Y-107517546D01*
X191507669Y-107603796D01*
X191642517Y-107654091D01*
X191702127Y-107660500D01*
X193797872Y-107660499D01*
X193857483Y-107654091D01*
X193992331Y-107603796D01*
X194107546Y-107517546D01*
X194193796Y-107402331D01*
X194244091Y-107267483D01*
X194250500Y-107207873D01*
X194250499Y-106212128D01*
X194244091Y-106152517D01*
X194193796Y-106017669D01*
X194107546Y-105902454D01*
X193992331Y-105816204D01*
X193857483Y-105765909D01*
X193797873Y-105759500D01*
X193797869Y-105759500D01*
X191702130Y-105759500D01*
X191642515Y-105765909D01*
X191507669Y-105816204D01*
X191392454Y-105902454D01*
X191306204Y-106017668D01*
X191255909Y-106152516D01*
X191249500Y-106212130D01*
X191249500Y-107207869D01*
X148710439Y-107207869D01*
X148670808Y-107144796D01*
X148555204Y-107029192D01*
X148416775Y-106942211D01*
X148416772Y-106942209D01*
X148262461Y-106888213D01*
X148100000Y-106869908D01*
X147937538Y-106888213D01*
X147783227Y-106942209D01*
X147644794Y-107029193D01*
X147529193Y-107144794D01*
X147442209Y-107283227D01*
X147388213Y-107437538D01*
X147369908Y-107599999D01*
X109500500Y-107599999D01*
X109500500Y-105500000D01*
X112744389Y-105500000D01*
X112764804Y-105785429D01*
X112825629Y-106065041D01*
X112825631Y-106065046D01*
X112919521Y-106316775D01*
X112925634Y-106333163D01*
X113062772Y-106584313D01*
X113148517Y-106698855D01*
X113234261Y-106813395D01*
X113436605Y-107015739D01*
X113608414Y-107144354D01*
X113665686Y-107187227D01*
X113805435Y-107263535D01*
X113916839Y-107324367D01*
X114184954Y-107424369D01*
X114184957Y-107424369D01*
X114184958Y-107424370D01*
X114237217Y-107435738D01*
X114464572Y-107485196D01*
X114750000Y-107505610D01*
X115035428Y-107485196D01*
X115315046Y-107424369D01*
X115583161Y-107324367D01*
X115834315Y-107187226D01*
X116063395Y-107015739D01*
X116265739Y-106813395D01*
X116437226Y-106584315D01*
X116574367Y-106333161D01*
X116674369Y-106065046D01*
X116688519Y-106000000D01*
X118529908Y-106000000D01*
X118548213Y-106162461D01*
X118602209Y-106316772D01*
X118602211Y-106316775D01*
X118689192Y-106455204D01*
X118804796Y-106570808D01*
X118943225Y-106657789D01*
X118943227Y-106657790D01*
X119097538Y-106711786D01*
X119260000Y-106730091D01*
X119422461Y-106711786D01*
X119576775Y-106657789D01*
X119715204Y-106570808D01*
X119830808Y-106455204D01*
X119917789Y-106316775D01*
X119971786Y-106162461D01*
X119990091Y-106000000D01*
X122769908Y-106000000D01*
X122788213Y-106162461D01*
X122842209Y-106316772D01*
X122842211Y-106316775D01*
X122929192Y-106455204D01*
X123044796Y-106570808D01*
X123183225Y-106657789D01*
X123183227Y-106657790D01*
X123337538Y-106711786D01*
X123500000Y-106730091D01*
X123662461Y-106711786D01*
X123816775Y-106657789D01*
X123955204Y-106570808D01*
X124070808Y-106455204D01*
X124157789Y-106316775D01*
X124211786Y-106162461D01*
X124230091Y-106000000D01*
X124211786Y-105837539D01*
X124186721Y-105765909D01*
X124157790Y-105683227D01*
X124112286Y-105610808D01*
X124070808Y-105544796D01*
X123955204Y-105429192D01*
X123816775Y-105342211D01*
X123816772Y-105342209D01*
X123662461Y-105288213D01*
X123500000Y-105269908D01*
X123337538Y-105288213D01*
X123183227Y-105342209D01*
X123044794Y-105429193D01*
X122929193Y-105544794D01*
X122842209Y-105683227D01*
X122788213Y-105837538D01*
X122769908Y-106000000D01*
X119990091Y-106000000D01*
X119971786Y-105837539D01*
X119946721Y-105765909D01*
X119917790Y-105683227D01*
X119872286Y-105610808D01*
X119830808Y-105544796D01*
X119715204Y-105429192D01*
X119576775Y-105342211D01*
X119576772Y-105342209D01*
X119422461Y-105288213D01*
X119260000Y-105269908D01*
X119097538Y-105288213D01*
X118943227Y-105342209D01*
X118804794Y-105429193D01*
X118689193Y-105544794D01*
X118602209Y-105683227D01*
X118548213Y-105837538D01*
X118529908Y-106000000D01*
X116688519Y-106000000D01*
X116735196Y-105785428D01*
X116755610Y-105500000D01*
X116735196Y-105214572D01*
X116697220Y-105040000D01*
X132679908Y-105040000D01*
X132698213Y-105202461D01*
X132752209Y-105356772D01*
X132752211Y-105356775D01*
X132839192Y-105495204D01*
X132954796Y-105610808D01*
X133070047Y-105683225D01*
X133093227Y-105697790D01*
X133247538Y-105751786D01*
X133410000Y-105770091D01*
X133572461Y-105751786D01*
X133726775Y-105697789D01*
X133865204Y-105610808D01*
X133980808Y-105495204D01*
X134067789Y-105356775D01*
X134121786Y-105202461D01*
X134140091Y-105040000D01*
X138419908Y-105040000D01*
X138438213Y-105202461D01*
X138492209Y-105356772D01*
X138492211Y-105356775D01*
X138579192Y-105495204D01*
X138694796Y-105610808D01*
X138810047Y-105683225D01*
X138833227Y-105697790D01*
X138987538Y-105751786D01*
X139149999Y-105770091D01*
X139149999Y-105770090D01*
X139150000Y-105770091D01*
X139312461Y-105751786D01*
X139466775Y-105697789D01*
X139605204Y-105610808D01*
X139720808Y-105495204D01*
X139807789Y-105356775D01*
X139845151Y-105250000D01*
X145269908Y-105250000D01*
X145288213Y-105412461D01*
X145342209Y-105566772D01*
X145342211Y-105566775D01*
X145429192Y-105705204D01*
X145544796Y-105820808D01*
X145683225Y-105907789D01*
X145683227Y-105907790D01*
X145837538Y-105961786D01*
X146000000Y-105980091D01*
X146162461Y-105961786D01*
X146316775Y-105907789D01*
X146455204Y-105820808D01*
X146570808Y-105705204D01*
X146657789Y-105566775D01*
X146711786Y-105412461D01*
X146730091Y-105250000D01*
X146711786Y-105087539D01*
X146695151Y-105040000D01*
X146657790Y-104933227D01*
X146622798Y-104877538D01*
X146570808Y-104794796D01*
X146455204Y-104679192D01*
X146316775Y-104592211D01*
X146316772Y-104592209D01*
X146162461Y-104538213D01*
X146000000Y-104519908D01*
X145837538Y-104538213D01*
X145683227Y-104592209D01*
X145544794Y-104679193D01*
X145429193Y-104794794D01*
X145342209Y-104933227D01*
X145288213Y-105087538D01*
X145269908Y-105250000D01*
X139845151Y-105250000D01*
X139861786Y-105202461D01*
X139880091Y-105040000D01*
X139861786Y-104877539D01*
X139807789Y-104723225D01*
X139720808Y-104584796D01*
X139605204Y-104469192D01*
X139466775Y-104382211D01*
X139466772Y-104382209D01*
X139312461Y-104328213D01*
X139150000Y-104309908D01*
X138987538Y-104328213D01*
X138833227Y-104382209D01*
X138694794Y-104469193D01*
X138579193Y-104584794D01*
X138492209Y-104723227D01*
X138438213Y-104877538D01*
X138419908Y-105040000D01*
X134140091Y-105040000D01*
X134121786Y-104877539D01*
X134067789Y-104723225D01*
X133980808Y-104584796D01*
X133865204Y-104469192D01*
X133726775Y-104382211D01*
X133726772Y-104382209D01*
X133572461Y-104328213D01*
X133410000Y-104309908D01*
X133247538Y-104328213D01*
X133093227Y-104382209D01*
X132954794Y-104469193D01*
X132839193Y-104584794D01*
X132752209Y-104723227D01*
X132698213Y-104877538D01*
X132679908Y-105040000D01*
X116697220Y-105040000D01*
X116674369Y-104934954D01*
X116574367Y-104666839D01*
X116437226Y-104415685D01*
X116265739Y-104186605D01*
X116063395Y-103984261D01*
X115948854Y-103898517D01*
X115834313Y-103812772D01*
X115583163Y-103675634D01*
X115583162Y-103675633D01*
X115583161Y-103675633D01*
X115315046Y-103575631D01*
X115315041Y-103575629D01*
X115035429Y-103514804D01*
X114750000Y-103494389D01*
X114464570Y-103514804D01*
X114184958Y-103575629D01*
X113916836Y-103675634D01*
X113665686Y-103812772D01*
X113436602Y-103984263D01*
X113234263Y-104186602D01*
X113062772Y-104415686D01*
X112925634Y-104666836D01*
X112825629Y-104934958D01*
X112764804Y-105214570D01*
X112744389Y-105500000D01*
X109500500Y-105500000D01*
X109500500Y-102699999D01*
X163469908Y-102699999D01*
X163488213Y-102862461D01*
X163542209Y-103016772D01*
X163542211Y-103016775D01*
X163629192Y-103155204D01*
X163744796Y-103270808D01*
X163883225Y-103357789D01*
X163883227Y-103357790D01*
X164037538Y-103411786D01*
X164199999Y-103430091D01*
X164199999Y-103430090D01*
X164200000Y-103430091D01*
X164362461Y-103411786D01*
X164516775Y-103357789D01*
X164655204Y-103270808D01*
X164770808Y-103155204D01*
X164857789Y-103016775D01*
X164911786Y-102862461D01*
X164930091Y-102700000D01*
X164911786Y-102537539D01*
X164857789Y-102383225D01*
X164770808Y-102244796D01*
X164655204Y-102129192D01*
X164516775Y-102042211D01*
X164516772Y-102042209D01*
X164362461Y-101988213D01*
X164200000Y-101969908D01*
X164037538Y-101988213D01*
X163883227Y-102042209D01*
X163744794Y-102129193D01*
X163629193Y-102244794D01*
X163542209Y-102383227D01*
X163488213Y-102537538D01*
X163469908Y-102699999D01*
X109500500Y-102699999D01*
X109500500Y-102143657D01*
X113733448Y-102143657D01*
X113917045Y-102243909D01*
X114185100Y-102343889D01*
X114464642Y-102404699D01*
X114750000Y-102425109D01*
X115035357Y-102404699D01*
X115314899Y-102343889D01*
X115582954Y-102243909D01*
X115766550Y-102143658D01*
X115766550Y-102143657D01*
X114750000Y-101127107D01*
X113733448Y-102143657D01*
X109500500Y-102143657D01*
X109500500Y-100420000D01*
X112744890Y-100420000D01*
X112765300Y-100705357D01*
X112826111Y-100984902D01*
X112926088Y-101252952D01*
X113026341Y-101436550D01*
X114042893Y-100420001D01*
X115457107Y-100420001D01*
X116473657Y-101436550D01*
X116473658Y-101436550D01*
X116573909Y-101252954D01*
X116673889Y-100984899D01*
X116734699Y-100705357D01*
X116739731Y-100635000D01*
X191649767Y-100635000D01*
X191668072Y-100797461D01*
X191722068Y-100951772D01*
X191722070Y-100951775D01*
X191809051Y-101090204D01*
X191924655Y-101205808D01*
X192063084Y-101292789D01*
X192063086Y-101292790D01*
X192217397Y-101346786D01*
X192379858Y-101365091D01*
X192379858Y-101365090D01*
X192379859Y-101365091D01*
X192542320Y-101346786D01*
X192696634Y-101292789D01*
X192835063Y-101205808D01*
X192950667Y-101090204D01*
X193037648Y-100951775D01*
X193091645Y-100797461D01*
X193109950Y-100635000D01*
X193091645Y-100472539D01*
X193073260Y-100419999D01*
X193037649Y-100318227D01*
X192999673Y-100257789D01*
X192950667Y-100179796D01*
X192835063Y-100064192D01*
X192696634Y-99977211D01*
X192696631Y-99977209D01*
X192542320Y-99923213D01*
X192379859Y-99904908D01*
X192217397Y-99923213D01*
X192063086Y-99977209D01*
X191924653Y-100064193D01*
X191809052Y-100179794D01*
X191722068Y-100318227D01*
X191668072Y-100472538D01*
X191649767Y-100635000D01*
X116739731Y-100635000D01*
X116755109Y-100420000D01*
X116734699Y-100134642D01*
X116673889Y-99855100D01*
X116573909Y-99587045D01*
X116473657Y-99403448D01*
X115457107Y-100420000D01*
X115457107Y-100420001D01*
X114042893Y-100420001D01*
X114042893Y-100419999D01*
X113026341Y-99403448D01*
X113026339Y-99403448D01*
X112926090Y-99587043D01*
X112826111Y-99855097D01*
X112765300Y-100134642D01*
X112744890Y-100420000D01*
X109500500Y-100420000D01*
X109500500Y-98696341D01*
X113733448Y-98696341D01*
X114750000Y-99712893D01*
X114750001Y-99712893D01*
X115612892Y-98849999D01*
X138489908Y-98849999D01*
X138508213Y-99012461D01*
X138562209Y-99166772D01*
X138582759Y-99199477D01*
X138649192Y-99305204D01*
X138764796Y-99420808D01*
X138890829Y-99500000D01*
X138903227Y-99507790D01*
X139057538Y-99561786D01*
X139220000Y-99580091D01*
X139382461Y-99561786D01*
X139536775Y-99507789D01*
X139549173Y-99499999D01*
X144019908Y-99499999D01*
X144038213Y-99662461D01*
X144092209Y-99816772D01*
X144094366Y-99820205D01*
X144179192Y-99955204D01*
X144294796Y-100070808D01*
X144396387Y-100134642D01*
X144433227Y-100157790D01*
X144587538Y-100211786D01*
X144750000Y-100230091D01*
X144912461Y-100211786D01*
X145066775Y-100157789D01*
X145205204Y-100070808D01*
X145320808Y-99955204D01*
X145407789Y-99816775D01*
X145461786Y-99662461D01*
X145468824Y-99599999D01*
X148869908Y-99599999D01*
X148888213Y-99762461D01*
X148942209Y-99916772D01*
X148942211Y-99916775D01*
X149029192Y-100055204D01*
X149144796Y-100170808D01*
X149283225Y-100257789D01*
X149283227Y-100257790D01*
X149437538Y-100311786D01*
X149600000Y-100330091D01*
X149762461Y-100311786D01*
X149916775Y-100257789D01*
X150055204Y-100170808D01*
X150170808Y-100055204D01*
X150257789Y-99916775D01*
X150261899Y-99905027D01*
X150301627Y-99849035D01*
X150365057Y-99822761D01*
X150462461Y-99811786D01*
X150616772Y-99757790D01*
X150616771Y-99757790D01*
X150616775Y-99757789D01*
X150755204Y-99670808D01*
X150870808Y-99555204D01*
X150957789Y-99416775D01*
X150975906Y-99365000D01*
X189019908Y-99365000D01*
X189038213Y-99527461D01*
X189092209Y-99681772D01*
X189092211Y-99681775D01*
X189179192Y-99820204D01*
X189294796Y-99935808D01*
X189433225Y-100022789D01*
X189433227Y-100022790D01*
X189587538Y-100076786D01*
X189750000Y-100095091D01*
X189912461Y-100076786D01*
X190066775Y-100022789D01*
X190205204Y-99935808D01*
X190320808Y-99820204D01*
X190407789Y-99681775D01*
X190461786Y-99527461D01*
X190480091Y-99365000D01*
X190461786Y-99202539D01*
X190455028Y-99183227D01*
X190407790Y-99048227D01*
X190395830Y-99029193D01*
X190320808Y-98909796D01*
X190205204Y-98794192D01*
X190066775Y-98707211D01*
X190066772Y-98707209D01*
X189912461Y-98653213D01*
X189750000Y-98634908D01*
X189587538Y-98653213D01*
X189433227Y-98707209D01*
X189294794Y-98794193D01*
X189179193Y-98909794D01*
X189092209Y-99048227D01*
X189038213Y-99202538D01*
X189019908Y-99365000D01*
X150975906Y-99365000D01*
X151011786Y-99262461D01*
X151030091Y-99100000D01*
X151020228Y-99012461D01*
X151011786Y-98937538D01*
X150957790Y-98783227D01*
X150938665Y-98752790D01*
X150870808Y-98644796D01*
X150755204Y-98529192D01*
X150616775Y-98442211D01*
X150616772Y-98442209D01*
X150462461Y-98388213D01*
X150300000Y-98369908D01*
X150137538Y-98388213D01*
X149983227Y-98442209D01*
X149844794Y-98529193D01*
X149729193Y-98644794D01*
X149642210Y-98783225D01*
X149638099Y-98794976D01*
X149598370Y-98850967D01*
X149534942Y-98877239D01*
X149437538Y-98888213D01*
X149283227Y-98942209D01*
X149144794Y-99029193D01*
X149029193Y-99144794D01*
X148942209Y-99283227D01*
X148888213Y-99437538D01*
X148869908Y-99599999D01*
X145468824Y-99599999D01*
X145480091Y-99500000D01*
X145470713Y-99416772D01*
X145461786Y-99337538D01*
X145407790Y-99183227D01*
X145407789Y-99183225D01*
X145320808Y-99044796D01*
X145205204Y-98929192D01*
X145079171Y-98850000D01*
X145066772Y-98842209D01*
X144912461Y-98788213D01*
X144750000Y-98769908D01*
X144587538Y-98788213D01*
X144433227Y-98842209D01*
X144294794Y-98929193D01*
X144179193Y-99044794D01*
X144092209Y-99183227D01*
X144038213Y-99337538D01*
X144019908Y-99499999D01*
X139549173Y-99499999D01*
X139675204Y-99420808D01*
X139790808Y-99305204D01*
X139877789Y-99166775D01*
X139931786Y-99012461D01*
X139950091Y-98850000D01*
X139943129Y-98788213D01*
X139931786Y-98687538D01*
X139877790Y-98533227D01*
X139877789Y-98533225D01*
X139790808Y-98394796D01*
X139675204Y-98279192D01*
X139536775Y-98192211D01*
X139536772Y-98192209D01*
X139382461Y-98138213D01*
X139220000Y-98119908D01*
X139057538Y-98138213D01*
X138903227Y-98192209D01*
X138764794Y-98279193D01*
X138649193Y-98394794D01*
X138562209Y-98533227D01*
X138508213Y-98687538D01*
X138489908Y-98849999D01*
X115612892Y-98849999D01*
X115766550Y-98696341D01*
X115766550Y-98696340D01*
X115582952Y-98596088D01*
X115314902Y-98496111D01*
X115035357Y-98435300D01*
X114750000Y-98414890D01*
X114464642Y-98435300D01*
X114185097Y-98496111D01*
X113917043Y-98596090D01*
X113733448Y-98696339D01*
X113733448Y-98696341D01*
X109500500Y-98696341D01*
X109500500Y-98092475D01*
X186268769Y-98092475D01*
X186287074Y-98254937D01*
X186341070Y-98409248D01*
X186341072Y-98409251D01*
X186428053Y-98547680D01*
X186543657Y-98663284D01*
X186682086Y-98750265D01*
X186682088Y-98750266D01*
X186836399Y-98804262D01*
X186998861Y-98822567D01*
X187161322Y-98804262D01*
X187315636Y-98750265D01*
X187454065Y-98663284D01*
X187569669Y-98547680D01*
X187656650Y-98409251D01*
X187710647Y-98254937D01*
X187728668Y-98094999D01*
X191614908Y-98094999D01*
X191633213Y-98257461D01*
X191687209Y-98411772D01*
X191687211Y-98411775D01*
X191774192Y-98550204D01*
X191889796Y-98665808D01*
X192024210Y-98750266D01*
X192028227Y-98752790D01*
X192182538Y-98806786D01*
X192345000Y-98825091D01*
X192507461Y-98806786D01*
X192661775Y-98752789D01*
X192800204Y-98665808D01*
X192915808Y-98550204D01*
X193002789Y-98411775D01*
X193056786Y-98257461D01*
X193075091Y-98095000D01*
X193056786Y-97932539D01*
X193055902Y-97930014D01*
X193002790Y-97778227D01*
X193001203Y-97775701D01*
X192915808Y-97639796D01*
X192800204Y-97524192D01*
X192661775Y-97437211D01*
X192661772Y-97437209D01*
X192507461Y-97383213D01*
X192345000Y-97364908D01*
X192182538Y-97383213D01*
X192028227Y-97437209D01*
X191889794Y-97524193D01*
X191774193Y-97639794D01*
X191687209Y-97778227D01*
X191633213Y-97932538D01*
X191614908Y-98094999D01*
X187728668Y-98094999D01*
X187728952Y-98092476D01*
X187710647Y-97930015D01*
X187656650Y-97775701D01*
X187569669Y-97637272D01*
X187454065Y-97521668D01*
X187315636Y-97434687D01*
X187315633Y-97434685D01*
X187161322Y-97380689D01*
X186998861Y-97362384D01*
X186836399Y-97380689D01*
X186682088Y-97434685D01*
X186543655Y-97521669D01*
X186428054Y-97637270D01*
X186341070Y-97775703D01*
X186287074Y-97930014D01*
X186268769Y-98092475D01*
X109500500Y-98092475D01*
X109500500Y-96887869D01*
X112749500Y-96887869D01*
X112754840Y-96937538D01*
X112755909Y-96947483D01*
X112806204Y-97082331D01*
X112892454Y-97197546D01*
X113007669Y-97283796D01*
X113142517Y-97334091D01*
X113202127Y-97340500D01*
X116297872Y-97340499D01*
X116357483Y-97334091D01*
X116492331Y-97283796D01*
X116607546Y-97197546D01*
X116680570Y-97099999D01*
X135769908Y-97099999D01*
X135788213Y-97262461D01*
X135842209Y-97416772D01*
X135842211Y-97416775D01*
X135929192Y-97555204D01*
X136044796Y-97670808D01*
X136183225Y-97757789D01*
X136183227Y-97757790D01*
X136337538Y-97811786D01*
X136500000Y-97830091D01*
X136662461Y-97811786D01*
X136816775Y-97757789D01*
X136955204Y-97670808D01*
X137070808Y-97555204D01*
X137157789Y-97416775D01*
X137211786Y-97262461D01*
X137230091Y-97100000D01*
X137212907Y-96947484D01*
X137211786Y-96937538D01*
X137157790Y-96783227D01*
X137157789Y-96783225D01*
X137070808Y-96644796D01*
X136955204Y-96529192D01*
X136816775Y-96442211D01*
X136816772Y-96442209D01*
X136662461Y-96388213D01*
X136500000Y-96369908D01*
X136337538Y-96388213D01*
X136183227Y-96442209D01*
X136044794Y-96529193D01*
X135929193Y-96644794D01*
X135842209Y-96783227D01*
X135788213Y-96937538D01*
X135769908Y-97099999D01*
X116680570Y-97099999D01*
X116693796Y-97082331D01*
X116744091Y-96947483D01*
X116750500Y-96887873D01*
X116750499Y-95060000D01*
X124829908Y-95060000D01*
X124848213Y-95222461D01*
X124902209Y-95376772D01*
X124902211Y-95376775D01*
X124989192Y-95515204D01*
X125104796Y-95630808D01*
X125243225Y-95717789D01*
X125243227Y-95717790D01*
X125397538Y-95771786D01*
X125560000Y-95790091D01*
X125722461Y-95771786D01*
X125876775Y-95717789D01*
X126015204Y-95630808D01*
X126130808Y-95515204D01*
X126217789Y-95376775D01*
X126271786Y-95222461D01*
X126290091Y-95060000D01*
X126271786Y-94897539D01*
X126260467Y-94865192D01*
X126217790Y-94743227D01*
X126167133Y-94662607D01*
X126130808Y-94604796D01*
X126015204Y-94489192D01*
X125984659Y-94469999D01*
X129029908Y-94469999D01*
X129048213Y-94632461D01*
X129102209Y-94786772D01*
X129102211Y-94786775D01*
X129189192Y-94925204D01*
X129304796Y-95040808D01*
X129443225Y-95127789D01*
X129443227Y-95127790D01*
X129597538Y-95181786D01*
X129760000Y-95200091D01*
X129922461Y-95181786D01*
X130076775Y-95127789D01*
X130184660Y-95060000D01*
X130959908Y-95060000D01*
X130978213Y-95222461D01*
X131032209Y-95376772D01*
X131032211Y-95376775D01*
X131119192Y-95515204D01*
X131234796Y-95630808D01*
X131373225Y-95717789D01*
X131373227Y-95717790D01*
X131527538Y-95771786D01*
X131690000Y-95790091D01*
X131852461Y-95771786D01*
X132006775Y-95717789D01*
X132145204Y-95630808D01*
X132260808Y-95515204D01*
X132347789Y-95376775D01*
X132401786Y-95222461D01*
X132420091Y-95060000D01*
X132401786Y-94897539D01*
X132390467Y-94865192D01*
X132347790Y-94743227D01*
X132297133Y-94662607D01*
X132260808Y-94604796D01*
X132145204Y-94489192D01*
X132006775Y-94402211D01*
X132006772Y-94402209D01*
X131852461Y-94348213D01*
X131690000Y-94329908D01*
X131527538Y-94348213D01*
X131373227Y-94402209D01*
X131234794Y-94489193D01*
X131119193Y-94604794D01*
X131032209Y-94743227D01*
X130978213Y-94897538D01*
X130959908Y-95060000D01*
X130184660Y-95060000D01*
X130215204Y-95040808D01*
X130330808Y-94925204D01*
X130417789Y-94786775D01*
X130471786Y-94632461D01*
X130490091Y-94470000D01*
X130474306Y-94329909D01*
X130471786Y-94307538D01*
X130417790Y-94153227D01*
X130411864Y-94143796D01*
X130330808Y-94014796D01*
X130215204Y-93899192D01*
X130076775Y-93812211D01*
X130076772Y-93812209D01*
X129922461Y-93758213D01*
X129760000Y-93739908D01*
X129597538Y-93758213D01*
X129443227Y-93812209D01*
X129304794Y-93899193D01*
X129189193Y-94014794D01*
X129102209Y-94153227D01*
X129048213Y-94307538D01*
X129029908Y-94469999D01*
X125984659Y-94469999D01*
X125876775Y-94402211D01*
X125876772Y-94402209D01*
X125722461Y-94348213D01*
X125560000Y-94329908D01*
X125397538Y-94348213D01*
X125243227Y-94402209D01*
X125104794Y-94489193D01*
X124989193Y-94604794D01*
X124902209Y-94743227D01*
X124848213Y-94897538D01*
X124829908Y-95060000D01*
X116750499Y-95060000D01*
X116750499Y-94207402D01*
X121949572Y-94207402D01*
X121967877Y-94369863D01*
X122021873Y-94524174D01*
X122021875Y-94524177D01*
X122108856Y-94662606D01*
X122224460Y-94778210D01*
X122362889Y-94865191D01*
X122362891Y-94865192D01*
X122517202Y-94919188D01*
X122679664Y-94937493D01*
X122842125Y-94919188D01*
X122996439Y-94865191D01*
X123134868Y-94778210D01*
X123250472Y-94662606D01*
X123337453Y-94524177D01*
X123391450Y-94369863D01*
X123409755Y-94207402D01*
X123391450Y-94044941D01*
X123343458Y-93907789D01*
X123337454Y-93890629D01*
X123337453Y-93890627D01*
X123250472Y-93752198D01*
X123134868Y-93636594D01*
X122996439Y-93549613D01*
X122996436Y-93549611D01*
X122842125Y-93495615D01*
X122679664Y-93477310D01*
X122517202Y-93495615D01*
X122362891Y-93549611D01*
X122224458Y-93636595D01*
X122108857Y-93752196D01*
X122021873Y-93890629D01*
X121967877Y-94044940D01*
X121949572Y-94207402D01*
X116750499Y-94207402D01*
X116750499Y-93792128D01*
X116744091Y-93732517D01*
X116693796Y-93597669D01*
X116607546Y-93482454D01*
X116492331Y-93396204D01*
X116357483Y-93345909D01*
X116297873Y-93339500D01*
X116297869Y-93339500D01*
X113202130Y-93339500D01*
X113142515Y-93345909D01*
X113007669Y-93396204D01*
X112892454Y-93482454D01*
X112806204Y-93597668D01*
X112755909Y-93732516D01*
X112749500Y-93792130D01*
X112749500Y-96887869D01*
X109500500Y-96887869D01*
X109500500Y-93249999D01*
X132769908Y-93249999D01*
X132788213Y-93412461D01*
X132842209Y-93566772D01*
X132842211Y-93566775D01*
X132929192Y-93705204D01*
X133044796Y-93820808D01*
X133169543Y-93899192D01*
X133183227Y-93907790D01*
X133337538Y-93961786D01*
X133500000Y-93980091D01*
X133662461Y-93961786D01*
X133816775Y-93907789D01*
X133955204Y-93820808D01*
X134070808Y-93705204D01*
X134157789Y-93566775D01*
X134211786Y-93412461D01*
X134230091Y-93250000D01*
X134211786Y-93087539D01*
X134191652Y-93029999D01*
X149519908Y-93029999D01*
X149538213Y-93192461D01*
X149592209Y-93346772D01*
X149592211Y-93346775D01*
X149679192Y-93485204D01*
X149794796Y-93600808D01*
X149933225Y-93687789D01*
X149933227Y-93687790D01*
X150087538Y-93741786D01*
X150250000Y-93760091D01*
X150358473Y-93747869D01*
X191249500Y-93747869D01*
X191255909Y-93807484D01*
X191257672Y-93812211D01*
X191306204Y-93942331D01*
X191392454Y-94057546D01*
X191507669Y-94143796D01*
X191642517Y-94194091D01*
X191702127Y-94200500D01*
X193797872Y-94200499D01*
X193857483Y-94194091D01*
X193992331Y-94143796D01*
X194107546Y-94057546D01*
X194193796Y-93942331D01*
X194244091Y-93807483D01*
X194250500Y-93747873D01*
X194250499Y-92752128D01*
X194244091Y-92692517D01*
X194193796Y-92557669D01*
X194107546Y-92442454D01*
X193992331Y-92356204D01*
X193857483Y-92305909D01*
X193797873Y-92299500D01*
X193797869Y-92299500D01*
X191702130Y-92299500D01*
X191642515Y-92305909D01*
X191507669Y-92356204D01*
X191392454Y-92442454D01*
X191306204Y-92557668D01*
X191255909Y-92692515D01*
X191255909Y-92692517D01*
X191251320Y-92735205D01*
X191249500Y-92752130D01*
X191249500Y-93747869D01*
X150358473Y-93747869D01*
X150412461Y-93741786D01*
X150566775Y-93687789D01*
X150705204Y-93600808D01*
X150820808Y-93485204D01*
X150907789Y-93346775D01*
X150961786Y-93192461D01*
X150980091Y-93030000D01*
X150969701Y-92937790D01*
X150961786Y-92867538D01*
X150907790Y-92713227D01*
X150894777Y-92692517D01*
X150820808Y-92574796D01*
X150705204Y-92459192D01*
X150599477Y-92392759D01*
X150566772Y-92372209D01*
X150412461Y-92318213D01*
X150250000Y-92299908D01*
X150087538Y-92318213D01*
X149933227Y-92372209D01*
X149794794Y-92459193D01*
X149679193Y-92574794D01*
X149592209Y-92713227D01*
X149538213Y-92867538D01*
X149519908Y-93029999D01*
X134191652Y-93029999D01*
X134178280Y-92991786D01*
X134157790Y-92933227D01*
X134157789Y-92933225D01*
X134070808Y-92794796D01*
X133955204Y-92679192D01*
X133816775Y-92592211D01*
X133816772Y-92592209D01*
X133662461Y-92538213D01*
X133500000Y-92519908D01*
X133337538Y-92538213D01*
X133183227Y-92592209D01*
X133044794Y-92679193D01*
X132929193Y-92794794D01*
X132842209Y-92933227D01*
X132788213Y-93087538D01*
X132769908Y-93249999D01*
X109500500Y-93249999D01*
X109500500Y-91500000D01*
X118369908Y-91500000D01*
X118388213Y-91662461D01*
X118442209Y-91816772D01*
X118442211Y-91816775D01*
X118529192Y-91955204D01*
X118644796Y-92070808D01*
X118783225Y-92157789D01*
X118783227Y-92157790D01*
X118937538Y-92211786D01*
X119100000Y-92230091D01*
X119262461Y-92211786D01*
X119416775Y-92157789D01*
X119555204Y-92070808D01*
X119670808Y-91955204D01*
X119757789Y-91816775D01*
X119809148Y-91669999D01*
X127379908Y-91669999D01*
X127398213Y-91832461D01*
X127452209Y-91986772D01*
X127452211Y-91986775D01*
X127539192Y-92125204D01*
X127654796Y-92240808D01*
X127777985Y-92318213D01*
X127793227Y-92327790D01*
X127947538Y-92381786D01*
X128110000Y-92400091D01*
X128272461Y-92381786D01*
X128426775Y-92327789D01*
X128502832Y-92279999D01*
X136999908Y-92279999D01*
X137018213Y-92442461D01*
X137072209Y-92596772D01*
X137072211Y-92596775D01*
X137159192Y-92735204D01*
X137274796Y-92850808D01*
X137405965Y-92933227D01*
X137413227Y-92937790D01*
X137567538Y-92991786D01*
X137730000Y-93010091D01*
X137892461Y-92991786D01*
X138046775Y-92937789D01*
X138185204Y-92850808D01*
X138300808Y-92735204D01*
X138387789Y-92596775D01*
X138441786Y-92442461D01*
X138460091Y-92280000D01*
X138441786Y-92117539D01*
X138425433Y-92070806D01*
X138387790Y-91963227D01*
X138387789Y-91963225D01*
X138300808Y-91824796D01*
X138185204Y-91709192D01*
X138185204Y-91709191D01*
X138175325Y-91699313D01*
X138175696Y-91698941D01*
X138144061Y-91665852D01*
X138127942Y-91607440D01*
X138141427Y-91548364D01*
X138181296Y-91502731D01*
X138238028Y-91481440D01*
X138308569Y-91473491D01*
X138412461Y-91461786D01*
X138566775Y-91407789D01*
X138705204Y-91320808D01*
X138820808Y-91205204D01*
X138907789Y-91066775D01*
X138961786Y-90912461D01*
X138980091Y-90750000D01*
X138963190Y-90600000D01*
X184200000Y-90600000D01*
X184200000Y-91195267D01*
X184210216Y-91339963D01*
X184264313Y-91580167D01*
X184356243Y-91808582D01*
X184483624Y-92019295D01*
X184643153Y-92206846D01*
X184830704Y-92366375D01*
X185041417Y-92493756D01*
X185269832Y-92585686D01*
X185510036Y-92639783D01*
X185654733Y-92650000D01*
X186250000Y-92650000D01*
X187250000Y-92650000D01*
X187845267Y-92650000D01*
X187989963Y-92639783D01*
X188230167Y-92585686D01*
X188458582Y-92493756D01*
X188669295Y-92366375D01*
X188856846Y-92206846D01*
X189016375Y-92019295D01*
X189143756Y-91808582D01*
X189235686Y-91580167D01*
X189289783Y-91339963D01*
X189300000Y-91195267D01*
X189300000Y-91164000D01*
X189316613Y-91102000D01*
X189362000Y-91056613D01*
X189424000Y-91040000D01*
X190000000Y-91040000D01*
X190000000Y-89540000D01*
X191000000Y-89540000D01*
X191000000Y-91040000D01*
X192047824Y-91040000D01*
X192107375Y-91033597D01*
X192242089Y-90983352D01*
X192357188Y-90897188D01*
X192443352Y-90782089D01*
X192493597Y-90647375D01*
X192500000Y-90587824D01*
X192500000Y-89540000D01*
X191000000Y-89540000D01*
X190000000Y-89540000D01*
X190000000Y-87040000D01*
X191000000Y-87040000D01*
X191000000Y-88540000D01*
X192500000Y-88540000D01*
X192500000Y-87492176D01*
X192493597Y-87432624D01*
X192443352Y-87297910D01*
X192357188Y-87182811D01*
X192242089Y-87096647D01*
X192107375Y-87046402D01*
X192047824Y-87040000D01*
X191000000Y-87040000D01*
X190000000Y-87040000D01*
X188952176Y-87040000D01*
X188892624Y-87046402D01*
X188757910Y-87096647D01*
X188642811Y-87182811D01*
X188556647Y-87297910D01*
X188506402Y-87432624D01*
X188500000Y-87492176D01*
X188500000Y-87539341D01*
X188485505Y-87597519D01*
X188445409Y-87642095D01*
X188389085Y-87662649D01*
X188329702Y-87654374D01*
X188230164Y-87614312D01*
X187989963Y-87560216D01*
X187845267Y-87550000D01*
X187250000Y-87550000D01*
X187250000Y-92650000D01*
X186250000Y-92650000D01*
X186250000Y-90600000D01*
X184200000Y-90600000D01*
X138963190Y-90600000D01*
X138961786Y-90587539D01*
X138944290Y-90537539D01*
X138907790Y-90433227D01*
X138886912Y-90400000D01*
X138820808Y-90294796D01*
X138705204Y-90179192D01*
X138566775Y-90092211D01*
X138566772Y-90092209D01*
X138412461Y-90038213D01*
X138250000Y-90019908D01*
X138087538Y-90038213D01*
X137933227Y-90092209D01*
X137794794Y-90179193D01*
X137679193Y-90294794D01*
X137592209Y-90433227D01*
X137538213Y-90587538D01*
X137519908Y-90750000D01*
X137538213Y-90912461D01*
X137592209Y-91066772D01*
X137592211Y-91066775D01*
X137656423Y-91168968D01*
X137679193Y-91205205D01*
X137804675Y-91330687D01*
X137804303Y-91331058D01*
X137835936Y-91364145D01*
X137852057Y-91422557D01*
X137838573Y-91481634D01*
X137798704Y-91527267D01*
X137741972Y-91548559D01*
X137567538Y-91568213D01*
X137413227Y-91622209D01*
X137274794Y-91709193D01*
X137159193Y-91824794D01*
X137072209Y-91963227D01*
X137018213Y-92117538D01*
X136999908Y-92279999D01*
X128502832Y-92279999D01*
X128565204Y-92240808D01*
X128680808Y-92125204D01*
X128767789Y-91986775D01*
X128821786Y-91832461D01*
X128840091Y-91670000D01*
X128834706Y-91622211D01*
X128821786Y-91507538D01*
X128767790Y-91353227D01*
X128759456Y-91339963D01*
X128680808Y-91214796D01*
X128565204Y-91099192D01*
X128426775Y-91012211D01*
X128426772Y-91012209D01*
X128272461Y-90958213D01*
X128110000Y-90939908D01*
X127947538Y-90958213D01*
X127793227Y-91012209D01*
X127654794Y-91099193D01*
X127539193Y-91214794D01*
X127452209Y-91353227D01*
X127398213Y-91507538D01*
X127379908Y-91669999D01*
X119809148Y-91669999D01*
X119811786Y-91662461D01*
X119830091Y-91500000D01*
X119811786Y-91337539D01*
X119809518Y-91331058D01*
X119753175Y-91170038D01*
X119756230Y-91168968D01*
X119744026Y-91128347D01*
X119760140Y-91064364D01*
X119806792Y-91017704D01*
X119870772Y-91001579D01*
X119933966Y-91020554D01*
X119991353Y-91056613D01*
X119993227Y-91057790D01*
X120147538Y-91111786D01*
X120310000Y-91130091D01*
X120472461Y-91111786D01*
X120626775Y-91057789D01*
X120765204Y-90970808D01*
X120880808Y-90855204D01*
X120967789Y-90716775D01*
X121021786Y-90562461D01*
X121040091Y-90400000D01*
X121022603Y-90244794D01*
X121021786Y-90237538D01*
X120967790Y-90083227D01*
X120964772Y-90078424D01*
X120880808Y-89944796D01*
X120765204Y-89829192D01*
X120626775Y-89742211D01*
X120626772Y-89742209D01*
X120472461Y-89688213D01*
X120310000Y-89669908D01*
X120147538Y-89688213D01*
X119993227Y-89742209D01*
X119854794Y-89829193D01*
X119739193Y-89944794D01*
X119652209Y-90083227D01*
X119598213Y-90237538D01*
X119579908Y-90399999D01*
X119598213Y-90562461D01*
X119656825Y-90729962D01*
X119653769Y-90731031D01*
X119665974Y-90771660D01*
X119649856Y-90835640D01*
X119603204Y-90882297D01*
X119539225Y-90898420D01*
X119476034Y-90879445D01*
X119416775Y-90842210D01*
X119262461Y-90788213D01*
X119100000Y-90769908D01*
X118937538Y-90788213D01*
X118783227Y-90842209D01*
X118644794Y-90929193D01*
X118529193Y-91044794D01*
X118442209Y-91183227D01*
X118388213Y-91337538D01*
X118369908Y-91500000D01*
X109500500Y-91500000D01*
X109500500Y-89270000D01*
X122139908Y-89270000D01*
X122158213Y-89432461D01*
X122212209Y-89586772D01*
X122212211Y-89586775D01*
X122299192Y-89725204D01*
X122414796Y-89840808D01*
X122528831Y-89912461D01*
X122553227Y-89927790D01*
X122707538Y-89981785D01*
X122707539Y-89981786D01*
X122755405Y-89987179D01*
X122813277Y-90009268D01*
X122853242Y-90056595D01*
X122865328Y-90117348D01*
X122846519Y-90176367D01*
X122842211Y-90183223D01*
X122788213Y-90337538D01*
X122769908Y-90500000D01*
X122788213Y-90662461D01*
X122842209Y-90816772D01*
X122842211Y-90816775D01*
X122929192Y-90955204D01*
X123044796Y-91070808D01*
X123179111Y-91155204D01*
X123183227Y-91157790D01*
X123337538Y-91211786D01*
X123500000Y-91230091D01*
X123662461Y-91211786D01*
X123816775Y-91157789D01*
X123955204Y-91070808D01*
X124070808Y-90955204D01*
X124157789Y-90816775D01*
X124211786Y-90662461D01*
X124230091Y-90500000D01*
X124225785Y-90461786D01*
X124211786Y-90337538D01*
X124157790Y-90183227D01*
X124157789Y-90183225D01*
X124070808Y-90044796D01*
X123955204Y-89929192D01*
X123816775Y-89842211D01*
X123816772Y-89842209D01*
X123662461Y-89788213D01*
X123614592Y-89782820D01*
X123556720Y-89760729D01*
X123547660Y-89750000D01*
X129619908Y-89750000D01*
X129638213Y-89912461D01*
X129692209Y-90066772D01*
X129708192Y-90092209D01*
X129765380Y-90183223D01*
X129779193Y-90205205D01*
X129816927Y-90242939D01*
X129850137Y-90303027D01*
X129846288Y-90371575D01*
X129842212Y-90383223D01*
X129842211Y-90383225D01*
X129788214Y-90537539D01*
X129788213Y-90537543D01*
X129769908Y-90700000D01*
X129788213Y-90862461D01*
X129842209Y-91016772D01*
X129852781Y-91033597D01*
X129929192Y-91155204D01*
X130044796Y-91270808D01*
X130175965Y-91353227D01*
X130183227Y-91357790D01*
X130337538Y-91411786D01*
X130499999Y-91430091D01*
X130499999Y-91430090D01*
X130500000Y-91430091D01*
X130662461Y-91411786D01*
X130816775Y-91357789D01*
X130955204Y-91270808D01*
X131070808Y-91155204D01*
X131157789Y-91016775D01*
X131211786Y-90862461D01*
X131230091Y-90700000D01*
X131214594Y-90562461D01*
X131211786Y-90537538D01*
X131157790Y-90383227D01*
X131157789Y-90383225D01*
X131070808Y-90244796D01*
X131033071Y-90207059D01*
X130999862Y-90146971D01*
X131003712Y-90078424D01*
X131007787Y-90066777D01*
X131007789Y-90066775D01*
X131061786Y-89912461D01*
X131080091Y-89750000D01*
X131064193Y-89608910D01*
X131073760Y-89545440D01*
X131113780Y-89495256D01*
X131173531Y-89471806D01*
X131262461Y-89461786D01*
X131416772Y-89407790D01*
X131416771Y-89407790D01*
X131416775Y-89407789D01*
X131555204Y-89320808D01*
X131670808Y-89205204D01*
X131757789Y-89066775D01*
X131811786Y-88912461D01*
X131830091Y-88750000D01*
X131824366Y-88699193D01*
X131811786Y-88587538D01*
X131757790Y-88433227D01*
X131731519Y-88391417D01*
X131670808Y-88294796D01*
X131626012Y-88250000D01*
X160519908Y-88250000D01*
X160538213Y-88412461D01*
X160592209Y-88566772D01*
X160592211Y-88566775D01*
X160679192Y-88705204D01*
X160794796Y-88820808D01*
X160933225Y-88907789D01*
X160933227Y-88907790D01*
X161087538Y-88961786D01*
X161127762Y-88966318D01*
X161169627Y-88971035D01*
X161221715Y-88989261D01*
X161260738Y-89028283D01*
X161278964Y-89080371D01*
X161288213Y-89162461D01*
X161342209Y-89316772D01*
X161342211Y-89316775D01*
X161429192Y-89455204D01*
X161544796Y-89570808D01*
X161683225Y-89657789D01*
X161683227Y-89657790D01*
X161837538Y-89711786D01*
X162000000Y-89730091D01*
X162162461Y-89711786D01*
X162316775Y-89657789D01*
X162455204Y-89570808D01*
X162570808Y-89455204D01*
X162645007Y-89337116D01*
X162690019Y-89294562D01*
X162750000Y-89279090D01*
X162809981Y-89294562D01*
X162854992Y-89337116D01*
X162929192Y-89455204D01*
X163044796Y-89570808D01*
X163183225Y-89657789D01*
X163183227Y-89657790D01*
X163337538Y-89711786D01*
X163377762Y-89716318D01*
X163419627Y-89721035D01*
X163471715Y-89739261D01*
X163510738Y-89778283D01*
X163528964Y-89830371D01*
X163538213Y-89912461D01*
X163592209Y-90066772D01*
X163608192Y-90092209D01*
X163679192Y-90205204D01*
X163794796Y-90320808D01*
X163920829Y-90400000D01*
X163933227Y-90407790D01*
X164087538Y-90461786D01*
X164250000Y-90480091D01*
X164412461Y-90461786D01*
X164566775Y-90407789D01*
X164705204Y-90320808D01*
X164820808Y-90205204D01*
X164907789Y-90066775D01*
X164961786Y-89912461D01*
X164980091Y-89750000D01*
X164963190Y-89600000D01*
X184200000Y-89600000D01*
X186250000Y-89600000D01*
X186250000Y-87550000D01*
X185654733Y-87550000D01*
X185510036Y-87560216D01*
X185269832Y-87614313D01*
X185041417Y-87706243D01*
X184830704Y-87833624D01*
X184643153Y-87993153D01*
X184483624Y-88180704D01*
X184356243Y-88391417D01*
X184264313Y-88619832D01*
X184210216Y-88860036D01*
X184200000Y-89004733D01*
X184200000Y-89600000D01*
X164963190Y-89600000D01*
X164961786Y-89587539D01*
X164961517Y-89586771D01*
X164907790Y-89433227D01*
X164891806Y-89407789D01*
X164820808Y-89294796D01*
X164705204Y-89179192D01*
X164587116Y-89104992D01*
X164544562Y-89059981D01*
X164529090Y-89000000D01*
X164544562Y-88940019D01*
X164587116Y-88895007D01*
X164705204Y-88820808D01*
X164820808Y-88705204D01*
X164895007Y-88587116D01*
X164940019Y-88544562D01*
X165000000Y-88529090D01*
X165059981Y-88544562D01*
X165104992Y-88587116D01*
X165179192Y-88705204D01*
X165294796Y-88820808D01*
X165433225Y-88907789D01*
X165433227Y-88907790D01*
X165587538Y-88961786D01*
X165750000Y-88980091D01*
X165912461Y-88961786D01*
X166066775Y-88907789D01*
X166205204Y-88820808D01*
X166320808Y-88705204D01*
X166395007Y-88587116D01*
X166440019Y-88544562D01*
X166500000Y-88529090D01*
X166559981Y-88544562D01*
X166604992Y-88587116D01*
X166679192Y-88705204D01*
X166794796Y-88820808D01*
X166933225Y-88907789D01*
X166933227Y-88907790D01*
X167087538Y-88961786D01*
X167250000Y-88980091D01*
X167412461Y-88961786D01*
X167566775Y-88907789D01*
X167705204Y-88820808D01*
X167820808Y-88705204D01*
X167907789Y-88566775D01*
X167961786Y-88412461D01*
X167980091Y-88250000D01*
X167972113Y-88179192D01*
X167961786Y-88087538D01*
X167907790Y-87933227D01*
X167907789Y-87933225D01*
X167820808Y-87794796D01*
X167705204Y-87679192D01*
X167566775Y-87592211D01*
X167566772Y-87592209D01*
X167412461Y-87538213D01*
X167250000Y-87519908D01*
X167087538Y-87538213D01*
X166933227Y-87592209D01*
X166794794Y-87679193D01*
X166679192Y-87794795D01*
X166604993Y-87912882D01*
X166559981Y-87955437D01*
X166500000Y-87970909D01*
X166440019Y-87955437D01*
X166395007Y-87912882D01*
X166320807Y-87794795D01*
X166205205Y-87679193D01*
X166205204Y-87679192D01*
X166066775Y-87592211D01*
X166066772Y-87592209D01*
X165912461Y-87538213D01*
X165750000Y-87519908D01*
X165587538Y-87538213D01*
X165433227Y-87592209D01*
X165294794Y-87679193D01*
X165179192Y-87794795D01*
X165104993Y-87912882D01*
X165059981Y-87955437D01*
X165000000Y-87970909D01*
X164940019Y-87955437D01*
X164895007Y-87912882D01*
X164820807Y-87794795D01*
X164705205Y-87679193D01*
X164705204Y-87679192D01*
X164566775Y-87592211D01*
X164566772Y-87592209D01*
X164412461Y-87538213D01*
X164250000Y-87519908D01*
X164087538Y-87538213D01*
X163933227Y-87592209D01*
X163794794Y-87679193D01*
X163679192Y-87794795D01*
X163604993Y-87912882D01*
X163559981Y-87955437D01*
X163500000Y-87970909D01*
X163440019Y-87955437D01*
X163395007Y-87912882D01*
X163320807Y-87794795D01*
X163205205Y-87679193D01*
X163205204Y-87679192D01*
X163066775Y-87592211D01*
X163066772Y-87592209D01*
X162912461Y-87538213D01*
X162750000Y-87519908D01*
X162587538Y-87538213D01*
X162433227Y-87592209D01*
X162294794Y-87679193D01*
X162179192Y-87794795D01*
X162104993Y-87912882D01*
X162059981Y-87955437D01*
X162000000Y-87970909D01*
X161940019Y-87955437D01*
X161895007Y-87912882D01*
X161820807Y-87794795D01*
X161705205Y-87679193D01*
X161705204Y-87679192D01*
X161566775Y-87592211D01*
X161566772Y-87592209D01*
X161412461Y-87538213D01*
X161250000Y-87519908D01*
X161087538Y-87538213D01*
X160933227Y-87592209D01*
X160794794Y-87679193D01*
X160679193Y-87794794D01*
X160592209Y-87933227D01*
X160538213Y-88087538D01*
X160519908Y-88250000D01*
X131626012Y-88250000D01*
X131555204Y-88179192D01*
X131416775Y-88092211D01*
X131416772Y-88092209D01*
X131262461Y-88038213D01*
X131100000Y-88019908D01*
X130937538Y-88038213D01*
X130783227Y-88092209D01*
X130644794Y-88179193D01*
X130529193Y-88294794D01*
X130442209Y-88433227D01*
X130388213Y-88587538D01*
X130369908Y-88750000D01*
X130385805Y-88891090D01*
X130376239Y-88954559D01*
X130336219Y-89004743D01*
X130276469Y-89028193D01*
X130187539Y-89038213D01*
X130033227Y-89092209D01*
X129894794Y-89179193D01*
X129779193Y-89294794D01*
X129692209Y-89433227D01*
X129638213Y-89587538D01*
X129619908Y-89750000D01*
X123547660Y-89750000D01*
X123516755Y-89713400D01*
X123504671Y-89652645D01*
X123523483Y-89593627D01*
X123527789Y-89586775D01*
X123581786Y-89432461D01*
X123600091Y-89270000D01*
X123592790Y-89205204D01*
X123581786Y-89107538D01*
X123527790Y-88953227D01*
X123499240Y-88907790D01*
X123440808Y-88814796D01*
X123325204Y-88699192D01*
X123186775Y-88612211D01*
X123186772Y-88612209D01*
X123032461Y-88558213D01*
X122870000Y-88539908D01*
X122707538Y-88558213D01*
X122553227Y-88612209D01*
X122414794Y-88699193D01*
X122299193Y-88814794D01*
X122212209Y-88953227D01*
X122158213Y-89107538D01*
X122139908Y-89270000D01*
X109500500Y-89270000D01*
X109500500Y-86550000D01*
X117269908Y-86550000D01*
X117288213Y-86712461D01*
X117342209Y-86866772D01*
X117342211Y-86866775D01*
X117429192Y-87005204D01*
X117544796Y-87120808D01*
X117683225Y-87207789D01*
X117683227Y-87207790D01*
X117837538Y-87261786D01*
X118000000Y-87280091D01*
X118162461Y-87261786D01*
X118316775Y-87207789D01*
X118455204Y-87120808D01*
X118570808Y-87005204D01*
X118657789Y-86866775D01*
X118711786Y-86712461D01*
X118730091Y-86550000D01*
X118711786Y-86387539D01*
X118657789Y-86233225D01*
X118570808Y-86094796D01*
X118455204Y-85979192D01*
X118316775Y-85892211D01*
X118316772Y-85892209D01*
X118162461Y-85838213D01*
X118000000Y-85819908D01*
X117837538Y-85838213D01*
X117683227Y-85892209D01*
X117544794Y-85979193D01*
X117429193Y-86094794D01*
X117342209Y-86233227D01*
X117288213Y-86387538D01*
X117269908Y-86550000D01*
X109500500Y-86550000D01*
X109500500Y-85433659D01*
X122234392Y-85433659D01*
X122249685Y-85520386D01*
X122264668Y-85605354D01*
X122333721Y-85765438D01*
X122437832Y-85905283D01*
X122571386Y-86017349D01*
X122727185Y-86095594D01*
X122896829Y-86135800D01*
X123027433Y-86135800D01*
X123027436Y-86135800D01*
X123157164Y-86120637D01*
X123320993Y-86061008D01*
X123466654Y-85965205D01*
X123586296Y-85838393D01*
X123673467Y-85687407D01*
X123723469Y-85520388D01*
X123728521Y-85433659D01*
X124266392Y-85433659D01*
X124281685Y-85520386D01*
X124296668Y-85605354D01*
X124365721Y-85765438D01*
X124469832Y-85905283D01*
X124603386Y-86017349D01*
X124759185Y-86095594D01*
X124928829Y-86135800D01*
X125059433Y-86135800D01*
X125059436Y-86135800D01*
X125189164Y-86120637D01*
X125352993Y-86061008D01*
X125498654Y-85965205D01*
X125552092Y-85908564D01*
X125607875Y-85874529D01*
X125673216Y-85873579D01*
X125729965Y-85905977D01*
X125844796Y-86020808D01*
X125963817Y-86095594D01*
X125983227Y-86107790D01*
X126137538Y-86161786D01*
X126300000Y-86180091D01*
X126462461Y-86161786D01*
X126616775Y-86107789D01*
X126755204Y-86020808D01*
X126870808Y-85905204D01*
X126957789Y-85766775D01*
X127011786Y-85612461D01*
X127030091Y-85450000D01*
X127011786Y-85287539D01*
X127006837Y-85273397D01*
X126957790Y-85133227D01*
X126910343Y-85057716D01*
X126901743Y-85044029D01*
X126883240Y-84989211D01*
X126891625Y-84931962D01*
X126925072Y-84884750D01*
X126976296Y-84857854D01*
X127008502Y-84849699D01*
X127226734Y-84753973D01*
X127426234Y-84623633D01*
X127601560Y-84462235D01*
X127651090Y-84398599D01*
X127747927Y-84274182D01*
X127747929Y-84274179D01*
X127861349Y-84064597D01*
X127938726Y-83839206D01*
X127977950Y-83604152D01*
X127977950Y-83365848D01*
X127962706Y-83274499D01*
X130269908Y-83274499D01*
X130288213Y-83436961D01*
X130342209Y-83591272D01*
X130350302Y-83604152D01*
X130429192Y-83729704D01*
X130544796Y-83845308D01*
X130675728Y-83927578D01*
X130683227Y-83932290D01*
X130837538Y-83986286D01*
X131000000Y-84004591D01*
X131162461Y-83986286D01*
X131316775Y-83932289D01*
X131455204Y-83845308D01*
X131570808Y-83729704D01*
X131657789Y-83591275D01*
X131711786Y-83436961D01*
X131730091Y-83274500D01*
X131727330Y-83250000D01*
X136519908Y-83250000D01*
X136538213Y-83412461D01*
X136592209Y-83566772D01*
X136592211Y-83566775D01*
X136679192Y-83705204D01*
X136794796Y-83820808D01*
X136924929Y-83902576D01*
X136933227Y-83907790D01*
X137087538Y-83961786D01*
X137250000Y-83980091D01*
X137412461Y-83961786D01*
X137566775Y-83907789D01*
X137705204Y-83820808D01*
X137776013Y-83749999D01*
X144519908Y-83749999D01*
X144538213Y-83912461D01*
X144592209Y-84066772D01*
X144592211Y-84066775D01*
X144679192Y-84205204D01*
X144794796Y-84320808D01*
X144924187Y-84402110D01*
X144933227Y-84407790D01*
X145087538Y-84461786D01*
X145250000Y-84480091D01*
X145412461Y-84461786D01*
X145566775Y-84407789D01*
X145705204Y-84320808D01*
X145820808Y-84205204D01*
X145907789Y-84066775D01*
X145961786Y-83912461D01*
X145980091Y-83750000D01*
X145975637Y-83710474D01*
X145961786Y-83587538D01*
X145907790Y-83433227D01*
X145883744Y-83394958D01*
X145820808Y-83294796D01*
X145781281Y-83255269D01*
X153359681Y-83255269D01*
X153377986Y-83417730D01*
X153431982Y-83572041D01*
X153441720Y-83587539D01*
X153518965Y-83710473D01*
X153634569Y-83826077D01*
X153772048Y-83912461D01*
X153773000Y-83913059D01*
X153927311Y-83967055D01*
X154089773Y-83985360D01*
X154252234Y-83967055D01*
X154406548Y-83913058D01*
X154544977Y-83826077D01*
X154621054Y-83750000D01*
X161518594Y-83750000D01*
X161601400Y-83927578D01*
X161736890Y-84121078D01*
X161903921Y-84288109D01*
X162097421Y-84423599D01*
X162311507Y-84523430D01*
X162424999Y-84553840D01*
X162425000Y-84553841D01*
X162425000Y-83750000D01*
X163425000Y-83750000D01*
X163425000Y-84553840D01*
X163538492Y-84523430D01*
X163752578Y-84423599D01*
X163946078Y-84288109D01*
X164113106Y-84121081D01*
X164248600Y-83927576D01*
X164331406Y-83750000D01*
X169093594Y-83750000D01*
X169176400Y-83927578D01*
X169311890Y-84121078D01*
X169478921Y-84288109D01*
X169672421Y-84423599D01*
X169886507Y-84523430D01*
X169999999Y-84553840D01*
X170000000Y-84553841D01*
X170000000Y-83750000D01*
X171000000Y-83750000D01*
X171000000Y-84553840D01*
X171113492Y-84523430D01*
X171327578Y-84423599D01*
X171521078Y-84288109D01*
X171688106Y-84121081D01*
X171823600Y-83927576D01*
X171906406Y-83750000D01*
X171000000Y-83750000D01*
X170000000Y-83750000D01*
X169093594Y-83750000D01*
X164331406Y-83750000D01*
X163425000Y-83750000D01*
X162425000Y-83750000D01*
X161518594Y-83750000D01*
X154621054Y-83750000D01*
X154646054Y-83725000D01*
X176718594Y-83725000D01*
X176801400Y-83902578D01*
X176936890Y-84096078D01*
X177103921Y-84263109D01*
X177297421Y-84398599D01*
X177511507Y-84498430D01*
X177624999Y-84528840D01*
X177625000Y-84528841D01*
X177625000Y-83725000D01*
X178625000Y-83725000D01*
X178625000Y-84528840D01*
X178738492Y-84498430D01*
X178952578Y-84398599D01*
X179146078Y-84263109D01*
X179313106Y-84096081D01*
X179448600Y-83902576D01*
X179531406Y-83725000D01*
X178625000Y-83725000D01*
X177625000Y-83725000D01*
X176718594Y-83725000D01*
X154646054Y-83725000D01*
X154660581Y-83710473D01*
X154747562Y-83572044D01*
X154801559Y-83417730D01*
X154819864Y-83255269D01*
X154801559Y-83092808D01*
X154801349Y-83092209D01*
X154747563Y-82938496D01*
X154747562Y-82938494D01*
X154723374Y-82899999D01*
X184194456Y-82899999D01*
X184214607Y-83220289D01*
X184274744Y-83535541D01*
X184373914Y-83840753D01*
X184373916Y-83840758D01*
X184505825Y-84121078D01*
X184510563Y-84131146D01*
X184682521Y-84402110D01*
X184887088Y-84649389D01*
X185121037Y-84869082D01*
X185380671Y-85057716D01*
X185661901Y-85212323D01*
X185661903Y-85212324D01*
X185960294Y-85330466D01*
X186271139Y-85410277D01*
X186535713Y-85443700D01*
X186589535Y-85450500D01*
X186589536Y-85450500D01*
X186910464Y-85450500D01*
X186910465Y-85450500D01*
X186956504Y-85444683D01*
X187228861Y-85410277D01*
X187539706Y-85330466D01*
X187838097Y-85212324D01*
X188119328Y-85057716D01*
X188205930Y-84994796D01*
X188378962Y-84869082D01*
X188399604Y-84849698D01*
X188485603Y-84768939D01*
X188534107Y-84740789D01*
X188590056Y-84736887D01*
X188642002Y-84758035D01*
X188679316Y-84799906D01*
X188812772Y-85044313D01*
X188826170Y-85062210D01*
X188984261Y-85273395D01*
X189186605Y-85475739D01*
X189358415Y-85604354D01*
X189415686Y-85647227D01*
X189555435Y-85723535D01*
X189666839Y-85784367D01*
X189934954Y-85884369D01*
X189934957Y-85884369D01*
X189934958Y-85884370D01*
X189970994Y-85892209D01*
X190214572Y-85945196D01*
X190500000Y-85965610D01*
X190785428Y-85945196D01*
X191065046Y-85884369D01*
X191333161Y-85784367D01*
X191584315Y-85647226D01*
X191813395Y-85475739D01*
X192015739Y-85273395D01*
X192187226Y-85044315D01*
X192324367Y-84793161D01*
X192424369Y-84525046D01*
X192485196Y-84245428D01*
X192505610Y-83960000D01*
X192485196Y-83674572D01*
X192424369Y-83394954D01*
X192324367Y-83126839D01*
X192263535Y-83015435D01*
X192187227Y-82875686D01*
X192093139Y-82750000D01*
X192015739Y-82646605D01*
X191813395Y-82444261D01*
X191621906Y-82300914D01*
X191584313Y-82272772D01*
X191333163Y-82135634D01*
X191333162Y-82135633D01*
X191333161Y-82135633D01*
X191109901Y-82052361D01*
X191065041Y-82035629D01*
X190785429Y-81974804D01*
X190500000Y-81954389D01*
X190214570Y-81974804D01*
X189934958Y-82035629D01*
X189666836Y-82135634D01*
X189415680Y-82272776D01*
X189403382Y-82281982D01*
X189349781Y-82304972D01*
X189291598Y-82300914D01*
X189241707Y-82270706D01*
X189211144Y-82221031D01*
X189209518Y-82216027D01*
X189126084Y-81959242D01*
X188989439Y-81668858D01*
X188943692Y-81596772D01*
X188817478Y-81397889D01*
X188612911Y-81150610D01*
X188378962Y-80930917D01*
X188119328Y-80742283D01*
X187838098Y-80587676D01*
X187539703Y-80469533D01*
X187228863Y-80389723D01*
X186910465Y-80349500D01*
X186910464Y-80349500D01*
X186589536Y-80349500D01*
X186589535Y-80349500D01*
X186271136Y-80389723D01*
X185960296Y-80469533D01*
X185661901Y-80587676D01*
X185380671Y-80742283D01*
X185121037Y-80930917D01*
X184887088Y-81150610D01*
X184682521Y-81397889D01*
X184510563Y-81668853D01*
X184373914Y-81959246D01*
X184274744Y-82264458D01*
X184214607Y-82579710D01*
X184194456Y-82899999D01*
X154723374Y-82899999D01*
X154660581Y-82800065D01*
X154544977Y-82684461D01*
X154406548Y-82597480D01*
X154406545Y-82597478D01*
X154252234Y-82543482D01*
X154089773Y-82525177D01*
X153927311Y-82543482D01*
X153773000Y-82597478D01*
X153634567Y-82684462D01*
X153518966Y-82800063D01*
X153431982Y-82938496D01*
X153377986Y-83092807D01*
X153359681Y-83255269D01*
X145781281Y-83255269D01*
X145705204Y-83179192D01*
X145566775Y-83092211D01*
X145566772Y-83092209D01*
X145412461Y-83038213D01*
X145250000Y-83019908D01*
X145087538Y-83038213D01*
X144933227Y-83092209D01*
X144794794Y-83179193D01*
X144679193Y-83294794D01*
X144592209Y-83433227D01*
X144538213Y-83587538D01*
X144519908Y-83749999D01*
X137776013Y-83749999D01*
X137820808Y-83705204D01*
X137907789Y-83566775D01*
X137961786Y-83412461D01*
X137980091Y-83250000D01*
X137964546Y-83112039D01*
X137961786Y-83087538D01*
X137907790Y-82933227D01*
X137907789Y-82933225D01*
X137820808Y-82794796D01*
X137705204Y-82679192D01*
X137566775Y-82592211D01*
X137566772Y-82592209D01*
X137412461Y-82538213D01*
X137249999Y-82519908D01*
X137087538Y-82538213D01*
X136933227Y-82592209D01*
X136794794Y-82679193D01*
X136679193Y-82794794D01*
X136592209Y-82933227D01*
X136538213Y-83087538D01*
X136519908Y-83250000D01*
X131727330Y-83250000D01*
X131727330Y-83249999D01*
X131711786Y-83112038D01*
X131657790Y-82957727D01*
X131657789Y-82957725D01*
X131570808Y-82819296D01*
X131455204Y-82703692D01*
X131316775Y-82616711D01*
X131316772Y-82616709D01*
X131162461Y-82562713D01*
X131000000Y-82544408D01*
X130837538Y-82562713D01*
X130683227Y-82616709D01*
X130544794Y-82703693D01*
X130429193Y-82819294D01*
X130342209Y-82957727D01*
X130288213Y-83112038D01*
X130269908Y-83274499D01*
X127962706Y-83274499D01*
X127938726Y-83130794D01*
X127937368Y-83126839D01*
X127861349Y-82905404D01*
X127861349Y-82905403D01*
X127747929Y-82695821D01*
X127747927Y-82695817D01*
X127601563Y-82507768D01*
X127601560Y-82507765D01*
X127426234Y-82346367D01*
X127226734Y-82216027D01*
X127008502Y-82120301D01*
X126777490Y-82061801D01*
X126777488Y-82061800D01*
X126777485Y-82061800D01*
X126599478Y-82047050D01*
X126599472Y-82047050D01*
X126480528Y-82047050D01*
X126480522Y-82047050D01*
X126302514Y-82061800D01*
X126302510Y-82061800D01*
X126302510Y-82061801D01*
X126071498Y-82120301D01*
X125853266Y-82216027D01*
X125653766Y-82346367D01*
X125653764Y-82346368D01*
X125653765Y-82346368D01*
X125478436Y-82507768D01*
X125332072Y-82695817D01*
X125218650Y-82905404D01*
X125141274Y-83130790D01*
X125102050Y-83365849D01*
X125102050Y-83604151D01*
X125141274Y-83839209D01*
X125218650Y-84064595D01*
X125332072Y-84274182D01*
X125478436Y-84462231D01*
X125478439Y-84462233D01*
X125478440Y-84462235D01*
X125653766Y-84623633D01*
X125796049Y-84716591D01*
X125834087Y-84755828D01*
X125851564Y-84807607D01*
X125845085Y-84861872D01*
X125815907Y-84908080D01*
X125786152Y-84937835D01*
X125741728Y-84966364D01*
X125689462Y-84973826D01*
X125638829Y-84958868D01*
X125599008Y-84924202D01*
X125586082Y-84906840D01*
X125562168Y-84874717D01*
X125542070Y-84857853D01*
X125428615Y-84762652D01*
X125428614Y-84762651D01*
X125272815Y-84684406D01*
X125103171Y-84644200D01*
X124972564Y-84644200D01*
X124894727Y-84653297D01*
X124842834Y-84659363D01*
X124679005Y-84718992D01*
X124533346Y-84814794D01*
X124413704Y-84941606D01*
X124326533Y-85092591D01*
X124276531Y-85259613D01*
X124266392Y-85433659D01*
X123728521Y-85433659D01*
X123733607Y-85346340D01*
X123703332Y-85174646D01*
X123634279Y-85014562D01*
X123530168Y-84874717D01*
X123510070Y-84857853D01*
X123396615Y-84762652D01*
X123396614Y-84762651D01*
X123240815Y-84684406D01*
X123071171Y-84644200D01*
X122940564Y-84644200D01*
X122862727Y-84653297D01*
X122810834Y-84659363D01*
X122647005Y-84718992D01*
X122504828Y-84812504D01*
X122502551Y-84813292D01*
X122502237Y-84813850D01*
X122381704Y-84941606D01*
X122294533Y-85092591D01*
X122244531Y-85259613D01*
X122234392Y-85433659D01*
X109500500Y-85433659D01*
X109500500Y-83604151D01*
X120022050Y-83604151D01*
X120061274Y-83839209D01*
X120138650Y-84064595D01*
X120252072Y-84274182D01*
X120398436Y-84462231D01*
X120398439Y-84462233D01*
X120398440Y-84462235D01*
X120573766Y-84623633D01*
X120773266Y-84753973D01*
X120991498Y-84849699D01*
X121222510Y-84908199D01*
X121293717Y-84914099D01*
X121400522Y-84922950D01*
X121400528Y-84922950D01*
X121519472Y-84922950D01*
X121519478Y-84922950D01*
X121616572Y-84914904D01*
X121697490Y-84908199D01*
X121928502Y-84849699D01*
X122146734Y-84753973D01*
X122344224Y-84624945D01*
X122349064Y-84623252D01*
X122352707Y-84617674D01*
X122521560Y-84462235D01*
X122667929Y-84274179D01*
X122781349Y-84064597D01*
X122858726Y-83839206D01*
X122897950Y-83604152D01*
X122897950Y-83365848D01*
X122858726Y-83130794D01*
X122857368Y-83126839D01*
X122781349Y-82905404D01*
X122781349Y-82905403D01*
X122667929Y-82695821D01*
X122667927Y-82695817D01*
X122521563Y-82507768D01*
X122521560Y-82507765D01*
X122346234Y-82346367D01*
X122146734Y-82216027D01*
X121928502Y-82120301D01*
X121697490Y-82061801D01*
X121697488Y-82061800D01*
X121697485Y-82061800D01*
X121519478Y-82047050D01*
X121519472Y-82047050D01*
X121400528Y-82047050D01*
X121400522Y-82047050D01*
X121222514Y-82061800D01*
X121222510Y-82061800D01*
X121222510Y-82061801D01*
X120991498Y-82120301D01*
X120773266Y-82216027D01*
X120573766Y-82346367D01*
X120573764Y-82346368D01*
X120573765Y-82346368D01*
X120398436Y-82507768D01*
X120252072Y-82695817D01*
X120138650Y-82905404D01*
X120061274Y-83130790D01*
X120022050Y-83365849D01*
X120022050Y-83604151D01*
X109500500Y-83604151D01*
X109500500Y-80429152D01*
X120022050Y-80429152D01*
X120028789Y-80469534D01*
X120061274Y-80664209D01*
X120138650Y-80889595D01*
X120252072Y-81099182D01*
X120398436Y-81287231D01*
X120398439Y-81287233D01*
X120398440Y-81287235D01*
X120573766Y-81448633D01*
X120773266Y-81578973D01*
X120991498Y-81674699D01*
X121222510Y-81733199D01*
X121293717Y-81739099D01*
X121400522Y-81747950D01*
X121400528Y-81747950D01*
X121519472Y-81747950D01*
X121519478Y-81747950D01*
X121616572Y-81739904D01*
X121697490Y-81733199D01*
X121928502Y-81674699D01*
X122146734Y-81578973D01*
X122346234Y-81448633D01*
X122521560Y-81287235D01*
X122667929Y-81099179D01*
X122781349Y-80889597D01*
X122858726Y-80664206D01*
X122897950Y-80429152D01*
X122897950Y-80190848D01*
X122858726Y-79955794D01*
X122796363Y-79774139D01*
X122791490Y-79712566D01*
X122816927Y-79656279D01*
X122866362Y-79619247D01*
X122927529Y-79610658D01*
X122937538Y-79611785D01*
X122937539Y-79611786D01*
X123100000Y-79630091D01*
X123262461Y-79611786D01*
X123335736Y-79586145D01*
X123400854Y-79581564D01*
X123459277Y-79610692D01*
X123494809Y-79665457D01*
X123497603Y-79730679D01*
X123466884Y-79788281D01*
X123397703Y-79861608D01*
X123310533Y-80012591D01*
X123260531Y-80179613D01*
X123250392Y-80353659D01*
X123265685Y-80440386D01*
X123280668Y-80525354D01*
X123349721Y-80685438D01*
X123453832Y-80825283D01*
X123587386Y-80937349D01*
X123743185Y-81015594D01*
X123912829Y-81055800D01*
X124043433Y-81055800D01*
X124043436Y-81055800D01*
X124173164Y-81040637D01*
X124336993Y-80981008D01*
X124482654Y-80885205D01*
X124602296Y-80758393D01*
X124689467Y-80607407D01*
X124739469Y-80440388D01*
X124740123Y-80429152D01*
X125102050Y-80429152D01*
X125108789Y-80469534D01*
X125141274Y-80664209D01*
X125218650Y-80889595D01*
X125332072Y-81099182D01*
X125478436Y-81287231D01*
X125478439Y-81287233D01*
X125478440Y-81287235D01*
X125653766Y-81448633D01*
X125853266Y-81578973D01*
X126071498Y-81674699D01*
X126302510Y-81733199D01*
X126373717Y-81739099D01*
X126480522Y-81747950D01*
X126480528Y-81747950D01*
X126599472Y-81747950D01*
X126599478Y-81747950D01*
X126696572Y-81739904D01*
X126777490Y-81733199D01*
X127008502Y-81674699D01*
X127226734Y-81578973D01*
X127426234Y-81448633D01*
X127601560Y-81287235D01*
X127607192Y-81279999D01*
X149919908Y-81279999D01*
X149938213Y-81442461D01*
X149992209Y-81596772D01*
X149992211Y-81596775D01*
X150079192Y-81735204D01*
X150194796Y-81850808D01*
X150301273Y-81917712D01*
X150333227Y-81937790D01*
X150487538Y-81991786D01*
X150650000Y-82010091D01*
X150812461Y-81991786D01*
X150966775Y-81937789D01*
X151105204Y-81850808D01*
X151220808Y-81735204D01*
X151307789Y-81596775D01*
X151361786Y-81442461D01*
X151366569Y-81400008D01*
X161424500Y-81400008D01*
X161435000Y-81502796D01*
X161490186Y-81669334D01*
X161582288Y-81818657D01*
X161706342Y-81942711D01*
X161733150Y-81959246D01*
X161815583Y-82010091D01*
X161861558Y-82038448D01*
X161901042Y-82077361D01*
X161919623Y-82129591D01*
X161913589Y-82184698D01*
X161884144Y-82231668D01*
X161736890Y-82378922D01*
X161601399Y-82572423D01*
X161518593Y-82749999D01*
X161518593Y-82750000D01*
X164331406Y-82750000D01*
X164331405Y-82749999D01*
X164248599Y-82572421D01*
X164113109Y-82378921D01*
X163965856Y-82231668D01*
X163936411Y-82184698D01*
X163930376Y-82129591D01*
X163948957Y-82077361D01*
X163988441Y-82038448D01*
X163994331Y-82034814D01*
X163994334Y-82034814D01*
X164143656Y-81942712D01*
X164267712Y-81818656D01*
X164359814Y-81669334D01*
X164414999Y-81502797D01*
X164425500Y-81400009D01*
X164425500Y-81400008D01*
X168999500Y-81400008D01*
X169010000Y-81502796D01*
X169065186Y-81669334D01*
X169157288Y-81818657D01*
X169281342Y-81942711D01*
X169308150Y-81959246D01*
X169390583Y-82010091D01*
X169436558Y-82038448D01*
X169476042Y-82077361D01*
X169494623Y-82129591D01*
X169488589Y-82184698D01*
X169459144Y-82231668D01*
X169311890Y-82378922D01*
X169176399Y-82572423D01*
X169093593Y-82749999D01*
X169093593Y-82750000D01*
X171906406Y-82750000D01*
X171906405Y-82749999D01*
X171823599Y-82572421D01*
X171688109Y-82378921D01*
X171540856Y-82231668D01*
X171511411Y-82184698D01*
X171505376Y-82129591D01*
X171523957Y-82077361D01*
X171563441Y-82038448D01*
X171569331Y-82034814D01*
X171569334Y-82034814D01*
X171718656Y-81942712D01*
X171842712Y-81818656D01*
X171934814Y-81669334D01*
X171989999Y-81502797D01*
X172000500Y-81400009D01*
X172000500Y-81375008D01*
X176624500Y-81375008D01*
X176635000Y-81477796D01*
X176690186Y-81644334D01*
X176782288Y-81793657D01*
X176906342Y-81917711D01*
X177061558Y-82013448D01*
X177101042Y-82052361D01*
X177119623Y-82104591D01*
X177113589Y-82159698D01*
X177084144Y-82206668D01*
X176936890Y-82353922D01*
X176801399Y-82547423D01*
X176718593Y-82724999D01*
X176718593Y-82725000D01*
X179531406Y-82725000D01*
X179531405Y-82724999D01*
X179448599Y-82547421D01*
X179313109Y-82353921D01*
X179165856Y-82206668D01*
X179136411Y-82159698D01*
X179130376Y-82104591D01*
X179148957Y-82052361D01*
X179188441Y-82013448D01*
X179194331Y-82009814D01*
X179194334Y-82009814D01*
X179343656Y-81917712D01*
X179467712Y-81793656D01*
X179559814Y-81644334D01*
X179614999Y-81477797D01*
X179625500Y-81375009D01*
X179625499Y-80247869D01*
X191249500Y-80247869D01*
X191255909Y-80307484D01*
X191273132Y-80353660D01*
X191306204Y-80442331D01*
X191392454Y-80557546D01*
X191507669Y-80643796D01*
X191642517Y-80694091D01*
X191702127Y-80700500D01*
X193797872Y-80700499D01*
X193857483Y-80694091D01*
X193992331Y-80643796D01*
X194107546Y-80557546D01*
X194193796Y-80442331D01*
X194244091Y-80307483D01*
X194250500Y-80247873D01*
X194250499Y-79252128D01*
X194244091Y-79192517D01*
X194193796Y-79057669D01*
X194107546Y-78942454D01*
X193992331Y-78856204D01*
X193857483Y-78805909D01*
X193797873Y-78799500D01*
X193797869Y-78799500D01*
X191702130Y-78799500D01*
X191642515Y-78805909D01*
X191507669Y-78856204D01*
X191392454Y-78942454D01*
X191306204Y-79057668D01*
X191255909Y-79192516D01*
X191249500Y-79252130D01*
X191249500Y-80247869D01*
X179625499Y-80247869D01*
X179625499Y-80074992D01*
X179614999Y-79972203D01*
X179559814Y-79805666D01*
X179467712Y-79656344D01*
X179467711Y-79656342D01*
X179343657Y-79532288D01*
X179194334Y-79440186D01*
X179027797Y-79385000D01*
X178925009Y-79374500D01*
X177324991Y-79374500D01*
X177222203Y-79385000D01*
X177055665Y-79440186D01*
X176906342Y-79532288D01*
X176782288Y-79656342D01*
X176690186Y-79805665D01*
X176635000Y-79972202D01*
X176624500Y-80074990D01*
X176624500Y-81375008D01*
X172000500Y-81375008D01*
X172000499Y-80099992D01*
X171989999Y-79997203D01*
X171934814Y-79830666D01*
X171842712Y-79681344D01*
X171842711Y-79681342D01*
X171718657Y-79557288D01*
X171569334Y-79465186D01*
X171402797Y-79410000D01*
X171300009Y-79399500D01*
X169699991Y-79399500D01*
X169597203Y-79410000D01*
X169430665Y-79465186D01*
X169281342Y-79557288D01*
X169157288Y-79681342D01*
X169065186Y-79830665D01*
X169010000Y-79997202D01*
X168999500Y-80099990D01*
X168999500Y-81400008D01*
X164425500Y-81400008D01*
X164425499Y-80099992D01*
X164414999Y-79997203D01*
X164359814Y-79830666D01*
X164267712Y-79681344D01*
X164267711Y-79681342D01*
X164143657Y-79557288D01*
X163994334Y-79465186D01*
X163827797Y-79410000D01*
X163725009Y-79399500D01*
X162124991Y-79399500D01*
X162022203Y-79410000D01*
X161855665Y-79465186D01*
X161706342Y-79557288D01*
X161582288Y-79681342D01*
X161490186Y-79830665D01*
X161435000Y-79997202D01*
X161424500Y-80099990D01*
X161424500Y-81400008D01*
X151366569Y-81400008D01*
X151380091Y-81280000D01*
X151361786Y-81117539D01*
X151334876Y-81040636D01*
X151307790Y-80963227D01*
X151291530Y-80937349D01*
X151220808Y-80824796D01*
X151105204Y-80709192D01*
X150966775Y-80622211D01*
X150966772Y-80622209D01*
X150812461Y-80568213D01*
X150650000Y-80549908D01*
X150487538Y-80568213D01*
X150333227Y-80622209D01*
X150194794Y-80709193D01*
X150079193Y-80824794D01*
X149992209Y-80963227D01*
X149938213Y-81117538D01*
X149919908Y-81279999D01*
X127607192Y-81279999D01*
X127747929Y-81099179D01*
X127861349Y-80889597D01*
X127938726Y-80664206D01*
X127977950Y-80429152D01*
X127977950Y-80190848D01*
X127938726Y-79955794D01*
X127906391Y-79861607D01*
X127887187Y-79805666D01*
X127861349Y-79730403D01*
X127747929Y-79520821D01*
X127747927Y-79520817D01*
X127601563Y-79332768D01*
X127566843Y-79300806D01*
X127426234Y-79171367D01*
X127226734Y-79041027D01*
X127008502Y-78945301D01*
X126777490Y-78886801D01*
X126777488Y-78886800D01*
X126777485Y-78886800D01*
X126599478Y-78872050D01*
X126599472Y-78872050D01*
X126480528Y-78872050D01*
X126480522Y-78872050D01*
X126302514Y-78886800D01*
X126302510Y-78886800D01*
X126302510Y-78886801D01*
X126071498Y-78945301D01*
X125853266Y-79041027D01*
X125653766Y-79171367D01*
X125653764Y-79171368D01*
X125653765Y-79171368D01*
X125478436Y-79332768D01*
X125332072Y-79520817D01*
X125218650Y-79730404D01*
X125141274Y-79955790D01*
X125117211Y-80099992D01*
X125102050Y-80190848D01*
X125102050Y-80429152D01*
X124740123Y-80429152D01*
X124749607Y-80266340D01*
X124719332Y-80094646D01*
X124650279Y-79934562D01*
X124546168Y-79794717D01*
X124412614Y-79682651D01*
X124256815Y-79604406D01*
X124087171Y-79564200D01*
X123956564Y-79564200D01*
X123891700Y-79571781D01*
X123826833Y-79579363D01*
X123754680Y-79605625D01*
X123688609Y-79610825D01*
X123629297Y-79581252D01*
X123593688Y-79525356D01*
X123591954Y-79459104D01*
X123624588Y-79401423D01*
X123670808Y-79355204D01*
X123757789Y-79216775D01*
X123811786Y-79062461D01*
X123830091Y-78900000D01*
X123825156Y-78856204D01*
X123813190Y-78750000D01*
X132099908Y-78750000D01*
X132118213Y-78912461D01*
X132172209Y-79066772D01*
X132172211Y-79066775D01*
X132259192Y-79205204D01*
X132374796Y-79320808D01*
X132513225Y-79407789D01*
X132513227Y-79407790D01*
X132667538Y-79461786D01*
X132830000Y-79480091D01*
X132992461Y-79461786D01*
X133146775Y-79407789D01*
X133285204Y-79320808D01*
X133400808Y-79205204D01*
X133487789Y-79066775D01*
X133541786Y-78912461D01*
X133560091Y-78750000D01*
X133557837Y-78730000D01*
X135559908Y-78730000D01*
X135578213Y-78892461D01*
X135632209Y-79046772D01*
X135639056Y-79057669D01*
X135719192Y-79185204D01*
X135834796Y-79300808D01*
X135968788Y-79385001D01*
X135973227Y-79387790D01*
X136127538Y-79441786D01*
X136290000Y-79460091D01*
X136452461Y-79441786D01*
X136606775Y-79387789D01*
X136745204Y-79300808D01*
X136860808Y-79185204D01*
X136947789Y-79046775D01*
X137001786Y-78892461D01*
X137017838Y-78750000D01*
X146799908Y-78750000D01*
X146818213Y-78912461D01*
X146872209Y-79066772D01*
X146872211Y-79066775D01*
X146959192Y-79205204D01*
X147074796Y-79320808D01*
X147213225Y-79407789D01*
X147213227Y-79407790D01*
X147367538Y-79461786D01*
X147530000Y-79480091D01*
X147692461Y-79461786D01*
X147846775Y-79407789D01*
X147985204Y-79320808D01*
X148100808Y-79205204D01*
X148187789Y-79066775D01*
X148241786Y-78912461D01*
X148260091Y-78750000D01*
X148248575Y-78647789D01*
X148241786Y-78587538D01*
X148187790Y-78433227D01*
X148162018Y-78392211D01*
X148100808Y-78294796D01*
X147985204Y-78179192D01*
X147846775Y-78092211D01*
X147846772Y-78092209D01*
X147692461Y-78038213D01*
X147530000Y-78019908D01*
X147367538Y-78038213D01*
X147213227Y-78092209D01*
X147074794Y-78179193D01*
X146959193Y-78294794D01*
X146872209Y-78433227D01*
X146818213Y-78587538D01*
X146799908Y-78750000D01*
X137017838Y-78750000D01*
X137020091Y-78730000D01*
X137004857Y-78594794D01*
X137001786Y-78567538D01*
X136947790Y-78413227D01*
X136934585Y-78392211D01*
X136860808Y-78274796D01*
X136745204Y-78159192D01*
X136606775Y-78072211D01*
X136606772Y-78072209D01*
X136452461Y-78018213D01*
X136290000Y-77999908D01*
X136127538Y-78018213D01*
X135973227Y-78072209D01*
X135834794Y-78159193D01*
X135719193Y-78274794D01*
X135632209Y-78413227D01*
X135578213Y-78567538D01*
X135559908Y-78730000D01*
X133557837Y-78730000D01*
X133548574Y-78647788D01*
X133541786Y-78587538D01*
X133503874Y-78479193D01*
X133487789Y-78433225D01*
X133422254Y-78328927D01*
X133403248Y-78262957D01*
X133422253Y-78196988D01*
X133497789Y-78076775D01*
X133528153Y-77989999D01*
X142959908Y-77989999D01*
X142978213Y-78152461D01*
X143032209Y-78306772D01*
X143038791Y-78317247D01*
X143119192Y-78445204D01*
X143234796Y-78560808D01*
X143373225Y-78647789D01*
X143373227Y-78647790D01*
X143527538Y-78701786D01*
X143690000Y-78720091D01*
X143852461Y-78701786D01*
X144006775Y-78647789D01*
X144129562Y-78570636D01*
X144195535Y-78551629D01*
X144261507Y-78570636D01*
X144384296Y-78647790D01*
X144395542Y-78654856D01*
X144466792Y-78679787D01*
X144549855Y-78708853D01*
X144712317Y-78727158D01*
X144874778Y-78708853D01*
X145029092Y-78654856D01*
X145167521Y-78567875D01*
X145167522Y-78567873D01*
X145179351Y-78560441D01*
X145180995Y-78563057D01*
X145216090Y-78542789D01*
X145280284Y-78542783D01*
X145319472Y-78565407D01*
X145320452Y-78563849D01*
X145332280Y-78571281D01*
X145332282Y-78571283D01*
X145465289Y-78654857D01*
X145470713Y-78658265D01*
X145625024Y-78712261D01*
X145787486Y-78730566D01*
X145949947Y-78712261D01*
X146104261Y-78658264D01*
X146242690Y-78571283D01*
X146358294Y-78455679D01*
X146445275Y-78317250D01*
X146499272Y-78162936D01*
X146517577Y-78000475D01*
X146502733Y-77868732D01*
X153362344Y-77868732D01*
X153380649Y-78031193D01*
X153434645Y-78185504D01*
X153453307Y-78215204D01*
X153521628Y-78323936D01*
X153637232Y-78439540D01*
X153775661Y-78526521D01*
X153775663Y-78526522D01*
X153929974Y-78580518D01*
X154092436Y-78598823D01*
X154254897Y-78580518D01*
X154409211Y-78526521D01*
X154547640Y-78439540D01*
X154640585Y-78346594D01*
X154696172Y-78314501D01*
X154760360Y-78314501D01*
X154815947Y-78346594D01*
X154910662Y-78441310D01*
X155046274Y-78526521D01*
X155049093Y-78528292D01*
X155203404Y-78582288D01*
X155365866Y-78600593D01*
X155528327Y-78582288D01*
X155682641Y-78528291D01*
X155821070Y-78441310D01*
X155936674Y-78325706D01*
X156023655Y-78187277D01*
X156077652Y-78032963D01*
X156095957Y-77870502D01*
X156080898Y-77736850D01*
X156077652Y-77708040D01*
X156023656Y-77553729D01*
X156022543Y-77551957D01*
X155936674Y-77415298D01*
X155821070Y-77299694D01*
X155682641Y-77212713D01*
X155682638Y-77212711D01*
X155528327Y-77158715D01*
X155365866Y-77140410D01*
X155203404Y-77158715D01*
X155049093Y-77212711D01*
X154910660Y-77299695D01*
X154817717Y-77392639D01*
X154762130Y-77424733D01*
X154697942Y-77424733D01*
X154642355Y-77392639D01*
X154547641Y-77297925D01*
X154547641Y-77297924D01*
X154547640Y-77297924D01*
X154409211Y-77210943D01*
X154409208Y-77210941D01*
X154254897Y-77156945D01*
X154092436Y-77138640D01*
X153929974Y-77156945D01*
X153775663Y-77210941D01*
X153637230Y-77297925D01*
X153521629Y-77413526D01*
X153434645Y-77551959D01*
X153380649Y-77706270D01*
X153362344Y-77868732D01*
X146502733Y-77868732D01*
X146499272Y-77838014D01*
X146495606Y-77827538D01*
X146445276Y-77683702D01*
X146438693Y-77673225D01*
X146358294Y-77545271D01*
X146242690Y-77429667D01*
X146104261Y-77342686D01*
X146104258Y-77342684D01*
X145949947Y-77288688D01*
X145787486Y-77270383D01*
X145625024Y-77288688D01*
X145470713Y-77342684D01*
X145320452Y-77437100D01*
X145318810Y-77434487D01*
X145283670Y-77454762D01*
X145219497Y-77454751D01*
X145180330Y-77432134D01*
X145179351Y-77433693D01*
X145167522Y-77426260D01*
X145167521Y-77426259D01*
X145029092Y-77339278D01*
X145029089Y-77339276D01*
X144874778Y-77285280D01*
X144712317Y-77266975D01*
X144549855Y-77285280D01*
X144395544Y-77339276D01*
X144272753Y-77416431D01*
X144206781Y-77435437D01*
X144140810Y-77416431D01*
X144006775Y-77332211D01*
X144006772Y-77332209D01*
X143852461Y-77278213D01*
X143689999Y-77259908D01*
X143527538Y-77278213D01*
X143373227Y-77332209D01*
X143234794Y-77419193D01*
X143119193Y-77534794D01*
X143032209Y-77673227D01*
X142978213Y-77827538D01*
X142959908Y-77989999D01*
X133528153Y-77989999D01*
X133551786Y-77922461D01*
X133551785Y-77922461D01*
X133562434Y-77827960D01*
X133580660Y-77775872D01*
X133619682Y-77736850D01*
X133671770Y-77718624D01*
X133732461Y-77711786D01*
X133886775Y-77657789D01*
X134025204Y-77570808D01*
X134140808Y-77455204D01*
X134227789Y-77316775D01*
X134281786Y-77162461D01*
X134300091Y-77000000D01*
X134281786Y-76837539D01*
X134227789Y-76683225D01*
X134140808Y-76544796D01*
X134025204Y-76429192D01*
X133886775Y-76342211D01*
X133886772Y-76342209D01*
X133732461Y-76288213D01*
X133570000Y-76269908D01*
X133407538Y-76288213D01*
X133253227Y-76342209D01*
X133114794Y-76429193D01*
X132999193Y-76544794D01*
X132912209Y-76683227D01*
X132858213Y-76837538D01*
X132847565Y-76932040D01*
X132829339Y-76984127D01*
X132790317Y-77023149D01*
X132738230Y-77041375D01*
X132677538Y-77048213D01*
X132523227Y-77102209D01*
X132384794Y-77189193D01*
X132269193Y-77304794D01*
X132182209Y-77443227D01*
X132128213Y-77597538D01*
X132109908Y-77759999D01*
X132128213Y-77922461D01*
X132180613Y-78072209D01*
X132182211Y-78076775D01*
X132247744Y-78181070D01*
X132266751Y-78247042D01*
X132247745Y-78313013D01*
X132237579Y-78329193D01*
X132172209Y-78433227D01*
X132118213Y-78587538D01*
X132099908Y-78750000D01*
X123813190Y-78750000D01*
X123811786Y-78737538D01*
X123757790Y-78583227D01*
X123750284Y-78571281D01*
X123670808Y-78444796D01*
X123555204Y-78329192D01*
X123429171Y-78250000D01*
X123416772Y-78242209D01*
X123262461Y-78188213D01*
X123100000Y-78169908D01*
X122937538Y-78188213D01*
X122783227Y-78242209D01*
X122644794Y-78329193D01*
X122529193Y-78444794D01*
X122442209Y-78583227D01*
X122388213Y-78737538D01*
X122369908Y-78900000D01*
X122375299Y-78947852D01*
X122363559Y-79016031D01*
X122317118Y-79067308D01*
X122250431Y-79085723D01*
X122184259Y-79065543D01*
X122146734Y-79041027D01*
X121928502Y-78945301D01*
X121697490Y-78886801D01*
X121697488Y-78886800D01*
X121697485Y-78886800D01*
X121519478Y-78872050D01*
X121519472Y-78872050D01*
X121400528Y-78872050D01*
X121400522Y-78872050D01*
X121222514Y-78886800D01*
X121222510Y-78886800D01*
X121222510Y-78886801D01*
X120991498Y-78945301D01*
X120773266Y-79041027D01*
X120573766Y-79171367D01*
X120573764Y-79171368D01*
X120573765Y-79171368D01*
X120398436Y-79332768D01*
X120252072Y-79520817D01*
X120138650Y-79730404D01*
X120061274Y-79955790D01*
X120037211Y-80099992D01*
X120022050Y-80190848D01*
X120022050Y-80429152D01*
X109500500Y-80429152D01*
X109500500Y-79049999D01*
X117269908Y-79049999D01*
X117288213Y-79212461D01*
X117342209Y-79366772D01*
X117353663Y-79385000D01*
X117429192Y-79505204D01*
X117544796Y-79620808D01*
X117643220Y-79682652D01*
X117683227Y-79707790D01*
X117837538Y-79761786D01*
X118000000Y-79780091D01*
X118162461Y-79761786D01*
X118316775Y-79707789D01*
X118455204Y-79620808D01*
X118570808Y-79505204D01*
X118657789Y-79366775D01*
X118711786Y-79212461D01*
X118730091Y-79050000D01*
X118717973Y-78942454D01*
X118711786Y-78887538D01*
X118657790Y-78733227D01*
X118656118Y-78730566D01*
X118570808Y-78594796D01*
X118455204Y-78479192D01*
X118316775Y-78392211D01*
X118316772Y-78392209D01*
X118162461Y-78338213D01*
X118000000Y-78319908D01*
X117837538Y-78338213D01*
X117683227Y-78392209D01*
X117544794Y-78479193D01*
X117429193Y-78594794D01*
X117342209Y-78733227D01*
X117288213Y-78887538D01*
X117269908Y-79049999D01*
X109500500Y-79049999D01*
X109500500Y-74723657D01*
X118443448Y-74723657D01*
X118627045Y-74823909D01*
X118895100Y-74923889D01*
X119174642Y-74984699D01*
X119460000Y-75005109D01*
X119745357Y-74984699D01*
X120024899Y-74923889D01*
X120292954Y-74823909D01*
X120476550Y-74723658D01*
X120476550Y-74723657D01*
X120300762Y-74547869D01*
X122539500Y-74547869D01*
X122545909Y-74607483D01*
X122596204Y-74742331D01*
X122682454Y-74857546D01*
X122797669Y-74943796D01*
X122932517Y-74994091D01*
X122992127Y-75000500D01*
X126087872Y-75000499D01*
X126147483Y-74994091D01*
X126282331Y-74943796D01*
X126397546Y-74857546D01*
X126483796Y-74742331D01*
X126490761Y-74723657D01*
X130443448Y-74723657D01*
X130627045Y-74823909D01*
X130895100Y-74923889D01*
X131174642Y-74984699D01*
X131460000Y-75005109D01*
X131745357Y-74984699D01*
X132024899Y-74923889D01*
X132292954Y-74823909D01*
X132476550Y-74723658D01*
X132476550Y-74723657D01*
X132300762Y-74547869D01*
X134539500Y-74547869D01*
X134545909Y-74607483D01*
X134596204Y-74742331D01*
X134682454Y-74857546D01*
X134797669Y-74943796D01*
X134932517Y-74994091D01*
X134992127Y-75000500D01*
X138087872Y-75000499D01*
X138147483Y-74994091D01*
X138282331Y-74943796D01*
X138397546Y-74857546D01*
X138483796Y-74742331D01*
X138490761Y-74723657D01*
X142443448Y-74723657D01*
X142627045Y-74823909D01*
X142895100Y-74923889D01*
X143174642Y-74984699D01*
X143460000Y-75005109D01*
X143745357Y-74984699D01*
X144024899Y-74923889D01*
X144292954Y-74823909D01*
X144476550Y-74723658D01*
X144476550Y-74723657D01*
X144300762Y-74547869D01*
X146539500Y-74547869D01*
X146545909Y-74607483D01*
X146596204Y-74742331D01*
X146682454Y-74857546D01*
X146797669Y-74943796D01*
X146932517Y-74994091D01*
X146992127Y-75000500D01*
X150087872Y-75000499D01*
X150147483Y-74994091D01*
X150282331Y-74943796D01*
X150397546Y-74857546D01*
X150483796Y-74742331D01*
X150490761Y-74723657D01*
X154443448Y-74723657D01*
X154627045Y-74823909D01*
X154895100Y-74923889D01*
X155174642Y-74984699D01*
X155460000Y-75005109D01*
X155745357Y-74984699D01*
X156024899Y-74923889D01*
X156292954Y-74823909D01*
X156476550Y-74723658D01*
X156476550Y-74723657D01*
X156300762Y-74547869D01*
X158539500Y-74547869D01*
X158545909Y-74607483D01*
X158596204Y-74742331D01*
X158682454Y-74857546D01*
X158797669Y-74943796D01*
X158932517Y-74994091D01*
X158992127Y-75000500D01*
X162087872Y-75000499D01*
X162147483Y-74994091D01*
X162282331Y-74943796D01*
X162397546Y-74857546D01*
X162483796Y-74742331D01*
X162490761Y-74723657D01*
X166443448Y-74723657D01*
X166627045Y-74823909D01*
X166895100Y-74923889D01*
X167174642Y-74984699D01*
X167460000Y-75005109D01*
X167745357Y-74984699D01*
X168024899Y-74923889D01*
X168292954Y-74823909D01*
X168476550Y-74723658D01*
X168476550Y-74723657D01*
X168300762Y-74547869D01*
X170539500Y-74547869D01*
X170545909Y-74607483D01*
X170596204Y-74742331D01*
X170682454Y-74857546D01*
X170797669Y-74943796D01*
X170932517Y-74994091D01*
X170992127Y-75000500D01*
X174087872Y-75000499D01*
X174147483Y-74994091D01*
X174282331Y-74943796D01*
X174397546Y-74857546D01*
X174483796Y-74742331D01*
X174490761Y-74723657D01*
X178443448Y-74723657D01*
X178627045Y-74823909D01*
X178895100Y-74923889D01*
X179174642Y-74984699D01*
X179460000Y-75005109D01*
X179745357Y-74984699D01*
X180024899Y-74923889D01*
X180292954Y-74823909D01*
X180476550Y-74723658D01*
X180476550Y-74723657D01*
X180300762Y-74547869D01*
X182539500Y-74547869D01*
X182545909Y-74607483D01*
X182596204Y-74742331D01*
X182682454Y-74857546D01*
X182797669Y-74943796D01*
X182932517Y-74994091D01*
X182992127Y-75000500D01*
X186087872Y-75000499D01*
X186147483Y-74994091D01*
X186282331Y-74943796D01*
X186397546Y-74857546D01*
X186483796Y-74742331D01*
X186534091Y-74607483D01*
X186540500Y-74547873D01*
X186540499Y-71452128D01*
X186534091Y-71392517D01*
X186483796Y-71257669D01*
X186397546Y-71142454D01*
X186282331Y-71056204D01*
X186147483Y-71005909D01*
X186087873Y-70999500D01*
X186087869Y-70999500D01*
X182992130Y-70999500D01*
X182932515Y-71005909D01*
X182797669Y-71056204D01*
X182682454Y-71142454D01*
X182596204Y-71257668D01*
X182545909Y-71392516D01*
X182539500Y-71452130D01*
X182539500Y-74547869D01*
X180300762Y-74547869D01*
X179460000Y-73707107D01*
X178443448Y-74723657D01*
X174490761Y-74723657D01*
X174534091Y-74607483D01*
X174540500Y-74547873D01*
X174540499Y-73000000D01*
X177454890Y-73000000D01*
X177475300Y-73285357D01*
X177536111Y-73564902D01*
X177636088Y-73832952D01*
X177736341Y-74016550D01*
X178752893Y-73000001D01*
X180167107Y-73000001D01*
X181183657Y-74016550D01*
X181183658Y-74016550D01*
X181283909Y-73832954D01*
X181383889Y-73564899D01*
X181444699Y-73285357D01*
X181465109Y-73000000D01*
X181444699Y-72714642D01*
X181383889Y-72435100D01*
X181283909Y-72167045D01*
X181183657Y-71983448D01*
X180167107Y-73000000D01*
X180167107Y-73000001D01*
X178752893Y-73000001D01*
X178752893Y-72999999D01*
X177736341Y-71983448D01*
X177736339Y-71983448D01*
X177636090Y-72167043D01*
X177536111Y-72435097D01*
X177475300Y-72714642D01*
X177454890Y-73000000D01*
X174540499Y-73000000D01*
X174540499Y-71452128D01*
X174534091Y-71392517D01*
X174490760Y-71276341D01*
X178443448Y-71276341D01*
X179460000Y-72292893D01*
X179460001Y-72292893D01*
X180476550Y-71276341D01*
X180476550Y-71276340D01*
X180292952Y-71176088D01*
X180024902Y-71076111D01*
X179745357Y-71015300D01*
X179460000Y-70994890D01*
X179174642Y-71015300D01*
X178895097Y-71076111D01*
X178627043Y-71176090D01*
X178443448Y-71276339D01*
X178443448Y-71276341D01*
X174490760Y-71276341D01*
X174483796Y-71257669D01*
X174397546Y-71142454D01*
X174282331Y-71056204D01*
X174147483Y-71005909D01*
X174087873Y-70999500D01*
X174087869Y-70999500D01*
X170992130Y-70999500D01*
X170932515Y-71005909D01*
X170797669Y-71056204D01*
X170682454Y-71142454D01*
X170596204Y-71257668D01*
X170545909Y-71392516D01*
X170539500Y-71452130D01*
X170539500Y-74547869D01*
X168300762Y-74547869D01*
X167460000Y-73707107D01*
X166443448Y-74723657D01*
X162490761Y-74723657D01*
X162534091Y-74607483D01*
X162540500Y-74547873D01*
X162540499Y-73000000D01*
X165454890Y-73000000D01*
X165475300Y-73285357D01*
X165536111Y-73564902D01*
X165636088Y-73832952D01*
X165736341Y-74016550D01*
X166752893Y-73000001D01*
X168167107Y-73000001D01*
X169183657Y-74016550D01*
X169183658Y-74016550D01*
X169283909Y-73832954D01*
X169383889Y-73564899D01*
X169444699Y-73285357D01*
X169465109Y-73000000D01*
X169444699Y-72714642D01*
X169383889Y-72435100D01*
X169283909Y-72167045D01*
X169183657Y-71983448D01*
X168167107Y-73000000D01*
X168167107Y-73000001D01*
X166752893Y-73000001D01*
X166752893Y-73000000D01*
X165736341Y-71983448D01*
X165736339Y-71983448D01*
X165636090Y-72167043D01*
X165536111Y-72435097D01*
X165475300Y-72714642D01*
X165454890Y-73000000D01*
X162540499Y-73000000D01*
X162540499Y-71452128D01*
X162534091Y-71392517D01*
X162490760Y-71276341D01*
X166443448Y-71276341D01*
X167460000Y-72292893D01*
X167460001Y-72292893D01*
X168476550Y-71276341D01*
X168476550Y-71276340D01*
X168292952Y-71176088D01*
X168024902Y-71076111D01*
X167745357Y-71015300D01*
X167460000Y-70994890D01*
X167174642Y-71015300D01*
X166895097Y-71076111D01*
X166627043Y-71176090D01*
X166443448Y-71276339D01*
X166443448Y-71276341D01*
X162490760Y-71276341D01*
X162483796Y-71257669D01*
X162397546Y-71142454D01*
X162282331Y-71056204D01*
X162147483Y-71005909D01*
X162087873Y-70999500D01*
X162087869Y-70999500D01*
X158992130Y-70999500D01*
X158932515Y-71005909D01*
X158797669Y-71056204D01*
X158682454Y-71142454D01*
X158596204Y-71257668D01*
X158545909Y-71392516D01*
X158539500Y-71452130D01*
X158539500Y-74547869D01*
X156300762Y-74547869D01*
X155460000Y-73707107D01*
X154443448Y-74723657D01*
X150490761Y-74723657D01*
X150534091Y-74607483D01*
X150540500Y-74547873D01*
X150540499Y-73000000D01*
X153454890Y-73000000D01*
X153475300Y-73285357D01*
X153536111Y-73564902D01*
X153636088Y-73832952D01*
X153736341Y-74016550D01*
X154752893Y-73000001D01*
X156167107Y-73000001D01*
X157183657Y-74016550D01*
X157183658Y-74016550D01*
X157283909Y-73832954D01*
X157383889Y-73564899D01*
X157444699Y-73285357D01*
X157465109Y-73000000D01*
X157444699Y-72714642D01*
X157383889Y-72435100D01*
X157283909Y-72167045D01*
X157183657Y-71983448D01*
X156167107Y-73000000D01*
X156167107Y-73000001D01*
X154752893Y-73000001D01*
X154752893Y-73000000D01*
X153736341Y-71983448D01*
X153736339Y-71983448D01*
X153636090Y-72167043D01*
X153536111Y-72435097D01*
X153475300Y-72714642D01*
X153454890Y-73000000D01*
X150540499Y-73000000D01*
X150540499Y-71452128D01*
X150534091Y-71392517D01*
X150490760Y-71276341D01*
X154443448Y-71276341D01*
X155460000Y-72292893D01*
X155460001Y-72292893D01*
X156476550Y-71276341D01*
X156476550Y-71276340D01*
X156292952Y-71176088D01*
X156024902Y-71076111D01*
X155745357Y-71015300D01*
X155460000Y-70994890D01*
X155174642Y-71015300D01*
X154895097Y-71076111D01*
X154627043Y-71176090D01*
X154443448Y-71276339D01*
X154443448Y-71276341D01*
X150490760Y-71276341D01*
X150483796Y-71257669D01*
X150397546Y-71142454D01*
X150282331Y-71056204D01*
X150147483Y-71005909D01*
X150087873Y-70999500D01*
X150087869Y-70999500D01*
X146992130Y-70999500D01*
X146932515Y-71005909D01*
X146797669Y-71056204D01*
X146682454Y-71142454D01*
X146596204Y-71257668D01*
X146545909Y-71392516D01*
X146539500Y-71452130D01*
X146539500Y-74547869D01*
X144300762Y-74547869D01*
X143460000Y-73707107D01*
X142443448Y-74723657D01*
X138490761Y-74723657D01*
X138534091Y-74607483D01*
X138540500Y-74547873D01*
X138540499Y-73000000D01*
X141454890Y-73000000D01*
X141475300Y-73285357D01*
X141536111Y-73564902D01*
X141636088Y-73832952D01*
X141736341Y-74016550D01*
X142752893Y-73000001D01*
X144167107Y-73000001D01*
X145183657Y-74016550D01*
X145183658Y-74016550D01*
X145283909Y-73832954D01*
X145383889Y-73564899D01*
X145444699Y-73285357D01*
X145465109Y-73000000D01*
X145444699Y-72714642D01*
X145383889Y-72435100D01*
X145283909Y-72167045D01*
X145183657Y-71983448D01*
X144167107Y-73000000D01*
X144167107Y-73000001D01*
X142752893Y-73000001D01*
X142752893Y-72999999D01*
X141736341Y-71983448D01*
X141736339Y-71983448D01*
X141636090Y-72167043D01*
X141536111Y-72435097D01*
X141475300Y-72714642D01*
X141454890Y-73000000D01*
X138540499Y-73000000D01*
X138540499Y-71452128D01*
X138534091Y-71392517D01*
X138490760Y-71276341D01*
X142443448Y-71276341D01*
X143460000Y-72292893D01*
X143460001Y-72292893D01*
X144476550Y-71276341D01*
X144476550Y-71276340D01*
X144292952Y-71176088D01*
X144024902Y-71076111D01*
X143745357Y-71015300D01*
X143460000Y-70994890D01*
X143174642Y-71015300D01*
X142895097Y-71076111D01*
X142627043Y-71176090D01*
X142443448Y-71276339D01*
X142443448Y-71276341D01*
X138490760Y-71276341D01*
X138483796Y-71257669D01*
X138397546Y-71142454D01*
X138282331Y-71056204D01*
X138147483Y-71005909D01*
X138087873Y-70999500D01*
X138087869Y-70999500D01*
X134992130Y-70999500D01*
X134932515Y-71005909D01*
X134797669Y-71056204D01*
X134682454Y-71142454D01*
X134596204Y-71257668D01*
X134545909Y-71392516D01*
X134539500Y-71452130D01*
X134539500Y-74547869D01*
X132300762Y-74547869D01*
X131460000Y-73707107D01*
X130443448Y-74723657D01*
X126490761Y-74723657D01*
X126534091Y-74607483D01*
X126540500Y-74547873D01*
X126540499Y-73000000D01*
X129454890Y-73000000D01*
X129475300Y-73285357D01*
X129536111Y-73564902D01*
X129636088Y-73832952D01*
X129736341Y-74016550D01*
X130752893Y-73000001D01*
X132167107Y-73000001D01*
X133183657Y-74016550D01*
X133183658Y-74016550D01*
X133283909Y-73832954D01*
X133383889Y-73564899D01*
X133444699Y-73285357D01*
X133465109Y-73000000D01*
X133444699Y-72714642D01*
X133383889Y-72435100D01*
X133283909Y-72167045D01*
X133183657Y-71983448D01*
X132167107Y-73000000D01*
X132167107Y-73000001D01*
X130752893Y-73000001D01*
X130752893Y-73000000D01*
X129736341Y-71983448D01*
X129736339Y-71983448D01*
X129636090Y-72167043D01*
X129536111Y-72435097D01*
X129475300Y-72714642D01*
X129454890Y-73000000D01*
X126540499Y-73000000D01*
X126540499Y-71452128D01*
X126534091Y-71392517D01*
X126490760Y-71276341D01*
X130443448Y-71276341D01*
X131460000Y-72292893D01*
X131460001Y-72292893D01*
X132476550Y-71276341D01*
X132476550Y-71276340D01*
X132292952Y-71176088D01*
X132024902Y-71076111D01*
X131745357Y-71015300D01*
X131460000Y-70994890D01*
X131174642Y-71015300D01*
X130895097Y-71076111D01*
X130627043Y-71176090D01*
X130443448Y-71276339D01*
X130443448Y-71276341D01*
X126490760Y-71276341D01*
X126483796Y-71257669D01*
X126397546Y-71142454D01*
X126282331Y-71056204D01*
X126147483Y-71005909D01*
X126087873Y-70999500D01*
X126087869Y-70999500D01*
X122992130Y-70999500D01*
X122932515Y-71005909D01*
X122797669Y-71056204D01*
X122682454Y-71142454D01*
X122596204Y-71257668D01*
X122545909Y-71392516D01*
X122539500Y-71452130D01*
X122539500Y-74547869D01*
X120300762Y-74547869D01*
X119460000Y-73707107D01*
X118443448Y-74723657D01*
X109500500Y-74723657D01*
X109500500Y-72361199D01*
X109516229Y-72300756D01*
X109559424Y-72255647D01*
X109619129Y-72237315D01*
X109680196Y-72250411D01*
X109727133Y-72291611D01*
X109774315Y-72361199D01*
X109868636Y-72500313D01*
X110100332Y-72773086D01*
X110360161Y-73019210D01*
X110645081Y-73235800D01*
X110951747Y-73420315D01*
X111276565Y-73570591D01*
X111615726Y-73684868D01*
X111965254Y-73761805D01*
X112286151Y-73796704D01*
X112321051Y-73800500D01*
X112321052Y-73800500D01*
X112678948Y-73800500D01*
X112678949Y-73800500D01*
X112710730Y-73797043D01*
X113034746Y-73761805D01*
X113384274Y-73684868D01*
X113723435Y-73570591D01*
X114048253Y-73420315D01*
X114354919Y-73235800D01*
X114639837Y-73019211D01*
X114660118Y-73000000D01*
X117454890Y-73000000D01*
X117475300Y-73285357D01*
X117536111Y-73564902D01*
X117636088Y-73832952D01*
X117736341Y-74016550D01*
X118752893Y-73000001D01*
X118752893Y-73000000D01*
X120167107Y-73000000D01*
X121183657Y-74016550D01*
X121183658Y-74016550D01*
X121283909Y-73832954D01*
X121383889Y-73564899D01*
X121444699Y-73285357D01*
X121465109Y-73000000D01*
X121444699Y-72714642D01*
X121383889Y-72435100D01*
X121283909Y-72167045D01*
X121183657Y-71983448D01*
X120167107Y-73000000D01*
X118752893Y-73000000D01*
X118752893Y-72999999D01*
X117736341Y-71983448D01*
X117736339Y-71983448D01*
X117636090Y-72167043D01*
X117536111Y-72435097D01*
X117475300Y-72714642D01*
X117454890Y-73000000D01*
X114660118Y-73000000D01*
X114899668Y-72773086D01*
X115131365Y-72500311D01*
X115332211Y-72204085D01*
X115499500Y-71888546D01*
X115499853Y-71887881D01*
X115632325Y-71555401D01*
X115709805Y-71276341D01*
X118443448Y-71276341D01*
X119460000Y-72292893D01*
X119460001Y-72292893D01*
X120476550Y-71276341D01*
X120476550Y-71276340D01*
X120292952Y-71176088D01*
X120024902Y-71076111D01*
X119745357Y-71015300D01*
X119460000Y-70994890D01*
X119174642Y-71015300D01*
X118895097Y-71076111D01*
X118627043Y-71176090D01*
X118443448Y-71276339D01*
X118443448Y-71276341D01*
X115709805Y-71276341D01*
X115728069Y-71210559D01*
X115728068Y-71210559D01*
X115728071Y-71210552D01*
X115785972Y-70857371D01*
X115805348Y-70500000D01*
X115785972Y-70142629D01*
X115728071Y-69789448D01*
X115728069Y-69789440D01*
X115632325Y-69444598D01*
X115499853Y-69112118D01*
X115332213Y-68795919D01*
X115332211Y-68795915D01*
X115131365Y-68499689D01*
X115131363Y-68499686D01*
X114899667Y-68226913D01*
X114639838Y-67980789D01*
X114469627Y-67851399D01*
X114366120Y-67772714D01*
X114328065Y-67724844D01*
X114317518Y-67664606D01*
X114337045Y-67606653D01*
X114381896Y-67565080D01*
X114441162Y-67550000D01*
X189558838Y-67550000D01*
X189618104Y-67565080D01*
G37*
%TD.AperFunction*%
%TD*%
M02*
