%TF.GenerationSoftware,KiCad,Pcbnew,(6.0.5)*%
%TF.CreationDate,2023-01-28T00:33:00+00:00*%
%TF.ProjectId,Drivebase Board,44726976-6562-4617-9365-20426f617264,rev?*%
%TF.SameCoordinates,Original*%
%TF.FileFunction,Soldermask,Top*%
%TF.FilePolarity,Negative*%
%FSLAX46Y46*%
G04 Gerber Fmt 4.6, Leading zero omitted, Abs format (unit mm)*
G04 Created by KiCad (PCBNEW (6.0.5)) date 2023-01-28 00:33:00*
%MOMM*%
%LPD*%
G01*
G04 APERTURE LIST*
G04 Aperture macros list*
%AMRoundRect*
0 Rectangle with rounded corners*
0 $1 Rounding radius*
0 $2 $3 $4 $5 $6 $7 $8 $9 X,Y pos of 4 corners*
0 Add a 4 corners polygon primitive as box body*
4,1,4,$2,$3,$4,$5,$6,$7,$8,$9,$2,$3,0*
0 Add four circle primitives for the rounded corners*
1,1,$1+$1,$2,$3*
1,1,$1+$1,$4,$5*
1,1,$1+$1,$6,$7*
1,1,$1+$1,$8,$9*
0 Add four rect primitives between the rounded corners*
20,1,$1+$1,$2,$3,$4,$5,0*
20,1,$1+$1,$4,$5,$6,$7,0*
20,1,$1+$1,$6,$7,$8,$9,0*
20,1,$1+$1,$8,$9,$2,$3,0*%
G04 Aperture macros list end*
%ADD10C,0.010000*%
%ADD11R,1.700000X1.700000*%
%ADD12O,1.700000X1.700000*%
%ADD13RoundRect,0.135000X-0.135000X-0.185000X0.135000X-0.185000X0.135000X0.185000X-0.135000X0.185000X0*%
%ADD14RoundRect,0.225000X0.225000X0.250000X-0.225000X0.250000X-0.225000X-0.250000X0.225000X-0.250000X0*%
%ADD15RoundRect,0.075000X0.350000X0.075000X-0.350000X0.075000X-0.350000X-0.075000X0.350000X-0.075000X0*%
%ADD16RoundRect,0.075000X-0.075000X0.350000X-0.075000X-0.350000X0.075000X-0.350000X0.075000X0.350000X0*%
%ADD17C,6.400000*%
%ADD18RoundRect,0.218750X-0.256250X0.218750X-0.256250X-0.218750X0.256250X-0.218750X0.256250X0.218750X0*%
%ADD19RoundRect,0.140000X-0.170000X0.140000X-0.170000X-0.140000X0.170000X-0.140000X0.170000X0.140000X0*%
%ADD20O,1.800000X1.100000*%
%ADD21O,1.450000X1.050000*%
%ADD22RoundRect,0.450000X-0.300000X0.300000X-0.300000X-0.300000X0.300000X-0.300000X0.300000X0.300000X0*%
%ADD23RoundRect,0.135000X0.185000X-0.135000X0.185000X0.135000X-0.185000X0.135000X-0.185000X-0.135000X0*%
%ADD24RoundRect,0.140000X-0.140000X-0.170000X0.140000X-0.170000X0.140000X0.170000X-0.140000X0.170000X0*%
%ADD25C,1.500000*%
%ADD26C,0.990600*%
%ADD27C,2.374900*%
%ADD28C,0.787400*%
%ADD29C,2.000000*%
%ADD30RoundRect,0.140000X0.140000X0.170000X-0.140000X0.170000X-0.140000X-0.170000X0.140000X-0.170000X0*%
%ADD31RoundRect,0.218750X0.218750X0.256250X-0.218750X0.256250X-0.218750X-0.256250X0.218750X-0.256250X0*%
%ADD32RoundRect,0.135000X0.135000X0.185000X-0.135000X0.185000X-0.135000X-0.185000X0.135000X-0.185000X0*%
%ADD33R,1.600000X1.600000*%
%ADD34C,1.600000*%
%ADD35C,4.000000*%
G04 APERTURE END LIST*
%TO.C,U101*%
G36*
X141540000Y-93322500D02*
G01*
X141539000Y-93369500D01*
X141535000Y-93416500D01*
X141529000Y-93463500D01*
X141520000Y-93509500D01*
X141509000Y-93555500D01*
X141496000Y-93600500D01*
X141480000Y-93645500D01*
X141462000Y-93688500D01*
X141442000Y-93731500D01*
X141419000Y-93772500D01*
X141395000Y-93812500D01*
X141368000Y-93851500D01*
X141339000Y-93888500D01*
X141309000Y-93924500D01*
X141276000Y-93958500D01*
X141242000Y-93991500D01*
X141206000Y-94021500D01*
X141169000Y-94050500D01*
X141130000Y-94077500D01*
X141090000Y-94101500D01*
X141049000Y-94124500D01*
X141006000Y-94144500D01*
X140963000Y-94162500D01*
X140918000Y-94178500D01*
X140873000Y-94191500D01*
X140827000Y-94202500D01*
X140781000Y-94211500D01*
X140734000Y-94217500D01*
X140687000Y-94221500D01*
X140640000Y-94222500D01*
X140593000Y-94221500D01*
X140546000Y-94217500D01*
X140499000Y-94211500D01*
X140453000Y-94202500D01*
X140407000Y-94191500D01*
X140362000Y-94178500D01*
X140317000Y-94162500D01*
X140274000Y-94144500D01*
X140231000Y-94124500D01*
X140190000Y-94101500D01*
X140150000Y-94077500D01*
X140111000Y-94050500D01*
X140074000Y-94021500D01*
X140038000Y-93991500D01*
X140004000Y-93958500D01*
X139971000Y-93924500D01*
X139941000Y-93888500D01*
X139912000Y-93851500D01*
X139885000Y-93812500D01*
X139861000Y-93772500D01*
X139838000Y-93731500D01*
X139818000Y-93688500D01*
X139800000Y-93645500D01*
X139784000Y-93600500D01*
X139771000Y-93555500D01*
X139760000Y-93509500D01*
X139751000Y-93463500D01*
X139745000Y-93416500D01*
X139741000Y-93369500D01*
X139740000Y-93322500D01*
X139740000Y-90822500D01*
X141540000Y-90822500D01*
X141540000Y-93322500D01*
G37*
D10*
X141540000Y-93322500D02*
X141539000Y-93369500D01*
X141535000Y-93416500D01*
X141529000Y-93463500D01*
X141520000Y-93509500D01*
X141509000Y-93555500D01*
X141496000Y-93600500D01*
X141480000Y-93645500D01*
X141462000Y-93688500D01*
X141442000Y-93731500D01*
X141419000Y-93772500D01*
X141395000Y-93812500D01*
X141368000Y-93851500D01*
X141339000Y-93888500D01*
X141309000Y-93924500D01*
X141276000Y-93958500D01*
X141242000Y-93991500D01*
X141206000Y-94021500D01*
X141169000Y-94050500D01*
X141130000Y-94077500D01*
X141090000Y-94101500D01*
X141049000Y-94124500D01*
X141006000Y-94144500D01*
X140963000Y-94162500D01*
X140918000Y-94178500D01*
X140873000Y-94191500D01*
X140827000Y-94202500D01*
X140781000Y-94211500D01*
X140734000Y-94217500D01*
X140687000Y-94221500D01*
X140640000Y-94222500D01*
X140593000Y-94221500D01*
X140546000Y-94217500D01*
X140499000Y-94211500D01*
X140453000Y-94202500D01*
X140407000Y-94191500D01*
X140362000Y-94178500D01*
X140317000Y-94162500D01*
X140274000Y-94144500D01*
X140231000Y-94124500D01*
X140190000Y-94101500D01*
X140150000Y-94077500D01*
X140111000Y-94050500D01*
X140074000Y-94021500D01*
X140038000Y-93991500D01*
X140004000Y-93958500D01*
X139971000Y-93924500D01*
X139941000Y-93888500D01*
X139912000Y-93851500D01*
X139885000Y-93812500D01*
X139861000Y-93772500D01*
X139838000Y-93731500D01*
X139818000Y-93688500D01*
X139800000Y-93645500D01*
X139784000Y-93600500D01*
X139771000Y-93555500D01*
X139760000Y-93509500D01*
X139751000Y-93463500D01*
X139745000Y-93416500D01*
X139741000Y-93369500D01*
X139740000Y-93322500D01*
X139740000Y-90822500D01*
X141540000Y-90822500D01*
X141540000Y-93322500D01*
G36*
X176831000Y-110204500D02*
G01*
X176847000Y-110206500D01*
X176862000Y-110209500D01*
X176878000Y-110212500D01*
X176908000Y-110222500D01*
X176922000Y-110228500D01*
X176950000Y-110242500D01*
X176963000Y-110250500D01*
X176976000Y-110259500D01*
X176989000Y-110269500D01*
X177001000Y-110279500D01*
X177023000Y-110301500D01*
X177033000Y-110313500D01*
X177043000Y-110326500D01*
X177052000Y-110339500D01*
X177060000Y-110352500D01*
X177074000Y-110380500D01*
X177080000Y-110394500D01*
X177090000Y-110424500D01*
X177093000Y-110440500D01*
X177096000Y-110455500D01*
X177098000Y-110471500D01*
X177100000Y-110486500D01*
X177100000Y-113602500D01*
X175300000Y-113602500D01*
X175300000Y-110486500D01*
X175302000Y-110471500D01*
X175304000Y-110455500D01*
X175307000Y-110440500D01*
X175310000Y-110424500D01*
X175320000Y-110394500D01*
X175326000Y-110380500D01*
X175340000Y-110352500D01*
X175348000Y-110339500D01*
X175357000Y-110326500D01*
X175367000Y-110313500D01*
X175377000Y-110301500D01*
X175399000Y-110279500D01*
X175411000Y-110269500D01*
X175424000Y-110259500D01*
X175437000Y-110250500D01*
X175450000Y-110242500D01*
X175478000Y-110228500D01*
X175492000Y-110222500D01*
X175522000Y-110212500D01*
X175538000Y-110209500D01*
X175553000Y-110206500D01*
X175569000Y-110204500D01*
X175584000Y-110202500D01*
X176816000Y-110202500D01*
X176831000Y-110204500D01*
G37*
X176831000Y-110204500D02*
X176847000Y-110206500D01*
X176862000Y-110209500D01*
X176878000Y-110212500D01*
X176908000Y-110222500D01*
X176922000Y-110228500D01*
X176950000Y-110242500D01*
X176963000Y-110250500D01*
X176976000Y-110259500D01*
X176989000Y-110269500D01*
X177001000Y-110279500D01*
X177023000Y-110301500D01*
X177033000Y-110313500D01*
X177043000Y-110326500D01*
X177052000Y-110339500D01*
X177060000Y-110352500D01*
X177074000Y-110380500D01*
X177080000Y-110394500D01*
X177090000Y-110424500D01*
X177093000Y-110440500D01*
X177096000Y-110455500D01*
X177098000Y-110471500D01*
X177100000Y-110486500D01*
X177100000Y-113602500D01*
X175300000Y-113602500D01*
X175300000Y-110486500D01*
X175302000Y-110471500D01*
X175304000Y-110455500D01*
X175307000Y-110440500D01*
X175310000Y-110424500D01*
X175320000Y-110394500D01*
X175326000Y-110380500D01*
X175340000Y-110352500D01*
X175348000Y-110339500D01*
X175357000Y-110326500D01*
X175367000Y-110313500D01*
X175377000Y-110301500D01*
X175399000Y-110279500D01*
X175411000Y-110269500D01*
X175424000Y-110259500D01*
X175437000Y-110250500D01*
X175450000Y-110242500D01*
X175478000Y-110228500D01*
X175492000Y-110222500D01*
X175522000Y-110212500D01*
X175538000Y-110209500D01*
X175553000Y-110206500D01*
X175569000Y-110204500D01*
X175584000Y-110202500D01*
X176816000Y-110202500D01*
X176831000Y-110204500D01*
G36*
X177100000Y-93938500D02*
G01*
X177098000Y-93953500D01*
X177096000Y-93969500D01*
X177093000Y-93984500D01*
X177090000Y-94000500D01*
X177080000Y-94030500D01*
X177074000Y-94044500D01*
X177060000Y-94072500D01*
X177052000Y-94085500D01*
X177043000Y-94098500D01*
X177033000Y-94111500D01*
X177023000Y-94123500D01*
X177001000Y-94145500D01*
X176989000Y-94155500D01*
X176976000Y-94165500D01*
X176963000Y-94174500D01*
X176950000Y-94182500D01*
X176922000Y-94196500D01*
X176908000Y-94202500D01*
X176878000Y-94212500D01*
X176862000Y-94215500D01*
X176847000Y-94218500D01*
X176831000Y-94220500D01*
X176816000Y-94222500D01*
X175584000Y-94222500D01*
X175569000Y-94220500D01*
X175553000Y-94218500D01*
X175538000Y-94215500D01*
X175522000Y-94212500D01*
X175492000Y-94202500D01*
X175478000Y-94196500D01*
X175450000Y-94182500D01*
X175437000Y-94174500D01*
X175424000Y-94165500D01*
X175411000Y-94155500D01*
X175399000Y-94145500D01*
X175377000Y-94123500D01*
X175367000Y-94111500D01*
X175357000Y-94098500D01*
X175348000Y-94085500D01*
X175340000Y-94072500D01*
X175326000Y-94044500D01*
X175320000Y-94030500D01*
X175310000Y-94000500D01*
X175307000Y-93984500D01*
X175304000Y-93969500D01*
X175302000Y-93953500D01*
X175300000Y-93938500D01*
X175300000Y-90822500D01*
X177100000Y-90822500D01*
X177100000Y-93938500D01*
G37*
X177100000Y-93938500D02*
X177098000Y-93953500D01*
X177096000Y-93969500D01*
X177093000Y-93984500D01*
X177090000Y-94000500D01*
X177080000Y-94030500D01*
X177074000Y-94044500D01*
X177060000Y-94072500D01*
X177052000Y-94085500D01*
X177043000Y-94098500D01*
X177033000Y-94111500D01*
X177023000Y-94123500D01*
X177001000Y-94145500D01*
X176989000Y-94155500D01*
X176976000Y-94165500D01*
X176963000Y-94174500D01*
X176950000Y-94182500D01*
X176922000Y-94196500D01*
X176908000Y-94202500D01*
X176878000Y-94212500D01*
X176862000Y-94215500D01*
X176847000Y-94218500D01*
X176831000Y-94220500D01*
X176816000Y-94222500D01*
X175584000Y-94222500D01*
X175569000Y-94220500D01*
X175553000Y-94218500D01*
X175538000Y-94215500D01*
X175522000Y-94212500D01*
X175492000Y-94202500D01*
X175478000Y-94196500D01*
X175450000Y-94182500D01*
X175437000Y-94174500D01*
X175424000Y-94165500D01*
X175411000Y-94155500D01*
X175399000Y-94145500D01*
X175377000Y-94123500D01*
X175367000Y-94111500D01*
X175357000Y-94098500D01*
X175348000Y-94085500D01*
X175340000Y-94072500D01*
X175326000Y-94044500D01*
X175320000Y-94030500D01*
X175310000Y-94000500D01*
X175307000Y-93984500D01*
X175304000Y-93969500D01*
X175302000Y-93953500D01*
X175300000Y-93938500D01*
X175300000Y-90822500D01*
X177100000Y-90822500D01*
X177100000Y-93938500D01*
G36*
X156780000Y-93322500D02*
G01*
X156779000Y-93369500D01*
X156775000Y-93416500D01*
X156769000Y-93463500D01*
X156760000Y-93509500D01*
X156749000Y-93555500D01*
X156736000Y-93600500D01*
X156720000Y-93645500D01*
X156702000Y-93688500D01*
X156682000Y-93731500D01*
X156659000Y-93772500D01*
X156635000Y-93812500D01*
X156608000Y-93851500D01*
X156579000Y-93888500D01*
X156549000Y-93924500D01*
X156516000Y-93958500D01*
X156482000Y-93991500D01*
X156446000Y-94021500D01*
X156409000Y-94050500D01*
X156370000Y-94077500D01*
X156330000Y-94101500D01*
X156289000Y-94124500D01*
X156246000Y-94144500D01*
X156203000Y-94162500D01*
X156158000Y-94178500D01*
X156113000Y-94191500D01*
X156067000Y-94202500D01*
X156021000Y-94211500D01*
X155974000Y-94217500D01*
X155927000Y-94221500D01*
X155880000Y-94222500D01*
X155833000Y-94221500D01*
X155786000Y-94217500D01*
X155739000Y-94211500D01*
X155693000Y-94202500D01*
X155647000Y-94191500D01*
X155602000Y-94178500D01*
X155557000Y-94162500D01*
X155514000Y-94144500D01*
X155471000Y-94124500D01*
X155430000Y-94101500D01*
X155390000Y-94077500D01*
X155351000Y-94050500D01*
X155314000Y-94021500D01*
X155278000Y-93991500D01*
X155244000Y-93958500D01*
X155211000Y-93924500D01*
X155181000Y-93888500D01*
X155152000Y-93851500D01*
X155125000Y-93812500D01*
X155101000Y-93772500D01*
X155078000Y-93731500D01*
X155058000Y-93688500D01*
X155040000Y-93645500D01*
X155024000Y-93600500D01*
X155011000Y-93555500D01*
X155000000Y-93509500D01*
X154991000Y-93463500D01*
X154985000Y-93416500D01*
X154981000Y-93369500D01*
X154980000Y-93322500D01*
X154980000Y-90822500D01*
X156780000Y-90822500D01*
X156780000Y-93322500D01*
G37*
X156780000Y-93322500D02*
X156779000Y-93369500D01*
X156775000Y-93416500D01*
X156769000Y-93463500D01*
X156760000Y-93509500D01*
X156749000Y-93555500D01*
X156736000Y-93600500D01*
X156720000Y-93645500D01*
X156702000Y-93688500D01*
X156682000Y-93731500D01*
X156659000Y-93772500D01*
X156635000Y-93812500D01*
X156608000Y-93851500D01*
X156579000Y-93888500D01*
X156549000Y-93924500D01*
X156516000Y-93958500D01*
X156482000Y-93991500D01*
X156446000Y-94021500D01*
X156409000Y-94050500D01*
X156370000Y-94077500D01*
X156330000Y-94101500D01*
X156289000Y-94124500D01*
X156246000Y-94144500D01*
X156203000Y-94162500D01*
X156158000Y-94178500D01*
X156113000Y-94191500D01*
X156067000Y-94202500D01*
X156021000Y-94211500D01*
X155974000Y-94217500D01*
X155927000Y-94221500D01*
X155880000Y-94222500D01*
X155833000Y-94221500D01*
X155786000Y-94217500D01*
X155739000Y-94211500D01*
X155693000Y-94202500D01*
X155647000Y-94191500D01*
X155602000Y-94178500D01*
X155557000Y-94162500D01*
X155514000Y-94144500D01*
X155471000Y-94124500D01*
X155430000Y-94101500D01*
X155390000Y-94077500D01*
X155351000Y-94050500D01*
X155314000Y-94021500D01*
X155278000Y-93991500D01*
X155244000Y-93958500D01*
X155211000Y-93924500D01*
X155181000Y-93888500D01*
X155152000Y-93851500D01*
X155125000Y-93812500D01*
X155101000Y-93772500D01*
X155078000Y-93731500D01*
X155058000Y-93688500D01*
X155040000Y-93645500D01*
X155024000Y-93600500D01*
X155011000Y-93555500D01*
X155000000Y-93509500D01*
X154991000Y-93463500D01*
X154985000Y-93416500D01*
X154981000Y-93369500D01*
X154980000Y-93322500D01*
X154980000Y-90822500D01*
X156780000Y-90822500D01*
X156780000Y-93322500D01*
G36*
X144080000Y-93322500D02*
G01*
X144079000Y-93369500D01*
X144075000Y-93416500D01*
X144069000Y-93463500D01*
X144060000Y-93509500D01*
X144049000Y-93555500D01*
X144036000Y-93600500D01*
X144020000Y-93645500D01*
X144002000Y-93688500D01*
X143982000Y-93731500D01*
X143959000Y-93772500D01*
X143935000Y-93812500D01*
X143908000Y-93851500D01*
X143879000Y-93888500D01*
X143849000Y-93924500D01*
X143816000Y-93958500D01*
X143782000Y-93991500D01*
X143746000Y-94021500D01*
X143709000Y-94050500D01*
X143670000Y-94077500D01*
X143630000Y-94101500D01*
X143589000Y-94124500D01*
X143546000Y-94144500D01*
X143503000Y-94162500D01*
X143458000Y-94178500D01*
X143413000Y-94191500D01*
X143367000Y-94202500D01*
X143321000Y-94211500D01*
X143274000Y-94217500D01*
X143227000Y-94221500D01*
X143180000Y-94222500D01*
X143133000Y-94221500D01*
X143086000Y-94217500D01*
X143039000Y-94211500D01*
X142993000Y-94202500D01*
X142947000Y-94191500D01*
X142902000Y-94178500D01*
X142857000Y-94162500D01*
X142814000Y-94144500D01*
X142771000Y-94124500D01*
X142730000Y-94101500D01*
X142690000Y-94077500D01*
X142651000Y-94050500D01*
X142614000Y-94021500D01*
X142578000Y-93991500D01*
X142544000Y-93958500D01*
X142511000Y-93924500D01*
X142481000Y-93888500D01*
X142452000Y-93851500D01*
X142425000Y-93812500D01*
X142401000Y-93772500D01*
X142378000Y-93731500D01*
X142358000Y-93688500D01*
X142340000Y-93645500D01*
X142324000Y-93600500D01*
X142311000Y-93555500D01*
X142300000Y-93509500D01*
X142291000Y-93463500D01*
X142285000Y-93416500D01*
X142281000Y-93369500D01*
X142280000Y-93322500D01*
X142280000Y-90822500D01*
X144080000Y-90822500D01*
X144080000Y-93322500D01*
G37*
X144080000Y-93322500D02*
X144079000Y-93369500D01*
X144075000Y-93416500D01*
X144069000Y-93463500D01*
X144060000Y-93509500D01*
X144049000Y-93555500D01*
X144036000Y-93600500D01*
X144020000Y-93645500D01*
X144002000Y-93688500D01*
X143982000Y-93731500D01*
X143959000Y-93772500D01*
X143935000Y-93812500D01*
X143908000Y-93851500D01*
X143879000Y-93888500D01*
X143849000Y-93924500D01*
X143816000Y-93958500D01*
X143782000Y-93991500D01*
X143746000Y-94021500D01*
X143709000Y-94050500D01*
X143670000Y-94077500D01*
X143630000Y-94101500D01*
X143589000Y-94124500D01*
X143546000Y-94144500D01*
X143503000Y-94162500D01*
X143458000Y-94178500D01*
X143413000Y-94191500D01*
X143367000Y-94202500D01*
X143321000Y-94211500D01*
X143274000Y-94217500D01*
X143227000Y-94221500D01*
X143180000Y-94222500D01*
X143133000Y-94221500D01*
X143086000Y-94217500D01*
X143039000Y-94211500D01*
X142993000Y-94202500D01*
X142947000Y-94191500D01*
X142902000Y-94178500D01*
X142857000Y-94162500D01*
X142814000Y-94144500D01*
X142771000Y-94124500D01*
X142730000Y-94101500D01*
X142690000Y-94077500D01*
X142651000Y-94050500D01*
X142614000Y-94021500D01*
X142578000Y-93991500D01*
X142544000Y-93958500D01*
X142511000Y-93924500D01*
X142481000Y-93888500D01*
X142452000Y-93851500D01*
X142425000Y-93812500D01*
X142401000Y-93772500D01*
X142378000Y-93731500D01*
X142358000Y-93688500D01*
X142340000Y-93645500D01*
X142324000Y-93600500D01*
X142311000Y-93555500D01*
X142300000Y-93509500D01*
X142291000Y-93463500D01*
X142285000Y-93416500D01*
X142281000Y-93369500D01*
X142280000Y-93322500D01*
X142280000Y-90822500D01*
X144080000Y-90822500D01*
X144080000Y-93322500D01*
G36*
X161007000Y-110203500D02*
G01*
X161054000Y-110207500D01*
X161101000Y-110213500D01*
X161147000Y-110222500D01*
X161193000Y-110233500D01*
X161238000Y-110246500D01*
X161283000Y-110262500D01*
X161326000Y-110280500D01*
X161369000Y-110300500D01*
X161410000Y-110323500D01*
X161450000Y-110347500D01*
X161489000Y-110374500D01*
X161526000Y-110403500D01*
X161562000Y-110433500D01*
X161596000Y-110466500D01*
X161629000Y-110500500D01*
X161659000Y-110536500D01*
X161688000Y-110573500D01*
X161715000Y-110612500D01*
X161739000Y-110652500D01*
X161762000Y-110693500D01*
X161782000Y-110736500D01*
X161800000Y-110779500D01*
X161816000Y-110824500D01*
X161829000Y-110869500D01*
X161840000Y-110915500D01*
X161849000Y-110961500D01*
X161855000Y-111008500D01*
X161859000Y-111055500D01*
X161860000Y-111102500D01*
X161860000Y-113602500D01*
X160060000Y-113602500D01*
X160060000Y-111102500D01*
X160061000Y-111055500D01*
X160065000Y-111008500D01*
X160071000Y-110961500D01*
X160080000Y-110915500D01*
X160091000Y-110869500D01*
X160104000Y-110824500D01*
X160120000Y-110779500D01*
X160138000Y-110736500D01*
X160158000Y-110693500D01*
X160181000Y-110652500D01*
X160205000Y-110612500D01*
X160232000Y-110573500D01*
X160261000Y-110536500D01*
X160291000Y-110500500D01*
X160324000Y-110466500D01*
X160358000Y-110433500D01*
X160394000Y-110403500D01*
X160431000Y-110374500D01*
X160470000Y-110347500D01*
X160510000Y-110323500D01*
X160551000Y-110300500D01*
X160594000Y-110280500D01*
X160637000Y-110262500D01*
X160682000Y-110246500D01*
X160727000Y-110233500D01*
X160773000Y-110222500D01*
X160819000Y-110213500D01*
X160866000Y-110207500D01*
X160913000Y-110203500D01*
X160960000Y-110202500D01*
X161007000Y-110203500D01*
G37*
X161007000Y-110203500D02*
X161054000Y-110207500D01*
X161101000Y-110213500D01*
X161147000Y-110222500D01*
X161193000Y-110233500D01*
X161238000Y-110246500D01*
X161283000Y-110262500D01*
X161326000Y-110280500D01*
X161369000Y-110300500D01*
X161410000Y-110323500D01*
X161450000Y-110347500D01*
X161489000Y-110374500D01*
X161526000Y-110403500D01*
X161562000Y-110433500D01*
X161596000Y-110466500D01*
X161629000Y-110500500D01*
X161659000Y-110536500D01*
X161688000Y-110573500D01*
X161715000Y-110612500D01*
X161739000Y-110652500D01*
X161762000Y-110693500D01*
X161782000Y-110736500D01*
X161800000Y-110779500D01*
X161816000Y-110824500D01*
X161829000Y-110869500D01*
X161840000Y-110915500D01*
X161849000Y-110961500D01*
X161855000Y-111008500D01*
X161859000Y-111055500D01*
X161860000Y-111102500D01*
X161860000Y-113602500D01*
X160060000Y-113602500D01*
X160060000Y-111102500D01*
X160061000Y-111055500D01*
X160065000Y-111008500D01*
X160071000Y-110961500D01*
X160080000Y-110915500D01*
X160091000Y-110869500D01*
X160104000Y-110824500D01*
X160120000Y-110779500D01*
X160138000Y-110736500D01*
X160158000Y-110693500D01*
X160181000Y-110652500D01*
X160205000Y-110612500D01*
X160232000Y-110573500D01*
X160261000Y-110536500D01*
X160291000Y-110500500D01*
X160324000Y-110466500D01*
X160358000Y-110433500D01*
X160394000Y-110403500D01*
X160431000Y-110374500D01*
X160470000Y-110347500D01*
X160510000Y-110323500D01*
X160551000Y-110300500D01*
X160594000Y-110280500D01*
X160637000Y-110262500D01*
X160682000Y-110246500D01*
X160727000Y-110233500D01*
X160773000Y-110222500D01*
X160819000Y-110213500D01*
X160866000Y-110207500D01*
X160913000Y-110203500D01*
X160960000Y-110202500D01*
X161007000Y-110203500D01*
G36*
X146620000Y-93322500D02*
G01*
X146619000Y-93369500D01*
X146615000Y-93416500D01*
X146609000Y-93463500D01*
X146600000Y-93509500D01*
X146589000Y-93555500D01*
X146576000Y-93600500D01*
X146560000Y-93645500D01*
X146542000Y-93688500D01*
X146522000Y-93731500D01*
X146499000Y-93772500D01*
X146475000Y-93812500D01*
X146448000Y-93851500D01*
X146419000Y-93888500D01*
X146389000Y-93924500D01*
X146356000Y-93958500D01*
X146322000Y-93991500D01*
X146286000Y-94021500D01*
X146249000Y-94050500D01*
X146210000Y-94077500D01*
X146170000Y-94101500D01*
X146129000Y-94124500D01*
X146086000Y-94144500D01*
X146043000Y-94162500D01*
X145998000Y-94178500D01*
X145953000Y-94191500D01*
X145907000Y-94202500D01*
X145861000Y-94211500D01*
X145814000Y-94217500D01*
X145767000Y-94221500D01*
X145720000Y-94222500D01*
X145673000Y-94221500D01*
X145626000Y-94217500D01*
X145579000Y-94211500D01*
X145533000Y-94202500D01*
X145487000Y-94191500D01*
X145442000Y-94178500D01*
X145397000Y-94162500D01*
X145354000Y-94144500D01*
X145311000Y-94124500D01*
X145270000Y-94101500D01*
X145230000Y-94077500D01*
X145191000Y-94050500D01*
X145154000Y-94021500D01*
X145118000Y-93991500D01*
X145084000Y-93958500D01*
X145051000Y-93924500D01*
X145021000Y-93888500D01*
X144992000Y-93851500D01*
X144965000Y-93812500D01*
X144941000Y-93772500D01*
X144918000Y-93731500D01*
X144898000Y-93688500D01*
X144880000Y-93645500D01*
X144864000Y-93600500D01*
X144851000Y-93555500D01*
X144840000Y-93509500D01*
X144831000Y-93463500D01*
X144825000Y-93416500D01*
X144821000Y-93369500D01*
X144820000Y-93322500D01*
X144820000Y-90822500D01*
X146620000Y-90822500D01*
X146620000Y-93322500D01*
G37*
X146620000Y-93322500D02*
X146619000Y-93369500D01*
X146615000Y-93416500D01*
X146609000Y-93463500D01*
X146600000Y-93509500D01*
X146589000Y-93555500D01*
X146576000Y-93600500D01*
X146560000Y-93645500D01*
X146542000Y-93688500D01*
X146522000Y-93731500D01*
X146499000Y-93772500D01*
X146475000Y-93812500D01*
X146448000Y-93851500D01*
X146419000Y-93888500D01*
X146389000Y-93924500D01*
X146356000Y-93958500D01*
X146322000Y-93991500D01*
X146286000Y-94021500D01*
X146249000Y-94050500D01*
X146210000Y-94077500D01*
X146170000Y-94101500D01*
X146129000Y-94124500D01*
X146086000Y-94144500D01*
X146043000Y-94162500D01*
X145998000Y-94178500D01*
X145953000Y-94191500D01*
X145907000Y-94202500D01*
X145861000Y-94211500D01*
X145814000Y-94217500D01*
X145767000Y-94221500D01*
X145720000Y-94222500D01*
X145673000Y-94221500D01*
X145626000Y-94217500D01*
X145579000Y-94211500D01*
X145533000Y-94202500D01*
X145487000Y-94191500D01*
X145442000Y-94178500D01*
X145397000Y-94162500D01*
X145354000Y-94144500D01*
X145311000Y-94124500D01*
X145270000Y-94101500D01*
X145230000Y-94077500D01*
X145191000Y-94050500D01*
X145154000Y-94021500D01*
X145118000Y-93991500D01*
X145084000Y-93958500D01*
X145051000Y-93924500D01*
X145021000Y-93888500D01*
X144992000Y-93851500D01*
X144965000Y-93812500D01*
X144941000Y-93772500D01*
X144918000Y-93731500D01*
X144898000Y-93688500D01*
X144880000Y-93645500D01*
X144864000Y-93600500D01*
X144851000Y-93555500D01*
X144840000Y-93509500D01*
X144831000Y-93463500D01*
X144825000Y-93416500D01*
X144821000Y-93369500D01*
X144820000Y-93322500D01*
X144820000Y-90822500D01*
X146620000Y-90822500D01*
X146620000Y-93322500D01*
G36*
X136460000Y-93322500D02*
G01*
X136459000Y-93369500D01*
X136455000Y-93416500D01*
X136449000Y-93463500D01*
X136440000Y-93509500D01*
X136429000Y-93555500D01*
X136416000Y-93600500D01*
X136400000Y-93645500D01*
X136382000Y-93688500D01*
X136362000Y-93731500D01*
X136339000Y-93772500D01*
X136315000Y-93812500D01*
X136288000Y-93851500D01*
X136259000Y-93888500D01*
X136229000Y-93924500D01*
X136196000Y-93958500D01*
X136162000Y-93991500D01*
X136126000Y-94021500D01*
X136089000Y-94050500D01*
X136050000Y-94077500D01*
X136010000Y-94101500D01*
X135969000Y-94124500D01*
X135926000Y-94144500D01*
X135883000Y-94162500D01*
X135838000Y-94178500D01*
X135793000Y-94191500D01*
X135747000Y-94202500D01*
X135701000Y-94211500D01*
X135654000Y-94217500D01*
X135607000Y-94221500D01*
X135560000Y-94222500D01*
X135513000Y-94221500D01*
X135466000Y-94217500D01*
X135419000Y-94211500D01*
X135373000Y-94202500D01*
X135327000Y-94191500D01*
X135282000Y-94178500D01*
X135237000Y-94162500D01*
X135194000Y-94144500D01*
X135151000Y-94124500D01*
X135110000Y-94101500D01*
X135070000Y-94077500D01*
X135031000Y-94050500D01*
X134994000Y-94021500D01*
X134958000Y-93991500D01*
X134924000Y-93958500D01*
X134891000Y-93924500D01*
X134861000Y-93888500D01*
X134832000Y-93851500D01*
X134805000Y-93812500D01*
X134781000Y-93772500D01*
X134758000Y-93731500D01*
X134738000Y-93688500D01*
X134720000Y-93645500D01*
X134704000Y-93600500D01*
X134691000Y-93555500D01*
X134680000Y-93509500D01*
X134671000Y-93463500D01*
X134665000Y-93416500D01*
X134661000Y-93369500D01*
X134660000Y-93322500D01*
X134660000Y-90822500D01*
X136460000Y-90822500D01*
X136460000Y-93322500D01*
G37*
X136460000Y-93322500D02*
X136459000Y-93369500D01*
X136455000Y-93416500D01*
X136449000Y-93463500D01*
X136440000Y-93509500D01*
X136429000Y-93555500D01*
X136416000Y-93600500D01*
X136400000Y-93645500D01*
X136382000Y-93688500D01*
X136362000Y-93731500D01*
X136339000Y-93772500D01*
X136315000Y-93812500D01*
X136288000Y-93851500D01*
X136259000Y-93888500D01*
X136229000Y-93924500D01*
X136196000Y-93958500D01*
X136162000Y-93991500D01*
X136126000Y-94021500D01*
X136089000Y-94050500D01*
X136050000Y-94077500D01*
X136010000Y-94101500D01*
X135969000Y-94124500D01*
X135926000Y-94144500D01*
X135883000Y-94162500D01*
X135838000Y-94178500D01*
X135793000Y-94191500D01*
X135747000Y-94202500D01*
X135701000Y-94211500D01*
X135654000Y-94217500D01*
X135607000Y-94221500D01*
X135560000Y-94222500D01*
X135513000Y-94221500D01*
X135466000Y-94217500D01*
X135419000Y-94211500D01*
X135373000Y-94202500D01*
X135327000Y-94191500D01*
X135282000Y-94178500D01*
X135237000Y-94162500D01*
X135194000Y-94144500D01*
X135151000Y-94124500D01*
X135110000Y-94101500D01*
X135070000Y-94077500D01*
X135031000Y-94050500D01*
X134994000Y-94021500D01*
X134958000Y-93991500D01*
X134924000Y-93958500D01*
X134891000Y-93924500D01*
X134861000Y-93888500D01*
X134832000Y-93851500D01*
X134805000Y-93812500D01*
X134781000Y-93772500D01*
X134758000Y-93731500D01*
X134738000Y-93688500D01*
X134720000Y-93645500D01*
X134704000Y-93600500D01*
X134691000Y-93555500D01*
X134680000Y-93509500D01*
X134671000Y-93463500D01*
X134665000Y-93416500D01*
X134661000Y-93369500D01*
X134660000Y-93322500D01*
X134660000Y-90822500D01*
X136460000Y-90822500D01*
X136460000Y-93322500D01*
G36*
X145767000Y-110203500D02*
G01*
X145814000Y-110207500D01*
X145861000Y-110213500D01*
X145907000Y-110222500D01*
X145953000Y-110233500D01*
X145998000Y-110246500D01*
X146043000Y-110262500D01*
X146086000Y-110280500D01*
X146129000Y-110300500D01*
X146170000Y-110323500D01*
X146210000Y-110347500D01*
X146249000Y-110374500D01*
X146286000Y-110403500D01*
X146322000Y-110433500D01*
X146356000Y-110466500D01*
X146389000Y-110500500D01*
X146419000Y-110536500D01*
X146448000Y-110573500D01*
X146475000Y-110612500D01*
X146499000Y-110652500D01*
X146522000Y-110693500D01*
X146542000Y-110736500D01*
X146560000Y-110779500D01*
X146576000Y-110824500D01*
X146589000Y-110869500D01*
X146600000Y-110915500D01*
X146609000Y-110961500D01*
X146615000Y-111008500D01*
X146619000Y-111055500D01*
X146620000Y-111102500D01*
X146620000Y-113602500D01*
X144820000Y-113602500D01*
X144820000Y-111102500D01*
X144821000Y-111055500D01*
X144825000Y-111008500D01*
X144831000Y-110961500D01*
X144840000Y-110915500D01*
X144851000Y-110869500D01*
X144864000Y-110824500D01*
X144880000Y-110779500D01*
X144898000Y-110736500D01*
X144918000Y-110693500D01*
X144941000Y-110652500D01*
X144965000Y-110612500D01*
X144992000Y-110573500D01*
X145021000Y-110536500D01*
X145051000Y-110500500D01*
X145084000Y-110466500D01*
X145118000Y-110433500D01*
X145154000Y-110403500D01*
X145191000Y-110374500D01*
X145230000Y-110347500D01*
X145270000Y-110323500D01*
X145311000Y-110300500D01*
X145354000Y-110280500D01*
X145397000Y-110262500D01*
X145442000Y-110246500D01*
X145487000Y-110233500D01*
X145533000Y-110222500D01*
X145579000Y-110213500D01*
X145626000Y-110207500D01*
X145673000Y-110203500D01*
X145720000Y-110202500D01*
X145767000Y-110203500D01*
G37*
X145767000Y-110203500D02*
X145814000Y-110207500D01*
X145861000Y-110213500D01*
X145907000Y-110222500D01*
X145953000Y-110233500D01*
X145998000Y-110246500D01*
X146043000Y-110262500D01*
X146086000Y-110280500D01*
X146129000Y-110300500D01*
X146170000Y-110323500D01*
X146210000Y-110347500D01*
X146249000Y-110374500D01*
X146286000Y-110403500D01*
X146322000Y-110433500D01*
X146356000Y-110466500D01*
X146389000Y-110500500D01*
X146419000Y-110536500D01*
X146448000Y-110573500D01*
X146475000Y-110612500D01*
X146499000Y-110652500D01*
X146522000Y-110693500D01*
X146542000Y-110736500D01*
X146560000Y-110779500D01*
X146576000Y-110824500D01*
X146589000Y-110869500D01*
X146600000Y-110915500D01*
X146609000Y-110961500D01*
X146615000Y-111008500D01*
X146619000Y-111055500D01*
X146620000Y-111102500D01*
X146620000Y-113602500D01*
X144820000Y-113602500D01*
X144820000Y-111102500D01*
X144821000Y-111055500D01*
X144825000Y-111008500D01*
X144831000Y-110961500D01*
X144840000Y-110915500D01*
X144851000Y-110869500D01*
X144864000Y-110824500D01*
X144880000Y-110779500D01*
X144898000Y-110736500D01*
X144918000Y-110693500D01*
X144941000Y-110652500D01*
X144965000Y-110612500D01*
X144992000Y-110573500D01*
X145021000Y-110536500D01*
X145051000Y-110500500D01*
X145084000Y-110466500D01*
X145118000Y-110433500D01*
X145154000Y-110403500D01*
X145191000Y-110374500D01*
X145230000Y-110347500D01*
X145270000Y-110323500D01*
X145311000Y-110300500D01*
X145354000Y-110280500D01*
X145397000Y-110262500D01*
X145442000Y-110246500D01*
X145487000Y-110233500D01*
X145533000Y-110222500D01*
X145579000Y-110213500D01*
X145626000Y-110207500D01*
X145673000Y-110203500D01*
X145720000Y-110202500D01*
X145767000Y-110203500D01*
G36*
X172020000Y-93322500D02*
G01*
X172019000Y-93369500D01*
X172015000Y-93416500D01*
X172009000Y-93463500D01*
X172000000Y-93509500D01*
X171989000Y-93555500D01*
X171976000Y-93600500D01*
X171960000Y-93645500D01*
X171942000Y-93688500D01*
X171922000Y-93731500D01*
X171899000Y-93772500D01*
X171875000Y-93812500D01*
X171848000Y-93851500D01*
X171819000Y-93888500D01*
X171789000Y-93924500D01*
X171756000Y-93958500D01*
X171722000Y-93991500D01*
X171686000Y-94021500D01*
X171649000Y-94050500D01*
X171610000Y-94077500D01*
X171570000Y-94101500D01*
X171529000Y-94124500D01*
X171486000Y-94144500D01*
X171443000Y-94162500D01*
X171398000Y-94178500D01*
X171353000Y-94191500D01*
X171307000Y-94202500D01*
X171261000Y-94211500D01*
X171214000Y-94217500D01*
X171167000Y-94221500D01*
X171120000Y-94222500D01*
X171073000Y-94221500D01*
X171026000Y-94217500D01*
X170979000Y-94211500D01*
X170933000Y-94202500D01*
X170887000Y-94191500D01*
X170842000Y-94178500D01*
X170797000Y-94162500D01*
X170754000Y-94144500D01*
X170711000Y-94124500D01*
X170670000Y-94101500D01*
X170630000Y-94077500D01*
X170591000Y-94050500D01*
X170554000Y-94021500D01*
X170518000Y-93991500D01*
X170484000Y-93958500D01*
X170451000Y-93924500D01*
X170421000Y-93888500D01*
X170392000Y-93851500D01*
X170365000Y-93812500D01*
X170341000Y-93772500D01*
X170318000Y-93731500D01*
X170298000Y-93688500D01*
X170280000Y-93645500D01*
X170264000Y-93600500D01*
X170251000Y-93555500D01*
X170240000Y-93509500D01*
X170231000Y-93463500D01*
X170225000Y-93416500D01*
X170221000Y-93369500D01*
X170220000Y-93322500D01*
X170220000Y-90822500D01*
X172020000Y-90822500D01*
X172020000Y-93322500D01*
G37*
X172020000Y-93322500D02*
X172019000Y-93369500D01*
X172015000Y-93416500D01*
X172009000Y-93463500D01*
X172000000Y-93509500D01*
X171989000Y-93555500D01*
X171976000Y-93600500D01*
X171960000Y-93645500D01*
X171942000Y-93688500D01*
X171922000Y-93731500D01*
X171899000Y-93772500D01*
X171875000Y-93812500D01*
X171848000Y-93851500D01*
X171819000Y-93888500D01*
X171789000Y-93924500D01*
X171756000Y-93958500D01*
X171722000Y-93991500D01*
X171686000Y-94021500D01*
X171649000Y-94050500D01*
X171610000Y-94077500D01*
X171570000Y-94101500D01*
X171529000Y-94124500D01*
X171486000Y-94144500D01*
X171443000Y-94162500D01*
X171398000Y-94178500D01*
X171353000Y-94191500D01*
X171307000Y-94202500D01*
X171261000Y-94211500D01*
X171214000Y-94217500D01*
X171167000Y-94221500D01*
X171120000Y-94222500D01*
X171073000Y-94221500D01*
X171026000Y-94217500D01*
X170979000Y-94211500D01*
X170933000Y-94202500D01*
X170887000Y-94191500D01*
X170842000Y-94178500D01*
X170797000Y-94162500D01*
X170754000Y-94144500D01*
X170711000Y-94124500D01*
X170670000Y-94101500D01*
X170630000Y-94077500D01*
X170591000Y-94050500D01*
X170554000Y-94021500D01*
X170518000Y-93991500D01*
X170484000Y-93958500D01*
X170451000Y-93924500D01*
X170421000Y-93888500D01*
X170392000Y-93851500D01*
X170365000Y-93812500D01*
X170341000Y-93772500D01*
X170318000Y-93731500D01*
X170298000Y-93688500D01*
X170280000Y-93645500D01*
X170264000Y-93600500D01*
X170251000Y-93555500D01*
X170240000Y-93509500D01*
X170231000Y-93463500D01*
X170225000Y-93416500D01*
X170221000Y-93369500D01*
X170220000Y-93322500D01*
X170220000Y-90822500D01*
X172020000Y-90822500D01*
X172020000Y-93322500D01*
G36*
X181327000Y-110203500D02*
G01*
X181374000Y-110207500D01*
X181421000Y-110213500D01*
X181467000Y-110222500D01*
X181513000Y-110233500D01*
X181558000Y-110246500D01*
X181603000Y-110262500D01*
X181646000Y-110280500D01*
X181689000Y-110300500D01*
X181730000Y-110323500D01*
X181770000Y-110347500D01*
X181809000Y-110374500D01*
X181846000Y-110403500D01*
X181882000Y-110433500D01*
X181916000Y-110466500D01*
X181949000Y-110500500D01*
X181979000Y-110536500D01*
X182008000Y-110573500D01*
X182035000Y-110612500D01*
X182059000Y-110652500D01*
X182082000Y-110693500D01*
X182102000Y-110736500D01*
X182120000Y-110779500D01*
X182136000Y-110824500D01*
X182149000Y-110869500D01*
X182160000Y-110915500D01*
X182169000Y-110961500D01*
X182175000Y-111008500D01*
X182179000Y-111055500D01*
X182180000Y-111102500D01*
X182180000Y-113602500D01*
X180380000Y-113602500D01*
X180380000Y-111102500D01*
X180381000Y-111055500D01*
X180385000Y-111008500D01*
X180391000Y-110961500D01*
X180400000Y-110915500D01*
X180411000Y-110869500D01*
X180424000Y-110824500D01*
X180440000Y-110779500D01*
X180458000Y-110736500D01*
X180478000Y-110693500D01*
X180501000Y-110652500D01*
X180525000Y-110612500D01*
X180552000Y-110573500D01*
X180581000Y-110536500D01*
X180611000Y-110500500D01*
X180644000Y-110466500D01*
X180678000Y-110433500D01*
X180714000Y-110403500D01*
X180751000Y-110374500D01*
X180790000Y-110347500D01*
X180830000Y-110323500D01*
X180871000Y-110300500D01*
X180914000Y-110280500D01*
X180957000Y-110262500D01*
X181002000Y-110246500D01*
X181047000Y-110233500D01*
X181093000Y-110222500D01*
X181139000Y-110213500D01*
X181186000Y-110207500D01*
X181233000Y-110203500D01*
X181280000Y-110202500D01*
X181327000Y-110203500D01*
G37*
X181327000Y-110203500D02*
X181374000Y-110207500D01*
X181421000Y-110213500D01*
X181467000Y-110222500D01*
X181513000Y-110233500D01*
X181558000Y-110246500D01*
X181603000Y-110262500D01*
X181646000Y-110280500D01*
X181689000Y-110300500D01*
X181730000Y-110323500D01*
X181770000Y-110347500D01*
X181809000Y-110374500D01*
X181846000Y-110403500D01*
X181882000Y-110433500D01*
X181916000Y-110466500D01*
X181949000Y-110500500D01*
X181979000Y-110536500D01*
X182008000Y-110573500D01*
X182035000Y-110612500D01*
X182059000Y-110652500D01*
X182082000Y-110693500D01*
X182102000Y-110736500D01*
X182120000Y-110779500D01*
X182136000Y-110824500D01*
X182149000Y-110869500D01*
X182160000Y-110915500D01*
X182169000Y-110961500D01*
X182175000Y-111008500D01*
X182179000Y-111055500D01*
X182180000Y-111102500D01*
X182180000Y-113602500D01*
X180380000Y-113602500D01*
X180380000Y-111102500D01*
X180381000Y-111055500D01*
X180385000Y-111008500D01*
X180391000Y-110961500D01*
X180400000Y-110915500D01*
X180411000Y-110869500D01*
X180424000Y-110824500D01*
X180440000Y-110779500D01*
X180458000Y-110736500D01*
X180478000Y-110693500D01*
X180501000Y-110652500D01*
X180525000Y-110612500D01*
X180552000Y-110573500D01*
X180581000Y-110536500D01*
X180611000Y-110500500D01*
X180644000Y-110466500D01*
X180678000Y-110433500D01*
X180714000Y-110403500D01*
X180751000Y-110374500D01*
X180790000Y-110347500D01*
X180830000Y-110323500D01*
X180871000Y-110300500D01*
X180914000Y-110280500D01*
X180957000Y-110262500D01*
X181002000Y-110246500D01*
X181047000Y-110233500D01*
X181093000Y-110222500D01*
X181139000Y-110213500D01*
X181186000Y-110207500D01*
X181233000Y-110203500D01*
X181280000Y-110202500D01*
X181327000Y-110203500D01*
G36*
X178787000Y-110203500D02*
G01*
X178834000Y-110207500D01*
X178881000Y-110213500D01*
X178927000Y-110222500D01*
X178973000Y-110233500D01*
X179018000Y-110246500D01*
X179063000Y-110262500D01*
X179106000Y-110280500D01*
X179149000Y-110300500D01*
X179190000Y-110323500D01*
X179230000Y-110347500D01*
X179269000Y-110374500D01*
X179306000Y-110403500D01*
X179342000Y-110433500D01*
X179376000Y-110466500D01*
X179409000Y-110500500D01*
X179439000Y-110536500D01*
X179468000Y-110573500D01*
X179495000Y-110612500D01*
X179519000Y-110652500D01*
X179542000Y-110693500D01*
X179562000Y-110736500D01*
X179580000Y-110779500D01*
X179596000Y-110824500D01*
X179609000Y-110869500D01*
X179620000Y-110915500D01*
X179629000Y-110961500D01*
X179635000Y-111008500D01*
X179639000Y-111055500D01*
X179640000Y-111102500D01*
X179640000Y-113602500D01*
X177840000Y-113602500D01*
X177840000Y-111102500D01*
X177841000Y-111055500D01*
X177845000Y-111008500D01*
X177851000Y-110961500D01*
X177860000Y-110915500D01*
X177871000Y-110869500D01*
X177884000Y-110824500D01*
X177900000Y-110779500D01*
X177918000Y-110736500D01*
X177938000Y-110693500D01*
X177961000Y-110652500D01*
X177985000Y-110612500D01*
X178012000Y-110573500D01*
X178041000Y-110536500D01*
X178071000Y-110500500D01*
X178104000Y-110466500D01*
X178138000Y-110433500D01*
X178174000Y-110403500D01*
X178211000Y-110374500D01*
X178250000Y-110347500D01*
X178290000Y-110323500D01*
X178331000Y-110300500D01*
X178374000Y-110280500D01*
X178417000Y-110262500D01*
X178462000Y-110246500D01*
X178507000Y-110233500D01*
X178553000Y-110222500D01*
X178599000Y-110213500D01*
X178646000Y-110207500D01*
X178693000Y-110203500D01*
X178740000Y-110202500D01*
X178787000Y-110203500D01*
G37*
X178787000Y-110203500D02*
X178834000Y-110207500D01*
X178881000Y-110213500D01*
X178927000Y-110222500D01*
X178973000Y-110233500D01*
X179018000Y-110246500D01*
X179063000Y-110262500D01*
X179106000Y-110280500D01*
X179149000Y-110300500D01*
X179190000Y-110323500D01*
X179230000Y-110347500D01*
X179269000Y-110374500D01*
X179306000Y-110403500D01*
X179342000Y-110433500D01*
X179376000Y-110466500D01*
X179409000Y-110500500D01*
X179439000Y-110536500D01*
X179468000Y-110573500D01*
X179495000Y-110612500D01*
X179519000Y-110652500D01*
X179542000Y-110693500D01*
X179562000Y-110736500D01*
X179580000Y-110779500D01*
X179596000Y-110824500D01*
X179609000Y-110869500D01*
X179620000Y-110915500D01*
X179629000Y-110961500D01*
X179635000Y-111008500D01*
X179639000Y-111055500D01*
X179640000Y-111102500D01*
X179640000Y-113602500D01*
X177840000Y-113602500D01*
X177840000Y-111102500D01*
X177841000Y-111055500D01*
X177845000Y-111008500D01*
X177851000Y-110961500D01*
X177860000Y-110915500D01*
X177871000Y-110869500D01*
X177884000Y-110824500D01*
X177900000Y-110779500D01*
X177918000Y-110736500D01*
X177938000Y-110693500D01*
X177961000Y-110652500D01*
X177985000Y-110612500D01*
X178012000Y-110573500D01*
X178041000Y-110536500D01*
X178071000Y-110500500D01*
X178104000Y-110466500D01*
X178138000Y-110433500D01*
X178174000Y-110403500D01*
X178211000Y-110374500D01*
X178250000Y-110347500D01*
X178290000Y-110323500D01*
X178331000Y-110300500D01*
X178374000Y-110280500D01*
X178417000Y-110262500D01*
X178462000Y-110246500D01*
X178507000Y-110233500D01*
X178553000Y-110222500D01*
X178599000Y-110213500D01*
X178646000Y-110207500D01*
X178693000Y-110203500D01*
X178740000Y-110202500D01*
X178787000Y-110203500D01*
G36*
X155927000Y-110203500D02*
G01*
X155974000Y-110207500D01*
X156021000Y-110213500D01*
X156067000Y-110222500D01*
X156113000Y-110233500D01*
X156158000Y-110246500D01*
X156203000Y-110262500D01*
X156246000Y-110280500D01*
X156289000Y-110300500D01*
X156330000Y-110323500D01*
X156370000Y-110347500D01*
X156409000Y-110374500D01*
X156446000Y-110403500D01*
X156482000Y-110433500D01*
X156516000Y-110466500D01*
X156549000Y-110500500D01*
X156579000Y-110536500D01*
X156608000Y-110573500D01*
X156635000Y-110612500D01*
X156659000Y-110652500D01*
X156682000Y-110693500D01*
X156702000Y-110736500D01*
X156720000Y-110779500D01*
X156736000Y-110824500D01*
X156749000Y-110869500D01*
X156760000Y-110915500D01*
X156769000Y-110961500D01*
X156775000Y-111008500D01*
X156779000Y-111055500D01*
X156780000Y-111102500D01*
X156780000Y-113602500D01*
X154980000Y-113602500D01*
X154980000Y-111102500D01*
X154981000Y-111055500D01*
X154985000Y-111008500D01*
X154991000Y-110961500D01*
X155000000Y-110915500D01*
X155011000Y-110869500D01*
X155024000Y-110824500D01*
X155040000Y-110779500D01*
X155058000Y-110736500D01*
X155078000Y-110693500D01*
X155101000Y-110652500D01*
X155125000Y-110612500D01*
X155152000Y-110573500D01*
X155181000Y-110536500D01*
X155211000Y-110500500D01*
X155244000Y-110466500D01*
X155278000Y-110433500D01*
X155314000Y-110403500D01*
X155351000Y-110374500D01*
X155390000Y-110347500D01*
X155430000Y-110323500D01*
X155471000Y-110300500D01*
X155514000Y-110280500D01*
X155557000Y-110262500D01*
X155602000Y-110246500D01*
X155647000Y-110233500D01*
X155693000Y-110222500D01*
X155739000Y-110213500D01*
X155786000Y-110207500D01*
X155833000Y-110203500D01*
X155880000Y-110202500D01*
X155927000Y-110203500D01*
G37*
X155927000Y-110203500D02*
X155974000Y-110207500D01*
X156021000Y-110213500D01*
X156067000Y-110222500D01*
X156113000Y-110233500D01*
X156158000Y-110246500D01*
X156203000Y-110262500D01*
X156246000Y-110280500D01*
X156289000Y-110300500D01*
X156330000Y-110323500D01*
X156370000Y-110347500D01*
X156409000Y-110374500D01*
X156446000Y-110403500D01*
X156482000Y-110433500D01*
X156516000Y-110466500D01*
X156549000Y-110500500D01*
X156579000Y-110536500D01*
X156608000Y-110573500D01*
X156635000Y-110612500D01*
X156659000Y-110652500D01*
X156682000Y-110693500D01*
X156702000Y-110736500D01*
X156720000Y-110779500D01*
X156736000Y-110824500D01*
X156749000Y-110869500D01*
X156760000Y-110915500D01*
X156769000Y-110961500D01*
X156775000Y-111008500D01*
X156779000Y-111055500D01*
X156780000Y-111102500D01*
X156780000Y-113602500D01*
X154980000Y-113602500D01*
X154980000Y-111102500D01*
X154981000Y-111055500D01*
X154985000Y-111008500D01*
X154991000Y-110961500D01*
X155000000Y-110915500D01*
X155011000Y-110869500D01*
X155024000Y-110824500D01*
X155040000Y-110779500D01*
X155058000Y-110736500D01*
X155078000Y-110693500D01*
X155101000Y-110652500D01*
X155125000Y-110612500D01*
X155152000Y-110573500D01*
X155181000Y-110536500D01*
X155211000Y-110500500D01*
X155244000Y-110466500D01*
X155278000Y-110433500D01*
X155314000Y-110403500D01*
X155351000Y-110374500D01*
X155390000Y-110347500D01*
X155430000Y-110323500D01*
X155471000Y-110300500D01*
X155514000Y-110280500D01*
X155557000Y-110262500D01*
X155602000Y-110246500D01*
X155647000Y-110233500D01*
X155693000Y-110222500D01*
X155739000Y-110213500D01*
X155786000Y-110207500D01*
X155833000Y-110203500D01*
X155880000Y-110202500D01*
X155927000Y-110203500D01*
G36*
X138731000Y-110204500D02*
G01*
X138747000Y-110206500D01*
X138762000Y-110209500D01*
X138778000Y-110212500D01*
X138808000Y-110222500D01*
X138822000Y-110228500D01*
X138850000Y-110242500D01*
X138863000Y-110250500D01*
X138876000Y-110259500D01*
X138889000Y-110269500D01*
X138901000Y-110279500D01*
X138923000Y-110301500D01*
X138933000Y-110313500D01*
X138943000Y-110326500D01*
X138952000Y-110339500D01*
X138960000Y-110352500D01*
X138974000Y-110380500D01*
X138980000Y-110394500D01*
X138990000Y-110424500D01*
X138993000Y-110440500D01*
X138996000Y-110455500D01*
X138998000Y-110471500D01*
X139000000Y-110486500D01*
X139000000Y-113602500D01*
X137200000Y-113602500D01*
X137200000Y-110486500D01*
X137202000Y-110471500D01*
X137204000Y-110455500D01*
X137207000Y-110440500D01*
X137210000Y-110424500D01*
X137220000Y-110394500D01*
X137226000Y-110380500D01*
X137240000Y-110352500D01*
X137248000Y-110339500D01*
X137257000Y-110326500D01*
X137267000Y-110313500D01*
X137277000Y-110301500D01*
X137299000Y-110279500D01*
X137311000Y-110269500D01*
X137324000Y-110259500D01*
X137337000Y-110250500D01*
X137350000Y-110242500D01*
X137378000Y-110228500D01*
X137392000Y-110222500D01*
X137422000Y-110212500D01*
X137438000Y-110209500D01*
X137453000Y-110206500D01*
X137469000Y-110204500D01*
X137484000Y-110202500D01*
X138716000Y-110202500D01*
X138731000Y-110204500D01*
G37*
X138731000Y-110204500D02*
X138747000Y-110206500D01*
X138762000Y-110209500D01*
X138778000Y-110212500D01*
X138808000Y-110222500D01*
X138822000Y-110228500D01*
X138850000Y-110242500D01*
X138863000Y-110250500D01*
X138876000Y-110259500D01*
X138889000Y-110269500D01*
X138901000Y-110279500D01*
X138923000Y-110301500D01*
X138933000Y-110313500D01*
X138943000Y-110326500D01*
X138952000Y-110339500D01*
X138960000Y-110352500D01*
X138974000Y-110380500D01*
X138980000Y-110394500D01*
X138990000Y-110424500D01*
X138993000Y-110440500D01*
X138996000Y-110455500D01*
X138998000Y-110471500D01*
X139000000Y-110486500D01*
X139000000Y-113602500D01*
X137200000Y-113602500D01*
X137200000Y-110486500D01*
X137202000Y-110471500D01*
X137204000Y-110455500D01*
X137207000Y-110440500D01*
X137210000Y-110424500D01*
X137220000Y-110394500D01*
X137226000Y-110380500D01*
X137240000Y-110352500D01*
X137248000Y-110339500D01*
X137257000Y-110326500D01*
X137267000Y-110313500D01*
X137277000Y-110301500D01*
X137299000Y-110279500D01*
X137311000Y-110269500D01*
X137324000Y-110259500D01*
X137337000Y-110250500D01*
X137350000Y-110242500D01*
X137378000Y-110228500D01*
X137392000Y-110222500D01*
X137422000Y-110212500D01*
X137438000Y-110209500D01*
X137453000Y-110206500D01*
X137469000Y-110204500D01*
X137484000Y-110202500D01*
X138716000Y-110202500D01*
X138731000Y-110204500D01*
G36*
X166940000Y-93322500D02*
G01*
X166939000Y-93369500D01*
X166935000Y-93416500D01*
X166929000Y-93463500D01*
X166920000Y-93509500D01*
X166909000Y-93555500D01*
X166896000Y-93600500D01*
X166880000Y-93645500D01*
X166862000Y-93688500D01*
X166842000Y-93731500D01*
X166819000Y-93772500D01*
X166795000Y-93812500D01*
X166768000Y-93851500D01*
X166739000Y-93888500D01*
X166709000Y-93924500D01*
X166676000Y-93958500D01*
X166642000Y-93991500D01*
X166606000Y-94021500D01*
X166569000Y-94050500D01*
X166530000Y-94077500D01*
X166490000Y-94101500D01*
X166449000Y-94124500D01*
X166406000Y-94144500D01*
X166363000Y-94162500D01*
X166318000Y-94178500D01*
X166273000Y-94191500D01*
X166227000Y-94202500D01*
X166181000Y-94211500D01*
X166134000Y-94217500D01*
X166087000Y-94221500D01*
X166040000Y-94222500D01*
X165993000Y-94221500D01*
X165946000Y-94217500D01*
X165899000Y-94211500D01*
X165853000Y-94202500D01*
X165807000Y-94191500D01*
X165762000Y-94178500D01*
X165717000Y-94162500D01*
X165674000Y-94144500D01*
X165631000Y-94124500D01*
X165590000Y-94101500D01*
X165550000Y-94077500D01*
X165511000Y-94050500D01*
X165474000Y-94021500D01*
X165438000Y-93991500D01*
X165404000Y-93958500D01*
X165371000Y-93924500D01*
X165341000Y-93888500D01*
X165312000Y-93851500D01*
X165285000Y-93812500D01*
X165261000Y-93772500D01*
X165238000Y-93731500D01*
X165218000Y-93688500D01*
X165200000Y-93645500D01*
X165184000Y-93600500D01*
X165171000Y-93555500D01*
X165160000Y-93509500D01*
X165151000Y-93463500D01*
X165145000Y-93416500D01*
X165141000Y-93369500D01*
X165140000Y-93322500D01*
X165140000Y-90822500D01*
X166940000Y-90822500D01*
X166940000Y-93322500D01*
G37*
X166940000Y-93322500D02*
X166939000Y-93369500D01*
X166935000Y-93416500D01*
X166929000Y-93463500D01*
X166920000Y-93509500D01*
X166909000Y-93555500D01*
X166896000Y-93600500D01*
X166880000Y-93645500D01*
X166862000Y-93688500D01*
X166842000Y-93731500D01*
X166819000Y-93772500D01*
X166795000Y-93812500D01*
X166768000Y-93851500D01*
X166739000Y-93888500D01*
X166709000Y-93924500D01*
X166676000Y-93958500D01*
X166642000Y-93991500D01*
X166606000Y-94021500D01*
X166569000Y-94050500D01*
X166530000Y-94077500D01*
X166490000Y-94101500D01*
X166449000Y-94124500D01*
X166406000Y-94144500D01*
X166363000Y-94162500D01*
X166318000Y-94178500D01*
X166273000Y-94191500D01*
X166227000Y-94202500D01*
X166181000Y-94211500D01*
X166134000Y-94217500D01*
X166087000Y-94221500D01*
X166040000Y-94222500D01*
X165993000Y-94221500D01*
X165946000Y-94217500D01*
X165899000Y-94211500D01*
X165853000Y-94202500D01*
X165807000Y-94191500D01*
X165762000Y-94178500D01*
X165717000Y-94162500D01*
X165674000Y-94144500D01*
X165631000Y-94124500D01*
X165590000Y-94101500D01*
X165550000Y-94077500D01*
X165511000Y-94050500D01*
X165474000Y-94021500D01*
X165438000Y-93991500D01*
X165404000Y-93958500D01*
X165371000Y-93924500D01*
X165341000Y-93888500D01*
X165312000Y-93851500D01*
X165285000Y-93812500D01*
X165261000Y-93772500D01*
X165238000Y-93731500D01*
X165218000Y-93688500D01*
X165200000Y-93645500D01*
X165184000Y-93600500D01*
X165171000Y-93555500D01*
X165160000Y-93509500D01*
X165151000Y-93463500D01*
X165145000Y-93416500D01*
X165141000Y-93369500D01*
X165140000Y-93322500D01*
X165140000Y-90822500D01*
X166940000Y-90822500D01*
X166940000Y-93322500D01*
G36*
X164400000Y-93938500D02*
G01*
X164398000Y-93953500D01*
X164396000Y-93969500D01*
X164393000Y-93984500D01*
X164390000Y-94000500D01*
X164380000Y-94030500D01*
X164374000Y-94044500D01*
X164360000Y-94072500D01*
X164352000Y-94085500D01*
X164343000Y-94098500D01*
X164333000Y-94111500D01*
X164323000Y-94123500D01*
X164301000Y-94145500D01*
X164289000Y-94155500D01*
X164276000Y-94165500D01*
X164263000Y-94174500D01*
X164250000Y-94182500D01*
X164222000Y-94196500D01*
X164208000Y-94202500D01*
X164178000Y-94212500D01*
X164162000Y-94215500D01*
X164147000Y-94218500D01*
X164131000Y-94220500D01*
X164116000Y-94222500D01*
X162884000Y-94222500D01*
X162869000Y-94220500D01*
X162853000Y-94218500D01*
X162838000Y-94215500D01*
X162822000Y-94212500D01*
X162792000Y-94202500D01*
X162778000Y-94196500D01*
X162750000Y-94182500D01*
X162737000Y-94174500D01*
X162724000Y-94165500D01*
X162711000Y-94155500D01*
X162699000Y-94145500D01*
X162677000Y-94123500D01*
X162667000Y-94111500D01*
X162657000Y-94098500D01*
X162648000Y-94085500D01*
X162640000Y-94072500D01*
X162626000Y-94044500D01*
X162620000Y-94030500D01*
X162610000Y-94000500D01*
X162607000Y-93984500D01*
X162604000Y-93969500D01*
X162602000Y-93953500D01*
X162600000Y-93938500D01*
X162600000Y-90822500D01*
X164400000Y-90822500D01*
X164400000Y-93938500D01*
G37*
X164400000Y-93938500D02*
X164398000Y-93953500D01*
X164396000Y-93969500D01*
X164393000Y-93984500D01*
X164390000Y-94000500D01*
X164380000Y-94030500D01*
X164374000Y-94044500D01*
X164360000Y-94072500D01*
X164352000Y-94085500D01*
X164343000Y-94098500D01*
X164333000Y-94111500D01*
X164323000Y-94123500D01*
X164301000Y-94145500D01*
X164289000Y-94155500D01*
X164276000Y-94165500D01*
X164263000Y-94174500D01*
X164250000Y-94182500D01*
X164222000Y-94196500D01*
X164208000Y-94202500D01*
X164178000Y-94212500D01*
X164162000Y-94215500D01*
X164147000Y-94218500D01*
X164131000Y-94220500D01*
X164116000Y-94222500D01*
X162884000Y-94222500D01*
X162869000Y-94220500D01*
X162853000Y-94218500D01*
X162838000Y-94215500D01*
X162822000Y-94212500D01*
X162792000Y-94202500D01*
X162778000Y-94196500D01*
X162750000Y-94182500D01*
X162737000Y-94174500D01*
X162724000Y-94165500D01*
X162711000Y-94155500D01*
X162699000Y-94145500D01*
X162677000Y-94123500D01*
X162667000Y-94111500D01*
X162657000Y-94098500D01*
X162648000Y-94085500D01*
X162640000Y-94072500D01*
X162626000Y-94044500D01*
X162620000Y-94030500D01*
X162610000Y-94000500D01*
X162607000Y-93984500D01*
X162604000Y-93969500D01*
X162602000Y-93953500D01*
X162600000Y-93938500D01*
X162600000Y-90822500D01*
X164400000Y-90822500D01*
X164400000Y-93938500D01*
G36*
X149160000Y-93322500D02*
G01*
X149159000Y-93369500D01*
X149155000Y-93416500D01*
X149149000Y-93463500D01*
X149140000Y-93509500D01*
X149129000Y-93555500D01*
X149116000Y-93600500D01*
X149100000Y-93645500D01*
X149082000Y-93688500D01*
X149062000Y-93731500D01*
X149039000Y-93772500D01*
X149015000Y-93812500D01*
X148988000Y-93851500D01*
X148959000Y-93888500D01*
X148929000Y-93924500D01*
X148896000Y-93958500D01*
X148862000Y-93991500D01*
X148826000Y-94021500D01*
X148789000Y-94050500D01*
X148750000Y-94077500D01*
X148710000Y-94101500D01*
X148669000Y-94124500D01*
X148626000Y-94144500D01*
X148583000Y-94162500D01*
X148538000Y-94178500D01*
X148493000Y-94191500D01*
X148447000Y-94202500D01*
X148401000Y-94211500D01*
X148354000Y-94217500D01*
X148307000Y-94221500D01*
X148260000Y-94222500D01*
X148213000Y-94221500D01*
X148166000Y-94217500D01*
X148119000Y-94211500D01*
X148073000Y-94202500D01*
X148027000Y-94191500D01*
X147982000Y-94178500D01*
X147937000Y-94162500D01*
X147894000Y-94144500D01*
X147851000Y-94124500D01*
X147810000Y-94101500D01*
X147770000Y-94077500D01*
X147731000Y-94050500D01*
X147694000Y-94021500D01*
X147658000Y-93991500D01*
X147624000Y-93958500D01*
X147591000Y-93924500D01*
X147561000Y-93888500D01*
X147532000Y-93851500D01*
X147505000Y-93812500D01*
X147481000Y-93772500D01*
X147458000Y-93731500D01*
X147438000Y-93688500D01*
X147420000Y-93645500D01*
X147404000Y-93600500D01*
X147391000Y-93555500D01*
X147380000Y-93509500D01*
X147371000Y-93463500D01*
X147365000Y-93416500D01*
X147361000Y-93369500D01*
X147360000Y-93322500D01*
X147360000Y-90822500D01*
X149160000Y-90822500D01*
X149160000Y-93322500D01*
G37*
X149160000Y-93322500D02*
X149159000Y-93369500D01*
X149155000Y-93416500D01*
X149149000Y-93463500D01*
X149140000Y-93509500D01*
X149129000Y-93555500D01*
X149116000Y-93600500D01*
X149100000Y-93645500D01*
X149082000Y-93688500D01*
X149062000Y-93731500D01*
X149039000Y-93772500D01*
X149015000Y-93812500D01*
X148988000Y-93851500D01*
X148959000Y-93888500D01*
X148929000Y-93924500D01*
X148896000Y-93958500D01*
X148862000Y-93991500D01*
X148826000Y-94021500D01*
X148789000Y-94050500D01*
X148750000Y-94077500D01*
X148710000Y-94101500D01*
X148669000Y-94124500D01*
X148626000Y-94144500D01*
X148583000Y-94162500D01*
X148538000Y-94178500D01*
X148493000Y-94191500D01*
X148447000Y-94202500D01*
X148401000Y-94211500D01*
X148354000Y-94217500D01*
X148307000Y-94221500D01*
X148260000Y-94222500D01*
X148213000Y-94221500D01*
X148166000Y-94217500D01*
X148119000Y-94211500D01*
X148073000Y-94202500D01*
X148027000Y-94191500D01*
X147982000Y-94178500D01*
X147937000Y-94162500D01*
X147894000Y-94144500D01*
X147851000Y-94124500D01*
X147810000Y-94101500D01*
X147770000Y-94077500D01*
X147731000Y-94050500D01*
X147694000Y-94021500D01*
X147658000Y-93991500D01*
X147624000Y-93958500D01*
X147591000Y-93924500D01*
X147561000Y-93888500D01*
X147532000Y-93851500D01*
X147505000Y-93812500D01*
X147481000Y-93772500D01*
X147458000Y-93731500D01*
X147438000Y-93688500D01*
X147420000Y-93645500D01*
X147404000Y-93600500D01*
X147391000Y-93555500D01*
X147380000Y-93509500D01*
X147371000Y-93463500D01*
X147365000Y-93416500D01*
X147361000Y-93369500D01*
X147360000Y-93322500D01*
X147360000Y-90822500D01*
X149160000Y-90822500D01*
X149160000Y-93322500D01*
G36*
X151431000Y-110204500D02*
G01*
X151447000Y-110206500D01*
X151462000Y-110209500D01*
X151478000Y-110212500D01*
X151508000Y-110222500D01*
X151522000Y-110228500D01*
X151550000Y-110242500D01*
X151563000Y-110250500D01*
X151576000Y-110259500D01*
X151589000Y-110269500D01*
X151601000Y-110279500D01*
X151623000Y-110301500D01*
X151633000Y-110313500D01*
X151643000Y-110326500D01*
X151652000Y-110339500D01*
X151660000Y-110352500D01*
X151674000Y-110380500D01*
X151680000Y-110394500D01*
X151690000Y-110424500D01*
X151693000Y-110440500D01*
X151696000Y-110455500D01*
X151698000Y-110471500D01*
X151700000Y-110486500D01*
X151700000Y-113602500D01*
X149900000Y-113602500D01*
X149900000Y-110486500D01*
X149902000Y-110471500D01*
X149904000Y-110455500D01*
X149907000Y-110440500D01*
X149910000Y-110424500D01*
X149920000Y-110394500D01*
X149926000Y-110380500D01*
X149940000Y-110352500D01*
X149948000Y-110339500D01*
X149957000Y-110326500D01*
X149967000Y-110313500D01*
X149977000Y-110301500D01*
X149999000Y-110279500D01*
X150011000Y-110269500D01*
X150024000Y-110259500D01*
X150037000Y-110250500D01*
X150050000Y-110242500D01*
X150078000Y-110228500D01*
X150092000Y-110222500D01*
X150122000Y-110212500D01*
X150138000Y-110209500D01*
X150153000Y-110206500D01*
X150169000Y-110204500D01*
X150184000Y-110202500D01*
X151416000Y-110202500D01*
X151431000Y-110204500D01*
G37*
X151431000Y-110204500D02*
X151447000Y-110206500D01*
X151462000Y-110209500D01*
X151478000Y-110212500D01*
X151508000Y-110222500D01*
X151522000Y-110228500D01*
X151550000Y-110242500D01*
X151563000Y-110250500D01*
X151576000Y-110259500D01*
X151589000Y-110269500D01*
X151601000Y-110279500D01*
X151623000Y-110301500D01*
X151633000Y-110313500D01*
X151643000Y-110326500D01*
X151652000Y-110339500D01*
X151660000Y-110352500D01*
X151674000Y-110380500D01*
X151680000Y-110394500D01*
X151690000Y-110424500D01*
X151693000Y-110440500D01*
X151696000Y-110455500D01*
X151698000Y-110471500D01*
X151700000Y-110486500D01*
X151700000Y-113602500D01*
X149900000Y-113602500D01*
X149900000Y-110486500D01*
X149902000Y-110471500D01*
X149904000Y-110455500D01*
X149907000Y-110440500D01*
X149910000Y-110424500D01*
X149920000Y-110394500D01*
X149926000Y-110380500D01*
X149940000Y-110352500D01*
X149948000Y-110339500D01*
X149957000Y-110326500D01*
X149967000Y-110313500D01*
X149977000Y-110301500D01*
X149999000Y-110279500D01*
X150011000Y-110269500D01*
X150024000Y-110259500D01*
X150037000Y-110250500D01*
X150050000Y-110242500D01*
X150078000Y-110228500D01*
X150092000Y-110222500D01*
X150122000Y-110212500D01*
X150138000Y-110209500D01*
X150153000Y-110206500D01*
X150169000Y-110204500D01*
X150184000Y-110202500D01*
X151416000Y-110202500D01*
X151431000Y-110204500D01*
G36*
X139000000Y-93938500D02*
G01*
X138998000Y-93953500D01*
X138996000Y-93969500D01*
X138993000Y-93984500D01*
X138990000Y-94000500D01*
X138980000Y-94030500D01*
X138974000Y-94044500D01*
X138960000Y-94072500D01*
X138952000Y-94085500D01*
X138943000Y-94098500D01*
X138933000Y-94111500D01*
X138923000Y-94123500D01*
X138901000Y-94145500D01*
X138889000Y-94155500D01*
X138876000Y-94165500D01*
X138863000Y-94174500D01*
X138850000Y-94182500D01*
X138822000Y-94196500D01*
X138808000Y-94202500D01*
X138778000Y-94212500D01*
X138762000Y-94215500D01*
X138747000Y-94218500D01*
X138731000Y-94220500D01*
X138716000Y-94222500D01*
X137484000Y-94222500D01*
X137469000Y-94220500D01*
X137453000Y-94218500D01*
X137438000Y-94215500D01*
X137422000Y-94212500D01*
X137392000Y-94202500D01*
X137378000Y-94196500D01*
X137350000Y-94182500D01*
X137337000Y-94174500D01*
X137324000Y-94165500D01*
X137311000Y-94155500D01*
X137299000Y-94145500D01*
X137277000Y-94123500D01*
X137267000Y-94111500D01*
X137257000Y-94098500D01*
X137248000Y-94085500D01*
X137240000Y-94072500D01*
X137226000Y-94044500D01*
X137220000Y-94030500D01*
X137210000Y-94000500D01*
X137207000Y-93984500D01*
X137204000Y-93969500D01*
X137202000Y-93953500D01*
X137200000Y-93938500D01*
X137200000Y-90822500D01*
X139000000Y-90822500D01*
X139000000Y-93938500D01*
G37*
X139000000Y-93938500D02*
X138998000Y-93953500D01*
X138996000Y-93969500D01*
X138993000Y-93984500D01*
X138990000Y-94000500D01*
X138980000Y-94030500D01*
X138974000Y-94044500D01*
X138960000Y-94072500D01*
X138952000Y-94085500D01*
X138943000Y-94098500D01*
X138933000Y-94111500D01*
X138923000Y-94123500D01*
X138901000Y-94145500D01*
X138889000Y-94155500D01*
X138876000Y-94165500D01*
X138863000Y-94174500D01*
X138850000Y-94182500D01*
X138822000Y-94196500D01*
X138808000Y-94202500D01*
X138778000Y-94212500D01*
X138762000Y-94215500D01*
X138747000Y-94218500D01*
X138731000Y-94220500D01*
X138716000Y-94222500D01*
X137484000Y-94222500D01*
X137469000Y-94220500D01*
X137453000Y-94218500D01*
X137438000Y-94215500D01*
X137422000Y-94212500D01*
X137392000Y-94202500D01*
X137378000Y-94196500D01*
X137350000Y-94182500D01*
X137337000Y-94174500D01*
X137324000Y-94165500D01*
X137311000Y-94155500D01*
X137299000Y-94145500D01*
X137277000Y-94123500D01*
X137267000Y-94111500D01*
X137257000Y-94098500D01*
X137248000Y-94085500D01*
X137240000Y-94072500D01*
X137226000Y-94044500D01*
X137220000Y-94030500D01*
X137210000Y-94000500D01*
X137207000Y-93984500D01*
X137204000Y-93969500D01*
X137202000Y-93953500D01*
X137200000Y-93938500D01*
X137200000Y-90822500D01*
X139000000Y-90822500D01*
X139000000Y-93938500D01*
G36*
X133920000Y-93322500D02*
G01*
X133919000Y-93369500D01*
X133915000Y-93416500D01*
X133909000Y-93463500D01*
X133900000Y-93509500D01*
X133889000Y-93555500D01*
X133876000Y-93600500D01*
X133860000Y-93645500D01*
X133842000Y-93688500D01*
X133822000Y-93731500D01*
X133799000Y-93772500D01*
X133775000Y-93812500D01*
X133748000Y-93851500D01*
X133719000Y-93888500D01*
X133689000Y-93924500D01*
X133656000Y-93958500D01*
X133622000Y-93991500D01*
X133586000Y-94021500D01*
X133549000Y-94050500D01*
X133510000Y-94077500D01*
X133470000Y-94101500D01*
X133429000Y-94124500D01*
X133386000Y-94144500D01*
X133343000Y-94162500D01*
X133298000Y-94178500D01*
X133253000Y-94191500D01*
X133207000Y-94202500D01*
X133161000Y-94211500D01*
X133114000Y-94217500D01*
X133067000Y-94221500D01*
X133020000Y-94222500D01*
X132973000Y-94221500D01*
X132926000Y-94217500D01*
X132879000Y-94211500D01*
X132833000Y-94202500D01*
X132787000Y-94191500D01*
X132742000Y-94178500D01*
X132697000Y-94162500D01*
X132654000Y-94144500D01*
X132611000Y-94124500D01*
X132570000Y-94101500D01*
X132530000Y-94077500D01*
X132491000Y-94050500D01*
X132454000Y-94021500D01*
X132418000Y-93991500D01*
X132384000Y-93958500D01*
X132351000Y-93924500D01*
X132321000Y-93888500D01*
X132292000Y-93851500D01*
X132265000Y-93812500D01*
X132241000Y-93772500D01*
X132218000Y-93731500D01*
X132198000Y-93688500D01*
X132180000Y-93645500D01*
X132164000Y-93600500D01*
X132151000Y-93555500D01*
X132140000Y-93509500D01*
X132131000Y-93463500D01*
X132125000Y-93416500D01*
X132121000Y-93369500D01*
X132120000Y-93322500D01*
X132120000Y-90822500D01*
X133920000Y-90822500D01*
X133920000Y-93322500D01*
G37*
X133920000Y-93322500D02*
X133919000Y-93369500D01*
X133915000Y-93416500D01*
X133909000Y-93463500D01*
X133900000Y-93509500D01*
X133889000Y-93555500D01*
X133876000Y-93600500D01*
X133860000Y-93645500D01*
X133842000Y-93688500D01*
X133822000Y-93731500D01*
X133799000Y-93772500D01*
X133775000Y-93812500D01*
X133748000Y-93851500D01*
X133719000Y-93888500D01*
X133689000Y-93924500D01*
X133656000Y-93958500D01*
X133622000Y-93991500D01*
X133586000Y-94021500D01*
X133549000Y-94050500D01*
X133510000Y-94077500D01*
X133470000Y-94101500D01*
X133429000Y-94124500D01*
X133386000Y-94144500D01*
X133343000Y-94162500D01*
X133298000Y-94178500D01*
X133253000Y-94191500D01*
X133207000Y-94202500D01*
X133161000Y-94211500D01*
X133114000Y-94217500D01*
X133067000Y-94221500D01*
X133020000Y-94222500D01*
X132973000Y-94221500D01*
X132926000Y-94217500D01*
X132879000Y-94211500D01*
X132833000Y-94202500D01*
X132787000Y-94191500D01*
X132742000Y-94178500D01*
X132697000Y-94162500D01*
X132654000Y-94144500D01*
X132611000Y-94124500D01*
X132570000Y-94101500D01*
X132530000Y-94077500D01*
X132491000Y-94050500D01*
X132454000Y-94021500D01*
X132418000Y-93991500D01*
X132384000Y-93958500D01*
X132351000Y-93924500D01*
X132321000Y-93888500D01*
X132292000Y-93851500D01*
X132265000Y-93812500D01*
X132241000Y-93772500D01*
X132218000Y-93731500D01*
X132198000Y-93688500D01*
X132180000Y-93645500D01*
X132164000Y-93600500D01*
X132151000Y-93555500D01*
X132140000Y-93509500D01*
X132131000Y-93463500D01*
X132125000Y-93416500D01*
X132121000Y-93369500D01*
X132120000Y-93322500D01*
X132120000Y-90822500D01*
X133920000Y-90822500D01*
X133920000Y-93322500D01*
G36*
X174560000Y-93322500D02*
G01*
X174559000Y-93369500D01*
X174555000Y-93416500D01*
X174549000Y-93463500D01*
X174540000Y-93509500D01*
X174529000Y-93555500D01*
X174516000Y-93600500D01*
X174500000Y-93645500D01*
X174482000Y-93688500D01*
X174462000Y-93731500D01*
X174439000Y-93772500D01*
X174415000Y-93812500D01*
X174388000Y-93851500D01*
X174359000Y-93888500D01*
X174329000Y-93924500D01*
X174296000Y-93958500D01*
X174262000Y-93991500D01*
X174226000Y-94021500D01*
X174189000Y-94050500D01*
X174150000Y-94077500D01*
X174110000Y-94101500D01*
X174069000Y-94124500D01*
X174026000Y-94144500D01*
X173983000Y-94162500D01*
X173938000Y-94178500D01*
X173893000Y-94191500D01*
X173847000Y-94202500D01*
X173801000Y-94211500D01*
X173754000Y-94217500D01*
X173707000Y-94221500D01*
X173660000Y-94222500D01*
X173613000Y-94221500D01*
X173566000Y-94217500D01*
X173519000Y-94211500D01*
X173473000Y-94202500D01*
X173427000Y-94191500D01*
X173382000Y-94178500D01*
X173337000Y-94162500D01*
X173294000Y-94144500D01*
X173251000Y-94124500D01*
X173210000Y-94101500D01*
X173170000Y-94077500D01*
X173131000Y-94050500D01*
X173094000Y-94021500D01*
X173058000Y-93991500D01*
X173024000Y-93958500D01*
X172991000Y-93924500D01*
X172961000Y-93888500D01*
X172932000Y-93851500D01*
X172905000Y-93812500D01*
X172881000Y-93772500D01*
X172858000Y-93731500D01*
X172838000Y-93688500D01*
X172820000Y-93645500D01*
X172804000Y-93600500D01*
X172791000Y-93555500D01*
X172780000Y-93509500D01*
X172771000Y-93463500D01*
X172765000Y-93416500D01*
X172761000Y-93369500D01*
X172760000Y-93322500D01*
X172760000Y-90822500D01*
X174560000Y-90822500D01*
X174560000Y-93322500D01*
G37*
X174560000Y-93322500D02*
X174559000Y-93369500D01*
X174555000Y-93416500D01*
X174549000Y-93463500D01*
X174540000Y-93509500D01*
X174529000Y-93555500D01*
X174516000Y-93600500D01*
X174500000Y-93645500D01*
X174482000Y-93688500D01*
X174462000Y-93731500D01*
X174439000Y-93772500D01*
X174415000Y-93812500D01*
X174388000Y-93851500D01*
X174359000Y-93888500D01*
X174329000Y-93924500D01*
X174296000Y-93958500D01*
X174262000Y-93991500D01*
X174226000Y-94021500D01*
X174189000Y-94050500D01*
X174150000Y-94077500D01*
X174110000Y-94101500D01*
X174069000Y-94124500D01*
X174026000Y-94144500D01*
X173983000Y-94162500D01*
X173938000Y-94178500D01*
X173893000Y-94191500D01*
X173847000Y-94202500D01*
X173801000Y-94211500D01*
X173754000Y-94217500D01*
X173707000Y-94221500D01*
X173660000Y-94222500D01*
X173613000Y-94221500D01*
X173566000Y-94217500D01*
X173519000Y-94211500D01*
X173473000Y-94202500D01*
X173427000Y-94191500D01*
X173382000Y-94178500D01*
X173337000Y-94162500D01*
X173294000Y-94144500D01*
X173251000Y-94124500D01*
X173210000Y-94101500D01*
X173170000Y-94077500D01*
X173131000Y-94050500D01*
X173094000Y-94021500D01*
X173058000Y-93991500D01*
X173024000Y-93958500D01*
X172991000Y-93924500D01*
X172961000Y-93888500D01*
X172932000Y-93851500D01*
X172905000Y-93812500D01*
X172881000Y-93772500D01*
X172858000Y-93731500D01*
X172838000Y-93688500D01*
X172820000Y-93645500D01*
X172804000Y-93600500D01*
X172791000Y-93555500D01*
X172780000Y-93509500D01*
X172771000Y-93463500D01*
X172765000Y-93416500D01*
X172761000Y-93369500D01*
X172760000Y-93322500D01*
X172760000Y-90822500D01*
X174560000Y-90822500D01*
X174560000Y-93322500D01*
G36*
X171167000Y-110203500D02*
G01*
X171214000Y-110207500D01*
X171261000Y-110213500D01*
X171307000Y-110222500D01*
X171353000Y-110233500D01*
X171398000Y-110246500D01*
X171443000Y-110262500D01*
X171486000Y-110280500D01*
X171529000Y-110300500D01*
X171570000Y-110323500D01*
X171610000Y-110347500D01*
X171649000Y-110374500D01*
X171686000Y-110403500D01*
X171722000Y-110433500D01*
X171756000Y-110466500D01*
X171789000Y-110500500D01*
X171819000Y-110536500D01*
X171848000Y-110573500D01*
X171875000Y-110612500D01*
X171899000Y-110652500D01*
X171922000Y-110693500D01*
X171942000Y-110736500D01*
X171960000Y-110779500D01*
X171976000Y-110824500D01*
X171989000Y-110869500D01*
X172000000Y-110915500D01*
X172009000Y-110961500D01*
X172015000Y-111008500D01*
X172019000Y-111055500D01*
X172020000Y-111102500D01*
X172020000Y-113602500D01*
X170220000Y-113602500D01*
X170220000Y-111102500D01*
X170221000Y-111055500D01*
X170225000Y-111008500D01*
X170231000Y-110961500D01*
X170240000Y-110915500D01*
X170251000Y-110869500D01*
X170264000Y-110824500D01*
X170280000Y-110779500D01*
X170298000Y-110736500D01*
X170318000Y-110693500D01*
X170341000Y-110652500D01*
X170365000Y-110612500D01*
X170392000Y-110573500D01*
X170421000Y-110536500D01*
X170451000Y-110500500D01*
X170484000Y-110466500D01*
X170518000Y-110433500D01*
X170554000Y-110403500D01*
X170591000Y-110374500D01*
X170630000Y-110347500D01*
X170670000Y-110323500D01*
X170711000Y-110300500D01*
X170754000Y-110280500D01*
X170797000Y-110262500D01*
X170842000Y-110246500D01*
X170887000Y-110233500D01*
X170933000Y-110222500D01*
X170979000Y-110213500D01*
X171026000Y-110207500D01*
X171073000Y-110203500D01*
X171120000Y-110202500D01*
X171167000Y-110203500D01*
G37*
X171167000Y-110203500D02*
X171214000Y-110207500D01*
X171261000Y-110213500D01*
X171307000Y-110222500D01*
X171353000Y-110233500D01*
X171398000Y-110246500D01*
X171443000Y-110262500D01*
X171486000Y-110280500D01*
X171529000Y-110300500D01*
X171570000Y-110323500D01*
X171610000Y-110347500D01*
X171649000Y-110374500D01*
X171686000Y-110403500D01*
X171722000Y-110433500D01*
X171756000Y-110466500D01*
X171789000Y-110500500D01*
X171819000Y-110536500D01*
X171848000Y-110573500D01*
X171875000Y-110612500D01*
X171899000Y-110652500D01*
X171922000Y-110693500D01*
X171942000Y-110736500D01*
X171960000Y-110779500D01*
X171976000Y-110824500D01*
X171989000Y-110869500D01*
X172000000Y-110915500D01*
X172009000Y-110961500D01*
X172015000Y-111008500D01*
X172019000Y-111055500D01*
X172020000Y-111102500D01*
X172020000Y-113602500D01*
X170220000Y-113602500D01*
X170220000Y-111102500D01*
X170221000Y-111055500D01*
X170225000Y-111008500D01*
X170231000Y-110961500D01*
X170240000Y-110915500D01*
X170251000Y-110869500D01*
X170264000Y-110824500D01*
X170280000Y-110779500D01*
X170298000Y-110736500D01*
X170318000Y-110693500D01*
X170341000Y-110652500D01*
X170365000Y-110612500D01*
X170392000Y-110573500D01*
X170421000Y-110536500D01*
X170451000Y-110500500D01*
X170484000Y-110466500D01*
X170518000Y-110433500D01*
X170554000Y-110403500D01*
X170591000Y-110374500D01*
X170630000Y-110347500D01*
X170670000Y-110323500D01*
X170711000Y-110300500D01*
X170754000Y-110280500D01*
X170797000Y-110262500D01*
X170842000Y-110246500D01*
X170887000Y-110233500D01*
X170933000Y-110222500D01*
X170979000Y-110213500D01*
X171026000Y-110207500D01*
X171073000Y-110203500D01*
X171120000Y-110202500D01*
X171167000Y-110203500D01*
G36*
X169480000Y-93322500D02*
G01*
X169479000Y-93369500D01*
X169475000Y-93416500D01*
X169469000Y-93463500D01*
X169460000Y-93509500D01*
X169449000Y-93555500D01*
X169436000Y-93600500D01*
X169420000Y-93645500D01*
X169402000Y-93688500D01*
X169382000Y-93731500D01*
X169359000Y-93772500D01*
X169335000Y-93812500D01*
X169308000Y-93851500D01*
X169279000Y-93888500D01*
X169249000Y-93924500D01*
X169216000Y-93958500D01*
X169182000Y-93991500D01*
X169146000Y-94021500D01*
X169109000Y-94050500D01*
X169070000Y-94077500D01*
X169030000Y-94101500D01*
X168989000Y-94124500D01*
X168946000Y-94144500D01*
X168903000Y-94162500D01*
X168858000Y-94178500D01*
X168813000Y-94191500D01*
X168767000Y-94202500D01*
X168721000Y-94211500D01*
X168674000Y-94217500D01*
X168627000Y-94221500D01*
X168580000Y-94222500D01*
X168533000Y-94221500D01*
X168486000Y-94217500D01*
X168439000Y-94211500D01*
X168393000Y-94202500D01*
X168347000Y-94191500D01*
X168302000Y-94178500D01*
X168257000Y-94162500D01*
X168214000Y-94144500D01*
X168171000Y-94124500D01*
X168130000Y-94101500D01*
X168090000Y-94077500D01*
X168051000Y-94050500D01*
X168014000Y-94021500D01*
X167978000Y-93991500D01*
X167944000Y-93958500D01*
X167911000Y-93924500D01*
X167881000Y-93888500D01*
X167852000Y-93851500D01*
X167825000Y-93812500D01*
X167801000Y-93772500D01*
X167778000Y-93731500D01*
X167758000Y-93688500D01*
X167740000Y-93645500D01*
X167724000Y-93600500D01*
X167711000Y-93555500D01*
X167700000Y-93509500D01*
X167691000Y-93463500D01*
X167685000Y-93416500D01*
X167681000Y-93369500D01*
X167680000Y-93322500D01*
X167680000Y-90822500D01*
X169480000Y-90822500D01*
X169480000Y-93322500D01*
G37*
X169480000Y-93322500D02*
X169479000Y-93369500D01*
X169475000Y-93416500D01*
X169469000Y-93463500D01*
X169460000Y-93509500D01*
X169449000Y-93555500D01*
X169436000Y-93600500D01*
X169420000Y-93645500D01*
X169402000Y-93688500D01*
X169382000Y-93731500D01*
X169359000Y-93772500D01*
X169335000Y-93812500D01*
X169308000Y-93851500D01*
X169279000Y-93888500D01*
X169249000Y-93924500D01*
X169216000Y-93958500D01*
X169182000Y-93991500D01*
X169146000Y-94021500D01*
X169109000Y-94050500D01*
X169070000Y-94077500D01*
X169030000Y-94101500D01*
X168989000Y-94124500D01*
X168946000Y-94144500D01*
X168903000Y-94162500D01*
X168858000Y-94178500D01*
X168813000Y-94191500D01*
X168767000Y-94202500D01*
X168721000Y-94211500D01*
X168674000Y-94217500D01*
X168627000Y-94221500D01*
X168580000Y-94222500D01*
X168533000Y-94221500D01*
X168486000Y-94217500D01*
X168439000Y-94211500D01*
X168393000Y-94202500D01*
X168347000Y-94191500D01*
X168302000Y-94178500D01*
X168257000Y-94162500D01*
X168214000Y-94144500D01*
X168171000Y-94124500D01*
X168130000Y-94101500D01*
X168090000Y-94077500D01*
X168051000Y-94050500D01*
X168014000Y-94021500D01*
X167978000Y-93991500D01*
X167944000Y-93958500D01*
X167911000Y-93924500D01*
X167881000Y-93888500D01*
X167852000Y-93851500D01*
X167825000Y-93812500D01*
X167801000Y-93772500D01*
X167778000Y-93731500D01*
X167758000Y-93688500D01*
X167740000Y-93645500D01*
X167724000Y-93600500D01*
X167711000Y-93555500D01*
X167700000Y-93509500D01*
X167691000Y-93463500D01*
X167685000Y-93416500D01*
X167681000Y-93369500D01*
X167680000Y-93322500D01*
X167680000Y-90822500D01*
X169480000Y-90822500D01*
X169480000Y-93322500D01*
G36*
X173707000Y-110203500D02*
G01*
X173754000Y-110207500D01*
X173801000Y-110213500D01*
X173847000Y-110222500D01*
X173893000Y-110233500D01*
X173938000Y-110246500D01*
X173983000Y-110262500D01*
X174026000Y-110280500D01*
X174069000Y-110300500D01*
X174110000Y-110323500D01*
X174150000Y-110347500D01*
X174189000Y-110374500D01*
X174226000Y-110403500D01*
X174262000Y-110433500D01*
X174296000Y-110466500D01*
X174329000Y-110500500D01*
X174359000Y-110536500D01*
X174388000Y-110573500D01*
X174415000Y-110612500D01*
X174439000Y-110652500D01*
X174462000Y-110693500D01*
X174482000Y-110736500D01*
X174500000Y-110779500D01*
X174516000Y-110824500D01*
X174529000Y-110869500D01*
X174540000Y-110915500D01*
X174549000Y-110961500D01*
X174555000Y-111008500D01*
X174559000Y-111055500D01*
X174560000Y-111102500D01*
X174560000Y-113602500D01*
X172760000Y-113602500D01*
X172760000Y-111102500D01*
X172761000Y-111055500D01*
X172765000Y-111008500D01*
X172771000Y-110961500D01*
X172780000Y-110915500D01*
X172791000Y-110869500D01*
X172804000Y-110824500D01*
X172820000Y-110779500D01*
X172838000Y-110736500D01*
X172858000Y-110693500D01*
X172881000Y-110652500D01*
X172905000Y-110612500D01*
X172932000Y-110573500D01*
X172961000Y-110536500D01*
X172991000Y-110500500D01*
X173024000Y-110466500D01*
X173058000Y-110433500D01*
X173094000Y-110403500D01*
X173131000Y-110374500D01*
X173170000Y-110347500D01*
X173210000Y-110323500D01*
X173251000Y-110300500D01*
X173294000Y-110280500D01*
X173337000Y-110262500D01*
X173382000Y-110246500D01*
X173427000Y-110233500D01*
X173473000Y-110222500D01*
X173519000Y-110213500D01*
X173566000Y-110207500D01*
X173613000Y-110203500D01*
X173660000Y-110202500D01*
X173707000Y-110203500D01*
G37*
X173707000Y-110203500D02*
X173754000Y-110207500D01*
X173801000Y-110213500D01*
X173847000Y-110222500D01*
X173893000Y-110233500D01*
X173938000Y-110246500D01*
X173983000Y-110262500D01*
X174026000Y-110280500D01*
X174069000Y-110300500D01*
X174110000Y-110323500D01*
X174150000Y-110347500D01*
X174189000Y-110374500D01*
X174226000Y-110403500D01*
X174262000Y-110433500D01*
X174296000Y-110466500D01*
X174329000Y-110500500D01*
X174359000Y-110536500D01*
X174388000Y-110573500D01*
X174415000Y-110612500D01*
X174439000Y-110652500D01*
X174462000Y-110693500D01*
X174482000Y-110736500D01*
X174500000Y-110779500D01*
X174516000Y-110824500D01*
X174529000Y-110869500D01*
X174540000Y-110915500D01*
X174549000Y-110961500D01*
X174555000Y-111008500D01*
X174559000Y-111055500D01*
X174560000Y-111102500D01*
X174560000Y-113602500D01*
X172760000Y-113602500D01*
X172760000Y-111102500D01*
X172761000Y-111055500D01*
X172765000Y-111008500D01*
X172771000Y-110961500D01*
X172780000Y-110915500D01*
X172791000Y-110869500D01*
X172804000Y-110824500D01*
X172820000Y-110779500D01*
X172838000Y-110736500D01*
X172858000Y-110693500D01*
X172881000Y-110652500D01*
X172905000Y-110612500D01*
X172932000Y-110573500D01*
X172961000Y-110536500D01*
X172991000Y-110500500D01*
X173024000Y-110466500D01*
X173058000Y-110433500D01*
X173094000Y-110403500D01*
X173131000Y-110374500D01*
X173170000Y-110347500D01*
X173210000Y-110323500D01*
X173251000Y-110300500D01*
X173294000Y-110280500D01*
X173337000Y-110262500D01*
X173382000Y-110246500D01*
X173427000Y-110233500D01*
X173473000Y-110222500D01*
X173519000Y-110213500D01*
X173566000Y-110207500D01*
X173613000Y-110203500D01*
X173660000Y-110202500D01*
X173707000Y-110203500D01*
G36*
X135607000Y-110203500D02*
G01*
X135654000Y-110207500D01*
X135701000Y-110213500D01*
X135747000Y-110222500D01*
X135793000Y-110233500D01*
X135838000Y-110246500D01*
X135883000Y-110262500D01*
X135926000Y-110280500D01*
X135969000Y-110300500D01*
X136010000Y-110323500D01*
X136050000Y-110347500D01*
X136089000Y-110374500D01*
X136126000Y-110403500D01*
X136162000Y-110433500D01*
X136196000Y-110466500D01*
X136229000Y-110500500D01*
X136259000Y-110536500D01*
X136288000Y-110573500D01*
X136315000Y-110612500D01*
X136339000Y-110652500D01*
X136362000Y-110693500D01*
X136382000Y-110736500D01*
X136400000Y-110779500D01*
X136416000Y-110824500D01*
X136429000Y-110869500D01*
X136440000Y-110915500D01*
X136449000Y-110961500D01*
X136455000Y-111008500D01*
X136459000Y-111055500D01*
X136460000Y-111102500D01*
X136460000Y-113602500D01*
X134660000Y-113602500D01*
X134660000Y-111102500D01*
X134661000Y-111055500D01*
X134665000Y-111008500D01*
X134671000Y-110961500D01*
X134680000Y-110915500D01*
X134691000Y-110869500D01*
X134704000Y-110824500D01*
X134720000Y-110779500D01*
X134738000Y-110736500D01*
X134758000Y-110693500D01*
X134781000Y-110652500D01*
X134805000Y-110612500D01*
X134832000Y-110573500D01*
X134861000Y-110536500D01*
X134891000Y-110500500D01*
X134924000Y-110466500D01*
X134958000Y-110433500D01*
X134994000Y-110403500D01*
X135031000Y-110374500D01*
X135070000Y-110347500D01*
X135110000Y-110323500D01*
X135151000Y-110300500D01*
X135194000Y-110280500D01*
X135237000Y-110262500D01*
X135282000Y-110246500D01*
X135327000Y-110233500D01*
X135373000Y-110222500D01*
X135419000Y-110213500D01*
X135466000Y-110207500D01*
X135513000Y-110203500D01*
X135560000Y-110202500D01*
X135607000Y-110203500D01*
G37*
X135607000Y-110203500D02*
X135654000Y-110207500D01*
X135701000Y-110213500D01*
X135747000Y-110222500D01*
X135793000Y-110233500D01*
X135838000Y-110246500D01*
X135883000Y-110262500D01*
X135926000Y-110280500D01*
X135969000Y-110300500D01*
X136010000Y-110323500D01*
X136050000Y-110347500D01*
X136089000Y-110374500D01*
X136126000Y-110403500D01*
X136162000Y-110433500D01*
X136196000Y-110466500D01*
X136229000Y-110500500D01*
X136259000Y-110536500D01*
X136288000Y-110573500D01*
X136315000Y-110612500D01*
X136339000Y-110652500D01*
X136362000Y-110693500D01*
X136382000Y-110736500D01*
X136400000Y-110779500D01*
X136416000Y-110824500D01*
X136429000Y-110869500D01*
X136440000Y-110915500D01*
X136449000Y-110961500D01*
X136455000Y-111008500D01*
X136459000Y-111055500D01*
X136460000Y-111102500D01*
X136460000Y-113602500D01*
X134660000Y-113602500D01*
X134660000Y-111102500D01*
X134661000Y-111055500D01*
X134665000Y-111008500D01*
X134671000Y-110961500D01*
X134680000Y-110915500D01*
X134691000Y-110869500D01*
X134704000Y-110824500D01*
X134720000Y-110779500D01*
X134738000Y-110736500D01*
X134758000Y-110693500D01*
X134781000Y-110652500D01*
X134805000Y-110612500D01*
X134832000Y-110573500D01*
X134861000Y-110536500D01*
X134891000Y-110500500D01*
X134924000Y-110466500D01*
X134958000Y-110433500D01*
X134994000Y-110403500D01*
X135031000Y-110374500D01*
X135070000Y-110347500D01*
X135110000Y-110323500D01*
X135151000Y-110300500D01*
X135194000Y-110280500D01*
X135237000Y-110262500D01*
X135282000Y-110246500D01*
X135327000Y-110233500D01*
X135373000Y-110222500D01*
X135419000Y-110213500D01*
X135466000Y-110207500D01*
X135513000Y-110203500D01*
X135560000Y-110202500D01*
X135607000Y-110203500D01*
G36*
X161860000Y-93322500D02*
G01*
X161859000Y-93369500D01*
X161855000Y-93416500D01*
X161849000Y-93463500D01*
X161840000Y-93509500D01*
X161829000Y-93555500D01*
X161816000Y-93600500D01*
X161800000Y-93645500D01*
X161782000Y-93688500D01*
X161762000Y-93731500D01*
X161739000Y-93772500D01*
X161715000Y-93812500D01*
X161688000Y-93851500D01*
X161659000Y-93888500D01*
X161629000Y-93924500D01*
X161596000Y-93958500D01*
X161562000Y-93991500D01*
X161526000Y-94021500D01*
X161489000Y-94050500D01*
X161450000Y-94077500D01*
X161410000Y-94101500D01*
X161369000Y-94124500D01*
X161326000Y-94144500D01*
X161283000Y-94162500D01*
X161238000Y-94178500D01*
X161193000Y-94191500D01*
X161147000Y-94202500D01*
X161101000Y-94211500D01*
X161054000Y-94217500D01*
X161007000Y-94221500D01*
X160960000Y-94222500D01*
X160913000Y-94221500D01*
X160866000Y-94217500D01*
X160819000Y-94211500D01*
X160773000Y-94202500D01*
X160727000Y-94191500D01*
X160682000Y-94178500D01*
X160637000Y-94162500D01*
X160594000Y-94144500D01*
X160551000Y-94124500D01*
X160510000Y-94101500D01*
X160470000Y-94077500D01*
X160431000Y-94050500D01*
X160394000Y-94021500D01*
X160358000Y-93991500D01*
X160324000Y-93958500D01*
X160291000Y-93924500D01*
X160261000Y-93888500D01*
X160232000Y-93851500D01*
X160205000Y-93812500D01*
X160181000Y-93772500D01*
X160158000Y-93731500D01*
X160138000Y-93688500D01*
X160120000Y-93645500D01*
X160104000Y-93600500D01*
X160091000Y-93555500D01*
X160080000Y-93509500D01*
X160071000Y-93463500D01*
X160065000Y-93416500D01*
X160061000Y-93369500D01*
X160060000Y-93322500D01*
X160060000Y-90822500D01*
X161860000Y-90822500D01*
X161860000Y-93322500D01*
G37*
X161860000Y-93322500D02*
X161859000Y-93369500D01*
X161855000Y-93416500D01*
X161849000Y-93463500D01*
X161840000Y-93509500D01*
X161829000Y-93555500D01*
X161816000Y-93600500D01*
X161800000Y-93645500D01*
X161782000Y-93688500D01*
X161762000Y-93731500D01*
X161739000Y-93772500D01*
X161715000Y-93812500D01*
X161688000Y-93851500D01*
X161659000Y-93888500D01*
X161629000Y-93924500D01*
X161596000Y-93958500D01*
X161562000Y-93991500D01*
X161526000Y-94021500D01*
X161489000Y-94050500D01*
X161450000Y-94077500D01*
X161410000Y-94101500D01*
X161369000Y-94124500D01*
X161326000Y-94144500D01*
X161283000Y-94162500D01*
X161238000Y-94178500D01*
X161193000Y-94191500D01*
X161147000Y-94202500D01*
X161101000Y-94211500D01*
X161054000Y-94217500D01*
X161007000Y-94221500D01*
X160960000Y-94222500D01*
X160913000Y-94221500D01*
X160866000Y-94217500D01*
X160819000Y-94211500D01*
X160773000Y-94202500D01*
X160727000Y-94191500D01*
X160682000Y-94178500D01*
X160637000Y-94162500D01*
X160594000Y-94144500D01*
X160551000Y-94124500D01*
X160510000Y-94101500D01*
X160470000Y-94077500D01*
X160431000Y-94050500D01*
X160394000Y-94021500D01*
X160358000Y-93991500D01*
X160324000Y-93958500D01*
X160291000Y-93924500D01*
X160261000Y-93888500D01*
X160232000Y-93851500D01*
X160205000Y-93812500D01*
X160181000Y-93772500D01*
X160158000Y-93731500D01*
X160138000Y-93688500D01*
X160120000Y-93645500D01*
X160104000Y-93600500D01*
X160091000Y-93555500D01*
X160080000Y-93509500D01*
X160071000Y-93463500D01*
X160065000Y-93416500D01*
X160061000Y-93369500D01*
X160060000Y-93322500D01*
X160060000Y-90822500D01*
X161860000Y-90822500D01*
X161860000Y-93322500D01*
G36*
X154240000Y-93322500D02*
G01*
X154239000Y-93369500D01*
X154235000Y-93416500D01*
X154229000Y-93463500D01*
X154220000Y-93509500D01*
X154209000Y-93555500D01*
X154196000Y-93600500D01*
X154180000Y-93645500D01*
X154162000Y-93688500D01*
X154142000Y-93731500D01*
X154119000Y-93772500D01*
X154095000Y-93812500D01*
X154068000Y-93851500D01*
X154039000Y-93888500D01*
X154009000Y-93924500D01*
X153976000Y-93958500D01*
X153942000Y-93991500D01*
X153906000Y-94021500D01*
X153869000Y-94050500D01*
X153830000Y-94077500D01*
X153790000Y-94101500D01*
X153749000Y-94124500D01*
X153706000Y-94144500D01*
X153663000Y-94162500D01*
X153618000Y-94178500D01*
X153573000Y-94191500D01*
X153527000Y-94202500D01*
X153481000Y-94211500D01*
X153434000Y-94217500D01*
X153387000Y-94221500D01*
X153340000Y-94222500D01*
X153293000Y-94221500D01*
X153246000Y-94217500D01*
X153199000Y-94211500D01*
X153153000Y-94202500D01*
X153107000Y-94191500D01*
X153062000Y-94178500D01*
X153017000Y-94162500D01*
X152974000Y-94144500D01*
X152931000Y-94124500D01*
X152890000Y-94101500D01*
X152850000Y-94077500D01*
X152811000Y-94050500D01*
X152774000Y-94021500D01*
X152738000Y-93991500D01*
X152704000Y-93958500D01*
X152671000Y-93924500D01*
X152641000Y-93888500D01*
X152612000Y-93851500D01*
X152585000Y-93812500D01*
X152561000Y-93772500D01*
X152538000Y-93731500D01*
X152518000Y-93688500D01*
X152500000Y-93645500D01*
X152484000Y-93600500D01*
X152471000Y-93555500D01*
X152460000Y-93509500D01*
X152451000Y-93463500D01*
X152445000Y-93416500D01*
X152441000Y-93369500D01*
X152440000Y-93322500D01*
X152440000Y-90822500D01*
X154240000Y-90822500D01*
X154240000Y-93322500D01*
G37*
X154240000Y-93322500D02*
X154239000Y-93369500D01*
X154235000Y-93416500D01*
X154229000Y-93463500D01*
X154220000Y-93509500D01*
X154209000Y-93555500D01*
X154196000Y-93600500D01*
X154180000Y-93645500D01*
X154162000Y-93688500D01*
X154142000Y-93731500D01*
X154119000Y-93772500D01*
X154095000Y-93812500D01*
X154068000Y-93851500D01*
X154039000Y-93888500D01*
X154009000Y-93924500D01*
X153976000Y-93958500D01*
X153942000Y-93991500D01*
X153906000Y-94021500D01*
X153869000Y-94050500D01*
X153830000Y-94077500D01*
X153790000Y-94101500D01*
X153749000Y-94124500D01*
X153706000Y-94144500D01*
X153663000Y-94162500D01*
X153618000Y-94178500D01*
X153573000Y-94191500D01*
X153527000Y-94202500D01*
X153481000Y-94211500D01*
X153434000Y-94217500D01*
X153387000Y-94221500D01*
X153340000Y-94222500D01*
X153293000Y-94221500D01*
X153246000Y-94217500D01*
X153199000Y-94211500D01*
X153153000Y-94202500D01*
X153107000Y-94191500D01*
X153062000Y-94178500D01*
X153017000Y-94162500D01*
X152974000Y-94144500D01*
X152931000Y-94124500D01*
X152890000Y-94101500D01*
X152850000Y-94077500D01*
X152811000Y-94050500D01*
X152774000Y-94021500D01*
X152738000Y-93991500D01*
X152704000Y-93958500D01*
X152671000Y-93924500D01*
X152641000Y-93888500D01*
X152612000Y-93851500D01*
X152585000Y-93812500D01*
X152561000Y-93772500D01*
X152538000Y-93731500D01*
X152518000Y-93688500D01*
X152500000Y-93645500D01*
X152484000Y-93600500D01*
X152471000Y-93555500D01*
X152460000Y-93509500D01*
X152451000Y-93463500D01*
X152445000Y-93416500D01*
X152441000Y-93369500D01*
X152440000Y-93322500D01*
X152440000Y-90822500D01*
X154240000Y-90822500D01*
X154240000Y-93322500D01*
G36*
X168627000Y-110203500D02*
G01*
X168674000Y-110207500D01*
X168721000Y-110213500D01*
X168767000Y-110222500D01*
X168813000Y-110233500D01*
X168858000Y-110246500D01*
X168903000Y-110262500D01*
X168946000Y-110280500D01*
X168989000Y-110300500D01*
X169030000Y-110323500D01*
X169070000Y-110347500D01*
X169109000Y-110374500D01*
X169146000Y-110403500D01*
X169182000Y-110433500D01*
X169216000Y-110466500D01*
X169249000Y-110500500D01*
X169279000Y-110536500D01*
X169308000Y-110573500D01*
X169335000Y-110612500D01*
X169359000Y-110652500D01*
X169382000Y-110693500D01*
X169402000Y-110736500D01*
X169420000Y-110779500D01*
X169436000Y-110824500D01*
X169449000Y-110869500D01*
X169460000Y-110915500D01*
X169469000Y-110961500D01*
X169475000Y-111008500D01*
X169479000Y-111055500D01*
X169480000Y-111102500D01*
X169480000Y-113602500D01*
X167680000Y-113602500D01*
X167680000Y-111102500D01*
X167681000Y-111055500D01*
X167685000Y-111008500D01*
X167691000Y-110961500D01*
X167700000Y-110915500D01*
X167711000Y-110869500D01*
X167724000Y-110824500D01*
X167740000Y-110779500D01*
X167758000Y-110736500D01*
X167778000Y-110693500D01*
X167801000Y-110652500D01*
X167825000Y-110612500D01*
X167852000Y-110573500D01*
X167881000Y-110536500D01*
X167911000Y-110500500D01*
X167944000Y-110466500D01*
X167978000Y-110433500D01*
X168014000Y-110403500D01*
X168051000Y-110374500D01*
X168090000Y-110347500D01*
X168130000Y-110323500D01*
X168171000Y-110300500D01*
X168214000Y-110280500D01*
X168257000Y-110262500D01*
X168302000Y-110246500D01*
X168347000Y-110233500D01*
X168393000Y-110222500D01*
X168439000Y-110213500D01*
X168486000Y-110207500D01*
X168533000Y-110203500D01*
X168580000Y-110202500D01*
X168627000Y-110203500D01*
G37*
X168627000Y-110203500D02*
X168674000Y-110207500D01*
X168721000Y-110213500D01*
X168767000Y-110222500D01*
X168813000Y-110233500D01*
X168858000Y-110246500D01*
X168903000Y-110262500D01*
X168946000Y-110280500D01*
X168989000Y-110300500D01*
X169030000Y-110323500D01*
X169070000Y-110347500D01*
X169109000Y-110374500D01*
X169146000Y-110403500D01*
X169182000Y-110433500D01*
X169216000Y-110466500D01*
X169249000Y-110500500D01*
X169279000Y-110536500D01*
X169308000Y-110573500D01*
X169335000Y-110612500D01*
X169359000Y-110652500D01*
X169382000Y-110693500D01*
X169402000Y-110736500D01*
X169420000Y-110779500D01*
X169436000Y-110824500D01*
X169449000Y-110869500D01*
X169460000Y-110915500D01*
X169469000Y-110961500D01*
X169475000Y-111008500D01*
X169479000Y-111055500D01*
X169480000Y-111102500D01*
X169480000Y-113602500D01*
X167680000Y-113602500D01*
X167680000Y-111102500D01*
X167681000Y-111055500D01*
X167685000Y-111008500D01*
X167691000Y-110961500D01*
X167700000Y-110915500D01*
X167711000Y-110869500D01*
X167724000Y-110824500D01*
X167740000Y-110779500D01*
X167758000Y-110736500D01*
X167778000Y-110693500D01*
X167801000Y-110652500D01*
X167825000Y-110612500D01*
X167852000Y-110573500D01*
X167881000Y-110536500D01*
X167911000Y-110500500D01*
X167944000Y-110466500D01*
X167978000Y-110433500D01*
X168014000Y-110403500D01*
X168051000Y-110374500D01*
X168090000Y-110347500D01*
X168130000Y-110323500D01*
X168171000Y-110300500D01*
X168214000Y-110280500D01*
X168257000Y-110262500D01*
X168302000Y-110246500D01*
X168347000Y-110233500D01*
X168393000Y-110222500D01*
X168439000Y-110213500D01*
X168486000Y-110207500D01*
X168533000Y-110203500D01*
X168580000Y-110202500D01*
X168627000Y-110203500D01*
G36*
X182180000Y-93322500D02*
G01*
X182179000Y-93369500D01*
X182175000Y-93416500D01*
X182169000Y-93463500D01*
X182160000Y-93509500D01*
X182149000Y-93555500D01*
X182136000Y-93600500D01*
X182120000Y-93645500D01*
X182102000Y-93688500D01*
X182082000Y-93731500D01*
X182059000Y-93772500D01*
X182035000Y-93812500D01*
X182008000Y-93851500D01*
X181979000Y-93888500D01*
X181949000Y-93924500D01*
X181916000Y-93958500D01*
X181882000Y-93991500D01*
X181846000Y-94021500D01*
X181809000Y-94050500D01*
X181770000Y-94077500D01*
X181730000Y-94101500D01*
X181689000Y-94124500D01*
X181646000Y-94144500D01*
X181603000Y-94162500D01*
X181558000Y-94178500D01*
X181513000Y-94191500D01*
X181467000Y-94202500D01*
X181421000Y-94211500D01*
X181374000Y-94217500D01*
X181327000Y-94221500D01*
X181280000Y-94222500D01*
X181233000Y-94221500D01*
X181186000Y-94217500D01*
X181139000Y-94211500D01*
X181093000Y-94202500D01*
X181047000Y-94191500D01*
X181002000Y-94178500D01*
X180957000Y-94162500D01*
X180914000Y-94144500D01*
X180871000Y-94124500D01*
X180830000Y-94101500D01*
X180790000Y-94077500D01*
X180751000Y-94050500D01*
X180714000Y-94021500D01*
X180678000Y-93991500D01*
X180644000Y-93958500D01*
X180611000Y-93924500D01*
X180581000Y-93888500D01*
X180552000Y-93851500D01*
X180525000Y-93812500D01*
X180501000Y-93772500D01*
X180478000Y-93731500D01*
X180458000Y-93688500D01*
X180440000Y-93645500D01*
X180424000Y-93600500D01*
X180411000Y-93555500D01*
X180400000Y-93509500D01*
X180391000Y-93463500D01*
X180385000Y-93416500D01*
X180381000Y-93369500D01*
X180380000Y-93322500D01*
X180380000Y-90822500D01*
X182180000Y-90822500D01*
X182180000Y-93322500D01*
G37*
X182180000Y-93322500D02*
X182179000Y-93369500D01*
X182175000Y-93416500D01*
X182169000Y-93463500D01*
X182160000Y-93509500D01*
X182149000Y-93555500D01*
X182136000Y-93600500D01*
X182120000Y-93645500D01*
X182102000Y-93688500D01*
X182082000Y-93731500D01*
X182059000Y-93772500D01*
X182035000Y-93812500D01*
X182008000Y-93851500D01*
X181979000Y-93888500D01*
X181949000Y-93924500D01*
X181916000Y-93958500D01*
X181882000Y-93991500D01*
X181846000Y-94021500D01*
X181809000Y-94050500D01*
X181770000Y-94077500D01*
X181730000Y-94101500D01*
X181689000Y-94124500D01*
X181646000Y-94144500D01*
X181603000Y-94162500D01*
X181558000Y-94178500D01*
X181513000Y-94191500D01*
X181467000Y-94202500D01*
X181421000Y-94211500D01*
X181374000Y-94217500D01*
X181327000Y-94221500D01*
X181280000Y-94222500D01*
X181233000Y-94221500D01*
X181186000Y-94217500D01*
X181139000Y-94211500D01*
X181093000Y-94202500D01*
X181047000Y-94191500D01*
X181002000Y-94178500D01*
X180957000Y-94162500D01*
X180914000Y-94144500D01*
X180871000Y-94124500D01*
X180830000Y-94101500D01*
X180790000Y-94077500D01*
X180751000Y-94050500D01*
X180714000Y-94021500D01*
X180678000Y-93991500D01*
X180644000Y-93958500D01*
X180611000Y-93924500D01*
X180581000Y-93888500D01*
X180552000Y-93851500D01*
X180525000Y-93812500D01*
X180501000Y-93772500D01*
X180478000Y-93731500D01*
X180458000Y-93688500D01*
X180440000Y-93645500D01*
X180424000Y-93600500D01*
X180411000Y-93555500D01*
X180400000Y-93509500D01*
X180391000Y-93463500D01*
X180385000Y-93416500D01*
X180381000Y-93369500D01*
X180380000Y-93322500D01*
X180380000Y-90822500D01*
X182180000Y-90822500D01*
X182180000Y-93322500D01*
G36*
X140687000Y-110203500D02*
G01*
X140734000Y-110207500D01*
X140781000Y-110213500D01*
X140827000Y-110222500D01*
X140873000Y-110233500D01*
X140918000Y-110246500D01*
X140963000Y-110262500D01*
X141006000Y-110280500D01*
X141049000Y-110300500D01*
X141090000Y-110323500D01*
X141130000Y-110347500D01*
X141169000Y-110374500D01*
X141206000Y-110403500D01*
X141242000Y-110433500D01*
X141276000Y-110466500D01*
X141309000Y-110500500D01*
X141339000Y-110536500D01*
X141368000Y-110573500D01*
X141395000Y-110612500D01*
X141419000Y-110652500D01*
X141442000Y-110693500D01*
X141462000Y-110736500D01*
X141480000Y-110779500D01*
X141496000Y-110824500D01*
X141509000Y-110869500D01*
X141520000Y-110915500D01*
X141529000Y-110961500D01*
X141535000Y-111008500D01*
X141539000Y-111055500D01*
X141540000Y-111102500D01*
X141540000Y-113602500D01*
X139740000Y-113602500D01*
X139740000Y-111102500D01*
X139741000Y-111055500D01*
X139745000Y-111008500D01*
X139751000Y-110961500D01*
X139760000Y-110915500D01*
X139771000Y-110869500D01*
X139784000Y-110824500D01*
X139800000Y-110779500D01*
X139818000Y-110736500D01*
X139838000Y-110693500D01*
X139861000Y-110652500D01*
X139885000Y-110612500D01*
X139912000Y-110573500D01*
X139941000Y-110536500D01*
X139971000Y-110500500D01*
X140004000Y-110466500D01*
X140038000Y-110433500D01*
X140074000Y-110403500D01*
X140111000Y-110374500D01*
X140150000Y-110347500D01*
X140190000Y-110323500D01*
X140231000Y-110300500D01*
X140274000Y-110280500D01*
X140317000Y-110262500D01*
X140362000Y-110246500D01*
X140407000Y-110233500D01*
X140453000Y-110222500D01*
X140499000Y-110213500D01*
X140546000Y-110207500D01*
X140593000Y-110203500D01*
X140640000Y-110202500D01*
X140687000Y-110203500D01*
G37*
X140687000Y-110203500D02*
X140734000Y-110207500D01*
X140781000Y-110213500D01*
X140827000Y-110222500D01*
X140873000Y-110233500D01*
X140918000Y-110246500D01*
X140963000Y-110262500D01*
X141006000Y-110280500D01*
X141049000Y-110300500D01*
X141090000Y-110323500D01*
X141130000Y-110347500D01*
X141169000Y-110374500D01*
X141206000Y-110403500D01*
X141242000Y-110433500D01*
X141276000Y-110466500D01*
X141309000Y-110500500D01*
X141339000Y-110536500D01*
X141368000Y-110573500D01*
X141395000Y-110612500D01*
X141419000Y-110652500D01*
X141442000Y-110693500D01*
X141462000Y-110736500D01*
X141480000Y-110779500D01*
X141496000Y-110824500D01*
X141509000Y-110869500D01*
X141520000Y-110915500D01*
X141529000Y-110961500D01*
X141535000Y-111008500D01*
X141539000Y-111055500D01*
X141540000Y-111102500D01*
X141540000Y-113602500D01*
X139740000Y-113602500D01*
X139740000Y-111102500D01*
X139741000Y-111055500D01*
X139745000Y-111008500D01*
X139751000Y-110961500D01*
X139760000Y-110915500D01*
X139771000Y-110869500D01*
X139784000Y-110824500D01*
X139800000Y-110779500D01*
X139818000Y-110736500D01*
X139838000Y-110693500D01*
X139861000Y-110652500D01*
X139885000Y-110612500D01*
X139912000Y-110573500D01*
X139941000Y-110536500D01*
X139971000Y-110500500D01*
X140004000Y-110466500D01*
X140038000Y-110433500D01*
X140074000Y-110403500D01*
X140111000Y-110374500D01*
X140150000Y-110347500D01*
X140190000Y-110323500D01*
X140231000Y-110300500D01*
X140274000Y-110280500D01*
X140317000Y-110262500D01*
X140362000Y-110246500D01*
X140407000Y-110233500D01*
X140453000Y-110222500D01*
X140499000Y-110213500D01*
X140546000Y-110207500D01*
X140593000Y-110203500D01*
X140640000Y-110202500D01*
X140687000Y-110203500D01*
G36*
X151700000Y-93938500D02*
G01*
X151698000Y-93953500D01*
X151696000Y-93969500D01*
X151693000Y-93984500D01*
X151690000Y-94000500D01*
X151680000Y-94030500D01*
X151674000Y-94044500D01*
X151660000Y-94072500D01*
X151652000Y-94085500D01*
X151643000Y-94098500D01*
X151633000Y-94111500D01*
X151623000Y-94123500D01*
X151601000Y-94145500D01*
X151589000Y-94155500D01*
X151576000Y-94165500D01*
X151563000Y-94174500D01*
X151550000Y-94182500D01*
X151522000Y-94196500D01*
X151508000Y-94202500D01*
X151478000Y-94212500D01*
X151462000Y-94215500D01*
X151447000Y-94218500D01*
X151431000Y-94220500D01*
X151416000Y-94222500D01*
X150184000Y-94222500D01*
X150169000Y-94220500D01*
X150153000Y-94218500D01*
X150138000Y-94215500D01*
X150122000Y-94212500D01*
X150092000Y-94202500D01*
X150078000Y-94196500D01*
X150050000Y-94182500D01*
X150037000Y-94174500D01*
X150024000Y-94165500D01*
X150011000Y-94155500D01*
X149999000Y-94145500D01*
X149977000Y-94123500D01*
X149967000Y-94111500D01*
X149957000Y-94098500D01*
X149948000Y-94085500D01*
X149940000Y-94072500D01*
X149926000Y-94044500D01*
X149920000Y-94030500D01*
X149910000Y-94000500D01*
X149907000Y-93984500D01*
X149904000Y-93969500D01*
X149902000Y-93953500D01*
X149900000Y-93938500D01*
X149900000Y-90822500D01*
X151700000Y-90822500D01*
X151700000Y-93938500D01*
G37*
X151700000Y-93938500D02*
X151698000Y-93953500D01*
X151696000Y-93969500D01*
X151693000Y-93984500D01*
X151690000Y-94000500D01*
X151680000Y-94030500D01*
X151674000Y-94044500D01*
X151660000Y-94072500D01*
X151652000Y-94085500D01*
X151643000Y-94098500D01*
X151633000Y-94111500D01*
X151623000Y-94123500D01*
X151601000Y-94145500D01*
X151589000Y-94155500D01*
X151576000Y-94165500D01*
X151563000Y-94174500D01*
X151550000Y-94182500D01*
X151522000Y-94196500D01*
X151508000Y-94202500D01*
X151478000Y-94212500D01*
X151462000Y-94215500D01*
X151447000Y-94218500D01*
X151431000Y-94220500D01*
X151416000Y-94222500D01*
X150184000Y-94222500D01*
X150169000Y-94220500D01*
X150153000Y-94218500D01*
X150138000Y-94215500D01*
X150122000Y-94212500D01*
X150092000Y-94202500D01*
X150078000Y-94196500D01*
X150050000Y-94182500D01*
X150037000Y-94174500D01*
X150024000Y-94165500D01*
X150011000Y-94155500D01*
X149999000Y-94145500D01*
X149977000Y-94123500D01*
X149967000Y-94111500D01*
X149957000Y-94098500D01*
X149948000Y-94085500D01*
X149940000Y-94072500D01*
X149926000Y-94044500D01*
X149920000Y-94030500D01*
X149910000Y-94000500D01*
X149907000Y-93984500D01*
X149904000Y-93969500D01*
X149902000Y-93953500D01*
X149900000Y-93938500D01*
X149900000Y-90822500D01*
X151700000Y-90822500D01*
X151700000Y-93938500D01*
G36*
X164131000Y-110204500D02*
G01*
X164147000Y-110206500D01*
X164162000Y-110209500D01*
X164178000Y-110212500D01*
X164208000Y-110222500D01*
X164222000Y-110228500D01*
X164250000Y-110242500D01*
X164263000Y-110250500D01*
X164276000Y-110259500D01*
X164289000Y-110269500D01*
X164301000Y-110279500D01*
X164323000Y-110301500D01*
X164333000Y-110313500D01*
X164343000Y-110326500D01*
X164352000Y-110339500D01*
X164360000Y-110352500D01*
X164374000Y-110380500D01*
X164380000Y-110394500D01*
X164390000Y-110424500D01*
X164393000Y-110440500D01*
X164396000Y-110455500D01*
X164398000Y-110471500D01*
X164400000Y-110486500D01*
X164400000Y-113602500D01*
X162600000Y-113602500D01*
X162600000Y-110486500D01*
X162602000Y-110471500D01*
X162604000Y-110455500D01*
X162607000Y-110440500D01*
X162610000Y-110424500D01*
X162620000Y-110394500D01*
X162626000Y-110380500D01*
X162640000Y-110352500D01*
X162648000Y-110339500D01*
X162657000Y-110326500D01*
X162667000Y-110313500D01*
X162677000Y-110301500D01*
X162699000Y-110279500D01*
X162711000Y-110269500D01*
X162724000Y-110259500D01*
X162737000Y-110250500D01*
X162750000Y-110242500D01*
X162778000Y-110228500D01*
X162792000Y-110222500D01*
X162822000Y-110212500D01*
X162838000Y-110209500D01*
X162853000Y-110206500D01*
X162869000Y-110204500D01*
X162884000Y-110202500D01*
X164116000Y-110202500D01*
X164131000Y-110204500D01*
G37*
X164131000Y-110204500D02*
X164147000Y-110206500D01*
X164162000Y-110209500D01*
X164178000Y-110212500D01*
X164208000Y-110222500D01*
X164222000Y-110228500D01*
X164250000Y-110242500D01*
X164263000Y-110250500D01*
X164276000Y-110259500D01*
X164289000Y-110269500D01*
X164301000Y-110279500D01*
X164323000Y-110301500D01*
X164333000Y-110313500D01*
X164343000Y-110326500D01*
X164352000Y-110339500D01*
X164360000Y-110352500D01*
X164374000Y-110380500D01*
X164380000Y-110394500D01*
X164390000Y-110424500D01*
X164393000Y-110440500D01*
X164396000Y-110455500D01*
X164398000Y-110471500D01*
X164400000Y-110486500D01*
X164400000Y-113602500D01*
X162600000Y-113602500D01*
X162600000Y-110486500D01*
X162602000Y-110471500D01*
X162604000Y-110455500D01*
X162607000Y-110440500D01*
X162610000Y-110424500D01*
X162620000Y-110394500D01*
X162626000Y-110380500D01*
X162640000Y-110352500D01*
X162648000Y-110339500D01*
X162657000Y-110326500D01*
X162667000Y-110313500D01*
X162677000Y-110301500D01*
X162699000Y-110279500D01*
X162711000Y-110269500D01*
X162724000Y-110259500D01*
X162737000Y-110250500D01*
X162750000Y-110242500D01*
X162778000Y-110228500D01*
X162792000Y-110222500D01*
X162822000Y-110212500D01*
X162838000Y-110209500D01*
X162853000Y-110206500D01*
X162869000Y-110204500D01*
X162884000Y-110202500D01*
X164116000Y-110202500D01*
X164131000Y-110204500D01*
G36*
X133067000Y-110203500D02*
G01*
X133114000Y-110207500D01*
X133161000Y-110213500D01*
X133207000Y-110222500D01*
X133253000Y-110233500D01*
X133298000Y-110246500D01*
X133343000Y-110262500D01*
X133386000Y-110280500D01*
X133429000Y-110300500D01*
X133470000Y-110323500D01*
X133510000Y-110347500D01*
X133549000Y-110374500D01*
X133586000Y-110403500D01*
X133622000Y-110433500D01*
X133656000Y-110466500D01*
X133689000Y-110500500D01*
X133719000Y-110536500D01*
X133748000Y-110573500D01*
X133775000Y-110612500D01*
X133799000Y-110652500D01*
X133822000Y-110693500D01*
X133842000Y-110736500D01*
X133860000Y-110779500D01*
X133876000Y-110824500D01*
X133889000Y-110869500D01*
X133900000Y-110915500D01*
X133909000Y-110961500D01*
X133915000Y-111008500D01*
X133919000Y-111055500D01*
X133920000Y-111102500D01*
X133920000Y-113602500D01*
X132120000Y-113602500D01*
X132120000Y-111102500D01*
X132121000Y-111055500D01*
X132125000Y-111008500D01*
X132131000Y-110961500D01*
X132140000Y-110915500D01*
X132151000Y-110869500D01*
X132164000Y-110824500D01*
X132180000Y-110779500D01*
X132198000Y-110736500D01*
X132218000Y-110693500D01*
X132241000Y-110652500D01*
X132265000Y-110612500D01*
X132292000Y-110573500D01*
X132321000Y-110536500D01*
X132351000Y-110500500D01*
X132384000Y-110466500D01*
X132418000Y-110433500D01*
X132454000Y-110403500D01*
X132491000Y-110374500D01*
X132530000Y-110347500D01*
X132570000Y-110323500D01*
X132611000Y-110300500D01*
X132654000Y-110280500D01*
X132697000Y-110262500D01*
X132742000Y-110246500D01*
X132787000Y-110233500D01*
X132833000Y-110222500D01*
X132879000Y-110213500D01*
X132926000Y-110207500D01*
X132973000Y-110203500D01*
X133020000Y-110202500D01*
X133067000Y-110203500D01*
G37*
X133067000Y-110203500D02*
X133114000Y-110207500D01*
X133161000Y-110213500D01*
X133207000Y-110222500D01*
X133253000Y-110233500D01*
X133298000Y-110246500D01*
X133343000Y-110262500D01*
X133386000Y-110280500D01*
X133429000Y-110300500D01*
X133470000Y-110323500D01*
X133510000Y-110347500D01*
X133549000Y-110374500D01*
X133586000Y-110403500D01*
X133622000Y-110433500D01*
X133656000Y-110466500D01*
X133689000Y-110500500D01*
X133719000Y-110536500D01*
X133748000Y-110573500D01*
X133775000Y-110612500D01*
X133799000Y-110652500D01*
X133822000Y-110693500D01*
X133842000Y-110736500D01*
X133860000Y-110779500D01*
X133876000Y-110824500D01*
X133889000Y-110869500D01*
X133900000Y-110915500D01*
X133909000Y-110961500D01*
X133915000Y-111008500D01*
X133919000Y-111055500D01*
X133920000Y-111102500D01*
X133920000Y-113602500D01*
X132120000Y-113602500D01*
X132120000Y-111102500D01*
X132121000Y-111055500D01*
X132125000Y-111008500D01*
X132131000Y-110961500D01*
X132140000Y-110915500D01*
X132151000Y-110869500D01*
X132164000Y-110824500D01*
X132180000Y-110779500D01*
X132198000Y-110736500D01*
X132218000Y-110693500D01*
X132241000Y-110652500D01*
X132265000Y-110612500D01*
X132292000Y-110573500D01*
X132321000Y-110536500D01*
X132351000Y-110500500D01*
X132384000Y-110466500D01*
X132418000Y-110433500D01*
X132454000Y-110403500D01*
X132491000Y-110374500D01*
X132530000Y-110347500D01*
X132570000Y-110323500D01*
X132611000Y-110300500D01*
X132654000Y-110280500D01*
X132697000Y-110262500D01*
X132742000Y-110246500D01*
X132787000Y-110233500D01*
X132833000Y-110222500D01*
X132879000Y-110213500D01*
X132926000Y-110207500D01*
X132973000Y-110203500D01*
X133020000Y-110202500D01*
X133067000Y-110203500D01*
G36*
X166087000Y-110203500D02*
G01*
X166134000Y-110207500D01*
X166181000Y-110213500D01*
X166227000Y-110222500D01*
X166273000Y-110233500D01*
X166318000Y-110246500D01*
X166363000Y-110262500D01*
X166406000Y-110280500D01*
X166449000Y-110300500D01*
X166490000Y-110323500D01*
X166530000Y-110347500D01*
X166569000Y-110374500D01*
X166606000Y-110403500D01*
X166642000Y-110433500D01*
X166676000Y-110466500D01*
X166709000Y-110500500D01*
X166739000Y-110536500D01*
X166768000Y-110573500D01*
X166795000Y-110612500D01*
X166819000Y-110652500D01*
X166842000Y-110693500D01*
X166862000Y-110736500D01*
X166880000Y-110779500D01*
X166896000Y-110824500D01*
X166909000Y-110869500D01*
X166920000Y-110915500D01*
X166929000Y-110961500D01*
X166935000Y-111008500D01*
X166939000Y-111055500D01*
X166940000Y-111102500D01*
X166940000Y-113602500D01*
X165140000Y-113602500D01*
X165140000Y-111102500D01*
X165141000Y-111055500D01*
X165145000Y-111008500D01*
X165151000Y-110961500D01*
X165160000Y-110915500D01*
X165171000Y-110869500D01*
X165184000Y-110824500D01*
X165200000Y-110779500D01*
X165218000Y-110736500D01*
X165238000Y-110693500D01*
X165261000Y-110652500D01*
X165285000Y-110612500D01*
X165312000Y-110573500D01*
X165341000Y-110536500D01*
X165371000Y-110500500D01*
X165404000Y-110466500D01*
X165438000Y-110433500D01*
X165474000Y-110403500D01*
X165511000Y-110374500D01*
X165550000Y-110347500D01*
X165590000Y-110323500D01*
X165631000Y-110300500D01*
X165674000Y-110280500D01*
X165717000Y-110262500D01*
X165762000Y-110246500D01*
X165807000Y-110233500D01*
X165853000Y-110222500D01*
X165899000Y-110213500D01*
X165946000Y-110207500D01*
X165993000Y-110203500D01*
X166040000Y-110202500D01*
X166087000Y-110203500D01*
G37*
X166087000Y-110203500D02*
X166134000Y-110207500D01*
X166181000Y-110213500D01*
X166227000Y-110222500D01*
X166273000Y-110233500D01*
X166318000Y-110246500D01*
X166363000Y-110262500D01*
X166406000Y-110280500D01*
X166449000Y-110300500D01*
X166490000Y-110323500D01*
X166530000Y-110347500D01*
X166569000Y-110374500D01*
X166606000Y-110403500D01*
X166642000Y-110433500D01*
X166676000Y-110466500D01*
X166709000Y-110500500D01*
X166739000Y-110536500D01*
X166768000Y-110573500D01*
X166795000Y-110612500D01*
X166819000Y-110652500D01*
X166842000Y-110693500D01*
X166862000Y-110736500D01*
X166880000Y-110779500D01*
X166896000Y-110824500D01*
X166909000Y-110869500D01*
X166920000Y-110915500D01*
X166929000Y-110961500D01*
X166935000Y-111008500D01*
X166939000Y-111055500D01*
X166940000Y-111102500D01*
X166940000Y-113602500D01*
X165140000Y-113602500D01*
X165140000Y-111102500D01*
X165141000Y-111055500D01*
X165145000Y-111008500D01*
X165151000Y-110961500D01*
X165160000Y-110915500D01*
X165171000Y-110869500D01*
X165184000Y-110824500D01*
X165200000Y-110779500D01*
X165218000Y-110736500D01*
X165238000Y-110693500D01*
X165261000Y-110652500D01*
X165285000Y-110612500D01*
X165312000Y-110573500D01*
X165341000Y-110536500D01*
X165371000Y-110500500D01*
X165404000Y-110466500D01*
X165438000Y-110433500D01*
X165474000Y-110403500D01*
X165511000Y-110374500D01*
X165550000Y-110347500D01*
X165590000Y-110323500D01*
X165631000Y-110300500D01*
X165674000Y-110280500D01*
X165717000Y-110262500D01*
X165762000Y-110246500D01*
X165807000Y-110233500D01*
X165853000Y-110222500D01*
X165899000Y-110213500D01*
X165946000Y-110207500D01*
X165993000Y-110203500D01*
X166040000Y-110202500D01*
X166087000Y-110203500D01*
G36*
X148307000Y-110203500D02*
G01*
X148354000Y-110207500D01*
X148401000Y-110213500D01*
X148447000Y-110222500D01*
X148493000Y-110233500D01*
X148538000Y-110246500D01*
X148583000Y-110262500D01*
X148626000Y-110280500D01*
X148669000Y-110300500D01*
X148710000Y-110323500D01*
X148750000Y-110347500D01*
X148789000Y-110374500D01*
X148826000Y-110403500D01*
X148862000Y-110433500D01*
X148896000Y-110466500D01*
X148929000Y-110500500D01*
X148959000Y-110536500D01*
X148988000Y-110573500D01*
X149015000Y-110612500D01*
X149039000Y-110652500D01*
X149062000Y-110693500D01*
X149082000Y-110736500D01*
X149100000Y-110779500D01*
X149116000Y-110824500D01*
X149129000Y-110869500D01*
X149140000Y-110915500D01*
X149149000Y-110961500D01*
X149155000Y-111008500D01*
X149159000Y-111055500D01*
X149160000Y-111102500D01*
X149160000Y-113602500D01*
X147360000Y-113602500D01*
X147360000Y-111102500D01*
X147361000Y-111055500D01*
X147365000Y-111008500D01*
X147371000Y-110961500D01*
X147380000Y-110915500D01*
X147391000Y-110869500D01*
X147404000Y-110824500D01*
X147420000Y-110779500D01*
X147438000Y-110736500D01*
X147458000Y-110693500D01*
X147481000Y-110652500D01*
X147505000Y-110612500D01*
X147532000Y-110573500D01*
X147561000Y-110536500D01*
X147591000Y-110500500D01*
X147624000Y-110466500D01*
X147658000Y-110433500D01*
X147694000Y-110403500D01*
X147731000Y-110374500D01*
X147770000Y-110347500D01*
X147810000Y-110323500D01*
X147851000Y-110300500D01*
X147894000Y-110280500D01*
X147937000Y-110262500D01*
X147982000Y-110246500D01*
X148027000Y-110233500D01*
X148073000Y-110222500D01*
X148119000Y-110213500D01*
X148166000Y-110207500D01*
X148213000Y-110203500D01*
X148260000Y-110202500D01*
X148307000Y-110203500D01*
G37*
X148307000Y-110203500D02*
X148354000Y-110207500D01*
X148401000Y-110213500D01*
X148447000Y-110222500D01*
X148493000Y-110233500D01*
X148538000Y-110246500D01*
X148583000Y-110262500D01*
X148626000Y-110280500D01*
X148669000Y-110300500D01*
X148710000Y-110323500D01*
X148750000Y-110347500D01*
X148789000Y-110374500D01*
X148826000Y-110403500D01*
X148862000Y-110433500D01*
X148896000Y-110466500D01*
X148929000Y-110500500D01*
X148959000Y-110536500D01*
X148988000Y-110573500D01*
X149015000Y-110612500D01*
X149039000Y-110652500D01*
X149062000Y-110693500D01*
X149082000Y-110736500D01*
X149100000Y-110779500D01*
X149116000Y-110824500D01*
X149129000Y-110869500D01*
X149140000Y-110915500D01*
X149149000Y-110961500D01*
X149155000Y-111008500D01*
X149159000Y-111055500D01*
X149160000Y-111102500D01*
X149160000Y-113602500D01*
X147360000Y-113602500D01*
X147360000Y-111102500D01*
X147361000Y-111055500D01*
X147365000Y-111008500D01*
X147371000Y-110961500D01*
X147380000Y-110915500D01*
X147391000Y-110869500D01*
X147404000Y-110824500D01*
X147420000Y-110779500D01*
X147438000Y-110736500D01*
X147458000Y-110693500D01*
X147481000Y-110652500D01*
X147505000Y-110612500D01*
X147532000Y-110573500D01*
X147561000Y-110536500D01*
X147591000Y-110500500D01*
X147624000Y-110466500D01*
X147658000Y-110433500D01*
X147694000Y-110403500D01*
X147731000Y-110374500D01*
X147770000Y-110347500D01*
X147810000Y-110323500D01*
X147851000Y-110300500D01*
X147894000Y-110280500D01*
X147937000Y-110262500D01*
X147982000Y-110246500D01*
X148027000Y-110233500D01*
X148073000Y-110222500D01*
X148119000Y-110213500D01*
X148166000Y-110207500D01*
X148213000Y-110203500D01*
X148260000Y-110202500D01*
X148307000Y-110203500D01*
G36*
X179640000Y-93322500D02*
G01*
X179639000Y-93369500D01*
X179635000Y-93416500D01*
X179629000Y-93463500D01*
X179620000Y-93509500D01*
X179609000Y-93555500D01*
X179596000Y-93600500D01*
X179580000Y-93645500D01*
X179562000Y-93688500D01*
X179542000Y-93731500D01*
X179519000Y-93772500D01*
X179495000Y-93812500D01*
X179468000Y-93851500D01*
X179439000Y-93888500D01*
X179409000Y-93924500D01*
X179376000Y-93958500D01*
X179342000Y-93991500D01*
X179306000Y-94021500D01*
X179269000Y-94050500D01*
X179230000Y-94077500D01*
X179190000Y-94101500D01*
X179149000Y-94124500D01*
X179106000Y-94144500D01*
X179063000Y-94162500D01*
X179018000Y-94178500D01*
X178973000Y-94191500D01*
X178927000Y-94202500D01*
X178881000Y-94211500D01*
X178834000Y-94217500D01*
X178787000Y-94221500D01*
X178740000Y-94222500D01*
X178693000Y-94221500D01*
X178646000Y-94217500D01*
X178599000Y-94211500D01*
X178553000Y-94202500D01*
X178507000Y-94191500D01*
X178462000Y-94178500D01*
X178417000Y-94162500D01*
X178374000Y-94144500D01*
X178331000Y-94124500D01*
X178290000Y-94101500D01*
X178250000Y-94077500D01*
X178211000Y-94050500D01*
X178174000Y-94021500D01*
X178138000Y-93991500D01*
X178104000Y-93958500D01*
X178071000Y-93924500D01*
X178041000Y-93888500D01*
X178012000Y-93851500D01*
X177985000Y-93812500D01*
X177961000Y-93772500D01*
X177938000Y-93731500D01*
X177918000Y-93688500D01*
X177900000Y-93645500D01*
X177884000Y-93600500D01*
X177871000Y-93555500D01*
X177860000Y-93509500D01*
X177851000Y-93463500D01*
X177845000Y-93416500D01*
X177841000Y-93369500D01*
X177840000Y-93322500D01*
X177840000Y-90822500D01*
X179640000Y-90822500D01*
X179640000Y-93322500D01*
G37*
X179640000Y-93322500D02*
X179639000Y-93369500D01*
X179635000Y-93416500D01*
X179629000Y-93463500D01*
X179620000Y-93509500D01*
X179609000Y-93555500D01*
X179596000Y-93600500D01*
X179580000Y-93645500D01*
X179562000Y-93688500D01*
X179542000Y-93731500D01*
X179519000Y-93772500D01*
X179495000Y-93812500D01*
X179468000Y-93851500D01*
X179439000Y-93888500D01*
X179409000Y-93924500D01*
X179376000Y-93958500D01*
X179342000Y-93991500D01*
X179306000Y-94021500D01*
X179269000Y-94050500D01*
X179230000Y-94077500D01*
X179190000Y-94101500D01*
X179149000Y-94124500D01*
X179106000Y-94144500D01*
X179063000Y-94162500D01*
X179018000Y-94178500D01*
X178973000Y-94191500D01*
X178927000Y-94202500D01*
X178881000Y-94211500D01*
X178834000Y-94217500D01*
X178787000Y-94221500D01*
X178740000Y-94222500D01*
X178693000Y-94221500D01*
X178646000Y-94217500D01*
X178599000Y-94211500D01*
X178553000Y-94202500D01*
X178507000Y-94191500D01*
X178462000Y-94178500D01*
X178417000Y-94162500D01*
X178374000Y-94144500D01*
X178331000Y-94124500D01*
X178290000Y-94101500D01*
X178250000Y-94077500D01*
X178211000Y-94050500D01*
X178174000Y-94021500D01*
X178138000Y-93991500D01*
X178104000Y-93958500D01*
X178071000Y-93924500D01*
X178041000Y-93888500D01*
X178012000Y-93851500D01*
X177985000Y-93812500D01*
X177961000Y-93772500D01*
X177938000Y-93731500D01*
X177918000Y-93688500D01*
X177900000Y-93645500D01*
X177884000Y-93600500D01*
X177871000Y-93555500D01*
X177860000Y-93509500D01*
X177851000Y-93463500D01*
X177845000Y-93416500D01*
X177841000Y-93369500D01*
X177840000Y-93322500D01*
X177840000Y-90822500D01*
X179640000Y-90822500D01*
X179640000Y-93322500D01*
G36*
X153387000Y-110203500D02*
G01*
X153434000Y-110207500D01*
X153481000Y-110213500D01*
X153527000Y-110222500D01*
X153573000Y-110233500D01*
X153618000Y-110246500D01*
X153663000Y-110262500D01*
X153706000Y-110280500D01*
X153749000Y-110300500D01*
X153790000Y-110323500D01*
X153830000Y-110347500D01*
X153869000Y-110374500D01*
X153906000Y-110403500D01*
X153942000Y-110433500D01*
X153976000Y-110466500D01*
X154009000Y-110500500D01*
X154039000Y-110536500D01*
X154068000Y-110573500D01*
X154095000Y-110612500D01*
X154119000Y-110652500D01*
X154142000Y-110693500D01*
X154162000Y-110736500D01*
X154180000Y-110779500D01*
X154196000Y-110824500D01*
X154209000Y-110869500D01*
X154220000Y-110915500D01*
X154229000Y-110961500D01*
X154235000Y-111008500D01*
X154239000Y-111055500D01*
X154240000Y-111102500D01*
X154240000Y-113602500D01*
X152440000Y-113602500D01*
X152440000Y-111102500D01*
X152441000Y-111055500D01*
X152445000Y-111008500D01*
X152451000Y-110961500D01*
X152460000Y-110915500D01*
X152471000Y-110869500D01*
X152484000Y-110824500D01*
X152500000Y-110779500D01*
X152518000Y-110736500D01*
X152538000Y-110693500D01*
X152561000Y-110652500D01*
X152585000Y-110612500D01*
X152612000Y-110573500D01*
X152641000Y-110536500D01*
X152671000Y-110500500D01*
X152704000Y-110466500D01*
X152738000Y-110433500D01*
X152774000Y-110403500D01*
X152811000Y-110374500D01*
X152850000Y-110347500D01*
X152890000Y-110323500D01*
X152931000Y-110300500D01*
X152974000Y-110280500D01*
X153017000Y-110262500D01*
X153062000Y-110246500D01*
X153107000Y-110233500D01*
X153153000Y-110222500D01*
X153199000Y-110213500D01*
X153246000Y-110207500D01*
X153293000Y-110203500D01*
X153340000Y-110202500D01*
X153387000Y-110203500D01*
G37*
X153387000Y-110203500D02*
X153434000Y-110207500D01*
X153481000Y-110213500D01*
X153527000Y-110222500D01*
X153573000Y-110233500D01*
X153618000Y-110246500D01*
X153663000Y-110262500D01*
X153706000Y-110280500D01*
X153749000Y-110300500D01*
X153790000Y-110323500D01*
X153830000Y-110347500D01*
X153869000Y-110374500D01*
X153906000Y-110403500D01*
X153942000Y-110433500D01*
X153976000Y-110466500D01*
X154009000Y-110500500D01*
X154039000Y-110536500D01*
X154068000Y-110573500D01*
X154095000Y-110612500D01*
X154119000Y-110652500D01*
X154142000Y-110693500D01*
X154162000Y-110736500D01*
X154180000Y-110779500D01*
X154196000Y-110824500D01*
X154209000Y-110869500D01*
X154220000Y-110915500D01*
X154229000Y-110961500D01*
X154235000Y-111008500D01*
X154239000Y-111055500D01*
X154240000Y-111102500D01*
X154240000Y-113602500D01*
X152440000Y-113602500D01*
X152440000Y-111102500D01*
X152441000Y-111055500D01*
X152445000Y-111008500D01*
X152451000Y-110961500D01*
X152460000Y-110915500D01*
X152471000Y-110869500D01*
X152484000Y-110824500D01*
X152500000Y-110779500D01*
X152518000Y-110736500D01*
X152538000Y-110693500D01*
X152561000Y-110652500D01*
X152585000Y-110612500D01*
X152612000Y-110573500D01*
X152641000Y-110536500D01*
X152671000Y-110500500D01*
X152704000Y-110466500D01*
X152738000Y-110433500D01*
X152774000Y-110403500D01*
X152811000Y-110374500D01*
X152850000Y-110347500D01*
X152890000Y-110323500D01*
X152931000Y-110300500D01*
X152974000Y-110280500D01*
X153017000Y-110262500D01*
X153062000Y-110246500D01*
X153107000Y-110233500D01*
X153153000Y-110222500D01*
X153199000Y-110213500D01*
X153246000Y-110207500D01*
X153293000Y-110203500D01*
X153340000Y-110202500D01*
X153387000Y-110203500D01*
G36*
X158467000Y-110203500D02*
G01*
X158514000Y-110207500D01*
X158561000Y-110213500D01*
X158607000Y-110222500D01*
X158653000Y-110233500D01*
X158698000Y-110246500D01*
X158743000Y-110262500D01*
X158786000Y-110280500D01*
X158829000Y-110300500D01*
X158870000Y-110323500D01*
X158910000Y-110347500D01*
X158949000Y-110374500D01*
X158986000Y-110403500D01*
X159022000Y-110433500D01*
X159056000Y-110466500D01*
X159089000Y-110500500D01*
X159119000Y-110536500D01*
X159148000Y-110573500D01*
X159175000Y-110612500D01*
X159199000Y-110652500D01*
X159222000Y-110693500D01*
X159242000Y-110736500D01*
X159260000Y-110779500D01*
X159276000Y-110824500D01*
X159289000Y-110869500D01*
X159300000Y-110915500D01*
X159309000Y-110961500D01*
X159315000Y-111008500D01*
X159319000Y-111055500D01*
X159320000Y-111102500D01*
X159320000Y-113602500D01*
X157520000Y-113602500D01*
X157520000Y-111102500D01*
X157521000Y-111055500D01*
X157525000Y-111008500D01*
X157531000Y-110961500D01*
X157540000Y-110915500D01*
X157551000Y-110869500D01*
X157564000Y-110824500D01*
X157580000Y-110779500D01*
X157598000Y-110736500D01*
X157618000Y-110693500D01*
X157641000Y-110652500D01*
X157665000Y-110612500D01*
X157692000Y-110573500D01*
X157721000Y-110536500D01*
X157751000Y-110500500D01*
X157784000Y-110466500D01*
X157818000Y-110433500D01*
X157854000Y-110403500D01*
X157891000Y-110374500D01*
X157930000Y-110347500D01*
X157970000Y-110323500D01*
X158011000Y-110300500D01*
X158054000Y-110280500D01*
X158097000Y-110262500D01*
X158142000Y-110246500D01*
X158187000Y-110233500D01*
X158233000Y-110222500D01*
X158279000Y-110213500D01*
X158326000Y-110207500D01*
X158373000Y-110203500D01*
X158420000Y-110202500D01*
X158467000Y-110203500D01*
G37*
X158467000Y-110203500D02*
X158514000Y-110207500D01*
X158561000Y-110213500D01*
X158607000Y-110222500D01*
X158653000Y-110233500D01*
X158698000Y-110246500D01*
X158743000Y-110262500D01*
X158786000Y-110280500D01*
X158829000Y-110300500D01*
X158870000Y-110323500D01*
X158910000Y-110347500D01*
X158949000Y-110374500D01*
X158986000Y-110403500D01*
X159022000Y-110433500D01*
X159056000Y-110466500D01*
X159089000Y-110500500D01*
X159119000Y-110536500D01*
X159148000Y-110573500D01*
X159175000Y-110612500D01*
X159199000Y-110652500D01*
X159222000Y-110693500D01*
X159242000Y-110736500D01*
X159260000Y-110779500D01*
X159276000Y-110824500D01*
X159289000Y-110869500D01*
X159300000Y-110915500D01*
X159309000Y-110961500D01*
X159315000Y-111008500D01*
X159319000Y-111055500D01*
X159320000Y-111102500D01*
X159320000Y-113602500D01*
X157520000Y-113602500D01*
X157520000Y-111102500D01*
X157521000Y-111055500D01*
X157525000Y-111008500D01*
X157531000Y-110961500D01*
X157540000Y-110915500D01*
X157551000Y-110869500D01*
X157564000Y-110824500D01*
X157580000Y-110779500D01*
X157598000Y-110736500D01*
X157618000Y-110693500D01*
X157641000Y-110652500D01*
X157665000Y-110612500D01*
X157692000Y-110573500D01*
X157721000Y-110536500D01*
X157751000Y-110500500D01*
X157784000Y-110466500D01*
X157818000Y-110433500D01*
X157854000Y-110403500D01*
X157891000Y-110374500D01*
X157930000Y-110347500D01*
X157970000Y-110323500D01*
X158011000Y-110300500D01*
X158054000Y-110280500D01*
X158097000Y-110262500D01*
X158142000Y-110246500D01*
X158187000Y-110233500D01*
X158233000Y-110222500D01*
X158279000Y-110213500D01*
X158326000Y-110207500D01*
X158373000Y-110203500D01*
X158420000Y-110202500D01*
X158467000Y-110203500D01*
G36*
X143227000Y-110203500D02*
G01*
X143274000Y-110207500D01*
X143321000Y-110213500D01*
X143367000Y-110222500D01*
X143413000Y-110233500D01*
X143458000Y-110246500D01*
X143503000Y-110262500D01*
X143546000Y-110280500D01*
X143589000Y-110300500D01*
X143630000Y-110323500D01*
X143670000Y-110347500D01*
X143709000Y-110374500D01*
X143746000Y-110403500D01*
X143782000Y-110433500D01*
X143816000Y-110466500D01*
X143849000Y-110500500D01*
X143879000Y-110536500D01*
X143908000Y-110573500D01*
X143935000Y-110612500D01*
X143959000Y-110652500D01*
X143982000Y-110693500D01*
X144002000Y-110736500D01*
X144020000Y-110779500D01*
X144036000Y-110824500D01*
X144049000Y-110869500D01*
X144060000Y-110915500D01*
X144069000Y-110961500D01*
X144075000Y-111008500D01*
X144079000Y-111055500D01*
X144080000Y-111102500D01*
X144080000Y-113602500D01*
X142280000Y-113602500D01*
X142280000Y-111102500D01*
X142281000Y-111055500D01*
X142285000Y-111008500D01*
X142291000Y-110961500D01*
X142300000Y-110915500D01*
X142311000Y-110869500D01*
X142324000Y-110824500D01*
X142340000Y-110779500D01*
X142358000Y-110736500D01*
X142378000Y-110693500D01*
X142401000Y-110652500D01*
X142425000Y-110612500D01*
X142452000Y-110573500D01*
X142481000Y-110536500D01*
X142511000Y-110500500D01*
X142544000Y-110466500D01*
X142578000Y-110433500D01*
X142614000Y-110403500D01*
X142651000Y-110374500D01*
X142690000Y-110347500D01*
X142730000Y-110323500D01*
X142771000Y-110300500D01*
X142814000Y-110280500D01*
X142857000Y-110262500D01*
X142902000Y-110246500D01*
X142947000Y-110233500D01*
X142993000Y-110222500D01*
X143039000Y-110213500D01*
X143086000Y-110207500D01*
X143133000Y-110203500D01*
X143180000Y-110202500D01*
X143227000Y-110203500D01*
G37*
X143227000Y-110203500D02*
X143274000Y-110207500D01*
X143321000Y-110213500D01*
X143367000Y-110222500D01*
X143413000Y-110233500D01*
X143458000Y-110246500D01*
X143503000Y-110262500D01*
X143546000Y-110280500D01*
X143589000Y-110300500D01*
X143630000Y-110323500D01*
X143670000Y-110347500D01*
X143709000Y-110374500D01*
X143746000Y-110403500D01*
X143782000Y-110433500D01*
X143816000Y-110466500D01*
X143849000Y-110500500D01*
X143879000Y-110536500D01*
X143908000Y-110573500D01*
X143935000Y-110612500D01*
X143959000Y-110652500D01*
X143982000Y-110693500D01*
X144002000Y-110736500D01*
X144020000Y-110779500D01*
X144036000Y-110824500D01*
X144049000Y-110869500D01*
X144060000Y-110915500D01*
X144069000Y-110961500D01*
X144075000Y-111008500D01*
X144079000Y-111055500D01*
X144080000Y-111102500D01*
X144080000Y-113602500D01*
X142280000Y-113602500D01*
X142280000Y-111102500D01*
X142281000Y-111055500D01*
X142285000Y-111008500D01*
X142291000Y-110961500D01*
X142300000Y-110915500D01*
X142311000Y-110869500D01*
X142324000Y-110824500D01*
X142340000Y-110779500D01*
X142358000Y-110736500D01*
X142378000Y-110693500D01*
X142401000Y-110652500D01*
X142425000Y-110612500D01*
X142452000Y-110573500D01*
X142481000Y-110536500D01*
X142511000Y-110500500D01*
X142544000Y-110466500D01*
X142578000Y-110433500D01*
X142614000Y-110403500D01*
X142651000Y-110374500D01*
X142690000Y-110347500D01*
X142730000Y-110323500D01*
X142771000Y-110300500D01*
X142814000Y-110280500D01*
X142857000Y-110262500D01*
X142902000Y-110246500D01*
X142947000Y-110233500D01*
X142993000Y-110222500D01*
X143039000Y-110213500D01*
X143086000Y-110207500D01*
X143133000Y-110203500D01*
X143180000Y-110202500D01*
X143227000Y-110203500D01*
G36*
X159320000Y-93322500D02*
G01*
X159319000Y-93369500D01*
X159315000Y-93416500D01*
X159309000Y-93463500D01*
X159300000Y-93509500D01*
X159289000Y-93555500D01*
X159276000Y-93600500D01*
X159260000Y-93645500D01*
X159242000Y-93688500D01*
X159222000Y-93731500D01*
X159199000Y-93772500D01*
X159175000Y-93812500D01*
X159148000Y-93851500D01*
X159119000Y-93888500D01*
X159089000Y-93924500D01*
X159056000Y-93958500D01*
X159022000Y-93991500D01*
X158986000Y-94021500D01*
X158949000Y-94050500D01*
X158910000Y-94077500D01*
X158870000Y-94101500D01*
X158829000Y-94124500D01*
X158786000Y-94144500D01*
X158743000Y-94162500D01*
X158698000Y-94178500D01*
X158653000Y-94191500D01*
X158607000Y-94202500D01*
X158561000Y-94211500D01*
X158514000Y-94217500D01*
X158467000Y-94221500D01*
X158420000Y-94222500D01*
X158373000Y-94221500D01*
X158326000Y-94217500D01*
X158279000Y-94211500D01*
X158233000Y-94202500D01*
X158187000Y-94191500D01*
X158142000Y-94178500D01*
X158097000Y-94162500D01*
X158054000Y-94144500D01*
X158011000Y-94124500D01*
X157970000Y-94101500D01*
X157930000Y-94077500D01*
X157891000Y-94050500D01*
X157854000Y-94021500D01*
X157818000Y-93991500D01*
X157784000Y-93958500D01*
X157751000Y-93924500D01*
X157721000Y-93888500D01*
X157692000Y-93851500D01*
X157665000Y-93812500D01*
X157641000Y-93772500D01*
X157618000Y-93731500D01*
X157598000Y-93688500D01*
X157580000Y-93645500D01*
X157564000Y-93600500D01*
X157551000Y-93555500D01*
X157540000Y-93509500D01*
X157531000Y-93463500D01*
X157525000Y-93416500D01*
X157521000Y-93369500D01*
X157520000Y-93322500D01*
X157520000Y-90822500D01*
X159320000Y-90822500D01*
X159320000Y-93322500D01*
G37*
X159320000Y-93322500D02*
X159319000Y-93369500D01*
X159315000Y-93416500D01*
X159309000Y-93463500D01*
X159300000Y-93509500D01*
X159289000Y-93555500D01*
X159276000Y-93600500D01*
X159260000Y-93645500D01*
X159242000Y-93688500D01*
X159222000Y-93731500D01*
X159199000Y-93772500D01*
X159175000Y-93812500D01*
X159148000Y-93851500D01*
X159119000Y-93888500D01*
X159089000Y-93924500D01*
X159056000Y-93958500D01*
X159022000Y-93991500D01*
X158986000Y-94021500D01*
X158949000Y-94050500D01*
X158910000Y-94077500D01*
X158870000Y-94101500D01*
X158829000Y-94124500D01*
X158786000Y-94144500D01*
X158743000Y-94162500D01*
X158698000Y-94178500D01*
X158653000Y-94191500D01*
X158607000Y-94202500D01*
X158561000Y-94211500D01*
X158514000Y-94217500D01*
X158467000Y-94221500D01*
X158420000Y-94222500D01*
X158373000Y-94221500D01*
X158326000Y-94217500D01*
X158279000Y-94211500D01*
X158233000Y-94202500D01*
X158187000Y-94191500D01*
X158142000Y-94178500D01*
X158097000Y-94162500D01*
X158054000Y-94144500D01*
X158011000Y-94124500D01*
X157970000Y-94101500D01*
X157930000Y-94077500D01*
X157891000Y-94050500D01*
X157854000Y-94021500D01*
X157818000Y-93991500D01*
X157784000Y-93958500D01*
X157751000Y-93924500D01*
X157721000Y-93888500D01*
X157692000Y-93851500D01*
X157665000Y-93812500D01*
X157641000Y-93772500D01*
X157618000Y-93731500D01*
X157598000Y-93688500D01*
X157580000Y-93645500D01*
X157564000Y-93600500D01*
X157551000Y-93555500D01*
X157540000Y-93509500D01*
X157531000Y-93463500D01*
X157525000Y-93416500D01*
X157521000Y-93369500D01*
X157520000Y-93322500D01*
X157520000Y-90822500D01*
X159320000Y-90822500D01*
X159320000Y-93322500D01*
%TD*%
D11*
%TO.C,J102*%
X111142500Y-108137500D03*
D12*
X111142500Y-110677500D03*
X111142500Y-113217500D03*
X111142500Y-115757500D03*
X111142500Y-118297500D03*
%TD*%
D13*
%TO.C,R105*%
X178140000Y-121462500D03*
X179160000Y-121462500D03*
%TD*%
%TO.C,R102*%
X132580000Y-75242500D03*
X133600000Y-75242500D03*
%TD*%
D14*
%TO.C,C105*%
X145175000Y-83512500D03*
X143625000Y-83512500D03*
%TD*%
D15*
%TO.C,U102*%
X147850000Y-80762500D03*
X147850000Y-80262500D03*
X147850000Y-79762500D03*
X147850000Y-79262500D03*
X147850000Y-78762500D03*
X147850000Y-78262500D03*
D16*
X147150000Y-77562500D03*
X146650000Y-77562500D03*
X146150000Y-77562500D03*
X145650000Y-77562500D03*
X145150000Y-77562500D03*
X144650000Y-77562500D03*
D15*
X143950000Y-78262500D03*
X143950000Y-78762500D03*
X143950000Y-79262500D03*
X143950000Y-79762500D03*
X143950000Y-80262500D03*
X143950000Y-80762500D03*
D16*
X144650000Y-81462500D03*
X145150000Y-81462500D03*
X145650000Y-81462500D03*
X146150000Y-81462500D03*
X146650000Y-81462500D03*
X147150000Y-81462500D03*
%TD*%
D17*
%TO.C,H104*%
X102200000Y-130012500D03*
%TD*%
D18*
%TO.C,D102*%
X181300000Y-83925000D03*
X181300000Y-85500000D03*
%TD*%
D19*
%TO.C,C106*%
X142150000Y-78282500D03*
X142150000Y-79242500D03*
%TD*%
D20*
%TO.C,U101*%
X181150000Y-99487500D03*
X181150000Y-104937500D03*
D21*
X178120000Y-99787500D03*
X178120000Y-104637500D03*
D22*
X178150000Y-102212500D03*
X181450000Y-103212500D03*
X181450000Y-101212500D03*
X174650000Y-99712500D03*
X172150000Y-99712500D03*
X169650000Y-99712500D03*
%TD*%
D23*
%TO.C,R104*%
X119150000Y-91222500D03*
X119150000Y-90202500D03*
%TD*%
D11*
%TO.C,J103*%
X144075000Y-121470000D03*
D12*
X146615000Y-121470000D03*
X149155000Y-121470000D03*
%TD*%
D17*
%TO.C,H102*%
X180900000Y-130112500D03*
%TD*%
%TO.C,H101*%
X180900000Y-74212500D03*
%TD*%
D24*
%TO.C,C104*%
X143620000Y-75512500D03*
X144580000Y-75512500D03*
%TD*%
D11*
%TO.C,J101*%
X111142500Y-86137500D03*
D12*
X111142500Y-88677500D03*
X111142500Y-91217500D03*
X111142500Y-93757500D03*
X111142500Y-96297500D03*
%TD*%
D25*
%TO.C,TP103*%
X151400000Y-105342500D03*
%TD*%
D11*
%TO.C,J105*%
X166075000Y-121470000D03*
D12*
X168615000Y-121470000D03*
X171155000Y-121470000D03*
%TD*%
D17*
%TO.C,H103*%
X102150000Y-74212500D03*
%TD*%
D25*
%TO.C,TP102*%
X151400000Y-107882500D03*
%TD*%
D26*
%TO.C,J106*%
X117070000Y-82438500D03*
D27*
X118975000Y-83962500D03*
X122150000Y-83962500D03*
D26*
X122150000Y-81422500D03*
X117070000Y-80406500D03*
D27*
X122150000Y-78882500D03*
X118975000Y-78882500D03*
D28*
X120880000Y-80787500D03*
X120880000Y-82057500D03*
X119610000Y-80787500D03*
X119610000Y-82057500D03*
X118340000Y-80787500D03*
X118340000Y-82057500D03*
%TD*%
D24*
%TO.C,C101*%
X162620000Y-121512500D03*
X163580000Y-121512500D03*
%TD*%
D11*
%TO.C,J109*%
X119550000Y-126987500D03*
D12*
X119550000Y-124447500D03*
X122090000Y-126987500D03*
X122090000Y-124447500D03*
X124630000Y-126987500D03*
X124630000Y-124447500D03*
X127170000Y-126987500D03*
X127170000Y-124447500D03*
X129710000Y-126987500D03*
X129710000Y-124447500D03*
X132250000Y-126987500D03*
X132250000Y-124447500D03*
%TD*%
D24*
%TO.C,C102*%
X151620000Y-121512500D03*
X152580000Y-121512500D03*
%TD*%
D25*
%TO.C,TP101*%
X151400000Y-102802500D03*
%TD*%
D11*
%TO.C,J107*%
X138700000Y-77962500D03*
D12*
X136160000Y-77962500D03*
X133620000Y-77962500D03*
X131080000Y-77962500D03*
%TD*%
D29*
%TO.C,SW102*%
X125650000Y-109962500D03*
X119150000Y-109962500D03*
X119150000Y-105462500D03*
X125650000Y-105462500D03*
%TD*%
D30*
%TO.C,C103*%
X170780000Y-116200000D03*
X169820000Y-116200000D03*
%TD*%
D18*
%TO.C,D103*%
X178700000Y-83925000D03*
X178700000Y-85500000D03*
%TD*%
D11*
%TO.C,J104*%
X155075000Y-121470000D03*
D12*
X157615000Y-121470000D03*
X160155000Y-121470000D03*
%TD*%
D29*
%TO.C,SW101*%
X125650000Y-98962500D03*
X119150000Y-98962500D03*
X119150000Y-94462500D03*
X125650000Y-94462500D03*
%TD*%
D23*
%TO.C,R106*%
X181300000Y-82472500D03*
X181300000Y-81452500D03*
%TD*%
D30*
%TO.C,C107*%
X146630000Y-75512500D03*
X145670000Y-75512500D03*
%TD*%
D31*
%TO.C,D101*%
X176687500Y-121462500D03*
X175112500Y-121462500D03*
%TD*%
D23*
%TO.C,R103*%
X125650000Y-91222500D03*
X125650000Y-90202500D03*
%TD*%
D32*
%TO.C,R101*%
X137200000Y-75242500D03*
X136180000Y-75242500D03*
%TD*%
D23*
%TO.C,R107*%
X178700000Y-82472500D03*
X178700000Y-81452500D03*
%TD*%
D33*
%TO.C,J108*%
X162150000Y-86000000D03*
D34*
X164650000Y-86000000D03*
X164650000Y-84000000D03*
X162150000Y-84000000D03*
D35*
X169400000Y-81140000D03*
X157400000Y-81140000D03*
%TD*%
M02*
