%TF.GenerationSoftware,KiCad,Pcbnew,(6.0.5)*%
%TF.CreationDate,2023-01-28T00:33:00+00:00*%
%TF.ProjectId,Drivebase Board,44726976-6562-4617-9365-20426f617264,rev?*%
%TF.SameCoordinates,Original*%
%TF.FileFunction,Copper,L2,Bot*%
%TF.FilePolarity,Positive*%
%FSLAX46Y46*%
G04 Gerber Fmt 4.6, Leading zero omitted, Abs format (unit mm)*
G04 Created by KiCad (PCBNEW (6.0.5)) date 2023-01-28 00:33:00*
%MOMM*%
%LPD*%
G01*
G04 APERTURE LIST*
%TA.AperFunction,ComponentPad*%
%ADD10R,1.700000X1.700000*%
%TD*%
%TA.AperFunction,ComponentPad*%
%ADD11O,1.700000X1.700000*%
%TD*%
%TA.AperFunction,ComponentPad*%
%ADD12C,6.400000*%
%TD*%
%TA.AperFunction,ComponentPad*%
%ADD13C,2.000000*%
%TD*%
%TA.AperFunction,ComponentPad*%
%ADD14R,1.600000X1.600000*%
%TD*%
%TA.AperFunction,ComponentPad*%
%ADD15C,1.600000*%
%TD*%
%TA.AperFunction,ComponentPad*%
%ADD16C,4.000000*%
%TD*%
%TA.AperFunction,ViaPad*%
%ADD17C,0.700000*%
%TD*%
%TA.AperFunction,ViaPad*%
%ADD18C,0.800000*%
%TD*%
%TA.AperFunction,Conductor*%
%ADD19C,0.250000*%
%TD*%
%TA.AperFunction,Conductor*%
%ADD20C,0.500000*%
%TD*%
%TA.AperFunction,Conductor*%
%ADD21C,1.000000*%
%TD*%
G04 APERTURE END LIST*
D10*
%TO.P,J102,1,Pin_1*%
%TO.N,GND*%
X111142500Y-108137500D03*
D11*
%TO.P,J102,2,Pin_2*%
%TO.N,PWM2*%
X111142500Y-110677500D03*
%TO.P,J102,3,Pin_3*%
%TO.N,DIR2*%
X111142500Y-113217500D03*
%TO.P,J102,4,Pin_4*%
%TO.N,PWM1*%
X111142500Y-115757500D03*
%TO.P,J102,5,Pin_5*%
%TO.N,DIR1*%
X111142500Y-118297500D03*
%TD*%
D12*
%TO.P,H104,1*%
%TO.N,N/C*%
X102200000Y-130012500D03*
%TD*%
D10*
%TO.P,J103,1,Pin_1*%
%TO.N,GNDA*%
X144075000Y-121470000D03*
D11*
%TO.P,J103,2,Pin_2*%
%TO.N,HALL1*%
X146615000Y-121470000D03*
%TO.P,J103,3,Pin_3*%
%TO.N,+3V3*%
X149155000Y-121470000D03*
%TD*%
D12*
%TO.P,H102,1*%
%TO.N,N/C*%
X180900000Y-130112500D03*
%TD*%
%TO.P,H101,1*%
%TO.N,N/C*%
X180900000Y-74212500D03*
%TD*%
D10*
%TO.P,J101,1,Pin_1*%
%TO.N,GND*%
X111142500Y-86137500D03*
D11*
%TO.P,J101,2,Pin_2*%
%TO.N,PWM4*%
X111142500Y-88677500D03*
%TO.P,J101,3,Pin_3*%
%TO.N,DIR4*%
X111142500Y-91217500D03*
%TO.P,J101,4,Pin_4*%
%TO.N,PWM3*%
X111142500Y-93757500D03*
%TO.P,J101,5,Pin_5*%
%TO.N,DIR3*%
X111142500Y-96297500D03*
%TD*%
D10*
%TO.P,J105,1,Pin_1*%
%TO.N,GNDA*%
X166075000Y-121470000D03*
D11*
%TO.P,J105,2,Pin_2*%
%TO.N,HALL3*%
X168615000Y-121470000D03*
%TO.P,J105,3,Pin_3*%
%TO.N,+3V3*%
X171155000Y-121470000D03*
%TD*%
D12*
%TO.P,H103,1*%
%TO.N,N/C*%
X102150000Y-74212500D03*
%TD*%
D10*
%TO.P,J109,1,Pin_1*%
%TO.N,+3V3*%
X119550000Y-126987500D03*
D11*
%TO.P,J109,2,Pin_2*%
X119550000Y-124447500D03*
%TO.P,J109,3,Pin_3*%
%TO.N,GPIO16*%
X122090000Y-126987500D03*
%TO.P,J109,4,Pin_4*%
%TO.N,GPIO15*%
X122090000Y-124447500D03*
%TO.P,J109,5,Pin_5*%
%TO.N,GPIO18*%
X124630000Y-126987500D03*
%TO.P,J109,6,Pin_6*%
%TO.N,GPIO17*%
X124630000Y-124447500D03*
%TO.P,J109,7,Pin_7*%
%TO.N,GPIO20*%
X127170000Y-126987500D03*
%TO.P,J109,8,Pin_8*%
%TO.N,GPIO19*%
X127170000Y-124447500D03*
%TO.P,J109,9,Pin_9*%
%TO.N,GPIO22*%
X129710000Y-126987500D03*
%TO.P,J109,10,Pin_10*%
%TO.N,GPIO21*%
X129710000Y-124447500D03*
%TO.P,J109,11,Pin_11*%
%TO.N,GND*%
X132250000Y-126987500D03*
%TO.P,J109,12,Pin_12*%
X132250000Y-124447500D03*
%TD*%
D10*
%TO.P,J107,1,Pin_1*%
%TO.N,GND*%
X138700000Y-77962500D03*
D11*
%TO.P,J107,2,Pin_2*%
%TO.N,SDA*%
X136160000Y-77962500D03*
%TO.P,J107,3,Pin_3*%
%TO.N,SCL*%
X133620000Y-77962500D03*
%TO.P,J107,4,Pin_4*%
%TO.N,+3V3*%
X131080000Y-77962500D03*
%TD*%
D13*
%TO.P,SW102,1,1*%
%TO.N,RST*%
X125650000Y-109962500D03*
X119150000Y-109962500D03*
%TO.P,SW102,2,2*%
%TO.N,GND*%
X119150000Y-105462500D03*
X125650000Y-105462500D03*
%TD*%
D10*
%TO.P,J104,1,Pin_1*%
%TO.N,GNDA*%
X155075000Y-121470000D03*
D11*
%TO.P,J104,2,Pin_2*%
%TO.N,HALL2*%
X157615000Y-121470000D03*
%TO.P,J104,3,Pin_3*%
%TO.N,+3V3*%
X160155000Y-121470000D03*
%TD*%
D13*
%TO.P,SW101,1,1*%
%TO.N,GND*%
X125650000Y-98962500D03*
X119150000Y-98962500D03*
%TO.P,SW101,2,2*%
%TO.N,Net-(R103-Pad1)*%
X119150000Y-94462500D03*
X125650000Y-94462500D03*
%TD*%
D14*
%TO.P,J108,1,VBUS*%
%TO.N,VBUS*%
X162150000Y-86000000D03*
D15*
%TO.P,J108,2,D-*%
%TO.N,DM*%
X164650000Y-86000000D03*
%TO.P,J108,3,D+*%
%TO.N,DP*%
X164650000Y-84000000D03*
%TO.P,J108,4,GND*%
%TO.N,GND*%
X162150000Y-84000000D03*
D16*
%TO.P,J108,5,Shield*%
X169400000Y-81140000D03*
X157400000Y-81140000D03*
%TD*%
D17*
%TO.N,GND*%
X181300000Y-80512500D03*
X138100000Y-90012500D03*
D18*
X149150000Y-81462500D03*
D17*
X138100000Y-114412500D03*
D18*
X152700000Y-106652500D03*
D17*
X142550000Y-80362500D03*
X143200000Y-76412500D03*
X176200000Y-90012500D03*
X181200000Y-106212500D03*
X163500000Y-90012500D03*
X150800000Y-114412500D03*
X180150000Y-121462500D03*
X116150000Y-81422500D03*
X152700000Y-104052500D03*
X179575500Y-102212500D03*
X176200000Y-114412500D03*
X176700000Y-104612500D03*
X145100000Y-74562500D03*
X150800000Y-90012500D03*
X178700000Y-80512500D03*
X143600000Y-82312500D03*
X176700000Y-99812500D03*
X181200000Y-98212500D03*
D18*
%TO.N,+3V3*%
X130600000Y-80512500D03*
X123600000Y-80512500D03*
X149200000Y-74062500D03*
D17*
X155400000Y-86962500D03*
X141150000Y-78462500D03*
D18*
X147800000Y-76062500D03*
D17*
X155400000Y-97712500D03*
%TO.N,GNDA*%
X149300000Y-117062500D03*
X152200000Y-117062500D03*
X148000000Y-119700000D03*
X159700000Y-114512500D03*
X163500000Y-116612500D03*
X163500000Y-114412500D03*
X143600000Y-118712500D03*
X168650000Y-116962500D03*
X162000000Y-118312500D03*
X146500000Y-117062500D03*
X169700000Y-119712500D03*
X165300000Y-118312500D03*
X157200000Y-114962500D03*
X155100000Y-117062500D03*
X157300000Y-118300000D03*
X152200000Y-119812500D03*
X168650000Y-114962500D03*
D18*
%TO.N,BTN*%
X131150000Y-90762500D03*
X135550000Y-90287480D03*
D17*
%TO.N,IMU_INT*%
X140650000Y-80962500D03*
X139650000Y-83212500D03*
%TD*%
D19*
%TO.N,+3V3*%
X147800000Y-75462500D02*
X149200000Y-74062500D01*
X147800000Y-76062500D02*
X147800000Y-75462500D01*
X141150000Y-78462500D02*
X141150000Y-78063478D01*
X141150000Y-78063478D02*
X139549022Y-76462500D01*
X139549022Y-76462500D02*
X132580000Y-76462500D01*
D20*
X130600000Y-80512500D02*
X123600000Y-80512500D01*
D21*
X155400000Y-86962500D02*
X155400000Y-97712500D01*
D19*
X132580000Y-76462500D02*
X131080000Y-77962500D01*
%TO.N,BTN*%
X135550000Y-90287480D02*
X131625020Y-90287480D01*
X131625020Y-90287480D02*
X131150000Y-90762500D01*
%TO.N,IMU_INT*%
X140650000Y-80962500D02*
X140650000Y-82212500D01*
X140650000Y-82212500D02*
X139650000Y-83212500D01*
%TD*%
%TA.AperFunction,Conductor*%
%TO.N,GND*%
G36*
X178413639Y-71241002D02*
G01*
X178460132Y-71294658D01*
X178470236Y-71364932D01*
X178440742Y-71429512D01*
X178424812Y-71444920D01*
X178417695Y-71450683D01*
X178417684Y-71450693D01*
X178415124Y-71452766D01*
X178140266Y-71727624D01*
X177895643Y-72029707D01*
X177683938Y-72355706D01*
X177507468Y-72702047D01*
X177368167Y-73064938D01*
X177267562Y-73440401D01*
X177267046Y-73443662D01*
X177227880Y-73690944D01*
X177206754Y-73824324D01*
X177186411Y-74212500D01*
X177206754Y-74600676D01*
X177207267Y-74603916D01*
X177207268Y-74603924D01*
X177267044Y-74981331D01*
X177267562Y-74984599D01*
X177368167Y-75360062D01*
X177507468Y-75722953D01*
X177508966Y-75725893D01*
X177681242Y-76064002D01*
X177683938Y-76069294D01*
X177895643Y-76395293D01*
X177927033Y-76434056D01*
X178132421Y-76687688D01*
X178140266Y-76697376D01*
X178415124Y-76972234D01*
X178717207Y-77216857D01*
X178719970Y-77218652D01*
X178719971Y-77218652D01*
X178873478Y-77318340D01*
X179043205Y-77428562D01*
X179046139Y-77430057D01*
X179046146Y-77430061D01*
X179360418Y-77590190D01*
X179389547Y-77605032D01*
X179610547Y-77689866D01*
X179689286Y-77720091D01*
X179752438Y-77744333D01*
X180127901Y-77844938D01*
X180331793Y-77877232D01*
X180508576Y-77905232D01*
X180508584Y-77905233D01*
X180511824Y-77905746D01*
X180900000Y-77926089D01*
X181288176Y-77905746D01*
X181291416Y-77905233D01*
X181291424Y-77905232D01*
X181468207Y-77877232D01*
X181672099Y-77844938D01*
X182047562Y-77744333D01*
X182110715Y-77720091D01*
X182189452Y-77689866D01*
X182410453Y-77605032D01*
X182439582Y-77590190D01*
X182753854Y-77430061D01*
X182753861Y-77430057D01*
X182756795Y-77428562D01*
X182926523Y-77318340D01*
X183080029Y-77218652D01*
X183080030Y-77218652D01*
X183082793Y-77216857D01*
X183384876Y-76972234D01*
X183659734Y-76697376D01*
X183661809Y-76694814D01*
X183661817Y-76694805D01*
X183667580Y-76687688D01*
X183725994Y-76647336D01*
X183796951Y-76644970D01*
X183857923Y-76681343D01*
X183889551Y-76744905D01*
X183891500Y-76766982D01*
X183891500Y-127558018D01*
X183871498Y-127626139D01*
X183817842Y-127672632D01*
X183747568Y-127682736D01*
X183682988Y-127653242D01*
X183667580Y-127637312D01*
X183661817Y-127630195D01*
X183661807Y-127630184D01*
X183659734Y-127627624D01*
X183384876Y-127352766D01*
X183082793Y-127108143D01*
X183080029Y-127106348D01*
X182759564Y-126898236D01*
X182759561Y-126898234D01*
X182756795Y-126896438D01*
X182753861Y-126894943D01*
X182753854Y-126894939D01*
X182413393Y-126721466D01*
X182410453Y-126719968D01*
X182153847Y-126621466D01*
X182050652Y-126581853D01*
X182050650Y-126581852D01*
X182047562Y-126580667D01*
X181672099Y-126480062D01*
X181468207Y-126447768D01*
X181291424Y-126419768D01*
X181291416Y-126419767D01*
X181288176Y-126419254D01*
X180900000Y-126398911D01*
X180511824Y-126419254D01*
X180508584Y-126419767D01*
X180508576Y-126419768D01*
X180331793Y-126447768D01*
X180127901Y-126480062D01*
X179752438Y-126580667D01*
X179749350Y-126581852D01*
X179749348Y-126581853D01*
X179646153Y-126621466D01*
X179389547Y-126719968D01*
X179386607Y-126721466D01*
X179046147Y-126894939D01*
X179046140Y-126894943D01*
X179043206Y-126896438D01*
X178717207Y-127108143D01*
X178415124Y-127352766D01*
X178140266Y-127627624D01*
X178138194Y-127630182D01*
X178138191Y-127630186D01*
X178017955Y-127778665D01*
X177895643Y-127929707D01*
X177893848Y-127932470D01*
X177893848Y-127932471D01*
X177711166Y-128213779D01*
X177683938Y-128255706D01*
X177682443Y-128258640D01*
X177682439Y-128258647D01*
X177636273Y-128349253D01*
X177507468Y-128602047D01*
X177368167Y-128964938D01*
X177267562Y-129340401D01*
X177267046Y-129343662D01*
X177222072Y-129627614D01*
X177206754Y-129724324D01*
X177186411Y-130112500D01*
X177206754Y-130500676D01*
X177267562Y-130884599D01*
X177368167Y-131260062D01*
X177507468Y-131622953D01*
X177508966Y-131625893D01*
X177631487Y-131866353D01*
X177683938Y-131969294D01*
X177895643Y-132295293D01*
X177897718Y-132297855D01*
X178057213Y-132494814D01*
X178140266Y-132597376D01*
X178415124Y-132872234D01*
X178417684Y-132874307D01*
X178417695Y-132874317D01*
X178424812Y-132880080D01*
X178465164Y-132938494D01*
X178467530Y-133009451D01*
X178431157Y-133070423D01*
X178367595Y-133102051D01*
X178345518Y-133104000D01*
X174400000Y-133104000D01*
X174400000Y-109712500D01*
X173900000Y-109212500D01*
X156900000Y-109212500D01*
X156400000Y-109712500D01*
X156400000Y-113160310D01*
X156379998Y-113228431D01*
X156363095Y-113249405D01*
X153686905Y-115925595D01*
X153624593Y-115959621D01*
X153597810Y-115962500D01*
X143900000Y-115962500D01*
X140400000Y-119462500D01*
X140400000Y-133104000D01*
X104630993Y-133104000D01*
X104562872Y-133083998D01*
X104516379Y-133030342D01*
X104506275Y-132960068D01*
X104535769Y-132895488D01*
X104551698Y-132880080D01*
X104682314Y-132774309D01*
X104682318Y-132774306D01*
X104684876Y-132772234D01*
X104959734Y-132497376D01*
X105204357Y-132195293D01*
X105206152Y-132192529D01*
X105414264Y-131872063D01*
X105414266Y-131872060D01*
X105416062Y-131869294D01*
X105592532Y-131522953D01*
X105731833Y-131160062D01*
X105832438Y-130784599D01*
X105876893Y-130503924D01*
X105892732Y-130403924D01*
X105892733Y-130403916D01*
X105893246Y-130400676D01*
X105913589Y-130012500D01*
X105893246Y-129624324D01*
X105832438Y-129240401D01*
X105731833Y-128864938D01*
X105592532Y-128502047D01*
X105591034Y-128499107D01*
X105417561Y-128158647D01*
X105417557Y-128158640D01*
X105416062Y-128155706D01*
X105380424Y-128100827D01*
X105206152Y-127832471D01*
X105206152Y-127832470D01*
X105204357Y-127829707D01*
X105077160Y-127672632D01*
X104961809Y-127530186D01*
X104961806Y-127530182D01*
X104959734Y-127527624D01*
X104684876Y-127252766D01*
X104678207Y-127247365D01*
X104506282Y-127108143D01*
X104382793Y-127008143D01*
X104380029Y-127006348D01*
X104059564Y-126798236D01*
X104059561Y-126798234D01*
X104056795Y-126796438D01*
X104053861Y-126794943D01*
X104053854Y-126794939D01*
X103713393Y-126621466D01*
X103710453Y-126619968D01*
X103347562Y-126480667D01*
X102972099Y-126380062D01*
X102740248Y-126343340D01*
X102591424Y-126319768D01*
X102591416Y-126319767D01*
X102588176Y-126319254D01*
X102200000Y-126298911D01*
X101811824Y-126319254D01*
X101808584Y-126319767D01*
X101808576Y-126319768D01*
X101659752Y-126343340D01*
X101427901Y-126380062D01*
X101052438Y-126480667D01*
X100689547Y-126619968D01*
X100686607Y-126621466D01*
X100346147Y-126794939D01*
X100346140Y-126794943D01*
X100343206Y-126796438D01*
X100340440Y-126798234D01*
X100340437Y-126798236D01*
X100186450Y-126898236D01*
X100017207Y-127008143D01*
X99893718Y-127108143D01*
X99721794Y-127247365D01*
X99715124Y-127252766D01*
X99440266Y-127527624D01*
X99438193Y-127530184D01*
X99438183Y-127530195D01*
X99382420Y-127599057D01*
X99324006Y-127639409D01*
X99253049Y-127641775D01*
X99192077Y-127605402D01*
X99160449Y-127541840D01*
X99158500Y-127519763D01*
X99158500Y-124414195D01*
X118187251Y-124414195D01*
X118200110Y-124637215D01*
X118201247Y-124642261D01*
X118201248Y-124642267D01*
X118214597Y-124701500D01*
X118249222Y-124855139D01*
X118333266Y-125062116D01*
X118383863Y-125144683D01*
X118447291Y-125248188D01*
X118449987Y-125252588D01*
X118596250Y-125421438D01*
X118600230Y-125424742D01*
X118604981Y-125428687D01*
X118644616Y-125487590D01*
X118646113Y-125558571D01*
X118608997Y-125619093D01*
X118568725Y-125643612D01*
X118528638Y-125658640D01*
X118453295Y-125686885D01*
X118336739Y-125774239D01*
X118249385Y-125890795D01*
X118198255Y-126027184D01*
X118191500Y-126089366D01*
X118191500Y-127885634D01*
X118198255Y-127947816D01*
X118249385Y-128084205D01*
X118336739Y-128200761D01*
X118453295Y-128288115D01*
X118589684Y-128339245D01*
X118651866Y-128346000D01*
X120448134Y-128346000D01*
X120510316Y-128339245D01*
X120646705Y-128288115D01*
X120763261Y-128200761D01*
X120850615Y-128084205D01*
X120872799Y-128025029D01*
X120894598Y-127966882D01*
X120937240Y-127910118D01*
X121003802Y-127885418D01*
X121073150Y-127900626D01*
X121107817Y-127928614D01*
X121136250Y-127961438D01*
X121308126Y-128104132D01*
X121501000Y-128216838D01*
X121709692Y-128296530D01*
X121714760Y-128297561D01*
X121714763Y-128297562D01*
X121809862Y-128316910D01*
X121928597Y-128341067D01*
X121933772Y-128341257D01*
X121933774Y-128341257D01*
X122146673Y-128349064D01*
X122146677Y-128349064D01*
X122151837Y-128349253D01*
X122156957Y-128348597D01*
X122156959Y-128348597D01*
X122368288Y-128321525D01*
X122368289Y-128321525D01*
X122373416Y-128320868D01*
X122378366Y-128319383D01*
X122582429Y-128258161D01*
X122582434Y-128258159D01*
X122587384Y-128256674D01*
X122787994Y-128158396D01*
X122969860Y-128028673D01*
X123128096Y-127870989D01*
X123258453Y-127689577D01*
X123259776Y-127690528D01*
X123306645Y-127647357D01*
X123376580Y-127635125D01*
X123442026Y-127662644D01*
X123469875Y-127694494D01*
X123529987Y-127792588D01*
X123676250Y-127961438D01*
X123848126Y-128104132D01*
X124041000Y-128216838D01*
X124249692Y-128296530D01*
X124254760Y-128297561D01*
X124254763Y-128297562D01*
X124349862Y-128316910D01*
X124468597Y-128341067D01*
X124473772Y-128341257D01*
X124473774Y-128341257D01*
X124686673Y-128349064D01*
X124686677Y-128349064D01*
X124691837Y-128349253D01*
X124696957Y-128348597D01*
X124696959Y-128348597D01*
X124908288Y-128321525D01*
X124908289Y-128321525D01*
X124913416Y-128320868D01*
X124918366Y-128319383D01*
X125122429Y-128258161D01*
X125122434Y-128258159D01*
X125127384Y-128256674D01*
X125327994Y-128158396D01*
X125509860Y-128028673D01*
X125668096Y-127870989D01*
X125798453Y-127689577D01*
X125799776Y-127690528D01*
X125846645Y-127647357D01*
X125916580Y-127635125D01*
X125982026Y-127662644D01*
X126009875Y-127694494D01*
X126069987Y-127792588D01*
X126216250Y-127961438D01*
X126388126Y-128104132D01*
X126581000Y-128216838D01*
X126789692Y-128296530D01*
X126794760Y-128297561D01*
X126794763Y-128297562D01*
X126889862Y-128316910D01*
X127008597Y-128341067D01*
X127013772Y-128341257D01*
X127013774Y-128341257D01*
X127226673Y-128349064D01*
X127226677Y-128349064D01*
X127231837Y-128349253D01*
X127236957Y-128348597D01*
X127236959Y-128348597D01*
X127448288Y-128321525D01*
X127448289Y-128321525D01*
X127453416Y-128320868D01*
X127458366Y-128319383D01*
X127662429Y-128258161D01*
X127662434Y-128258159D01*
X127667384Y-128256674D01*
X127867994Y-128158396D01*
X128049860Y-128028673D01*
X128208096Y-127870989D01*
X128338453Y-127689577D01*
X128339776Y-127690528D01*
X128386645Y-127647357D01*
X128456580Y-127635125D01*
X128522026Y-127662644D01*
X128549875Y-127694494D01*
X128609987Y-127792588D01*
X128756250Y-127961438D01*
X128928126Y-128104132D01*
X129121000Y-128216838D01*
X129329692Y-128296530D01*
X129334760Y-128297561D01*
X129334763Y-128297562D01*
X129429862Y-128316910D01*
X129548597Y-128341067D01*
X129553772Y-128341257D01*
X129553774Y-128341257D01*
X129766673Y-128349064D01*
X129766677Y-128349064D01*
X129771837Y-128349253D01*
X129776957Y-128348597D01*
X129776959Y-128348597D01*
X129988288Y-128321525D01*
X129988289Y-128321525D01*
X129993416Y-128320868D01*
X129998366Y-128319383D01*
X130202429Y-128258161D01*
X130202434Y-128258159D01*
X130207384Y-128256674D01*
X130407994Y-128158396D01*
X130589860Y-128028673D01*
X130748096Y-127870989D01*
X130878453Y-127689577D01*
X130879640Y-127690430D01*
X130926960Y-127646862D01*
X130996897Y-127634645D01*
X131062338Y-127662178D01*
X131090166Y-127694011D01*
X131147694Y-127787888D01*
X131153777Y-127796199D01*
X131293213Y-127957167D01*
X131300580Y-127964383D01*
X131464434Y-128100416D01*
X131472881Y-128106331D01*
X131656756Y-128213779D01*
X131666042Y-128218229D01*
X131865001Y-128294203D01*
X131874899Y-128297079D01*
X131978250Y-128318106D01*
X131992299Y-128316910D01*
X131996000Y-128306565D01*
X131996000Y-128306017D01*
X132504000Y-128306017D01*
X132508064Y-128319859D01*
X132521478Y-128321893D01*
X132528184Y-128321034D01*
X132538262Y-128318892D01*
X132742255Y-128257691D01*
X132751842Y-128253933D01*
X132943095Y-128160239D01*
X132951945Y-128154964D01*
X133125328Y-128031292D01*
X133133200Y-128024639D01*
X133284052Y-127874312D01*
X133290730Y-127866465D01*
X133415003Y-127693520D01*
X133420313Y-127684683D01*
X133514670Y-127493767D01*
X133518469Y-127484172D01*
X133580377Y-127280410D01*
X133582555Y-127270337D01*
X133583986Y-127259462D01*
X133581775Y-127245278D01*
X133568617Y-127241500D01*
X132522115Y-127241500D01*
X132506876Y-127245975D01*
X132505671Y-127247365D01*
X132504000Y-127255048D01*
X132504000Y-128306017D01*
X131996000Y-128306017D01*
X131996000Y-126715385D01*
X132504000Y-126715385D01*
X132508475Y-126730624D01*
X132509865Y-126731829D01*
X132517548Y-126733500D01*
X133568344Y-126733500D01*
X133581875Y-126729527D01*
X133583180Y-126720447D01*
X133541214Y-126553375D01*
X133537894Y-126543624D01*
X133452972Y-126348314D01*
X133448105Y-126339239D01*
X133332426Y-126160426D01*
X133326136Y-126152257D01*
X133182806Y-125994740D01*
X133175273Y-125987715D01*
X133008139Y-125855722D01*
X132999552Y-125850017D01*
X132962116Y-125829351D01*
X132912146Y-125778919D01*
X132897374Y-125709476D01*
X132922490Y-125643071D01*
X132949842Y-125616464D01*
X133125327Y-125491292D01*
X133133200Y-125484639D01*
X133284052Y-125334312D01*
X133290730Y-125326465D01*
X133415003Y-125153520D01*
X133420313Y-125144683D01*
X133514670Y-124953767D01*
X133518469Y-124944172D01*
X133580377Y-124740410D01*
X133582555Y-124730337D01*
X133583986Y-124719462D01*
X133581775Y-124705278D01*
X133568617Y-124701500D01*
X132522115Y-124701500D01*
X132506876Y-124705975D01*
X132505671Y-124707365D01*
X132504000Y-124715048D01*
X132504000Y-126715385D01*
X131996000Y-126715385D01*
X131996000Y-124175385D01*
X132504000Y-124175385D01*
X132508475Y-124190624D01*
X132509865Y-124191829D01*
X132517548Y-124193500D01*
X133568344Y-124193500D01*
X133581875Y-124189527D01*
X133583180Y-124180447D01*
X133541214Y-124013375D01*
X133537894Y-124003624D01*
X133452972Y-123808314D01*
X133448105Y-123799239D01*
X133332426Y-123620426D01*
X133326136Y-123612257D01*
X133182806Y-123454740D01*
X133175273Y-123447715D01*
X133008139Y-123315722D01*
X132999552Y-123310017D01*
X132813117Y-123207099D01*
X132803705Y-123202869D01*
X132602959Y-123131780D01*
X132592988Y-123129146D01*
X132521837Y-123116472D01*
X132508540Y-123117932D01*
X132504000Y-123132489D01*
X132504000Y-124175385D01*
X131996000Y-124175385D01*
X131996000Y-123130602D01*
X131992082Y-123117258D01*
X131977806Y-123115271D01*
X131939324Y-123121160D01*
X131929288Y-123123551D01*
X131726868Y-123189712D01*
X131717359Y-123193709D01*
X131528463Y-123292042D01*
X131519738Y-123297536D01*
X131349433Y-123425405D01*
X131341726Y-123432248D01*
X131194590Y-123586217D01*
X131188109Y-123594222D01*
X131083498Y-123747574D01*
X131028587Y-123792576D01*
X130958062Y-123800747D01*
X130894315Y-123769493D01*
X130873618Y-123745009D01*
X130792822Y-123620117D01*
X130792820Y-123620114D01*
X130790014Y-123615777D01*
X130639670Y-123450551D01*
X130635619Y-123447352D01*
X130635615Y-123447348D01*
X130468414Y-123315300D01*
X130468410Y-123315298D01*
X130464359Y-123312098D01*
X130428028Y-123292042D01*
X130412136Y-123283269D01*
X130268789Y-123204138D01*
X130263920Y-123202414D01*
X130263916Y-123202412D01*
X130063087Y-123131295D01*
X130063083Y-123131294D01*
X130058212Y-123129569D01*
X130053119Y-123128662D01*
X130053116Y-123128661D01*
X129843373Y-123091300D01*
X129843367Y-123091299D01*
X129838284Y-123090394D01*
X129764452Y-123089492D01*
X129620081Y-123087728D01*
X129620079Y-123087728D01*
X129614911Y-123087665D01*
X129394091Y-123121455D01*
X129181756Y-123190857D01*
X128983607Y-123294007D01*
X128979474Y-123297110D01*
X128979471Y-123297112D01*
X128955247Y-123315300D01*
X128804965Y-123428135D01*
X128650629Y-123589638D01*
X128543201Y-123747121D01*
X128488293Y-123792121D01*
X128417768Y-123800292D01*
X128354021Y-123769038D01*
X128333324Y-123744554D01*
X128252822Y-123620117D01*
X128252820Y-123620114D01*
X128250014Y-123615777D01*
X128099670Y-123450551D01*
X128095619Y-123447352D01*
X128095615Y-123447348D01*
X127928414Y-123315300D01*
X127928410Y-123315298D01*
X127924359Y-123312098D01*
X127888028Y-123292042D01*
X127872136Y-123283269D01*
X127728789Y-123204138D01*
X127723920Y-123202414D01*
X127723916Y-123202412D01*
X127523087Y-123131295D01*
X127523083Y-123131294D01*
X127518212Y-123129569D01*
X127513119Y-123128662D01*
X127513116Y-123128661D01*
X127303373Y-123091300D01*
X127303367Y-123091299D01*
X127298284Y-123090394D01*
X127224452Y-123089492D01*
X127080081Y-123087728D01*
X127080079Y-123087728D01*
X127074911Y-123087665D01*
X126854091Y-123121455D01*
X126641756Y-123190857D01*
X126443607Y-123294007D01*
X126439474Y-123297110D01*
X126439471Y-123297112D01*
X126415247Y-123315300D01*
X126264965Y-123428135D01*
X126110629Y-123589638D01*
X126003201Y-123747121D01*
X125948293Y-123792121D01*
X125877768Y-123800292D01*
X125814021Y-123769038D01*
X125793324Y-123744554D01*
X125712822Y-123620117D01*
X125712820Y-123620114D01*
X125710014Y-123615777D01*
X125559670Y-123450551D01*
X125555619Y-123447352D01*
X125555615Y-123447348D01*
X125388414Y-123315300D01*
X125388410Y-123315298D01*
X125384359Y-123312098D01*
X125348028Y-123292042D01*
X125332136Y-123283269D01*
X125188789Y-123204138D01*
X125183920Y-123202414D01*
X125183916Y-123202412D01*
X124983087Y-123131295D01*
X124983083Y-123131294D01*
X124978212Y-123129569D01*
X124973119Y-123128662D01*
X124973116Y-123128661D01*
X124763373Y-123091300D01*
X124763367Y-123091299D01*
X124758284Y-123090394D01*
X124684452Y-123089492D01*
X124540081Y-123087728D01*
X124540079Y-123087728D01*
X124534911Y-123087665D01*
X124314091Y-123121455D01*
X124101756Y-123190857D01*
X123903607Y-123294007D01*
X123899474Y-123297110D01*
X123899471Y-123297112D01*
X123875247Y-123315300D01*
X123724965Y-123428135D01*
X123570629Y-123589638D01*
X123463201Y-123747121D01*
X123408293Y-123792121D01*
X123337768Y-123800292D01*
X123274021Y-123769038D01*
X123253324Y-123744554D01*
X123172822Y-123620117D01*
X123172820Y-123620114D01*
X123170014Y-123615777D01*
X123019670Y-123450551D01*
X123015619Y-123447352D01*
X123015615Y-123447348D01*
X122848414Y-123315300D01*
X122848410Y-123315298D01*
X122844359Y-123312098D01*
X122808028Y-123292042D01*
X122792136Y-123283269D01*
X122648789Y-123204138D01*
X122643920Y-123202414D01*
X122643916Y-123202412D01*
X122443087Y-123131295D01*
X122443083Y-123131294D01*
X122438212Y-123129569D01*
X122433119Y-123128662D01*
X122433116Y-123128661D01*
X122223373Y-123091300D01*
X122223367Y-123091299D01*
X122218284Y-123090394D01*
X122144452Y-123089492D01*
X122000081Y-123087728D01*
X122000079Y-123087728D01*
X121994911Y-123087665D01*
X121774091Y-123121455D01*
X121561756Y-123190857D01*
X121363607Y-123294007D01*
X121359474Y-123297110D01*
X121359471Y-123297112D01*
X121335247Y-123315300D01*
X121184965Y-123428135D01*
X121030629Y-123589638D01*
X120923201Y-123747121D01*
X120868293Y-123792121D01*
X120797768Y-123800292D01*
X120734021Y-123769038D01*
X120713324Y-123744554D01*
X120632822Y-123620117D01*
X120632820Y-123620114D01*
X120630014Y-123615777D01*
X120479670Y-123450551D01*
X120475619Y-123447352D01*
X120475615Y-123447348D01*
X120308414Y-123315300D01*
X120308410Y-123315298D01*
X120304359Y-123312098D01*
X120268028Y-123292042D01*
X120252136Y-123283269D01*
X120108789Y-123204138D01*
X120103920Y-123202414D01*
X120103916Y-123202412D01*
X119903087Y-123131295D01*
X119903083Y-123131294D01*
X119898212Y-123129569D01*
X119893119Y-123128662D01*
X119893116Y-123128661D01*
X119683373Y-123091300D01*
X119683367Y-123091299D01*
X119678284Y-123090394D01*
X119604452Y-123089492D01*
X119460081Y-123087728D01*
X119460079Y-123087728D01*
X119454911Y-123087665D01*
X119234091Y-123121455D01*
X119021756Y-123190857D01*
X118823607Y-123294007D01*
X118819474Y-123297110D01*
X118819471Y-123297112D01*
X118795247Y-123315300D01*
X118644965Y-123428135D01*
X118490629Y-123589638D01*
X118487720Y-123593903D01*
X118487714Y-123593911D01*
X118425442Y-123685198D01*
X118364743Y-123774180D01*
X118270688Y-123976805D01*
X118210989Y-124192070D01*
X118187251Y-124414195D01*
X99158500Y-124414195D01*
X99158500Y-118264195D01*
X109779751Y-118264195D01*
X109780048Y-118269348D01*
X109780048Y-118269351D01*
X109785511Y-118364090D01*
X109792610Y-118487215D01*
X109793747Y-118492261D01*
X109793748Y-118492267D01*
X109813619Y-118580439D01*
X109841722Y-118705139D01*
X109925766Y-118912116D01*
X110042487Y-119102588D01*
X110188750Y-119271438D01*
X110360626Y-119414132D01*
X110553500Y-119526838D01*
X110762192Y-119606530D01*
X110767260Y-119607561D01*
X110767263Y-119607562D01*
X110874517Y-119629383D01*
X110981097Y-119651067D01*
X110986272Y-119651257D01*
X110986274Y-119651257D01*
X111199173Y-119659064D01*
X111199177Y-119659064D01*
X111204337Y-119659253D01*
X111209457Y-119658597D01*
X111209459Y-119658597D01*
X111420788Y-119631525D01*
X111420789Y-119631525D01*
X111425916Y-119630868D01*
X111462071Y-119620021D01*
X111634929Y-119568161D01*
X111634934Y-119568159D01*
X111639884Y-119566674D01*
X111840494Y-119468396D01*
X112022360Y-119338673D01*
X112180596Y-119180989D01*
X112240094Y-119098189D01*
X112307935Y-119003777D01*
X112310953Y-118999577D01*
X112409930Y-118799311D01*
X112474870Y-118585569D01*
X112504029Y-118364090D01*
X112505656Y-118297500D01*
X112487352Y-118074861D01*
X112432931Y-117858202D01*
X112343854Y-117653340D01*
X112222514Y-117465777D01*
X112072170Y-117300551D01*
X112068119Y-117297352D01*
X112068115Y-117297348D01*
X111900914Y-117165300D01*
X111900910Y-117165298D01*
X111896859Y-117162098D01*
X111855553Y-117139296D01*
X111805584Y-117088864D01*
X111790812Y-117019421D01*
X111815928Y-116953016D01*
X111843280Y-116926409D01*
X111887103Y-116895150D01*
X112022360Y-116798673D01*
X112180596Y-116640989D01*
X112240094Y-116558189D01*
X112307935Y-116463777D01*
X112310953Y-116459577D01*
X112409930Y-116259311D01*
X112474870Y-116045569D01*
X112504029Y-115824090D01*
X112505656Y-115757500D01*
X112487352Y-115534861D01*
X112432931Y-115318202D01*
X112343854Y-115113340D01*
X112222514Y-114925777D01*
X112072170Y-114760551D01*
X112068119Y-114757352D01*
X112068115Y-114757348D01*
X111900914Y-114625300D01*
X111900910Y-114625298D01*
X111896859Y-114622098D01*
X111855553Y-114599296D01*
X111805584Y-114548864D01*
X111790812Y-114479421D01*
X111815928Y-114413016D01*
X111843280Y-114386409D01*
X111887103Y-114355150D01*
X112022360Y-114258673D01*
X112180596Y-114100989D01*
X112240094Y-114018189D01*
X112307935Y-113923777D01*
X112310953Y-113919577D01*
X112409930Y-113719311D01*
X112474870Y-113505569D01*
X112504029Y-113284090D01*
X112504111Y-113280740D01*
X112505574Y-113220865D01*
X112505574Y-113220861D01*
X112505656Y-113217500D01*
X112487352Y-112994861D01*
X112432931Y-112778202D01*
X112404363Y-112712500D01*
X128400000Y-112712500D01*
X128900000Y-113212500D01*
X140900000Y-113212500D01*
X141400000Y-112712500D01*
X141400000Y-97762269D01*
X154391500Y-97762269D01*
X154391800Y-97765325D01*
X154391800Y-97765332D01*
X154392530Y-97772773D01*
X154405920Y-97909333D01*
X154463084Y-98098669D01*
X154555934Y-98273296D01*
X154626291Y-98359562D01*
X154677040Y-98421787D01*
X154677043Y-98421790D01*
X154680935Y-98426562D01*
X154685682Y-98430489D01*
X154685684Y-98430491D01*
X154828575Y-98548701D01*
X154828579Y-98548703D01*
X154833325Y-98552630D01*
X155007299Y-98646698D01*
X155196232Y-98705182D01*
X155202357Y-98705826D01*
X155202358Y-98705826D01*
X155386796Y-98725211D01*
X155386798Y-98725211D01*
X155392925Y-98725855D01*
X155475424Y-98718347D01*
X155583749Y-98708489D01*
X155583752Y-98708488D01*
X155589888Y-98707930D01*
X155595794Y-98706192D01*
X155595798Y-98706191D01*
X155700924Y-98675251D01*
X155779619Y-98652090D01*
X155785077Y-98649237D01*
X155785081Y-98649235D01*
X155897471Y-98590478D01*
X155954890Y-98560460D01*
X156109025Y-98436532D01*
X156236154Y-98285026D01*
X156239121Y-98279628D01*
X156239125Y-98279623D01*
X156328467Y-98117108D01*
X156331433Y-98111713D01*
X156333846Y-98104108D01*
X156389373Y-97929064D01*
X156389373Y-97929063D01*
X156391235Y-97923194D01*
X156408500Y-97769273D01*
X156408500Y-86912731D01*
X156407814Y-86905727D01*
X156394681Y-86771801D01*
X156394080Y-86765667D01*
X156336916Y-86576331D01*
X156244066Y-86401704D01*
X156173709Y-86315438D01*
X156122960Y-86253213D01*
X156122957Y-86253210D01*
X156119065Y-86248438D01*
X156112724Y-86243192D01*
X155971425Y-86126299D01*
X155971421Y-86126297D01*
X155966675Y-86122370D01*
X155792701Y-86028302D01*
X155603768Y-85969818D01*
X155597643Y-85969174D01*
X155597642Y-85969174D01*
X155413204Y-85949789D01*
X155413202Y-85949789D01*
X155407075Y-85949145D01*
X155324576Y-85956653D01*
X155216251Y-85966511D01*
X155216248Y-85966512D01*
X155210112Y-85967070D01*
X155204206Y-85968808D01*
X155204202Y-85968809D01*
X155116826Y-85994525D01*
X155020381Y-86022910D01*
X155014923Y-86025763D01*
X155014919Y-86025765D01*
X154924147Y-86073220D01*
X154845110Y-86114540D01*
X154690975Y-86238468D01*
X154563846Y-86389974D01*
X154560879Y-86395372D01*
X154560875Y-86395377D01*
X154528524Y-86454225D01*
X154468567Y-86563287D01*
X154466706Y-86569154D01*
X154466705Y-86569156D01*
X154440501Y-86651762D01*
X154408765Y-86751806D01*
X154391500Y-86905727D01*
X154391500Y-97762269D01*
X141400000Y-97762269D01*
X141400000Y-91712500D01*
X140900000Y-91212500D01*
X136210239Y-91212500D01*
X136142118Y-91192498D01*
X136095625Y-91138842D01*
X136085521Y-91068568D01*
X136115015Y-91003988D01*
X136136178Y-90984564D01*
X136155909Y-90970229D01*
X136155911Y-90970227D01*
X136161253Y-90966346D01*
X136184091Y-90940982D01*
X136284621Y-90829332D01*
X136284622Y-90829331D01*
X136289040Y-90824424D01*
X136384527Y-90659036D01*
X136443542Y-90477408D01*
X136463504Y-90287480D01*
X136456133Y-90217348D01*
X136444232Y-90104115D01*
X136444232Y-90104113D01*
X136443542Y-90097552D01*
X136384527Y-89915924D01*
X136371700Y-89893706D01*
X136320065Y-89804273D01*
X136289040Y-89750536D01*
X136272882Y-89732590D01*
X136165675Y-89613525D01*
X136165674Y-89613524D01*
X136161253Y-89608614D01*
X136006752Y-89496362D01*
X136000724Y-89493678D01*
X136000722Y-89493677D01*
X135838319Y-89421371D01*
X135838318Y-89421371D01*
X135832288Y-89418686D01*
X135738888Y-89398833D01*
X135651944Y-89380352D01*
X135651939Y-89380352D01*
X135645487Y-89378980D01*
X135454513Y-89378980D01*
X135448061Y-89380352D01*
X135448056Y-89380352D01*
X135361112Y-89398833D01*
X135267712Y-89418686D01*
X135261682Y-89421371D01*
X135261681Y-89421371D01*
X135099278Y-89493677D01*
X135099276Y-89493678D01*
X135093248Y-89496362D01*
X135087907Y-89500242D01*
X135087906Y-89500243D01*
X135004297Y-89560989D01*
X134938747Y-89608614D01*
X134934332Y-89613517D01*
X134929420Y-89617940D01*
X134928295Y-89616691D01*
X134874986Y-89649531D01*
X134841800Y-89653980D01*
X131703788Y-89653980D01*
X131692605Y-89653453D01*
X131685112Y-89651778D01*
X131677186Y-89652027D01*
X131677185Y-89652027D01*
X131617022Y-89653918D01*
X131613064Y-89653980D01*
X131585164Y-89653980D01*
X131581174Y-89654484D01*
X131569340Y-89655416D01*
X131525131Y-89656806D01*
X131517517Y-89659018D01*
X131517512Y-89659019D01*
X131505679Y-89662457D01*
X131486316Y-89666468D01*
X131466223Y-89669006D01*
X131458856Y-89671923D01*
X131458851Y-89671924D01*
X131425112Y-89685282D01*
X131413885Y-89689126D01*
X131371427Y-89701462D01*
X131364601Y-89705499D01*
X131353992Y-89711773D01*
X131336244Y-89720468D01*
X131317403Y-89727928D01*
X131310987Y-89732590D01*
X131310986Y-89732590D01*
X131281633Y-89753916D01*
X131271713Y-89760432D01*
X131240485Y-89778900D01*
X131240482Y-89778902D01*
X131233658Y-89782938D01*
X131219337Y-89797259D01*
X131204304Y-89810099D01*
X131187913Y-89822008D01*
X131187774Y-89821817D01*
X131128316Y-89851900D01*
X131105410Y-89854000D01*
X131054513Y-89854000D01*
X131048061Y-89855372D01*
X131048056Y-89855372D01*
X130965050Y-89873016D01*
X130867712Y-89893706D01*
X130861682Y-89896391D01*
X130861681Y-89896391D01*
X130699278Y-89968697D01*
X130699276Y-89968698D01*
X130693248Y-89971382D01*
X130538747Y-90083634D01*
X130534326Y-90088544D01*
X130534325Y-90088545D01*
X130415467Y-90220551D01*
X130410960Y-90225556D01*
X130375208Y-90287480D01*
X130320662Y-90381957D01*
X130315473Y-90390944D01*
X130256458Y-90572572D01*
X130236496Y-90762500D01*
X130256458Y-90952428D01*
X130287370Y-91047565D01*
X130289398Y-91118531D01*
X130252735Y-91179329D01*
X130189023Y-91210654D01*
X130167537Y-91212500D01*
X128900000Y-91212500D01*
X128400000Y-91712500D01*
X128400000Y-112712500D01*
X112404363Y-112712500D01*
X112343854Y-112573340D01*
X112222514Y-112385777D01*
X112072170Y-112220551D01*
X112068119Y-112217352D01*
X112068115Y-112217348D01*
X111900914Y-112085300D01*
X111900910Y-112085298D01*
X111896859Y-112082098D01*
X111855553Y-112059296D01*
X111805584Y-112008864D01*
X111790812Y-111939421D01*
X111815928Y-111873016D01*
X111843280Y-111846409D01*
X111887103Y-111815150D01*
X112022360Y-111718673D01*
X112180596Y-111560989D01*
X112240094Y-111478189D01*
X112307935Y-111383777D01*
X112310953Y-111379577D01*
X112405014Y-111189259D01*
X112407636Y-111183953D01*
X112407637Y-111183951D01*
X112409930Y-111179311D01*
X112442400Y-111072440D01*
X112473365Y-110970523D01*
X112473365Y-110970521D01*
X112474870Y-110965569D01*
X112504029Y-110744090D01*
X112505656Y-110677500D01*
X112487352Y-110454861D01*
X112432931Y-110238202D01*
X112343854Y-110033340D01*
X112298025Y-109962500D01*
X117636835Y-109962500D01*
X117655465Y-110199211D01*
X117656619Y-110204018D01*
X117656620Y-110204024D01*
X117682662Y-110312496D01*
X117710895Y-110430094D01*
X117712788Y-110434665D01*
X117712789Y-110434667D01*
X117797452Y-110639062D01*
X117801760Y-110649463D01*
X117804346Y-110653683D01*
X117923241Y-110847702D01*
X117923245Y-110847708D01*
X117925824Y-110851916D01*
X118080031Y-111032469D01*
X118260584Y-111186676D01*
X118264792Y-111189255D01*
X118264798Y-111189259D01*
X118439832Y-111296520D01*
X118463037Y-111310740D01*
X118467607Y-111312633D01*
X118467611Y-111312635D01*
X118629225Y-111379577D01*
X118682406Y-111401605D01*
X118762609Y-111420860D01*
X118908476Y-111455880D01*
X118908482Y-111455881D01*
X118913289Y-111457035D01*
X119150000Y-111475665D01*
X119386711Y-111457035D01*
X119391518Y-111455881D01*
X119391524Y-111455880D01*
X119537391Y-111420860D01*
X119617594Y-111401605D01*
X119670775Y-111379577D01*
X119832389Y-111312635D01*
X119832393Y-111312633D01*
X119836963Y-111310740D01*
X119860168Y-111296520D01*
X120035202Y-111189259D01*
X120035208Y-111189255D01*
X120039416Y-111186676D01*
X120219969Y-111032469D01*
X120374176Y-110851916D01*
X120376755Y-110847708D01*
X120376759Y-110847702D01*
X120495654Y-110653683D01*
X120498240Y-110649463D01*
X120502549Y-110639062D01*
X120587211Y-110434667D01*
X120587212Y-110434665D01*
X120589105Y-110430094D01*
X120617338Y-110312496D01*
X120643380Y-110204024D01*
X120643381Y-110204018D01*
X120644535Y-110199211D01*
X120663165Y-109962500D01*
X124136835Y-109962500D01*
X124155465Y-110199211D01*
X124156619Y-110204018D01*
X124156620Y-110204024D01*
X124182662Y-110312496D01*
X124210895Y-110430094D01*
X124212788Y-110434665D01*
X124212789Y-110434667D01*
X124297452Y-110639062D01*
X124301760Y-110649463D01*
X124304346Y-110653683D01*
X124423241Y-110847702D01*
X124423245Y-110847708D01*
X124425824Y-110851916D01*
X124580031Y-111032469D01*
X124760584Y-111186676D01*
X124764792Y-111189255D01*
X124764798Y-111189259D01*
X124939832Y-111296520D01*
X124963037Y-111310740D01*
X124967607Y-111312633D01*
X124967611Y-111312635D01*
X125129225Y-111379577D01*
X125182406Y-111401605D01*
X125262609Y-111420860D01*
X125408476Y-111455880D01*
X125408482Y-111455881D01*
X125413289Y-111457035D01*
X125650000Y-111475665D01*
X125886711Y-111457035D01*
X125891518Y-111455881D01*
X125891524Y-111455880D01*
X126037391Y-111420860D01*
X126117594Y-111401605D01*
X126170775Y-111379577D01*
X126332389Y-111312635D01*
X126332393Y-111312633D01*
X126336963Y-111310740D01*
X126360168Y-111296520D01*
X126535202Y-111189259D01*
X126535208Y-111189255D01*
X126539416Y-111186676D01*
X126719969Y-111032469D01*
X126874176Y-110851916D01*
X126876755Y-110847708D01*
X126876759Y-110847702D01*
X126995654Y-110653683D01*
X126998240Y-110649463D01*
X127002549Y-110639062D01*
X127087211Y-110434667D01*
X127087212Y-110434665D01*
X127089105Y-110430094D01*
X127117338Y-110312496D01*
X127143380Y-110204024D01*
X127143381Y-110204018D01*
X127144535Y-110199211D01*
X127163165Y-109962500D01*
X127144535Y-109725789D01*
X127143098Y-109719800D01*
X127096158Y-109524284D01*
X127089105Y-109494906D01*
X127026277Y-109343224D01*
X127000135Y-109280111D01*
X127000133Y-109280107D01*
X126998240Y-109275537D01*
X126959611Y-109212500D01*
X126876759Y-109077298D01*
X126876755Y-109077292D01*
X126874176Y-109073084D01*
X126719969Y-108892531D01*
X126539416Y-108738324D01*
X126535208Y-108735745D01*
X126535202Y-108735741D01*
X126341183Y-108616846D01*
X126336963Y-108614260D01*
X126332393Y-108612367D01*
X126332389Y-108612365D01*
X126122167Y-108525289D01*
X126122165Y-108525288D01*
X126117594Y-108523395D01*
X126037391Y-108504140D01*
X125891524Y-108469120D01*
X125891518Y-108469119D01*
X125886711Y-108467965D01*
X125650000Y-108449335D01*
X125413289Y-108467965D01*
X125408482Y-108469119D01*
X125408476Y-108469120D01*
X125262609Y-108504140D01*
X125182406Y-108523395D01*
X125177835Y-108525288D01*
X125177833Y-108525289D01*
X124967611Y-108612365D01*
X124967607Y-108612367D01*
X124963037Y-108614260D01*
X124958817Y-108616846D01*
X124764798Y-108735741D01*
X124764792Y-108735745D01*
X124760584Y-108738324D01*
X124580031Y-108892531D01*
X124425824Y-109073084D01*
X124423245Y-109077292D01*
X124423241Y-109077298D01*
X124340389Y-109212500D01*
X124301760Y-109275537D01*
X124299867Y-109280107D01*
X124299865Y-109280111D01*
X124273723Y-109343224D01*
X124210895Y-109494906D01*
X124203842Y-109524284D01*
X124156903Y-109719800D01*
X124155465Y-109725789D01*
X124136835Y-109962500D01*
X120663165Y-109962500D01*
X120644535Y-109725789D01*
X120643098Y-109719800D01*
X120596158Y-109524284D01*
X120589105Y-109494906D01*
X120526277Y-109343224D01*
X120500135Y-109280111D01*
X120500133Y-109280107D01*
X120498240Y-109275537D01*
X120459611Y-109212500D01*
X120376759Y-109077298D01*
X120376755Y-109077292D01*
X120374176Y-109073084D01*
X120219969Y-108892531D01*
X120039416Y-108738324D01*
X120035208Y-108735745D01*
X120035202Y-108735741D01*
X119841183Y-108616846D01*
X119836963Y-108614260D01*
X119832393Y-108612367D01*
X119832389Y-108612365D01*
X119622167Y-108525289D01*
X119622165Y-108525288D01*
X119617594Y-108523395D01*
X119537391Y-108504140D01*
X119391524Y-108469120D01*
X119391518Y-108469119D01*
X119386711Y-108467965D01*
X119150000Y-108449335D01*
X118913289Y-108467965D01*
X118908482Y-108469119D01*
X118908476Y-108469120D01*
X118762609Y-108504140D01*
X118682406Y-108523395D01*
X118677835Y-108525288D01*
X118677833Y-108525289D01*
X118467611Y-108612365D01*
X118467607Y-108612367D01*
X118463037Y-108614260D01*
X118458817Y-108616846D01*
X118264798Y-108735741D01*
X118264792Y-108735745D01*
X118260584Y-108738324D01*
X118080031Y-108892531D01*
X117925824Y-109073084D01*
X117923245Y-109077292D01*
X117923241Y-109077298D01*
X117840389Y-109212500D01*
X117801760Y-109275537D01*
X117799867Y-109280107D01*
X117799865Y-109280111D01*
X117773723Y-109343224D01*
X117710895Y-109494906D01*
X117703842Y-109524284D01*
X117656903Y-109719800D01*
X117655465Y-109725789D01*
X117636835Y-109962500D01*
X112298025Y-109962500D01*
X112294836Y-109957570D01*
X112225322Y-109850117D01*
X112225320Y-109850114D01*
X112222514Y-109845777D01*
X112219040Y-109841959D01*
X112219033Y-109841950D01*
X112074935Y-109683588D01*
X112043883Y-109619742D01*
X112052279Y-109549244D01*
X112097456Y-109494476D01*
X112123900Y-109480807D01*
X112230552Y-109440825D01*
X112246149Y-109432286D01*
X112348224Y-109355785D01*
X112360785Y-109343224D01*
X112437286Y-109241149D01*
X112445824Y-109225554D01*
X112490978Y-109105106D01*
X112494605Y-109089851D01*
X112500131Y-109038986D01*
X112500500Y-109032172D01*
X112500500Y-108409615D01*
X112496025Y-108394376D01*
X112494635Y-108393171D01*
X112486952Y-108391500D01*
X109802616Y-108391500D01*
X109787377Y-108395975D01*
X109786172Y-108397365D01*
X109784501Y-108405048D01*
X109784501Y-109032169D01*
X109784871Y-109038990D01*
X109790395Y-109089852D01*
X109794021Y-109105104D01*
X109839176Y-109225554D01*
X109847714Y-109241149D01*
X109924215Y-109343224D01*
X109936776Y-109355785D01*
X110038851Y-109432286D01*
X110054446Y-109440824D01*
X110163327Y-109481642D01*
X110220091Y-109524284D01*
X110244791Y-109590845D01*
X110229583Y-109660194D01*
X110210191Y-109686675D01*
X110086700Y-109815901D01*
X110083129Y-109819638D01*
X109957243Y-110004180D01*
X109863188Y-110206805D01*
X109803489Y-110422070D01*
X109802940Y-110427207D01*
X109802631Y-110430094D01*
X109779751Y-110644195D01*
X109780048Y-110649348D01*
X109780048Y-110649351D01*
X109791485Y-110847702D01*
X109792610Y-110867215D01*
X109793747Y-110872261D01*
X109793748Y-110872267D01*
X109813619Y-110960439D01*
X109841722Y-111085139D01*
X109925766Y-111292116D01*
X109928465Y-111296520D01*
X110038245Y-111475665D01*
X110042487Y-111482588D01*
X110188750Y-111651438D01*
X110360626Y-111794132D01*
X110431095Y-111835311D01*
X110433945Y-111836976D01*
X110482669Y-111888614D01*
X110495740Y-111958397D01*
X110469009Y-112024169D01*
X110428555Y-112057527D01*
X110416107Y-112064007D01*
X110411974Y-112067110D01*
X110411971Y-112067112D01*
X110387747Y-112085300D01*
X110237465Y-112198135D01*
X110083129Y-112359638D01*
X109957243Y-112544180D01*
X109941503Y-112578090D01*
X109873165Y-112725312D01*
X109863188Y-112746805D01*
X109803489Y-112962070D01*
X109779751Y-113184195D01*
X109780048Y-113189348D01*
X109780048Y-113189351D01*
X109785511Y-113284090D01*
X109792610Y-113407215D01*
X109793747Y-113412261D01*
X109793748Y-113412267D01*
X109813476Y-113499802D01*
X109841722Y-113625139D01*
X109925766Y-113832116D01*
X110042487Y-114022588D01*
X110188750Y-114191438D01*
X110360626Y-114334132D01*
X110431095Y-114375311D01*
X110433945Y-114376976D01*
X110482669Y-114428614D01*
X110495740Y-114498397D01*
X110469009Y-114564169D01*
X110428555Y-114597527D01*
X110416107Y-114604007D01*
X110411974Y-114607110D01*
X110411971Y-114607112D01*
X110387747Y-114625300D01*
X110237465Y-114738135D01*
X110083129Y-114899638D01*
X109957243Y-115084180D01*
X109863188Y-115286805D01*
X109803489Y-115502070D01*
X109779751Y-115724195D01*
X109780048Y-115729348D01*
X109780048Y-115729351D01*
X109785511Y-115824090D01*
X109792610Y-115947215D01*
X109793747Y-115952261D01*
X109793748Y-115952267D01*
X109813619Y-116040439D01*
X109841722Y-116165139D01*
X109925766Y-116372116D01*
X110042487Y-116562588D01*
X110188750Y-116731438D01*
X110360626Y-116874132D01*
X110431095Y-116915311D01*
X110433945Y-116916976D01*
X110482669Y-116968614D01*
X110495740Y-117038397D01*
X110469009Y-117104169D01*
X110428555Y-117137527D01*
X110416107Y-117144007D01*
X110411974Y-117147110D01*
X110411971Y-117147112D01*
X110387747Y-117165300D01*
X110237465Y-117278135D01*
X110083129Y-117439638D01*
X109957243Y-117624180D01*
X109863188Y-117826805D01*
X109803489Y-118042070D01*
X109779751Y-118264195D01*
X99158500Y-118264195D01*
X99158500Y-107865385D01*
X109784500Y-107865385D01*
X109788975Y-107880624D01*
X109790365Y-107881829D01*
X109798048Y-107883500D01*
X110870385Y-107883500D01*
X110885624Y-107879025D01*
X110886829Y-107877635D01*
X110888500Y-107869952D01*
X110888500Y-107865385D01*
X111396500Y-107865385D01*
X111400975Y-107880624D01*
X111402365Y-107881829D01*
X111410048Y-107883500D01*
X112482384Y-107883500D01*
X112497623Y-107879025D01*
X112498828Y-107877635D01*
X112500499Y-107869952D01*
X112500499Y-107242831D01*
X112500129Y-107236010D01*
X112494605Y-107185148D01*
X112490979Y-107169896D01*
X112445824Y-107049446D01*
X112437286Y-107033851D01*
X112360785Y-106931776D01*
X112348224Y-106919215D01*
X112246149Y-106842714D01*
X112230554Y-106834176D01*
X112110106Y-106789022D01*
X112094851Y-106785395D01*
X112043986Y-106779869D01*
X112037172Y-106779500D01*
X111414615Y-106779500D01*
X111399376Y-106783975D01*
X111398171Y-106785365D01*
X111396500Y-106793048D01*
X111396500Y-107865385D01*
X110888500Y-107865385D01*
X110888500Y-106797616D01*
X110884025Y-106782377D01*
X110882635Y-106781172D01*
X110874952Y-106779501D01*
X110247831Y-106779501D01*
X110241010Y-106779871D01*
X110190148Y-106785395D01*
X110174896Y-106789021D01*
X110054446Y-106834176D01*
X110038851Y-106842714D01*
X109936776Y-106919215D01*
X109924215Y-106931776D01*
X109847714Y-107033851D01*
X109839176Y-107049446D01*
X109794022Y-107169894D01*
X109790395Y-107185149D01*
X109784869Y-107236014D01*
X109784500Y-107242828D01*
X109784500Y-107865385D01*
X99158500Y-107865385D01*
X99158500Y-106695170D01*
X118282160Y-106695170D01*
X118287887Y-106702820D01*
X118459042Y-106807705D01*
X118467837Y-106812187D01*
X118677988Y-106899234D01*
X118687373Y-106902283D01*
X118908554Y-106955385D01*
X118918301Y-106956928D01*
X119145070Y-106974775D01*
X119154930Y-106974775D01*
X119381699Y-106956928D01*
X119391446Y-106955385D01*
X119612627Y-106902283D01*
X119622012Y-106899234D01*
X119832163Y-106812187D01*
X119840958Y-106807705D01*
X120008445Y-106705068D01*
X120017400Y-106695170D01*
X124782160Y-106695170D01*
X124787887Y-106702820D01*
X124959042Y-106807705D01*
X124967837Y-106812187D01*
X125177988Y-106899234D01*
X125187373Y-106902283D01*
X125408554Y-106955385D01*
X125418301Y-106956928D01*
X125645070Y-106974775D01*
X125654930Y-106974775D01*
X125881699Y-106956928D01*
X125891446Y-106955385D01*
X126112627Y-106902283D01*
X126122012Y-106899234D01*
X126332163Y-106812187D01*
X126340958Y-106807705D01*
X126508445Y-106705068D01*
X126517907Y-106694610D01*
X126514124Y-106685834D01*
X125662812Y-105834522D01*
X125648868Y-105826908D01*
X125647035Y-105827039D01*
X125640420Y-105831290D01*
X124788920Y-106682790D01*
X124782160Y-106695170D01*
X120017400Y-106695170D01*
X120017907Y-106694610D01*
X120014124Y-106685834D01*
X119162812Y-105834522D01*
X119148868Y-105826908D01*
X119147035Y-105827039D01*
X119140420Y-105831290D01*
X118288920Y-106682790D01*
X118282160Y-106695170D01*
X99158500Y-106695170D01*
X99158500Y-105467430D01*
X117637725Y-105467430D01*
X117655572Y-105694199D01*
X117657115Y-105703946D01*
X117710217Y-105925127D01*
X117713266Y-105934512D01*
X117800313Y-106144663D01*
X117804795Y-106153458D01*
X117907432Y-106320945D01*
X117917890Y-106330407D01*
X117926666Y-106326624D01*
X118777978Y-105475312D01*
X118784356Y-105463632D01*
X119514408Y-105463632D01*
X119514539Y-105465465D01*
X119518790Y-105472080D01*
X120370290Y-106323580D01*
X120382670Y-106330340D01*
X120390320Y-106324613D01*
X120495205Y-106153458D01*
X120499687Y-106144663D01*
X120586734Y-105934512D01*
X120589783Y-105925127D01*
X120642885Y-105703946D01*
X120644428Y-105694199D01*
X120662275Y-105467430D01*
X124137725Y-105467430D01*
X124155572Y-105694199D01*
X124157115Y-105703946D01*
X124210217Y-105925127D01*
X124213266Y-105934512D01*
X124300313Y-106144663D01*
X124304795Y-106153458D01*
X124407432Y-106320945D01*
X124417890Y-106330407D01*
X124426666Y-106326624D01*
X125277978Y-105475312D01*
X125284356Y-105463632D01*
X126014408Y-105463632D01*
X126014539Y-105465465D01*
X126018790Y-105472080D01*
X126870290Y-106323580D01*
X126882670Y-106330340D01*
X126890320Y-106324613D01*
X126995205Y-106153458D01*
X126999687Y-106144663D01*
X127086734Y-105934512D01*
X127089783Y-105925127D01*
X127142885Y-105703946D01*
X127144428Y-105694199D01*
X127162275Y-105467430D01*
X127162275Y-105457570D01*
X127144428Y-105230801D01*
X127142885Y-105221054D01*
X127089783Y-104999873D01*
X127086734Y-104990488D01*
X126999687Y-104780337D01*
X126995205Y-104771542D01*
X126892568Y-104604055D01*
X126882110Y-104594593D01*
X126873334Y-104598376D01*
X126022022Y-105449688D01*
X126014408Y-105463632D01*
X125284356Y-105463632D01*
X125285592Y-105461368D01*
X125285461Y-105459535D01*
X125281210Y-105452920D01*
X124429710Y-104601420D01*
X124417330Y-104594660D01*
X124409680Y-104600387D01*
X124304795Y-104771542D01*
X124300313Y-104780337D01*
X124213266Y-104990488D01*
X124210217Y-104999873D01*
X124157115Y-105221054D01*
X124155572Y-105230801D01*
X124137725Y-105457570D01*
X124137725Y-105467430D01*
X120662275Y-105467430D01*
X120662275Y-105457570D01*
X120644428Y-105230801D01*
X120642885Y-105221054D01*
X120589783Y-104999873D01*
X120586734Y-104990488D01*
X120499687Y-104780337D01*
X120495205Y-104771542D01*
X120392568Y-104604055D01*
X120382110Y-104594593D01*
X120373334Y-104598376D01*
X119522022Y-105449688D01*
X119514408Y-105463632D01*
X118784356Y-105463632D01*
X118785592Y-105461368D01*
X118785461Y-105459535D01*
X118781210Y-105452920D01*
X117929710Y-104601420D01*
X117917330Y-104594660D01*
X117909680Y-104600387D01*
X117804795Y-104771542D01*
X117800313Y-104780337D01*
X117713266Y-104990488D01*
X117710217Y-104999873D01*
X117657115Y-105221054D01*
X117655572Y-105230801D01*
X117637725Y-105457570D01*
X117637725Y-105467430D01*
X99158500Y-105467430D01*
X99158500Y-104230390D01*
X118282093Y-104230390D01*
X118285876Y-104239166D01*
X119137188Y-105090478D01*
X119151132Y-105098092D01*
X119152965Y-105097961D01*
X119159580Y-105093710D01*
X120011080Y-104242210D01*
X120017534Y-104230390D01*
X124782093Y-104230390D01*
X124785876Y-104239166D01*
X125637188Y-105090478D01*
X125651132Y-105098092D01*
X125652965Y-105097961D01*
X125659580Y-105093710D01*
X126511080Y-104242210D01*
X126517840Y-104229830D01*
X126512113Y-104222180D01*
X126340958Y-104117295D01*
X126332163Y-104112813D01*
X126122012Y-104025766D01*
X126112627Y-104022717D01*
X125891446Y-103969615D01*
X125881699Y-103968072D01*
X125654930Y-103950225D01*
X125645070Y-103950225D01*
X125418301Y-103968072D01*
X125408554Y-103969615D01*
X125187373Y-104022717D01*
X125177988Y-104025766D01*
X124967837Y-104112813D01*
X124959042Y-104117295D01*
X124791555Y-104219932D01*
X124782093Y-104230390D01*
X120017534Y-104230390D01*
X120017840Y-104229830D01*
X120012113Y-104222180D01*
X119840958Y-104117295D01*
X119832163Y-104112813D01*
X119622012Y-104025766D01*
X119612627Y-104022717D01*
X119391446Y-103969615D01*
X119381699Y-103968072D01*
X119154930Y-103950225D01*
X119145070Y-103950225D01*
X118918301Y-103968072D01*
X118908554Y-103969615D01*
X118687373Y-104022717D01*
X118677988Y-104025766D01*
X118467837Y-104112813D01*
X118459042Y-104117295D01*
X118291555Y-104219932D01*
X118282093Y-104230390D01*
X99158500Y-104230390D01*
X99158500Y-100195170D01*
X118282160Y-100195170D01*
X118287887Y-100202820D01*
X118459042Y-100307705D01*
X118467837Y-100312187D01*
X118677988Y-100399234D01*
X118687373Y-100402283D01*
X118908554Y-100455385D01*
X118918301Y-100456928D01*
X119145070Y-100474775D01*
X119154930Y-100474775D01*
X119381699Y-100456928D01*
X119391446Y-100455385D01*
X119612627Y-100402283D01*
X119622012Y-100399234D01*
X119832163Y-100312187D01*
X119840958Y-100307705D01*
X120008445Y-100205068D01*
X120017400Y-100195170D01*
X124782160Y-100195170D01*
X124787887Y-100202820D01*
X124959042Y-100307705D01*
X124967837Y-100312187D01*
X125177988Y-100399234D01*
X125187373Y-100402283D01*
X125408554Y-100455385D01*
X125418301Y-100456928D01*
X125645070Y-100474775D01*
X125654930Y-100474775D01*
X125881699Y-100456928D01*
X125891446Y-100455385D01*
X126112627Y-100402283D01*
X126122012Y-100399234D01*
X126332163Y-100312187D01*
X126340958Y-100307705D01*
X126508445Y-100205068D01*
X126517907Y-100194610D01*
X126514124Y-100185834D01*
X125662812Y-99334522D01*
X125648868Y-99326908D01*
X125647035Y-99327039D01*
X125640420Y-99331290D01*
X124788920Y-100182790D01*
X124782160Y-100195170D01*
X120017400Y-100195170D01*
X120017907Y-100194610D01*
X120014124Y-100185834D01*
X119162812Y-99334522D01*
X119148868Y-99326908D01*
X119147035Y-99327039D01*
X119140420Y-99331290D01*
X118288920Y-100182790D01*
X118282160Y-100195170D01*
X99158500Y-100195170D01*
X99158500Y-98967430D01*
X117637725Y-98967430D01*
X117655572Y-99194199D01*
X117657115Y-99203946D01*
X117710217Y-99425127D01*
X117713266Y-99434512D01*
X117800313Y-99644663D01*
X117804795Y-99653458D01*
X117907432Y-99820945D01*
X117917890Y-99830407D01*
X117926666Y-99826624D01*
X118777978Y-98975312D01*
X118784356Y-98963632D01*
X119514408Y-98963632D01*
X119514539Y-98965465D01*
X119518790Y-98972080D01*
X120370290Y-99823580D01*
X120382670Y-99830340D01*
X120390320Y-99824613D01*
X120495205Y-99653458D01*
X120499687Y-99644663D01*
X120586734Y-99434512D01*
X120589783Y-99425127D01*
X120642885Y-99203946D01*
X120644428Y-99194199D01*
X120662275Y-98967430D01*
X124137725Y-98967430D01*
X124155572Y-99194199D01*
X124157115Y-99203946D01*
X124210217Y-99425127D01*
X124213266Y-99434512D01*
X124300313Y-99644663D01*
X124304795Y-99653458D01*
X124407432Y-99820945D01*
X124417890Y-99830407D01*
X124426666Y-99826624D01*
X125277978Y-98975312D01*
X125284356Y-98963632D01*
X126014408Y-98963632D01*
X126014539Y-98965465D01*
X126018790Y-98972080D01*
X126870290Y-99823580D01*
X126882670Y-99830340D01*
X126890320Y-99824613D01*
X126995205Y-99653458D01*
X126999687Y-99644663D01*
X127086734Y-99434512D01*
X127089783Y-99425127D01*
X127142885Y-99203946D01*
X127144428Y-99194199D01*
X127162275Y-98967430D01*
X127162275Y-98957570D01*
X127144428Y-98730801D01*
X127142885Y-98721054D01*
X127089783Y-98499873D01*
X127086734Y-98490488D01*
X126999687Y-98280337D01*
X126995205Y-98271542D01*
X126892568Y-98104055D01*
X126882110Y-98094593D01*
X126873334Y-98098376D01*
X126022022Y-98949688D01*
X126014408Y-98963632D01*
X125284356Y-98963632D01*
X125285592Y-98961368D01*
X125285461Y-98959535D01*
X125281210Y-98952920D01*
X124429710Y-98101420D01*
X124417330Y-98094660D01*
X124409680Y-98100387D01*
X124304795Y-98271542D01*
X124300313Y-98280337D01*
X124213266Y-98490488D01*
X124210217Y-98499873D01*
X124157115Y-98721054D01*
X124155572Y-98730801D01*
X124137725Y-98957570D01*
X124137725Y-98967430D01*
X120662275Y-98967430D01*
X120662275Y-98957570D01*
X120644428Y-98730801D01*
X120642885Y-98721054D01*
X120589783Y-98499873D01*
X120586734Y-98490488D01*
X120499687Y-98280337D01*
X120495205Y-98271542D01*
X120392568Y-98104055D01*
X120382110Y-98094593D01*
X120373334Y-98098376D01*
X119522022Y-98949688D01*
X119514408Y-98963632D01*
X118784356Y-98963632D01*
X118785592Y-98961368D01*
X118785461Y-98959535D01*
X118781210Y-98952920D01*
X117929710Y-98101420D01*
X117917330Y-98094660D01*
X117909680Y-98100387D01*
X117804795Y-98271542D01*
X117800313Y-98280337D01*
X117713266Y-98490488D01*
X117710217Y-98499873D01*
X117657115Y-98721054D01*
X117655572Y-98730801D01*
X117637725Y-98957570D01*
X117637725Y-98967430D01*
X99158500Y-98967430D01*
X99158500Y-97730390D01*
X118282093Y-97730390D01*
X118285876Y-97739166D01*
X119137188Y-98590478D01*
X119151132Y-98598092D01*
X119152965Y-98597961D01*
X119159580Y-98593710D01*
X120011080Y-97742210D01*
X120017534Y-97730390D01*
X124782093Y-97730390D01*
X124785876Y-97739166D01*
X125637188Y-98590478D01*
X125651132Y-98598092D01*
X125652965Y-98597961D01*
X125659580Y-98593710D01*
X126511080Y-97742210D01*
X126517840Y-97729830D01*
X126512113Y-97722180D01*
X126340958Y-97617295D01*
X126332163Y-97612813D01*
X126122012Y-97525766D01*
X126112627Y-97522717D01*
X125891446Y-97469615D01*
X125881699Y-97468072D01*
X125654930Y-97450225D01*
X125645070Y-97450225D01*
X125418301Y-97468072D01*
X125408554Y-97469615D01*
X125187373Y-97522717D01*
X125177988Y-97525766D01*
X124967837Y-97612813D01*
X124959042Y-97617295D01*
X124791555Y-97719932D01*
X124782093Y-97730390D01*
X120017534Y-97730390D01*
X120017840Y-97729830D01*
X120012113Y-97722180D01*
X119840958Y-97617295D01*
X119832163Y-97612813D01*
X119622012Y-97525766D01*
X119612627Y-97522717D01*
X119391446Y-97469615D01*
X119381699Y-97468072D01*
X119154930Y-97450225D01*
X119145070Y-97450225D01*
X118918301Y-97468072D01*
X118908554Y-97469615D01*
X118687373Y-97522717D01*
X118677988Y-97525766D01*
X118467837Y-97612813D01*
X118459042Y-97617295D01*
X118291555Y-97719932D01*
X118282093Y-97730390D01*
X99158500Y-97730390D01*
X99158500Y-96264195D01*
X109779751Y-96264195D01*
X109780048Y-96269348D01*
X109780048Y-96269351D01*
X109785511Y-96364090D01*
X109792610Y-96487215D01*
X109793747Y-96492261D01*
X109793748Y-96492267D01*
X109813619Y-96580439D01*
X109841722Y-96705139D01*
X109925766Y-96912116D01*
X110042487Y-97102588D01*
X110188750Y-97271438D01*
X110360626Y-97414132D01*
X110553500Y-97526838D01*
X110762192Y-97606530D01*
X110767260Y-97607561D01*
X110767263Y-97607562D01*
X110815103Y-97617295D01*
X110981097Y-97651067D01*
X110986272Y-97651257D01*
X110986274Y-97651257D01*
X111199173Y-97659064D01*
X111199177Y-97659064D01*
X111204337Y-97659253D01*
X111209457Y-97658597D01*
X111209459Y-97658597D01*
X111420788Y-97631525D01*
X111420789Y-97631525D01*
X111425916Y-97630868D01*
X111471157Y-97617295D01*
X111634929Y-97568161D01*
X111634934Y-97568159D01*
X111639884Y-97566674D01*
X111840494Y-97468396D01*
X112022360Y-97338673D01*
X112180596Y-97180989D01*
X112240094Y-97098189D01*
X112307935Y-97003777D01*
X112310953Y-96999577D01*
X112409930Y-96799311D01*
X112474870Y-96585569D01*
X112504029Y-96364090D01*
X112505656Y-96297500D01*
X112487352Y-96074861D01*
X112432931Y-95858202D01*
X112343854Y-95653340D01*
X112304406Y-95592362D01*
X112225322Y-95470117D01*
X112225320Y-95470114D01*
X112222514Y-95465777D01*
X112072170Y-95300551D01*
X112068119Y-95297352D01*
X112068115Y-95297348D01*
X111900914Y-95165300D01*
X111900910Y-95165298D01*
X111896859Y-95162098D01*
X111855553Y-95139296D01*
X111805584Y-95088864D01*
X111790812Y-95019421D01*
X111815928Y-94953016D01*
X111843280Y-94926409D01*
X111887103Y-94895150D01*
X112022360Y-94798673D01*
X112180596Y-94640989D01*
X112240094Y-94558189D01*
X112307935Y-94463777D01*
X112308853Y-94462500D01*
X117636835Y-94462500D01*
X117655465Y-94699211D01*
X117656619Y-94704018D01*
X117656620Y-94704024D01*
X117680063Y-94801671D01*
X117710895Y-94930094D01*
X117712788Y-94934665D01*
X117712789Y-94934667D01*
X117798511Y-95141618D01*
X117801760Y-95149463D01*
X117804346Y-95153683D01*
X117923241Y-95347702D01*
X117923245Y-95347708D01*
X117925824Y-95351916D01*
X118080031Y-95532469D01*
X118260584Y-95686676D01*
X118264792Y-95689255D01*
X118264798Y-95689259D01*
X118458817Y-95808154D01*
X118463037Y-95810740D01*
X118467607Y-95812633D01*
X118467611Y-95812635D01*
X118677833Y-95899711D01*
X118682406Y-95901605D01*
X118762609Y-95920860D01*
X118908476Y-95955880D01*
X118908482Y-95955881D01*
X118913289Y-95957035D01*
X119150000Y-95975665D01*
X119386711Y-95957035D01*
X119391518Y-95955881D01*
X119391524Y-95955880D01*
X119537391Y-95920860D01*
X119617594Y-95901605D01*
X119622167Y-95899711D01*
X119832389Y-95812635D01*
X119832393Y-95812633D01*
X119836963Y-95810740D01*
X119841183Y-95808154D01*
X120035202Y-95689259D01*
X120035208Y-95689255D01*
X120039416Y-95686676D01*
X120219969Y-95532469D01*
X120374176Y-95351916D01*
X120376755Y-95347708D01*
X120376759Y-95347702D01*
X120495654Y-95153683D01*
X120498240Y-95149463D01*
X120501490Y-95141618D01*
X120587211Y-94934667D01*
X120587212Y-94934665D01*
X120589105Y-94930094D01*
X120619937Y-94801671D01*
X120643380Y-94704024D01*
X120643381Y-94704018D01*
X120644535Y-94699211D01*
X120663165Y-94462500D01*
X124136835Y-94462500D01*
X124155465Y-94699211D01*
X124156619Y-94704018D01*
X124156620Y-94704024D01*
X124180063Y-94801671D01*
X124210895Y-94930094D01*
X124212788Y-94934665D01*
X124212789Y-94934667D01*
X124298511Y-95141618D01*
X124301760Y-95149463D01*
X124304346Y-95153683D01*
X124423241Y-95347702D01*
X124423245Y-95347708D01*
X124425824Y-95351916D01*
X124580031Y-95532469D01*
X124760584Y-95686676D01*
X124764792Y-95689255D01*
X124764798Y-95689259D01*
X124958817Y-95808154D01*
X124963037Y-95810740D01*
X124967607Y-95812633D01*
X124967611Y-95812635D01*
X125177833Y-95899711D01*
X125182406Y-95901605D01*
X125262609Y-95920860D01*
X125408476Y-95955880D01*
X125408482Y-95955881D01*
X125413289Y-95957035D01*
X125650000Y-95975665D01*
X125886711Y-95957035D01*
X125891518Y-95955881D01*
X125891524Y-95955880D01*
X126037391Y-95920860D01*
X126117594Y-95901605D01*
X126122167Y-95899711D01*
X126332389Y-95812635D01*
X126332393Y-95812633D01*
X126336963Y-95810740D01*
X126341183Y-95808154D01*
X126535202Y-95689259D01*
X126535208Y-95689255D01*
X126539416Y-95686676D01*
X126719969Y-95532469D01*
X126874176Y-95351916D01*
X126876755Y-95347708D01*
X126876759Y-95347702D01*
X126995654Y-95153683D01*
X126998240Y-95149463D01*
X127001490Y-95141618D01*
X127087211Y-94934667D01*
X127087212Y-94934665D01*
X127089105Y-94930094D01*
X127119937Y-94801671D01*
X127143380Y-94704024D01*
X127143381Y-94704018D01*
X127144535Y-94699211D01*
X127163165Y-94462500D01*
X127144535Y-94225789D01*
X127131124Y-94169925D01*
X127090260Y-93999718D01*
X127089105Y-93994906D01*
X127087211Y-93990333D01*
X127000135Y-93780111D01*
X127000133Y-93780107D01*
X126998240Y-93775537D01*
X126969937Y-93729351D01*
X126876759Y-93577298D01*
X126876755Y-93577292D01*
X126874176Y-93573084D01*
X126719969Y-93392531D01*
X126539416Y-93238324D01*
X126535208Y-93235745D01*
X126535202Y-93235741D01*
X126341183Y-93116846D01*
X126336963Y-93114260D01*
X126332393Y-93112367D01*
X126332389Y-93112365D01*
X126122167Y-93025289D01*
X126122165Y-93025288D01*
X126117594Y-93023395D01*
X126037391Y-93004140D01*
X125891524Y-92969120D01*
X125891518Y-92969119D01*
X125886711Y-92967965D01*
X125650000Y-92949335D01*
X125413289Y-92967965D01*
X125408482Y-92969119D01*
X125408476Y-92969120D01*
X125262609Y-93004140D01*
X125182406Y-93023395D01*
X125177835Y-93025288D01*
X125177833Y-93025289D01*
X124967611Y-93112365D01*
X124967607Y-93112367D01*
X124963037Y-93114260D01*
X124958817Y-93116846D01*
X124764798Y-93235741D01*
X124764792Y-93235745D01*
X124760584Y-93238324D01*
X124580031Y-93392531D01*
X124425824Y-93573084D01*
X124423245Y-93577292D01*
X124423241Y-93577298D01*
X124330063Y-93729351D01*
X124301760Y-93775537D01*
X124299867Y-93780107D01*
X124299865Y-93780111D01*
X124212789Y-93990333D01*
X124210895Y-93994906D01*
X124209740Y-93999718D01*
X124168877Y-94169925D01*
X124155465Y-94225789D01*
X124136835Y-94462500D01*
X120663165Y-94462500D01*
X120644535Y-94225789D01*
X120631124Y-94169925D01*
X120590260Y-93999718D01*
X120589105Y-93994906D01*
X120587211Y-93990333D01*
X120500135Y-93780111D01*
X120500133Y-93780107D01*
X120498240Y-93775537D01*
X120469937Y-93729351D01*
X120376759Y-93577298D01*
X120376755Y-93577292D01*
X120374176Y-93573084D01*
X120219969Y-93392531D01*
X120039416Y-93238324D01*
X120035208Y-93235745D01*
X120035202Y-93235741D01*
X119841183Y-93116846D01*
X119836963Y-93114260D01*
X119832393Y-93112367D01*
X119832389Y-93112365D01*
X119622167Y-93025289D01*
X119622165Y-93025288D01*
X119617594Y-93023395D01*
X119537391Y-93004140D01*
X119391524Y-92969120D01*
X119391518Y-92969119D01*
X119386711Y-92967965D01*
X119150000Y-92949335D01*
X118913289Y-92967965D01*
X118908482Y-92969119D01*
X118908476Y-92969120D01*
X118762609Y-93004140D01*
X118682406Y-93023395D01*
X118677835Y-93025288D01*
X118677833Y-93025289D01*
X118467611Y-93112365D01*
X118467607Y-93112367D01*
X118463037Y-93114260D01*
X118458817Y-93116846D01*
X118264798Y-93235741D01*
X118264792Y-93235745D01*
X118260584Y-93238324D01*
X118080031Y-93392531D01*
X117925824Y-93573084D01*
X117923245Y-93577292D01*
X117923241Y-93577298D01*
X117830063Y-93729351D01*
X117801760Y-93775537D01*
X117799867Y-93780107D01*
X117799865Y-93780111D01*
X117712789Y-93990333D01*
X117710895Y-93994906D01*
X117709740Y-93999718D01*
X117668877Y-94169925D01*
X117655465Y-94225789D01*
X117636835Y-94462500D01*
X112308853Y-94462500D01*
X112310953Y-94459577D01*
X112409930Y-94259311D01*
X112474870Y-94045569D01*
X112504029Y-93824090D01*
X112505104Y-93780111D01*
X112505574Y-93760865D01*
X112505574Y-93760861D01*
X112505656Y-93757500D01*
X112487352Y-93534861D01*
X112432931Y-93318202D01*
X112343854Y-93113340D01*
X112249556Y-92967577D01*
X112225322Y-92930117D01*
X112225320Y-92930114D01*
X112222514Y-92925777D01*
X112072170Y-92760551D01*
X112068119Y-92757352D01*
X112068115Y-92757348D01*
X111900914Y-92625300D01*
X111900910Y-92625298D01*
X111896859Y-92622098D01*
X111855553Y-92599296D01*
X111805584Y-92548864D01*
X111790812Y-92479421D01*
X111815928Y-92413016D01*
X111843280Y-92386409D01*
X111887103Y-92355150D01*
X112022360Y-92258673D01*
X112180596Y-92100989D01*
X112240094Y-92018189D01*
X112307935Y-91923777D01*
X112310953Y-91919577D01*
X112409930Y-91719311D01*
X112474870Y-91505569D01*
X112504029Y-91284090D01*
X112505656Y-91217500D01*
X112487352Y-90994861D01*
X112432931Y-90778202D01*
X112343854Y-90573340D01*
X112222514Y-90385777D01*
X112072170Y-90220551D01*
X112068119Y-90217352D01*
X112068115Y-90217348D01*
X111900914Y-90085300D01*
X111900910Y-90085298D01*
X111896859Y-90082098D01*
X111855553Y-90059296D01*
X111805584Y-90008864D01*
X111790812Y-89939421D01*
X111815928Y-89873016D01*
X111843280Y-89846409D01*
X111894183Y-89810100D01*
X112022360Y-89718673D01*
X112052011Y-89689126D01*
X112176935Y-89564637D01*
X112180596Y-89560989D01*
X112240094Y-89478189D01*
X112307935Y-89383777D01*
X112310953Y-89379577D01*
X112409930Y-89179311D01*
X112474870Y-88965569D01*
X112504029Y-88744090D01*
X112505656Y-88677500D01*
X112487352Y-88454861D01*
X112432931Y-88238202D01*
X112343854Y-88033340D01*
X112222514Y-87845777D01*
X112219040Y-87841959D01*
X112219033Y-87841950D01*
X112074935Y-87683588D01*
X112043883Y-87619742D01*
X112052279Y-87549244D01*
X112097456Y-87494476D01*
X112123900Y-87480807D01*
X112230552Y-87440825D01*
X112246149Y-87432286D01*
X112348224Y-87355785D01*
X112360785Y-87343224D01*
X112437286Y-87241149D01*
X112445824Y-87225554D01*
X112490978Y-87105106D01*
X112494605Y-87089851D01*
X112500131Y-87038986D01*
X112500500Y-87032172D01*
X112500500Y-86409615D01*
X112496025Y-86394376D01*
X112494635Y-86393171D01*
X112486952Y-86391500D01*
X109802616Y-86391500D01*
X109787377Y-86395975D01*
X109786172Y-86397365D01*
X109784501Y-86405048D01*
X109784501Y-87032169D01*
X109784871Y-87038990D01*
X109790395Y-87089852D01*
X109794021Y-87105104D01*
X109839176Y-87225554D01*
X109847714Y-87241149D01*
X109924215Y-87343224D01*
X109936776Y-87355785D01*
X110038851Y-87432286D01*
X110054446Y-87440824D01*
X110163327Y-87481642D01*
X110220091Y-87524284D01*
X110244791Y-87590845D01*
X110229583Y-87660194D01*
X110210191Y-87686675D01*
X110086700Y-87815901D01*
X110083129Y-87819638D01*
X109957243Y-88004180D01*
X109863188Y-88206805D01*
X109803489Y-88422070D01*
X109779751Y-88644195D01*
X109780048Y-88649348D01*
X109780048Y-88649351D01*
X109785511Y-88744090D01*
X109792610Y-88867215D01*
X109793747Y-88872261D01*
X109793748Y-88872267D01*
X109813619Y-88960439D01*
X109841722Y-89085139D01*
X109925766Y-89292116D01*
X110042487Y-89482588D01*
X110188750Y-89651438D01*
X110360626Y-89794132D01*
X110408330Y-89822008D01*
X110433945Y-89836976D01*
X110482669Y-89888614D01*
X110495740Y-89958397D01*
X110469009Y-90024169D01*
X110428555Y-90057527D01*
X110416107Y-90064007D01*
X110411974Y-90067110D01*
X110411971Y-90067112D01*
X110371429Y-90097552D01*
X110237465Y-90198135D01*
X110233893Y-90201873D01*
X110158359Y-90280915D01*
X110083129Y-90359638D01*
X109957243Y-90544180D01*
X109863188Y-90746805D01*
X109803489Y-90962070D01*
X109779751Y-91184195D01*
X109780048Y-91189348D01*
X109780048Y-91189351D01*
X109785511Y-91284090D01*
X109792610Y-91407215D01*
X109793747Y-91412261D01*
X109793748Y-91412267D01*
X109813619Y-91500439D01*
X109841722Y-91625139D01*
X109925766Y-91832116D01*
X110042487Y-92022588D01*
X110188750Y-92191438D01*
X110360626Y-92334132D01*
X110431095Y-92375311D01*
X110433945Y-92376976D01*
X110482669Y-92428614D01*
X110495740Y-92498397D01*
X110469009Y-92564169D01*
X110428555Y-92597527D01*
X110416107Y-92604007D01*
X110411974Y-92607110D01*
X110411971Y-92607112D01*
X110387747Y-92625300D01*
X110237465Y-92738135D01*
X110083129Y-92899638D01*
X109957243Y-93084180D01*
X109942080Y-93116846D01*
X109884202Y-93241535D01*
X109863188Y-93286805D01*
X109803489Y-93502070D01*
X109779751Y-93724195D01*
X109780048Y-93729348D01*
X109780048Y-93729351D01*
X109785511Y-93824090D01*
X109792610Y-93947215D01*
X109793747Y-93952261D01*
X109793748Y-93952267D01*
X109804442Y-93999718D01*
X109841722Y-94165139D01*
X109925766Y-94372116D01*
X110042487Y-94562588D01*
X110188750Y-94731438D01*
X110360626Y-94874132D01*
X110431095Y-94915311D01*
X110433945Y-94916976D01*
X110482669Y-94968614D01*
X110495740Y-95038397D01*
X110469009Y-95104169D01*
X110428555Y-95137527D01*
X110416107Y-95144007D01*
X110411974Y-95147110D01*
X110411971Y-95147112D01*
X110387747Y-95165300D01*
X110237465Y-95278135D01*
X110083129Y-95439638D01*
X109957243Y-95624180D01*
X109863188Y-95826805D01*
X109803489Y-96042070D01*
X109779751Y-96264195D01*
X99158500Y-96264195D01*
X99158500Y-85865385D01*
X109784500Y-85865385D01*
X109788975Y-85880624D01*
X109790365Y-85881829D01*
X109798048Y-85883500D01*
X110870385Y-85883500D01*
X110885624Y-85879025D01*
X110886829Y-85877635D01*
X110888500Y-85869952D01*
X110888500Y-85865385D01*
X111396500Y-85865385D01*
X111400975Y-85880624D01*
X111402365Y-85881829D01*
X111410048Y-85883500D01*
X112482384Y-85883500D01*
X112497623Y-85879025D01*
X112498828Y-85877635D01*
X112500499Y-85869952D01*
X112500499Y-85242831D01*
X112500129Y-85236010D01*
X112494605Y-85185148D01*
X112490979Y-85169896D01*
X112445824Y-85049446D01*
X112437286Y-85033851D01*
X112360785Y-84931776D01*
X112348224Y-84919215D01*
X112246149Y-84842714D01*
X112230554Y-84834176D01*
X112110106Y-84789022D01*
X112094851Y-84785395D01*
X112043986Y-84779869D01*
X112037172Y-84779500D01*
X111414615Y-84779500D01*
X111399376Y-84783975D01*
X111398171Y-84785365D01*
X111396500Y-84793048D01*
X111396500Y-85865385D01*
X110888500Y-85865385D01*
X110888500Y-84797616D01*
X110884025Y-84782377D01*
X110882635Y-84781172D01*
X110874952Y-84779501D01*
X110247831Y-84779501D01*
X110241010Y-84779871D01*
X110190148Y-84785395D01*
X110174896Y-84789021D01*
X110054446Y-84834176D01*
X110038851Y-84842714D01*
X109936776Y-84919215D01*
X109924215Y-84931776D01*
X109847714Y-85033851D01*
X109839176Y-85049446D01*
X109794022Y-85169894D01*
X109790395Y-85185149D01*
X109784869Y-85236014D01*
X109784500Y-85242828D01*
X109784500Y-85865385D01*
X99158500Y-85865385D01*
X99158500Y-82487788D01*
X116062228Y-82487788D01*
X116092722Y-82689422D01*
X116094928Y-82695417D01*
X116094928Y-82695418D01*
X116155698Y-82860586D01*
X116163137Y-82880806D01*
X116270598Y-83054122D01*
X116274979Y-83058755D01*
X116274980Y-83058756D01*
X116344308Y-83132068D01*
X116410714Y-83202291D01*
X116415944Y-83205953D01*
X116415945Y-83205954D01*
X116519542Y-83278493D01*
X116577761Y-83319258D01*
X116623378Y-83338998D01*
X116733313Y-83386571D01*
X116764916Y-83400247D01*
X116771164Y-83401552D01*
X116771163Y-83401552D01*
X116959788Y-83440959D01*
X116959792Y-83440959D01*
X116964533Y-83441950D01*
X116969370Y-83442203D01*
X116969374Y-83442204D01*
X116969440Y-83442207D01*
X116971212Y-83442300D01*
X117120967Y-83442300D01*
X117152467Y-83439100D01*
X117181691Y-83436132D01*
X117251484Y-83449148D01*
X117303161Y-83497830D01*
X117320315Y-83566724D01*
X117315512Y-83596324D01*
X117310723Y-83612970D01*
X117310721Y-83612978D01*
X117309400Y-83617571D01*
X117308789Y-83622306D01*
X117308788Y-83622312D01*
X117286082Y-83798342D01*
X117276390Y-83873480D01*
X117276503Y-83878257D01*
X117280161Y-84033480D01*
X117282469Y-84131437D01*
X117327497Y-84385507D01*
X117410438Y-84629842D01*
X117412642Y-84634084D01*
X117412642Y-84634085D01*
X117521644Y-84843922D01*
X117529383Y-84858821D01*
X117681594Y-85067173D01*
X117684965Y-85070562D01*
X117684967Y-85070564D01*
X117860194Y-85246711D01*
X117860199Y-85246715D01*
X117863570Y-85250104D01*
X118071122Y-85403404D01*
X118075352Y-85405630D01*
X118075356Y-85405632D01*
X118295238Y-85521317D01*
X118299475Y-85523546D01*
X118543373Y-85607765D01*
X118797203Y-85654123D01*
X118879767Y-85658450D01*
X119040613Y-85658450D01*
X119042992Y-85658269D01*
X119042993Y-85658269D01*
X119227519Y-85644233D01*
X119227524Y-85644232D01*
X119232286Y-85643870D01*
X119236939Y-85642791D01*
X119236942Y-85642791D01*
X119478987Y-85586687D01*
X119478986Y-85586687D01*
X119483651Y-85585606D01*
X119723311Y-85489992D01*
X119945750Y-85359226D01*
X119949461Y-85356205D01*
X119949465Y-85356202D01*
X120142139Y-85199341D01*
X120145851Y-85196319D01*
X120319007Y-85005019D01*
X120353178Y-84953295D01*
X120418399Y-84854569D01*
X120459119Y-84792931D01*
X120513355Y-84747119D01*
X120583751Y-84737903D01*
X120647955Y-84768208D01*
X120676062Y-84804301D01*
X120696644Y-84843922D01*
X120704383Y-84858821D01*
X120856594Y-85067173D01*
X120859965Y-85070562D01*
X120859967Y-85070564D01*
X121035194Y-85246711D01*
X121035199Y-85246715D01*
X121038570Y-85250104D01*
X121246122Y-85403404D01*
X121250352Y-85405630D01*
X121250356Y-85405632D01*
X121470238Y-85521317D01*
X121474475Y-85523546D01*
X121718373Y-85607765D01*
X121972203Y-85654123D01*
X122054767Y-85658450D01*
X122215613Y-85658450D01*
X122217992Y-85658269D01*
X122217993Y-85658269D01*
X122402519Y-85644233D01*
X122402524Y-85644232D01*
X122407286Y-85643870D01*
X122411939Y-85642791D01*
X122411942Y-85642791D01*
X122653987Y-85586687D01*
X122653986Y-85586687D01*
X122658651Y-85585606D01*
X122898311Y-85489992D01*
X123120750Y-85359226D01*
X123124461Y-85356205D01*
X123124465Y-85356202D01*
X123317139Y-85199341D01*
X123320851Y-85196319D01*
X123494007Y-85005019D01*
X123515017Y-84973217D01*
X123633597Y-84793721D01*
X123636235Y-84789728D01*
X123638247Y-84785365D01*
X123742255Y-84559752D01*
X123742256Y-84559749D01*
X123744261Y-84555400D01*
X123773418Y-84454053D01*
X123814279Y-84312022D01*
X123814280Y-84312017D01*
X123815600Y-84307429D01*
X123816678Y-84299076D01*
X123847999Y-84056257D01*
X123848610Y-84051520D01*
X123844047Y-83857887D01*
X123842644Y-83798342D01*
X123842644Y-83798337D01*
X123842531Y-83793563D01*
X123800471Y-83556239D01*
X123798338Y-83544202D01*
X123798337Y-83544196D01*
X123797503Y-83539493D01*
X123762417Y-83436132D01*
X123716099Y-83299686D01*
X123714562Y-83295158D01*
X123671624Y-83212500D01*
X138786771Y-83212500D01*
X138787461Y-83219065D01*
X138798259Y-83321794D01*
X138805635Y-83391975D01*
X138861401Y-83563607D01*
X138951633Y-83719893D01*
X139072387Y-83854004D01*
X139218385Y-83960078D01*
X139224413Y-83962762D01*
X139224415Y-83962763D01*
X139377217Y-84030795D01*
X139383248Y-84033480D01*
X139468121Y-84051520D01*
X139553311Y-84069628D01*
X139553315Y-84069628D01*
X139559768Y-84071000D01*
X139740232Y-84071000D01*
X139746685Y-84069628D01*
X139746689Y-84069628D01*
X139831879Y-84051520D01*
X139916752Y-84033480D01*
X139922783Y-84030795D01*
X139979653Y-84005475D01*
X160837483Y-84005475D01*
X160856472Y-84222519D01*
X160858375Y-84233312D01*
X160914764Y-84443761D01*
X160918510Y-84454053D01*
X161010586Y-84651511D01*
X161016071Y-84661011D01*
X161016701Y-84661910D01*
X161016856Y-84662370D01*
X161018818Y-84665768D01*
X161018135Y-84666162D01*
X161039388Y-84729184D01*
X161022102Y-84798044D01*
X160999066Y-84823803D01*
X161000270Y-84825007D01*
X160993919Y-84831358D01*
X160986739Y-84836739D01*
X160981358Y-84843919D01*
X160981355Y-84843922D01*
X160973376Y-84854569D01*
X160899385Y-84953295D01*
X160848255Y-85089684D01*
X160841500Y-85151866D01*
X160841500Y-86848134D01*
X160848255Y-86910316D01*
X160899385Y-87046705D01*
X160986739Y-87163261D01*
X161103295Y-87250615D01*
X161239684Y-87301745D01*
X161301866Y-87308500D01*
X162998134Y-87308500D01*
X163060316Y-87301745D01*
X163196705Y-87250615D01*
X163313261Y-87163261D01*
X163400615Y-87046705D01*
X163451745Y-86910316D01*
X163453691Y-86911046D01*
X163483545Y-86858795D01*
X163546503Y-86825979D01*
X163617207Y-86832409D01*
X163660000Y-86860498D01*
X163805700Y-87006198D01*
X163810208Y-87009355D01*
X163810211Y-87009357D01*
X163863550Y-87046705D01*
X163993251Y-87137523D01*
X163998233Y-87139846D01*
X163998238Y-87139849D01*
X164182035Y-87225554D01*
X164200757Y-87234284D01*
X164206065Y-87235706D01*
X164206067Y-87235707D01*
X164416598Y-87292119D01*
X164416600Y-87292119D01*
X164421913Y-87293543D01*
X164650000Y-87313498D01*
X164878087Y-87293543D01*
X164883400Y-87292119D01*
X164883402Y-87292119D01*
X165093933Y-87235707D01*
X165093935Y-87235706D01*
X165099243Y-87234284D01*
X165117965Y-87225554D01*
X165301762Y-87139849D01*
X165301767Y-87139846D01*
X165306749Y-87137523D01*
X165436450Y-87046705D01*
X165489789Y-87009357D01*
X165489792Y-87009355D01*
X165494300Y-87006198D01*
X165656198Y-86844300D01*
X165664525Y-86832409D01*
X165784366Y-86661257D01*
X165787523Y-86656749D01*
X165789846Y-86651767D01*
X165789849Y-86651762D01*
X165881961Y-86454225D01*
X165881961Y-86454224D01*
X165884284Y-86449243D01*
X165894903Y-86409615D01*
X165942119Y-86233402D01*
X165942119Y-86233400D01*
X165943543Y-86228087D01*
X165963498Y-86000000D01*
X165943543Y-85771913D01*
X165942119Y-85766598D01*
X165885707Y-85556067D01*
X165885706Y-85556065D01*
X165884284Y-85550757D01*
X165872325Y-85525110D01*
X165789849Y-85348238D01*
X165789846Y-85348233D01*
X165787523Y-85343251D01*
X165684640Y-85196319D01*
X165659357Y-85160211D01*
X165659355Y-85160208D01*
X165656198Y-85155700D01*
X165589593Y-85089095D01*
X165555567Y-85026783D01*
X165560632Y-84955968D01*
X165589593Y-84910905D01*
X165656198Y-84844300D01*
X165661493Y-84836739D01*
X165763190Y-84691500D01*
X165787523Y-84656749D01*
X165789846Y-84651767D01*
X165789849Y-84651762D01*
X165881961Y-84454225D01*
X165881961Y-84454224D01*
X165884284Y-84449243D01*
X165924522Y-84299076D01*
X165942119Y-84233402D01*
X165942119Y-84233400D01*
X165943543Y-84228087D01*
X165963498Y-84000000D01*
X165943543Y-83771913D01*
X165928072Y-83714175D01*
X165885707Y-83556067D01*
X165885706Y-83556065D01*
X165884284Y-83550757D01*
X165881961Y-83545775D01*
X165789849Y-83348238D01*
X165789846Y-83348233D01*
X165787523Y-83343251D01*
X165691373Y-83205935D01*
X165659357Y-83160211D01*
X165659355Y-83160208D01*
X165656198Y-83155700D01*
X165586485Y-83085987D01*
X167818721Y-83085987D01*
X167827548Y-83097605D01*
X168050281Y-83259430D01*
X168056961Y-83263670D01*
X168326572Y-83411890D01*
X168333707Y-83415247D01*
X168619770Y-83528508D01*
X168627296Y-83530953D01*
X168925279Y-83607462D01*
X168933050Y-83608945D01*
X169238278Y-83647503D01*
X169246169Y-83648000D01*
X169553831Y-83648000D01*
X169561722Y-83647503D01*
X169866950Y-83608945D01*
X169874721Y-83607462D01*
X170172704Y-83530953D01*
X170180230Y-83528508D01*
X170466293Y-83415247D01*
X170473428Y-83411890D01*
X170743039Y-83263670D01*
X170749719Y-83259430D01*
X170972823Y-83097336D01*
X170981246Y-83086413D01*
X170974342Y-83073552D01*
X169412812Y-81512022D01*
X169398868Y-81504408D01*
X169397035Y-81504539D01*
X169390420Y-81508790D01*
X167825334Y-83073876D01*
X167818721Y-83085987D01*
X165586485Y-83085987D01*
X165494300Y-82993802D01*
X165489792Y-82990645D01*
X165489789Y-82990643D01*
X165363920Y-82902509D01*
X165306749Y-82862477D01*
X165301767Y-82860154D01*
X165301762Y-82860151D01*
X165104225Y-82768039D01*
X165104224Y-82768039D01*
X165099243Y-82765716D01*
X165093935Y-82764294D01*
X165093933Y-82764293D01*
X164883402Y-82707881D01*
X164883400Y-82707881D01*
X164878087Y-82706457D01*
X164650000Y-82686502D01*
X164421913Y-82706457D01*
X164416600Y-82707881D01*
X164416598Y-82707881D01*
X164206067Y-82764293D01*
X164206065Y-82764294D01*
X164200757Y-82765716D01*
X164195776Y-82768039D01*
X164195775Y-82768039D01*
X163998238Y-82860151D01*
X163998233Y-82860154D01*
X163993251Y-82862477D01*
X163936080Y-82902509D01*
X163810211Y-82990643D01*
X163810208Y-82990645D01*
X163805700Y-82993802D01*
X163643802Y-83155700D01*
X163640645Y-83160208D01*
X163640643Y-83160211D01*
X163599433Y-83219065D01*
X163512477Y-83343251D01*
X163510153Y-83348235D01*
X163508829Y-83350528D01*
X163457447Y-83399521D01*
X163387733Y-83412957D01*
X163321822Y-83386571D01*
X163290591Y-83350528D01*
X163283934Y-83338998D01*
X163247491Y-83286952D01*
X163237012Y-83278576D01*
X163223566Y-83285644D01*
X162239095Y-84270115D01*
X162176783Y-84304141D01*
X162105968Y-84299076D01*
X162060905Y-84270115D01*
X161075713Y-83284923D01*
X161063938Y-83278493D01*
X161051923Y-83287789D01*
X161016069Y-83338994D01*
X161010586Y-83348489D01*
X160918510Y-83545947D01*
X160914764Y-83556239D01*
X160858375Y-83766688D01*
X160856472Y-83777481D01*
X160837483Y-83994525D01*
X160837483Y-84005475D01*
X139979653Y-84005475D01*
X140075585Y-83962763D01*
X140075587Y-83962762D01*
X140081615Y-83960078D01*
X140227613Y-83854004D01*
X140348367Y-83719893D01*
X140438599Y-83563607D01*
X140494365Y-83391975D01*
X140504727Y-83293387D01*
X140531740Y-83227730D01*
X140540942Y-83217462D01*
X140672417Y-83085987D01*
X155818721Y-83085987D01*
X155827548Y-83097605D01*
X156050281Y-83259430D01*
X156056961Y-83263670D01*
X156326572Y-83411890D01*
X156333707Y-83415247D01*
X156619770Y-83528508D01*
X156627296Y-83530953D01*
X156925279Y-83607462D01*
X156933050Y-83608945D01*
X157238278Y-83647503D01*
X157246169Y-83648000D01*
X157553831Y-83648000D01*
X157561722Y-83647503D01*
X157866950Y-83608945D01*
X157874721Y-83607462D01*
X158172704Y-83530953D01*
X158180230Y-83528508D01*
X158466293Y-83415247D01*
X158473428Y-83411890D01*
X158743039Y-83263670D01*
X158749719Y-83259430D01*
X158972823Y-83097336D01*
X158981246Y-83086413D01*
X158974342Y-83073552D01*
X158813778Y-82912988D01*
X161428576Y-82912988D01*
X161435644Y-82926434D01*
X162137188Y-83627978D01*
X162151132Y-83635592D01*
X162152965Y-83635461D01*
X162159580Y-83631210D01*
X162865077Y-82925713D01*
X162871507Y-82913938D01*
X162862211Y-82901923D01*
X162811006Y-82866069D01*
X162801511Y-82860586D01*
X162604053Y-82768510D01*
X162593761Y-82764764D01*
X162383312Y-82708375D01*
X162372519Y-82706472D01*
X162155475Y-82687483D01*
X162144525Y-82687483D01*
X161927481Y-82706472D01*
X161916688Y-82708375D01*
X161706239Y-82764764D01*
X161695947Y-82768510D01*
X161498489Y-82860586D01*
X161488994Y-82866069D01*
X161436952Y-82902509D01*
X161428576Y-82912988D01*
X158813778Y-82912988D01*
X157412812Y-81512022D01*
X157398868Y-81504408D01*
X157397035Y-81504539D01*
X157390420Y-81508790D01*
X155825334Y-83073876D01*
X155818721Y-83085987D01*
X140672417Y-83085987D01*
X141042247Y-82716157D01*
X141050537Y-82708613D01*
X141057018Y-82704500D01*
X141065547Y-82695418D01*
X141103658Y-82654833D01*
X141106413Y-82651991D01*
X141126135Y-82632269D01*
X141128612Y-82629076D01*
X141136317Y-82620055D01*
X141161159Y-82593600D01*
X141166586Y-82587821D01*
X141173136Y-82575907D01*
X141176346Y-82570068D01*
X141187202Y-82553541D01*
X141194757Y-82543802D01*
X141194758Y-82543800D01*
X141199614Y-82537540D01*
X141217174Y-82496960D01*
X141222391Y-82486312D01*
X141239875Y-82454509D01*
X141239876Y-82454507D01*
X141243695Y-82447560D01*
X141246295Y-82437436D01*
X141248733Y-82427938D01*
X141255137Y-82409234D01*
X141260033Y-82397920D01*
X141260033Y-82397919D01*
X141263181Y-82390645D01*
X141264420Y-82382822D01*
X141264423Y-82382812D01*
X141270099Y-82346976D01*
X141272505Y-82335356D01*
X141281528Y-82300211D01*
X141281528Y-82300210D01*
X141283500Y-82292530D01*
X141283500Y-82272276D01*
X141285051Y-82252565D01*
X141286980Y-82240386D01*
X141288220Y-82232557D01*
X141284059Y-82188538D01*
X141283500Y-82176681D01*
X141283500Y-81590302D01*
X141303502Y-81522181D01*
X141315864Y-81505991D01*
X141317172Y-81504539D01*
X141348367Y-81469893D01*
X141404186Y-81373212D01*
X141435295Y-81319330D01*
X141435296Y-81319329D01*
X141438599Y-81313607D01*
X141493721Y-81143958D01*
X154887290Y-81143958D01*
X154906607Y-81450994D01*
X154907600Y-81458855D01*
X154965246Y-81761046D01*
X154967217Y-81768723D01*
X155062284Y-82061309D01*
X155065199Y-82068672D01*
X155196189Y-82347041D01*
X155200001Y-82353974D01*
X155364851Y-82613736D01*
X155369495Y-82620129D01*
X155444497Y-82710790D01*
X155457014Y-82719245D01*
X155467752Y-82713038D01*
X157027978Y-81152812D01*
X157034356Y-81141132D01*
X157764408Y-81141132D01*
X157764539Y-81142965D01*
X157768790Y-81149580D01*
X159331145Y-82711935D01*
X159344407Y-82719177D01*
X159354512Y-82711988D01*
X159430505Y-82620129D01*
X159435149Y-82613736D01*
X159599999Y-82353974D01*
X159603811Y-82347041D01*
X159734801Y-82068672D01*
X159737716Y-82061309D01*
X159832783Y-81768723D01*
X159834754Y-81761046D01*
X159892400Y-81458855D01*
X159893393Y-81450994D01*
X159912710Y-81143958D01*
X166887290Y-81143958D01*
X166906607Y-81450994D01*
X166907600Y-81458855D01*
X166965246Y-81761046D01*
X166967217Y-81768723D01*
X167062284Y-82061309D01*
X167065199Y-82068672D01*
X167196189Y-82347041D01*
X167200001Y-82353974D01*
X167364851Y-82613736D01*
X167369495Y-82620129D01*
X167444497Y-82710790D01*
X167457014Y-82719245D01*
X167467752Y-82713038D01*
X169027978Y-81152812D01*
X169034356Y-81141132D01*
X169764408Y-81141132D01*
X169764539Y-81142965D01*
X169768790Y-81149580D01*
X171331145Y-82711935D01*
X171344407Y-82719177D01*
X171354512Y-82711988D01*
X171430505Y-82620129D01*
X171435149Y-82613736D01*
X171599999Y-82353974D01*
X171603811Y-82347041D01*
X171734801Y-82068672D01*
X171737716Y-82061309D01*
X171832783Y-81768723D01*
X171834754Y-81761046D01*
X171892400Y-81458855D01*
X171893393Y-81450994D01*
X171912710Y-81143958D01*
X171912710Y-81136042D01*
X171893393Y-80829006D01*
X171892400Y-80821145D01*
X171834754Y-80518954D01*
X171832783Y-80511277D01*
X171737716Y-80218691D01*
X171734801Y-80211328D01*
X171603811Y-79932959D01*
X171599999Y-79926026D01*
X171435149Y-79666264D01*
X171430505Y-79659871D01*
X171355503Y-79569210D01*
X171342986Y-79560755D01*
X171332248Y-79566962D01*
X169772022Y-81127188D01*
X169764408Y-81141132D01*
X169034356Y-81141132D01*
X169035592Y-81138868D01*
X169035461Y-81137035D01*
X169031210Y-81130420D01*
X167468855Y-79568065D01*
X167455593Y-79560823D01*
X167445488Y-79568012D01*
X167369495Y-79659871D01*
X167364851Y-79666264D01*
X167200001Y-79926026D01*
X167196189Y-79932959D01*
X167065199Y-80211328D01*
X167062284Y-80218691D01*
X166967217Y-80511277D01*
X166965246Y-80518954D01*
X166907600Y-80821145D01*
X166906607Y-80829006D01*
X166887290Y-81136042D01*
X166887290Y-81143958D01*
X159912710Y-81143958D01*
X159912710Y-81136042D01*
X159893393Y-80829006D01*
X159892400Y-80821145D01*
X159834754Y-80518954D01*
X159832783Y-80511277D01*
X159737716Y-80218691D01*
X159734801Y-80211328D01*
X159603811Y-79932959D01*
X159599999Y-79926026D01*
X159435149Y-79666264D01*
X159430505Y-79659871D01*
X159355503Y-79569210D01*
X159342986Y-79560755D01*
X159332248Y-79566962D01*
X157772022Y-81127188D01*
X157764408Y-81141132D01*
X157034356Y-81141132D01*
X157035592Y-81138868D01*
X157035461Y-81137035D01*
X157031210Y-81130420D01*
X155468855Y-79568065D01*
X155455593Y-79560823D01*
X155445488Y-79568012D01*
X155369495Y-79659871D01*
X155364851Y-79666264D01*
X155200001Y-79926026D01*
X155196189Y-79932959D01*
X155065199Y-80211328D01*
X155062284Y-80218691D01*
X154967217Y-80511277D01*
X154965246Y-80518954D01*
X154907600Y-80821145D01*
X154906607Y-80829006D01*
X154887290Y-81136042D01*
X154887290Y-81143958D01*
X141493721Y-81143958D01*
X141494365Y-81141975D01*
X141498098Y-81106464D01*
X141512539Y-80969065D01*
X141513229Y-80962500D01*
X141494365Y-80783025D01*
X141438599Y-80611393D01*
X141419529Y-80578362D01*
X141378147Y-80506687D01*
X141348367Y-80455107D01*
X141337958Y-80443546D01*
X141232035Y-80325907D01*
X141232034Y-80325906D01*
X141227613Y-80320996D01*
X141221142Y-80316294D01*
X141086957Y-80218803D01*
X141086956Y-80218802D01*
X141081615Y-80214922D01*
X141075587Y-80212238D01*
X141075585Y-80212237D01*
X140922783Y-80144205D01*
X140922781Y-80144205D01*
X140916752Y-80141520D01*
X140812407Y-80119341D01*
X140746689Y-80105372D01*
X140746685Y-80105372D01*
X140740232Y-80104000D01*
X140559768Y-80104000D01*
X140553315Y-80105372D01*
X140553311Y-80105372D01*
X140487593Y-80119341D01*
X140383248Y-80141520D01*
X140377219Y-80144204D01*
X140377217Y-80144205D01*
X140224416Y-80212237D01*
X140224414Y-80212238D01*
X140218386Y-80214922D01*
X140213045Y-80218802D01*
X140213044Y-80218803D01*
X140077731Y-80317113D01*
X140077729Y-80317115D01*
X140072387Y-80320996D01*
X140067966Y-80325906D01*
X140067965Y-80325907D01*
X139962043Y-80443546D01*
X139951633Y-80455107D01*
X139921853Y-80506687D01*
X139880472Y-80578362D01*
X139861401Y-80611393D01*
X139805635Y-80783025D01*
X139786771Y-80962500D01*
X139787461Y-80969065D01*
X139801903Y-81106464D01*
X139805635Y-81141975D01*
X139861401Y-81313607D01*
X139864704Y-81319329D01*
X139864705Y-81319330D01*
X139895814Y-81373212D01*
X139951633Y-81469893D01*
X139982829Y-81504539D01*
X139984136Y-81505991D01*
X140014853Y-81569999D01*
X140016500Y-81590302D01*
X140016500Y-81897905D01*
X139996498Y-81966026D01*
X139979595Y-81987001D01*
X139649499Y-82317096D01*
X139587187Y-82351121D01*
X139572869Y-82352660D01*
X139572937Y-82353310D01*
X139566370Y-82354000D01*
X139559768Y-82354000D01*
X139553315Y-82355372D01*
X139553311Y-82355372D01*
X139471508Y-82372760D01*
X139383248Y-82391520D01*
X139377219Y-82394204D01*
X139377217Y-82394205D01*
X139224416Y-82462237D01*
X139224414Y-82462238D01*
X139218386Y-82464922D01*
X139213045Y-82468802D01*
X139213044Y-82468803D01*
X139077731Y-82567113D01*
X139077729Y-82567115D01*
X139072387Y-82570996D01*
X139067966Y-82575906D01*
X139067965Y-82575907D01*
X138998186Y-82653405D01*
X138951633Y-82705107D01*
X138917462Y-82764293D01*
X138865418Y-82854436D01*
X138861401Y-82861393D01*
X138805635Y-83033025D01*
X138804945Y-83039588D01*
X138804945Y-83039589D01*
X138802557Y-83062309D01*
X138786771Y-83212500D01*
X123671624Y-83212500D01*
X123668224Y-83205954D01*
X123597826Y-83070431D01*
X123597824Y-83070428D01*
X123595617Y-83066179D01*
X123571397Y-83033025D01*
X123446228Y-82861690D01*
X123443406Y-82857827D01*
X123440033Y-82854436D01*
X123264806Y-82678289D01*
X123264801Y-82678285D01*
X123261430Y-82674896D01*
X123083943Y-82543802D01*
X123057730Y-82524441D01*
X123057729Y-82524440D01*
X123053878Y-82521596D01*
X123049648Y-82519370D01*
X123049644Y-82519368D01*
X122840312Y-82409234D01*
X122825525Y-82401454D01*
X122825655Y-82401208D01*
X122772827Y-82357247D01*
X122751470Y-82289539D01*
X122770109Y-82221033D01*
X122795448Y-82191357D01*
X122875822Y-82122468D01*
X122875823Y-82122467D01*
X122880673Y-82118310D01*
X123005661Y-81957176D01*
X123095696Y-81774201D01*
X123104986Y-81738536D01*
X123145490Y-81583041D01*
X123145490Y-81583038D01*
X123147100Y-81576859D01*
X123151477Y-81493330D01*
X123175016Y-81426350D01*
X123231031Y-81382728D01*
X123301737Y-81376316D01*
X123313278Y-81379320D01*
X123317712Y-81381294D01*
X123405097Y-81399868D01*
X123498056Y-81419628D01*
X123498061Y-81419628D01*
X123504513Y-81421000D01*
X123695487Y-81421000D01*
X123701939Y-81419628D01*
X123701944Y-81419628D01*
X123788887Y-81401147D01*
X123882288Y-81381294D01*
X123900441Y-81373212D01*
X124050722Y-81306303D01*
X124050724Y-81306302D01*
X124056752Y-81303618D01*
X124062091Y-81299739D01*
X124062098Y-81299735D01*
X124068528Y-81295063D01*
X124142587Y-81271000D01*
X130057413Y-81271000D01*
X130131472Y-81295063D01*
X130137902Y-81299735D01*
X130137909Y-81299739D01*
X130143248Y-81303618D01*
X130149276Y-81306302D01*
X130149278Y-81306303D01*
X130299559Y-81373212D01*
X130317712Y-81381294D01*
X130411113Y-81401147D01*
X130498056Y-81419628D01*
X130498061Y-81419628D01*
X130504513Y-81421000D01*
X130695487Y-81421000D01*
X130701939Y-81419628D01*
X130701944Y-81419628D01*
X130788887Y-81401147D01*
X130882288Y-81381294D01*
X130900441Y-81373212D01*
X131050722Y-81306303D01*
X131050724Y-81306302D01*
X131056752Y-81303618D01*
X131062097Y-81299735D01*
X131151167Y-81235021D01*
X131211253Y-81191366D01*
X131253939Y-81143958D01*
X131334621Y-81054352D01*
X131334622Y-81054351D01*
X131339040Y-81049444D01*
X131434527Y-80884056D01*
X131493542Y-80702428D01*
X131498670Y-80653643D01*
X131512814Y-80519065D01*
X131513504Y-80512500D01*
X131493542Y-80322572D01*
X131434527Y-80140944D01*
X131422055Y-80119341D01*
X131384791Y-80054799D01*
X131339040Y-79975556D01*
X131296736Y-79928572D01*
X131215675Y-79838545D01*
X131215674Y-79838544D01*
X131211253Y-79833634D01*
X131068527Y-79729937D01*
X131062094Y-79725263D01*
X131062093Y-79725262D01*
X131056752Y-79721382D01*
X131050724Y-79718698D01*
X131050722Y-79718697D01*
X130888319Y-79646391D01*
X130888318Y-79646391D01*
X130882288Y-79643706D01*
X130788888Y-79623853D01*
X130701944Y-79605372D01*
X130701939Y-79605372D01*
X130695487Y-79604000D01*
X130504513Y-79604000D01*
X130498061Y-79605372D01*
X130498056Y-79605372D01*
X130411112Y-79623853D01*
X130317712Y-79643706D01*
X130311682Y-79646391D01*
X130311681Y-79646391D01*
X130149278Y-79718697D01*
X130149276Y-79718698D01*
X130143248Y-79721382D01*
X130137909Y-79725261D01*
X130137902Y-79725265D01*
X130131472Y-79729937D01*
X130057413Y-79754000D01*
X124142587Y-79754000D01*
X124068528Y-79729937D01*
X124062098Y-79725265D01*
X124062091Y-79725261D01*
X124056752Y-79721382D01*
X124050724Y-79718698D01*
X124050722Y-79718697D01*
X123888319Y-79646391D01*
X123888318Y-79646391D01*
X123882288Y-79643706D01*
X123875827Y-79642333D01*
X123875822Y-79642331D01*
X123838790Y-79634459D01*
X123776316Y-79600731D01*
X123741995Y-79538581D01*
X123746283Y-79475982D01*
X123744261Y-79475400D01*
X123814279Y-79232022D01*
X123814280Y-79232017D01*
X123815600Y-79227429D01*
X123817839Y-79210078D01*
X123847999Y-78976257D01*
X123848610Y-78971520D01*
X123845399Y-78835260D01*
X123842644Y-78718342D01*
X123842644Y-78718337D01*
X123842531Y-78713563D01*
X123823169Y-78604312D01*
X123798338Y-78464202D01*
X123798337Y-78464196D01*
X123797503Y-78459493D01*
X123714562Y-78215158D01*
X123663925Y-78117678D01*
X123597826Y-77990431D01*
X123597824Y-77990428D01*
X123595617Y-77986179D01*
X123578319Y-77962500D01*
X123553988Y-77929195D01*
X129717251Y-77929195D01*
X129717548Y-77934348D01*
X129717548Y-77934351D01*
X129727756Y-78111393D01*
X129730110Y-78152215D01*
X129731247Y-78157261D01*
X129731248Y-78157267D01*
X129743339Y-78210915D01*
X129779222Y-78370139D01*
X129840673Y-78521476D01*
X129851328Y-78547715D01*
X129863266Y-78577116D01*
X129903012Y-78641975D01*
X129977291Y-78763188D01*
X129979987Y-78767588D01*
X130126250Y-78936438D01*
X130298126Y-79079132D01*
X130491000Y-79191838D01*
X130495825Y-79193680D01*
X130495826Y-79193681D01*
X130528411Y-79206124D01*
X130699692Y-79271530D01*
X130704760Y-79272561D01*
X130704763Y-79272562D01*
X130765171Y-79284852D01*
X130918597Y-79316067D01*
X130923772Y-79316257D01*
X130923774Y-79316257D01*
X131136673Y-79324064D01*
X131136677Y-79324064D01*
X131141837Y-79324253D01*
X131146957Y-79323597D01*
X131146959Y-79323597D01*
X131358288Y-79296525D01*
X131358289Y-79296525D01*
X131363416Y-79295868D01*
X131413657Y-79280795D01*
X131572429Y-79233161D01*
X131572434Y-79233159D01*
X131577384Y-79231674D01*
X131777994Y-79133396D01*
X131959860Y-79003673D01*
X132118096Y-78845989D01*
X132177594Y-78763189D01*
X132248453Y-78664577D01*
X132249776Y-78665528D01*
X132296645Y-78622357D01*
X132366580Y-78610125D01*
X132432026Y-78637644D01*
X132459875Y-78669494D01*
X132519987Y-78767588D01*
X132666250Y-78936438D01*
X132838126Y-79079132D01*
X133031000Y-79191838D01*
X133035825Y-79193680D01*
X133035826Y-79193681D01*
X133068411Y-79206124D01*
X133239692Y-79271530D01*
X133244760Y-79272561D01*
X133244763Y-79272562D01*
X133305171Y-79284852D01*
X133458597Y-79316067D01*
X133463772Y-79316257D01*
X133463774Y-79316257D01*
X133676673Y-79324064D01*
X133676677Y-79324064D01*
X133681837Y-79324253D01*
X133686957Y-79323597D01*
X133686959Y-79323597D01*
X133898288Y-79296525D01*
X133898289Y-79296525D01*
X133903416Y-79295868D01*
X133953657Y-79280795D01*
X134112429Y-79233161D01*
X134112434Y-79233159D01*
X134117384Y-79231674D01*
X134317994Y-79133396D01*
X134499860Y-79003673D01*
X134658096Y-78845989D01*
X134717594Y-78763189D01*
X134788453Y-78664577D01*
X134789776Y-78665528D01*
X134836645Y-78622357D01*
X134906580Y-78610125D01*
X134972026Y-78637644D01*
X134999875Y-78669494D01*
X135059987Y-78767588D01*
X135206250Y-78936438D01*
X135378126Y-79079132D01*
X135571000Y-79191838D01*
X135575825Y-79193680D01*
X135575826Y-79193681D01*
X135608411Y-79206124D01*
X135779692Y-79271530D01*
X135784760Y-79272561D01*
X135784763Y-79272562D01*
X135845171Y-79284852D01*
X135998597Y-79316067D01*
X136003772Y-79316257D01*
X136003774Y-79316257D01*
X136216673Y-79324064D01*
X136216677Y-79324064D01*
X136221837Y-79324253D01*
X136226957Y-79323597D01*
X136226959Y-79323597D01*
X136438288Y-79296525D01*
X136438289Y-79296525D01*
X136443416Y-79295868D01*
X136493657Y-79280795D01*
X136652429Y-79233161D01*
X136652434Y-79233159D01*
X136657384Y-79231674D01*
X136857994Y-79133396D01*
X137039860Y-79003673D01*
X137107331Y-78936438D01*
X137148479Y-78895433D01*
X137210851Y-78861517D01*
X137281658Y-78866705D01*
X137338419Y-78909351D01*
X137355401Y-78940454D01*
X137396676Y-79050554D01*
X137405214Y-79066149D01*
X137481715Y-79168224D01*
X137494276Y-79180785D01*
X137596351Y-79257286D01*
X137611946Y-79265824D01*
X137732394Y-79310978D01*
X137747649Y-79314605D01*
X137798514Y-79320131D01*
X137805328Y-79320500D01*
X138427885Y-79320500D01*
X138443124Y-79316025D01*
X138444329Y-79314635D01*
X138446000Y-79306952D01*
X138446000Y-77834500D01*
X138466002Y-77766379D01*
X138519658Y-77719886D01*
X138572000Y-77708500D01*
X138828000Y-77708500D01*
X138896121Y-77728502D01*
X138942614Y-77782158D01*
X138954000Y-77834500D01*
X138954000Y-79302384D01*
X138958475Y-79317623D01*
X138959865Y-79318828D01*
X138967548Y-79320499D01*
X139594669Y-79320499D01*
X139601490Y-79320129D01*
X139652352Y-79314605D01*
X139667604Y-79310979D01*
X139788054Y-79265824D01*
X139803649Y-79257286D01*
X139905724Y-79180785D01*
X139918285Y-79168224D01*
X139994786Y-79066149D01*
X140003324Y-79050554D01*
X140048478Y-78930106D01*
X140052105Y-78914851D01*
X140057631Y-78863986D01*
X140058000Y-78857172D01*
X140058000Y-78672433D01*
X140078002Y-78604312D01*
X140131658Y-78557819D01*
X140201932Y-78547715D01*
X140266512Y-78577209D01*
X140304896Y-78636935D01*
X140305254Y-78638352D01*
X140305635Y-78641975D01*
X140361401Y-78813607D01*
X140451633Y-78969893D01*
X140456051Y-78974800D01*
X140456052Y-78974801D01*
X140484748Y-79006671D01*
X140572387Y-79104004D01*
X140577729Y-79107885D01*
X140577731Y-79107887D01*
X140696273Y-79194013D01*
X140718385Y-79210078D01*
X140724413Y-79212762D01*
X140724415Y-79212763D01*
X140877217Y-79280795D01*
X140883248Y-79283480D01*
X140944621Y-79296525D01*
X141053311Y-79319628D01*
X141053315Y-79319628D01*
X141059768Y-79321000D01*
X141240232Y-79321000D01*
X141246685Y-79319628D01*
X141246689Y-79319628D01*
X141355379Y-79296525D01*
X141416752Y-79283480D01*
X141422783Y-79280795D01*
X141575585Y-79212763D01*
X141575587Y-79212762D01*
X141581615Y-79210078D01*
X141603727Y-79194013D01*
X141604313Y-79193587D01*
X155818754Y-79193587D01*
X155825658Y-79206448D01*
X157387188Y-80767978D01*
X157401132Y-80775592D01*
X157402965Y-80775461D01*
X157409580Y-80771210D01*
X158974666Y-79206124D01*
X158981279Y-79194013D01*
X158980955Y-79193587D01*
X167818754Y-79193587D01*
X167825658Y-79206448D01*
X169387188Y-80767978D01*
X169401132Y-80775592D01*
X169402965Y-80775461D01*
X169409580Y-80771210D01*
X170974666Y-79206124D01*
X170981279Y-79194013D01*
X170972452Y-79182395D01*
X170749719Y-79020570D01*
X170743039Y-79016330D01*
X170473428Y-78868110D01*
X170466293Y-78864753D01*
X170180230Y-78751492D01*
X170172704Y-78749047D01*
X169874721Y-78672538D01*
X169866950Y-78671055D01*
X169561722Y-78632497D01*
X169553831Y-78632000D01*
X169246169Y-78632000D01*
X169238278Y-78632497D01*
X168933050Y-78671055D01*
X168925279Y-78672538D01*
X168627296Y-78749047D01*
X168619770Y-78751492D01*
X168333707Y-78864753D01*
X168326572Y-78868110D01*
X168056961Y-79016330D01*
X168050281Y-79020570D01*
X167827177Y-79182664D01*
X167818754Y-79193587D01*
X158980955Y-79193587D01*
X158972452Y-79182395D01*
X158749719Y-79020570D01*
X158743039Y-79016330D01*
X158473428Y-78868110D01*
X158466293Y-78864753D01*
X158180230Y-78751492D01*
X158172704Y-78749047D01*
X157874721Y-78672538D01*
X157866950Y-78671055D01*
X157561722Y-78632497D01*
X157553831Y-78632000D01*
X157246169Y-78632000D01*
X157238278Y-78632497D01*
X156933050Y-78671055D01*
X156925279Y-78672538D01*
X156627296Y-78749047D01*
X156619770Y-78751492D01*
X156333707Y-78864753D01*
X156326572Y-78868110D01*
X156056961Y-79016330D01*
X156050281Y-79020570D01*
X155827177Y-79182664D01*
X155818754Y-79193587D01*
X141604313Y-79193587D01*
X141722269Y-79107887D01*
X141722271Y-79107885D01*
X141727613Y-79104004D01*
X141815252Y-79006671D01*
X141843948Y-78974801D01*
X141843949Y-78974800D01*
X141848367Y-78969893D01*
X141938599Y-78813607D01*
X141984469Y-78672433D01*
X141992325Y-78648254D01*
X141992325Y-78648253D01*
X141994365Y-78641975D01*
X141995414Y-78632000D01*
X142012539Y-78469065D01*
X142013229Y-78462500D01*
X141994365Y-78283025D01*
X141938599Y-78111393D01*
X141908706Y-78059616D01*
X141851670Y-77960828D01*
X141848367Y-77955107D01*
X141822239Y-77926089D01*
X141764097Y-77861515D01*
X141743203Y-77823983D01*
X141741378Y-77824773D01*
X141738230Y-77817499D01*
X141736018Y-77809885D01*
X141725707Y-77792450D01*
X141717012Y-77774702D01*
X141709552Y-77755861D01*
X141683564Y-77720091D01*
X141677048Y-77710171D01*
X141658580Y-77678943D01*
X141658578Y-77678940D01*
X141654542Y-77672116D01*
X141640221Y-77657795D01*
X141627380Y-77642761D01*
X141620131Y-77632784D01*
X141615472Y-77626371D01*
X141581395Y-77598180D01*
X141572616Y-77590190D01*
X140052674Y-76070247D01*
X140045624Y-76062500D01*
X146886496Y-76062500D01*
X146906458Y-76252428D01*
X146965473Y-76434056D01*
X147060960Y-76599444D01*
X147065378Y-76604351D01*
X147065379Y-76604352D01*
X147184325Y-76736455D01*
X147188747Y-76741366D01*
X147343248Y-76853618D01*
X147349276Y-76856302D01*
X147349278Y-76856303D01*
X147511681Y-76928609D01*
X147517712Y-76931294D01*
X147611112Y-76951147D01*
X147698056Y-76969628D01*
X147698061Y-76969628D01*
X147704513Y-76971000D01*
X147895487Y-76971000D01*
X147901939Y-76969628D01*
X147901944Y-76969628D01*
X147988888Y-76951147D01*
X148082288Y-76931294D01*
X148088319Y-76928609D01*
X148250722Y-76856303D01*
X148250724Y-76856302D01*
X148256752Y-76853618D01*
X148411253Y-76741366D01*
X148415675Y-76736455D01*
X148534621Y-76604352D01*
X148534622Y-76604351D01*
X148539040Y-76599444D01*
X148634527Y-76434056D01*
X148693542Y-76252428D01*
X148713504Y-76062500D01*
X148702516Y-75957958D01*
X148694232Y-75879135D01*
X148694232Y-75879133D01*
X148693542Y-75872572D01*
X148634527Y-75690944D01*
X148621718Y-75668758D01*
X148604980Y-75599762D01*
X148628201Y-75532671D01*
X148641742Y-75516662D01*
X148881325Y-75277080D01*
X149150501Y-75007904D01*
X149212813Y-74973879D01*
X149239596Y-74971000D01*
X149295487Y-74971000D01*
X149301939Y-74969628D01*
X149301944Y-74969628D01*
X149388888Y-74951147D01*
X149482288Y-74931294D01*
X149488319Y-74928609D01*
X149650722Y-74856303D01*
X149650724Y-74856302D01*
X149656752Y-74853618D01*
X149811253Y-74741366D01*
X149939040Y-74599444D01*
X150034527Y-74434056D01*
X150093542Y-74252428D01*
X150098086Y-74209199D01*
X150112814Y-74069065D01*
X150113504Y-74062500D01*
X150093542Y-73872572D01*
X150034527Y-73690944D01*
X149939040Y-73525556D01*
X149865303Y-73443662D01*
X149815675Y-73388545D01*
X149815674Y-73388544D01*
X149811253Y-73383634D01*
X149656752Y-73271382D01*
X149650724Y-73268698D01*
X149650722Y-73268697D01*
X149488319Y-73196391D01*
X149488318Y-73196391D01*
X149482288Y-73193706D01*
X149388888Y-73173853D01*
X149301944Y-73155372D01*
X149301939Y-73155372D01*
X149295487Y-73154000D01*
X149104513Y-73154000D01*
X149098061Y-73155372D01*
X149098056Y-73155372D01*
X149011112Y-73173853D01*
X148917712Y-73193706D01*
X148911682Y-73196391D01*
X148911681Y-73196391D01*
X148749278Y-73268697D01*
X148749276Y-73268698D01*
X148743248Y-73271382D01*
X148588747Y-73383634D01*
X148584326Y-73388544D01*
X148584325Y-73388545D01*
X148534698Y-73443662D01*
X148460960Y-73525556D01*
X148365473Y-73690944D01*
X148306458Y-73872572D01*
X148305768Y-73879133D01*
X148305768Y-73879135D01*
X148289093Y-74037792D01*
X148262080Y-74103449D01*
X148252878Y-74113718D01*
X147407742Y-74958853D01*
X147399463Y-74966387D01*
X147392982Y-74970500D01*
X147376748Y-74987788D01*
X147346357Y-75020151D01*
X147343602Y-75022993D01*
X147323865Y-75042730D01*
X147321385Y-75045927D01*
X147313682Y-75054947D01*
X147283414Y-75087179D01*
X147279595Y-75094125D01*
X147279593Y-75094128D01*
X147273652Y-75104934D01*
X147262801Y-75121453D01*
X147250386Y-75137459D01*
X147247241Y-75144728D01*
X147247238Y-75144732D01*
X147232826Y-75178037D01*
X147227609Y-75188687D01*
X147206305Y-75227440D01*
X147204334Y-75235115D01*
X147204334Y-75235116D01*
X147201267Y-75247062D01*
X147194863Y-75265766D01*
X147186819Y-75284355D01*
X147185580Y-75292178D01*
X147185577Y-75292188D01*
X147179901Y-75328024D01*
X147177495Y-75339644D01*
X147166644Y-75381909D01*
X147166500Y-75382469D01*
X147164319Y-75381909D01*
X147137441Y-75440615D01*
X147060960Y-75525556D01*
X146965473Y-75690944D01*
X146906458Y-75872572D01*
X146905768Y-75879133D01*
X146905768Y-75879135D01*
X146897484Y-75957958D01*
X146886496Y-76062500D01*
X140045624Y-76062500D01*
X140045134Y-76061961D01*
X140041022Y-76055482D01*
X139991370Y-76008856D01*
X139988529Y-76006102D01*
X139968792Y-75986365D01*
X139965595Y-75983885D01*
X139956573Y-75976180D01*
X139943138Y-75963564D01*
X139924343Y-75945914D01*
X139917397Y-75942095D01*
X139917394Y-75942093D01*
X139906588Y-75936152D01*
X139890069Y-75925301D01*
X139889605Y-75924941D01*
X139874063Y-75912886D01*
X139866794Y-75909741D01*
X139866790Y-75909738D01*
X139833485Y-75895326D01*
X139822835Y-75890109D01*
X139784082Y-75868805D01*
X139774303Y-75866294D01*
X139769676Y-75865106D01*
X139764459Y-75863767D01*
X139745756Y-75857363D01*
X139734442Y-75852467D01*
X139734441Y-75852467D01*
X139727167Y-75849319D01*
X139719344Y-75848080D01*
X139719334Y-75848077D01*
X139683498Y-75842401D01*
X139671878Y-75839995D01*
X139636733Y-75830972D01*
X139636732Y-75830972D01*
X139629052Y-75829000D01*
X139608798Y-75829000D01*
X139589087Y-75827449D01*
X139586556Y-75827048D01*
X139569079Y-75824280D01*
X139561187Y-75825026D01*
X139525061Y-75828441D01*
X139513203Y-75829000D01*
X132658763Y-75829000D01*
X132647579Y-75828473D01*
X132640091Y-75826799D01*
X132632168Y-75827048D01*
X132572033Y-75828938D01*
X132568075Y-75829000D01*
X132540144Y-75829000D01*
X132536229Y-75829495D01*
X132536225Y-75829495D01*
X132536167Y-75829503D01*
X132536138Y-75829506D01*
X132524296Y-75830439D01*
X132480110Y-75831827D01*
X132462744Y-75836872D01*
X132460658Y-75837478D01*
X132441306Y-75841486D01*
X132434235Y-75842380D01*
X132421203Y-75844026D01*
X132413834Y-75846943D01*
X132413832Y-75846944D01*
X132380097Y-75860300D01*
X132368869Y-75864145D01*
X132326407Y-75876482D01*
X132319585Y-75880516D01*
X132319579Y-75880519D01*
X132308968Y-75886794D01*
X132291218Y-75895490D01*
X132279756Y-75900028D01*
X132279751Y-75900031D01*
X132272383Y-75902948D01*
X132254970Y-75915599D01*
X132236625Y-75928927D01*
X132226707Y-75935443D01*
X132215463Y-75942093D01*
X132188637Y-75957958D01*
X132174313Y-75972282D01*
X132159281Y-75985121D01*
X132142893Y-75997028D01*
X132114712Y-76031093D01*
X132106722Y-76039873D01*
X131537345Y-76609250D01*
X131475033Y-76643276D01*
X131426154Y-76644202D01*
X131213373Y-76606300D01*
X131213367Y-76606299D01*
X131208284Y-76605394D01*
X131134452Y-76604492D01*
X130990081Y-76602728D01*
X130990079Y-76602728D01*
X130984911Y-76602665D01*
X130764091Y-76636455D01*
X130551756Y-76705857D01*
X130353607Y-76809007D01*
X130349474Y-76812110D01*
X130349471Y-76812112D01*
X130188908Y-76932666D01*
X130174965Y-76943135D01*
X130020629Y-77104638D01*
X129894743Y-77289180D01*
X129865011Y-77353233D01*
X129804615Y-77483346D01*
X129800688Y-77491805D01*
X129740989Y-77707070D01*
X129717251Y-77929195D01*
X123553988Y-77929195D01*
X123454089Y-77792450D01*
X123443406Y-77777827D01*
X123432018Y-77766379D01*
X123264806Y-77598289D01*
X123264801Y-77598285D01*
X123261430Y-77594896D01*
X123053878Y-77441596D01*
X123049648Y-77439370D01*
X123049644Y-77439368D01*
X122829762Y-77323683D01*
X122829760Y-77323682D01*
X122825525Y-77321454D01*
X122581627Y-77237235D01*
X122327797Y-77190877D01*
X122245233Y-77186550D01*
X122084387Y-77186550D01*
X122082008Y-77186731D01*
X122082007Y-77186731D01*
X121897481Y-77200767D01*
X121897476Y-77200768D01*
X121892714Y-77201130D01*
X121888061Y-77202209D01*
X121888058Y-77202209D01*
X121736948Y-77237235D01*
X121641349Y-77259394D01*
X121401689Y-77355008D01*
X121179250Y-77485774D01*
X121175539Y-77488795D01*
X121175535Y-77488798D01*
X120993616Y-77636903D01*
X120979149Y-77648681D01*
X120805993Y-77839981D01*
X120673393Y-78040699D01*
X120665882Y-78052068D01*
X120611645Y-78097881D01*
X120541249Y-78107097D01*
X120477045Y-78076792D01*
X120448938Y-78040699D01*
X120422826Y-77990431D01*
X120422824Y-77990428D01*
X120420617Y-77986179D01*
X120403319Y-77962500D01*
X120279089Y-77792450D01*
X120268406Y-77777827D01*
X120257018Y-77766379D01*
X120089806Y-77598289D01*
X120089801Y-77598285D01*
X120086430Y-77594896D01*
X119878878Y-77441596D01*
X119874648Y-77439370D01*
X119874644Y-77439368D01*
X119654762Y-77323683D01*
X119654760Y-77323682D01*
X119650525Y-77321454D01*
X119406627Y-77237235D01*
X119152797Y-77190877D01*
X119070233Y-77186550D01*
X118909387Y-77186550D01*
X118907008Y-77186731D01*
X118907007Y-77186731D01*
X118722481Y-77200767D01*
X118722476Y-77200768D01*
X118717714Y-77201130D01*
X118713061Y-77202209D01*
X118713058Y-77202209D01*
X118561948Y-77237235D01*
X118466349Y-77259394D01*
X118226689Y-77355008D01*
X118004250Y-77485774D01*
X118000539Y-77488795D01*
X118000535Y-77488798D01*
X117818616Y-77636903D01*
X117804149Y-77648681D01*
X117630993Y-77839981D01*
X117488765Y-78055272D01*
X117486764Y-78059612D01*
X117486762Y-78059616D01*
X117383770Y-78283025D01*
X117380739Y-78289600D01*
X117379415Y-78294201D01*
X117379415Y-78294202D01*
X117329109Y-78469065D01*
X117309400Y-78537571D01*
X117308789Y-78542306D01*
X117308788Y-78542312D01*
X117277001Y-78788743D01*
X117276390Y-78793480D01*
X117278052Y-78863986D01*
X117281742Y-79020570D01*
X117282469Y-79051437D01*
X117314675Y-79233161D01*
X117318881Y-79256891D01*
X117311073Y-79327457D01*
X117266354Y-79382600D01*
X117198922Y-79404812D01*
X117179385Y-79403868D01*
X117175467Y-79403050D01*
X117168788Y-79402700D01*
X117019033Y-79402700D01*
X116998241Y-79404812D01*
X116873466Y-79417486D01*
X116873465Y-79417486D01*
X116867117Y-79418131D01*
X116672522Y-79479114D01*
X116494163Y-79577979D01*
X116339327Y-79710690D01*
X116214339Y-79871824D01*
X116124304Y-80054799D01*
X116122695Y-80060977D01*
X116122694Y-80060979D01*
X116100228Y-80147229D01*
X116072900Y-80252141D01*
X116069538Y-80316294D01*
X116062788Y-80445110D01*
X116062228Y-80455788D01*
X116092722Y-80657422D01*
X116094928Y-80663417D01*
X116094928Y-80663418D01*
X116141350Y-80789589D01*
X116163137Y-80848806D01*
X116270598Y-81022122D01*
X116274979Y-81026755D01*
X116274980Y-81026756D01*
X116341658Y-81097266D01*
X116410714Y-81170291D01*
X116415944Y-81173953D01*
X116415945Y-81173954D01*
X116541630Y-81261959D01*
X116577761Y-81287258D01*
X116606594Y-81299735D01*
X116622765Y-81306733D01*
X116677339Y-81352144D01*
X116698699Y-81419851D01*
X116680063Y-81488358D01*
X116633810Y-81532572D01*
X116553914Y-81576859D01*
X116494163Y-81609979D01*
X116339327Y-81742690D01*
X116214339Y-81903824D01*
X116124304Y-82086799D01*
X116122695Y-82092977D01*
X116122694Y-82092979D01*
X116075991Y-82272276D01*
X116072900Y-82284141D01*
X116069862Y-82342108D01*
X116064739Y-82439881D01*
X116062228Y-82487788D01*
X99158500Y-82487788D01*
X99158500Y-76766982D01*
X99178502Y-76698861D01*
X99232158Y-76652368D01*
X99302432Y-76642264D01*
X99367012Y-76671758D01*
X99382420Y-76687688D01*
X99388183Y-76694805D01*
X99388191Y-76694814D01*
X99390266Y-76697376D01*
X99665124Y-76972234D01*
X99967207Y-77216857D01*
X99969970Y-77218652D01*
X99969971Y-77218652D01*
X100123478Y-77318340D01*
X100293205Y-77428562D01*
X100296139Y-77430057D01*
X100296146Y-77430061D01*
X100610418Y-77590190D01*
X100639547Y-77605032D01*
X100860547Y-77689866D01*
X100939286Y-77720091D01*
X101002438Y-77744333D01*
X101377901Y-77844938D01*
X101581793Y-77877232D01*
X101758576Y-77905232D01*
X101758584Y-77905233D01*
X101761824Y-77905746D01*
X102150000Y-77926089D01*
X102538176Y-77905746D01*
X102541416Y-77905233D01*
X102541424Y-77905232D01*
X102718207Y-77877232D01*
X102922099Y-77844938D01*
X103297562Y-77744333D01*
X103360715Y-77720091D01*
X103439452Y-77689866D01*
X103660453Y-77605032D01*
X103689582Y-77590190D01*
X104003854Y-77430061D01*
X104003861Y-77430057D01*
X104006795Y-77428562D01*
X104176523Y-77318340D01*
X104330029Y-77218652D01*
X104330030Y-77218652D01*
X104332793Y-77216857D01*
X104634876Y-76972234D01*
X104909734Y-76697376D01*
X104917580Y-76687688D01*
X105122967Y-76434056D01*
X105154357Y-76395293D01*
X105366062Y-76069294D01*
X105368759Y-76064002D01*
X105541034Y-75725893D01*
X105542532Y-75722953D01*
X105681833Y-75360062D01*
X105782438Y-74984599D01*
X105782956Y-74981331D01*
X105842732Y-74603924D01*
X105842733Y-74603916D01*
X105843246Y-74600676D01*
X105863589Y-74212500D01*
X105843246Y-73824324D01*
X105822121Y-73690944D01*
X105782954Y-73443662D01*
X105782438Y-73440401D01*
X105681833Y-73064938D01*
X105542532Y-72702047D01*
X105366062Y-72355706D01*
X105154357Y-72029707D01*
X104909734Y-71727624D01*
X104634876Y-71452766D01*
X104632316Y-71450693D01*
X104632305Y-71450683D01*
X104625188Y-71444920D01*
X104584836Y-71386506D01*
X104582470Y-71315549D01*
X104618843Y-71254577D01*
X104682405Y-71222949D01*
X104704482Y-71221000D01*
X178345518Y-71221000D01*
X178413639Y-71241002D01*
G37*
%TD.AperFunction*%
%TD*%
%TA.AperFunction,Conductor*%
%TO.N,GND*%
G36*
X174400000Y-133104000D02*
G01*
X140400000Y-133104000D01*
X140400000Y-123712500D01*
X140900000Y-124212500D01*
X173900000Y-124212500D01*
X174400000Y-123712500D01*
X174400000Y-133104000D01*
G37*
%TD.AperFunction*%
%TD*%
%TA.AperFunction,Conductor*%
%TO.N,GNDA*%
G36*
X172915931Y-110232502D02*
G01*
X172936905Y-110249405D01*
X173363095Y-110675595D01*
X173397121Y-110737907D01*
X173400000Y-110764690D01*
X173400000Y-122660310D01*
X173379998Y-122728431D01*
X173363095Y-122749405D01*
X172936905Y-123175595D01*
X172874593Y-123209621D01*
X172847810Y-123212500D01*
X141952190Y-123212500D01*
X141884069Y-123192498D01*
X141863095Y-123175595D01*
X141436905Y-122749405D01*
X141402879Y-122687093D01*
X141400000Y-122660310D01*
X141400000Y-122364669D01*
X142717001Y-122364669D01*
X142717371Y-122371490D01*
X142722895Y-122422352D01*
X142726521Y-122437604D01*
X142771676Y-122558054D01*
X142780214Y-122573649D01*
X142856715Y-122675724D01*
X142869276Y-122688285D01*
X142971351Y-122764786D01*
X142986946Y-122773324D01*
X143107394Y-122818478D01*
X143122649Y-122822105D01*
X143173514Y-122827631D01*
X143180328Y-122828000D01*
X143802885Y-122828000D01*
X143818124Y-122823525D01*
X143819329Y-122822135D01*
X143821000Y-122814452D01*
X143821000Y-122809884D01*
X144329000Y-122809884D01*
X144333475Y-122825123D01*
X144334865Y-122826328D01*
X144342548Y-122827999D01*
X144969669Y-122827999D01*
X144976490Y-122827629D01*
X145027352Y-122822105D01*
X145042604Y-122818479D01*
X145163054Y-122773324D01*
X145178649Y-122764786D01*
X145280724Y-122688285D01*
X145293285Y-122675724D01*
X145369786Y-122573649D01*
X145378324Y-122558054D01*
X145419225Y-122448952D01*
X145461867Y-122392188D01*
X145528428Y-122367488D01*
X145597777Y-122382696D01*
X145632444Y-122410684D01*
X145657865Y-122440031D01*
X145657869Y-122440035D01*
X145661250Y-122443938D01*
X145833126Y-122586632D01*
X146026000Y-122699338D01*
X146234692Y-122779030D01*
X146239760Y-122780061D01*
X146239763Y-122780062D01*
X146347017Y-122801883D01*
X146453597Y-122823567D01*
X146458772Y-122823757D01*
X146458774Y-122823757D01*
X146671673Y-122831564D01*
X146671677Y-122831564D01*
X146676837Y-122831753D01*
X146681957Y-122831097D01*
X146681959Y-122831097D01*
X146893288Y-122804025D01*
X146893289Y-122804025D01*
X146898416Y-122803368D01*
X146903366Y-122801883D01*
X147107429Y-122740661D01*
X147107434Y-122740659D01*
X147112384Y-122739174D01*
X147312994Y-122640896D01*
X147494860Y-122511173D01*
X147653096Y-122353489D01*
X147783453Y-122172077D01*
X147784776Y-122173028D01*
X147831645Y-122129857D01*
X147901580Y-122117625D01*
X147967026Y-122145144D01*
X147994875Y-122176994D01*
X148054987Y-122275088D01*
X148201250Y-122443938D01*
X148373126Y-122586632D01*
X148566000Y-122699338D01*
X148774692Y-122779030D01*
X148779760Y-122780061D01*
X148779763Y-122780062D01*
X148887017Y-122801883D01*
X148993597Y-122823567D01*
X148998772Y-122823757D01*
X148998774Y-122823757D01*
X149211673Y-122831564D01*
X149211677Y-122831564D01*
X149216837Y-122831753D01*
X149221957Y-122831097D01*
X149221959Y-122831097D01*
X149433288Y-122804025D01*
X149433289Y-122804025D01*
X149438416Y-122803368D01*
X149443366Y-122801883D01*
X149647429Y-122740661D01*
X149647434Y-122740659D01*
X149652384Y-122739174D01*
X149852994Y-122640896D01*
X150034860Y-122511173D01*
X150181877Y-122364669D01*
X153717001Y-122364669D01*
X153717371Y-122371490D01*
X153722895Y-122422352D01*
X153726521Y-122437604D01*
X153771676Y-122558054D01*
X153780214Y-122573649D01*
X153856715Y-122675724D01*
X153869276Y-122688285D01*
X153971351Y-122764786D01*
X153986946Y-122773324D01*
X154107394Y-122818478D01*
X154122649Y-122822105D01*
X154173514Y-122827631D01*
X154180328Y-122828000D01*
X154802885Y-122828000D01*
X154818124Y-122823525D01*
X154819329Y-122822135D01*
X154821000Y-122814452D01*
X154821000Y-122809884D01*
X155329000Y-122809884D01*
X155333475Y-122825123D01*
X155334865Y-122826328D01*
X155342548Y-122827999D01*
X155969669Y-122827999D01*
X155976490Y-122827629D01*
X156027352Y-122822105D01*
X156042604Y-122818479D01*
X156163054Y-122773324D01*
X156178649Y-122764786D01*
X156280724Y-122688285D01*
X156293285Y-122675724D01*
X156369786Y-122573649D01*
X156378324Y-122558054D01*
X156419225Y-122448952D01*
X156461867Y-122392188D01*
X156528428Y-122367488D01*
X156597777Y-122382696D01*
X156632444Y-122410684D01*
X156657865Y-122440031D01*
X156657869Y-122440035D01*
X156661250Y-122443938D01*
X156833126Y-122586632D01*
X157026000Y-122699338D01*
X157234692Y-122779030D01*
X157239760Y-122780061D01*
X157239763Y-122780062D01*
X157347017Y-122801883D01*
X157453597Y-122823567D01*
X157458772Y-122823757D01*
X157458774Y-122823757D01*
X157671673Y-122831564D01*
X157671677Y-122831564D01*
X157676837Y-122831753D01*
X157681957Y-122831097D01*
X157681959Y-122831097D01*
X157893288Y-122804025D01*
X157893289Y-122804025D01*
X157898416Y-122803368D01*
X157903366Y-122801883D01*
X158107429Y-122740661D01*
X158107434Y-122740659D01*
X158112384Y-122739174D01*
X158312994Y-122640896D01*
X158494860Y-122511173D01*
X158653096Y-122353489D01*
X158783453Y-122172077D01*
X158784776Y-122173028D01*
X158831645Y-122129857D01*
X158901580Y-122117625D01*
X158967026Y-122145144D01*
X158994875Y-122176994D01*
X159054987Y-122275088D01*
X159201250Y-122443938D01*
X159373126Y-122586632D01*
X159566000Y-122699338D01*
X159774692Y-122779030D01*
X159779760Y-122780061D01*
X159779763Y-122780062D01*
X159887017Y-122801883D01*
X159993597Y-122823567D01*
X159998772Y-122823757D01*
X159998774Y-122823757D01*
X160211673Y-122831564D01*
X160211677Y-122831564D01*
X160216837Y-122831753D01*
X160221957Y-122831097D01*
X160221959Y-122831097D01*
X160433288Y-122804025D01*
X160433289Y-122804025D01*
X160438416Y-122803368D01*
X160443366Y-122801883D01*
X160647429Y-122740661D01*
X160647434Y-122740659D01*
X160652384Y-122739174D01*
X160852994Y-122640896D01*
X161034860Y-122511173D01*
X161181877Y-122364669D01*
X164717001Y-122364669D01*
X164717371Y-122371490D01*
X164722895Y-122422352D01*
X164726521Y-122437604D01*
X164771676Y-122558054D01*
X164780214Y-122573649D01*
X164856715Y-122675724D01*
X164869276Y-122688285D01*
X164971351Y-122764786D01*
X164986946Y-122773324D01*
X165107394Y-122818478D01*
X165122649Y-122822105D01*
X165173514Y-122827631D01*
X165180328Y-122828000D01*
X165802885Y-122828000D01*
X165818124Y-122823525D01*
X165819329Y-122822135D01*
X165821000Y-122814452D01*
X165821000Y-122809884D01*
X166329000Y-122809884D01*
X166333475Y-122825123D01*
X166334865Y-122826328D01*
X166342548Y-122827999D01*
X166969669Y-122827999D01*
X166976490Y-122827629D01*
X167027352Y-122822105D01*
X167042604Y-122818479D01*
X167163054Y-122773324D01*
X167178649Y-122764786D01*
X167280724Y-122688285D01*
X167293285Y-122675724D01*
X167369786Y-122573649D01*
X167378324Y-122558054D01*
X167419225Y-122448952D01*
X167461867Y-122392188D01*
X167528428Y-122367488D01*
X167597777Y-122382696D01*
X167632444Y-122410684D01*
X167657865Y-122440031D01*
X167657869Y-122440035D01*
X167661250Y-122443938D01*
X167833126Y-122586632D01*
X168026000Y-122699338D01*
X168234692Y-122779030D01*
X168239760Y-122780061D01*
X168239763Y-122780062D01*
X168347017Y-122801883D01*
X168453597Y-122823567D01*
X168458772Y-122823757D01*
X168458774Y-122823757D01*
X168671673Y-122831564D01*
X168671677Y-122831564D01*
X168676837Y-122831753D01*
X168681957Y-122831097D01*
X168681959Y-122831097D01*
X168893288Y-122804025D01*
X168893289Y-122804025D01*
X168898416Y-122803368D01*
X168903366Y-122801883D01*
X169107429Y-122740661D01*
X169107434Y-122740659D01*
X169112384Y-122739174D01*
X169312994Y-122640896D01*
X169494860Y-122511173D01*
X169653096Y-122353489D01*
X169783453Y-122172077D01*
X169784776Y-122173028D01*
X169831645Y-122129857D01*
X169901580Y-122117625D01*
X169967026Y-122145144D01*
X169994875Y-122176994D01*
X170054987Y-122275088D01*
X170201250Y-122443938D01*
X170373126Y-122586632D01*
X170566000Y-122699338D01*
X170774692Y-122779030D01*
X170779760Y-122780061D01*
X170779763Y-122780062D01*
X170887017Y-122801883D01*
X170993597Y-122823567D01*
X170998772Y-122823757D01*
X170998774Y-122823757D01*
X171211673Y-122831564D01*
X171211677Y-122831564D01*
X171216837Y-122831753D01*
X171221957Y-122831097D01*
X171221959Y-122831097D01*
X171433288Y-122804025D01*
X171433289Y-122804025D01*
X171438416Y-122803368D01*
X171443366Y-122801883D01*
X171647429Y-122740661D01*
X171647434Y-122740659D01*
X171652384Y-122739174D01*
X171852994Y-122640896D01*
X172034860Y-122511173D01*
X172193096Y-122353489D01*
X172323453Y-122172077D01*
X172344320Y-122129857D01*
X172420136Y-121976453D01*
X172420137Y-121976451D01*
X172422430Y-121971811D01*
X172487370Y-121758069D01*
X172516529Y-121536590D01*
X172518156Y-121470000D01*
X172499852Y-121247361D01*
X172445431Y-121030702D01*
X172356354Y-120825840D01*
X172235014Y-120638277D01*
X172084670Y-120473051D01*
X172080619Y-120469852D01*
X172080615Y-120469848D01*
X171913414Y-120337800D01*
X171913410Y-120337798D01*
X171909359Y-120334598D01*
X171713789Y-120226638D01*
X171708920Y-120224914D01*
X171708916Y-120224912D01*
X171508087Y-120153795D01*
X171508083Y-120153794D01*
X171503212Y-120152069D01*
X171498119Y-120151162D01*
X171498116Y-120151161D01*
X171288373Y-120113800D01*
X171288367Y-120113799D01*
X171283284Y-120112894D01*
X171209452Y-120111992D01*
X171065081Y-120110228D01*
X171065079Y-120110228D01*
X171059911Y-120110165D01*
X170839091Y-120143955D01*
X170626756Y-120213357D01*
X170428607Y-120316507D01*
X170424474Y-120319610D01*
X170424471Y-120319612D01*
X170341450Y-120381946D01*
X170249965Y-120450635D01*
X170095629Y-120612138D01*
X169988201Y-120769621D01*
X169933293Y-120814621D01*
X169862768Y-120822792D01*
X169799021Y-120791538D01*
X169778324Y-120767054D01*
X169697822Y-120642617D01*
X169697820Y-120642614D01*
X169695014Y-120638277D01*
X169544670Y-120473051D01*
X169540619Y-120469852D01*
X169540615Y-120469848D01*
X169373414Y-120337800D01*
X169373410Y-120337798D01*
X169369359Y-120334598D01*
X169173789Y-120226638D01*
X169168920Y-120224914D01*
X169168916Y-120224912D01*
X168968087Y-120153795D01*
X168968083Y-120153794D01*
X168963212Y-120152069D01*
X168958119Y-120151162D01*
X168958116Y-120151161D01*
X168748373Y-120113800D01*
X168748367Y-120113799D01*
X168743284Y-120112894D01*
X168669452Y-120111992D01*
X168525081Y-120110228D01*
X168525079Y-120110228D01*
X168519911Y-120110165D01*
X168299091Y-120143955D01*
X168086756Y-120213357D01*
X167888607Y-120316507D01*
X167884474Y-120319610D01*
X167884471Y-120319612D01*
X167801450Y-120381946D01*
X167709965Y-120450635D01*
X167706393Y-120454373D01*
X167628898Y-120535466D01*
X167567374Y-120570895D01*
X167496462Y-120567438D01*
X167438676Y-120526192D01*
X167419823Y-120492644D01*
X167378324Y-120381946D01*
X167369786Y-120366351D01*
X167293285Y-120264276D01*
X167280724Y-120251715D01*
X167178649Y-120175214D01*
X167163054Y-120166676D01*
X167042606Y-120121522D01*
X167027351Y-120117895D01*
X166976486Y-120112369D01*
X166969672Y-120112000D01*
X166347115Y-120112000D01*
X166331876Y-120116475D01*
X166330671Y-120117865D01*
X166329000Y-120125548D01*
X166329000Y-122809884D01*
X165821000Y-122809884D01*
X165821000Y-121742115D01*
X165816525Y-121726876D01*
X165815135Y-121725671D01*
X165807452Y-121724000D01*
X164735116Y-121724000D01*
X164719877Y-121728475D01*
X164718672Y-121729865D01*
X164717001Y-121737548D01*
X164717001Y-122364669D01*
X161181877Y-122364669D01*
X161193096Y-122353489D01*
X161323453Y-122172077D01*
X161344320Y-122129857D01*
X161420136Y-121976453D01*
X161420137Y-121976451D01*
X161422430Y-121971811D01*
X161487370Y-121758069D01*
X161516529Y-121536590D01*
X161518156Y-121470000D01*
X161499852Y-121247361D01*
X161487424Y-121197885D01*
X164717000Y-121197885D01*
X164721475Y-121213124D01*
X164722865Y-121214329D01*
X164730548Y-121216000D01*
X165802885Y-121216000D01*
X165818124Y-121211525D01*
X165819329Y-121210135D01*
X165821000Y-121202452D01*
X165821000Y-120130116D01*
X165816525Y-120114877D01*
X165815135Y-120113672D01*
X165807452Y-120112001D01*
X165180331Y-120112001D01*
X165173510Y-120112371D01*
X165122648Y-120117895D01*
X165107396Y-120121521D01*
X164986946Y-120166676D01*
X164971351Y-120175214D01*
X164869276Y-120251715D01*
X164856715Y-120264276D01*
X164780214Y-120366351D01*
X164771676Y-120381946D01*
X164726522Y-120502394D01*
X164722895Y-120517649D01*
X164717369Y-120568514D01*
X164717000Y-120575328D01*
X164717000Y-121197885D01*
X161487424Y-121197885D01*
X161445431Y-121030702D01*
X161356354Y-120825840D01*
X161235014Y-120638277D01*
X161084670Y-120473051D01*
X161080619Y-120469852D01*
X161080615Y-120469848D01*
X160913414Y-120337800D01*
X160913410Y-120337798D01*
X160909359Y-120334598D01*
X160713789Y-120226638D01*
X160708920Y-120224914D01*
X160708916Y-120224912D01*
X160508087Y-120153795D01*
X160508083Y-120153794D01*
X160503212Y-120152069D01*
X160498119Y-120151162D01*
X160498116Y-120151161D01*
X160288373Y-120113800D01*
X160288367Y-120113799D01*
X160283284Y-120112894D01*
X160209452Y-120111992D01*
X160065081Y-120110228D01*
X160065079Y-120110228D01*
X160059911Y-120110165D01*
X159839091Y-120143955D01*
X159626756Y-120213357D01*
X159428607Y-120316507D01*
X159424474Y-120319610D01*
X159424471Y-120319612D01*
X159341450Y-120381946D01*
X159249965Y-120450635D01*
X159095629Y-120612138D01*
X158988201Y-120769621D01*
X158933293Y-120814621D01*
X158862768Y-120822792D01*
X158799021Y-120791538D01*
X158778324Y-120767054D01*
X158697822Y-120642617D01*
X158697820Y-120642614D01*
X158695014Y-120638277D01*
X158544670Y-120473051D01*
X158540619Y-120469852D01*
X158540615Y-120469848D01*
X158373414Y-120337800D01*
X158373410Y-120337798D01*
X158369359Y-120334598D01*
X158173789Y-120226638D01*
X158168920Y-120224914D01*
X158168916Y-120224912D01*
X157968087Y-120153795D01*
X157968083Y-120153794D01*
X157963212Y-120152069D01*
X157958119Y-120151162D01*
X157958116Y-120151161D01*
X157748373Y-120113800D01*
X157748367Y-120113799D01*
X157743284Y-120112894D01*
X157669452Y-120111992D01*
X157525081Y-120110228D01*
X157525079Y-120110228D01*
X157519911Y-120110165D01*
X157299091Y-120143955D01*
X157086756Y-120213357D01*
X156888607Y-120316507D01*
X156884474Y-120319610D01*
X156884471Y-120319612D01*
X156801450Y-120381946D01*
X156709965Y-120450635D01*
X156706393Y-120454373D01*
X156628898Y-120535466D01*
X156567374Y-120570895D01*
X156496462Y-120567438D01*
X156438676Y-120526192D01*
X156419823Y-120492644D01*
X156378324Y-120381946D01*
X156369786Y-120366351D01*
X156293285Y-120264276D01*
X156280724Y-120251715D01*
X156178649Y-120175214D01*
X156163054Y-120166676D01*
X156042606Y-120121522D01*
X156027351Y-120117895D01*
X155976486Y-120112369D01*
X155969672Y-120112000D01*
X155347115Y-120112000D01*
X155331876Y-120116475D01*
X155330671Y-120117865D01*
X155329000Y-120125548D01*
X155329000Y-122809884D01*
X154821000Y-122809884D01*
X154821000Y-121742115D01*
X154816525Y-121726876D01*
X154815135Y-121725671D01*
X154807452Y-121724000D01*
X153735116Y-121724000D01*
X153719877Y-121728475D01*
X153718672Y-121729865D01*
X153717001Y-121737548D01*
X153717001Y-122364669D01*
X150181877Y-122364669D01*
X150193096Y-122353489D01*
X150323453Y-122172077D01*
X150344320Y-122129857D01*
X150420136Y-121976453D01*
X150420137Y-121976451D01*
X150422430Y-121971811D01*
X150487370Y-121758069D01*
X150516529Y-121536590D01*
X150518156Y-121470000D01*
X150499852Y-121247361D01*
X150487424Y-121197885D01*
X153717000Y-121197885D01*
X153721475Y-121213124D01*
X153722865Y-121214329D01*
X153730548Y-121216000D01*
X154802885Y-121216000D01*
X154818124Y-121211525D01*
X154819329Y-121210135D01*
X154821000Y-121202452D01*
X154821000Y-120130116D01*
X154816525Y-120114877D01*
X154815135Y-120113672D01*
X154807452Y-120112001D01*
X154180331Y-120112001D01*
X154173510Y-120112371D01*
X154122648Y-120117895D01*
X154107396Y-120121521D01*
X153986946Y-120166676D01*
X153971351Y-120175214D01*
X153869276Y-120251715D01*
X153856715Y-120264276D01*
X153780214Y-120366351D01*
X153771676Y-120381946D01*
X153726522Y-120502394D01*
X153722895Y-120517649D01*
X153717369Y-120568514D01*
X153717000Y-120575328D01*
X153717000Y-121197885D01*
X150487424Y-121197885D01*
X150445431Y-121030702D01*
X150356354Y-120825840D01*
X150235014Y-120638277D01*
X150084670Y-120473051D01*
X150080619Y-120469852D01*
X150080615Y-120469848D01*
X149913414Y-120337800D01*
X149913410Y-120337798D01*
X149909359Y-120334598D01*
X149713789Y-120226638D01*
X149708920Y-120224914D01*
X149708916Y-120224912D01*
X149508087Y-120153795D01*
X149508083Y-120153794D01*
X149503212Y-120152069D01*
X149498119Y-120151162D01*
X149498116Y-120151161D01*
X149288373Y-120113800D01*
X149288367Y-120113799D01*
X149283284Y-120112894D01*
X149209452Y-120111992D01*
X149065081Y-120110228D01*
X149065079Y-120110228D01*
X149059911Y-120110165D01*
X148839091Y-120143955D01*
X148626756Y-120213357D01*
X148428607Y-120316507D01*
X148424474Y-120319610D01*
X148424471Y-120319612D01*
X148341450Y-120381946D01*
X148249965Y-120450635D01*
X148095629Y-120612138D01*
X147988201Y-120769621D01*
X147933293Y-120814621D01*
X147862768Y-120822792D01*
X147799021Y-120791538D01*
X147778324Y-120767054D01*
X147697822Y-120642617D01*
X147697820Y-120642614D01*
X147695014Y-120638277D01*
X147544670Y-120473051D01*
X147540619Y-120469852D01*
X147540615Y-120469848D01*
X147373414Y-120337800D01*
X147373410Y-120337798D01*
X147369359Y-120334598D01*
X147173789Y-120226638D01*
X147168920Y-120224914D01*
X147168916Y-120224912D01*
X146968087Y-120153795D01*
X146968083Y-120153794D01*
X146963212Y-120152069D01*
X146958119Y-120151162D01*
X146958116Y-120151161D01*
X146748373Y-120113800D01*
X146748367Y-120113799D01*
X146743284Y-120112894D01*
X146669452Y-120111992D01*
X146525081Y-120110228D01*
X146525079Y-120110228D01*
X146519911Y-120110165D01*
X146299091Y-120143955D01*
X146086756Y-120213357D01*
X145888607Y-120316507D01*
X145884474Y-120319610D01*
X145884471Y-120319612D01*
X145801450Y-120381946D01*
X145709965Y-120450635D01*
X145706393Y-120454373D01*
X145628898Y-120535466D01*
X145567374Y-120570895D01*
X145496462Y-120567438D01*
X145438676Y-120526192D01*
X145419823Y-120492644D01*
X145378324Y-120381946D01*
X145369786Y-120366351D01*
X145293285Y-120264276D01*
X145280724Y-120251715D01*
X145178649Y-120175214D01*
X145163054Y-120166676D01*
X145042606Y-120121522D01*
X145027351Y-120117895D01*
X144976486Y-120112369D01*
X144969672Y-120112000D01*
X144347115Y-120112000D01*
X144331876Y-120116475D01*
X144330671Y-120117865D01*
X144329000Y-120125548D01*
X144329000Y-122809884D01*
X143821000Y-122809884D01*
X143821000Y-121742115D01*
X143816525Y-121726876D01*
X143815135Y-121725671D01*
X143807452Y-121724000D01*
X142735116Y-121724000D01*
X142719877Y-121728475D01*
X142718672Y-121729865D01*
X142717001Y-121737548D01*
X142717001Y-122364669D01*
X141400000Y-122364669D01*
X141400000Y-121197885D01*
X142717000Y-121197885D01*
X142721475Y-121213124D01*
X142722865Y-121214329D01*
X142730548Y-121216000D01*
X143802885Y-121216000D01*
X143818124Y-121211525D01*
X143819329Y-121210135D01*
X143821000Y-121202452D01*
X143821000Y-120130116D01*
X143816525Y-120114877D01*
X143815135Y-120113672D01*
X143807452Y-120112001D01*
X143180331Y-120112001D01*
X143173510Y-120112371D01*
X143122648Y-120117895D01*
X143107396Y-120121521D01*
X142986946Y-120166676D01*
X142971351Y-120175214D01*
X142869276Y-120251715D01*
X142856715Y-120264276D01*
X142780214Y-120366351D01*
X142771676Y-120381946D01*
X142726522Y-120502394D01*
X142722895Y-120517649D01*
X142717369Y-120568514D01*
X142717000Y-120575328D01*
X142717000Y-121197885D01*
X141400000Y-121197885D01*
X141400000Y-119764690D01*
X141420002Y-119696569D01*
X141436905Y-119675595D01*
X144363095Y-116749405D01*
X144425407Y-116715379D01*
X144452190Y-116712500D01*
X154400000Y-116712500D01*
X157400000Y-113712500D01*
X157400000Y-110764690D01*
X157420002Y-110696569D01*
X157436905Y-110675595D01*
X157863095Y-110249405D01*
X157925407Y-110215379D01*
X157952190Y-110212500D01*
X172847810Y-110212500D01*
X172915931Y-110232502D01*
G37*
%TD.AperFunction*%
%TD*%
M02*
