M48
; DRILL file {KiCad (6.0.5)} date Sat Jan 28 00:33:02 2023
; FORMAT={-:-/ absolute / inch / decimal}
; #@! TF.CreationDate,2023-01-28T00:33:02+00:00
; #@! TF.GenerationSoftware,Kicad,Pcbnew,(6.0.5)
; #@! TF.FileFunction,Plated,1,2,PTH
FMAT,2
INCH
; #@! TA.AperFunction,Plated,PTH,ViaDrill
T1C0.0138
; #@! TA.AperFunction,Plated,PTH,ViaDrill
T2C0.0157
; #@! TA.AperFunction,Plated,PTH,ComponentDrill
T3C0.0374
; #@! TA.AperFunction,Plated,PTH,ComponentDrill
T4C0.0394
; #@! TA.AperFunction,Plated,PTH,ComponentDrill
T5C0.0433
; #@! TA.AperFunction,Plated,PTH,ComponentDrill
T6C0.0906
; #@! TA.AperFunction,Plated,PTH,ComponentDrill
T7C0.1260
%
G90
G05
T1
X4.5728Y-3.2056
X5.437Y-3.5438
X5.437Y-4.5044
X5.498Y-3.2761
X5.5374Y-3.1875
X5.5571Y-3.0891
X5.6122Y-3.1639
X5.6378Y-3.0084
X5.6535Y-3.2406
X5.6535Y-4.6737
X5.7126Y-2.9355
X5.7677Y-4.6088
X5.8268Y-4.7126
X5.878Y-4.6088
X5.937Y-3.5438
X5.937Y-4.5044
X5.9921Y-4.6088
X5.9921Y-4.717
X6.0118Y-4.0966
X6.1063Y-4.6088
X6.1181Y-3.4237
X6.1181Y-3.8469
X6.189Y-4.5261
X6.1929Y-4.6575
X6.2874Y-4.5084
X6.378Y-4.658
X6.437Y-3.5438
X6.437Y-4.5044
X6.437Y-4.591
X6.5079Y-4.658
X6.6398Y-4.5261
X6.6398Y-4.6048
X6.6811Y-4.7131
X6.937Y-3.5438
X6.937Y-4.5044
X6.9567Y-3.9296
X6.9567Y-4.1186
X7.0354Y-3.1698
X7.0699Y-4.0241
X7.0925Y-4.782
X7.1339Y-3.8666
X7.1339Y-4.1816
X7.1378Y-3.1698
T2
X4.8661Y-3.1698
X5.1417Y-3.1698
X5.1634Y-3.5733
X5.3366Y-3.5546
X5.8189Y-2.9946
X5.872Y-3.2072
X5.874Y-2.9158
X6.0118Y-4.1989
T3
X6.3839Y-3.3071
X6.3839Y-3.3858
X6.4823Y-3.3071
X6.4823Y-3.3858
T4
X4.3757Y-3.3912
X4.3757Y-3.4912
X4.3757Y-3.5912
X4.3757Y-3.6912
X4.3757Y-3.7912
X4.3757Y-4.2574
X4.3757Y-4.3574
X4.3757Y-4.4574
X4.3757Y-4.5574
X4.3757Y-4.6574
X4.7067Y-4.8995
X4.7067Y-4.9995
X4.8067Y-4.8995
X4.8067Y-4.9995
X4.9067Y-4.8995
X4.9067Y-4.9995
X5.0067Y-4.8995
X5.0067Y-4.9995
X5.1067Y-4.8995
X5.1067Y-4.9995
X5.1606Y-3.0694
X5.2067Y-4.8995
X5.2067Y-4.9995
X5.2606Y-3.0694
X5.3606Y-3.0694
X5.4606Y-3.0694
X5.6722Y-4.7823
X5.7722Y-4.7823
X5.8722Y-4.7823
X6.1053Y-4.7823
X6.2053Y-4.7823
X6.3053Y-4.7823
X6.5384Y-4.7823
X6.6384Y-4.7823
X6.7384Y-4.7823
T5
X4.6909Y-3.719
X4.6909Y-3.8962
X4.6909Y-4.1521
X4.6909Y-4.3292
X4.9469Y-3.719
X4.9469Y-3.8962
X4.9469Y-4.1521
X4.9469Y-4.3292
T6
X6.1969Y-3.1945
X6.6693Y-3.1945
T7
X4.0217Y-2.9218
X4.0236Y-5.1186
X7.122Y-2.9218
X7.122Y-5.1225
T0
M30
