%TF.GenerationSoftware,KiCad,Pcbnew,(6.0.5)*%
%TF.CreationDate,2023-01-28T00:33:00+00:00*%
%TF.ProjectId,Drivebase Board,44726976-6562-4617-9365-20426f617264,rev?*%
%TF.SameCoordinates,Original*%
%TF.FileFunction,Soldermask,Bot*%
%TF.FilePolarity,Negative*%
%FSLAX46Y46*%
G04 Gerber Fmt 4.6, Leading zero omitted, Abs format (unit mm)*
G04 Created by KiCad (PCBNEW (6.0.5)) date 2023-01-28 00:33:00*
%MOMM*%
%LPD*%
G01*
G04 APERTURE LIST*
%ADD10R,1.700000X1.700000*%
%ADD11O,1.700000X1.700000*%
%ADD12C,6.400000*%
%ADD13C,0.990600*%
%ADD14C,2.374900*%
%ADD15C,2.000000*%
%ADD16R,1.600000X1.600000*%
%ADD17C,1.600000*%
%ADD18C,4.000000*%
G04 APERTURE END LIST*
D10*
%TO.C,J102*%
X111142500Y-108137500D03*
D11*
X111142500Y-110677500D03*
X111142500Y-113217500D03*
X111142500Y-115757500D03*
X111142500Y-118297500D03*
%TD*%
D12*
%TO.C,H104*%
X102200000Y-130012500D03*
%TD*%
D10*
%TO.C,J103*%
X144075000Y-121470000D03*
D11*
X146615000Y-121470000D03*
X149155000Y-121470000D03*
%TD*%
D12*
%TO.C,H102*%
X180900000Y-130112500D03*
%TD*%
%TO.C,H101*%
X180900000Y-74212500D03*
%TD*%
D10*
%TO.C,J101*%
X111142500Y-86137500D03*
D11*
X111142500Y-88677500D03*
X111142500Y-91217500D03*
X111142500Y-93757500D03*
X111142500Y-96297500D03*
%TD*%
D10*
%TO.C,J105*%
X166075000Y-121470000D03*
D11*
X168615000Y-121470000D03*
X171155000Y-121470000D03*
%TD*%
D12*
%TO.C,H103*%
X102150000Y-74212500D03*
%TD*%
D13*
%TO.C,J106*%
X117070000Y-82438500D03*
D14*
X118975000Y-83962500D03*
X122150000Y-83962500D03*
D13*
X122150000Y-81422500D03*
X117070000Y-80406500D03*
D14*
X122150000Y-78882500D03*
X118975000Y-78882500D03*
%TD*%
D10*
%TO.C,J109*%
X119550000Y-126987500D03*
D11*
X119550000Y-124447500D03*
X122090000Y-126987500D03*
X122090000Y-124447500D03*
X124630000Y-126987500D03*
X124630000Y-124447500D03*
X127170000Y-126987500D03*
X127170000Y-124447500D03*
X129710000Y-126987500D03*
X129710000Y-124447500D03*
X132250000Y-126987500D03*
X132250000Y-124447500D03*
%TD*%
D10*
%TO.C,J107*%
X138700000Y-77962500D03*
D11*
X136160000Y-77962500D03*
X133620000Y-77962500D03*
X131080000Y-77962500D03*
%TD*%
D15*
%TO.C,SW102*%
X125650000Y-109962500D03*
X119150000Y-109962500D03*
X119150000Y-105462500D03*
X125650000Y-105462500D03*
%TD*%
D10*
%TO.C,J104*%
X155075000Y-121470000D03*
D11*
X157615000Y-121470000D03*
X160155000Y-121470000D03*
%TD*%
D15*
%TO.C,SW101*%
X125650000Y-98962500D03*
X119150000Y-98962500D03*
X119150000Y-94462500D03*
X125650000Y-94462500D03*
%TD*%
D16*
%TO.C,J108*%
X162150000Y-86000000D03*
D17*
X164650000Y-86000000D03*
X164650000Y-84000000D03*
X162150000Y-84000000D03*
D18*
X169400000Y-81140000D03*
X157400000Y-81140000D03*
%TD*%
M02*
